<?xml version="1.0" encoding="UTF-8" standalone="no"?>
<?xml-stylesheet href="style.css" type="text/css"?>
<!DOCTYPE svg PUBLIC "-//W3C//DTD SVG 1.1//EN"
 "http://www.w3.org/Graphics/SVG/1.1/DTD/svg11.dtd">
<!-- Generated by graphviz version 2.38.0 (20140413.2041)
 -->
<!-- Title: 14.svg Pages: 1 -->
<svg width="1388pt" height="374pt"
 viewBox="0.00 0.00 1388.00 374.00" xmlns="http://www.w3.org/2000/svg" xmlns:xlink="http://www.w3.org/1999/xlink">
<g id="graph0" class="graph" transform="scale(1 1) rotate(0) translate(4 370)">
<title>14.svg</title>
<polygon fill="white" stroke="none" points="-4,4 -4,-370 1384,-370 1384,4 -4,4"/>
<!-- r0 -->
<g id="node1" class="node"><title>r0</title>
<polygon fill="none" stroke="black" stroke-dasharray="5,2" points="299.5,-366 276.5,-366 276.5,-348 299.5,-348 299.5,-366"/>
<text text-anchor="middle" x="288" y="-354.8" font-family="serif" font-size="9.00">0</text>
</g>
<!-- v0 -->
<g id="v0_Building" class="node"><title>v0</title>
<ellipse fill="none" stroke="black" cx="288" cy="-301" rx="36" ry="11"/>
<text text-anchor="middle" x="288" y="-298.8" font-family="sans-serif" font-size="9.00">Building</text>
</g>
<!-- r0&#45;&gt;v0 -->
<g id="edge1" class="edge"><title>r0&#45;&gt;v0</title>
<path fill="none" stroke="black" d="M288,-347.562C288,-339.453 288,-327.014 288,-317.181"/>
<polygon fill="black" stroke="black" points="288,-312.03 290.25,-317.03 288,-314.53 288,-317.03 288,-317.03 288,-317.03 288,-314.53 285.75,-317.03 288,-312.03 288,-312.03"/>
</g>
<!-- r1 -->
<g id="node2" class="node"><title>r1</title>
<polygon fill="none" stroke="black" stroke-dasharray="5,2" points="1175.5,-366 1152.5,-366 1152.5,-348 1175.5,-348 1175.5,-366"/>
<text text-anchor="middle" x="1164" y="-354.8" font-family="serif" font-size="9.00">1</text>
</g>
<!-- v11 -->
<g id="v11_RulesKeywords" class="node"><title>v11</title>
<ellipse fill="none" stroke="black" cx="1164" cy="-69" rx="54" ry="11"/>
<text text-anchor="middle" x="1164" y="-66.8" font-family="sans-serif" font-size="9.00">RulesKeywords</text>
</g>
<!-- r1&#45;&gt;v11 -->
<g id="edge2" class="edge"><title>r1&#45;&gt;v11</title>
<path fill="none" stroke="black" d="M1164,-347.849C1164,-329.373 1164,-282.889 1164,-244 1164,-244 1164,-244 1164,-184 1164,-148.604 1164,-107.026 1164,-85.1783"/>
<polygon fill="black" stroke="black" points="1164,-80.0648 1166.25,-85.0648 1164,-82.5648 1164,-85.0648 1164,-85.0648 1164,-85.0648 1164,-82.5648 1161.75,-85.0648 1164,-80.0648 1164,-80.0648"/>
</g>
<!-- e3 -->
<g id="node3" class="node"><title>e3</title>
</g>
<!-- v7 -->
<g id="v7_SmartLight" class="node"><title>v7</title>
<ellipse fill="none" stroke="black" cx="385" cy="-11" rx="43" ry="11"/>
<text text-anchor="middle" x="385" y="-8.8" font-family="sans-serif" font-size="9.00">SmartLight</text>
</g>
<!-- e3&#45;&gt;v7 -->
<g id="edge26" class="edge"><title>e3&#45;&gt;v7</title>
<path fill="none" stroke="green" d="M385,-64.1674C385,-55.5862 385,-34.5957 385,-22.0117"/>
<polygon fill="green" stroke="green" points="388.5,-67.3001 381.5,-67.2999 381.5,-65.8999 388.5,-65.9001 388.5,-67.3001"/>
<polyline fill="none" stroke="green" points="385,-68 385,-64.5 "/>
</g>
<!-- v1 -->
<g id="v1_Floor" class="node"><title>v1</title>
<ellipse fill="none" stroke="black" cx="452" cy="-243" rx="25" ry="11"/>
<text text-anchor="middle" x="452" y="-240.8" font-family="sans-serif" font-size="9.00">Floor</text>
</g>
<!-- v0&#45;&gt;v1 -->
<g id="edge3" class="edge"><title>v0&#45;&gt;v1</title>
<path fill="none" stroke="black" d="M310.46,-292.331C341.436,-281.753 397.008,-262.778 428.516,-252.019"/>
<polygon fill="black" stroke="black" points="433.359,-250.365 429.355,-254.11 430.993,-251.173 428.627,-251.981 428.627,-251.981 428.627,-251.981 430.993,-251.173 427.9,-249.852 433.359,-250.365 433.359,-250.365"/>
</g>
<!-- v10 -->
<g id="v10_InstallationBus" class="node"><title>v10</title>
<ellipse fill="none" stroke="black" cx="61" cy="-11" rx="61" ry="11"/>
<text text-anchor="middle" x="61" y="-8.8" font-family="sans-serif" font-size="9.00">InstallationBus</text>
</g>
<!-- v0&#45;&gt;v10 -->
<g id="edge4" class="edge"><title>v0&#45;&gt;v10</title>
<path fill="none" stroke="black" d="M259.635,-294.091C212.46,-282.419 123,-251.632 123,-186 123,-186 123,-186 123,-126 123,-85.6584 92.6666,-45.9774 74.434,-25.7699"/>
<polygon fill="black" stroke="black" points="70.9614,-21.9936 76.0021,-24.1511 72.6536,-23.8339 74.3459,-25.6741 74.3459,-25.6741 74.3459,-25.6741 72.6536,-23.8339 72.6897,-27.1971 70.9614,-21.9936 70.9614,-21.9936"/>
</g>
<!-- v2 -->
<g id="v2_Room" class="node"><title>v2</title>
<ellipse fill="none" stroke="black" cx="720" cy="-127" rx="21.5" ry="11"/>
<text text-anchor="middle" x="720" y="-124.8" font-family="sans-serif" font-size="9.00">Room</text>
</g>
<!-- v1&#45;&gt;v2 -->
<g id="edge5" class="edge"><title>v1&#45;&gt;v2</title>
<path fill="none" stroke="black" d="M470.682,-235.633C495.123,-227.176 539.173,-211.492 576,-196 621.531,-176.846 673.648,-151.306 700.981,-137.624"/>
<polygon fill="black" stroke="black" points="705.47,-135.372 702.01,-139.625 703.235,-136.493 701.001,-137.614 701.001,-137.614 701.001,-137.614 703.235,-136.493 699.992,-135.603 705.47,-135.372 705.47,-135.372"/>
</g>
<!-- v3 -->
<g id="v3_Room" class="node"><title>v3</title>
<ellipse fill="none" stroke="black" cx="368" cy="-185" rx="21.5" ry="11"/>
<text text-anchor="middle" x="368" y="-182.8" font-family="sans-serif" font-size="9.00">Room</text>
</g>
<!-- v1&#45;&gt;v3 -->
<g id="edge6" class="edge"><title>v1&#45;&gt;v3</title>
<path fill="none" stroke="black" d="M439.242,-233.495C424.643,-223.762 400.686,-207.79 384.633,-197.089"/>
<polygon fill="black" stroke="black" points="380.33,-194.22 385.738,-195.121 382.41,-195.607 384.49,-196.993 384.49,-196.993 384.49,-196.993 382.41,-195.607 383.242,-198.865 380.33,-194.22 380.33,-194.22"/>
</g>
<!-- v13 -->
<g id="v13_Hallway" class="node"><title>v13</title>
<ellipse fill="none" stroke="black" cx="479" cy="-11" rx="32.5" ry="11"/>
<text text-anchor="middle" x="479" y="-8.8" font-family="sans-serif" font-size="9.00">Hallway</text>
</g>
<!-- v1&#45;&gt;v13 -->
<g id="edge7" class="edge"><title>v1&#45;&gt;v13</title>
<path fill="none" stroke="black" d="M453.195,-231.82C457.482,-195.304 472.102,-70.7575 477.216,-27.194"/>
<polygon fill="black" stroke="black" points="477.819,-22.062 479.47,-27.2903 477.527,-24.545 477.236,-27.0279 477.236,-27.0279 477.236,-27.0279 477.527,-24.545 475.001,-26.7656 477.819,-22.062 477.819,-22.062"/>
</g>
<!-- v18 -->
<g id="v18_Room" class="node"><title>v18</title>
<ellipse fill="none" stroke="black" cx="578" cy="-69" rx="21.5" ry="11"/>
<text text-anchor="middle" x="578" y="-66.8" font-family="sans-serif" font-size="9.00">Room</text>
</g>
<!-- v1&#45;&gt;v18 -->
<g id="edge8" class="edge"><title>v1&#45;&gt;v18</title>
<path fill="none" stroke="black" d="M459.135,-232.26C480.36,-203.287 543.151,-117.572 567.853,-83.8512"/>
<polygon fill="black" stroke="black" points="570.943,-79.6335 569.803,-84.9967 569.466,-81.6502 567.988,-83.667 567.988,-83.667 567.988,-83.667 569.466,-81.6502 566.173,-82.3373 570.943,-79.6335 570.943,-79.6335"/>
</g>
<!-- v8 -->
<g id="v8_HVAC" class="node"><title>v8</title>
<ellipse fill="none" stroke="black" cx="684" cy="-69" rx="21.5" ry="11"/>
<text text-anchor="middle" x="684" y="-66.8" font-family="sans-serif" font-size="9.00">HVAC</text>
</g>
<!-- v2&#45;&gt;v8 -->
<g id="edge9" class="edge"><title>v2&#45;&gt;v8</title>
<path fill="none" stroke="black" d="M713.729,-116.246C707.999,-107.332 699.461,-94.0497 693.002,-84.0035"/>
<polygon fill="black" stroke="black" points="690.199,-79.6427 694.795,-82.6319 691.551,-81.7456 692.903,-83.8486 692.903,-83.8486 692.903,-83.8486 691.551,-81.7456 691.01,-85.0653 690.199,-79.6427 690.199,-79.6427"/>
</g>
<!-- v2&#45;&gt;v13 -->
<g id="edge23" class="edge"><title>v2&#45;&gt;v13</title>
<path fill="none" stroke="green" d="M699.231,-124.003C665.349,-120.003 596.954,-108.777 547,-80 520.67,-64.8323 497.409,-36.8618 486.161,-21.9587"/>
</g>
<!-- v20 -->
<g id="v20_SmartLight" class="node"><title>v20</title>
<ellipse fill="none" stroke="black" cx="769" cy="-11" rx="43" ry="11"/>
<text text-anchor="middle" x="769" y="-8.8" font-family="sans-serif" font-size="9.00">SmartLight</text>
</g>
<!-- v2&#45;&gt;v20 -->
<g id="edge10" class="edge"><title>v2&#45;&gt;v20</title>
<path fill="none" stroke="black" d="M724.348,-115.883C733.008,-95.7373 752.443,-50.521 762.577,-26.9438"/>
<polygon fill="black" stroke="black" points="764.591,-22.2579 764.684,-27.7401 763.604,-24.5548 762.616,-26.8516 762.616,-26.8516 762.616,-26.8516 763.604,-24.5548 760.549,-25.9631 764.591,-22.2579 764.591,-22.2579"/>
</g>
<!-- v21 -->
<g id="v21_FireAlarm" class="node"><title>v21</title>
<ellipse fill="none" stroke="black" cx="870" cy="-11" rx="39.5" ry="11"/>
<text text-anchor="middle" x="870" y="-8.8" font-family="sans-serif" font-size="9.00">FireAlarm</text>
</g>
<!-- v2&#45;&gt;v21 -->
<g id="edge11" class="edge"><title>v2&#45;&gt;v21</title>
<path fill="none" stroke="black" d="M731.274,-117.431C757.38,-97.5912 822.104,-48.4011 853.026,-24.9003"/>
<polygon fill="black" stroke="black" points="857.334,-21.6259 854.715,-26.4427 855.344,-23.1386 853.353,-24.6514 853.353,-24.6514 853.353,-24.6514 855.344,-23.1386 851.992,-22.86 857.334,-21.6259 857.334,-21.6259"/>
</g>
<!-- v4 -->
<g id="v4_Visitor" class="node"><title>v4</title>
<ellipse fill="none" stroke="black" cx="333" cy="-127" rx="32.5" ry="11"/>
<text text-anchor="middle" x="333" y="-124.8" font-family="sans-serif" font-size="9.00">Visitor</text>
</g>
<!-- v3&#45;&gt;v4 -->
<g id="edge12" class="edge"><title>v3&#45;&gt;v4</title>
<path fill="none" stroke="black" d="M361.903,-174.246C356.401,-165.441 348.233,-152.373 341.983,-142.372"/>
<polygon fill="black" stroke="black" points="339.262,-138.02 343.82,-141.067 340.587,-140.14 341.912,-142.26 341.912,-142.26 341.912,-142.26 340.587,-140.14 340.004,-143.452 339.262,-138.02 339.262,-138.02"/>
</g>
<!-- v3&#45;&gt;v7 -->
<g id="edge13" class="edge"><title>v3&#45;&gt;v7</title>
<path fill="none" stroke="black" d="M372.183,-173.986C380.56,-152.802 398.244,-101.796 394,-58 392.99,-47.573 390.719,-36.0005 388.712,-27.0713"/>
<polygon fill="black" stroke="black" points="387.572,-22.148 390.892,-26.5115 388.136,-24.5836 388.7,-27.0192 388.7,-27.0192 388.7,-27.0192 388.136,-24.5836 386.508,-27.5268 387.572,-22.148 387.572,-22.148"/>
</g>
<!-- v3&#45;&gt;v13 -->
<g id="edge24" class="edge"><title>v3&#45;&gt;v13</title>
<path fill="none" stroke="green" d="M375.55,-174.309C382.615,-165.121 393.348,-150.851 402,-138 430.347,-95.8931 460.907,-43.5464 473.299,-21.9882"/>
</g>
<!-- v15 -->
<g id="v15_Workstation" class="node"><title>v15</title>
<ellipse fill="none" stroke="black" cx="187" cy="-11" rx="47" ry="11"/>
<text text-anchor="middle" x="187" y="-8.8" font-family="sans-serif" font-size="9.00">Workstation</text>
</g>
<!-- v3&#45;&gt;v15 -->
<g id="edge14" class="edge"><title>v3&#45;&gt;v15</title>
<path fill="none" stroke="black" d="M353.117,-177.041C336.844,-169.011 310.491,-154.741 291,-138 250.488,-103.204 213.311,-51.4351 196.477,-26.4813"/>
<polygon fill="black" stroke="black" points="193.575,-22.1441 198.226,-25.048 194.965,-24.2217 196.356,-26.2994 196.356,-26.2994 196.356,-26.2994 194.965,-24.2217 194.486,-27.5508 193.575,-22.1441 193.575,-22.1441"/>
</g>
<!-- v5 -->
<g id="v5_Laptop" class="node"><title>v5</title>
<ellipse fill="none" stroke="black" cx="313" cy="-69" rx="29" ry="11"/>
<text text-anchor="middle" x="313" y="-66.8" font-family="sans-serif" font-size="9.00">Laptop</text>
</g>
<!-- v4&#45;&gt;v5 -->
<g id="edge15" class="edge"><title>v4&#45;&gt;v5</title>
<path fill="none" stroke="black" d="M329.424,-115.988C326.324,-107.308 321.796,-94.6286 318.279,-84.7806"/>
<polygon fill="black" stroke="black" points="316.545,-79.925 320.345,-83.8769 317.386,-82.2794 318.226,-84.6337 318.226,-84.6337 318.226,-84.6337 317.386,-82.2794 316.107,-85.3905 316.545,-79.925 316.545,-79.925"/>
</g>
<!-- v6 -->
<g id="v6_Software" class="node"><title>v6</title>
<ellipse fill="none" stroke="black" cx="288" cy="-11" rx="36" ry="11"/>
<text text-anchor="middle" x="288" y="-8.8" font-family="sans-serif" font-size="9.00">Software</text>
</g>
<!-- v5&#45;&gt;v6 -->
<g id="edge16" class="edge"><title>v5&#45;&gt;v6</title>
<path fill="none" stroke="black" d="M308.531,-57.9883C304.62,-49.2286 298.891,-36.3956 294.478,-26.5103"/>
<polygon fill="black" stroke="black" points="292.431,-21.925 296.524,-25.5735 293.45,-24.2079 294.469,-26.4907 294.469,-26.4907 294.469,-26.4907 293.45,-24.2079 292.415,-27.4079 292.431,-21.925 292.431,-21.925"/>
</g>
<!-- v5&#45;&gt;v10 -->
<g id="edge25" class="edge"><title>v5&#45;&gt;v10</title>
<path fill="none" stroke="green" d="M288.837,-62.6305C244.242,-52.7205 148.813,-31.514 96.7252,-19.9389"/>
</g>
<!-- v9 -->
<g id="v9_Software" class="node"><title>v9</title>
<ellipse fill="none" stroke="black" cx="672" cy="-11" rx="36" ry="11"/>
<text text-anchor="middle" x="672" y="-8.8" font-family="sans-serif" font-size="9.00">Software</text>
</g>
<!-- v8&#45;&gt;v9 -->
<g id="edge17" class="edge"><title>v8&#45;&gt;v9</title>
<path fill="none" stroke="black" d="M681.855,-57.9883C680.034,-49.4941 677.393,-37.1697 675.304,-27.4169"/>
<polygon fill="black" stroke="black" points="674.208,-22.3039 677.456,-26.7214 674.732,-24.7484 675.256,-27.1929 675.256,-27.1929 675.256,-27.1929 674.732,-24.7484 673.056,-27.6644 674.208,-22.3039 674.208,-22.3039"/>
</g>
<!-- v8&#45;&gt;v10 -->
<g id="edge27" class="edge"><title>v8&#45;&gt;v10</title>
<path fill="none" stroke="green" d="M663.714,-65.0195C648.425,-62.849 626.93,-59.9582 608,-58 396.526,-36.1241 342.35,-45.0461 131,-22 122.457,-21.0685 113.353,-19.8987 104.632,-18.6906"/>
</g>
<!-- v10&#45;&gt;v15 -->
<g id="edge28" class="edge"><title>v10&#45;&gt;v15</title>
<path fill="none" stroke="green" d="M122.031,-11C127.953,-11 133.875,-11 139.796,-11"/>
</g>
<!-- v19 -->
<g id="v19_SmartLight" class="node"><title>v19</title>
<ellipse fill="none" stroke="black" cx="575" cy="-11" rx="43" ry="11"/>
<text text-anchor="middle" x="575" y="-8.8" font-family="sans-serif" font-size="9.00">SmartLight</text>
</g>
<!-- v10&#45;&gt;v19 -->
<g id="edge29" class="edge"><title>v10&#45;&gt;v19</title>
<path fill="none" stroke="green" d="M82.8914,-21.4084C98.4332,-28.2018 120.005,-36.446 140,-40 221.172,-54.428 430.414,-57.406 511,-40 527.693,-36.3944 545.269,-28.0593 557.769,-21.246"/>
</g>
<!-- v10&#45;&gt;v20 -->
<g id="edge30" class="edge"><title>v10&#45;&gt;v20</title>
<path fill="none" stroke="green" d="M82.8914,-21.4084C98.4332,-28.2018 120.005,-36.446 140,-40 202.137,-51.0446 646.436,-53.8892 708,-40 724.014,-36.3871 740.756,-28.0527 752.641,-21.2415"/>
</g>
<!-- v10&#45;&gt;v21 -->
<g id="edge31" class="edge"><title>v10&#45;&gt;v21</title>
<path fill="none" stroke="green" d="M82.8914,-21.4084C98.4332,-28.2018 120.005,-36.446 140,-40 213.514,-53.0669 739.331,-57.1549 812,-40 827.34,-36.3788 843.248,-28.0452 854.515,-21.2364"/>
</g>
<!-- v12 -->
<g id="v12_DisconnectDevice" class="node"><title>v12</title>
<ellipse fill="none" stroke="black" cx="993" cy="-11" rx="65" ry="11"/>
<text text-anchor="middle" x="993" y="-8.8" font-family="sans-serif" font-size="9.00">DisconnectDevice</text>
</g>
<!-- v11&#45;&gt;v12 -->
<g id="edge18" class="edge"><title>v11&#45;&gt;v12</title>
<path fill="none" stroke="black" d="M1137.66,-59.3727C1107.51,-49.5002 1058.12,-33.3251 1025.58,-22.6693"/>
<polygon fill="black" stroke="black" points="1020.51,-21.0083 1025.96,-20.4262 1022.88,-21.7864 1025.26,-22.5645 1025.26,-22.5645 1025.26,-22.5645 1022.88,-21.7864 1024.56,-24.7027 1020.51,-21.0083 1020.51,-21.0083"/>
</g>
<!-- v14 -->
<g id="v14_ExitRoom" class="node"><title>v14</title>
<ellipse fill="none" stroke="black" cx="1112" cy="-11" rx="36" ry="11"/>
<text text-anchor="middle" x="1112" y="-8.8" font-family="sans-serif" font-size="9.00">ExitRoom</text>
</g>
<!-- v11&#45;&gt;v14 -->
<g id="edge19" class="edge"><title>v11&#45;&gt;v14</title>
<path fill="none" stroke="black" d="M1154.7,-57.9883C1146.35,-48.9897 1134,-35.6926 1124.73,-25.7082"/>
<polygon fill="black" stroke="black" points="1121.22,-21.925 1126.27,-24.058 1122.92,-23.757 1124.62,-25.589 1124.62,-25.589 1124.62,-25.589 1122.92,-23.757 1122.97,-27.12 1121.22,-21.925 1121.22,-21.925"/>
</g>
<!-- v16 -->
<g id="v16_GenerateData" class="node"><title>v16</title>
<ellipse fill="none" stroke="black" cx="1217" cy="-11" rx="50.5" ry="11"/>
<text text-anchor="middle" x="1217" y="-8.8" font-family="sans-serif" font-size="9.00">GenerateData</text>
</g>
<!-- v11&#45;&gt;v16 -->
<g id="edge20" class="edge"><title>v11&#45;&gt;v16</title>
<path fill="none" stroke="black" d="M1173.48,-57.9883C1181.99,-48.9897 1194.58,-35.6926 1204.03,-25.7082"/>
<polygon fill="black" stroke="black" points="1207.61,-21.925 1205.8,-27.1031 1205.89,-23.7407 1204.17,-25.5565 1204.17,-25.5565 1204.17,-25.5565 1205.89,-23.7407 1202.54,-24.0099 1207.61,-21.925 1207.61,-21.925"/>
</g>
<!-- v17 -->
<g id="v17_CollectData" class="node"><title>v17</title>
<ellipse fill="none" stroke="black" cx="1333" cy="-11" rx="47" ry="11"/>
<text text-anchor="middle" x="1333" y="-8.8" font-family="sans-serif" font-size="9.00">CollectData</text>
</g>
<!-- v11&#45;&gt;v17 -->
<g id="edge21" class="edge"><title>v11&#45;&gt;v17</title>
<path fill="none" stroke="black" d="M1190.41,-59.25C1220.9,-49.1469 1270.94,-32.5631 1302.91,-21.9701"/>
<polygon fill="black" stroke="black" points="1307.88,-20.3233 1303.84,-24.0319 1305.51,-21.1097 1303.14,-21.8961 1303.14,-21.8961 1303.14,-21.8961 1305.51,-21.1097 1302.43,-19.7603 1307.88,-20.3233 1307.88,-20.3233"/>
</g>
<!-- v13&#45;&gt;v18 -->
<g id="edge32" class="edge"><title>v13&#45;&gt;v18</title>
<path fill="none" stroke="green" d="M494.605,-20.827C513.764,-31.6646 545.958,-49.8751 564.234,-60.2134"/>
</g>
<!-- v18&#45;&gt;v19 -->
<g id="edge22" class="edge"><title>v18&#45;&gt;v19</title>
<path fill="none" stroke="black" d="M577.464,-57.9883C577.009,-49.4941 576.348,-37.1697 575.826,-27.4169"/>
<polygon fill="black" stroke="black" points="575.552,-22.3039 578.066,-27.1763 575.686,-24.8003 575.82,-27.2967 575.82,-27.2967 575.82,-27.2967 575.686,-24.8003 573.573,-27.4171 575.552,-22.3039 575.552,-22.3039"/>
</g>
</g>
</svg>
