<?xml version="1.0" encoding="UTF-8" standalone="no"?>
<?xml-stylesheet href="style.css" type="text/css"?>
<!DOCTYPE svg PUBLIC "-//W3C//DTD SVG 1.1//EN"
 "http://www.w3.org/Graphics/SVG/1.1/DTD/svg11.dtd">
<!-- Generated by graphviz version 2.38.0 (20140413.2041)
 -->
<!-- Title: 31.svg Pages: 1 -->
<svg width="1129pt" height="374pt"
 viewBox="0.00 0.00 1128.50 374.00" xmlns="http://www.w3.org/2000/svg" xmlns:xlink="http://www.w3.org/1999/xlink">
<g id="graph0" class="graph" transform="scale(1 1) rotate(0) translate(4 370)">
<title>31.svg</title>
<polygon fill="white" stroke="none" points="-4,4 -4,-370 1124.5,-370 1124.5,4 -4,4"/>
<!-- r0 -->
<g id="node1" class="node"><title>r0</title>
<polygon fill="none" stroke="black" stroke-dasharray="5,2" points="593.5,-366 570.5,-366 570.5,-348 593.5,-348 593.5,-366"/>
<text text-anchor="middle" x="582" y="-354.8" font-family="serif" font-size="9.00">0</text>
</g>
<!-- v0 -->
<g id="v0_Building" class="node"><title>v0</title>
<ellipse fill="none" stroke="black" cx="582" cy="-301" rx="36" ry="11"/>
<text text-anchor="middle" x="582" y="-298.8" font-family="sans-serif" font-size="9.00">Building</text>
</g>
<!-- r0&#45;&gt;v0 -->
<g id="edge1" class="edge"><title>r0&#45;&gt;v0</title>
<path fill="none" stroke="black" d="M582,-347.562C582,-339.453 582,-327.014 582,-317.181"/>
<polygon fill="black" stroke="black" points="582,-312.03 584.25,-317.03 582,-314.53 582,-317.03 582,-317.03 582,-317.03 582,-314.53 579.75,-317.03 582,-312.03 582,-312.03"/>
</g>
<!-- r1 -->
<g id="node2" class="node"><title>r1</title>
<polygon fill="none" stroke="black" stroke-dasharray="5,2" points="958.5,-366 935.5,-366 935.5,-348 958.5,-348 958.5,-366"/>
<text text-anchor="middle" x="947" y="-354.8" font-family="serif" font-size="9.00">1</text>
</g>
<!-- v6 -->
<g id="v6_RulesKeywords" class="node"><title>v6</title>
<ellipse fill="none" stroke="black" cx="947" cy="-69" rx="54" ry="11"/>
<text text-anchor="middle" x="947" y="-66.8" font-family="sans-serif" font-size="9.00">RulesKeywords</text>
</g>
<!-- r1&#45;&gt;v6 -->
<g id="edge2" class="edge"><title>r1&#45;&gt;v6</title>
<path fill="none" stroke="black" d="M947,-347.849C947,-329.373 947,-282.889 947,-244 947,-244 947,-244 947,-184 947,-148.604 947,-107.026 947,-85.1783"/>
<polygon fill="black" stroke="black" points="947,-80.0648 949.25,-85.0648 947,-82.5648 947,-85.0648 947,-85.0648 947,-85.0648 947,-82.5648 944.75,-85.0648 947,-80.0648 947,-80.0648"/>
</g>
<!-- e3 -->
<g id="node3" class="node"><title>e3</title>
</g>
<!-- v5 -->
<g id="v5_Laptop" class="node"><title>v5</title>
<ellipse fill="none" stroke="black" cx="360" cy="-69" rx="29" ry="11"/>
<text text-anchor="middle" x="360" y="-66.8" font-family="sans-serif" font-size="9.00">Laptop</text>
</g>
<!-- e3&#45;&gt;v5 -->
<g id="edge26" class="edge"><title>e3&#45;&gt;v5</title>
<path fill="none" stroke="green" d="M360,-122.167C360,-113.586 360,-92.5957 360,-80.0117"/>
<polygon fill="green" stroke="green" points="363.5,-125.3 356.5,-125.3 356.5,-123.9 363.5,-123.9 363.5,-125.3"/>
<polyline fill="none" stroke="green" points="360,-126 360,-122.5 "/>
</g>
<!-- v1 -->
<g id="v1_Floor" class="node"><title>v1</title>
<ellipse fill="none" stroke="black" cx="457" cy="-243" rx="25" ry="11"/>
<text text-anchor="middle" x="457" y="-240.8" font-family="sans-serif" font-size="9.00">Floor</text>
</g>
<!-- v0&#45;&gt;v1 -->
<g id="edge3" class="edge"><title>v0&#45;&gt;v1</title>
<path fill="none" stroke="black" d="M563.015,-291.495C540.188,-281.268 501.987,-264.154 478.211,-253.503"/>
<polygon fill="black" stroke="black" points="473.368,-251.333 478.851,-251.324 475.649,-252.355 477.931,-253.377 477.931,-253.377 477.931,-253.377 475.649,-252.355 477.011,-255.43 473.368,-251.333 473.368,-251.333"/>
</g>
<!-- v15 -->
<g id="v15_InstallationBus" class="node"><title>v15</title>
<ellipse fill="none" stroke="black" cx="711" cy="-69" rx="61" ry="11"/>
<text text-anchor="middle" x="711" y="-66.8" font-family="sans-serif" font-size="9.00">InstallationBus</text>
</g>
<!-- v0&#45;&gt;v15 -->
<g id="edge4" class="edge"><title>v0&#45;&gt;v15</title>
<path fill="none" stroke="black" d="M587.543,-290.117C607.882,-253.854 678.482,-127.979 702.74,-84.7276"/>
<polygon fill="black" stroke="black" points="705.332,-80.105 704.849,-85.5666 704.109,-82.2855 702.886,-84.4659 702.886,-84.4659 702.886,-84.4659 704.109,-82.2855 700.924,-83.3653 705.332,-80.105 705.332,-80.105"/>
</g>
<!-- v2 -->
<g id="v2_Room" class="node"><title>v2</title>
<ellipse fill="none" stroke="black" cx="127" cy="-69" rx="21.5" ry="11"/>
<text text-anchor="middle" x="127" y="-66.8" font-family="sans-serif" font-size="9.00">Room</text>
</g>
<!-- v1&#45;&gt;v2 -->
<g id="edge5" class="edge"><title>v1&#45;&gt;v2</title>
<path fill="none" stroke="black" d="M432.699,-239.804C377.634,-233.616 241.873,-211.391 161,-138 145.193,-123.655 135.789,-100.298 131.006,-85.0391"/>
<polygon fill="black" stroke="black" points="129.559,-80.1995 133.147,-84.3451 130.275,-82.5947 130.991,-84.9899 130.991,-84.9899 130.991,-84.9899 130.275,-82.5947 128.836,-85.6346 129.559,-80.1995 129.559,-80.1995"/>
</g>
<!-- v3 -->
<g id="v3_Hallway" class="node"><title>v3</title>
<ellipse fill="none" stroke="black" cx="354" cy="-185" rx="32.5" ry="11"/>
<text text-anchor="middle" x="354" y="-182.8" font-family="sans-serif" font-size="9.00">Hallway</text>
</g>
<!-- v1&#45;&gt;v3 -->
<g id="edge6" class="edge"><title>v1&#45;&gt;v3</title>
<path fill="none" stroke="black" d="M442.243,-233.977C424.528,-224.345 394.71,-208.133 374.699,-197.254"/>
<polygon fill="black" stroke="black" points="370.087,-194.746 375.554,-195.158 372.283,-195.94 374.479,-197.134 374.479,-197.134 374.479,-197.134 372.283,-195.94 373.405,-199.111 370.087,-194.746 370.087,-194.746"/>
</g>
<!-- v17 -->
<g id="v17_Room" class="node"><title>v17</title>
<ellipse fill="none" stroke="black" cx="457" cy="-69" rx="21.5" ry="11"/>
<text text-anchor="middle" x="457" y="-66.8" font-family="sans-serif" font-size="9.00">Room</text>
</g>
<!-- v1&#45;&gt;v17 -->
<g id="edge7" class="edge"><title>v1&#45;&gt;v17</title>
<path fill="none" stroke="black" d="M457,-231.756C457,-202.786 457,-120.136 457,-85.5335"/>
<polygon fill="black" stroke="black" points="457,-80.4081 459.25,-85.408 457,-82.9081 457,-85.4081 457,-85.4081 457,-85.4081 457,-82.9081 454.75,-85.4081 457,-80.4081 457,-80.4081"/>
</g>
<!-- v19 -->
<g id="v19_Room" class="node"><title>v19</title>
<ellipse fill="none" stroke="black" cx="561" cy="-69" rx="21.5" ry="11"/>
<text text-anchor="middle" x="561" y="-66.8" font-family="sans-serif" font-size="9.00">Room</text>
</g>
<!-- v1&#45;&gt;v19 -->
<g id="edge8" class="edge"><title>v1&#45;&gt;v19</title>
<path fill="none" stroke="black" d="M462.889,-232.26C480.337,-203.405 531.813,-118.271 552.374,-84.2667"/>
<polygon fill="black" stroke="black" points="555.175,-79.6335 554.513,-85.0763 553.882,-81.7728 552.588,-83.9121 552.588,-83.9121 552.588,-83.9121 553.882,-81.7728 550.663,-82.7479 555.175,-79.6335 555.175,-79.6335"/>
</g>
<!-- v2&#45;&gt;v3 -->
<g id="edge23" class="edge"><title>v2&#45;&gt;v3</title>
<path fill="none" stroke="green" d="M133.484,-79.9325C143.708,-94.8014 165.007,-122.728 190,-138 232.265,-163.826 289.432,-175.549 323.906,-180.568"/>
</g>
<!-- v8 -->
<g id="v8_SmartLight" class="node"><title>v8</title>
<ellipse fill="none" stroke="black" cx="43" cy="-11" rx="43" ry="11"/>
<text text-anchor="middle" x="43" y="-8.8" font-family="sans-serif" font-size="9.00">SmartLight</text>
</g>
<!-- v2&#45;&gt;v8 -->
<g id="edge9" class="edge"><title>v2&#45;&gt;v8</title>
<path fill="none" stroke="black" d="M114.606,-59.737C100.589,-50.3929 77.6231,-35.082 61.4875,-24.325"/>
<polygon fill="black" stroke="black" points="57.1308,-21.4205 62.5391,-22.3219 59.2109,-22.8073 61.291,-24.194 61.291,-24.194 61.291,-24.194 59.2109,-22.8073 60.0429,-26.0662 57.1308,-21.4205 57.1308,-21.4205"/>
</g>
<!-- v9 -->
<g id="v9_HVAC" class="node"><title>v9</title>
<ellipse fill="none" stroke="black" cx="126" cy="-11" rx="21.5" ry="11"/>
<text text-anchor="middle" x="126" y="-8.8" font-family="sans-serif" font-size="9.00">HVAC</text>
</g>
<!-- v2&#45;&gt;v9 -->
<g id="edge10" class="edge"><title>v2&#45;&gt;v9</title>
<path fill="none" stroke="black" d="M126.821,-57.9883C126.67,-49.4941 126.449,-37.1697 126.275,-27.4169"/>
<polygon fill="black" stroke="black" points="126.184,-22.3039 128.523,-27.2629 126.229,-24.8035 126.273,-27.3031 126.273,-27.3031 126.273,-27.3031 126.229,-24.8035 124.024,-27.3433 126.184,-22.3039 126.184,-22.3039"/>
</g>
<!-- v10 -->
<g id="v10_FireAlarm" class="node"><title>v10</title>
<ellipse fill="none" stroke="black" cx="205" cy="-11" rx="39.5" ry="11"/>
<text text-anchor="middle" x="205" y="-8.8" font-family="sans-serif" font-size="9.00">FireAlarm</text>
</g>
<!-- v2&#45;&gt;v10 -->
<g id="edge11" class="edge"><title>v2&#45;&gt;v10</title>
<path fill="none" stroke="black" d="M138.847,-59.4948C151.746,-50.2334 172.515,-35.3229 187.339,-24.6796"/>
<polygon fill="black" stroke="black" points="191.734,-21.5244 188.984,-26.2682 189.703,-22.9825 187.672,-24.4405 187.672,-24.4405 187.672,-24.4405 189.703,-22.9825 186.36,-22.6128 191.734,-21.5244 191.734,-21.5244"/>
</g>
<!-- v4 -->
<g id="v4_Visitor" class="node"><title>v4</title>
<ellipse fill="none" stroke="black" cx="232" cy="-127" rx="32.5" ry="11"/>
<text text-anchor="middle" x="232" y="-124.8" font-family="sans-serif" font-size="9.00">Visitor</text>
</g>
<!-- v3&#45;&gt;v4 -->
<g id="edge12" class="edge"><title>v3&#45;&gt;v4</title>
<path fill="none" stroke="black" d="M335.998,-175.737C314.464,-165.852 278.383,-149.291 254.888,-138.506"/>
<polygon fill="black" stroke="black" points="250.075,-136.297 255.558,-136.338 252.347,-137.34 254.62,-138.383 254.62,-138.383 254.62,-138.383 252.347,-137.34 253.681,-140.428 250.075,-136.297 250.075,-136.297"/>
</g>
<!-- v3&#45;&gt;v17 -->
<g id="edge24" class="edge"><title>v3&#45;&gt;v17</title>
<path fill="none" stroke="green" d="M342.142,-174.534C326.602,-160.968 302.891,-135.486 317,-116 331.329,-96.2099 402.208,-80.3442 437.278,-73.5632"/>
</g>
<!-- v3&#45;&gt;v19 -->
<g id="edge25" class="edge"><title>v3&#45;&gt;v19</title>
<path fill="none" stroke="green" d="M349.621,-173.962C344.049,-159.461 336.647,-132.578 350,-116 362.053,-101.036 490.106,-80.5402 540.649,-72.9678"/>
</g>
<!-- v4&#45;&gt;v5 -->
<g id="edge13" class="edge"><title>v4&#45;&gt;v5</title>
<path fill="none" stroke="black" d="M250.612,-117.857C273.623,-107.79 312.763,-90.6662 337.454,-79.8638"/>
<polygon fill="black" stroke="black" points="342.191,-77.7916 338.512,-81.8571 339.9,-78.7937 337.61,-79.7958 337.61,-79.7958 337.61,-79.7958 339.9,-78.7937 336.708,-77.7344 342.191,-77.7916 342.191,-77.7916"/>
</g>
<!-- v11 -->
<g id="v11_Data" class="node"><title>v11</title>
<ellipse fill="none" stroke="black" cx="284" cy="-11" rx="21.5" ry="11"/>
<text text-anchor="middle" x="284" y="-8.8" font-family="sans-serif" font-size="9.00">Data</text>
</g>
<!-- v5&#45;&gt;v11 -->
<g id="edge14" class="edge"><title>v5&#45;&gt;v11</title>
<path fill="none" stroke="black" d="M347.789,-59.0026C334.708,-49.364 313.908,-34.0372 299.638,-23.5225"/>
<polygon fill="black" stroke="black" points="295.435,-20.4254 300.795,-21.5801 297.447,-21.9085 299.46,-23.3915 299.46,-23.3915 299.46,-23.3915 297.447,-21.9085 298.125,-25.2029 295.435,-20.4254 295.435,-20.4254"/>
</g>
<!-- v12 -->
<g id="v12_Software" class="node"><title>v12</title>
<ellipse fill="none" stroke="black" cx="360" cy="-11" rx="36" ry="11"/>
<text text-anchor="middle" x="360" y="-8.8" font-family="sans-serif" font-size="9.00">Software</text>
</g>
<!-- v5&#45;&gt;v12 -->
<g id="edge15" class="edge"><title>v5&#45;&gt;v12</title>
<path fill="none" stroke="black" d="M360,-57.9883C360,-49.4941 360,-37.1697 360,-27.4169"/>
<polygon fill="black" stroke="black" points="360,-22.3039 362.25,-27.3038 360,-24.8039 360,-27.3039 360,-27.3039 360,-27.3039 360,-24.8039 357.75,-27.3039 360,-22.3039 360,-22.3039"/>
</g>
<!-- v7 -->
<g id="v7_EnterRoom" class="node"><title>v7</title>
<ellipse fill="none" stroke="black" cx="835" cy="-11" rx="39.5" ry="11"/>
<text text-anchor="middle" x="835" y="-8.8" font-family="sans-serif" font-size="9.00">EnterRoom</text>
</g>
<!-- v6&#45;&gt;v7 -->
<g id="edge16" class="edge"><title>v6&#45;&gt;v7</title>
<path fill="none" stroke="black" d="M928.254,-58.6269C908.685,-48.8427 878.01,-33.5052 857.233,-23.1164"/>
<polygon fill="black" stroke="black" points="852.697,-20.8487 858.176,-21.0724 854.934,-21.9668 857.17,-23.0849 857.17,-23.0849 857.17,-23.0849 854.934,-21.9668 856.163,-25.0973 852.697,-20.8487 852.697,-20.8487"/>
</g>
<!-- v13 -->
<g id="v13_ConnectDevice" class="node"><title>v13</title>
<ellipse fill="none" stroke="black" cx="947" cy="-11" rx="54" ry="11"/>
<text text-anchor="middle" x="947" y="-8.8" font-family="sans-serif" font-size="9.00">ConnectDevice</text>
</g>
<!-- v6&#45;&gt;v13 -->
<g id="edge17" class="edge"><title>v6&#45;&gt;v13</title>
<path fill="none" stroke="black" d="M947,-57.9883C947,-49.4941 947,-37.1697 947,-27.4169"/>
<polygon fill="black" stroke="black" points="947,-22.3039 949.25,-27.3038 947,-24.8039 947,-27.3039 947,-27.3039 947,-27.3039 947,-24.8039 944.75,-27.3039 947,-22.3039 947,-22.3039"/>
</g>
<!-- v14 -->
<g id="v14_SendSoftware" class="node"><title>v14</title>
<ellipse fill="none" stroke="black" cx="1070" cy="-11" rx="50.5" ry="11"/>
<text text-anchor="middle" x="1070" y="-8.8" font-family="sans-serif" font-size="9.00">SendSoftware</text>
</g>
<!-- v6&#45;&gt;v14 -->
<g id="edge18" class="edge"><title>v6&#45;&gt;v14</title>
<path fill="none" stroke="black" d="M967.311,-58.7527C988.587,-49.0659 1022.04,-33.837 1044.94,-23.4095"/>
<polygon fill="black" stroke="black" points="1049.66,-21.261 1046.04,-25.3806 1047.38,-22.2969 1045.11,-23.3329 1045.11,-23.3329 1045.11,-23.3329 1047.38,-22.2969 1044.18,-21.2851 1049.66,-21.261 1049.66,-21.261"/>
</g>
<!-- v8&#45;&gt;v15 -->
<g id="edge27" class="edge"><title>v8&#45;&gt;v15</title>
<path fill="none" stroke="green" d="M74.2504,-18.6266C81.0652,-19.8988 88.2555,-21.1099 95,-22 314.124,-50.9199 370.644,-40.8222 591,-58 612.989,-59.7141 637.234,-61.7138 658.141,-63.4725"/>
</g>
<!-- v9&#45;&gt;v15 -->
<g id="edge28" class="edge"><title>v9&#45;&gt;v15</title>
<path fill="none" stroke="green" d="M142.312,-18.2226C146.699,-19.6791 151.482,-21.074 156,-22 346.044,-60.9514 397.671,-41.9448 591,-58 612.876,-59.8167 636.994,-61.8254 657.835,-63.563"/>
</g>
<!-- v10&#45;&gt;v15 -->
<g id="edge29" class="edge"><title>v10&#45;&gt;v15</title>
<path fill="none" stroke="green" d="M233.846,-18.5231C240.137,-19.8017 246.774,-21.0416 253,-22 329.91,-33.8401 554.86,-54.2872 658.1,-63.3937"/>
</g>
<!-- v16 -->
<g id="v16_Data" class="node"><title>v16</title>
<ellipse fill="none" stroke="black" cx="756" cy="-11" rx="21.5" ry="11"/>
<text text-anchor="middle" x="756" y="-8.8" font-family="sans-serif" font-size="9.00">Data</text>
</g>
<!-- v15&#45;&gt;v16 -->
<g id="edge19" class="edge"><title>v15&#45;&gt;v16</title>
<path fill="none" stroke="black" d="M719.045,-57.9883C726.301,-48.9593 737.034,-35.6025 745.066,-25.6069"/>
<polygon fill="black" stroke="black" points="748.325,-21.5512 746.947,-26.8582 746.759,-23.5 745.193,-25.4488 745.193,-25.4488 745.193,-25.4488 746.759,-23.5 743.439,-24.0394 748.325,-21.5512 748.325,-21.5512"/>
</g>
<!-- v18 -->
<g id="v18_SmartLight" class="node"><title>v18</title>
<ellipse fill="none" stroke="black" cx="457" cy="-11" rx="43" ry="11"/>
<text text-anchor="middle" x="457" y="-8.8" font-family="sans-serif" font-size="9.00">SmartLight</text>
</g>
<!-- v15&#45;&gt;v18 -->
<g id="edge30" class="edge"><title>v15&#45;&gt;v18</title>
<path fill="none" stroke="green" d="M675.147,-60.0953C625.097,-49.0607 535.129,-29.2254 487.889,-18.8103"/>
</g>
<!-- v20 -->
<g id="v20_SmartLight" class="node"><title>v20</title>
<ellipse fill="none" stroke="black" cx="561" cy="-11" rx="43" ry="11"/>
<text text-anchor="middle" x="561" y="-8.8" font-family="sans-serif" font-size="9.00">SmartLight</text>
</g>
<!-- v15&#45;&gt;v20 -->
<g id="edge31" class="edge"><title>v15&#45;&gt;v20</title>
<path fill="none" stroke="green" d="M686.566,-58.878C658.009,-48.2165 611.143,-30.7199 583.462,-20.3857"/>
</g>
<!-- v21 -->
<g id="v21_Workstation" class="node"><title>v21</title>
<ellipse fill="none" stroke="black" cx="669" cy="-11" rx="47" ry="11"/>
<text text-anchor="middle" x="669" y="-8.8" font-family="sans-serif" font-size="9.00">Workstation</text>
</g>
<!-- v15&#45;&gt;v21 -->
<g id="edge32" class="edge"><title>v15&#45;&gt;v21</title>
<path fill="none" stroke="green" d="M703.491,-57.9883C695.846,-47.7952 684.065,-32.0867 676.444,-21.925"/>
</g>
<!-- v17&#45;&gt;v18 -->
<g id="edge20" class="edge"><title>v17&#45;&gt;v18</title>
<path fill="none" stroke="black" d="M457,-57.9883C457,-49.4941 457,-37.1697 457,-27.4169"/>
<polygon fill="black" stroke="black" points="457,-22.3039 459.25,-27.3038 457,-24.8039 457,-27.3039 457,-27.3039 457,-27.3039 457,-24.8039 454.75,-27.3039 457,-22.3039 457,-22.3039"/>
</g>
<!-- v19&#45;&gt;v20 -->
<g id="edge21" class="edge"><title>v19&#45;&gt;v20</title>
<path fill="none" stroke="black" d="M561,-57.9883C561,-49.4941 561,-37.1697 561,-27.4169"/>
<polygon fill="black" stroke="black" points="561,-22.3039 563.25,-27.3038 561,-24.8039 561,-27.3039 561,-27.3039 561,-27.3039 561,-24.8039 558.75,-27.3039 561,-22.3039 561,-22.3039"/>
</g>
<!-- v19&#45;&gt;v21 -->
<g id="edge22" class="edge"><title>v19&#45;&gt;v21</title>
<path fill="none" stroke="black" d="M575.119,-60.679C593.192,-51.3076 624.732,-34.9536 646.222,-23.8106"/>
<polygon fill="black" stroke="black" points="650.916,-21.3771 647.513,-25.6762 648.696,-22.5279 646.477,-23.6787 646.477,-23.6787 646.477,-23.6787 648.696,-22.5279 645.441,-21.6813 650.916,-21.3771 650.916,-21.3771"/>
</g>
</g>
</svg>
