<?xml version="1.0" encoding="UTF-8" standalone="no"?>
<?xml-stylesheet href="style.css" type="text/css"?>
<!DOCTYPE svg PUBLIC "-//W3C//DTD SVG 1.1//EN"
 "http://www.w3.org/Graphics/SVG/1.1/DTD/svg11.dtd">
<!-- Generated by graphviz version 2.38.0 (20140413.2041)
 -->
<!-- Title: 34.svg Pages: 1 -->
<svg width="1364pt" height="374pt"
 viewBox="0.00 0.00 1364.00 374.00" xmlns="http://www.w3.org/2000/svg" xmlns:xlink="http://www.w3.org/1999/xlink">
<g id="graph0" class="graph" transform="scale(1 1) rotate(0) translate(4 370)">
<title>34.svg</title>
<polygon fill="white" stroke="none" points="-4,4 -4,-370 1360,-370 1360,4 -4,4"/>
<!-- r0 -->
<g id="node1" class="node"><title>r0</title>
<polygon fill="none" stroke="black" stroke-dasharray="5,2" points="731.5,-366 708.5,-366 708.5,-348 731.5,-348 731.5,-366"/>
<text text-anchor="middle" x="720" y="-354.8" font-family="serif" font-size="9.00">0</text>
</g>
<!-- v0 -->
<g id="v0_Building" class="node"><title>v0</title>
<ellipse fill="none" stroke="black" cx="720" cy="-301" rx="36" ry="11"/>
<text text-anchor="middle" x="720" y="-298.8" font-family="sans-serif" font-size="9.00">Building</text>
</g>
<!-- r0&#45;&gt;v0 -->
<g id="edge1" class="edge"><title>r0&#45;&gt;v0</title>
<path fill="none" stroke="black" d="M720,-347.562C720,-339.453 720,-327.014 720,-317.181"/>
<polygon fill="black" stroke="black" points="720,-312.03 722.25,-317.03 720,-314.53 720,-317.03 720,-317.03 720,-317.03 720,-314.53 717.75,-317.03 720,-312.03 720,-312.03"/>
</g>
<!-- r1 -->
<g id="node2" class="node"><title>r1</title>
<polygon fill="none" stroke="black" stroke-dasharray="5,2" points="1142.5,-366 1119.5,-366 1119.5,-348 1142.5,-348 1142.5,-366"/>
<text text-anchor="middle" x="1131" y="-354.8" font-family="serif" font-size="9.00">1</text>
</g>
<!-- v6 -->
<g id="v6_RulesKeywords" class="node"><title>v6</title>
<ellipse fill="none" stroke="black" cx="1131" cy="-69" rx="54" ry="11"/>
<text text-anchor="middle" x="1131" y="-66.8" font-family="sans-serif" font-size="9.00">RulesKeywords</text>
</g>
<!-- r1&#45;&gt;v6 -->
<g id="edge2" class="edge"><title>r1&#45;&gt;v6</title>
<path fill="none" stroke="black" d="M1131,-347.849C1131,-329.373 1131,-282.889 1131,-244 1131,-244 1131,-244 1131,-184 1131,-148.604 1131,-107.026 1131,-85.1783"/>
<polygon fill="black" stroke="black" points="1131,-80.0648 1133.25,-85.0648 1131,-82.5648 1131,-85.0648 1131,-85.0648 1131,-85.0648 1131,-82.5648 1128.75,-85.0648 1131,-80.0648 1131,-80.0648"/>
</g>
<!-- e3 -->
<g id="node3" class="node"><title>e3</title>
</g>
<!-- v5 -->
<g id="v5_Laptop" class="node"><title>v5</title>
<ellipse fill="none" stroke="black" cx="212" cy="-69" rx="29" ry="11"/>
<text text-anchor="middle" x="212" y="-66.8" font-family="sans-serif" font-size="9.00">Laptop</text>
</g>
<!-- e3&#45;&gt;v5 -->
<g id="edge26" class="edge"><title>e3&#45;&gt;v5</title>
<path fill="none" stroke="green" d="M212,-122.167C212,-113.586 212,-92.5957 212,-80.0117"/>
<polygon fill="green" stroke="green" points="215.5,-125.3 208.5,-125.3 208.5,-123.9 215.5,-123.9 215.5,-125.3"/>
<polyline fill="none" stroke="green" points="212,-126 212,-122.5 "/>
</g>
<!-- v1 -->
<g id="v1_Floor" class="node"><title>v1</title>
<ellipse fill="none" stroke="black" cx="619" cy="-243" rx="25" ry="11"/>
<text text-anchor="middle" x="619" y="-240.8" font-family="sans-serif" font-size="9.00">Floor</text>
</g>
<!-- v0&#45;&gt;v1 -->
<g id="edge3" class="edge"><title>v0&#45;&gt;v1</title>
<path fill="none" stroke="black" d="M703.773,-291.003C685.883,-281.084 657.13,-265.141 638.15,-254.618"/>
<polygon fill="black" stroke="black" points="633.548,-252.066 639.012,-252.523 635.735,-253.279 637.921,-254.491 637.921,-254.491 637.921,-254.491 635.735,-253.279 636.83,-256.459 633.548,-252.066 633.548,-252.066"/>
</g>
<!-- v18 -->
<g id="v18_InstallationBus" class="node"><title>v18</title>
<ellipse fill="none" stroke="black" cx="847" cy="-11" rx="61" ry="11"/>
<text text-anchor="middle" x="847" y="-8.8" font-family="sans-serif" font-size="9.00">InstallationBus</text>
</g>
<!-- v0&#45;&gt;v18 -->
<g id="edge4" class="edge"><title>v0&#45;&gt;v18</title>
<path fill="none" stroke="black" d="M732.693,-290.579C755.024,-272.814 799,-231.992 799,-186 799,-186 799,-186 799,-126 799,-87.5069 822.533,-47.028 836.644,-26.2164"/>
<polygon fill="black" stroke="black" points="839.5,-22.0817 838.509,-27.4744 838.079,-24.1386 836.658,-26.1956 836.658,-26.1956 836.658,-26.1956 838.079,-24.1386 834.807,-24.9167 839.5,-22.0817 839.5,-22.0817"/>
</g>
<!-- v2 -->
<g id="v2_Hallway" class="node"><title>v2</title>
<ellipse fill="none" stroke="black" cx="735" cy="-11" rx="32.5" ry="11"/>
<text text-anchor="middle" x="735" y="-8.8" font-family="sans-serif" font-size="9.00">Hallway</text>
</g>
<!-- v1&#45;&gt;v2 -->
<g id="edge5" class="edge"><title>v1&#45;&gt;v2</title>
<path fill="none" stroke="black" d="M623.984,-232.117C642.274,-195.854 705.759,-69.9787 727.572,-26.7276"/>
<polygon fill="black" stroke="black" points="729.904,-22.105 729.661,-27.5826 728.778,-24.3372 727.652,-26.5694 727.652,-26.5694 727.652,-26.5694 728.778,-24.3372 725.643,-25.5561 729.904,-22.105 729.904,-22.105"/>
</g>
<!-- v3 -->
<g id="v3_Room" class="node"><title>v3</title>
<ellipse fill="none" stroke="black" cx="263" cy="-185" rx="21.5" ry="11"/>
<text text-anchor="middle" x="263" y="-182.8" font-family="sans-serif" font-size="9.00">Room</text>
</g>
<!-- v1&#45;&gt;v3 -->
<g id="edge6" class="edge"><title>v1&#45;&gt;v3</title>
<path fill="none" stroke="black" d="M596.189,-238.412C532.751,-228.433 354.556,-200.402 288.263,-189.974"/>
<polygon fill="black" stroke="black" points="282.942,-189.137 288.231,-187.691 285.412,-189.525 287.881,-189.914 287.881,-189.914 287.881,-189.914 285.412,-189.525 287.532,-192.137 282.942,-189.137 282.942,-189.137"/>
</g>
<!-- v16 -->
<g id="v16_Room" class="node"><title>v16</title>
<ellipse fill="none" stroke="black" cx="469" cy="-69" rx="21.5" ry="11"/>
<text text-anchor="middle" x="469" y="-66.8" font-family="sans-serif" font-size="9.00">Room</text>
</g>
<!-- v1&#45;&gt;v16 -->
<g id="edge7" class="edge"><title>v1&#45;&gt;v16</title>
<path fill="none" stroke="black" d="M610.722,-232.508C585.462,-203.543 509.336,-116.251 480.363,-83.0291"/>
<polygon fill="black" stroke="black" points="477.07,-79.2532 482.052,-81.5427 478.713,-81.1373 480.356,-83.0215 480.356,-83.0215 480.356,-83.0215 478.713,-81.1373 478.66,-84.5004 477.07,-79.2532 477.07,-79.2532"/>
</g>
<!-- v19 -->
<g id="v19_Room" class="node"><title>v19</title>
<ellipse fill="none" stroke="black" cx="619" cy="-69" rx="21.5" ry="11"/>
<text text-anchor="middle" x="619" y="-66.8" font-family="sans-serif" font-size="9.00">Room</text>
</g>
<!-- v1&#45;&gt;v19 -->
<g id="edge8" class="edge"><title>v1&#45;&gt;v19</title>
<path fill="none" stroke="black" d="M619,-231.756C619,-202.786 619,-120.136 619,-85.5335"/>
<polygon fill="black" stroke="black" points="619,-80.4081 621.25,-85.408 619,-82.9081 619,-85.4081 619,-85.4081 619,-85.4081 619,-82.9081 616.75,-85.4081 619,-80.4081 619,-80.4081"/>
</g>
<!-- v2&#45;&gt;v3 -->
<g id="edge23" class="edge"><title>v2&#45;&gt;v3</title>
<path fill="none" stroke="green" d="M710.704,-18.5009C704.936,-19.8446 698.78,-21.1177 693,-22 635.857,-30.7239 213.435,-15.735 174,-58 136.363,-98.3385 216.927,-155.345 249.834,-176.074"/>
</g>
<!-- v2&#45;&gt;v16 -->
<g id="edge24" class="edge"><title>v2&#45;&gt;v16</title>
<path fill="none" stroke="green" d="M709.71,-18.1562C704.209,-19.4576 698.415,-20.7996 693,-22 617.613,-38.7111 527.476,-56.5824 488.519,-64.2045"/>
</g>
<!-- v2&#45;&gt;v19 -->
<g id="edge25" class="edge"><title>v2&#45;&gt;v19</title>
<path fill="none" stroke="green" d="M717.4,-20.4966C694.536,-31.5345 655.029,-50.6066 633.691,-60.9076"/>
</g>
<!-- v4 -->
<g id="v4_Visitor" class="node"><title>v4</title>
<ellipse fill="none" stroke="black" cx="263" cy="-127" rx="32.5" ry="11"/>
<text text-anchor="middle" x="263" y="-124.8" font-family="sans-serif" font-size="9.00">Visitor</text>
</g>
<!-- v3&#45;&gt;v4 -->
<g id="edge9" class="edge"><title>v3&#45;&gt;v4</title>
<path fill="none" stroke="black" d="M263,-173.988C263,-165.494 263,-153.17 263,-143.417"/>
<polygon fill="black" stroke="black" points="263,-138.304 265.25,-143.304 263,-140.804 263,-143.304 263,-143.304 263,-143.304 263,-140.804 260.75,-143.304 263,-138.304 263,-138.304"/>
</g>
<!-- v9 -->
<g id="v9_HVAC" class="node"><title>v9</title>
<ellipse fill="none" stroke="black" cx="39" cy="-69" rx="21.5" ry="11"/>
<text text-anchor="middle" x="39" y="-66.8" font-family="sans-serif" font-size="9.00">HVAC</text>
</g>
<!-- v3&#45;&gt;v9 -->
<g id="edge10" class="edge"><title>v3&#45;&gt;v9</title>
<path fill="none" stroke="black" d="M241.65,-183.362C205.857,-181.308 132.873,-172.807 84,-138 65.1451,-124.571 52.0176,-100.555 44.9933,-84.9546"/>
<polygon fill="black" stroke="black" points="42.8457,-80.0142 46.9026,-83.7026 43.8424,-82.3069 44.8391,-84.5996 44.8391,-84.5996 44.8391,-84.5996 43.8424,-82.3069 42.7756,-85.4967 42.8457,-80.0142 42.8457,-80.0142"/>
</g>
<!-- v11 -->
<g id="v11_SmartLight" class="node"><title>v11</title>
<ellipse fill="none" stroke="black" cx="133" cy="-11" rx="43" ry="11"/>
<text text-anchor="middle" x="133" y="-8.8" font-family="sans-serif" font-size="9.00">SmartLight</text>
</g>
<!-- v3&#45;&gt;v11 -->
<g id="edge11" class="edge"><title>v3&#45;&gt;v11</title>
<path fill="none" stroke="black" d="M249.554,-176.218C236.237,-168.01 215.879,-154.055 202,-138 171.545,-102.771 148.809,-51.9024 138.734,-26.9494"/>
<polygon fill="black" stroke="black" points="136.778,-22.0331 140.717,-25.8471 137.702,-24.356 138.626,-26.6789 138.626,-26.6789 138.626,-26.6789 137.702,-24.356 136.536,-27.5107 136.778,-22.0331 136.778,-22.0331"/>
</g>
<!-- v12 -->
<g id="v12_FireAlarm" class="node"><title>v12</title>
<ellipse fill="none" stroke="black" cx="324" cy="-11" rx="39.5" ry="11"/>
<text text-anchor="middle" x="324" y="-8.8" font-family="sans-serif" font-size="9.00">FireAlarm</text>
</g>
<!-- v3&#45;&gt;v12 -->
<g id="edge12" class="edge"><title>v3&#45;&gt;v12</title>
<path fill="none" stroke="black" d="M273.608,-175.33C283.19,-166.863 296.851,-153.08 304,-138 321.554,-100.973 324.181,-51.6572 324.289,-27.1526"/>
<polygon fill="black" stroke="black" points="324.275,-22.0346 326.538,-27.0286 324.282,-24.5346 324.289,-27.0346 324.289,-27.0346 324.289,-27.0346 324.282,-24.5346 322.039,-27.0406 324.275,-22.0346 324.275,-22.0346"/>
</g>
<!-- v4&#45;&gt;v5 -->
<g id="edge13" class="edge"><title>v4&#45;&gt;v5</title>
<path fill="none" stroke="black" d="M254.116,-116.246C245.853,-107.172 233.465,-93.5697 224.262,-83.4636"/>
<polygon fill="black" stroke="black" points="220.782,-79.6427 225.812,-81.8244 222.465,-81.491 224.148,-83.3394 224.148,-83.3394 224.148,-83.3394 222.465,-81.491 222.485,-84.8544 220.782,-79.6427 220.782,-79.6427"/>
</g>
<!-- v8 -->
<g id="v8_Software" class="node"><title>v8</title>
<ellipse fill="none" stroke="black" cx="230" cy="-11" rx="36" ry="11"/>
<text text-anchor="middle" x="230" y="-8.8" font-family="sans-serif" font-size="9.00">Software</text>
</g>
<!-- v5&#45;&gt;v8 -->
<g id="edge14" class="edge"><title>v5&#45;&gt;v8</title>
<path fill="none" stroke="black" d="M215.218,-57.9883C217.974,-49.4154 221.983,-36.9411 225.131,-27.1466"/>
<polygon fill="black" stroke="black" points="226.688,-22.3039 227.3,-27.7526 225.923,-24.6839 225.158,-27.064 225.158,-27.064 225.158,-27.064 225.923,-24.6839 223.016,-26.3755 226.688,-22.3039 226.688,-22.3039"/>
</g>
<!-- v7 -->
<g id="v7_ExitRoom" class="node"><title>v7</title>
<ellipse fill="none" stroke="black" cx="962" cy="-11" rx="36" ry="11"/>
<text text-anchor="middle" x="962" y="-8.8" font-family="sans-serif" font-size="9.00">ExitRoom</text>
</g>
<!-- v6&#45;&gt;v7 -->
<g id="edge15" class="edge"><title>v6&#45;&gt;v7</title>
<path fill="none" stroke="black" d="M1104.59,-59.25C1073.4,-48.9133 1021.73,-31.7928 989.9,-21.2451"/>
<polygon fill="black" stroke="black" points="984.968,-19.6107 990.422,-19.0477 987.341,-20.3971 989.714,-21.1835 989.714,-21.1835 989.714,-21.1835 987.341,-20.3971 989.006,-23.3193 984.968,-19.6107 984.968,-19.6107"/>
</g>
<!-- v13 -->
<g id="v13_ConnectDevice" class="node"><title>v13</title>
<ellipse fill="none" stroke="black" cx="1070" cy="-11" rx="54" ry="11"/>
<text text-anchor="middle" x="1070" y="-8.8" font-family="sans-serif" font-size="9.00">ConnectDevice</text>
</g>
<!-- v6&#45;&gt;v13 -->
<g id="edge16" class="edge"><title>v6&#45;&gt;v13</title>
<path fill="none" stroke="black" d="M1120.09,-57.9883C1110.21,-48.9101 1095.55,-35.4569 1084.64,-25.4439"/>
<polygon fill="black" stroke="black" points="1080.81,-21.925 1086.02,-23.6489 1082.65,-23.6157 1084.49,-25.3064 1084.49,-25.3064 1084.49,-25.3064 1082.65,-23.6157 1082.97,-26.9639 1080.81,-21.925 1080.81,-21.925"/>
</g>
<!-- v14 -->
<g id="v14_GenerateData" class="node"><title>v14</title>
<ellipse fill="none" stroke="black" cx="1193" cy="-11" rx="50.5" ry="11"/>
<text text-anchor="middle" x="1193" y="-8.8" font-family="sans-serif" font-size="9.00">GenerateData</text>
</g>
<!-- v6&#45;&gt;v14 -->
<g id="edge17" class="edge"><title>v6&#45;&gt;v14</title>
<path fill="none" stroke="black" d="M1142.08,-57.9883C1152.14,-48.9101 1167.03,-35.4569 1178.12,-25.4439"/>
<polygon fill="black" stroke="black" points="1182.01,-21.925 1179.81,-26.9462 1180.16,-23.6007 1178.3,-25.2765 1178.3,-25.2765 1178.3,-25.2765 1180.16,-23.6007 1176.79,-23.6067 1182.01,-21.925 1182.01,-21.925"/>
</g>
<!-- v15 -->
<g id="v15_CollectData" class="node"><title>v15</title>
<ellipse fill="none" stroke="black" cx="1309" cy="-11" rx="47" ry="11"/>
<text text-anchor="middle" x="1309" y="-8.8" font-family="sans-serif" font-size="9.00">CollectData</text>
</g>
<!-- v6&#45;&gt;v15 -->
<g id="edge18" class="edge"><title>v6&#45;&gt;v15</title>
<path fill="none" stroke="black" d="M1158.42,-59.3727C1190.77,-49.1964 1244.4,-32.3237 1278.16,-21.7016"/>
<polygon fill="black" stroke="black" points="1283,-20.1813 1278.9,-23.8282 1280.61,-20.9316 1278.23,-21.6819 1278.23,-21.6819 1278.23,-21.6819 1280.61,-20.9316 1277.55,-19.5356 1283,-20.1813 1283,-20.1813"/>
</g>
<!-- v10 -->
<g id="v10_Software" class="node"><title>v10</title>
<ellipse fill="none" stroke="black" cx="36" cy="-11" rx="36" ry="11"/>
<text text-anchor="middle" x="36" y="-8.8" font-family="sans-serif" font-size="9.00">Software</text>
</g>
<!-- v9&#45;&gt;v10 -->
<g id="edge19" class="edge"><title>v9&#45;&gt;v10</title>
<path fill="none" stroke="black" d="M38.4637,-57.9883C38.0086,-49.4941 37.3484,-37.1697 36.8259,-27.4169"/>
<polygon fill="black" stroke="black" points="36.552,-22.3039 39.0663,-27.1763 36.6858,-24.8003 36.8196,-27.2967 36.8196,-27.2967 36.8196,-27.2967 36.6858,-24.8003 34.5728,-27.4171 36.552,-22.3039 36.552,-22.3039"/>
</g>
<!-- v9&#45;&gt;v18 -->
<g id="edge27" class="edge"><title>v9&#45;&gt;v18</title>
<path fill="none" stroke="green" d="M60.0388,-66.3486C86.5905,-64.2858 133.667,-60.6996 174,-58 441.435,-40.0995 509.301,-48.7126 776,-22 784.794,-21.1192 794.172,-19.9577 803.132,-18.7391"/>
</g>
<!-- v11&#45;&gt;v18 -->
<g id="edge28" class="edge"><title>v11&#45;&gt;v18</title>
<path fill="none" stroke="green" d="M149.359,-21.2415C161.244,-28.0527 177.986,-36.3871 194,-40 256.106,-54.0114 704.293,-51.0149 767,-40 787.225,-36.4473 809.072,-28.203 824.817,-21.4092"/>
</g>
<!-- v12&#45;&gt;v18 -->
<g id="edge29" class="edge"><title>v12&#45;&gt;v18</title>
<path fill="none" stroke="green" d="M339.485,-21.2364C350.752,-28.0452 366.66,-36.3788 382,-40 465.267,-59.6566 682.735,-54.8018 767,-40 787.225,-36.4473 809.072,-28.203 824.817,-21.4092"/>
</g>
<!-- v17 -->
<g id="v17_SmartLight" class="node"><title>v17</title>
<ellipse fill="none" stroke="black" cx="425" cy="-11" rx="43" ry="11"/>
<text text-anchor="middle" x="425" y="-8.8" font-family="sans-serif" font-size="9.00">SmartLight</text>
</g>
<!-- v16&#45;&gt;v17 -->
<g id="edge20" class="edge"><title>v16&#45;&gt;v17</title>
<path fill="none" stroke="black" d="M461.536,-58.5004C454.585,-49.6537 444.13,-36.3472 436.182,-26.2321"/>
<polygon fill="black" stroke="black" points="432.947,-22.1148 437.806,-24.6563 434.492,-24.0806 436.037,-26.0464 436.037,-26.0464 436.037,-26.0464 434.492,-24.0806 434.267,-27.4366 432.947,-22.1148 432.947,-22.1148"/>
</g>
<!-- v17&#45;&gt;v18 -->
<g id="edge30" class="edge"><title>v17&#45;&gt;v18</title>
<path fill="none" stroke="green" d="M441.359,-21.2415C453.244,-28.0527 469.986,-36.3871 486,-40 546.913,-53.7425 705.497,-50.8034 767,-40 787.225,-36.4473 809.072,-28.203 824.817,-21.4092"/>
</g>
<!-- v20 -->
<g id="v20_SmartLight" class="node"><title>v20</title>
<ellipse fill="none" stroke="black" cx="641" cy="-11" rx="43" ry="11"/>
<text text-anchor="middle" x="641" y="-8.8" font-family="sans-serif" font-size="9.00">SmartLight</text>
</g>
<!-- v18&#45;&gt;v20 -->
<g id="edge31" class="edge"><title>v18&#45;&gt;v20</title>
<path fill="none" stroke="green" d="M824.817,-21.4092C809.072,-28.203 787.225,-36.4473 767,-40 738.547,-44.998 730.181,-46.3577 702,-40 685.986,-36.3871 669.244,-28.0527 657.359,-21.2415"/>
</g>
<!-- v21 -->
<g id="v21_Workstation" class="node"><title>v21</title>
<ellipse fill="none" stroke="black" cx="533" cy="-11" rx="47" ry="11"/>
<text text-anchor="middle" x="533" y="-8.8" font-family="sans-serif" font-size="9.00">Workstation</text>
</g>
<!-- v18&#45;&gt;v21 -->
<g id="edge32" class="edge"><title>v18&#45;&gt;v21</title>
<path fill="none" stroke="green" d="M824.817,-21.4092C809.072,-28.203 787.225,-36.4473 767,-40 693.022,-52.9949 671.464,-55.6448 598,-40 581.08,-36.3967 563.226,-28.0614 550.521,-21.2474"/>
</g>
<!-- v19&#45;&gt;v20 -->
<g id="edge21" class="edge"><title>v19&#45;&gt;v20</title>
<path fill="none" stroke="black" d="M622.933,-57.9883C626.301,-49.4154 631.202,-36.9411 635.05,-27.1466"/>
<polygon fill="black" stroke="black" points="636.952,-22.3039 637.218,-27.7804 636.038,-24.6308 635.124,-26.9576 635.124,-26.9576 635.124,-26.9576 636.038,-24.6308 633.03,-26.1349 636.952,-22.3039 636.952,-22.3039"/>
</g>
<!-- v19&#45;&gt;v21 -->
<g id="edge22" class="edge"><title>v19&#45;&gt;v21</title>
<path fill="none" stroke="black" d="M606.678,-59.9766C592.414,-50.6881 568.751,-35.28 552.098,-24.4362"/>
<polygon fill="black" stroke="black" points="547.601,-21.5076 553.019,-22.3505 549.696,-22.8718 551.791,-24.236 551.791,-24.236 551.791,-24.236 549.696,-22.8718 550.563,-26.1215 547.601,-21.5076 547.601,-21.5076"/>
</g>
</g>
</svg>
