<?xml version="1.0" encoding="UTF-8" standalone="no"?>
<?xml-stylesheet href="style.css" type="text/css"?>
<!DOCTYPE svg PUBLIC "-//W3C//DTD SVG 1.1//EN"
 "http://www.w3.org/Graphics/SVG/1.1/DTD/svg11.dtd">
<!-- Generated by graphviz version 2.38.0 (20140413.2041)
 -->
<!-- Title: 37.svg Pages: 1 -->
<svg width="1064pt" height="374pt"
 viewBox="0.00 0.00 1063.50 374.00" xmlns="http://www.w3.org/2000/svg" xmlns:xlink="http://www.w3.org/1999/xlink">
<g id="graph0" class="graph" transform="scale(1 1) rotate(0) translate(4 370)">
<title>37.svg</title>
<polygon fill="white" stroke="none" points="-4,4 -4,-370 1059.5,-370 1059.5,4 -4,4"/>
<!-- r0 -->
<g id="node1" class="node"><title>r0</title>
<polygon fill="none" stroke="black" stroke-dasharray="5,2" points="659,-366 636,-366 636,-348 659,-348 659,-366"/>
<text text-anchor="middle" x="647.5" y="-354.8" font-family="serif" font-size="9.00">0</text>
</g>
<!-- v0 -->
<g id="v0_Building" class="node"><title>v0</title>
<ellipse fill="none" stroke="black" cx="647.5" cy="-301" rx="36" ry="11"/>
<text text-anchor="middle" x="647.5" y="-298.8" font-family="sans-serif" font-size="9.00">Building</text>
</g>
<!-- r0&#45;&gt;v0 -->
<g id="edge1" class="edge"><title>r0&#45;&gt;v0</title>
<path fill="none" stroke="black" d="M647.5,-347.562C647.5,-339.453 647.5,-327.014 647.5,-317.181"/>
<polygon fill="black" stroke="black" points="647.5,-312.03 649.75,-317.03 647.5,-314.53 647.5,-317.03 647.5,-317.03 647.5,-317.03 647.5,-314.53 645.25,-317.03 647.5,-312.03 647.5,-312.03"/>
</g>
<!-- r1 -->
<g id="node2" class="node"><title>r1</title>
<polygon fill="none" stroke="black" stroke-dasharray="5,2" points="914,-366 891,-366 891,-348 914,-348 914,-366"/>
<text text-anchor="middle" x="902.5" y="-354.8" font-family="serif" font-size="9.00">1</text>
</g>
<!-- v6 -->
<g id="v6_RulesKeywords" class="node"><title>v6</title>
<ellipse fill="none" stroke="black" cx="902.5" cy="-69" rx="54" ry="11"/>
<text text-anchor="middle" x="902.5" y="-66.8" font-family="sans-serif" font-size="9.00">RulesKeywords</text>
</g>
<!-- r1&#45;&gt;v6 -->
<g id="edge2" class="edge"><title>r1&#45;&gt;v6</title>
<path fill="none" stroke="black" d="M902.5,-347.849C902.5,-329.373 902.5,-282.889 902.5,-244 902.5,-244 902.5,-244 902.5,-184 902.5,-148.604 902.5,-107.026 902.5,-85.1783"/>
<polygon fill="black" stroke="black" points="902.5,-80.0648 904.75,-85.0648 902.5,-82.5648 902.5,-85.0648 902.5,-85.0648 902.5,-85.0648 902.5,-82.5648 900.25,-85.0648 902.5,-80.0648 902.5,-80.0648"/>
</g>
<!-- e3 -->
<g id="node3" class="node"><title>e3</title>
</g>
<!-- v5 -->
<g id="v5_Laptop" class="node"><title>v5</title>
<ellipse fill="none" stroke="black" cx="389.5" cy="-69" rx="29" ry="11"/>
<text text-anchor="middle" x="389.5" y="-66.8" font-family="sans-serif" font-size="9.00">Laptop</text>
</g>
<!-- e3&#45;&gt;v5 -->
<g id="edge26" class="edge"><title>e3&#45;&gt;v5</title>
<path fill="none" stroke="green" d="M389.5,-122.167C389.5,-113.586 389.5,-92.5957 389.5,-80.0117"/>
<polygon fill="green" stroke="green" points="393,-125.3 386,-125.3 386,-123.9 393,-123.9 393,-125.3"/>
<polyline fill="none" stroke="green" points="389.5,-126 389.5,-122.5 "/>
</g>
<!-- v1 -->
<g id="v1_Floor" class="node"><title>v1</title>
<ellipse fill="none" stroke="black" cx="581.5" cy="-243" rx="25" ry="11"/>
<text text-anchor="middle" x="581.5" y="-240.8" font-family="sans-serif" font-size="9.00">Floor</text>
</g>
<!-- v0&#45;&gt;v1 -->
<g id="edge3" class="edge"><title>v0&#45;&gt;v1</title>
<path fill="none" stroke="black" d="M636.304,-290.5C625.202,-281.08 608.14,-266.604 596.005,-256.308"/>
<polygon fill="black" stroke="black" points="592.095,-252.99 597.363,-254.509 594.001,-254.607 595.907,-256.225 595.907,-256.225 595.907,-256.225 594.001,-254.607 594.452,-257.94 592.095,-252.99 592.095,-252.99"/>
</g>
<!-- v12 -->
<g id="v12_InstallationBus" class="node"><title>v12</title>
<ellipse fill="none" stroke="black" cx="755.5" cy="-69" rx="61" ry="11"/>
<text text-anchor="middle" x="755.5" y="-66.8" font-family="sans-serif" font-size="9.00">InstallationBus</text>
</g>
<!-- v0&#45;&gt;v12 -->
<g id="edge4" class="edge"><title>v0&#45;&gt;v12</title>
<path fill="none" stroke="black" d="M652.28,-289.82C669.497,-253.155 728.387,-127.741 748.613,-84.6657"/>
<polygon fill="black" stroke="black" points="750.775,-80.062 750.687,-85.5443 749.713,-82.325 748.65,-84.5879 748.65,-84.5879 748.65,-84.5879 749.713,-82.325 746.613,-83.6315 750.775,-80.062 750.775,-80.062"/>
</g>
<!-- v2 -->
<g id="v2_Room" class="node"><title>v2</title>
<ellipse fill="none" stroke="black" cx="646.5" cy="-69" rx="21.5" ry="11"/>
<text text-anchor="middle" x="646.5" y="-66.8" font-family="sans-serif" font-size="9.00">Room</text>
</g>
<!-- v1&#45;&gt;v2 -->
<g id="edge5" class="edge"><title>v1&#45;&gt;v2</title>
<path fill="none" stroke="black" d="M585.276,-232.009C596.18,-203.153 627.772,-119.556 640.79,-85.1091"/>
<polygon fill="black" stroke="black" points="642.714,-80.0185 643.051,-85.4911 641.83,-82.3571 640.946,-84.6956 640.946,-84.6956 640.946,-84.6956 641.83,-82.3571 638.842,-83.9002 642.714,-80.0185 642.714,-80.0185"/>
</g>
<!-- v3 -->
<g id="v3_Hallway" class="node"><title>v3</title>
<ellipse fill="none" stroke="black" cx="500.5" cy="-185" rx="32.5" ry="11"/>
<text text-anchor="middle" x="500.5" y="-182.8" font-family="sans-serif" font-size="9.00">Hallway</text>
</g>
<!-- v1&#45;&gt;v3 -->
<g id="edge6" class="edge"><title>v1&#45;&gt;v3</title>
<path fill="none" stroke="black" d="M568.844,-233.25C555.178,-223.802 533.316,-208.687 518.007,-198.104"/>
<polygon fill="black" stroke="black" points="513.876,-195.247 519.268,-196.24 515.932,-196.669 517.988,-198.091 517.988,-198.091 517.988,-198.091 515.932,-196.669 516.709,-199.941 513.876,-195.247 513.876,-195.247"/>
</g>
<!-- v14 -->
<g id="v14_Room" class="node"><title>v14</title>
<ellipse fill="none" stroke="black" cx="181.5" cy="-127" rx="21.5" ry="11"/>
<text text-anchor="middle" x="181.5" y="-124.8" font-family="sans-serif" font-size="9.00">Room</text>
</g>
<!-- v1&#45;&gt;v14 -->
<g id="edge7" class="edge"><title>v1&#45;&gt;v14</title>
<path fill="none" stroke="black" d="M561.39,-236.269C493.936,-217.044 275.953,-154.919 204.451,-134.541"/>
<polygon fill="black" stroke="black" points="199.56,-133.147 204.986,-132.354 201.965,-133.832 204.369,-134.518 204.369,-134.518 204.369,-134.518 201.965,-133.832 203.752,-136.682 199.56,-133.147 199.56,-133.147"/>
</g>
<!-- v19 -->
<g id="v19_Room" class="node"><title>v19</title>
<ellipse fill="none" stroke="black" cx="581.5" cy="-69" rx="21.5" ry="11"/>
<text text-anchor="middle" x="581.5" y="-66.8" font-family="sans-serif" font-size="9.00">Room</text>
</g>
<!-- v1&#45;&gt;v19 -->
<g id="edge8" class="edge"><title>v1&#45;&gt;v19</title>
<path fill="none" stroke="black" d="M581.5,-231.756C581.5,-202.786 581.5,-120.136 581.5,-85.5335"/>
<polygon fill="black" stroke="black" points="581.5,-80.4081 583.75,-85.408 581.5,-82.9081 581.5,-85.4081 581.5,-85.4081 581.5,-85.4081 581.5,-82.9081 579.25,-85.4081 581.5,-80.4081 581.5,-80.4081"/>
</g>
<!-- v2&#45;&gt;v3 -->
<g id="edge23" class="edge"><title>v2&#45;&gt;v3</title>
<path fill="none" stroke="green" d="M628.804,-75.5187C623.296,-77.1111 617.179,-78.7532 611.5,-80 560.541,-91.1881 413.446,-76.3808 379.5,-116 350.181,-150.219 428.259,-170.73 472.478,-179.301"/>
</g>
<!-- v8 -->
<g id="v8_SmartLight" class="node"><title>v8</title>
<ellipse fill="none" stroke="black" cx="702.5" cy="-11" rx="43" ry="11"/>
<text text-anchor="middle" x="702.5" y="-8.8" font-family="sans-serif" font-size="9.00">SmartLight</text>
</g>
<!-- v2&#45;&gt;v8 -->
<g id="edge9" class="edge"><title>v2&#45;&gt;v8</title>
<path fill="none" stroke="black" d="M655.497,-59.0026C664.529,-49.9708 678.556,-35.9443 688.937,-25.5628"/>
<polygon fill="black" stroke="black" points="692.581,-21.919 690.636,-27.0455 690.813,-23.6867 689.045,-25.4545 689.045,-25.4545 689.045,-25.4545 690.813,-23.6867 687.454,-23.8635 692.581,-21.919 692.581,-21.919"/>
</g>
<!-- v4 -->
<g id="v4_Visitor" class="node"><title>v4</title>
<ellipse fill="none" stroke="black" cx="479.5" cy="-127" rx="32.5" ry="11"/>
<text text-anchor="middle" x="479.5" y="-124.8" font-family="sans-serif" font-size="9.00">Visitor</text>
</g>
<!-- v3&#45;&gt;v4 -->
<g id="edge10" class="edge"><title>v3&#45;&gt;v4</title>
<path fill="none" stroke="black" d="M496.746,-173.988C493.531,-165.415 488.853,-152.941 485.18,-143.147"/>
<polygon fill="black" stroke="black" points="483.364,-138.304 487.226,-142.195 484.242,-140.645 485.12,-142.986 485.12,-142.986 485.12,-142.986 484.242,-140.645 483.013,-143.776 483.364,-138.304 483.364,-138.304"/>
</g>
<!-- v3&#45;&gt;v14 -->
<g id="edge24" class="edge"><title>v3&#45;&gt;v14</title>
<path fill="none" stroke="green" d="M472.749,-179.128C409.539,-168.032 256.097,-141.095 201.332,-131.481"/>
</g>
<!-- v3&#45;&gt;v19 -->
<g id="edge25" class="edge"><title>v3&#45;&gt;v19</title>
<path fill="none" stroke="green" d="M507.688,-173.883C523.176,-152.086 559.515,-100.942 574.672,-79.6091"/>
</g>
<!-- v4&#45;&gt;v5 -->
<g id="edge11" class="edge"><title>v4&#45;&gt;v5</title>
<path fill="none" stroke="black" d="M465.04,-117.003C449.597,-107.394 425.07,-92.1324 408.176,-81.6206"/>
<polygon fill="black" stroke="black" points="403.627,-78.7904 409.061,-79.5216 405.75,-80.1112 407.873,-81.432 407.873,-81.432 407.873,-81.432 405.75,-80.1112 406.684,-83.3423 403.627,-78.7904 403.627,-78.7904"/>
</g>
<!-- v9 -->
<g id="v9_Data" class="node"><title>v9</title>
<ellipse fill="none" stroke="black" cx="313.5" cy="-11" rx="21.5" ry="11"/>
<text text-anchor="middle" x="313.5" y="-8.8" font-family="sans-serif" font-size="9.00">Data</text>
</g>
<!-- v5&#45;&gt;v9 -->
<g id="edge12" class="edge"><title>v5&#45;&gt;v9</title>
<path fill="none" stroke="black" d="M377.289,-59.0026C364.208,-49.364 343.408,-34.0372 329.138,-23.5225"/>
<polygon fill="black" stroke="black" points="324.935,-20.4254 330.295,-21.5801 326.947,-21.9085 328.96,-23.3915 328.96,-23.3915 328.96,-23.3915 326.947,-21.9085 327.625,-25.2029 324.935,-20.4254 324.935,-20.4254"/>
</g>
<!-- v10 -->
<g id="v10_Software" class="node"><title>v10</title>
<ellipse fill="none" stroke="black" cx="389.5" cy="-11" rx="36" ry="11"/>
<text text-anchor="middle" x="389.5" y="-8.8" font-family="sans-serif" font-size="9.00">Software</text>
</g>
<!-- v5&#45;&gt;v10 -->
<g id="edge13" class="edge"><title>v5&#45;&gt;v10</title>
<path fill="none" stroke="black" d="M389.5,-57.9883C389.5,-49.4941 389.5,-37.1697 389.5,-27.4169"/>
<polygon fill="black" stroke="black" points="389.5,-22.3039 391.75,-27.3038 389.5,-24.8039 389.5,-27.3039 389.5,-27.3039 389.5,-27.3039 389.5,-24.8039 387.25,-27.3039 389.5,-22.3039 389.5,-22.3039"/>
</g>
<!-- v7 -->
<g id="v7_EnterRoom" class="node"><title>v7</title>
<ellipse fill="none" stroke="black" cx="889.5" cy="-11" rx="39.5" ry="11"/>
<text text-anchor="middle" x="889.5" y="-8.8" font-family="sans-serif" font-size="9.00">EnterRoom</text>
</g>
<!-- v6&#45;&gt;v7 -->
<g id="edge14" class="edge"><title>v6&#45;&gt;v7</title>
<path fill="none" stroke="black" d="M900.176,-57.9883C898.204,-49.4941 895.343,-37.1697 893.079,-27.4169"/>
<polygon fill="black" stroke="black" points="891.892,-22.3039 895.214,-26.6655 892.457,-24.7391 893.023,-27.1744 893.023,-27.1744 893.023,-27.1744 892.457,-24.7391 890.831,-27.6832 891.892,-22.3039 891.892,-22.3039"/>
</g>
<!-- v11 -->
<g id="v11_ConnectDevice" class="node"><title>v11</title>
<ellipse fill="none" stroke="black" cx="1001.5" cy="-11" rx="54" ry="11"/>
<text text-anchor="middle" x="1001.5" y="-8.8" font-family="sans-serif" font-size="9.00">ConnectDevice</text>
</g>
<!-- v6&#45;&gt;v11 -->
<g id="edge15" class="edge"><title>v6&#45;&gt;v11</title>
<path fill="none" stroke="black" d="M919.294,-58.5004C936.077,-49.0072 961.938,-34.3785 980.164,-24.0686"/>
<polygon fill="black" stroke="black" points="984.624,-21.5462 981.379,-25.9664 982.448,-22.7771 980.272,-24.008 980.272,-24.008 980.272,-24.008 982.448,-22.7771 979.164,-22.0496 984.624,-21.5462 984.624,-21.5462"/>
</g>
<!-- v8&#45;&gt;v12 -->
<g id="edge27" class="edge"><title>v8&#45;&gt;v12</title>
<path fill="none" stroke="green" d="M711.893,-21.925C721.511,-32.0867 736.378,-47.7952 746.025,-57.9883"/>
</g>
<!-- v13 -->
<g id="v13_Data" class="node"><title>v13</title>
<ellipse fill="none" stroke="black" cx="785.5" cy="-11" rx="21.5" ry="11"/>
<text text-anchor="middle" x="785.5" y="-8.8" font-family="sans-serif" font-size="9.00">Data</text>
</g>
<!-- v12&#45;&gt;v13 -->
<g id="edge16" class="edge"><title>v12&#45;&gt;v13</title>
<path fill="none" stroke="black" d="M760.863,-57.9883C765.556,-49.2286 772.431,-36.3956 777.727,-26.5103"/>
<polygon fill="black" stroke="black" points="780.183,-21.925 779.805,-27.3949 779.002,-24.1287 777.822,-26.3324 777.822,-26.3324 777.822,-26.3324 779.002,-24.1287 775.839,-25.2699 780.183,-21.925 780.183,-21.925"/>
</g>
<!-- v15 -->
<g id="v15_HVAC" class="node"><title>v15</title>
<ellipse fill="none" stroke="black" cx="145.5" cy="-69" rx="21.5" ry="11"/>
<text text-anchor="middle" x="145.5" y="-66.8" font-family="sans-serif" font-size="9.00">HVAC</text>
</g>
<!-- v12&#45;&gt;v15 -->
<g id="edge28" class="edge"><title>v12&#45;&gt;v15</title>
<path fill="none" stroke="green" d="M731.366,-79.2683C713.969,-86.0921 689.736,-94.4306 667.5,-98 473.926,-129.074 235.389,-87.065 165.572,-73.1787"/>
</g>
<!-- v17 -->
<g id="v17_SmartLight" class="node"><title>v17</title>
<ellipse fill="none" stroke="black" cx="230.5" cy="-11" rx="43" ry="11"/>
<text text-anchor="middle" x="230.5" y="-8.8" font-family="sans-serif" font-size="9.00">SmartLight</text>
</g>
<!-- v12&#45;&gt;v17 -->
<g id="edge29" class="edge"><title>v12&#45;&gt;v17</title>
<path fill="none" stroke="green" d="M708.745,-61.8084C698.151,-60.4815 686.945,-59.1379 676.5,-58 501.694,-38.9561 456.607,-46.6336 282.5,-22 275.855,-21.0598 268.772,-19.8427 262.04,-18.5831"/>
</g>
<!-- v18 -->
<g id="v18_FireAlarm" class="node"><title>v18</title>
<ellipse fill="none" stroke="black" cx="39.5" cy="-11" rx="39.5" ry="11"/>
<text text-anchor="middle" x="39.5" y="-8.8" font-family="sans-serif" font-size="9.00">FireAlarm</text>
</g>
<!-- v12&#45;&gt;v18 -->
<g id="edge30" class="edge"><title>v12&#45;&gt;v18</title>
<path fill="none" stroke="green" d="M709.604,-61.68C698.764,-60.3288 687.236,-59.0071 676.5,-58 415.822,-33.5473 348.071,-56.2611 88.5,-22 81.9582,-21.1365 74.982,-19.9044 68.4059,-18.5986"/>
</g>
<!-- v20 -->
<g id="v20_SmartLight" class="node"><title>v20</title>
<ellipse fill="none" stroke="black" cx="486.5" cy="-11" rx="43" ry="11"/>
<text text-anchor="middle" x="486.5" y="-8.8" font-family="sans-serif" font-size="9.00">SmartLight</text>
</g>
<!-- v12&#45;&gt;v20 -->
<g id="edge31" class="edge"><title>v12&#45;&gt;v20</title>
<path fill="none" stroke="green" d="M718.097,-60.2134C664.827,-49.1238 568.046,-28.9761 518.14,-18.5869"/>
</g>
<!-- v21 -->
<g id="v21_Workstation" class="node"><title>v21</title>
<ellipse fill="none" stroke="black" cx="594.5" cy="-11" rx="47" ry="11"/>
<text text-anchor="middle" x="594.5" y="-8.8" font-family="sans-serif" font-size="9.00">Workstation</text>
</g>
<!-- v12&#45;&gt;v21 -->
<g id="edge32" class="edge"><title>v12&#45;&gt;v21</title>
<path fill="none" stroke="green" d="M729.633,-59.0026C699.144,-48.3978 648.858,-30.9072 618.984,-20.5161"/>
</g>
<!-- v14&#45;&gt;v15 -->
<g id="edge17" class="edge"><title>v14&#45;&gt;v15</title>
<path fill="none" stroke="black" d="M175.229,-116.246C169.499,-107.332 160.961,-94.0497 154.502,-84.0035"/>
<polygon fill="black" stroke="black" points="151.699,-79.6427 156.295,-82.6319 153.051,-81.7456 154.403,-83.8486 154.403,-83.8486 154.403,-83.8486 153.051,-81.7456 152.51,-85.0653 151.699,-79.6427 151.699,-79.6427"/>
</g>
<!-- v14&#45;&gt;v17 -->
<g id="edge18" class="edge"><title>v14&#45;&gt;v17</title>
<path fill="none" stroke="black" d="M185.848,-115.883C194.508,-95.7373 213.943,-50.521 224.077,-26.9438"/>
<polygon fill="black" stroke="black" points="226.091,-22.2579 226.184,-27.7401 225.104,-24.5548 224.116,-26.8516 224.116,-26.8516 224.116,-26.8516 225.104,-24.5548 222.049,-25.9631 226.091,-22.2579 226.091,-22.2579"/>
</g>
<!-- v14&#45;&gt;v18 -->
<g id="edge19" class="edge"><title>v14&#45;&gt;v18</title>
<path fill="none" stroke="black" d="M168.793,-118.008C155.043,-109.194 132.651,-94.3526 114.5,-80 92.0689,-62.2628 67.8552,-39.6041 53.1855,-25.4443"/>
<polygon fill="black" stroke="black" points="49.3104,-21.6871 54.4664,-23.5523 51.1053,-23.4274 52.9002,-25.1676 52.9002,-25.1676 52.9002,-25.1676 51.1053,-23.4274 51.3339,-26.783 49.3104,-21.6871 49.3104,-21.6871"/>
</g>
<!-- v16 -->
<g id="v16_Software" class="node"><title>v16</title>
<ellipse fill="none" stroke="black" cx="133.5" cy="-11" rx="36" ry="11"/>
<text text-anchor="middle" x="133.5" y="-8.8" font-family="sans-serif" font-size="9.00">Software</text>
</g>
<!-- v15&#45;&gt;v16 -->
<g id="edge20" class="edge"><title>v15&#45;&gt;v16</title>
<path fill="none" stroke="black" d="M143.355,-57.9883C141.534,-49.4941 138.893,-37.1697 136.804,-27.4169"/>
<polygon fill="black" stroke="black" points="135.708,-22.3039 138.956,-26.7214 136.232,-24.7484 136.756,-27.1929 136.756,-27.1929 136.756,-27.1929 136.232,-24.7484 134.556,-27.6644 135.708,-22.3039 135.708,-22.3039"/>
</g>
<!-- v19&#45;&gt;v20 -->
<g id="edge21" class="edge"><title>v19&#45;&gt;v20</title>
<path fill="none" stroke="black" d="M568.291,-60.2134C552.405,-50.849 525.562,-35.0258 506.982,-24.0734"/>
<polygon fill="black" stroke="black" points="502.448,-21.4008 507.898,-22.0016 504.601,-22.6703 506.755,-23.9399 506.755,-23.9399 506.755,-23.9399 504.601,-22.6703 505.612,-25.8782 502.448,-21.4008 502.448,-21.4008"/>
</g>
<!-- v19&#45;&gt;v21 -->
<g id="edge22" class="edge"><title>v19&#45;&gt;v21</title>
<path fill="none" stroke="black" d="M583.824,-57.9883C585.796,-49.4941 588.657,-37.1697 590.921,-27.4169"/>
<polygon fill="black" stroke="black" points="592.108,-22.3039 593.169,-27.6832 591.543,-24.7391 590.977,-27.1744 590.977,-27.1744 590.977,-27.1744 591.543,-24.7391 588.786,-26.6655 592.108,-22.3039 592.108,-22.3039"/>
</g>
</g>
</svg>
