<?xml version="1.0" encoding="UTF-8" standalone="no"?>
<?xml-stylesheet href="style.css" type="text/css"?>
<!DOCTYPE svg PUBLIC "-//W3C//DTD SVG 1.1//EN"
 "http://www.w3.org/Graphics/SVG/1.1/DTD/svg11.dtd">
<!-- Generated by graphviz version 2.38.0 (20140413.2041)
 -->
<!-- Title: 41.svg Pages: 1 -->
<svg width="1152pt" height="374pt"
 viewBox="0.00 0.00 1151.50 374.00" xmlns="http://www.w3.org/2000/svg" xmlns:xlink="http://www.w3.org/1999/xlink">
<g id="graph0" class="graph" transform="scale(1 1) rotate(0) translate(4 370)">
<title>41.svg</title>
<polygon fill="white" stroke="none" points="-4,4 -4,-370 1147.5,-370 1147.5,4 -4,4"/>
<!-- r0 -->
<g id="node1" class="node"><title>r0</title>
<polygon fill="none" stroke="black" stroke-dasharray="5,2" points="707,-366 684,-366 684,-348 707,-348 707,-366"/>
<text text-anchor="middle" x="695.5" y="-354.8" font-family="serif" font-size="9.00">0</text>
</g>
<!-- v0 -->
<g id="v0_Building" class="node"><title>v0</title>
<ellipse fill="none" stroke="black" cx="695.5" cy="-301" rx="36" ry="11"/>
<text text-anchor="middle" x="695.5" y="-298.8" font-family="sans-serif" font-size="9.00">Building</text>
</g>
<!-- r0&#45;&gt;v0 -->
<g id="edge1" class="edge"><title>r0&#45;&gt;v0</title>
<path fill="none" stroke="black" d="M695.5,-347.562C695.5,-339.453 695.5,-327.014 695.5,-317.181"/>
<polygon fill="black" stroke="black" points="695.5,-312.03 697.75,-317.03 695.5,-314.53 695.5,-317.03 695.5,-317.03 695.5,-317.03 695.5,-314.53 693.25,-317.03 695.5,-312.03 695.5,-312.03"/>
</g>
<!-- r1 -->
<g id="node2" class="node"><title>r1</title>
<polygon fill="none" stroke="black" stroke-dasharray="5,2" points="1059,-366 1036,-366 1036,-348 1059,-348 1059,-366"/>
<text text-anchor="middle" x="1047.5" y="-354.8" font-family="serif" font-size="9.00">1</text>
</g>
<!-- v9 -->
<g id="v9_RulesKeywords" class="node"><title>v9</title>
<ellipse fill="none" stroke="black" cx="1047.5" cy="-69" rx="54" ry="11"/>
<text text-anchor="middle" x="1047.5" y="-66.8" font-family="sans-serif" font-size="9.00">RulesKeywords</text>
</g>
<!-- r1&#45;&gt;v9 -->
<g id="edge2" class="edge"><title>r1&#45;&gt;v9</title>
<path fill="none" stroke="black" d="M1047.5,-347.849C1047.5,-329.373 1047.5,-282.889 1047.5,-244 1047.5,-244 1047.5,-244 1047.5,-184 1047.5,-148.604 1047.5,-107.026 1047.5,-85.1783"/>
<polygon fill="black" stroke="black" points="1047.5,-80.0648 1049.75,-85.0648 1047.5,-82.5648 1047.5,-85.0648 1047.5,-85.0648 1047.5,-85.0648 1047.5,-82.5648 1045.25,-85.0648 1047.5,-80.0648 1047.5,-80.0648"/>
</g>
<!-- e7 -->
<g id="node3" class="node"><title>e7</title>
</g>
<!-- v8 -->
<g id="v8_SmartLight" class="node"><title>v8</title>
<ellipse fill="none" stroke="black" cx="209.5" cy="-11" rx="43" ry="11"/>
<text text-anchor="middle" x="209.5" y="-8.8" font-family="sans-serif" font-size="9.00">SmartLight</text>
</g>
<!-- e7&#45;&gt;v8 -->
<g id="edge30" class="edge"><title>e7&#45;&gt;v8</title>
<path fill="none" stroke="green" d="M209.5,-64.1674C209.5,-55.5862 209.5,-34.5957 209.5,-22.0117"/>
<polygon fill="green" stroke="green" points="213,-67.3001 206,-67.2999 206,-65.8999 213,-65.9001 213,-67.3001"/>
<polyline fill="none" stroke="green" points="209.5,-68 209.5,-64.5 "/>
</g>
<!-- v1 -->
<g id="v1_Floor" class="node"><title>v1</title>
<ellipse fill="none" stroke="black" cx="584.5" cy="-243" rx="25" ry="11"/>
<text text-anchor="middle" x="584.5" y="-240.8" font-family="sans-serif" font-size="9.00">Floor</text>
</g>
<!-- v0&#45;&gt;v1 -->
<g id="edge3" class="edge"><title>v0&#45;&gt;v1</title>
<path fill="none" stroke="black" d="M678.156,-291.25C658.202,-281.183 625.495,-264.682 604.489,-254.084"/>
<polygon fill="black" stroke="black" points="599.934,-251.787 605.412,-252.03 602.166,-252.913 604.398,-254.039 604.398,-254.039 604.398,-254.039 602.166,-252.913 603.385,-256.048 599.934,-251.787 599.934,-251.787"/>
</g>
<!-- v2 -->
<g id="v2_InstallationBus" class="node"><title>v2</title>
<ellipse fill="none" stroke="black" cx="824.5" cy="-69" rx="61" ry="11"/>
<text text-anchor="middle" x="824.5" y="-66.8" font-family="sans-serif" font-size="9.00">InstallationBus</text>
</g>
<!-- v0&#45;&gt;v2 -->
<g id="edge4" class="edge"><title>v0&#45;&gt;v2</title>
<path fill="none" stroke="black" d="M701.043,-290.117C721.382,-253.854 791.982,-127.979 816.24,-84.7276"/>
<polygon fill="black" stroke="black" points="818.832,-80.105 818.349,-85.5666 817.609,-82.2855 816.386,-84.4659 816.386,-84.4659 816.386,-84.4659 817.609,-82.2855 814.424,-83.3653 818.832,-80.105 818.832,-80.105"/>
</g>
<!-- v4 -->
<g id="v4_Room" class="node"><title>v4</title>
<ellipse fill="none" stroke="black" cx="306.5" cy="-185" rx="21.5" ry="11"/>
<text text-anchor="middle" x="306.5" y="-182.8" font-family="sans-serif" font-size="9.00">Room</text>
</g>
<!-- v1&#45;&gt;v4 -->
<g id="edge5" class="edge"><title>v1&#45;&gt;v4</title>
<path fill="none" stroke="black" d="M562.686,-237.606C511.598,-227.315 384.48,-201.708 330.915,-190.918"/>
<polygon fill="black" stroke="black" points="325.966,-189.921 331.311,-188.703 328.416,-190.415 330.867,-190.909 330.867,-190.909 330.867,-190.909 328.416,-190.415 330.423,-193.114 325.966,-189.921 325.966,-189.921"/>
</g>
<!-- v11 -->
<g id="v11_Hallway" class="node"><title>v11</title>
<ellipse fill="none" stroke="black" cx="490.5" cy="-11" rx="32.5" ry="11"/>
<text text-anchor="middle" x="490.5" y="-8.8" font-family="sans-serif" font-size="9.00">Hallway</text>
</g>
<!-- v1&#45;&gt;v11 -->
<g id="edge6" class="edge"><title>v1&#45;&gt;v11</title>
<path fill="none" stroke="black" d="M580.461,-232.117C565.67,-195.928 514.404,-70.489 496.627,-26.9918"/>
<polygon fill="black" stroke="black" points="494.63,-22.105 498.604,-25.8822 495.576,-24.4192 496.522,-26.7334 496.522,-26.7334 496.522,-26.7334 495.576,-24.4192 494.439,-27.5846 494.63,-22.105 494.63,-22.105"/>
</g>
<!-- v17 -->
<g id="v17_Room" class="node"><title>v17</title>
<ellipse fill="none" stroke="black" cx="584.5" cy="-69" rx="21.5" ry="11"/>
<text text-anchor="middle" x="584.5" y="-66.8" font-family="sans-serif" font-size="9.00">Room</text>
</g>
<!-- v1&#45;&gt;v17 -->
<g id="edge7" class="edge"><title>v1&#45;&gt;v17</title>
<path fill="none" stroke="black" d="M584.5,-231.756C584.5,-202.786 584.5,-120.136 584.5,-85.5335"/>
<polygon fill="black" stroke="black" points="584.5,-80.4081 586.75,-85.408 584.5,-82.9081 584.5,-85.4081 584.5,-85.4081 584.5,-85.4081 584.5,-82.9081 582.25,-85.4081 584.5,-80.4081 584.5,-80.4081"/>
</g>
<!-- v19 -->
<g id="v19_Room" class="node"><title>v19</title>
<ellipse fill="none" stroke="black" cx="688.5" cy="-69" rx="21.5" ry="11"/>
<text text-anchor="middle" x="688.5" y="-66.8" font-family="sans-serif" font-size="9.00">Room</text>
</g>
<!-- v1&#45;&gt;v19 -->
<g id="edge8" class="edge"><title>v1&#45;&gt;v19</title>
<path fill="none" stroke="black" d="M590.389,-232.26C607.837,-203.405 659.313,-118.271 679.874,-84.2667"/>
<polygon fill="black" stroke="black" points="682.675,-79.6335 682.013,-85.0763 681.382,-81.7728 680.088,-83.9121 680.088,-83.9121 680.088,-83.9121 681.382,-81.7728 678.163,-82.7479 682.675,-79.6335 682.675,-79.6335"/>
</g>
<!-- v3 -->
<g id="v3_Data" class="node"><title>v3</title>
<ellipse fill="none" stroke="black" cx="883.5" cy="-11" rx="21.5" ry="11"/>
<text text-anchor="middle" x="883.5" y="-8.8" font-family="sans-serif" font-size="9.00">Data</text>
</g>
<!-- v2&#45;&gt;v3 -->
<g id="edge9" class="edge"><title>v2&#45;&gt;v3</title>
<path fill="none" stroke="black" d="M835.048,-57.9883C844.849,-48.686 859.489,-34.7899 870.111,-24.7086"/>
<polygon fill="black" stroke="black" points="873.825,-21.1826 871.748,-26.2567 872.012,-22.9037 870.199,-24.6248 870.199,-24.6248 870.199,-24.6248 872.012,-22.9037 868.65,-22.9928 873.825,-21.1826 873.825,-21.1826"/>
</g>
<!-- v6 -->
<g id="v6_Laptop" class="node"><title>v6</title>
<ellipse fill="none" stroke="black" cx="81.5" cy="-69" rx="29" ry="11"/>
<text text-anchor="middle" x="81.5" y="-66.8" font-family="sans-serif" font-size="9.00">Laptop</text>
</g>
<!-- v2&#45;&gt;v6 -->
<g id="edge23" class="edge"><title>v2&#45;&gt;v6</title>
<path fill="none" stroke="green" d="M794.621,-78.6979C771.633,-85.628 738.924,-94.3472 709.5,-98 599.015,-111.716 319.133,-110.471 208.5,-98 171.643,-93.8454 129.888,-83.1123 104.637,-75.9344"/>
</g>
<!-- v14 -->
<g id="v14_HVAC" class="node"><title>v14</title>
<ellipse fill="none" stroke="black" cx="306.5" cy="-69" rx="21.5" ry="11"/>
<text text-anchor="middle" x="306.5" y="-66.8" font-family="sans-serif" font-size="9.00">HVAC</text>
</g>
<!-- v2&#45;&gt;v14 -->
<g id="edge24" class="edge"><title>v2&#45;&gt;v14</title>
<path fill="none" stroke="green" d="M794.621,-78.6979C771.633,-85.628 738.924,-94.3472 709.5,-98 563.315,-116.148 385.781,-85.0074 326.7,-73.2304"/>
</g>
<!-- v16 -->
<g id="v16_FireAlarm" class="node"><title>v16</title>
<ellipse fill="none" stroke="black" cx="400.5" cy="-11" rx="39.5" ry="11"/>
<text text-anchor="middle" x="400.5" y="-8.8" font-family="sans-serif" font-size="9.00">FireAlarm</text>
</g>
<!-- v2&#45;&gt;v16 -->
<g id="edge25" class="edge"><title>v2&#45;&gt;v16</title>
<path fill="none" stroke="green" d="M772.914,-63.0693C700.279,-55.8134 563.836,-41.0351 448.5,-22 442.369,-20.9881 435.831,-19.7402 429.618,-18.4731"/>
</g>
<!-- v18 -->
<g id="v18_SmartLight" class="node"><title>v18</title>
<ellipse fill="none" stroke="black" cx="584.5" cy="-11" rx="43" ry="11"/>
<text text-anchor="middle" x="584.5" y="-8.8" font-family="sans-serif" font-size="9.00">SmartLight</text>
</g>
<!-- v2&#45;&gt;v18 -->
<g id="edge26" class="edge"><title>v2&#45;&gt;v18</title>
<path fill="none" stroke="green" d="M789.858,-59.9169C742.737,-48.9219 659.207,-29.4316 614.581,-19.0188"/>
</g>
<!-- v20 -->
<g id="v20_SmartLight" class="node"><title>v20</title>
<ellipse fill="none" stroke="black" cx="688.5" cy="-11" rx="43" ry="11"/>
<text text-anchor="middle" x="688.5" y="-8.8" font-family="sans-serif" font-size="9.00">SmartLight</text>
</g>
<!-- v2&#45;&gt;v20 -->
<g id="edge27" class="edge"><title>v2&#45;&gt;v20</title>
<path fill="none" stroke="green" d="M802.042,-58.7527C776.391,-48.1904 734.738,-31.0392 709.647,-20.7077"/>
</g>
<!-- v21 -->
<g id="v21_Workstation" class="node"><title>v21</title>
<ellipse fill="none" stroke="black" cx="796.5" cy="-11" rx="47" ry="11"/>
<text text-anchor="middle" x="796.5" y="-8.8" font-family="sans-serif" font-size="9.00">Workstation</text>
</g>
<!-- v2&#45;&gt;v21 -->
<g id="edge28" class="edge"><title>v2&#45;&gt;v21</title>
<path fill="none" stroke="green" d="M819.494,-57.9883C814.461,-47.9211 806.737,-32.4737 801.652,-22.3039"/>
</g>
<!-- v5 -->
<g id="v5_Visitor" class="node"><title>v5</title>
<ellipse fill="none" stroke="black" cx="81.5" cy="-127" rx="32.5" ry="11"/>
<text text-anchor="middle" x="81.5" y="-124.8" font-family="sans-serif" font-size="9.00">Visitor</text>
</g>
<!-- v4&#45;&gt;v5 -->
<g id="edge10" class="edge"><title>v4&#45;&gt;v5</title>
<path fill="none" stroke="black" d="M287.704,-179.322C248.674,-169.608 158.568,-147.181 111.445,-135.453"/>
<polygon fill="black" stroke="black" points="106.47,-134.215 111.865,-133.239 108.896,-134.819 111.322,-135.422 111.322,-135.422 111.322,-135.422 108.896,-134.819 110.778,-137.606 106.47,-134.215 106.47,-134.215"/>
</g>
<!-- v4&#45;&gt;v8 -->
<g id="edge11" class="edge"><title>v4&#45;&gt;v8</title>
<path fill="none" stroke="black" d="M288.796,-178.388C268.384,-171.304 234.558,-157.627 210.5,-138 185.429,-117.546 176.816,-110.667 166.5,-80 163.383,-70.7325 162.911,-67.0952 166.5,-58 171.697,-44.8313 182.639,-33.2145 192.184,-24.9493"/>
<polygon fill="black" stroke="black" points="196.169,-21.6175 193.777,-26.551 194.251,-23.2212 192.333,-24.8249 192.333,-24.8249 192.333,-24.8249 194.251,-23.2212 190.89,-23.0988 196.169,-21.6175 196.169,-21.6175"/>
</g>
<!-- v4&#45;&gt;v11 -->
<g id="edge29" class="edge"><title>v4&#45;&gt;v11</title>
<path fill="none" stroke="green" d="M293.033,-176.105C268.842,-161.037 218.759,-125.577 199.5,-80 195.694,-70.9933 193.1,-65.3921 199.5,-58 236.096,-15.7327 393.583,-32.4854 448.5,-22 454.095,-20.9316 460.07,-19.6163 465.706,-18.2947"/>
</g>
<!-- v4&#45;&gt;v14 -->
<g id="edge12" class="edge"><title>v4&#45;&gt;v14</title>
<path fill="none" stroke="black" d="M306.5,-173.883C306.5,-153.906 306.5,-109.276 306.5,-85.5402"/>
<polygon fill="black" stroke="black" points="306.5,-80.2579 308.75,-85.2579 306.5,-82.7579 306.5,-85.2579 306.5,-85.2579 306.5,-85.2579 306.5,-82.7579 304.25,-85.258 306.5,-80.2579 306.5,-80.2579"/>
</g>
<!-- v4&#45;&gt;v16 -->
<g id="edge13" class="edge"><title>v4&#45;&gt;v16</title>
<path fill="none" stroke="black" d="M311.823,-174.26C327.519,-145.54 373.683,-61.0692 392.439,-26.749"/>
<polygon fill="black" stroke="black" points="395.001,-22.0619 394.578,-27.5285 393.802,-24.2556 392.603,-26.4494 392.603,-26.4494 392.603,-26.4494 393.802,-24.2556 390.629,-25.3704 395.001,-22.0619 395.001,-22.0619"/>
</g>
<!-- v5&#45;&gt;v6 -->
<g id="edge14" class="edge"><title>v5&#45;&gt;v6</title>
<path fill="none" stroke="black" d="M81.5,-115.988C81.5,-107.494 81.5,-95.1697 81.5,-85.4169"/>
<polygon fill="black" stroke="black" points="81.5,-80.3039 83.7501,-85.3038 81.5,-82.8039 81.5001,-85.3039 81.5001,-85.3039 81.5001,-85.3039 81.5,-82.8039 79.2501,-85.3039 81.5,-80.3039 81.5,-80.3039"/>
</g>
<!-- v7 -->
<g id="v7_Data" class="node"><title>v7</title>
<ellipse fill="none" stroke="black" cx="21.5" cy="-11" rx="21.5" ry="11"/>
<text text-anchor="middle" x="21.5" y="-8.8" font-family="sans-serif" font-size="9.00">Data</text>
</g>
<!-- v6&#45;&gt;v7 -->
<g id="edge15" class="edge"><title>v6&#45;&gt;v7</title>
<path fill="none" stroke="black" d="M71.3218,-58.5004C61.3167,-49.1622 45.9874,-34.8549 34.9755,-24.5772"/>
<polygon fill="black" stroke="black" points="31.1317,-20.9896 36.3222,-22.7563 32.9594,-22.6954 34.787,-24.4012 34.787,-24.4012 34.787,-24.4012 32.9594,-22.6954 33.2518,-26.0461 31.1317,-20.9896 31.1317,-20.9896"/>
</g>
<!-- v13 -->
<g id="v13_Software" class="node"><title>v13</title>
<ellipse fill="none" stroke="black" cx="97.5" cy="-11" rx="36" ry="11"/>
<text text-anchor="middle" x="97.5" y="-8.8" font-family="sans-serif" font-size="9.00">Software</text>
</g>
<!-- v6&#45;&gt;v13 -->
<g id="edge16" class="edge"><title>v6&#45;&gt;v13</title>
<path fill="none" stroke="black" d="M84.3605,-57.9883C86.8099,-49.4154 90.374,-36.9411 93.1724,-27.1466"/>
<polygon fill="black" stroke="black" points="94.556,-22.3039 95.3458,-27.7297 93.8692,-24.7077 93.1824,-27.1115 93.1824,-27.1115 93.1824,-27.1115 93.8692,-24.7077 91.0189,-26.4933 94.556,-22.3039 94.556,-22.3039"/>
</g>
<!-- v10 -->
<g id="v10_DisconnectDevice" class="node"><title>v10</title>
<ellipse fill="none" stroke="black" cx="988.5" cy="-11" rx="65" ry="11"/>
<text text-anchor="middle" x="988.5" y="-8.8" font-family="sans-serif" font-size="9.00">DisconnectDevice</text>
</g>
<!-- v9&#45;&gt;v10 -->
<g id="edge17" class="edge"><title>v9&#45;&gt;v10</title>
<path fill="none" stroke="black" d="M1036.95,-57.9883C1027.39,-48.9101 1013.21,-35.4569 1002.66,-25.4439"/>
<polygon fill="black" stroke="black" points="998.957,-21.925 1004.13,-23.7352 1000.77,-23.6461 1002.58,-25.3672 1002.58,-25.3672 1002.58,-25.3672 1000.77,-23.6461 1001.03,-26.9991 998.957,-21.925 998.957,-21.925"/>
</g>
<!-- v12 -->
<g id="v12_ExitRoom" class="node"><title>v12</title>
<ellipse fill="none" stroke="black" cx="1107.5" cy="-11" rx="36" ry="11"/>
<text text-anchor="middle" x="1107.5" y="-8.8" font-family="sans-serif" font-size="9.00">ExitRoom</text>
</g>
<!-- v9&#45;&gt;v12 -->
<g id="edge18" class="edge"><title>v9&#45;&gt;v12</title>
<path fill="none" stroke="black" d="M1058.23,-57.9883C1068.07,-48.798 1082.72,-35.1241 1093.49,-25.0746"/>
<polygon fill="black" stroke="black" points="1097.27,-21.5512 1095.15,-26.6077 1095.44,-23.257 1093.61,-24.9628 1093.61,-24.9628 1093.61,-24.9628 1095.44,-23.257 1092.08,-23.3179 1097.27,-21.5512 1097.27,-21.5512"/>
</g>
<!-- v11&#45;&gt;v17 -->
<g id="edge31" class="edge"><title>v11&#45;&gt;v17</title>
<path fill="none" stroke="green" d="M505.317,-20.827C523.508,-31.6646 554.076,-49.8751 571.43,-60.2134"/>
</g>
<!-- v11&#45;&gt;v19 -->
<g id="edge32" class="edge"><title>v11&#45;&gt;v19</title>
<path fill="none" stroke="green" d="M514.187,-18.6993C554.176,-30.0094 634.231,-52.6512 670.228,-62.832"/>
</g>
<!-- v15 -->
<g id="v15_Software" class="node"><title>v15</title>
<ellipse fill="none" stroke="black" cx="306.5" cy="-11" rx="36" ry="11"/>
<text text-anchor="middle" x="306.5" y="-8.8" font-family="sans-serif" font-size="9.00">Software</text>
</g>
<!-- v14&#45;&gt;v15 -->
<g id="edge19" class="edge"><title>v14&#45;&gt;v15</title>
<path fill="none" stroke="black" d="M306.5,-57.9883C306.5,-49.4941 306.5,-37.1697 306.5,-27.4169"/>
<polygon fill="black" stroke="black" points="306.5,-22.3039 308.75,-27.3038 306.5,-24.8039 306.5,-27.3039 306.5,-27.3039 306.5,-27.3039 306.5,-24.8039 304.25,-27.3039 306.5,-22.3039 306.5,-22.3039"/>
</g>
<!-- v17&#45;&gt;v18 -->
<g id="edge20" class="edge"><title>v17&#45;&gt;v18</title>
<path fill="none" stroke="black" d="M584.5,-57.9883C584.5,-49.4941 584.5,-37.1697 584.5,-27.4169"/>
<polygon fill="black" stroke="black" points="584.5,-22.3039 586.75,-27.3038 584.5,-24.8039 584.5,-27.3039 584.5,-27.3039 584.5,-27.3039 584.5,-24.8039 582.25,-27.3039 584.5,-22.3039 584.5,-22.3039"/>
</g>
<!-- v19&#45;&gt;v20 -->
<g id="edge21" class="edge"><title>v19&#45;&gt;v20</title>
<path fill="none" stroke="black" d="M688.5,-57.9883C688.5,-49.4941 688.5,-37.1697 688.5,-27.4169"/>
<polygon fill="black" stroke="black" points="688.5,-22.3039 690.75,-27.3038 688.5,-24.8039 688.5,-27.3039 688.5,-27.3039 688.5,-27.3039 688.5,-24.8039 686.25,-27.3039 688.5,-22.3039 688.5,-22.3039"/>
</g>
<!-- v19&#45;&gt;v21 -->
<g id="edge22" class="edge"><title>v19&#45;&gt;v21</title>
<path fill="none" stroke="black" d="M702.619,-60.679C720.692,-51.3076 752.232,-34.9536 773.722,-23.8106"/>
<polygon fill="black" stroke="black" points="778.416,-21.3771 775.013,-25.6762 776.196,-22.5279 773.977,-23.6787 773.977,-23.6787 773.977,-23.6787 776.196,-22.5279 772.941,-21.6813 778.416,-21.3771 778.416,-21.3771"/>
</g>
</g>
</svg>
