<?xml version="1.0" encoding="UTF-8" standalone="no"?>
<?xml-stylesheet href="style_sbrs.css" type="text/css"?>
<!DOCTYPE svg PUBLIC "-//W3C//DTD SVG 1.1//EN"
 "http://www.w3.org/Graphics/SVG/1.1/DTD/svg11.dtd">
<!-- Generated by graphviz version 2.38.0 (20140413.2041)
 -->
<!-- Title: transitions.svg Pages: 1 -->
<svg width="473pt" height="784pt"
 viewBox="0.00 0.00 473.30 784.00" xmlns="http://www.w3.org/2000/svg" xmlns:xlink="http://www.w3.org/1999/xlink">
<g id="graph0" class="graph" transform="scale(1 1) rotate(0) translate(4 780)">
<title>transitions.svg</title>
<polygon fill="white" stroke="none" points="-4,4 -4,-780 469.297,-780 469.297,4 -4,4"/>
<!-- 0 -->
<g id="s0" class="node"><title>0</title>
<g id="a_s0"><a xlink:href="./0.svg" xlink:title="0">
<ellipse fill="none" stroke="black" stroke-width="2" cx="249" cy="-765" rx="21.5" ry="11"/>
<text text-anchor="middle" x="249" y="-762.8" font-family="monospace" font-size="9.00">0</text>
</a>
</g>
</g>
<!-- 1 -->
<g id="s1" class="node"><title>1</title>
<g id="a_s1"><a xlink:href="./1.svg" xlink:title="1">
<ellipse fill="none" stroke="black" cx="188" cy="-707" rx="21.5" ry="11"/>
<text text-anchor="middle" x="188" y="-704.8" font-family="monospace" font-size="9.00">1</text>
</a>
</g>
</g>
<!-- 0&#45;&gt;1 -->
<g id="edge13" class="edge"><title>0&#45;&gt;1</title>
<path fill="none" stroke="black" d="M239.199,-755.003C229.121,-745.75 213.334,-731.257 201.954,-720.81"/>
<polygon fill="black" stroke="black" points="197.979,-717.161 203.184,-718.885 199.821,-718.852 201.662,-720.542 201.662,-720.542 201.662,-720.542 199.821,-718.852 200.141,-722.2 197.979,-717.161 197.979,-717.161"/>
</g>
<!-- 2 -->
<g id="s2" class="node"><title>2</title>
<g id="a_s2"><a xlink:href="./2.svg" xlink:title="2">
<ellipse fill="none" stroke="black" cx="249" cy="-707" rx="21.5" ry="11"/>
<text text-anchor="middle" x="249" y="-704.8" font-family="monospace" font-size="9.00">2</text>
</a>
</g>
</g>
<!-- 0&#45;&gt;2 -->
<g id="edge14" class="edge"><title>0&#45;&gt;2</title>
<path fill="none" stroke="black" d="M243.733,-754.246C242.079,-745.679 241.808,-733.076 242.922,-723.19"/>
<polygon fill="black" stroke="black" points="243.683,-718.02 245.181,-723.294 243.319,-720.493 242.955,-722.966 242.955,-722.966 242.955,-722.966 243.319,-720.493 240.729,-722.639 243.683,-718.02 243.683,-718.02"/>
</g>
<!-- 3 -->
<g id="s3" class="node"><title>3</title>
<g id="a_s3"><a xlink:href="./3.svg" xlink:title="3">
<ellipse fill="none" stroke="black" cx="310" cy="-707" rx="21.5" ry="11"/>
<text text-anchor="middle" x="310" y="-704.8" font-family="monospace" font-size="9.00">3</text>
</a>
</g>
</g>
<!-- 0&#45;&gt;3 -->
<g id="edge15" class="edge"><title>0&#45;&gt;3</title>
<path fill="none" stroke="black" d="M254.359,-754.246C263.139,-744.448 279.48,-729.371 292.378,-719.116"/>
<polygon fill="black" stroke="black" points="296.605,-715.838 294.033,-720.681 294.629,-717.37 292.654,-718.903 292.654,-718.903 292.654,-718.903 294.629,-717.37 291.275,-717.125 296.605,-715.838 296.605,-715.838"/>
</g>
<!-- 4 -->
<g id="s4" class="node"><title>4</title>
<g id="a_s4"><a xlink:href="./4.svg" xlink:title="4">
<ellipse fill="none" stroke="black" cx="127" cy="-707" rx="21.5" ry="11"/>
<text text-anchor="middle" x="127" y="-704.8" font-family="monospace" font-size="9.00">4</text>
</a>
</g>
</g>
<!-- 0&#45;&gt;4 -->
<g id="edge16" class="edge"><title>0&#45;&gt;4</title>
<path fill="none" stroke="black" d="M231.836,-758.113C208.583,-748.727 167.951,-730.241 144.539,-718.535"/>
<polygon fill="black" stroke="black" points="139.816,-716.145 145.294,-716.395 142.047,-717.274 144.278,-718.403 144.278,-718.403 144.278,-718.403 142.047,-717.274 143.262,-720.41 139.816,-716.145 139.816,-716.145"/>
</g>
<!-- 28 -->
<g id="s28" class="node"><title>28</title>
<g id="a_s28"><a xlink:href="./28.svg" xlink:title="28">
<ellipse fill="none" stroke="black" cx="111" cy="-475" rx="21.5" ry="11"/>
<text text-anchor="middle" x="111" y="-472.8" font-family="monospace" font-size="9.00">28</text>
</a>
</g>
</g>
<!-- 31 -->
<g id="s31" class="node"><title>31</title>
<g id="a_s31"><a xlink:href="./31.svg" xlink:title="31">
<ellipse fill="none" stroke="black" cx="111" cy="-417" rx="21.5" ry="11"/>
<text text-anchor="middle" x="111" y="-414.8" font-family="monospace" font-size="9.00">31</text>
</a>
</g>
</g>
<!-- 28&#45;&gt;31 -->
<g id="edge29" class="edge"><title>28&#45;&gt;31</title>
<path fill="none" stroke="black" d="M105.733,-464.246C104.079,-455.679 103.808,-443.076 104.922,-433.19"/>
<polygon fill="black" stroke="black" points="105.683,-428.02 107.181,-433.294 105.319,-430.493 104.955,-432.966 104.955,-432.966 104.955,-432.966 105.319,-430.493 102.729,-432.639 105.683,-428.02 105.683,-428.02"/>
</g>
<!-- 21 -->
<g id="s21" class="node"><title>21</title>
<g id="a_s21"><a xlink:href="./21.svg" xlink:title="21">
<ellipse fill="none" stroke="black" cx="111" cy="-533" rx="21.5" ry="11"/>
<text text-anchor="middle" x="111" y="-530.8" font-family="monospace" font-size="9.00">21</text>
</a>
</g>
</g>
<!-- 28&#45;&gt;21 -->
<g id="edge28" class="edge"><title>28&#45;&gt;21</title>
<path fill="none" stroke="black" d="M116.317,-486.02C117.943,-494.669 118.185,-507.284 117.043,-517.114"/>
<polygon fill="black" stroke="black" points="116.267,-522.246 114.79,-516.965 116.641,-519.774 117.015,-517.302 117.015,-517.302 117.015,-517.302 116.641,-519.774 119.24,-517.639 116.267,-522.246 116.267,-522.246"/>
</g>
<!-- 24 -->
<g id="s24" class="node"><title>24</title>
<g id="a_s24"><a xlink:href="./24.svg" xlink:title="24">
<ellipse fill="none" stroke="black" cx="111" cy="-359" rx="21.5" ry="11"/>
<text text-anchor="middle" x="111" y="-356.8" font-family="monospace" font-size="9.00">24</text>
</a>
</g>
</g>
<!-- 24&#45;&gt;31 -->
<g id="edge67" class="edge"><title>24&#45;&gt;31</title>
<path fill="none" stroke="black" d="M116.317,-370.02C117.943,-378.669 118.185,-391.284 117.043,-401.114"/>
<polygon fill="black" stroke="black" points="116.267,-406.246 114.79,-400.965 116.641,-403.774 117.015,-401.302 117.015,-401.302 117.015,-401.302 116.641,-403.774 119.24,-401.639 116.267,-406.246 116.267,-406.246"/>
</g>
<!-- 18 -->
<g id="s18" class="node"><title>18</title>
<g id="a_s18"><a xlink:href="./18.svg" xlink:title="18">
<ellipse fill="none" stroke="black" cx="111" cy="-301" rx="21.5" ry="11"/>
<text text-anchor="middle" x="111" y="-298.8" font-family="monospace" font-size="9.00">18</text>
</a>
</g>
</g>
<!-- 24&#45;&gt;18 -->
<g id="edge66" class="edge"><title>24&#45;&gt;18</title>
<path fill="none" stroke="black" d="M105.733,-348.246C104.079,-339.679 103.808,-327.076 104.922,-317.19"/>
<polygon fill="black" stroke="black" points="105.683,-312.02 107.181,-317.294 105.319,-314.493 104.955,-316.966 104.955,-316.966 104.955,-316.966 105.319,-314.493 102.729,-316.639 105.683,-312.02 105.683,-312.02"/>
</g>
<!-- 23 -->
<g id="s23" class="node"><title>23</title>
<g id="a_s23"><a xlink:href="./23.svg" xlink:title="23">
<ellipse fill="none" stroke="black" cx="50" cy="-359" rx="21.5" ry="11"/>
<text text-anchor="middle" x="50" y="-356.8" font-family="monospace" font-size="9.00">23</text>
</a>
</g>
</g>
<!-- 23&#45;&gt;31 -->
<g id="edge73" class="edge"><title>23&#45;&gt;31</title>
<path fill="none" stroke="black" d="M63.3952,-367.838C75.2706,-376.795 91.7511,-391.613 102.118,-402.451"/>
<polygon fill="black" stroke="black" points="105.641,-406.246 100.591,-404.112 103.94,-404.413 102.239,-402.581 102.239,-402.581 102.239,-402.581 103.94,-404.413 103.888,-401.05 105.641,-406.246 105.641,-406.246"/>
</g>
<!-- 16 -->
<g id="s16" class="node"><title>16</title>
<g id="a_s16"><a xlink:href="./16.svg" xlink:title="16">
<ellipse fill="none" stroke="black" cx="50" cy="-301" rx="21.5" ry="11"/>
<text text-anchor="middle" x="50" y="-298.8" font-family="monospace" font-size="9.00">16</text>
</a>
</g>
</g>
<!-- 23&#45;&gt;16 -->
<g id="edge72" class="edge"><title>23&#45;&gt;16</title>
<path fill="none" stroke="black" d="M44.7332,-348.246C43.0789,-339.679 42.8085,-327.076 43.9218,-317.19"/>
<polygon fill="black" stroke="black" points="44.6826,-312.02 46.1806,-317.294 44.3186,-314.493 43.9546,-316.966 43.9546,-316.966 43.9546,-316.966 44.3186,-314.493 41.7285,-316.639 44.6826,-312.02 44.6826,-312.02"/>
</g>
<!-- 15 -->
<g id="s15" class="node"><title>15</title>
<g id="a_s15"><a xlink:href="./15.svg" xlink:title="15">
<ellipse fill="none" stroke="black" cx="188" cy="-591" rx="21.5" ry="11"/>
<text text-anchor="middle" x="188" y="-588.8" font-family="monospace" font-size="9.00">15</text>
</a>
</g>
</g>
<!-- 20 -->
<g id="s20" class="node"><title>20</title>
<g id="a_s20"><a xlink:href="./20.svg" xlink:title="20">
<ellipse fill="none" stroke="black" cx="249" cy="-533" rx="21.5" ry="11"/>
<text text-anchor="middle" x="249" y="-530.8" font-family="monospace" font-size="9.00">20</text>
</a>
</g>
</g>
<!-- 15&#45;&gt;20 -->
<g id="edge86" class="edge"><title>15&#45;&gt;20</title>
<path fill="none" stroke="black" d="M197.801,-581.003C207.879,-571.75 223.666,-557.257 235.046,-546.81"/>
<polygon fill="black" stroke="black" points="239.021,-543.161 236.859,-548.2 237.179,-544.852 235.338,-546.542 235.338,-546.542 235.338,-546.542 237.179,-544.852 233.816,-544.885 239.021,-543.161 239.021,-543.161"/>
</g>
<!-- 9 -->
<g id="s9" class="node"><title>9</title>
<g id="a_s9"><a xlink:href="./9.svg" xlink:title="9">
<ellipse fill="none" stroke="black" cx="188" cy="-649" rx="21.5" ry="11"/>
<text text-anchor="middle" x="188" y="-646.8" font-family="monospace" font-size="9.00">9</text>
</a>
</g>
</g>
<!-- 15&#45;&gt;9 -->
<g id="edge85" class="edge"><title>15&#45;&gt;9</title>
<path fill="none" stroke="black" d="M193.317,-602.02C194.943,-610.669 195.185,-623.284 194.043,-633.114"/>
<polygon fill="black" stroke="black" points="193.267,-638.246 191.79,-632.965 193.641,-635.774 194.015,-633.302 194.015,-633.302 194.015,-633.302 193.641,-635.774 196.24,-633.639 193.267,-638.246 193.267,-638.246"/>
</g>
<!-- 15&#45;&gt;21 -->
<g id="edge87" class="edge"><title>15&#45;&gt;21</title>
<path fill="none" stroke="black" d="M176.305,-581.495C163.113,-571.901 141.586,-556.244 126.88,-545.549"/>
<polygon fill="black" stroke="black" points="122.552,-542.402 127.92,-543.523 124.574,-543.872 126.596,-545.343 126.596,-545.343 126.596,-545.343 124.574,-543.872 125.273,-547.162 122.552,-542.402 122.552,-542.402"/>
</g>
<!-- 13 -->
<g id="s13" class="node"><title>13</title>
<g id="a_s13"><a xlink:href="./13.svg" xlink:title="13">
<ellipse fill="none" stroke="black" cx="249" cy="-591" rx="21.5" ry="11"/>
<text text-anchor="middle" x="249" y="-588.8" font-family="monospace" font-size="9.00">13</text>
</a>
</g>
</g>
<!-- 17 -->
<g id="s17" class="node"><title>17</title>
<g id="a_s17"><a xlink:href="./17.svg" xlink:title="17">
<ellipse fill="none" stroke="black" cx="371" cy="-301" rx="21.5" ry="11"/>
<text text-anchor="middle" x="371" y="-298.8" font-family="monospace" font-size="9.00">17</text>
</a>
</g>
</g>
<!-- 13&#45;&gt;17 -->
<g id="edge55" class="edge"><title>13&#45;&gt;17</title>
<path fill="none" stroke="black" d="M266.245,-584.203C285.735,-577.031 317.651,-563.352 340,-544 411.4,-482.173 433.57,-460.068 462,-370 464.943,-360.676 467.122,-356.329 462,-348 447.662,-324.687 417.452,-312.755 395.771,-306.961"/>
<polygon fill="black" stroke="black" points="390.733,-305.683 396.133,-304.731 393.156,-306.298 395.58,-306.912 395.58,-306.912 395.58,-306.912 393.156,-306.298 395.026,-309.093 390.733,-305.683 390.733,-305.683"/>
</g>
<!-- 7 -->
<g id="s7" class="node"><title>7</title>
<g id="a_s7"><a xlink:href="./7.svg" xlink:title="7">
<ellipse fill="none" stroke="black" cx="249" cy="-649" rx="21.5" ry="11"/>
<text text-anchor="middle" x="249" y="-646.8" font-family="monospace" font-size="9.00">7</text>
</a>
</g>
</g>
<!-- 13&#45;&gt;7 -->
<g id="edge54" class="edge"><title>13&#45;&gt;7</title>
<path fill="none" stroke="black" d="M254.317,-602.02C255.943,-610.669 256.185,-623.284 255.043,-633.114"/>
<polygon fill="black" stroke="black" points="254.267,-638.246 252.79,-632.965 254.641,-635.774 255.015,-633.302 255.015,-633.302 255.015,-633.302 254.641,-635.774 257.24,-633.639 254.267,-638.246 254.267,-638.246"/>
</g>
<!-- 13&#45;&gt;18 -->
<g id="edge56" class="edge"><title>13&#45;&gt;18</title>
<path fill="none" stroke="black" d="M236.392,-581.971C212.059,-565.379 161,-524.755 161,-476 161,-476 161,-476 161,-416 161,-376.858 135.973,-336.039 121.332,-315.509"/>
<polygon fill="black" stroke="black" points="118.378,-311.444 123.137,-314.166 119.847,-313.466 121.317,-315.488 121.317,-315.488 121.317,-315.488 119.847,-313.466 119.497,-316.811 118.378,-311.444 118.378,-311.444"/>
</g>
<!-- 11 -->
<g id="s11" class="node"><title>11</title>
<g id="a_s11"><a xlink:href="./11.svg" xlink:title="11">
<ellipse fill="none" stroke="black" cx="96" cy="-591" rx="21.5" ry="11"/>
<text text-anchor="middle" x="96" y="-588.8" font-family="monospace" font-size="9.00">11</text>
</a>
</g>
</g>
<!-- 5 -->
<g id="s5" class="node"><title>5</title>
<g id="a_s5"><a xlink:href="./5.svg" xlink:title="5">
<ellipse fill="none" stroke="black" cx="127" cy="-649" rx="21.5" ry="11"/>
<text text-anchor="middle" x="127" y="-646.8" font-family="monospace" font-size="9.00">5</text>
</a>
</g>
</g>
<!-- 11&#45;&gt;5 -->
<g id="edge59" class="edge"><title>11&#45;&gt;5</title>
<path fill="none" stroke="black" d="M105.959,-600.819C112.608,-609.496 120.348,-622.903 124.846,-633.211"/>
<polygon fill="black" stroke="black" points="126.774,-637.988 122.816,-634.194 125.838,-635.67 124.902,-633.352 124.902,-633.352 124.902,-633.352 125.838,-635.67 126.989,-632.51 126.774,-637.988 126.774,-637.988"/>
</g>
<!-- 11&#45;&gt;16 -->
<g id="edge60" class="edge"><title>11&#45;&gt;16</title>
<path fill="none" stroke="black" d="M82.2455,-582.261C55.7007,-566.19 0,-526.455 0,-476 0,-476 0,-476 0,-416 0,-384.62 5.84078,-376.487 19,-348 24.4141,-336.279 32.6592,-324.219 39.2854,-315.39"/>
<polygon fill="black" stroke="black" points="42.3888,-311.33 41.1396,-316.669 40.8704,-313.316 39.3521,-315.303 39.3521,-315.303 39.3521,-315.303 40.8704,-313.316 37.5645,-313.936 42.3888,-311.33 42.3888,-311.33"/>
</g>
<!-- 10 -->
<g id="s10" class="node"><title>10</title>
<g id="a_s10"><a xlink:href="./10.svg" xlink:title="10">
<ellipse fill="none" stroke="black" cx="310" cy="-649" rx="21.5" ry="11"/>
<text text-anchor="middle" x="310" y="-646.8" font-family="monospace" font-size="9.00">10</text>
</a>
</g>
</g>
<!-- 10&#45;&gt;15 -->
<g id="edge19" class="edge"><title>10&#45;&gt;15</title>
<path fill="none" stroke="black" d="M294.549,-640.908C272.548,-630.809 232.182,-612.28 207.948,-601.156"/>
<polygon fill="black" stroke="black" points="203.326,-599.035 208.809,-599.076 205.598,-600.078 207.87,-601.121 207.87,-601.121 207.87,-601.121 205.598,-600.078 206.931,-603.166 203.326,-599.035 203.326,-599.035"/>
</g>
<!-- 14 -->
<g id="s14" class="node"><title>14</title>
<g id="a_s14"><a xlink:href="./14.svg" xlink:title="14">
<ellipse fill="none" stroke="black" cx="310" cy="-591" rx="21.5" ry="11"/>
<text text-anchor="middle" x="310" y="-588.8" font-family="monospace" font-size="9.00">14</text>
</a>
</g>
</g>
<!-- 10&#45;&gt;14 -->
<g id="edge18" class="edge"><title>10&#45;&gt;14</title>
<path fill="none" stroke="black" d="M310,-637.988C310,-629.494 310,-617.17 310,-607.417"/>
<polygon fill="black" stroke="black" points="310,-602.304 312.25,-607.304 310,-604.804 310,-607.304 310,-607.304 310,-607.304 310,-604.804 307.75,-607.304 310,-602.304 310,-602.304"/>
</g>
<!-- 10&#45;&gt;2 -->
<g id="edge17" class="edge"><title>10&#45;&gt;2</title>
<path fill="none" stroke="black" d="M304.432,-659.987C295.581,-669.815 279.336,-684.785 266.524,-694.961"/>
<polygon fill="black" stroke="black" points="262.327,-698.213 264.901,-693.372 264.303,-696.682 266.279,-695.151 266.279,-695.151 266.279,-695.151 264.303,-696.682 267.657,-696.929 262.327,-698.213 262.327,-698.213"/>
</g>
<!-- 8 -->
<g id="s8" class="node"><title>8</title>
<g id="a_s8"><a xlink:href="./8.svg" xlink:title="8">
<ellipse fill="none" stroke="black" cx="371" cy="-649" rx="21.5" ry="11"/>
<text text-anchor="middle" x="371" y="-646.8" font-family="monospace" font-size="9.00">8</text>
</a>
</g>
</g>
<!-- 8&#45;&gt;13 -->
<g id="edge79" class="edge"><title>8&#45;&gt;13</title>
<path fill="none" stroke="black" d="M355.549,-640.908C333.548,-630.809 293.182,-612.28 268.948,-601.156"/>
<polygon fill="black" stroke="black" points="264.326,-599.035 269.809,-599.076 266.598,-600.078 268.87,-601.121 268.87,-601.121 268.87,-601.121 266.598,-600.078 267.931,-603.166 264.326,-599.035 264.326,-599.035"/>
</g>
<!-- 12 -->
<g id="s12" class="node"><title>12</title>
<g id="a_s12"><a xlink:href="./12.svg" xlink:title="12">
<ellipse fill="none" stroke="black" cx="432" cy="-359" rx="21.5" ry="11"/>
<text text-anchor="middle" x="432" y="-356.8" font-family="monospace" font-size="9.00">12</text>
</a>
</g>
</g>
<!-- 8&#45;&gt;12 -->
<g id="edge78" class="edge"><title>8&#45;&gt;12</title>
<path fill="none" stroke="black" d="M381.771,-639.202C402.078,-621.552 444,-579.593 444,-534 444,-534 444,-534 444,-474 444,-438.408 438.143,-396.908 434.613,-375.125"/>
<polygon fill="black" stroke="black" points="433.771,-370.027 436.806,-374.594 434.178,-372.494 434.586,-374.961 434.586,-374.961 434.586,-374.961 434.178,-372.494 432.366,-375.327 433.771,-370.027 433.771,-370.027"/>
</g>
<!-- 8&#45;&gt;3 -->
<g id="edge77" class="edge"><title>8&#45;&gt;3</title>
<path fill="none" stroke="black" d="M365.432,-659.987C356.581,-669.815 340.336,-684.785 327.524,-694.961"/>
<polygon fill="black" stroke="black" points="323.327,-698.213 325.901,-693.372 325.303,-696.682 327.279,-695.151 327.279,-695.151 327.279,-695.151 325.303,-696.682 328.657,-696.929 323.327,-698.213 323.327,-698.213"/>
</g>
<!-- 6 -->
<g id="s6" class="node"><title>6</title>
<g id="a_s6"><a xlink:href="./6.svg" xlink:title="6">
<ellipse fill="none" stroke="black" cx="66" cy="-649" rx="21.5" ry="11"/>
<text text-anchor="middle" x="66" y="-646.8" font-family="monospace" font-size="9.00">6</text>
</a>
</g>
</g>
<!-- 6&#45;&gt;11 -->
<g id="edge43" class="edge"><title>6&#45;&gt;11</title>
<path fill="none" stroke="black" d="M71.2256,-638.246C75.8999,-629.52 82.8171,-616.608 88.1553,-606.643"/>
<polygon fill="black" stroke="black" points="90.6323,-602.02 90.2545,-607.49 89.4517,-604.223 88.2711,-606.427 88.2711,-606.427 88.2711,-606.427 89.4517,-604.223 86.2878,-605.365 90.6323,-602.02 90.6323,-602.02"/>
</g>
<!-- 6&#45;&gt;4 -->
<g id="edge42" class="edge"><title>6&#45;&gt;4</title>
<path fill="none" stroke="black" d="M79.3952,-657.838C91.2706,-666.795 107.751,-681.613 118.118,-692.451"/>
<polygon fill="black" stroke="black" points="121.641,-696.246 116.591,-694.112 119.94,-694.413 118.239,-692.581 118.239,-692.581 118.239,-692.581 119.94,-694.413 119.888,-691.05 121.641,-696.246 121.641,-696.246"/>
</g>
<!-- 37 -->
<g id="s37" class="node"><title>37</title>
<g id="a_s37"><a xlink:href="./37.svg" xlink:title="37">
<ellipse fill="none" stroke="black" cx="249" cy="-127" rx="21.5" ry="11"/>
<text text-anchor="middle" x="249" y="-124.8" font-family="monospace" font-size="9.00">37</text>
</a>
</g>
</g>
<!-- 40 -->
<g id="s40" class="node"><title>40</title>
<g id="a_s40"><a xlink:href="./40.svg" xlink:title="40">
<ellipse fill="none" stroke="black" cx="249" cy="-185" rx="21.5" ry="11"/>
<text text-anchor="middle" x="249" y="-182.8" font-family="monospace" font-size="9.00">40</text>
</a>
</g>
</g>
<!-- 37&#45;&gt;40 -->
<g id="edge23" class="edge"><title>37&#45;&gt;40</title>
<path fill="none" stroke="black" d="M254.317,-138.02C255.943,-146.669 256.185,-159.284 255.043,-169.114"/>
<polygon fill="black" stroke="black" points="254.267,-174.246 252.79,-168.965 254.641,-171.774 255.015,-169.302 255.015,-169.302 255.015,-169.302 254.641,-171.774 257.24,-169.639 254.267,-174.246 254.267,-174.246"/>
</g>
<!-- 35 -->
<g id="s35" class="node"><title>35</title>
<g id="a_s35"><a xlink:href="./35.svg" xlink:title="35">
<ellipse fill="none" stroke="black" cx="249" cy="-69" rx="21.5" ry="11"/>
<text text-anchor="middle" x="249" y="-66.8" font-family="monospace" font-size="9.00">35</text>
</a>
</g>
</g>
<!-- 37&#45;&gt;35 -->
<g id="edge22" class="edge"><title>37&#45;&gt;35</title>
<path fill="none" stroke="black" d="M243.733,-116.246C242.079,-107.679 241.808,-95.0763 242.922,-85.1899"/>
<polygon fill="black" stroke="black" points="243.683,-80.0198 245.181,-85.2941 243.319,-82.4931 242.955,-84.9665 242.955,-84.9665 242.955,-84.9665 243.319,-82.4931 240.729,-84.6389 243.683,-80.0198 243.683,-80.0198"/>
</g>
<!-- 33 -->
<g id="s33" class="node"><title>33</title>
<g id="a_s33"><a xlink:href="./33.svg" xlink:title="33">
<ellipse fill="none" stroke="black" cx="310" cy="-69" rx="21.5" ry="11"/>
<text text-anchor="middle" x="310" y="-66.8" font-family="monospace" font-size="9.00">33</text>
</a>
</g>
</g>
<!-- 37&#45;&gt;33 -->
<g id="edge21" class="edge"><title>37&#45;&gt;33</title>
<path fill="none" stroke="black" d="M254.359,-116.246C263.139,-106.448 279.48,-91.3712 292.378,-81.1164"/>
<polygon fill="black" stroke="black" points="296.605,-77.8381 294.033,-82.6806 294.629,-79.3704 292.654,-80.9027 292.654,-80.9027 292.654,-80.9027 294.629,-79.3704 291.275,-79.1248 296.605,-77.8381 296.605,-77.8381"/>
</g>
<!-- 36 -->
<g id="s36" class="node"><title>36</title>
<g id="a_s36"><a xlink:href="./36.svg" xlink:title="36">
<ellipse fill="none" stroke="black" cx="249" cy="-359" rx="21.5" ry="11"/>
<text text-anchor="middle" x="249" y="-356.8" font-family="monospace" font-size="9.00">36</text>
</a>
</g>
</g>
<!-- 39 -->
<g id="s39" class="node"><title>39</title>
<g id="a_s39"><a xlink:href="./39.svg" xlink:title="39">
<ellipse fill="none" stroke="black" cx="249" cy="-301" rx="21.5" ry="11"/>
<text text-anchor="middle" x="249" y="-298.8" font-family="monospace" font-size="9.00">39</text>
</a>
</g>
</g>
<!-- 36&#45;&gt;39 -->
<g id="edge64" class="edge"><title>36&#45;&gt;39</title>
<path fill="none" stroke="black" d="M243.733,-348.246C242.079,-339.679 241.808,-327.076 242.922,-317.19"/>
<polygon fill="black" stroke="black" points="243.683,-312.02 245.181,-317.294 243.319,-314.493 242.955,-316.966 242.955,-316.966 242.955,-316.966 243.319,-314.493 240.729,-316.639 243.683,-312.02 243.683,-312.02"/>
</g>
<!-- 32 -->
<g id="s32" class="node"><title>32</title>
<g id="a_s32"><a xlink:href="./32.svg" xlink:title="32">
<ellipse fill="none" stroke="black" cx="249" cy="-417" rx="21.5" ry="11"/>
<text text-anchor="middle" x="249" y="-414.8" font-family="monospace" font-size="9.00">32</text>
</a>
</g>
</g>
<!-- 36&#45;&gt;32 -->
<g id="edge63" class="edge"><title>36&#45;&gt;32</title>
<path fill="none" stroke="black" d="M254.317,-370.02C255.943,-378.669 256.185,-391.284 255.043,-401.114"/>
<polygon fill="black" stroke="black" points="254.267,-406.246 252.79,-400.965 254.641,-403.774 255.015,-401.302 255.015,-401.302 255.015,-401.302 254.641,-403.774 257.24,-401.639 254.267,-406.246 254.267,-406.246"/>
</g>
<!-- 30 -->
<g id="s30" class="node"><title>30</title>
<g id="a_s30"><a xlink:href="./30.svg" xlink:title="30">
<ellipse fill="none" stroke="black" cx="249" cy="-475" rx="21.5" ry="11"/>
<text text-anchor="middle" x="249" y="-472.8" font-family="monospace" font-size="9.00">30</text>
</a>
</g>
</g>
<!-- 30&#45;&gt;20 -->
<g id="edge90" class="edge"><title>30&#45;&gt;20</title>
<path fill="none" stroke="black" d="M254.317,-486.02C255.943,-494.669 256.185,-507.284 255.043,-517.114"/>
<polygon fill="black" stroke="black" points="254.267,-522.246 252.79,-516.965 254.641,-519.774 255.015,-517.302 255.015,-517.302 255.015,-517.302 254.641,-519.774 257.24,-517.639 254.267,-522.246 254.267,-522.246"/>
</g>
<!-- 30&#45;&gt;32 -->
<g id="edge91" class="edge"><title>30&#45;&gt;32</title>
<path fill="none" stroke="black" d="M243.733,-464.246C242.079,-455.679 241.808,-443.076 242.922,-433.19"/>
<polygon fill="black" stroke="black" points="243.683,-428.02 245.181,-433.294 243.319,-430.493 242.955,-432.966 242.955,-432.966 242.955,-432.966 243.319,-430.493 240.729,-432.639 243.683,-428.02 243.683,-428.02"/>
</g>
<!-- 26 -->
<g id="s26" class="node"><title>26</title>
<g id="a_s26"><a xlink:href="./26.svg" xlink:title="26">
<ellipse fill="none" stroke="black" cx="371" cy="-359" rx="21.5" ry="11"/>
<text text-anchor="middle" x="371" y="-356.8" font-family="monospace" font-size="9.00">26</text>
</a>
</g>
</g>
<!-- 26&#45;&gt;17 -->
<g id="edge61" class="edge"><title>26&#45;&gt;17</title>
<path fill="none" stroke="black" d="M365.733,-348.246C364.079,-339.679 363.808,-327.076 364.922,-317.19"/>
<polygon fill="black" stroke="black" points="365.683,-312.02 367.181,-317.294 365.319,-314.493 364.955,-316.966 364.955,-316.966 364.955,-316.966 365.319,-314.493 362.729,-316.639 365.683,-312.02 365.683,-312.02"/>
</g>
<!-- 26&#45;&gt;32 -->
<g id="edge62" class="edge"><title>26&#45;&gt;32</title>
<path fill="none" stroke="black" d="M358.184,-368.145C337.309,-378.851 296.588,-397.533 271.058,-408.11"/>
<polygon fill="black" stroke="black" points="266.164,-410.113 269.94,-406.137 268.478,-409.166 270.792,-408.219 270.792,-408.219 270.792,-408.219 268.478,-409.166 271.644,-410.301 266.164,-410.113 266.164,-410.113"/>
</g>
<!-- 39&#45;&gt;36 -->
<g id="edge11" class="edge"><title>39&#45;&gt;36</title>
<path fill="none" stroke="black" d="M254.317,-312.02C255.943,-320.669 256.185,-333.284 255.043,-343.114"/>
<polygon fill="black" stroke="black" points="254.267,-348.246 252.79,-342.965 254.641,-345.774 255.015,-343.302 255.015,-343.302 255.015,-343.302 254.641,-345.774 257.24,-343.639 254.267,-348.246 254.267,-348.246"/>
</g>
<!-- 41 -->
<g id="s41" class="node"><title>41</title>
<g id="a_s41"><a xlink:href="./41.svg" xlink:title="41">
<ellipse fill="none" stroke="black" cx="249" cy="-243" rx="21.5" ry="11"/>
<text text-anchor="middle" x="249" y="-240.8" font-family="monospace" font-size="9.00">41</text>
</a>
</g>
</g>
<!-- 39&#45;&gt;41 -->
<g id="edge12" class="edge"><title>39&#45;&gt;41</title>
<path fill="none" stroke="black" d="M249,-289.988C249,-281.494 249,-269.17 249,-259.417"/>
<polygon fill="black" stroke="black" points="249,-254.304 251.25,-259.304 249,-256.804 249,-259.304 249,-259.304 249,-259.304 249,-256.804 246.75,-259.304 249,-254.304 249,-254.304"/>
</g>
<!-- 20&#45;&gt;30 -->
<g id="edge2" class="edge"><title>20&#45;&gt;30</title>
<path fill="none" stroke="black" d="M243.733,-522.246C242.079,-513.679 241.808,-501.076 242.922,-491.19"/>
<polygon fill="black" stroke="black" points="243.683,-486.02 245.181,-491.294 243.319,-488.493 242.955,-490.966 242.955,-490.966 242.955,-490.966 243.319,-488.493 240.729,-490.639 243.683,-486.02 243.683,-486.02"/>
</g>
<!-- 29 -->
<g id="s29" class="node"><title>29</title>
<g id="a_s29"><a xlink:href="./29.svg" xlink:title="29">
<ellipse fill="none" stroke="black" cx="249" cy="-11" rx="21.5" ry="11"/>
<text text-anchor="middle" x="249" y="-8.8" font-family="monospace" font-size="9.00">29</text>
</a>
</g>
</g>
<!-- 20&#45;&gt;29 -->
<g id="edge1" class="edge"><title>20&#45;&gt;29</title>
<path fill="none" stroke="black" d="M241.389,-522.67C234.433,-513.737 224.3,-499.639 218,-486 204.841,-457.513 199,-449.38 199,-418 199,-418 199,-418 199,-126 199,-94.6202 204.841,-86.4873 218,-58 223.414,-46.2794 231.659,-34.2194 238.285,-25.3897"/>
<polygon fill="black" stroke="black" points="241.389,-21.3303 240.14,-26.6691 239.87,-23.3164 238.352,-25.3025 238.352,-25.3025 238.352,-25.3025 239.87,-23.3164 236.565,-23.936 241.389,-21.3303 241.389,-21.3303"/>
</g>
<!-- 17&#45;&gt;26 -->
<g id="edge47" class="edge"><title>17&#45;&gt;26</title>
<path fill="none" stroke="black" d="M376.317,-312.02C377.943,-320.669 378.185,-333.284 377.043,-343.114"/>
<polygon fill="black" stroke="black" points="376.267,-348.246 374.79,-342.965 376.641,-345.774 377.015,-343.302 377.015,-343.302 377.015,-343.302 376.641,-345.774 379.24,-343.639 376.267,-348.246 376.267,-348.246"/>
</g>
<!-- 25 -->
<g id="s25" class="node"><title>25</title>
<g id="a_s25"><a xlink:href="./25.svg" xlink:title="25">
<ellipse fill="none" stroke="black" cx="310" cy="-11" rx="21.5" ry="11"/>
<text text-anchor="middle" x="310" y="-8.8" font-family="monospace" font-size="9.00">25</text>
</a>
</g>
</g>
<!-- 17&#45;&gt;25 -->
<g id="edge46" class="edge"><title>17&#45;&gt;25</title>
<path fill="none" stroke="black" d="M370.115,-289.945C368.446,-270.092 365,-224.449 365,-186 365,-186 365,-186 365,-126 365,-86.2001 337.47,-45.6545 321.365,-25.3399"/>
<polygon fill="black" stroke="black" points="318.115,-21.3196 323.008,-23.794 319.687,-23.2639 321.258,-25.2083 321.258,-25.2083 321.258,-25.2083 319.687,-23.2639 319.508,-26.6226 318.115,-21.3196 318.115,-21.3196"/>
</g>
<!-- 38 -->
<g id="s38" class="node"><title>38</title>
<g id="a_s38"><a xlink:href="./38.svg" xlink:title="38">
<ellipse fill="none" stroke="black" cx="310" cy="-359" rx="21.5" ry="11"/>
<text text-anchor="middle" x="310" y="-356.8" font-family="monospace" font-size="9.00">38</text>
</a>
</g>
</g>
<!-- 38&#45;&gt;39 -->
<g id="edge36" class="edge"><title>38&#45;&gt;39</title>
<path fill="none" stroke="black" d="M300.199,-349.003C290.121,-339.75 274.334,-325.257 262.954,-314.81"/>
<polygon fill="black" stroke="black" points="258.979,-311.161 264.184,-312.885 260.821,-312.852 262.662,-314.542 262.662,-314.542 262.662,-314.542 260.821,-312.852 261.141,-316.2 258.979,-311.161 258.979,-311.161"/>
</g>
<!-- 34 -->
<g id="s34" class="node"><title>34</title>
<g id="a_s34"><a xlink:href="./34.svg" xlink:title="34">
<ellipse fill="none" stroke="black" cx="310" cy="-417" rx="21.5" ry="11"/>
<text text-anchor="middle" x="310" y="-414.8" font-family="monospace" font-size="9.00">34</text>
</a>
</g>
</g>
<!-- 38&#45;&gt;34 -->
<g id="edge37" class="edge"><title>38&#45;&gt;34</title>
<path fill="none" stroke="black" d="M315.317,-370.02C316.943,-378.669 317.185,-391.284 316.043,-401.114"/>
<polygon fill="black" stroke="black" points="315.267,-406.246 313.79,-400.965 315.641,-403.774 316.015,-401.302 316.015,-401.302 316.015,-401.302 315.641,-403.774 318.24,-401.639 315.267,-406.246 315.267,-406.246"/>
</g>
<!-- 14&#45;&gt;20 -->
<g id="edge88" class="edge"><title>14&#45;&gt;20</title>
<path fill="none" stroke="black" d="M300.199,-581.003C290.121,-571.75 274.334,-557.257 262.954,-546.81"/>
<polygon fill="black" stroke="black" points="258.979,-543.161 264.184,-544.885 260.821,-544.852 262.662,-546.542 262.662,-546.542 262.662,-546.542 260.821,-544.852 261.141,-548.2 258.979,-543.161 258.979,-543.161"/>
</g>
<!-- 22 -->
<g id="s22" class="node"><title>22</title>
<g id="a_s22"><a xlink:href="./22.svg" xlink:title="22">
<ellipse fill="none" stroke="black" cx="310" cy="-533" rx="21.5" ry="11"/>
<text text-anchor="middle" x="310" y="-530.8" font-family="monospace" font-size="9.00">22</text>
</a>
</g>
</g>
<!-- 14&#45;&gt;22 -->
<g id="edge89" class="edge"><title>14&#45;&gt;22</title>
<path fill="none" stroke="black" d="M304.733,-580.246C303.079,-571.679 302.808,-559.076 303.922,-549.19"/>
<polygon fill="black" stroke="black" points="304.683,-544.02 306.181,-549.294 304.319,-546.493 303.955,-548.966 303.955,-548.966 303.955,-548.966 304.319,-546.493 301.729,-548.639 304.683,-544.02 304.683,-544.02"/>
</g>
<!-- 12&#45;&gt;17 -->
<g id="edge80" class="edge"><title>12&#45;&gt;17</title>
<path fill="none" stroke="black" d="M422.199,-349.003C412.121,-339.75 396.334,-325.257 384.954,-314.81"/>
<polygon fill="black" stroke="black" points="380.979,-311.161 386.184,-312.885 382.821,-312.852 384.662,-314.542 384.662,-314.542 384.662,-314.542 382.821,-312.852 383.141,-316.2 380.979,-311.161 380.979,-311.161"/>
</g>
<!-- 19 -->
<g id="s19" class="node"><title>19</title>
<g id="a_s19"><a xlink:href="./19.svg" xlink:title="19">
<ellipse fill="none" stroke="black" cx="371" cy="-417" rx="21.5" ry="11"/>
<text text-anchor="middle" x="371" y="-414.8" font-family="monospace" font-size="9.00">19</text>
</a>
</g>
</g>
<!-- 12&#45;&gt;19 -->
<g id="edge81" class="edge"><title>12&#45;&gt;19</title>
<path fill="none" stroke="black" d="M426.432,-369.987C417.581,-379.815 401.336,-394.785 388.524,-404.961"/>
<polygon fill="black" stroke="black" points="384.327,-408.213 386.901,-403.372 386.303,-406.682 388.279,-405.151 388.279,-405.151 388.279,-405.151 386.303,-406.682 389.657,-406.929 384.327,-408.213 384.327,-408.213"/>
</g>
<!-- 34&#45;&gt;36 -->
<g id="edge33" class="edge"><title>34&#45;&gt;36</title>
<path fill="none" stroke="black" d="M300.199,-407.003C290.121,-397.75 274.334,-383.257 262.954,-372.81"/>
<polygon fill="black" stroke="black" points="258.979,-369.161 264.184,-370.885 260.821,-370.852 262.662,-372.542 262.662,-372.542 262.662,-372.542 260.821,-370.852 261.141,-374.2 258.979,-369.161 258.979,-369.161"/>
</g>
<!-- 34&#45;&gt;38 -->
<g id="edge35" class="edge"><title>34&#45;&gt;38</title>
<path fill="none" stroke="black" d="M304.733,-406.246C303.079,-397.679 302.808,-385.076 303.922,-375.19"/>
<polygon fill="black" stroke="black" points="304.683,-370.02 306.181,-375.294 304.319,-372.493 303.955,-374.966 303.955,-374.966 303.955,-374.966 304.319,-372.493 301.729,-374.639 304.683,-370.02 304.683,-370.02"/>
</g>
<!-- 27 -->
<g id="s27" class="node"><title>27</title>
<g id="a_s27"><a xlink:href="./27.svg" xlink:title="27">
<ellipse fill="none" stroke="black" cx="310" cy="-475" rx="21.5" ry="11"/>
<text text-anchor="middle" x="310" y="-472.8" font-family="monospace" font-size="9.00">27</text>
</a>
</g>
</g>
<!-- 34&#45;&gt;27 -->
<g id="edge34" class="edge"><title>34&#45;&gt;27</title>
<path fill="none" stroke="black" d="M315.317,-428.02C316.943,-436.669 317.185,-449.284 316.043,-459.114"/>
<polygon fill="black" stroke="black" points="315.267,-464.246 313.79,-458.965 315.641,-461.774 316.015,-459.302 316.015,-459.302 316.015,-459.302 315.641,-461.774 318.24,-459.639 315.267,-464.246 315.267,-464.246"/>
</g>
<!-- 22&#45;&gt;30 -->
<g id="edge30" class="edge"><title>22&#45;&gt;30</title>
<path fill="none" stroke="black" d="M300.199,-523.003C290.121,-513.75 274.334,-499.257 262.954,-488.81"/>
<polygon fill="black" stroke="black" points="258.979,-485.161 264.184,-486.885 260.821,-486.852 262.662,-488.542 262.662,-488.542 262.662,-488.542 260.821,-486.852 261.141,-490.2 258.979,-485.161 258.979,-485.161"/>
</g>
<!-- 22&#45;&gt;14 -->
<g id="edge31" class="edge"><title>22&#45;&gt;14</title>
<path fill="none" stroke="black" d="M315.317,-544.02C316.943,-552.669 317.185,-565.284 316.043,-575.114"/>
<polygon fill="black" stroke="black" points="315.267,-580.246 313.79,-574.965 315.641,-577.774 316.015,-575.302 316.015,-575.302 316.015,-575.302 315.641,-577.774 318.24,-575.639 315.267,-580.246 315.267,-580.246"/>
</g>
<!-- 22&#45;&gt;27 -->
<g id="edge32" class="edge"><title>22&#45;&gt;27</title>
<path fill="none" stroke="black" d="M304.733,-522.246C303.079,-513.679 302.808,-501.076 303.922,-491.19"/>
<polygon fill="black" stroke="black" points="304.683,-486.02 306.181,-491.294 304.319,-488.493 303.955,-490.966 303.955,-490.966 303.955,-490.966 304.319,-488.493 301.729,-490.639 304.683,-486.02 304.683,-486.02"/>
</g>
<!-- 19&#45;&gt;26 -->
<g id="edge51" class="edge"><title>19&#45;&gt;26</title>
<path fill="none" stroke="black" d="M371,-405.988C371,-397.494 371,-385.17 371,-375.417"/>
<polygon fill="black" stroke="black" points="371,-370.304 373.25,-375.304 371,-372.804 371,-375.304 371,-375.304 371,-375.304 371,-372.804 368.75,-375.304 371,-370.304 371,-370.304"/>
</g>
<!-- 19&#45;&gt;12 -->
<g id="edge52" class="edge"><title>19&#45;&gt;12</title>
<path fill="none" stroke="black" d="M376.359,-406.246C385.139,-396.448 401.48,-381.371 414.378,-371.116"/>
<polygon fill="black" stroke="black" points="418.605,-367.838 416.033,-372.681 416.629,-369.37 414.654,-370.903 414.654,-370.903 414.654,-370.903 416.629,-369.37 413.275,-369.125 418.605,-367.838 418.605,-367.838"/>
</g>
<!-- 19&#45;&gt;27 -->
<g id="edge53" class="edge"><title>19&#45;&gt;27</title>
<path fill="none" stroke="black" d="M365.432,-427.987C356.581,-437.815 340.336,-452.785 327.524,-462.961"/>
<polygon fill="black" stroke="black" points="323.327,-466.213 325.901,-461.372 325.303,-464.682 327.279,-463.151 327.279,-463.151 327.279,-463.151 325.303,-464.682 328.657,-464.929 323.327,-466.213 323.327,-466.213"/>
</g>
<!-- 1&#45;&gt;9 -->
<g id="edge74" class="edge"><title>1&#45;&gt;9</title>
<path fill="none" stroke="black" d="M182.733,-696.246C181.079,-687.679 180.808,-675.076 181.922,-665.19"/>
<polygon fill="black" stroke="black" points="182.683,-660.02 184.181,-665.294 182.319,-662.493 181.955,-664.966 181.955,-664.966 181.955,-664.966 182.319,-662.493 179.729,-664.639 182.683,-660.02 182.683,-660.02"/>
</g>
<!-- 1&#45;&gt;7 -->
<g id="edge75" class="edge"><title>1&#45;&gt;7</title>
<path fill="none" stroke="black" d="M193.359,-696.246C202.139,-686.448 218.48,-671.371 231.378,-661.116"/>
<polygon fill="black" stroke="black" points="235.605,-657.838 233.033,-662.681 233.629,-659.37 231.654,-660.903 231.654,-660.903 231.654,-660.903 233.629,-659.37 230.275,-659.125 235.605,-657.838 235.605,-657.838"/>
</g>
<!-- 1&#45;&gt;5 -->
<g id="edge76" class="edge"><title>1&#45;&gt;5</title>
<path fill="none" stroke="black" d="M174.673,-698.213C162.879,-689.327 146.509,-674.624 136.11,-663.787"/>
<polygon fill="black" stroke="black" points="132.568,-659.987 137.623,-662.111 134.273,-661.816 135.977,-663.645 135.977,-663.645 135.977,-663.645 134.273,-661.816 134.331,-665.179 132.568,-659.987 132.568,-659.987"/>
</g>
<!-- 41&#45;&gt;40 -->
<g id="edge20" class="edge"><title>41&#45;&gt;40</title>
<path fill="none" stroke="black" d="M243.733,-232.246C242.079,-223.679 241.808,-211.076 242.922,-201.19"/>
<polygon fill="black" stroke="black" points="243.683,-196.02 245.181,-201.294 243.319,-198.493 242.955,-200.966 242.955,-200.966 242.955,-200.966 243.319,-198.493 240.729,-200.639 243.683,-196.02 243.683,-196.02"/>
</g>
<!-- 29&#45;&gt;35 -->
<g id="edge6" class="edge"><title>29&#45;&gt;35</title>
<path fill="none" stroke="black" d="M254.317,-22.0198C255.943,-30.6686 256.185,-43.2841 255.043,-53.114"/>
<polygon fill="black" stroke="black" points="254.267,-58.2455 252.79,-52.9651 254.641,-55.7737 255.015,-53.3018 255.015,-53.3018 255.015,-53.3018 254.641,-55.7737 257.24,-53.6386 254.267,-58.2455 254.267,-58.2455"/>
</g>
<!-- 25&#45;&gt;33 -->
<g id="edge95" class="edge"><title>25&#45;&gt;33</title>
<path fill="none" stroke="black" d="M315.317,-22.0198C316.943,-30.6686 317.185,-43.2841 316.043,-53.114"/>
<polygon fill="black" stroke="black" points="315.267,-58.2455 313.79,-52.9651 315.641,-55.7737 316.015,-53.3018 316.015,-53.3018 316.015,-53.3018 315.641,-55.7737 318.24,-53.6386 315.267,-58.2455 315.267,-58.2455"/>
</g>
<!-- 32&#45;&gt;36 -->
<g id="edge50" class="edge"><title>32&#45;&gt;36</title>
<path fill="none" stroke="black" d="M243.733,-406.246C242.079,-397.679 241.808,-385.076 242.922,-375.19"/>
<polygon fill="black" stroke="black" points="243.683,-370.02 245.181,-375.294 243.319,-372.493 242.955,-374.966 242.955,-374.966 242.955,-374.966 243.319,-372.493 240.729,-374.639 243.683,-370.02 243.683,-370.02"/>
</g>
<!-- 32&#45;&gt;30 -->
<g id="edge49" class="edge"><title>32&#45;&gt;30</title>
<path fill="none" stroke="black" d="M254.317,-428.02C255.943,-436.669 256.185,-449.284 255.043,-459.114"/>
<polygon fill="black" stroke="black" points="254.267,-464.246 252.79,-458.965 254.641,-461.774 255.015,-459.302 255.015,-459.302 255.015,-459.302 254.641,-461.774 257.24,-459.639 254.267,-464.246 254.267,-464.246"/>
</g>
<!-- 32&#45;&gt;26 -->
<g id="edge48" class="edge"><title>32&#45;&gt;26</title>
<path fill="none" stroke="black" d="M261.579,-407.977C282.444,-397.259 323.561,-378.394 349.173,-367.794"/>
<polygon fill="black" stroke="black" points="354.078,-365.789 350.301,-369.764 351.764,-366.735 349.449,-367.681 349.449,-367.681 349.449,-367.681 351.764,-366.735 348.598,-365.599 354.078,-365.789 354.078,-365.789"/>
</g>
<!-- 9&#45;&gt;15 -->
<g id="edge57" class="edge"><title>9&#45;&gt;15</title>
<path fill="none" stroke="black" d="M182.733,-638.246C181.079,-629.679 180.808,-617.076 181.922,-607.19"/>
<polygon fill="black" stroke="black" points="182.683,-602.02 184.181,-607.294 182.319,-604.493 181.955,-606.966 181.955,-606.966 181.955,-606.966 182.319,-604.493 179.729,-606.639 182.683,-602.02 182.683,-602.02"/>
</g>
<!-- 9&#45;&gt;1 -->
<g id="edge58" class="edge"><title>9&#45;&gt;1</title>
<path fill="none" stroke="black" d="M193.317,-660.02C194.943,-668.669 195.185,-681.284 194.043,-691.114"/>
<polygon fill="black" stroke="black" points="193.267,-696.246 191.79,-690.965 193.641,-693.774 194.015,-691.302 194.015,-691.302 194.015,-691.302 193.641,-693.774 196.24,-691.639 193.267,-696.246 193.267,-696.246"/>
</g>
<!-- 7&#45;&gt;13 -->
<g id="edge9" class="edge"><title>7&#45;&gt;13</title>
<path fill="none" stroke="black" d="M243.733,-638.246C242.079,-629.679 241.808,-617.076 242.922,-607.19"/>
<polygon fill="black" stroke="black" points="243.683,-602.02 245.181,-607.294 243.319,-604.493 242.955,-606.966 242.955,-606.966 242.955,-606.966 243.319,-604.493 240.729,-606.639 243.683,-602.02 243.683,-602.02"/>
</g>
<!-- 7&#45;&gt;1 -->
<g id="edge10" class="edge"><title>7&#45;&gt;1</title>
<path fill="none" stroke="black" d="M243.432,-659.987C234.581,-669.815 218.336,-684.785 205.524,-694.961"/>
<polygon fill="black" stroke="black" points="201.327,-698.213 203.901,-693.372 203.303,-696.682 205.279,-695.151 205.279,-695.151 205.279,-695.151 203.303,-696.682 206.657,-696.929 201.327,-698.213 201.327,-698.213"/>
</g>
<!-- 5&#45;&gt;11 -->
<g id="edge26" class="edge"><title>5&#45;&gt;11</title>
<path fill="none" stroke="black" d="M116.904,-639.003C110.342,-630.394 102.749,-617.248 98.2668,-607.045"/>
<polygon fill="black" stroke="black" points="96.3346,-602.306 100.306,-606.087 97.2785,-604.621 98.2223,-606.936 98.2223,-606.936 98.2223,-606.936 97.2785,-604.621 96.1388,-607.785 96.3346,-602.306 96.3346,-602.306"/>
</g>
<!-- 5&#45;&gt;1 -->
<g id="edge27" class="edge"><title>5&#45;&gt;1</title>
<path fill="none" stroke="black" d="M140.395,-657.838C152.271,-666.795 168.751,-681.613 179.118,-692.451"/>
<polygon fill="black" stroke="black" points="182.641,-696.246 177.591,-694.112 180.94,-694.413 179.239,-692.581 179.239,-692.581 179.239,-692.581 180.94,-694.413 180.888,-691.05 182.641,-696.246 182.641,-696.246"/>
</g>
<!-- 40&#45;&gt;37 -->
<g id="edge45" class="edge"><title>40&#45;&gt;37</title>
<path fill="none" stroke="black" d="M243.733,-174.246C242.079,-165.679 241.808,-153.076 242.922,-143.19"/>
<polygon fill="black" stroke="black" points="243.683,-138.02 245.181,-143.294 243.319,-140.493 242.955,-142.966 242.955,-142.966 242.955,-142.966 243.319,-140.493 240.729,-142.639 243.683,-138.02 243.683,-138.02"/>
</g>
<!-- 40&#45;&gt;41 -->
<g id="edge44" class="edge"><title>40&#45;&gt;41</title>
<path fill="none" stroke="black" d="M254.317,-196.02C255.943,-204.669 256.185,-217.284 255.043,-227.114"/>
<polygon fill="black" stroke="black" points="254.267,-232.246 252.79,-226.965 254.641,-229.774 255.015,-227.302 255.015,-227.302 255.015,-227.302 254.641,-229.774 257.24,-227.639 254.267,-232.246 254.267,-232.246"/>
</g>
<!-- 35&#45;&gt;37 -->
<g id="edge8" class="edge"><title>35&#45;&gt;37</title>
<path fill="none" stroke="black" d="M254.317,-80.0198C255.943,-88.6686 256.185,-101.284 255.043,-111.114"/>
<polygon fill="black" stroke="black" points="254.267,-116.246 252.79,-110.965 254.641,-113.774 255.015,-111.302 255.015,-111.302 255.015,-111.302 254.641,-113.774 257.24,-111.639 254.267,-116.246 254.267,-116.246"/>
</g>
<!-- 35&#45;&gt;29 -->
<g id="edge7" class="edge"><title>35&#45;&gt;29</title>
<path fill="none" stroke="black" d="M243.733,-58.2455C242.079,-49.6789 241.808,-37.0763 242.922,-27.1899"/>
<polygon fill="black" stroke="black" points="243.683,-22.0198 245.181,-27.2941 243.319,-24.4931 242.955,-26.9665 242.955,-26.9665 242.955,-26.9665 243.319,-24.4931 240.729,-26.6389 243.683,-22.0198 243.683,-22.0198"/>
</g>
<!-- 33&#45;&gt;37 -->
<g id="edge25" class="edge"><title>33&#45;&gt;37</title>
<path fill="none" stroke="black" d="M304.432,-79.9875C295.581,-89.8146 279.336,-104.785 266.524,-114.961"/>
<polygon fill="black" stroke="black" points="262.327,-118.213 264.901,-113.372 264.303,-116.682 266.279,-115.151 266.279,-115.151 266.279,-115.151 264.303,-116.682 267.657,-116.929 262.327,-118.213 262.327,-118.213"/>
</g>
<!-- 33&#45;&gt;25 -->
<g id="edge24" class="edge"><title>33&#45;&gt;25</title>
<path fill="none" stroke="black" d="M304.733,-58.2455C303.079,-49.6789 302.808,-37.0763 303.922,-27.1899"/>
<polygon fill="black" stroke="black" points="304.683,-22.0198 306.181,-27.2941 304.319,-24.4931 303.955,-26.9665 303.955,-26.9665 303.955,-26.9665 304.319,-24.4931 301.729,-26.6389 304.683,-22.0198 304.683,-22.0198"/>
</g>
<!-- 27&#45;&gt;34 -->
<g id="edge41" class="edge"><title>27&#45;&gt;34</title>
<path fill="none" stroke="black" d="M304.733,-464.246C303.079,-455.679 302.808,-443.076 303.922,-433.19"/>
<polygon fill="black" stroke="black" points="304.683,-428.02 306.181,-433.294 304.319,-430.493 303.955,-432.966 303.955,-432.966 303.955,-432.966 304.319,-430.493 301.729,-432.639 304.683,-428.02 304.683,-428.02"/>
</g>
<!-- 27&#45;&gt;22 -->
<g id="edge40" class="edge"><title>27&#45;&gt;22</title>
<path fill="none" stroke="black" d="M315.317,-486.02C316.943,-494.669 317.185,-507.284 316.043,-517.114"/>
<polygon fill="black" stroke="black" points="315.267,-522.246 313.79,-516.965 315.641,-519.774 316.015,-517.302 316.015,-517.302 316.015,-517.302 315.641,-519.774 318.24,-517.639 315.267,-522.246 315.267,-522.246"/>
</g>
<!-- 27&#45;&gt;19 -->
<g id="edge39" class="edge"><title>27&#45;&gt;19</title>
<path fill="none" stroke="black" d="M315.359,-464.246C324.139,-454.448 340.48,-439.371 353.378,-429.116"/>
<polygon fill="black" stroke="black" points="357.605,-425.838 355.033,-430.681 355.629,-427.37 353.654,-428.903 353.654,-428.903 353.654,-428.903 355.629,-427.37 352.275,-427.125 357.605,-425.838 357.605,-425.838"/>
</g>
<!-- 27&#45;&gt;32 -->
<g id="edge38" class="edge"><title>27&#45;&gt;32</title>
<path fill="none" stroke="black" d="M300.199,-465.003C290.121,-455.75 274.334,-441.257 262.954,-430.81"/>
<polygon fill="black" stroke="black" points="258.979,-427.161 264.184,-428.885 260.821,-428.852 262.662,-430.542 262.662,-430.542 262.662,-430.542 260.821,-428.852 261.141,-432.2 258.979,-427.161 258.979,-427.161"/>
</g>
<!-- 2&#45;&gt;0 -->
<g id="edge3" class="edge"><title>2&#45;&gt;0</title>
<path fill="none" stroke="black" d="M254.317,-718.02C255.943,-726.669 256.185,-739.284 255.043,-749.114"/>
<polygon fill="black" stroke="black" points="254.267,-754.246 252.79,-748.965 254.641,-751.774 255.015,-749.302 255.015,-749.302 255.015,-749.302 254.641,-751.774 257.24,-749.639 254.267,-754.246 254.267,-754.246"/>
</g>
<!-- 2&#45;&gt;10 -->
<g id="edge5" class="edge"><title>2&#45;&gt;10</title>
<path fill="none" stroke="black" d="M254.359,-696.246C263.139,-686.448 279.48,-671.371 292.378,-661.116"/>
<polygon fill="black" stroke="black" points="296.605,-657.838 294.033,-662.681 294.629,-659.37 292.654,-660.903 292.654,-660.903 292.654,-660.903 294.629,-659.37 291.275,-659.125 296.605,-657.838 296.605,-657.838"/>
</g>
<!-- 2&#45;&gt;9 -->
<g id="edge4" class="edge"><title>2&#45;&gt;9</title>
<path fill="none" stroke="black" d="M239.199,-697.003C229.121,-687.75 213.334,-673.257 201.954,-662.81"/>
<polygon fill="black" stroke="black" points="197.979,-659.161 203.184,-660.885 199.821,-660.852 201.662,-662.542 201.662,-662.542 201.662,-662.542 199.821,-660.852 200.141,-664.2 197.979,-659.161 197.979,-659.161"/>
</g>
<!-- 3&#45;&gt;0 -->
<g id="edge69" class="edge"><title>3&#45;&gt;0</title>
<path fill="none" stroke="black" d="M304.432,-717.987C295.581,-727.815 279.336,-742.785 266.524,-752.961"/>
<polygon fill="black" stroke="black" points="262.327,-756.213 264.901,-751.372 264.303,-754.682 266.279,-753.151 266.279,-753.151 266.279,-753.151 264.303,-754.682 267.657,-754.929 262.327,-756.213 262.327,-756.213"/>
</g>
<!-- 3&#45;&gt;8 -->
<g id="edge71" class="edge"><title>3&#45;&gt;8</title>
<path fill="none" stroke="black" d="M315.359,-696.246C324.139,-686.448 340.48,-671.371 353.378,-661.116"/>
<polygon fill="black" stroke="black" points="357.605,-657.838 355.033,-662.681 355.629,-659.37 353.654,-660.903 353.654,-660.903 353.654,-660.903 355.629,-659.37 352.275,-659.125 357.605,-657.838 357.605,-657.838"/>
</g>
<!-- 3&#45;&gt;7 -->
<g id="edge70" class="edge"><title>3&#45;&gt;7</title>
<path fill="none" stroke="black" d="M300.199,-697.003C290.121,-687.75 274.334,-673.257 262.954,-662.81"/>
<polygon fill="black" stroke="black" points="258.979,-659.161 264.184,-660.885 260.821,-660.852 262.662,-662.542 262.662,-662.542 262.662,-662.542 260.821,-660.852 261.141,-664.2 258.979,-659.161 258.979,-659.161"/>
</g>
<!-- 4&#45;&gt;0 -->
<g id="edge92" class="edge"><title>4&#45;&gt;0</title>
<path fill="none" stroke="black" d="M143.922,-713.789C167.211,-723.175 208.239,-741.842 231.695,-753.582"/>
<polygon fill="black" stroke="black" points="236.421,-755.977 230.944,-755.724 234.191,-754.847 231.961,-753.717 231.961,-753.717 231.961,-753.717 234.191,-754.847 232.978,-751.71 236.421,-755.977 236.421,-755.977"/>
</g>
<!-- 4&#45;&gt;6 -->
<g id="edge94" class="edge"><title>4&#45;&gt;6</title>
<path fill="none" stroke="black" d="M113.673,-698.213C101.879,-689.327 85.5094,-674.624 75.1097,-663.787"/>
<polygon fill="black" stroke="black" points="71.5679,-659.987 76.623,-662.111 73.2725,-661.816 74.9771,-663.645 74.9771,-663.645 74.9771,-663.645 73.2725,-661.816 73.3312,-665.179 71.5679,-659.987 71.5679,-659.987"/>
</g>
<!-- 4&#45;&gt;5 -->
<g id="edge93" class="edge"><title>4&#45;&gt;5</title>
<path fill="none" stroke="black" d="M127,-695.988C127,-687.494 127,-675.17 127,-665.417"/>
<polygon fill="black" stroke="black" points="127,-660.304 129.25,-665.304 127,-662.804 127,-665.304 127,-665.304 127,-665.304 127,-662.804 124.75,-665.304 127,-660.304 127,-660.304"/>
</g>
<!-- 31&#45;&gt;28 -->
<g id="edge84" class="edge"><title>31&#45;&gt;28</title>
<path fill="none" stroke="black" d="M116.317,-428.02C117.943,-436.669 118.185,-449.284 117.043,-459.114"/>
<polygon fill="black" stroke="black" points="116.267,-464.246 114.79,-458.965 116.641,-461.774 117.015,-459.302 117.015,-459.302 117.015,-459.302 116.641,-461.774 119.24,-459.639 116.267,-464.246 116.267,-464.246"/>
</g>
<!-- 31&#45;&gt;24 -->
<g id="edge82" class="edge"><title>31&#45;&gt;24</title>
<path fill="none" stroke="black" d="M105.733,-406.246C104.079,-397.679 103.808,-385.076 104.922,-375.19"/>
<polygon fill="black" stroke="black" points="105.683,-370.02 107.181,-375.294 105.319,-372.493 104.955,-374.966 104.955,-374.966 104.955,-374.966 105.319,-372.493 102.729,-374.639 105.683,-370.02 105.683,-370.02"/>
</g>
<!-- 31&#45;&gt;23 -->
<g id="edge83" class="edge"><title>31&#45;&gt;23</title>
<path fill="none" stroke="black" d="M97.6732,-408.213C85.8794,-399.327 69.5094,-384.624 59.1097,-373.787"/>
<polygon fill="black" stroke="black" points="55.5679,-369.987 60.623,-372.111 57.2725,-371.816 58.9771,-373.645 58.9771,-373.645 58.9771,-373.645 57.2725,-371.816 57.3312,-375.179 55.5679,-369.987 55.5679,-369.987"/>
</g>
<!-- 21&#45;&gt;28 -->
<g id="edge65" class="edge"><title>21&#45;&gt;28</title>
<path fill="none" stroke="black" d="M105.733,-522.246C104.079,-513.679 103.808,-501.076 104.922,-491.19"/>
<polygon fill="black" stroke="black" points="105.683,-486.02 107.181,-491.294 105.319,-488.493 104.955,-490.966 104.955,-490.966 104.955,-490.966 105.319,-488.493 102.729,-490.639 105.683,-486.02 105.683,-486.02"/>
</g>
<!-- 18&#45;&gt;24 -->
<g id="edge96" class="edge"><title>18&#45;&gt;24</title>
<path fill="none" stroke="black" d="M116.317,-312.02C117.943,-320.669 118.185,-333.284 117.043,-343.114"/>
<polygon fill="black" stroke="black" points="116.267,-348.246 114.79,-342.965 116.641,-345.774 117.015,-343.302 117.015,-343.302 117.015,-343.302 116.641,-345.774 119.24,-343.639 116.267,-348.246 116.267,-348.246"/>
</g>
<!-- 16&#45;&gt;23 -->
<g id="edge68" class="edge"><title>16&#45;&gt;23</title>
<path fill="none" stroke="black" d="M55.3174,-312.02C56.9432,-320.669 57.1852,-333.284 56.0435,-343.114"/>
<polygon fill="black" stroke="black" points="55.2668,-348.246 53.7905,-342.965 55.641,-345.774 56.0151,-343.302 56.0151,-343.302 56.0151,-343.302 55.641,-345.774 58.2398,-343.639 55.2668,-348.246 55.2668,-348.246"/>
</g>
</g>
</svg>
