<?xml version="1.0" encoding="UTF-8" standalone="no"?>
<?xml-stylesheet href="style.css" type="text/css"?>
<!DOCTYPE svg PUBLIC "-//W3C//DTD SVG 1.1//EN"
 "http://www.w3.org/Graphics/SVG/1.1/DTD/svg11.dtd">
<!-- Generated by graphviz version 2.38.0 (20140413.2041)
 -->
<!-- Title: 19.svg Pages: 1 -->
<svg width="824pt" height="374pt"
 viewBox="0.00 0.00 823.50 374.00" xmlns="http://www.w3.org/2000/svg" xmlns:xlink="http://www.w3.org/1999/xlink">
<g id="graph0" class="graph" transform="scale(1 1) rotate(0) translate(4 370)">
<title>19.svg</title>
<polygon fill="white" stroke="none" points="-4,4 -4,-370 819.5,-370 819.5,4 -4,4"/>
<!-- r0 -->
<g id="node1" class="node"><title>r0</title>
<polygon fill="none" stroke="black" stroke-dasharray="5,2" points="494,-366 471,-366 471,-348 494,-348 494,-366"/>
<text text-anchor="middle" x="482.5" y="-354.8" font-family="serif" font-size="9.00">0</text>
</g>
<!-- v0 -->
<g id="v0_Building" class="node"><title>v0</title>
<ellipse fill="none" stroke="black" cx="482.5" cy="-301" rx="36" ry="11"/>
<text text-anchor="middle" x="482.5" y="-298.8" font-family="sans-serif" font-size="9.00">Building</text>
</g>
<!-- r0&#45;&gt;v0 -->
<g id="edge1" class="edge"><title>r0&#45;&gt;v0</title>
<path fill="none" stroke="black" d="M482.5,-347.562C482.5,-339.453 482.5,-327.014 482.5,-317.181"/>
<polygon fill="black" stroke="black" points="482.5,-312.03 484.75,-317.03 482.5,-314.53 482.5,-317.03 482.5,-317.03 482.5,-317.03 482.5,-314.53 480.25,-317.03 482.5,-312.03 482.5,-312.03"/>
</g>
<!-- e1 -->
<g id="node2" class="node"><title>e1</title>
</g>
<!-- v4 -->
<g id="v4_Laptop" class="node"><title>v4</title>
<ellipse fill="none" stroke="black" cx="464.5" cy="-69" rx="29" ry="11"/>
<text text-anchor="middle" x="464.5" y="-66.8" font-family="sans-serif" font-size="9.00">Laptop</text>
</g>
<!-- e1&#45;&gt;v4 -->
<g id="edge19" class="edge"><title>e1&#45;&gt;v4</title>
<path fill="none" stroke="green" d="M464.5,-122.167C464.5,-113.586 464.5,-92.5957 464.5,-80.0117"/>
<polygon fill="green" stroke="green" points="468,-125.3 461,-125.3 461,-123.9 468,-123.9 468,-125.3"/>
<polyline fill="none" stroke="green" points="464.5,-126 464.5,-122.5 "/>
</g>
<!-- v1 -->
<g id="v1_Floor" class="node"><title>v1</title>
<ellipse fill="none" stroke="black" cx="320.5" cy="-243" rx="25" ry="11"/>
<text text-anchor="middle" x="320.5" y="-240.8" font-family="sans-serif" font-size="9.00">Floor</text>
</g>
<!-- v0&#45;&gt;v1 -->
<g id="edge2" class="edge"><title>v0&#45;&gt;v1</title>
<path fill="none" stroke="black" d="M460.314,-292.331C429.88,-281.81 375.411,-262.982 344.201,-252.193"/>
<polygon fill="black" stroke="black" points="339.399,-250.533 344.86,-250.04 341.762,-251.35 344.125,-252.167 344.125,-252.167 344.125,-252.167 341.762,-251.35 343.39,-254.293 339.399,-250.533 339.399,-250.533"/>
</g>
<!-- v6 -->
<g id="v6_InstallationBus" class="node"><title>v6</title>
<ellipse fill="none" stroke="black" cx="754.5" cy="-69" rx="61" ry="11"/>
<text text-anchor="middle" x="754.5" y="-66.8" font-family="sans-serif" font-size="9.00">InstallationBus</text>
</g>
<!-- v0&#45;&gt;v6 -->
<g id="edge3" class="edge"><title>v0&#45;&gt;v6</title>
<path fill="none" stroke="black" d="M493.841,-290.41C536.773,-254.108 689.389,-125.057 738.882,-83.2068"/>
<polygon fill="black" stroke="black" points="742.806,-79.888 740.441,-84.8346 740.897,-81.5022 738.988,-83.1165 738.988,-83.1165 738.988,-83.1165 740.897,-81.5022 737.536,-81.3984 742.806,-79.888 742.806,-79.888"/>
</g>
<!-- v2 -->
<g id="v2_Room" class="node"><title>v2</title>
<ellipse fill="none" stroke="black" cx="545.5" cy="-185" rx="21.5" ry="11"/>
<text text-anchor="middle" x="545.5" y="-182.8" font-family="sans-serif" font-size="9.00">Room</text>
</g>
<!-- v1&#45;&gt;v2 -->
<g id="edge4" class="edge"><title>v1&#45;&gt;v2</title>
<path fill="none" stroke="black" d="M341.264,-236.832C383.165,-226.403 477.601,-202.899 521.821,-191.894"/>
<polygon fill="black" stroke="black" points="526.704,-190.678 522.395,-194.069 524.278,-191.282 521.852,-191.886 521.852,-191.886 521.852,-191.886 524.278,-191.282 521.308,-189.702 526.704,-190.678 526.704,-190.678"/>
</g>
<!-- v10 -->
<g id="v10_Hallway" class="node"><title>v10</title>
<ellipse fill="none" stroke="black" cx="32.5" cy="-11" rx="32.5" ry="11"/>
<text text-anchor="middle" x="32.5" y="-8.8" font-family="sans-serif" font-size="9.00">Hallway</text>
</g>
<!-- v1&#45;&gt;v10 -->
<g id="edge5" class="edge"><title>v1&#45;&gt;v10</title>
<path fill="none" stroke="black" d="M309.21,-232.984C264.601,-197.358 100.523,-66.3236 48.4617,-24.7472"/>
<polygon fill="black" stroke="black" points="44.3417,-21.4569 49.6528,-22.819 46.2952,-23.017 48.2487,-24.5771 48.2487,-24.5771 48.2487,-24.5771 46.2952,-23.017 46.8446,-26.3353 44.3417,-21.4569 44.3417,-21.4569"/>
</g>
<!-- v11 -->
<g id="v11_Room" class="node"><title>v11</title>
<ellipse fill="none" stroke="black" cx="215.5" cy="-69" rx="21.5" ry="11"/>
<text text-anchor="middle" x="215.5" y="-66.8" font-family="sans-serif" font-size="9.00">Room</text>
</g>
<!-- v1&#45;&gt;v11 -->
<g id="edge6" class="edge"><title>v1&#45;&gt;v11</title>
<path fill="none" stroke="black" d="M314.554,-232.26C296.939,-203.405 244.968,-118.271 224.209,-84.2667"/>
<polygon fill="black" stroke="black" points="221.381,-79.6335 225.907,-82.7287 222.684,-81.7673 223.986,-83.9011 223.986,-83.9011 223.986,-83.9011 222.684,-81.7673 222.066,-85.0735 221.381,-79.6335 221.381,-79.6335"/>
</g>
<!-- v13 -->
<g id="v13_Room" class="node"><title>v13</title>
<ellipse fill="none" stroke="black" cx="320.5" cy="-69" rx="21.5" ry="11"/>
<text text-anchor="middle" x="320.5" y="-66.8" font-family="sans-serif" font-size="9.00">Room</text>
</g>
<!-- v1&#45;&gt;v13 -->
<g id="edge7" class="edge"><title>v1&#45;&gt;v13</title>
<path fill="none" stroke="black" d="M320.5,-231.756C320.5,-202.786 320.5,-120.136 320.5,-85.5335"/>
<polygon fill="black" stroke="black" points="320.5,-80.4081 322.75,-85.408 320.5,-82.9081 320.5,-85.4081 320.5,-85.4081 320.5,-85.4081 320.5,-82.9081 318.25,-85.4081 320.5,-80.4081 320.5,-80.4081"/>
</g>
<!-- v3 -->
<g id="v3_Visitor" class="node"><title>v3</title>
<ellipse fill="none" stroke="black" cx="515.5" cy="-127" rx="32.5" ry="11"/>
<text text-anchor="middle" x="515.5" y="-124.8" font-family="sans-serif" font-size="9.00">Visitor</text>
</g>
<!-- v2&#45;&gt;v3 -->
<g id="edge8" class="edge"><title>v2&#45;&gt;v3</title>
<path fill="none" stroke="black" d="M540.274,-174.246C535.6,-165.52 528.683,-152.608 523.345,-142.643"/>
<polygon fill="black" stroke="black" points="520.868,-138.02 525.212,-141.365 522.048,-140.223 523.229,-142.427 523.229,-142.427 523.229,-142.427 522.048,-140.223 521.246,-143.49 520.868,-138.02 520.868,-138.02"/>
</g>
<!-- v5 -->
<g id="v5_SmartLight" class="node"><title>v5</title>
<ellipse fill="none" stroke="black" cx="568.5" cy="-11" rx="43" ry="11"/>
<text text-anchor="middle" x="568.5" y="-8.8" font-family="sans-serif" font-size="9.00">SmartLight</text>
</g>
<!-- v2&#45;&gt;v5 -->
<g id="edge9" class="edge"><title>v2&#45;&gt;v5</title>
<path fill="none" stroke="black" d="M548.359,-173.852C550.866,-164.587 554.425,-150.474 556.5,-138 563.076,-98.4673 566.373,-51.3123 567.725,-27.4599"/>
<polygon fill="black" stroke="black" points="568.014,-22.1885 569.987,-27.304 567.877,-24.6847 567.74,-27.181 567.74,-27.181 567.74,-27.181 567.877,-24.6847 565.494,-27.058 568.014,-22.1885 568.014,-22.1885"/>
</g>
<!-- v9 -->
<g id="v9_Workstation" class="node"><title>v9</title>
<ellipse fill="none" stroke="black" cx="676.5" cy="-11" rx="47" ry="11"/>
<text text-anchor="middle" x="676.5" y="-8.8" font-family="sans-serif" font-size="9.00">Workstation</text>
</g>
<!-- v2&#45;&gt;v9 -->
<g id="edge10" class="edge"><title>v2&#45;&gt;v9</title>
<path fill="none" stroke="black" d="M552.73,-174.508C574.495,-145.93 639.503,-60.5757 665.54,-26.3907"/>
<polygon fill="black" stroke="black" points="668.803,-22.1054 667.564,-27.4464 667.289,-24.0942 665.774,-26.0831 665.774,-26.0831 665.774,-26.0831 667.289,-24.0942 663.984,-24.7198 668.803,-22.1054 668.803,-22.1054"/>
</g>
<!-- v2&#45;&gt;v10 -->
<g id="edge18" class="edge"><title>v2&#45;&gt;v10</title>
<path fill="none" stroke="green" d="M529.886,-177.195C511.366,-168.88 479.818,-153.939 454.5,-138 405.15,-106.932 404.376,-80.3164 350.5,-58 236.211,-10.6599 196.169,-44.3566 74.5,-22 68.8972,-20.9705 62.9194,-19.6709 57.2831,-18.3523"/>
</g>
<!-- v3&#45;&gt;v4 -->
<g id="edge11" class="edge"><title>v3&#45;&gt;v4</title>
<path fill="none" stroke="black" d="M506.616,-116.246C498.353,-107.172 485.965,-93.5697 476.762,-83.4636"/>
<polygon fill="black" stroke="black" points="473.282,-79.6427 478.312,-81.8244 474.965,-81.491 476.648,-83.3394 476.648,-83.3394 476.648,-83.3394 474.965,-81.491 474.985,-84.8544 473.282,-79.6427 473.282,-79.6427"/>
</g>
<!-- v8 -->
<g id="v8_Data" class="node"><title>v8</title>
<ellipse fill="none" stroke="black" cx="485.5" cy="-11" rx="21.5" ry="11"/>
<text text-anchor="middle" x="485.5" y="-8.8" font-family="sans-serif" font-size="9.00">Data</text>
</g>
<!-- v4&#45;&gt;v8 -->
<g id="edge12" class="edge"><title>v4&#45;&gt;v8</title>
<path fill="none" stroke="black" d="M468.254,-57.9883C471.509,-49.3083 476.264,-36.6286 479.957,-26.7806"/>
<polygon fill="black" stroke="black" points="481.778,-21.925 482.129,-27.3967 480.9,-24.2658 480.022,-26.6067 480.022,-26.6067 480.022,-26.6067 480.9,-24.2658 477.916,-25.8166 481.778,-21.925 481.778,-21.925"/>
</g>
<!-- v5&#45;&gt;v6 -->
<g id="edge20" class="edge"><title>v5&#45;&gt;v6</title>
<path fill="none" stroke="green" d="M594.656,-19.8751C629.127,-30.2532 689.575,-48.4526 725.438,-59.25"/>
</g>
<!-- v7 -->
<g id="v7_Data" class="node"><title>v7</title>
<ellipse fill="none" stroke="black" cx="763.5" cy="-11" rx="21.5" ry="11"/>
<text text-anchor="middle" x="763.5" y="-8.8" font-family="sans-serif" font-size="9.00">Data</text>
</g>
<!-- v6&#45;&gt;v7 -->
<g id="edge13" class="edge"><title>v6&#45;&gt;v7</title>
<path fill="none" stroke="black" d="M756.109,-57.9883C757.474,-49.4941 759.455,-37.1697 761.022,-27.4169"/>
<polygon fill="black" stroke="black" points="761.844,-22.3039 763.272,-27.5976 761.447,-24.7722 761.051,-27.2405 761.051,-27.2405 761.051,-27.2405 761.447,-24.7722 758.829,-26.8835 761.844,-22.3039 761.844,-22.3039"/>
</g>
<!-- v6&#45;&gt;v9 -->
<g id="edge21" class="edge"><title>v6&#45;&gt;v9</title>
<path fill="none" stroke="green" d="M740.913,-58.2455C726.597,-47.9671 704.188,-31.8787 689.931,-21.6427"/>
</g>
<!-- v12 -->
<g id="v12_SmartLight" class="node"><title>v12</title>
<ellipse fill="none" stroke="black" cx="126.5" cy="-11" rx="43" ry="11"/>
<text text-anchor="middle" x="126.5" y="-8.8" font-family="sans-serif" font-size="9.00">SmartLight</text>
</g>
<!-- v6&#45;&gt;v12 -->
<g id="edge22" class="edge"><title>v6&#45;&gt;v12</title>
<path fill="none" stroke="green" d="M696.637,-65.4938C592.58,-60.5168 367.126,-47.5897 178.5,-22 171.759,-21.0855 164.57,-19.8641 157.755,-18.5896"/>
</g>
<!-- v14 -->
<g id="v14_SmartLight" class="node"><title>v14</title>
<ellipse fill="none" stroke="black" cx="230.5" cy="-11" rx="43" ry="11"/>
<text text-anchor="middle" x="230.5" y="-8.8" font-family="sans-serif" font-size="9.00">SmartLight</text>
</g>
<!-- v6&#45;&gt;v14 -->
<g id="edge23" class="edge"><title>v6&#45;&gt;v14</title>
<path fill="none" stroke="green" d="M699.074,-64.2743C610.674,-57.9559 432.434,-43.675 282.5,-22 275.858,-21.0398 268.776,-19.8141 262.044,-18.5523"/>
</g>
<!-- v15 -->
<g id="v15_Server" class="node"><title>v15</title>
<ellipse fill="none" stroke="black" cx="320.5" cy="-11" rx="29" ry="11"/>
<text text-anchor="middle" x="320.5" y="-8.8" font-family="sans-serif" font-size="9.00">Server</text>
</g>
<!-- v6&#45;&gt;v15 -->
<g id="edge24" class="edge"><title>v6&#45;&gt;v15</title>
<path fill="none" stroke="green" d="M699.524,-64.2262C622.533,-58.3537 478.45,-45.2182 357.5,-22 352.534,-21.0466 347.255,-19.778 342.287,-18.4652"/>
</g>
<!-- v16 -->
<g id="v16_FireAlarm" class="node"><title>v16</title>
<ellipse fill="none" stroke="black" cx="406.5" cy="-11" rx="39.5" ry="11"/>
<text text-anchor="middle" x="406.5" y="-8.8" font-family="sans-serif" font-size="9.00">FireAlarm</text>
</g>
<!-- v6&#45;&gt;v16 -->
<g id="edge25" class="edge"><title>v6&#45;&gt;v16</title>
<path fill="none" stroke="green" d="M708.631,-61.741C649.672,-53.5183 544.204,-38.2097 454.5,-22 448.469,-20.9102 442.033,-19.6423 435.898,-18.3829"/>
</g>
<!-- v10&#45;&gt;v11 -->
<g id="edge26" class="edge"><title>v10&#45;&gt;v11</title>
<path fill="none" stroke="green" d="M55.0842,-18.911C92.0233,-30.2148 164.585,-52.4194 197.953,-62.6305"/>
</g>
<!-- v10&#45;&gt;v13 -->
<g id="edge27" class="edge"><title>v10&#45;&gt;v13</title>
<path fill="none" stroke="green" d="M57.3284,-18.1238C62.9624,-19.4542 68.9277,-20.8164 74.5,-22 158.226,-39.7843 258.768,-57.4376 300.665,-64.6301"/>
</g>
<!-- v11&#45;&gt;v12 -->
<g id="edge14" class="edge"><title>v11&#45;&gt;v12</title>
<path fill="none" stroke="black" d="M202.748,-59.9766C187.986,-50.6881 163.499,-35.28 146.265,-24.4362"/>
<polygon fill="black" stroke="black" points="141.61,-21.5076 147.04,-22.266 143.726,-22.839 145.842,-24.1704 145.842,-24.1704 145.842,-24.1704 143.726,-22.839 144.644,-26.0748 141.61,-21.5076 141.61,-21.5076"/>
</g>
<!-- v13&#45;&gt;v14 -->
<g id="edge15" class="edge"><title>v13&#45;&gt;v14</title>
<path fill="none" stroke="black" d="M307.605,-59.9766C292.46,-50.553 267.192,-34.8303 249.731,-23.9657"/>
<polygon fill="black" stroke="black" points="245.471,-21.315 250.905,-22.0462 247.593,-22.6358 249.716,-23.9566 249.716,-23.9566 249.716,-23.9566 247.593,-22.6358 248.527,-25.867 245.471,-21.315 245.471,-21.315"/>
</g>
<!-- v13&#45;&gt;v15 -->
<g id="edge16" class="edge"><title>v13&#45;&gt;v15</title>
<path fill="none" stroke="black" d="M320.5,-57.9883C320.5,-49.4941 320.5,-37.1697 320.5,-27.4169"/>
<polygon fill="black" stroke="black" points="320.5,-22.3039 322.75,-27.3038 320.5,-24.8039 320.5,-27.3039 320.5,-27.3039 320.5,-27.3039 320.5,-24.8039 318.25,-27.3039 320.5,-22.3039 320.5,-22.3039"/>
</g>
<!-- v13&#45;&gt;v16 -->
<g id="edge17" class="edge"><title>v13&#45;&gt;v16</title>
<path fill="none" stroke="black" d="M332.822,-59.9766C347.171,-50.6328 371.031,-35.0963 387.698,-24.243"/>
<polygon fill="black" stroke="black" points="392.195,-21.315 389.233,-25.929 390.1,-22.6792 388.005,-24.0434 388.005,-24.0434 388.005,-24.0434 390.1,-22.6792 386.777,-22.1579 392.195,-21.315 392.195,-21.315"/>
</g>
</g>
</svg>
