<?xml version="1.0" encoding="UTF-8" standalone="no"?>
<?xml-stylesheet href="style.css" type="text/css"?>
<!DOCTYPE svg PUBLIC "-//W3C//DTD SVG 1.1//EN"
 "http://www.w3.org/Graphics/SVG/1.1/DTD/svg11.dtd">
<!-- Generated by graphviz version 2.38.0 (20140413.2041)
 -->
<!-- Title: 8.svg Pages: 1 -->
<svg width="929pt" height="316pt"
 viewBox="0.00 0.00 928.50 316.00" xmlns="http://www.w3.org/2000/svg" xmlns:xlink="http://www.w3.org/1999/xlink">
<g id="graph0" class="graph" transform="scale(1 1) rotate(0) translate(4 312)">
<title>8.svg</title>
<polygon fill="white" stroke="none" points="-4,4 -4,-312 924.5,-312 924.5,4 -4,4"/>
<!-- r0 -->
<g id="node1" class="node"><title>r0</title>
<polygon fill="none" stroke="black" stroke-dasharray="5,2" points="614,-308 591,-308 591,-290 614,-290 614,-308"/>
<text text-anchor="middle" x="602.5" y="-296.8" font-family="serif" font-size="9.00">0</text>
</g>
<!-- v0 -->
<g id="v0_Building" class="node"><title>v0</title>
<ellipse fill="none" stroke="black" cx="602.5" cy="-243" rx="36" ry="11"/>
<text text-anchor="middle" x="602.5" y="-240.8" font-family="sans-serif" font-size="9.00">Building</text>
</g>
<!-- r0&#45;&gt;v0 -->
<g id="edge1" class="edge"><title>r0&#45;&gt;v0</title>
<path fill="none" stroke="black" d="M602.5,-289.562C602.5,-281.453 602.5,-269.014 602.5,-259.181"/>
<polygon fill="black" stroke="black" points="602.5,-254.03 604.75,-259.03 602.5,-256.53 602.5,-259.03 602.5,-259.03 602.5,-259.03 602.5,-256.53 600.25,-259.03 602.5,-254.03 602.5,-254.03"/>
</g>
<!-- e2 -->
<g id="node2" class="node"><title>e2</title>
</g>
<!-- v5 -->
<g id="v5_SmartLight" class="node"><title>v5</title>
<ellipse fill="none" stroke="black" cx="160.5" cy="-11" rx="43" ry="11"/>
<text text-anchor="middle" x="160.5" y="-8.8" font-family="sans-serif" font-size="9.00">SmartLight</text>
</g>
<!-- e2&#45;&gt;v5 -->
<g id="edge18" class="edge"><title>e2&#45;&gt;v5</title>
<path fill="none" stroke="green" d="M160.5,-64.1674C160.5,-55.5862 160.5,-34.5957 160.5,-22.0117"/>
<polygon fill="green" stroke="green" points="164,-67.3001 157,-67.2999 157,-65.8999 164,-65.9001 164,-67.3001"/>
<polyline fill="none" stroke="green" points="160.5,-68 160.5,-64.5 "/>
</g>
<!-- v1 -->
<g id="v1_Floor" class="node"><title>v1</title>
<ellipse fill="none" stroke="black" cx="438.5" cy="-185" rx="25" ry="11"/>
<text text-anchor="middle" x="438.5" y="-182.8" font-family="sans-serif" font-size="9.00">Floor</text>
</g>
<!-- v0&#45;&gt;v1 -->
<g id="edge2" class="edge"><title>v0&#45;&gt;v1</title>
<path fill="none" stroke="black" d="M580.04,-234.331C549.064,-223.753 493.492,-204.778 461.984,-194.019"/>
<polygon fill="black" stroke="black" points="457.141,-192.365 462.6,-191.852 459.507,-193.173 461.873,-193.981 461.873,-193.981 461.873,-193.981 459.507,-193.173 461.145,-196.11 457.141,-192.365 457.141,-192.365"/>
</g>
<!-- v6 -->
<g id="v6_InstallationBus" class="node"><title>v6</title>
<ellipse fill="none" stroke="black" cx="859.5" cy="-11" rx="61" ry="11"/>
<text text-anchor="middle" x="859.5" y="-8.8" font-family="sans-serif" font-size="9.00">InstallationBus</text>
</g>
<!-- v0&#45;&gt;v6 -->
<g id="edge3" class="edge"><title>v0&#45;&gt;v6</title>
<path fill="none" stroke="black" d="M613.216,-232.41C653.698,-196.181 797.401,-67.5749 844.46,-25.4599"/>
<polygon fill="black" stroke="black" points="848.451,-21.888 846.226,-26.8991 846.588,-23.5552 844.725,-25.2224 844.725,-25.2224 844.725,-25.2224 846.588,-23.5552 843.225,-23.5458 848.451,-21.888 848.451,-21.888"/>
</g>
<!-- v2 -->
<g id="v2_Room" class="node"><title>v2</title>
<ellipse fill="none" stroke="black" cx="93.5" cy="-127" rx="21.5" ry="11"/>
<text text-anchor="middle" x="93.5" y="-124.8" font-family="sans-serif" font-size="9.00">Room</text>
</g>
<!-- v1&#45;&gt;v2 -->
<g id="edge4" class="edge"><title>v1&#45;&gt;v2</title>
<path fill="none" stroke="black" d="M415.864,-180.326C354.186,-170.314 183.47,-142.604 118.786,-132.104"/>
<polygon fill="black" stroke="black" points="113.587,-131.261 118.883,-129.841 116.055,-131.661 118.523,-132.062 118.523,-132.062 118.523,-132.062 116.055,-131.661 118.162,-134.283 113.587,-131.261 113.587,-131.261"/>
</g>
<!-- v7 -->
<g id="v7_Hallway" class="node"><title>v7</title>
<ellipse fill="none" stroke="black" cx="254.5" cy="-11" rx="32.5" ry="11"/>
<text text-anchor="middle" x="254.5" y="-8.8" font-family="sans-serif" font-size="9.00">Hallway</text>
</g>
<!-- v1&#45;&gt;v7 -->
<g id="edge5" class="edge"><title>v1&#45;&gt;v7</title>
<path fill="none" stroke="black" d="M428.607,-174.753C397.926,-146.072 304.301,-58.5531 268.565,-25.1475"/>
<polygon fill="black" stroke="black" points="264.895,-21.7169 270.084,-23.4877 266.721,-23.4242 268.548,-25.1314 268.548,-25.1314 268.548,-25.1314 266.721,-23.4242 267.011,-26.7751 264.895,-21.7169 264.895,-21.7169"/>
</g>
<!-- v8 -->
<g id="v8_Room" class="node"><title>v8</title>
<ellipse fill="none" stroke="black" cx="438.5" cy="-69" rx="21.5" ry="11"/>
<text text-anchor="middle" x="438.5" y="-66.8" font-family="sans-serif" font-size="9.00">Room</text>
</g>
<!-- v1&#45;&gt;v8 -->
<g id="edge6" class="edge"><title>v1&#45;&gt;v8</title>
<path fill="none" stroke="black" d="M438.5,-173.883C438.5,-153.906 438.5,-109.276 438.5,-85.5402"/>
<polygon fill="black" stroke="black" points="438.5,-80.2579 440.75,-85.2579 438.5,-82.7579 438.5,-85.2579 438.5,-85.2579 438.5,-85.2579 438.5,-82.7579 436.25,-85.258 438.5,-80.2579 438.5,-80.2579"/>
</g>
<!-- v12 -->
<g id="v12_Room" class="node"><title>v12</title>
<ellipse fill="none" stroke="black" cx="625.5" cy="-69" rx="21.5" ry="11"/>
<text text-anchor="middle" x="625.5" y="-66.8" font-family="sans-serif" font-size="9.00">Room</text>
</g>
<!-- v1&#45;&gt;v12 -->
<g id="edge7" class="edge"><title>v1&#45;&gt;v12</title>
<path fill="none" stroke="black" d="M452.251,-175.617C485.508,-155.343 570.291,-103.657 607.514,-80.9644"/>
<polygon fill="black" stroke="black" points="612.232,-78.0887 609.134,-82.6125 610.097,-79.39 607.962,-80.6914 607.962,-80.6914 607.962,-80.6914 610.097,-79.39 606.791,-78.7702 612.232,-78.0887 612.232,-78.0887"/>
</g>
<!-- v3 -->
<g id="v3_Visitor" class="node"><title>v3</title>
<ellipse fill="none" stroke="black" cx="32.5" cy="-69" rx="32.5" ry="11"/>
<text text-anchor="middle" x="32.5" y="-66.8" font-family="sans-serif" font-size="9.00">Visitor</text>
</g>
<!-- v2&#45;&gt;v3 -->
<g id="edge8" class="edge"><title>v2&#45;&gt;v3</title>
<path fill="none" stroke="black" d="M83.6993,-117.003C73.741,-107.861 58.2087,-93.6014 46.8618,-83.1846"/>
<polygon fill="black" stroke="black" points="42.8889,-79.5373 48.0938,-81.2612 44.7305,-81.228 46.5721,-82.9187 46.5721,-82.9187 46.5721,-82.9187 44.7305,-81.228 45.0505,-84.5762 42.8889,-79.5373 42.8889,-79.5373"/>
</g>
<!-- v2&#45;&gt;v5 -->
<g id="edge9" class="edge"><title>v2&#45;&gt;v5</title>
<path fill="none" stroke="black" d="M95.7171,-115.747C99.0111,-101.913 106.068,-76.8361 117.5,-58 124.944,-45.7341 136.058,-33.9542 145.122,-25.386"/>
<polygon fill="black" stroke="black" points="148.864,-21.9186 146.726,-26.9673 147.031,-23.6177 145.197,-25.3169 145.197,-25.3169 145.197,-25.3169 147.031,-23.6177 143.667,-23.6664 148.864,-21.9186 148.864,-21.9186"/>
</g>
<!-- v2&#45;&gt;v7 -->
<g id="edge16" class="edge"><title>v2&#45;&gt;v7</title>
<path fill="none" stroke="green" d="M99.7288,-115.985C109.162,-101.513 128.339,-74.6658 150.5,-58 175.431,-39.2512 209.203,-26.1231 231.407,-18.8195"/>
</g>
<!-- v4 -->
<g id="v4_Laptop" class="node"><title>v4</title>
<ellipse fill="none" stroke="black" cx="32.5" cy="-11" rx="29" ry="11"/>
<text text-anchor="middle" x="32.5" y="-8.8" font-family="sans-serif" font-size="9.00">Laptop</text>
</g>
<!-- v3&#45;&gt;v4 -->
<g id="edge10" class="edge"><title>v3&#45;&gt;v4</title>
<path fill="none" stroke="black" d="M32.5,-57.9883C32.5,-49.4941 32.5,-37.1697 32.5,-27.4169"/>
<polygon fill="black" stroke="black" points="32.5,-22.3039 34.7501,-27.3038 32.5,-24.8039 32.5001,-27.3039 32.5001,-27.3039 32.5001,-27.3039 32.5,-24.8039 30.2501,-27.3039 32.5,-22.3039 32.5,-22.3039"/>
</g>
<!-- v4&#45;&gt;v6 -->
<g id="edge17" class="edge"><title>v4&#45;&gt;v6</title>
<path fill="none" stroke="green" d="M51.2779,-19.4099C68.2008,-26.4997 93.9656,-36.0958 117.5,-40 190.173,-52.0561 707.97,-52.8919 780.5,-40 800.495,-36.446 822.067,-28.2018 837.609,-21.4084"/>
</g>
<!-- v9 -->
<g id="v9_SmartLight" class="node"><title>v9</title>
<ellipse fill="none" stroke="black" cx="348.5" cy="-11" rx="43" ry="11"/>
<text text-anchor="middle" x="348.5" y="-8.8" font-family="sans-serif" font-size="9.00">SmartLight</text>
</g>
<!-- v6&#45;&gt;v9 -->
<g id="edge19" class="edge"><title>v6&#45;&gt;v9</title>
<path fill="none" stroke="green" d="M837.609,-21.4084C822.067,-28.2018 800.495,-36.446 780.5,-40 699.328,-54.428 489.923,-58.144 409.5,-40 393.486,-36.3871 376.744,-28.0527 364.859,-21.2415"/>
</g>
<!-- v10 -->
<g id="v10_Server" class="node"><title>v10</title>
<ellipse fill="none" stroke="black" cx="438.5" cy="-11" rx="29" ry="11"/>
<text text-anchor="middle" x="438.5" y="-8.8" font-family="sans-serif" font-size="9.00">Server</text>
</g>
<!-- v6&#45;&gt;v10 -->
<g id="edge20" class="edge"><title>v6&#45;&gt;v10</title>
<path fill="none" stroke="green" d="M837.609,-21.4084C822.067,-28.2018 800.495,-36.446 780.5,-40 715.956,-51.4724 548.567,-57.891 485.5,-40 472.586,-36.3366 459.741,-28.007 450.751,-21.2104"/>
</g>
<!-- v11 -->
<g id="v11_FireAlarm" class="node"><title>v11</title>
<ellipse fill="none" stroke="black" cx="524.5" cy="-11" rx="39.5" ry="11"/>
<text text-anchor="middle" x="524.5" y="-8.8" font-family="sans-serif" font-size="9.00">FireAlarm</text>
</g>
<!-- v6&#45;&gt;v11 -->
<g id="edge21" class="edge"><title>v6&#45;&gt;v11</title>
<path fill="none" stroke="green" d="M837.609,-21.4084C822.067,-28.2018 800.495,-36.446 780.5,-40 693.858,-55.4002 668.146,-60.2183 582.5,-40 567.16,-36.3788 551.252,-28.0452 539.985,-21.2364"/>
</g>
<!-- v13 -->
<g id="v13_SmartLight" class="node"><title>v13</title>
<ellipse fill="none" stroke="black" cx="625.5" cy="-11" rx="43" ry="11"/>
<text text-anchor="middle" x="625.5" y="-8.8" font-family="sans-serif" font-size="9.00">SmartLight</text>
</g>
<!-- v6&#45;&gt;v13 -->
<g id="edge22" class="edge"><title>v6&#45;&gt;v13</title>
<path fill="none" stroke="green" d="M837.609,-21.4084C822.067,-28.2018 800.495,-36.446 780.5,-40 739.367,-47.3112 727.254,-49.1942 686.5,-40 670.486,-36.3871 653.744,-28.0527 641.859,-21.2415"/>
</g>
<!-- v14 -->
<g id="v14_Workstation" class="node"><title>v14</title>
<ellipse fill="none" stroke="black" cx="733.5" cy="-11" rx="47" ry="11"/>
<text text-anchor="middle" x="733.5" y="-8.8" font-family="sans-serif" font-size="9.00">Workstation</text>
</g>
<!-- v6&#45;&gt;v14 -->
<g id="edge23" class="edge"><title>v6&#45;&gt;v14</title>
<path fill="none" stroke="green" d="M798.284,-11C792.439,-11 786.595,-11 780.75,-11"/>
</g>
<!-- v7&#45;&gt;v8 -->
<g id="edge24" class="edge"><title>v7&#45;&gt;v8</title>
<path fill="none" stroke="green" d="M277.208,-18.911C314.349,-30.2148 387.306,-52.4194 420.857,-62.6305"/>
</g>
<!-- v7&#45;&gt;v12 -->
<g id="edge25" class="edge"><title>v7&#45;&gt;v12</title>
<path fill="none" stroke="green" d="M279.29,-18.3141C284.926,-19.6346 290.902,-20.9447 296.5,-22 412.118,-43.7959 552.388,-60.065 604.602,-65.7751"/>
</g>
<!-- v8&#45;&gt;v9 -->
<g id="edge11" class="edge"><title>v8&#45;&gt;v9</title>
<path fill="none" stroke="black" d="M425.605,-59.9766C410.46,-50.553 385.192,-34.8303 367.731,-23.9657"/>
<polygon fill="black" stroke="black" points="363.471,-21.315 368.905,-22.0462 365.593,-22.6358 367.716,-23.9566 367.716,-23.9566 367.716,-23.9566 365.593,-22.6358 366.527,-25.867 363.471,-21.315 363.471,-21.315"/>
</g>
<!-- v8&#45;&gt;v10 -->
<g id="edge12" class="edge"><title>v8&#45;&gt;v10</title>
<path fill="none" stroke="black" d="M438.5,-57.9883C438.5,-49.4941 438.5,-37.1697 438.5,-27.4169"/>
<polygon fill="black" stroke="black" points="438.5,-22.3039 440.75,-27.3038 438.5,-24.8039 438.5,-27.3039 438.5,-27.3039 438.5,-27.3039 438.5,-24.8039 436.25,-27.3039 438.5,-22.3039 438.5,-22.3039"/>
</g>
<!-- v8&#45;&gt;v11 -->
<g id="edge13" class="edge"><title>v8&#45;&gt;v11</title>
<path fill="none" stroke="black" d="M450.822,-59.9766C465.171,-50.6328 489.031,-35.0963 505.698,-24.243"/>
<polygon fill="black" stroke="black" points="510.195,-21.315 507.233,-25.929 508.1,-22.6792 506.005,-24.0434 506.005,-24.0434 506.005,-24.0434 508.1,-22.6792 504.777,-22.1579 510.195,-21.315 510.195,-21.315"/>
</g>
<!-- v12&#45;&gt;v13 -->
<g id="edge14" class="edge"><title>v12&#45;&gt;v13</title>
<path fill="none" stroke="black" d="M625.5,-57.9883C625.5,-49.4941 625.5,-37.1697 625.5,-27.4169"/>
<polygon fill="black" stroke="black" points="625.5,-22.3039 627.75,-27.3038 625.5,-24.8039 625.5,-27.3039 625.5,-27.3039 625.5,-27.3039 625.5,-24.8039 623.25,-27.3039 625.5,-22.3039 625.5,-22.3039"/>
</g>
<!-- v12&#45;&gt;v14 -->
<g id="edge15" class="edge"><title>v12&#45;&gt;v14</title>
<path fill="none" stroke="black" d="M639.619,-60.679C657.692,-51.3076 689.232,-34.9536 710.722,-23.8106"/>
<polygon fill="black" stroke="black" points="715.416,-21.3771 712.013,-25.6762 713.196,-22.5279 710.977,-23.6787 710.977,-23.6787 710.977,-23.6787 713.196,-22.5279 709.941,-21.6813 715.416,-21.3771 715.416,-21.3771"/>
</g>
</g>
</svg>
