<?xml version="1.0" encoding="UTF-8" standalone="no"?>
<?xml-stylesheet href="style.css" type="text/css"?>
<!DOCTYPE svg PUBLIC "-//W3C//DTD SVG 1.1//EN"
 "http://www.w3.org/Graphics/SVG/1.1/DTD/svg11.dtd">
<!-- Generated by graphviz version 2.38.0 (20140413.2041)
 -->
<!-- Title: pred.svg Pages: 1 -->
<svg width="595pt" height="312pt"
 viewBox="0.00 0.00 595.00 312.00" xmlns="http://www.w3.org/2000/svg" xmlns:xlink="http://www.w3.org/1999/xlink">
<g id="graph0" class="graph" transform="scale(1 1) rotate(0) translate(4 308)">
<title>pred.svg</title>
<polygon fill="white" stroke="none" points="-4,4 -4,-308 591,-308 591,4 -4,4"/>
<!-- r0 -->
<g id="node1" class="node"><title>r0</title>
<polygon fill="none" stroke="black" stroke-dasharray="5,2" points="388,-304 365,-304 365,-286 388,-286 388,-304"/>
<text text-anchor="middle" x="376.5" y="-292.8" font-family="serif" font-size="9.00">0</text>
</g>
<!-- v0 -->
<g id="v0_Building" class="node"><title>v0</title>
<ellipse fill="none" stroke="black" cx="376.5" cy="-239" rx="36" ry="11"/>
<text text-anchor="middle" x="376.5" y="-236.8" font-family="sans-serif" font-size="9.00">Building</text>
</g>
<!-- r0&#45;&gt;v0 -->
<g id="edge1" class="edge"><title>r0&#45;&gt;v0</title>
<path fill="none" stroke="black" d="M376.5,-285.562C376.5,-277.453 376.5,-265.014 376.5,-255.181"/>
<polygon fill="black" stroke="black" points="376.5,-250.03 378.75,-255.03 376.5,-252.53 376.5,-255.03 376.5,-255.03 376.5,-255.03 376.5,-252.53 374.25,-255.03 376.5,-250.03 376.5,-250.03"/>
</g>
<!-- oa -->
<g id="node2" class="node"><title>oa</title>
<text text-anchor="middle" x="182.5" y="-292.8" font-family="serif" font-size="9.00">a</text>
</g>
<!-- e1 -->
<g id="node10" class="node"><title>e1</title>
</g>
<!-- oa&#45;&gt;e1 -->
<g id="edge14" class="edge"><title>oa&#45;&gt;e1</title>
<path fill="none" stroke="green" d="M182.5,-285.945C182.5,-260.265 182.5,-182 182.5,-182"/>
</g>
<!-- ob -->
<g id="node3" class="node"><title>ob</title>
<text text-anchor="middle" x="135.5" y="-292.8" font-family="serif" font-size="9.00">b</text>
</g>
<!-- ob1 -->
<g id="node4" class="node"><title>ob1</title>
<text text-anchor="middle" x="572.5" y="-292.8" font-family="serif" font-size="9.00">b1</text>
</g>
<!-- ob2 -->
<g id="node5" class="node"><title>ob2</title>
<text text-anchor="middle" x="312.5" y="-292.8" font-family="serif" font-size="9.00">b2</text>
</g>
<!-- ob3 -->
<g id="node6" class="node"><title>ob3</title>
<text text-anchor="middle" x="431.5" y="-292.8" font-family="serif" font-size="9.00">b3</text>
</g>
<!-- ob4 -->
<g id="node7" class="node"><title>ob4</title>
<text text-anchor="middle" x="478.5" y="-292.8" font-family="serif" font-size="9.00">b4</text>
</g>
<!-- ob5 -->
<g id="node8" class="node"><title>ob5</title>
<text text-anchor="middle" x="525.5" y="-292.8" font-family="serif" font-size="9.00">b5</text>
</g>
<!-- oc -->
<g id="node9" class="node"><title>oc</title>
<text text-anchor="middle" x="94.5" y="-292.8" font-family="serif" font-size="9.00">c</text>
</g>
<!-- v2 -->
<g id="v2_Hallway" class="node"><title>v2</title>
<ellipse fill="none" stroke="black" cx="99.5" cy="-123" rx="32.5" ry="11"/>
<text text-anchor="middle" x="99.5" y="-120.8" font-family="sans-serif" font-size="9.00">Hallway</text>
</g>
<!-- e1&#45;&gt;v2 -->
<g id="edge15" class="edge"><title>e1&#45;&gt;v2</title>
<path fill="none" stroke="green" d="M182.5,-180C182.5,-180 136.78,-149.153 113.206,-133.247"/>
</g>
<!-- v4 -->
<g id="v4_Room" class="node"><title>v4</title>
<ellipse fill="none" stroke="black" cx="203.5" cy="-123" rx="21.5" ry="11"/>
<text text-anchor="middle" x="203.5" y="-120.8" font-family="sans-serif" font-size="9.00">Room</text>
</g>
<!-- e1&#45;&gt;v4 -->
<g id="edge16" class="edge"><title>e1&#45;&gt;v4</title>
<path fill="none" stroke="green" d="M182.5,-180C182.5,-180 193.705,-150.119 199.746,-134.012"/>
</g>
<!-- v1 -->
<g id="v1_Floor" class="node"><title>v1</title>
<ellipse fill="none" stroke="black" cx="237.5" cy="-181" rx="25" ry="11"/>
<text text-anchor="middle" x="237.5" y="-178.8" font-family="sans-serif" font-size="9.00">Floor</text>
</g>
<!-- v0&#45;&gt;v1 -->
<g id="edge2" class="edge"><title>v0&#45;&gt;v1</title>
<path fill="none" stroke="black" d="M356.288,-229.857C330.628,-219.519 286.501,-201.741 259.858,-191.007"/>
<polygon fill="black" stroke="black" points="255.095,-189.088 260.573,-188.87 257.413,-190.023 259.732,-190.957 259.732,-190.957 259.732,-190.957 257.413,-190.023 258.891,-193.044 255.095,-189.088 255.095,-189.088"/>
</g>
<!-- v6 -->
<g id="v6_InstallationBus" class="node"><title>v6</title>
<ellipse fill="none" stroke="black" cx="459.5" cy="-65" rx="61" ry="11"/>
<text text-anchor="middle" x="459.5" y="-62.8" font-family="sans-serif" font-size="9.00">InstallationBus</text>
</g>
<!-- v0&#45;&gt;v6 -->
<g id="edge3" class="edge"><title>v0&#45;&gt;v6</title>
<path fill="none" stroke="black" d="M379.596,-227.825C386.466,-205.903 404.158,-152.893 426.5,-112 432.656,-100.733 441.121,-88.9878 447.937,-80.1856"/>
<polygon fill="black" stroke="black" points="451.133,-76.1159 449.814,-81.438 449.589,-78.0821 448.045,-80.0483 448.045,-80.0483 448.045,-80.0483 449.589,-78.0821 446.275,-78.6586 451.133,-76.1159 451.133,-76.1159"/>
</g>
<!-- v1&#45;&gt;v2 -->
<g id="edge4" class="edge"><title>v1&#45;&gt;v2</title>
<path fill="none" stroke="black" d="M220.022,-172.908C195.715,-163.044 151.59,-145.138 124.006,-133.945"/>
<polygon fill="black" stroke="black" points="119.057,-131.936 124.536,-131.731 121.373,-132.876 123.69,-133.816 123.69,-133.816 123.69,-133.816 121.373,-132.876 122.844,-135.901 119.057,-131.936 119.057,-131.936"/>
</g>
<!-- v1&#45;&gt;v4 -->
<g id="edge5" class="edge"><title>v1&#45;&gt;v4</title>
<path fill="none" stroke="black" d="M231.578,-170.246C226.166,-161.332 218.102,-148.05 212.002,-138.003"/>
<polygon fill="black" stroke="black" points="209.354,-133.643 213.873,-136.749 210.652,-135.78 211.949,-137.917 211.949,-137.917 211.949,-137.917 210.652,-135.78 210.026,-139.084 209.354,-133.643 209.354,-133.643"/>
</g>
<!-- s3 -->
<g id="node21" class="node"><title>s3</title>
<polygon fill="gray" stroke="black" stroke-dasharray="5,2" points="287,-18 264,-18 264,-0 287,-0 287,-18"/>
<text text-anchor="middle" x="275.5" y="-6.8" font-family="serif" font-size="9.00">3</text>
</g>
<!-- v1&#45;&gt;s3 -->
<g id="edge8" class="edge"><title>v1&#45;&gt;s3</title>
<path fill="none" stroke="black" d="M239.763,-169.875C246.288,-140.684 265.139,-56.3501 272.503,-23.4086"/>
<polygon fill="black" stroke="black" points="273.661,-18.2282 274.766,-23.5986 273.115,-20.6679 272.57,-23.1077 272.57,-23.1077 272.57,-23.1077 273.115,-20.6679 270.374,-22.6169 273.661,-18.2282 273.661,-18.2282"/>
</g>
<!-- v2&#45;&gt;ob -->
<g id="edge17" class="edge"><title>v2&#45;&gt;ob</title>
<path fill="none" stroke="green" d="M102.663,-134.161C105.48,-143.436 109.594,-157.555 112.5,-170 122.607,-213.282 131.148,-265.893 134.25,-285.822"/>
</g>
<!-- v2&#45;&gt;oc -->
<g id="edge23" class="edge"><title>v2&#45;&gt;oc</title>
<path fill="none" stroke="green" d="M99.1999,-134.204C98.289,-165.172 95.5683,-257.679 94.7412,-285.801"/>
</g>
<!-- v3 -->
<g id="v3_Visitor" class="node"><title>v3</title>
<ellipse fill="none" stroke="black" cx="32.5" cy="-65" rx="32.5" ry="11"/>
<text text-anchor="middle" x="32.5" y="-62.8" font-family="sans-serif" font-size="9.00">Visitor</text>
</g>
<!-- v2&#45;&gt;v3 -->
<g id="edge6" class="edge"><title>v2&#45;&gt;v3</title>
<path fill="none" stroke="black" d="M88.1344,-112.5C76.9981,-103.192 59.9551,-88.9475 47.6673,-78.6771"/>
<polygon fill="black" stroke="black" points="43.6978,-75.3593 48.9772,-76.8395 45.616,-76.9626 47.5342,-78.5659 47.5342,-78.5659 47.5342,-78.5659 45.616,-76.9626 46.0913,-80.2923 43.6978,-75.3593 43.6978,-75.3593"/>
</g>
<!-- s1 -->
<g id="node19" class="node"><title>s1</title>
<polygon fill="gray" stroke="black" stroke-dasharray="5,2" points="105,-18 82,-18 82,-0 105,-0 105,-18"/>
<text text-anchor="middle" x="93.5" y="-6.8" font-family="serif" font-size="9.00">1</text>
</g>
<!-- v2&#45;&gt;s1 -->
<g id="edge9" class="edge"><title>v2&#45;&gt;s1</title>
<path fill="none" stroke="black" d="M98.9463,-111.664C97.8551,-91.2956 95.428,-45.9887 94.2166,-23.376"/>
<polygon fill="black" stroke="black" points="93.9363,-18.145 96.4507,-23.0174 94.0701,-20.6414 94.2039,-23.1378 94.2039,-23.1378 94.2039,-23.1378 94.0701,-20.6414 91.9571,-23.2582 93.9363,-18.145 93.9363,-18.145"/>
</g>
<!-- s0 -->
<g id="node18" class="node"><title>s0</title>
<polygon fill="gray" stroke="black" stroke-dasharray="5,2" points="44,-18 21,-18 21,-0 44,-0 44,-18"/>
<text text-anchor="middle" x="32.5" y="-6.8" font-family="serif" font-size="9.00">0</text>
</g>
<!-- v3&#45;&gt;s0 -->
<g id="edge10" class="edge"><title>v3&#45;&gt;s0</title>
<path fill="none" stroke="black" d="M32.5,-53.5883C32.5,-44.98 32.5,-32.6988 32.5,-23.3651"/>
<polygon fill="black" stroke="black" points="32.5,-18.2602 34.7501,-23.2602 32.5,-20.7602 32.5001,-23.2602 32.5001,-23.2602 32.5001,-23.2602 32.5,-20.7602 30.2501,-23.2603 32.5,-18.2602 32.5,-18.2602"/>
</g>
<!-- v5 -->
<g id="v5_SmartLight" class="node"><title>v5</title>
<ellipse fill="none" stroke="black" cx="164.5" cy="-65" rx="43" ry="11"/>
<text text-anchor="middle" x="164.5" y="-62.8" font-family="sans-serif" font-size="9.00">SmartLight</text>
</g>
<!-- v4&#45;&gt;v5 -->
<g id="edge7" class="edge"><title>v4&#45;&gt;v5</title>
<path fill="none" stroke="black" d="M196.884,-112.5C190.723,-103.654 181.456,-90.3472 174.412,-80.2321"/>
<polygon fill="black" stroke="black" points="171.544,-76.1148 176.248,-78.932 172.973,-78.1664 174.402,-80.2179 174.402,-80.2179 174.402,-80.2179 172.973,-78.1664 172.555,-81.5038 171.544,-76.1148 171.544,-76.1148"/>
</g>
<!-- s2 -->
<g id="node20" class="node"><title>s2</title>
<polygon fill="gray" stroke="black" stroke-dasharray="5,2" points="246,-18 223,-18 223,-0 246,-0 246,-18"/>
<text text-anchor="middle" x="234.5" y="-6.8" font-family="serif" font-size="9.00">2</text>
</g>
<!-- v4&#45;&gt;s2 -->
<g id="edge11" class="edge"><title>v4&#45;&gt;s2</title>
<path fill="none" stroke="black" d="M206.418,-111.776C209.071,-102.459 213.081,-88.3144 216.5,-76 221.605,-57.6129 227.393,-36.308 230.995,-22.9907"/>
<polygon fill="black" stroke="black" points="232.307,-18.1351 233.175,-23.549 231.655,-20.5486 231.003,-22.962 231.003,-22.962 231.003,-22.962 231.655,-20.5486 228.83,-22.3749 232.307,-18.1351 232.307,-18.1351"/>
</g>
<!-- v5&#45;&gt;v6 -->
<g id="edge13" class="edge"><title>v5&#45;&gt;v6</title>
<path fill="none" stroke="green" d="M207.713,-65C271.151,-65 334.59,-65 398.029,-65"/>
</g>
<!-- v6&#45;&gt;ob1 -->
<g id="edge18" class="edge"><title>v6&#45;&gt;ob1</title>
<path fill="none" stroke="green" d="M468.916,-75.9775C476.987,-84.904 488.538,-98.6102 496.5,-112 533.953,-174.982 561.897,-259.846 570.059,-285.997"/>
</g>
<!-- v6&#45;&gt;ob2 -->
<g id="edge19" class="edge"><title>v6&#45;&gt;ob2</title>
<path fill="none" stroke="green" d="M448.086,-76.051C438.184,-85.0245 423.718,-98.7585 412.5,-112 371.854,-159.978 358.564,-171.241 331.5,-228 322.057,-247.804 316.373,-273.235 313.923,-285.974"/>
</g>
<!-- v6&#45;&gt;ob3 -->
<g id="edge20" class="edge"><title>v6&#45;&gt;ob3</title>
<path fill="none" stroke="green" d="M458.271,-76.0114C453.568,-114.301 436.773,-251.061 432.497,-285.885"/>
</g>
<!-- v6&#45;&gt;ob4 -->
<g id="edge21" class="edge"><title>v6&#45;&gt;ob4</title>
<path fill="none" stroke="green" d="M460.334,-76.0114C463.525,-114.301 474.922,-251.061 477.824,-285.885"/>
</g>
<!-- v6&#45;&gt;ob5 -->
<g id="edge22" class="edge"><title>v6&#45;&gt;ob5</title>
<path fill="none" stroke="green" d="M464.138,-76.0774C468.267,-85.2958 474.286,-99.3784 478.5,-112 500.511,-177.933 518.431,-260.144 523.83,-285.901"/>
</g>
<!-- s4 -->
<g id="node22" class="node"><title>s4</title>
<polygon fill="gray" stroke="black" stroke-dasharray="5,2" points="471,-18 448,-18 448,-0 471,-0 471,-18"/>
<text text-anchor="middle" x="459.5" y="-6.8" font-family="serif" font-size="9.00">4</text>
</g>
<!-- v6&#45;&gt;s4 -->
<g id="edge12" class="edge"><title>v6&#45;&gt;s4</title>
<path fill="none" stroke="black" d="M459.5,-53.5883C459.5,-44.98 459.5,-32.6988 459.5,-23.3651"/>
<polygon fill="black" stroke="black" points="459.5,-18.2602 461.75,-23.2602 459.5,-20.7602 459.5,-23.2602 459.5,-23.2602 459.5,-23.2602 459.5,-20.7602 457.25,-23.2603 459.5,-18.2602 459.5,-18.2602"/>
</g>
</g>
</svg>
