<?xml version="1.0" encoding="UTF-8" standalone="no"?>
<?xml-stylesheet href="style.css" type="text/css"?>
<!DOCTYPE svg PUBLIC "-//W3C//DTD SVG 1.1//EN"
 "http://www.w3.org/Graphics/SVG/1.1/DTD/svg11.dtd">
<!-- Generated by graphviz version 2.38.0 (20140413.2041)
 -->
<!-- Title: visitor_exit_room_rhs.svg Pages: 1 -->
<svg width="222pt" height="254pt"
 viewBox="0.00 0.00 222.00 254.00" xmlns="http://www.w3.org/2000/svg" xmlns:xlink="http://www.w3.org/1999/xlink">
<g id="graph0" class="graph" transform="scale(1 1) rotate(0) translate(4 250)">
<title>visitor_exit_room_rhs.svg</title>
<polygon fill="white" stroke="none" points="-4,4 -4,-250 218,-250 218,4 -4,4"/>
<!-- r0 -->
<g id="node1" class="node"><title>r0</title>
<polygon fill="none" stroke="black" stroke-dasharray="5,2" points="63,-246 40,-246 40,-228 63,-228 63,-246"/>
<text text-anchor="middle" x="51.5" y="-234.8" font-family="serif" font-size="9.00">0</text>
</g>
<!-- v0 -->
<g id="v0_Room" class="node"><title>v0</title>
<ellipse fill="none" stroke="black" cx="21.5" cy="-65" rx="21.5" ry="11"/>
<text text-anchor="middle" x="21.5" y="-62.8" font-family="sans-serif" font-size="9.00">Room</text>
</g>
<!-- r0&#45;&gt;v0 -->
<g id="edge1" class="edge"><title>r0&#45;&gt;v0</title>
<path fill="none" stroke="black" d="M50.053,-227.801C45.3424,-201.107 30.3944,-116.402 24.2144,-81.3814"/>
<polygon fill="black" stroke="black" points="23.3007,-76.204 26.3855,-80.7369 23.7352,-78.666 24.1697,-81.1279 24.1697,-81.1279 24.1697,-81.1279 23.7352,-78.666 21.9539,-81.519 23.3007,-76.204 23.3007,-76.204"/>
</g>
<!-- v1 -->
<g id="v1_Hallway" class="node"><title>v1</title>
<ellipse fill="none" stroke="black" cx="141.5" cy="-181" rx="32.5" ry="11"/>
<text text-anchor="middle" x="141.5" y="-178.8" font-family="sans-serif" font-size="9.00">Hallway</text>
</g>
<!-- r0&#45;&gt;v1 -->
<g id="edge2" class="edge"><title>r0&#45;&gt;v1</title>
<path fill="none" stroke="black" d="M63.2659,-228.94C78.2883,-219.927 104.475,-204.215 122.38,-193.472"/>
<polygon fill="black" stroke="black" points="126.742,-190.855 123.612,-195.357 124.599,-192.141 122.455,-193.427 122.455,-193.427 122.455,-193.427 124.599,-192.141 121.297,-191.498 126.742,-190.855 126.742,-190.855"/>
</g>
<!-- ob -->
<g id="node2" class="node"><title>ob</title>
<text text-anchor="middle" x="120.5" y="-234.8" font-family="serif" font-size="9.00">b</text>
</g>
<!-- oc -->
<g id="node3" class="node"><title>oc</title>
<text text-anchor="middle" x="161.5" y="-234.8" font-family="serif" font-size="9.00">c</text>
</g>
<!-- e1 -->
<g id="node4" class="node"><title>e1</title>
</g>
<!-- v3 -->
<g id="v3_Laptop" class="node"><title>v3</title>
<ellipse fill="none" stroke="black" cx="90.5" cy="-65" rx="29" ry="11"/>
<text text-anchor="middle" x="90.5" y="-62.8" font-family="sans-serif" font-size="9.00">Laptop</text>
</g>
<!-- e1&#45;&gt;v3 -->
<g id="edge10" class="edge"><title>e1&#45;&gt;v3</title>
<path fill="none" stroke="green" d="M90.5,-118.167C90.5,-109.586 90.5,-88.5957 90.5,-76.0117"/>
<polygon fill="green" stroke="green" points="94,-121.3 87,-121.3 87.0001,-119.9 94.0001,-119.9 94,-121.3"/>
<polyline fill="none" stroke="green" points="90.5,-122 90.5001,-118.5 "/>
</g>
<!-- v0&#45;&gt;v1 -->
<g id="edge9" class="edge"><title>v0&#45;&gt;v1</title>
<path fill="none" stroke="green" d="M28.9307,-75.8035C39.5843,-89.5546 60.1651,-115.013 80.5,-134 95.6239,-148.121 114.967,-162.114 127.771,-170.891"/>
</g>
<!-- s0 -->
<g id="node9" class="node"><title>s0</title>
<polygon fill="gray" stroke="black" stroke-dasharray="5,2" points="33,-18 10,-18 10,-0 33,-0 33,-18"/>
<text text-anchor="middle" x="21.5" y="-6.8" font-family="serif" font-size="9.00">0</text>
</g>
<!-- v0&#45;&gt;s0 -->
<g id="edge5" class="edge"><title>v0&#45;&gt;s0</title>
<path fill="none" stroke="black" d="M21.5,-53.5883C21.5,-44.98 21.5,-32.6988 21.5,-23.3651"/>
<polygon fill="black" stroke="black" points="21.5,-18.2602 23.7501,-23.2602 21.5,-20.7602 21.5001,-23.2602 21.5001,-23.2602 21.5001,-23.2602 21.5,-20.7602 19.2501,-23.2603 21.5,-18.2602 21.5,-18.2602"/>
</g>
<!-- v1&#45;&gt;ob -->
<g id="edge11" class="edge"><title>v1&#45;&gt;ob</title>
<path fill="none" stroke="green" d="M137.599,-192.03C133.622,-202.259 127.519,-217.952 123.781,-227.562"/>
</g>
<!-- v1&#45;&gt;oc -->
<g id="edge12" class="edge"><title>v1&#45;&gt;oc</title>
<path fill="none" stroke="green" d="M145.215,-192.03C149.003,-202.259 154.815,-217.952 158.375,-227.562"/>
</g>
<!-- v2 -->
<g id="v2_Visitor" class="node"><title>v2</title>
<ellipse fill="none" stroke="black" cx="141.5" cy="-123" rx="32.5" ry="11"/>
<text text-anchor="middle" x="141.5" y="-120.8" font-family="sans-serif" font-size="9.00">Visitor</text>
</g>
<!-- v1&#45;&gt;v2 -->
<g id="edge3" class="edge"><title>v1&#45;&gt;v2</title>
<path fill="none" stroke="black" d="M141.5,-169.988C141.5,-161.494 141.5,-149.17 141.5,-139.417"/>
<polygon fill="black" stroke="black" points="141.5,-134.304 143.75,-139.304 141.5,-136.804 141.5,-139.304 141.5,-139.304 141.5,-139.304 141.5,-136.804 139.25,-139.304 141.5,-134.304 141.5,-134.304"/>
</g>
<!-- s3 -->
<g id="node12" class="node"><title>s3</title>
<polygon fill="gray" stroke="black" stroke-dasharray="5,2" points="214,-18 191,-18 191,-0 214,-0 214,-18"/>
<text text-anchor="middle" x="202.5" y="-6.8" font-family="serif" font-size="9.00">3</text>
</g>
<!-- v1&#45;&gt;s3 -->
<g id="edge6" class="edge"><title>v1&#45;&gt;s3</title>
<path fill="none" stroke="black" d="M152.844,-170.663C162.371,-162.148 175.516,-148.684 182.5,-134 200.188,-96.8095 202.663,-47.0054 202.745,-23.4395"/>
<polygon fill="black" stroke="black" points="202.725,-18.2977 204.994,-23.2889 202.734,-20.7977 202.744,-23.2977 202.744,-23.2977 202.744,-23.2977 202.734,-20.7977 200.494,-23.3065 202.725,-18.2977 202.725,-18.2977"/>
</g>
<!-- v2&#45;&gt;v3 -->
<g id="edge4" class="edge"><title>v2&#45;&gt;v3</title>
<path fill="none" stroke="black" d="M132.616,-112.246C124.353,-103.172 111.965,-89.5697 102.762,-79.4636"/>
<polygon fill="black" stroke="black" points="99.2817,-75.6427 104.312,-77.8244 100.965,-77.491 102.648,-79.3394 102.648,-79.3394 102.648,-79.3394 100.965,-77.491 100.985,-80.8544 99.2817,-75.6427 99.2817,-75.6427"/>
</g>
<!-- s2 -->
<g id="node11" class="node"><title>s2</title>
<polygon fill="gray" stroke="black" stroke-dasharray="5,2" points="159,-18 136,-18 136,-0 159,-0 159,-18"/>
<text text-anchor="middle" x="147.5" y="-6.8" font-family="serif" font-size="9.00">2</text>
</g>
<!-- v2&#45;&gt;s2 -->
<g id="edge7" class="edge"><title>v2&#45;&gt;s2</title>
<path fill="none" stroke="black" d="M142.054,-111.664C143.145,-91.2956 145.572,-45.9887 146.783,-23.376"/>
<polygon fill="black" stroke="black" points="147.064,-18.145 149.043,-23.2582 146.93,-20.6414 146.796,-23.1378 146.796,-23.1378 146.796,-23.1378 146.93,-20.6414 144.549,-23.0174 147.064,-18.145 147.064,-18.145"/>
</g>
<!-- s1 -->
<g id="node10" class="node"><title>s1</title>
<polygon fill="gray" stroke="black" stroke-dasharray="5,2" points="102,-18 79,-18 79,-0 102,-0 102,-18"/>
<text text-anchor="middle" x="90.5" y="-6.8" font-family="serif" font-size="9.00">1</text>
</g>
<!-- v3&#45;&gt;s1 -->
<g id="edge8" class="edge"><title>v3&#45;&gt;s1</title>
<path fill="none" stroke="black" d="M90.5,-53.5883C90.5,-44.98 90.5,-32.6988 90.5,-23.3651"/>
<polygon fill="black" stroke="black" points="90.5,-18.2602 92.7501,-23.2602 90.5,-20.7602 90.5001,-23.2602 90.5001,-23.2602 90.5001,-23.2602 90.5,-20.7602 88.2501,-23.2603 90.5,-18.2602 90.5,-18.2602"/>
</g>
</g>
</svg>
