<?xml version="1.0" encoding="UTF-8" standalone="no"?>
<?xml-stylesheet href="style_sbrs.css" type="text/css"?>
<!DOCTYPE svg PUBLIC "-//W3C//DTD SVG 1.1//EN"
 "http://www.w3.org/Graphics/SVG/1.1/DTD/svg11.dtd">
<!-- Generated by graphviz version 2.38.0 (20140413.2041)
 -->
<!-- Title: transitions.svg Pages: 1 -->
<svg width="3894pt" height="204pt"
 viewBox="0.00 0.00 3894.00 204.00" xmlns="http://www.w3.org/2000/svg" xmlns:xlink="http://www.w3.org/1999/xlink">
<g id="graph0" class="graph" transform="scale(1 1) rotate(0) translate(4 200)">
<title>transitions.svg</title>
<polygon fill="white" stroke="none" points="-4,4 -4,-200 3890,-200 3890,4 -4,4"/>
<!-- 0 -->
<g id="s0" class="node"><title>0</title>
<g id="a_s0"><a xlink:href="./0.svg" xlink:title="0">
<ellipse fill="none" stroke="black" stroke-width="2" cx="2735.5" cy="-185" rx="21.5" ry="11"/>
<text text-anchor="middle" x="2735.5" y="-182.8" font-family="monospace" font-size="9.00">0</text>
</a>
</g>
</g>
<!-- 4 -->
<g id="s4" class="node"><title>4</title>
<g id="a_s4"><a xlink:href="./4.svg" xlink:title="4">
<ellipse fill="none" stroke="black" cx="692.5" cy="-127" rx="21.5" ry="11"/>
<text text-anchor="middle" x="692.5" y="-124.8" font-family="monospace" font-size="9.00">4</text>
</a>
</g>
</g>
<!-- 0&#45;&gt;4 -->
<g id="edge19" class="edge"><title>0&#45;&gt;4</title>
<path fill="none" stroke="black" d="M2713.94,-183.409C2511.26,-177.854 943.127,-134.87 719.105,-128.729"/>
<polygon fill="black" stroke="black" points="714.064,-128.591 719.124,-126.479 716.563,-128.66 719.062,-128.728 719.062,-128.728 719.062,-128.728 716.563,-128.66 719.001,-130.977 714.064,-128.591 714.064,-128.591"/>
</g>
<!-- 1 -->
<g id="s1" class="node"><title>1</title>
<g id="a_s1"><a xlink:href="./1.svg" xlink:title="1">
<ellipse fill="none" stroke="black" cx="3345.5" cy="-127" rx="21.5" ry="11"/>
<text text-anchor="middle" x="3345.5" y="-124.8" font-family="monospace" font-size="9.00">1</text>
</a>
</g>
</g>
<!-- 0&#45;&gt;1 -->
<g id="edge16" class="edge"><title>0&#45;&gt;1</title>
<path fill="none" stroke="black" d="M2756.5,-182.072C2848.7,-173.608 3217.63,-139.739 3319.39,-130.397"/>
<polygon fill="black" stroke="black" points="3324.59,-129.92 3319.82,-132.617 3322.1,-130.148 3319.61,-130.377 3319.61,-130.377 3319.61,-130.377 3322.1,-130.148 3319.41,-128.136 3324.59,-129.92 3324.59,-129.92"/>
</g>
<!-- 2 -->
<g id="s2" class="node"><title>2</title>
<g id="a_s2"><a xlink:href="./2.svg" xlink:title="2">
<ellipse fill="none" stroke="black" cx="3101.5" cy="-127" rx="21.5" ry="11"/>
<text text-anchor="middle" x="3101.5" y="-124.8" font-family="monospace" font-size="9.00">2</text>
</a>
</g>
</g>
<!-- 0&#45;&gt;2 -->
<g id="edge17" class="edge"><title>0&#45;&gt;2</title>
<path fill="none" stroke="black" d="M2755.7,-180.909C2818.06,-171.367 3007.5,-142.382 3076.24,-131.865"/>
<polygon fill="black" stroke="black" points="3081.36,-131.081 3076.76,-134.061 3078.89,-131.459 3076.42,-131.837 3076.42,-131.837 3076.42,-131.837 3078.89,-131.459 3076.08,-129.613 3081.36,-131.081 3081.36,-131.081"/>
</g>
<!-- 3 -->
<g id="s3" class="node"><title>3</title>
<g id="a_s3"><a xlink:href="./3.svg" xlink:title="3">
<ellipse fill="none" stroke="black" cx="3559.5" cy="-127" rx="21.5" ry="11"/>
<text text-anchor="middle" x="3559.5" y="-124.8" font-family="monospace" font-size="9.00">3</text>
</a>
</g>
</g>
<!-- 0&#45;&gt;3 -->
<g id="edge18" class="edge"><title>0&#45;&gt;3</title>
<path fill="none" stroke="black" d="M2756.7,-182.559C2870.38,-174.833 3407.37,-138.339 3533.11,-129.793"/>
<polygon fill="black" stroke="black" points="3538.44,-129.431 3533.61,-132.015 3535.95,-129.601 3533.45,-129.77 3533.45,-129.77 3533.45,-129.77 3535.95,-129.601 3533.3,-127.525 3538.44,-129.431 3538.44,-129.431"/>
</g>
<!-- 6 -->
<g id="s6" class="node"><title>6</title>
<g id="a_s6"><a xlink:href="./6.svg" xlink:title="6">
<ellipse fill="none" stroke="black" cx="2187.5" cy="-127" rx="21.5" ry="11"/>
<text text-anchor="middle" x="2187.5" y="-124.8" font-family="monospace" font-size="9.00">6</text>
</a>
</g>
</g>
<!-- 0&#45;&gt;6 -->
<g id="edge21" class="edge"><title>0&#45;&gt;6</title>
<path fill="none" stroke="black" d="M2714.69,-181.873C2629.49,-173.167 2307.44,-140.257 2213.42,-130.649"/>
<polygon fill="black" stroke="black" points="2208.33,-130.129 2213.54,-128.399 2210.82,-130.383 2213.31,-130.637 2213.31,-130.637 2213.31,-130.637 2210.82,-130.383 2213.08,-132.876 2208.33,-130.129 2208.33,-130.129"/>
</g>
<!-- 7 -->
<g id="s7" class="node"><title>7</title>
<g id="a_s7"><a xlink:href="./7.svg" xlink:title="7">
<ellipse fill="none" stroke="black" cx="1455.5" cy="-127" rx="21.5" ry="11"/>
<text text-anchor="middle" x="1455.5" y="-124.8" font-family="monospace" font-size="9.00">7</text>
</a>
</g>
</g>
<!-- 0&#45;&gt;7 -->
<g id="edge22" class="edge"><title>0&#45;&gt;7</title>
<path fill="none" stroke="black" d="M2714.09,-183.063C2562.31,-176.423 1650.2,-136.518 1482.12,-129.164"/>
<polygon fill="black" stroke="black" points="1476.9,-128.936 1482,-126.907 1479.4,-129.046 1481.9,-129.155 1481.9,-129.155 1481.9,-129.155 1479.4,-129.046 1481.8,-131.403 1476.9,-128.936 1476.9,-128.936"/>
</g>
<!-- 8 -->
<g id="s8" class="node"><title>8</title>
<g id="a_s8"><a xlink:href="./8.svg" xlink:title="8">
<ellipse fill="none" stroke="black" cx="2583.5" cy="-127" rx="21.5" ry="11"/>
<text text-anchor="middle" x="2583.5" y="-124.8" font-family="monospace" font-size="9.00">8</text>
</a>
</g>
</g>
<!-- 0&#45;&gt;8 -->
<g id="edge23" class="edge"><title>0&#45;&gt;8</title>
<path fill="none" stroke="black" d="M2718.94,-177.9C2691.3,-167.717 2635.78,-147.26 2605.1,-135.958"/>
<polygon fill="black" stroke="black" points="2600.04,-134.092 2605.51,-133.709 2602.38,-134.956 2604.73,-135.821 2604.73,-135.821 2604.73,-135.821 2602.38,-134.956 2603.95,-137.932 2600.04,-134.092 2600.04,-134.092"/>
</g>
<!-- 5 -->
<g id="s5" class="node"><title>5</title>
<g id="a_s5"><a xlink:href="./5.svg" xlink:title="5">
<ellipse fill="none" stroke="black" cx="2888.5" cy="-127" rx="21.5" ry="11"/>
<text text-anchor="middle" x="2888.5" y="-124.8" font-family="monospace" font-size="9.00">5</text>
</a>
</g>
</g>
<!-- 0&#45;&gt;5 -->
<g id="edge20" class="edge"><title>0&#45;&gt;5</title>
<path fill="none" stroke="black" d="M2752.16,-177.9C2780.1,-167.675 2836.34,-147.091 2867.14,-135.818"/>
<polygon fill="black" stroke="black" points="2871.86,-134.092 2867.93,-137.924 2869.51,-134.951 2867.16,-135.811 2867.16,-135.811 2867.16,-135.811 2869.51,-134.951 2866.39,-133.698 2871.86,-134.092 2871.86,-134.092"/>
</g>
<!-- 26 -->
<g id="s26" class="node"><title>26</title>
<g id="a_s26"><a xlink:href="./26.svg" xlink:title="26">
<ellipse fill="none" stroke="black" cx="479.5" cy="-69" rx="21.5" ry="11"/>
<text text-anchor="middle" x="479.5" y="-66.8" font-family="monospace" font-size="9.00">26</text>
</a>
</g>
</g>
<!-- 4&#45;&gt;26 -->
<g id="edge140" class="edge"><title>4&#45;&gt;26</title>
<path fill="none" stroke="black" d="M673.97,-121.128C635.163,-110.926 545.422,-87.3316 502.794,-76.1242"/>
<polygon fill="black" stroke="black" points="497.835,-74.8205 503.243,-73.9159 500.253,-75.4562 502.671,-76.092 502.671,-76.092 502.671,-76.092 500.253,-75.4562 502.099,-78.268 497.835,-74.8205 497.835,-74.8205"/>
</g>
<!-- 19 -->
<g id="s19" class="node"><title>19</title>
<g id="a_s19"><a xlink:href="./19.svg" xlink:title="19">
<ellipse fill="none" stroke="black" cx="936.5" cy="-69" rx="21.5" ry="11"/>
<text text-anchor="middle" x="936.5" y="-66.8" font-family="monospace" font-size="9.00">19</text>
</a>
</g>
</g>
<!-- 4&#45;&gt;19 -->
<g id="edge138" class="edge"><title>4&#45;&gt;19</title>
<path fill="none" stroke="black" d="M711.646,-121.606C755.655,-111.505 863.944,-86.6523 912.391,-75.5332"/>
<polygon fill="black" stroke="black" points="917.443,-74.3738 913.073,-77.6853 915.006,-74.9331 912.569,-75.4924 912.569,-75.4924 912.569,-75.4924 915.006,-74.9331 912.066,-73.2994 917.443,-74.3738 917.443,-74.3738"/>
</g>
<!-- 15 -->
<g id="s15" class="node"><title>15</title>
<g id="a_s15"><a xlink:href="./15.svg" xlink:title="15">
<ellipse fill="none" stroke="black" cx="692.5" cy="-69" rx="21.5" ry="11"/>
<text text-anchor="middle" x="692.5" y="-66.8" font-family="monospace" font-size="9.00">15</text>
</a>
</g>
</g>
<!-- 4&#45;&gt;15 -->
<g id="edge139" class="edge"><title>4&#45;&gt;15</title>
<path fill="none" stroke="black" d="M692.5,-115.988C692.5,-107.494 692.5,-95.1697 692.5,-85.4169"/>
<polygon fill="black" stroke="black" points="692.5,-80.3039 694.75,-85.3038 692.5,-82.8039 692.5,-85.3039 692.5,-85.3039 692.5,-85.3039 692.5,-82.8039 690.25,-85.3039 692.5,-80.3039 692.5,-80.3039"/>
</g>
<!-- 27 -->
<g id="s27" class="node"><title>27</title>
<g id="a_s27"><a xlink:href="./27.svg" xlink:title="27">
<ellipse fill="none" stroke="black" cx="326.5" cy="-69" rx="21.5" ry="11"/>
<text text-anchor="middle" x="326.5" y="-66.8" font-family="monospace" font-size="9.00">27</text>
</a>
</g>
</g>
<!-- 4&#45;&gt;27 -->
<g id="edge141" class="edge"><title>4&#45;&gt;27</title>
<path fill="none" stroke="black" d="M672.301,-122.909C609.936,-113.367 420.496,-84.3819 351.759,-73.8647"/>
<polygon fill="black" stroke="black" points="346.637,-73.081 351.919,-71.6132 349.108,-73.4592 351.579,-73.8373 351.579,-73.8373 351.579,-73.8373 349.108,-73.4592 351.239,-76.0614 346.637,-73.081 346.637,-73.081"/>
</g>
<!-- 90 -->
<g id="s90" class="node"><title>90</title>
<g id="a_s90"><a xlink:href="./90.svg" xlink:title="90">
<ellipse fill="none" stroke="black" cx="1363.5" cy="-11" rx="21.5" ry="11"/>
<text text-anchor="middle" x="1363.5" y="-8.8" font-family="monospace" font-size="9.00">90</text>
</a>
</g>
</g>
<!-- 38 -->
<g id="s38" class="node"><title>38</title>
<g id="a_s38"><a xlink:href="./38.svg" xlink:title="38">
<ellipse fill="none" stroke="black" cx="936.5" cy="-11" rx="21.5" ry="11"/>
<text text-anchor="middle" x="936.5" y="-8.8" font-family="monospace" font-size="9.00">38</text>
</a>
</g>
</g>
<!-- 96 -->
<g id="s96" class="node"><title>96</title>
<g id="a_s96"><a xlink:href="./96.svg" xlink:title="96">
<ellipse fill="none" stroke="black" cx="204.5" cy="-11" rx="21.5" ry="11"/>
<text text-anchor="middle" x="204.5" y="-8.8" font-family="monospace" font-size="9.00">96</text>
</a>
</g>
</g>
<!-- 99 -->
<g id="s99" class="node"><title>99</title>
<g id="a_s99"><a xlink:href="./99.svg" xlink:title="99">
<ellipse fill="none" stroke="black" cx="3681.5" cy="-11" rx="21.5" ry="11"/>
<text text-anchor="middle" x="3681.5" y="-8.8" font-family="monospace" font-size="9.00">99</text>
</a>
</g>
</g>
<!-- 78 -->
<g id="s78" class="node"><title>78</title>
<g id="a_s78"><a xlink:href="./78.svg" xlink:title="78">
<ellipse fill="none" stroke="black" cx="1241.5" cy="-11" rx="21.5" ry="11"/>
<text text-anchor="middle" x="1241.5" y="-8.8" font-family="monospace" font-size="9.00">78</text>
</a>
</g>
</g>
<!-- 72 -->
<g id="s72" class="node"><title>72</title>
<g id="a_s72"><a xlink:href="./72.svg" xlink:title="72">
<ellipse fill="none" stroke="black" cx="2034.5" cy="-11" rx="21.5" ry="11"/>
<text text-anchor="middle" x="2034.5" y="-8.8" font-family="monospace" font-size="9.00">72</text>
</a>
</g>
</g>
<!-- 73 -->
<g id="s73" class="node"><title>73</title>
<g id="a_s73"><a xlink:href="./73.svg" xlink:title="73">
<ellipse fill="none" stroke="black" cx="1790.5" cy="-11" rx="21.5" ry="11"/>
<text text-anchor="middle" x="1790.5" y="-8.8" font-family="monospace" font-size="9.00">73</text>
</a>
</g>
</g>
<!-- 64 -->
<g id="s64" class="node"><title>64</title>
<g id="a_s64"><a xlink:href="./64.svg" xlink:title="64">
<ellipse fill="none" stroke="black" cx="875.5" cy="-11" rx="21.5" ry="11"/>
<text text-anchor="middle" x="875.5" y="-8.8" font-family="monospace" font-size="9.00">64</text>
</a>
</g>
</g>
<!-- 59 -->
<g id="s59" class="node"><title>59</title>
<g id="a_s59"><a xlink:href="./59.svg" xlink:title="59">
<ellipse fill="none" stroke="black" cx="1180.5" cy="-11" rx="21.5" ry="11"/>
<text text-anchor="middle" x="1180.5" y="-8.8" font-family="monospace" font-size="9.00">59</text>
</a>
</g>
</g>
<!-- 51 -->
<g id="s51" class="node"><title>51</title>
<g id="a_s51"><a xlink:href="./51.svg" xlink:title="51">
<ellipse fill="none" stroke="black" cx="2339.5" cy="-11" rx="21.5" ry="11"/>
<text text-anchor="middle" x="2339.5" y="-8.8" font-family="monospace" font-size="9.00">51</text>
</a>
</g>
</g>
<!-- 46 -->
<g id="s46" class="node"><title>46</title>
<g id="a_s46"><a xlink:href="./46.svg" xlink:title="46">
<ellipse fill="none" stroke="black" cx="2583.5" cy="-11" rx="21.5" ry="11"/>
<text text-anchor="middle" x="2583.5" y="-8.8" font-family="monospace" font-size="9.00">46</text>
</a>
</g>
</g>
<!-- 24 -->
<g id="s24" class="node"><title>24</title>
<g id="a_s24"><a xlink:href="./24.svg" xlink:title="24">
<ellipse fill="none" stroke="black" cx="2949.5" cy="-69" rx="21.5" ry="11"/>
<text text-anchor="middle" x="2949.5" y="-66.8" font-family="monospace" font-size="9.00">24</text>
</a>
</g>
</g>
<!-- 24&#45;&gt;90 -->
<g id="edge95" class="edge"><title>24&#45;&gt;90</title>
<path fill="none" stroke="black" d="M2933.22,-61.5964C2928.83,-60.1414 2924.04,-58.7923 2919.5,-58 2585.34,0.279538 1727.66,-80.2795 1393.5,-22 1390.66,-21.5048 1387.72,-20.7921 1384.85,-19.972"/>
<polygon fill="black" stroke="black" points="1379.78,-18.4036 1385.22,-17.7311 1382.17,-19.1421 1384.55,-19.8807 1384.55,-19.8807 1384.55,-19.8807 1382.17,-19.1421 1383.89,-22.0303 1379.78,-18.4036 1379.78,-18.4036"/>
</g>
<!-- 88 -->
<g id="s88" class="node"><title>88</title>
<g id="a_s88"><a xlink:href="./88.svg" xlink:title="88">
<ellipse fill="none" stroke="black" cx="3132.5" cy="-11" rx="21.5" ry="11"/>
<text text-anchor="middle" x="3132.5" y="-8.8" font-family="monospace" font-size="9.00">88</text>
</a>
</g>
</g>
<!-- 24&#45;&gt;88 -->
<g id="edge93" class="edge"><title>24&#45;&gt;88</title>
<path fill="none" stroke="black" d="M2966.86,-62.3168C2971.3,-60.8858 2976.07,-59.3681 2980.5,-58 3034.52,-41.3207 3048.56,-38.9413 3102.5,-22 3105.12,-21.1774 3107.86,-20.2947 3110.57,-19.4067"/>
<polygon fill="black" stroke="black" points="3115.4,-17.8144 3111.36,-21.5178 3113.03,-18.5977 3110.65,-19.381 3110.65,-19.381 3110.65,-19.381 3113.03,-18.5977 3109.95,-17.2443 3115.4,-17.8144 3115.4,-17.8144"/>
</g>
<!-- 89 -->
<g id="s89" class="node"><title>89</title>
<g id="a_s89"><a xlink:href="./89.svg" xlink:title="89">
<ellipse fill="none" stroke="black" cx="3254.5" cy="-11" rx="21.5" ry="11"/>
<text text-anchor="middle" x="3254.5" y="-8.8" font-family="monospace" font-size="9.00">89</text>
</a>
</g>
</g>
<!-- 24&#45;&gt;89 -->
<g id="edge94" class="edge"><title>24&#45;&gt;89</title>
<path fill="none" stroke="black" d="M2966.41,-61.9854C2970.95,-60.5273 2975.87,-59.0795 2980.5,-58 3087.25,-33.0881 3117.87,-47.4298 3224.5,-22 3227.24,-21.3473 3230.08,-20.5551 3232.88,-19.7055"/>
<polygon fill="black" stroke="black" points="3237.83,-18.1319 3233.75,-21.7902 3235.45,-18.8889 3233.07,-19.6459 3233.07,-19.6459 3233.07,-19.6459 3235.45,-18.8889 3232.38,-17.5015 3237.83,-18.1319 3237.83,-18.1319"/>
</g>
<!-- 85 -->
<g id="s85" class="node"><title>85</title>
<g id="a_s85"><a xlink:href="./85.svg" xlink:title="85">
<ellipse fill="none" stroke="black" cx="3376.5" cy="-11" rx="21.5" ry="11"/>
<text text-anchor="middle" x="3376.5" y="-8.8" font-family="monospace" font-size="9.00">85</text>
</a>
</g>
</g>
<!-- 24&#45;&gt;85 -->
<g id="edge91" class="edge"><title>24&#45;&gt;85</title>
<path fill="none" stroke="black" d="M2966.06,-61.9374C2970.68,-60.4437 2975.74,-58.9902 2980.5,-58 3140.53,-24.7196 3186.64,-56.0568 3346.5,-22 3349.32,-21.3994 3352.24,-20.6246 3355.11,-19.7723"/>
<polygon fill="black" stroke="black" points="3360.18,-18.1753 3356.09,-21.8244 3357.79,-18.9269 3355.41,-19.6784 3355.41,-19.6784 3355.41,-19.6784 3357.79,-18.9269 3354.73,-17.5325 3360.18,-18.1753 3360.18,-18.1753"/>
</g>
<!-- 81 -->
<g id="s81" class="node"><title>81</title>
<g id="a_s81"><a xlink:href="./81.svg" xlink:title="81">
<ellipse fill="none" stroke="black" cx="2949.5" cy="-11" rx="21.5" ry="11"/>
<text text-anchor="middle" x="2949.5" y="-8.8" font-family="monospace" font-size="9.00">81</text>
</a>
</g>
</g>
<!-- 24&#45;&gt;81 -->
<g id="edge89" class="edge"><title>24&#45;&gt;81</title>
<path fill="none" stroke="black" d="M2949.5,-57.9883C2949.5,-49.4941 2949.5,-37.1697 2949.5,-27.4169"/>
<polygon fill="black" stroke="black" points="2949.5,-22.3039 2951.75,-27.3038 2949.5,-24.8039 2949.5,-27.3039 2949.5,-27.3039 2949.5,-27.3039 2949.5,-24.8039 2947.25,-27.3039 2949.5,-22.3039 2949.5,-22.3039"/>
</g>
<!-- 67 -->
<g id="s67" class="node"><title>67</title>
<g id="a_s67"><a xlink:href="./67.svg" xlink:title="67">
<ellipse fill="none" stroke="black" cx="2766.5" cy="-11" rx="21.5" ry="11"/>
<text text-anchor="middle" x="2766.5" y="-8.8" font-family="monospace" font-size="9.00">67</text>
</a>
</g>
</g>
<!-- 24&#45;&gt;67 -->
<g id="edge90" class="edge"><title>24&#45;&gt;67</title>
<path fill="none" stroke="black" d="M2932.4,-62.1856C2928.19,-60.7863 2923.69,-59.3162 2919.5,-58 2865.56,-41.0587 2851.52,-38.6793 2797.5,-22 2794.73,-21.1449 2791.83,-20.2314 2788.96,-19.3172"/>
<polygon fill="black" stroke="black" points="2783.86,-17.6832 2789.3,-17.0659 2786.24,-18.4459 2788.62,-19.2086 2788.62,-19.2086 2788.62,-19.2086 2786.24,-18.4459 2787.93,-21.3514 2783.86,-17.6832 2783.86,-17.6832"/>
</g>
<!-- 54 -->
<g id="s54" class="node"><title>54</title>
<g id="a_s54"><a xlink:href="./54.svg" xlink:title="54">
<ellipse fill="none" stroke="black" cx="3071.5" cy="-11" rx="21.5" ry="11"/>
<text text-anchor="middle" x="3071.5" y="-8.8" font-family="monospace" font-size="9.00">54</text>
</a>
</g>
</g>
<!-- 24&#45;&gt;54 -->
<g id="edge92" class="edge"><title>24&#45;&gt;54</title>
<path fill="none" stroke="black" d="M2964.95,-60.9076C2986.95,-50.809 3027.32,-32.2803 3051.55,-21.1563"/>
<polygon fill="black" stroke="black" points="3056.17,-19.0349 3052.57,-23.1656 3053.9,-20.0778 3051.63,-21.1207 3051.63,-21.1207 3051.63,-21.1207 3053.9,-20.0778 3050.69,-19.0759 3056.17,-19.0349 3056.17,-19.0349"/>
</g>
<!-- 84 -->
<g id="s84" class="node"><title>84</title>
<g id="a_s84"><a xlink:href="./84.svg" xlink:title="84">
<ellipse fill="none" stroke="black" cx="3437.5" cy="-11" rx="21.5" ry="11"/>
<text text-anchor="middle" x="3437.5" y="-8.8" font-family="monospace" font-size="9.00">84</text>
</a>
</g>
</g>
<!-- 80 -->
<g id="s80" class="node"><title>80</title>
<g id="a_s80"><a xlink:href="./80.svg" xlink:title="80">
<ellipse fill="none" stroke="black" cx="3010.5" cy="-11" rx="21.5" ry="11"/>
<text text-anchor="middle" x="3010.5" y="-8.8" font-family="monospace" font-size="9.00">80</text>
</a>
</g>
</g>
<!-- 66 -->
<g id="s66" class="node"><title>66</title>
<g id="a_s66"><a xlink:href="./66.svg" xlink:title="66">
<ellipse fill="none" stroke="black" cx="2827.5" cy="-11" rx="21.5" ry="11"/>
<text text-anchor="middle" x="2827.5" y="-8.8" font-family="monospace" font-size="9.00">66</text>
</a>
</g>
</g>
<!-- 53 -->
<g id="s53" class="node"><title>53</title>
<g id="a_s53"><a xlink:href="./53.svg" xlink:title="53">
<ellipse fill="none" stroke="black" cx="3193.5" cy="-11" rx="21.5" ry="11"/>
<text text-anchor="middle" x="3193.5" y="-8.8" font-family="monospace" font-size="9.00">53</text>
</a>
</g>
</g>
<!-- 26&#45;&gt;96 -->
<g id="edge83" class="edge"><title>26&#45;&gt;96</title>
<path fill="none" stroke="black" d="M459.288,-65.159C417.114,-59.0228 316.82,-43.342 234.5,-22 231.776,-21.2939 228.941,-20.4697 226.148,-19.603"/>
<polygon fill="black" stroke="black" points="221.198,-18.0135 226.647,-17.4002 223.579,-18.778 225.959,-19.5425 225.959,-19.5425 225.959,-19.5425 223.579,-18.778 225.271,-21.6847 221.198,-18.0135 221.198,-18.0135"/>
</g>
<!-- 95 -->
<g id="s95" class="node"><title>95</title>
<g id="a_s95"><a xlink:href="./95.svg" xlink:title="95">
<ellipse fill="none" stroke="black" cx="326.5" cy="-11" rx="21.5" ry="11"/>
<text text-anchor="middle" x="326.5" y="-8.8" font-family="monospace" font-size="9.00">95</text>
</a>
</g>
</g>
<!-- 26&#45;&gt;95 -->
<g id="edge82" class="edge"><title>26&#45;&gt;95</title>
<path fill="none" stroke="black" d="M462.835,-61.9004C434.899,-51.6753 378.659,-31.0909 347.861,-19.8183"/>
<polygon fill="black" stroke="black" points="343.144,-18.0921 348.613,-17.6978 345.492,-18.9514 347.84,-19.8107 347.84,-19.8107 347.84,-19.8107 345.492,-18.9514 347.066,-21.9236 343.144,-18.0921 343.144,-18.0921"/>
</g>
<!-- 82 -->
<g id="s82" class="node"><title>82</title>
<g id="a_s82"><a xlink:href="./82.svg" xlink:title="82">
<ellipse fill="none" stroke="black" cx="509.5" cy="-11" rx="21.5" ry="11"/>
<text text-anchor="middle" x="509.5" y="-8.8" font-family="monospace" font-size="9.00">82</text>
</a>
</g>
</g>
<!-- 26&#45;&gt;82 -->
<g id="edge79" class="edge"><title>26&#45;&gt;82</title>
<path fill="none" stroke="black" d="M484.726,-58.2455C489.4,-49.5202 496.317,-36.6082 501.655,-26.6435"/>
<polygon fill="black" stroke="black" points="504.132,-22.0198 503.754,-27.4897 502.952,-24.2235 501.771,-26.4272 501.771,-26.4272 501.771,-26.4272 502.952,-24.2235 499.788,-25.3646 504.132,-22.0198 504.132,-22.0198"/>
</g>
<!-- 68 -->
<g id="s68" class="node"><title>68</title>
<g id="a_s68"><a xlink:href="./68.svg" xlink:title="68">
<ellipse fill="none" stroke="black" cx="448.5" cy="-11" rx="21.5" ry="11"/>
<text text-anchor="middle" x="448.5" y="-8.8" font-family="monospace" font-size="9.00">68</text>
</a>
</g>
</g>
<!-- 26&#45;&gt;68 -->
<g id="edge80" class="edge"><title>26&#45;&gt;68</title>
<path fill="none" stroke="black" d="M474.1,-58.2455C469.27,-49.5202 462.122,-36.6082 456.606,-26.6435"/>
<polygon fill="black" stroke="black" points="454.047,-22.0198 458.437,-25.3045 455.257,-24.207 456.468,-26.3942 456.468,-26.3942 456.468,-26.3942 455.257,-24.207 454.5,-27.484 454.047,-22.0198 454.047,-22.0198"/>
</g>
<!-- 55 -->
<g id="s55" class="node"><title>55</title>
<g id="a_s55"><a xlink:href="./55.svg" xlink:title="55">
<ellipse fill="none" stroke="black" cx="814.5" cy="-11" rx="21.5" ry="11"/>
<text text-anchor="middle" x="814.5" y="-8.8" font-family="monospace" font-size="9.00">55</text>
</a>
</g>
</g>
<!-- 26&#45;&gt;55 -->
<g id="edge81" class="edge"><title>26&#45;&gt;55</title>
<path fill="none" stroke="black" d="M500.362,-66.02C549.944,-61.06 678.542,-46.6981 783.5,-22 786.534,-21.286 789.699,-20.4157 792.798,-19.4897"/>
<polygon fill="black" stroke="black" points="797.585,-18.0031 793.477,-21.635 795.197,-18.7446 792.81,-19.4862 792.81,-19.4862 792.81,-19.4862 795.197,-18.7446 792.142,-17.3375 797.585,-18.0031 797.585,-18.0031"/>
</g>
<!-- 14 -->
<g id="s14" class="node"><title>14</title>
<g id="a_s14"><a xlink:href="./14.svg" xlink:title="14">
<ellipse fill="none" stroke="black" cx="2766.5" cy="-69" rx="21.5" ry="11"/>
<text text-anchor="middle" x="2766.5" y="-66.8" font-family="monospace" font-size="9.00">14</text>
</a>
</g>
</g>
<!-- 14&#45;&gt;38 -->
<g id="edge131" class="edge"><title>14&#45;&gt;38</title>
<path fill="none" stroke="black" d="M2750.22,-61.5864C2745.84,-60.1314 2741.04,-58.785 2736.5,-58 2348.83,8.96334 1354.17,-88.9633 966.5,-22 963.66,-21.5094 960.723,-20.7995 957.848,-19.9808"/>
<polygon fill="black" stroke="black" points="952.776,-18.4136 958.217,-17.7398 955.164,-19.1516 957.553,-19.8896 957.553,-19.8896 957.553,-19.8896 955.164,-19.1516 956.889,-22.0393 952.776,-18.4136 952.776,-18.4136"/>
</g>
<!-- 39 -->
<g id="s39" class="node"><title>39</title>
<g id="a_s39"><a xlink:href="./39.svg" xlink:title="39">
<ellipse fill="none" stroke="black" cx="2888.5" cy="-11" rx="21.5" ry="11"/>
<text text-anchor="middle" x="2888.5" y="-8.8" font-family="monospace" font-size="9.00">39</text>
</a>
</g>
</g>
<!-- 14&#45;&gt;39 -->
<g id="edge132" class="edge"><title>14&#45;&gt;39</title>
<path fill="none" stroke="black" d="M2781.95,-60.9076C2803.95,-50.809 2844.32,-32.2803 2868.55,-21.1563"/>
<polygon fill="black" stroke="black" points="2873.17,-19.0349 2869.57,-23.1656 2870.9,-20.0778 2868.63,-21.1207 2868.63,-21.1207 2868.63,-21.1207 2870.9,-20.0778 2867.69,-19.0759 2873.17,-19.0349 2873.17,-19.0349"/>
</g>
<!-- 91 -->
<g id="s91" class="node"><title>91</title>
<g id="a_s91"><a xlink:href="./91.svg" xlink:title="91">
<ellipse fill="none" stroke="black" cx="3315.5" cy="-11" rx="21.5" ry="11"/>
<text text-anchor="middle" x="3315.5" y="-8.8" font-family="monospace" font-size="9.00">91</text>
</a>
</g>
</g>
<!-- 41 -->
<g id="s41" class="node"><title>41</title>
<g id="a_s41"><a xlink:href="./41.svg" xlink:title="41">
<ellipse fill="none" stroke="black" cx="2400.5" cy="-11" rx="21.5" ry="11"/>
<text text-anchor="middle" x="2400.5" y="-8.8" font-family="monospace" font-size="9.00">41</text>
</a>
</g>
</g>
<!-- 35 -->
<g id="s35" class="node"><title>35</title>
<g id="a_s35"><a xlink:href="./35.svg" xlink:title="35">
<ellipse fill="none" stroke="black" cx="3498.5" cy="-69" rx="21.5" ry="11"/>
<text text-anchor="middle" x="3498.5" y="-66.8" font-family="monospace" font-size="9.00">35</text>
</a>
</g>
</g>
<!-- 29 -->
<g id="s29" class="node"><title>29</title>
<g id="a_s29"><a xlink:href="./29.svg" xlink:title="29">
<ellipse fill="none" stroke="black" cx="3620.5" cy="-69" rx="21.5" ry="11"/>
<text text-anchor="middle" x="3620.5" y="-66.8" font-family="monospace" font-size="9.00">29</text>
</a>
</g>
</g>
<!-- 25 -->
<g id="s25" class="node"><title>25</title>
<g id="a_s25"><a xlink:href="./25.svg" xlink:title="25">
<ellipse fill="none" stroke="black" cx="3071.5" cy="-69" rx="21.5" ry="11"/>
<text text-anchor="middle" x="3071.5" y="-66.8" font-family="monospace" font-size="9.00">25</text>
</a>
</g>
</g>
<!-- 25&#45;&gt;84 -->
<g id="edge143" class="edge"><title>25&#45;&gt;84</title>
<path fill="none" stroke="black" d="M3088.39,-61.8944C3092.93,-60.437 3097.86,-59.0124 3102.5,-58 3235.86,-28.9101 3274.28,-51.737 3407.5,-22 3410.25,-21.387 3413.09,-20.6187 3415.9,-19.7818"/>
<polygon fill="black" stroke="black" points="3420.85,-18.22 3416.76,-21.8688 3418.47,-18.9714 3416.08,-19.7229 3416.08,-19.7229 3416.08,-19.7229 3418.47,-18.9714 3415.41,-17.5769 3420.85,-18.22 3420.85,-18.22"/>
</g>
<!-- 25&#45;&gt;39 -->
<g id="edge142" class="edge"><title>25&#45;&gt;39</title>
<path fill="none" stroke="black" d="M3054.4,-62.1856C3050.19,-60.7863 3045.69,-59.3162 3041.5,-58 2987.56,-41.0587 2973.52,-38.6793 2919.5,-22 2916.73,-21.1449 2913.83,-20.2314 2910.96,-19.3172"/>
<polygon fill="black" stroke="black" points="2905.86,-17.6832 2911.3,-17.0659 2908.24,-18.4459 2910.62,-19.2086 2910.62,-19.2086 2910.62,-19.2086 2908.24,-18.4459 2909.93,-21.3514 2905.86,-17.6832 2905.86,-17.6832"/>
</g>
<!-- 25&#45;&gt;85 -->
<g id="edge144" class="edge"><title>25&#45;&gt;85</title>
<path fill="none" stroke="black" d="M3088.41,-61.9854C3092.95,-60.5273 3097.87,-59.0795 3102.5,-58 3209.25,-33.0881 3239.87,-47.4298 3346.5,-22 3349.24,-21.3473 3352.08,-20.5551 3354.88,-19.7055"/>
<polygon fill="black" stroke="black" points="3359.83,-18.1319 3355.75,-21.7902 3357.45,-18.8889 3355.07,-19.6459 3355.07,-19.6459 3355.07,-19.6459 3357.45,-18.8889 3354.38,-17.5015 3359.83,-18.1319 3359.83,-18.1319"/>
</g>
<!-- 86 -->
<g id="s86" class="node"><title>86</title>
<g id="a_s86"><a xlink:href="./86.svg" xlink:title="86">
<ellipse fill="none" stroke="black" cx="3498.5" cy="-11" rx="21.5" ry="11"/>
<text text-anchor="middle" x="3498.5" y="-8.8" font-family="monospace" font-size="9.00">86</text>
</a>
</g>
</g>
<!-- 25&#45;&gt;86 -->
<g id="edge145" class="edge"><title>25&#45;&gt;86</title>
<path fill="none" stroke="black" d="M3088.06,-61.9374C3092.68,-60.4437 3097.74,-58.9902 3102.5,-58 3262.53,-24.7196 3308.64,-56.0568 3468.5,-22 3471.32,-21.3994 3474.24,-20.6246 3477.11,-19.7723"/>
<polygon fill="black" stroke="black" points="3482.18,-18.1753 3478.09,-21.8244 3479.79,-18.9269 3477.41,-19.6784 3477.41,-19.6784 3477.41,-19.6784 3479.79,-18.9269 3476.73,-17.5325 3482.18,-18.1753 3482.18,-18.1753"/>
</g>
<!-- 87 -->
<g id="s87" class="node"><title>87</title>
<g id="a_s87"><a xlink:href="./87.svg" xlink:title="87">
<ellipse fill="none" stroke="black" cx="3559.5" cy="-11" rx="21.5" ry="11"/>
<text text-anchor="middle" x="3559.5" y="-8.8" font-family="monospace" font-size="9.00">87</text>
</a>
</g>
</g>
<!-- 25&#45;&gt;87 -->
<g id="edge146" class="edge"><title>25&#45;&gt;87</title>
<path fill="none" stroke="black" d="M3088.05,-61.8935C3092.67,-60.3996 3097.73,-58.957 3102.5,-58 3289.23,-20.5224 3342.96,-60.3836 3529.5,-22 3532.32,-21.4191 3535.25,-20.6559 3538.12,-19.8096"/>
<polygon fill="black" stroke="black" points="3543.19,-18.2179 3539.09,-21.8628 3540.8,-18.967 3538.42,-19.7161 3538.42,-19.7161 3538.42,-19.7161 3540.8,-18.967 3537.74,-17.5695 3543.19,-18.2179 3543.19,-18.2179"/>
</g>
<!-- 20 -->
<g id="s20" class="node"><title>20</title>
<g id="a_s20"><a xlink:href="./20.svg" xlink:title="20">
<ellipse fill="none" stroke="black" cx="2827.5" cy="-69" rx="21.5" ry="11"/>
<text text-anchor="middle" x="2827.5" y="-66.8" font-family="monospace" font-size="9.00">20</text>
</a>
</g>
</g>
<!-- 20&#45;&gt;80 -->
<g id="edge4" class="edge"><title>20&#45;&gt;80</title>
<path fill="none" stroke="black" d="M2844.86,-62.3168C2849.3,-60.8858 2854.07,-59.3681 2858.5,-58 2912.52,-41.3207 2926.56,-38.9413 2980.5,-22 2983.12,-21.1774 2985.86,-20.2947 2988.57,-19.4067"/>
<polygon fill="black" stroke="black" points="2993.4,-17.8144 2989.36,-21.5178 2991.03,-18.5977 2988.65,-19.381 2988.65,-19.381 2988.65,-19.381 2991.03,-18.5977 2987.95,-17.2443 2993.4,-17.8144 2993.4,-17.8144"/>
</g>
<!-- 20&#45;&gt;39 -->
<g id="edge3" class="edge"><title>20&#45;&gt;39</title>
<path fill="none" stroke="black" d="M2837.3,-59.0026C2847.38,-49.7505 2863.17,-35.2571 2874.55,-24.8098"/>
<polygon fill="black" stroke="black" points="2878.52,-21.1611 2876.36,-26.1999 2876.68,-22.8518 2874.84,-24.5425 2874.84,-24.5425 2874.84,-24.5425 2876.68,-22.8518 2873.32,-22.885 2878.52,-21.1611 2878.52,-21.1611"/>
</g>
<!-- 20&#45;&gt;81 -->
<g id="edge5" class="edge"><title>20&#45;&gt;81</title>
<path fill="none" stroke="black" d="M2842.95,-60.9076C2864.95,-50.809 2905.32,-32.2803 2929.55,-21.1563"/>
<polygon fill="black" stroke="black" points="2934.17,-19.0349 2930.57,-23.1656 2931.9,-20.0778 2929.63,-21.1207 2929.63,-21.1207 2929.63,-21.1207 2931.9,-20.0778 2928.69,-19.0759 2934.17,-19.0349 2934.17,-19.0349"/>
</g>
<!-- 77 -->
<g id="s77" class="node"><title>77</title>
<g id="a_s77"><a xlink:href="./77.svg" xlink:title="77">
<ellipse fill="none" stroke="black" cx="1973.5" cy="-11" rx="21.5" ry="11"/>
<text text-anchor="middle" x="1973.5" y="-8.8" font-family="monospace" font-size="9.00">77</text>
</a>
</g>
</g>
<!-- 20&#45;&gt;77 -->
<g id="edge1" class="edge"><title>20&#45;&gt;77</title>
<path fill="none" stroke="black" d="M2811.21,-61.6634C2806.82,-60.2078 2802.03,-58.8418 2797.5,-58 2450.62,6.39768 2351.69,-84.7131 2004.5,-22 2001.36,-21.4327 1998.1,-20.6295 1994.92,-19.722"/>
<polygon fill="black" stroke="black" points="1990.02,-18.229 1995.46,-17.5357 1992.41,-18.9584 1994.81,-19.6878 1994.81,-19.6878 1994.81,-19.6878 1992.41,-18.9584 1994.15,-21.8399 1990.02,-18.229 1990.02,-18.229"/>
</g>
<!-- 71 -->
<g id="s71" class="node"><title>71</title>
<g id="a_s71"><a xlink:href="./71.svg" xlink:title="71">
<ellipse fill="none" stroke="black" cx="2095.5" cy="-11" rx="21.5" ry="11"/>
<text text-anchor="middle" x="2095.5" y="-8.8" font-family="monospace" font-size="9.00">71</text>
</a>
</g>
</g>
<!-- 20&#45;&gt;71 -->
<g id="edge2" class="edge"><title>20&#45;&gt;71</title>
<path fill="none" stroke="black" d="M2811.21,-61.6886C2806.82,-60.2329 2802.03,-58.8604 2797.5,-58 2504.09,-2.27904 2420.17,-76.2961 2126.5,-22 2123.36,-21.4198 2120.1,-20.6093 2116.92,-19.6984"/>
<polygon fill="black" stroke="black" points="2112.03,-18.2029 2117.47,-17.5123 2114.42,-18.9335 2116.81,-19.6641 2116.81,-19.6641 2116.81,-19.6641 2114.42,-18.9335 2116.15,-21.8159 2112.03,-18.2029 2112.03,-18.2029"/>
</g>
<!-- 16 -->
<g id="s16" class="node"><title>16</title>
<g id="a_s16"><a xlink:href="./16.svg" xlink:title="16">
<ellipse fill="none" stroke="black" cx="2705.5" cy="-69" rx="21.5" ry="11"/>
<text text-anchor="middle" x="2705.5" y="-66.8" font-family="monospace" font-size="9.00">16</text>
</a>
</g>
</g>
<!-- 16&#45;&gt;66 -->
<g id="edge99" class="edge"><title>16&#45;&gt;66</title>
<path fill="none" stroke="black" d="M2720.95,-60.9076C2742.95,-50.809 2783.32,-32.2803 2807.55,-21.1563"/>
<polygon fill="black" stroke="black" points="2812.17,-19.0349 2808.57,-23.1656 2809.9,-20.0778 2807.63,-21.1207 2807.63,-21.1207 2807.63,-21.1207 2809.9,-20.0778 2806.69,-19.0759 2812.17,-19.0349 2812.17,-19.0349"/>
</g>
<!-- 16&#45;&gt;39 -->
<g id="edge98" class="edge"><title>16&#45;&gt;39</title>
<path fill="none" stroke="black" d="M2722.86,-62.3168C2727.3,-60.8858 2732.07,-59.3681 2736.5,-58 2790.52,-41.3207 2804.56,-38.9413 2858.5,-22 2861.12,-21.1774 2863.86,-20.2947 2866.57,-19.4067"/>
<polygon fill="black" stroke="black" points="2871.4,-17.8144 2867.36,-21.5178 2869.03,-18.5977 2866.65,-19.381 2866.65,-19.381 2866.65,-19.381 2869.03,-18.5977 2865.95,-17.2443 2871.4,-17.8144 2871.4,-17.8144"/>
</g>
<!-- 16&#45;&gt;67 -->
<g id="edge100" class="edge"><title>16&#45;&gt;67</title>
<path fill="none" stroke="black" d="M2715.3,-59.0026C2725.38,-49.7505 2741.17,-35.2571 2752.55,-24.8098"/>
<polygon fill="black" stroke="black" points="2756.52,-21.1611 2754.36,-26.1999 2754.68,-22.8518 2752.84,-24.5425 2752.84,-24.5425 2752.84,-24.5425 2754.68,-22.8518 2751.32,-22.885 2756.52,-21.1611 2756.52,-21.1611"/>
</g>
<!-- 63 -->
<g id="s63" class="node"><title>63</title>
<g id="a_s63"><a xlink:href="./63.svg" xlink:title="63">
<ellipse fill="none" stroke="black" cx="1424.5" cy="-11" rx="21.5" ry="11"/>
<text text-anchor="middle" x="1424.5" y="-8.8" font-family="monospace" font-size="9.00">63</text>
</a>
</g>
</g>
<!-- 16&#45;&gt;63 -->
<g id="edge96" class="edge"><title>16&#45;&gt;63</title>
<path fill="none" stroke="black" d="M2684.94,-65.275C2666.52,-62.9452 2638.76,-59.7066 2614.5,-58 2357.23,-39.9004 1708.4,-67.2552 1454.5,-22 1451.66,-21.4942 1448.73,-20.7753 1445.85,-19.952"/>
<polygon fill="black" stroke="black" points="1440.78,-18.3807 1446.22,-17.7112 1443.17,-19.1206 1445.56,-19.8604 1445.56,-19.8604 1445.56,-19.8604 1443.17,-19.1206 1444.89,-22.0096 1440.78,-18.3807 1440.78,-18.3807"/>
</g>
<!-- 58 -->
<g id="s58" class="node"><title>58</title>
<g id="a_s58"><a xlink:href="./58.svg" xlink:title="58">
<ellipse fill="none" stroke="black" cx="1485.5" cy="-11" rx="21.5" ry="11"/>
<text text-anchor="middle" x="1485.5" y="-8.8" font-family="monospace" font-size="9.00">58</text>
</a>
</g>
</g>
<!-- 16&#45;&gt;58 -->
<g id="edge97" class="edge"><title>16&#45;&gt;58</title>
<path fill="none" stroke="black" d="M2684.94,-65.2851C2666.52,-62.962 2638.76,-59.7275 2614.5,-58 2370.76,-40.6416 1756.02,-65.0847 1515.5,-22 1512.66,-21.4918 1509.73,-20.7715 1506.85,-19.9474"/>
<polygon fill="black" stroke="black" points="1501.78,-18.3754 1507.22,-17.7066 1504.17,-19.1156 1506.56,-19.8557 1506.56,-19.8557 1506.56,-19.8557 1504.17,-19.1156 1505.89,-22.0049 1501.78,-18.3754 1501.78,-18.3754"/>
</g>
<!-- 10 -->
<g id="s10" class="node"><title>10</title>
<g id="a_s10"><a xlink:href="./10.svg" xlink:title="10">
<ellipse fill="none" stroke="black" cx="2888.5" cy="-69" rx="21.5" ry="11"/>
<text text-anchor="middle" x="2888.5" y="-66.8" font-family="monospace" font-size="9.00">10</text>
</a>
</g>
</g>
<!-- 10&#45;&gt;53 -->
<g id="edge28" class="edge"><title>10&#45;&gt;53</title>
<path fill="none" stroke="black" d="M2905.41,-61.9854C2909.95,-60.5273 2914.87,-59.0795 2919.5,-58 3026.25,-33.0881 3056.87,-47.4298 3163.5,-22 3166.24,-21.3473 3169.08,-20.5551 3171.88,-19.7055"/>
<polygon fill="black" stroke="black" points="3176.83,-18.1319 3172.75,-21.7902 3174.45,-18.8889 3172.07,-19.6459 3172.07,-19.6459 3172.07,-19.6459 3174.45,-18.8889 3171.38,-17.5015 3176.83,-18.1319 3176.83,-18.1319"/>
</g>
<!-- 10&#45;&gt;41 -->
<g id="edge26" class="edge"><title>10&#45;&gt;41</title>
<path fill="none" stroke="black" d="M2872.19,-61.7821C2867.8,-60.3256 2863.02,-58.9294 2858.5,-58 2671.96,-19.6164 2618.23,-59.4776 2431.5,-22 2428.37,-21.372 2425.11,-20.5348 2421.94,-19.6113"/>
<polygon fill="black" stroke="black" points="2417.05,-18.1065 2422.49,-17.4258 2419.44,-18.8415 2421.83,-19.5764 2421.83,-19.5764 2421.83,-19.5764 2419.44,-18.8415 2421.16,-21.727 2417.05,-18.1065 2417.05,-18.1065"/>
</g>
<!-- 10&#45;&gt;39 -->
<g id="edge27" class="edge"><title>10&#45;&gt;39</title>
<path fill="none" stroke="black" d="M2888.5,-57.9883C2888.5,-49.4941 2888.5,-37.1697 2888.5,-27.4169"/>
<polygon fill="black" stroke="black" points="2888.5,-22.3039 2890.75,-27.3038 2888.5,-24.8039 2888.5,-27.3039 2888.5,-27.3039 2888.5,-27.3039 2888.5,-24.8039 2886.25,-27.3039 2888.5,-22.3039 2888.5,-22.3039"/>
</g>
<!-- 10&#45;&gt;54 -->
<g id="edge29" class="edge"><title>10&#45;&gt;54</title>
<path fill="none" stroke="black" d="M2905.86,-62.3168C2910.3,-60.8858 2915.07,-59.3681 2919.5,-58 2973.52,-41.3207 2987.56,-38.9413 3041.5,-22 3044.12,-21.1774 3046.86,-20.2947 3049.57,-19.4067"/>
<polygon fill="black" stroke="black" points="3054.4,-17.8144 3050.36,-21.5178 3052.03,-18.5977 3049.65,-19.381 3049.65,-19.381 3049.65,-19.381 3052.03,-18.5977 3048.95,-17.2443 3054.4,-17.8144 3054.4,-17.8144"/>
</g>
<!-- 50 -->
<g id="s50" class="node"><title>50</title>
<g id="a_s50"><a xlink:href="./50.svg" xlink:title="50">
<ellipse fill="none" stroke="black" cx="2522.5" cy="-11" rx="21.5" ry="11"/>
<text text-anchor="middle" x="2522.5" y="-8.8" font-family="monospace" font-size="9.00">50</text>
</a>
</g>
</g>
<!-- 10&#45;&gt;50 -->
<g id="edge24" class="edge"><title>10&#45;&gt;50</title>
<path fill="none" stroke="black" d="M2871.85,-61.78C2867.55,-60.3592 2862.89,-58.9808 2858.5,-58 2725.28,-28.263 2686.86,-51.0899 2553.5,-22 2550.45,-21.3356 2547.28,-20.4937 2544.18,-19.5815"/>
<polygon fill="black" stroke="black" points="2539.39,-18.1056 2544.83,-17.4281 2541.78,-18.8419 2544.17,-19.5783 2544.17,-19.5783 2544.17,-19.5783 2541.78,-18.8419 2543.51,-21.7285 2539.39,-18.1056 2539.39,-18.1056"/>
</g>
<!-- 45 -->
<g id="s45" class="node"><title>45</title>
<g id="a_s45"><a xlink:href="./45.svg" xlink:title="45">
<ellipse fill="none" stroke="black" cx="2705.5" cy="-11" rx="21.5" ry="11"/>
<text text-anchor="middle" x="2705.5" y="-8.8" font-family="monospace" font-size="9.00">45</text>
</a>
</g>
</g>
<!-- 10&#45;&gt;45 -->
<g id="edge25" class="edge"><title>10&#45;&gt;45</title>
<path fill="none" stroke="black" d="M2871.4,-62.1856C2867.19,-60.7863 2862.69,-59.3162 2858.5,-58 2804.56,-41.0587 2790.52,-38.6793 2736.5,-22 2733.73,-21.1449 2730.83,-20.2314 2727.96,-19.3172"/>
<polygon fill="black" stroke="black" points="2722.86,-17.6832 2728.3,-17.0659 2725.24,-18.4459 2727.62,-19.2086 2727.62,-19.2086 2727.62,-19.2086 2725.24,-18.4459 2726.93,-21.3514 2722.86,-17.6832 2722.86,-17.6832"/>
</g>
<!-- 92 -->
<g id="s92" class="node"><title>92</title>
<g id="a_s92"><a xlink:href="./92.svg" xlink:title="92">
<ellipse fill="none" stroke="black" cx="143.5" cy="-11" rx="21.5" ry="11"/>
<text text-anchor="middle" x="143.5" y="-8.8" font-family="monospace" font-size="9.00">92</text>
</a>
</g>
</g>
<!-- 93 -->
<g id="s93" class="node"><title>93</title>
<g id="a_s93"><a xlink:href="./93.svg" xlink:title="93">
<ellipse fill="none" stroke="black" cx="21.5" cy="-11" rx="21.5" ry="11"/>
<text text-anchor="middle" x="21.5" y="-8.8" font-family="monospace" font-size="9.00">93</text>
</a>
</g>
</g>
<!-- 94 -->
<g id="s94" class="node"><title>94</title>
<g id="a_s94"><a xlink:href="./94.svg" xlink:title="94">
<ellipse fill="none" stroke="black" cx="82.5" cy="-11" rx="21.5" ry="11"/>
<text text-anchor="middle" x="82.5" y="-8.8" font-family="monospace" font-size="9.00">94</text>
</a>
</g>
</g>
<!-- 83 -->
<g id="s83" class="node"><title>83</title>
<g id="a_s83"><a xlink:href="./83.svg" xlink:title="83">
<ellipse fill="none" stroke="black" cx="387.5" cy="-11" rx="21.5" ry="11"/>
<text text-anchor="middle" x="387.5" y="-8.8" font-family="monospace" font-size="9.00">83</text>
</a>
</g>
</g>
<!-- 69 -->
<g id="s69" class="node"><title>69</title>
<g id="a_s69"><a xlink:href="./69.svg" xlink:title="69">
<ellipse fill="none" stroke="black" cx="265.5" cy="-11" rx="21.5" ry="11"/>
<text text-anchor="middle" x="265.5" y="-8.8" font-family="monospace" font-size="9.00">69</text>
</a>
</g>
</g>
<!-- 56 -->
<g id="s56" class="node"><title>56</title>
<g id="a_s56"><a xlink:href="./56.svg" xlink:title="56">
<ellipse fill="none" stroke="black" cx="570.5" cy="-11" rx="21.5" ry="11"/>
<text text-anchor="middle" x="570.5" y="-8.8" font-family="monospace" font-size="9.00">56</text>
</a>
</g>
</g>
<!-- 23 -->
<g id="s23" class="node"><title>23</title>
<g id="a_s23"><a xlink:href="./23.svg" xlink:title="23">
<ellipse fill="none" stroke="black" cx="3010.5" cy="-69" rx="21.5" ry="11"/>
<text text-anchor="middle" x="3010.5" y="-66.8" font-family="monospace" font-size="9.00">23</text>
</a>
</g>
</g>
<!-- 23&#45;&gt;84 -->
<g id="edge105" class="edge"><title>23&#45;&gt;84</title>
<path fill="none" stroke="black" d="M3027.06,-61.9374C3031.68,-60.4437 3036.74,-58.9902 3041.5,-58 3201.53,-24.7196 3247.64,-56.0568 3407.5,-22 3410.32,-21.3994 3413.24,-20.6246 3416.11,-19.7723"/>
<polygon fill="black" stroke="black" points="3421.18,-18.1753 3417.09,-21.8244 3418.79,-18.9269 3416.41,-19.6784 3416.41,-19.6784 3416.41,-19.6784 3418.79,-18.9269 3415.73,-17.5325 3421.18,-18.1753 3421.18,-18.1753"/>
</g>
<!-- 23&#45;&gt;80 -->
<g id="edge106" class="edge"><title>23&#45;&gt;80</title>
<path fill="none" stroke="black" d="M3010.5,-57.9883C3010.5,-49.4941 3010.5,-37.1697 3010.5,-27.4169"/>
<polygon fill="black" stroke="black" points="3010.5,-22.3039 3012.75,-27.3038 3010.5,-24.8039 3010.5,-27.3039 3010.5,-27.3039 3010.5,-27.3039 3010.5,-24.8039 3008.25,-27.3039 3010.5,-22.3039 3010.5,-22.3039"/>
</g>
<!-- 23&#45;&gt;66 -->
<g id="edge107" class="edge"><title>23&#45;&gt;66</title>
<path fill="none" stroke="black" d="M2993.4,-62.1856C2989.19,-60.7863 2984.69,-59.3162 2980.5,-58 2926.56,-41.0587 2912.52,-38.6793 2858.5,-22 2855.73,-21.1449 2852.83,-20.2314 2849.96,-19.3172"/>
<polygon fill="black" stroke="black" points="2844.86,-17.6832 2850.3,-17.0659 2847.24,-18.4459 2849.62,-19.2086 2849.62,-19.2086 2849.62,-19.2086 2847.24,-18.4459 2848.93,-21.3514 2844.86,-17.6832 2844.86,-17.6832"/>
</g>
<!-- 23&#45;&gt;53 -->
<g id="edge108" class="edge"><title>23&#45;&gt;53</title>
<path fill="none" stroke="black" d="M3027.86,-62.3168C3032.3,-60.8858 3037.07,-59.3681 3041.5,-58 3095.52,-41.3207 3109.56,-38.9413 3163.5,-22 3166.12,-21.1774 3168.86,-20.2947 3171.57,-19.4067"/>
<polygon fill="black" stroke="black" points="3176.4,-17.8144 3172.36,-21.5178 3174.03,-18.5977 3171.65,-19.381 3171.65,-19.381 3171.65,-19.381 3174.03,-18.5977 3170.95,-17.2443 3176.4,-17.8144 3176.4,-17.8144"/>
</g>
<!-- 23&#45;&gt;91 -->
<g id="edge109" class="edge"><title>23&#45;&gt;91</title>
<path fill="none" stroke="black" d="M3027.41,-61.9854C3031.95,-60.5273 3036.87,-59.0795 3041.5,-58 3148.25,-33.0881 3178.87,-47.4298 3285.5,-22 3288.24,-21.3473 3291.08,-20.5551 3293.88,-19.7055"/>
<polygon fill="black" stroke="black" points="3298.83,-18.1319 3294.75,-21.7902 3296.45,-18.8889 3294.07,-19.6459 3294.07,-19.6459 3294.07,-19.6459 3296.45,-18.8889 3293.38,-17.5015 3298.83,-18.1319 3298.83,-18.1319"/>
</g>
<!-- 36 -->
<g id="s36" class="node"><title>36</title>
<g id="a_s36"><a xlink:href="./36.svg" xlink:title="36">
<ellipse fill="none" stroke="black" cx="3315.5" cy="-69" rx="21.5" ry="11"/>
<text text-anchor="middle" x="3315.5" y="-66.8" font-family="monospace" font-size="9.00">36</text>
</a>
</g>
</g>
<!-- 37 -->
<g id="s37" class="node"><title>37</title>
<g id="a_s37"><a xlink:href="./37.svg" xlink:title="37">
<ellipse fill="none" stroke="black" cx="3376.5" cy="-69" rx="21.5" ry="11"/>
<text text-anchor="middle" x="3376.5" y="-66.8" font-family="monospace" font-size="9.00">37</text>
</a>
</g>
</g>
<!-- 32 -->
<g id="s32" class="node"><title>32</title>
<g id="a_s32"><a xlink:href="./32.svg" xlink:title="32">
<ellipse fill="none" stroke="black" cx="3193.5" cy="-69" rx="21.5" ry="11"/>
<text text-anchor="middle" x="3193.5" y="-66.8" font-family="monospace" font-size="9.00">32</text>
</a>
</g>
</g>
<!-- 33 -->
<g id="s33" class="node"><title>33</title>
<g id="a_s33"><a xlink:href="./33.svg" xlink:title="33">
<ellipse fill="none" stroke="black" cx="3254.5" cy="-69" rx="21.5" ry="11"/>
<text text-anchor="middle" x="3254.5" y="-66.8" font-family="monospace" font-size="9.00">33</text>
</a>
</g>
</g>
<!-- 30 -->
<g id="s30" class="node"><title>30</title>
<g id="a_s30"><a xlink:href="./30.svg" xlink:title="30">
<ellipse fill="none" stroke="black" cx="3711.5" cy="-69" rx="21.5" ry="11"/>
<text text-anchor="middle" x="3711.5" y="-66.8" font-family="monospace" font-size="9.00">30</text>
</a>
</g>
</g>
<!-- 30&#45;&gt;99 -->
<g id="edge135" class="edge"><title>30&#45;&gt;99</title>
<path fill="none" stroke="black" d="M3706.27,-58.2455C3701.6,-49.5202 3694.68,-36.6082 3689.34,-26.6435"/>
<polygon fill="black" stroke="black" points="3686.87,-22.0198 3691.21,-25.3646 3688.05,-24.2235 3689.23,-26.4272 3689.23,-26.4272 3689.23,-26.4272 3688.05,-24.2235 3687.25,-27.4897 3686.87,-22.0198 3686.87,-22.0198"/>
</g>
<!-- 100 -->
<g id="s100" class="node"><title>100</title>
<g id="a_s100"><a xlink:href="./100.svg" xlink:title="100">
<ellipse fill="none" stroke="black" cx="3742.5" cy="-11" rx="21.5" ry="11"/>
<text text-anchor="middle" x="3742.5" y="-8.8" font-family="monospace" font-size="9.00">100</text>
</a>
</g>
</g>
<!-- 30&#45;&gt;100 -->
<g id="edge136" class="edge"><title>30&#45;&gt;100</title>
<path fill="none" stroke="black" d="M3716.9,-58.2455C3721.73,-49.5202 3728.88,-36.6082 3734.39,-26.6435"/>
<polygon fill="black" stroke="black" points="3736.95,-22.0198 3736.5,-27.484 3735.74,-24.207 3734.53,-26.3942 3734.53,-26.3942 3734.53,-26.3942 3735.74,-24.207 3732.56,-25.3045 3736.95,-22.0198 3736.95,-22.0198"/>
</g>
<!-- 97 -->
<g id="s97" class="node"><title>97</title>
<g id="a_s97"><a xlink:href="./97.svg" xlink:title="97">
<ellipse fill="none" stroke="black" cx="3803.5" cy="-11" rx="21.5" ry="11"/>
<text text-anchor="middle" x="3803.5" y="-8.8" font-family="monospace" font-size="9.00">97</text>
</a>
</g>
</g>
<!-- 30&#45;&gt;97 -->
<g id="edge133" class="edge"><title>30&#45;&gt;97</title>
<path fill="none" stroke="black" d="M3724.68,-59.9766C3740.9,-50.1069 3768.46,-33.3276 3786.32,-22.4567"/>
<polygon fill="black" stroke="black" points="3790.64,-19.828 3787.54,-24.3497 3788.5,-21.1279 3786.37,-22.4278 3786.37,-22.4278 3786.37,-22.4278 3788.5,-21.1279 3785.2,-20.5058 3790.64,-19.828 3790.64,-19.828"/>
</g>
<!-- 101 -->
<g id="s101" class="node"><title>101</title>
<g id="a_s101"><a xlink:href="./101.svg" xlink:title="101">
<ellipse fill="none" stroke="black" cx="3864.5" cy="-11" rx="21.5" ry="11"/>
<text text-anchor="middle" x="3864.5" y="-8.8" font-family="monospace" font-size="9.00">101</text>
</a>
</g>
</g>
<!-- 30&#45;&gt;101 -->
<g id="edge137" class="edge"><title>30&#45;&gt;101</title>
<path fill="none" stroke="black" d="M3728.16,-61.9004C3756.1,-51.6753 3812.34,-31.0909 3843.14,-19.8183"/>
<polygon fill="black" stroke="black" points="3847.86,-18.0921 3843.93,-21.9236 3845.51,-18.9514 3843.16,-19.8107 3843.16,-19.8107 3843.16,-19.8107 3845.51,-18.9514 3842.39,-17.6978 3847.86,-18.0921 3847.86,-18.0921"/>
</g>
<!-- 98 -->
<g id="s98" class="node"><title>98</title>
<g id="a_s98"><a xlink:href="./98.svg" xlink:title="98">
<ellipse fill="none" stroke="black" cx="3620.5" cy="-11" rx="21.5" ry="11"/>
<text text-anchor="middle" x="3620.5" y="-8.8" font-family="monospace" font-size="9.00">98</text>
</a>
</g>
</g>
<!-- 30&#45;&gt;98 -->
<g id="edge134" class="edge"><title>30&#45;&gt;98</title>
<path fill="none" stroke="black" d="M3698.46,-59.9766C3682.51,-50.1627 3655.47,-33.517 3637.79,-22.6415"/>
<polygon fill="black" stroke="black" points="3633.51,-20.0086 3638.95,-20.7128 3635.64,-21.3188 3637.77,-22.6291 3637.77,-22.6291 3637.77,-22.6291 3635.64,-21.3188 3636.59,-24.5453 3633.51,-20.0086 3633.51,-20.0086"/>
</g>
<!-- 21 -->
<g id="s21" class="node"><title>21</title>
<g id="a_s21"><a xlink:href="./21.svg" xlink:title="21">
<ellipse fill="none" stroke="black" cx="1637.5" cy="-69" rx="21.5" ry="11"/>
<text text-anchor="middle" x="1637.5" y="-66.8" font-family="monospace" font-size="9.00">21</text>
</a>
</g>
</g>
<!-- 21&#45;&gt;78 -->
<g id="edge87" class="edge"><title>21&#45;&gt;78</title>
<path fill="none" stroke="black" d="M1617.75,-64.5319C1605.83,-62.495 1590.31,-59.9466 1576.5,-58 1441.34,-38.9543 1404.72,-51.737 1271.5,-22 1268.75,-21.387 1265.91,-20.6187 1263.1,-19.7818"/>
<polygon fill="black" stroke="black" points="1258.15,-18.22 1263.59,-17.5769 1260.53,-18.9714 1262.92,-19.7229 1262.92,-19.7229 1262.92,-19.7229 1260.53,-18.9714 1262.24,-21.8688 1258.15,-18.22 1258.15,-18.22"/>
</g>
<!-- 74 -->
<g id="s74" class="node"><title>74</title>
<g id="a_s74"><a xlink:href="./74.svg" xlink:title="74">
<ellipse fill="none" stroke="black" cx="1668.5" cy="-11" rx="21.5" ry="11"/>
<text text-anchor="middle" x="1668.5" y="-8.8" font-family="monospace" font-size="9.00">74</text>
</a>
</g>
</g>
<!-- 21&#45;&gt;74 -->
<g id="edge84" class="edge"><title>21&#45;&gt;74</title>
<path fill="none" stroke="black" d="M1642.9,-58.2455C1647.73,-49.5202 1654.88,-36.6082 1660.39,-26.6435"/>
<polygon fill="black" stroke="black" points="1662.95,-22.0198 1662.5,-27.484 1661.74,-24.207 1660.53,-26.3942 1660.53,-26.3942 1660.53,-26.3942 1661.74,-24.207 1658.56,-25.3045 1662.95,-22.0198 1662.95,-22.0198"/>
</g>
<!-- 76 -->
<g id="s76" class="node"><title>76</title>
<g id="a_s76"><a xlink:href="./76.svg" xlink:title="76">
<ellipse fill="none" stroke="black" cx="1058.5" cy="-11" rx="21.5" ry="11"/>
<text text-anchor="middle" x="1058.5" y="-8.8" font-family="monospace" font-size="9.00">76</text>
</a>
</g>
</g>
<!-- 21&#45;&gt;76 -->
<g id="edge85" class="edge"><title>21&#45;&gt;76</title>
<path fill="none" stroke="black" d="M1617.78,-64.3114C1605.87,-62.1963 1590.35,-59.6433 1576.5,-58 1360.54,-32.3834 1301.74,-64.7146 1088.5,-22 1085.67,-21.4339 1082.75,-20.6794 1079.87,-19.8376"/>
<polygon fill="black" stroke="black" points="1074.81,-18.2499 1080.25,-17.5974 1077.19,-18.9972 1079.58,-19.7445 1079.58,-19.7445 1079.58,-19.7445 1077.19,-18.9972 1078.9,-21.8917 1074.81,-18.2499 1074.81,-18.2499"/>
</g>
<!-- 79 -->
<g id="s79" class="node"><title>79</title>
<g id="a_s79"><a xlink:href="./79.svg" xlink:title="79">
<ellipse fill="none" stroke="black" cx="1607.5" cy="-11" rx="21.5" ry="11"/>
<text text-anchor="middle" x="1607.5" y="-8.8" font-family="monospace" font-size="9.00">79</text>
</a>
</g>
</g>
<!-- 21&#45;&gt;79 -->
<g id="edge88" class="edge"><title>21&#45;&gt;79</title>
<path fill="none" stroke="black" d="M1632.27,-58.2455C1627.6,-49.5202 1620.68,-36.6082 1615.34,-26.6435"/>
<polygon fill="black" stroke="black" points="1612.87,-22.0198 1617.21,-25.3646 1614.05,-24.2235 1615.23,-26.4272 1615.23,-26.4272 1615.23,-26.4272 1614.05,-24.2235 1613.25,-27.4897 1612.87,-22.0198 1612.87,-22.0198"/>
</g>
<!-- 21&#45;&gt;77 -->
<g id="edge86" class="edge"><title>21&#45;&gt;77</title>
<path fill="none" stroke="black" d="M1658.52,-66.1028C1708.46,-61.3217 1837.98,-47.3184 1943.5,-22 1946.24,-21.3435 1949.08,-20.5491 1951.88,-19.6983"/>
<polygon fill="black" stroke="black" points="1956.83,-18.1236 1952.75,-21.7829 1954.45,-18.8811 1952.06,-19.6386 1952.06,-19.6386 1952.06,-19.6386 1954.45,-18.8811 1951.38,-17.4944 1956.83,-18.1236 1956.83,-18.1236"/>
</g>
<!-- 22 -->
<g id="s22" class="node"><title>22</title>
<g id="a_s22"><a xlink:href="./22.svg" xlink:title="22">
<ellipse fill="none" stroke="black" cx="1851.5" cy="-69" rx="21.5" ry="11"/>
<text text-anchor="middle" x="1851.5" y="-66.8" font-family="monospace" font-size="9.00">22</text>
</a>
</g>
</g>
<!-- 22&#45;&gt;72 -->
<g id="edge38" class="edge"><title>22&#45;&gt;72</title>
<path fill="none" stroke="black" d="M1869.45,-62.7896C1898.09,-54.4366 1955.85,-37.4185 2004.5,-22 2007.12,-21.1707 2009.86,-20.2839 2012.57,-19.3936"/>
<polygon fill="black" stroke="black" points="2017.39,-17.7992 2013.35,-21.5044 2015.02,-18.5836 2012.65,-19.368 2012.65,-19.368 2012.65,-19.368 2015.02,-18.5836 2011.94,-17.2316 2017.39,-17.7992 2017.39,-17.7992"/>
</g>
<!-- 22&#45;&gt;73 -->
<g id="edge39" class="edge"><title>22&#45;&gt;73</title>
<path fill="none" stroke="black" d="M1841.7,-59.0026C1831.62,-49.7505 1815.83,-35.2571 1804.45,-24.8098"/>
<polygon fill="black" stroke="black" points="1800.48,-21.1611 1805.68,-22.885 1802.32,-22.8518 1804.16,-24.5425 1804.16,-24.5425 1804.16,-24.5425 1802.32,-22.8518 1802.64,-26.1999 1800.48,-21.1611 1800.48,-21.1611"/>
</g>
<!-- 22&#45;&gt;74 -->
<g id="edge40" class="edge"><title>22&#45;&gt;74</title>
<path fill="none" stroke="black" d="M1833.55,-62.7896C1804.91,-54.4366 1747.15,-37.4185 1698.5,-22 1695.88,-21.1707 1693.14,-20.2839 1690.43,-19.3936"/>
<polygon fill="black" stroke="black" points="1685.61,-17.7992 1691.06,-17.2316 1687.98,-18.5836 1690.35,-19.368 1690.35,-19.368 1690.35,-19.368 1687.98,-18.5836 1689.65,-21.5044 1685.61,-17.7992 1685.61,-17.7992"/>
</g>
<!-- 70 -->
<g id="s70" class="node"><title>70</title>
<g id="a_s70"><a xlink:href="./70.svg" xlink:title="70">
<ellipse fill="none" stroke="black" cx="1302.5" cy="-11" rx="21.5" ry="11"/>
<text text-anchor="middle" x="1302.5" y="-8.8" font-family="monospace" font-size="9.00">70</text>
</a>
</g>
</g>
<!-- 22&#45;&gt;70 -->
<g id="edge36" class="edge"><title>22&#45;&gt;70</title>
<path fill="none" stroke="black" d="M1830.25,-66.7802C1745.33,-61.8034 1430.25,-42.332 1332.5,-22 1329.68,-21.413 1326.75,-20.6463 1323.88,-19.7981"/>
<polygon fill="black" stroke="black" points="1318.82,-18.2048 1324.26,-17.5581 1321.2,-18.9546 1323.59,-19.7045 1323.59,-19.7045 1323.59,-19.7045 1321.2,-18.9546 1322.91,-21.8509 1318.82,-18.2048 1318.82,-18.2048"/>
</g>
<!-- 75 -->
<g id="s75" class="node"><title>75</title>
<g id="a_s75"><a xlink:href="./75.svg" xlink:title="75">
<ellipse fill="none" stroke="black" cx="1851.5" cy="-11" rx="21.5" ry="11"/>
<text text-anchor="middle" x="1851.5" y="-8.8" font-family="monospace" font-size="9.00">75</text>
</a>
</g>
</g>
<!-- 22&#45;&gt;75 -->
<g id="edge41" class="edge"><title>22&#45;&gt;75</title>
<path fill="none" stroke="black" d="M1851.5,-57.9883C1851.5,-49.4941 1851.5,-37.1697 1851.5,-27.4169"/>
<polygon fill="black" stroke="black" points="1851.5,-22.3039 1853.75,-27.3038 1851.5,-24.8039 1851.5,-27.3039 1851.5,-27.3039 1851.5,-27.3039 1851.5,-24.8039 1849.25,-27.3039 1851.5,-22.3039 1851.5,-22.3039"/>
</g>
<!-- 22&#45;&gt;71 -->
<g id="edge37" class="edge"><title>22&#45;&gt;71</title>
<path fill="none" stroke="black" d="M1871.15,-64.526C1909.05,-57.6604 1994.75,-41.3323 2065.5,-22 2068.21,-21.2584 2071.04,-20.4129 2073.83,-19.5349"/>
<polygon fill="black" stroke="black" points="2078.78,-17.9347 2074.72,-21.6145 2076.4,-18.7042 2074.02,-19.4737 2074.02,-19.4737 2074.02,-19.4737 2076.4,-18.7042 2073.33,-17.3329 2078.78,-17.9347 2078.78,-17.9347"/>
</g>
<!-- 17 -->
<g id="s17" class="node"><title>17</title>
<g id="a_s17"><a xlink:href="./17.svg" xlink:title="17">
<ellipse fill="none" stroke="black" cx="997.5" cy="-69" rx="21.5" ry="11"/>
<text text-anchor="middle" x="997.5" y="-66.8" font-family="monospace" font-size="9.00">17</text>
</a>
</g>
</g>
<!-- 17&#45;&gt;64 -->
<g id="edge57" class="edge"><title>17&#45;&gt;64</title>
<path fill="none" stroke="black" d="M982.049,-60.9076C960.048,-50.809 919.682,-32.2803 895.448,-21.1563"/>
<polygon fill="black" stroke="black" points="890.826,-19.0349 896.309,-19.0759 893.098,-20.0778 895.37,-21.1207 895.37,-21.1207 895.37,-21.1207 893.098,-20.0778 894.431,-23.1656 890.826,-19.0349 890.826,-19.0349"/>
</g>
<!-- 60 -->
<g id="s60" class="node"><title>60</title>
<g id="a_s60"><a xlink:href="./60.svg" xlink:title="60">
<ellipse fill="none" stroke="black" cx="997.5" cy="-11" rx="21.5" ry="11"/>
<text text-anchor="middle" x="997.5" y="-8.8" font-family="monospace" font-size="9.00">60</text>
</a>
</g>
</g>
<!-- 17&#45;&gt;60 -->
<g id="edge54" class="edge"><title>17&#45;&gt;60</title>
<path fill="none" stroke="black" d="M997.5,-57.9883C997.5,-49.4941 997.5,-37.1697 997.5,-27.4169"/>
<polygon fill="black" stroke="black" points="997.5,-22.3039 999.75,-27.3038 997.5,-24.8039 997.5,-27.3039 997.5,-27.3039 997.5,-27.3039 997.5,-24.8039 995.25,-27.3039 997.5,-22.3039 997.5,-22.3039"/>
</g>
<!-- 62 -->
<g id="s62" class="node"><title>62</title>
<g id="a_s62"><a xlink:href="./62.svg" xlink:title="62">
<ellipse fill="none" stroke="black" cx="631.5" cy="-11" rx="21.5" ry="11"/>
<text text-anchor="middle" x="631.5" y="-8.8" font-family="monospace" font-size="9.00">62</text>
</a>
</g>
</g>
<!-- 17&#45;&gt;62 -->
<g id="edge55" class="edge"><title>17&#45;&gt;62</title>
<path fill="none" stroke="black" d="M980.608,-61.8944C976.074,-60.437 971.141,-59.0124 966.5,-58 833.139,-28.9101 794.718,-51.737 661.5,-22 658.754,-21.387 655.905,-20.6187 653.104,-19.7818"/>
<polygon fill="black" stroke="black" points="648.148,-18.22 653.594,-17.5769 650.533,-18.9714 652.917,-19.7229 652.917,-19.7229 652.917,-19.7229 650.533,-18.9714 652.241,-21.8688 648.148,-18.22 648.148,-18.22"/>
</g>
<!-- 65 -->
<g id="s65" class="node"><title>65</title>
<g id="a_s65"><a xlink:href="./65.svg" xlink:title="65">
<ellipse fill="none" stroke="black" cx="692.5" cy="-11" rx="21.5" ry="11"/>
<text text-anchor="middle" x="692.5" y="-8.8" font-family="monospace" font-size="9.00">65</text>
</a>
</g>
</g>
<!-- 17&#45;&gt;65 -->
<g id="edge58" class="edge"><title>17&#45;&gt;65</title>
<path fill="none" stroke="black" d="M980.587,-61.9854C976.054,-60.5273 971.126,-59.0795 966.5,-58 859.75,-33.0881 829.128,-47.4298 722.5,-22 719.763,-21.3473 716.92,-20.5551 714.122,-19.7055"/>
<polygon fill="black" stroke="black" points="709.169,-18.1319 714.615,-17.5015 711.551,-18.8889 713.934,-19.6459 713.934,-19.6459 713.934,-19.6459 711.551,-18.8889 713.253,-21.7902 709.169,-18.1319 709.169,-18.1319"/>
</g>
<!-- 17&#45;&gt;63 -->
<g id="edge56" class="edge"><title>17&#45;&gt;63</title>
<path fill="none" stroke="black" d="M1018.63,-66.0987C1089.83,-59.6042 1320.62,-37.8263 1393.5,-22 1396.55,-21.3384 1399.72,-20.4981 1402.82,-19.5867"/>
<polygon fill="black" stroke="black" points="1407.61,-18.1114 1403.49,-21.7338 1405.22,-18.8474 1402.83,-19.5835 1402.83,-19.5835 1402.83,-19.5835 1405.22,-18.8474 1402.17,-17.4332 1407.61,-18.1114 1407.61,-18.1114"/>
</g>
<!-- 18 -->
<g id="s18" class="node"><title>18</title>
<g id="a_s18"><a xlink:href="./18.svg" xlink:title="18">
<ellipse fill="none" stroke="black" cx="1149.5" cy="-69" rx="21.5" ry="11"/>
<text text-anchor="middle" x="1149.5" y="-66.8" font-family="monospace" font-size="9.00">18</text>
</a>
</g>
</g>
<!-- 18&#45;&gt;59 -->
<g id="edge149" class="edge"><title>18&#45;&gt;59</title>
<path fill="none" stroke="black" d="M1154.9,-58.2455C1159.73,-49.5202 1166.88,-36.6082 1172.39,-26.6435"/>
<polygon fill="black" stroke="black" points="1174.95,-22.0198 1174.5,-27.484 1173.74,-24.207 1172.53,-26.3942 1172.53,-26.3942 1172.53,-26.3942 1173.74,-24.207 1170.56,-25.3045 1174.95,-22.0198 1174.95,-22.0198"/>
</g>
<!-- 18&#45;&gt;60 -->
<g id="edge150" class="edge"><title>18&#45;&gt;60</title>
<path fill="none" stroke="black" d="M1132.94,-61.9004C1105.3,-51.7174 1049.78,-31.2601 1019.1,-19.9579"/>
<polygon fill="black" stroke="black" points="1014.04,-18.0921 1019.51,-17.7094 1016.38,-18.9564 1018.73,-19.8207 1018.73,-19.8207 1018.73,-19.8207 1016.38,-18.9564 1017.95,-21.9319 1014.04,-18.0921 1014.04,-18.0921"/>
</g>
<!-- 57 -->
<g id="s57" class="node"><title>57</title>
<g id="a_s57"><a xlink:href="./57.svg" xlink:title="57">
<ellipse fill="none" stroke="black" cx="753.5" cy="-11" rx="21.5" ry="11"/>
<text text-anchor="middle" x="753.5" y="-8.8" font-family="monospace" font-size="9.00">57</text>
</a>
</g>
</g>
<!-- 18&#45;&gt;57 -->
<g id="edge147" class="edge"><title>18&#45;&gt;57</title>
<path fill="none" stroke="black" d="M1128.57,-65.9176C1061.18,-59.1255 850.322,-37.1806 783.5,-22 780.756,-21.3767 777.909,-20.6021 775.109,-19.7619"/>
<polygon fill="black" stroke="black" points="770.154,-18.1971 775.599,-17.5572 772.538,-18.9499 774.922,-19.7028 774.922,-19.7028 774.922,-19.7028 772.538,-18.9499 774.244,-21.8484 770.154,-18.1971 770.154,-18.1971"/>
</g>
<!-- 61 -->
<g id="s61" class="node"><title>61</title>
<g id="a_s61"><a xlink:href="./61.svg" xlink:title="61">
<ellipse fill="none" stroke="black" cx="1119.5" cy="-11" rx="21.5" ry="11"/>
<text text-anchor="middle" x="1119.5" y="-8.8" font-family="monospace" font-size="9.00">61</text>
</a>
</g>
</g>
<!-- 18&#45;&gt;61 -->
<g id="edge151" class="edge"><title>18&#45;&gt;61</title>
<path fill="none" stroke="black" d="M1144.27,-58.2455C1139.6,-49.5202 1132.68,-36.6082 1127.34,-26.6435"/>
<polygon fill="black" stroke="black" points="1124.87,-22.0198 1129.21,-25.3646 1126.05,-24.2235 1127.23,-26.4272 1127.23,-26.4272 1127.23,-26.4272 1126.05,-24.2235 1125.25,-27.4897 1124.87,-22.0198 1124.87,-22.0198"/>
</g>
<!-- 18&#45;&gt;58 -->
<g id="edge148" class="edge"><title>18&#45;&gt;58</title>
<path fill="none" stroke="black" d="M1170.43,-66.0272C1220.18,-61.0827 1349.2,-46.7519 1454.5,-22 1457.53,-21.2867 1460.7,-20.4169 1463.8,-19.4911"/>
<polygon fill="black" stroke="black" points="1468.58,-18.0046 1464.48,-21.6364 1466.2,-18.7461 1463.81,-19.4876 1463.81,-19.4876 1463.81,-19.4876 1466.2,-18.7461 1463.14,-17.3388 1468.58,-18.0046 1468.58,-18.0046"/>
</g>
<!-- 11 -->
<g id="s11" class="node"><title>11</title>
<g id="a_s11"><a xlink:href="./11.svg" xlink:title="11">
<ellipse fill="none" stroke="black" cx="2400.5" cy="-69" rx="21.5" ry="11"/>
<text text-anchor="middle" x="2400.5" y="-66.8" font-family="monospace" font-size="9.00">11</text>
</a>
</g>
</g>
<!-- 11&#45;&gt;51 -->
<g id="edge77" class="edge"><title>11&#45;&gt;51</title>
<path fill="none" stroke="black" d="M2390.7,-59.0026C2380.62,-49.7505 2364.83,-35.2571 2353.45,-24.8098"/>
<polygon fill="black" stroke="black" points="2349.48,-21.1611 2354.68,-22.885 2351.32,-22.8518 2353.16,-24.5425 2353.16,-24.5425 2353.16,-24.5425 2351.32,-22.8518 2351.64,-26.1999 2349.48,-21.1611 2349.48,-21.1611"/>
</g>
<!-- 47 -->
<g id="s47" class="node"><title>47</title>
<g id="a_s47"><a xlink:href="./47.svg" xlink:title="47">
<ellipse fill="none" stroke="black" cx="2461.5" cy="-11" rx="21.5" ry="11"/>
<text text-anchor="middle" x="2461.5" y="-8.8" font-family="monospace" font-size="9.00">47</text>
</a>
</g>
</g>
<!-- 11&#45;&gt;47 -->
<g id="edge74" class="edge"><title>11&#45;&gt;47</title>
<path fill="none" stroke="black" d="M2410.3,-59.0026C2420.38,-49.7505 2436.17,-35.2571 2447.55,-24.8098"/>
<polygon fill="black" stroke="black" points="2451.52,-21.1611 2449.36,-26.1999 2449.68,-22.8518 2447.84,-24.5425 2447.84,-24.5425 2447.84,-24.5425 2449.68,-22.8518 2446.32,-22.885 2451.52,-21.1611 2451.52,-21.1611"/>
</g>
<!-- 49 -->
<g id="s49" class="node"><title>49</title>
<g id="a_s49"><a xlink:href="./49.svg" xlink:title="49">
<ellipse fill="none" stroke="black" cx="1729.5" cy="-11" rx="21.5" ry="11"/>
<text text-anchor="middle" x="1729.5" y="-8.8" font-family="monospace" font-size="9.00">49</text>
</a>
</g>
</g>
<!-- 11&#45;&gt;49 -->
<g id="edge75" class="edge"><title>11&#45;&gt;49</title>
<path fill="none" stroke="black" d="M2379.37,-66.5565C2270.27,-59.0928 1775.08,-25.1037 1759.5,-22 1756.67,-21.4367 1753.74,-20.6839 1750.87,-19.843"/>
<polygon fill="black" stroke="black" points="1745.8,-18.2561 1751.25,-17.6027 1748.19,-19.003 1750.58,-19.75 1750.58,-19.75 1750.58,-19.75 1748.19,-19.003 1749.9,-21.8972 1745.8,-18.2561 1745.8,-18.2561"/>
</g>
<!-- 52 -->
<g id="s52" class="node"><title>52</title>
<g id="a_s52"><a xlink:href="./52.svg" xlink:title="52">
<ellipse fill="none" stroke="black" cx="2278.5" cy="-11" rx="21.5" ry="11"/>
<text text-anchor="middle" x="2278.5" y="-8.8" font-family="monospace" font-size="9.00">52</text>
</a>
</g>
</g>
<!-- 11&#45;&gt;52 -->
<g id="edge78" class="edge"><title>11&#45;&gt;52</title>
<path fill="none" stroke="black" d="M2385.05,-60.9076C2363.05,-50.809 2322.68,-32.2803 2298.45,-21.1563"/>
<polygon fill="black" stroke="black" points="2293.83,-19.0349 2299.31,-19.0759 2296.1,-20.0778 2298.37,-21.1207 2298.37,-21.1207 2298.37,-21.1207 2296.1,-20.0778 2297.43,-23.1656 2293.83,-19.0349 2293.83,-19.0349"/>
</g>
<!-- 11&#45;&gt;50 -->
<g id="edge76" class="edge"><title>11&#45;&gt;50</title>
<path fill="none" stroke="black" d="M2415.95,-60.9076C2437.95,-50.809 2478.32,-32.2803 2502.55,-21.1563"/>
<polygon fill="black" stroke="black" points="2507.17,-19.0349 2503.57,-23.1656 2504.9,-20.0778 2502.63,-21.1207 2502.63,-21.1207 2502.63,-21.1207 2504.9,-20.0778 2501.69,-19.0759 2507.17,-19.0349 2507.17,-19.0349"/>
</g>
<!-- 12 -->
<g id="s12" class="node"><title>12</title>
<g id="a_s12"><a xlink:href="./12.svg" xlink:title="12">
<ellipse fill="none" stroke="black" cx="2583.5" cy="-69" rx="21.5" ry="11"/>
<text text-anchor="middle" x="2583.5" y="-66.8" font-family="monospace" font-size="9.00">12</text>
</a>
</g>
</g>
<!-- 12&#45;&gt;46 -->
<g id="edge123" class="edge"><title>12&#45;&gt;46</title>
<path fill="none" stroke="black" d="M2583.5,-57.9883C2583.5,-49.4941 2583.5,-37.1697 2583.5,-27.4169"/>
<polygon fill="black" stroke="black" points="2583.5,-22.3039 2585.75,-27.3038 2583.5,-24.8039 2583.5,-27.3039 2583.5,-27.3039 2583.5,-27.3039 2583.5,-24.8039 2581.25,-27.3039 2583.5,-22.3039 2583.5,-22.3039"/>
</g>
<!-- 12&#45;&gt;47 -->
<g id="edge124" class="edge"><title>12&#45;&gt;47</title>
<path fill="none" stroke="black" d="M2568.05,-60.9076C2546.05,-50.809 2505.68,-32.2803 2481.45,-21.1563"/>
<polygon fill="black" stroke="black" points="2476.83,-19.0349 2482.31,-19.0759 2479.1,-20.0778 2481.37,-21.1207 2481.37,-21.1207 2481.37,-21.1207 2479.1,-20.0778 2480.43,-23.1656 2476.83,-19.0349 2476.83,-19.0349"/>
</g>
<!-- 44 -->
<g id="s44" class="node"><title>44</title>
<g id="a_s44"><a xlink:href="./44.svg" xlink:title="44">
<ellipse fill="none" stroke="black" cx="1912.5" cy="-11" rx="21.5" ry="11"/>
<text text-anchor="middle" x="1912.5" y="-8.8" font-family="monospace" font-size="9.00">44</text>
</a>
</g>
</g>
<!-- 12&#45;&gt;44 -->
<g id="edge121" class="edge"><title>12&#45;&gt;44</title>
<path fill="none" stroke="black" d="M2562.27,-66.6182C2454.8,-59.6037 1974.56,-28.0352 1943.5,-22 1940.37,-21.3913 1937.11,-20.565 1933.93,-19.6465"/>
<polygon fill="black" stroke="black" points="1929.04,-18.1455 1934.48,-17.4608 1931.43,-18.8787 1933.82,-19.6119 1933.82,-19.6119 1933.82,-19.6119 1931.43,-18.8787 1933.16,-21.763 1929.04,-18.1455 1929.04,-18.1455"/>
</g>
<!-- 48 -->
<g id="s48" class="node"><title>48</title>
<g id="a_s48"><a xlink:href="./48.svg" xlink:title="48">
<ellipse fill="none" stroke="black" cx="2644.5" cy="-11" rx="21.5" ry="11"/>
<text text-anchor="middle" x="2644.5" y="-8.8" font-family="monospace" font-size="9.00">48</text>
</a>
</g>
</g>
<!-- 12&#45;&gt;48 -->
<g id="edge125" class="edge"><title>12&#45;&gt;48</title>
<path fill="none" stroke="black" d="M2593.3,-59.0026C2603.38,-49.7505 2619.17,-35.2571 2630.55,-24.8098"/>
<polygon fill="black" stroke="black" points="2634.52,-21.1611 2632.36,-26.1999 2632.68,-22.8518 2630.84,-24.5425 2630.84,-24.5425 2630.84,-24.5425 2632.68,-22.8518 2629.32,-22.885 2634.52,-21.1611 2634.52,-21.1611"/>
</g>
<!-- 12&#45;&gt;45 -->
<g id="edge122" class="edge"><title>12&#45;&gt;45</title>
<path fill="none" stroke="black" d="M2598.95,-60.9076C2620.95,-50.809 2661.32,-32.2803 2685.55,-21.1563"/>
<polygon fill="black" stroke="black" points="2690.17,-19.0349 2686.57,-23.1656 2687.9,-20.0778 2685.63,-21.1207 2685.63,-21.1207 2685.63,-21.1207 2687.9,-20.0778 2684.69,-19.0759 2690.17,-19.0349 2690.17,-19.0349"/>
</g>
<!-- 40 -->
<g id="s40" class="node"><title>40</title>
<g id="a_s40"><a xlink:href="./40.svg" xlink:title="40">
<ellipse fill="none" stroke="black" cx="1546.5" cy="-11" rx="21.5" ry="11"/>
<text text-anchor="middle" x="1546.5" y="-8.8" font-family="monospace" font-size="9.00">40</text>
</a>
</g>
</g>
<!-- 42 -->
<g id="s42" class="node"><title>42</title>
<g id="a_s42"><a xlink:href="./42.svg" xlink:title="42">
<ellipse fill="none" stroke="black" cx="2156.5" cy="-11" rx="21.5" ry="11"/>
<text text-anchor="middle" x="2156.5" y="-8.8" font-family="monospace" font-size="9.00">42</text>
</a>
</g>
</g>
<!-- 1&#45;&gt;14 -->
<g id="edge110" class="edge"><title>1&#45;&gt;14</title>
<path fill="none" stroke="black" d="M3324.27,-124.868C3236.45,-120.084 2901.29,-100.812 2797.5,-80 2794.37,-79.3725 2791.11,-78.5357 2787.94,-77.6123"/>
<polygon fill="black" stroke="black" points="2783.05,-76.1077 2788.49,-75.4268 2785.44,-76.8426 2787.83,-77.5775 2787.83,-77.5775 2787.83,-77.5775 2785.44,-76.8426 2787.16,-79.7281 2783.05,-76.1077 2783.05,-76.1077"/>
</g>
<!-- 1&#45;&gt;35 -->
<g id="edge112" class="edge"><title>1&#45;&gt;35</title>
<path fill="none" stroke="black" d="M3362.16,-119.9C3390.1,-109.675 3446.34,-89.0909 3477.14,-77.8183"/>
<polygon fill="black" stroke="black" points="3481.86,-76.0921 3477.93,-79.9236 3479.51,-76.9514 3477.16,-77.8107 3477.16,-77.8107 3477.16,-77.8107 3479.51,-76.9514 3476.39,-75.6978 3481.86,-76.0921 3481.86,-76.0921"/>
</g>
<!-- 1&#45;&gt;36 -->
<g id="edge113" class="edge"><title>1&#45;&gt;36</title>
<path fill="none" stroke="black" d="M3340.27,-116.246C3335.6,-107.52 3328.68,-94.6082 3323.34,-84.6435"/>
<polygon fill="black" stroke="black" points="3320.87,-80.0198 3325.21,-83.3646 3322.05,-82.2235 3323.23,-84.4272 3323.23,-84.4272 3323.23,-84.4272 3322.05,-82.2235 3321.25,-85.4897 3320.87,-80.0198 3320.87,-80.0198"/>
</g>
<!-- 1&#45;&gt;37 -->
<g id="edge114" class="edge"><title>1&#45;&gt;37</title>
<path fill="none" stroke="black" d="M3350.9,-116.246C3355.73,-107.52 3362.88,-94.6082 3368.39,-84.6435"/>
<polygon fill="black" stroke="black" points="3370.95,-80.0198 3370.5,-85.484 3369.74,-82.207 3368.53,-84.3942 3368.53,-84.3942 3368.53,-84.3942 3369.74,-82.207 3366.56,-83.3045 3370.95,-80.0198 3370.95,-80.0198"/>
</g>
<!-- 34 -->
<g id="s34" class="node"><title>34</title>
<g id="a_s34"><a xlink:href="./34.svg" xlink:title="34">
<ellipse fill="none" stroke="black" cx="3437.5" cy="-69" rx="21.5" ry="11"/>
<text text-anchor="middle" x="3437.5" y="-66.8" font-family="monospace" font-size="9.00">34</text>
</a>
</g>
</g>
<!-- 1&#45;&gt;34 -->
<g id="edge111" class="edge"><title>1&#45;&gt;34</title>
<path fill="none" stroke="black" d="M3358.68,-117.977C3374.9,-108.107 3402.46,-91.3276 3420.32,-80.4567"/>
<polygon fill="black" stroke="black" points="3424.64,-77.828 3421.54,-82.3497 3422.5,-79.1279 3420.37,-80.4278 3420.37,-80.4278 3420.37,-80.4278 3422.5,-79.1279 3419.2,-78.5058 3424.64,-77.828 3424.64,-77.828"/>
</g>
<!-- 2&#45;&gt;14 -->
<g id="edge7" class="edge"><title>2&#45;&gt;14</title>
<path fill="none" stroke="black" d="M3080.64,-124.02C3031.06,-119.06 2902.46,-104.698 2797.5,-80 2794.47,-79.286 2791.3,-78.4157 2788.2,-77.4897"/>
<polygon fill="black" stroke="black" points="2783.42,-76.0031 2788.86,-75.3375 2785.8,-76.7446 2788.19,-77.4862 2788.19,-77.4862 2788.19,-77.4862 2785.8,-76.7446 2787.52,-79.635 2783.42,-76.0031 2783.42,-76.0031"/>
</g>
<!-- 2&#45;&gt;25 -->
<g id="edge6" class="edge"><title>2&#45;&gt;25</title>
<path fill="none" stroke="black" d="M3096.27,-116.246C3091.6,-107.52 3084.68,-94.6082 3079.34,-84.6435"/>
<polygon fill="black" stroke="black" points="3076.87,-80.0198 3081.21,-83.3646 3078.05,-82.2235 3079.23,-84.4272 3079.23,-84.4272 3079.23,-84.4272 3078.05,-82.2235 3077.25,-85.4897 3076.87,-80.0198 3076.87,-80.0198"/>
</g>
<!-- 2&#45;&gt;32 -->
<g id="edge9" class="edge"><title>2&#45;&gt;32</title>
<path fill="none" stroke="black" d="M3114.68,-117.977C3130.9,-108.107 3158.46,-91.3276 3176.32,-80.4567"/>
<polygon fill="black" stroke="black" points="3180.64,-77.828 3177.54,-82.3497 3178.5,-79.1279 3176.37,-80.4278 3176.37,-80.4278 3176.37,-80.4278 3178.5,-79.1279 3175.2,-78.5058 3180.64,-77.828 3180.64,-77.828"/>
</g>
<!-- 2&#45;&gt;33 -->
<g id="edge10" class="edge"><title>2&#45;&gt;33</title>
<path fill="none" stroke="black" d="M3118.16,-119.9C3146.1,-109.675 3202.34,-89.0909 3233.14,-77.8183"/>
<polygon fill="black" stroke="black" points="3237.86,-76.0921 3233.93,-79.9236 3235.51,-76.9514 3233.16,-77.8107 3233.16,-77.8107 3233.16,-77.8107 3235.51,-76.9514 3232.39,-75.6978 3237.86,-76.0921 3237.86,-76.0921"/>
</g>
<!-- 31 -->
<g id="s31" class="node"><title>31</title>
<g id="a_s31"><a xlink:href="./31.svg" xlink:title="31">
<ellipse fill="none" stroke="black" cx="3132.5" cy="-69" rx="21.5" ry="11"/>
<text text-anchor="middle" x="3132.5" y="-66.8" font-family="monospace" font-size="9.00">31</text>
</a>
</g>
</g>
<!-- 2&#45;&gt;31 -->
<g id="edge8" class="edge"><title>2&#45;&gt;31</title>
<path fill="none" stroke="black" d="M3106.9,-116.246C3111.73,-107.52 3118.88,-94.6082 3124.39,-84.6435"/>
<polygon fill="black" stroke="black" points="3126.95,-80.0198 3126.5,-85.484 3125.74,-82.207 3124.53,-84.3942 3124.53,-84.3942 3124.53,-84.3942 3125.74,-82.207 3122.56,-83.3045 3126.95,-80.0198 3126.95,-80.0198"/>
</g>
<!-- 3&#45;&gt;14 -->
<g id="edge101" class="edge"><title>3&#45;&gt;14</title>
<path fill="none" stroke="black" d="M3538.1,-124.782C3416.38,-117.847 2816.22,-83.5263 2797.5,-80 2794.36,-79.4093 2791.1,-78.593 2787.93,-77.6793"/>
<polygon fill="black" stroke="black" points="2783.03,-76.1817 2788.47,-75.4933 2785.42,-76.9133 2787.81,-77.6448 2787.81,-77.6448 2787.81,-77.6448 2785.42,-76.9133 2787.16,-79.7963 2783.03,-76.1817 2783.03,-76.1817"/>
</g>
<!-- 3&#45;&gt;29 -->
<g id="edge103" class="edge"><title>3&#45;&gt;29</title>
<path fill="none" stroke="black" d="M3569.3,-117.003C3579.38,-107.75 3595.17,-93.2571 3606.55,-82.8098"/>
<polygon fill="black" stroke="black" points="3610.52,-79.1611 3608.36,-84.1999 3608.68,-80.8518 3606.84,-82.5425 3606.84,-82.5425 3606.84,-82.5425 3608.68,-80.8518 3605.32,-80.885 3610.52,-79.1611 3610.52,-79.1611"/>
</g>
<!-- 3&#45;&gt;30 -->
<g id="edge104" class="edge"><title>3&#45;&gt;30</title>
<path fill="none" stroke="black" d="M3576.06,-119.9C3603.7,-109.717 3659.22,-89.2601 3689.9,-77.9579"/>
<polygon fill="black" stroke="black" points="3694.96,-76.0921 3691.05,-79.9319 3692.62,-76.9564 3690.27,-77.8207 3690.27,-77.8207 3690.27,-77.8207 3692.62,-76.9564 3689.49,-75.7094 3694.96,-76.0921 3694.96,-76.0921"/>
</g>
<!-- 28 -->
<g id="s28" class="node"><title>28</title>
<g id="a_s28"><a xlink:href="./28.svg" xlink:title="28">
<ellipse fill="none" stroke="black" cx="3559.5" cy="-69" rx="21.5" ry="11"/>
<text text-anchor="middle" x="3559.5" y="-66.8" font-family="monospace" font-size="9.00">28</text>
</a>
</g>
</g>
<!-- 3&#45;&gt;28 -->
<g id="edge102" class="edge"><title>3&#45;&gt;28</title>
<path fill="none" stroke="black" d="M3559.5,-115.988C3559.5,-107.494 3559.5,-95.1697 3559.5,-85.4169"/>
<polygon fill="black" stroke="black" points="3559.5,-80.3039 3561.75,-85.3038 3559.5,-82.8039 3559.5,-85.3039 3559.5,-85.3039 3559.5,-85.3039 3559.5,-82.8039 3557.25,-85.3039 3559.5,-80.3039 3559.5,-80.3039"/>
</g>
<!-- 6&#45;&gt;14 -->
<g id="edge49" class="edge"><title>6&#45;&gt;14</title>
<path fill="none" stroke="black" d="M2208.96,-126.027C2283,-125.734 2534.37,-121.537 2736.5,-80 2739.32,-79.4198 2742.25,-78.6571 2745.12,-77.811"/>
<polygon fill="black" stroke="black" points="2750.19,-76.2195 2746.09,-79.8642 2747.8,-76.9685 2745.42,-77.7175 2745.42,-77.7175 2745.42,-77.7175 2747.8,-76.9685 2744.74,-75.5709 2750.19,-76.2195 2750.19,-76.2195"/>
</g>
<!-- 6&#45;&gt;20 -->
<g id="edge51" class="edge"><title>6&#45;&gt;20</title>
<path fill="none" stroke="black" d="M2209.1,-126.28C2288.42,-126.909 2570.78,-125.606 2797.5,-80 2800.33,-79.4316 2803.25,-78.6757 2806.12,-77.8333"/>
<polygon fill="black" stroke="black" points="2811.19,-76.245 2807.09,-79.8872 2808.81,-76.9925 2806.42,-77.7401 2806.42,-77.7401 2806.42,-77.7401 2808.81,-76.9925 2805.75,-75.5931 2811.19,-76.245 2811.19,-76.245"/>
</g>
<!-- 6&#45;&gt;21 -->
<g id="edge52" class="edge"><title>6&#45;&gt;21</title>
<path fill="none" stroke="black" d="M2166.61,-123.873C2081.11,-115.167 1757.88,-82.2566 1663.51,-72.6486"/>
<polygon fill="black" stroke="black" points="1658.41,-72.129 1663.61,-70.3971 1660.9,-72.3823 1663.38,-72.6356 1663.38,-72.6356 1663.38,-72.6356 1660.9,-72.3823 1663.16,-74.874 1658.41,-72.129 1658.41,-72.129"/>
</g>
<!-- 6&#45;&gt;22 -->
<g id="edge53" class="edge"><title>6&#45;&gt;22</title>
<path fill="none" stroke="black" d="M2167.49,-122.665C2109.36,-112.977 1940.61,-84.8511 1876.56,-74.176"/>
<polygon fill="black" stroke="black" points="1871.41,-73.3179 1876.71,-71.9206 1873.87,-73.7289 1876.34,-74.1399 1876.34,-74.1399 1876.34,-74.1399 1873.87,-73.7289 1875.97,-76.3593 1871.41,-73.3179 1871.41,-73.3179"/>
</g>
<!-- 6&#45;&gt;19 -->
<g id="edge50" class="edge"><title>6&#45;&gt;19</title>
<path fill="none" stroke="black" d="M2165.7,-125.551C2011.57,-122.332 1088.86,-102.228 966.5,-80 963.664,-79.4848 960.73,-78.7604 957.856,-77.9342"/>
<polygon fill="black" stroke="black" points="952.785,-76.3603 958.227,-75.6935 955.173,-77.1013 957.56,-77.8423 957.56,-77.8423 957.56,-77.8423 955.173,-77.1013 956.893,-79.9912 952.785,-76.3603 952.785,-76.3603"/>
</g>
<!-- 7&#45;&gt;14 -->
<g id="edge11" class="edge"><title>7&#45;&gt;14</title>
<path fill="none" stroke="black" d="M1476.85,-125.601C1633.87,-122.619 2607.71,-103.28 2736.5,-80 2739.34,-79.4873 2742.27,-78.7644 2745.14,-77.9389"/>
<polygon fill="black" stroke="black" points="2750.22,-76.3657 2746.11,-79.9961 2747.83,-77.1064 2745.44,-77.8471 2745.44,-77.8471 2745.44,-77.8471 2747.83,-77.1064 2744.77,-75.6982 2750.22,-76.3657 2750.22,-76.3657"/>
</g>
<!-- 7&#45;&gt;16 -->
<g id="edge13" class="edge"><title>7&#45;&gt;16</title>
<path fill="none" stroke="black" d="M1476.86,-125.708C1592.55,-124.012 2155.64,-114.276 2614.5,-80 2636.48,-78.3584 2661.34,-75.5615 2679.52,-73.3423"/>
<polygon fill="black" stroke="black" points="2684.94,-72.6741 2680.25,-75.5195 2682.46,-72.9802 2679.97,-73.2864 2679.97,-73.2864 2679.97,-73.2864 2682.46,-72.9802 2679.7,-71.0533 2684.94,-72.6741 2684.94,-72.6741"/>
</g>
<!-- 7&#45;&gt;17 -->
<g id="edge14" class="edge"><title>7&#45;&gt;17</title>
<path fill="none" stroke="black" d="M1434.93,-123.485C1360.5,-114.384 1105.28,-83.178 1023.17,-73.1383"/>
<polygon fill="black" stroke="black" points="1018.01,-72.5081 1023.25,-70.8816 1020.49,-72.8115 1022.98,-73.115 1022.98,-73.115 1022.98,-73.115 1020.49,-72.8115 1022.7,-75.3484 1018.01,-72.5081 1018.01,-72.5081"/>
</g>
<!-- 7&#45;&gt;18 -->
<g id="edge15" class="edge"><title>7&#45;&gt;18</title>
<path fill="none" stroke="black" d="M1435.89,-122.412C1382.37,-112.617 1233.81,-85.4301 1174.46,-74.5687"/>
<polygon fill="black" stroke="black" points="1169.34,-73.6308 1174.66,-72.3178 1171.8,-74.0809 1174.26,-74.531 1174.26,-74.531 1174.26,-74.531 1171.8,-74.0809 1173.85,-76.7442 1169.34,-73.6308 1169.34,-73.6308"/>
</g>
<!-- 7&#45;&gt;15 -->
<g id="edge12" class="edge"><title>7&#45;&gt;15</title>
<path fill="none" stroke="black" d="M1434.3,-124.444C1326.27,-116.515 837.601,-80.6496 718.658,-71.9199"/>
<polygon fill="black" stroke="black" points="713.601,-71.5487 718.752,-69.6708 716.094,-71.7317 718.587,-71.9148 718.587,-71.9148 718.587,-71.9148 716.094,-71.7317 718.423,-74.1587 713.601,-71.5487 713.601,-71.5487"/>
</g>
<!-- 8&#45;&gt;14 -->
<g id="edge120" class="edge"><title>8&#45;&gt;14</title>
<path fill="none" stroke="black" d="M2601.45,-120.79C2630.09,-112.437 2687.85,-95.4185 2736.5,-80 2739.12,-79.1707 2741.86,-78.2839 2744.57,-77.3936"/>
<polygon fill="black" stroke="black" points="2749.39,-75.7992 2745.35,-79.5044 2747.02,-76.5836 2744.65,-77.368 2744.65,-77.368 2744.65,-77.368 2747.02,-76.5836 2743.94,-75.2316 2749.39,-75.7992 2749.39,-75.7992"/>
</g>
<!-- 8&#45;&gt;10 -->
<g id="edge116" class="edge"><title>8&#45;&gt;10</title>
<path fill="none" stroke="black" d="M2604.08,-123.673C2650.12,-118.223 2764.78,-103.306 2858.5,-80 2861.23,-79.321 2864.07,-78.513 2866.87,-77.655"/>
<polygon fill="black" stroke="black" points="2871.82,-76.0735 2867.74,-79.7382 2869.44,-76.8342 2867.05,-77.5949 2867.05,-77.5949 2867.05,-77.5949 2869.44,-76.8342 2866.37,-75.4516 2871.82,-76.0735 2871.82,-76.0735"/>
</g>
<!-- 8&#45;&gt;11 -->
<g id="edge117" class="edge"><title>8&#45;&gt;11</title>
<path fill="none" stroke="black" d="M2565.95,-120.63C2532.7,-110.454 2460.52,-88.3672 2423.47,-77.0279"/>
<polygon fill="black" stroke="black" points="2418.26,-75.4355 2423.7,-74.7472 2420.65,-76.1671 2423.04,-76.8987 2423.04,-76.8987 2423.04,-76.8987 2420.65,-76.1671 2422.39,-79.0502 2418.26,-75.4355 2418.26,-75.4355"/>
</g>
<!-- 8&#45;&gt;12 -->
<g id="edge118" class="edge"><title>8&#45;&gt;12</title>
<path fill="none" stroke="black" d="M2583.5,-115.988C2583.5,-107.494 2583.5,-95.1697 2583.5,-85.4169"/>
<polygon fill="black" stroke="black" points="2583.5,-80.3039 2585.75,-85.3038 2583.5,-82.8039 2583.5,-85.3039 2583.5,-85.3039 2583.5,-85.3039 2583.5,-82.8039 2581.25,-85.3039 2583.5,-80.3039 2583.5,-80.3039"/>
</g>
<!-- 13 -->
<g id="s13" class="node"><title>13</title>
<g id="a_s13"><a xlink:href="./13.svg" xlink:title="13">
<ellipse fill="none" stroke="black" cx="2217.5" cy="-69" rx="21.5" ry="11"/>
<text text-anchor="middle" x="2217.5" y="-66.8" font-family="monospace" font-size="9.00">13</text>
</a>
</g>
</g>
<!-- 8&#45;&gt;13 -->
<g id="edge119" class="edge"><title>8&#45;&gt;13</title>
<path fill="none" stroke="black" d="M2563.3,-122.909C2500.94,-113.367 2311.5,-84.3819 2242.76,-73.8647"/>
<polygon fill="black" stroke="black" points="2237.64,-73.081 2242.92,-71.6132 2240.11,-73.4592 2242.58,-73.8373 2242.58,-73.8373 2242.58,-73.8373 2240.11,-73.4592 2242.24,-76.0614 2237.64,-73.081 2237.64,-73.081"/>
</g>
<!-- 9 -->
<g id="s9" class="node"><title>9</title>
<g id="a_s9"><a xlink:href="./9.svg" xlink:title="9">
<ellipse fill="none" stroke="black" cx="1546.5" cy="-69" rx="21.5" ry="11"/>
<text text-anchor="middle" x="1546.5" y="-66.8" font-family="monospace" font-size="9.00">9</text>
</a>
</g>
</g>
<!-- 8&#45;&gt;9 -->
<g id="edge115" class="edge"><title>8&#45;&gt;9</title>
<path fill="none" stroke="black" d="M2562.14,-125.339C2437.33,-121.421 1801.1,-100.725 1606.5,-80 1594.77,-78.7506 1581.85,-76.6872 1571.01,-74.7583"/>
<polygon fill="black" stroke="black" points="1565.88,-73.8263 1571.2,-72.5049 1568.34,-74.2725 1570.8,-74.7188 1570.8,-74.7188 1570.8,-74.7188 1568.34,-74.2725 1570.39,-76.9327 1565.88,-73.8263 1565.88,-73.8263"/>
</g>
<!-- 43 -->
<g id="s43" class="node"><title>43</title>
<g id="a_s43"><a xlink:href="./43.svg" xlink:title="43">
<ellipse fill="none" stroke="black" cx="2217.5" cy="-11" rx="21.5" ry="11"/>
<text text-anchor="middle" x="2217.5" y="-8.8" font-family="monospace" font-size="9.00">43</text>
</a>
</g>
</g>
<!-- 13&#45;&gt;41 -->
<g id="edge65" class="edge"><title>13&#45;&gt;41</title>
<path fill="none" stroke="black" d="M2235.45,-62.7896C2264.09,-54.4366 2321.85,-37.4185 2370.5,-22 2373.12,-21.1707 2375.86,-20.2839 2378.57,-19.3936"/>
<polygon fill="black" stroke="black" points="2383.39,-17.7992 2379.35,-21.5044 2381.02,-18.5836 2378.65,-19.368 2378.65,-19.368 2378.65,-19.368 2381.02,-18.5836 2377.94,-17.2316 2383.39,-17.7992 2383.39,-17.7992"/>
</g>
<!-- 13&#45;&gt;40 -->
<g id="edge64" class="edge"><title>13&#45;&gt;40</title>
<path fill="none" stroke="black" d="M2196.03,-67.181C2098.79,-63.3617 1699.19,-46.448 1576.5,-22 1573.67,-21.4367 1570.74,-20.6839 1567.87,-19.843"/>
<polygon fill="black" stroke="black" points="1562.8,-18.2561 1568.25,-17.6027 1565.19,-19.003 1567.58,-19.75 1567.58,-19.75 1567.58,-19.75 1565.19,-19.003 1566.9,-21.8972 1562.8,-18.2561 1562.8,-18.2561"/>
</g>
<!-- 13&#45;&gt;42 -->
<g id="edge66" class="edge"><title>13&#45;&gt;42</title>
<path fill="none" stroke="black" d="M2207.7,-59.0026C2197.62,-49.7505 2181.83,-35.2571 2170.45,-24.8098"/>
<polygon fill="black" stroke="black" points="2166.48,-21.1611 2171.68,-22.885 2168.32,-22.8518 2170.16,-24.5425 2170.16,-24.5425 2170.16,-24.5425 2168.32,-22.8518 2168.64,-26.1999 2166.48,-21.1611 2166.48,-21.1611"/>
</g>
<!-- 13&#45;&gt;43 -->
<g id="edge67" class="edge"><title>13&#45;&gt;43</title>
<path fill="none" stroke="black" d="M2217.5,-57.9883C2217.5,-49.4941 2217.5,-37.1697 2217.5,-27.4169"/>
<polygon fill="black" stroke="black" points="2217.5,-22.3039 2219.75,-27.3038 2217.5,-24.8039 2217.5,-27.3039 2217.5,-27.3039 2217.5,-27.3039 2217.5,-24.8039 2215.25,-27.3039 2217.5,-22.3039 2217.5,-22.3039"/>
</g>
<!-- 5&#45;&gt;24 -->
<g id="edge34" class="edge"><title>5&#45;&gt;24</title>
<path fill="none" stroke="black" d="M2898.3,-117.003C2908.38,-107.75 2924.17,-93.2571 2935.55,-82.8098"/>
<polygon fill="black" stroke="black" points="2939.52,-79.1611 2937.36,-84.1999 2937.68,-80.8518 2935.84,-82.5425 2935.84,-82.5425 2935.84,-82.5425 2937.68,-80.8518 2934.32,-80.885 2939.52,-79.1611 2939.52,-79.1611"/>
</g>
<!-- 5&#45;&gt;25 -->
<g id="edge35" class="edge"><title>5&#45;&gt;25</title>
<path fill="none" stroke="black" d="M2906.45,-120.79C2935.09,-112.437 2992.85,-95.4185 3041.5,-80 3044.12,-79.1707 3046.86,-78.2839 3049.57,-77.3936"/>
<polygon fill="black" stroke="black" points="3054.39,-75.7992 3050.35,-79.5044 3052.02,-76.5836 3049.65,-77.368 3049.65,-77.368 3049.65,-77.368 3052.02,-76.5836 3048.94,-75.2316 3054.39,-75.7992 3054.39,-75.7992"/>
</g>
<!-- 5&#45;&gt;20 -->
<g id="edge30" class="edge"><title>5&#45;&gt;20</title>
<path fill="none" stroke="black" d="M2878.7,-117.003C2868.62,-107.75 2852.83,-93.2571 2841.45,-82.8098"/>
<polygon fill="black" stroke="black" points="2837.48,-79.1611 2842.68,-80.885 2839.32,-80.8518 2841.16,-82.5425 2841.16,-82.5425 2841.16,-82.5425 2839.32,-80.8518 2839.64,-84.1999 2837.48,-79.1611 2837.48,-79.1611"/>
</g>
<!-- 5&#45;&gt;16 -->
<g id="edge31" class="edge"><title>5&#45;&gt;16</title>
<path fill="none" stroke="black" d="M2870.68,-120.722C2842.26,-112.277 2784.92,-95.135 2736.5,-80 2733.73,-79.1353 2730.83,-78.2161 2727.96,-77.2988"/>
<polygon fill="black" stroke="black" points="2722.86,-75.6619 2728.31,-75.0477 2725.24,-76.426 2727.62,-77.19 2727.62,-77.19 2727.62,-77.19 2725.24,-76.426 2726.93,-79.3324 2722.86,-75.6619 2722.86,-75.6619"/>
</g>
<!-- 5&#45;&gt;10 -->
<g id="edge32" class="edge"><title>5&#45;&gt;10</title>
<path fill="none" stroke="black" d="M2888.5,-115.988C2888.5,-107.494 2888.5,-95.1697 2888.5,-85.4169"/>
<polygon fill="black" stroke="black" points="2888.5,-80.3039 2890.75,-85.3038 2888.5,-82.8039 2888.5,-85.3039 2888.5,-85.3039 2888.5,-85.3039 2888.5,-82.8039 2886.25,-85.3039 2888.5,-80.3039 2888.5,-80.3039"/>
</g>
<!-- 5&#45;&gt;23 -->
<g id="edge33" class="edge"><title>5&#45;&gt;23</title>
<path fill="none" stroke="black" d="M2903.95,-118.908C2925.95,-108.809 2966.32,-90.2803 2990.55,-79.1563"/>
<polygon fill="black" stroke="black" points="2995.17,-77.0349 2991.57,-81.1656 2992.9,-78.0778 2990.63,-79.1207 2990.63,-79.1207 2990.63,-79.1207 2992.9,-78.0778 2989.69,-77.0759 2995.17,-77.0349 2995.17,-77.0349"/>
</g>
<!-- 19&#45;&gt;38 -->
<g id="edge61" class="edge"><title>19&#45;&gt;38</title>
<path fill="none" stroke="black" d="M936.5,-57.9883C936.5,-49.4941 936.5,-37.1697 936.5,-27.4169"/>
<polygon fill="black" stroke="black" points="936.5,-22.3039 938.75,-27.3038 936.5,-24.8039 936.5,-27.3039 936.5,-27.3039 936.5,-27.3039 936.5,-24.8039 934.25,-27.3039 936.5,-22.3039 936.5,-22.3039"/>
</g>
<!-- 19&#45;&gt;83 -->
<g id="edge63" class="edge"><title>19&#45;&gt;83</title>
<path fill="none" stroke="black" d="M915.249,-66.7802C830.332,-61.8034 515.25,-42.332 417.5,-22 414.678,-21.413 411.752,-20.6463 408.883,-19.7981"/>
<polygon fill="black" stroke="black" points="403.815,-18.2048 409.26,-17.5581 406.2,-18.9546 408.585,-19.7045 408.585,-19.7045 408.585,-19.7045 406.2,-18.9546 407.91,-21.8509 403.815,-18.2048 403.815,-18.2048"/>
</g>
<!-- 19&#45;&gt;76 -->
<g id="edge59" class="edge"><title>19&#45;&gt;76</title>
<path fill="none" stroke="black" d="M951.951,-60.9076C973.952,-50.809 1014.32,-32.2803 1038.55,-21.1563"/>
<polygon fill="black" stroke="black" points="1043.17,-19.0349 1039.57,-23.1656 1040.9,-20.0778 1038.63,-21.1207 1038.63,-21.1207 1038.63,-21.1207 1040.9,-20.0778 1037.69,-19.0759 1043.17,-19.0349 1043.17,-19.0349"/>
</g>
<!-- 19&#45;&gt;70 -->
<g id="edge60" class="edge"><title>19&#45;&gt;70</title>
<path fill="none" stroke="black" d="M953.148,-61.78C957.449,-60.3592 962.106,-58.9808 966.5,-58 1099.72,-28.263 1138.14,-51.0899 1271.5,-22 1274.55,-21.3356 1277.72,-20.4937 1280.82,-19.5815"/>
<polygon fill="black" stroke="black" points="1285.61,-18.1056 1281.49,-21.7285 1283.22,-18.8419 1280.83,-19.5783 1280.83,-19.5783 1280.83,-19.5783 1283.22,-18.8419 1280.17,-17.4281 1285.61,-18.1056 1285.61,-18.1056"/>
</g>
<!-- 19&#45;&gt;82 -->
<g id="edge62" class="edge"><title>19&#45;&gt;82</title>
<path fill="none" stroke="black" d="M915.155,-67.0763C855.252,-64.1532 680.726,-53.3663 539.5,-22 536.753,-21.39 533.904,-20.6234 531.103,-19.7874"/>
<polygon fill="black" stroke="black" points="526.147,-18.2265 531.592,-17.5824 528.532,-18.9775 530.916,-19.7285 530.916,-19.7285 530.916,-19.7285 528.532,-18.9775 530.24,-21.8746 526.147,-18.2265 526.147,-18.2265"/>
</g>
<!-- 15&#45;&gt;38 -->
<g id="edge128" class="edge"><title>15&#45;&gt;38</title>
<path fill="none" stroke="black" d="M712.332,-64.3998C750.171,-57.3806 835.166,-40.8888 905.5,-22 908.511,-21.1915 911.662,-20.2674 914.754,-19.3152"/>
<polygon fill="black" stroke="black" points="919.535,-17.8081 915.443,-21.4572 917.151,-18.5597 914.767,-19.3113 914.767,-19.3113 914.767,-19.3113 917.151,-18.5597 914.09,-17.1654 919.535,-17.8081 919.535,-17.8081"/>
</g>
<!-- 15&#45;&gt;69 -->
<g id="edge130" class="edge"><title>15&#45;&gt;69</title>
<path fill="none" stroke="black" d="M671.155,-67.0763C611.252,-64.1532 436.726,-53.3663 295.5,-22 292.753,-21.39 289.904,-20.6234 287.103,-19.7874"/>
<polygon fill="black" stroke="black" points="282.147,-18.2265 287.592,-17.5824 284.532,-18.9775 286.916,-19.7285 286.916,-19.7285 286.916,-19.7285 284.532,-18.9775 286.24,-21.8746 282.147,-18.2265 282.147,-18.2265"/>
</g>
<!-- 15&#45;&gt;62 -->
<g id="edge126" class="edge"><title>15&#45;&gt;62</title>
<path fill="none" stroke="black" d="M682.699,-59.0026C672.621,-49.7505 656.834,-35.2571 645.454,-24.8098"/>
<polygon fill="black" stroke="black" points="641.479,-21.1611 646.684,-22.885 643.321,-22.8518 645.162,-24.5425 645.162,-24.5425 645.162,-24.5425 643.321,-22.8518 643.641,-26.1999 641.479,-21.1611 641.479,-21.1611"/>
</g>
<!-- 15&#45;&gt;57 -->
<g id="edge127" class="edge"><title>15&#45;&gt;57</title>
<path fill="none" stroke="black" d="M702.301,-59.0026C712.379,-49.7505 728.166,-35.2571 739.546,-24.8098"/>
<polygon fill="black" stroke="black" points="743.521,-21.1611 741.359,-26.1999 741.679,-22.8518 739.838,-24.5425 739.838,-24.5425 739.838,-24.5425 741.679,-22.8518 738.316,-22.885 743.521,-21.1611 743.521,-21.1611"/>
</g>
<!-- 15&#45;&gt;68 -->
<g id="edge129" class="edge"><title>15&#45;&gt;68</title>
<path fill="none" stroke="black" d="M672.852,-64.526C634.954,-57.6604 549.249,-41.3323 478.5,-22 475.786,-21.2584 472.956,-20.4129 470.166,-19.5349"/>
<polygon fill="black" stroke="black" points="465.219,-17.9347 470.669,-17.3329 467.598,-18.7042 469.977,-19.4737 469.977,-19.4737 469.977,-19.4737 467.598,-18.7042 469.284,-21.6145 465.219,-17.9347 465.219,-17.9347"/>
</g>
<!-- 9&#45;&gt;38 -->
<g id="edge71" class="edge"><title>9&#45;&gt;38</title>
<path fill="none" stroke="black" d="M1524.91,-68.1618C1448.07,-68.3432 1181.06,-65.5928 966.5,-22 963.675,-21.4261 960.748,-20.667 957.878,-19.8229"/>
<polygon fill="black" stroke="black" points="952.809,-18.2331 958.254,-17.5827 955.195,-18.9813 957.58,-19.7296 957.58,-19.7296 957.58,-19.7296 955.195,-18.9813 956.907,-21.8765 952.809,-18.2331 952.809,-18.2331"/>
</g>
<!-- 9&#45;&gt;56 -->
<g id="edge73" class="edge"><title>9&#45;&gt;56</title>
<path fill="none" stroke="black" d="M1525.16,-67.3121C1393.51,-63.0209 694.138,-39.5398 600.5,-22 597.667,-21.4693 594.734,-20.7358 591.862,-19.9048"/>
<polygon fill="black" stroke="black" points="586.791,-18.3267 592.234,-17.6642 589.178,-19.0697 591.565,-19.8126 591.565,-19.8126 591.565,-19.8126 589.178,-19.0697 590.897,-21.961 586.791,-18.3267 586.791,-18.3267"/>
</g>
<!-- 9&#45;&gt;40 -->
<g id="edge70" class="edge"><title>9&#45;&gt;40</title>
<path fill="none" stroke="black" d="M1546.5,-57.9883C1546.5,-49.4941 1546.5,-37.1697 1546.5,-27.4169"/>
<polygon fill="black" stroke="black" points="1546.5,-22.3039 1548.75,-27.3038 1546.5,-24.8039 1546.5,-27.3039 1546.5,-27.3039 1546.5,-27.3039 1546.5,-24.8039 1544.25,-27.3039 1546.5,-22.3039 1546.5,-22.3039"/>
</g>
<!-- 9&#45;&gt;49 -->
<g id="edge68" class="edge"><title>9&#45;&gt;49</title>
<path fill="none" stroke="black" d="M1564.32,-62.7224C1592.74,-54.2771 1650.08,-37.135 1698.5,-22 1701.27,-21.1353 1704.17,-20.2161 1707.04,-19.2988"/>
<polygon fill="black" stroke="black" points="1712.14,-17.6619 1708.07,-21.3324 1709.76,-18.426 1707.38,-19.19 1707.38,-19.19 1707.38,-19.19 1709.76,-18.426 1706.69,-17.0477 1712.14,-17.6619 1712.14,-17.6619"/>
</g>
<!-- 9&#45;&gt;44 -->
<g id="edge69" class="edge"><title>9&#45;&gt;44</title>
<path fill="none" stroke="black" d="M1566.2,-64.5384C1577.9,-62.5278 1593.03,-60.0042 1606.5,-58 1728.42,-39.8649 1761.24,-49.0331 1881.5,-22 1884.54,-21.3163 1887.71,-20.4634 1890.81,-19.5459"/>
<polygon fill="black" stroke="black" points="1895.6,-18.0658 1891.49,-21.6922 1893.21,-18.8042 1890.82,-19.5425 1890.82,-19.5425 1890.82,-19.5425 1893.21,-18.8042 1890.16,-17.3929 1895.6,-18.0658 1895.6,-18.0658"/>
</g>
<!-- 9&#45;&gt;55 -->
<g id="edge72" class="edge"><title>9&#45;&gt;55</title>
<path fill="none" stroke="black" d="M1525.08,-67.3359C1422.37,-64.0392 979.786,-48.5225 844.5,-22 841.672,-21.4455 838.742,-20.6978 835.87,-19.8596"/>
<polygon fill="black" stroke="black" points="830.801,-18.2751 836.245,-17.6193 833.187,-19.0209 835.573,-19.7668 835.573,-19.7668 835.573,-19.7668 833.187,-19.0209 834.902,-21.9143 830.801,-18.2751 830.801,-18.2751"/>
</g>
<!-- 27&#45;&gt;90 -->
<g id="edge45" class="edge"><title>27&#45;&gt;90</title>
<path fill="none" stroke="black" d="M347.639,-66.0021C371.952,-63.7659 413.076,-60.1722 448.5,-58 840.977,-33.9334 945.385,-90.993 1332.5,-22 1335.64,-21.44 1338.91,-20.6409 1342.08,-19.7353"/>
<polygon fill="black" stroke="black" points="1346.98,-18.2437 1342.85,-21.8535 1344.59,-18.9725 1342.2,-19.7012 1342.2,-19.7012 1342.2,-19.7012 1344.59,-18.9725 1341.54,-17.5489 1346.98,-18.2437 1346.98,-18.2437"/>
</g>
<!-- 27&#45;&gt;92 -->
<g id="edge46" class="edge"><title>27&#45;&gt;92</title>
<path fill="none" stroke="black" d="M308.545,-62.7896C279.906,-54.4366 222.151,-37.4185 173.5,-22 170.883,-21.1707 168.144,-20.2839 165.431,-19.3936"/>
<polygon fill="black" stroke="black" points="160.605,-17.7992 166.059,-17.2316 162.979,-18.5836 165.353,-19.368 165.353,-19.368 165.353,-19.368 162.979,-18.5836 164.647,-21.5044 160.605,-17.7992 160.605,-17.7992"/>
</g>
<!-- 27&#45;&gt;93 -->
<g id="edge47" class="edge"><title>27&#45;&gt;93</title>
<path fill="none" stroke="black" d="M305.922,-65.6728C259.875,-60.2235 145.216,-45.3062 51.5,-22 48.7695,-21.321 45.9299,-20.513 43.1344,-19.655"/>
<polygon fill="black" stroke="black" points="38.183,-18.0735 43.6306,-17.4516 40.5645,-18.8342 42.946,-19.5949 42.946,-19.5949 42.946,-19.5949 40.5645,-18.8342 42.2614,-21.7382 38.183,-18.0735 38.183,-18.0735"/>
</g>
<!-- 27&#45;&gt;94 -->
<g id="edge48" class="edge"><title>27&#45;&gt;94</title>
<path fill="none" stroke="black" d="M306.852,-64.526C268.954,-57.6604 183.249,-41.3323 112.5,-22 109.786,-21.2584 106.956,-20.4129 104.166,-19.5349"/>
<polygon fill="black" stroke="black" points="99.2193,-17.9347 104.669,-17.3329 101.598,-18.7042 103.977,-19.4737 103.977,-19.4737 103.977,-19.4737 101.598,-18.7042 103.284,-21.6145 99.2193,-17.9347 99.2193,-17.9347"/>
</g>
<!-- 27&#45;&gt;83 -->
<g id="edge44" class="edge"><title>27&#45;&gt;83</title>
<path fill="none" stroke="black" d="M336.301,-59.0026C346.379,-49.7505 362.166,-35.2571 373.546,-24.8098"/>
<polygon fill="black" stroke="black" points="377.521,-21.1611 375.359,-26.1999 375.679,-22.8518 373.838,-24.5425 373.838,-24.5425 373.838,-24.5425 375.679,-22.8518 372.316,-22.885 377.521,-21.1611 377.521,-21.1611"/>
</g>
<!-- 27&#45;&gt;69 -->
<g id="edge43" class="edge"><title>27&#45;&gt;69</title>
<path fill="none" stroke="black" d="M316.699,-59.0026C306.621,-49.7505 290.834,-35.2571 279.454,-24.8098"/>
<polygon fill="black" stroke="black" points="275.479,-21.1611 280.684,-22.885 277.321,-22.8518 279.162,-24.5425 279.162,-24.5425 279.162,-24.5425 277.321,-22.8518 277.641,-26.1999 275.479,-21.1611 275.479,-21.1611"/>
</g>
<!-- 27&#45;&gt;56 -->
<g id="edge42" class="edge"><title>27&#45;&gt;56</title>
<path fill="none" stroke="black" d="M346.332,-64.3998C384.171,-57.3806 469.166,-40.8888 539.5,-22 542.511,-21.1915 545.662,-20.2674 548.754,-19.3152"/>
<polygon fill="black" stroke="black" points="553.535,-17.8081 549.443,-21.4572 551.151,-18.5597 548.767,-19.3113 548.767,-19.3113 548.767,-19.3113 551.151,-18.5597 548.09,-17.1654 553.535,-17.8081 553.535,-17.8081"/>
</g>
</g>
</svg>
