<?xml version="1.0" encoding="UTF-8" standalone="no"?>
<?xml-stylesheet href="style.css" type="text/css"?>
<!DOCTYPE svg PUBLIC "-//W3C//DTD SVG 1.1//EN"
 "http://www.w3.org/Graphics/SVG/1.1/DTD/svg11.dtd">
<!-- Generated by graphviz version 2.38.0 (20140413.2041)
 -->
<!-- Title: 10.svg Pages: 1 -->
<svg width="929pt" height="316pt"
 viewBox="0.00 0.00 928.50 316.00" xmlns="http://www.w3.org/2000/svg" xmlns:xlink="http://www.w3.org/1999/xlink">
<g id="graph0" class="graph" transform="scale(1 1) rotate(0) translate(4 312)">
<title>10.svg</title>
<polygon fill="white" stroke="none" points="-4,4 -4,-312 924.5,-312 924.5,4 -4,4"/>
<!-- r0 -->
<g id="node1" class="node"><title>r0</title>
<polygon fill="none" stroke="black" stroke-dasharray="5,2" points="632,-308 609,-308 609,-290 632,-290 632,-308"/>
<text text-anchor="middle" x="620.5" y="-296.8" font-family="serif" font-size="9.00">0</text>
</g>
<!-- v0 -->
<g id="v0_Building" class="node"><title>v0</title>
<ellipse fill="none" stroke="black" cx="620.5" cy="-243" rx="36" ry="11"/>
<text text-anchor="middle" x="620.5" y="-240.8" font-family="sans-serif" font-size="9.00">Building</text>
</g>
<!-- r0&#45;&gt;v0 -->
<g id="edge1" class="edge"><title>r0&#45;&gt;v0</title>
<path fill="none" stroke="black" d="M620.5,-289.562C620.5,-281.453 620.5,-269.014 620.5,-259.181"/>
<polygon fill="black" stroke="black" points="620.5,-254.03 622.75,-259.03 620.5,-256.53 620.5,-259.03 620.5,-259.03 620.5,-259.03 620.5,-256.53 618.25,-259.03 620.5,-254.03 620.5,-254.03"/>
</g>
<!-- e2 -->
<g id="node2" class="node"><title>e2</title>
</g>
<!-- v5 -->
<g id="v5_SmartLight" class="node"><title>v5</title>
<ellipse fill="none" stroke="black" cx="160.5" cy="-11" rx="43" ry="11"/>
<text text-anchor="middle" x="160.5" y="-8.8" font-family="sans-serif" font-size="9.00">SmartLight</text>
</g>
<!-- e2&#45;&gt;v5 -->
<g id="edge18" class="edge"><title>e2&#45;&gt;v5</title>
<path fill="none" stroke="green" d="M160.5,-64.1674C160.5,-55.5862 160.5,-34.5957 160.5,-22.0117"/>
<polygon fill="green" stroke="green" points="164,-67.3001 157,-67.2999 157,-65.8999 164,-65.9001 164,-67.3001"/>
<polyline fill="none" stroke="green" points="160.5,-68 160.5,-64.5 "/>
</g>
<!-- v1 -->
<g id="v1_Floor" class="node"><title>v1</title>
<ellipse fill="none" stroke="black" cx="460.5" cy="-185" rx="25" ry="11"/>
<text text-anchor="middle" x="460.5" y="-182.8" font-family="sans-serif" font-size="9.00">Floor</text>
</g>
<!-- v0&#45;&gt;v1 -->
<g id="edge2" class="edge"><title>v0&#45;&gt;v1</title>
<path fill="none" stroke="black" d="M598.253,-234.213C568.095,-223.658 514.493,-204.898 483.801,-194.155"/>
<polygon fill="black" stroke="black" points="479.079,-192.503 484.542,-192.031 481.439,-193.329 483.798,-194.154 483.798,-194.154 483.798,-194.154 481.439,-193.329 483.055,-196.278 479.079,-192.503 479.079,-192.503"/>
</g>
<!-- v6 -->
<g id="v6_InstallationBus" class="node"><title>v6</title>
<ellipse fill="none" stroke="black" cx="859.5" cy="-11" rx="61" ry="11"/>
<text text-anchor="middle" x="859.5" y="-8.8" font-family="sans-serif" font-size="9.00">InstallationBus</text>
</g>
<!-- v0&#45;&gt;v6 -->
<g id="edge3" class="edge"><title>v0&#45;&gt;v6</title>
<path fill="none" stroke="black" d="M630.465,-232.41C668.112,-196.181 801.75,-67.5749 845.513,-25.4599"/>
<polygon fill="black" stroke="black" points="849.225,-21.888 847.183,-26.9763 847.424,-23.6215 845.622,-25.3551 845.622,-25.3551 845.622,-25.3551 847.424,-23.6215 844.062,-23.7338 849.225,-21.888 849.225,-21.888"/>
</g>
<!-- v2 -->
<g id="v2_Room" class="node"><title>v2</title>
<ellipse fill="none" stroke="black" cx="180.5" cy="-127" rx="21.5" ry="11"/>
<text text-anchor="middle" x="180.5" y="-124.8" font-family="sans-serif" font-size="9.00">Room</text>
</g>
<!-- v1&#45;&gt;v2 -->
<g id="edge4" class="edge"><title>v1&#45;&gt;v2</title>
<path fill="none" stroke="black" d="M438.529,-179.606C387.073,-169.315 259.041,-143.708 205.09,-132.918"/>
<polygon fill="black" stroke="black" points="200.106,-131.921 205.45,-130.695 202.557,-132.411 205.008,-132.902 205.008,-132.902 205.008,-132.902 202.557,-132.411 204.567,-135.108 200.106,-131.921 200.106,-131.921"/>
</g>
<!-- v7 -->
<g id="v7_Hallway" class="node"><title>v7</title>
<ellipse fill="none" stroke="black" cx="366.5" cy="-11" rx="32.5" ry="11"/>
<text text-anchor="middle" x="366.5" y="-8.8" font-family="sans-serif" font-size="9.00">Hallway</text>
</g>
<!-- v1&#45;&gt;v7 -->
<g id="edge5" class="edge"><title>v1&#45;&gt;v7</title>
<path fill="none" stroke="black" d="M455.04,-174.009C439.205,-145.034 393.206,-60.8671 374.526,-26.6863"/>
<polygon fill="black" stroke="black" points="371.975,-22.0185 376.347,-25.327 373.174,-24.2122 374.373,-26.406 374.373,-26.406 374.373,-26.406 373.174,-24.2122 372.399,-27.4851 371.975,-22.0185 371.975,-22.0185"/>
</g>
<!-- v9 -->
<g id="v9_Room" class="node"><title>v9</title>
<ellipse fill="none" stroke="black" cx="460.5" cy="-69" rx="21.5" ry="11"/>
<text text-anchor="middle" x="460.5" y="-66.8" font-family="sans-serif" font-size="9.00">Room</text>
</g>
<!-- v1&#45;&gt;v9 -->
<g id="edge6" class="edge"><title>v1&#45;&gt;v9</title>
<path fill="none" stroke="black" d="M460.5,-173.883C460.5,-153.906 460.5,-109.276 460.5,-85.5402"/>
<polygon fill="black" stroke="black" points="460.5,-80.2579 462.75,-85.2579 460.5,-82.7579 460.5,-85.2579 460.5,-85.2579 460.5,-85.2579 460.5,-82.7579 458.25,-85.258 460.5,-80.2579 460.5,-80.2579"/>
</g>
<!-- v11 -->
<g id="v11_Room" class="node"><title>v11</title>
<ellipse fill="none" stroke="black" cx="609.5" cy="-69" rx="21.5" ry="11"/>
<text text-anchor="middle" x="609.5" y="-66.8" font-family="sans-serif" font-size="9.00">Room</text>
</g>
<!-- v1&#45;&gt;v11 -->
<g id="edge7" class="edge"><title>v1&#45;&gt;v11</title>
<path fill="none" stroke="black" d="M472.192,-175.055C498.87,-154.643 564.232,-104.634 594.126,-81.7627"/>
<polygon fill="black" stroke="black" points="598.27,-78.5919 595.666,-83.4171 596.285,-80.111 594.299,-81.6302 594.299,-81.6302 594.299,-81.6302 596.285,-80.111 592.932,-79.8432 598.27,-78.5919 598.27,-78.5919"/>
</g>
<!-- v3 -->
<g id="v3_Visitor" class="node"><title>v3</title>
<ellipse fill="none" stroke="black" cx="32.5" cy="-69" rx="32.5" ry="11"/>
<text text-anchor="middle" x="32.5" y="-66.8" font-family="sans-serif" font-size="9.00">Visitor</text>
</g>
<!-- v2&#45;&gt;v3 -->
<g id="edge8" class="edge"><title>v2&#45;&gt;v3</title>
<path fill="none" stroke="black" d="M164.096,-119.793C138.235,-110.008 87.8136,-90.9295 57.4463,-79.4391"/>
<polygon fill="black" stroke="black" points="52.7515,-77.6627 58.2243,-77.3279 55.0897,-78.5475 57.428,-79.4323 57.428,-79.4323 57.428,-79.4323 55.0897,-78.5475 56.6317,-81.5367 52.7515,-77.6627 52.7515,-77.6627"/>
</g>
<!-- v2&#45;&gt;v5 -->
<g id="edge9" class="edge"><title>v2&#45;&gt;v5</title>
<path fill="none" stroke="black" d="M164.42,-119.461C149.194,-112.293 127.253,-99.1976 117.5,-80 107.293,-59.9099 127.028,-38.1356 143.02,-24.7783"/>
<polygon fill="black" stroke="black" points="146.984,-21.5699 144.513,-26.4643 145.041,-23.1426 143.098,-24.7153 143.098,-24.7153 143.098,-24.7153 145.041,-23.1426 141.682,-22.9663 146.984,-21.5699 146.984,-21.5699"/>
</g>
<!-- v2&#45;&gt;v7 -->
<g id="edge16" class="edge"><title>v2&#45;&gt;v7</title>
<path fill="none" stroke="green" d="M170.712,-116.804C157.09,-102.897 135.671,-76.2105 150.5,-58 200.364,3.23717 247.413,-39.1476 324.5,-22 329.914,-20.7956 335.708,-19.4519 341.209,-18.1501"/>
</g>
<!-- v8 -->
<g id="v8_Workstation" class="node"><title>v8</title>
<ellipse fill="none" stroke="black" cx="268.5" cy="-11" rx="47" ry="11"/>
<text text-anchor="middle" x="268.5" y="-8.8" font-family="sans-serif" font-size="9.00">Workstation</text>
</g>
<!-- v2&#45;&gt;v8 -->
<g id="edge10" class="edge"><title>v2&#45;&gt;v8</title>
<path fill="none" stroke="black" d="M188.003,-116.28C203.576,-96.106 239.465,-49.6138 257.595,-26.1263"/>
<polygon fill="black" stroke="black" points="260.765,-22.0199 259.491,-27.3528 259.238,-23.9989 257.71,-25.9779 257.71,-25.9779 257.71,-25.9779 259.238,-23.9989 255.929,-24.603 260.765,-22.0199 260.765,-22.0199"/>
</g>
<!-- v4 -->
<g id="v4_Laptop" class="node"><title>v4</title>
<ellipse fill="none" stroke="black" cx="32.5" cy="-11" rx="29" ry="11"/>
<text text-anchor="middle" x="32.5" y="-8.8" font-family="sans-serif" font-size="9.00">Laptop</text>
</g>
<!-- v3&#45;&gt;v4 -->
<g id="edge11" class="edge"><title>v3&#45;&gt;v4</title>
<path fill="none" stroke="black" d="M32.5,-57.9883C32.5,-49.4941 32.5,-37.1697 32.5,-27.4169"/>
<polygon fill="black" stroke="black" points="32.5,-22.3039 34.7501,-27.3038 32.5,-24.8039 32.5001,-27.3039 32.5001,-27.3039 32.5001,-27.3039 32.5,-24.8039 30.2501,-27.3039 32.5,-22.3039 32.5,-22.3039"/>
</g>
<!-- v4&#45;&gt;v6 -->
<g id="edge17" class="edge"><title>v4&#45;&gt;v6</title>
<path fill="none" stroke="green" d="M51.2779,-19.4099C68.2008,-26.4997 93.9656,-36.0958 117.5,-40 190.173,-52.0561 707.97,-52.8919 780.5,-40 800.495,-36.446 822.067,-28.2018 837.609,-21.4084"/>
</g>
<!-- v6&#45;&gt;v8 -->
<g id="edge19" class="edge"><title>v6&#45;&gt;v8</title>
<path fill="none" stroke="green" d="M837.609,-21.4084C822.067,-28.2018 800.495,-36.446 780.5,-40 682.7,-57.3836 430.655,-60.6901 333.5,-40 316.58,-36.3967 298.726,-28.0614 286.021,-21.2474"/>
</g>
<!-- v10 -->
<g id="v10_SmartLight" class="node"><title>v10</title>
<ellipse fill="none" stroke="black" cx="460.5" cy="-11" rx="43" ry="11"/>
<text text-anchor="middle" x="460.5" y="-8.8" font-family="sans-serif" font-size="9.00">SmartLight</text>
</g>
<!-- v6&#45;&gt;v10 -->
<g id="edge20" class="edge"><title>v6&#45;&gt;v10</title>
<path fill="none" stroke="green" d="M837.609,-21.4084C822.067,-28.2018 800.495,-36.446 780.5,-40 667.165,-60.1447 633.789,-65.3331 521.5,-40 505.486,-36.3871 488.744,-28.0527 476.859,-21.2415"/>
</g>
<!-- v12 -->
<g id="v12_SmartLight" class="node"><title>v12</title>
<ellipse fill="none" stroke="black" cx="564.5" cy="-11" rx="43" ry="11"/>
<text text-anchor="middle" x="564.5" y="-8.8" font-family="sans-serif" font-size="9.00">SmartLight</text>
</g>
<!-- v6&#45;&gt;v12 -->
<g id="edge21" class="edge"><title>v6&#45;&gt;v12</title>
<path fill="none" stroke="green" d="M837.609,-21.4084C822.067,-28.2018 800.495,-36.446 780.5,-40 712.674,-52.0557 692.7,-55.1607 625.5,-40 609.486,-36.3871 592.744,-28.0527 580.859,-21.2415"/>
</g>
<!-- v13 -->
<g id="v13_Server" class="node"><title>v13</title>
<ellipse fill="none" stroke="black" cx="654.5" cy="-11" rx="29" ry="11"/>
<text text-anchor="middle" x="654.5" y="-8.8" font-family="sans-serif" font-size="9.00">Server</text>
</g>
<!-- v6&#45;&gt;v13 -->
<g id="edge22" class="edge"><title>v6&#45;&gt;v13</title>
<path fill="none" stroke="green" d="M837.609,-21.4084C822.067,-28.2018 800.495,-36.446 780.5,-40 745.931,-46.1445 735.278,-49.5823 701.5,-40 688.586,-36.3366 675.741,-28.007 666.751,-21.2104"/>
</g>
<!-- v14 -->
<g id="v14_FireAlarm" class="node"><title>v14</title>
<ellipse fill="none" stroke="black" cx="740.5" cy="-11" rx="39.5" ry="11"/>
<text text-anchor="middle" x="740.5" y="-8.8" font-family="sans-serif" font-size="9.00">FireAlarm</text>
</g>
<!-- v6&#45;&gt;v14 -->
<g id="edge23" class="edge"><title>v6&#45;&gt;v14</title>
<path fill="none" stroke="green" d="M798.331,-11C792.225,-11 786.118,-11 780.012,-11"/>
</g>
<!-- v7&#45;&gt;v9 -->
<g id="edge24" class="edge"><title>v7&#45;&gt;v9</title>
<path fill="none" stroke="green" d="M381.317,-20.827C399.508,-31.6646 430.076,-49.8751 447.43,-60.2134"/>
</g>
<!-- v7&#45;&gt;v11 -->
<g id="edge25" class="edge"><title>v7&#45;&gt;v11</title>
<path fill="none" stroke="green" d="M391.811,-18.0642C397.31,-19.3713 403.099,-20.7389 408.5,-22 475.258,-37.586 554.614,-55.5943 590.364,-63.6794"/>
</g>
<!-- v9&#45;&gt;v10 -->
<g id="edge12" class="edge"><title>v9&#45;&gt;v10</title>
<path fill="none" stroke="black" d="M460.5,-57.9883C460.5,-49.4941 460.5,-37.1697 460.5,-27.4169"/>
<polygon fill="black" stroke="black" points="460.5,-22.3039 462.75,-27.3038 460.5,-24.8039 460.5,-27.3039 460.5,-27.3039 460.5,-27.3039 460.5,-24.8039 458.25,-27.3039 460.5,-22.3039 460.5,-22.3039"/>
</g>
<!-- v11&#45;&gt;v12 -->
<g id="edge13" class="edge"><title>v11&#45;&gt;v12</title>
<path fill="none" stroke="black" d="M601.866,-58.5004C594.757,-49.6537 584.065,-36.3472 575.937,-26.2321"/>
<polygon fill="black" stroke="black" points="572.628,-22.1148 577.514,-24.603 574.194,-24.0636 575.76,-26.0124 575.76,-26.0124 575.76,-26.0124 574.194,-24.0636 574.006,-27.4218 572.628,-22.1148 572.628,-22.1148"/>
</g>
<!-- v11&#45;&gt;v13 -->
<g id="edge14" class="edge"><title>v11&#45;&gt;v13</title>
<path fill="none" stroke="black" d="M617.134,-58.5004C624.33,-49.5445 635.2,-36.018 643.363,-25.859"/>
<polygon fill="black" stroke="black" points="646.678,-21.7345 645.3,-27.0414 645.112,-23.6832 643.546,-25.632 643.546,-25.632 643.546,-25.632 645.112,-23.6832 641.792,-24.2226 646.678,-21.7345 646.678,-21.7345"/>
</g>
<!-- v11&#45;&gt;v14 -->
<g id="edge15" class="edge"><title>v11&#45;&gt;v14</title>
<path fill="none" stroke="black" d="M625.042,-61.3562C647.373,-51.81 688.778,-34.11 715.46,-22.7043"/>
<polygon fill="black" stroke="black" points="720.262,-20.6512 716.549,-24.6855 717.964,-21.6339 715.665,-22.6166 715.665,-22.6166 715.665,-22.6166 717.964,-21.6339 714.78,-20.5477 720.262,-20.6512 720.262,-20.6512"/>
</g>
</g>
</svg>
