<?xml version="1.0" encoding="UTF-8" standalone="no"?>
<?xml-stylesheet href="style.css" type="text/css"?>
<!DOCTYPE svg PUBLIC "-//W3C//DTD SVG 1.1//EN"
 "http://www.w3.org/Graphics/SVG/1.1/DTD/svg11.dtd">
<!-- Generated by graphviz version 2.38.0 (20140413.2041)
 -->
<!-- Title: 16.svg Pages: 1 -->
<svg width="849pt" height="374pt"
 viewBox="0.00 0.00 849.00 374.00" xmlns="http://www.w3.org/2000/svg" xmlns:xlink="http://www.w3.org/1999/xlink">
<g id="graph0" class="graph" transform="scale(1 1) rotate(0) translate(4 370)">
<title>16.svg</title>
<polygon fill="white" stroke="none" points="-4,4 -4,-370 845,-370 845,4 -4,4"/>
<!-- r0 -->
<g id="node1" class="node"><title>r0</title>
<polygon fill="none" stroke="black" stroke-dasharray="5,2" points="566,-366 543,-366 543,-348 566,-348 566,-366"/>
<text text-anchor="middle" x="554.5" y="-354.8" font-family="serif" font-size="9.00">0</text>
</g>
<!-- v0 -->
<g id="v0_Building" class="node"><title>v0</title>
<ellipse fill="none" stroke="black" cx="554.5" cy="-301" rx="36" ry="11"/>
<text text-anchor="middle" x="554.5" y="-298.8" font-family="sans-serif" font-size="9.00">Building</text>
</g>
<!-- r0&#45;&gt;v0 -->
<g id="edge1" class="edge"><title>r0&#45;&gt;v0</title>
<path fill="none" stroke="black" d="M554.5,-347.562C554.5,-339.453 554.5,-327.014 554.5,-317.181"/>
<polygon fill="black" stroke="black" points="554.5,-312.03 556.75,-317.03 554.5,-314.53 554.5,-317.03 554.5,-317.03 554.5,-317.03 554.5,-314.53 552.25,-317.03 554.5,-312.03 554.5,-312.03"/>
</g>
<!-- e7 -->
<g id="node2" class="node"><title>e7</title>
</g>
<!-- v8 -->
<g id="v8_SmartLight" class="node"><title>v8</title>
<ellipse fill="none" stroke="black" cx="160.5" cy="-11" rx="43" ry="11"/>
<text text-anchor="middle" x="160.5" y="-8.8" font-family="sans-serif" font-size="9.00">SmartLight</text>
</g>
<!-- e7&#45;&gt;v8 -->
<g id="edge25" class="edge"><title>e7&#45;&gt;v8</title>
<path fill="none" stroke="green" d="M160.5,-64.1674C160.5,-55.5862 160.5,-34.5957 160.5,-22.0117"/>
<polygon fill="green" stroke="green" points="164,-67.3001 157,-67.2999 157,-65.8999 164,-65.9001 164,-67.3001"/>
<polyline fill="none" stroke="green" points="160.5,-68 160.5,-64.5 "/>
</g>
<!-- v1 -->
<g id="v1_Floor" class="node"><title>v1</title>
<ellipse fill="none" stroke="black" cx="460.5" cy="-243" rx="25" ry="11"/>
<text text-anchor="middle" x="460.5" y="-240.8" font-family="sans-serif" font-size="9.00">Floor</text>
</g>
<!-- v0&#45;&gt;v1 -->
<g id="edge2" class="edge"><title>v0&#45;&gt;v1</title>
<path fill="none" stroke="black" d="M539.397,-291.003C522.984,-281.224 496.744,-265.592 479.08,-255.069"/>
<polygon fill="black" stroke="black" points="474.34,-252.245 479.787,-252.871 476.488,-253.525 478.636,-254.804 478.636,-254.804 478.636,-254.804 476.488,-253.525 477.484,-256.737 474.34,-252.245 474.34,-252.245"/>
</g>
<!-- v2 -->
<g id="v2_InstallationBus" class="node"><title>v2</title>
<ellipse fill="none" stroke="black" cx="721.5" cy="-69" rx="61" ry="11"/>
<text text-anchor="middle" x="721.5" y="-66.8" font-family="sans-serif" font-size="9.00">InstallationBus</text>
</g>
<!-- v0&#45;&gt;v2 -->
<g id="edge3" class="edge"><title>v0&#45;&gt;v2</title>
<path fill="none" stroke="black" d="M561.676,-290.117C588.113,-253.707 680.145,-126.956 711.186,-84.2053"/>
<polygon fill="black" stroke="black" points="714.163,-80.105 713.046,-85.473 712.694,-82.128 711.225,-84.151 711.225,-84.151 711.225,-84.151 712.694,-82.128 709.404,-82.829 714.163,-80.105 714.163,-80.105"/>
</g>
<!-- v4 -->
<g id="v4_Room" class="node"><title>v4</title>
<ellipse fill="none" stroke="black" cx="210.5" cy="-185" rx="21.5" ry="11"/>
<text text-anchor="middle" x="210.5" y="-182.8" font-family="sans-serif" font-size="9.00">Room</text>
</g>
<!-- v1&#45;&gt;v4 -->
<g id="edge4" class="edge"><title>v1&#45;&gt;v4</title>
<path fill="none" stroke="black" d="M439.185,-237.225C392.93,-226.864 283.59,-202.372 234.772,-191.437"/>
<polygon fill="black" stroke="black" points="229.683,-190.297 235.054,-189.194 232.122,-190.843 234.562,-191.39 234.562,-191.39 234.562,-191.39 232.122,-190.843 234.07,-193.585 229.683,-190.297 229.683,-190.297"/>
</g>
<!-- v9 -->
<g id="v9_Hallway" class="node"><title>v9</title>
<ellipse fill="none" stroke="black" cx="366.5" cy="-11" rx="32.5" ry="11"/>
<text text-anchor="middle" x="366.5" y="-8.8" font-family="sans-serif" font-size="9.00">Hallway</text>
</g>
<!-- v1&#45;&gt;v9 -->
<g id="edge5" class="edge"><title>v1&#45;&gt;v9</title>
<path fill="none" stroke="black" d="M456.461,-232.117C441.67,-195.928 390.404,-70.489 372.627,-26.9918"/>
<polygon fill="black" stroke="black" points="370.63,-22.105 374.604,-25.8822 371.576,-24.4192 372.522,-26.7334 372.522,-26.7334 372.522,-26.7334 371.576,-24.4192 370.439,-27.5846 370.63,-22.105 370.63,-22.105"/>
</g>
<!-- v11 -->
<g id="v11_Room" class="node"><title>v11</title>
<ellipse fill="none" stroke="black" cx="460.5" cy="-69" rx="21.5" ry="11"/>
<text text-anchor="middle" x="460.5" y="-66.8" font-family="sans-serif" font-size="9.00">Room</text>
</g>
<!-- v1&#45;&gt;v11 -->
<g id="edge6" class="edge"><title>v1&#45;&gt;v11</title>
<path fill="none" stroke="black" d="M460.5,-231.756C460.5,-202.786 460.5,-120.136 460.5,-85.5335"/>
<polygon fill="black" stroke="black" points="460.5,-80.4081 462.75,-85.408 460.5,-82.9081 460.5,-85.4081 460.5,-85.4081 460.5,-85.4081 460.5,-82.9081 458.25,-85.4081 460.5,-80.4081 460.5,-80.4081"/>
</g>
<!-- v13 -->
<g id="v13_Room" class="node"><title>v13</title>
<ellipse fill="none" stroke="black" cx="583.5" cy="-69" rx="21.5" ry="11"/>
<text text-anchor="middle" x="583.5" y="-66.8" font-family="sans-serif" font-size="9.00">Room</text>
</g>
<!-- v1&#45;&gt;v13 -->
<g id="edge7" class="edge"><title>v1&#45;&gt;v13</title>
<path fill="none" stroke="black" d="M467.465,-232.26C488.185,-203.287 549.48,-117.572 573.595,-83.8512"/>
<polygon fill="black" stroke="black" points="576.611,-79.6335 575.533,-85.0094 575.157,-81.667 573.702,-83.7005 573.702,-83.7005 573.702,-83.7005 575.157,-81.667 571.872,-82.3917 576.611,-79.6335 576.611,-79.6335"/>
</g>
<!-- v3 -->
<g id="v3_Data" class="node"><title>v3</title>
<ellipse fill="none" stroke="black" cx="819.5" cy="-11" rx="21.5" ry="11"/>
<text text-anchor="middle" x="819.5" y="-8.8" font-family="sans-serif" font-size="9.00">Data</text>
</g>
<!-- v2&#45;&gt;v3 -->
<g id="edge8" class="edge"><title>v2&#45;&gt;v3</title>
<path fill="none" stroke="black" d="M738.57,-58.2455C756.264,-48.1346 783.798,-32.4014 801.742,-22.1476"/>
<polygon fill="black" stroke="black" points="806.085,-19.6655 802.861,-24.0998 803.915,-20.9059 801.744,-22.1462 801.744,-22.1462 801.744,-22.1462 803.915,-20.9059 800.628,-20.1927 806.085,-19.6655 806.085,-19.6655"/>
</g>
<!-- v6 -->
<g id="v6_Laptop" class="node"><title>v6</title>
<ellipse fill="none" stroke="black" cx="32.5" cy="-69" rx="29" ry="11"/>
<text text-anchor="middle" x="32.5" y="-66.8" font-family="sans-serif" font-size="9.00">Laptop</text>
</g>
<!-- v2&#45;&gt;v6 -->
<g id="edge18" class="edge"><title>v2&#45;&gt;v6</title>
<path fill="none" stroke="green" d="M691.355,-78.6982C668.163,-85.6284 635.169,-94.3476 605.5,-98 408.763,-122.219 356.475,-120.203 159.5,-98 122.643,-93.8454 80.8881,-83.1123 55.637,-75.9344"/>
</g>
<!-- v10 -->
<g id="v10_Workstation" class="node"><title>v10</title>
<ellipse fill="none" stroke="black" cx="268.5" cy="-11" rx="47" ry="11"/>
<text text-anchor="middle" x="268.5" y="-8.8" font-family="sans-serif" font-size="9.00">Workstation</text>
</g>
<!-- v2&#45;&gt;v10 -->
<g id="edge19" class="edge"><title>v2&#45;&gt;v10</title>
<path fill="none" stroke="green" d="M669.977,-63.0497C594.136,-55.5322 448.063,-40.1735 324.5,-22 317.563,-20.9797 310.166,-19.7561 303.098,-18.5205"/>
</g>
<!-- v12 -->
<g id="v12_SmartLight" class="node"><title>v12</title>
<ellipse fill="none" stroke="black" cx="460.5" cy="-11" rx="43" ry="11"/>
<text text-anchor="middle" x="460.5" y="-8.8" font-family="sans-serif" font-size="9.00">SmartLight</text>
</g>
<!-- v2&#45;&gt;v12 -->
<g id="edge20" class="edge"><title>v2&#45;&gt;v12</title>
<path fill="none" stroke="green" d="M684.934,-60.1545C633.306,-49.0771 539.95,-29.0468 491.522,-18.656"/>
</g>
<!-- v14 -->
<g id="v14_SmartLight" class="node"><title>v14</title>
<ellipse fill="none" stroke="black" cx="564.5" cy="-11" rx="43" ry="11"/>
<text text-anchor="middle" x="564.5" y="-8.8" font-family="sans-serif" font-size="9.00">SmartLight</text>
</g>
<!-- v2&#45;&gt;v14 -->
<g id="edge21" class="edge"><title>v2&#45;&gt;v14</title>
<path fill="none" stroke="green" d="M695.926,-58.878C666.036,-48.2165 616.983,-30.7199 588.01,-20.3857"/>
</g>
<!-- v15 -->
<g id="v15_Server" class="node"><title>v15</title>
<ellipse fill="none" stroke="black" cx="654.5" cy="-11" rx="29" ry="11"/>
<text text-anchor="middle" x="654.5" y="-8.8" font-family="sans-serif" font-size="9.00">Server</text>
</g>
<!-- v2&#45;&gt;v15 -->
<g id="edge22" class="edge"><title>v2&#45;&gt;v15</title>
<path fill="none" stroke="green" d="M709.522,-57.9883C697.025,-47.5436 677.6,-31.3076 665.486,-21.1826"/>
</g>
<!-- v16 -->
<g id="v16_FireAlarm" class="node"><title>v16</title>
<ellipse fill="none" stroke="black" cx="740.5" cy="-11" rx="39.5" ry="11"/>
<text text-anchor="middle" x="740.5" y="-8.8" font-family="sans-serif" font-size="9.00">FireAlarm</text>
</g>
<!-- v2&#45;&gt;v16 -->
<g id="edge23" class="edge"><title>v2&#45;&gt;v16</title>
<path fill="none" stroke="green" d="M724.897,-57.9883C728.312,-47.9211 733.554,-32.4737 737.004,-22.3039"/>
</g>
<!-- v5 -->
<g id="v5_Visitor" class="node"><title>v5</title>
<ellipse fill="none" stroke="black" cx="32.5" cy="-127" rx="32.5" ry="11"/>
<text text-anchor="middle" x="32.5" y="-124.8" font-family="sans-serif" font-size="9.00">Visitor</text>
</g>
<!-- v4&#45;&gt;v5 -->
<g id="edge9" class="edge"><title>v4&#45;&gt;v5</title>
<path fill="none" stroke="black" d="M193.109,-178.529C162.048,-168.757 96.8293,-148.238 59.7651,-136.578"/>
<polygon fill="black" stroke="black" points="54.9487,-135.063 60.3935,-134.417 57.3335,-135.813 59.7182,-136.563 59.7182,-136.563 59.7182,-136.563 57.3335,-135.813 59.043,-138.709 54.9487,-135.063 54.9487,-135.063"/>
</g>
<!-- v4&#45;&gt;v8 -->
<g id="edge10" class="edge"><title>v4&#45;&gt;v8</title>
<path fill="none" stroke="black" d="M196.516,-176.385C182.687,-168.307 161.603,-154.45 147.5,-138 128.61,-115.967 124.361,-108.199 117.5,-80 115.188,-70.4994 113.911,-67.0952 117.5,-58 122.697,-44.8313 133.639,-33.2145 143.184,-24.9493"/>
<polygon fill="black" stroke="black" points="147.169,-21.6175 144.777,-26.551 145.251,-23.2212 143.333,-24.8249 143.333,-24.8249 143.333,-24.8249 145.251,-23.2212 141.89,-23.0988 147.169,-21.6175 147.169,-21.6175"/>
</g>
<!-- v4&#45;&gt;v9 -->
<g id="edge24" class="edge"><title>v4&#45;&gt;v9</title>
<path fill="none" stroke="green" d="M200.216,-175.26C175.922,-153.582 119.291,-96.3269 150.5,-58 200.364,3.23717 247.413,-39.1476 324.5,-22 329.914,-20.7956 335.708,-19.4519 341.209,-18.1501"/>
</g>
<!-- v4&#45;&gt;v10 -->
<g id="edge11" class="edge"><title>v4&#45;&gt;v10</title>
<path fill="none" stroke="black" d="M213.869,-174.009C223.6,-145.153 251.789,-61.5561 263.405,-27.1091"/>
<polygon fill="black" stroke="black" points="265.122,-22.0185 265.656,-27.4753 264.323,-24.3874 263.524,-26.7564 263.524,-26.7564 263.524,-26.7564 264.323,-24.3874 261.392,-26.0374 265.122,-22.0185 265.122,-22.0185"/>
</g>
<!-- v5&#45;&gt;v6 -->
<g id="edge12" class="edge"><title>v5&#45;&gt;v6</title>
<path fill="none" stroke="black" d="M32.5,-115.988C32.5,-107.494 32.5,-95.1697 32.5,-85.4169"/>
<polygon fill="black" stroke="black" points="32.5,-80.3039 34.7501,-85.3038 32.5,-82.8039 32.5001,-85.3039 32.5001,-85.3039 32.5001,-85.3039 32.5,-82.8039 30.2501,-85.3039 32.5,-80.3039 32.5,-80.3039"/>
</g>
<!-- v7 -->
<g id="v7_Data" class="node"><title>v7</title>
<ellipse fill="none" stroke="black" cx="32.5" cy="-11" rx="21.5" ry="11"/>
<text text-anchor="middle" x="32.5" y="-8.8" font-family="sans-serif" font-size="9.00">Data</text>
</g>
<!-- v6&#45;&gt;v7 -->
<g id="edge13" class="edge"><title>v6&#45;&gt;v7</title>
<path fill="none" stroke="black" d="M32.5,-57.9883C32.5,-49.4941 32.5,-37.1697 32.5,-27.4169"/>
<polygon fill="black" stroke="black" points="32.5,-22.3039 34.7501,-27.3038 32.5,-24.8039 32.5001,-27.3039 32.5001,-27.3039 32.5001,-27.3039 32.5,-24.8039 30.2501,-27.3039 32.5,-22.3039 32.5,-22.3039"/>
</g>
<!-- v9&#45;&gt;v11 -->
<g id="edge26" class="edge"><title>v9&#45;&gt;v11</title>
<path fill="none" stroke="green" d="M381.317,-20.827C399.508,-31.6646 430.076,-49.8751 447.43,-60.2134"/>
</g>
<!-- v9&#45;&gt;v13 -->
<g id="edge27" class="edge"><title>v9&#45;&gt;v13</title>
<path fill="none" stroke="green" d="M391.165,-18.3651C435.098,-29.7028 525.949,-53.148 564.999,-63.2255"/>
</g>
<!-- v11&#45;&gt;v12 -->
<g id="edge14" class="edge"><title>v11&#45;&gt;v12</title>
<path fill="none" stroke="black" d="M460.5,-57.9883C460.5,-49.4941 460.5,-37.1697 460.5,-27.4169"/>
<polygon fill="black" stroke="black" points="460.5,-22.3039 462.75,-27.3038 460.5,-24.8039 460.5,-27.3039 460.5,-27.3039 460.5,-27.3039 460.5,-24.8039 458.25,-27.3039 460.5,-22.3039 460.5,-22.3039"/>
</g>
<!-- v13&#45;&gt;v14 -->
<g id="edge15" class="edge"><title>v13&#45;&gt;v14</title>
<path fill="none" stroke="black" d="M580.103,-57.9883C577.195,-49.4154 572.962,-36.9411 569.639,-27.1466"/>
<polygon fill="black" stroke="black" points="567.996,-22.3039 571.733,-26.3158 568.799,-24.6713 569.603,-27.0388 569.603,-27.0388 569.603,-27.0388 568.799,-24.6713 567.472,-27.7617 567.996,-22.3039 567.996,-22.3039"/>
</g>
<!-- v13&#45;&gt;v15 -->
<g id="edge16" class="edge"><title>v13&#45;&gt;v15</title>
<path fill="none" stroke="black" d="M594.594,-59.25C606.47,-49.8831 625.409,-34.9453 638.809,-24.3761"/>
<polygon fill="black" stroke="black" points="642.776,-21.2473 640.243,-26.1104 640.813,-22.7955 638.85,-24.3437 638.85,-24.3437 638.85,-24.3437 640.813,-22.7955 637.457,-22.5771 642.776,-21.2473 642.776,-21.2473"/>
</g>
<!-- v13&#45;&gt;v16 -->
<g id="edge17" class="edge"><title>v13&#45;&gt;v16</title>
<path fill="none" stroke="black" d="M600.302,-62.007C627.183,-52.4187 680.141,-33.5294 712.719,-21.9092"/>
<polygon fill="black" stroke="black" points="717.765,-20.1092 713.812,-23.9083 715.411,-20.9491 713.056,-21.7891 713.056,-21.7891 713.056,-21.7891 715.411,-20.9491 712.3,-19.6698 717.765,-20.1092 717.765,-20.1092"/>
</g>
</g>
</svg>
