<?xml version="1.0" encoding="UTF-8" standalone="no"?>
<?xml-stylesheet href="style.css" type="text/css"?>
<!DOCTYPE svg PUBLIC "-//W3C//DTD SVG 1.1//EN"
 "http://www.w3.org/Graphics/SVG/1.1/DTD/svg11.dtd">
<!-- Generated by graphviz version 2.38.0 (20140413.2041)
 -->
<!-- Title: 18.svg Pages: 1 -->
<svg width="794pt" height="374pt"
 viewBox="0.00 0.00 794.00 374.00" xmlns="http://www.w3.org/2000/svg" xmlns:xlink="http://www.w3.org/1999/xlink">
<g id="graph0" class="graph" transform="scale(1 1) rotate(0) translate(4 370)">
<title>18.svg</title>
<polygon fill="white" stroke="none" points="-4,4 -4,-370 790,-370 790,4 -4,4"/>
<!-- r0 -->
<g id="node1" class="node"><title>r0</title>
<polygon fill="none" stroke="black" stroke-dasharray="5,2" points="468,-366 445,-366 445,-348 468,-348 468,-366"/>
<text text-anchor="middle" x="456.5" y="-354.8" font-family="serif" font-size="9.00">0</text>
</g>
<!-- v0 -->
<g id="v0_Building" class="node"><title>v0</title>
<ellipse fill="none" stroke="black" cx="456.5" cy="-301" rx="36" ry="11"/>
<text text-anchor="middle" x="456.5" y="-298.8" font-family="sans-serif" font-size="9.00">Building</text>
</g>
<!-- r0&#45;&gt;v0 -->
<g id="edge1" class="edge"><title>r0&#45;&gt;v0</title>
<path fill="none" stroke="black" d="M456.5,-347.562C456.5,-339.453 456.5,-327.014 456.5,-317.181"/>
<polygon fill="black" stroke="black" points="456.5,-312.03 458.75,-317.03 456.5,-314.53 456.5,-317.03 456.5,-317.03 456.5,-317.03 456.5,-314.53 454.25,-317.03 456.5,-312.03 456.5,-312.03"/>
</g>
<!-- e1 -->
<g id="node2" class="node"><title>e1</title>
</g>
<!-- v4 -->
<g id="v4_Laptop" class="node"><title>v4</title>
<ellipse fill="none" stroke="black" cx="388.5" cy="-69" rx="29" ry="11"/>
<text text-anchor="middle" x="388.5" y="-66.8" font-family="sans-serif" font-size="9.00">Laptop</text>
</g>
<!-- e1&#45;&gt;v4 -->
<g id="edge19" class="edge"><title>e1&#45;&gt;v4</title>
<path fill="none" stroke="green" d="M388.5,-122.167C388.5,-113.586 388.5,-92.5957 388.5,-80.0117"/>
<polygon fill="green" stroke="green" points="392,-125.3 385,-125.3 385,-123.9 392,-123.9 392,-125.3"/>
<polyline fill="none" stroke="green" points="388.5,-126 388.5,-122.5 "/>
</g>
<!-- v1 -->
<g id="v1_Floor" class="node"><title>v1</title>
<ellipse fill="none" stroke="black" cx="412.5" cy="-243" rx="25" ry="11"/>
<text text-anchor="middle" x="412.5" y="-240.8" font-family="sans-serif" font-size="9.00">Floor</text>
</g>
<!-- v0&#45;&gt;v1 -->
<g id="edge2" class="edge"><title>v0&#45;&gt;v1</title>
<path fill="none" stroke="black" d="M448.836,-290.246C441.769,-281.252 431.208,-267.81 423.29,-257.733"/>
<polygon fill="black" stroke="black" points="420.076,-253.643 424.935,-256.184 421.621,-255.608 423.166,-257.574 423.166,-257.574 423.166,-257.574 421.621,-255.608 421.396,-258.964 420.076,-253.643 420.076,-253.643"/>
</g>
<!-- v6 -->
<g id="v6_InstallationBus" class="node"><title>v6</title>
<ellipse fill="none" stroke="black" cx="673.5" cy="-69" rx="61" ry="11"/>
<text text-anchor="middle" x="673.5" y="-66.8" font-family="sans-serif" font-size="9.00">InstallationBus</text>
</g>
<!-- v0&#45;&gt;v6 -->
<g id="edge3" class="edge"><title>v0&#45;&gt;v6</title>
<path fill="none" stroke="black" d="M465.824,-290.117C500.246,-253.633 620.247,-126.443 660.341,-83.9473"/>
<polygon fill="black" stroke="black" points="663.966,-80.105 662.171,-85.2859 662.25,-81.9234 660.535,-83.7419 660.535,-83.7419 660.535,-83.7419 662.25,-81.9234 658.898,-82.1978 663.966,-80.105 663.966,-80.105"/>
</g>
<!-- v2 -->
<g id="v2_Room" class="node"><title>v2</title>
<ellipse fill="none" stroke="black" cx="412.5" cy="-185" rx="21.5" ry="11"/>
<text text-anchor="middle" x="412.5" y="-182.8" font-family="sans-serif" font-size="9.00">Room</text>
</g>
<!-- v1&#45;&gt;v2 -->
<g id="edge4" class="edge"><title>v1&#45;&gt;v2</title>
<path fill="none" stroke="black" d="M412.5,-231.988C412.5,-223.494 412.5,-211.17 412.5,-201.417"/>
<polygon fill="black" stroke="black" points="412.5,-196.304 414.75,-201.304 412.5,-198.804 412.5,-201.304 412.5,-201.304 412.5,-201.304 412.5,-198.804 410.25,-201.304 412.5,-196.304 412.5,-196.304"/>
</g>
<!-- v9 -->
<g id="v9_Hallway" class="node"><title>v9</title>
<ellipse fill="none" stroke="black" cx="32.5" cy="-11" rx="32.5" ry="11"/>
<text text-anchor="middle" x="32.5" y="-8.8" font-family="sans-serif" font-size="9.00">Hallway</text>
</g>
<!-- v1&#45;&gt;v9 -->
<g id="edge5" class="edge"><title>v1&#45;&gt;v9</title>
<path fill="none" stroke="black" d="M391.959,-236.502C366.208,-229.179 321.124,-214.917 285.5,-196 187.383,-143.898 84.5392,-57.5872 47.1619,-24.9968"/>
<polygon fill="black" stroke="black" points="43.3402,-21.6525 48.5847,-23.2521 45.2216,-23.2989 47.103,-24.9453 47.103,-24.9453 47.103,-24.9453 45.2216,-23.2989 45.6212,-26.6385 43.3402,-21.6525 43.3402,-21.6525"/>
</g>
<!-- v10 -->
<g id="v10_Room" class="node"><title>v10</title>
<ellipse fill="none" stroke="black" cx="209.5" cy="-69" rx="21.5" ry="11"/>
<text text-anchor="middle" x="209.5" y="-66.8" font-family="sans-serif" font-size="9.00">Room</text>
</g>
<!-- v1&#45;&gt;v10 -->
<g id="edge6" class="edge"><title>v1&#45;&gt;v10</title>
<path fill="none" stroke="black" d="M395.303,-234.965C362.543,-220.843 290.451,-186.217 245.5,-138 230.933,-122.375 220.517,-99.7349 214.751,-84.9422"/>
<polygon fill="black" stroke="black" points="212.974,-80.2478 216.848,-84.1276 213.859,-82.5859 214.744,-84.9241 214.744,-84.9241 214.744,-84.9241 213.859,-82.5859 212.64,-85.7205 212.974,-80.2478 212.974,-80.2478"/>
</g>
<!-- v14 -->
<g id="v14_Room" class="node"><title>v14</title>
<ellipse fill="none" stroke="black" cx="569.5" cy="-69" rx="21.5" ry="11"/>
<text text-anchor="middle" x="569.5" y="-66.8" font-family="sans-serif" font-size="9.00">Room</text>
</g>
<!-- v1&#45;&gt;v14 -->
<g id="edge7" class="edge"><title>v1&#45;&gt;v14</title>
<path fill="none" stroke="black" d="M421.165,-232.508C447.603,-203.543 527.282,-116.251 557.607,-83.0291"/>
<polygon fill="black" stroke="black" points="561.054,-79.2532 559.345,-84.463 559.368,-81.0996 557.683,-82.9461 557.683,-82.9461 557.683,-82.9461 559.368,-81.0996 556.021,-81.4292 561.054,-79.2532 561.054,-79.2532"/>
</g>
<!-- v3 -->
<g id="v3_Visitor" class="node"><title>v3</title>
<ellipse fill="none" stroke="black" cx="337.5" cy="-127" rx="32.5" ry="11"/>
<text text-anchor="middle" x="337.5" y="-124.8" font-family="sans-serif" font-size="9.00">Visitor</text>
</g>
<!-- v2&#45;&gt;v3 -->
<g id="edge8" class="edge"><title>v2&#45;&gt;v3</title>
<path fill="none" stroke="black" d="M401.109,-175.495C388.631,-166.178 368.497,-151.144 354.226,-140.489"/>
<polygon fill="black" stroke="black" points="350.001,-137.334 355.353,-138.522 352.004,-138.829 354.007,-140.325 354.007,-140.325 354.007,-140.325 352.004,-138.829 352.661,-142.128 350.001,-137.334 350.001,-137.334"/>
</g>
<!-- v5 -->
<g id="v5_SmartLight" class="node"><title>v5</title>
<ellipse fill="none" stroke="black" cx="465.5" cy="-11" rx="43" ry="11"/>
<text text-anchor="middle" x="465.5" y="-8.8" font-family="sans-serif" font-size="9.00">SmartLight</text>
</g>
<!-- v2&#45;&gt;v5 -->
<g id="edge9" class="edge"><title>v2&#45;&gt;v5</title>
<path fill="none" stroke="black" d="M415.579,-174.009C424.47,-145.153 450.23,-61.5561 460.844,-27.1091"/>
<polygon fill="black" stroke="black" points="462.413,-22.0185 463.091,-27.4594 461.677,-24.4076 460.94,-26.7968 460.94,-26.7968 460.94,-26.7968 461.677,-24.4076 458.79,-26.1342 462.413,-22.0185 462.413,-22.0185"/>
</g>
<!-- v2&#45;&gt;v9 -->
<g id="edge18" class="edge"><title>v2&#45;&gt;v9</title>
<path fill="none" stroke="green" d="M392.932,-179.999C368.163,-174.161 325.159,-161.369 295.5,-138 261.41,-111.139 275.625,-82.0544 239.5,-58 177.024,-16.4 147.679,-38.6933 74.5,-22 69.0923,-20.7664 63.3015,-19.4104 57.8009,-18.1058"/>
</g>
<!-- v3&#45;&gt;v4 -->
<g id="edge10" class="edge"><title>v3&#45;&gt;v4</title>
<path fill="none" stroke="black" d="M346.384,-116.246C354.647,-107.172 367.035,-93.5697 376.238,-83.4636"/>
<polygon fill="black" stroke="black" points="379.718,-79.6427 378.015,-84.8544 378.035,-81.491 376.352,-83.3394 376.352,-83.3394 376.352,-83.3394 378.035,-81.491 374.688,-81.8244 379.718,-79.6427 379.718,-79.6427"/>
</g>
<!-- v8 -->
<g id="v8_Data" class="node"><title>v8</title>
<ellipse fill="none" stroke="black" cx="382.5" cy="-11" rx="21.5" ry="11"/>
<text text-anchor="middle" x="382.5" y="-8.8" font-family="sans-serif" font-size="9.00">Data</text>
</g>
<!-- v4&#45;&gt;v8 -->
<g id="edge11" class="edge"><title>v4&#45;&gt;v8</title>
<path fill="none" stroke="black" d="M387.427,-57.9883C386.517,-49.4941 385.197,-37.1697 384.152,-27.4169"/>
<polygon fill="black" stroke="black" points="383.604,-22.3039 386.374,-27.0357 383.87,-24.7896 384.137,-27.2754 384.137,-27.2754 384.137,-27.2754 383.87,-24.7896 381.9,-27.5152 383.604,-22.3039 383.604,-22.3039"/>
</g>
<!-- v5&#45;&gt;v6 -->
<g id="edge20" class="edge"><title>v5&#45;&gt;v6</title>
<path fill="none" stroke="green" d="M493.383,-19.507C531.968,-29.8953 601.451,-48.6022 641.909,-59.4948"/>
</g>
<!-- v7 -->
<g id="v7_Data" class="node"><title>v7</title>
<ellipse fill="none" stroke="black" cx="764.5" cy="-11" rx="21.5" ry="11"/>
<text text-anchor="middle" x="764.5" y="-8.8" font-family="sans-serif" font-size="9.00">Data</text>
</g>
<!-- v6&#45;&gt;v7 -->
<g id="edge12" class="edge"><title>v6&#45;&gt;v7</title>
<path fill="none" stroke="black" d="M689.351,-58.2455C705.456,-48.3348 730.339,-33.0224 747.01,-22.7632"/>
<polygon fill="black" stroke="black" points="751.48,-20.0123 748.401,-24.549 749.351,-21.3225 747.222,-22.6328 747.222,-22.6328 747.222,-22.6328 749.351,-21.3225 746.043,-20.7166 751.48,-20.0123 751.48,-20.0123"/>
</g>
<!-- v11 -->
<g id="v11_SmartLight" class="node"><title>v11</title>
<ellipse fill="none" stroke="black" cx="299.5" cy="-11" rx="43" ry="11"/>
<text text-anchor="middle" x="299.5" y="-8.8" font-family="sans-serif" font-size="9.00">SmartLight</text>
</g>
<!-- v6&#45;&gt;v11 -->
<g id="edge21" class="edge"><title>v6&#45;&gt;v11</title>
<path fill="none" stroke="green" d="M627.586,-61.7187C551.781,-51.3013 403.644,-30.7332 351.5,-22 345.062,-20.9218 338.196,-19.6725 331.634,-18.4299"/>
</g>
<!-- v12 -->
<g id="v12_Server" class="node"><title>v12</title>
<ellipse fill="none" stroke="black" cx="112.5" cy="-11" rx="29" ry="11"/>
<text text-anchor="middle" x="112.5" y="-8.8" font-family="sans-serif" font-size="9.00">Server</text>
</g>
<!-- v6&#45;&gt;v12 -->
<g id="edge22" class="edge"><title>v6&#45;&gt;v12</title>
<path fill="none" stroke="green" d="M628.545,-61.5262C618.97,-60.2591 608.91,-59.0114 599.5,-58 400.01,-36.5575 347.182,-56.3196 149.5,-22 144.386,-21.1122 138.954,-19.8371 133.872,-18.493"/>
</g>
<!-- v13 -->
<g id="v13_FireAlarm" class="node"><title>v13</title>
<ellipse fill="none" stroke="black" cx="198.5" cy="-11" rx="39.5" ry="11"/>
<text text-anchor="middle" x="198.5" y="-8.8" font-family="sans-serif" font-size="9.00">FireAlarm</text>
</g>
<!-- v6&#45;&gt;v13 -->
<g id="edge23" class="edge"><title>v6&#45;&gt;v13</title>
<path fill="none" stroke="green" d="M628.133,-61.6329C618.678,-60.3722 608.769,-59.1 599.5,-58 443.335,-39.4676 402.956,-45.7522 247.5,-22 241.063,-21.0165 234.192,-19.7509 227.694,-18.453"/>
</g>
<!-- v15 -->
<g id="v15_SmartLight" class="node"><title>v15</title>
<ellipse fill="none" stroke="black" cx="569.5" cy="-11" rx="43" ry="11"/>
<text text-anchor="middle" x="569.5" y="-8.8" font-family="sans-serif" font-size="9.00">SmartLight</text>
</g>
<!-- v6&#45;&gt;v15 -->
<g id="edge24" class="edge"><title>v6&#45;&gt;v15</title>
<path fill="none" stroke="green" d="M655.385,-58.2455C636.063,-47.8418 605.687,-31.4855 586.717,-21.2708"/>
</g>
<!-- v16 -->
<g id="v16_Workstation" class="node"><title>v16</title>
<ellipse fill="none" stroke="black" cx="677.5" cy="-11" rx="47" ry="11"/>
<text text-anchor="middle" x="677.5" y="-8.8" font-family="sans-serif" font-size="9.00">Workstation</text>
</g>
<!-- v6&#45;&gt;v16 -->
<g id="edge25" class="edge"><title>v6&#45;&gt;v16</title>
<path fill="none" stroke="green" d="M674.215,-57.9883C674.934,-47.9211 676.038,-32.4737 676.764,-22.3039"/>
</g>
<!-- v9&#45;&gt;v10 -->
<g id="edge26" class="edge"><title>v9&#45;&gt;v10</title>
<path fill="none" stroke="green" d="M54.724,-19.0313C90.329,-30.2962 159.441,-52.162 191.881,-62.4258"/>
</g>
<!-- v9&#45;&gt;v14 -->
<g id="edge27" class="edge"><title>v9&#45;&gt;v14</title>
<path fill="none" stroke="green" d="M56.8119,-18.4029C62.5787,-19.7507 68.7312,-21.0501 74.5,-22 168.177,-37.4256 466.417,-60.3106 548.444,-66.442"/>
</g>
<!-- v10&#45;&gt;v11 -->
<g id="edge13" class="edge"><title>v10&#45;&gt;v11</title>
<path fill="none" stroke="black" d="M222.395,-59.9766C237.54,-50.553 262.808,-34.8303 280.269,-23.9657"/>
<polygon fill="black" stroke="black" points="284.529,-21.315 281.473,-25.867 282.407,-22.6358 280.284,-23.9566 280.284,-23.9566 280.284,-23.9566 282.407,-22.6358 279.095,-22.0462 284.529,-21.315 284.529,-21.315"/>
</g>
<!-- v10&#45;&gt;v12 -->
<g id="edge14" class="edge"><title>v10&#45;&gt;v12</title>
<path fill="none" stroke="black" d="M196.013,-60.2134C179.408,-50.6274 151.08,-34.2731 132.08,-23.3041"/>
<polygon fill="black" stroke="black" points="127.464,-20.6388 132.919,-21.1901 129.629,-21.8887 131.794,-23.1387 131.794,-23.1387 131.794,-23.1387 129.629,-21.8887 130.669,-25.0873 127.464,-20.6388 127.464,-20.6388"/>
</g>
<!-- v10&#45;&gt;v13 -->
<g id="edge15" class="edge"><title>v10&#45;&gt;v13</title>
<path fill="none" stroke="black" d="M207.533,-57.9883C205.865,-49.4941 203.444,-37.1697 201.528,-27.4169"/>
<polygon fill="black" stroke="black" points="200.524,-22.3039 203.696,-26.7764 201.006,-24.757 201.488,-27.2101 201.488,-27.2101 201.488,-27.2101 201.006,-24.757 199.28,-27.6438 200.524,-22.3039 200.524,-22.3039"/>
</g>
<!-- v14&#45;&gt;v15 -->
<g id="edge16" class="edge"><title>v14&#45;&gt;v15</title>
<path fill="none" stroke="black" d="M569.5,-57.9883C569.5,-49.4941 569.5,-37.1697 569.5,-27.4169"/>
<polygon fill="black" stroke="black" points="569.5,-22.3039 571.75,-27.3038 569.5,-24.8039 569.5,-27.3039 569.5,-27.3039 569.5,-27.3039 569.5,-24.8039 567.25,-27.3039 569.5,-22.3039 569.5,-22.3039"/>
</g>
<!-- v14&#45;&gt;v16 -->
<g id="edge17" class="edge"><title>v14&#45;&gt;v16</title>
<path fill="none" stroke="black" d="M583.619,-60.679C601.692,-51.3076 633.232,-34.9536 654.722,-23.8106"/>
<polygon fill="black" stroke="black" points="659.416,-21.3771 656.013,-25.6762 657.196,-22.5279 654.977,-23.6787 654.977,-23.6787 654.977,-23.6787 657.196,-22.5279 653.941,-21.6813 659.416,-21.3771 659.416,-21.3771"/>
</g>
</g>
</svg>
