<?xml version="1.0" encoding="UTF-8" standalone="no"?>
<?xml-stylesheet href="style.css" type="text/css"?>
<!DOCTYPE svg PUBLIC "-//W3C//DTD SVG 1.1//EN"
 "http://www.w3.org/Graphics/SVG/1.1/DTD/svg11.dtd">
<!-- Generated by graphviz version 2.38.0 (20140413.2041)
 -->
<!-- Title: 20.svg Pages: 1 -->
<svg width="736pt" height="374pt"
 viewBox="0.00 0.00 735.50 374.00" xmlns="http://www.w3.org/2000/svg" xmlns:xlink="http://www.w3.org/1999/xlink">
<g id="graph0" class="graph" transform="scale(1 1) rotate(0) translate(4 370)">
<title>20.svg</title>
<polygon fill="white" stroke="none" points="-4,4 -4,-370 731.5,-370 731.5,4 -4,4"/>
<!-- r0 -->
<g id="node1" class="node"><title>r0</title>
<polygon fill="none" stroke="black" stroke-dasharray="5,2" points="478.5,-366 455.5,-366 455.5,-348 478.5,-348 478.5,-366"/>
<text text-anchor="middle" x="467" y="-354.8" font-family="serif" font-size="9.00">0</text>
</g>
<!-- v0 -->
<g id="v0_Building" class="node"><title>v0</title>
<ellipse fill="none" stroke="black" cx="467" cy="-301" rx="36" ry="11"/>
<text text-anchor="middle" x="467" y="-298.8" font-family="sans-serif" font-size="9.00">Building</text>
</g>
<!-- r0&#45;&gt;v0 -->
<g id="edge1" class="edge"><title>r0&#45;&gt;v0</title>
<path fill="none" stroke="black" d="M467,-347.562C467,-339.453 467,-327.014 467,-317.181"/>
<polygon fill="black" stroke="black" points="467,-312.03 469.25,-317.03 467,-314.53 467,-317.03 467,-317.03 467,-317.03 467,-314.53 464.75,-317.03 467,-312.03 467,-312.03"/>
</g>
<!-- e3 -->
<g id="node2" class="node"><title>e3</title>
</g>
<!-- v5 -->
<g id="v5_Laptop" class="node"><title>v5</title>
<ellipse fill="none" stroke="black" cx="360" cy="-69" rx="29" ry="11"/>
<text text-anchor="middle" x="360" y="-66.8" font-family="sans-serif" font-size="9.00">Laptop</text>
</g>
<!-- e3&#45;&gt;v5 -->
<g id="edge21" class="edge"><title>e3&#45;&gt;v5</title>
<path fill="none" stroke="green" d="M360,-122.167C360,-113.586 360,-92.5957 360,-80.0117"/>
<polygon fill="green" stroke="green" points="363.5,-125.3 356.5,-125.3 356.5,-123.9 363.5,-123.9 363.5,-125.3"/>
<polyline fill="none" stroke="green" points="360,-126 360,-122.5 "/>
</g>
<!-- v1 -->
<g id="v1_Floor" class="node"><title>v1</title>
<ellipse fill="none" stroke="black" cx="429" cy="-243" rx="25" ry="11"/>
<text text-anchor="middle" x="429" y="-240.8" font-family="sans-serif" font-size="9.00">Floor</text>
</g>
<!-- v0&#45;&gt;v1 -->
<g id="edge2" class="edge"><title>v0&#45;&gt;v1</title>
<path fill="none" stroke="black" d="M460.206,-289.988C454.208,-281.149 445.396,-268.162 438.664,-258.241"/>
<polygon fill="black" stroke="black" points="435.735,-253.925 440.404,-256.799 437.139,-255.994 438.542,-258.062 438.542,-258.062 438.542,-258.062 437.139,-255.994 436.681,-259.326 435.735,-253.925 435.735,-253.925"/>
</g>
<!-- v10 -->
<g id="v10_InstallationBus" class="node"><title>v10</title>
<ellipse fill="none" stroke="black" cx="615" cy="-69" rx="61" ry="11"/>
<text text-anchor="middle" x="615" y="-66.8" font-family="sans-serif" font-size="9.00">InstallationBus</text>
</g>
<!-- v0&#45;&gt;v10 -->
<g id="edge3" class="edge"><title>v0&#45;&gt;v10</title>
<path fill="none" stroke="black" d="M473.359,-290.117C496.741,-253.781 578.021,-127.468 605.692,-84.4655"/>
<polygon fill="black" stroke="black" points="608.498,-80.105 607.684,-85.5273 607.145,-82.2074 605.792,-84.3097 605.792,-84.3097 605.792,-84.3097 607.145,-82.2074 603.9,-83.0922 608.498,-80.105 608.498,-80.105"/>
</g>
<!-- v2 -->
<g id="v2_Room" class="node"><title>v2</title>
<ellipse fill="none" stroke="black" cx="133" cy="-69" rx="21.5" ry="11"/>
<text text-anchor="middle" x="133" y="-66.8" font-family="sans-serif" font-size="9.00">Room</text>
</g>
<!-- v1&#45;&gt;v2 -->
<g id="edge4" class="edge"><title>v1&#45;&gt;v2</title>
<path fill="none" stroke="black" d="M405.047,-239.401C353.43,-232.536 230.902,-209.253 163,-138 148.729,-123.025 140.567,-100.139 136.459,-85.1225"/>
<polygon fill="black" stroke="black" points="135.126,-79.9754 138.558,-84.2511 135.753,-82.3954 136.38,-84.8155 136.38,-84.8155 136.38,-84.8155 135.753,-82.3954 134.202,-85.3799 135.126,-79.9754 135.126,-79.9754"/>
</g>
<!-- v3 -->
<g id="v3_Hallway" class="node"><title>v3</title>
<ellipse fill="none" stroke="black" cx="321" cy="-185" rx="32.5" ry="11"/>
<text text-anchor="middle" x="321" y="-182.8" font-family="sans-serif" font-size="9.00">Hallway</text>
</g>
<!-- v1&#45;&gt;v3 -->
<g id="edge5" class="edge"><title>v1&#45;&gt;v3</title>
<path fill="none" stroke="black" d="M413.526,-233.977C394.764,-224.248 363.056,-207.807 342.074,-196.927"/>
<polygon fill="black" stroke="black" points="337.508,-194.559 342.982,-194.864 339.727,-195.71 341.946,-196.861 341.946,-196.861 341.946,-196.861 339.727,-195.71 340.911,-198.859 337.508,-194.559 337.508,-194.559"/>
</g>
<!-- v12 -->
<g id="v12_Room" class="node"><title>v12</title>
<ellipse fill="none" stroke="black" cx="429" cy="-69" rx="21.5" ry="11"/>
<text text-anchor="middle" x="429" y="-66.8" font-family="sans-serif" font-size="9.00">Room</text>
</g>
<!-- v1&#45;&gt;v12 -->
<g id="edge6" class="edge"><title>v1&#45;&gt;v12</title>
<path fill="none" stroke="black" d="M429,-231.756C429,-202.786 429,-120.136 429,-85.5335"/>
<polygon fill="black" stroke="black" points="429,-80.4081 431.25,-85.408 429,-82.9081 429,-85.4081 429,-85.4081 429,-85.4081 429,-82.9081 426.75,-85.4081 429,-80.4081 429,-80.4081"/>
</g>
<!-- v14 -->
<g id="v14_Room" class="node"><title>v14</title>
<ellipse fill="none" stroke="black" cx="511" cy="-69" rx="21.5" ry="11"/>
<text text-anchor="middle" x="511" y="-66.8" font-family="sans-serif" font-size="9.00">Room</text>
</g>
<!-- v1&#45;&gt;v14 -->
<g id="edge7" class="edge"><title>v1&#45;&gt;v14</title>
<path fill="none" stroke="black" d="M433.763,-232.009C447.577,-203.034 487.703,-118.867 503.998,-84.6863"/>
<polygon fill="black" stroke="black" points="506.224,-80.0185 506.103,-85.5001 505.148,-82.2751 504.072,-84.5318 504.072,-84.5318 504.072,-84.5318 505.148,-82.2751 502.041,-83.5635 506.224,-80.0185 506.224,-80.0185"/>
</g>
<!-- v2&#45;&gt;v3 -->
<g id="edge18" class="edge"><title>v2&#45;&gt;v3</title>
<path fill="none" stroke="green" d="M138.756,-79.7611C147.863,-94.4061 166.947,-122.044 190,-138 222.009,-160.155 265.768,-172.664 293.712,-178.88"/>
</g>
<!-- v6 -->
<g id="v6_SmartLight" class="node"><title>v6</title>
<ellipse fill="none" stroke="black" cx="43" cy="-11" rx="43" ry="11"/>
<text text-anchor="middle" x="43" y="-8.8" font-family="sans-serif" font-size="9.00">SmartLight</text>
</g>
<!-- v2&#45;&gt;v6 -->
<g id="edge8" class="edge"><title>v2&#45;&gt;v6</title>
<path fill="none" stroke="black" d="M120.105,-59.9766C104.96,-50.553 79.6915,-34.8303 62.2307,-23.9657"/>
<polygon fill="black" stroke="black" points="57.9706,-21.315 63.4046,-22.0462 60.0933,-22.6358 62.2159,-23.9566 62.2159,-23.9566 62.2159,-23.9566 60.0933,-22.6358 61.0272,-25.867 57.9706,-21.315 57.9706,-21.315"/>
</g>
<!-- v7 -->
<g id="v7_Server" class="node"><title>v7</title>
<ellipse fill="none" stroke="black" cx="133" cy="-11" rx="29" ry="11"/>
<text text-anchor="middle" x="133" y="-8.8" font-family="sans-serif" font-size="9.00">Server</text>
</g>
<!-- v2&#45;&gt;v7 -->
<g id="edge9" class="edge"><title>v2&#45;&gt;v7</title>
<path fill="none" stroke="black" d="M133,-57.9883C133,-49.4941 133,-37.1697 133,-27.4169"/>
<polygon fill="black" stroke="black" points="133,-22.3039 135.25,-27.3038 133,-24.8039 133,-27.3039 133,-27.3039 133,-27.3039 133,-24.8039 130.75,-27.3039 133,-22.3039 133,-22.3039"/>
</g>
<!-- v8 -->
<g id="v8_FireAlarm" class="node"><title>v8</title>
<ellipse fill="none" stroke="black" cx="219" cy="-11" rx="39.5" ry="11"/>
<text text-anchor="middle" x="219" y="-8.8" font-family="sans-serif" font-size="9.00">FireAlarm</text>
</g>
<!-- v2&#45;&gt;v8 -->
<g id="edge10" class="edge"><title>v2&#45;&gt;v8</title>
<path fill="none" stroke="black" d="M145.322,-59.9766C159.671,-50.6328 183.531,-35.0963 200.198,-24.243"/>
<polygon fill="black" stroke="black" points="204.695,-21.315 201.733,-25.929 202.6,-22.6792 200.505,-24.0434 200.505,-24.0434 200.505,-24.0434 202.6,-22.6792 199.277,-22.1579 204.695,-21.315 204.695,-21.315"/>
</g>
<!-- v4 -->
<g id="v4_Visitor" class="node"><title>v4</title>
<ellipse fill="none" stroke="black" cx="232" cy="-127" rx="32.5" ry="11"/>
<text text-anchor="middle" x="232" y="-124.8" font-family="sans-serif" font-size="9.00">Visitor</text>
</g>
<!-- v3&#45;&gt;v4 -->
<g id="edge11" class="edge"><title>v3&#45;&gt;v4</title>
<path fill="none" stroke="black" d="M306.701,-175.003C291.52,-165.45 267.46,-150.312 250.764,-139.807"/>
<polygon fill="black" stroke="black" points="246.264,-136.975 251.694,-137.734 248.38,-138.306 250.496,-139.638 250.496,-139.638 250.496,-139.638 248.38,-138.306 249.298,-141.542 246.264,-136.975 246.264,-136.975"/>
</g>
<!-- v3&#45;&gt;v12 -->
<g id="edge19" class="edge"><title>v3&#45;&gt;v12</title>
<path fill="none" stroke="green" d="M316.848,-173.778C311.791,-159.53 305.279,-133.485 317,-116 322.56,-107.706 381.561,-86.3848 411.614,-75.9422"/>
</g>
<!-- v3&#45;&gt;v14 -->
<g id="edge20" class="edge"><title>v3&#45;&gt;v14</title>
<path fill="none" stroke="green" d="M322.57,-173.62C325.378,-158.694 332.678,-131.285 350,-116 360.844,-106.431 452.115,-83.9428 492.222,-74.4028"/>
</g>
<!-- v4&#45;&gt;v5 -->
<g id="edge12" class="edge"><title>v4&#45;&gt;v5</title>
<path fill="none" stroke="black" d="M250.612,-117.857C273.623,-107.79 312.763,-90.6662 337.454,-79.8638"/>
<polygon fill="black" stroke="black" points="342.191,-77.7916 338.512,-81.8571 339.9,-78.7937 337.61,-79.7958 337.61,-79.7958 337.61,-79.7958 339.9,-78.7937 336.708,-77.7344 342.191,-77.7916 342.191,-77.7916"/>
</g>
<!-- v9 -->
<g id="v9_Data" class="node"><title>v9</title>
<ellipse fill="none" stroke="black" cx="324" cy="-11" rx="21.5" ry="11"/>
<text text-anchor="middle" x="324" y="-8.8" font-family="sans-serif" font-size="9.00">Data</text>
</g>
<!-- v5&#45;&gt;v9 -->
<g id="edge13" class="edge"><title>v5&#45;&gt;v9</title>
<path fill="none" stroke="black" d="M353.729,-58.2455C347.999,-49.3322 339.461,-36.0497 333.002,-26.0035"/>
<polygon fill="black" stroke="black" points="330.199,-21.6427 334.795,-24.6319 331.551,-23.7456 332.903,-25.8486 332.903,-25.8486 332.903,-25.8486 331.551,-23.7456 331.01,-27.0653 330.199,-21.6427 330.199,-21.6427"/>
</g>
<!-- v6&#45;&gt;v10 -->
<g id="edge22" class="edge"><title>v6&#45;&gt;v10</title>
<path fill="none" stroke="green" d="M74.2559,-18.5853C81.0704,-19.86 88.2592,-21.0826 95,-22 292.05,-48.8179 343.28,-36.6764 541,-58 550.409,-59.0148 560.469,-60.2639 570.044,-61.5313"/>
</g>
<!-- v7&#45;&gt;v10 -->
<g id="edge23" class="edge"><title>v7&#45;&gt;v10</title>
<path fill="none" stroke="green" d="M154.774,-18.5339C159.743,-19.843 165.025,-21.0929 170,-22 332.977,-51.7153 376.441,-38.904 541,-58 550.272,-59.0759 560.182,-60.3377 569.638,-61.5956"/>
</g>
<!-- v8&#45;&gt;v10 -->
<g id="edge24" class="edge"><title>v8&#45;&gt;v10</title>
<path fill="none" stroke="green" d="M252.712,-16.7674C323.823,-26.8234 489.225,-50.2137 569.574,-61.5761"/>
</g>
<!-- v11 -->
<g id="v11_Data" class="node"><title>v11</title>
<ellipse fill="none" stroke="black" cx="706" cy="-11" rx="21.5" ry="11"/>
<text text-anchor="middle" x="706" y="-8.8" font-family="sans-serif" font-size="9.00">Data</text>
</g>
<!-- v10&#45;&gt;v11 -->
<g id="edge14" class="edge"><title>v10&#45;&gt;v11</title>
<path fill="none" stroke="black" d="M630.851,-58.2455C646.956,-48.3348 671.839,-33.0224 688.51,-22.7632"/>
<polygon fill="black" stroke="black" points="692.98,-20.0123 689.901,-24.549 690.851,-21.3225 688.722,-22.6328 688.722,-22.6328 688.722,-22.6328 690.851,-21.3225 687.543,-20.7166 692.98,-20.0123 692.98,-20.0123"/>
</g>
<!-- v13 -->
<g id="v13_SmartLight" class="node"><title>v13</title>
<ellipse fill="none" stroke="black" cx="407" cy="-11" rx="43" ry="11"/>
<text text-anchor="middle" x="407" y="-8.8" font-family="sans-serif" font-size="9.00">SmartLight</text>
</g>
<!-- v10&#45;&gt;v13 -->
<g id="edge25" class="edge"><title>v10&#45;&gt;v13</title>
<path fill="none" stroke="green" d="M583.409,-59.4948C542.951,-48.6022 473.468,-29.8953 434.883,-19.507"/>
</g>
<!-- v15 -->
<g id="v15_SmartLight" class="node"><title>v15</title>
<ellipse fill="none" stroke="black" cx="511" cy="-11" rx="43" ry="11"/>
<text text-anchor="middle" x="511" y="-8.8" font-family="sans-serif" font-size="9.00">SmartLight</text>
</g>
<!-- v10&#45;&gt;v15 -->
<g id="edge26" class="edge"><title>v10&#45;&gt;v15</title>
<path fill="none" stroke="green" d="M596.885,-58.2455C577.563,-47.8418 547.187,-31.4855 528.217,-21.2708"/>
</g>
<!-- v16 -->
<g id="v16_Workstation" class="node"><title>v16</title>
<ellipse fill="none" stroke="black" cx="619" cy="-11" rx="47" ry="11"/>
<text text-anchor="middle" x="619" y="-8.8" font-family="sans-serif" font-size="9.00">Workstation</text>
</g>
<!-- v10&#45;&gt;v16 -->
<g id="edge27" class="edge"><title>v10&#45;&gt;v16</title>
<path fill="none" stroke="green" d="M615.715,-57.9883C616.434,-47.9211 617.538,-32.4737 618.264,-22.3039"/>
</g>
<!-- v12&#45;&gt;v13 -->
<g id="edge15" class="edge"><title>v12&#45;&gt;v13</title>
<path fill="none" stroke="black" d="M425.067,-57.9883C421.699,-49.4154 416.798,-36.9411 412.95,-27.1466"/>
<polygon fill="black" stroke="black" points="411.048,-22.3039 414.97,-26.1349 411.962,-24.6308 412.876,-26.9576 412.876,-26.9576 412.876,-26.9576 411.962,-24.6308 410.782,-27.7804 411.048,-22.3039 411.048,-22.3039"/>
</g>
<!-- v14&#45;&gt;v15 -->
<g id="edge16" class="edge"><title>v14&#45;&gt;v15</title>
<path fill="none" stroke="black" d="M511,-57.9883C511,-49.4941 511,-37.1697 511,-27.4169"/>
<polygon fill="black" stroke="black" points="511,-22.3039 513.25,-27.3038 511,-24.8039 511,-27.3039 511,-27.3039 511,-27.3039 511,-24.8039 508.75,-27.3039 511,-22.3039 511,-22.3039"/>
</g>
<!-- v14&#45;&gt;v16 -->
<g id="edge17" class="edge"><title>v14&#45;&gt;v16</title>
<path fill="none" stroke="black" d="M525.119,-60.679C543.192,-51.3076 574.732,-34.9536 596.222,-23.8106"/>
<polygon fill="black" stroke="black" points="600.916,-21.3771 597.513,-25.6762 598.696,-22.5279 596.477,-23.6787 596.477,-23.6787 596.477,-23.6787 598.696,-22.5279 595.441,-21.6813 600.916,-21.3771 600.916,-21.3771"/>
</g>
</g>
</svg>
