<?xml version="1.0" encoding="UTF-8" standalone="no"?>
<?xml-stylesheet href="style.css" type="text/css"?>
<!DOCTYPE svg PUBLIC "-//W3C//DTD SVG 1.1//EN"
 "http://www.w3.org/Graphics/SVG/1.1/DTD/svg11.dtd">
<!-- Generated by graphviz version 2.38.0 (20140413.2041)
 -->
<!-- Title: 4.svg Pages: 1 -->
<svg width="957pt" height="316pt"
 viewBox="0.00 0.00 956.50 316.00" xmlns="http://www.w3.org/2000/svg" xmlns:xlink="http://www.w3.org/1999/xlink">
<g id="graph0" class="graph" transform="scale(1 1) rotate(0) translate(4 312)">
<title>4.svg</title>
<polygon fill="white" stroke="none" points="-4,4 -4,-312 952.5,-312 952.5,4 -4,4"/>
<!-- r0 -->
<g id="node1" class="node"><title>r0</title>
<polygon fill="none" stroke="black" stroke-dasharray="5,2" points="638,-308 615,-308 615,-290 638,-290 638,-308"/>
<text text-anchor="middle" x="626.5" y="-296.8" font-family="serif" font-size="9.00">0</text>
</g>
<!-- v0 -->
<g id="v0_Building" class="node"><title>v0</title>
<ellipse fill="none" stroke="black" cx="626.5" cy="-243" rx="36" ry="11"/>
<text text-anchor="middle" x="626.5" y="-240.8" font-family="sans-serif" font-size="9.00">Building</text>
</g>
<!-- r0&#45;&gt;v0 -->
<g id="edge1" class="edge"><title>r0&#45;&gt;v0</title>
<path fill="none" stroke="black" d="M626.5,-289.562C626.5,-281.453 626.5,-269.014 626.5,-259.181"/>
<polygon fill="black" stroke="black" points="626.5,-254.03 628.75,-259.03 626.5,-256.53 626.5,-259.03 626.5,-259.03 626.5,-259.03 626.5,-256.53 624.25,-259.03 626.5,-254.03 626.5,-254.03"/>
</g>
<!-- e3 -->
<g id="node2" class="node"><title>e3</title>
</g>
<!-- v5 -->
<g id="v5_Laptop" class="node"><title>v5</title>
<ellipse fill="none" stroke="black" cx="182.5" cy="-11" rx="29" ry="11"/>
<text text-anchor="middle" x="182.5" y="-8.8" font-family="sans-serif" font-size="9.00">Laptop</text>
</g>
<!-- e3&#45;&gt;v5 -->
<g id="edge19" class="edge"><title>e3&#45;&gt;v5</title>
<path fill="none" stroke="green" d="M182.5,-64.1674C182.5,-55.5862 182.5,-34.5957 182.5,-22.0117"/>
<polygon fill="green" stroke="green" points="186,-67.3001 179,-67.2999 179,-65.8999 186,-65.9001 186,-67.3001"/>
<polyline fill="none" stroke="green" points="182.5,-68 182.5,-64.5 "/>
</g>
<!-- v1 -->
<g id="v1_Floor" class="node"><title>v1</title>
<ellipse fill="none" stroke="black" cx="549.5" cy="-185" rx="25" ry="11"/>
<text text-anchor="middle" x="549.5" y="-182.8" font-family="sans-serif" font-size="9.00">Floor</text>
</g>
<!-- v0&#45;&gt;v1 -->
<g id="edge2" class="edge"><title>v0&#45;&gt;v1</title>
<path fill="none" stroke="black" d="M613.438,-232.5C600.373,-222.998 580.233,-208.351 566.055,-198.04"/>
<polygon fill="black" stroke="black" points="561.861,-194.99 567.228,-196.111 563.883,-196.46 565.904,-197.93 565.904,-197.93 565.904,-197.93 563.883,-196.46 564.581,-199.75 561.861,-194.99 561.861,-194.99"/>
</g>
<!-- v14 -->
<g id="v14_InstallationBus" class="node"><title>v14</title>
<ellipse fill="none" stroke="black" cx="887.5" cy="-11" rx="61" ry="11"/>
<text text-anchor="middle" x="887.5" y="-8.8" font-family="sans-serif" font-size="9.00">InstallationBus</text>
</g>
<!-- v0&#45;&gt;v14 -->
<g id="edge3" class="edge"><title>v0&#45;&gt;v14</title>
<path fill="none" stroke="black" d="M637.383,-232.41C678.578,-196.108 825.022,-67.057 872.513,-25.2068"/>
<polygon fill="black" stroke="black" points="876.279,-21.888 874.016,-26.8818 874.404,-23.5409 872.528,-25.1938 872.528,-25.1938 872.528,-25.1938 874.404,-23.5409 871.04,-23.5057 876.279,-21.888 876.279,-21.888"/>
</g>
<!-- v2 -->
<g id="v2_Hallway" class="node"><title>v2</title>
<ellipse fill="none" stroke="black" cx="32.5" cy="-11" rx="32.5" ry="11"/>
<text text-anchor="middle" x="32.5" y="-8.8" font-family="sans-serif" font-size="9.00">Hallway</text>
</g>
<!-- v1&#45;&gt;v2 -->
<g id="edge4" class="edge"><title>v1&#45;&gt;v2</title>
<path fill="none" stroke="black" d="M525.48,-181.842C437.362,-173.489 133.215,-140.691 60.5,-80 44.4727,-66.6228 37.4963,-42.5919 34.5474,-26.9747"/>
<polygon fill="black" stroke="black" points="33.6945,-22.0285 36.7615,-26.5734 34.1193,-24.4921 34.5442,-26.9558 34.5442,-26.9558 34.5442,-26.9558 34.1193,-24.4921 32.3269,-27.3381 33.6945,-22.0285 33.6945,-22.0285"/>
</g>
<!-- v3 -->
<g id="v3_Room" class="node"><title>v3</title>
<ellipse fill="none" stroke="black" cx="362.5" cy="-127" rx="21.5" ry="11"/>
<text text-anchor="middle" x="362.5" y="-124.8" font-family="sans-serif" font-size="9.00">Room</text>
</g>
<!-- v1&#45;&gt;v3 -->
<g id="edge5" class="edge"><title>v1&#45;&gt;v3</title>
<path fill="none" stroke="black" d="M529.841,-178.113C494.984,-167.674 422.536,-145.979 385.453,-134.873"/>
<polygon fill="black" stroke="black" points="380.247,-133.314 385.682,-132.594 382.642,-134.032 385.036,-134.749 385.036,-134.749 385.036,-134.749 382.642,-134.032 384.391,-136.904 380.247,-133.314 380.247,-133.314"/>
</g>
<!-- v9 -->
<g id="v9_Room" class="node"><title>v9</title>
<ellipse fill="none" stroke="black" cx="549.5" cy="-69" rx="21.5" ry="11"/>
<text text-anchor="middle" x="549.5" y="-66.8" font-family="sans-serif" font-size="9.00">Room</text>
</g>
<!-- v1&#45;&gt;v9 -->
<g id="edge6" class="edge"><title>v1&#45;&gt;v9</title>
<path fill="none" stroke="black" d="M549.5,-173.883C549.5,-153.906 549.5,-109.276 549.5,-85.5402"/>
<polygon fill="black" stroke="black" points="549.5,-80.2579 551.75,-85.2579 549.5,-82.7579 549.5,-85.2579 549.5,-85.2579 549.5,-85.2579 549.5,-82.7579 547.25,-85.258 549.5,-80.2579 549.5,-80.2579"/>
</g>
<!-- v11 -->
<g id="v11_Room" class="node"><title>v11</title>
<ellipse fill="none" stroke="black" cx="653.5" cy="-69" rx="21.5" ry="11"/>
<text text-anchor="middle" x="653.5" y="-66.8" font-family="sans-serif" font-size="9.00">Room</text>
</g>
<!-- v1&#45;&gt;v11 -->
<g id="edge7" class="edge"><title>v1&#45;&gt;v11</title>
<path fill="none" stroke="black" d="M558.367,-174.28C577.034,-153.819 620.399,-106.284 641.515,-83.137"/>
<polygon fill="black" stroke="black" points="644.948,-79.3745 643.24,-84.5848 643.263,-81.2214 641.578,-83.0684 641.578,-83.0684 641.578,-83.0684 643.263,-81.2214 639.916,-81.5519 644.948,-79.3745 644.948,-79.3745"/>
</g>
<!-- v2&#45;&gt;v3 -->
<g id="edge16" class="edge"><title>v2&#45;&gt;v3</title>
<path fill="none" stroke="green" d="M37.7937,-22.0174C46.4212,-37.2627 65.0367,-65.9916 89.5,-80 132.774,-104.78 285.254,-119.611 341.476,-124.341"/>
</g>
<!-- v2&#45;&gt;v9 -->
<g id="edge17" class="edge"><title>v2&#45;&gt;v9</title>
<path fill="none" stroke="green" d="M62.7052,-15.2717C157.7,-25.5613 448.815,-57.0941 528.914,-65.7702"/>
</g>
<!-- v2&#45;&gt;v11 -->
<g id="edge18" class="edge"><title>v2&#45;&gt;v11</title>
<path fill="none" stroke="green" d="M63.3955,-14.8127C85.8845,-16.8469 117.076,-19.6409 144.5,-22 337.78,-38.6262 386.645,-37.0033 579.5,-58 597.801,-59.9925 618.567,-62.8513 633.433,-65.0024"/>
</g>
<!-- v4 -->
<g id="v4_Visitor" class="node"><title>v4</title>
<ellipse fill="none" stroke="black" cx="131.5" cy="-69" rx="32.5" ry="11"/>
<text text-anchor="middle" x="131.5" y="-66.8" font-family="sans-serif" font-size="9.00">Visitor</text>
</g>
<!-- v3&#45;&gt;v4 -->
<g id="edge8" class="edge"><title>v3&#45;&gt;v4</title>
<path fill="none" stroke="black" d="M343.62,-121.44C309.469,-113.19 235.161,-95.2268 172.5,-80 168.976,-79.1436 165.282,-78.2445 161.615,-77.3513"/>
<polygon fill="black" stroke="black" points="156.65,-76.1414 162.041,-75.1393 159.079,-76.7334 161.508,-77.3254 161.508,-77.3254 161.508,-77.3254 159.079,-76.7334 160.975,-79.5114 156.65,-76.1414 156.65,-76.1414"/>
</g>
<!-- v6 -->
<g id="v6_SmartLight" class="node"><title>v6</title>
<ellipse fill="none" stroke="black" cx="272.5" cy="-11" rx="43" ry="11"/>
<text text-anchor="middle" x="272.5" y="-8.8" font-family="sans-serif" font-size="9.00">SmartLight</text>
</g>
<!-- v3&#45;&gt;v6 -->
<g id="edge9" class="edge"><title>v3&#45;&gt;v6</title>
<path fill="none" stroke="black" d="M354.827,-116.28C338.899,-96.106 302.195,-49.6138 283.652,-26.1263"/>
<polygon fill="black" stroke="black" points="280.41,-22.0199 285.275,-24.5502 281.96,-23.9822 283.509,-25.9444 283.509,-25.9444 283.509,-25.9444 281.96,-23.9822 281.743,-27.3386 280.41,-22.0199 280.41,-22.0199"/>
</g>
<!-- v7 -->
<g id="v7_Server" class="node"><title>v7</title>
<ellipse fill="none" stroke="black" cx="362.5" cy="-11" rx="29" ry="11"/>
<text text-anchor="middle" x="362.5" y="-8.8" font-family="sans-serif" font-size="9.00">Server</text>
</g>
<!-- v3&#45;&gt;v7 -->
<g id="edge10" class="edge"><title>v3&#45;&gt;v7</title>
<path fill="none" stroke="black" d="M362.5,-115.883C362.5,-95.9059 362.5,-51.276 362.5,-27.5402"/>
<polygon fill="black" stroke="black" points="362.5,-22.2579 364.75,-27.2579 362.5,-24.7579 362.5,-27.2579 362.5,-27.2579 362.5,-27.2579 362.5,-24.7579 360.25,-27.258 362.5,-22.2579 362.5,-22.2579"/>
</g>
<!-- v8 -->
<g id="v8_FireAlarm" class="node"><title>v8</title>
<ellipse fill="none" stroke="black" cx="448.5" cy="-11" rx="39.5" ry="11"/>
<text text-anchor="middle" x="448.5" y="-8.8" font-family="sans-serif" font-size="9.00">FireAlarm</text>
</g>
<!-- v3&#45;&gt;v8 -->
<g id="edge11" class="edge"><title>v3&#45;&gt;v8</title>
<path fill="none" stroke="black" d="M369.832,-116.28C385.052,-96.106 420.125,-49.6138 437.843,-26.1263"/>
<polygon fill="black" stroke="black" points="440.941,-22.0199 439.726,-27.3666 439.435,-24.0157 437.93,-26.0115 437.93,-26.0115 437.93,-26.0115 439.435,-24.0157 436.134,-24.6565 440.941,-22.0199 440.941,-22.0199"/>
</g>
<!-- v4&#45;&gt;v5 -->
<g id="edge12" class="edge"><title>v4&#45;&gt;v5</title>
<path fill="none" stroke="black" d="M140.384,-58.2455C148.647,-49.1716 161.035,-35.5697 170.238,-25.4636"/>
<polygon fill="black" stroke="black" points="173.718,-21.6427 172.015,-26.8544 172.035,-23.491 170.352,-25.3394 170.352,-25.3394 170.352,-25.3394 172.035,-23.491 168.688,-23.8244 173.718,-21.6427 173.718,-21.6427"/>
</g>
<!-- v6&#45;&gt;v14 -->
<g id="edge20" class="edge"><title>v6&#45;&gt;v14</title>
<path fill="none" stroke="green" d="M288.859,-21.2415C300.744,-28.0527 317.486,-36.3871 333.5,-40 436.468,-63.2301 704.573,-58.4725 808.5,-40 828.495,-36.446 850.067,-28.2018 865.609,-21.4084"/>
</g>
<!-- v7&#45;&gt;v14 -->
<g id="edge21" class="edge"><title>v7&#45;&gt;v14</title>
<path fill="none" stroke="green" d="M374.454,-21.2073C383.235,-28.0024 395.802,-36.3316 408.5,-40 493.896,-64.6716 720.983,-55.5558 808.5,-40 828.495,-36.446 850.067,-28.2018 865.609,-21.4084"/>
</g>
<!-- v8&#45;&gt;v14 -->
<g id="edge22" class="edge"><title>v8&#45;&gt;v14</title>
<path fill="none" stroke="green" d="M463.985,-21.2364C475.252,-28.0452 491.16,-36.3788 506.5,-40 571.816,-55.419 742.425,-51.7446 808.5,-40 828.495,-36.446 850.067,-28.2018 865.609,-21.4084"/>
</g>
<!-- v10 -->
<g id="v10_SmartLight" class="node"><title>v10</title>
<ellipse fill="none" stroke="black" cx="549.5" cy="-11" rx="43" ry="11"/>
<text text-anchor="middle" x="549.5" y="-8.8" font-family="sans-serif" font-size="9.00">SmartLight</text>
</g>
<!-- v9&#45;&gt;v10 -->
<g id="edge13" class="edge"><title>v9&#45;&gt;v10</title>
<path fill="none" stroke="black" d="M549.5,-57.9883C549.5,-49.4941 549.5,-37.1697 549.5,-27.4169"/>
<polygon fill="black" stroke="black" points="549.5,-22.3039 551.75,-27.3038 549.5,-24.8039 549.5,-27.3039 549.5,-27.3039 549.5,-27.3039 549.5,-24.8039 547.25,-27.3039 549.5,-22.3039 549.5,-22.3039"/>
</g>
<!-- v10&#45;&gt;v14 -->
<g id="edge23" class="edge"><title>v10&#45;&gt;v14</title>
<path fill="none" stroke="green" d="M565.859,-21.2415C577.744,-28.0527 594.486,-36.3871 610.5,-40 696.343,-59.3666 721.858,-55.4002 808.5,-40 828.495,-36.446 850.067,-28.2018 865.609,-21.4084"/>
</g>
<!-- v12 -->
<g id="v12_SmartLight" class="node"><title>v12</title>
<ellipse fill="none" stroke="black" cx="653.5" cy="-11" rx="43" ry="11"/>
<text text-anchor="middle" x="653.5" y="-8.8" font-family="sans-serif" font-size="9.00">SmartLight</text>
</g>
<!-- v11&#45;&gt;v12 -->
<g id="edge14" class="edge"><title>v11&#45;&gt;v12</title>
<path fill="none" stroke="black" d="M653.5,-57.9883C653.5,-49.4941 653.5,-37.1697 653.5,-27.4169"/>
<polygon fill="black" stroke="black" points="653.5,-22.3039 655.75,-27.3038 653.5,-24.8039 653.5,-27.3039 653.5,-27.3039 653.5,-27.3039 653.5,-24.8039 651.25,-27.3039 653.5,-22.3039 653.5,-22.3039"/>
</g>
<!-- v13 -->
<g id="v13_Workstation" class="node"><title>v13</title>
<ellipse fill="none" stroke="black" cx="761.5" cy="-11" rx="47" ry="11"/>
<text text-anchor="middle" x="761.5" y="-8.8" font-family="sans-serif" font-size="9.00">Workstation</text>
</g>
<!-- v11&#45;&gt;v13 -->
<g id="edge15" class="edge"><title>v11&#45;&gt;v13</title>
<path fill="none" stroke="black" d="M667.619,-60.679C685.692,-51.3076 717.232,-34.9536 738.722,-23.8106"/>
<polygon fill="black" stroke="black" points="743.416,-21.3771 740.013,-25.6762 741.196,-22.5279 738.977,-23.6787 738.977,-23.6787 738.977,-23.6787 741.196,-22.5279 737.941,-21.6813 743.416,-21.3771 743.416,-21.3771"/>
</g>
<!-- v12&#45;&gt;v14 -->
<g id="edge24" class="edge"><title>v12&#45;&gt;v14</title>
<path fill="none" stroke="green" d="M669.859,-21.2415C681.744,-28.0527 698.486,-36.3871 714.5,-40 755.254,-49.1942 767.367,-47.3112 808.5,-40 828.495,-36.446 850.067,-28.2018 865.609,-21.4084"/>
</g>
<!-- v13&#45;&gt;v14 -->
<g id="edge25" class="edge"><title>v13&#45;&gt;v14</title>
<path fill="none" stroke="green" d="M808.75,-11C814.595,-11 820.439,-11 826.284,-11"/>
</g>
</g>
</svg>
