<?xml version="1.0" encoding="UTF-8" standalone="no"?>
<?xml-stylesheet href="style.css" type="text/css"?>
<!DOCTYPE svg PUBLIC "-//W3C//DTD SVG 1.1//EN"
 "http://www.w3.org/Graphics/SVG/1.1/DTD/svg11.dtd">
<!-- Generated by graphviz version 2.38.0 (20140413.2041)
 -->
<!-- Title: 1.svg Pages: 1 -->
<svg width="1431pt" height="374pt"
 viewBox="0.00 0.00 1430.50 374.00" xmlns="http://www.w3.org/2000/svg" xmlns:xlink="http://www.w3.org/1999/xlink">
<g id="graph0" class="graph" transform="scale(1 1) rotate(0) translate(4 370)">
<title>1.svg</title>
<polygon fill="white" stroke="none" points="-4,4 -4,-370 1426.5,-370 1426.5,4 -4,4"/>
<!-- r0 -->
<g id="node1" class="node"><title>r0</title>
<polygon fill="none" stroke="black" stroke-dasharray="5,2" points="210.5,-366 187.5,-366 187.5,-348 210.5,-348 210.5,-366"/>
<text text-anchor="middle" x="199" y="-354.8" font-family="serif" font-size="9.00">0</text>
</g>
<!-- v0 -->
<g id="v0_Building" class="node"><title>v0</title>
<ellipse fill="none" stroke="black" cx="199" cy="-301" rx="36" ry="11"/>
<text text-anchor="middle" x="199" y="-298.8" font-family="sans-serif" font-size="9.00">Building</text>
</g>
<!-- r0&#45;&gt;v0 -->
<g id="edge1" class="edge"><title>r0&#45;&gt;v0</title>
<path fill="none" stroke="black" d="M199,-347.562C199,-339.453 199,-327.014 199,-317.181"/>
<polygon fill="black" stroke="black" points="199,-312.03 201.25,-317.03 199,-314.53 199,-317.03 199,-317.03 199,-317.03 199,-314.53 196.75,-317.03 199,-312.03 199,-312.03"/>
</g>
<!-- r1 -->
<g id="node2" class="node"><title>r1</title>
<polygon fill="none" stroke="black" stroke-dasharray="5,2" points="1068.5,-366 1045.5,-366 1045.5,-348 1068.5,-348 1068.5,-366"/>
<text text-anchor="middle" x="1057" y="-354.8" font-family="serif" font-size="9.00">1</text>
</g>
<!-- v3 -->
<g id="v3_RulesKeywords" class="node"><title>v3</title>
<ellipse fill="none" stroke="black" cx="1057" cy="-69" rx="54" ry="11"/>
<text text-anchor="middle" x="1057" y="-66.8" font-family="sans-serif" font-size="9.00">RulesKeywords</text>
</g>
<!-- r1&#45;&gt;v3 -->
<g id="edge2" class="edge"><title>r1&#45;&gt;v3</title>
<path fill="none" stroke="black" d="M1057,-347.849C1057,-329.373 1057,-282.889 1057,-244 1057,-244 1057,-244 1057,-184 1057,-148.604 1057,-107.026 1057,-85.1783"/>
<polygon fill="black" stroke="black" points="1057,-80.0648 1059.25,-85.0648 1057,-82.5648 1057,-85.0648 1057,-85.0648 1057,-85.0648 1057,-82.5648 1054.75,-85.0648 1057,-80.0648 1057,-80.0648"/>
</g>
<!-- e9 -->
<g id="node3" class="node"><title>e9</title>
</g>
<!-- v16 -->
<g id="v16_Laptop" class="node"><title>v16</title>
<ellipse fill="none" stroke="black" cx="645" cy="-69" rx="29" ry="11"/>
<text text-anchor="middle" x="645" y="-66.8" font-family="sans-serif" font-size="9.00">Laptop</text>
</g>
<!-- e9&#45;&gt;v16 -->
<g id="edge34" class="edge"><title>e9&#45;&gt;v16</title>
<path fill="none" stroke="green" d="M645,-122.167C645,-113.586 645,-92.5957 645,-80.0117"/>
<polygon fill="green" stroke="green" points="648.5,-125.3 641.5,-125.3 641.5,-123.9 648.5,-123.9 648.5,-125.3"/>
<polyline fill="none" stroke="green" points="645,-126 645,-122.5 "/>
</g>
<!-- v1 -->
<g id="v1_InstallationBus" class="node"><title>v1</title>
<ellipse fill="none" stroke="black" cx="61" cy="-69" rx="61" ry="11"/>
<text text-anchor="middle" x="61" y="-66.8" font-family="sans-serif" font-size="9.00">InstallationBus</text>
</g>
<!-- v0&#45;&gt;v1 -->
<g id="edge3" class="edge"><title>v0&#45;&gt;v1</title>
<path fill="none" stroke="black" d="M193.07,-290.117C171.268,-253.781 95.4806,-127.468 69.6793,-84.4655"/>
<polygon fill="black" stroke="black" points="67.063,-80.105 71.5649,-83.2349 68.3493,-82.2488 69.6355,-84.3925 69.6355,-84.3925 69.6355,-84.3925 68.3493,-82.2488 67.7062,-85.5501 67.063,-80.105 67.063,-80.105"/>
</g>
<!-- v4 -->
<g id="v4_Floor" class="node"><title>v4</title>
<ellipse fill="none" stroke="black" cx="304" cy="-243" rx="25" ry="11"/>
<text text-anchor="middle" x="304" y="-240.8" font-family="sans-serif" font-size="9.00">Floor</text>
</g>
<!-- v0&#45;&gt;v4 -->
<g id="edge4" class="edge"><title>v0&#45;&gt;v4</title>
<path fill="none" stroke="black" d="M215.87,-291.003C234.575,-281.027 264.704,-264.958 284.43,-254.437"/>
<polygon fill="black" stroke="black" points="289.208,-251.889 285.855,-256.227 287.002,-253.065 284.796,-254.242 284.796,-254.242 284.796,-254.242 287.002,-253.065 283.738,-252.257 289.208,-251.889 289.208,-251.889"/>
</g>
<!-- v2 -->
<g id="v2_Data" class="node"><title>v2</title>
<ellipse fill="none" stroke="black" cx="34" cy="-11" rx="21.5" ry="11"/>
<text text-anchor="middle" x="34" y="-8.8" font-family="sans-serif" font-size="9.00">Data</text>
</g>
<!-- v1&#45;&gt;v2 -->
<g id="edge5" class="edge"><title>v1&#45;&gt;v2</title>
<path fill="none" stroke="black" d="M56.1729,-57.9883C51.9495,-49.2286 45.7622,-36.3956 40.996,-26.5103"/>
<polygon fill="black" stroke="black" points="38.7853,-21.925 42.9836,-25.4517 39.871,-24.1769 40.9568,-26.4289 40.9568,-26.4289 40.9568,-26.4289 39.871,-24.1769 38.9301,-27.4061 38.7853,-21.925 38.7853,-21.925"/>
</g>
<!-- v6 -->
<g id="v6_SmartLight" class="node"><title>v6</title>
<ellipse fill="none" stroke="black" cx="117" cy="-11" rx="43" ry="11"/>
<text text-anchor="middle" x="117" y="-8.8" font-family="sans-serif" font-size="9.00">SmartLight</text>
</g>
<!-- v1&#45;&gt;v6 -->
<g id="edge25" class="edge"><title>v1&#45;&gt;v6</title>
<path fill="none" stroke="green" d="M71.0117,-57.9883C81.2048,-47.7952 96.9133,-32.0867 107.075,-21.925"/>
</g>
<!-- v8 -->
<g id="v8_SmartLight" class="node"><title>v8</title>
<ellipse fill="none" stroke="black" cx="221" cy="-11" rx="43" ry="11"/>
<text text-anchor="middle" x="221" y="-8.8" font-family="sans-serif" font-size="9.00">SmartLight</text>
</g>
<!-- v1&#45;&gt;v8 -->
<g id="edge26" class="edge"><title>v1&#45;&gt;v8</title>
<path fill="none" stroke="green" d="M86.7068,-59.0026C117.271,-48.3051 167.855,-30.6008 197.443,-20.2451"/>
</g>
<!-- v9 -->
<g id="v9_HVAC" class="node"><title>v9</title>
<ellipse fill="none" stroke="black" cx="304" cy="-11" rx="21.5" ry="11"/>
<text text-anchor="middle" x="304" y="-8.8" font-family="sans-serif" font-size="9.00">HVAC</text>
</g>
<!-- v1&#45;&gt;v9 -->
<g id="edge27" class="edge"><title>v1&#45;&gt;v9</title>
<path fill="none" stroke="green" d="M100.743,-60.5899C143.554,-52.3261 213.538,-38.0002 273,-22 277.587,-20.7657 282.502,-19.2648 287.035,-17.805"/>
</g>
<!-- v10 -->
<g id="v10_FireAlarm" class="node"><title>v10</title>
<ellipse fill="none" stroke="black" cx="383" cy="-11" rx="39.5" ry="11"/>
<text text-anchor="middle" x="383" y="-8.8" font-family="sans-serif" font-size="9.00">FireAlarm</text>
</g>
<!-- v1&#45;&gt;v10 -->
<g id="edge28" class="edge"><title>v1&#45;&gt;v10</title>
<path fill="none" stroke="green" d="M104.109,-61.206C157.982,-52.6074 252.964,-37.0916 334,-22 340.231,-20.8396 346.893,-19.5278 353.233,-18.2454"/>
</g>
<!-- v12 -->
<g id="v12_SmartLight" class="node"><title>v12</title>
<ellipse fill="none" stroke="black" cx="484" cy="-11" rx="43" ry="11"/>
<text text-anchor="middle" x="484" y="-8.8" font-family="sans-serif" font-size="9.00">SmartLight</text>
</g>
<!-- v1&#45;&gt;v12 -->
<g id="edge29" class="edge"><title>v1&#45;&gt;v12</title>
<path fill="none" stroke="green" d="M111.411,-62.7479C182.75,-55.0847 317.162,-39.7978 431,-22 437.753,-20.9441 444.965,-19.6773 451.824,-18.4057"/>
</g>
<!-- v13 -->
<g id="v13_Workstation" class="node"><title>v13</title>
<ellipse fill="none" stroke="black" cx="592" cy="-11" rx="47" ry="11"/>
<text text-anchor="middle" x="592" y="-8.8" font-family="sans-serif" font-size="9.00">Workstation</text>
</g>
<!-- v1&#45;&gt;v13 -->
<g id="edge30" class="edge"><title>v1&#45;&gt;v13</title>
<path fill="none" stroke="green" d="M111.337,-62.7354C126.348,-61.1859 142.838,-59.5035 158,-58 325.937,-41.3468 368.794,-44.8523 536,-22 543.045,-21.0371 550.557,-19.8248 557.716,-18.5796"/>
</g>
<!-- v18 -->
<g id="v18_EnterRoom" class="node"><title>v18</title>
<ellipse fill="none" stroke="black" cx="787" cy="-11" rx="39.5" ry="11"/>
<text text-anchor="middle" x="787" y="-8.8" font-family="sans-serif" font-size="9.00">EnterRoom</text>
</g>
<!-- v3&#45;&gt;v18 -->
<g id="edge6" class="edge"><title>v3&#45;&gt;v18</title>
<path fill="none" stroke="black" d="M1021.42,-60.6214C969.647,-49.8824 874.085,-30.0621 822.404,-19.3431"/>
<polygon fill="black" stroke="black" points="817.238,-18.2717 822.591,-17.0841 819.686,-18.7794 822.134,-19.2872 822.134,-19.2872 822.134,-19.2872 819.686,-18.7794 821.677,-21.4903 817.238,-18.2717 817.238,-18.2717"/>
</g>
<!-- v19 -->
<g id="v19_ExitRoom" class="node"><title>v19</title>
<ellipse fill="none" stroke="black" cx="881" cy="-11" rx="36" ry="11"/>
<text text-anchor="middle" x="881" y="-8.8" font-family="sans-serif" font-size="9.00">ExitRoom</text>
</g>
<!-- v3&#45;&gt;v19 -->
<g id="edge7" class="edge"><title>v3&#45;&gt;v19</title>
<path fill="none" stroke="black" d="M1029.89,-59.3727C997.302,-49.0051 942.873,-31.687 909.629,-21.1093"/>
<polygon fill="black" stroke="black" points="904.482,-19.4717 909.929,-18.8436 906.865,-20.2297 909.247,-20.9877 909.247,-20.9877 909.247,-20.9877 906.865,-20.2297 908.565,-23.1318 904.482,-19.4717 904.482,-19.4717"/>
</g>
<!-- v20 -->
<g id="v20_ConnectDevice" class="node"><title>v20</title>
<ellipse fill="none" stroke="black" cx="989" cy="-11" rx="54" ry="11"/>
<text text-anchor="middle" x="989" y="-8.8" font-family="sans-serif" font-size="9.00">ConnectDevice</text>
</g>
<!-- v3&#45;&gt;v20 -->
<g id="edge8" class="edge"><title>v3&#45;&gt;v20</title>
<path fill="none" stroke="black" d="M1045.16,-58.2455C1034.08,-49.1236 1017.45,-35.4257 1005.15,-25.3036"/>
<polygon fill="black" stroke="black" points="1001.17,-22.0198 1006.46,-23.4615 1003.1,-23.609 1005.03,-25.1983 1005.03,-25.1983 1005.03,-25.1983 1003.1,-23.609 1003.6,-26.9352 1001.17,-22.0198 1001.17,-22.0198"/>
</g>
<!-- v21 -->
<g id="v21_DisconnectDevice" class="node"><title>v21</title>
<ellipse fill="none" stroke="black" cx="1126" cy="-11" rx="65" ry="11"/>
<text text-anchor="middle" x="1126" y="-8.8" font-family="sans-serif" font-size="9.00">DisconnectDevice</text>
</g>
<!-- v3&#45;&gt;v21 -->
<g id="edge9" class="edge"><title>v3&#45;&gt;v21</title>
<path fill="none" stroke="black" d="M1069.02,-58.2455C1080.26,-49.1236 1097.14,-35.4257 1109.61,-25.3036"/>
<polygon fill="black" stroke="black" points="1113.65,-22.0198 1111.19,-26.9177 1111.71,-23.5952 1109.77,-25.1706 1109.77,-25.1706 1109.77,-25.1706 1111.71,-23.5952 1108.35,-23.4236 1113.65,-22.0198 1113.65,-22.0198"/>
</g>
<!-- v22 -->
<g id="v22_CollectData" class="node"><title>v22</title>
<ellipse fill="none" stroke="black" cx="1256" cy="-11" rx="47" ry="11"/>
<text text-anchor="middle" x="1256" y="-8.8" font-family="sans-serif" font-size="9.00">CollectData</text>
</g>
<!-- v3&#45;&gt;v22 -->
<g id="edge10" class="edge"><title>v3&#45;&gt;v22</title>
<path fill="none" stroke="black" d="M1086.36,-59.737C1122.78,-49.4878 1184.72,-32.0599 1222.82,-21.3368"/>
<polygon fill="black" stroke="black" points="1227.8,-19.9343 1223.6,-23.4547 1225.4,-20.6115 1222.99,-21.2888 1222.99,-21.2888 1222.99,-21.2888 1225.4,-20.6115 1222.38,-19.1229 1227.8,-19.9343 1227.8,-19.9343"/>
</g>
<!-- v23 -->
<g id="v23_SendSoftware" class="node"><title>v23</title>
<ellipse fill="none" stroke="black" cx="1372" cy="-11" rx="50.5" ry="11"/>
<text text-anchor="middle" x="1372" y="-8.8" font-family="sans-serif" font-size="9.00">SendSoftware</text>
</g>
<!-- v3&#45;&gt;v23 -->
<g id="edge11" class="edge"><title>v3&#45;&gt;v23</title>
<path fill="none" stroke="black" d="M1095.31,-61.1893C1154.64,-50.6425 1268.3,-30.4364 1329.87,-19.4906"/>
<polygon fill="black" stroke="black" points="1334.93,-18.5899 1330.4,-21.6804 1332.47,-19.0275 1330.01,-19.4651 1330.01,-19.4651 1330.01,-19.4651 1332.47,-19.0275 1329.62,-17.2499 1334.93,-18.5899 1334.93,-18.5899"/>
</g>
<!-- v5 -->
<g id="v5_Room" class="node"><title>v5</title>
<ellipse fill="none" stroke="black" cx="189" cy="-69" rx="21.5" ry="11"/>
<text text-anchor="middle" x="189" y="-66.8" font-family="sans-serif" font-size="9.00">Room</text>
</g>
<!-- v4&#45;&gt;v5 -->
<g id="edge12" class="edge"><title>v4&#45;&gt;v5</title>
<path fill="none" stroke="black" d="M297.488,-232.26C278.116,-203.287 220.807,-117.572 198.261,-83.8512"/>
<polygon fill="black" stroke="black" points="195.441,-79.6335 200.091,-82.5394 196.831,-81.7117 198.22,-83.79 198.22,-83.79 198.22,-83.79 196.831,-81.7117 196.35,-85.0406 195.441,-79.6335 195.441,-79.6335"/>
</g>
<!-- v7 -->
<g id="v7_Room" class="node"><title>v7</title>
<ellipse fill="none" stroke="black" cx="304" cy="-69" rx="21.5" ry="11"/>
<text text-anchor="middle" x="304" y="-66.8" font-family="sans-serif" font-size="9.00">Room</text>
</g>
<!-- v4&#45;&gt;v7 -->
<g id="edge13" class="edge"><title>v4&#45;&gt;v7</title>
<path fill="none" stroke="black" d="M304,-231.756C304,-202.786 304,-120.136 304,-85.5335"/>
<polygon fill="black" stroke="black" points="304,-80.4081 306.25,-85.408 304,-82.9081 304,-85.4081 304,-85.4081 304,-85.4081 304,-82.9081 301.75,-85.4081 304,-80.4081 304,-80.4081"/>
</g>
<!-- v11 -->
<g id="v11_Room" class="node"><title>v11</title>
<ellipse fill="none" stroke="black" cx="484" cy="-69" rx="21.5" ry="11"/>
<text text-anchor="middle" x="484" y="-66.8" font-family="sans-serif" font-size="9.00">Room</text>
</g>
<!-- v4&#45;&gt;v11 -->
<g id="edge14" class="edge"><title>v4&#45;&gt;v11</title>
<path fill="none" stroke="black" d="M313.678,-232.753C343.711,-204.054 435.397,-116.443 470.307,-83.0847"/>
<polygon fill="black" stroke="black" points="474.275,-79.2932 472.214,-84.3742 472.467,-81.0203 470.66,-82.7475 470.66,-82.7475 470.66,-82.7475 472.467,-81.0203 469.105,-81.1208 474.275,-79.2932 474.275,-79.2932"/>
</g>
<!-- v14 -->
<g id="v14_Hallway" class="node"><title>v14</title>
<ellipse fill="none" stroke="black" cx="475" cy="-185" rx="32.5" ry="11"/>
<text text-anchor="middle" x="475" y="-182.8" font-family="sans-serif" font-size="9.00">Hallway</text>
</g>
<!-- v4&#45;&gt;v14 -->
<g id="edge15" class="edge"><title>v4&#45;&gt;v14</title>
<path fill="none" stroke="black" d="M322.953,-235.793C353.371,-225.832 413.195,-206.24 448.047,-194.827"/>
<polygon fill="black" stroke="black" points="453.002,-193.204 448.95,-196.899 450.626,-193.982 448.25,-194.76 448.25,-194.76 448.25,-194.76 450.626,-193.982 447.55,-192.622 453.002,-193.204 453.002,-193.204"/>
</g>
<!-- v5&#45;&gt;v6 -->
<g id="edge16" class="edge"><title>v5&#45;&gt;v6</title>
<path fill="none" stroke="black" d="M178.065,-59.4948C166.229,-50.2888 147.216,-35.5013 133.549,-24.8712"/>
<polygon fill="black" stroke="black" points="129.493,-21.7165 134.821,-23.0102 131.466,-23.2513 133.439,-24.7862 133.439,-24.7862 133.439,-24.7862 131.466,-23.2513 132.058,-26.5623 129.493,-21.7165 129.493,-21.7165"/>
</g>
<!-- v5&#45;&gt;v14 -->
<g id="edge31" class="edge"><title>v5&#45;&gt;v14</title>
<path fill="none" stroke="green" d="M205.157,-76.4403C254.293,-96.0259 401.832,-154.835 455.342,-176.164"/>
</g>
<!-- v7&#45;&gt;v8 -->
<g id="edge17" class="edge"><title>v7&#45;&gt;v8</title>
<path fill="none" stroke="black" d="M291.753,-59.737C277.904,-50.3929 255.211,-35.082 239.267,-24.325"/>
<polygon fill="black" stroke="black" points="234.963,-21.4205 240.366,-22.3519 237.035,-22.8188 239.107,-24.2171 239.107,-24.2171 239.107,-24.2171 237.035,-22.8188 237.849,-26.0822 234.963,-21.4205 234.963,-21.4205"/>
</g>
<!-- v7&#45;&gt;v9 -->
<g id="edge18" class="edge"><title>v7&#45;&gt;v9</title>
<path fill="none" stroke="black" d="M304,-57.9883C304,-49.4941 304,-37.1697 304,-27.4169"/>
<polygon fill="black" stroke="black" points="304,-22.3039 306.25,-27.3038 304,-24.8039 304,-27.3039 304,-27.3039 304,-27.3039 304,-24.8039 301.75,-27.3039 304,-22.3039 304,-22.3039"/>
</g>
<!-- v7&#45;&gt;v10 -->
<g id="edge19" class="edge"><title>v7&#45;&gt;v10</title>
<path fill="none" stroke="black" d="M315.657,-59.737C328.839,-50.3929 350.438,-35.082 365.613,-24.325"/>
<polygon fill="black" stroke="black" points="369.71,-21.4205 366.932,-26.1477 367.671,-22.8663 365.631,-24.3121 365.631,-24.3121 365.631,-24.3121 367.671,-22.8663 364.33,-22.4765 369.71,-21.4205 369.71,-21.4205"/>
</g>
<!-- v7&#45;&gt;v14 -->
<g id="edge32" class="edge"><title>v7&#45;&gt;v14</title>
<path fill="none" stroke="green" d="M320.545,-76.3536C340.113,-84.2346 373.274,-98.7593 399,-116 425.474,-133.742 452.292,-160.152 465.882,-174.27"/>
</g>
<!-- v11&#45;&gt;v12 -->
<g id="edge20" class="edge"><title>v11&#45;&gt;v12</title>
<path fill="none" stroke="black" d="M484,-57.9883C484,-49.4941 484,-37.1697 484,-27.4169"/>
<polygon fill="black" stroke="black" points="484,-22.3039 486.25,-27.3038 484,-24.8039 484,-27.3039 484,-27.3039 484,-27.3039 484,-24.8039 481.75,-27.3039 484,-22.3039 484,-22.3039"/>
</g>
<!-- v11&#45;&gt;v13 -->
<g id="edge21" class="edge"><title>v11&#45;&gt;v13</title>
<path fill="none" stroke="black" d="M498.119,-60.679C516.192,-51.3076 547.732,-34.9536 569.222,-23.8106"/>
<polygon fill="black" stroke="black" points="573.916,-21.3771 570.513,-25.6762 571.696,-22.5279 569.477,-23.6787 569.477,-23.6787 569.477,-23.6787 571.696,-22.5279 568.441,-21.6813 573.916,-21.3771 573.916,-21.3771"/>
</g>
<!-- v11&#45;&gt;v14 -->
<g id="edge33" class="edge"><title>v11&#45;&gt;v14</title>
<path fill="none" stroke="green" d="M483.19,-80.2579C481.477,-101.962 477.502,-152.304 475.799,-173.883"/>
</g>
<!-- v15 -->
<g id="v15_Visitor" class="node"><title>v15</title>
<ellipse fill="none" stroke="black" cx="589" cy="-127" rx="32.5" ry="11"/>
<text text-anchor="middle" x="589" y="-124.8" font-family="sans-serif" font-size="9.00">Visitor</text>
</g>
<!-- v14&#45;&gt;v15 -->
<g id="edge22" class="edge"><title>v14&#45;&gt;v15</title>
<path fill="none" stroke="black" d="M492.314,-175.495C512.35,-165.653 545.374,-149.43 567.157,-138.73"/>
<polygon fill="black" stroke="black" points="571.896,-136.402 568.401,-140.626 569.653,-137.504 567.409,-138.606 567.409,-138.606 567.409,-138.606 569.653,-137.504 566.417,-136.587 571.896,-136.402 571.896,-136.402"/>
</g>
<!-- v15&#45;&gt;v16 -->
<g id="edge23" class="edge"><title>v15&#45;&gt;v16</title>
<path fill="none" stroke="black" d="M598.754,-116.246C607.909,-107.091 621.671,-93.3286 631.804,-83.1962"/>
<polygon fill="black" stroke="black" points="635.357,-79.6427 633.413,-84.7692 633.59,-81.4105 631.822,-83.1782 631.822,-83.1782 631.822,-83.1782 633.59,-81.4105 630.231,-81.5872 635.357,-79.6427 635.357,-79.6427"/>
</g>
<!-- v17 -->
<g id="v17_Software" class="node"><title>v17</title>
<ellipse fill="none" stroke="black" cx="693" cy="-11" rx="36" ry="11"/>
<text text-anchor="middle" x="693" y="-8.8" font-family="sans-serif" font-size="9.00">Software</text>
</g>
<!-- v16&#45;&gt;v17 -->
<g id="edge24" class="edge"><title>v16&#45;&gt;v17</title>
<path fill="none" stroke="black" d="M653.361,-58.2455C661.044,-49.2823 672.514,-35.9007 681.142,-25.8349"/>
<polygon fill="black" stroke="black" points="684.412,-22.0198 682.866,-27.2804 682.785,-23.9179 681.158,-25.8161 681.158,-25.8161 681.158,-25.8161 682.785,-23.9179 679.449,-24.3518 684.412,-22.0198 684.412,-22.0198"/>
</g>
</g>
</svg>
