<?xml version="1.0" encoding="UTF-8" standalone="no"?>
<?xml-stylesheet href="style.css" type="text/css"?>
<!DOCTYPE svg PUBLIC "-//W3C//DTD SVG 1.1//EN"
 "http://www.w3.org/Graphics/SVG/1.1/DTD/svg11.dtd">
<!-- Generated by graphviz version 2.38.0 (20140413.2041)
 -->
<!-- Title: 4.svg Pages: 1 -->
<svg width="1602pt" height="374pt"
 viewBox="0.00 0.00 1602.00 374.00" xmlns="http://www.w3.org/2000/svg" xmlns:xlink="http://www.w3.org/1999/xlink">
<g id="graph0" class="graph" transform="scale(1 1) rotate(0) translate(4 370)">
<title>4.svg</title>
<polygon fill="white" stroke="none" points="-4,4 -4,-370 1598,-370 1598,4 -4,4"/>
<!-- r0 -->
<g id="node1" class="node"><title>r0</title>
<polygon fill="none" stroke="black" stroke-dasharray="5,2" points="614,-366 591,-366 591,-348 614,-348 614,-366"/>
<text text-anchor="middle" x="602.5" y="-354.8" font-family="serif" font-size="9.00">0</text>
</g>
<!-- v0 -->
<g id="v0_Building" class="node"><title>v0</title>
<ellipse fill="none" stroke="black" cx="602.5" cy="-301" rx="36" ry="11"/>
<text text-anchor="middle" x="602.5" y="-298.8" font-family="sans-serif" font-size="9.00">Building</text>
</g>
<!-- r0&#45;&gt;v0 -->
<g id="edge1" class="edge"><title>r0&#45;&gt;v0</title>
<path fill="none" stroke="black" d="M602.5,-347.562C602.5,-339.453 602.5,-327.014 602.5,-317.181"/>
<polygon fill="black" stroke="black" points="602.5,-312.03 604.75,-317.03 602.5,-314.53 602.5,-317.03 602.5,-317.03 602.5,-317.03 602.5,-314.53 600.25,-317.03 602.5,-312.03 602.5,-312.03"/>
</g>
<!-- r1 -->
<g id="node2" class="node"><title>r1</title>
<polygon fill="none" stroke="black" stroke-dasharray="5,2" points="1256,-366 1233,-366 1233,-348 1256,-348 1256,-366"/>
<text text-anchor="middle" x="1244.5" y="-354.8" font-family="serif" font-size="9.00">1</text>
</g>
<!-- v6 -->
<g id="v6_RulesKeywords" class="node"><title>v6</title>
<ellipse fill="none" stroke="black" cx="1244.5" cy="-69" rx="54" ry="11"/>
<text text-anchor="middle" x="1244.5" y="-66.8" font-family="sans-serif" font-size="9.00">RulesKeywords</text>
</g>
<!-- r1&#45;&gt;v6 -->
<g id="edge2" class="edge"><title>r1&#45;&gt;v6</title>
<path fill="none" stroke="black" d="M1244.5,-347.849C1244.5,-329.373 1244.5,-282.889 1244.5,-244 1244.5,-244 1244.5,-244 1244.5,-184 1244.5,-148.604 1244.5,-107.026 1244.5,-85.1783"/>
<polygon fill="black" stroke="black" points="1244.5,-80.0648 1246.75,-85.0648 1244.5,-82.5648 1244.5,-85.0648 1244.5,-85.0648 1244.5,-85.0648 1244.5,-82.5648 1242.25,-85.0648 1244.5,-80.0648 1244.5,-80.0648"/>
</g>
<!-- e3 -->
<g id="node3" class="node"><title>e3</title>
</g>
<!-- v5 -->
<g id="v5_Laptop" class="node"><title>v5</title>
<ellipse fill="none" stroke="black" cx="192.5" cy="-69" rx="29" ry="11"/>
<text text-anchor="middle" x="192.5" y="-66.8" font-family="sans-serif" font-size="9.00">Laptop</text>
</g>
<!-- e3&#45;&gt;v5 -->
<g id="edge27" class="edge"><title>e3&#45;&gt;v5</title>
<path fill="none" stroke="green" d="M192.5,-122.167C192.5,-113.586 192.5,-92.5957 192.5,-80.0117"/>
<polygon fill="green" stroke="green" points="196,-125.3 189,-125.3 189,-123.9 196,-123.9 196,-125.3"/>
<polyline fill="none" stroke="green" points="192.5,-126 192.5,-122.5 "/>
</g>
<!-- v1 -->
<g id="v1_Floor" class="node"><title>v1</title>
<ellipse fill="none" stroke="black" cx="479.5" cy="-243" rx="25" ry="11"/>
<text text-anchor="middle" x="479.5" y="-240.8" font-family="sans-serif" font-size="9.00">Floor</text>
</g>
<!-- v0&#45;&gt;v1 -->
<g id="edge3" class="edge"><title>v0&#45;&gt;v1</title>
<path fill="none" stroke="black" d="M583.819,-291.495C561.483,-281.326 524.187,-264.345 500.766,-253.682"/>
<polygon fill="black" stroke="black" points="495.989,-251.507 501.471,-251.531 498.264,-252.543 500.539,-253.579 500.539,-253.579 500.539,-253.579 498.264,-252.543 499.607,-255.627 495.989,-251.507 495.989,-251.507"/>
</g>
<!-- v22 -->
<g id="v22_InstallationBus" class="node"><title>v22</title>
<ellipse fill="none" stroke="black" cx="817.5" cy="-11" rx="61" ry="11"/>
<text text-anchor="middle" x="817.5" y="-8.8" font-family="sans-serif" font-size="9.00">InstallationBus</text>
</g>
<!-- v0&#45;&gt;v22 -->
<g id="edge4" class="edge"><title>v0&#45;&gt;v22</title>
<path fill="none" stroke="black" d="M623.365,-291.969C658.458,-276.941 725.5,-241.028 725.5,-186 725.5,-186 725.5,-186 725.5,-126 725.5,-80.6146 770.205,-43.1086 797.289,-24.5507"/>
<polygon fill="black" stroke="black" points="801.475,-21.7366 798.581,-26.3935 799.4,-23.1314 797.325,-24.5262 797.325,-24.5262 797.325,-24.5262 799.4,-23.1314 796.07,-22.6589 801.475,-21.7366 801.475,-21.7366"/>
</g>
<!-- v2 -->
<g id="v2_Hallway" class="node"><title>v2</title>
<ellipse fill="none" stroke="black" cx="32.5" cy="-11" rx="32.5" ry="11"/>
<text text-anchor="middle" x="32.5" y="-8.8" font-family="sans-serif" font-size="9.00">Hallway</text>
</g>
<!-- v1&#45;&gt;v2 -->
<g id="edge5" class="edge"><title>v1&#45;&gt;v2</title>
<path fill="none" stroke="black" d="M454.176,-242.49C385.602,-242.48 193.797,-233.415 79.5,-138 45.5325,-109.644 36.0992,-54.2169 33.4904,-27.3416"/>
<polygon fill="black" stroke="black" points="33.031,-22.0601 35.7059,-26.8462 33.2477,-24.5507 33.4644,-27.0413 33.4644,-27.0413 33.4644,-27.0413 33.2477,-24.5507 31.2229,-27.2363 33.031,-22.0601 33.031,-22.0601"/>
</g>
<!-- v3 -->
<g id="v3_Room" class="node"><title>v3</title>
<ellipse fill="none" stroke="black" cx="299.5" cy="-185" rx="21.5" ry="11"/>
<text text-anchor="middle" x="299.5" y="-182.8" font-family="sans-serif" font-size="9.00">Room</text>
</g>
<!-- v1&#45;&gt;v3 -->
<g id="edge6" class="edge"><title>v1&#45;&gt;v3</title>
<path fill="none" stroke="black" d="M459.894,-235.9C426.285,-225.444 357.854,-204.155 322.219,-193.068"/>
<polygon fill="black" stroke="black" points="317.207,-191.509 322.65,-190.846 319.594,-192.252 321.982,-192.994 321.982,-192.994 321.982,-192.994 319.594,-192.252 321.313,-195.143 317.207,-191.509 317.207,-191.509"/>
</g>
<!-- v17 -->
<g id="v17_Room" class="node"><title>v17</title>
<ellipse fill="none" stroke="black" cx="479.5" cy="-69" rx="21.5" ry="11"/>
<text text-anchor="middle" x="479.5" y="-66.8" font-family="sans-serif" font-size="9.00">Room</text>
</g>
<!-- v1&#45;&gt;v17 -->
<g id="edge7" class="edge"><title>v1&#45;&gt;v17</title>
<path fill="none" stroke="black" d="M479.5,-231.756C479.5,-202.786 479.5,-120.136 479.5,-85.5335"/>
<polygon fill="black" stroke="black" points="479.5,-80.4081 481.75,-85.408 479.5,-82.9081 479.5,-85.4081 479.5,-85.4081 479.5,-85.4081 479.5,-82.9081 477.25,-85.4081 479.5,-80.4081 479.5,-80.4081"/>
</g>
<!-- v19 -->
<g id="v19_Room" class="node"><title>v19</title>
<ellipse fill="none" stroke="black" cx="583.5" cy="-69" rx="21.5" ry="11"/>
<text text-anchor="middle" x="583.5" y="-66.8" font-family="sans-serif" font-size="9.00">Room</text>
</g>
<!-- v1&#45;&gt;v19 -->
<g id="edge8" class="edge"><title>v1&#45;&gt;v19</title>
<path fill="none" stroke="black" d="M485.389,-232.26C502.837,-203.405 554.313,-118.271 574.874,-84.2667"/>
<polygon fill="black" stroke="black" points="577.675,-79.6335 577.013,-85.0763 576.382,-81.7728 575.088,-83.9121 575.088,-83.9121 575.088,-83.9121 576.382,-81.7728 573.163,-82.7479 577.675,-79.6335 577.675,-79.6335"/>
</g>
<!-- v2&#45;&gt;v3 -->
<g id="edge24" class="edge"><title>v2&#45;&gt;v3</title>
<path fill="none" stroke="green" d="M36.5264,-21.9745C47.6013,-48.9415 79.0515,-122.323 99.5,-138 153.506,-179.404 238.256,-184.632 277.812,-184.617"/>
</g>
<!-- v2&#45;&gt;v17 -->
<g id="edge25" class="edge"><title>v2&#45;&gt;v17</title>
<path fill="none" stroke="green" d="M56.8264,-18.3175C62.5926,-19.6688 68.7412,-20.9912 74.5,-22 220.18,-47.52 397.932,-62.0305 458.29,-66.4984"/>
</g>
<!-- v2&#45;&gt;v19 -->
<g id="edge26" class="edge"><title>v2&#45;&gt;v19</title>
<path fill="none" stroke="green" d="M56.8051,-18.4452C62.5722,-19.7912 68.7265,-21.0792 74.5,-22 266.073,-52.5538 316.645,-37.0033 509.5,-58 527.801,-59.9925 548.567,-62.8513 563.433,-65.0024"/>
</g>
<!-- v4 -->
<g id="v4_Visitor" class="node"><title>v4</title>
<ellipse fill="none" stroke="black" cx="141.5" cy="-127" rx="32.5" ry="11"/>
<text text-anchor="middle" x="141.5" y="-124.8" font-family="sans-serif" font-size="9.00">Visitor</text>
</g>
<!-- v3&#45;&gt;v4 -->
<g id="edge9" class="edge"><title>v3&#45;&gt;v4</title>
<path fill="none" stroke="black" d="M282.591,-178.007C255.01,-168.231 200.15,-148.787 167.559,-137.236"/>
<polygon fill="black" stroke="black" points="162.527,-135.453 167.992,-135.002 164.883,-136.288 167.24,-137.123 167.24,-137.123 167.24,-137.123 164.883,-136.288 166.488,-139.244 162.527,-135.453 162.527,-135.453"/>
</g>
<!-- v8 -->
<g id="v8_SmartLight" class="node"><title>v8</title>
<ellipse fill="none" stroke="black" cx="216.5" cy="-11" rx="43" ry="11"/>
<text text-anchor="middle" x="216.5" y="-8.8" font-family="sans-serif" font-size="9.00">SmartLight</text>
</g>
<!-- v3&#45;&gt;v8 -->
<g id="edge10" class="edge"><title>v3&#45;&gt;v8</title>
<path fill="none" stroke="black" d="M294.8,-174.26C280.941,-145.54 240.179,-61.0692 223.617,-26.749"/>
<polygon fill="black" stroke="black" points="221.355,-22.0619 225.555,-25.5871 222.442,-24.3134 223.529,-26.565 223.529,-26.565 223.529,-26.565 222.442,-24.3134 221.502,-27.5429 221.355,-22.0619 221.355,-22.0619"/>
</g>
<!-- v9 -->
<g id="v9_HVAC" class="node"><title>v9</title>
<ellipse fill="none" stroke="black" cx="299.5" cy="-11" rx="21.5" ry="11"/>
<text text-anchor="middle" x="299.5" y="-8.8" font-family="sans-serif" font-size="9.00">HVAC</text>
</g>
<!-- v3&#45;&gt;v9 -->
<g id="edge11" class="edge"><title>v3&#45;&gt;v9</title>
<path fill="none" stroke="black" d="M299.5,-173.756C299.5,-144.786 299.5,-62.1364 299.5,-27.5335"/>
<polygon fill="black" stroke="black" points="299.5,-22.4081 301.75,-27.408 299.5,-24.9081 299.5,-27.4081 299.5,-27.4081 299.5,-27.4081 299.5,-24.9081 297.25,-27.4081 299.5,-22.4081 299.5,-22.4081"/>
</g>
<!-- v10 -->
<g id="v10_FireAlarm" class="node"><title>v10</title>
<ellipse fill="none" stroke="black" cx="378.5" cy="-11" rx="39.5" ry="11"/>
<text text-anchor="middle" x="378.5" y="-8.8" font-family="sans-serif" font-size="9.00">FireAlarm</text>
</g>
<!-- v3&#45;&gt;v10 -->
<g id="edge12" class="edge"><title>v3&#45;&gt;v10</title>
<path fill="none" stroke="black" d="M304.089,-174.009C317.397,-145.034 356.055,-60.8671 371.755,-26.6863"/>
<polygon fill="black" stroke="black" points="373.898,-22.0185 373.856,-27.5013 372.855,-24.2903 371.812,-26.5621 371.812,-26.5621 371.812,-26.5621 372.855,-24.2903 369.767,-25.623 373.898,-22.0185 373.898,-22.0185"/>
</g>
<!-- v4&#45;&gt;v5 -->
<g id="edge13" class="edge"><title>v4&#45;&gt;v5</title>
<path fill="none" stroke="black" d="M150.384,-116.246C158.647,-107.172 171.035,-93.5697 180.238,-83.4636"/>
<polygon fill="black" stroke="black" points="183.718,-79.6427 182.015,-84.8544 182.035,-81.491 180.352,-83.3394 180.352,-83.3394 180.352,-83.3394 182.035,-81.491 178.688,-81.8244 183.718,-79.6427 183.718,-79.6427"/>
</g>
<!-- v7 -->
<g id="v7_Software" class="node"><title>v7</title>
<ellipse fill="none" stroke="black" cx="119.5" cy="-11" rx="36" ry="11"/>
<text text-anchor="middle" x="119.5" y="-8.8" font-family="sans-serif" font-size="9.00">Software</text>
</g>
<!-- v5&#45;&gt;v7 -->
<g id="edge14" class="edge"><title>v5&#45;&gt;v7</title>
<path fill="none" stroke="black" d="M180.446,-58.7527C168.261,-49.4059 149.351,-34.8993 135.827,-24.5249"/>
<polygon fill="black" stroke="black" points="131.816,-21.4482 137.153,-22.7063 133.8,-22.9698 135.784,-24.4915 135.784,-24.4915 135.784,-24.4915 133.8,-22.9698 134.414,-26.2767 131.816,-21.4482 131.816,-21.4482"/>
</g>
<!-- v11 -->
<g id="v11_ExitRoom" class="node"><title>v11</title>
<ellipse fill="none" stroke="black" cx="932.5" cy="-11" rx="36" ry="11"/>
<text text-anchor="middle" x="932.5" y="-8.8" font-family="sans-serif" font-size="9.00">ExitRoom</text>
</g>
<!-- v6&#45;&gt;v11 -->
<g id="edge15" class="edge"><title>v6&#45;&gt;v11</title>
<path fill="none" stroke="black" d="M1204.13,-61.665C1151.75,-53.3024 1057.57,-37.7843 977.5,-22 973.437,-21.199 969.177,-20.3131 964.967,-19.4096"/>
<polygon fill="black" stroke="black" points="960.062,-18.3447 965.425,-17.2067 962.505,-18.8751 964.948,-19.4055 964.948,-19.4055 964.948,-19.4055 962.505,-18.8751 964.471,-21.6043 960.062,-18.3447 960.062,-18.3447"/>
</g>
<!-- v12 -->
<g id="v12_ConnectDevice" class="node"><title>v12</title>
<ellipse fill="none" stroke="black" cx="1040.5" cy="-11" rx="54" ry="11"/>
<text text-anchor="middle" x="1040.5" y="-8.8" font-family="sans-serif" font-size="9.00">ConnectDevice</text>
</g>
<!-- v6&#45;&gt;v12 -->
<g id="edge16" class="edge"><title>v6&#45;&gt;v12</title>
<path fill="none" stroke="black" d="M1214.4,-59.737C1177.38,-49.5751 1114.66,-32.3564 1075.52,-21.6124"/>
<polygon fill="black" stroke="black" points="1070.39,-20.2057 1075.81,-19.3596 1072.8,-20.8675 1075.21,-21.5293 1075.21,-21.5293 1075.21,-21.5293 1072.8,-20.8675 1074.62,-23.6991 1070.39,-20.2057 1070.39,-20.2057"/>
</g>
<!-- v13 -->
<g id="v13_DisconnectDevice" class="node"><title>v13</title>
<ellipse fill="none" stroke="black" cx="1177.5" cy="-11" rx="65" ry="11"/>
<text text-anchor="middle" x="1177.5" y="-8.8" font-family="sans-serif" font-size="9.00">DisconnectDevice</text>
</g>
<!-- v6&#45;&gt;v13 -->
<g id="edge17" class="edge"><title>v6&#45;&gt;v13</title>
<path fill="none" stroke="black" d="M1232.83,-58.2455C1221.92,-49.1236 1205.53,-35.4257 1193.42,-25.3036"/>
<polygon fill="black" stroke="black" points="1189.49,-22.0198 1194.77,-23.4999 1191.41,-23.623 1193.32,-25.2263 1193.32,-25.2263 1193.32,-25.2263 1191.41,-23.623 1191.88,-26.9527 1189.49,-22.0198 1189.49,-22.0198"/>
</g>
<!-- v14 -->
<g id="v14_GenerateData" class="node"><title>v14</title>
<ellipse fill="none" stroke="black" cx="1311.5" cy="-11" rx="50.5" ry="11"/>
<text text-anchor="middle" x="1311.5" y="-8.8" font-family="sans-serif" font-size="9.00">GenerateData</text>
</g>
<!-- v6&#45;&gt;v14 -->
<g id="edge18" class="edge"><title>v6&#45;&gt;v14</title>
<path fill="none" stroke="black" d="M1256.17,-58.2455C1267.08,-49.1236 1283.47,-35.4257 1295.58,-25.3036"/>
<polygon fill="black" stroke="black" points="1299.51,-22.0198 1297.12,-26.9527 1297.59,-23.623 1295.68,-25.2263 1295.68,-25.2263 1295.68,-25.2263 1297.59,-23.623 1294.23,-23.4999 1299.51,-22.0198 1299.51,-22.0198"/>
</g>
<!-- v15 -->
<g id="v15_CollectData" class="node"><title>v15</title>
<ellipse fill="none" stroke="black" cx="1427.5" cy="-11" rx="47" ry="11"/>
<text text-anchor="middle" x="1427.5" y="-8.8" font-family="sans-serif" font-size="9.00">CollectData</text>
</g>
<!-- v6&#45;&gt;v15 -->
<g id="edge19" class="edge"><title>v6&#45;&gt;v15</title>
<path fill="none" stroke="black" d="M1272.29,-59.4948C1305.55,-49.3169 1361.11,-32.3166 1395.95,-21.6548"/>
<polygon fill="black" stroke="black" points="1400.93,-20.1293 1396.81,-23.744 1398.54,-20.8609 1396.15,-21.5925 1396.15,-21.5925 1396.15,-21.5925 1398.54,-20.8609 1395.49,-19.4409 1400.93,-20.1293 1400.93,-20.1293"/>
</g>
<!-- v16 -->
<g id="v16_SendSoftware" class="node"><title>v16</title>
<ellipse fill="none" stroke="black" cx="1543.5" cy="-11" rx="50.5" ry="11"/>
<text text-anchor="middle" x="1543.5" y="-8.8" font-family="sans-serif" font-size="9.00">SendSoftware</text>
</g>
<!-- v6&#45;&gt;v16 -->
<g id="edge20" class="edge"><title>v6&#45;&gt;v16</title>
<path fill="none" stroke="black" d="M1281.76,-61.0208C1337.84,-50.5187 1443.55,-30.7189 1502.01,-19.7706"/>
<polygon fill="black" stroke="black" points="1507.17,-18.8039 1502.67,-21.936 1504.71,-19.2642 1502.26,-19.7245 1502.26,-19.7245 1502.26,-19.7245 1504.71,-19.2642 1501.84,-17.5129 1507.17,-18.8039 1507.17,-18.8039"/>
</g>
<!-- v8&#45;&gt;v22 -->
<g id="edge28" class="edge"><title>v8&#45;&gt;v22</title>
<path fill="none" stroke="green" d="M232.859,-21.2415C244.744,-28.0527 261.486,-36.3871 277.5,-40 377.433,-62.5455 637.636,-57.928 738.5,-40 758.495,-36.446 780.067,-28.2018 795.609,-21.4084"/>
</g>
<!-- v9&#45;&gt;v22 -->
<g id="edge29" class="edge"><title>v9&#45;&gt;v22</title>
<path fill="none" stroke="green" d="M309.047,-20.8905C316.37,-27.7237 327.126,-36.2346 338.5,-40 422.885,-67.9356 650.983,-55.5558 738.5,-40 758.495,-36.446 780.067,-28.2018 795.609,-21.4084"/>
</g>
<!-- v10&#45;&gt;v22 -->
<g id="edge30" class="edge"><title>v10&#45;&gt;v22</title>
<path fill="none" stroke="green" d="M393.985,-21.2364C405.252,-28.0452 421.16,-36.3788 436.5,-40 501.816,-55.419 672.425,-51.7446 738.5,-40 758.495,-36.446 780.067,-28.2018 795.609,-21.4084"/>
</g>
<!-- v18 -->
<g id="v18_SmartLight" class="node"><title>v18</title>
<ellipse fill="none" stroke="black" cx="479.5" cy="-11" rx="43" ry="11"/>
<text text-anchor="middle" x="479.5" y="-8.8" font-family="sans-serif" font-size="9.00">SmartLight</text>
</g>
<!-- v17&#45;&gt;v18 -->
<g id="edge21" class="edge"><title>v17&#45;&gt;v18</title>
<path fill="none" stroke="black" d="M479.5,-57.9883C479.5,-49.4941 479.5,-37.1697 479.5,-27.4169"/>
<polygon fill="black" stroke="black" points="479.5,-22.3039 481.75,-27.3038 479.5,-24.8039 479.5,-27.3039 479.5,-27.3039 479.5,-27.3039 479.5,-24.8039 477.25,-27.3039 479.5,-22.3039 479.5,-22.3039"/>
</g>
<!-- v18&#45;&gt;v22 -->
<g id="edge31" class="edge"><title>v18&#45;&gt;v22</title>
<path fill="none" stroke="green" d="M495.859,-21.2415C507.744,-28.0527 524.486,-36.3871 540.5,-40 626.343,-59.3666 651.858,-55.4002 738.5,-40 758.495,-36.446 780.067,-28.2018 795.609,-21.4084"/>
</g>
<!-- v20 -->
<g id="v20_SmartLight" class="node"><title>v20</title>
<ellipse fill="none" stroke="black" cx="583.5" cy="-11" rx="43" ry="11"/>
<text text-anchor="middle" x="583.5" y="-8.8" font-family="sans-serif" font-size="9.00">SmartLight</text>
</g>
<!-- v19&#45;&gt;v20 -->
<g id="edge22" class="edge"><title>v19&#45;&gt;v20</title>
<path fill="none" stroke="black" d="M583.5,-57.9883C583.5,-49.4941 583.5,-37.1697 583.5,-27.4169"/>
<polygon fill="black" stroke="black" points="583.5,-22.3039 585.75,-27.3038 583.5,-24.8039 583.5,-27.3039 583.5,-27.3039 583.5,-27.3039 583.5,-24.8039 581.25,-27.3039 583.5,-22.3039 583.5,-22.3039"/>
</g>
<!-- v21 -->
<g id="v21_Workstation" class="node"><title>v21</title>
<ellipse fill="none" stroke="black" cx="691.5" cy="-11" rx="47" ry="11"/>
<text text-anchor="middle" x="691.5" y="-8.8" font-family="sans-serif" font-size="9.00">Workstation</text>
</g>
<!-- v19&#45;&gt;v21 -->
<g id="edge23" class="edge"><title>v19&#45;&gt;v21</title>
<path fill="none" stroke="black" d="M597.619,-60.679C615.692,-51.3076 647.232,-34.9536 668.722,-23.8106"/>
<polygon fill="black" stroke="black" points="673.416,-21.3771 670.013,-25.6762 671.196,-22.5279 668.977,-23.6787 668.977,-23.6787 668.977,-23.6787 671.196,-22.5279 667.941,-21.6813 673.416,-21.3771 673.416,-21.3771"/>
</g>
<!-- v20&#45;&gt;v22 -->
<g id="edge32" class="edge"><title>v20&#45;&gt;v22</title>
<path fill="none" stroke="green" d="M599.859,-21.2415C611.744,-28.0527 628.486,-36.3871 644.5,-40 685.254,-49.1942 697.367,-47.3112 738.5,-40 758.495,-36.446 780.067,-28.2018 795.609,-21.4084"/>
</g>
<!-- v21&#45;&gt;v22 -->
<g id="edge33" class="edge"><title>v21&#45;&gt;v22</title>
<path fill="none" stroke="green" d="M738.75,-11C744.595,-11 750.439,-11 756.284,-11"/>
</g>
</g>
</svg>
