<?xml version="1.0" encoding="UTF-8" standalone="no"?>
<?xml-stylesheet href="style.css" type="text/css"?>
<!DOCTYPE svg PUBLIC "-//W3C//DTD SVG 1.1//EN"
 "http://www.w3.org/Graphics/SVG/1.1/DTD/svg11.dtd">
<!-- Generated by graphviz version 2.38.0 (20140413.2041)
 -->
<!-- Title: 40.svg Pages: 1 -->
<svg width="1138pt" height="374pt"
 viewBox="0.00 0.00 1137.50 374.00" xmlns="http://www.w3.org/2000/svg" xmlns:xlink="http://www.w3.org/1999/xlink">
<g id="graph0" class="graph" transform="scale(1 1) rotate(0) translate(4 370)">
<title>40.svg</title>
<polygon fill="white" stroke="none" points="-4,4 -4,-370 1133.5,-370 1133.5,4 -4,4"/>
<!-- r0 -->
<g id="node1" class="node"><title>r0</title>
<polygon fill="none" stroke="black" stroke-dasharray="5,2" points="606,-366 583,-366 583,-348 606,-348 606,-366"/>
<text text-anchor="middle" x="594.5" y="-354.8" font-family="serif" font-size="9.00">0</text>
</g>
<!-- v0 -->
<g id="v0_Building" class="node"><title>v0</title>
<ellipse fill="none" stroke="black" cx="594.5" cy="-301" rx="36" ry="11"/>
<text text-anchor="middle" x="594.5" y="-298.8" font-family="sans-serif" font-size="9.00">Building</text>
</g>
<!-- r0&#45;&gt;v0 -->
<g id="edge1" class="edge"><title>r0&#45;&gt;v0</title>
<path fill="none" stroke="black" d="M594.5,-347.562C594.5,-339.453 594.5,-327.014 594.5,-317.181"/>
<polygon fill="black" stroke="black" points="594.5,-312.03 596.75,-317.03 594.5,-314.53 594.5,-317.03 594.5,-317.03 594.5,-317.03 594.5,-314.53 592.25,-317.03 594.5,-312.03 594.5,-312.03"/>
</g>
<!-- r1 -->
<g id="node2" class="node"><title>r1</title>
<polygon fill="none" stroke="black" stroke-dasharray="5,2" points="1016,-366 993,-366 993,-348 1016,-348 1016,-366"/>
<text text-anchor="middle" x="1004.5" y="-354.8" font-family="serif" font-size="9.00">1</text>
</g>
<!-- v11 -->
<g id="v11_RulesKeywords" class="node"><title>v11</title>
<ellipse fill="none" stroke="black" cx="1004.5" cy="-69" rx="54" ry="11"/>
<text text-anchor="middle" x="1004.5" y="-66.8" font-family="sans-serif" font-size="9.00">RulesKeywords</text>
</g>
<!-- r1&#45;&gt;v11 -->
<g id="edge2" class="edge"><title>r1&#45;&gt;v11</title>
<path fill="none" stroke="black" d="M1004.5,-347.849C1004.5,-329.373 1004.5,-282.889 1004.5,-244 1004.5,-244 1004.5,-244 1004.5,-184 1004.5,-148.604 1004.5,-107.026 1004.5,-85.1783"/>
<polygon fill="black" stroke="black" points="1004.5,-80.0648 1006.75,-85.0648 1004.5,-82.5648 1004.5,-85.0648 1004.5,-85.0648 1004.5,-85.0648 1004.5,-82.5648 1002.25,-85.0648 1004.5,-80.0648 1004.5,-80.0648"/>
</g>
<!-- e3 -->
<g id="node3" class="node"><title>e3</title>
</g>
<!-- v7 -->
<g id="v7_SmartLight" class="node"><title>v7</title>
<ellipse fill="none" stroke="black" cx="494.5" cy="-11" rx="43" ry="11"/>
<text text-anchor="middle" x="494.5" y="-8.8" font-family="sans-serif" font-size="9.00">SmartLight</text>
</g>
<!-- e3&#45;&gt;v7 -->
<g id="edge26" class="edge"><title>e3&#45;&gt;v7</title>
<path fill="none" stroke="green" d="M494.5,-64.1674C494.5,-55.5862 494.5,-34.5957 494.5,-22.0117"/>
<polygon fill="green" stroke="green" points="498,-67.3001 491,-67.2999 491,-65.8999 498,-65.9001 498,-67.3001"/>
<polyline fill="none" stroke="green" points="494.5,-68 494.5,-64.5 "/>
</g>
<!-- v1 -->
<g id="v1_Floor" class="node"><title>v1</title>
<ellipse fill="none" stroke="black" cx="446.5" cy="-243" rx="25" ry="11"/>
<text text-anchor="middle" x="446.5" y="-240.8" font-family="sans-serif" font-size="9.00">Floor</text>
</g>
<!-- v0&#45;&gt;v1 -->
<g id="edge3" class="edge"><title>v0&#45;&gt;v1</title>
<path fill="none" stroke="black" d="M573.295,-291.977C545.641,-281.513 497.462,-263.283 469.125,-252.561"/>
<polygon fill="black" stroke="black" points="464.414,-250.778 469.887,-250.444 466.753,-251.663 469.091,-252.548 469.091,-252.548 469.091,-252.548 466.753,-251.663 468.295,-254.652 464.414,-250.778 464.414,-250.778"/>
</g>
<!-- v10 -->
<g id="v10_InstallationBus" class="node"><title>v10</title>
<ellipse fill="none" stroke="black" cx="798.5" cy="-69" rx="61" ry="11"/>
<text text-anchor="middle" x="798.5" y="-66.8" font-family="sans-serif" font-size="9.00">InstallationBus</text>
</g>
<!-- v0&#45;&gt;v10 -->
<g id="edge4" class="edge"><title>v0&#45;&gt;v10</title>
<path fill="none" stroke="black" d="M603.266,-290.117C635.625,-253.633 748.437,-126.443 786.129,-83.9473"/>
<polygon fill="black" stroke="black" points="789.537,-80.105 787.903,-85.3387 787.878,-81.9754 786.219,-83.8457 786.219,-83.8457 786.219,-83.8457 787.878,-81.9754 784.536,-82.3527 789.537,-80.105 789.537,-80.105"/>
</g>
<!-- v2 -->
<g id="v2_Room" class="node"><title>v2</title>
<ellipse fill="none" stroke="black" cx="620.5" cy="-127" rx="21.5" ry="11"/>
<text text-anchor="middle" x="620.5" y="-124.8" font-family="sans-serif" font-size="9.00">Room</text>
</g>
<!-- v1&#45;&gt;v2 -->
<g id="edge5" class="edge"><title>v1&#45;&gt;v2</title>
<path fill="none" stroke="black" d="M459.578,-233.431C490.741,-213.014 569.344,-161.516 603.837,-138.917"/>
<polygon fill="black" stroke="black" points="608.208,-136.053 605.259,-140.675 606.117,-137.423 604.026,-138.793 604.026,-138.793 604.026,-138.793 606.117,-137.423 602.793,-136.911 608.208,-136.053 608.208,-136.053"/>
</g>
<!-- v3 -->
<g id="v3_Room" class="node"><title>v3</title>
<ellipse fill="none" stroke="black" cx="446.5" cy="-185" rx="21.5" ry="11"/>
<text text-anchor="middle" x="446.5" y="-182.8" font-family="sans-serif" font-size="9.00">Room</text>
</g>
<!-- v1&#45;&gt;v3 -->
<g id="edge6" class="edge"><title>v1&#45;&gt;v3</title>
<path fill="none" stroke="black" d="M446.5,-231.988C446.5,-223.494 446.5,-211.17 446.5,-201.417"/>
<polygon fill="black" stroke="black" points="446.5,-196.304 448.75,-201.304 446.5,-198.804 446.5,-201.304 446.5,-201.304 446.5,-201.304 446.5,-198.804 444.25,-201.304 446.5,-196.304 446.5,-196.304"/>
</g>
<!-- v14 -->
<g id="v14_Hallway" class="node"><title>v14</title>
<ellipse fill="none" stroke="black" cx="32.5" cy="-11" rx="32.5" ry="11"/>
<text text-anchor="middle" x="32.5" y="-8.8" font-family="sans-serif" font-size="9.00">Hallway</text>
</g>
<!-- v1&#45;&gt;v14 -->
<g id="edge7" class="edge"><title>v1&#45;&gt;v14</title>
<path fill="none" stroke="black" d="M430.115,-234.411C382.91,-212.365 242.939,-145.712 132.5,-80 102.307,-62.035 68.857,-38.5001 49.3096,-24.3539"/>
<polygon fill="black" stroke="black" points="45.1205,-21.3118 50.4884,-22.4292 47.1434,-22.7808 49.1663,-24.2498 49.1663,-24.2498 49.1663,-24.2498 47.1434,-22.7808 47.8442,-26.0704 45.1205,-21.3118 45.1205,-21.3118"/>
</g>
<!-- v19 -->
<g id="v19_Room" class="node"><title>v19</title>
<ellipse fill="none" stroke="black" cx="234.5" cy="-69" rx="21.5" ry="11"/>
<text text-anchor="middle" x="234.5" y="-66.8" font-family="sans-serif" font-size="9.00">Room</text>
</g>
<!-- v1&#45;&gt;v19 -->
<g id="edge8" class="edge"><title>v1&#45;&gt;v19</title>
<path fill="none" stroke="black" d="M435.4,-232.995C399.972,-204.251 289.565,-114.675 249.346,-82.0451"/>
<polygon fill="black" stroke="black" points="245.237,-78.7108 250.537,-80.1137 247.178,-80.2859 249.119,-81.861 249.119,-81.861 249.119,-81.861 247.178,-80.2859 247.702,-83.6083 245.237,-78.7108 245.237,-78.7108"/>
</g>
<!-- v8 -->
<g id="v8_HVAC" class="node"><title>v8</title>
<ellipse fill="none" stroke="black" cx="645.5" cy="-69" rx="21.5" ry="11"/>
<text text-anchor="middle" x="645.5" y="-66.8" font-family="sans-serif" font-size="9.00">HVAC</text>
</g>
<!-- v2&#45;&gt;v8 -->
<g id="edge9" class="edge"><title>v2&#45;&gt;v8</title>
<path fill="none" stroke="black" d="M624.969,-115.988C628.88,-107.229 634.609,-94.3956 639.022,-84.5103"/>
<polygon fill="black" stroke="black" points="641.069,-79.925 641.085,-85.4079 640.05,-82.2079 639.031,-84.4907 639.031,-84.4907 639.031,-84.4907 640.05,-82.2079 636.976,-83.5735 641.069,-79.925 641.069,-79.925"/>
</g>
<!-- v2&#45;&gt;v14 -->
<g id="edge23" class="edge"><title>v2&#45;&gt;v14</title>
<path fill="none" stroke="green" d="M598.879,-125.65C536.558,-124.208 351.563,-116.89 203.5,-80 144.908,-65.4019 79.6257,-35.2948 49.4678,-20.5355"/>
</g>
<!-- v17 -->
<g id="v17_SmartLight" class="node"><title>v17</title>
<ellipse fill="none" stroke="black" cx="786.5" cy="-11" rx="43" ry="11"/>
<text text-anchor="middle" x="786.5" y="-8.8" font-family="sans-serif" font-size="9.00">SmartLight</text>
</g>
<!-- v2&#45;&gt;v17 -->
<g id="edge10" class="edge"><title>v2&#45;&gt;v17</title>
<path fill="none" stroke="black" d="M632.438,-117.801C661.039,-98.1599 733.645,-48.2977 767.975,-24.7218"/>
<polygon fill="black" stroke="black" points="772.36,-21.7103 769.512,-26.3957 770.3,-23.1256 768.239,-24.5409 768.239,-24.5409 768.239,-24.5409 770.3,-23.1256 766.965,-22.6862 772.36,-21.7103 772.36,-21.7103"/>
</g>
<!-- v18 -->
<g id="v18_FireAlarm" class="node"><title>v18</title>
<ellipse fill="none" stroke="black" cx="595.5" cy="-11" rx="39.5" ry="11"/>
<text text-anchor="middle" x="595.5" y="-8.8" font-family="sans-serif" font-size="9.00">FireAlarm</text>
</g>
<!-- v2&#45;&gt;v18 -->
<g id="edge11" class="edge"><title>v2&#45;&gt;v18</title>
<path fill="none" stroke="black" d="M618.281,-115.883C613.882,-95.8216 604.03,-50.899 598.842,-27.2409"/>
<polygon fill="black" stroke="black" points="597.75,-22.2579 601.018,-26.6599 598.285,-24.6999 598.821,-27.1419 598.821,-27.1419 598.821,-27.1419 598.285,-24.6999 596.623,-27.6239 597.75,-22.2579 597.75,-22.2579"/>
</g>
<!-- v4 -->
<g id="v4_Visitor" class="node"><title>v4</title>
<ellipse fill="none" stroke="black" cx="366.5" cy="-127" rx="32.5" ry="11"/>
<text text-anchor="middle" x="366.5" y="-124.8" font-family="sans-serif" font-size="9.00">Visitor</text>
</g>
<!-- v3&#45;&gt;v4 -->
<g id="edge12" class="edge"><title>v3&#45;&gt;v4</title>
<path fill="none" stroke="black" d="M434.696,-175.737C421.268,-166.337 399.214,-150.9 383.833,-140.133"/>
<polygon fill="black" stroke="black" points="379.685,-137.23 385.072,-138.254 381.733,-138.663 383.781,-140.097 383.781,-140.097 383.781,-140.097 381.733,-138.663 382.491,-141.94 379.685,-137.23 379.685,-137.23"/>
</g>
<!-- v3&#45;&gt;v7 -->
<g id="edge13" class="edge"><title>v3&#45;&gt;v7</title>
<path fill="none" stroke="black" d="M449.288,-174.009C457.341,-145.153 480.67,-61.5561 490.284,-27.1091"/>
<polygon fill="black" stroke="black" points="491.704,-22.0185 492.527,-27.4393 491.032,-24.4265 490.36,-26.8345 490.36,-26.8345 490.36,-26.8345 491.032,-24.4265 488.193,-26.2296 491.704,-22.0185 491.704,-22.0185"/>
</g>
<!-- v3&#45;&gt;v14 -->
<g id="edge24" class="edge"><title>v3&#45;&gt;v14</title>
<path fill="none" stroke="green" d="M456.704,-174.978C480.773,-152.657 536.654,-94.0522 503.5,-58 471.121,-22.7903 121.733,-29.561 74.5,-22 68.727,-21.0759 62.5729,-19.7865 56.8058,-18.4403"/>
</g>
<!-- v5 -->
<g id="v5_Laptop" class="node"><title>v5</title>
<ellipse fill="none" stroke="black" cx="366.5" cy="-69" rx="29" ry="11"/>
<text text-anchor="middle" x="366.5" y="-66.8" font-family="sans-serif" font-size="9.00">Laptop</text>
</g>
<!-- v4&#45;&gt;v5 -->
<g id="edge14" class="edge"><title>v4&#45;&gt;v5</title>
<path fill="none" stroke="black" d="M366.5,-115.988C366.5,-107.494 366.5,-95.1697 366.5,-85.4169"/>
<polygon fill="black" stroke="black" points="366.5,-80.3039 368.75,-85.3038 366.5,-82.8039 366.5,-85.3039 366.5,-85.3039 366.5,-85.3039 366.5,-82.8039 364.25,-85.3039 366.5,-80.3039 366.5,-80.3039"/>
</g>
<!-- v6 -->
<g id="v6_Software" class="node"><title>v6</title>
<ellipse fill="none" stroke="black" cx="397.5" cy="-11" rx="36" ry="11"/>
<text text-anchor="middle" x="397.5" y="-8.8" font-family="sans-serif" font-size="9.00">Software</text>
</g>
<!-- v5&#45;&gt;v6 -->
<g id="edge15" class="edge"><title>v5&#45;&gt;v6</title>
<path fill="none" stroke="black" d="M372.042,-57.9883C376.891,-49.2286 383.995,-36.3956 389.468,-26.5103"/>
<polygon fill="black" stroke="black" points="392.006,-21.925 391.553,-27.3892 390.795,-24.1122 389.584,-26.2995 389.584,-26.2995 389.584,-26.2995 390.795,-24.1122 387.616,-25.2097 392.006,-21.925 392.006,-21.925"/>
</g>
<!-- v5&#45;&gt;v10 -->
<g id="edge25" class="edge"><title>v5&#45;&gt;v10</title>
<path fill="none" stroke="green" d="M389.637,-75.9344C414.888,-83.1123 456.643,-93.8454 493.5,-98 584.921,-108.305 609.45,-111.189 700.5,-98 725.435,-94.388 752.86,-85.8604 772.341,-78.9818"/>
</g>
<!-- v13 -->
<g id="v13_Data" class="node"><title>v13</title>
<ellipse fill="none" stroke="black" cx="321.5" cy="-11" rx="21.5" ry="11"/>
<text text-anchor="middle" x="321.5" y="-8.8" font-family="sans-serif" font-size="9.00">Data</text>
</g>
<!-- v5&#45;&gt;v13 -->
<g id="edge16" class="edge"><title>v5&#45;&gt;v13</title>
<path fill="none" stroke="black" d="M358.662,-58.2455C351.435,-49.2519 340.633,-35.8101 332.535,-25.7327"/>
<polygon fill="black" stroke="black" points="329.249,-21.6427 334.134,-24.1308 330.815,-23.5915 332.381,-25.5402 332.381,-25.5402 332.381,-25.5402 330.815,-23.5915 330.627,-26.9496 329.249,-21.6427 329.249,-21.6427"/>
</g>
<!-- v9 -->
<g id="v9_Software" class="node"><title>v9</title>
<ellipse fill="none" stroke="black" cx="689.5" cy="-11" rx="36" ry="11"/>
<text text-anchor="middle" x="689.5" y="-8.8" font-family="sans-serif" font-size="9.00">Software</text>
</g>
<!-- v8&#45;&gt;v9 -->
<g id="edge17" class="edge"><title>v8&#45;&gt;v9</title>
<path fill="none" stroke="black" d="M652.964,-58.5004C659.915,-49.6537 670.37,-36.3472 678.318,-26.2321"/>
<polygon fill="black" stroke="black" points="681.553,-22.1148 680.233,-27.4366 680.008,-24.0806 678.463,-26.0464 678.463,-26.0464 678.463,-26.0464 680.008,-24.0806 676.694,-24.6563 681.553,-22.1148 681.553,-22.1148"/>
</g>
<!-- v8&#45;&gt;v10 -->
<g id="edge27" class="edge"><title>v8&#45;&gt;v10</title>
<path fill="none" stroke="green" d="M667.016,-69C690.471,-69 713.925,-69 737.38,-69"/>
</g>
<!-- v12 -->
<g id="v12_Data" class="node"><title>v12</title>
<ellipse fill="none" stroke="black" cx="869.5" cy="-11" rx="21.5" ry="11"/>
<text text-anchor="middle" x="869.5" y="-8.8" font-family="sans-serif" font-size="9.00">Data</text>
</g>
<!-- v10&#45;&gt;v12 -->
<g id="edge18" class="edge"><title>v10&#45;&gt;v12</title>
<path fill="none" stroke="black" d="M811.193,-57.9883C823.234,-48.4913 841.346,-34.2063 854.183,-24.0808"/>
<polygon fill="black" stroke="black" points="858.318,-20.8193 855.786,-25.6824 856.355,-22.3675 854.393,-23.9158 854.393,-23.9158 854.393,-23.9158 856.355,-22.3675 852.999,-22.1491 858.318,-20.8193 858.318,-20.8193"/>
</g>
<!-- v10&#45;&gt;v17 -->
<g id="edge28" class="edge"><title>v10&#45;&gt;v17</title>
<path fill="none" stroke="green" d="M796.355,-57.9883C794.197,-47.9211 790.887,-32.4737 788.708,-22.3039"/>
</g>
<!-- v10&#45;&gt;v18 -->
<g id="edge29" class="edge"><title>v10&#45;&gt;v18</title>
<path fill="none" stroke="green" d="M767.669,-59.4948C727.85,-48.5104 659.225,-29.5794 621.767,-19.2462"/>
</g>
<!-- v20 -->
<g id="v20_SmartLight" class="node"><title>v20</title>
<ellipse fill="none" stroke="black" cx="126.5" cy="-11" rx="43" ry="11"/>
<text text-anchor="middle" x="126.5" y="-8.8" font-family="sans-serif" font-size="9.00">SmartLight</text>
</g>
<!-- v10&#45;&gt;v20 -->
<g id="edge30" class="edge"><title>v10&#45;&gt;v20</title>
<path fill="none" stroke="green" d="M745.23,-63.5661C723.595,-61.7921 698.357,-59.7569 675.5,-58 454.684,-41.0267 398.066,-50.9619 178.5,-22 171.755,-21.1104 164.565,-19.8995 157.75,-18.6274"/>
</g>
<!-- v21 -->
<g id="v21_Workstation" class="node"><title>v21</title>
<ellipse fill="none" stroke="black" cx="234.5" cy="-11" rx="47" ry="11"/>
<text text-anchor="middle" x="234.5" y="-8.8" font-family="sans-serif" font-size="9.00">Workstation</text>
</g>
<!-- v10&#45;&gt;v21 -->
<g id="edge31" class="edge"><title>v10&#45;&gt;v21</title>
<path fill="none" stroke="green" d="M745.694,-63.4793C624.77,-53.0895 334.768,-27.9454 290.5,-22 283.453,-21.0535 275.94,-19.8484 268.78,-18.605"/>
</g>
<!-- v15 -->
<g id="v15_ExitRoom" class="node"><title>v15</title>
<ellipse fill="none" stroke="black" cx="945.5" cy="-11" rx="36" ry="11"/>
<text text-anchor="middle" x="945.5" y="-8.8" font-family="sans-serif" font-size="9.00">ExitRoom</text>
</g>
<!-- v11&#45;&gt;v15 -->
<g id="edge19" class="edge"><title>v11&#45;&gt;v15</title>
<path fill="none" stroke="black" d="M993.952,-57.9883C984.387,-48.9101 970.214,-35.4569 959.664,-25.4439"/>
<polygon fill="black" stroke="black" points="955.957,-21.925 961.132,-23.7352 957.77,-23.6461 959.583,-25.3672 959.583,-25.3672 959.583,-25.3672 957.77,-23.6461 958.034,-26.9991 955.957,-21.925 955.957,-21.925"/>
</g>
<!-- v16 -->
<g id="v16_DisconnectDevice" class="node"><title>v16</title>
<ellipse fill="none" stroke="black" cx="1064.5" cy="-11" rx="65" ry="11"/>
<text text-anchor="middle" x="1064.5" y="-8.8" font-family="sans-serif" font-size="9.00">DisconnectDevice</text>
</g>
<!-- v11&#45;&gt;v16 -->
<g id="edge20" class="edge"><title>v11&#45;&gt;v16</title>
<path fill="none" stroke="black" d="M1015.23,-57.9883C1024.95,-48.9101 1039.37,-35.4569 1050.1,-25.4439"/>
<polygon fill="black" stroke="black" points="1053.87,-21.925 1051.75,-26.9815 1052.04,-23.6308 1050.21,-25.3366 1050.21,-25.3366 1050.21,-25.3366 1052.04,-23.6308 1048.68,-23.6917 1053.87,-21.925 1053.87,-21.925"/>
</g>
<!-- v14&#45;&gt;v19 -->
<g id="edge32" class="edge"><title>v14&#45;&gt;v19</title>
<path fill="none" stroke="green" d="M56.4458,-18.6384C97.302,-29.9649 179.604,-52.7814 216.218,-62.9316"/>
</g>
<!-- v19&#45;&gt;v20 -->
<g id="edge21" class="edge"><title>v19&#45;&gt;v20</title>
<path fill="none" stroke="black" d="M220.381,-60.679C202.201,-51.2525 170.396,-34.761 148.899,-23.6145"/>
<polygon fill="black" stroke="black" points="144.209,-21.1826 149.684,-21.4868 146.429,-22.3334 148.648,-23.4842 148.648,-23.4842 148.648,-23.4842 146.429,-22.3334 147.612,-25.4817 144.209,-21.1826 144.209,-21.1826"/>
</g>
<!-- v19&#45;&gt;v21 -->
<g id="edge22" class="edge"><title>v19&#45;&gt;v21</title>
<path fill="none" stroke="black" d="M234.5,-57.9883C234.5,-49.4941 234.5,-37.1697 234.5,-27.4169"/>
<polygon fill="black" stroke="black" points="234.5,-22.3039 236.75,-27.3038 234.5,-24.8039 234.5,-27.3039 234.5,-27.3039 234.5,-27.3039 234.5,-24.8039 232.25,-27.3039 234.5,-22.3039 234.5,-22.3039"/>
</g>
</g>
</svg>
