<?xml version="1.0" encoding="UTF-8" standalone="no"?>
<?xml-stylesheet href="style.css" type="text/css"?>
<!DOCTYPE svg PUBLIC "-//W3C//DTD SVG 1.1//EN"
 "http://www.w3.org/Graphics/SVG/1.1/DTD/svg11.dtd">
<!-- Generated by graphviz version 2.38.0 (20140413.2041)
 -->
<!-- Title: 46.svg Pages: 1 -->
<svg width="1137pt" height="374pt"
 viewBox="0.00 0.00 1137.00 374.00" xmlns="http://www.w3.org/2000/svg" xmlns:xlink="http://www.w3.org/1999/xlink">
<g id="graph0" class="graph" transform="scale(1 1) rotate(0) translate(4 370)">
<title>46.svg</title>
<polygon fill="white" stroke="none" points="-4,4 -4,-370 1133,-370 1133,4 -4,4"/>
<!-- r0 -->
<g id="node1" class="node"><title>r0</title>
<polygon fill="none" stroke="black" stroke-dasharray="5,2" points="630.5,-366 607.5,-366 607.5,-348 630.5,-348 630.5,-366"/>
<text text-anchor="middle" x="619" y="-354.8" font-family="serif" font-size="9.00">0</text>
</g>
<!-- v0 -->
<g id="v0_Building" class="node"><title>v0</title>
<ellipse fill="none" stroke="black" cx="619" cy="-301" rx="36" ry="11"/>
<text text-anchor="middle" x="619" y="-298.8" font-family="sans-serif" font-size="9.00">Building</text>
</g>
<!-- r0&#45;&gt;v0 -->
<g id="edge1" class="edge"><title>r0&#45;&gt;v0</title>
<path fill="none" stroke="black" d="M619,-347.562C619,-339.453 619,-327.014 619,-317.181"/>
<polygon fill="black" stroke="black" points="619,-312.03 621.25,-317.03 619,-314.53 619,-317.03 619,-317.03 619,-317.03 619,-314.53 616.75,-317.03 619,-312.03 619,-312.03"/>
</g>
<!-- r1 -->
<g id="node2" class="node"><title>r1</title>
<polygon fill="none" stroke="black" stroke-dasharray="5,2" points="1015.5,-366 992.5,-366 992.5,-348 1015.5,-348 1015.5,-366"/>
<text text-anchor="middle" x="1004" y="-354.8" font-family="serif" font-size="9.00">1</text>
</g>
<!-- v11 -->
<g id="v11_RulesKeywords" class="node"><title>v11</title>
<ellipse fill="none" stroke="black" cx="1004" cy="-69" rx="54" ry="11"/>
<text text-anchor="middle" x="1004" y="-66.8" font-family="sans-serif" font-size="9.00">RulesKeywords</text>
</g>
<!-- r1&#45;&gt;v11 -->
<g id="edge2" class="edge"><title>r1&#45;&gt;v11</title>
<path fill="none" stroke="black" d="M1004,-347.849C1004,-329.373 1004,-282.889 1004,-244 1004,-244 1004,-244 1004,-184 1004,-148.604 1004,-107.026 1004,-85.1783"/>
<polygon fill="black" stroke="black" points="1004,-80.0648 1006.25,-85.0648 1004,-82.5648 1004,-85.0648 1004,-85.0648 1004,-85.0648 1004,-82.5648 1001.75,-85.0648 1004,-80.0648 1004,-80.0648"/>
</g>
<!-- e3 -->
<g id="node3" class="node"><title>e3</title>
</g>
<!-- v7 -->
<g id="v7_SmartLight" class="node"><title>v7</title>
<ellipse fill="none" stroke="black" cx="307" cy="-11" rx="43" ry="11"/>
<text text-anchor="middle" x="307" y="-8.8" font-family="sans-serif" font-size="9.00">SmartLight</text>
</g>
<!-- e3&#45;&gt;v7 -->
<g id="edge26" class="edge"><title>e3&#45;&gt;v7</title>
<path fill="none" stroke="green" d="M307,-64.1674C307,-55.5862 307,-34.5957 307,-22.0117"/>
<polygon fill="green" stroke="green" points="310.5,-67.3001 303.5,-67.2999 303.5,-65.8999 310.5,-65.9001 310.5,-67.3001"/>
<polyline fill="none" stroke="green" points="307,-68 307,-64.5 "/>
</g>
<!-- v1 -->
<g id="v1_Floor" class="node"><title>v1</title>
<ellipse fill="none" stroke="black" cx="495" cy="-243" rx="25" ry="11"/>
<text text-anchor="middle" x="495" y="-240.8" font-family="sans-serif" font-size="9.00">Floor</text>
</g>
<!-- v0&#45;&gt;v1 -->
<g id="edge3" class="edge"><title>v0&#45;&gt;v1</title>
<path fill="none" stroke="black" d="M600.167,-291.495C577.649,-281.326 540.05,-264.345 516.438,-253.682"/>
<polygon fill="black" stroke="black" points="511.623,-251.507 517.106,-251.514 513.901,-252.536 516.179,-253.565 516.179,-253.565 516.179,-253.565 513.901,-252.536 515.253,-255.616 511.623,-251.507 511.623,-251.507"/>
</g>
<!-- v10 -->
<g id="v10_InstallationBus" class="node"><title>v10</title>
<ellipse fill="none" stroke="black" cx="796" cy="-69" rx="61" ry="11"/>
<text text-anchor="middle" x="796" y="-66.8" font-family="sans-serif" font-size="9.00">InstallationBus</text>
</g>
<!-- v0&#45;&gt;v10 -->
<g id="edge4" class="edge"><title>v0&#45;&gt;v10</title>
<path fill="none" stroke="black" d="M626.605,-290.117C654.626,-253.707 752.169,-126.956 785.068,-84.2053"/>
<polygon fill="black" stroke="black" points="788.224,-80.105 786.957,-85.4398 786.699,-82.0863 785.174,-84.0675 785.174,-84.0675 785.174,-84.0675 786.699,-82.0863 783.391,-82.6953 788.224,-80.105 788.224,-80.105"/>
</g>
<!-- v2 -->
<g id="v2_Room" class="node"><title>v2</title>
<ellipse fill="none" stroke="black" cx="619" cy="-127" rx="21.5" ry="11"/>
<text text-anchor="middle" x="619" y="-124.8" font-family="sans-serif" font-size="9.00">Room</text>
</g>
<!-- v1&#45;&gt;v2 -->
<g id="edge5" class="edge"><title>v1&#45;&gt;v2</title>
<path fill="none" stroke="black" d="M505.147,-232.671C527.329,-212.278 580.153,-163.714 605.274,-140.619"/>
<polygon fill="black" stroke="black" points="609.059,-137.139 606.901,-142.18 607.218,-138.831 605.378,-140.523 605.378,-140.523 605.378,-140.523 607.218,-138.831 603.855,-138.867 609.059,-137.139 609.059,-137.139"/>
</g>
<!-- v3 -->
<g id="v3_Room" class="node"><title>v3</title>
<ellipse fill="none" stroke="black" cx="244" cy="-185" rx="21.5" ry="11"/>
<text text-anchor="middle" x="244" y="-182.8" font-family="sans-serif" font-size="9.00">Room</text>
</g>
<!-- v1&#45;&gt;v3 -->
<g id="edge6" class="edge"><title>v1&#45;&gt;v3</title>
<path fill="none" stroke="black" d="M473.6,-237.225C427.16,-226.864 317.382,-202.372 268.369,-191.437"/>
<polygon fill="black" stroke="black" points="263.259,-190.297 268.629,-189.19 265.699,-190.841 268.139,-191.386 268.139,-191.386 268.139,-191.386 265.699,-190.841 267.649,-193.582 263.259,-190.297 263.259,-190.297"/>
</g>
<!-- v14 -->
<g id="v14_Hallway" class="node"><title>v14</title>
<ellipse fill="none" stroke="black" cx="401" cy="-11" rx="32.5" ry="11"/>
<text text-anchor="middle" x="401" y="-8.8" font-family="sans-serif" font-size="9.00">Hallway</text>
</g>
<!-- v1&#45;&gt;v14 -->
<g id="edge7" class="edge"><title>v1&#45;&gt;v14</title>
<path fill="none" stroke="black" d="M490.961,-232.117C476.17,-195.928 424.904,-70.489 407.127,-26.9918"/>
<polygon fill="black" stroke="black" points="405.13,-22.105 409.104,-25.8822 406.076,-24.4192 407.022,-26.7334 407.022,-26.7334 407.022,-26.7334 406.076,-24.4192 404.939,-27.5846 405.13,-22.105 405.13,-22.105"/>
</g>
<!-- v18 -->
<g id="v18_Room" class="node"><title>v18</title>
<ellipse fill="none" stroke="black" cx="495" cy="-69" rx="21.5" ry="11"/>
<text text-anchor="middle" x="495" y="-66.8" font-family="sans-serif" font-size="9.00">Room</text>
</g>
<!-- v1&#45;&gt;v18 -->
<g id="edge8" class="edge"><title>v1&#45;&gt;v18</title>
<path fill="none" stroke="black" d="M495,-231.756C495,-202.786 495,-120.136 495,-85.5335"/>
<polygon fill="black" stroke="black" points="495,-80.4081 497.25,-85.408 495,-82.9081 495,-85.4081 495,-85.4081 495,-85.4081 495,-82.9081 492.75,-85.4081 495,-80.4081 495,-80.4081"/>
</g>
<!-- v8 -->
<g id="v8_HVAC" class="node"><title>v8</title>
<ellipse fill="none" stroke="black" cx="593" cy="-69" rx="21.5" ry="11"/>
<text text-anchor="middle" x="593" y="-66.8" font-family="sans-serif" font-size="9.00">HVAC</text>
</g>
<!-- v2&#45;&gt;v8 -->
<g id="edge9" class="edge"><title>v2&#45;&gt;v8</title>
<path fill="none" stroke="black" d="M614.471,-116.246C610.42,-107.52 604.425,-94.6082 599.799,-84.6435"/>
<polygon fill="black" stroke="black" points="597.652,-80.0198 601.798,-83.6073 598.705,-82.2873 599.758,-84.5548 599.758,-84.5548 599.758,-84.5548 598.705,-82.2873 597.717,-85.5023 597.652,-80.0198 597.652,-80.0198"/>
</g>
<!-- v2&#45;&gt;v14 -->
<g id="edge23" class="edge"><title>v2&#45;&gt;v14</title>
<path fill="none" stroke="green" d="M597.549,-125.442C512.319,-123.007 200.843,-111.964 172,-80 128.683,-31.9971 113.516,-74.8275 359,-22 364.569,-20.8015 370.533,-19.4333 376.167,-18.1018"/>
</g>
<!-- v20 -->
<g id="v20_SmartLight" class="node"><title>v20</title>
<ellipse fill="none" stroke="black" cx="689" cy="-11" rx="43" ry="11"/>
<text text-anchor="middle" x="689" y="-8.8" font-family="sans-serif" font-size="9.00">SmartLight</text>
</g>
<!-- v2&#45;&gt;v20 -->
<g id="edge10" class="edge"><title>v2&#45;&gt;v20</title>
<path fill="none" stroke="black" d="M624.968,-116.28C637.305,-96.1897 665.667,-49.9992 680.146,-26.4199"/>
<polygon fill="black" stroke="black" points="682.847,-22.0199 682.148,-27.4582 681.539,-24.1504 680.231,-26.2808 680.231,-26.2808 680.231,-26.2808 681.539,-24.1504 678.314,-25.1035 682.847,-22.0199 682.847,-22.0199"/>
</g>
<!-- v21 -->
<g id="v21_FireAlarm" class="node"><title>v21</title>
<ellipse fill="none" stroke="black" cx="790" cy="-11" rx="39.5" ry="11"/>
<text text-anchor="middle" x="790" y="-8.8" font-family="sans-serif" font-size="9.00">FireAlarm</text>
</g>
<!-- v2&#45;&gt;v21 -->
<g id="edge11" class="edge"><title>v2&#45;&gt;v21</title>
<path fill="none" stroke="black" d="M631.298,-117.801C660.907,-98.0622 736.299,-47.8008 771.442,-24.3719"/>
<polygon fill="black" stroke="black" points="775.925,-21.3836 773.012,-26.0293 773.844,-22.7704 771.764,-24.1571 771.764,-24.1571 771.764,-24.1571 773.844,-22.7704 770.516,-22.285 775.925,-21.3836 775.925,-21.3836"/>
</g>
<!-- v4 -->
<g id="v4_Visitor" class="node"><title>v4</title>
<ellipse fill="none" stroke="black" cx="212" cy="-127" rx="32.5" ry="11"/>
<text text-anchor="middle" x="212" y="-124.8" font-family="sans-serif" font-size="9.00">Visitor</text>
</g>
<!-- v3&#45;&gt;v4 -->
<g id="edge12" class="edge"><title>v3&#45;&gt;v4</title>
<path fill="none" stroke="black" d="M238.426,-174.246C233.395,-165.441 225.927,-152.373 220.213,-142.372"/>
<polygon fill="black" stroke="black" points="217.726,-138.02 222.16,-141.245 218.966,-140.19 220.206,-142.361 220.206,-142.361 220.206,-142.361 218.966,-140.19 218.253,-143.477 217.726,-138.02 217.726,-138.02"/>
</g>
<!-- v3&#45;&gt;v7 -->
<g id="edge13" class="edge"><title>v3&#45;&gt;v7</title>
<path fill="none" stroke="black" d="M247.659,-174.009C258.229,-145.153 288.849,-61.5561 301.466,-27.1091"/>
<polygon fill="black" stroke="black" points="303.33,-22.0185 303.723,-27.4873 302.471,-24.366 301.611,-26.7134 301.611,-26.7134 301.611,-26.7134 302.471,-24.366 299.498,-25.9396 303.33,-22.0185 303.33,-22.0185"/>
</g>
<!-- v3&#45;&gt;v14 -->
<g id="edge24" class="edge"><title>v3&#45;&gt;v14</title>
<path fill="none" stroke="green" d="M252.441,-174.753C279.574,-145.027 364.4,-52.097 392.13,-21.7169"/>
</g>
<!-- v15 -->
<g id="v15_Workstation" class="node"><title>v15</title>
<ellipse fill="none" stroke="black" cx="47" cy="-11" rx="47" ry="11"/>
<text text-anchor="middle" x="47" y="-8.8" font-family="sans-serif" font-size="9.00">Workstation</text>
</g>
<!-- v3&#45;&gt;v15 -->
<g id="edge14" class="edge"><title>v3&#45;&gt;v15</title>
<path fill="none" stroke="black" d="M229.972,-176.621C214.575,-168.223 189.458,-153.632 170,-138 124.943,-101.802 79.3511,-50.3474 58.5891,-25.9141"/>
<polygon fill="black" stroke="black" points="55.24,-21.9531 60.1865,-24.3184 56.8541,-23.8621 58.4683,-25.7712 58.4683,-25.7712 58.4683,-25.7712 56.8541,-23.8621 56.7501,-27.2239 55.24,-21.9531 55.24,-21.9531"/>
</g>
<!-- v5 -->
<g id="v5_Laptop" class="node"><title>v5</title>
<ellipse fill="none" stroke="black" cx="210" cy="-69" rx="29" ry="11"/>
<text text-anchor="middle" x="210" y="-66.8" font-family="sans-serif" font-size="9.00">Laptop</text>
</g>
<!-- v4&#45;&gt;v5 -->
<g id="edge15" class="edge"><title>v4&#45;&gt;v5</title>
<path fill="none" stroke="black" d="M211.642,-115.988C211.339,-107.494 210.899,-95.1697 210.551,-85.4169"/>
<polygon fill="black" stroke="black" points="210.368,-80.3039 212.795,-85.2203 210.457,-82.8023 210.547,-85.3007 210.547,-85.3007 210.547,-85.3007 210.457,-82.8023 208.298,-85.381 210.368,-80.3039 210.368,-80.3039"/>
</g>
<!-- v6 -->
<g id="v6_Software" class="node"><title>v6</title>
<ellipse fill="none" stroke="black" cx="210" cy="-11" rx="36" ry="11"/>
<text text-anchor="middle" x="210" y="-8.8" font-family="sans-serif" font-size="9.00">Software</text>
</g>
<!-- v5&#45;&gt;v6 -->
<g id="edge16" class="edge"><title>v5&#45;&gt;v6</title>
<path fill="none" stroke="black" d="M210,-57.9883C210,-49.4941 210,-37.1697 210,-27.4169"/>
<polygon fill="black" stroke="black" points="210,-22.3039 212.25,-27.3038 210,-24.8039 210,-27.3039 210,-27.3039 210,-27.3039 210,-24.8039 207.75,-27.3039 210,-22.3039 210,-22.3039"/>
</g>
<!-- v5&#45;&gt;v10 -->
<g id="edge25" class="edge"><title>v5&#45;&gt;v10</title>
<path fill="none" stroke="green" d="M230.202,-77.0009C249.36,-84.1299 279.131,-94.0303 306,-98 391.296,-110.602 608.603,-109.904 694,-98 719.892,-94.3908 748.443,-85.8629 768.737,-78.9834"/>
</g>
<!-- v13 -->
<g id="v13_Data" class="node"><title>v13</title>
<ellipse fill="none" stroke="black" cx="134" cy="-11" rx="21.5" ry="11"/>
<text text-anchor="middle" x="134" y="-8.8" font-family="sans-serif" font-size="9.00">Data</text>
</g>
<!-- v5&#45;&gt;v13 -->
<g id="edge17" class="edge"><title>v5&#45;&gt;v13</title>
<path fill="none" stroke="black" d="M197.789,-59.0026C184.708,-49.364 163.908,-34.0372 149.638,-23.5225"/>
<polygon fill="black" stroke="black" points="145.435,-20.4254 150.795,-21.5801 147.447,-21.9085 149.46,-23.3915 149.46,-23.3915 149.46,-23.3915 147.447,-21.9085 148.125,-25.2029 145.435,-20.4254 145.435,-20.4254"/>
</g>
<!-- v9 -->
<g id="v9_Software" class="node"><title>v9</title>
<ellipse fill="none" stroke="black" cx="592" cy="-11" rx="36" ry="11"/>
<text text-anchor="middle" x="592" y="-8.8" font-family="sans-serif" font-size="9.00">Software</text>
</g>
<!-- v8&#45;&gt;v9 -->
<g id="edge18" class="edge"><title>v8&#45;&gt;v9</title>
<path fill="none" stroke="black" d="M592.821,-57.9883C592.67,-49.4941 592.449,-37.1697 592.275,-27.4169"/>
<polygon fill="black" stroke="black" points="592.184,-22.3039 594.523,-27.2629 592.229,-24.8035 592.273,-27.3031 592.273,-27.3031 592.273,-27.3031 592.229,-24.8035 590.024,-27.3433 592.184,-22.3039 592.184,-22.3039"/>
</g>
<!-- v8&#45;&gt;v10 -->
<g id="edge27" class="edge"><title>v8&#45;&gt;v10</title>
<path fill="none" stroke="green" d="M614.807,-69C654.797,-69 694.787,-69 734.776,-69"/>
</g>
<!-- v12 -->
<g id="v12_Data" class="node"><title>v12</title>
<ellipse fill="none" stroke="black" cx="869" cy="-11" rx="21.5" ry="11"/>
<text text-anchor="middle" x="869" y="-8.8" font-family="sans-serif" font-size="9.00">Data</text>
</g>
<!-- v10&#45;&gt;v12 -->
<g id="edge19" class="edge"><title>v10&#45;&gt;v12</title>
<path fill="none" stroke="black" d="M809.051,-57.9883C821.578,-48.3782 840.497,-33.8655 853.721,-23.721"/>
<polygon fill="black" stroke="black" points="857.97,-20.4615 855.372,-25.29 855.986,-21.9831 854.003,-23.5048 854.003,-23.5048 854.003,-23.5048 855.986,-21.9831 852.633,-21.7196 857.97,-20.4615 857.97,-20.4615"/>
</g>
<!-- v10&#45;&gt;v15 -->
<g id="edge28" class="edge"><title>v10&#45;&gt;v15</title>
<path fill="none" stroke="green" d="M739.722,-64.6234C585.842,-55.3401 165.388,-29.6173 103,-22 95.8437,-21.1262 88.2151,-19.9377 80.9655,-18.6848"/>
</g>
<!-- v19 -->
<g id="v19_SmartLight" class="node"><title>v19</title>
<ellipse fill="none" stroke="black" cx="495" cy="-11" rx="43" ry="11"/>
<text text-anchor="middle" x="495" y="-8.8" font-family="sans-serif" font-size="9.00">SmartLight</text>
</g>
<!-- v10&#45;&gt;v19 -->
<g id="edge29" class="edge"><title>v10&#45;&gt;v19</title>
<path fill="none" stroke="green" d="M755.876,-60.6807C706.65,-51.6797 620.655,-35.8856 547,-22 540.676,-20.8078 533.923,-19.5199 527.447,-18.2778"/>
</g>
<!-- v10&#45;&gt;v20 -->
<g id="edge30" class="edge"><title>v10&#45;&gt;v20</title>
<path fill="none" stroke="green" d="M777.362,-58.2455C757.364,-47.7791 725.854,-31.2882 706.362,-21.0869"/>
</g>
<!-- v10&#45;&gt;v21 -->
<g id="edge31" class="edge"><title>v10&#45;&gt;v21</title>
<path fill="none" stroke="green" d="M794.927,-57.9883C793.849,-47.9211 792.194,-32.4737 791.104,-22.3039"/>
</g>
<!-- v16 -->
<g id="v16_ExitRoom" class="node"><title>v16</title>
<ellipse fill="none" stroke="black" cx="945" cy="-11" rx="36" ry="11"/>
<text text-anchor="middle" x="945" y="-8.8" font-family="sans-serif" font-size="9.00">ExitRoom</text>
</g>
<!-- v11&#45;&gt;v16 -->
<g id="edge20" class="edge"><title>v11&#45;&gt;v16</title>
<path fill="none" stroke="black" d="M993.452,-57.9883C983.887,-48.9101 969.714,-35.4569 959.164,-25.4439"/>
<polygon fill="black" stroke="black" points="955.457,-21.925 960.632,-23.7352 957.27,-23.6461 959.083,-25.3672 959.083,-25.3672 959.083,-25.3672 957.27,-23.6461 957.534,-26.9991 955.457,-21.925 955.457,-21.925"/>
</g>
<!-- v17 -->
<g id="v17_DisconnectDevice" class="node"><title>v17</title>
<ellipse fill="none" stroke="black" cx="1064" cy="-11" rx="65" ry="11"/>
<text text-anchor="middle" x="1064" y="-8.8" font-family="sans-serif" font-size="9.00">DisconnectDevice</text>
</g>
<!-- v11&#45;&gt;v17 -->
<g id="edge21" class="edge"><title>v11&#45;&gt;v17</title>
<path fill="none" stroke="black" d="M1014.73,-57.9883C1024.45,-48.9101 1038.87,-35.4569 1049.6,-25.4439"/>
<polygon fill="black" stroke="black" points="1053.37,-21.925 1051.25,-26.9815 1051.54,-23.6308 1049.71,-25.3366 1049.71,-25.3366 1049.71,-25.3366 1051.54,-23.6308 1048.18,-23.6917 1053.37,-21.925 1053.37,-21.925"/>
</g>
<!-- v14&#45;&gt;v18 -->
<g id="edge32" class="edge"><title>v14&#45;&gt;v18</title>
<path fill="none" stroke="green" d="M415.817,-20.827C434.008,-31.6646 464.576,-49.8751 481.93,-60.2134"/>
</g>
<!-- v18&#45;&gt;v19 -->
<g id="edge22" class="edge"><title>v18&#45;&gt;v19</title>
<path fill="none" stroke="black" d="M495,-57.9883C495,-49.4941 495,-37.1697 495,-27.4169"/>
<polygon fill="black" stroke="black" points="495,-22.3039 497.25,-27.3038 495,-24.8039 495,-27.3039 495,-27.3039 495,-27.3039 495,-24.8039 492.75,-27.3039 495,-22.3039 495,-22.3039"/>
</g>
</g>
</svg>
