<?xml version="1.0" encoding="UTF-8" standalone="no"?>
<?xml-stylesheet href="style.css" type="text/css"?>
<!DOCTYPE svg PUBLIC "-//W3C//DTD SVG 1.1//EN"
 "http://www.w3.org/Graphics/SVG/1.1/DTD/svg11.dtd">
<!-- Generated by graphviz version 2.38.0 (20140413.2041)
 -->
<!-- Title: 47.svg Pages: 1 -->
<svg width="1218pt" height="374pt"
 viewBox="0.00 0.00 1217.50 374.00" xmlns="http://www.w3.org/2000/svg" xmlns:xlink="http://www.w3.org/1999/xlink">
<g id="graph0" class="graph" transform="scale(1 1) rotate(0) translate(4 370)">
<title>47.svg</title>
<polygon fill="white" stroke="none" points="-4,4 -4,-370 1213.5,-370 1213.5,4 -4,4"/>
<!-- r0 -->
<g id="node1" class="node"><title>r0</title>
<polygon fill="none" stroke="black" stroke-dasharray="5,2" points="203.5,-366 180.5,-366 180.5,-348 203.5,-348 203.5,-366"/>
<text text-anchor="middle" x="192" y="-354.8" font-family="serif" font-size="9.00">0</text>
</g>
<!-- v0 -->
<g id="v0_Building" class="node"><title>v0</title>
<ellipse fill="none" stroke="black" cx="192" cy="-301" rx="36" ry="11"/>
<text text-anchor="middle" x="192" y="-298.8" font-family="sans-serif" font-size="9.00">Building</text>
</g>
<!-- r0&#45;&gt;v0 -->
<g id="edge1" class="edge"><title>r0&#45;&gt;v0</title>
<path fill="none" stroke="black" d="M192,-347.562C192,-339.453 192,-327.014 192,-317.181"/>
<polygon fill="black" stroke="black" points="192,-312.03 194.25,-317.03 192,-314.53 192,-317.03 192,-317.03 192,-317.03 192,-314.53 189.75,-317.03 192,-312.03 192,-312.03"/>
</g>
<!-- r1 -->
<g id="node2" class="node"><title>r1</title>
<polygon fill="none" stroke="black" stroke-dasharray="5,2" points="1065.5,-366 1042.5,-366 1042.5,-348 1065.5,-348 1065.5,-366"/>
<text text-anchor="middle" x="1054" y="-354.8" font-family="serif" font-size="9.00">1</text>
</g>
<!-- v7 -->
<g id="v7_RulesKeywords" class="node"><title>v7</title>
<ellipse fill="none" stroke="black" cx="1054" cy="-69" rx="54" ry="11"/>
<text text-anchor="middle" x="1054" y="-66.8" font-family="sans-serif" font-size="9.00">RulesKeywords</text>
</g>
<!-- r1&#45;&gt;v7 -->
<g id="edge2" class="edge"><title>r1&#45;&gt;v7</title>
<path fill="none" stroke="black" d="M1054,-347.849C1054,-329.373 1054,-282.889 1054,-244 1054,-244 1054,-244 1054,-184 1054,-148.604 1054,-107.026 1054,-85.1783"/>
<polygon fill="black" stroke="black" points="1054,-80.0648 1056.25,-85.0648 1054,-82.5648 1054,-85.0648 1054,-85.0648 1054,-85.0648 1054,-82.5648 1051.75,-85.0648 1054,-80.0648 1054,-80.0648"/>
</g>
<!-- e1 -->
<g id="node3" class="node"><title>e1</title>
</g>
<!-- v4 -->
<g id="v4_Laptop" class="node"><title>v4</title>
<ellipse fill="none" stroke="black" cx="507" cy="-69" rx="29" ry="11"/>
<text text-anchor="middle" x="507" y="-66.8" font-family="sans-serif" font-size="9.00">Laptop</text>
</g>
<!-- e1&#45;&gt;v4 -->
<g id="edge24" class="edge"><title>e1&#45;&gt;v4</title>
<path fill="none" stroke="green" d="M507,-122.167C507,-113.586 507,-92.5957 507,-80.0117"/>
<polygon fill="green" stroke="green" points="510.5,-125.3 503.5,-125.3 503.5,-123.9 510.5,-123.9 510.5,-125.3"/>
<polyline fill="none" stroke="green" points="507,-126 507,-122.5 "/>
</g>
<!-- v1 -->
<g id="v1_Floor" class="node"><title>v1</title>
<ellipse fill="none" stroke="black" cx="283" cy="-243" rx="25" ry="11"/>
<text text-anchor="middle" x="283" y="-240.8" font-family="sans-serif" font-size="9.00">Floor</text>
</g>
<!-- v0&#45;&gt;v1 -->
<g id="edge3" class="edge"><title>v0&#45;&gt;v1</title>
<path fill="none" stroke="black" d="M207.027,-290.753C222.9,-280.985 247.931,-265.581 264.885,-255.148"/>
<polygon fill="black" stroke="black" points="269.438,-252.346 266.359,-256.883 267.309,-253.656 265.18,-254.966 265.18,-254.966 265.18,-254.966 267.309,-253.656 264,-253.05 269.438,-252.346 269.438,-252.346"/>
</g>
<!-- v6 -->
<g id="v6_InstallationBus" class="node"><title>v6</title>
<ellipse fill="none" stroke="black" cx="61" cy="-69" rx="61" ry="11"/>
<text text-anchor="middle" x="61" y="-66.8" font-family="sans-serif" font-size="9.00">InstallationBus</text>
</g>
<!-- v0&#45;&gt;v6 -->
<g id="edge4" class="edge"><title>v0&#45;&gt;v6</title>
<path fill="none" stroke="black" d="M186.371,-290.117C165.675,-253.781 93.7316,-127.468 69.239,-84.4655"/>
<polygon fill="black" stroke="black" points="66.7555,-80.105 71.1852,-83.3361 67.9928,-82.2774 69.2301,-84.4497 69.2301,-84.4497 69.2301,-84.4497 67.9928,-82.2774 67.275,-85.5633 66.7555,-80.105 66.7555,-80.105"/>
</g>
<!-- v2 -->
<g id="v2_Room" class="node"><title>v2</title>
<ellipse fill="none" stroke="black" cx="588" cy="-185" rx="21.5" ry="11"/>
<text text-anchor="middle" x="588" y="-182.8" font-family="sans-serif" font-size="9.00">Room</text>
</g>
<!-- v1&#45;&gt;v2 -->
<g id="edge5" class="edge"><title>v1&#45;&gt;v2</title>
<path fill="none" stroke="black" d="M305.427,-237.882C361.114,-227.658 505.368,-201.172 563.342,-190.527"/>
<polygon fill="black" stroke="black" points="568.35,-189.608 563.839,-192.724 565.891,-190.059 563.432,-190.511 563.432,-190.511 563.432,-190.511 565.891,-190.059 563.026,-188.298 568.35,-189.608 568.35,-189.608"/>
</g>
<!-- v11 -->
<g id="v11_Hallway" class="node"><title>v11</title>
<ellipse fill="none" stroke="black" cx="106" cy="-11" rx="32.5" ry="11"/>
<text text-anchor="middle" x="106" y="-8.8" font-family="sans-serif" font-size="9.00">Hallway</text>
</g>
<!-- v1&#45;&gt;v11 -->
<g id="edge6" class="edge"><title>v1&#45;&gt;v11</title>
<path fill="none" stroke="black" d="M275.62,-232.41C247.851,-196.326 149.564,-68.6084 116.753,-25.9726"/>
<polygon fill="black" stroke="black" points="113.609,-21.888 118.442,-24.4783 115.134,-23.8692 116.659,-25.8505 116.659,-25.8505 116.659,-25.8505 115.134,-23.8692 114.876,-27.2227 113.609,-21.888 113.609,-21.888"/>
</g>
<!-- v16 -->
<g id="v16_Room" class="node"><title>v16</title>
<ellipse fill="none" stroke="black" cx="820" cy="-69" rx="21.5" ry="11"/>
<text text-anchor="middle" x="820" y="-66.8" font-family="sans-serif" font-size="9.00">Room</text>
</g>
<!-- v1&#45;&gt;v16 -->
<g id="edge7" class="edge"><title>v1&#45;&gt;v16</title>
<path fill="none" stroke="black" d="M308.228,-242.093C365.228,-241.549 507.59,-235.938 618,-196 694.999,-168.147 773.793,-107.948 805.494,-82.1442"/>
<polygon fill="black" stroke="black" points="809.474,-78.8827 807.033,-83.792 807.54,-80.4672 805.607,-82.0516 805.607,-82.0516 805.607,-82.0516 807.54,-80.4672 804.181,-80.3112 809.474,-78.8827 809.474,-78.8827"/>
</g>
<!-- v18 -->
<g id="v18_Room" class="node"><title>v18</title>
<ellipse fill="none" stroke="black" cx="283" cy="-69" rx="21.5" ry="11"/>
<text text-anchor="middle" x="283" y="-66.8" font-family="sans-serif" font-size="9.00">Room</text>
</g>
<!-- v1&#45;&gt;v18 -->
<g id="edge8" class="edge"><title>v1&#45;&gt;v18</title>
<path fill="none" stroke="black" d="M283,-231.756C283,-202.786 283,-120.136 283,-85.5335"/>
<polygon fill="black" stroke="black" points="283,-80.4081 285.25,-85.408 283,-82.9081 283,-85.4081 283,-85.4081 283,-85.4081 283,-82.9081 280.75,-85.4081 283,-80.4081 283,-80.4081"/>
</g>
<!-- v3 -->
<g id="v3_Visitor" class="node"><title>v3</title>
<ellipse fill="none" stroke="black" cx="558" cy="-127" rx="32.5" ry="11"/>
<text text-anchor="middle" x="558" y="-124.8" font-family="sans-serif" font-size="9.00">Visitor</text>
</g>
<!-- v2&#45;&gt;v3 -->
<g id="edge9" class="edge"><title>v2&#45;&gt;v3</title>
<path fill="none" stroke="black" d="M582.774,-174.246C578.1,-165.52 571.183,-152.608 565.845,-142.643"/>
<polygon fill="black" stroke="black" points="563.368,-138.02 567.712,-141.365 564.548,-140.223 565.729,-142.427 565.729,-142.427 565.729,-142.427 564.548,-140.223 563.746,-143.49 563.368,-138.02 563.368,-138.02"/>
</g>
<!-- v5 -->
<g id="v5_SmartLight" class="node"><title>v5</title>
<ellipse fill="none" stroke="black" cx="727" cy="-11" rx="43" ry="11"/>
<text text-anchor="middle" x="727" y="-8.8" font-family="sans-serif" font-size="9.00">SmartLight</text>
</g>
<!-- v2&#45;&gt;v5 -->
<g id="edge10" class="edge"><title>v2&#45;&gt;v5</title>
<path fill="none" stroke="black" d="M595.671,-174.508C618.766,-145.93 687.744,-60.5757 715.37,-26.3907"/>
<polygon fill="black" stroke="black" points="718.833,-22.1054 717.441,-27.4085 717.262,-24.0498 715.691,-25.9942 715.691,-25.9942 715.691,-25.9942 717.262,-24.0498 713.941,-24.58 718.833,-22.1054 718.833,-22.1054"/>
</g>
<!-- v2&#45;&gt;v11 -->
<g id="edge23" class="edge"><title>v2&#45;&gt;v11</title>
<path fill="none" stroke="green" d="M592.809,-173.967C598.617,-160.382 606.706,-135.586 599,-116 586.105,-83.225 576.625,-73.5023 545,-58 465.458,-19.0097 235.423,-36.2956 148,-22 142.23,-21.0565 136.077,-19.7596 130.31,-18.4122"/>
</g>
<!-- v13 -->
<g id="v13_Workstation" class="node"><title>v13</title>
<ellipse fill="none" stroke="black" cx="619" cy="-11" rx="47" ry="11"/>
<text text-anchor="middle" x="619" y="-8.8" font-family="sans-serif" font-size="9.00">Workstation</text>
</g>
<!-- v2&#45;&gt;v13 -->
<g id="edge11" class="edge"><title>v2&#45;&gt;v13</title>
<path fill="none" stroke="black" d="M590.674,-173.818C593.056,-164.53 596.536,-150.403 599,-138 606.903,-98.2119 613.734,-50.8638 616.983,-27.1377"/>
<polygon fill="black" stroke="black" points="617.657,-22.1733 619.214,-27.4307 617.321,-24.6505 616.984,-27.1278 616.984,-27.1278 616.984,-27.1278 617.321,-24.6505 614.755,-26.8248 617.657,-22.1733 617.657,-22.1733"/>
</g>
<!-- v3&#45;&gt;v4 -->
<g id="edge12" class="edge"><title>v3&#45;&gt;v4</title>
<path fill="none" stroke="black" d="M549.116,-116.246C540.853,-107.172 528.465,-93.5697 519.262,-83.4636"/>
<polygon fill="black" stroke="black" points="515.782,-79.6427 520.812,-81.8244 517.465,-81.491 519.148,-83.3394 519.148,-83.3394 519.148,-83.3394 517.465,-81.491 517.485,-84.8544 515.782,-79.6427 515.782,-79.6427"/>
</g>
<!-- v10 -->
<g id="v10_Data" class="node"><title>v10</title>
<ellipse fill="none" stroke="black" cx="532" cy="-11" rx="21.5" ry="11"/>
<text text-anchor="middle" x="532" y="-8.8" font-family="sans-serif" font-size="9.00">Data</text>
</g>
<!-- v4&#45;&gt;v10 -->
<g id="edge13" class="edge"><title>v4&#45;&gt;v10</title>
<path fill="none" stroke="black" d="M511.469,-57.9883C515.38,-49.2286 521.109,-36.3956 525.522,-26.5103"/>
<polygon fill="black" stroke="black" points="527.569,-21.925 527.585,-27.4079 526.55,-24.2079 525.531,-26.4907 525.531,-26.4907 525.531,-26.4907 526.55,-24.2079 523.476,-25.5735 527.569,-21.925 527.569,-21.925"/>
</g>
<!-- v12 -->
<g id="v12_Software" class="node"><title>v12</title>
<ellipse fill="none" stroke="black" cx="456" cy="-11" rx="36" ry="11"/>
<text text-anchor="middle" x="456" y="-8.8" font-family="sans-serif" font-size="9.00">Software</text>
</g>
<!-- v4&#45;&gt;v12 -->
<g id="edge14" class="edge"><title>v4&#45;&gt;v12</title>
<path fill="none" stroke="black" d="M498.349,-58.5004C490.119,-49.4645 477.653,-35.7761 468.375,-25.5877"/>
<polygon fill="black" stroke="black" points="464.865,-21.7345 469.896,-23.9162 466.549,-23.5828 468.232,-25.4312 468.232,-25.4312 468.232,-25.4312 466.549,-23.5828 466.568,-26.9462 464.865,-21.7345 464.865,-21.7345"/>
</g>
<!-- v5&#45;&gt;v6 -->
<g id="edge25" class="edge"><title>v5&#45;&gt;v6</title>
<path fill="none" stroke="green" d="M695.748,-18.6148C688.933,-19.8876 681.743,-21.102 675,-22 567.98,-36.2511 247.562,-56.6527 117.148,-64.6255"/>
</g>
<!-- v9 -->
<g id="v9_Data" class="node"><title>v9</title>
<ellipse fill="none" stroke="black" cx="34" cy="-11" rx="21.5" ry="11"/>
<text text-anchor="middle" x="34" y="-8.8" font-family="sans-serif" font-size="9.00">Data</text>
</g>
<!-- v6&#45;&gt;v9 -->
<g id="edge15" class="edge"><title>v6&#45;&gt;v9</title>
<path fill="none" stroke="black" d="M56.1729,-57.9883C51.9495,-49.2286 45.7622,-36.3956 40.996,-26.5103"/>
<polygon fill="black" stroke="black" points="38.7853,-21.925 42.9836,-25.4517 39.871,-24.1769 40.9568,-26.4289 40.9568,-26.4289 40.9568,-26.4289 39.871,-24.1769 38.9301,-27.4061 38.7853,-21.925 38.7853,-21.925"/>
</g>
<!-- v6&#45;&gt;v13 -->
<g id="edge26" class="edge"><title>v6&#45;&gt;v13</title>
<path fill="none" stroke="green" d="M116.77,-64.3814C209.459,-58.031 400.965,-43.4818 562,-22 569.27,-21.0302 577.029,-19.8004 584.406,-18.5376"/>
</g>
<!-- v17 -->
<g id="v17_SmartLight" class="node"><title>v17</title>
<ellipse fill="none" stroke="black" cx="831" cy="-11" rx="43" ry="11"/>
<text text-anchor="middle" x="831" y="-8.8" font-family="sans-serif" font-size="9.00">SmartLight</text>
</g>
<!-- v6&#45;&gt;v17 -->
<g id="edge27" class="edge"><title>v6&#45;&gt;v17</title>
<path fill="none" stroke="green" d="M117.604,-64.786C275.62,-55.7557 714.183,-30.2752 779,-22 785.748,-21.1385 792.94,-19.9394 799.755,-18.67"/>
</g>
<!-- v19 -->
<g id="v19_SmartLight" class="node"><title>v19</title>
<ellipse fill="none" stroke="black" cx="200" cy="-11" rx="43" ry="11"/>
<text text-anchor="middle" x="200" y="-8.8" font-family="sans-serif" font-size="9.00">SmartLight</text>
</g>
<!-- v6&#45;&gt;v19 -->
<g id="edge28" class="edge"><title>v6&#45;&gt;v19</title>
<path fill="none" stroke="green" d="M83.953,-58.7527C110.17,-48.1904 152.742,-31.0392 178.386,-20.7077"/>
</g>
<!-- v20 -->
<g id="v20_HVAC" class="node"><title>v20</title>
<ellipse fill="none" stroke="black" cx="283" cy="-11" rx="21.5" ry="11"/>
<text text-anchor="middle" x="283" y="-8.8" font-family="sans-serif" font-size="9.00">HVAC</text>
</g>
<!-- v6&#45;&gt;v20 -->
<g id="edge29" class="edge"><title>v6&#45;&gt;v20</title>
<path fill="none" stroke="green" d="M97.4726,-60.0794C136.067,-51.497 198.645,-37.0073 252,-22 256.464,-20.7444 261.249,-19.2672 265.691,-17.8391"/>
</g>
<!-- v21 -->
<g id="v21_FireAlarm" class="node"><title>v21</title>
<ellipse fill="none" stroke="black" cx="362" cy="-11" rx="39.5" ry="11"/>
<text text-anchor="middle" x="362" y="-8.8" font-family="sans-serif" font-size="9.00">FireAlarm</text>
</g>
<!-- v6&#45;&gt;v21 -->
<g id="edge30" class="edge"><title>v6&#45;&gt;v21</title>
<path fill="none" stroke="green" d="M102.079,-60.7717C152,-51.925 238.77,-36.3479 313,-22 319.138,-20.8137 325.699,-19.5036 331.96,-18.2333"/>
</g>
<!-- v8 -->
<g id="v8_ConnectDevice" class="node"><title>v8</title>
<ellipse fill="none" stroke="black" cx="946" cy="-11" rx="54" ry="11"/>
<text text-anchor="middle" x="946" y="-8.8" font-family="sans-serif" font-size="9.00">ConnectDevice</text>
</g>
<!-- v7&#45;&gt;v8 -->
<g id="edge16" class="edge"><title>v7&#45;&gt;v8</title>
<path fill="none" stroke="black" d="M1035.68,-58.5004C1017.29,-48.9669 988.919,-34.2544 969.023,-23.9378"/>
<polygon fill="black" stroke="black" points="964.411,-21.5462 969.885,-21.8504 966.63,-22.6971 968.849,-23.8479 968.849,-23.8479 968.849,-23.8479 966.63,-22.6971 967.814,-25.8453 964.411,-21.5462 964.411,-21.5462"/>
</g>
<!-- v14 -->
<g id="v14_ExitRoom" class="node"><title>v14</title>
<ellipse fill="none" stroke="black" cx="1054" cy="-11" rx="36" ry="11"/>
<text text-anchor="middle" x="1054" y="-8.8" font-family="sans-serif" font-size="9.00">ExitRoom</text>
</g>
<!-- v7&#45;&gt;v14 -->
<g id="edge17" class="edge"><title>v7&#45;&gt;v14</title>
<path fill="none" stroke="black" d="M1054,-57.9883C1054,-49.4941 1054,-37.1697 1054,-27.4169"/>
<polygon fill="black" stroke="black" points="1054,-22.3039 1056.25,-27.3038 1054,-24.8039 1054,-27.3039 1054,-27.3039 1054,-27.3039 1054,-24.8039 1051.75,-27.3039 1054,-22.3039 1054,-22.3039"/>
</g>
<!-- v15 -->
<g id="v15_SendSoftware" class="node"><title>v15</title>
<ellipse fill="none" stroke="black" cx="1159" cy="-11" rx="50.5" ry="11"/>
<text text-anchor="middle" x="1159" y="-8.8" font-family="sans-serif" font-size="9.00">SendSoftware</text>
</g>
<!-- v7&#45;&gt;v15 -->
<g id="edge18" class="edge"><title>v7&#45;&gt;v15</title>
<path fill="none" stroke="black" d="M1071.81,-58.5004C1089.72,-48.9496 1117.37,-34.201 1136.72,-23.8816"/>
<polygon fill="black" stroke="black" points="1141.45,-21.3593 1138.1,-25.6976 1139.25,-22.5358 1137.04,-23.7123 1137.04,-23.7123 1137.04,-23.7123 1139.25,-22.5358 1135.98,-21.727 1141.45,-21.3593 1141.45,-21.3593"/>
</g>
<!-- v11&#45;&gt;v16 -->
<g id="edge31" class="edge"><title>v11&#45;&gt;v16</title>
<path fill="none" stroke="green" d="M130.289,-18.5512C136.057,-19.8928 142.215,-21.1523 148,-22 424.615,-62.5347 499.18,-18.8858 776,-58 784.532,-59.2056 793.856,-61.2215 801.716,-63.1287"/>
</g>
<!-- v11&#45;&gt;v18 -->
<g id="edge32" class="edge"><title>v11&#45;&gt;v18</title>
<path fill="none" stroke="green" d="M128.224,-19.0313C163.829,-30.2962 232.941,-52.162 265.381,-62.4258"/>
</g>
<!-- v16&#45;&gt;v17 -->
<g id="edge19" class="edge"><title>v16&#45;&gt;v17</title>
<path fill="none" stroke="black" d="M821.967,-57.9883C823.635,-49.4941 826.056,-37.1697 827.972,-27.4169"/>
<polygon fill="black" stroke="black" points="828.976,-22.3039 830.22,-27.6438 828.494,-24.757 828.012,-27.2101 828.012,-27.2101 828.012,-27.2101 828.494,-24.757 825.804,-26.7764 828.976,-22.3039 828.976,-22.3039"/>
</g>
<!-- v18&#45;&gt;v19 -->
<g id="edge20" class="edge"><title>v18&#45;&gt;v19</title>
<path fill="none" stroke="black" d="M270.753,-59.737C256.904,-50.3929 234.211,-35.082 218.267,-24.325"/>
<polygon fill="black" stroke="black" points="213.963,-21.4205 219.366,-22.3519 216.035,-22.8188 218.107,-24.2171 218.107,-24.2171 218.107,-24.2171 216.035,-22.8188 216.849,-26.0822 213.963,-21.4205 213.963,-21.4205"/>
</g>
<!-- v18&#45;&gt;v20 -->
<g id="edge21" class="edge"><title>v18&#45;&gt;v20</title>
<path fill="none" stroke="black" d="M283,-57.9883C283,-49.4941 283,-37.1697 283,-27.4169"/>
<polygon fill="black" stroke="black" points="283,-22.3039 285.25,-27.3038 283,-24.8039 283,-27.3039 283,-27.3039 283,-27.3039 283,-24.8039 280.75,-27.3039 283,-22.3039 283,-22.3039"/>
</g>
<!-- v18&#45;&gt;v21 -->
<g id="edge22" class="edge"><title>v18&#45;&gt;v21</title>
<path fill="none" stroke="black" d="M294.657,-59.737C307.839,-50.3929 329.438,-35.082 344.613,-24.325"/>
<polygon fill="black" stroke="black" points="348.71,-21.4205 345.932,-26.1477 346.671,-22.8663 344.631,-24.3121 344.631,-24.3121 344.631,-24.3121 346.671,-22.8663 343.33,-22.4765 348.71,-21.4205 348.71,-21.4205"/>
</g>
</g>
</svg>
