<?xml version="1.0" encoding="UTF-8" standalone="no"?>
<?xml-stylesheet href="style.css" type="text/css"?>
<!DOCTYPE svg PUBLIC "-//W3C//DTD SVG 1.1//EN"
 "http://www.w3.org/Graphics/SVG/1.1/DTD/svg11.dtd">
<!-- Generated by graphviz version 2.38.0 (20140413.2041)
 -->
<!-- Title: 54.svg Pages: 1 -->
<svg width="1018pt" height="374pt"
 viewBox="0.00 0.00 1017.50 374.00" xmlns="http://www.w3.org/2000/svg" xmlns:xlink="http://www.w3.org/1999/xlink">
<g id="graph0" class="graph" transform="scale(1 1) rotate(0) translate(4 370)">
<title>54.svg</title>
<polygon fill="white" stroke="none" points="-4,4 -4,-370 1013.5,-370 1013.5,4 -4,4"/>
<!-- r0 -->
<g id="node1" class="node"><title>r0</title>
<polygon fill="none" stroke="black" stroke-dasharray="5,2" points="602,-366 579,-366 579,-348 602,-348 602,-366"/>
<text text-anchor="middle" x="590.5" y="-354.8" font-family="serif" font-size="9.00">0</text>
</g>
<!-- v0 -->
<g id="v0_Building" class="node"><title>v0</title>
<ellipse fill="none" stroke="black" cx="590.5" cy="-301" rx="36" ry="11"/>
<text text-anchor="middle" x="590.5" y="-298.8" font-family="sans-serif" font-size="9.00">Building</text>
</g>
<!-- r0&#45;&gt;v0 -->
<g id="edge1" class="edge"><title>r0&#45;&gt;v0</title>
<path fill="none" stroke="black" d="M590.5,-347.562C590.5,-339.453 590.5,-327.014 590.5,-317.181"/>
<polygon fill="black" stroke="black" points="590.5,-312.03 592.75,-317.03 590.5,-314.53 590.5,-317.03 590.5,-317.03 590.5,-317.03 590.5,-314.53 588.25,-317.03 590.5,-312.03 590.5,-312.03"/>
</g>
<!-- r1 -->
<g id="node2" class="node"><title>r1</title>
<polygon fill="none" stroke="black" stroke-dasharray="5,2" points="868,-366 845,-366 845,-348 868,-348 868,-366"/>
<text text-anchor="middle" x="856.5" y="-354.8" font-family="serif" font-size="9.00">1</text>
</g>
<!-- v6 -->
<g id="v6_RulesKeywords" class="node"><title>v6</title>
<ellipse fill="none" stroke="black" cx="856.5" cy="-69" rx="54" ry="11"/>
<text text-anchor="middle" x="856.5" y="-66.8" font-family="sans-serif" font-size="9.00">RulesKeywords</text>
</g>
<!-- r1&#45;&gt;v6 -->
<g id="edge2" class="edge"><title>r1&#45;&gt;v6</title>
<path fill="none" stroke="black" d="M856.5,-347.849C856.5,-329.373 856.5,-282.889 856.5,-244 856.5,-244 856.5,-244 856.5,-184 856.5,-148.604 856.5,-107.026 856.5,-85.1783"/>
<polygon fill="black" stroke="black" points="856.5,-80.0648 858.75,-85.0648 856.5,-82.5648 856.5,-85.0648 856.5,-85.0648 856.5,-85.0648 856.5,-82.5648 854.25,-85.0648 856.5,-80.0648 856.5,-80.0648"/>
</g>
<!-- e3 -->
<g id="node3" class="node"><title>e3</title>
</g>
<!-- v5 -->
<g id="v5_Laptop" class="node"><title>v5</title>
<ellipse fill="none" stroke="black" cx="341.5" cy="-69" rx="29" ry="11"/>
<text text-anchor="middle" x="341.5" y="-66.8" font-family="sans-serif" font-size="9.00">Laptop</text>
</g>
<!-- e3&#45;&gt;v5 -->
<g id="edge25" class="edge"><title>e3&#45;&gt;v5</title>
<path fill="none" stroke="green" d="M341.5,-122.167C341.5,-113.586 341.5,-92.5957 341.5,-80.0117"/>
<polygon fill="green" stroke="green" points="345,-125.3 338,-125.3 338,-123.9 345,-123.9 345,-125.3"/>
<polyline fill="none" stroke="green" points="341.5,-126 341.5,-122.5 "/>
</g>
<!-- v1 -->
<g id="v1_Floor" class="node"><title>v1</title>
<ellipse fill="none" stroke="black" cx="522.5" cy="-243" rx="25" ry="11"/>
<text text-anchor="middle" x="522.5" y="-240.8" font-family="sans-serif" font-size="9.00">Floor</text>
</g>
<!-- v0&#45;&gt;v1 -->
<g id="edge3" class="edge"><title>v0&#45;&gt;v1</title>
<path fill="none" stroke="black" d="M578.965,-290.5C567.526,-281.08 549.947,-266.604 537.445,-256.308"/>
<polygon fill="black" stroke="black" points="533.416,-252.99 538.706,-254.431 535.346,-254.579 537.276,-256.168 537.276,-256.168 537.276,-256.168 535.346,-254.579 535.845,-257.905 533.416,-252.99 533.416,-252.99"/>
</g>
<!-- v11 -->
<g id="v11_InstallationBus" class="node"><title>v11</title>
<ellipse fill="none" stroke="black" cx="701.5" cy="-69" rx="61" ry="11"/>
<text text-anchor="middle" x="701.5" y="-66.8" font-family="sans-serif" font-size="9.00">InstallationBus</text>
</g>
<!-- v0&#45;&gt;v11 -->
<g id="edge4" class="edge"><title>v0&#45;&gt;v11</title>
<path fill="none" stroke="black" d="M595.413,-289.82C613.108,-253.155 673.633,-127.741 694.422,-84.6657"/>
<polygon fill="black" stroke="black" points="696.644,-80.062 696.497,-85.543 695.557,-82.3135 694.471,-84.5651 694.471,-84.5651 694.471,-84.5651 695.557,-82.3135 692.444,-83.5871 696.644,-80.062 696.644,-80.062"/>
</g>
<!-- v2 -->
<g id="v2_Room" class="node"><title>v2</title>
<ellipse fill="none" stroke="black" cx="589.5" cy="-69" rx="21.5" ry="11"/>
<text text-anchor="middle" x="589.5" y="-66.8" font-family="sans-serif" font-size="9.00">Room</text>
</g>
<!-- v1&#45;&gt;v2 -->
<g id="edge5" class="edge"><title>v1&#45;&gt;v2</title>
<path fill="none" stroke="black" d="M526.392,-232.009C537.678,-203.034 570.465,-118.867 583.779,-84.6863"/>
<polygon fill="black" stroke="black" points="585.597,-80.0185 585.879,-85.4942 584.69,-82.348 583.783,-84.6775 583.783,-84.6775 583.783,-84.6775 584.69,-82.348 581.686,-83.8608 585.597,-80.0185 585.597,-80.0185"/>
</g>
<!-- v3 -->
<g id="v3_Hallway" class="node"><title>v3</title>
<ellipse fill="none" stroke="black" cx="440.5" cy="-185" rx="32.5" ry="11"/>
<text text-anchor="middle" x="440.5" y="-182.8" font-family="sans-serif" font-size="9.00">Hallway</text>
</g>
<!-- v1&#45;&gt;v3 -->
<g id="edge6" class="edge"><title>v1&#45;&gt;v3</title>
<path fill="none" stroke="black" d="M509.688,-233.25C495.771,-223.746 473.457,-208.507 457.947,-197.915"/>
<polygon fill="black" stroke="black" points="453.766,-195.06 459.164,-196.021 455.83,-196.47 457.895,-197.879 457.895,-197.879 457.895,-197.879 455.83,-196.47 456.626,-199.738 453.766,-195.06 453.766,-195.06"/>
</g>
<!-- v12 -->
<g id="v12_Room" class="node"><title>v12</title>
<ellipse fill="none" stroke="black" cx="174.5" cy="-127" rx="21.5" ry="11"/>
<text text-anchor="middle" x="174.5" y="-124.8" font-family="sans-serif" font-size="9.00">Room</text>
</g>
<!-- v1&#45;&gt;v12 -->
<g id="edge7" class="edge"><title>v1&#45;&gt;v12</title>
<path fill="none" stroke="black" d="M503.543,-235.79C444.083,-216.312 261.402,-156.468 197.144,-135.418"/>
<polygon fill="black" stroke="black" points="192.01,-133.736 197.462,-133.155 194.386,-134.514 196.762,-135.293 196.762,-135.293 196.762,-135.293 194.386,-134.514 196.061,-137.431 192.01,-133.736 192.01,-133.736"/>
</g>
<!-- v18 -->
<g id="v18_Room" class="node"><title>v18</title>
<ellipse fill="none" stroke="black" cx="522.5" cy="-69" rx="21.5" ry="11"/>
<text text-anchor="middle" x="522.5" y="-66.8" font-family="sans-serif" font-size="9.00">Room</text>
</g>
<!-- v1&#45;&gt;v18 -->
<g id="edge8" class="edge"><title>v1&#45;&gt;v18</title>
<path fill="none" stroke="black" d="M522.5,-231.756C522.5,-202.786 522.5,-120.136 522.5,-85.5335"/>
<polygon fill="black" stroke="black" points="522.5,-80.4081 524.75,-85.408 522.5,-82.9081 522.5,-85.4081 522.5,-85.4081 522.5,-85.4081 522.5,-82.9081 520.25,-85.4081 522.5,-80.4081 522.5,-80.4081"/>
</g>
<!-- v2&#45;&gt;v3 -->
<g id="edge22" class="edge"><title>v2&#45;&gt;v3</title>
<path fill="none" stroke="green" d="M571.524,-75.2555C565.508,-76.908 558.744,-78.6514 552.5,-80 503.863,-90.505 363.732,-78.0924 331.5,-116 304.699,-147.52 373.97,-169.065 414.156,-178.541"/>
</g>
<!-- v7 -->
<g id="v7_SmartLight" class="node"><title>v7</title>
<ellipse fill="none" stroke="black" cx="640.5" cy="-11" rx="43" ry="11"/>
<text text-anchor="middle" x="640.5" y="-8.8" font-family="sans-serif" font-size="9.00">SmartLight</text>
</g>
<!-- v2&#45;&gt;v7 -->
<g id="edge9" class="edge"><title>v2&#45;&gt;v7</title>
<path fill="none" stroke="black" d="M597.922,-58.7527C606.114,-49.7573 618.658,-35.9828 628.012,-25.7121"/>
<polygon fill="black" stroke="black" points="631.551,-21.8266 629.848,-27.0383 629.867,-23.6749 628.184,-25.5233 628.184,-25.5233 628.184,-25.5233 629.867,-23.6749 626.521,-24.0083 631.551,-21.8266 631.551,-21.8266"/>
</g>
<!-- v4 -->
<g id="v4_Visitor" class="node"><title>v4</title>
<ellipse fill="none" stroke="black" cx="419.5" cy="-127" rx="32.5" ry="11"/>
<text text-anchor="middle" x="419.5" y="-124.8" font-family="sans-serif" font-size="9.00">Visitor</text>
</g>
<!-- v3&#45;&gt;v4 -->
<g id="edge10" class="edge"><title>v3&#45;&gt;v4</title>
<path fill="none" stroke="black" d="M436.746,-173.988C433.531,-165.415 428.853,-152.941 425.18,-143.147"/>
<polygon fill="black" stroke="black" points="423.364,-138.304 427.226,-142.195 424.242,-140.645 425.12,-142.986 425.12,-142.986 425.12,-142.986 424.242,-140.645 423.013,-143.776 423.364,-138.304 423.364,-138.304"/>
</g>
<!-- v3&#45;&gt;v12 -->
<g id="edge23" class="edge"><title>v3&#45;&gt;v12</title>
<path fill="none" stroke="green" d="M414.022,-178.426C360.539,-167.166 240.731,-141.943 193.841,-132.072"/>
</g>
<!-- v3&#45;&gt;v18 -->
<g id="edge24" class="edge"><title>v3&#45;&gt;v18</title>
<path fill="none" stroke="green" d="M447.777,-173.883C463.455,-152.086 500.244,-100.942 515.588,-79.6091"/>
</g>
<!-- v4&#45;&gt;v5 -->
<g id="edge11" class="edge"><title>v4&#45;&gt;v5</title>
<path fill="none" stroke="black" d="M406.62,-116.753C393.444,-107.293 372.907,-92.549 358.426,-82.1517"/>
<polygon fill="black" stroke="black" points="354.14,-79.0752 359.514,-80.1635 356.171,-80.5332 358.202,-81.9913 358.202,-81.9913 358.202,-81.9913 356.171,-80.5332 356.89,-83.819 354.14,-79.0752 354.14,-79.0752"/>
</g>
<!-- v8 -->
<g id="v8_Software" class="node"><title>v8</title>
<ellipse fill="none" stroke="black" cx="327.5" cy="-11" rx="36" ry="11"/>
<text text-anchor="middle" x="327.5" y="-8.8" font-family="sans-serif" font-size="9.00">Software</text>
</g>
<!-- v5&#45;&gt;v8 -->
<g id="edge12" class="edge"><title>v5&#45;&gt;v8</title>
<path fill="none" stroke="black" d="M338.997,-57.9883C336.874,-49.4941 333.792,-37.1697 331.354,-27.4169"/>
<polygon fill="black" stroke="black" points="330.076,-22.3039 333.472,-26.6089 330.682,-24.7292 331.289,-27.1546 331.289,-27.1546 331.289,-27.1546 330.682,-24.7292 329.106,-27.7003 330.076,-22.3039 330.076,-22.3039"/>
</g>
<!-- v9 -->
<g id="v9_ConnectDevice" class="node"><title>v9</title>
<ellipse fill="none" stroke="black" cx="843.5" cy="-11" rx="54" ry="11"/>
<text text-anchor="middle" x="843.5" y="-8.8" font-family="sans-serif" font-size="9.00">ConnectDevice</text>
</g>
<!-- v6&#45;&gt;v9 -->
<g id="edge13" class="edge"><title>v6&#45;&gt;v9</title>
<path fill="none" stroke="black" d="M854.176,-57.9883C852.204,-49.4941 849.343,-37.1697 847.079,-27.4169"/>
<polygon fill="black" stroke="black" points="845.892,-22.3039 849.214,-26.6655 846.457,-24.7391 847.023,-27.1744 847.023,-27.1744 847.023,-27.1744 846.457,-24.7391 844.831,-27.6832 845.892,-22.3039 845.892,-22.3039"/>
</g>
<!-- v10 -->
<g id="v10_CollectData" class="node"><title>v10</title>
<ellipse fill="none" stroke="black" cx="962.5" cy="-11" rx="47" ry="11"/>
<text text-anchor="middle" x="962.5" y="-8.8" font-family="sans-serif" font-size="9.00">CollectData</text>
</g>
<!-- v6&#45;&gt;v10 -->
<g id="edge14" class="edge"><title>v6&#45;&gt;v10</title>
<path fill="none" stroke="black" d="M874.481,-58.5004C892.56,-48.9496 920.477,-34.201 940.01,-23.8816"/>
<polygon fill="black" stroke="black" points="944.784,-21.3593 941.414,-25.6844 942.574,-22.5272 940.363,-23.695 940.363,-23.695 940.363,-23.695 942.574,-22.5272 939.312,-21.7056 944.784,-21.3593 944.784,-21.3593"/>
</g>
<!-- v7&#45;&gt;v11 -->
<g id="edge26" class="edge"><title>v7&#45;&gt;v11</title>
<path fill="none" stroke="green" d="M651.311,-21.925C662.38,-32.0867 679.491,-47.7952 690.594,-57.9883"/>
</g>
<!-- v13 -->
<g id="v13_HVAC" class="node"><title>v13</title>
<ellipse fill="none" stroke="black" cx="145.5" cy="-69" rx="21.5" ry="11"/>
<text text-anchor="middle" x="145.5" y="-66.8" font-family="sans-serif" font-size="9.00">HVAC</text>
</g>
<!-- v11&#45;&gt;v13 -->
<g id="edge27" class="edge"><title>v11&#45;&gt;v13</title>
<path fill="none" stroke="green" d="M676.894,-79.124C658.862,-85.9753 633.602,-94.4079 610.5,-98 479.628,-118.349 444.455,-109.372 312.5,-98 258.701,-93.3635 196.224,-80.4737 165.151,-73.5447"/>
</g>
<!-- v15 -->
<g id="v15_Data" class="node"><title>v15</title>
<ellipse fill="none" stroke="black" cx="723.5" cy="-11" rx="21.5" ry="11"/>
<text text-anchor="middle" x="723.5" y="-8.8" font-family="sans-serif" font-size="9.00">Data</text>
</g>
<!-- v11&#45;&gt;v15 -->
<g id="edge15" class="edge"><title>v11&#45;&gt;v15</title>
<path fill="none" stroke="black" d="M705.433,-57.9883C708.843,-49.3083 713.824,-36.6286 717.693,-26.7806"/>
<polygon fill="black" stroke="black" points="719.601,-21.925 719.867,-27.4015 718.687,-24.2519 717.773,-26.5788 717.773,-26.5788 717.773,-26.5788 718.687,-24.2519 715.678,-25.756 719.601,-21.925 719.601,-21.925"/>
</g>
<!-- v16 -->
<g id="v16_SmartLight" class="node"><title>v16</title>
<ellipse fill="none" stroke="black" cx="230.5" cy="-11" rx="43" ry="11"/>
<text text-anchor="middle" x="230.5" y="-8.8" font-family="sans-serif" font-size="9.00">SmartLight</text>
</g>
<!-- v11&#45;&gt;v16 -->
<g id="edge28" class="edge"><title>v11&#45;&gt;v16</title>
<path fill="none" stroke="green" d="M653.818,-62.0631C642.568,-60.6962 630.614,-59.2712 619.5,-58 469.846,-40.8823 431.479,-44.2425 282.5,-22 275.863,-21.009 268.782,-19.7701 262.051,-18.5052"/>
</g>
<!-- v17 -->
<g id="v17_FireAlarm" class="node"><title>v17</title>
<ellipse fill="none" stroke="black" cx="39.5" cy="-11" rx="39.5" ry="11"/>
<text text-anchor="middle" x="39.5" y="-8.8" font-family="sans-serif" font-size="9.00">FireAlarm</text>
</g>
<!-- v11&#45;&gt;v17 -->
<g id="edge29" class="edge"><title>v11&#45;&gt;v17</title>
<path fill="none" stroke="green" d="M654.715,-61.8548C643.213,-60.4655 630.922,-59.0829 619.5,-58 384.014,-35.6748 322.905,-53.7202 88.5,-22 81.9611,-21.1151 74.986,-19.8743 68.4101,-18.5669"/>
</g>
<!-- v19 -->
<g id="v19_SmartLight" class="node"><title>v19</title>
<ellipse fill="none" stroke="black" cx="536.5" cy="-11" rx="43" ry="11"/>
<text text-anchor="middle" x="536.5" y="-8.8" font-family="sans-serif" font-size="9.00">SmartLight</text>
</g>
<!-- v11&#45;&gt;v19 -->
<g id="edge30" class="edge"><title>v11&#45;&gt;v19</title>
<path fill="none" stroke="green" d="M674.99,-59.0026C643.379,-48.2742 591.004,-30.4984 560.53,-20.1555"/>
</g>
<!-- v20 -->
<g id="v20_Workstation" class="node"><title>v20</title>
<ellipse fill="none" stroke="black" cx="428.5" cy="-11" rx="47" ry="11"/>
<text text-anchor="middle" x="428.5" y="-8.8" font-family="sans-serif" font-size="9.00">Workstation</text>
</g>
<!-- v11&#45;&gt;v20 -->
<g id="edge31" class="edge"><title>v11&#45;&gt;v20</title>
<path fill="none" stroke="green" d="M663.827,-60.2722C610.292,-49.2906 513.043,-29.3421 461.934,-18.8582"/>
</g>
<!-- v12&#45;&gt;v13 -->
<g id="edge16" class="edge"><title>v12&#45;&gt;v13</title>
<path fill="none" stroke="black" d="M169.449,-116.246C164.93,-107.52 158.244,-94.6082 153.083,-84.6435"/>
<polygon fill="black" stroke="black" points="150.689,-80.0198 154.986,-83.425 151.838,-82.2397 152.988,-84.4597 152.988,-84.4597 152.988,-84.4597 151.838,-82.2397 150.99,-85.4944 150.689,-80.0198 150.689,-80.0198"/>
</g>
<!-- v12&#45;&gt;v16 -->
<g id="edge17" class="edge"><title>v12&#45;&gt;v16</title>
<path fill="none" stroke="black" d="M179.47,-115.883C189.416,-95.6355 211.802,-50.0637 223.334,-26.5882"/>
<polygon fill="black" stroke="black" points="225.621,-21.9313 225.436,-27.4111 224.519,-24.1752 223.417,-26.4191 223.417,-26.4191 223.417,-26.4191 224.519,-24.1752 221.397,-25.427 225.621,-21.9313 225.621,-21.9313"/>
</g>
<!-- v12&#45;&gt;v17 -->
<g id="edge18" class="edge"><title>v12&#45;&gt;v17</title>
<path fill="none" stroke="black" d="M162.776,-117.458C150.518,-108.424 130.828,-93.6216 114.5,-80 92.7882,-61.8867 68.7464,-39.6851 53.8772,-25.6865"/>
<polygon fill="black" stroke="black" points="49.9361,-21.966 55.1165,-23.7622 51.754,-23.6821 53.5719,-25.3983 53.5719,-25.3983 53.5719,-25.3983 51.754,-23.6821 52.0274,-27.0345 49.9361,-21.966 49.9361,-21.966"/>
</g>
<!-- v14 -->
<g id="v14_Software" class="node"><title>v14</title>
<ellipse fill="none" stroke="black" cx="133.5" cy="-11" rx="36" ry="11"/>
<text text-anchor="middle" x="133.5" y="-8.8" font-family="sans-serif" font-size="9.00">Software</text>
</g>
<!-- v13&#45;&gt;v14 -->
<g id="edge19" class="edge"><title>v13&#45;&gt;v14</title>
<path fill="none" stroke="black" d="M143.355,-57.9883C141.534,-49.4941 138.893,-37.1697 136.804,-27.4169"/>
<polygon fill="black" stroke="black" points="135.708,-22.3039 138.956,-26.7214 136.232,-24.7484 136.756,-27.1929 136.756,-27.1929 136.756,-27.1929 136.232,-24.7484 134.556,-27.6644 135.708,-22.3039 135.708,-22.3039"/>
</g>
<!-- v18&#45;&gt;v19 -->
<g id="edge20" class="edge"><title>v18&#45;&gt;v19</title>
<path fill="none" stroke="black" d="M525.003,-57.9883C527.126,-49.4941 530.208,-37.1697 532.646,-27.4169"/>
<polygon fill="black" stroke="black" points="533.924,-22.3039 534.894,-27.7003 533.318,-24.7292 532.711,-27.1546 532.711,-27.1546 532.711,-27.1546 533.318,-24.7292 530.528,-26.6089 533.924,-22.3039 533.924,-22.3039"/>
</g>
<!-- v18&#45;&gt;v20 -->
<g id="edge21" class="edge"><title>v18&#45;&gt;v20</title>
<path fill="none" stroke="black" d="M509.43,-60.2134C493.711,-50.849 467.15,-35.0258 448.766,-24.0734"/>
<polygon fill="black" stroke="black" points="444.28,-21.4008 449.727,-22.0268 446.428,-22.6803 448.575,-23.9598 448.575,-23.9598 448.575,-23.9598 446.428,-22.6803 447.424,-25.8928 444.28,-21.4008 444.28,-21.4008"/>
</g>
</g>
</svg>
