<?xml version="1.0" encoding="UTF-8" standalone="no"?>
<?xml-stylesheet href="style.css" type="text/css"?>
<!DOCTYPE svg PUBLIC "-//W3C//DTD SVG 1.1//EN"
 "http://www.w3.org/Graphics/SVG/1.1/DTD/svg11.dtd">
<!-- Generated by graphviz version 2.38.0 (20140413.2041)
 -->
<!-- Title: 0.svg Pages: 1 -->
<svg width="384pt" height="295pt"
 viewBox="0.00 0.00 383.50 295.00" xmlns="http://www.w3.org/2000/svg" xmlns:xlink="http://www.w3.org/1999/xlink">
<g id="graph0" class="graph" transform="scale(1 1) rotate(0) translate(4 291)">
<title>0.svg</title>
<polygon fill="white" stroke="none" points="-4,4 -4,-291 379.5,-291 379.5,4 -4,4"/>
<!-- r0 -->
<g id="node1" class="node"><title>r0</title>
<polygon fill="none" stroke="black" stroke-dasharray="5,2" points="164,-287 141,-287 141,-269 164,-269 164,-287"/>
<text text-anchor="middle" x="152.5" y="-275.8" font-family="serif" font-size="9.00">0</text>
</g>
<!-- v0 -->
<g id="v0_A" class="node"><title>v0</title>
<ellipse fill="none" stroke="black" cx="152.5" cy="-185" rx="11" ry="11"/>
<text text-anchor="middle" x="152.5" y="-182.8" font-family="sans-serif" font-size="9.00">A</text>
</g>
<!-- r0&#45;&gt;v0 -->
<g id="edge1" class="edge"><title>r0&#45;&gt;v0</title>
<path fill="none" stroke="black" d="M152.5,-268.924C152.5,-253.736 152.5,-220.696 152.5,-201.218"/>
<polygon fill="black" stroke="black" points="152.5,-196.11 154.75,-201.11 152.5,-198.61 152.5,-201.11 152.5,-201.11 152.5,-201.11 152.5,-198.61 150.25,-201.11 152.5,-196.11 152.5,-196.11"/>
</g>
<!-- v5 -->
<g id="v5_A" class="node"><title>v5</title>
<ellipse fill="none" stroke="black" cx="298.5" cy="-127" rx="11" ry="11"/>
<text text-anchor="middle" x="298.5" y="-124.8" font-family="sans-serif" font-size="9.00">A</text>
</g>
<!-- r0&#45;&gt;v5 -->
<g id="edge2" class="edge"><title>r0&#45;&gt;v5</title>
<path fill="none" stroke="black" d="M163.349,-268.706C174.714,-259.963 193.03,-245.723 208.5,-233 227.973,-216.985 234.639,-214.745 251.5,-196 267.193,-178.553 282.014,-155.651 290.674,-141.381"/>
<polygon fill="black" stroke="black" points="293.367,-136.893 292.724,-142.338 292.081,-139.037 290.795,-141.18 290.795,-141.18 290.795,-141.18 292.081,-139.037 288.865,-140.023 293.367,-136.893 293.367,-136.893"/>
</g>
<!-- v8 -->
<g id="v8_Mail" class="node"><title>v8</title>
<ellipse fill="none" stroke="black" cx="50.5" cy="-11" rx="21.5" ry="11"/>
<text text-anchor="middle" x="50.5" y="-8.8" font-family="sans-serif" font-size="9.00">Mail</text>
</g>
<!-- r0&#45;&gt;v8 -->
<g id="edge3" class="edge"><title>r0&#45;&gt;v8</title>
<path fill="none" stroke="black" d="M140.755,-272.702C114.531,-262.262 53.5,-232.924 53.5,-186 53.5,-186 53.5,-186 53.5,-126 53.5,-90.5916 52.0358,-49.0183 51.1533,-27.175"/>
<polygon fill="black" stroke="black" points="50.9427,-22.0625 53.3966,-26.9656 51.0456,-24.5603 51.1486,-27.0582 51.1486,-27.0582 51.1486,-27.0582 51.0456,-24.5603 48.9005,-27.1509 50.9427,-22.0625 50.9427,-22.0625"/>
</g>
<!-- oa -->
<g id="node2" class="node"><title>oa</title>
<text text-anchor="middle" x="199.5" y="-275.8" font-family="serif" font-size="9.00">a</text>
</g>
<!-- e0 -->
<g id="node6" class="node"><title>e0</title>
</g>
<!-- oa&#45;&gt;e0 -->
<g id="edge10" class="edge"><title>oa&#45;&gt;e0</title>
<path fill="none" stroke="green" d="M199.5,-268.93C199.5,-256.227 199.5,-233 199.5,-233"/>
</g>
<!-- ob -->
<g id="node3" class="node"><title>ob</title>
<text text-anchor="middle" x="313.5" y="-275.8" font-family="serif" font-size="9.00">b</text>
</g>
<!-- ov_a -->
<g id="node4" class="node"><title>ov_a</title>
<text text-anchor="middle" x="15.5" y="-275.8" font-family="serif" font-size="9.00">v_a</text>
</g>
<!-- ov_b -->
<g id="node5" class="node"><title>ov_b</title>
<text text-anchor="middle" x="359.5" y="-275.8" font-family="serif" font-size="9.00">v_b</text>
</g>
<!-- e0&#45;&gt;v0 -->
<g id="edge11" class="edge"><title>e0&#45;&gt;v0</title>
<path fill="none" stroke="green" d="M199.5,-232C199.5,-232 173.61,-206.661 160.261,-193.596"/>
</g>
<!-- v2 -->
<g id="v2_M" class="node"><title>v2</title>
<ellipse fill="none" stroke="black" cx="101.5" cy="-11" rx="11" ry="11"/>
<text text-anchor="middle" x="101.5" y="-8.8" font-family="sans-serif" font-size="9.00">M</text>
</g>
<!-- e0&#45;&gt;v2 -->
<g id="edge12" class="edge"><title>e0&#45;&gt;v2</title>
<path fill="none" stroke="green" d="M199.5,-232C199.5,-232 222.881,-123.235 180.5,-58 176.198,-51.3788 130.848,-27.2554 110.866,-16.8412"/>
</g>
<!-- v7 -->
<g id="v7_M" class="node"><title>v7</title>
<ellipse fill="none" stroke="black" cx="298.5" cy="-11" rx="11" ry="11"/>
<text text-anchor="middle" x="298.5" y="-8.8" font-family="sans-serif" font-size="9.00">M</text>
</g>
<!-- e0&#45;&gt;v7 -->
<g id="edge13" class="edge"><title>e0&#45;&gt;v7</title>
<path fill="none" stroke="green" d="M199.5,-232C199.5,-232 211.808,-212.609 219.5,-196 247.045,-136.526 243.253,-117.144 271.5,-58 277.965,-44.4632 287.06,-29.6381 292.867,-20.5761"/>
</g>
<!-- v1 -->
<g id="v1_Snd" class="node"><title>v1</title>
<ellipse fill="none" stroke="black" cx="146.5" cy="-127" rx="18" ry="11"/>
<text text-anchor="middle" x="146.5" y="-124.8" font-family="sans-serif" font-size="9.00">Snd</text>
</g>
<!-- v0&#45;&gt;v1 -->
<g id="edge4" class="edge"><title>v0&#45;&gt;v1</title>
<path fill="none" stroke="black" d="M151.427,-173.988C150.517,-165.494 149.197,-153.17 148.152,-143.417"/>
<polygon fill="black" stroke="black" points="147.604,-138.304 150.374,-143.036 147.87,-140.79 148.137,-143.275 148.137,-143.275 148.137,-143.275 147.87,-140.79 145.9,-143.515 147.604,-138.304 147.604,-138.304"/>
</g>
<!-- v1&#45;&gt;v2 -->
<g id="edge5" class="edge"><title>v1&#45;&gt;v2</title>
<path fill="none" stroke="black" d="M137.741,-116.963C129.821,-108.237 118.511,-94.2785 112.5,-80 105.291,-62.8742 102.781,-41.4878 101.921,-27.3212"/>
<polygon fill="black" stroke="black" points="101.659,-22.0881 104.156,-26.9693 101.784,-24.585 101.909,-27.0819 101.909,-27.0819 101.909,-27.0819 101.784,-24.585 99.6619,-27.1945 101.659,-22.0881 101.659,-22.0881"/>
</g>
<!-- v3 -->
<g id="v3_Ready" class="node"><title>v3</title>
<ellipse fill="none" stroke="black" cx="146.5" cy="-69" rx="25" ry="11"/>
<text text-anchor="middle" x="146.5" y="-66.8" font-family="sans-serif" font-size="9.00">Ready</text>
</g>
<!-- v1&#45;&gt;v3 -->
<g id="edge6" class="edge"><title>v1&#45;&gt;v3</title>
<path fill="none" stroke="black" d="M146.5,-115.988C146.5,-107.494 146.5,-95.1697 146.5,-85.4169"/>
<polygon fill="black" stroke="black" points="146.5,-80.3039 148.75,-85.3038 146.5,-82.8039 146.5,-85.3039 146.5,-85.3039 146.5,-85.3039 146.5,-82.8039 144.25,-85.3039 146.5,-80.3039 146.5,-80.3039"/>
</g>
<!-- v2&#45;&gt;ov_a -->
<g id="edge15" class="edge"><title>v2&#45;&gt;ov_a</title>
<path fill="none" stroke="green" d="M92.6204,-17.7194C70.6476,-32.6476 15.5,-75.1769 15.5,-126 15.5,-186 15.5,-186 15.5,-186 15.5,-216.649 15.5,-253.105 15.5,-268.966"/>
</g>
<!-- v4 -->
<g id="v4_Fun" class="node"><title>v4</title>
<ellipse fill="none" stroke="black" cx="148.5" cy="-11" rx="18" ry="11"/>
<text text-anchor="middle" x="148.5" y="-8.8" font-family="sans-serif" font-size="9.00">Fun</text>
</g>
<!-- v3&#45;&gt;v4 -->
<g id="edge7" class="edge"><title>v3&#45;&gt;v4</title>
<path fill="none" stroke="black" d="M146.858,-57.9883C147.161,-49.4941 147.601,-37.1697 147.949,-27.4169"/>
<polygon fill="black" stroke="black" points="148.132,-22.3039 150.202,-27.381 148.043,-24.8023 147.953,-27.3007 147.953,-27.3007 147.953,-27.3007 148.043,-24.8023 145.705,-27.2203 148.132,-22.3039 148.132,-22.3039"/>
</g>
<!-- v5&#45;&gt;ob -->
<g id="edge14" class="edge"><title>v5&#45;&gt;ob</title>
<path fill="none" stroke="green" d="M299.502,-137.957C302.299,-165.74 310.15,-243.722 312.694,-268.989"/>
</g>
<!-- v6 -->
<g id="v6_Snd" class="node"><title>v6</title>
<ellipse fill="none" stroke="black" cx="298.5" cy="-69" rx="18" ry="11"/>
<text text-anchor="middle" x="298.5" y="-66.8" font-family="sans-serif" font-size="9.00">Snd</text>
</g>
<!-- v5&#45;&gt;v6 -->
<g id="edge8" class="edge"><title>v5&#45;&gt;v6</title>
<path fill="none" stroke="black" d="M298.5,-115.988C298.5,-107.494 298.5,-95.1697 298.5,-85.4169"/>
<polygon fill="black" stroke="black" points="298.5,-80.3039 300.75,-85.3038 298.5,-82.8039 298.5,-85.3039 298.5,-85.3039 298.5,-85.3039 298.5,-82.8039 296.25,-85.3039 298.5,-80.3039 298.5,-80.3039"/>
</g>
<!-- v6&#45;&gt;v7 -->
<g id="edge9" class="edge"><title>v6&#45;&gt;v7</title>
<path fill="none" stroke="black" d="M298.5,-57.9883C298.5,-49.4941 298.5,-37.1697 298.5,-27.4169"/>
<polygon fill="black" stroke="black" points="298.5,-22.3039 300.75,-27.3038 298.5,-24.8039 298.5,-27.3039 298.5,-27.3039 298.5,-27.3039 298.5,-24.8039 296.25,-27.3039 298.5,-22.3039 298.5,-22.3039"/>
</g>
<!-- v7&#45;&gt;ov_b -->
<g id="edge16" class="edge"><title>v7&#45;&gt;ov_b</title>
<path fill="none" stroke="green" d="M305.98,-19.5339C322.269,-36.7789 359.5,-81.1062 359.5,-126 359.5,-186 359.5,-186 359.5,-186 359.5,-216.649 359.5,-253.105 359.5,-268.966"/>
</g>
</g>
</svg>
