<?xml version="1.0" encoding="UTF-8" standalone="no"?>
<?xml-stylesheet href="style.css" type="text/css"?>
<!DOCTYPE svg PUBLIC "-//W3C//DTD SVG 1.1//EN"
 "http://www.w3.org/Graphics/SVG/1.1/DTD/svg11.dtd">
<!-- Generated by graphviz version 2.38.0 (20140413.2041)
 -->
<!-- Title: 1.svg Pages: 1 -->
<svg width="338pt" height="237pt"
 viewBox="0.00 0.00 337.50 237.00" xmlns="http://www.w3.org/2000/svg" xmlns:xlink="http://www.w3.org/1999/xlink">
<g id="graph0" class="graph" transform="scale(1 1) rotate(0) translate(4 233)">
<title>1.svg</title>
<polygon fill="white" stroke="none" points="-4,4 -4,-233 333.5,-233 333.5,4 -4,4"/>
<!-- r0 -->
<g id="node1" class="node"><title>r0</title>
<polygon fill="none" stroke="black" stroke-dasharray="5,2" points="148,-229 125,-229 125,-211 148,-211 148,-229"/>
<text text-anchor="middle" x="136.5" y="-217.8" font-family="serif" font-size="9.00">0</text>
</g>
<!-- v0 -->
<g id="v0_A" class="node"><title>v0</title>
<ellipse fill="none" stroke="black" cx="136.5" cy="-127" rx="11" ry="11"/>
<text text-anchor="middle" x="136.5" y="-124.8" font-family="sans-serif" font-size="9.00">A</text>
</g>
<!-- r0&#45;&gt;v0 -->
<g id="edge1" class="edge"><title>r0&#45;&gt;v0</title>
<path fill="none" stroke="black" d="M136.5,-210.924C136.5,-195.736 136.5,-162.696 136.5,-143.218"/>
<polygon fill="black" stroke="black" points="136.5,-138.11 138.75,-143.11 136.5,-140.61 136.5,-143.11 136.5,-143.11 136.5,-143.11 136.5,-140.61 134.25,-143.11 136.5,-138.11 136.5,-138.11"/>
</g>
<!-- v1 -->
<g id="v1_Mail" class="node"><title>v1</title>
<ellipse fill="none" stroke="black" cx="65.5" cy="-69" rx="21.5" ry="11"/>
<text text-anchor="middle" x="65.5" y="-66.8" font-family="sans-serif" font-size="9.00">Mail</text>
</g>
<!-- r0&#45;&gt;v1 -->
<g id="edge2" class="edge"><title>r0&#45;&gt;v1</title>
<path fill="none" stroke="black" d="M132.683,-210.989C121.254,-187.005 87.1925,-115.524 72.44,-84.5643"/>
<polygon fill="black" stroke="black" points="70.2445,-79.9569 74.4266,-83.5027 71.32,-82.2137 72.3954,-84.4706 72.3954,-84.4706 72.3954,-84.4706 71.32,-82.2137 70.3643,-85.4385 70.2445,-79.9569 70.2445,-79.9569"/>
</g>
<!-- v5 -->
<g id="v5_A" class="node"><title>v5</title>
<ellipse fill="none" stroke="black" cx="263.5" cy="-127" rx="11" ry="11"/>
<text text-anchor="middle" x="263.5" y="-124.8" font-family="sans-serif" font-size="9.00">A</text>
</g>
<!-- r0&#45;&gt;v5 -->
<g id="edge3" class="edge"><title>r0&#45;&gt;v5</title>
<path fill="none" stroke="black" d="M147.77,-210.924C171.316,-194.053 225.601,-155.156 250.541,-137.285"/>
<polygon fill="black" stroke="black" points="254.843,-134.203 252.089,-138.945 252.81,-135.659 250.778,-137.116 250.778,-137.116 250.778,-137.116 252.81,-135.659 249.468,-135.287 254.843,-134.203 254.843,-134.203"/>
</g>
<!-- oa -->
<g id="node2" class="node"><title>oa</title>
<text text-anchor="middle" x="183.5" y="-217.8" font-family="serif" font-size="9.00">a</text>
</g>
<!-- e0 -->
<g id="node6" class="node"><title>e0</title>
</g>
<!-- oa&#45;&gt;e0 -->
<g id="edge9" class="edge"><title>oa&#45;&gt;e0</title>
<path fill="none" stroke="green" d="M183.5,-210.93C183.5,-198.227 183.5,-175 183.5,-175"/>
</g>
<!-- ob -->
<g id="node3" class="node"><title>ob</title>
<text text-anchor="middle" x="263.5" y="-217.8" font-family="serif" font-size="9.00">b</text>
</g>
<!-- ov_a -->
<g id="node4" class="node"><title>ov_a</title>
<text text-anchor="middle" x="15.5" y="-217.8" font-family="serif" font-size="9.00">v_a</text>
</g>
<!-- ov_b -->
<g id="node5" class="node"><title>ov_b</title>
<text text-anchor="middle" x="313.5" y="-217.8" font-family="serif" font-size="9.00">v_b</text>
</g>
<!-- e0&#45;&gt;v0 -->
<g id="edge10" class="edge"><title>e0&#45;&gt;v0</title>
<path fill="none" stroke="green" d="M183.5,-174C183.5,-174 157.61,-148.661 144.261,-135.596"/>
</g>
<!-- v2 -->
<g id="v2_M" class="node"><title>v2</title>
<ellipse fill="none" stroke="black" cx="65.5" cy="-11" rx="11" ry="11"/>
<text text-anchor="middle" x="65.5" y="-8.8" font-family="sans-serif" font-size="9.00">M</text>
</g>
<!-- e0&#45;&gt;v2 -->
<g id="edge11" class="edge"><title>e0&#45;&gt;v2</title>
<path fill="none" stroke="green" d="M183.5,-174C183.5,-174 196.079,-99.6182 164.5,-58 152.987,-42.8265 98.5224,-23.1225 75.6511,-15.3563"/>
</g>
<!-- v7 -->
<g id="v7_M" class="node"><title>v7</title>
<ellipse fill="none" stroke="black" cx="267.5" cy="-11" rx="11" ry="11"/>
<text text-anchor="middle" x="267.5" y="-8.8" font-family="sans-serif" font-size="9.00">M</text>
</g>
<!-- e0&#45;&gt;v7 -->
<g id="edge12" class="edge"><title>e0&#45;&gt;v7</title>
<path fill="none" stroke="green" d="M183.5,-174C183.5,-174 213.276,-108.583 240.5,-58 247.61,-44.7903 256.533,-29.8783 262.128,-20.7084"/>
</g>
<!-- v3 -->
<g id="v3_Ready" class="node"><title>v3</title>
<ellipse fill="none" stroke="black" cx="130.5" cy="-69" rx="25" ry="11"/>
<text text-anchor="middle" x="130.5" y="-66.8" font-family="sans-serif" font-size="9.00">Ready</text>
</g>
<!-- v0&#45;&gt;v3 -->
<g id="edge4" class="edge"><title>v0&#45;&gt;v3</title>
<path fill="none" stroke="black" d="M135.427,-115.988C134.517,-107.494 133.197,-95.1697 132.152,-85.4169"/>
<polygon fill="black" stroke="black" points="131.604,-80.3039 134.374,-85.0357 131.87,-82.7896 132.137,-85.2754 132.137,-85.2754 132.137,-85.2754 131.87,-82.7896 129.9,-85.5152 131.604,-80.3039 131.604,-80.3039"/>
</g>
<!-- v1&#45;&gt;v2 -->
<g id="edge5" class="edge"><title>v1&#45;&gt;v2</title>
<path fill="none" stroke="black" d="M65.5,-57.9883C65.5,-49.4941 65.5,-37.1697 65.5,-27.4169"/>
<polygon fill="black" stroke="black" points="65.5,-22.3039 67.7501,-27.3038 65.5,-24.8039 65.5001,-27.3039 65.5001,-27.3039 65.5001,-27.3039 65.5,-24.8039 63.2501,-27.3039 65.5,-22.3039 65.5,-22.3039"/>
</g>
<!-- v2&#45;&gt;ov_a -->
<g id="edge14" class="edge"><title>v2&#45;&gt;ov_a</title>
<path fill="none" stroke="green" d="M58.495,-19.8155C51.1707,-28.4786 39.9932,-43.1923 34.5,-58 13.8446,-113.679 14.331,-186.948 15.1402,-210.986"/>
</g>
<!-- v4 -->
<g id="v4_Fun" class="node"><title>v4</title>
<ellipse fill="none" stroke="black" cx="130.5" cy="-11" rx="18" ry="11"/>
<text text-anchor="middle" x="130.5" y="-8.8" font-family="sans-serif" font-size="9.00">Fun</text>
</g>
<!-- v3&#45;&gt;v4 -->
<g id="edge6" class="edge"><title>v3&#45;&gt;v4</title>
<path fill="none" stroke="black" d="M130.5,-57.9883C130.5,-49.4941 130.5,-37.1697 130.5,-27.4169"/>
<polygon fill="black" stroke="black" points="130.5,-22.3039 132.75,-27.3038 130.5,-24.8039 130.5,-27.3039 130.5,-27.3039 130.5,-27.3039 130.5,-24.8039 128.25,-27.3039 130.5,-22.3039 130.5,-22.3039"/>
</g>
<!-- v5&#45;&gt;ob -->
<g id="edge13" class="edge"><title>v5&#45;&gt;ob</title>
<path fill="none" stroke="green" d="M263.5,-138.11C263.5,-156.326 263.5,-194.308 263.5,-210.924"/>
</g>
<!-- v6 -->
<g id="v6_Snd" class="node"><title>v6</title>
<ellipse fill="none" stroke="black" cx="267.5" cy="-69" rx="18" ry="11"/>
<text text-anchor="middle" x="267.5" y="-66.8" font-family="sans-serif" font-size="9.00">Snd</text>
</g>
<!-- v5&#45;&gt;v6 -->
<g id="edge7" class="edge"><title>v5&#45;&gt;v6</title>
<path fill="none" stroke="black" d="M264.215,-115.988C264.822,-107.494 265.702,-95.1697 266.399,-85.4169"/>
<polygon fill="black" stroke="black" points="266.764,-80.3039 268.652,-85.4515 266.586,-82.7975 266.408,-85.2912 266.408,-85.2912 266.408,-85.2912 266.586,-82.7975 264.163,-85.1308 266.764,-80.3039 266.764,-80.3039"/>
</g>
<!-- v6&#45;&gt;v7 -->
<g id="edge8" class="edge"><title>v6&#45;&gt;v7</title>
<path fill="none" stroke="black" d="M267.5,-57.9883C267.5,-49.4941 267.5,-37.1697 267.5,-27.4169"/>
<polygon fill="black" stroke="black" points="267.5,-22.3039 269.75,-27.3038 267.5,-24.8039 267.5,-27.3039 267.5,-27.3039 267.5,-27.3039 267.5,-24.8039 265.25,-27.3039 267.5,-22.3039 267.5,-22.3039"/>
</g>
<!-- v7&#45;&gt;ov_b -->
<g id="edge15" class="edge"><title>v7&#45;&gt;ov_b</title>
<path fill="none" stroke="green" d="M273.815,-20.2996C280.179,-29.1362 289.722,-43.7796 294.5,-58 313.324,-114.028 314.05,-186.474 313.703,-210.7"/>
</g>
</g>
</svg>
