<?xml version="1.0" encoding="UTF-8" standalone="no"?>
<?xml-stylesheet href="style.css" type="text/css"?>
<!DOCTYPE svg PUBLIC "-//W3C//DTD SVG 1.1//EN"
 "http://www.w3.org/Graphics/SVG/1.1/DTD/svg11.dtd">
<!-- Generated by graphviz version 2.38.0 (20140413.2041)
 -->
<!-- Title: 2.svg Pages: 1 -->
<svg width="393pt" height="295pt"
 viewBox="0.00 0.00 393.00 295.00" xmlns="http://www.w3.org/2000/svg" xmlns:xlink="http://www.w3.org/1999/xlink">
<g id="graph0" class="graph" transform="scale(1 1) rotate(0) translate(4 291)">
<title>2.svg</title>
<polygon fill="white" stroke="none" points="-4,4 -4,-291 389,-291 389,4 -4,4"/>
<!-- r0 -->
<g id="node1" class="node"><title>r0</title>
<polygon fill="none" stroke="black" stroke-dasharray="5,2" points="111,-287 88,-287 88,-269 111,-269 111,-287"/>
<text text-anchor="middle" x="99.5" y="-275.8" font-family="serif" font-size="9.00">0</text>
</g>
<!-- v0 -->
<g id="v0_A" class="node"><title>v0</title>
<ellipse fill="none" stroke="black" cx="30.5" cy="-11" rx="11" ry="11"/>
<text text-anchor="middle" x="30.5" y="-8.8" font-family="sans-serif" font-size="9.00">A</text>
</g>
<!-- r0&#45;&gt;v0 -->
<g id="edge1" class="edge"><title>r0&#45;&gt;v0</title>
<path fill="none" stroke="black" d="M91.2435,-268.803C77.0421,-253.787 49.5,-220.25 49.5,-186 49.5,-186 49.5,-186 49.5,-126 49.5,-89.9306 40.1311,-48.3046 34.5512,-26.7115"/>
<polygon fill="black" stroke="black" points="33.2222,-21.6689 36.6723,-25.9304 33.8594,-24.0864 34.4966,-26.5038 34.4966,-26.5038 34.4966,-26.5038 33.8594,-24.0864 32.3208,-27.0773 33.2222,-21.6689 33.2222,-21.6689"/>
</g>
<!-- v1 -->
<g id="v1_Mail" class="node"><title>v1</title>
<ellipse fill="none" stroke="black" cx="99.5" cy="-69" rx="21.5" ry="11"/>
<text text-anchor="middle" x="99.5" y="-66.8" font-family="sans-serif" font-size="9.00">Mail</text>
</g>
<!-- r0&#45;&gt;v1 -->
<g id="edge2" class="edge"><title>r0&#45;&gt;v1</title>
<path fill="none" stroke="black" d="M99.5,-268.885C99.5,-237.838 99.5,-126.278 99.5,-85.2661"/>
<polygon fill="black" stroke="black" points="99.5,-80.1824 101.75,-85.1824 99.5,-82.6824 99.5001,-85.1824 99.5001,-85.1824 99.5001,-85.1824 99.5,-82.6824 97.2501,-85.1825 99.5,-80.1824 99.5,-80.1824"/>
</g>
<!-- v3 -->
<g id="v3_A" class="node"><title>v3</title>
<ellipse fill="none" stroke="black" cx="234.5" cy="-185" rx="11" ry="11"/>
<text text-anchor="middle" x="234.5" y="-182.8" font-family="sans-serif" font-size="9.00">A</text>
</g>
<!-- r0&#45;&gt;v3 -->
<g id="edge3" class="edge"><title>r0&#45;&gt;v3</title>
<path fill="none" stroke="black" d="M111.01,-269.241C135.964,-252.42 194.921,-212.679 221.319,-194.885"/>
<polygon fill="black" stroke="black" points="225.561,-192.026 222.672,-196.686 223.488,-193.423 221.415,-194.821 221.415,-194.821 221.415,-194.821 223.488,-193.423 220.157,-192.955 225.561,-192.026 225.561,-192.026"/>
</g>
<!-- oa -->
<g id="node2" class="node"><title>oa</title>
<text text-anchor="middle" x="234.5" y="-275.8" font-family="serif" font-size="9.00">a</text>
</g>
<!-- e0 -->
<g id="node6" class="node"><title>e0</title>
</g>
<!-- oa&#45;&gt;e0 -->
<g id="edge9" class="edge"><title>oa&#45;&gt;e0</title>
<path fill="none" stroke="green" d="M234.5,-268.93C234.5,-256.227 234.5,-233 234.5,-233"/>
</g>
<!-- ob -->
<g id="node3" class="node"><title>ob</title>
<text text-anchor="middle" x="11.5" y="-275.8" font-family="serif" font-size="9.00">b</text>
</g>
<!-- ov_a -->
<g id="node4" class="node"><title>ov_a</title>
<text text-anchor="middle" x="369.5" y="-275.8" font-family="serif" font-size="9.00">v_a</text>
</g>
<!-- ov_b -->
<g id="node5" class="node"><title>ov_b</title>
<text text-anchor="middle" x="149.5" y="-275.8" font-family="serif" font-size="9.00">v_b</text>
</g>
<!-- v2 -->
<g id="v2_M" class="node"><title>v2</title>
<ellipse fill="none" stroke="black" cx="149.5" cy="-11" rx="11" ry="11"/>
<text text-anchor="middle" x="149.5" y="-8.8" font-family="sans-serif" font-size="9.00">M</text>
</g>
<!-- e0&#45;&gt;v2 -->
<g id="edge10" class="edge"><title>e0&#45;&gt;v2</title>
<path fill="none" stroke="green" d="M234.5,-232C234.5,-232 222.019,-212.688 214.5,-196 199.469,-162.641 163.528,-54.583 152.664,-21.6294"/>
</g>
<!-- e0&#45;&gt;v3 -->
<g id="edge11" class="edge"><title>e0&#45;&gt;v3</title>
<path fill="none" stroke="green" d="M234.5,-232C234.5,-232 234.5,-209.761 234.5,-196.209"/>
</g>
<!-- v5 -->
<g id="v5_M" class="node"><title>v5</title>
<ellipse fill="none" stroke="black" cx="331.5" cy="-11" rx="11" ry="11"/>
<text text-anchor="middle" x="331.5" y="-8.8" font-family="sans-serif" font-size="9.00">M</text>
</g>
<!-- e0&#45;&gt;v5 -->
<g id="edge12" class="edge"><title>e0&#45;&gt;v5</title>
<path fill="none" stroke="green" d="M234.5,-232C234.5,-232 246.51,-212.468 254.5,-196 286.092,-130.885 317.422,-49.4511 327.861,-21.7443"/>
</g>
<!-- v0&#45;&gt;ob -->
<g id="edge13" class="edge"><title>v0&#45;&gt;ob</title>
<path fill="none" stroke="green" d="M27.7778,-21.6689C22.5241,-41.2094 11.5,-86.8739 11.5,-126 11.5,-186 11.5,-186 11.5,-186 11.5,-216.649 11.5,-253.105 11.5,-268.966"/>
</g>
<!-- v1&#45;&gt;v2 -->
<g id="edge4" class="edge"><title>v1&#45;&gt;v2</title>
<path fill="none" stroke="black" d="M107.756,-58.7527C116.376,-49.0991 129.909,-33.9415 139.217,-23.5171"/>
<polygon fill="black" stroke="black" points="142.679,-19.6399 141.027,-24.8682 141.014,-21.5048 139.349,-23.3696 139.349,-23.3696 139.349,-23.3696 141.014,-21.5048 137.67,-21.8711 142.679,-19.6399 142.679,-19.6399"/>
</g>
<!-- v2&#45;&gt;ov_b -->
<g id="edge15" class="edge"><title>v2&#45;&gt;ov_b</title>
<path fill="none" stroke="green" d="M149.5,-22.0648C149.5,-41.9341 149.5,-87.6042 149.5,-126 149.5,-186 149.5,-186 149.5,-186 149.5,-216.649 149.5,-253.105 149.5,-268.966"/>
</g>
<!-- v4 -->
<g id="v4_Snd" class="node"><title>v4</title>
<ellipse fill="none" stroke="black" cx="240.5" cy="-127" rx="18" ry="11"/>
<text text-anchor="middle" x="240.5" y="-124.8" font-family="sans-serif" font-size="9.00">Snd</text>
</g>
<!-- v3&#45;&gt;v4 -->
<g id="edge5" class="edge"><title>v3&#45;&gt;v4</title>
<path fill="none" stroke="black" d="M235.573,-173.988C236.483,-165.494 237.803,-153.17 238.848,-143.417"/>
<polygon fill="black" stroke="black" points="239.396,-138.304 241.1,-143.515 239.13,-140.79 238.863,-143.275 238.863,-143.275 238.863,-143.275 239.13,-140.79 236.626,-143.036 239.396,-138.304 239.396,-138.304"/>
</g>
<!-- v4&#45;&gt;v5 -->
<g id="edge6" class="edge"><title>v4&#45;&gt;v5</title>
<path fill="none" stroke="black" d="M247.947,-116.671C264.331,-96.1459 303.496,-47.0818 321.784,-24.1721"/>
<polygon fill="black" stroke="black" points="324.945,-20.2115 323.584,-25.5229 323.386,-22.1653 321.826,-24.1192 321.826,-24.1192 321.826,-24.1192 323.386,-22.1653 320.067,-22.7155 324.945,-20.2115 324.945,-20.2115"/>
</g>
<!-- v6 -->
<g id="v6_Ready" class="node"><title>v6</title>
<ellipse fill="none" stroke="black" cx="240.5" cy="-69" rx="25" ry="11"/>
<text text-anchor="middle" x="240.5" y="-66.8" font-family="sans-serif" font-size="9.00">Ready</text>
</g>
<!-- v4&#45;&gt;v6 -->
<g id="edge7" class="edge"><title>v4&#45;&gt;v6</title>
<path fill="none" stroke="black" d="M240.5,-115.988C240.5,-107.494 240.5,-95.1697 240.5,-85.4169"/>
<polygon fill="black" stroke="black" points="240.5,-80.3039 242.75,-85.3038 240.5,-82.8039 240.5,-85.3039 240.5,-85.3039 240.5,-85.3039 240.5,-82.8039 238.25,-85.3039 240.5,-80.3039 240.5,-80.3039"/>
</g>
<!-- v5&#45;&gt;ov_a -->
<g id="edge14" class="edge"><title>v5&#45;&gt;ov_a</title>
<path fill="none" stroke="green" d="M336.625,-20.8256C346.997,-39.5478 369.5,-84.9014 369.5,-126 369.5,-186 369.5,-186 369.5,-186 369.5,-216.649 369.5,-253.105 369.5,-268.966"/>
</g>
<!-- v7 -->
<g id="v7_Fun" class="node"><title>v7</title>
<ellipse fill="none" stroke="black" cx="240.5" cy="-11" rx="18" ry="11"/>
<text text-anchor="middle" x="240.5" y="-8.8" font-family="sans-serif" font-size="9.00">Fun</text>
</g>
<!-- v6&#45;&gt;v7 -->
<g id="edge8" class="edge"><title>v6&#45;&gt;v7</title>
<path fill="none" stroke="black" d="M240.5,-57.9883C240.5,-49.4941 240.5,-37.1697 240.5,-27.4169"/>
<polygon fill="black" stroke="black" points="240.5,-22.3039 242.75,-27.3038 240.5,-24.8039 240.5,-27.3039 240.5,-27.3039 240.5,-27.3039 240.5,-24.8039 238.25,-27.3039 240.5,-22.3039 240.5,-22.3039"/>
</g>
</g>
</svg>
