<?xml version="1.0" encoding="UTF-8" standalone="no"?>
<?xml-stylesheet href="style.css" type="text/css"?>
<!DOCTYPE svg PUBLIC "-//W3C//DTD SVG 1.1//EN"
 "http://www.w3.org/Graphics/SVG/1.1/DTD/svg11.dtd">
<!-- Generated by graphviz version 2.38.0 (20140413.2041)
 -->
<!-- Title: 3.svg Pages: 1 -->
<svg width="363pt" height="237pt"
 viewBox="0.00 0.00 363.00 237.00" xmlns="http://www.w3.org/2000/svg" xmlns:xlink="http://www.w3.org/1999/xlink">
<g id="graph0" class="graph" transform="scale(1 1) rotate(0) translate(4 233)">
<title>3.svg</title>
<polygon fill="white" stroke="none" points="-4,4 -4,-233 359,-233 359,4 -4,4"/>
<!-- r0 -->
<g id="node1" class="node"><title>r0</title>
<polygon fill="none" stroke="black" stroke-dasharray="5,2" points="221,-229 198,-229 198,-211 221,-211 221,-229"/>
<text text-anchor="middle" x="209.5" y="-217.8" font-family="serif" font-size="9.00">0</text>
</g>
<!-- v0 -->
<g id="v0_A" class="node"><title>v0</title>
<ellipse fill="none" stroke="black" cx="113.5" cy="-127" rx="11" ry="11"/>
<text text-anchor="middle" x="113.5" y="-124.8" font-family="sans-serif" font-size="9.00">A</text>
</g>
<!-- r0&#45;&gt;v0 -->
<g id="edge1" class="edge"><title>r0&#45;&gt;v0</title>
<path fill="none" stroke="black" d="M200.981,-210.924C183.745,-194.587 144.72,-157.594 125.149,-139.043"/>
<polygon fill="black" stroke="black" points="121.061,-135.167 126.237,-136.974 122.875,-136.887 124.689,-138.607 124.689,-138.607 124.689,-138.607 122.875,-136.887 123.141,-140.239 121.061,-135.167 121.061,-135.167"/>
</g>
<!-- v1 -->
<g id="v1_Mail" class="node"><title>v1</title>
<ellipse fill="none" stroke="black" cx="209.5" cy="-69" rx="21.5" ry="11"/>
<text text-anchor="middle" x="209.5" y="-66.8" font-family="sans-serif" font-size="9.00">Mail</text>
</g>
<!-- r0&#45;&gt;v1 -->
<g id="edge2" class="edge"><title>r0&#45;&gt;v1</title>
<path fill="none" stroke="black" d="M209.5,-210.989C209.5,-187.218 209.5,-116.789 209.5,-85.3986"/>
<polygon fill="black" stroke="black" points="209.5,-80.3591 211.75,-85.359 209.5,-82.8591 209.5,-85.3591 209.5,-85.3591 209.5,-85.3591 209.5,-82.8591 207.25,-85.3591 209.5,-80.3591 209.5,-80.3591"/>
</g>
<!-- v3 -->
<g id="v3_A" class="node"><title>v3</title>
<ellipse fill="none" stroke="black" cx="301.5" cy="-11" rx="11" ry="11"/>
<text text-anchor="middle" x="301.5" y="-8.8" font-family="sans-serif" font-size="9.00">A</text>
</g>
<!-- r0&#45;&gt;v3 -->
<g id="edge3" class="edge"><title>r0&#45;&gt;v3</title>
<path fill="none" stroke="black" d="M213.107,-210.885C227.032,-179.552 277.405,-66.2144 295.211,-26.1503"/>
<polygon fill="black" stroke="black" points="297.406,-21.211 297.432,-26.6939 296.391,-23.4956 295.375,-25.7801 295.375,-25.7801 295.375,-25.7801 296.391,-23.4956 293.319,-24.8663 297.406,-21.211 297.406,-21.211"/>
</g>
<!-- oa -->
<g id="node2" class="node"><title>oa</title>
<text text-anchor="middle" x="113.5" y="-217.8" font-family="serif" font-size="9.00">a</text>
</g>
<!-- e0 -->
<g id="node6" class="node"><title>e0</title>
</g>
<!-- oa&#45;&gt;e0 -->
<g id="edge8" class="edge"><title>oa&#45;&gt;e0</title>
<path fill="none" stroke="green" d="M113.5,-210.93C113.5,-198.227 113.5,-175 113.5,-175"/>
</g>
<!-- ob -->
<g id="node3" class="node"><title>ob</title>
<text text-anchor="middle" x="343.5" y="-217.8" font-family="serif" font-size="9.00">b</text>
</g>
<!-- ov_a -->
<g id="node4" class="node"><title>ov_a</title>
<text text-anchor="middle" x="15.5" y="-217.8" font-family="serif" font-size="9.00">v_a</text>
</g>
<!-- ov_b -->
<g id="node5" class="node"><title>ov_b</title>
<text text-anchor="middle" x="297.5" y="-217.8" font-family="serif" font-size="9.00">v_b</text>
</g>
<!-- e0&#45;&gt;v0 -->
<g id="edge9" class="edge"><title>e0&#45;&gt;v0</title>
<path fill="none" stroke="green" d="M113.5,-174C113.5,-174 113.5,-151.761 113.5,-138.209"/>
</g>
<!-- v2 -->
<g id="v2_M" class="node"><title>v2</title>
<ellipse fill="none" stroke="black" cx="53.5" cy="-11" rx="11" ry="11"/>
<text text-anchor="middle" x="53.5" y="-8.8" font-family="sans-serif" font-size="9.00">M</text>
</g>
<!-- e0&#45;&gt;v2 -->
<g id="edge10" class="edge"><title>e0&#45;&gt;v2</title>
<path fill="none" stroke="green" d="M113.5,-174C113.5,-174 101.084,-154.658 93.5,-138 74.5752,-96.4332 60.902,-43.3526 55.7514,-21.7759"/>
</g>
<!-- v4 -->
<g id="v4_M" class="node"><title>v4</title>
<ellipse fill="none" stroke="black" cx="209.5" cy="-11" rx="11" ry="11"/>
<text text-anchor="middle" x="209.5" y="-8.8" font-family="sans-serif" font-size="9.00">M</text>
</g>
<!-- e0&#45;&gt;v4 -->
<g id="edge11" class="edge"><title>e0&#45;&gt;v4</title>
<path fill="none" stroke="green" d="M113.5,-174C113.5,-174 174.627,-64.2905 178.5,-58 186.78,-44.551 197.174,-29.4551 203.575,-20.3419"/>
</g>
<!-- v5 -->
<g id="v5_Ready" class="node"><title>v5</title>
<ellipse fill="none" stroke="black" cx="106.5" cy="-69" rx="25" ry="11"/>
<text text-anchor="middle" x="106.5" y="-66.8" font-family="sans-serif" font-size="9.00">Ready</text>
</g>
<!-- v0&#45;&gt;v5 -->
<g id="edge4" class="edge"><title>v0&#45;&gt;v5</title>
<path fill="none" stroke="black" d="M112.249,-115.988C111.187,-107.494 109.646,-95.1697 108.427,-85.4169"/>
<polygon fill="black" stroke="black" points="107.788,-80.3039 110.641,-84.9861 108.098,-82.7846 108.408,-85.2653 108.408,-85.2653 108.408,-85.2653 108.098,-82.7846 106.176,-85.5444 107.788,-80.3039 107.788,-80.3039"/>
</g>
<!-- v1&#45;&gt;v2 -->
<g id="edge5" class="edge"><title>v1&#45;&gt;v2</title>
<path fill="none" stroke="black" d="M192.203,-62.0466C167.242,-53.4174 119.702,-36.8408 79.5,-22 75.8818,-20.6643 71.9946,-19.1904 68.3573,-17.7939"/>
<polygon fill="black" stroke="black" points="63.6008,-15.9579 69.0756,-15.6594 65.9331,-16.8582 68.2654,-17.7585 68.2654,-17.7585 68.2654,-17.7585 65.9331,-16.8582 67.4551,-19.8575 63.6008,-15.9579 63.6008,-15.9579"/>
</g>
<!-- v1&#45;&gt;v4 -->
<g id="edge6" class="edge"><title>v1&#45;&gt;v4</title>
<path fill="none" stroke="black" d="M209.5,-57.9883C209.5,-49.4941 209.5,-37.1697 209.5,-27.4169"/>
<polygon fill="black" stroke="black" points="209.5,-22.3039 211.75,-27.3038 209.5,-24.8039 209.5,-27.3039 209.5,-27.3039 209.5,-27.3039 209.5,-24.8039 207.25,-27.3039 209.5,-22.3039 209.5,-22.3039"/>
</g>
<!-- v2&#45;&gt;ov_a -->
<g id="edge13" class="edge"><title>v2&#45;&gt;ov_a</title>
<path fill="none" stroke="green" d="M51.6308,-22.1824C45.0376,-58.0977 22.945,-178.444 16.9896,-210.885"/>
</g>
<!-- v3&#45;&gt;ob -->
<g id="edge12" class="edge"><title>v3&#45;&gt;ob</title>
<path fill="none" stroke="green" d="M303.697,-21.8597C305.758,-31.1669 308.903,-45.518 311.5,-58 323.69,-116.591 337.414,-187.395 341.952,-210.949"/>
</g>
<!-- v4&#45;&gt;ov_b -->
<g id="edge14" class="edge"><title>v4&#45;&gt;ov_b</title>
<path fill="none" stroke="green" d="M215.639,-20.1291C222.18,-29.0603 232.532,-44.0017 239.5,-58 267.301,-113.854 288.52,-186.412 295.248,-210.683"/>
</g>
<!-- v6 -->
<g id="v6_Fun" class="node"><title>v6</title>
<ellipse fill="none" stroke="black" cx="106.5" cy="-11" rx="18" ry="11"/>
<text text-anchor="middle" x="106.5" y="-8.8" font-family="sans-serif" font-size="9.00">Fun</text>
</g>
<!-- v5&#45;&gt;v6 -->
<g id="edge7" class="edge"><title>v5&#45;&gt;v6</title>
<path fill="none" stroke="black" d="M106.5,-57.9883C106.5,-49.4941 106.5,-37.1697 106.5,-27.4169"/>
<polygon fill="black" stroke="black" points="106.5,-22.3039 108.75,-27.3038 106.5,-24.8039 106.5,-27.3039 106.5,-27.3039 106.5,-27.3039 106.5,-24.8039 104.25,-27.3039 106.5,-22.3039 106.5,-22.3039"/>
</g>
</g>
</svg>
