<?xml version="1.0" encoding="UTF-8" standalone="no"?>
<?xml-stylesheet href="style.css" type="text/css"?>
<!DOCTYPE svg PUBLIC "-//W3C//DTD SVG 1.1//EN"
 "http://www.w3.org/Graphics/SVG/1.1/DTD/svg11.dtd">
<!-- Generated by graphviz version 2.38.0 (20140413.2041)
 -->
<!-- Title: 5.svg Pages: 1 -->
<svg width="293pt" height="179pt"
 viewBox="0.00 0.00 292.50 179.00" xmlns="http://www.w3.org/2000/svg" xmlns:xlink="http://www.w3.org/1999/xlink">
<g id="graph0" class="graph" transform="scale(1 1) rotate(0) translate(4 175)">
<title>5.svg</title>
<polygon fill="white" stroke="none" points="-4,4 -4,-175 288.5,-175 288.5,4 -4,4"/>
<!-- r0 -->
<g id="node1" class="node"><title>r0</title>
<polygon fill="none" stroke="black" stroke-dasharray="5,2" points="159.5,-171 136.5,-171 136.5,-153 159.5,-153 159.5,-171"/>
<text text-anchor="middle" x="148" y="-159.8" font-family="serif" font-size="9.00">0</text>
</g>
<!-- v0 -->
<g id="v0_A" class="node"><title>v0</title>
<ellipse fill="none" stroke="black" cx="33" cy="-69" rx="11" ry="11"/>
<text text-anchor="middle" x="33" y="-66.8" font-family="sans-serif" font-size="9.00">A</text>
</g>
<!-- r0&#45;&gt;v0 -->
<g id="edge1" class="edge"><title>r0&#45;&gt;v0</title>
<path fill="none" stroke="black" d="M137.795,-152.924C116.577,-136.135 67.7944,-97.533 45.065,-79.5471"/>
<polygon fill="black" stroke="black" points="41.1367,-76.4386 46.4538,-77.7769 43.0972,-77.9899 45.0576,-79.5413 45.0576,-79.5413 45.0576,-79.5413 43.0972,-77.9899 43.6614,-81.3057 41.1367,-76.4386 41.1367,-76.4386"/>
</g>
<!-- v1 -->
<g id="v1_Mail" class="node"><title>v1</title>
<ellipse fill="none" stroke="black" cx="129" cy="-69" rx="21.5" ry="11"/>
<text text-anchor="middle" x="129" y="-66.8" font-family="sans-serif" font-size="9.00">Mail</text>
</g>
<!-- r0&#45;&gt;v1 -->
<g id="edge2" class="edge"><title>r0&#45;&gt;v1</title>
<path fill="none" stroke="black" d="M146.314,-152.924C143.143,-137.736 136.244,-104.696 132.177,-85.2178"/>
<polygon fill="black" stroke="black" points="131.111,-80.1095 134.335,-84.5441 131.622,-82.5568 132.133,-85.004 132.133,-85.004 132.133,-85.004 131.622,-82.5568 129.93,-85.4639 131.111,-80.1095 131.111,-80.1095"/>
</g>
<!-- v2 -->
<g id="v2_A" class="node"><title>v2</title>
<ellipse fill="none" stroke="black" cx="205" cy="-11" rx="11" ry="11"/>
<text text-anchor="middle" x="205" y="-8.8" font-family="sans-serif" font-size="9.00">A</text>
</g>
<!-- r0&#45;&gt;v2 -->
<g id="edge3" class="edge"><title>r0&#45;&gt;v2</title>
<path fill="none" stroke="black" d="M151.065,-152.989C160.246,-128.99 187.62,-57.4308 199.452,-26.504"/>
<polygon fill="black" stroke="black" points="201.342,-21.5615 201.657,-27.0354 200.449,-23.8965 199.556,-26.2315 199.556,-26.2315 199.556,-26.2315 200.449,-23.8965 197.454,-25.4275 201.342,-21.5615 201.342,-21.5615"/>
</g>
<!-- oa -->
<g id="node2" class="node"><title>oa</title>
<text text-anchor="middle" x="11" y="-159.8" font-family="serif" font-size="9.00">a</text>
</g>
<!-- e0 -->
<g id="node6" class="node"><title>e0</title>
</g>
<!-- oa&#45;&gt;e0 -->
<g id="edge6" class="edge"><title>oa&#45;&gt;e0</title>
<path fill="none" stroke="green" d="M11,-152.93C11,-140.227 11,-117 11,-117"/>
</g>
<!-- ob -->
<g id="node3" class="node"><title>ob</title>
<text text-anchor="middle" x="224" y="-159.8" font-family="serif" font-size="9.00">b</text>
</g>
<!-- ov_a -->
<g id="node4" class="node"><title>ov_a</title>
<text text-anchor="middle" x="269" y="-159.8" font-family="serif" font-size="9.00">v_a</text>
</g>
<!-- ov_b -->
<g id="node5" class="node"><title>ov_b</title>
<text text-anchor="middle" x="72" y="-159.8" font-family="serif" font-size="9.00">v_b</text>
</g>
<!-- e0&#45;&gt;v0 -->
<g id="edge7" class="edge"><title>e0&#45;&gt;v0</title>
<path fill="none" stroke="green" d="M11,-116C11,-116 22.1195,-92.7501 28.548,-79.3088"/>
</g>
<!-- v3 -->
<g id="v3_M" class="node"><title>v3</title>
<ellipse fill="none" stroke="black" cx="76" cy="-11" rx="11" ry="11"/>
<text text-anchor="middle" x="76" y="-8.8" font-family="sans-serif" font-size="9.00">M</text>
</g>
<!-- e0&#45;&gt;v3 -->
<g id="edge8" class="edge"><title>e0&#45;&gt;v3</title>
<path fill="none" stroke="green" d="M11,-116C11,-116 0.922772,-80.7909 13,-58 19.0241,-46.6319 50.8093,-26.7996 66.7981,-17.3291"/>
</g>
<!-- v4 -->
<g id="v4_Fun" class="node"><title>v4</title>
<ellipse fill="none" stroke="black" cx="29" cy="-11" rx="18" ry="11"/>
<text text-anchor="middle" x="29" y="-8.8" font-family="sans-serif" font-size="9.00">Fun</text>
</g>
<!-- v0&#45;&gt;v4 -->
<g id="edge4" class="edge"><title>v0&#45;&gt;v4</title>
<path fill="none" stroke="black" d="M32.2849,-57.9883C31.6781,-49.4941 30.7978,-37.1697 30.1012,-27.4169"/>
<polygon fill="black" stroke="black" points="29.736,-22.3039 32.3366,-27.1308 29.9142,-24.7975 30.0923,-27.2912 30.0923,-27.2912 30.0923,-27.2912 29.9142,-24.7975 27.848,-27.4515 29.736,-22.3039 29.736,-22.3039"/>
</g>
<!-- v1&#45;&gt;v3 -->
<g id="edge5" class="edge"><title>v1&#45;&gt;v3</title>
<path fill="none" stroke="black" d="M120.248,-58.7527C111.112,-49.0991 96.766,-33.9415 86.9001,-23.5171"/>
<polygon fill="black" stroke="black" points="83.2306,-19.6399 88.3017,-21.7248 84.9491,-21.4556 86.6676,-23.2714 86.6676,-23.2714 86.6676,-23.2714 84.9491,-21.4556 85.0334,-24.818 83.2306,-19.6399 83.2306,-19.6399"/>
</g>
<!-- v2&#45;&gt;ob -->
<g id="edge9" class="edge"><title>v2&#45;&gt;ob</title>
<path fill="none" stroke="green" d="M206.27,-21.9569C209.812,-49.7395 219.757,-127.722 222.978,-152.989"/>
</g>
<!-- v3&#45;&gt;ov_b -->
<g id="edge10" class="edge"><title>v3&#45;&gt;ov_b</title>
<path fill="none" stroke="green" d="M75.7219,-22.3591C74.9669,-50.4845 72.8901,-127.843 72.2151,-152.989"/>
</g>
</g>
</svg>
