<?xml version="1.0" encoding="UTF-8" standalone="no"?>
<?xml-stylesheet href="style.css" type="text/css"?>
<!DOCTYPE svg PUBLIC "-//W3C//DTD SVG 1.1//EN"
 "http://www.w3.org/Graphics/SVG/1.1/DTD/svg11.dtd">
<!-- Generated by graphviz version 2.38.0 (20140413.2041)
 -->
<!-- Title: 7.svg Pages: 1 -->
<svg width="258pt" height="200pt"
 viewBox="0.00 0.00 258.00 200.00" xmlns="http://www.w3.org/2000/svg" xmlns:xlink="http://www.w3.org/1999/xlink">
<g id="graph0" class="graph" transform="scale(1 1) rotate(0) translate(4 196)">
<title>7.svg</title>
<polygon fill="white" stroke="none" points="-4,4 -4,-196 254,-196 254,4 -4,4"/>
<!-- r0 -->
<g id="node1" class="node"><title>r0</title>
<polygon fill="none" stroke="black" stroke-dasharray="5,2" points="68,-192 45,-192 45,-174 68,-174 68,-192"/>
<text text-anchor="middle" x="56.5" y="-180.8" font-family="serif" font-size="9.00">0</text>
</g>
<!-- v0 -->
<g id="v0_A" class="node"><title>v0</title>
<ellipse fill="none" stroke="black" cx="84.5" cy="-11" rx="11" ry="11"/>
<text text-anchor="middle" x="84.5" y="-8.8" font-family="sans-serif" font-size="9.00">A</text>
</g>
<!-- r0&#45;&gt;v0 -->
<g id="edge1" class="edge"><title>r0&#45;&gt;v0</title>
<path fill="none" stroke="black" d="M57.8505,-173.801C62.2471,-147.107 76.1986,-62.4016 81.9666,-27.3814"/>
<polygon fill="black" stroke="black" points="82.8193,-22.204 84.2268,-27.5032 82.413,-24.6708 82.0067,-27.1375 82.0067,-27.1375 82.0067,-27.1375 82.413,-24.6708 79.7866,-26.7718 82.8193,-22.204 82.8193,-22.204"/>
</g>
<!-- v1 -->
<g id="v1_Mail" class="node"><title>v1</title>
<ellipse fill="none" stroke="black" cx="21.5" cy="-11" rx="21.5" ry="11"/>
<text text-anchor="middle" x="21.5" y="-8.8" font-family="sans-serif" font-size="9.00">Mail</text>
</g>
<!-- r0&#45;&gt;v1 -->
<g id="edge2" class="edge"><title>r0&#45;&gt;v1</title>
<path fill="none" stroke="black" d="M54.8119,-173.801C49.3161,-147.107 31.8768,-62.4016 24.6668,-27.3814"/>
<polygon fill="black" stroke="black" points="23.6008,-22.204 26.8129,-26.6475 24.105,-24.6526 24.6092,-27.1013 24.6092,-27.1013 24.6092,-27.1013 24.105,-24.6526 22.4054,-27.555 23.6008,-22.204 23.6008,-22.204"/>
</g>
<!-- v2 -->
<g id="v2_A" class="node"><title>v2</title>
<ellipse fill="none" stroke="black" cx="136.5" cy="-127" rx="11" ry="11"/>
<text text-anchor="middle" x="136.5" y="-124.8" font-family="sans-serif" font-size="9.00">A</text>
</g>
<!-- r0&#45;&gt;v2 -->
<g id="edge3" class="edge"><title>r0&#45;&gt;v2</title>
<path fill="none" stroke="black" d="M68.3043,-174.032C82.9569,-164.142 107.88,-147.318 123.196,-136.98"/>
<polygon fill="black" stroke="black" points="127.619,-133.995 124.733,-138.657 125.546,-135.394 123.474,-136.792 123.474,-136.792 123.474,-136.792 125.546,-135.394 122.215,-134.927 127.619,-133.995 127.619,-133.995"/>
</g>
<!-- oa -->
<g id="node2" class="node"><title>oa</title>
<text text-anchor="middle" x="97.5" y="-180.8" font-family="serif" font-size="9.00">a</text>
</g>
<!-- e0 -->
<g id="node6" class="node"><title>e0</title>
</g>
<!-- oa&#45;&gt;e0 -->
<g id="edge6" class="edge"><title>oa&#45;&gt;e0</title>
<path fill="none" stroke="green" d="M97.5,-173.945C97.5,-148.265 97.5,-70 97.5,-70"/>
</g>
<!-- ob -->
<g id="node3" class="node"><title>ob</title>
<text text-anchor="middle" x="138.5" y="-180.8" font-family="serif" font-size="9.00">b</text>
</g>
<!-- ov_a -->
<g id="node4" class="node"><title>ov_a</title>
<text text-anchor="middle" x="234.5" y="-180.8" font-family="serif" font-size="9.00">v_a</text>
</g>
<!-- ov_b -->
<g id="node5" class="node"><title>ov_b</title>
<text text-anchor="middle" x="184.5" y="-180.8" font-family="serif" font-size="9.00">v_b</text>
</g>
<!-- e0&#45;&gt;v0 -->
<g id="edge7" class="edge"><title>e0&#45;&gt;v0</title>
<path fill="none" stroke="green" d="M97.5,-68C97.5,-68 90.5634,-38.1193 86.8241,-22.0117"/>
</g>
<!-- v4 -->
<g id="v4_M" class="node"><title>v4</title>
<ellipse fill="none" stroke="black" cx="136.5" cy="-11" rx="11" ry="11"/>
<text text-anchor="middle" x="136.5" y="-8.8" font-family="sans-serif" font-size="9.00">M</text>
</g>
<!-- e0&#45;&gt;v4 -->
<g id="edge8" class="edge"><title>e0&#45;&gt;v4</title>
<path fill="none" stroke="green" d="M97.5,-68C97.5,-68 119.438,-36.5 130.406,-20.75"/>
</g>
<!-- v2&#45;&gt;ob -->
<g id="edge9" class="edge"><title>v2&#45;&gt;ob</title>
<path fill="none" stroke="green" d="M136.871,-138.03C137.25,-148.259 137.832,-163.952 138.188,-173.562"/>
</g>
<!-- v3 -->
<g id="v3_Snd" class="node"><title>v3</title>
<ellipse fill="none" stroke="black" cx="136.5" cy="-69" rx="18" ry="11"/>
<text text-anchor="middle" x="136.5" y="-66.8" font-family="sans-serif" font-size="9.00">Snd</text>
</g>
<!-- v2&#45;&gt;v3 -->
<g id="edge4" class="edge"><title>v2&#45;&gt;v3</title>
<path fill="none" stroke="black" d="M136.5,-115.988C136.5,-107.494 136.5,-95.1697 136.5,-85.4169"/>
<polygon fill="black" stroke="black" points="136.5,-80.3039 138.75,-85.3038 136.5,-82.8039 136.5,-85.3039 136.5,-85.3039 136.5,-85.3039 136.5,-82.8039 134.25,-85.3039 136.5,-80.3039 136.5,-80.3039"/>
</g>
<!-- v3&#45;&gt;v4 -->
<g id="edge5" class="edge"><title>v3&#45;&gt;v4</title>
<path fill="none" stroke="black" d="M136.5,-57.9883C136.5,-49.4941 136.5,-37.1697 136.5,-27.4169"/>
<polygon fill="black" stroke="black" points="136.5,-22.3039 138.75,-27.3038 136.5,-24.8039 136.5,-27.3039 136.5,-27.3039 136.5,-27.3039 136.5,-24.8039 134.25,-27.3039 136.5,-22.3039 136.5,-22.3039"/>
</g>
<!-- v4&#45;&gt;ov_b -->
<g id="edge10" class="edge"><title>v4&#45;&gt;ov_b</title>
<path fill="none" stroke="green" d="M142.671,-20.35C148.918,-29.2277 158.366,-43.9043 163.5,-58 178.743,-99.8527 183.028,-153.744 184.139,-173.91"/>
</g>
</g>
</svg>
