<?xml version="1.0" encoding="UTF-8" standalone="no"?>
<?xml-stylesheet href="style.css" type="text/css"?>
<!DOCTYPE svg PUBLIC "-//W3C//DTD SVG 1.1//EN"
 "http://www.w3.org/Graphics/SVG/1.1/DTD/svg11.dtd">
<!-- Generated by graphviz version 2.38.0 (20140413.2041)
 -->
<!-- Title: 8.svg Pages: 1 -->
<svg width="281pt" height="142pt"
 viewBox="0.00 0.00 280.50 142.00" xmlns="http://www.w3.org/2000/svg" xmlns:xlink="http://www.w3.org/1999/xlink">
<g id="graph0" class="graph" transform="scale(1 1) rotate(0) translate(4 138)">
<title>8.svg</title>
<polygon fill="white" stroke="none" points="-4,4 -4,-138 276.5,-138 276.5,4 -4,4"/>
<!-- r0 -->
<g id="node1" class="node"><title>r0</title>
<polygon fill="none" stroke="black" stroke-dasharray="5,2" points="152,-134 129,-134 129,-116 152,-116 152,-134"/>
<text text-anchor="middle" x="140.5" y="-122.8" font-family="serif" font-size="9.00">0</text>
</g>
<!-- v0 -->
<g id="v0_A" class="node"><title>v0</title>
<ellipse fill="none" stroke="black" cx="126.5" cy="-11" rx="11" ry="11"/>
<text text-anchor="middle" x="126.5" y="-8.8" font-family="sans-serif" font-size="9.00">A</text>
</g>
<!-- r0&#45;&gt;v0 -->
<g id="edge1" class="edge"><title>r0&#45;&gt;v0</title>
<path fill="none" stroke="black" d="M139.493,-115.945C137.173,-97.3862 131.42,-51.3638 128.408,-27.2658"/>
<polygon fill="black" stroke="black" points="127.774,-22.1957 130.627,-26.878 128.085,-24.6764 128.395,-27.1571 128.395,-27.1571 128.395,-27.1571 128.085,-24.6764 126.162,-27.4363 127.774,-22.1957 127.774,-22.1957"/>
</g>
<!-- v1 -->
<g id="v1_Mail" class="node"><title>v1</title>
<ellipse fill="none" stroke="black" cx="65.5" cy="-69" rx="21.5" ry="11"/>
<text text-anchor="middle" x="65.5" y="-66.8" font-family="sans-serif" font-size="9.00">Mail</text>
</g>
<!-- r0&#45;&gt;v1 -->
<g id="edge2" class="edge"><title>r0&#45;&gt;v1</title>
<path fill="none" stroke="black" d="M129.109,-115.799C116.483,-106.707 96.0161,-91.9716 81.7189,-81.6776"/>
<polygon fill="black" stroke="black" points="77.4955,-78.6367 82.8679,-79.7323 79.5243,-80.0975 81.5532,-81.5583 81.5532,-81.5583 81.5532,-81.5583 79.5243,-80.0975 80.2384,-83.3843 77.4955,-78.6367 77.4955,-78.6367"/>
</g>
<!-- v3 -->
<g id="v3_A" class="node"><title>v3</title>
<ellipse fill="none" stroke="black" cx="179.5" cy="-11" rx="11" ry="11"/>
<text text-anchor="middle" x="179.5" y="-8.8" font-family="sans-serif" font-size="9.00">A</text>
</g>
<!-- r0&#45;&gt;v3 -->
<g id="edge3" class="edge"><title>r0&#45;&gt;v3</title>
<path fill="none" stroke="black" d="M143.305,-115.945C149.832,-97.1997 166.116,-50.4359 174.435,-26.5459"/>
<polygon fill="black" stroke="black" points="176.178,-21.54 176.659,-27.0018 175.356,-23.901 174.534,-26.2619 174.534,-26.2619 174.534,-26.2619 175.356,-23.901 172.409,-25.522 176.178,-21.54 176.178,-21.54"/>
</g>
<!-- oa -->
<g id="node2" class="node"><title>oa</title>
<text text-anchor="middle" x="99.5" y="-122.8" font-family="serif" font-size="9.00">a</text>
</g>
<!-- e0 -->
<g id="node6" class="node"><title>e0</title>
</g>
<!-- oa&#45;&gt;e0 -->
<g id="edge5" class="edge"><title>oa&#45;&gt;e0</title>
<path fill="none" stroke="green" d="M100.438,-115.562C102.125,-100.375 105.5,-70 105.5,-70"/>
</g>
<!-- ob -->
<g id="node3" class="node"><title>ob</title>
<text text-anchor="middle" x="210.5" y="-122.8" font-family="serif" font-size="9.00">b</text>
</g>
<!-- ov_a -->
<g id="node4" class="node"><title>ov_a</title>
<text text-anchor="middle" x="15.5" y="-122.8" font-family="serif" font-size="9.00">v_a</text>
</g>
<!-- ov_b -->
<g id="node5" class="node"><title>ov_b</title>
<text text-anchor="middle" x="256.5" y="-122.8" font-family="serif" font-size="9.00">v_b</text>
</g>
<!-- e0&#45;&gt;v0 -->
<g id="edge6" class="edge"><title>e0&#45;&gt;v0</title>
<path fill="none" stroke="green" d="M105.5,-68C105.5,-68 116.946,-37.4767 122.938,-21.4996"/>
</g>
<!-- v2 -->
<g id="v2_M" class="node"><title>v2</title>
<ellipse fill="none" stroke="black" cx="65.5" cy="-11" rx="11" ry="11"/>
<text text-anchor="middle" x="65.5" y="-8.8" font-family="sans-serif" font-size="9.00">M</text>
</g>
<!-- e0&#45;&gt;v2 -->
<g id="edge7" class="edge"><title>e0&#45;&gt;v2</title>
<path fill="none" stroke="green" d="M105.5,-68C105.5,-68 83,-36.5 71.75,-20.75"/>
</g>
<!-- v1&#45;&gt;v2 -->
<g id="edge4" class="edge"><title>v1&#45;&gt;v2</title>
<path fill="none" stroke="black" d="M65.5,-57.9883C65.5,-49.4941 65.5,-37.1697 65.5,-27.4169"/>
<polygon fill="black" stroke="black" points="65.5,-22.3039 67.7501,-27.3038 65.5,-24.8039 65.5001,-27.3039 65.5001,-27.3039 65.5001,-27.3039 65.5,-24.8039 63.2501,-27.3039 65.5,-22.3039 65.5,-22.3039"/>
</g>
<!-- v2&#45;&gt;ov_a -->
<g id="edge9" class="edge"><title>v2&#45;&gt;ov_a</title>
<path fill="none" stroke="green" d="M58.9545,-20.0076C52.0232,-28.8349 41.1793,-43.6881 34.5,-58 25.2216,-77.8811 19.4655,-103.279 16.9616,-115.992"/>
</g>
<!-- v3&#45;&gt;ob -->
<g id="edge8" class="edge"><title>v3&#45;&gt;ob</title>
<path fill="none" stroke="green" d="M182.231,-21.8656C188.281,-43.7246 202.717,-95.8823 208.271,-115.945"/>
</g>
</g>
</svg>
