<?xml version="1.0" encoding="UTF-8" standalone="no"?>
<?xml-stylesheet href="style.css" type="text/css"?>
<!DOCTYPE svg PUBLIC "-//W3C//DTD SVG 1.1//EN"
 "http://www.w3.org/Graphics/SVG/1.1/DTD/svg11.dtd">
<!-- Generated by graphviz version 2.38.0 (20140413.2041)
 -->
<!-- Title: 9.svg Pages: 1 -->
<svg width="280pt" height="142pt"
 viewBox="0.00 0.00 279.50 142.00" xmlns="http://www.w3.org/2000/svg" xmlns:xlink="http://www.w3.org/1999/xlink">
<g id="graph0" class="graph" transform="scale(1 1) rotate(0) translate(4 138)">
<title>9.svg</title>
<polygon fill="white" stroke="none" points="-4,4 -4,-138 275.5,-138 275.5,4 -4,4"/>
<!-- r0 -->
<g id="node1" class="node"><title>r0</title>
<polygon fill="none" stroke="black" stroke-dasharray="5,2" points="152.5,-134 129.5,-134 129.5,-116 152.5,-116 152.5,-134"/>
<text text-anchor="middle" x="141" y="-122.8" font-family="serif" font-size="9.00">0</text>
</g>
<!-- v0 -->
<g id="v0_A" class="node"><title>v0</title>
<ellipse fill="none" stroke="black" cx="127" cy="-11" rx="11" ry="11"/>
<text text-anchor="middle" x="127" y="-8.8" font-family="sans-serif" font-size="9.00">A</text>
</g>
<!-- r0&#45;&gt;v0 -->
<g id="edge1" class="edge"><title>r0&#45;&gt;v0</title>
<path fill="none" stroke="black" d="M139.993,-115.945C137.673,-97.3862 131.92,-51.3638 128.908,-27.2658"/>
<polygon fill="black" stroke="black" points="128.274,-22.1957 131.127,-26.878 128.585,-24.6764 128.895,-27.1571 128.895,-27.1571 128.895,-27.1571 128.585,-24.6764 126.662,-27.4363 128.274,-22.1957 128.274,-22.1957"/>
</g>
<!-- v1 -->
<g id="v1_Mail" class="node"><title>v1</title>
<ellipse fill="none" stroke="black" cx="66" cy="-69" rx="21.5" ry="11"/>
<text text-anchor="middle" x="66" y="-66.8" font-family="sans-serif" font-size="9.00">Mail</text>
</g>
<!-- r0&#45;&gt;v1 -->
<g id="edge2" class="edge"><title>r0&#45;&gt;v1</title>
<path fill="none" stroke="black" d="M129.609,-115.799C116.983,-106.707 96.5161,-91.9716 82.2189,-81.6776"/>
<polygon fill="black" stroke="black" points="77.9955,-78.6367 83.3679,-79.7323 80.0243,-80.0975 82.0532,-81.5583 82.0532,-81.5583 82.0532,-81.5583 80.0243,-80.0975 80.7384,-83.3843 77.9955,-78.6367 77.9955,-78.6367"/>
</g>
<!-- v2 -->
<g id="v2_A" class="node"><title>v2</title>
<ellipse fill="none" stroke="black" cx="180" cy="-11" rx="11" ry="11"/>
<text text-anchor="middle" x="180" y="-8.8" font-family="sans-serif" font-size="9.00">A</text>
</g>
<!-- r0&#45;&gt;v2 -->
<g id="edge3" class="edge"><title>r0&#45;&gt;v2</title>
<path fill="none" stroke="black" d="M143.805,-115.945C150.332,-97.1997 166.616,-50.4359 174.935,-26.5459"/>
<polygon fill="black" stroke="black" points="176.678,-21.54 177.159,-27.0018 175.856,-23.901 175.034,-26.2619 175.034,-26.2619 175.034,-26.2619 175.856,-23.901 172.909,-25.522 176.678,-21.54 176.678,-21.54"/>
</g>
<!-- oa -->
<g id="node2" class="node"><title>oa</title>
<text text-anchor="middle" x="100" y="-122.8" font-family="serif" font-size="9.00">a</text>
</g>
<!-- e0 -->
<g id="node6" class="node"><title>e0</title>
</g>
<!-- oa&#45;&gt;e0 -->
<g id="edge5" class="edge"><title>oa&#45;&gt;e0</title>
<path fill="none" stroke="green" d="M100.938,-115.562C102.625,-100.375 106,-70 106,-70"/>
</g>
<!-- ob -->
<g id="node3" class="node"><title>ob</title>
<text text-anchor="middle" x="211" y="-122.8" font-family="serif" font-size="9.00">b</text>
</g>
<!-- ov_a -->
<g id="node4" class="node"><title>ov_a</title>
<text text-anchor="middle" x="256" y="-122.8" font-family="serif" font-size="9.00">v_a</text>
</g>
<!-- ov_b -->
<g id="node5" class="node"><title>ov_b</title>
<text text-anchor="middle" x="16" y="-122.8" font-family="serif" font-size="9.00">v_b</text>
</g>
<!-- e0&#45;&gt;v0 -->
<g id="edge6" class="edge"><title>e0&#45;&gt;v0</title>
<path fill="none" stroke="green" d="M106,-68C106,-68 117.446,-37.4767 123.438,-21.4996"/>
</g>
<!-- v3 -->
<g id="v3_M" class="node"><title>v3</title>
<ellipse fill="none" stroke="black" cx="66" cy="-11" rx="11" ry="11"/>
<text text-anchor="middle" x="66" y="-8.8" font-family="sans-serif" font-size="9.00">M</text>
</g>
<!-- e0&#45;&gt;v3 -->
<g id="edge7" class="edge"><title>e0&#45;&gt;v3</title>
<path fill="none" stroke="green" d="M106,-68C106,-68 83.5,-36.5 72.25,-20.75"/>
</g>
<!-- v1&#45;&gt;v3 -->
<g id="edge4" class="edge"><title>v1&#45;&gt;v3</title>
<path fill="none" stroke="black" d="M66,-57.9883C66,-49.4941 66,-37.1697 66,-27.4169"/>
<polygon fill="black" stroke="black" points="66,-22.3039 68.2501,-27.3038 66,-24.8039 66.0001,-27.3039 66.0001,-27.3039 66.0001,-27.3039 66,-24.8039 63.7501,-27.3039 66,-22.3039 66,-22.3039"/>
</g>
<!-- v2&#45;&gt;ob -->
<g id="edge8" class="edge"><title>v2&#45;&gt;ob</title>
<path fill="none" stroke="green" d="M182.731,-21.8656C188.781,-43.7246 203.217,-95.8823 208.771,-115.945"/>
</g>
<!-- v3&#45;&gt;ov_b -->
<g id="edge9" class="edge"><title>v3&#45;&gt;ov_b</title>
<path fill="none" stroke="green" d="M59.4545,-20.0076C52.5232,-28.8349 41.6793,-43.6881 35,-58 25.7216,-77.8811 19.9655,-103.279 17.4616,-115.992"/>
</g>
</g>
</svg>
