<?xml version="1.0" encoding="UTF-8" standalone="no"?>
<?xml-stylesheet href="style_sbrs.css" type="text/css"?>
<!DOCTYPE svg PUBLIC "-//W3C//DTD SVG 1.1//EN"
 "http://www.w3.org/Graphics/SVG/1.1/DTD/svg11.dtd">
<!-- Generated by graphviz version 2.38.0 (20140413.2041)
 -->
<!-- Title: tra.svg Pages: 1 -->
<svg width="173pt" height="262pt"
 viewBox="0.00 0.00 173.00 262.00" xmlns="http://www.w3.org/2000/svg" xmlns:xlink="http://www.w3.org/1999/xlink">
<g id="graph0" class="graph" transform="scale(1 1) rotate(0) translate(4 258)">
<title>tra.svg</title>
<polygon fill="white" stroke="none" points="-4,4 -4,-258 169,-258 169,4 -4,4"/>
<!-- 0 -->
<g id="s0" class="node"><title>0</title>
<g id="a_s0"><a xlink:href="./0.svg" xlink:title="0">
<ellipse fill="none" stroke="black" stroke-width="2" cx="81.5" cy="-243" rx="21.5" ry="11"/>
<text text-anchor="middle" x="81.5" y="-240.8" font-family="monospace" font-size="9.00">0</text>
</a>
</g>
</g>
<!-- 1 -->
<g id="s1" class="node"><title>1</title>
<g id="a_s1"><a xlink:href="./1.svg" xlink:title="1">
<ellipse fill="none" stroke="black" cx="51.5" cy="-185" rx="21.5" ry="11"/>
<text text-anchor="middle" x="51.5" y="-182.8" font-family="monospace" font-size="9.00">1</text>
</a>
</g>
</g>
<!-- 0&#45;&gt;1 -->
<g id="edge2" class="edge"><title>0&#45;&gt;1</title>
<path fill="none" stroke="black" d="M76.2744,-232.246C71.6001,-223.52 64.6829,-210.608 59.3447,-200.643"/>
<polygon fill="black" stroke="black" points="56.8677,-196.02 61.2122,-199.365 58.0483,-198.223 59.2289,-200.427 59.2289,-200.427 59.2289,-200.427 58.0483,-198.223 57.2455,-201.49 56.8677,-196.02 56.8677,-196.02"/>
</g>
<!-- 2 -->
<g id="s2" class="node"><title>2</title>
<g id="a_s2"><a xlink:href="./2.svg" xlink:title="2">
<ellipse fill="none" stroke="black" cx="112.5" cy="-185" rx="21.5" ry="11"/>
<text text-anchor="middle" x="112.5" y="-182.8" font-family="monospace" font-size="9.00">2</text>
</a>
</g>
</g>
<!-- 0&#45;&gt;2 -->
<g id="edge3" class="edge"><title>0&#45;&gt;2</title>
<path fill="none" stroke="black" d="M86.8998,-232.246C91.7299,-223.52 98.8776,-210.608 104.394,-200.643"/>
<polygon fill="black" stroke="black" points="106.953,-196.02 106.5,-201.484 105.743,-198.207 104.532,-200.394 104.532,-200.394 104.532,-200.394 105.743,-198.207 102.563,-199.304 106.953,-196.02 106.953,-196.02"/>
</g>
<!-- 4 -->
<g id="s4" class="node"><title>4</title>
<g id="a_s4"><a xlink:href="./4.svg" xlink:title="4">
<ellipse fill="none" stroke="black" cx="51.5" cy="-127" rx="21.5" ry="11"/>
<text text-anchor="middle" x="51.5" y="-124.8" font-family="monospace" font-size="9.00">4</text>
</a>
</g>
</g>
<!-- 1&#45;&gt;4 -->
<g id="edge5" class="edge"><title>1&#45;&gt;4</title>
<path fill="none" stroke="black" d="M51.5,-173.988C51.5,-165.494 51.5,-153.17 51.5,-143.417"/>
<polygon fill="black" stroke="black" points="51.5,-138.304 53.7501,-143.304 51.5,-140.804 51.5001,-143.304 51.5001,-143.304 51.5001,-143.304 51.5,-140.804 49.2501,-143.304 51.5,-138.304 51.5,-138.304"/>
</g>
<!-- 3 -->
<g id="s3" class="node"><title>3</title>
<g id="a_s3"><a xlink:href="./3.svg" xlink:title="3">
<ellipse fill="none" stroke="black" cx="112.5" cy="-127" rx="21.5" ry="11"/>
<text text-anchor="middle" x="112.5" y="-124.8" font-family="monospace" font-size="9.00">3</text>
</a>
</g>
</g>
<!-- 1&#45;&gt;3 -->
<g id="edge4" class="edge"><title>1&#45;&gt;3</title>
<path fill="none" stroke="black" d="M61.3007,-175.003C71.3789,-165.75 87.1664,-151.257 98.5465,-140.81"/>
<polygon fill="black" stroke="black" points="102.521,-137.161 100.359,-142.2 100.679,-138.852 98.8377,-140.542 98.8377,-140.542 98.8377,-140.542 100.679,-138.852 97.3161,-138.885 102.521,-137.161 102.521,-137.161"/>
</g>
<!-- 7 -->
<g id="s7" class="node"><title>7</title>
<g id="a_s7"><a xlink:href="./7.svg" xlink:title="7">
<ellipse fill="none" stroke="black" cx="21.5" cy="-69" rx="21.5" ry="11"/>
<text text-anchor="middle" x="21.5" y="-66.8" font-family="monospace" font-size="9.00">7</text>
</a>
</g>
</g>
<!-- 9 -->
<g id="s9" class="node"><title>9</title>
<g id="a_s9"><a xlink:href="./9.svg" xlink:title="9">
<ellipse fill="none" stroke="black" cx="52.5" cy="-11" rx="21.5" ry="11"/>
<text text-anchor="middle" x="52.5" y="-8.8" font-family="monospace" font-size="9.00">9</text>
</a>
</g>
</g>
<!-- 7&#45;&gt;9 -->
<g id="edge9" class="edge"><title>7&#45;&gt;9</title>
<path fill="none" stroke="black" d="M26.8998,-58.2455C31.7299,-49.5202 38.8776,-36.6082 44.3938,-26.6435"/>
<polygon fill="black" stroke="black" points="46.9534,-22.0198 46.5002,-27.484 45.7425,-24.207 44.5317,-26.3942 44.5317,-26.3942 44.5317,-26.3942 45.7425,-24.207 42.5632,-25.3045 46.9534,-22.0198 46.9534,-22.0198"/>
</g>
<!-- 2&#45;&gt;3 -->
<g id="edge1" class="edge"><title>2&#45;&gt;3</title>
<path fill="none" stroke="black" d="M112.5,-173.988C112.5,-165.494 112.5,-153.17 112.5,-143.417"/>
<polygon fill="black" stroke="black" points="112.5,-138.304 114.75,-143.304 112.5,-140.804 112.5,-143.304 112.5,-143.304 112.5,-143.304 112.5,-140.804 110.25,-143.304 112.5,-138.304 112.5,-138.304"/>
</g>
<!-- 8 -->
<g id="s8" class="node"><title>8</title>
<g id="a_s8"><a xlink:href="./8.svg" xlink:title="8">
<ellipse fill="none" stroke="black" cx="143.5" cy="-11" rx="21.5" ry="11"/>
<text text-anchor="middle" x="143.5" y="-8.8" font-family="monospace" font-size="9.00">8</text>
</a>
</g>
</g>
<!-- 4&#45;&gt;7 -->
<g id="edge7" class="edge"><title>4&#45;&gt;7</title>
<path fill="none" stroke="black" d="M46.2744,-116.246C41.6001,-107.52 34.6829,-94.6082 29.3447,-84.6435"/>
<polygon fill="black" stroke="black" points="26.8677,-80.0198 31.2122,-83.3646 28.0483,-82.2235 29.2289,-84.4272 29.2289,-84.4272 29.2289,-84.4272 28.0483,-82.2235 27.2455,-85.4897 26.8677,-80.0198 26.8677,-80.0198"/>
</g>
<!-- 5 -->
<g id="s5" class="node"><title>5</title>
<g id="a_s5"><a xlink:href="./5.svg" xlink:title="5">
<ellipse fill="none" stroke="black" cx="82.5" cy="-69" rx="21.5" ry="11"/>
<text text-anchor="middle" x="82.5" y="-66.8" font-family="monospace" font-size="9.00">5</text>
</a>
</g>
</g>
<!-- 4&#45;&gt;5 -->
<g id="edge6" class="edge"><title>4&#45;&gt;5</title>
<path fill="none" stroke="black" d="M56.8998,-116.246C61.7299,-107.52 68.8776,-94.6082 74.3938,-84.6435"/>
<polygon fill="black" stroke="black" points="76.9534,-80.0198 76.5002,-85.484 75.7425,-82.207 74.5317,-84.3942 74.5317,-84.3942 74.5317,-84.3942 75.7425,-82.207 72.5632,-83.3045 76.9534,-80.0198 76.9534,-80.0198"/>
</g>
<!-- 5&#45;&gt;9 -->
<g id="edge10" class="edge"><title>5&#45;&gt;9</title>
<path fill="none" stroke="black" d="M77.2744,-58.2455C72.6001,-49.5202 65.6829,-36.6082 60.3447,-26.6435"/>
<polygon fill="black" stroke="black" points="57.8677,-22.0198 62.2122,-25.3646 59.0483,-24.2235 60.2289,-26.4272 60.2289,-26.4272 60.2289,-26.4272 59.0483,-24.2235 58.2455,-27.4897 57.8677,-22.0198 57.8677,-22.0198"/>
</g>
<!-- 6 -->
<g id="s6" class="node"><title>6</title>
<g id="a_s6"><a xlink:href="./6.svg" xlink:title="6">
<ellipse fill="none" stroke="black" cx="143.5" cy="-69" rx="21.5" ry="11"/>
<text text-anchor="middle" x="143.5" y="-66.8" font-family="monospace" font-size="9.00">6</text>
</a>
</g>
</g>
<!-- 6&#45;&gt;8 -->
<g id="edge8" class="edge"><title>6&#45;&gt;8</title>
<path fill="none" stroke="black" d="M143.5,-57.9883C143.5,-49.4941 143.5,-37.1697 143.5,-27.4169"/>
<polygon fill="black" stroke="black" points="143.5,-22.3039 145.75,-27.3038 143.5,-24.8039 143.5,-27.3039 143.5,-27.3039 143.5,-27.3039 143.5,-24.8039 141.25,-27.3039 143.5,-22.3039 143.5,-22.3039"/>
</g>
<!-- 3&#45;&gt;5 -->
<g id="edge11" class="edge"><title>3&#45;&gt;5</title>
<path fill="none" stroke="black" d="M107.274,-116.246C102.6,-107.52 95.6829,-94.6082 90.3447,-84.6435"/>
<polygon fill="black" stroke="black" points="87.8677,-80.0198 92.2122,-83.3646 89.0483,-82.2235 90.2289,-84.4272 90.2289,-84.4272 90.2289,-84.4272 89.0483,-82.2235 88.2455,-85.4897 87.8677,-80.0198 87.8677,-80.0198"/>
</g>
<!-- 3&#45;&gt;6 -->
<g id="edge12" class="edge"><title>3&#45;&gt;6</title>
<path fill="none" stroke="black" d="M117.9,-116.246C122.73,-107.52 129.878,-94.6082 135.394,-84.6435"/>
<polygon fill="black" stroke="black" points="137.953,-80.0198 137.5,-85.484 136.743,-82.207 135.532,-84.3942 135.532,-84.3942 135.532,-84.3942 136.743,-82.207 133.563,-83.3045 137.953,-80.0198 137.953,-80.0198"/>
</g>
</g>
</svg>
