<?xml version="1.0" encoding="UTF-8" standalone="no"?>
<?xml-stylesheet href="style.css" type="text/css"?>
<!DOCTYPE svg PUBLIC "-//W3C//DTD SVG 1.1//EN"
 "http://www.w3.org/Graphics/SVG/1.1/DTD/svg11.dtd">
<!-- Generated by graphviz version 2.38.0 (20140413.2041)
 -->
<!-- Title: 20.svg Pages: 1 -->
<svg width="1455pt" height="374pt"
 viewBox="0.00 0.00 1454.50 374.00" xmlns="http://www.w3.org/2000/svg" xmlns:xlink="http://www.w3.org/1999/xlink">
<g id="graph0" class="graph" transform="scale(1 1) rotate(0) translate(4 370)">
<title>20.svg</title>
<polygon fill="white" stroke="none" points="-4,4 -4,-370 1450.5,-370 1450.5,4 -4,4"/>
<!-- r0 -->
<g id="node1" class="node"><title>r0</title>
<polygon fill="none" stroke="black" stroke-dasharray="5,2" points="260.5,-366 237.5,-366 237.5,-348 260.5,-348 260.5,-366"/>
<text text-anchor="middle" x="249" y="-354.8" font-family="serif" font-size="9.00">0</text>
</g>
<!-- v0 -->
<g id="v0_Building" class="node"><title>v0</title>
<ellipse fill="none" stroke="black" cx="249" cy="-301" rx="36" ry="11"/>
<text text-anchor="middle" x="249" y="-298.8" font-family="sans-serif" font-size="9.00">Building</text>
</g>
<!-- r0&#45;&gt;v0 -->
<g id="edge1" class="edge"><title>r0&#45;&gt;v0</title>
<path fill="none" stroke="black" d="M249,-347.562C249,-339.453 249,-327.014 249,-317.181"/>
<polygon fill="black" stroke="black" points="249,-312.03 251.25,-317.03 249,-314.53 249,-317.03 249,-317.03 249,-317.03 249,-314.53 246.75,-317.03 249,-312.03 249,-312.03"/>
</g>
<!-- r1 -->
<g id="node2" class="node"><title>r1</title>
<polygon fill="none" stroke="black" stroke-dasharray="5,2" points="1175.5,-366 1152.5,-366 1152.5,-348 1175.5,-348 1175.5,-366"/>
<text text-anchor="middle" x="1164" y="-354.8" font-family="serif" font-size="9.00">1</text>
</g>
<!-- v7 -->
<g id="v7_RulesKeywords" class="node"><title>v7</title>
<ellipse fill="none" stroke="black" cx="1164" cy="-69" rx="54" ry="11"/>
<text text-anchor="middle" x="1164" y="-66.8" font-family="sans-serif" font-size="9.00">RulesKeywords</text>
</g>
<!-- r1&#45;&gt;v7 -->
<g id="edge2" class="edge"><title>r1&#45;&gt;v7</title>
<path fill="none" stroke="black" d="M1164,-347.849C1164,-329.373 1164,-282.889 1164,-244 1164,-244 1164,-244 1164,-184 1164,-148.604 1164,-107.026 1164,-85.1783"/>
<polygon fill="black" stroke="black" points="1164,-80.0648 1166.25,-85.0648 1164,-82.5648 1164,-85.0648 1164,-85.0648 1164,-85.0648 1164,-82.5648 1161.75,-85.0648 1164,-80.0648 1164,-80.0648"/>
</g>
<!-- e1 -->
<g id="node3" class="node"><title>e1</title>
</g>
<!-- v4 -->
<g id="v4_Laptop" class="node"><title>v4</title>
<ellipse fill="none" stroke="black" cx="517" cy="-69" rx="29" ry="11"/>
<text text-anchor="middle" x="517" y="-66.8" font-family="sans-serif" font-size="9.00">Laptop</text>
</g>
<!-- e1&#45;&gt;v4 -->
<g id="edge24" class="edge"><title>e1&#45;&gt;v4</title>
<path fill="none" stroke="green" d="M517,-122.167C517,-113.586 517,-92.5957 517,-80.0117"/>
<polygon fill="green" stroke="green" points="520.5,-125.3 513.5,-125.3 513.5,-123.9 520.5,-123.9 520.5,-125.3"/>
<polyline fill="none" stroke="green" points="517,-126 517,-122.5 "/>
</g>
<!-- v1 -->
<g id="v1_Floor" class="node"><title>v1</title>
<ellipse fill="none" stroke="black" cx="364" cy="-243" rx="25" ry="11"/>
<text text-anchor="middle" x="364" y="-240.8" font-family="sans-serif" font-size="9.00">Floor</text>
</g>
<!-- v0&#45;&gt;v1 -->
<g id="edge3" class="edge"><title>v0&#45;&gt;v1</title>
<path fill="none" stroke="black" d="M266.969,-291.25C287.759,-281.126 321.913,-264.494 343.661,-253.904"/>
<polygon fill="black" stroke="black" points="348.371,-251.611 344.861,-255.823 346.123,-252.705 343.876,-253.8 343.876,-253.8 343.876,-253.8 346.123,-252.705 342.89,-251.777 348.371,-251.611 348.371,-251.611"/>
</g>
<!-- v6 -->
<g id="v6_InstallationBus" class="node"><title>v6</title>
<ellipse fill="none" stroke="black" cx="61" cy="-11" rx="61" ry="11"/>
<text text-anchor="middle" x="61" y="-8.8" font-family="sans-serif" font-size="9.00">InstallationBus</text>
</g>
<!-- v0&#45;&gt;v6 -->
<g id="edge4" class="edge"><title>v0&#45;&gt;v6</title>
<path fill="none" stroke="black" d="M229.752,-291.703C197.014,-276.143 134,-239.274 134,-186 134,-186 134,-186 134,-126 134,-83.9631 98.3627,-45.0159 76.8877,-25.3624"/>
<polygon fill="black" stroke="black" points="73.0545,-21.9208 78.2782,-23.587 74.9147,-23.591 76.775,-25.2612 76.775,-25.2612 76.775,-25.2612 74.9147,-23.591 75.2718,-26.9355 73.0545,-21.9208 73.0545,-21.9208"/>
</g>
<!-- v2 -->
<g id="v2_Room" class="node"><title>v2</title>
<ellipse fill="none" stroke="black" cx="598" cy="-185" rx="21.5" ry="11"/>
<text text-anchor="middle" x="598" y="-182.8" font-family="sans-serif" font-size="9.00">Room</text>
</g>
<!-- v1&#45;&gt;v2 -->
<g id="edge5" class="edge"><title>v1&#45;&gt;v2</title>
<path fill="none" stroke="black" d="M385.179,-236.932C428.835,-226.484 528.564,-202.617 574.294,-191.673"/>
<polygon fill="black" stroke="black" points="579.335,-190.467 574.996,-193.819 576.903,-191.049 574.472,-191.631 574.472,-191.631 574.472,-191.631 576.903,-191.049 573.948,-189.442 579.335,-190.467 579.335,-190.467"/>
</g>
<!-- v9 -->
<g id="v9_Hallway" class="node"><title>v9</title>
<ellipse fill="none" stroke="black" cx="173" cy="-11" rx="32.5" ry="11"/>
<text text-anchor="middle" x="173" y="-8.8" font-family="sans-serif" font-size="9.00">Hallway</text>
</g>
<!-- v1&#45;&gt;v9 -->
<g id="edge6" class="edge"><title>v1&#45;&gt;v9</title>
<path fill="none" stroke="black" d="M356.036,-232.41C326.071,-196.326 220.01,-68.6084 184.603,-25.9726"/>
<polygon fill="black" stroke="black" points="181.211,-21.888 186.137,-24.2971 182.809,-23.8113 184.406,-25.7346 184.406,-25.7346 184.406,-25.7346 182.809,-23.8113 182.675,-27.1721 181.211,-21.888 181.211,-21.888"/>
</g>
<!-- v16 -->
<g id="v16_Room" class="node"><title>v16</title>
<ellipse fill="none" stroke="black" cx="828" cy="-69" rx="21.5" ry="11"/>
<text text-anchor="middle" x="828" y="-66.8" font-family="sans-serif" font-size="9.00">Room</text>
</g>
<!-- v1&#45;&gt;v16 -->
<g id="edge7" class="edge"><title>v1&#45;&gt;v16</title>
<path fill="none" stroke="black" d="M388.871,-240.873C436.704,-238.017 544.199,-228.248 628,-196 703.875,-166.802 782.087,-107.339 813.582,-81.9378"/>
<polygon fill="black" stroke="black" points="817.537,-78.7282 815.072,-83.626 815.596,-80.3035 813.654,-81.8789 813.654,-81.8789 813.654,-81.8789 815.596,-80.3035 812.237,-80.1317 817.537,-78.7282 817.537,-78.7282"/>
</g>
<!-- v18 -->
<g id="v18_Room" class="node"><title>v18</title>
<ellipse fill="none" stroke="black" cx="364" cy="-69" rx="21.5" ry="11"/>
<text text-anchor="middle" x="364" y="-66.8" font-family="sans-serif" font-size="9.00">Room</text>
</g>
<!-- v1&#45;&gt;v18 -->
<g id="edge8" class="edge"><title>v1&#45;&gt;v18</title>
<path fill="none" stroke="black" d="M364,-231.756C364,-202.786 364,-120.136 364,-85.5335"/>
<polygon fill="black" stroke="black" points="364,-80.4081 366.25,-85.408 364,-82.9081 364,-85.4081 364,-85.4081 364,-85.4081 364,-82.9081 361.75,-85.4081 364,-80.4081 364,-80.4081"/>
</g>
<!-- v3 -->
<g id="v3_Visitor" class="node"><title>v3</title>
<ellipse fill="none" stroke="black" cx="568" cy="-127" rx="32.5" ry="11"/>
<text text-anchor="middle" x="568" y="-124.8" font-family="sans-serif" font-size="9.00">Visitor</text>
</g>
<!-- v2&#45;&gt;v3 -->
<g id="edge9" class="edge"><title>v2&#45;&gt;v3</title>
<path fill="none" stroke="black" d="M592.774,-174.246C588.1,-165.52 581.183,-152.608 575.845,-142.643"/>
<polygon fill="black" stroke="black" points="573.368,-138.02 577.712,-141.365 574.548,-140.223 575.729,-142.427 575.729,-142.427 575.729,-142.427 574.548,-140.223 573.746,-143.49 573.368,-138.02 573.368,-138.02"/>
</g>
<!-- v5 -->
<g id="v5_SmartLight" class="node"><title>v5</title>
<ellipse fill="none" stroke="black" cx="732" cy="-11" rx="43" ry="11"/>
<text text-anchor="middle" x="732" y="-8.8" font-family="sans-serif" font-size="9.00">SmartLight</text>
</g>
<!-- v2&#45;&gt;v5 -->
<g id="edge10" class="edge"><title>v2&#45;&gt;v5</title>
<path fill="none" stroke="black" d="M605.395,-174.508C627.659,-145.93 694.156,-60.5757 720.789,-26.3907"/>
<polygon fill="black" stroke="black" points="724.127,-22.1054 722.829,-27.4325 722.591,-24.0775 721.054,-26.0497 721.054,-26.0497 721.054,-26.0497 722.591,-24.0775 719.279,-24.6669 724.127,-22.1054 724.127,-22.1054"/>
</g>
<!-- v2&#45;&gt;v9 -->
<g id="edge23" class="edge"><title>v2&#45;&gt;v9</title>
<path fill="none" stroke="green" d="M602.809,-173.967C608.617,-160.382 616.706,-135.586 609,-116 596.105,-83.225 586.51,-73.7352 555,-58 418.657,10.0851 364.144,-48.1144 214,-22 208.514,-21.0458 202.672,-19.7769 197.168,-18.4641"/>
</g>
<!-- v11 -->
<g id="v11_Workstation" class="node"><title>v11</title>
<ellipse fill="none" stroke="black" cx="624" cy="-11" rx="47" ry="11"/>
<text text-anchor="middle" x="624" y="-8.8" font-family="sans-serif" font-size="9.00">Workstation</text>
</g>
<!-- v2&#45;&gt;v11 -->
<g id="edge11" class="edge"><title>v2&#45;&gt;v11</title>
<path fill="none" stroke="black" d="M600.789,-173.84C603.249,-164.566 606.778,-150.449 609,-138 616.059,-98.4478 620.673,-51.3011 622.743,-27.4551"/>
<polygon fill="black" stroke="black" points="623.192,-22.1851 625.01,-27.358 622.98,-24.6761 622.768,-27.1671 622.768,-27.1671 622.768,-27.1671 622.98,-24.6761 620.526,-26.9761 623.192,-22.1851 623.192,-22.1851"/>
</g>
<!-- v3&#45;&gt;v4 -->
<g id="edge12" class="edge"><title>v3&#45;&gt;v4</title>
<path fill="none" stroke="black" d="M559.116,-116.246C550.853,-107.172 538.465,-93.5697 529.262,-83.4636"/>
<polygon fill="black" stroke="black" points="525.782,-79.6427 530.812,-81.8244 527.465,-81.491 529.148,-83.3394 529.148,-83.3394 529.148,-83.3394 527.465,-81.491 527.485,-84.8544 525.782,-79.6427 525.782,-79.6427"/>
</g>
<!-- v10 -->
<g id="v10_Software" class="node"><title>v10</title>
<ellipse fill="none" stroke="black" cx="523" cy="-11" rx="36" ry="11"/>
<text text-anchor="middle" x="523" y="-8.8" font-family="sans-serif" font-size="9.00">Software</text>
</g>
<!-- v4&#45;&gt;v10 -->
<g id="edge13" class="edge"><title>v4&#45;&gt;v10</title>
<path fill="none" stroke="black" d="M518.073,-57.9883C518.983,-49.4941 520.303,-37.1697 521.348,-27.4169"/>
<polygon fill="black" stroke="black" points="521.896,-22.3039 523.6,-27.5152 521.63,-24.7896 521.363,-27.2754 521.363,-27.2754 521.363,-27.2754 521.63,-24.7896 519.126,-27.0357 521.896,-22.3039 521.896,-22.3039"/>
</g>
<!-- v5&#45;&gt;v6 -->
<g id="edge25" class="edge"><title>v5&#45;&gt;v6</title>
<path fill="none" stroke="green" d="M715.641,-21.2415C703.756,-28.0527 687.014,-36.3871 671,-40 555.893,-65.9688 256.179,-60.6503 140,-40 120.005,-36.446 98.4332,-28.2018 82.8914,-21.4084"/>
</g>
<!-- v6&#45;&gt;v11 -->
<g id="edge26" class="edge"><title>v6&#45;&gt;v11</title>
<path fill="none" stroke="green" d="M82.8914,-21.4084C98.4332,-28.2018 120.005,-36.446 140,-40 231.674,-56.2947 467.931,-59.394 559,-40 575.92,-36.3967 593.774,-28.0614 606.479,-21.2474"/>
</g>
<!-- v17 -->
<g id="v17_SmartLight" class="node"><title>v17</title>
<ellipse fill="none" stroke="black" cx="836" cy="-11" rx="43" ry="11"/>
<text text-anchor="middle" x="836" y="-8.8" font-family="sans-serif" font-size="9.00">SmartLight</text>
</g>
<!-- v6&#45;&gt;v17 -->
<g id="edge27" class="edge"><title>v6&#45;&gt;v17</title>
<path fill="none" stroke="green" d="M82.8914,-21.4084C98.4332,-28.2018 120.005,-36.446 140,-40 209.467,-52.3474 706.174,-55.5275 775,-40 791.014,-36.3871 807.756,-28.0527 819.641,-21.2415"/>
</g>
<!-- v19 -->
<g id="v19_SmartLight" class="node"><title>v19</title>
<ellipse fill="none" stroke="black" cx="364" cy="-11" rx="43" ry="11"/>
<text text-anchor="middle" x="364" y="-8.8" font-family="sans-serif" font-size="9.00">SmartLight</text>
</g>
<!-- v6&#45;&gt;v19 -->
<g id="edge28" class="edge"><title>v6&#45;&gt;v19</title>
<path fill="none" stroke="green" d="M82.8914,-21.4084C98.4332,-28.2018 120.005,-36.446 140,-40 210.889,-52.6002 231.716,-55.625 302,-40 318.24,-36.3897 335.26,-28.055 347.35,-21.2431"/>
</g>
<!-- v20 -->
<g id="v20_HVAC" class="node"><title>v20</title>
<ellipse fill="none" stroke="black" cx="447" cy="-11" rx="21.5" ry="11"/>
<text text-anchor="middle" x="447" y="-8.8" font-family="sans-serif" font-size="9.00">HVAC</text>
</g>
<!-- v6&#45;&gt;v20 -->
<g id="edge29" class="edge"><title>v6&#45;&gt;v20</title>
<path fill="none" stroke="green" d="M82.8914,-21.4084C98.4332,-28.2018 120.005,-36.446 140,-40 198.418,-50.3835 350.561,-58.3065 407,-40 418.586,-36.242 429.626,-27.7304 437.161,-20.8949"/>
</g>
<!-- v21 -->
<g id="v21_FireAlarm" class="node"><title>v21</title>
<ellipse fill="none" stroke="black" cx="263" cy="-11" rx="39.5" ry="11"/>
<text text-anchor="middle" x="263" y="-8.8" font-family="sans-serif" font-size="9.00">FireAlarm</text>
</g>
<!-- v6&#45;&gt;v21 -->
<g id="edge30" class="edge"><title>v6&#45;&gt;v21</title>
<path fill="none" stroke="green" d="M82.8914,-21.4084C98.4332,-28.2018 120.005,-36.446 140,-40 168.443,-45.0556 176.884,-46.6373 205,-40 220.34,-36.3788 236.248,-28.0452 247.515,-21.2364"/>
</g>
<!-- v8 -->
<g id="v8_ConnectDevice" class="node"><title>v8</title>
<ellipse fill="none" stroke="black" cx="951" cy="-11" rx="54" ry="11"/>
<text text-anchor="middle" x="951" y="-8.8" font-family="sans-serif" font-size="9.00">ConnectDevice</text>
</g>
<!-- v7&#45;&gt;v8 -->
<g id="edge14" class="edge"><title>v7&#45;&gt;v8</title>
<path fill="none" stroke="black" d="M1133.03,-59.8571C1094.11,-49.6255 1027.47,-32.1056 986.526,-21.3403"/>
<polygon fill="black" stroke="black" points="981.664,-20.0619 987.072,-19.1572 984.082,-20.6976 986.5,-21.3333 986.5,-21.3333 986.5,-21.3333 984.082,-20.6976 985.927,-23.5093 981.664,-20.0619 981.664,-20.0619"/>
</g>
<!-- v12 -->
<g id="v12_ExitRoom" class="node"><title>v12</title>
<ellipse fill="none" stroke="black" cx="1059" cy="-11" rx="36" ry="11"/>
<text text-anchor="middle" x="1059" y="-8.8" font-family="sans-serif" font-size="9.00">ExitRoom</text>
</g>
<!-- v7&#45;&gt;v12 -->
<g id="edge15" class="edge"><title>v7&#45;&gt;v12</title>
<path fill="none" stroke="black" d="M1146.19,-58.5004C1127.96,-48.777 1099.62,-33.6662 1080.24,-23.3265"/>
<polygon fill="black" stroke="black" points="1075.51,-20.8068 1080.98,-21.1745 1077.72,-21.9833 1079.92,-23.1598 1079.92,-23.1598 1079.92,-23.1598 1077.72,-21.9833 1078.87,-25.1451 1075.51,-20.8068 1075.51,-20.8068"/>
</g>
<!-- v13 -->
<g id="v13_GenerateData" class="node"><title>v13</title>
<ellipse fill="none" stroke="black" cx="1164" cy="-11" rx="50.5" ry="11"/>
<text text-anchor="middle" x="1164" y="-8.8" font-family="sans-serif" font-size="9.00">GenerateData</text>
</g>
<!-- v7&#45;&gt;v13 -->
<g id="edge16" class="edge"><title>v7&#45;&gt;v13</title>
<path fill="none" stroke="black" d="M1164,-57.9883C1164,-49.4941 1164,-37.1697 1164,-27.4169"/>
<polygon fill="black" stroke="black" points="1164,-22.3039 1166.25,-27.3038 1164,-24.8039 1164,-27.3039 1164,-27.3039 1164,-27.3039 1164,-24.8039 1161.75,-27.3039 1164,-22.3039 1164,-22.3039"/>
</g>
<!-- v14 -->
<g id="v14_CollectData" class="node"><title>v14</title>
<ellipse fill="none" stroke="black" cx="1280" cy="-11" rx="47" ry="11"/>
<text text-anchor="middle" x="1280" y="-8.8" font-family="sans-serif" font-size="9.00">CollectData</text>
</g>
<!-- v7&#45;&gt;v14 -->
<g id="edge17" class="edge"><title>v7&#45;&gt;v14</title>
<path fill="none" stroke="black" d="M1183.42,-58.6269C1203.44,-48.9585 1234.7,-33.8675 1256.2,-23.4873"/>
<polygon fill="black" stroke="black" points="1260.91,-21.2174 1257.38,-25.4174 1258.66,-22.3043 1256.4,-23.3912 1256.4,-23.3912 1256.4,-23.3912 1258.66,-22.3043 1255.43,-21.3649 1260.91,-21.2174 1260.91,-21.2174"/>
</g>
<!-- v15 -->
<g id="v15_SendSoftware" class="node"><title>v15</title>
<ellipse fill="none" stroke="black" cx="1396" cy="-11" rx="50.5" ry="11"/>
<text text-anchor="middle" x="1396" y="-8.8" font-family="sans-serif" font-size="9.00">SendSoftware</text>
</g>
<!-- v7&#45;&gt;v15 -->
<g id="edge18" class="edge"><title>v7&#45;&gt;v15</title>
<path fill="none" stroke="black" d="M1196.75,-60.0953C1239.56,-49.7605 1314.36,-31.7058 1359.13,-20.9008"/>
<polygon fill="black" stroke="black" points="1364.16,-19.6847 1359.83,-23.0452 1361.73,-20.2713 1359.3,-20.858 1359.3,-20.858 1359.3,-20.858 1361.73,-20.2713 1358.78,-18.6708 1364.16,-19.6847 1364.16,-19.6847"/>
</g>
<!-- v9&#45;&gt;v16 -->
<g id="edge31" class="edge"><title>v9&#45;&gt;v16</title>
<path fill="none" stroke="green" d="M197.143,-18.6209C202.647,-19.9256 208.497,-21.1516 214,-22 451.286,-58.5814 514.101,-34.1215 753,-58 771.691,-59.8683 792.903,-62.7696 807.987,-64.9669"/>
</g>
<!-- v9&#45;&gt;v18 -->
<g id="edge32" class="edge"><title>v9&#45;&gt;v18</title>
<path fill="none" stroke="green" d="M196.056,-18.7599C234.574,-30.053 311.207,-52.5214 346.031,-62.7317"/>
</g>
<!-- v16&#45;&gt;v17 -->
<g id="edge19" class="edge"><title>v16&#45;&gt;v17</title>
<path fill="none" stroke="black" d="M829.43,-57.9883C830.644,-49.4941 832.404,-37.1697 833.798,-27.4169"/>
<polygon fill="black" stroke="black" points="834.528,-22.3039 836.048,-27.5719 834.174,-24.7787 833.821,-27.2536 833.821,-27.2536 833.821,-27.2536 834.174,-24.7787 831.593,-26.9354 834.528,-22.3039 834.528,-22.3039"/>
</g>
<!-- v18&#45;&gt;v19 -->
<g id="edge20" class="edge"><title>v18&#45;&gt;v19</title>
<path fill="none" stroke="black" d="M364,-57.9883C364,-49.4941 364,-37.1697 364,-27.4169"/>
<polygon fill="black" stroke="black" points="364,-22.3039 366.25,-27.3038 364,-24.8039 364,-27.3039 364,-27.3039 364,-27.3039 364,-24.8039 361.75,-27.3039 364,-22.3039 364,-22.3039"/>
</g>
<!-- v18&#45;&gt;v20 -->
<g id="edge21" class="edge"><title>v18&#45;&gt;v20</title>
<path fill="none" stroke="black" d="M376.247,-59.737C390.591,-50.0592 414.421,-33.9808 430.414,-23.1904"/>
<polygon fill="black" stroke="black" points="434.703,-20.2969 431.816,-24.9586 432.63,-21.6952 430.558,-23.0934 430.558,-23.0934 430.558,-23.0934 432.63,-21.6952 429.3,-21.2283 434.703,-20.2969 434.703,-20.2969"/>
</g>
<!-- v18&#45;&gt;v21 -->
<g id="edge22" class="edge"><title>v18&#45;&gt;v21</title>
<path fill="none" stroke="black" d="M350.379,-60.4476C333.33,-50.9951 303.953,-34.7065 284.014,-23.6513"/>
<polygon fill="black" stroke="black" points="279.412,-21.0996 284.876,-21.5564 281.598,-22.3119 283.785,-23.5241 283.785,-23.5241 283.785,-23.5241 281.598,-22.3119 282.693,-25.4919 279.412,-21.0996 279.412,-21.0996"/>
</g>
</g>
</svg>
