<?xml version="1.0" encoding="UTF-8" standalone="no"?>
<?xml-stylesheet href="style_sbrs.css" type="text/css"?>
<!DOCTYPE svg PUBLIC "-//W3C//DTD SVG 1.1//EN"
 "http://www.w3.org/Graphics/SVG/1.1/DTD/svg11.dtd">
<!-- Generated by graphviz version 2.38.0 (20140413.2041)
 -->
<!-- Title: transitions.svg Pages: 1 -->
<svg width="905pt" height="436pt"
 viewBox="0.00 0.00 905.00 436.00" xmlns="http://www.w3.org/2000/svg" xmlns:xlink="http://www.w3.org/1999/xlink">
<g id="graph0" class="graph" transform="scale(1 1) rotate(0) translate(4 432)">
<title>transitions.svg</title>
<polygon fill="white" stroke="none" points="-4,4 -4,-432 901,-432 901,4 -4,4"/>
<!-- 0 -->
<g id="s0" class="node"><title>0</title>
<g id="a_s0"><a xlink:href="./0.svg" xlink:title="0">
<ellipse fill="none" stroke="black" stroke-width="2" cx="417.5" cy="-417" rx="21.5" ry="11"/>
<text text-anchor="middle" x="417.5" y="-414.8" font-family="monospace" font-size="9.00">0</text>
</a>
</g>
</g>
<!-- 1 -->
<g id="s1" class="node"><title>1</title>
<g id="a_s1"><a xlink:href="./1.svg" xlink:title="1">
<ellipse fill="none" stroke="black" cx="387.5" cy="-359" rx="21.5" ry="11"/>
<text text-anchor="middle" x="387.5" y="-356.8" font-family="monospace" font-size="9.00">1</text>
</a>
</g>
</g>
<!-- 0&#45;&gt;1 -->
<g id="edge15" class="edge"><title>0&#45;&gt;1</title>
<path fill="none" stroke="black" d="M412.274,-406.246C407.6,-397.52 400.683,-384.608 395.345,-374.643"/>
<polygon fill="black" stroke="black" points="392.868,-370.02 397.212,-373.365 394.048,-372.223 395.229,-374.427 395.229,-374.427 395.229,-374.427 394.048,-372.223 393.246,-375.49 392.868,-370.02 392.868,-370.02"/>
</g>
<!-- 2 -->
<g id="s2" class="node"><title>2</title>
<g id="a_s2"><a xlink:href="./2.svg" xlink:title="2">
<ellipse fill="none" stroke="black" cx="326.5" cy="-359" rx="21.5" ry="11"/>
<text text-anchor="middle" x="326.5" y="-356.8" font-family="monospace" font-size="9.00">2</text>
</a>
</g>
</g>
<!-- 0&#45;&gt;2 -->
<g id="edge16" class="edge"><title>0&#45;&gt;2</title>
<path fill="none" stroke="black" d="M404.462,-407.977C388.514,-398.163 361.465,-381.517 343.792,-370.642"/>
<polygon fill="black" stroke="black" points="339.514,-368.009 344.951,-368.713 341.643,-369.319 343.772,-370.629 343.772,-370.629 343.772,-370.629 341.643,-369.319 342.593,-372.545 339.514,-368.009 339.514,-368.009"/>
</g>
<!-- 3 -->
<g id="s3" class="node"><title>3</title>
<g id="a_s3"><a xlink:href="./3.svg" xlink:title="3">
<ellipse fill="none" stroke="black" cx="448.5" cy="-359" rx="21.5" ry="11"/>
<text text-anchor="middle" x="448.5" y="-356.8" font-family="monospace" font-size="9.00">3</text>
</a>
</g>
</g>
<!-- 0&#45;&gt;3 -->
<g id="edge17" class="edge"><title>0&#45;&gt;3</title>
<path fill="none" stroke="black" d="M422.9,-406.246C427.73,-397.52 434.878,-384.608 440.394,-374.643"/>
<polygon fill="black" stroke="black" points="442.953,-370.02 442.5,-375.484 441.743,-372.207 440.532,-374.394 440.532,-374.394 440.532,-374.394 441.743,-372.207 438.563,-373.304 442.953,-370.02 442.953,-370.02"/>
</g>
<!-- 4 -->
<g id="s4" class="node"><title>4</title>
<g id="a_s4"><a xlink:href="./4.svg" xlink:title="4">
<ellipse fill="none" stroke="black" cx="539.5" cy="-359" rx="21.5" ry="11"/>
<text text-anchor="middle" x="539.5" y="-356.8" font-family="monospace" font-size="9.00">4</text>
</a>
</g>
</g>
<!-- 0&#45;&gt;4 -->
<g id="edge18" class="edge"><title>0&#45;&gt;4</title>
<path fill="none" stroke="black" d="M432.951,-408.908C454.952,-398.809 495.318,-380.28 519.552,-369.156"/>
<polygon fill="black" stroke="black" points="524.174,-367.035 520.569,-371.166 521.902,-368.078 519.63,-369.121 519.63,-369.121 519.63,-369.121 521.902,-368.078 518.691,-367.076 524.174,-367.035 524.174,-367.035"/>
</g>
<!-- 47 -->
<g id="s47" class="node"><title>47</title>
<g id="a_s47"><a xlink:href="./47.svg" xlink:title="47">
<ellipse fill="none" stroke="black" cx="326.5" cy="-127" rx="21.5" ry="11"/>
<text text-anchor="middle" x="326.5" y="-124.8" font-family="monospace" font-size="9.00">47</text>
</a>
</g>
</g>
<!-- 56 -->
<g id="s56" class="node"><title>56</title>
<g id="a_s56"><a xlink:href="./56.svg" xlink:title="56">
<ellipse fill="none" stroke="black" cx="143.5" cy="-69" rx="21.5" ry="11"/>
<text text-anchor="middle" x="143.5" y="-66.8" font-family="monospace" font-size="9.00">56</text>
</a>
</g>
</g>
<!-- 47&#45;&gt;56 -->
<g id="edge32" class="edge"><title>47&#45;&gt;56</title>
<path fill="none" stroke="black" d="M309.402,-120.179C305.193,-118.78 300.692,-117.312 296.5,-116 242.139,-98.9909 227.861,-97.0091 173.5,-80 170.88,-79.1803 168.139,-78.2993 165.425,-77.4123"/>
<polygon fill="black" stroke="black" points="160.598,-75.821 166.051,-75.2498 162.973,-76.6038 165.347,-77.3867 165.347,-77.3867 165.347,-77.3867 162.973,-76.6038 164.642,-79.5235 160.598,-75.821 160.598,-75.821"/>
</g>
<!-- 50 -->
<g id="s50" class="node"><title>50</title>
<g id="a_s50"><a xlink:href="./50.svg" xlink:title="50">
<ellipse fill="none" stroke="black" cx="387.5" cy="-69" rx="21.5" ry="11"/>
<text text-anchor="middle" x="387.5" y="-66.8" font-family="monospace" font-size="9.00">50</text>
</a>
</g>
</g>
<!-- 47&#45;&gt;50 -->
<g id="edge33" class="edge"><title>47&#45;&gt;50</title>
<path fill="none" stroke="black" d="M336.301,-117.003C346.379,-107.75 362.166,-93.2571 373.546,-82.8098"/>
<polygon fill="black" stroke="black" points="377.521,-79.1611 375.359,-84.1999 375.679,-80.8518 373.838,-82.5425 373.838,-82.5425 373.838,-82.5425 375.679,-80.8518 372.316,-80.885 377.521,-79.1611 377.521,-79.1611"/>
</g>
<!-- 41 -->
<g id="s41" class="node"><title>41</title>
<g id="a_s41"><a xlink:href="./41.svg" xlink:title="41">
<ellipse fill="none" stroke="black" cx="387.5" cy="-127" rx="21.5" ry="11"/>
<text text-anchor="middle" x="387.5" y="-124.8" font-family="monospace" font-size="9.00">41</text>
</a>
</g>
</g>
<!-- 52 -->
<g id="s52" class="node"><title>52</title>
<g id="a_s52"><a xlink:href="./52.svg" xlink:title="52">
<ellipse fill="none" stroke="black" cx="509.5" cy="-69" rx="21.5" ry="11"/>
<text text-anchor="middle" x="509.5" y="-66.8" font-family="monospace" font-size="9.00">52</text>
</a>
</g>
</g>
<!-- 41&#45;&gt;52 -->
<g id="edge23" class="edge"><title>41&#45;&gt;52</title>
<path fill="none" stroke="black" d="M402.951,-118.908C424.952,-108.809 465.318,-90.2803 489.552,-79.1563"/>
<polygon fill="black" stroke="black" points="494.174,-77.0349 490.569,-81.1656 491.902,-78.0778 489.63,-79.1207 489.63,-79.1207 489.63,-79.1207 491.902,-78.0778 488.691,-77.0759 494.174,-77.0349 494.174,-77.0349"/>
</g>
<!-- 41&#45;&gt;50 -->
<g id="edge24" class="edge"><title>41&#45;&gt;50</title>
<path fill="none" stroke="black" d="M387.5,-115.988C387.5,-107.494 387.5,-95.1697 387.5,-85.4169"/>
<polygon fill="black" stroke="black" points="387.5,-80.3039 389.75,-85.3038 387.5,-82.8039 387.5,-85.3039 387.5,-85.3039 387.5,-85.3039 387.5,-82.8039 385.25,-85.3039 387.5,-80.3039 387.5,-80.3039"/>
</g>
<!-- 37 -->
<g id="s37" class="node"><title>37</title>
<g id="a_s37"><a xlink:href="./37.svg" xlink:title="37">
<ellipse fill="none" stroke="black" cx="753.5" cy="-127" rx="21.5" ry="11"/>
<text text-anchor="middle" x="753.5" y="-124.8" font-family="monospace" font-size="9.00">37</text>
</a>
</g>
</g>
<!-- 49 -->
<g id="s49" class="node"><title>49</title>
<g id="a_s49"><a xlink:href="./49.svg" xlink:title="49">
<ellipse fill="none" stroke="black" cx="783.5" cy="-69" rx="21.5" ry="11"/>
<text text-anchor="middle" x="783.5" y="-66.8" font-family="monospace" font-size="9.00">49</text>
</a>
</g>
</g>
<!-- 37&#45;&gt;49 -->
<g id="edge25" class="edge"><title>37&#45;&gt;49</title>
<path fill="none" stroke="black" d="M758.726,-116.246C763.4,-107.52 770.317,-94.6082 775.655,-84.6435"/>
<polygon fill="black" stroke="black" points="778.132,-80.0198 777.754,-85.4897 776.952,-82.2235 775.771,-84.4272 775.771,-84.4272 775.771,-84.4272 776.952,-82.2235 773.788,-83.3646 778.132,-80.0198 778.132,-80.0198"/>
</g>
<!-- 37&#45;&gt;50 -->
<g id="edge26" class="edge"><title>37&#45;&gt;50</title>
<path fill="none" stroke="black" d="M736.852,-119.78C732.551,-118.359 727.894,-116.981 723.5,-116 590.282,-86.263 551.861,-109.09 418.5,-80 415.454,-79.3356 412.283,-78.4937 409.181,-77.5815"/>
<polygon fill="black" stroke="black" points="404.392,-76.1056 409.833,-75.4281 406.781,-76.8419 409.17,-77.5783 409.17,-77.5783 409.17,-77.5783 406.781,-76.8419 408.508,-79.7285 404.392,-76.1056 404.392,-76.1056"/>
</g>
<!-- 19 -->
<g id="s19" class="node"><title>19</title>
<g id="a_s19"><a xlink:href="./19.svg" xlink:title="19">
<ellipse fill="none" stroke="black" cx="326.5" cy="-243" rx="21.5" ry="11"/>
<text text-anchor="middle" x="326.5" y="-240.8" font-family="monospace" font-size="9.00">19</text>
</a>
</g>
</g>
<!-- 32 -->
<g id="s32" class="node"><title>32</title>
<g id="a_s32"><a xlink:href="./32.svg" xlink:title="32">
<ellipse fill="none" stroke="black" cx="204.5" cy="-185" rx="21.5" ry="11"/>
<text text-anchor="middle" x="204.5" y="-182.8" font-family="monospace" font-size="9.00">32</text>
</a>
</g>
</g>
<!-- 19&#45;&gt;32 -->
<g id="edge57" class="edge"><title>19&#45;&gt;32</title>
<path fill="none" stroke="black" d="M311.049,-234.908C289.048,-224.809 248.682,-206.28 224.448,-195.156"/>
<polygon fill="black" stroke="black" points="219.826,-193.035 225.309,-193.076 222.098,-194.078 224.37,-195.121 224.37,-195.121 224.37,-195.121 222.098,-194.078 223.431,-197.166 219.826,-193.035 219.826,-193.035"/>
</g>
<!-- 30 -->
<g id="s30" class="node"><title>30</title>
<g id="a_s30"><a xlink:href="./30.svg" xlink:title="30">
<ellipse fill="none" stroke="black" cx="265.5" cy="-185" rx="21.5" ry="11"/>
<text text-anchor="middle" x="265.5" y="-182.8" font-family="monospace" font-size="9.00">30</text>
</a>
</g>
</g>
<!-- 19&#45;&gt;30 -->
<g id="edge56" class="edge"><title>19&#45;&gt;30</title>
<path fill="none" stroke="black" d="M316.699,-233.003C306.621,-223.75 290.834,-209.257 279.454,-198.81"/>
<polygon fill="black" stroke="black" points="275.479,-195.161 280.684,-196.885 277.321,-196.852 279.162,-198.542 279.162,-198.542 279.162,-198.542 277.321,-196.852 277.641,-200.2 275.479,-195.161 275.479,-195.161"/>
</g>
<!-- 33 -->
<g id="s33" class="node"><title>33</title>
<g id="a_s33"><a xlink:href="./33.svg" xlink:title="33">
<ellipse fill="none" stroke="black" cx="326.5" cy="-185" rx="21.5" ry="11"/>
<text text-anchor="middle" x="326.5" y="-182.8" font-family="monospace" font-size="9.00">33</text>
</a>
</g>
</g>
<!-- 19&#45;&gt;33 -->
<g id="edge58" class="edge"><title>19&#45;&gt;33</title>
<path fill="none" stroke="black" d="M326.5,-231.988C326.5,-223.494 326.5,-211.17 326.5,-201.417"/>
<polygon fill="black" stroke="black" points="326.5,-196.304 328.75,-201.304 326.5,-198.804 326.5,-201.304 326.5,-201.304 326.5,-201.304 326.5,-198.804 324.25,-201.304 326.5,-196.304 326.5,-196.304"/>
</g>
<!-- 16 -->
<g id="s16" class="node"><title>16</title>
<g id="a_s16"><a xlink:href="./16.svg" xlink:title="16">
<ellipse fill="none" stroke="black" cx="448.5" cy="-243" rx="21.5" ry="11"/>
<text text-anchor="middle" x="448.5" y="-240.8" font-family="monospace" font-size="9.00">16</text>
</a>
</g>
</g>
<!-- 27 -->
<g id="s27" class="node"><title>27</title>
<g id="a_s27"><a xlink:href="./27.svg" xlink:title="27">
<ellipse fill="none" stroke="black" cx="448.5" cy="-185" rx="21.5" ry="11"/>
<text text-anchor="middle" x="448.5" y="-182.8" font-family="monospace" font-size="9.00">27</text>
</a>
</g>
</g>
<!-- 16&#45;&gt;27 -->
<g id="edge77" class="edge"><title>16&#45;&gt;27</title>
<path fill="none" stroke="black" d="M448.5,-231.988C448.5,-223.494 448.5,-211.17 448.5,-201.417"/>
<polygon fill="black" stroke="black" points="448.5,-196.304 450.75,-201.304 448.5,-198.804 448.5,-201.304 448.5,-201.304 448.5,-201.304 448.5,-198.804 446.25,-201.304 448.5,-196.304 448.5,-196.304"/>
</g>
<!-- 25 -->
<g id="s25" class="node"><title>25</title>
<g id="a_s25"><a xlink:href="./25.svg" xlink:title="25">
<ellipse fill="none" stroke="black" cx="631.5" cy="-185" rx="21.5" ry="11"/>
<text text-anchor="middle" x="631.5" y="-182.8" font-family="monospace" font-size="9.00">25</text>
</a>
</g>
</g>
<!-- 16&#45;&gt;25 -->
<g id="edge76" class="edge"><title>16&#45;&gt;25</title>
<path fill="none" stroke="black" d="M465.855,-236.317C470.296,-234.886 475.069,-233.368 479.5,-232 533.517,-215.321 547.564,-212.941 601.5,-196 604.119,-195.177 606.859,-194.295 609.574,-193.407"/>
<polygon fill="black" stroke="black" points="614.4,-191.814 610.356,-195.518 612.025,-192.598 609.651,-193.381 609.651,-193.381 609.651,-193.381 612.025,-192.598 608.946,-191.244 614.4,-191.814 614.4,-191.814"/>
</g>
<!-- 28 -->
<g id="s28" class="node"><title>28</title>
<g id="a_s28"><a xlink:href="./28.svg" xlink:title="28">
<ellipse fill="none" stroke="black" cx="387.5" cy="-185" rx="21.5" ry="11"/>
<text text-anchor="middle" x="387.5" y="-182.8" font-family="monospace" font-size="9.00">28</text>
</a>
</g>
</g>
<!-- 16&#45;&gt;28 -->
<g id="edge78" class="edge"><title>16&#45;&gt;28</title>
<path fill="none" stroke="black" d="M438.699,-233.003C428.621,-223.75 412.834,-209.257 401.454,-198.81"/>
<polygon fill="black" stroke="black" points="397.479,-195.161 402.684,-196.885 399.321,-196.852 401.162,-198.542 401.162,-198.542 401.162,-198.542 399.321,-196.852 399.641,-200.2 397.479,-195.161 397.479,-195.161"/>
</g>
<!-- 13 -->
<g id="s13" class="node"><title>13</title>
<g id="a_s13"><a xlink:href="./13.svg" xlink:title="13">
<ellipse fill="none" stroke="black" cx="753.5" cy="-243" rx="21.5" ry="11"/>
<text text-anchor="middle" x="753.5" y="-240.8" font-family="monospace" font-size="9.00">13</text>
</a>
</g>
</g>
<!-- 21 -->
<g id="s21" class="node"><title>21</title>
<g id="a_s21"><a xlink:href="./21.svg" xlink:title="21">
<ellipse fill="none" stroke="black" cx="814.5" cy="-185" rx="21.5" ry="11"/>
<text text-anchor="middle" x="814.5" y="-182.8" font-family="monospace" font-size="9.00">21</text>
</a>
</g>
</g>
<!-- 13&#45;&gt;21 -->
<g id="edge60" class="edge"><title>13&#45;&gt;21</title>
<path fill="none" stroke="black" d="M763.301,-233.003C773.379,-223.75 789.166,-209.257 800.546,-198.81"/>
<polygon fill="black" stroke="black" points="804.521,-195.161 802.359,-200.2 802.679,-196.852 800.838,-198.542 800.838,-198.542 800.838,-198.542 802.679,-196.852 799.316,-196.885 804.521,-195.161 804.521,-195.161"/>
</g>
<!-- 24 -->
<g id="s24" class="node"><title>24</title>
<g id="a_s24"><a xlink:href="./24.svg" xlink:title="24">
<ellipse fill="none" stroke="black" cx="753.5" cy="-185" rx="21.5" ry="11"/>
<text text-anchor="middle" x="753.5" y="-182.8" font-family="monospace" font-size="9.00">24</text>
</a>
</g>
</g>
<!-- 13&#45;&gt;24 -->
<g id="edge61" class="edge"><title>13&#45;&gt;24</title>
<path fill="none" stroke="black" d="M753.5,-231.988C753.5,-223.494 753.5,-211.17 753.5,-201.417"/>
<polygon fill="black" stroke="black" points="753.5,-196.304 755.75,-201.304 753.5,-198.804 753.5,-201.304 753.5,-201.304 753.5,-201.304 753.5,-198.804 751.25,-201.304 753.5,-196.304 753.5,-196.304"/>
</g>
<!-- 11 -->
<g id="s11" class="node"><title>11</title>
<g id="a_s11"><a xlink:href="./11.svg" xlink:title="11">
<ellipse fill="none" stroke="black" cx="265.5" cy="-301" rx="21.5" ry="11"/>
<text text-anchor="middle" x="265.5" y="-298.8" font-family="monospace" font-size="9.00">11</text>
</a>
</g>
</g>
<!-- 11&#45;&gt;19 -->
<g id="edge66" class="edge"><title>11&#45;&gt;19</title>
<path fill="none" stroke="black" d="M275.301,-291.003C285.379,-281.75 301.166,-267.257 312.546,-256.81"/>
<polygon fill="black" stroke="black" points="316.521,-253.161 314.359,-258.2 314.679,-254.852 312.838,-256.542 312.838,-256.542 312.838,-256.542 314.679,-254.852 311.316,-254.885 316.521,-253.161 316.521,-253.161"/>
</g>
<!-- 18 -->
<g id="s18" class="node"><title>18</title>
<g id="a_s18"><a xlink:href="./18.svg" xlink:title="18">
<ellipse fill="none" stroke="black" cx="204.5" cy="-243" rx="21.5" ry="11"/>
<text text-anchor="middle" x="204.5" y="-240.8" font-family="monospace" font-size="9.00">18</text>
</a>
</g>
</g>
<!-- 11&#45;&gt;18 -->
<g id="edge65" class="edge"><title>11&#45;&gt;18</title>
<path fill="none" stroke="black" d="M255.699,-291.003C245.621,-281.75 229.834,-267.257 218.454,-256.81"/>
<polygon fill="black" stroke="black" points="214.479,-253.161 219.684,-254.885 216.321,-254.852 218.162,-256.542 218.162,-256.542 218.162,-256.542 216.321,-254.852 216.641,-258.2 214.479,-253.161 214.479,-253.161"/>
</g>
<!-- 20 -->
<g id="s20" class="node"><title>20</title>
<g id="a_s20"><a xlink:href="./20.svg" xlink:title="20">
<ellipse fill="none" stroke="black" cx="265.5" cy="-243" rx="21.5" ry="11"/>
<text text-anchor="middle" x="265.5" y="-240.8" font-family="monospace" font-size="9.00">20</text>
</a>
</g>
</g>
<!-- 11&#45;&gt;20 -->
<g id="edge67" class="edge"><title>11&#45;&gt;20</title>
<path fill="none" stroke="black" d="M265.5,-289.988C265.5,-281.494 265.5,-269.17 265.5,-259.417"/>
<polygon fill="black" stroke="black" points="265.5,-254.304 267.75,-259.304 265.5,-256.804 265.5,-259.304 265.5,-259.304 265.5,-259.304 265.5,-256.804 263.25,-259.304 265.5,-254.304 265.5,-254.304"/>
</g>
<!-- 9 -->
<g id="s9" class="node"><title>9</title>
<g id="a_s9"><a xlink:href="./9.svg" xlink:title="9">
<ellipse fill="none" stroke="black" cx="509.5" cy="-301" rx="21.5" ry="11"/>
<text text-anchor="middle" x="509.5" y="-298.8" font-family="monospace" font-size="9.00">9</text>
</a>
</g>
</g>
<!-- 9&#45;&gt;16 -->
<g id="edge63" class="edge"><title>9&#45;&gt;16</title>
<path fill="none" stroke="black" d="M499.699,-291.003C489.621,-281.75 473.834,-267.257 462.454,-256.81"/>
<polygon fill="black" stroke="black" points="458.479,-253.161 463.684,-254.885 460.321,-254.852 462.162,-256.542 462.162,-256.542 462.162,-256.542 460.321,-254.852 460.641,-258.2 458.479,-253.161 458.479,-253.161"/>
</g>
<!-- 15 -->
<g id="s15" class="node"><title>15</title>
<g id="a_s15"><a xlink:href="./15.svg" xlink:title="15">
<ellipse fill="none" stroke="black" cx="509.5" cy="-243" rx="21.5" ry="11"/>
<text text-anchor="middle" x="509.5" y="-240.8" font-family="monospace" font-size="9.00">15</text>
</a>
</g>
</g>
<!-- 9&#45;&gt;15 -->
<g id="edge62" class="edge"><title>9&#45;&gt;15</title>
<path fill="none" stroke="black" d="M509.5,-289.988C509.5,-281.494 509.5,-269.17 509.5,-259.417"/>
<polygon fill="black" stroke="black" points="509.5,-254.304 511.75,-259.304 509.5,-256.804 509.5,-259.304 509.5,-259.304 509.5,-259.304 509.5,-256.804 507.25,-259.304 509.5,-254.304 509.5,-254.304"/>
</g>
<!-- 17 -->
<g id="s17" class="node"><title>17</title>
<g id="a_s17"><a xlink:href="./17.svg" xlink:title="17">
<ellipse fill="none" stroke="black" cx="600.5" cy="-243" rx="21.5" ry="11"/>
<text text-anchor="middle" x="600.5" y="-240.8" font-family="monospace" font-size="9.00">17</text>
</a>
</g>
</g>
<!-- 9&#45;&gt;17 -->
<g id="edge64" class="edge"><title>9&#45;&gt;17</title>
<path fill="none" stroke="black" d="M522.538,-291.977C538.486,-282.163 565.535,-265.517 583.208,-254.642"/>
<polygon fill="black" stroke="black" points="587.486,-252.009 584.407,-256.545 585.357,-253.319 583.228,-254.629 583.228,-254.629 583.228,-254.629 585.357,-253.319 582.049,-252.713 587.486,-252.009 587.486,-252.009"/>
</g>
<!-- 6 -->
<g id="s6" class="node"><title>6</title>
<g id="a_s6"><a xlink:href="./6.svg" xlink:title="6">
<ellipse fill="none" stroke="black" cx="753.5" cy="-301" rx="21.5" ry="11"/>
<text text-anchor="middle" x="753.5" y="-298.8" font-family="monospace" font-size="9.00">6</text>
</a>
</g>
</g>
<!-- 6&#45;&gt;13 -->
<g id="edge47" class="edge"><title>6&#45;&gt;13</title>
<path fill="none" stroke="black" d="M753.5,-289.988C753.5,-281.494 753.5,-269.17 753.5,-259.417"/>
<polygon fill="black" stroke="black" points="753.5,-254.304 755.75,-259.304 753.5,-256.804 753.5,-259.304 753.5,-259.304 753.5,-259.304 753.5,-256.804 751.25,-259.304 753.5,-254.304 753.5,-254.304"/>
</g>
<!-- 14 -->
<g id="s14" class="node"><title>14</title>
<g id="a_s14"><a xlink:href="./14.svg" xlink:title="14">
<ellipse fill="none" stroke="black" cx="814.5" cy="-243" rx="21.5" ry="11"/>
<text text-anchor="middle" x="814.5" y="-240.8" font-family="monospace" font-size="9.00">14</text>
</a>
</g>
</g>
<!-- 6&#45;&gt;14 -->
<g id="edge48" class="edge"><title>6&#45;&gt;14</title>
<path fill="none" stroke="black" d="M763.301,-291.003C773.379,-281.75 789.166,-267.257 800.546,-256.81"/>
<polygon fill="black" stroke="black" points="804.521,-253.161 802.359,-258.2 802.679,-254.852 800.838,-256.542 800.838,-256.542 800.838,-256.542 802.679,-254.852 799.316,-254.885 804.521,-253.161 804.521,-253.161"/>
</g>
<!-- 23 -->
<g id="s23" class="node"><title>23</title>
<g id="a_s23"><a xlink:href="./23.svg" xlink:title="23">
<ellipse fill="none" stroke="black" cx="692.5" cy="-185" rx="21.5" ry="11"/>
<text text-anchor="middle" x="692.5" y="-182.8" font-family="monospace" font-size="9.00">23</text>
</a>
</g>
</g>
<!-- 35 -->
<g id="s35" class="node"><title>35</title>
<g id="a_s35"><a xlink:href="./35.svg" xlink:title="35">
<ellipse fill="none" stroke="black" cx="692.5" cy="-127" rx="21.5" ry="11"/>
<text text-anchor="middle" x="692.5" y="-124.8" font-family="monospace" font-size="9.00">35</text>
</a>
</g>
</g>
<!-- 23&#45;&gt;35 -->
<g id="edge82" class="edge"><title>23&#45;&gt;35</title>
<path fill="none" stroke="black" d="M692.5,-173.988C692.5,-165.494 692.5,-153.17 692.5,-143.417"/>
<polygon fill="black" stroke="black" points="692.5,-138.304 694.75,-143.304 692.5,-140.804 692.5,-143.304 692.5,-143.304 692.5,-143.304 692.5,-140.804 690.25,-143.304 692.5,-138.304 692.5,-138.304"/>
</g>
<!-- 10 -->
<g id="s10" class="node"><title>10</title>
<g id="a_s10"><a xlink:href="./10.svg" xlink:title="10">
<ellipse fill="none" stroke="black" cx="326.5" cy="-301" rx="21.5" ry="11"/>
<text text-anchor="middle" x="326.5" y="-298.8" font-family="monospace" font-size="9.00">10</text>
</a>
</g>
</g>
<!-- 1&#45;&gt;10 -->
<g id="edge83" class="edge"><title>1&#45;&gt;10</title>
<path fill="none" stroke="black" d="M377.699,-349.003C367.621,-339.75 351.834,-325.257 340.454,-314.81"/>
<polygon fill="black" stroke="black" points="336.479,-311.161 341.684,-312.885 338.321,-312.852 340.162,-314.542 340.162,-314.542 340.162,-314.542 338.321,-312.852 338.641,-316.2 336.479,-311.161 336.479,-311.161"/>
</g>
<!-- 8 -->
<g id="s8" class="node"><title>8</title>
<g id="a_s8"><a xlink:href="./8.svg" xlink:title="8">
<ellipse fill="none" stroke="black" cx="387.5" cy="-301" rx="21.5" ry="11"/>
<text text-anchor="middle" x="387.5" y="-298.8" font-family="monospace" font-size="9.00">8</text>
</a>
</g>
</g>
<!-- 1&#45;&gt;8 -->
<g id="edge84" class="edge"><title>1&#45;&gt;8</title>
<path fill="none" stroke="black" d="M387.5,-347.988C387.5,-339.494 387.5,-327.17 387.5,-317.417"/>
<polygon fill="black" stroke="black" points="387.5,-312.304 389.75,-317.304 387.5,-314.804 387.5,-317.304 387.5,-317.304 387.5,-317.304 387.5,-314.804 385.25,-317.304 387.5,-312.304 387.5,-312.304"/>
</g>
<!-- 5 -->
<g id="s5" class="node"><title>5</title>
<g id="a_s5"><a xlink:href="./5.svg" xlink:title="5">
<ellipse fill="none" stroke="black" cx="570.5" cy="-301" rx="21.5" ry="11"/>
<text text-anchor="middle" x="570.5" y="-298.8" font-family="monospace" font-size="9.00">5</text>
</a>
</g>
</g>
<!-- 1&#45;&gt;5 -->
<g id="edge85" class="edge"><title>1&#45;&gt;5</title>
<path fill="none" stroke="black" d="M404.855,-352.317C409.296,-350.886 414.069,-349.368 418.5,-348 472.517,-331.321 486.564,-328.941 540.5,-312 543.119,-311.177 545.859,-310.295 548.574,-309.407"/>
<polygon fill="black" stroke="black" points="553.4,-307.814 549.356,-311.518 551.025,-308.598 548.651,-309.381 548.651,-309.381 548.651,-309.381 551.025,-308.598 547.946,-307.244 553.4,-307.814 553.4,-307.814"/>
</g>
<!-- 48 -->
<g id="s48" class="node"><title>48</title>
<g id="a_s48"><a xlink:href="./48.svg" xlink:title="48">
<ellipse fill="none" stroke="black" cx="143.5" cy="-127" rx="21.5" ry="11"/>
<text text-anchor="middle" x="143.5" y="-124.8" font-family="monospace" font-size="9.00">48</text>
</a>
</g>
</g>
<!-- 55 -->
<g id="s55" class="node"><title>55</title>
<g id="a_s55"><a xlink:href="./55.svg" xlink:title="55">
<ellipse fill="none" stroke="black" cx="82.5" cy="-69" rx="21.5" ry="11"/>
<text text-anchor="middle" x="82.5" y="-66.8" font-family="monospace" font-size="9.00">55</text>
</a>
</g>
</g>
<!-- 48&#45;&gt;55 -->
<g id="edge39" class="edge"><title>48&#45;&gt;55</title>
<path fill="none" stroke="black" d="M133.699,-117.003C123.621,-107.75 107.834,-93.2571 96.4535,-82.8098"/>
<polygon fill="black" stroke="black" points="92.479,-79.1611 97.6839,-80.885 94.3207,-80.8518 96.1623,-82.5425 96.1623,-82.5425 96.1623,-82.5425 94.3207,-80.8518 94.6407,-84.1999 92.479,-79.1611 92.479,-79.1611"/>
</g>
<!-- 54 -->
<g id="s54" class="node"><title>54</title>
<g id="a_s54"><a xlink:href="./54.svg" xlink:title="54">
<ellipse fill="none" stroke="black" cx="265.5" cy="-69" rx="21.5" ry="11"/>
<text text-anchor="middle" x="265.5" y="-66.8" font-family="monospace" font-size="9.00">54</text>
</a>
</g>
</g>
<!-- 48&#45;&gt;54 -->
<g id="edge40" class="edge"><title>48&#45;&gt;54</title>
<path fill="none" stroke="black" d="M158.951,-118.908C180.952,-108.809 221.318,-90.2803 245.552,-79.1563"/>
<polygon fill="black" stroke="black" points="250.174,-77.0349 246.569,-81.1656 247.902,-78.0778 245.63,-79.1207 245.63,-79.1207 245.63,-79.1207 247.902,-78.0778 244.691,-77.0759 250.174,-77.0349 250.174,-77.0349"/>
</g>
<!-- 42 -->
<g id="s42" class="node"><title>42</title>
<g id="a_s42"><a xlink:href="./42.svg" xlink:title="42">
<ellipse fill="none" stroke="black" cx="509.5" cy="-127" rx="21.5" ry="11"/>
<text text-anchor="middle" x="509.5" y="-124.8" font-family="monospace" font-size="9.00">42</text>
</a>
</g>
</g>
<!-- 51 -->
<g id="s51" class="node"><title>51</title>
<g id="a_s51"><a xlink:href="./51.svg" xlink:title="51">
<ellipse fill="none" stroke="black" cx="570.5" cy="-69" rx="21.5" ry="11"/>
<text text-anchor="middle" x="570.5" y="-66.8" font-family="monospace" font-size="9.00">51</text>
</a>
</g>
</g>
<!-- 42&#45;&gt;51 -->
<g id="edge19" class="edge"><title>42&#45;&gt;51</title>
<path fill="none" stroke="black" d="M519.301,-117.003C529.379,-107.75 545.166,-93.2571 556.546,-82.8098"/>
<polygon fill="black" stroke="black" points="560.521,-79.1611 558.359,-84.1999 558.679,-80.8518 556.838,-82.5425 556.838,-82.5425 556.838,-82.5425 558.679,-80.8518 555.316,-80.885 560.521,-79.1611 560.521,-79.1611"/>
</g>
<!-- 42&#45;&gt;54 -->
<g id="edge20" class="edge"><title>42&#45;&gt;54</title>
<path fill="none" stroke="black" d="M492.781,-120.065C488.481,-118.639 483.843,-117.187 479.5,-116 411.791,-97.4983 330.384,-81.7484 290.293,-74.4109"/>
<polygon fill="black" stroke="black" points="285.148,-73.474 290.47,-72.1562 287.607,-73.9219 290.067,-74.3698 290.067,-74.3698 290.067,-74.3698 287.607,-73.9219 289.664,-76.5834 285.148,-73.474 285.148,-73.474"/>
</g>
<!-- 44 -->
<g id="s44" class="node"><title>44</title>
<g id="a_s44"><a xlink:href="./44.svg" xlink:title="44">
<ellipse fill="none" stroke="black" cx="21.5" cy="-127" rx="21.5" ry="11"/>
<text text-anchor="middle" x="21.5" y="-124.8" font-family="monospace" font-size="9.00">44</text>
</a>
</g>
</g>
<!-- 44&#45;&gt;55 -->
<g id="edge31" class="edge"><title>44&#45;&gt;55</title>
<path fill="none" stroke="black" d="M31.3007,-117.003C41.3789,-107.75 57.1664,-93.2571 68.5465,-82.8098"/>
<polygon fill="black" stroke="black" points="72.521,-79.1611 70.3593,-84.1999 70.6793,-80.8518 68.8377,-82.5425 68.8377,-82.5425 68.8377,-82.5425 70.6793,-80.8518 67.3161,-80.885 72.521,-79.1611 72.521,-79.1611"/>
</g>
<!-- 38 -->
<g id="s38" class="node"><title>38</title>
<g id="a_s38"><a xlink:href="./38.svg" xlink:title="38">
<ellipse fill="none" stroke="black" cx="570.5" cy="-127" rx="21.5" ry="11"/>
<text text-anchor="middle" x="570.5" y="-124.8" font-family="monospace" font-size="9.00">38</text>
</a>
</g>
</g>
<!-- 38&#45;&gt;51 -->
<g id="edge44" class="edge"><title>38&#45;&gt;51</title>
<path fill="none" stroke="black" d="M570.5,-115.988C570.5,-107.494 570.5,-95.1697 570.5,-85.4169"/>
<polygon fill="black" stroke="black" points="570.5,-80.3039 572.75,-85.3038 570.5,-82.8039 570.5,-85.3039 570.5,-85.3039 570.5,-85.3039 570.5,-82.8039 568.25,-85.3039 570.5,-80.3039 570.5,-80.3039"/>
</g>
<!-- 32&#45;&gt;48 -->
<g id="edge55" class="edge"><title>32&#45;&gt;48</title>
<path fill="none" stroke="black" d="M194.699,-175.003C184.621,-165.75 168.834,-151.257 157.454,-140.81"/>
<polygon fill="black" stroke="black" points="153.479,-137.161 158.684,-138.885 155.321,-138.852 157.162,-140.542 157.162,-140.542 157.162,-140.542 155.321,-138.852 155.641,-142.2 153.479,-137.161 153.479,-137.161"/>
</g>
<!-- 46 -->
<g id="s46" class="node"><title>46</title>
<g id="a_s46"><a xlink:href="./46.svg" xlink:title="46">
<ellipse fill="none" stroke="black" cx="204.5" cy="-127" rx="21.5" ry="11"/>
<text text-anchor="middle" x="204.5" y="-124.8" font-family="monospace" font-size="9.00">46</text>
</a>
</g>
</g>
<!-- 32&#45;&gt;46 -->
<g id="edge54" class="edge"><title>32&#45;&gt;46</title>
<path fill="none" stroke="black" d="M204.5,-173.988C204.5,-165.494 204.5,-153.17 204.5,-143.417"/>
<polygon fill="black" stroke="black" points="204.5,-138.304 206.75,-143.304 204.5,-140.804 204.5,-143.304 204.5,-143.304 204.5,-143.304 204.5,-140.804 202.25,-143.304 204.5,-138.304 204.5,-138.304"/>
</g>
<!-- 27&#45;&gt;42 -->
<g id="edge46" class="edge"><title>27&#45;&gt;42</title>
<path fill="none" stroke="black" d="M458.301,-175.003C468.379,-165.75 484.166,-151.257 495.546,-140.81"/>
<polygon fill="black" stroke="black" points="499.521,-137.161 497.359,-142.2 497.679,-138.852 495.838,-140.542 495.838,-140.542 495.838,-140.542 497.679,-138.852 494.316,-138.885 499.521,-137.161 499.521,-137.161"/>
</g>
<!-- 40 -->
<g id="s40" class="node"><title>40</title>
<g id="a_s40"><a xlink:href="./40.svg" xlink:title="40">
<ellipse fill="none" stroke="black" cx="448.5" cy="-127" rx="21.5" ry="11"/>
<text text-anchor="middle" x="448.5" y="-124.8" font-family="monospace" font-size="9.00">40</text>
</a>
</g>
</g>
<!-- 27&#45;&gt;40 -->
<g id="edge45" class="edge"><title>27&#45;&gt;40</title>
<path fill="none" stroke="black" d="M448.5,-173.988C448.5,-165.494 448.5,-153.17 448.5,-143.417"/>
<polygon fill="black" stroke="black" points="448.5,-138.304 450.75,-143.304 448.5,-140.804 448.5,-143.304 448.5,-143.304 448.5,-143.304 448.5,-140.804 446.25,-143.304 448.5,-138.304 448.5,-138.304"/>
</g>
<!-- 2&#45;&gt;11 -->
<g id="edge6" class="edge"><title>2&#45;&gt;11</title>
<path fill="none" stroke="black" d="M316.699,-349.003C306.621,-339.75 290.834,-325.257 279.454,-314.81"/>
<polygon fill="black" stroke="black" points="275.479,-311.161 280.684,-312.885 277.321,-312.852 279.162,-314.542 279.162,-314.542 279.162,-314.542 277.321,-312.852 277.641,-316.2 275.479,-311.161 275.479,-311.161"/>
</g>
<!-- 2&#45;&gt;10 -->
<g id="edge5" class="edge"><title>2&#45;&gt;10</title>
<path fill="none" stroke="black" d="M326.5,-347.988C326.5,-339.494 326.5,-327.17 326.5,-317.417"/>
<polygon fill="black" stroke="black" points="326.5,-312.304 328.75,-317.304 326.5,-314.804 326.5,-317.304 326.5,-317.304 326.5,-317.304 326.5,-314.804 324.25,-317.304 326.5,-312.304 326.5,-312.304"/>
</g>
<!-- 7 -->
<g id="s7" class="node"><title>7</title>
<g id="a_s7"><a xlink:href="./7.svg" xlink:title="7">
<ellipse fill="none" stroke="black" cx="448.5" cy="-301" rx="21.5" ry="11"/>
<text text-anchor="middle" x="448.5" y="-298.8" font-family="monospace" font-size="9.00">7</text>
</a>
</g>
</g>
<!-- 2&#45;&gt;7 -->
<g id="edge4" class="edge"><title>2&#45;&gt;7</title>
<path fill="none" stroke="black" d="M341.951,-350.908C363.952,-340.809 404.318,-322.28 428.552,-311.156"/>
<polygon fill="black" stroke="black" points="433.174,-309.035 429.569,-313.166 430.902,-310.078 428.63,-311.121 428.63,-311.121 428.63,-311.121 430.902,-310.078 427.691,-309.076 433.174,-309.035 433.174,-309.035"/>
</g>
<!-- 3&#45;&gt;9 -->
<g id="edge81" class="edge"><title>3&#45;&gt;9</title>
<path fill="none" stroke="black" d="M458.301,-349.003C468.379,-339.75 484.166,-325.257 495.546,-314.81"/>
<polygon fill="black" stroke="black" points="499.521,-311.161 497.359,-316.2 497.679,-312.852 495.838,-314.542 495.838,-314.542 495.838,-314.542 497.679,-312.852 494.316,-312.885 499.521,-311.161 499.521,-311.161"/>
</g>
<!-- 3&#45;&gt;8 -->
<g id="edge80" class="edge"><title>3&#45;&gt;8</title>
<path fill="none" stroke="black" d="M438.699,-349.003C428.621,-339.75 412.834,-325.257 401.454,-314.81"/>
<polygon fill="black" stroke="black" points="397.479,-311.161 402.684,-312.885 399.321,-312.852 401.162,-314.542 401.162,-314.542 401.162,-314.542 399.321,-312.852 399.641,-316.2 397.479,-311.161 397.479,-311.161"/>
</g>
<!-- 3&#45;&gt;7 -->
<g id="edge79" class="edge"><title>3&#45;&gt;7</title>
<path fill="none" stroke="black" d="M448.5,-347.988C448.5,-339.494 448.5,-327.17 448.5,-317.417"/>
<polygon fill="black" stroke="black" points="448.5,-312.304 450.75,-317.304 448.5,-314.804 448.5,-317.304 448.5,-317.304 448.5,-317.304 448.5,-314.804 446.25,-317.304 448.5,-312.304 448.5,-312.304"/>
</g>
<!-- 4&#45;&gt;6 -->
<g id="edge101" class="edge"><title>4&#45;&gt;6</title>
<path fill="none" stroke="black" d="M558.117,-353.128C597.106,-342.926 687.268,-319.332 730.097,-308.124"/>
<polygon fill="black" stroke="black" points="735.079,-306.821 730.811,-310.263 732.66,-307.453 730.242,-308.086 730.242,-308.086 730.242,-308.086 732.66,-307.453 729.672,-305.91 735.079,-306.821 735.079,-306.821"/>
</g>
<!-- 4&#45;&gt;5 -->
<g id="edge100" class="edge"><title>4&#45;&gt;5</title>
<path fill="none" stroke="black" d="M544.9,-348.246C549.73,-339.52 556.878,-326.608 562.394,-316.643"/>
<polygon fill="black" stroke="black" points="564.953,-312.02 564.5,-317.484 563.743,-314.207 562.532,-316.394 562.532,-316.394 562.532,-316.394 563.743,-314.207 560.563,-315.304 564.953,-312.02 564.953,-312.02"/>
</g>
<!-- 4&#45;&gt;7 -->
<g id="edge102" class="edge"><title>4&#45;&gt;7</title>
<path fill="none" stroke="black" d="M526.462,-349.977C510.514,-340.163 483.465,-323.517 465.792,-312.642"/>
<polygon fill="black" stroke="black" points="461.514,-310.009 466.951,-310.713 463.643,-311.319 465.772,-312.629 465.772,-312.629 465.772,-312.629 463.643,-311.319 464.593,-314.545 461.514,-310.009 461.514,-310.009"/>
</g>
<!-- 60 -->
<g id="s60" class="node"><title>60</title>
<g id="a_s60"><a xlink:href="./60.svg" xlink:title="60">
<ellipse fill="none" stroke="black" cx="143.5" cy="-11" rx="21.5" ry="11"/>
<text text-anchor="middle" x="143.5" y="-8.8" font-family="monospace" font-size="9.00">60</text>
</a>
</g>
</g>
<!-- 56&#45;&gt;60 -->
<g id="edge92" class="edge"><title>56&#45;&gt;60</title>
<path fill="none" stroke="black" d="M143.5,-57.9883C143.5,-49.4941 143.5,-37.1697 143.5,-27.4169"/>
<polygon fill="black" stroke="black" points="143.5,-22.3039 145.75,-27.3038 143.5,-24.8039 143.5,-27.3039 143.5,-27.3039 143.5,-27.3039 143.5,-24.8039 141.25,-27.3039 143.5,-22.3039 143.5,-22.3039"/>
</g>
<!-- 58 -->
<g id="s58" class="node"><title>58</title>
<g id="a_s58"><a xlink:href="./58.svg" xlink:title="58">
<ellipse fill="none" stroke="black" cx="509.5" cy="-11" rx="21.5" ry="11"/>
<text text-anchor="middle" x="509.5" y="-8.8" font-family="monospace" font-size="9.00">58</text>
</a>
</g>
</g>
<!-- 52&#45;&gt;58 -->
<g id="edge103" class="edge"><title>52&#45;&gt;58</title>
<path fill="none" stroke="black" d="M509.5,-57.9883C509.5,-49.4941 509.5,-37.1697 509.5,-27.4169"/>
<polygon fill="black" stroke="black" points="509.5,-22.3039 511.75,-27.3038 509.5,-24.8039 509.5,-27.3039 509.5,-27.3039 509.5,-27.3039 509.5,-24.8039 507.25,-27.3039 509.5,-22.3039 509.5,-22.3039"/>
</g>
<!-- 18&#45;&gt;32 -->
<g id="edge106" class="edge"><title>18&#45;&gt;32</title>
<path fill="none" stroke="black" d="M204.5,-231.988C204.5,-223.494 204.5,-211.17 204.5,-201.417"/>
<polygon fill="black" stroke="black" points="204.5,-196.304 206.75,-201.304 204.5,-198.804 204.5,-201.304 204.5,-201.304 204.5,-201.304 204.5,-198.804 202.25,-201.304 204.5,-196.304 204.5,-196.304"/>
</g>
<!-- 34 -->
<g id="s34" class="node"><title>34</title>
<g id="a_s34"><a xlink:href="./34.svg" xlink:title="34">
<ellipse fill="none" stroke="black" cx="143.5" cy="-185" rx="21.5" ry="11"/>
<text text-anchor="middle" x="143.5" y="-182.8" font-family="monospace" font-size="9.00">34</text>
</a>
</g>
</g>
<!-- 18&#45;&gt;34 -->
<g id="edge107" class="edge"><title>18&#45;&gt;34</title>
<path fill="none" stroke="black" d="M194.699,-233.003C184.621,-223.75 168.834,-209.257 157.454,-198.81"/>
<polygon fill="black" stroke="black" points="153.479,-195.161 158.684,-196.885 155.321,-196.852 157.162,-198.542 157.162,-198.542 157.162,-198.542 155.321,-196.852 155.641,-200.2 153.479,-195.161 153.479,-195.161"/>
</g>
<!-- 15&#45;&gt;27 -->
<g id="edge93" class="edge"><title>15&#45;&gt;27</title>
<path fill="none" stroke="black" d="M499.699,-233.003C489.621,-223.75 473.834,-209.257 462.454,-198.81"/>
<polygon fill="black" stroke="black" points="458.479,-195.161 463.684,-196.885 460.321,-196.852 462.162,-198.542 462.162,-198.542 462.162,-198.542 460.321,-196.852 460.641,-200.2 458.479,-195.161 458.479,-195.161"/>
</g>
<!-- 29 -->
<g id="s29" class="node"><title>29</title>
<g id="a_s29"><a xlink:href="./29.svg" xlink:title="29">
<ellipse fill="none" stroke="black" cx="509.5" cy="-185" rx="21.5" ry="11"/>
<text text-anchor="middle" x="509.5" y="-182.8" font-family="monospace" font-size="9.00">29</text>
</a>
</g>
</g>
<!-- 15&#45;&gt;29 -->
<g id="edge94" class="edge"><title>15&#45;&gt;29</title>
<path fill="none" stroke="black" d="M509.5,-231.988C509.5,-223.494 509.5,-211.17 509.5,-201.417"/>
<polygon fill="black" stroke="black" points="509.5,-196.304 511.75,-201.304 509.5,-198.804 509.5,-201.304 509.5,-201.304 509.5,-201.304 509.5,-198.804 507.25,-201.304 509.5,-196.304 509.5,-196.304"/>
</g>
<!-- 55&#45;&gt;60 -->
<g id="edge49" class="edge"><title>55&#45;&gt;60</title>
<path fill="none" stroke="black" d="M92.3007,-59.0026C102.379,-49.7505 118.166,-35.2571 129.546,-24.8098"/>
<polygon fill="black" stroke="black" points="133.521,-21.1611 131.359,-26.1999 131.679,-22.8518 129.838,-24.5425 129.838,-24.5425 129.838,-24.5425 131.679,-22.8518 128.316,-22.885 133.521,-21.1611 133.521,-21.1611"/>
</g>
<!-- 51&#45;&gt;58 -->
<g id="edge59" class="edge"><title>51&#45;&gt;58</title>
<path fill="none" stroke="black" d="M560.699,-59.0026C550.621,-49.7505 534.834,-35.2571 523.454,-24.8098"/>
<polygon fill="black" stroke="black" points="519.479,-21.1611 524.684,-22.885 521.321,-22.8518 523.162,-24.5425 523.162,-24.5425 523.162,-24.5425 521.321,-22.8518 521.641,-26.1999 519.479,-21.1611 519.479,-21.1611"/>
</g>
<!-- 45 -->
<g id="s45" class="node"><title>45</title>
<g id="a_s45"><a xlink:href="./45.svg" xlink:title="45">
<ellipse fill="none" stroke="black" cx="82.5" cy="-127" rx="21.5" ry="11"/>
<text text-anchor="middle" x="82.5" y="-124.8" font-family="monospace" font-size="9.00">45</text>
</a>
</g>
</g>
<!-- 45&#45;&gt;56 -->
<g id="edge87" class="edge"><title>45&#45;&gt;56</title>
<path fill="none" stroke="black" d="M92.3007,-117.003C102.379,-107.75 118.166,-93.2571 129.546,-82.8098"/>
<polygon fill="black" stroke="black" points="133.521,-79.1611 131.359,-84.1999 131.679,-80.8518 129.838,-82.5425 129.838,-82.5425 129.838,-82.5425 131.679,-80.8518 128.316,-80.885 133.521,-79.1611 133.521,-79.1611"/>
</g>
<!-- 45&#45;&gt;55 -->
<g id="edge86" class="edge"><title>45&#45;&gt;55</title>
<path fill="none" stroke="black" d="M82.5,-115.988C82.5,-107.494 82.5,-95.1697 82.5,-85.4169"/>
<polygon fill="black" stroke="black" points="82.5,-80.3039 84.7501,-85.3038 82.5,-82.8039 82.5001,-85.3039 82.5001,-85.3039 82.5001,-85.3039 82.5,-82.8039 80.2501,-85.3039 82.5,-80.3039 82.5,-80.3039"/>
</g>
<!-- 39 -->
<g id="s39" class="node"><title>39</title>
<g id="a_s39"><a xlink:href="./39.svg" xlink:title="39">
<ellipse fill="none" stroke="black" cx="631.5" cy="-127" rx="21.5" ry="11"/>
<text text-anchor="middle" x="631.5" y="-124.8" font-family="monospace" font-size="9.00">39</text>
</a>
</g>
</g>
<!-- 39&#45;&gt;52 -->
<g id="edge13" class="edge"><title>39&#45;&gt;52</title>
<path fill="none" stroke="black" d="M616.049,-118.908C594.048,-108.809 553.682,-90.2803 529.448,-79.1563"/>
<polygon fill="black" stroke="black" points="524.826,-77.0349 530.309,-77.0759 527.098,-78.0778 529.37,-79.1207 529.37,-79.1207 529.37,-79.1207 527.098,-78.0778 528.431,-81.1656 524.826,-77.0349 524.826,-77.0349"/>
</g>
<!-- 39&#45;&gt;51 -->
<g id="edge12" class="edge"><title>39&#45;&gt;51</title>
<path fill="none" stroke="black" d="M621.699,-117.003C611.621,-107.75 595.834,-93.2571 584.454,-82.8098"/>
<polygon fill="black" stroke="black" points="580.479,-79.1611 585.684,-80.885 582.321,-80.8518 584.162,-82.5425 584.162,-82.5425 584.162,-82.5425 582.321,-80.8518 582.641,-84.1999 580.479,-79.1611 580.479,-79.1611"/>
</g>
<!-- 36 -->
<g id="s36" class="node"><title>36</title>
<g id="a_s36"><a xlink:href="./36.svg" xlink:title="36">
<ellipse fill="none" stroke="black" cx="814.5" cy="-127" rx="21.5" ry="11"/>
<text text-anchor="middle" x="814.5" y="-124.8" font-family="monospace" font-size="9.00">36</text>
</a>
</g>
</g>
<!-- 36&#45;&gt;49 -->
<g id="edge72" class="edge"><title>36&#45;&gt;49</title>
<path fill="none" stroke="black" d="M809.1,-116.246C804.27,-107.52 797.122,-94.6082 791.606,-84.6435"/>
<polygon fill="black" stroke="black" points="789.047,-80.0198 793.437,-83.3045 790.257,-82.207 791.468,-84.3942 791.468,-84.3942 791.468,-84.3942 790.257,-82.207 789.5,-85.484 789.047,-80.0198 789.047,-80.0198"/>
</g>
<!-- 10&#45;&gt;19 -->
<g id="edge21" class="edge"><title>10&#45;&gt;19</title>
<path fill="none" stroke="black" d="M326.5,-289.988C326.5,-281.494 326.5,-269.17 326.5,-259.417"/>
<polygon fill="black" stroke="black" points="326.5,-254.304 328.75,-259.304 326.5,-256.804 326.5,-259.304 326.5,-259.304 326.5,-259.304 326.5,-256.804 324.25,-259.304 326.5,-254.304 326.5,-254.304"/>
</g>
<!-- 12 -->
<g id="s12" class="node"><title>12</title>
<g id="a_s12"><a xlink:href="./12.svg" xlink:title="12">
<ellipse fill="none" stroke="black" cx="387.5" cy="-243" rx="21.5" ry="11"/>
<text text-anchor="middle" x="387.5" y="-240.8" font-family="monospace" font-size="9.00">12</text>
</a>
</g>
</g>
<!-- 10&#45;&gt;12 -->
<g id="edge22" class="edge"><title>10&#45;&gt;12</title>
<path fill="none" stroke="black" d="M336.301,-291.003C346.379,-281.75 362.166,-267.257 373.546,-256.81"/>
<polygon fill="black" stroke="black" points="377.521,-253.161 375.359,-258.2 375.679,-254.852 373.838,-256.542 373.838,-256.542 373.838,-256.542 375.679,-254.852 372.316,-254.885 377.521,-253.161 377.521,-253.161"/>
</g>
<!-- 8&#45;&gt;16 -->
<g id="edge88" class="edge"><title>8&#45;&gt;16</title>
<path fill="none" stroke="black" d="M397.301,-291.003C407.379,-281.75 423.166,-267.257 434.546,-256.81"/>
<polygon fill="black" stroke="black" points="438.521,-253.161 436.359,-258.2 436.679,-254.852 434.838,-256.542 434.838,-256.542 434.838,-256.542 436.679,-254.852 433.316,-254.885 438.521,-253.161 438.521,-253.161"/>
</g>
<!-- 8&#45;&gt;12 -->
<g id="edge89" class="edge"><title>8&#45;&gt;12</title>
<path fill="none" stroke="black" d="M387.5,-289.988C387.5,-281.494 387.5,-269.17 387.5,-259.417"/>
<polygon fill="black" stroke="black" points="387.5,-254.304 389.75,-259.304 387.5,-256.804 387.5,-259.304 387.5,-259.304 387.5,-259.304 387.5,-256.804 385.25,-259.304 387.5,-254.304 387.5,-254.304"/>
</g>
<!-- 5&#45;&gt;13 -->
<g id="edge29" class="edge"><title>5&#45;&gt;13</title>
<path fill="none" stroke="black" d="M588.047,-294.63C621.301,-284.454 693.479,-262.367 730.534,-251.028"/>
<polygon fill="black" stroke="black" points="735.737,-249.436 731.615,-253.05 733.347,-250.167 730.956,-250.899 730.956,-250.899 730.956,-250.899 733.347,-250.167 730.298,-248.747 735.737,-249.436 735.737,-249.436"/>
</g>
<!-- 5&#45;&gt;12 -->
<g id="edge30" class="edge"><title>5&#45;&gt;12</title>
<path fill="none" stroke="black" d="M553.4,-294.186C549.191,-292.786 544.69,-291.316 540.5,-290 486.564,-273.059 472.517,-270.679 418.5,-254 415.731,-253.145 412.828,-252.231 409.956,-251.317"/>
<polygon fill="black" stroke="black" points="404.855,-249.683 410.303,-249.066 407.236,-250.446 409.617,-251.209 409.617,-251.209 409.617,-251.209 407.236,-250.446 408.93,-253.351 404.855,-249.683 404.855,-249.683"/>
</g>
<!-- 34&#45;&gt;48 -->
<g id="edge41" class="edge"><title>34&#45;&gt;48</title>
<path fill="none" stroke="black" d="M143.5,-173.988C143.5,-165.494 143.5,-153.17 143.5,-143.417"/>
<polygon fill="black" stroke="black" points="143.5,-138.304 145.75,-143.304 143.5,-140.804 143.5,-143.304 143.5,-143.304 143.5,-143.304 143.5,-140.804 141.25,-143.304 143.5,-138.304 143.5,-138.304"/>
</g>
<!-- 34&#45;&gt;44 -->
<g id="edge42" class="edge"><title>34&#45;&gt;44</title>
<path fill="none" stroke="black" d="M128.049,-176.908C106.048,-166.809 65.6822,-148.28 41.4475,-137.156"/>
<polygon fill="black" stroke="black" points="36.8259,-135.035 42.3087,-135.076 39.098,-136.078 41.3701,-137.121 41.3701,-137.121 41.3701,-137.121 39.098,-136.078 40.4314,-139.166 36.8259,-135.035 36.8259,-135.035"/>
</g>
<!-- 43 -->
<g id="s43" class="node"><title>43</title>
<g id="a_s43"><a xlink:href="./43.svg" xlink:title="43">
<ellipse fill="none" stroke="black" cx="265.5" cy="-127" rx="21.5" ry="11"/>
<text text-anchor="middle" x="265.5" y="-124.8" font-family="monospace" font-size="9.00">43</text>
</a>
</g>
</g>
<!-- 34&#45;&gt;43 -->
<g id="edge43" class="edge"><title>34&#45;&gt;43</title>
<path fill="none" stroke="black" d="M158.951,-176.908C180.952,-166.809 221.318,-148.28 245.552,-137.156"/>
<polygon fill="black" stroke="black" points="250.174,-135.035 246.569,-139.166 247.902,-136.078 245.63,-137.121 245.63,-137.121 245.63,-137.121 247.902,-136.078 244.691,-135.076 250.174,-135.035 250.174,-135.035"/>
</g>
<!-- 29&#45;&gt;42 -->
<g id="edge8" class="edge"><title>29&#45;&gt;42</title>
<path fill="none" stroke="black" d="M509.5,-173.988C509.5,-165.494 509.5,-153.17 509.5,-143.417"/>
<polygon fill="black" stroke="black" points="509.5,-138.304 511.75,-143.304 509.5,-140.804 509.5,-143.304 509.5,-143.304 509.5,-143.304 509.5,-140.804 507.25,-143.304 509.5,-138.304 509.5,-138.304"/>
</g>
<!-- 29&#45;&gt;38 -->
<g id="edge9" class="edge"><title>29&#45;&gt;38</title>
<path fill="none" stroke="black" d="M519.301,-175.003C529.379,-165.75 545.166,-151.257 556.546,-140.81"/>
<polygon fill="black" stroke="black" points="560.521,-137.161 558.359,-142.2 558.679,-138.852 556.838,-140.542 556.838,-140.542 556.838,-140.542 558.679,-138.852 555.316,-138.885 560.521,-137.161 560.521,-137.161"/>
</g>
<!-- 29&#45;&gt;43 -->
<g id="edge10" class="edge"><title>29&#45;&gt;43</title>
<path fill="none" stroke="black" d="M492.795,-178.013C488.495,-176.587 483.853,-175.149 479.5,-174 399.351,-152.851 376.75,-158.76 296.5,-138 293.482,-137.219 290.326,-136.311 287.232,-135.367"/>
<polygon fill="black" stroke="black" points="282.449,-133.865 287.894,-133.216 284.835,-134.614 287.22,-135.363 287.22,-135.363 287.22,-135.363 284.835,-134.614 286.546,-137.51 282.449,-133.865 282.449,-133.865"/>
</g>
<!-- 7&#45;&gt;12 -->
<g id="edge11" class="edge"><title>7&#45;&gt;12</title>
<path fill="none" stroke="black" d="M438.699,-291.003C428.621,-281.75 412.834,-267.257 401.454,-256.81"/>
<polygon fill="black" stroke="black" points="397.479,-253.161 402.684,-254.885 399.321,-254.852 401.162,-256.542 401.162,-256.542 401.162,-256.542 399.321,-254.852 399.641,-258.2 397.479,-253.161 397.479,-253.161"/>
</g>
<!-- 57 -->
<g id="s57" class="node"><title>57</title>
<g id="a_s57"><a xlink:href="./57.svg" xlink:title="57">
<ellipse fill="none" stroke="black" cx="204.5" cy="-69" rx="21.5" ry="11"/>
<text text-anchor="middle" x="204.5" y="-66.8" font-family="monospace" font-size="9.00">57</text>
</a>
</g>
</g>
<!-- 46&#45;&gt;57 -->
<g id="edge14" class="edge"><title>46&#45;&gt;57</title>
<path fill="none" stroke="black" d="M204.5,-115.988C204.5,-107.494 204.5,-95.1697 204.5,-85.4169"/>
<polygon fill="black" stroke="black" points="204.5,-80.3039 206.75,-85.3038 204.5,-82.8039 204.5,-85.3039 204.5,-85.3039 204.5,-85.3039 204.5,-82.8039 202.25,-85.3039 204.5,-80.3039 204.5,-80.3039"/>
</g>
<!-- 53 -->
<g id="s53" class="node"><title>53</title>
<g id="a_s53"><a xlink:href="./53.svg" xlink:title="53">
<ellipse fill="none" stroke="black" cx="448.5" cy="-69" rx="21.5" ry="11"/>
<text text-anchor="middle" x="448.5" y="-66.8" font-family="monospace" font-size="9.00">53</text>
</a>
</g>
</g>
<!-- 40&#45;&gt;53 -->
<g id="edge50" class="edge"><title>40&#45;&gt;53</title>
<path fill="none" stroke="black" d="M448.5,-115.988C448.5,-107.494 448.5,-95.1697 448.5,-85.4169"/>
<polygon fill="black" stroke="black" points="448.5,-80.3039 450.75,-85.3038 448.5,-82.8039 448.5,-85.3039 448.5,-85.3039 448.5,-85.3039 448.5,-82.8039 446.25,-85.3039 448.5,-80.3039 448.5,-80.3039"/>
</g>
<!-- 59 -->
<g id="s59" class="node"><title>59</title>
<g id="a_s59"><a xlink:href="./59.svg" xlink:title="59">
<ellipse fill="none" stroke="black" cx="326.5" cy="-11" rx="21.5" ry="11"/>
<text text-anchor="middle" x="326.5" y="-8.8" font-family="monospace" font-size="9.00">59</text>
</a>
</g>
</g>
<!-- 31 -->
<g id="s31" class="node"><title>31</title>
<g id="a_s31"><a xlink:href="./31.svg" xlink:title="31">
<ellipse fill="none" stroke="black" cx="82.5" cy="-185" rx="21.5" ry="11"/>
<text text-anchor="middle" x="82.5" y="-182.8" font-family="monospace" font-size="9.00">31</text>
</a>
</g>
</g>
<!-- 31&#45;&gt;44 -->
<g id="edge90" class="edge"><title>31&#45;&gt;44</title>
<path fill="none" stroke="black" d="M72.6993,-175.003C62.6211,-165.75 46.8336,-151.257 35.4535,-140.81"/>
<polygon fill="black" stroke="black" points="31.479,-137.161 36.6839,-138.885 33.3207,-138.852 35.1623,-140.542 35.1623,-140.542 35.1623,-140.542 33.3207,-138.852 33.6407,-142.2 31.479,-137.161 31.479,-137.161"/>
</g>
<!-- 31&#45;&gt;45 -->
<g id="edge91" class="edge"><title>31&#45;&gt;45</title>
<path fill="none" stroke="black" d="M82.5,-173.988C82.5,-165.494 82.5,-153.17 82.5,-143.417"/>
<polygon fill="black" stroke="black" points="82.5,-138.304 84.7501,-143.304 82.5,-140.804 82.5001,-143.304 82.5001,-143.304 82.5001,-143.304 82.5,-140.804 80.2501,-143.304 82.5,-138.304 82.5,-138.304"/>
</g>
<!-- 26 -->
<g id="s26" class="node"><title>26</title>
<g id="a_s26"><a xlink:href="./26.svg" xlink:title="26">
<ellipse fill="none" stroke="black" cx="570.5" cy="-185" rx="21.5" ry="11"/>
<text text-anchor="middle" x="570.5" y="-182.8" font-family="monospace" font-size="9.00">26</text>
</a>
</g>
</g>
<!-- 26&#45;&gt;38 -->
<g id="edge68" class="edge"><title>26&#45;&gt;38</title>
<path fill="none" stroke="black" d="M570.5,-173.988C570.5,-165.494 570.5,-153.17 570.5,-143.417"/>
<polygon fill="black" stroke="black" points="570.5,-138.304 572.75,-143.304 570.5,-140.804 570.5,-143.304 570.5,-143.304 570.5,-143.304 570.5,-140.804 568.25,-143.304 570.5,-138.304 570.5,-138.304"/>
</g>
<!-- 26&#45;&gt;39 -->
<g id="edge69" class="edge"><title>26&#45;&gt;39</title>
<path fill="none" stroke="black" d="M580.301,-175.003C590.379,-165.75 606.166,-151.257 617.546,-140.81"/>
<polygon fill="black" stroke="black" points="621.521,-137.161 619.359,-142.2 619.679,-138.852 617.838,-140.542 617.838,-140.542 617.838,-140.542 619.679,-138.852 616.316,-138.885 621.521,-137.161 621.521,-137.161"/>
</g>
<!-- 22 -->
<g id="s22" class="node"><title>22</title>
<g id="a_s22"><a xlink:href="./22.svg" xlink:title="22">
<ellipse fill="none" stroke="black" cx="875.5" cy="-185" rx="21.5" ry="11"/>
<text text-anchor="middle" x="875.5" y="-182.8" font-family="monospace" font-size="9.00">22</text>
</a>
</g>
</g>
<!-- 22&#45;&gt;36 -->
<g id="edge38" class="edge"><title>22&#45;&gt;36</title>
<path fill="none" stroke="black" d="M865.699,-175.003C855.621,-165.75 839.834,-151.257 828.454,-140.81"/>
<polygon fill="black" stroke="black" points="824.479,-137.161 829.684,-138.885 826.321,-138.852 828.162,-140.542 828.162,-140.542 828.162,-140.542 826.321,-138.852 826.641,-142.2 824.479,-137.161 824.479,-137.161"/>
</g>
<!-- 43&#45;&gt;54 -->
<g id="edge7" class="edge"><title>43&#45;&gt;54</title>
<path fill="none" stroke="black" d="M265.5,-115.988C265.5,-107.494 265.5,-95.1697 265.5,-85.4169"/>
<polygon fill="black" stroke="black" points="265.5,-80.3039 267.75,-85.3038 265.5,-82.8039 265.5,-85.3039 265.5,-85.3039 265.5,-85.3039 265.5,-82.8039 263.25,-85.3039 265.5,-80.3039 265.5,-80.3039"/>
</g>
<!-- 30&#45;&gt;45 -->
<g id="edge98" class="edge"><title>30&#45;&gt;45</title>
<path fill="none" stroke="black" d="M248.145,-178.317C243.704,-176.886 238.931,-175.368 234.5,-174 180.483,-157.321 166.436,-154.941 112.5,-138 109.881,-137.177 107.141,-136.295 104.426,-135.407"/>
<polygon fill="black" stroke="black" points="99.6004,-133.814 105.054,-133.244 101.975,-134.598 104.349,-135.381 104.349,-135.381 104.349,-135.381 101.975,-134.598 103.644,-137.518 99.6004,-133.814 99.6004,-133.814"/>
</g>
<!-- 30&#45;&gt;35 -->
<g id="edge99" class="edge"><title>30&#45;&gt;35</title>
<path fill="none" stroke="black" d="M282.056,-177.937C286.678,-176.444 291.739,-174.99 296.5,-174 456.528,-140.72 502.636,-172.057 662.5,-138 665.319,-137.399 668.244,-136.625 671.112,-135.772"/>
<polygon fill="black" stroke="black" points="676.179,-134.175 672.086,-137.824 673.794,-134.927 671.41,-135.678 671.41,-135.678 671.41,-135.678 673.794,-134.927 670.733,-133.532 676.179,-134.175 676.179,-134.175"/>
</g>
<!-- 25&#45;&gt;39 -->
<g id="edge104" class="edge"><title>25&#45;&gt;39</title>
<path fill="none" stroke="black" d="M631.5,-173.988C631.5,-165.494 631.5,-153.17 631.5,-143.417"/>
<polygon fill="black" stroke="black" points="631.5,-138.304 633.75,-143.304 631.5,-140.804 631.5,-143.304 631.5,-143.304 631.5,-143.304 631.5,-140.804 629.25,-143.304 631.5,-138.304 631.5,-138.304"/>
</g>
<!-- 25&#45;&gt;35 -->
<g id="edge105" class="edge"><title>25&#45;&gt;35</title>
<path fill="none" stroke="black" d="M641.301,-175.003C651.379,-165.75 667.166,-151.257 678.546,-140.81"/>
<polygon fill="black" stroke="black" points="682.521,-137.161 680.359,-142.2 680.679,-138.852 678.838,-140.542 678.838,-140.542 678.838,-140.542 680.679,-138.852 677.316,-138.885 682.521,-137.161 682.521,-137.161"/>
</g>
<!-- 21&#45;&gt;36 -->
<g id="edge73" class="edge"><title>21&#45;&gt;36</title>
<path fill="none" stroke="black" d="M814.5,-173.988C814.5,-165.494 814.5,-153.17 814.5,-143.417"/>
<polygon fill="black" stroke="black" points="814.5,-138.304 816.75,-143.304 814.5,-140.804 814.5,-143.304 814.5,-143.304 814.5,-143.304 814.5,-140.804 812.25,-143.304 814.5,-138.304 814.5,-138.304"/>
</g>
<!-- 21&#45;&gt;35 -->
<g id="edge74" class="edge"><title>21&#45;&gt;35</title>
<path fill="none" stroke="black" d="M799.049,-176.908C777.048,-166.809 736.682,-148.28 712.448,-137.156"/>
<polygon fill="black" stroke="black" points="707.826,-135.035 713.309,-135.076 710.098,-136.078 712.37,-137.121 712.37,-137.121 712.37,-137.121 710.098,-136.078 711.431,-139.166 707.826,-135.035 707.826,-135.035"/>
</g>
<!-- 57&#45;&gt;59 -->
<g id="edge71" class="edge"><title>57&#45;&gt;59</title>
<path fill="none" stroke="black" d="M219.951,-60.9076C241.952,-50.809 282.318,-32.2803 306.552,-21.1563"/>
<polygon fill="black" stroke="black" points="311.174,-19.0349 307.569,-23.1656 308.902,-20.0778 306.63,-21.1207 306.63,-21.1207 306.63,-21.1207 308.902,-20.0778 305.691,-19.0759 311.174,-19.0349 311.174,-19.0349"/>
</g>
<!-- 57&#45;&gt;60 -->
<g id="edge70" class="edge"><title>57&#45;&gt;60</title>
<path fill="none" stroke="black" d="M194.699,-59.0026C184.621,-49.7505 168.834,-35.2571 157.454,-24.8098"/>
<polygon fill="black" stroke="black" points="153.479,-21.1611 158.684,-22.885 155.321,-22.8518 157.162,-24.5425 157.162,-24.5425 157.162,-24.5425 155.321,-22.8518 155.641,-26.1999 153.479,-21.1611 153.479,-21.1611"/>
</g>
<!-- 53&#45;&gt;59 -->
<g id="edge35" class="edge"><title>53&#45;&gt;59</title>
<path fill="none" stroke="black" d="M433.049,-60.9076C411.048,-50.809 370.682,-32.2803 346.448,-21.1563"/>
<polygon fill="black" stroke="black" points="341.826,-19.0349 347.309,-19.0759 344.098,-20.0778 346.37,-21.1207 346.37,-21.1207 346.37,-21.1207 344.098,-20.0778 345.431,-23.1656 341.826,-19.0349 341.826,-19.0349"/>
</g>
<!-- 53&#45;&gt;58 -->
<g id="edge34" class="edge"><title>53&#45;&gt;58</title>
<path fill="none" stroke="black" d="M458.301,-59.0026C468.379,-49.7505 484.166,-35.2571 495.546,-24.8098"/>
<polygon fill="black" stroke="black" points="499.521,-21.1611 497.359,-26.1999 497.679,-22.8518 495.838,-24.5425 495.838,-24.5425 495.838,-24.5425 497.679,-22.8518 494.316,-22.885 499.521,-21.1611 499.521,-21.1611"/>
</g>
<!-- 20&#45;&gt;23 -->
<g id="edge1" class="edge"><title>20&#45;&gt;23</title>
<path fill="none" stroke="black" d="M282.056,-235.937C286.678,-234.444 291.739,-232.99 296.5,-232 456.528,-198.72 502.636,-230.057 662.5,-196 665.319,-195.399 668.244,-194.625 671.112,-193.772"/>
<polygon fill="black" stroke="black" points="676.179,-192.175 672.086,-195.824 673.794,-192.927 671.41,-193.678 671.41,-193.678 671.41,-193.678 673.794,-192.927 670.733,-191.532 676.179,-192.175 676.179,-192.175"/>
</g>
<!-- 20&#45;&gt;31 -->
<g id="edge3" class="edge"><title>20&#45;&gt;31</title>
<path fill="none" stroke="black" d="M248.145,-236.317C243.704,-234.886 238.931,-233.368 234.5,-232 180.483,-215.321 166.436,-212.941 112.5,-196 109.881,-195.177 107.141,-194.295 104.426,-193.407"/>
<polygon fill="black" stroke="black" points="99.6004,-191.814 105.054,-191.244 101.975,-192.598 104.349,-193.381 104.349,-193.381 104.349,-193.381 101.975,-192.598 103.644,-195.518 99.6004,-191.814 99.6004,-191.814"/>
</g>
<!-- 20&#45;&gt;30 -->
<g id="edge2" class="edge"><title>20&#45;&gt;30</title>
<path fill="none" stroke="black" d="M265.5,-231.988C265.5,-223.494 265.5,-211.17 265.5,-201.417"/>
<polygon fill="black" stroke="black" points="265.5,-196.304 267.75,-201.304 265.5,-198.804 265.5,-201.304 265.5,-201.304 265.5,-201.304 265.5,-198.804 263.25,-201.304 265.5,-196.304 265.5,-196.304"/>
</g>
<!-- 17&#45;&gt;23 -->
<g id="edge51" class="edge"><title>17&#45;&gt;23</title>
<path fill="none" stroke="black" d="M613.681,-233.977C629.896,-224.107 657.462,-207.328 675.321,-196.457"/>
<polygon fill="black" stroke="black" points="679.64,-193.828 676.539,-198.35 677.504,-195.128 675.369,-196.428 675.369,-196.428 675.369,-196.428 677.504,-195.128 674.199,-194.506 679.64,-193.828 679.64,-193.828"/>
</g>
<!-- 17&#45;&gt;26 -->
<g id="edge53" class="edge"><title>17&#45;&gt;26</title>
<path fill="none" stroke="black" d="M595.274,-232.246C590.6,-223.52 583.683,-210.608 578.345,-200.643"/>
<polygon fill="black" stroke="black" points="575.868,-196.02 580.212,-199.365 577.048,-198.223 578.229,-200.427 578.229,-200.427 578.229,-200.427 577.048,-198.223 576.246,-201.49 575.868,-196.02 575.868,-196.02"/>
</g>
<!-- 17&#45;&gt;25 -->
<g id="edge52" class="edge"><title>17&#45;&gt;25</title>
<path fill="none" stroke="black" d="M605.9,-232.246C610.73,-223.52 617.878,-210.608 623.394,-200.643"/>
<polygon fill="black" stroke="black" points="625.953,-196.02 625.5,-201.484 624.743,-198.207 623.532,-200.394 623.532,-200.394 623.532,-200.394 624.743,-198.207 621.563,-199.304 625.953,-196.02 625.953,-196.02"/>
</g>
<!-- 14&#45;&gt;23 -->
<g id="edge97" class="edge"><title>14&#45;&gt;23</title>
<path fill="none" stroke="black" d="M799.049,-234.908C777.048,-224.809 736.682,-206.28 712.448,-195.156"/>
<polygon fill="black" stroke="black" points="707.826,-193.035 713.309,-193.076 710.098,-194.078 712.37,-195.121 712.37,-195.121 712.37,-195.121 710.098,-194.078 711.431,-197.166 707.826,-193.035 707.826,-193.035"/>
</g>
<!-- 14&#45;&gt;22 -->
<g id="edge96" class="edge"><title>14&#45;&gt;22</title>
<path fill="none" stroke="black" d="M824.301,-233.003C834.379,-223.75 850.166,-209.257 861.546,-198.81"/>
<polygon fill="black" stroke="black" points="865.521,-195.161 863.359,-200.2 863.679,-196.852 861.838,-198.542 861.838,-198.542 861.838,-198.542 863.679,-196.852 860.316,-196.885 865.521,-195.161 865.521,-195.161"/>
</g>
<!-- 14&#45;&gt;21 -->
<g id="edge95" class="edge"><title>14&#45;&gt;21</title>
<path fill="none" stroke="black" d="M814.5,-231.988C814.5,-223.494 814.5,-211.17 814.5,-201.417"/>
<polygon fill="black" stroke="black" points="814.5,-196.304 816.75,-201.304 814.5,-198.804 814.5,-201.304 814.5,-201.304 814.5,-201.304 814.5,-198.804 812.25,-201.304 814.5,-196.304 814.5,-196.304"/>
</g>
<!-- 33&#45;&gt;47 -->
<g id="edge28" class="edge"><title>33&#45;&gt;47</title>
<path fill="none" stroke="black" d="M326.5,-173.988C326.5,-165.494 326.5,-153.17 326.5,-143.417"/>
<polygon fill="black" stroke="black" points="326.5,-138.304 328.75,-143.304 326.5,-140.804 326.5,-143.304 326.5,-143.304 326.5,-143.304 326.5,-140.804 324.25,-143.304 326.5,-138.304 326.5,-138.304"/>
</g>
<!-- 33&#45;&gt;46 -->
<g id="edge27" class="edge"><title>33&#45;&gt;46</title>
<path fill="none" stroke="black" d="M311.049,-176.908C289.048,-166.809 248.682,-148.28 224.448,-137.156"/>
<polygon fill="black" stroke="black" points="219.826,-135.035 225.309,-135.076 222.098,-136.078 224.37,-137.121 224.37,-137.121 224.37,-137.121 222.098,-136.078 223.431,-139.166 219.826,-135.035 219.826,-135.035"/>
</g>
<!-- 28&#45;&gt;41 -->
<g id="edge37" class="edge"><title>28&#45;&gt;41</title>
<path fill="none" stroke="black" d="M387.5,-173.988C387.5,-165.494 387.5,-153.17 387.5,-143.417"/>
<polygon fill="black" stroke="black" points="387.5,-138.304 389.75,-143.304 387.5,-140.804 387.5,-143.304 387.5,-143.304 387.5,-143.304 387.5,-140.804 385.25,-143.304 387.5,-138.304 387.5,-138.304"/>
</g>
<!-- 28&#45;&gt;40 -->
<g id="edge36" class="edge"><title>28&#45;&gt;40</title>
<path fill="none" stroke="black" d="M397.301,-175.003C407.379,-165.75 423.166,-151.257 434.546,-140.81"/>
<polygon fill="black" stroke="black" points="438.521,-137.161 436.359,-142.2 436.679,-138.852 434.838,-140.542 434.838,-140.542 434.838,-140.542 436.679,-138.852 433.316,-138.885 438.521,-137.161 438.521,-137.161"/>
</g>
<!-- 24&#45;&gt;37 -->
<g id="edge75" class="edge"><title>24&#45;&gt;37</title>
<path fill="none" stroke="black" d="M753.5,-173.988C753.5,-165.494 753.5,-153.17 753.5,-143.417"/>
<polygon fill="black" stroke="black" points="753.5,-138.304 755.75,-143.304 753.5,-140.804 753.5,-143.304 753.5,-143.304 753.5,-143.304 753.5,-140.804 751.25,-143.304 753.5,-138.304 753.5,-138.304"/>
</g>
</g>
</svg>
