<?xml version="1.0" encoding="UTF-8" standalone="no"?>
<?xml-stylesheet href="style.css" type="text/css"?>
<!DOCTYPE svg PUBLIC "-//W3C//DTD SVG 1.1//EN"
 "http://www.w3.org/Graphics/SVG/1.1/DTD/svg11.dtd">
<!-- Generated by graphviz version 2.38.0 (20140413.2041)
 -->
<!-- Title: building_state.svg Pages: 1 -->
<svg width="803pt" height="316pt"
 viewBox="0.00 0.00 803.00 316.00" xmlns="http://www.w3.org/2000/svg" xmlns:xlink="http://www.w3.org/1999/xlink">
<g id="graph0" class="graph" transform="scale(1 1) rotate(0) translate(4 312)">
<title>building_state.svg</title>
<polygon fill="white" stroke="none" points="-4,4 -4,-312 799,-312 799,4 -4,4"/>
<!-- r0 -->
<g id="node1" class="node"><title>r0</title>
<polygon fill="none" stroke="black" stroke-dasharray="5,2" points="583.5,-308 560.5,-308 560.5,-290 583.5,-290 583.5,-308"/>
<text text-anchor="middle" x="572" y="-296.8" font-family="serif" font-size="9.00">0</text>
</g>
<!-- v0 -->
<g id="v0_Building" class="node"><title>v0</title>
<ellipse fill="none" stroke="black" cx="572" cy="-243" rx="36" ry="11"/>
<text text-anchor="middle" x="572" y="-240.8" font-family="sans-serif" font-size="9.00">Building</text>
</g>
<!-- r0&#45;&gt;v0 -->
<g id="edge1" class="edge"><title>r0&#45;&gt;v0</title>
<path fill="none" stroke="black" d="M572,-289.562C572,-281.453 572,-269.014 572,-259.181"/>
<polygon fill="black" stroke="black" points="572,-254.03 574.25,-259.03 572,-256.53 572,-259.03 572,-259.03 572,-259.03 572,-256.53 569.75,-259.03 572,-254.03 572,-254.03"/>
</g>
<!-- e9 -->
<g id="node2" class="node"><title>e9</title>
</g>
<!-- v13 -->
<g id="v13_Laptop" class="node"><title>v13</title>
<ellipse fill="none" stroke="black" cx="626" cy="-11" rx="29" ry="11"/>
<text text-anchor="middle" x="626" y="-8.8" font-family="sans-serif" font-size="9.00">Laptop</text>
</g>
<!-- e9&#45;&gt;v13 -->
<g id="edge25" class="edge"><title>e9&#45;&gt;v13</title>
<path fill="none" stroke="green" d="M626,-64.1674C626,-55.5862 626,-34.5957 626,-22.0117"/>
<polygon fill="green" stroke="green" points="629.5,-67.3001 622.5,-67.2999 622.5,-65.8999 629.5,-65.9001 629.5,-67.3001"/>
<polyline fill="none" stroke="green" points="626,-68 626,-64.5 "/>
</g>
<!-- v1 -->
<g id="v1_Floor" class="node"><title>v1</title>
<ellipse fill="none" stroke="black" cx="437" cy="-185" rx="25" ry="11"/>
<text text-anchor="middle" x="437" y="-182.8" font-family="sans-serif" font-size="9.00">Floor</text>
</g>
<!-- v0&#45;&gt;v1 -->
<g id="edge2" class="edge"><title>v0&#45;&gt;v1</title>
<path fill="none" stroke="black" d="M552.08,-233.737C527.326,-223.469 485.203,-205.995 459.365,-195.277"/>
<polygon fill="black" stroke="black" points="454.424,-193.228 459.905,-193.065 456.733,-194.186 459.043,-195.144 459.043,-195.144 459.043,-195.144 456.733,-194.186 458.181,-197.222 454.424,-193.228 454.424,-193.228"/>
</g>
<!-- v14 -->
<g id="v14_InstallationBus" class="node"><title>v14</title>
<ellipse fill="none" stroke="black" cx="734" cy="-11" rx="61" ry="11"/>
<text text-anchor="middle" x="734" y="-8.8" font-family="sans-serif" font-size="9.00">InstallationBus</text>
</g>
<!-- v0&#45;&gt;v14 -->
<g id="edge3" class="edge"><title>v0&#45;&gt;v14</title>
<path fill="none" stroke="black" d="M578.961,-232.117C604.606,-195.707 693.883,-68.9559 723.995,-26.2053"/>
<polygon fill="black" stroke="black" points="726.883,-22.105 725.843,-27.4885 725.443,-24.1489 724.003,-26.1928 724.003,-26.1928 724.003,-26.1928 725.443,-24.1489 722.164,-24.8972 726.883,-22.105 726.883,-22.105"/>
</g>
<!-- v2 -->
<g id="v2_Room" class="node"><title>v2</title>
<ellipse fill="none" stroke="black" cx="110" cy="-69" rx="21.5" ry="11"/>
<text text-anchor="middle" x="110" y="-66.8" font-family="sans-serif" font-size="9.00">Room</text>
</g>
<!-- v1&#45;&gt;v2 -->
<g id="edge4" class="edge"><title>v1&#45;&gt;v2</title>
<path fill="none" stroke="black" d="M418.482,-177.544C362.106,-157.89 192.729,-98.8415 131.983,-77.6638"/>
<polygon fill="black" stroke="black" points="127.122,-75.9693 132.584,-75.4907 129.483,-76.7923 131.844,-77.6153 131.844,-77.6153 131.844,-77.6153 129.483,-76.7923 131.103,-79.7399 127.122,-75.9693 127.122,-75.9693"/>
</g>
<!-- v4 -->
<g id="v4_Room" class="node"><title>v4</title>
<ellipse fill="none" stroke="black" cx="280" cy="-69" rx="21.5" ry="11"/>
<text text-anchor="middle" x="280" y="-66.8" font-family="sans-serif" font-size="9.00">Room</text>
</g>
<!-- v1&#45;&gt;v4 -->
<g id="edge5" class="edge"><title>v1&#45;&gt;v4</title>
<path fill="none" stroke="black" d="M424.941,-175.244C396.882,-154.869 327.22,-104.287 295.808,-81.4782"/>
<polygon fill="black" stroke="black" points="291.46,-78.3214 296.828,-79.4385 293.483,-79.7903 295.506,-81.2592 295.506,-81.2592 295.506,-81.2592 293.483,-79.7903 294.184,-83.0799 291.46,-78.3214 291.46,-78.3214"/>
</g>
<!-- v8 -->
<g id="v8_Room" class="node"><title>v8</title>
<ellipse fill="none" stroke="black" cx="437" cy="-69" rx="21.5" ry="11"/>
<text text-anchor="middle" x="437" y="-66.8" font-family="sans-serif" font-size="9.00">Room</text>
</g>
<!-- v1&#45;&gt;v8 -->
<g id="edge6" class="edge"><title>v1&#45;&gt;v8</title>
<path fill="none" stroke="black" d="M437,-173.883C437,-153.906 437,-109.276 437,-85.5402"/>
<polygon fill="black" stroke="black" points="437,-80.2579 439.25,-85.2579 437,-82.7579 437,-85.2579 437,-85.2579 437,-85.2579 437,-82.7579 434.75,-85.258 437,-80.2579 437,-80.2579"/>
</g>
<!-- v11 -->
<g id="v11_Hallway" class="node"><title>v11</title>
<ellipse fill="none" stroke="black" cx="511" cy="-127" rx="32.5" ry="11"/>
<text text-anchor="middle" x="511" y="-124.8" font-family="sans-serif" font-size="9.00">Hallway</text>
</g>
<!-- v1&#45;&gt;v11 -->
<g id="edge7" class="edge"><title>v1&#45;&gt;v11</title>
<path fill="none" stroke="black" d="M448.889,-175.003C461.256,-165.644 480.708,-150.923 494.546,-140.451"/>
<polygon fill="black" stroke="black" points="498.647,-137.349 496.017,-142.16 496.653,-138.857 494.66,-140.366 494.66,-140.366 494.66,-140.366 496.653,-138.857 493.302,-138.572 498.647,-137.349 498.647,-137.349"/>
</g>
<!-- v3 -->
<g id="v3_SmartLight" class="node"><title>v3</title>
<ellipse fill="none" stroke="black" cx="43" cy="-11" rx="43" ry="11"/>
<text text-anchor="middle" x="43" y="-8.8" font-family="sans-serif" font-size="9.00">SmartLight</text>
</g>
<!-- v2&#45;&gt;v3 -->
<g id="edge8" class="edge"><title>v2&#45;&gt;v3</title>
<path fill="none" stroke="black" d="M99.5312,-59.25C88.5532,-50.0744 71.1797,-35.5532 58.5883,-25.0291"/>
<polygon fill="black" stroke="black" points="54.5177,-21.6267 59.7971,-23.1069 56.4359,-23.23 58.3541,-24.8333 58.3541,-24.8333 58.3541,-24.8333 56.4359,-23.23 56.9112,-26.5597 54.5177,-21.6267 54.5177,-21.6267"/>
</g>
<!-- v2&#45;&gt;v11 -->
<g id="edge16" class="edge"><title>v2&#45;&gt;v11</title>
<path fill="none" stroke="green" d="M130.513,-72.8646C196.69,-82.1063 404.7,-111.155 481.838,-121.928"/>
</g>
<!-- v3&#45;&gt;v14 -->
<g id="edge17" class="edge"><title>v3&#45;&gt;v14</title>
<path fill="none" stroke="green" d="M59.3593,-21.2415C71.2438,-28.0527 87.9859,-36.3871 104,-40 163.721,-53.4735 594.723,-50.714 655,-40 674.995,-36.446 696.567,-28.2018 712.109,-21.4084"/>
</g>
<!-- v5 -->
<g id="v5_SmartLight" class="node"><title>v5</title>
<ellipse fill="none" stroke="black" cx="147" cy="-11" rx="43" ry="11"/>
<text text-anchor="middle" x="147" y="-8.8" font-family="sans-serif" font-size="9.00">SmartLight</text>
</g>
<!-- v4&#45;&gt;v5 -->
<g id="edge9" class="edge"><title>v4&#45;&gt;v5</title>
<path fill="none" stroke="black" d="M264.221,-61.3562C241.678,-51.8646 199.991,-34.312 172.888,-22.9004"/>
<polygon fill="black" stroke="black" points="168.005,-20.8444 173.487,-20.7111 170.31,-21.8146 172.614,-22.7847 172.614,-22.7847 172.614,-22.7847 170.31,-21.8146 171.74,-24.8584 168.005,-20.8444 168.005,-20.8444"/>
</g>
<!-- v6 -->
<g id="v6_Server" class="node"><title>v6</title>
<ellipse fill="none" stroke="black" cx="237" cy="-11" rx="29" ry="11"/>
<text text-anchor="middle" x="237" y="-8.8" font-family="sans-serif" font-size="9.00">Server</text>
</g>
<!-- v4&#45;&gt;v6 -->
<g id="edge10" class="edge"><title>v4&#45;&gt;v6</title>
<path fill="none" stroke="black" d="M272.706,-58.5004C265.829,-49.5445 255.442,-36.018 247.642,-25.859"/>
<polygon fill="black" stroke="black" points="244.475,-21.7345 249.304,-24.3299 245.997,-23.7173 247.52,-25.7002 247.52,-25.7002 247.52,-25.7002 245.997,-23.7173 245.735,-27.0706 244.475,-21.7345 244.475,-21.7345"/>
</g>
<!-- v7 -->
<g id="v7_FireAlarm" class="node"><title>v7</title>
<ellipse fill="none" stroke="black" cx="323" cy="-11" rx="39.5" ry="11"/>
<text text-anchor="middle" x="323" y="-8.8" font-family="sans-serif" font-size="9.00">FireAlarm</text>
</g>
<!-- v4&#45;&gt;v7 -->
<g id="edge11" class="edge"><title>v4&#45;&gt;v7</title>
<path fill="none" stroke="black" d="M287.294,-58.5004C294.087,-49.6537 304.305,-36.3472 312.072,-26.2321"/>
<polygon fill="black" stroke="black" points="315.233,-22.1148 313.973,-27.4509 313.711,-24.0977 312.188,-26.0806 312.188,-26.0806 312.188,-26.0806 313.711,-24.0977 310.403,-24.7103 315.233,-22.1148 315.233,-22.1148"/>
</g>
<!-- v4&#45;&gt;v11 -->
<g id="edge18" class="edge"><title>v4&#45;&gt;v11</title>
<path fill="none" stroke="green" d="M298.836,-74.5662C340.238,-84.6031 439.183,-108.59 485.839,-119.9"/>
</g>
<!-- v5&#45;&gt;v14 -->
<g id="edge19" class="edge"><title>v5&#45;&gt;v14</title>
<path fill="none" stroke="green" d="M163.359,-21.2415C175.244,-28.0527 191.986,-36.3871 208,-40 304.898,-61.8608 557.2,-57.3836 655,-40 674.995,-36.446 696.567,-28.2018 712.109,-21.4084"/>
</g>
<!-- v6&#45;&gt;v14 -->
<g id="edge20" class="edge"><title>v6&#45;&gt;v14</title>
<path fill="none" stroke="green" d="M248.954,-21.2073C257.735,-28.0024 270.302,-36.3316 283,-40 362.419,-62.9446 573.609,-54.4669 655,-40 674.995,-36.446 696.567,-28.2018 712.109,-21.4084"/>
</g>
<!-- v7&#45;&gt;v14 -->
<g id="edge21" class="edge"><title>v7&#45;&gt;v14</title>
<path fill="none" stroke="green" d="M338.485,-21.2364C349.752,-28.0452 365.66,-36.3788 381,-40 440.26,-53.9894 595.051,-50.6557 655,-40 674.995,-36.446 696.567,-28.2018 712.109,-21.4084"/>
</g>
<!-- v9 -->
<g id="v9_SmartLight" class="node"><title>v9</title>
<ellipse fill="none" stroke="black" cx="424" cy="-11" rx="43" ry="11"/>
<text text-anchor="middle" x="424" y="-8.8" font-family="sans-serif" font-size="9.00">SmartLight</text>
</g>
<!-- v8&#45;&gt;v9 -->
<g id="edge12" class="edge"><title>v8&#45;&gt;v9</title>
<path fill="none" stroke="black" d="M434.676,-57.9883C432.704,-49.4941 429.843,-37.1697 427.579,-27.4169"/>
<polygon fill="black" stroke="black" points="426.392,-22.3039 429.714,-26.6655 426.957,-24.7391 427.523,-27.1744 427.523,-27.1744 427.523,-27.1744 426.957,-24.7391 425.331,-27.6832 426.392,-22.3039 426.392,-22.3039"/>
</g>
<!-- v10 -->
<g id="v10_Workstation" class="node"><title>v10</title>
<ellipse fill="none" stroke="black" cx="532" cy="-11" rx="47" ry="11"/>
<text text-anchor="middle" x="532" y="-8.8" font-family="sans-serif" font-size="9.00">Workstation</text>
</g>
<!-- v8&#45;&gt;v10 -->
<g id="edge13" class="edge"><title>v8&#45;&gt;v10</title>
<path fill="none" stroke="black" d="M450.209,-60.2134C466.095,-50.849 492.938,-35.0258 511.518,-24.0734"/>
<polygon fill="black" stroke="black" points="516.052,-21.4008 512.888,-25.8782 513.899,-22.6703 511.745,-23.9399 511.745,-23.9399 511.745,-23.9399 513.899,-22.6703 510.602,-22.0016 516.052,-21.4008 516.052,-21.4008"/>
</g>
<!-- v8&#45;&gt;v11 -->
<g id="edge22" class="edge"><title>v8&#45;&gt;v11</title>
<path fill="none" stroke="green" d="M448.507,-78.7077C462.159,-89.0392 484.823,-106.19 498.78,-116.753"/>
</g>
<!-- v9&#45;&gt;v14 -->
<g id="edge23" class="edge"><title>v9&#45;&gt;v14</title>
<path fill="none" stroke="green" d="M440.359,-21.2415C452.244,-28.0527 468.986,-36.3871 485,-40 558.703,-56.6279 580.61,-53.2224 655,-40 674.995,-36.446 696.567,-28.2018 712.109,-21.4084"/>
</g>
<!-- v10&#45;&gt;v14 -->
<g id="edge24" class="edge"><title>v10&#45;&gt;v14</title>
<path fill="none" stroke="green" d="M549.521,-21.2474C562.226,-28.0614 580.08,-36.3967 597,-40 622.212,-45.3692 629.62,-44.5112 655,-40 674.995,-36.446 696.567,-28.2018 712.109,-21.4084"/>
</g>
<!-- v12 -->
<g id="v12_Visitor" class="node"><title>v12</title>
<ellipse fill="none" stroke="black" cx="536" cy="-69" rx="32.5" ry="11"/>
<text text-anchor="middle" x="536" y="-66.8" font-family="sans-serif" font-size="9.00">Visitor</text>
</g>
<!-- v11&#45;&gt;v12 -->
<g id="edge14" class="edge"><title>v11&#45;&gt;v12</title>
<path fill="none" stroke="black" d="M515.469,-115.988C519.38,-107.229 525.109,-94.3956 529.522,-84.5103"/>
<polygon fill="black" stroke="black" points="531.569,-79.925 531.585,-85.4079 530.55,-82.2079 529.531,-84.4907 529.531,-84.4907 529.531,-84.4907 530.55,-82.2079 527.476,-83.5735 531.569,-79.925 531.569,-79.925"/>
</g>
<!-- v12&#45;&gt;v13 -->
<g id="edge15" class="edge"><title>v12&#45;&gt;v13</title>
<path fill="none" stroke="black" d="M550.46,-59.0026C565.903,-49.394 590.43,-34.1324 607.324,-23.6206"/>
<polygon fill="black" stroke="black" points="611.873,-20.7904 608.816,-25.3423 609.75,-22.1112 607.627,-23.432 607.627,-23.432 607.627,-23.432 609.75,-22.1112 606.439,-21.5216 611.873,-20.7904 611.873,-20.7904"/>
</g>
</g>
</svg>
