<?xml version="1.0" encoding="UTF-8" standalone="no"?>
<?xml-stylesheet href="style.css" type="text/css"?>
<!DOCTYPE svg PUBLIC "-//W3C//DTD SVG 1.1//EN"
 "http://www.w3.org/Graphics/SVG/1.1/DTD/svg11.dtd">
<!-- Generated by graphviz version 2.38.0 (20140413.2041)
 -->
<!-- Title: busNetwork.svg Pages: 1 -->
<svg width="360pt" height="84pt"
 viewBox="0.00 0.00 359.50 84.00" xmlns="http://www.w3.org/2000/svg" xmlns:xlink="http://www.w3.org/1999/xlink">
<g id="graph0" class="graph" transform="scale(1 1) rotate(0) translate(4 80)">
<title>busNetwork.svg</title>
<polygon fill="white" stroke="none" points="-4,4 -4,-80 355.5,-80 355.5,4 -4,4"/>
<!-- r0 -->
<g id="node1" class="node"><title>r0</title>
<polygon fill="none" stroke="black" stroke-dasharray="5,2" points="23,-76 0,-76 0,-58 23,-58 23,-76"/>
<text text-anchor="middle" x="11.5" y="-64.8" font-family="serif" font-size="9.00">0</text>
</g>
<!-- v0 -->
<g id="v0_InstallationBus" class="node"><title>v0</title>
<ellipse fill="none" stroke="black" cx="172.5" cy="-11" rx="61" ry="11"/>
<text text-anchor="middle" x="172.5" y="-8.8" font-family="sans-serif" font-size="9.00">InstallationBus</text>
</g>
<!-- r0&#45;&gt;v0 -->
<g id="edge1" class="edge"><title>r0&#45;&gt;v0</title>
<path fill="none" stroke="black" d="M23.0178,-61.5018C26.0884,-60.3329 29.4112,-59.0951 32.5,-58 68.9713,-45.0693 111.216,-31.3608 139.681,-22.3074"/>
<polygon fill="black" stroke="black" points="144.48,-20.7839 140.395,-24.4416 142.097,-21.5405 139.714,-22.2971 139.714,-22.2971 139.714,-22.2971 142.097,-21.5405 139.033,-20.1526 144.48,-20.7839 144.48,-20.7839"/>
</g>
<!-- onet2 -->
<g id="node2" class="node"><title>onet2</title>
<text text-anchor="middle" x="60.5" y="-64.8" font-family="serif" font-size="9.00">net2</text>
</g>
<!-- onet3 -->
<g id="node3" class="node"><title>onet3</title>
<text text-anchor="middle" x="116.5" y="-64.8" font-family="serif" font-size="9.00">net3</text>
</g>
<!-- onet4 -->
<g id="node4" class="node"><title>onet4</title>
<text text-anchor="middle" x="172.5" y="-64.8" font-family="serif" font-size="9.00">net4</text>
</g>
<!-- onet5 -->
<g id="node5" class="node"><title>onet5</title>
<text text-anchor="middle" x="228.5" y="-64.8" font-family="serif" font-size="9.00">net5</text>
</g>
<!-- onet6 -->
<g id="node6" class="node"><title>onet6</title>
<text text-anchor="middle" x="284.5" y="-64.8" font-family="serif" font-size="9.00">net6</text>
</g>
<!-- osl1 -->
<g id="node7" class="node"><title>osl1</title>
<text text-anchor="middle" x="336.5" y="-64.8" font-family="serif" font-size="9.00">sl1</text>
</g>
<!-- v0&#45;&gt;onet2 -->
<g id="edge2" class="edge"><title>v0&#45;&gt;onet2</title>
<path fill="none" stroke="green" d="M152.68,-21.556C131.328,-31.8509 97.7046,-48.0621 77.5104,-57.7986"/>
</g>
<!-- v0&#45;&gt;onet3 -->
<g id="edge3" class="edge"><title>v0&#45;&gt;onet3</title>
<path fill="none" stroke="green" d="M162.098,-22.0304C151.491,-32.259 135.217,-47.9517 125.25,-57.5625"/>
</g>
<!-- v0&#45;&gt;onet4 -->
<g id="edge4" class="edge"><title>v0&#45;&gt;onet4</title>
<path fill="none" stroke="green" d="M172.5,-22.0304C172.5,-32.259 172.5,-47.9517 172.5,-57.5625"/>
</g>
<!-- v0&#45;&gt;onet5 -->
<g id="edge5" class="edge"><title>v0&#45;&gt;onet5</title>
<path fill="none" stroke="green" d="M182.902,-22.0304C193.509,-32.259 209.783,-47.9517 219.75,-57.5625"/>
</g>
<!-- v0&#45;&gt;onet6 -->
<g id="edge6" class="edge"><title>v0&#45;&gt;onet6</title>
<path fill="none" stroke="green" d="M192.32,-21.556C213.672,-31.8509 247.295,-48.0621 267.49,-57.7986"/>
</g>
<!-- v0&#45;&gt;osl1 -->
<g id="edge7" class="edge"><title>v0&#45;&gt;osl1</title>
<path fill="none" stroke="green" d="M199.612,-20.87C227.823,-30.1086 273.274,-45.0182 312.5,-58 315.335,-58.9384 318.358,-59.9427 321.268,-60.9117"/>
</g>
</g>
</svg>
