<?xml version="1.0" encoding="UTF-8" standalone="no"?>
<?xml-stylesheet href="style.css" type="text/css"?>
<!DOCTYPE svg PUBLIC "-//W3C//DTD SVG 1.1//EN"
 "http://www.w3.org/Graphics/SVG/1.1/DTD/svg11.dtd">
<!-- Generated by graphviz version 2.38.0 (20140413.2041)
 -->
<!-- Title: laptop_has_data.svg Pages: 1 -->
<svg width="264pt" height="312pt"
 viewBox="0.00 0.00 263.50 312.00" xmlns="http://www.w3.org/2000/svg" xmlns:xlink="http://www.w3.org/1999/xlink">
<g id="graph0" class="graph" transform="scale(1 1) rotate(0) translate(4 308)">
<title>laptop_has_data.svg</title>
<polygon fill="white" stroke="none" points="-4,4 -4,-308 259.5,-308 259.5,4 -4,4"/>
<!-- r0 -->
<g id="node1" class="node"><title>r0</title>
<polygon fill="none" stroke="black" stroke-dasharray="5,2" points="135.5,-304 112.5,-304 112.5,-286 135.5,-286 135.5,-304"/>
<text text-anchor="middle" x="124" y="-292.8" font-family="serif" font-size="9.00">0</text>
</g>
<!-- v0 -->
<g id="v0_Room" class="node"><title>v0</title>
<ellipse fill="none" stroke="black" cx="144" cy="-239" rx="21.5" ry="11"/>
<text text-anchor="middle" x="144" y="-236.8" font-family="sans-serif" font-size="9.00">Room</text>
</g>
<!-- r0&#45;&gt;v0 -->
<g id="edge1" class="edge"><title>r0&#45;&gt;v0</title>
<path fill="none" stroke="black" d="M127.125,-285.562C130.156,-277.378 134.821,-264.784 138.478,-254.909"/>
<polygon fill="black" stroke="black" points="140.285,-250.03 140.658,-255.501 139.417,-252.375 138.548,-254.719 138.548,-254.719 138.548,-254.719 139.417,-252.375 136.438,-253.938 140.285,-250.03 140.285,-250.03"/>
</g>
<!-- oa -->
<g id="node2" class="node"><title>oa</title>
<text text-anchor="middle" x="165" y="-292.8" font-family="serif" font-size="9.00">a</text>
</g>
<!-- e0 -->
<g id="node3" class="node"><title>e0</title>
</g>
<!-- v2 -->
<g id="v2_Laptop" class="node"><title>v2</title>
<ellipse fill="none" stroke="black" cx="29" cy="-123" rx="29" ry="11"/>
<text text-anchor="middle" x="29" y="-120.8" font-family="sans-serif" font-size="9.00">Laptop</text>
</g>
<!-- e0&#45;&gt;v2 -->
<g id="edge8" class="edge"><title>e0&#45;&gt;v2</title>
<path fill="none" stroke="green" d="M29,-176.167C29,-167.586 29,-146.596 29,-134.012"/>
<polygon fill="green" stroke="green" points="32.5,-179.3 25.5,-179.3 25.5001,-177.9 32.5001,-177.9 32.5,-179.3"/>
<polyline fill="none" stroke="green" points="29,-180 29.0001,-176.5 "/>
</g>
<!-- e1 -->
<g id="node4" class="node"><title>e1</title>
</g>
<!-- v4 -->
<g id="v4_SmartLight" class="node"><title>v4</title>
<ellipse fill="none" stroke="black" cx="173" cy="-65" rx="43" ry="11"/>
<text text-anchor="middle" x="173" y="-62.8" font-family="sans-serif" font-size="9.00">SmartLight</text>
</g>
<!-- e1&#45;&gt;v4 -->
<g id="edge9" class="edge"><title>e1&#45;&gt;v4</title>
<path fill="none" stroke="green" d="M173,-118.167C173,-109.586 173,-88.5957 173,-76.0117"/>
<polygon fill="green" stroke="green" points="176.5,-121.3 169.5,-121.3 169.5,-119.9 176.5,-119.9 176.5,-121.3"/>
<polyline fill="none" stroke="green" points="173,-122 173,-118.5 "/>
</g>
<!-- v0&#45;&gt;oa -->
<g id="edge10" class="edge"><title>v0&#45;&gt;oa</title>
<path fill="none" stroke="green" d="M147.901,-250.03C151.878,-260.259 157.981,-275.952 161.719,-285.562"/>
</g>
<!-- v1 -->
<g id="v1_Visitor" class="node"><title>v1</title>
<ellipse fill="none" stroke="black" cx="83" cy="-181" rx="32.5" ry="11"/>
<text text-anchor="middle" x="83" y="-178.8" font-family="sans-serif" font-size="9.00">Visitor</text>
</g>
<!-- v0&#45;&gt;v1 -->
<g id="edge2" class="edge"><title>v0&#45;&gt;v1</title>
<path fill="none" stroke="black" d="M134.199,-229.003C124.241,-219.861 108.709,-205.601 97.3618,-195.185"/>
<polygon fill="black" stroke="black" points="93.3889,-191.537 98.5938,-193.261 95.2305,-193.228 97.0721,-194.919 97.0721,-194.919 97.0721,-194.919 95.2305,-193.228 95.5505,-196.576 93.3889,-191.537 93.3889,-191.537"/>
</g>
<!-- v0&#45;&gt;v4 -->
<g id="edge3" class="edge"><title>v0&#45;&gt;v4</title>
<path fill="none" stroke="black" d="M145.306,-227.837C148.115,-206.371 155.118,-154.862 163,-112 164.903,-101.653 167.421,-90.0795 169.454,-81.1302"/>
<polygon fill="black" stroke="black" points="170.587,-76.1933 171.661,-81.5699 170.027,-78.63 169.468,-81.0667 169.468,-81.0667 169.468,-81.0667 170.027,-78.63 167.275,-80.5635 170.587,-76.1933 170.587,-76.1933"/>
</g>
<!-- s1 -->
<g id="node11" class="node"><title>s1</title>
<polygon fill="gray" stroke="black" stroke-dasharray="5,2" points="255.5,-18 232.5,-18 232.5,-0 255.5,-0 255.5,-18"/>
<text text-anchor="middle" x="244" y="-6.8" font-family="serif" font-size="9.00">1</text>
</g>
<!-- v0&#45;&gt;s1 -->
<g id="edge6" class="edge"><title>v0&#45;&gt;s1</title>
<path fill="none" stroke="black" d="M149.783,-228.06C164.093,-203.149 201.685,-135.76 225,-76 231.963,-58.1522 237.67,-36.7096 240.955,-23.215"/>
<polygon fill="black" stroke="black" points="242.132,-18.2883 243.158,-23.6743 241.551,-20.7198 240.97,-23.1513 240.97,-23.1513 240.97,-23.1513 241.551,-20.7198 238.782,-22.6284 242.132,-18.2883 242.132,-18.2883"/>
</g>
<!-- v1&#45;&gt;v2 -->
<g id="edge4" class="edge"><title>v1&#45;&gt;v2</title>
<path fill="none" stroke="black" d="M73.5939,-170.246C64.8441,-161.172 51.7279,-147.57 41.9828,-137.464"/>
<polygon fill="black" stroke="black" points="38.2983,-133.643 43.3887,-135.68 40.0336,-135.442 41.769,-137.242 41.769,-137.242 41.769,-137.242 40.0336,-135.442 40.1493,-138.804 38.2983,-133.643 38.2983,-133.643"/>
</g>
<!-- s0 -->
<g id="node10" class="node"><title>s0</title>
<polygon fill="gray" stroke="black" stroke-dasharray="5,2" points="97.5,-18 74.5,-18 74.5,-0 97.5,-0 97.5,-18"/>
<text text-anchor="middle" x="86" y="-6.8" font-family="serif" font-size="9.00">0</text>
</g>
<!-- v1&#45;&gt;s0 -->
<g id="edge7" class="edge"><title>v1&#45;&gt;s0</title>
<path fill="none" stroke="black" d="M83.1787,-169.875C83.6938,-140.684 85.1821,-56.3501 85.7634,-23.4086"/>
<polygon fill="black" stroke="black" points="85.8548,-18.2282 88.0161,-23.2671 85.8106,-20.7278 85.7665,-23.2274 85.7665,-23.2274 85.7665,-23.2274 85.8106,-20.7278 83.5168,-23.1876 85.8548,-18.2282 85.8548,-18.2282"/>
</g>
<!-- v3 -->
<g id="v3_Data" class="node"><title>v3</title>
<ellipse fill="none" stroke="black" cx="29" cy="-65" rx="21.5" ry="11"/>
<text text-anchor="middle" x="29" y="-62.8" font-family="sans-serif" font-size="9.00">Data</text>
</g>
<!-- v2&#45;&gt;v3 -->
<g id="edge5" class="edge"><title>v2&#45;&gt;v3</title>
<path fill="none" stroke="black" d="M29,-111.988C29,-103.494 29,-91.1697 29,-81.4169"/>
<polygon fill="black" stroke="black" points="29,-76.3039 31.2501,-81.3038 29,-78.8039 29.0001,-81.3039 29.0001,-81.3039 29.0001,-81.3039 29,-78.8039 26.7501,-81.3039 29,-76.3039 29,-76.3039"/>
</g>
</g>
</svg>
