<?xml version="1.0" encoding="UTF-8" standalone="no"?>
<?xml-stylesheet href="style.css" type="text/css"?>
<!DOCTYPE svg PUBLIC "-//W3C//DTD SVG 1.1//EN"
 "http://www.w3.org/Graphics/SVG/1.1/DTD/svg11.dtd">
<!-- Generated by graphviz version 2.38.0 (20140413.2041)
 -->
<!-- Title: visitor_exit_room_lhs.svg Pages: 1 -->
<svg width="289pt" height="254pt"
 viewBox="0.00 0.00 288.50 254.00" xmlns="http://www.w3.org/2000/svg" xmlns:xlink="http://www.w3.org/1999/xlink">
<g id="graph0" class="graph" transform="scale(1 1) rotate(0) translate(4 250)">
<title>visitor_exit_room_lhs.svg</title>
<polygon fill="white" stroke="none" points="-4,4 -4,-250 284.5,-250 284.5,4 -4,4"/>
<!-- r0 -->
<g id="node1" class="node"><title>r0</title>
<polygon fill="none" stroke="black" stroke-dasharray="5,2" points="170,-246 147,-246 147,-228 170,-228 170,-246"/>
<text text-anchor="middle" x="158.5" y="-234.8" font-family="serif" font-size="9.00">0</text>
</g>
<!-- v0 -->
<g id="v0_Room" class="node"><title>v0</title>
<ellipse fill="none" stroke="black" cx="129.5" cy="-181" rx="21.5" ry="11"/>
<text text-anchor="middle" x="129.5" y="-178.8" font-family="sans-serif" font-size="9.00">Room</text>
</g>
<!-- r0&#45;&gt;v0 -->
<g id="edge1" class="edge"><title>r0&#45;&gt;v0</title>
<path fill="none" stroke="black" d="M153.969,-227.562C149.533,-219.303 142.685,-206.552 137.361,-196.638"/>
<polygon fill="black" stroke="black" points="134.887,-192.03 139.235,-195.371 136.07,-194.233 137.252,-196.435 137.252,-196.435 137.252,-196.435 136.07,-194.233 135.27,-197.5 134.887,-192.03 134.887,-192.03"/>
</g>
<!-- v3 -->
<g id="v3_Hallway" class="node"><title>v3</title>
<ellipse fill="none" stroke="black" cx="228.5" cy="-65" rx="32.5" ry="11"/>
<text text-anchor="middle" x="228.5" y="-62.8" font-family="sans-serif" font-size="9.00">Hallway</text>
</g>
<!-- r0&#45;&gt;v3 -->
<g id="edge2" class="edge"><title>r0&#45;&gt;v3</title>
<path fill="none" stroke="black" d="M161.876,-227.801C172.913,-200.997 208.034,-115.703 222.343,-80.9516"/>
<polygon fill="black" stroke="black" points="224.298,-76.204 224.475,-81.6841 223.346,-78.5157 222.395,-80.8274 222.395,-80.8274 222.395,-80.8274 223.346,-78.5157 220.314,-79.9707 224.298,-76.204 224.298,-76.204"/>
</g>
<!-- ob -->
<g id="node2" class="node"><title>ob</title>
<text text-anchor="middle" x="228.5" y="-234.8" font-family="serif" font-size="9.00">b</text>
</g>
<!-- oc -->
<g id="node3" class="node"><title>oc</title>
<text text-anchor="middle" x="269.5" y="-234.8" font-family="serif" font-size="9.00">c</text>
</g>
<!-- e1 -->
<g id="node4" class="node"><title>e1</title>
</g>
<!-- v2 -->
<g id="v2_Laptop" class="node"><title>v2</title>
<ellipse fill="none" stroke="black" cx="78.5" cy="-65" rx="29" ry="11"/>
<text text-anchor="middle" x="78.5" y="-62.8" font-family="sans-serif" font-size="9.00">Laptop</text>
</g>
<!-- e1&#45;&gt;v2 -->
<g id="edge10" class="edge"><title>e1&#45;&gt;v2</title>
<path fill="none" stroke="green" d="M78.5,-118.167C78.5,-109.586 78.5,-88.5957 78.5,-76.0117"/>
<polygon fill="green" stroke="green" points="82,-121.3 75,-121.3 75.0001,-119.9 82.0001,-119.9 82,-121.3"/>
<polyline fill="none" stroke="green" points="78.5,-122 78.5001,-118.5 "/>
</g>
<!-- v1 -->
<g id="v1_Visitor" class="node"><title>v1</title>
<ellipse fill="none" stroke="black" cx="129.5" cy="-123" rx="32.5" ry="11"/>
<text text-anchor="middle" x="129.5" y="-120.8" font-family="sans-serif" font-size="9.00">Visitor</text>
</g>
<!-- v0&#45;&gt;v1 -->
<g id="edge3" class="edge"><title>v0&#45;&gt;v1</title>
<path fill="none" stroke="black" d="M129.5,-169.988C129.5,-161.494 129.5,-149.17 129.5,-139.417"/>
<polygon fill="black" stroke="black" points="129.5,-134.304 131.75,-139.304 129.5,-136.804 129.5,-139.304 129.5,-139.304 129.5,-139.304 129.5,-136.804 127.25,-139.304 129.5,-134.304 129.5,-134.304"/>
</g>
<!-- v0&#45;&gt;v3 -->
<g id="edge9" class="edge"><title>v0&#45;&gt;v3</title>
<path fill="none" stroke="green" d="M114.706,-173.006C91.4318,-161.055 50.66,-135.692 68.5,-112 84.2345,-91.1044 157.702,-76.7614 199.399,-70.1508"/>
</g>
<!-- s2 -->
<g id="node11" class="node"><title>s2</title>
<polygon fill="gray" stroke="black" stroke-dasharray="5,2" points="23,-18 0,-18 0,-0 23,-0 23,-18"/>
<text text-anchor="middle" x="11.5" y="-6.8" font-family="serif" font-size="9.00">2</text>
</g>
<!-- v0&#45;&gt;s2 -->
<g id="edge5" class="edge"><title>v0&#45;&gt;s2</title>
<path fill="none" stroke="black" d="M114.064,-173.146C98.6027,-165.576 75.0672,-152.03 60.5,-134 32.6399,-99.5169 19.0409,-47.2295 13.9577,-23.0758"/>
<polygon fill="black" stroke="black" points="12.948,-18.0982 16.1471,-22.5511 13.445,-20.5483 13.9421,-22.9984 13.9421,-22.9984 13.9421,-22.9984 13.445,-20.5483 11.737,-23.4457 12.948,-18.0982 12.948,-18.0982"/>
</g>
<!-- v1&#45;&gt;v2 -->
<g id="edge4" class="edge"><title>v1&#45;&gt;v2</title>
<path fill="none" stroke="black" d="M120.616,-112.246C112.353,-103.172 99.9652,-89.5697 90.7615,-79.4636"/>
<polygon fill="black" stroke="black" points="87.2817,-75.6427 92.3119,-77.8244 88.9651,-77.491 90.6484,-79.3394 90.6484,-79.3394 90.6484,-79.3394 88.9651,-77.491 88.9849,-80.8544 87.2817,-75.6427 87.2817,-75.6427"/>
</g>
<!-- s1 -->
<g id="node10" class="node"><title>s1</title>
<polygon fill="gray" stroke="black" stroke-dasharray="5,2" points="147,-18 124,-18 124,-0 147,-0 147,-18"/>
<text text-anchor="middle" x="135.5" y="-6.8" font-family="serif" font-size="9.00">1</text>
</g>
<!-- v1&#45;&gt;s1 -->
<g id="edge6" class="edge"><title>v1&#45;&gt;s1</title>
<path fill="none" stroke="black" d="M130.054,-111.664C131.145,-91.2956 133.572,-45.9887 134.783,-23.376"/>
<polygon fill="black" stroke="black" points="135.064,-18.145 137.043,-23.2582 134.93,-20.6414 134.796,-23.1378 134.796,-23.1378 134.796,-23.1378 134.93,-20.6414 132.549,-23.0174 135.064,-18.145 135.064,-18.145"/>
</g>
<!-- s0 -->
<g id="node9" class="node"><title>s0</title>
<polygon fill="gray" stroke="black" stroke-dasharray="5,2" points="90,-18 67,-18 67,-0 90,-0 90,-18"/>
<text text-anchor="middle" x="78.5" y="-6.8" font-family="serif" font-size="9.00">0</text>
</g>
<!-- v2&#45;&gt;s0 -->
<g id="edge7" class="edge"><title>v2&#45;&gt;s0</title>
<path fill="none" stroke="black" d="M78.5,-53.5883C78.5,-44.98 78.5,-32.6988 78.5,-23.3651"/>
<polygon fill="black" stroke="black" points="78.5,-18.2602 80.7501,-23.2602 78.5,-20.7602 78.5001,-23.2602 78.5001,-23.2602 78.5001,-23.2602 78.5,-20.7602 76.2501,-23.2603 78.5,-18.2602 78.5,-18.2602"/>
</g>
<!-- v3&#45;&gt;ob -->
<g id="edge11" class="edge"><title>v3&#45;&gt;ob</title>
<path fill="none" stroke="green" d="M228.5,-76.204C228.5,-107.172 228.5,-199.679 228.5,-227.801"/>
</g>
<!-- v3&#45;&gt;oc -->
<g id="edge12" class="edge"><title>v3&#45;&gt;oc</title>
<path fill="none" stroke="green" d="M231.853,-76.1639C234.85,-85.4404 239.258,-99.5598 242.5,-112 253.778,-155.28 264.147,-207.892 267.958,-227.821"/>
</g>
<!-- s3 -->
<g id="node12" class="node"><title>s3</title>
<polygon fill="gray" stroke="black" stroke-dasharray="5,2" points="240,-18 217,-18 217,-0 240,-0 240,-18"/>
<text text-anchor="middle" x="228.5" y="-6.8" font-family="serif" font-size="9.00">3</text>
</g>
<!-- v3&#45;&gt;s3 -->
<g id="edge8" class="edge"><title>v3&#45;&gt;s3</title>
<path fill="none" stroke="black" d="M228.5,-53.5883C228.5,-44.98 228.5,-32.6988 228.5,-23.3651"/>
<polygon fill="black" stroke="black" points="228.5,-18.2602 230.75,-23.2602 228.5,-20.7602 228.5,-23.2602 228.5,-23.2602 228.5,-23.2602 228.5,-20.7602 226.25,-23.2603 228.5,-18.2602 228.5,-18.2602"/>
</g>
</g>
</svg>
