<?xml version="1.0" encoding="UTF-8" standalone="no"?>
<?xml-stylesheet href="style.css" type="text/css"?>
<!DOCTYPE svg PUBLIC "-//W3C//DTD SVG 1.1//EN"
 "http://www.w3.org/Graphics/SVG/1.1/DTD/svg11.dtd">
<!-- Generated by graphviz version 2.38.0 (20140413.2041)
 -->
<!-- Title: visitor_enter_room_rhs.svg Pages: 1 -->
<svg width="317pt" height="254pt"
 viewBox="0.00 0.00 316.50 254.00" xmlns="http://www.w3.org/2000/svg" xmlns:xlink="http://www.w3.org/1999/xlink">
<g id="graph0" class="graph" transform="scale(1 1) rotate(0) translate(4 250)">
<title>visitor_enter_room_rhs.svg</title>
<polygon fill="white" stroke="none" points="-4,4 -4,-250 312.5,-250 312.5,4 -4,4"/>
<!-- r0 -->
<g id="node1" class="node"><title>r0</title>
<polygon fill="none" stroke="black" stroke-dasharray="5,2" points="179,-246 156,-246 156,-228 179,-228 179,-246"/>
<text text-anchor="middle" x="167.5" y="-234.8" font-family="serif" font-size="9.00">0</text>
</g>
<!-- v0 -->
<g id="v0_Hallway" class="node"><title>v0</title>
<ellipse fill="none" stroke="black" cx="256.5" cy="-65" rx="32.5" ry="11"/>
<text text-anchor="middle" x="256.5" y="-62.8" font-family="sans-serif" font-size="9.00">Hallway</text>
</g>
<!-- r0&#45;&gt;v0 -->
<g id="edge1" class="edge"><title>r0&#45;&gt;v0</title>
<path fill="none" stroke="black" d="M171.793,-227.801C185.825,-200.997 230.479,-115.703 248.672,-80.9516"/>
<polygon fill="black" stroke="black" points="251.158,-76.204 250.832,-81.6773 249.998,-78.4188 248.839,-80.6337 248.839,-80.6337 248.839,-80.6337 249.998,-78.4188 246.845,-79.5901 251.158,-76.204 251.158,-76.204"/>
</g>
<!-- v1 -->
<g id="v1_Room" class="node"><title>v1</title>
<ellipse fill="none" stroke="black" cx="119.5" cy="-181" rx="21.5" ry="11"/>
<text text-anchor="middle" x="119.5" y="-178.8" font-family="sans-serif" font-size="9.00">Room</text>
</g>
<!-- r0&#45;&gt;v1 -->
<g id="edge2" class="edge"><title>r0&#45;&gt;v1</title>
<path fill="none" stroke="black" d="M160,-227.562C152.272,-218.868 140.12,-205.197 131.141,-195.097"/>
<polygon fill="black" stroke="black" points="127.751,-191.283 132.755,-193.525 129.412,-193.151 131.073,-195.02 131.073,-195.02 131.073,-195.02 129.412,-193.151 129.392,-196.515 127.751,-191.283 127.751,-191.283"/>
</g>
<!-- ob -->
<g id="node2" class="node"><title>ob</title>
<text text-anchor="middle" x="256.5" y="-234.8" font-family="serif" font-size="9.00">b</text>
</g>
<!-- oc -->
<g id="node3" class="node"><title>oc</title>
<text text-anchor="middle" x="297.5" y="-234.8" font-family="serif" font-size="9.00">c</text>
</g>
<!-- e1 -->
<g id="node4" class="node"><title>e1</title>
</g>
<!-- v3 -->
<g id="v3_Laptop" class="node"><title>v3</title>
<ellipse fill="none" stroke="black" cx="68.5" cy="-65" rx="29" ry="11"/>
<text text-anchor="middle" x="68.5" y="-62.8" font-family="sans-serif" font-size="9.00">Laptop</text>
</g>
<!-- e1&#45;&gt;v3 -->
<g id="edge10" class="edge"><title>e1&#45;&gt;v3</title>
<path fill="none" stroke="green" d="M68.5,-118.167C68.5,-109.586 68.5,-88.5957 68.5,-76.0117"/>
<polygon fill="green" stroke="green" points="72,-121.3 65,-121.3 65.0001,-119.9 72.0001,-119.9 72,-121.3"/>
<polyline fill="none" stroke="green" points="68.5,-122 68.5001,-118.5 "/>
</g>
<!-- v0&#45;&gt;ob -->
<g id="edge11" class="edge"><title>v0&#45;&gt;ob</title>
<path fill="none" stroke="green" d="M256.5,-76.204C256.5,-107.172 256.5,-199.679 256.5,-227.801"/>
</g>
<!-- v0&#45;&gt;oc -->
<g id="edge12" class="edge"><title>v0&#45;&gt;oc</title>
<path fill="none" stroke="green" d="M259.853,-76.1639C262.85,-85.4404 267.258,-99.5598 270.5,-112 281.778,-155.28 292.147,-207.892 295.958,-227.821"/>
</g>
<!-- v0&#45;&gt;v1 -->
<g id="edge9" class="edge"><title>v0&#45;&gt;v1</title>
<path fill="none" stroke="green" d="M245.033,-75.5418C218.975,-97.2249 155.608,-149.954 130.25,-171.055"/>
</g>
<!-- s0 -->
<g id="node9" class="node"><title>s0</title>
<polygon fill="gray" stroke="black" stroke-dasharray="5,2" points="268,-18 245,-18 245,-0 268,-0 268,-18"/>
<text text-anchor="middle" x="256.5" y="-6.8" font-family="serif" font-size="9.00">0</text>
</g>
<!-- v0&#45;&gt;s0 -->
<g id="edge5" class="edge"><title>v0&#45;&gt;s0</title>
<path fill="none" stroke="black" d="M256.5,-53.5883C256.5,-44.98 256.5,-32.6988 256.5,-23.3651"/>
<polygon fill="black" stroke="black" points="256.5,-18.2602 258.75,-23.2602 256.5,-20.7602 256.5,-23.2602 256.5,-23.2602 256.5,-23.2602 256.5,-20.7602 254.25,-23.2603 256.5,-18.2602 256.5,-18.2602"/>
</g>
<!-- v2 -->
<g id="v2_Visitor" class="node"><title>v2</title>
<ellipse fill="none" stroke="black" cx="119.5" cy="-123" rx="32.5" ry="11"/>
<text text-anchor="middle" x="119.5" y="-120.8" font-family="sans-serif" font-size="9.00">Visitor</text>
</g>
<!-- v1&#45;&gt;v2 -->
<g id="edge3" class="edge"><title>v1&#45;&gt;v2</title>
<path fill="none" stroke="black" d="M119.5,-169.988C119.5,-161.494 119.5,-149.17 119.5,-139.417"/>
<polygon fill="black" stroke="black" points="119.5,-134.304 121.75,-139.304 119.5,-136.804 119.5,-139.304 119.5,-139.304 119.5,-139.304 119.5,-136.804 117.25,-139.304 119.5,-134.304 119.5,-134.304"/>
</g>
<!-- s3 -->
<g id="node12" class="node"><title>s3</title>
<polygon fill="gray" stroke="black" stroke-dasharray="5,2" points="23,-18 0,-18 0,-0 23,-0 23,-18"/>
<text text-anchor="middle" x="11.5" y="-6.8" font-family="serif" font-size="9.00">3</text>
</g>
<!-- v1&#45;&gt;s3 -->
<g id="edge6" class="edge"><title>v1&#45;&gt;s3</title>
<path fill="none" stroke="black" d="M105.879,-172.366C92.4255,-164.273 71.9632,-150.405 58.5,-134 30.5289,-99.9168 18.1043,-47.4309 13.6198,-23.1519"/>
<polygon fill="black" stroke="black" points="12.7352,-18.1474 15.8212,-22.6795 13.1704,-20.6093 13.6056,-23.0711 13.6056,-23.0711 13.6056,-23.0711 13.1704,-20.6093 11.3899,-23.4628 12.7352,-18.1474 12.7352,-18.1474"/>
</g>
<!-- v2&#45;&gt;v3 -->
<g id="edge4" class="edge"><title>v2&#45;&gt;v3</title>
<path fill="none" stroke="black" d="M110.616,-112.246C102.353,-103.172 89.9652,-89.5697 80.7615,-79.4636"/>
<polygon fill="black" stroke="black" points="77.2817,-75.6427 82.3119,-77.8244 78.9651,-77.491 80.6484,-79.3394 80.6484,-79.3394 80.6484,-79.3394 78.9651,-77.491 78.9849,-80.8544 77.2817,-75.6427 77.2817,-75.6427"/>
</g>
<!-- s2 -->
<g id="node11" class="node"><title>s2</title>
<polygon fill="gray" stroke="black" stroke-dasharray="5,2" points="137,-18 114,-18 114,-0 137,-0 137,-18"/>
<text text-anchor="middle" x="125.5" y="-6.8" font-family="serif" font-size="9.00">2</text>
</g>
<!-- v2&#45;&gt;s2 -->
<g id="edge7" class="edge"><title>v2&#45;&gt;s2</title>
<path fill="none" stroke="black" d="M120.054,-111.664C121.145,-91.2956 123.572,-45.9887 124.783,-23.376"/>
<polygon fill="black" stroke="black" points="125.064,-18.145 127.043,-23.2582 124.93,-20.6414 124.796,-23.1378 124.796,-23.1378 124.796,-23.1378 124.93,-20.6414 122.549,-23.0174 125.064,-18.145 125.064,-18.145"/>
</g>
<!-- s1 -->
<g id="node10" class="node"><title>s1</title>
<polygon fill="gray" stroke="black" stroke-dasharray="5,2" points="80,-18 57,-18 57,-0 80,-0 80,-18"/>
<text text-anchor="middle" x="68.5" y="-6.8" font-family="serif" font-size="9.00">1</text>
</g>
<!-- v3&#45;&gt;s1 -->
<g id="edge8" class="edge"><title>v3&#45;&gt;s1</title>
<path fill="none" stroke="black" d="M68.5,-53.5883C68.5,-44.98 68.5,-32.6988 68.5,-23.3651"/>
<polygon fill="black" stroke="black" points="68.5,-18.2602 70.7501,-23.2602 68.5,-20.7602 68.5001,-23.2602 68.5001,-23.2602 68.5001,-23.2602 68.5,-20.7602 66.2501,-23.2603 68.5,-18.2602 68.5,-18.2602"/>
</g>
</g>
</svg>
