<?xml version="1.0" encoding="UTF-8" standalone="no"?>
<?xml-stylesheet href="style.css" type="text/css"?>
<!DOCTYPE svg PUBLIC "-//W3C//DTD SVG 1.1//EN"
 "http://www.w3.org/Graphics/SVG/1.1/DTD/svg11.dtd">
<!-- Generated by graphviz version 2.38.0 (20140413.2041)
 -->
<!-- Title: 15.svg Pages: 1 -->
<svg width="1199pt" height="179pt"
 viewBox="0.00 0.00 1199.00 179.00" xmlns="http://www.w3.org/2000/svg" xmlns:xlink="http://www.w3.org/1999/xlink">
<g id="graph0" class="graph" transform="scale(1 1) rotate(0) translate(4 175)">
<title>15.svg</title>
<polygon fill="white" stroke="none" points="-4,4 -4,-175 1195,-175 1195,4 -4,4"/>
<!-- r0 -->
<g id="node1" class="node"><title>r0</title>
<polygon fill="none" stroke="black" stroke-dasharray="5,2" points="185.5,-171 162.5,-171 162.5,-153 185.5,-153 185.5,-171"/>
<text text-anchor="middle" x="174" y="-159.8" font-family="serif" font-size="9.00">0</text>
</g>
<!-- v6 -->
<g id="v6_Field" class="node"><title>v6</title>
<ellipse fill="none" stroke="black" cx="25" cy="-11" rx="25" ry="11"/>
<text text-anchor="middle" x="25" y="-8.8" font-family="sans-serif" font-size="9.00">Field</text>
</g>
<!-- r0&#45;&gt;v6 -->
<g id="edge1" class="edge"><title>r0&#45;&gt;v6</title>
<path fill="none" stroke="black" d="M162.376,-153.136C142.828,-139.588 102.698,-110.364 74,-80 58.0157,-63.0878 42.8801,-40.7689 33.7706,-26.3983"/>
<polygon fill="black" stroke="black" points="30.9198,-21.8488 35.4813,-24.891 32.2472,-23.9673 33.5747,-26.0858 33.5747,-26.0858 33.5747,-26.0858 32.2472,-23.9673 31.6681,-27.2805 30.9198,-21.8488 30.9198,-21.8488"/>
</g>
<!-- v7 -->
<g id="v7_Aura" class="node"><title>v7</title>
<ellipse fill="none" stroke="black" cx="113" cy="-69" rx="21.5" ry="11"/>
<text text-anchor="middle" x="113" y="-66.8" font-family="sans-serif" font-size="9.00">Aura</text>
</g>
<!-- r0&#45;&gt;v7 -->
<g id="edge2" class="edge"><title>r0&#45;&gt;v7</title>
<path fill="none" stroke="black" d="M165.157,-152.911C156.404,-144.557 143.038,-130.826 134,-117 127.42,-106.935 121.956,-94.4673 118.252,-84.9025"/>
<polygon fill="black" stroke="black" points="116.479,-80.1934 120.347,-84.08 117.36,-82.5331 118.241,-84.8728 118.241,-84.8728 118.241,-84.8728 117.36,-82.5331 116.135,-85.6656 116.479,-80.1934 116.479,-80.1934"/>
</g>
<!-- v8 -->
<g id="v8_Aura" class="node"><title>v8</title>
<ellipse fill="none" stroke="black" cx="174" cy="-69" rx="21.5" ry="11"/>
<text text-anchor="middle" x="174" y="-66.8" font-family="sans-serif" font-size="9.00">Aura</text>
</g>
<!-- r0&#45;&gt;v8 -->
<g id="edge3" class="edge"><title>r0&#45;&gt;v8</title>
<path fill="none" stroke="black" d="M174,-152.924C174,-137.736 174,-104.696 174,-85.2178"/>
<polygon fill="black" stroke="black" points="174,-80.1095 176.25,-85.1095 174,-82.6095 174,-85.1095 174,-85.1095 174,-85.1095 174,-82.6095 171.75,-85.1096 174,-80.1095 174,-80.1095"/>
</g>
<!-- v9 -->
<g id="v9_Aura" class="node"><title>v9</title>
<ellipse fill="none" stroke="black" cx="274" cy="-69" rx="21.5" ry="11"/>
<text text-anchor="middle" x="274" y="-66.8" font-family="sans-serif" font-size="9.00">Aura</text>
</g>
<!-- r0&#45;&gt;v9 -->
<g id="edge4" class="edge"><title>r0&#45;&gt;v9</title>
<path fill="none" stroke="black" d="M182.874,-152.924C200.351,-137.02 239.337,-101.543 260.2,-82.5579"/>
<polygon fill="black" stroke="black" points="264.119,-78.9914 261.936,-84.0208 262.27,-80.6741 260.421,-82.3567 260.421,-82.3567 260.421,-82.3567 262.27,-80.6741 258.907,-80.6926 264.119,-78.9914 264.119,-78.9914"/>
</g>
<!-- v13 -->
<g id="v13_Aura" class="node"><title>v13</title>
<ellipse fill="none" stroke="black" cx="1001" cy="-69" rx="21.5" ry="11"/>
<text text-anchor="middle" x="1001" y="-66.8" font-family="sans-serif" font-size="9.00">Aura</text>
</g>
<!-- r0&#45;&gt;v13 -->
<g id="edge5" class="edge"><title>r0&#45;&gt;v13</title>
<path fill="none" stroke="black" d="M185.829,-160.73C258.828,-158.872 655.275,-146.005 970,-80 973.124,-79.3449 976.377,-78.4926 979.55,-77.562"/>
<polygon fill="black" stroke="black" points="984.442,-76.052 980.328,-79.6767 982.053,-76.7894 979.664,-77.5268 979.664,-77.5268 979.664,-77.5268 982.053,-76.7894 979.001,-75.3769 984.442,-76.052 984.442,-76.052"/>
</g>
<!-- r1 -->
<g id="node2" class="node"><title>r1</title>
<polygon fill="none" stroke="black" stroke-dasharray="5,2" points="943.5,-171 920.5,-171 920.5,-153 943.5,-153 943.5,-171"/>
<text text-anchor="middle" x="932" y="-159.8" font-family="serif" font-size="9.00">1</text>
</g>
<!-- v3 -->
<g id="v3_Locale" class="node"><title>v3</title>
<ellipse fill="none" stroke="black" cx="1162" cy="-11" rx="29" ry="11"/>
<text text-anchor="middle" x="1162" y="-8.8" font-family="sans-serif" font-size="9.00">Locale</text>
</g>
<!-- r1&#45;&gt;v3 -->
<g id="edge6" class="edge"><title>r1&#45;&gt;v3</title>
<path fill="none" stroke="black" d="M943.647,-157.258C963.302,-150.678 1003.95,-135.922 1035,-117 1080.31,-89.3909 1126.62,-46.6786 1148.71,-25.2355"/>
<polygon fill="black" stroke="black" points="1152.54,-21.4875 1150.54,-26.5912 1150.75,-23.2347 1148.96,-24.9818 1148.96,-24.9818 1148.96,-24.9818 1150.75,-23.2347 1147.39,-23.3725 1152.54,-21.4875 1152.54,-21.4875"/>
</g>
<!-- v4 -->
<g id="v4_Locale" class="node"><title>v4</title>
<ellipse fill="none" stroke="black" cx="932" cy="-69" rx="29" ry="11"/>
<text text-anchor="middle" x="932" y="-66.8" font-family="sans-serif" font-size="9.00">Locale</text>
</g>
<!-- r1&#45;&gt;v4 -->
<g id="edge7" class="edge"><title>r1&#45;&gt;v4</title>
<path fill="none" stroke="black" d="M932,-152.924C932,-137.736 932,-104.696 932,-85.2178"/>
<polygon fill="black" stroke="black" points="932,-80.1095 934.25,-85.1095 932,-82.6095 932,-85.1095 932,-85.1095 932,-85.1095 932,-82.6095 929.75,-85.1096 932,-80.1095 932,-80.1095"/>
</g>
<!-- v15 -->
<g id="v15_Locale" class="node"><title>v15</title>
<ellipse fill="none" stroke="black" cx="655" cy="-69" rx="29" ry="11"/>
<text text-anchor="middle" x="655" y="-66.8" font-family="sans-serif" font-size="9.00">Locale</text>
</g>
<!-- r1&#45;&gt;v15 -->
<g id="edge8" class="edge"><title>r1&#45;&gt;v15</title>
<path fill="none" stroke="black" d="M920.45,-157.206C879.302,-143.688 739.211,-97.6651 680.849,-78.4921"/>
<polygon fill="black" stroke="black" points="675.793,-76.8311 681.246,-76.2541 678.169,-77.6114 680.544,-78.3917 680.544,-78.3917 680.544,-78.3917 678.169,-77.6114 679.841,-80.5293 675.793,-76.8311 675.793,-76.8311"/>
</g>
<!-- r2 -->
<g id="node3" class="node"><title>r2</title>
<polygon fill="none" stroke="black" stroke-dasharray="5,2" points="472.5,-171 449.5,-171 449.5,-153 472.5,-153 472.5,-171"/>
<text text-anchor="middle" x="461" y="-159.8" font-family="serif" font-size="9.00">2</text>
</g>
<!-- v0 -->
<g id="v0_Area(2)" class="node"><title>v0</title>
<ellipse fill="none" stroke="black" cx="305" cy="-11" rx="32.5" ry="11"/>
<text text-anchor="middle" x="305" y="-8.8" font-family="sans-serif" font-size="9.00">Area(2)</text>
</g>
<!-- r2&#45;&gt;v0 -->
<g id="edge9" class="edge"><title>r2&#45;&gt;v0</title>
<path fill="none" stroke="black" d="M452.613,-152.989C427.174,-128.692 350.7,-55.6493 319.001,-25.3727"/>
<polygon fill="black" stroke="black" points="315.011,-21.5615 320.181,-23.3879 316.819,-23.2883 318.626,-25.015 318.626,-25.015 318.626,-25.015 316.819,-23.2883 317.072,-26.6421 315.011,-21.5615 315.011,-21.5615"/>
</g>
<!-- v1 -->
<g id="v1_Area(1)" class="node"><title>v1</title>
<ellipse fill="none" stroke="black" cx="735" cy="-69" rx="32.5" ry="11"/>
<text text-anchor="middle" x="735" y="-66.8" font-family="sans-serif" font-size="9.00">Area(1)</text>
</g>
<!-- r2&#45;&gt;v1 -->
<g id="edge10" class="edge"><title>r2&#45;&gt;v1</title>
<path fill="none" stroke="black" d="M472.773,-157.09C513.64,-143.517 650.037,-98.2176 708.273,-78.8763"/>
<polygon fill="black" stroke="black" points="713.328,-77.1976 709.292,-80.909 710.955,-77.9856 708.583,-78.7736 708.583,-78.7736 708.583,-78.7736 710.955,-77.9856 707.874,-76.6383 713.328,-77.1976 713.328,-77.1976"/>
</g>
<!-- v20 -->
<g id="v20_Area(0)" class="node"><title>v20</title>
<ellipse fill="none" stroke="black" cx="461" cy="-69" rx="32.5" ry="11"/>
<text text-anchor="middle" x="461" y="-66.8" font-family="sans-serif" font-size="9.00">Area(0)</text>
</g>
<!-- r2&#45;&gt;v20 -->
<g id="edge11" class="edge"><title>r2&#45;&gt;v20</title>
<path fill="none" stroke="black" d="M461,-152.924C461,-137.736 461,-104.696 461,-85.2178"/>
<polygon fill="black" stroke="black" points="461,-80.1095 463.25,-85.1095 461,-82.6095 461,-85.1095 461,-85.1095 461,-85.1095 461,-82.6095 458.75,-85.1096 461,-80.1095 461,-80.1095"/>
</g>
<!-- e2 -->
<g id="node4" class="node"><title>e2</title>
</g>
<!-- v2 -->
<g id="v2_GPS(11)" class="node"><title>v2</title>
<ellipse fill="none" stroke="black" cx="831" cy="-11" rx="32.5" ry="11"/>
<text text-anchor="middle" x="831" y="-8.8" font-family="sans-serif" font-size="9.00">GPS(11)</text>
</g>
<!-- e2&#45;&gt;v2 -->
<g id="edge34" class="edge"><title>e2&#45;&gt;v2</title>
<path fill="none" stroke="green" d="M1026,-116C1026,-116 946.003,-111.519 894,-80 868.952,-64.818 847.677,-36.8535 837.47,-21.9551"/>
</g>
<!-- v5 -->
<g id="v5_Lion" class="node"><title>v5</title>
<ellipse fill="none" stroke="black" cx="1025" cy="-11" rx="21.5" ry="11"/>
<text text-anchor="middle" x="1025" y="-8.8" font-family="sans-serif" font-size="9.00">Lion</text>
</g>
<!-- e2&#45;&gt;v5 -->
<g id="edge35" class="edge"><title>e2&#45;&gt;v5</title>
<path fill="none" stroke="green" d="M1026,-116C1026,-116 1029.89,-96.1151 1031,-80 1032.42,-59.4276 1029.14,-35.4065 1026.89,-22.1287"/>
</g>
<!-- e2&#45;&gt;v13 -->
<g id="edge36" class="edge"><title>e2&#45;&gt;v13</title>
<path fill="none" stroke="green" d="M1026,-116C1026,-116 1013.64,-93.2583 1006.3,-79.7554"/>
</g>
<!-- v14 -->
<g id="v14_Child" class="node"><title>v14</title>
<ellipse fill="none" stroke="black" cx="1090" cy="-11" rx="25" ry="11"/>
<text text-anchor="middle" x="1090" y="-8.8" font-family="sans-serif" font-size="9.00">Child</text>
</g>
<!-- e2&#45;&gt;v14 -->
<g id="edge37" class="edge"><title>e2&#45;&gt;v14</title>
<path fill="none" stroke="green" d="M1026,-116C1026,-116 1067.84,-48.0023 1083.86,-21.972"/>
</g>
<!-- e3 -->
<g id="node5" class="node"><title>e3</title>
</g>
<!-- e3&#45;&gt;v7 -->
<g id="edge38" class="edge"><title>e3&#45;&gt;v7</title>
<path fill="none" stroke="green" d="M144,-116C144,-116 128.674,-93.2583 119.574,-79.7554"/>
</g>
<!-- v10 -->
<g id="v10_Child" class="node"><title>v10</title>
<ellipse fill="none" stroke="black" cx="93" cy="-11" rx="25" ry="11"/>
<text text-anchor="middle" x="93" y="-8.8" font-family="sans-serif" font-size="9.00">Child</text>
</g>
<!-- e3&#45;&gt;v10 -->
<g id="edge39" class="edge"><title>e3&#45;&gt;v10</title>
<path fill="none" stroke="green" d="M144,-116C144,-116 97.8979,-107.615 82,-80 71.3792,-61.5517 80.846,-35.8829 87.6008,-21.9535"/>
</g>
<!-- v16 -->
<g id="v16_Lion" class="node"><title>v16</title>
<ellipse fill="none" stroke="black" cx="530" cy="-11" rx="21.5" ry="11"/>
<text text-anchor="middle" x="530" y="-8.8" font-family="sans-serif" font-size="9.00">Lion</text>
</g>
<!-- e3&#45;&gt;v16 -->
<g id="edge40" class="edge"><title>e3&#45;&gt;v16</title>
<path fill="none" stroke="green" d="M144,-116C144,-116 469.938,-103.882 502,-80 520.737,-66.0433 526.994,-37.2922 529.039,-22.03"/>
</g>
<!-- v21 -->
<g id="v21_GPS(1)" class="node"><title>v21</title>
<ellipse fill="none" stroke="black" cx="385" cy="-11" rx="29" ry="11"/>
<text text-anchor="middle" x="385" y="-8.8" font-family="sans-serif" font-size="9.00">GPS(1)</text>
</g>
<!-- e3&#45;&gt;v21 -->
<g id="edge41" class="edge"><title>e3&#45;&gt;v21</title>
<path fill="none" stroke="green" d="M144,-116C144,-116 238.683,-112.349 304,-80 334.275,-65.0064 362.874,-36.4372 376.567,-21.553"/>
</g>
<!-- e4 -->
<g id="node6" class="node"><title>e4</title>
</g>
<!-- e4&#45;&gt;v8 -->
<g id="edge42" class="edge"><title>e4&#45;&gt;v8</title>
<path fill="none" stroke="green" d="M287,-116C287,-116 221.436,-89.3101 190.19,-76.5907"/>
</g>
<!-- v11 -->
<g id="v11_Child" class="node"><title>v11</title>
<ellipse fill="none" stroke="black" cx="161" cy="-11" rx="25" ry="11"/>
<text text-anchor="middle" x="161" y="-8.8" font-family="sans-serif" font-size="9.00">Child</text>
</g>
<!-- e4&#45;&gt;v11 -->
<g id="edge43" class="edge"><title>e4&#45;&gt;v11</title>
<path fill="none" stroke="green" d="M287,-116C287,-116 262.503,-96.0645 243,-80 217.448,-58.9523 187.538,-34.0928 171.858,-21.0425"/>
</g>
<!-- v18 -->
<g id="v18_Lion" class="node"><title>v18</title>
<ellipse fill="none" stroke="black" cx="903" cy="-11" rx="21.5" ry="11"/>
<text text-anchor="middle" x="903" y="-8.8" font-family="sans-serif" font-size="9.00">Lion</text>
</g>
<!-- e4&#45;&gt;v18 -->
<g id="edge44" class="edge"><title>e4&#45;&gt;v18</title>
<path fill="none" stroke="green" d="M287,-116C287,-116 672.267,-113.345 776,-80 793.851,-74.2616 795.619,-67.1259 812,-58 838.289,-43.3537 869.792,-27.8745 887.991,-19.1273"/>
</g>
<!-- v23 -->
<g id="v23_GPS(2)" class="node"><title>v23</title>
<ellipse fill="none" stroke="black" cx="599" cy="-11" rx="29" ry="11"/>
<text text-anchor="middle" x="599" y="-8.8" font-family="sans-serif" font-size="9.00">GPS(2)</text>
</g>
<!-- e4&#45;&gt;v23 -->
<g id="edge45" class="edge"><title>e4&#45;&gt;v23</title>
<path fill="none" stroke="green" d="M287,-116C287,-116 486.502,-105.994 536,-80 562.217,-66.2322 583.293,-37.1267 593.074,-21.8439"/>
</g>
<!-- e5 -->
<g id="node7" class="node"><title>e5</title>
</g>
<!-- e5&#45;&gt;v9 -->
<g id="edge46" class="edge"><title>e5&#45;&gt;v9</title>
<path fill="none" stroke="green" d="M527,-116C527,-116 353.495,-84.4536 293.852,-73.6095"/>
</g>
<!-- v12 -->
<g id="v12_Child" class="node"><title>v12</title>
<ellipse fill="none" stroke="black" cx="229" cy="-11" rx="25" ry="11"/>
<text text-anchor="middle" x="229" y="-8.8" font-family="sans-serif" font-size="9.00">Child</text>
</g>
<!-- e5&#45;&gt;v12 -->
<g id="edge47" class="edge"><title>e5&#45;&gt;v12</title>
<path fill="none" stroke="green" d="M527,-116C527,-116 466.822,-96.5256 419,-80 355.753,-58.1439 281.118,-31.0486 247.294,-18.6983"/>
</g>
<!-- v19 -->
<g id="v19_Lion" class="node"><title>v19</title>
<ellipse fill="none" stroke="black" cx="964" cy="-11" rx="21.5" ry="11"/>
<text text-anchor="middle" x="964" y="-8.8" font-family="sans-serif" font-size="9.00">Lion</text>
</g>
<!-- e5&#45;&gt;v19 -->
<g id="edge48" class="edge"><title>e5&#45;&gt;v19</title>
<path fill="none" stroke="green" d="M527,-116C527,-116 689.06,-114.443 812,-80 865.448,-65.0261 924.224,-34.263 950.271,-19.8174"/>
</g>
<!-- v24 -->
<g id="v24_GPS(3)" class="node"><title>v24</title>
<ellipse fill="none" stroke="black" cx="675" cy="-11" rx="29" ry="11"/>
<text text-anchor="middle" x="675" y="-8.8" font-family="sans-serif" font-size="9.00">GPS(3)</text>
</g>
<!-- e5&#45;&gt;v24 -->
<g id="edge49" class="edge"><title>e5&#45;&gt;v24</title>
<path fill="none" stroke="green" d="M527,-116C527,-116 626.117,-46.3499 662.125,-21.0474"/>
</g>
<!-- v0&#45;&gt;v3 -->
<g id="edge32" class="edge"><title>v0&#45;&gt;v3</title>
<path fill="none" stroke="green" d="M318.433,-21.2214C328.254,-28.0232 342.214,-36.3546 356,-40 437.531,-61.5595 1033.87,-63.0157 1115,-40 1127.91,-36.3366 1140.76,-28.007 1149.75,-21.2104"/>
</g>
<!-- v1&#45;&gt;v2 -->
<g id="edge12" class="edge"><title>v1&#45;&gt;v2</title>
<path fill="none" stroke="black" d="M750.424,-59.0026C767.037,-49.3118 793.507,-33.8711 811.539,-23.3522"/>
<polygon fill="black" stroke="black" points="815.931,-20.7904 812.746,-25.2533 813.771,-22.0501 811.612,-23.3098 811.612,-23.3098 811.612,-23.3098 813.771,-22.0501 810.478,-21.3663 815.931,-20.7904 815.931,-20.7904"/>
</g>
<!-- v1&#45;&gt;v4 -->
<g id="edge33" class="edge"><title>v1&#45;&gt;v4</title>
<path fill="none" stroke="green" d="M767.705,-69C812.736,-69 857.768,-69 902.799,-69"/>
</g>
<!-- v1&#45;&gt;v23 -->
<g id="edge13" class="edge"><title>v1&#45;&gt;v23</title>
<path fill="none" stroke="black" d="M715.803,-60.0953C691.264,-49.9911 648.804,-32.5076 622.399,-21.6347"/>
<polygon fill="black" stroke="black" points="617.663,-19.6847 623.143,-19.508 619.975,-20.6366 622.286,-21.5885 622.286,-21.5885 622.286,-21.5885 619.975,-20.6366 621.43,-23.669 617.663,-19.6847 617.663,-19.6847"/>
</g>
<!-- v1&#45;&gt;v24 -->
<g id="edge14" class="edge"><title>v1&#45;&gt;v24</title>
<path fill="none" stroke="black" d="M724.822,-58.5004C714.936,-49.2734 699.852,-35.1949 688.871,-24.9459"/>
<polygon fill="black" stroke="black" points="685.028,-21.3593 690.218,-23.1261 686.856,-23.0652 688.683,-24.771 688.683,-24.771 688.683,-24.771 686.856,-23.0652 687.148,-26.4159 685.028,-21.3593 685.028,-21.3593"/>
</g>
<!-- v4&#45;&gt;v5 -->
<g id="edge15" class="edge"><title>v4&#45;&gt;v5</title>
<path fill="none" stroke="black" d="M946.531,-59.25C962.875,-49.4087 989.431,-33.418 1007.06,-22.8051"/>
<polygon fill="black" stroke="black" points="1011.77,-19.964 1008.65,-24.4708 1009.63,-21.2536 1007.49,-22.5433 1007.49,-22.5433 1007.49,-22.5433 1009.63,-21.2536 1006.33,-20.6157 1011.77,-19.964 1011.77,-19.964"/>
</g>
<!-- v4&#45;&gt;v18 -->
<g id="edge16" class="edge"><title>v4&#45;&gt;v18</title>
<path fill="none" stroke="black" d="M926.815,-57.9883C922.279,-49.2286 915.633,-36.3956 910.514,-26.5103"/>
<polygon fill="black" stroke="black" points="908.14,-21.925 912.437,-25.3303 909.289,-24.145 910.439,-26.365 910.439,-26.365 910.439,-26.365 909.289,-24.145 908.441,-27.3997 908.14,-21.925 908.14,-21.925"/>
</g>
<!-- v4&#45;&gt;v19 -->
<g id="edge17" class="edge"><title>v4&#45;&gt;v19</title>
<path fill="none" stroke="black" d="M937.721,-57.9883C942.726,-49.2286 950.06,-36.3956 955.708,-26.5103"/>
<polygon fill="black" stroke="black" points="958.329,-21.925 957.801,-27.3826 957.088,-24.0956 955.848,-26.2662 955.848,-26.2662 955.848,-26.2662 957.088,-24.0956 953.894,-25.1499 958.329,-21.925 958.329,-21.925"/>
</g>
<!-- v7&#45;&gt;v10 -->
<g id="edge18" class="edge"><title>v7&#45;&gt;v10</title>
<path fill="none" stroke="black" d="M109.424,-57.9883C106.324,-49.3083 101.796,-36.6286 98.2788,-26.7806"/>
<polygon fill="black" stroke="black" points="96.5446,-21.925 100.345,-25.8769 97.3855,-24.2794 98.2264,-26.6337 98.2264,-26.6337 98.2264,-26.6337 97.3855,-24.2794 96.1075,-27.3905 96.5446,-21.925 96.5446,-21.925"/>
</g>
<!-- v7&#45;&gt;v11 -->
<g id="edge19" class="edge"><title>v7&#45;&gt;v11</title>
<path fill="none" stroke="black" d="M120.926,-58.7527C128.731,-49.6476 140.732,-35.6462 149.568,-25.3379"/>
<polygon fill="black" stroke="black" points="152.902,-21.4482 151.356,-26.7088 151.275,-23.3463 149.648,-25.2445 149.648,-25.2445 149.648,-25.2445 151.275,-23.3463 147.939,-23.7802 152.902,-21.4482 152.902,-21.4482"/>
</g>
<!-- v7&#45;&gt;v12 -->
<g id="edge20" class="edge"><title>v7&#45;&gt;v12</title>
<path fill="none" stroke="black" d="M127.691,-60.9076C148.181,-51.0159 185.425,-33.0362 208.598,-21.8493"/>
<polygon fill="black" stroke="black" points="213.318,-19.5706 209.793,-23.7706 211.067,-20.6575 208.815,-21.7444 208.815,-21.7444 208.815,-21.7444 211.067,-20.6575 207.837,-19.7182 213.318,-19.5706 213.318,-19.5706"/>
</g>
<!-- v8&#45;&gt;v10 -->
<g id="edge21" class="edge"><title>v8&#45;&gt;v10</title>
<path fill="none" stroke="black" d="M162.048,-59.737C148.211,-50.1704 125.327,-34.3496 109.727,-23.5646"/>
<polygon fill="black" stroke="black" points="105.534,-20.6656 110.926,-21.6582 107.591,-22.0873 109.647,-23.509 109.647,-23.509 109.647,-23.509 107.591,-22.0873 108.367,-25.3598 105.534,-20.6656 105.534,-20.6656"/>
</g>
<!-- v8&#45;&gt;v11 -->
<g id="edge22" class="edge"><title>v8&#45;&gt;v11</title>
<path fill="none" stroke="black" d="M171.676,-57.9883C169.704,-49.4941 166.843,-37.1697 164.579,-27.4169"/>
<polygon fill="black" stroke="black" points="163.392,-22.3039 166.714,-26.6655 163.957,-24.7391 164.523,-27.1744 164.523,-27.1744 164.523,-27.1744 163.957,-24.7391 162.331,-27.6832 163.392,-22.3039 163.392,-22.3039"/>
</g>
<!-- v8&#45;&gt;v12 -->
<g id="edge23" class="edge"><title>v8&#45;&gt;v12</title>
<path fill="none" stroke="black" d="M183.082,-58.7527C192.104,-49.567 206.02,-35.398 216.168,-25.0651"/>
<polygon fill="black" stroke="black" points="219.721,-21.4482 217.822,-26.592 217.969,-23.2318 216.217,-25.0154 216.217,-25.0154 216.217,-25.0154 217.969,-23.2318 214.612,-23.4388 219.721,-21.4482 219.721,-21.4482"/>
</g>
<!-- v9&#45;&gt;v10 -->
<g id="edge24" class="edge"><title>v9&#45;&gt;v10</title>
<path fill="none" stroke="black" d="M256.315,-62.5285C223.843,-52.4819 154.655,-31.0755 117.613,-19.6152"/>
<polygon fill="black" stroke="black" points="112.39,-17.999 117.831,-17.3274 114.778,-18.738 117.166,-19.4769 117.166,-19.4769 117.166,-19.4769 114.778,-18.738 116.501,-21.6264 112.39,-17.999 112.39,-17.999"/>
</g>
<!-- v9&#45;&gt;v11 -->
<g id="edge25" class="edge"><title>v9&#45;&gt;v11</title>
<path fill="none" stroke="black" d="M259.227,-60.679C239.232,-50.77 203.485,-33.0544 181.071,-21.9467"/>
<polygon fill="black" stroke="black" points="176.501,-19.682 181.98,-19.8862 178.741,-20.7921 180.981,-21.9022 180.981,-21.9022 180.981,-21.9022 178.741,-20.7921 179.982,-23.9182 176.501,-19.682 176.501,-19.682"/>
</g>
<!-- v9&#45;&gt;v12 -->
<g id="edge26" class="edge"><title>v9&#45;&gt;v12</title>
<path fill="none" stroke="black" d="M266.366,-58.5004C259.17,-49.5445 248.3,-36.018 240.137,-25.859"/>
<polygon fill="black" stroke="black" points="236.822,-21.7345 241.708,-24.2226 238.388,-23.6832 239.954,-25.632 239.954,-25.632 239.954,-25.632 238.388,-23.6832 238.2,-27.0414 236.822,-21.7345 236.822,-21.7345"/>
</g>
<!-- v13&#45;&gt;v14 -->
<g id="edge27" class="edge"><title>v13&#45;&gt;v14</title>
<path fill="none" stroke="black" d="M1013.75,-59.9766C1029.04,-50.3564 1054.76,-34.1716 1072.05,-23.2923"/>
<polygon fill="black" stroke="black" points="1076.69,-20.3743 1073.66,-24.9415 1074.57,-21.7057 1072.46,-23.0372 1072.46,-23.0372 1072.46,-23.0372 1074.57,-21.7057 1071.26,-21.1328 1076.69,-20.3743 1076.69,-20.3743"/>
</g>
<!-- v15&#45;&gt;v16 -->
<g id="edge28" class="edge"><title>v15&#45;&gt;v16</title>
<path fill="none" stroke="black" d="M637.356,-60.0953C614.264,-49.7504 573.907,-31.6704 549.797,-20.869"/>
<polygon fill="black" stroke="black" points="545.202,-18.8103 550.684,-18.8012 547.483,-19.8324 549.765,-20.8546 549.765,-20.8546 549.765,-20.8546 547.483,-19.8324 548.845,-22.9079 545.202,-18.8103 545.202,-18.8103"/>
</g>
<!-- v17 -->
<g id="v17_Impala" class="node"><title>v17</title>
<ellipse fill="none" stroke="black" cx="751" cy="-11" rx="29" ry="11"/>
<text text-anchor="middle" x="751" y="-8.8" font-family="sans-serif" font-size="9.00">Impala</text>
</g>
<!-- v15&#45;&gt;v17 -->
<g id="edge29" class="edge"><title>v15&#45;&gt;v17</title>
<path fill="none" stroke="black" d="M670,-59.25C686.626,-49.5514 713.49,-33.8806 731.679,-23.2703"/>
<polygon fill="black" stroke="black" points="736.105,-20.6886 732.92,-25.1515 733.946,-21.9483 731.786,-23.208 731.786,-23.208 731.786,-23.208 733.946,-21.9483 730.653,-21.2645 736.105,-20.6886 736.105,-20.6886"/>
</g>
<!-- v15&#45;&gt;v20 -->
<g id="edge50" class="edge"><title>v15&#45;&gt;v20</title>
<path fill="none" stroke="green" d="M625.996,-69C581.859,-69 537.723,-69 493.586,-69"/>
</g>
<!-- v22 -->
<g id="v22_GPS(0)" class="node"><title>v22</title>
<ellipse fill="none" stroke="black" cx="461" cy="-11" rx="29" ry="11"/>
<text text-anchor="middle" x="461" y="-8.8" font-family="sans-serif" font-size="9.00">GPS(0)</text>
</g>
<!-- v17&#45;&gt;v22 -->
<g id="edge51" class="edge"><title>v17&#45;&gt;v22</title>
<path fill="none" stroke="green" d="M738.749,-21.2104C729.759,-28.007 716.914,-36.3366 704,-40 620.196,-63.7738 591.804,-63.7738 508,-40 495.086,-36.3366 482.241,-28.007 473.251,-21.2104"/>
</g>
<!-- v20&#45;&gt;v21 -->
<g id="edge30" class="edge"><title>v20&#45;&gt;v21</title>
<path fill="none" stroke="black" d="M448.45,-58.7527C435.612,-49.2933 415.602,-34.549 401.492,-24.1517"/>
<polygon fill="black" stroke="black" points="397.316,-21.0752 402.676,-22.2298 399.329,-22.5582 401.342,-24.0412 401.342,-24.0412 401.342,-24.0412 399.329,-22.5582 400.007,-25.8526 397.316,-21.0752 397.316,-21.0752"/>
</g>
<!-- v20&#45;&gt;v22 -->
<g id="edge31" class="edge"><title>v20&#45;&gt;v22</title>
<path fill="none" stroke="black" d="M461,-57.9883C461,-49.4941 461,-37.1697 461,-27.4169"/>
<polygon fill="black" stroke="black" points="461,-22.3039 463.25,-27.3038 461,-24.8039 461,-27.3039 461,-27.3039 461,-27.3039 461,-24.8039 458.75,-27.3039 461,-22.3039 461,-22.3039"/>
</g>
</g>
</svg>
