<?xml version="1.0" encoding="UTF-8" standalone="no"?>
<?xml-stylesheet href="style.css" type="text/css"?>
<!DOCTYPE svg PUBLIC "-//W3C//DTD SVG 1.1//EN"
 "http://www.w3.org/Graphics/SVG/1.1/DTD/svg11.dtd">
<!-- Generated by graphviz version 2.38.0 (20140413.2041)
 -->
<!-- Title: 18.svg Pages: 1 -->
<svg width="1196pt" height="179pt"
 viewBox="0.00 0.00 1195.50 179.00" xmlns="http://www.w3.org/2000/svg" xmlns:xlink="http://www.w3.org/1999/xlink">
<g id="graph0" class="graph" transform="scale(1 1) rotate(0) translate(4 175)">
<title>18.svg</title>
<polygon fill="white" stroke="none" points="-4,4 -4,-175 1191.5,-175 1191.5,4 -4,4"/>
<!-- r0 -->
<g id="node1" class="node"><title>r0</title>
<polygon fill="none" stroke="black" stroke-dasharray="5,2" points="381.5,-171 358.5,-171 358.5,-153 381.5,-153 381.5,-171"/>
<text text-anchor="middle" x="370" y="-159.8" font-family="serif" font-size="9.00">0</text>
</g>
<!-- v6 -->
<g id="v6_Field" class="node"><title>v6</title>
<ellipse fill="none" stroke="black" cx="25" cy="-11" rx="25" ry="11"/>
<text text-anchor="middle" x="25" y="-8.8" font-family="sans-serif" font-size="9.00">Field</text>
</g>
<!-- r0&#45;&gt;v6 -->
<g id="edge1" class="edge"><title>r0&#45;&gt;v6</title>
<path fill="none" stroke="black" d="M358.196,-161.492C313.409,-162.704 151.968,-161.04 62,-80 45.8506,-65.4532 35.3395,-42.149 29.7877,-26.9568"/>
<polygon fill="black" stroke="black" points="28.0941,-22.14 31.8753,-26.1106 28.9234,-24.4985 29.7527,-26.857 29.7527,-26.857 29.7527,-26.857 28.9234,-24.4985 27.6301,-27.6033 28.0941,-22.14 28.0941,-22.14"/>
</g>
<!-- v7 -->
<g id="v7_Aura" class="node"><title>v7</title>
<ellipse fill="none" stroke="black" cx="459" cy="-69" rx="21.5" ry="11"/>
<text text-anchor="middle" x="459" y="-66.8" font-family="sans-serif" font-size="9.00">Aura</text>
</g>
<!-- r0&#45;&gt;v7 -->
<g id="edge2" class="edge"><title>r0&#45;&gt;v7</title>
<path fill="none" stroke="black" d="M381.175,-152.897C392.35,-144.532 409.738,-130.793 423,-117 432.884,-106.72 442.629,-93.7768 449.483,-84.0771"/>
<polygon fill="black" stroke="black" points="452.418,-79.87 451.402,-85.258 450.987,-81.9203 449.557,-83.9706 449.557,-83.9706 449.557,-83.9706 450.987,-81.9203 447.712,-82.6831 452.418,-79.87 452.418,-79.87"/>
</g>
<!-- v8 -->
<g id="v8_Aura" class="node"><title>v8</title>
<ellipse fill="none" stroke="black" cx="520" cy="-69" rx="21.5" ry="11"/>
<text text-anchor="middle" x="520" y="-66.8" font-family="sans-serif" font-size="9.00">Aura</text>
</g>
<!-- r0&#45;&gt;v8 -->
<g id="edge3" class="edge"><title>r0&#45;&gt;v8</title>
<path fill="none" stroke="black" d="M381.77,-153.859C408.101,-137.885 471.863,-99.2031 502.712,-80.4881"/>
<polygon fill="black" stroke="black" points="507.016,-77.8769 503.908,-82.394 504.879,-79.1736 502.741,-80.4703 502.741,-80.4703 502.741,-80.4703 504.879,-79.1736 501.574,-78.5466 507.016,-77.8769 507.016,-77.8769"/>
</g>
<!-- v9 -->
<g id="v9_Aura" class="node"><title>v9</title>
<ellipse fill="none" stroke="black" cx="581" cy="-69" rx="21.5" ry="11"/>
<text text-anchor="middle" x="581" y="-66.8" font-family="sans-serif" font-size="9.00">Aura</text>
</g>
<!-- r0&#45;&gt;v9 -->
<g id="edge4" class="edge"><title>r0&#45;&gt;v9</title>
<path fill="none" stroke="black" d="M381.645,-155.978C416.002,-141.16 517.254,-97.4925 560.759,-78.7297"/>
<polygon fill="black" stroke="black" points="565.524,-76.6744 561.824,-80.7206 563.228,-77.6645 560.933,-78.6546 560.933,-78.6546 560.933,-78.6546 563.228,-77.6645 560.042,-76.5885 565.524,-76.6744 565.524,-76.6744"/>
</g>
<!-- v13 -->
<g id="v13_Aura" class="node"><title>v13</title>
<ellipse fill="none" stroke="black" cx="93" cy="-69" rx="21.5" ry="11"/>
<text text-anchor="middle" x="93" y="-66.8" font-family="sans-serif" font-size="9.00">Aura</text>
</g>
<!-- r0&#45;&gt;v13 -->
<g id="edge5" class="edge"><title>r0&#45;&gt;v13</title>
<path fill="none" stroke="black" d="M358.322,-160.378C325.191,-158.246 228.323,-149.46 156,-117 136.985,-108.466 118.235,-93.3852 106.201,-82.6073"/>
<polygon fill="black" stroke="black" points="102.387,-79.1328 107.599,-80.8366 104.235,-80.8164 106.083,-82.5 106.083,-82.5 106.083,-82.5 104.235,-80.8164 104.568,-84.1633 102.387,-79.1328 102.387,-79.1328"/>
</g>
<!-- r1 -->
<g id="node2" class="node"><title>r1</title>
<polygon fill="none" stroke="black" stroke-dasharray="5,2" points="1030.5,-171 1007.5,-171 1007.5,-153 1030.5,-153 1030.5,-171"/>
<text text-anchor="middle" x="1019" y="-159.8" font-family="serif" font-size="9.00">1</text>
</g>
<!-- v3 -->
<g id="v3_Locale" class="node"><title>v3</title>
<ellipse fill="none" stroke="black" cx="1032" cy="-11" rx="29" ry="11"/>
<text text-anchor="middle" x="1032" y="-8.8" font-family="sans-serif" font-size="9.00">Locale</text>
</g>
<!-- r1&#45;&gt;v3 -->
<g id="edge6" class="edge"><title>r1&#45;&gt;v3</title>
<path fill="none" stroke="black" d="M1019.7,-152.989C1021.77,-129.218 1027.92,-58.7895 1030.66,-27.3986"/>
<polygon fill="black" stroke="black" points="1031.1,-22.3591 1032.9,-27.5358 1030.88,-24.8496 1030.66,-27.3402 1030.66,-27.3402 1030.66,-27.3402 1030.88,-24.8496 1028.42,-27.1446 1031.1,-22.3591 1031.1,-22.3591"/>
</g>
<!-- v4 -->
<g id="v4_Locale" class="node"><title>v4</title>
<ellipse fill="none" stroke="black" cx="802" cy="-69" rx="29" ry="11"/>
<text text-anchor="middle" x="802" y="-66.8" font-family="sans-serif" font-size="9.00">Locale</text>
</g>
<!-- r1&#45;&gt;v4 -->
<g id="edge7" class="edge"><title>r1&#45;&gt;v4</title>
<path fill="none" stroke="black" d="M1007.29,-160.527C977.487,-158.836 897.18,-151.187 842,-117 828.77,-108.803 817.676,-94.7777 810.553,-84.1761"/>
<polygon fill="black" stroke="black" points="807.749,-79.8693 812.363,-82.8317 809.113,-81.9643 810.477,-84.0594 810.477,-84.0594 810.477,-84.0594 809.113,-81.9643 808.592,-85.2871 807.749,-79.8693 807.749,-79.8693"/>
</g>
<!-- v17 -->
<g id="v17_Locale" class="node"><title>v17</title>
<ellipse fill="none" stroke="black" cx="1114" cy="-69" rx="29" ry="11"/>
<text text-anchor="middle" x="1114" y="-66.8" font-family="sans-serif" font-size="9.00">Locale</text>
</g>
<!-- r1&#45;&gt;v17 -->
<g id="edge8" class="edge"><title>r1&#45;&gt;v17</title>
<path fill="none" stroke="black" d="M1027.43,-152.924C1043.86,-137.183 1080.31,-102.269 1100.27,-83.1472"/>
<polygon fill="black" stroke="black" points="1104.04,-79.5439 1101.98,-84.6274 1102.23,-81.2732 1100.43,-83.0026 1100.43,-83.0026 1100.43,-83.0026 1102.23,-81.2732 1098.87,-81.3777 1104.04,-79.5439 1104.04,-79.5439"/>
</g>
<!-- r2 -->
<g id="node3" class="node"><title>r2</title>
<polygon fill="none" stroke="black" stroke-dasharray="5,2" points="422.5,-171 399.5,-171 399.5,-153 422.5,-153 422.5,-171"/>
<text text-anchor="middle" x="411" y="-159.8" font-family="serif" font-size="9.00">2</text>
</g>
<!-- v0 -->
<g id="v0_Area(2)" class="node"><title>v0</title>
<ellipse fill="none" stroke="black" cx="397" cy="-11" rx="32.5" ry="11"/>
<text text-anchor="middle" x="397" y="-8.8" font-family="sans-serif" font-size="9.00">Area(2)</text>
</g>
<!-- r2&#45;&gt;v0 -->
<g id="edge9" class="edge"><title>r2&#45;&gt;v0</title>
<path fill="none" stroke="black" d="M409.488,-152.921C407.893,-144.118 405.42,-129.606 404,-117 400.414,-85.1688 398.457,-47.6865 397.579,-27.2251"/>
<polygon fill="black" stroke="black" points="397.369,-22.1636 399.825,-27.0661 397.473,-24.6615 397.576,-27.1593 397.576,-27.1593 397.576,-27.1593 397.473,-24.6615 395.328,-27.2526 397.369,-22.1636 397.369,-22.1636"/>
</g>
<!-- v1 -->
<g id="v1_Area(0)" class="node"><title>v1</title>
<ellipse fill="none" stroke="black" cx="262" cy="-69" rx="32.5" ry="11"/>
<text text-anchor="middle" x="262" y="-66.8" font-family="sans-serif" font-size="9.00">Area(0)</text>
</g>
<!-- r2&#45;&gt;v1 -->
<g id="edge10" class="edge"><title>r2&#45;&gt;v1</title>
<path fill="none" stroke="black" d="M399.487,-156.558C381.591,-149.422 346.316,-134.425 319,-117 303.398,-107.048 287.277,-93.3844 276.178,-83.3544"/>
<polygon fill="black" stroke="black" points="272.326,-79.8371 277.536,-81.5472 274.172,-81.5229 276.018,-83.2087 276.018,-83.2087 276.018,-83.2087 274.172,-81.5229 274.501,-84.8702 272.326,-79.8371 272.326,-79.8371"/>
</g>
<!-- v22 -->
<g id="v22_Area(1)" class="node"><title>v22</title>
<ellipse fill="none" stroke="black" cx="920" cy="-69" rx="32.5" ry="11"/>
<text text-anchor="middle" x="920" y="-66.8" font-family="sans-serif" font-size="9.00">Area(1)</text>
</g>
<!-- r2&#45;&gt;v22 -->
<g id="edge11" class="edge"><title>r2&#45;&gt;v22</title>
<path fill="none" stroke="black" d="M422.882,-161.138C487.853,-161.71 800.231,-162.047 883,-117 896.408,-109.702 906.618,-95.2885 912.881,-84.3371"/>
<polygon fill="black" stroke="black" points="915.322,-79.8865 914.891,-85.3525 914.12,-82.0785 912.918,-84.2706 912.918,-84.2706 912.918,-84.2706 914.12,-82.0785 910.945,-83.1888 915.322,-79.8865 915.322,-79.8865"/>
</g>
<!-- e2 -->
<g id="node4" class="node"><title>e2</title>
</g>
<!-- v2 -->
<g id="v2_GPS(5)" class="node"><title>v2</title>
<ellipse fill="none" stroke="black" cx="165" cy="-11" rx="29" ry="11"/>
<text text-anchor="middle" x="165" y="-8.8" font-family="sans-serif" font-size="9.00">GPS(5)</text>
</g>
<!-- e2&#45;&gt;v2 -->
<g id="edge34" class="edge"><title>e2&#45;&gt;v2</title>
<path fill="none" stroke="green" d="M166,-116C166,-116 165.352,-48.6577 165.1,-22.3521"/>
</g>
<!-- v5 -->
<g id="v5_Lion" class="node"><title>v5</title>
<ellipse fill="none" stroke="black" cx="674" cy="-11" rx="21.5" ry="11"/>
<text text-anchor="middle" x="674" y="-8.8" font-family="sans-serif" font-size="9.00">Lion</text>
</g>
<!-- e2&#45;&gt;v5 -->
<g id="edge35" class="edge"><title>e2&#45;&gt;v5</title>
<path fill="none" stroke="green" d="M166,-116C166,-116 521.757,-123.344 611,-80 637.636,-67.0629 658.529,-37.594 668.174,-22.041"/>
</g>
<!-- e2&#45;&gt;v13 -->
<g id="edge36" class="edge"><title>e2&#45;&gt;v13</title>
<path fill="none" stroke="green" d="M166,-116C166,-116 126.631,-91.1919 105.716,-78.0126"/>
</g>
<!-- v14 -->
<g id="v14_Child" class="node"><title>v14</title>
<ellipse fill="none" stroke="black" cx="93" cy="-11" rx="25" ry="11"/>
<text text-anchor="middle" x="93" y="-8.8" font-family="sans-serif" font-size="9.00">Child</text>
</g>
<!-- e2&#45;&gt;v14 -->
<g id="edge37" class="edge"><title>e2&#45;&gt;v14</title>
<path fill="none" stroke="green" d="M166,-116C166,-116 117.809,-47.3438 99.7368,-21.5977"/>
</g>
<!-- e3 -->
<g id="node5" class="node"><title>e3</title>
</g>
<!-- e3&#45;&gt;v7 -->
<g id="edge38" class="edge"><title>e3&#45;&gt;v7</title>
<path fill="none" stroke="green" d="M414,-116C414,-116 436.744,-92.7501 449.894,-79.3088"/>
</g>
<!-- v10 -->
<g id="v10_Child" class="node"><title>v10</title>
<ellipse fill="none" stroke="black" cx="473" cy="-11" rx="25" ry="11"/>
<text text-anchor="middle" x="473" y="-8.8" font-family="sans-serif" font-size="9.00">Child</text>
</g>
<!-- e3&#45;&gt;v10 -->
<g id="edge39" class="edge"><title>e3&#45;&gt;v10</title>
<path fill="none" stroke="green" d="M414,-116C414,-116 415.156,-81.1999 428,-58 436.333,-42.948 450.925,-29.3591 461.23,-20.9199"/>
</g>
<!-- v15 -->
<g id="v15_Lion" class="node"><title>v15</title>
<ellipse fill="none" stroke="black" cx="735" cy="-11" rx="21.5" ry="11"/>
<text text-anchor="middle" x="735" y="-8.8" font-family="sans-serif" font-size="9.00">Lion</text>
</g>
<!-- e3&#45;&gt;v15 -->
<g id="edge40" class="edge"><title>e3&#45;&gt;v15</title>
<path fill="none" stroke="green" d="M414,-116C414,-116 549.33,-120.542 645,-80 678.538,-65.7877 710.852,-36.3309 726.015,-21.2844"/>
</g>
<!-- v20 -->
<g id="v20_GPS(1)" class="node"><title>v20</title>
<ellipse fill="none" stroke="black" cx="317" cy="-11" rx="29" ry="11"/>
<text text-anchor="middle" x="317" y="-8.8" font-family="sans-serif" font-size="9.00">GPS(1)</text>
</g>
<!-- e3&#45;&gt;v20 -->
<g id="edge41" class="edge"><title>e3&#45;&gt;v20</title>
<path fill="none" stroke="green" d="M414,-116C414,-116 349.965,-47.3438 325.952,-21.5977"/>
</g>
<!-- e4 -->
<g id="node6" class="node"><title>e4</title>
</g>
<!-- e4&#45;&gt;v8 -->
<g id="edge42" class="edge"><title>e4&#45;&gt;v8</title>
<path fill="none" stroke="green" d="M852,-116C852,-116 681.909,-109.525 550,-80 545.607,-79.0167 540.95,-77.6373 536.649,-76.2165"/>
</g>
<!-- v11 -->
<g id="v11_Child" class="node"><title>v11</title>
<ellipse fill="none" stroke="black" cx="541" cy="-11" rx="25" ry="11"/>
<text text-anchor="middle" x="541" y="-8.8" font-family="sans-serif" font-size="9.00">Child</text>
</g>
<!-- e4&#45;&gt;v11 -->
<g id="edge43" class="edge"><title>e4&#45;&gt;v11</title>
<path fill="none" stroke="green" d="M852,-116C852,-116 778.415,-98.6895 721,-80 660.329,-60.2507 589.992,-32.1185 558.186,-19.1058"/>
</g>
<!-- v18 -->
<g id="v18_Lion" class="node"><title>v18</title>
<ellipse fill="none" stroke="black" cx="1104" cy="-11" rx="21.5" ry="11"/>
<text text-anchor="middle" x="1104" y="-8.8" font-family="sans-serif" font-size="9.00">Lion</text>
</g>
<!-- e4&#45;&gt;v18 -->
<g id="edge44" class="edge"><title>e4&#45;&gt;v18</title>
<path fill="none" stroke="green" d="M852,-116C852,-116 913.648,-98.9917 961,-80 1009.22,-60.6589 1064.19,-32.8121 1089.65,-19.5609"/>
</g>
<!-- v23 -->
<g id="v23_GPS(2)" class="node"><title>v23</title>
<ellipse fill="none" stroke="black" cx="880" cy="-11" rx="29" ry="11"/>
<text text-anchor="middle" x="880" y="-8.8" font-family="sans-serif" font-size="9.00">GPS(2)</text>
</g>
<!-- e4&#45;&gt;v23 -->
<g id="edge45" class="edge"><title>e4&#45;&gt;v23</title>
<path fill="none" stroke="green" d="M852,-116C852,-116 870.307,-48.0023 877.315,-21.972"/>
</g>
<!-- e5 -->
<g id="node7" class="node"><title>e5</title>
</g>
<!-- e5&#45;&gt;v9 -->
<g id="edge46" class="edge"><title>e5&#45;&gt;v9</title>
<path fill="none" stroke="green" d="M874,-116C874,-116 667.336,-83.5545 601.139,-73.1618"/>
</g>
<!-- v12 -->
<g id="v12_Child" class="node"><title>v12</title>
<ellipse fill="none" stroke="black" cx="609" cy="-11" rx="25" ry="11"/>
<text text-anchor="middle" x="609" y="-8.8" font-family="sans-serif" font-size="9.00">Child</text>
</g>
<!-- e5&#45;&gt;v12 -->
<g id="edge47" class="edge"><title>e5&#45;&gt;v12</title>
<path fill="none" stroke="green" d="M874,-116C874,-116 811.487,-99.7756 764,-80 744.183,-71.7473 740.501,-66.9745 721,-58 688.347,-42.9728 649.344,-27.4966 627.043,-18.8761"/>
</g>
<!-- v19 -->
<g id="v19_Lion" class="node"><title>v19</title>
<ellipse fill="none" stroke="black" cx="1166" cy="-11" rx="21.5" ry="11"/>
<text text-anchor="middle" x="1166" y="-8.8" font-family="sans-serif" font-size="9.00">Lion</text>
</g>
<!-- e5&#45;&gt;v19 -->
<g id="edge48" class="edge"><title>e5&#45;&gt;v19</title>
<path fill="none" stroke="green" d="M874,-116C874,-116 1106.35,-122.383 1152,-80 1168.08,-65.0749 1168.37,-37.0021 1167.2,-22.0195"/>
</g>
<!-- v24 -->
<g id="v24_GPS(3)" class="node"><title>v24</title>
<ellipse fill="none" stroke="black" cx="956" cy="-11" rx="29" ry="11"/>
<text text-anchor="middle" x="956" y="-8.8" font-family="sans-serif" font-size="9.00">GPS(3)</text>
</g>
<!-- e5&#45;&gt;v24 -->
<g id="edge49" class="edge"><title>e5&#45;&gt;v24</title>
<path fill="none" stroke="green" d="M874,-116C874,-116 937.745,-114.79 961,-80 972.709,-62.4825 965.718,-36.45 960.371,-22.2127"/>
</g>
<!-- v0&#45;&gt;v3 -->
<g id="edge32" class="edge"><title>v0&#45;&gt;v3</title>
<path fill="none" stroke="green" d="M410.433,-21.2214C420.254,-28.0232 434.214,-36.3546 448,-40 505.684,-55.2536 927.598,-56.2839 985,-40 997.914,-36.3366 1010.76,-28.007 1019.75,-21.2104"/>
</g>
<!-- v1&#45;&gt;v2 -->
<g id="edge12" class="edge"><title>v1&#45;&gt;v2</title>
<path fill="none" stroke="black" d="M246.844,-59.25C229.946,-49.4947 202.582,-33.6971 184.2,-23.0847"/>
<polygon fill="black" stroke="black" points="179.732,-20.5052 185.187,-21.0566 181.897,-21.7552 184.062,-23.0051 184.062,-23.0051 184.062,-23.0051 181.897,-21.7552 182.937,-24.9537 179.732,-20.5052 179.732,-20.5052"/>
</g>
<!-- v1&#45;&gt;v4 -->
<g id="edge33" class="edge"><title>v1&#45;&gt;v4</title>
<path fill="none" stroke="green" d="M289.408,-74.9771C323.712,-82.1252 384.362,-93.6681 437,-98 506.321,-103.705 682.683,-115.502 750,-98 764.206,-94.3065 778.651,-85.7878 788.7,-78.9333"/>
</g>
<!-- v1&#45;&gt;v20 -->
<g id="edge13" class="edge"><title>v1&#45;&gt;v20</title>
<path fill="none" stroke="black" d="M271.58,-58.2455C280.492,-49.1716 293.851,-35.5697 303.777,-25.4636"/>
<polygon fill="black" stroke="black" points="307.53,-21.6427 305.631,-26.7865 305.778,-23.4263 304.026,-25.2099 304.026,-25.2099 304.026,-25.2099 305.778,-23.4263 302.421,-23.6333 307.53,-21.6427 307.53,-21.6427"/>
</g>
<!-- v21 -->
<g id="v21_GPS(0)" class="node"><title>v21</title>
<ellipse fill="none" stroke="black" cx="241" cy="-11" rx="29" ry="11"/>
<text text-anchor="middle" x="241" y="-8.8" font-family="sans-serif" font-size="9.00">GPS(0)</text>
</g>
<!-- v1&#45;&gt;v21 -->
<g id="edge14" class="edge"><title>v1&#45;&gt;v21</title>
<path fill="none" stroke="black" d="M258.246,-57.9883C254.991,-49.3083 250.236,-36.6286 246.543,-26.7806"/>
<polygon fill="black" stroke="black" points="244.722,-21.925 248.584,-25.8166 245.6,-24.2658 246.478,-26.6067 246.478,-26.6067 246.478,-26.6067 245.6,-24.2658 244.371,-27.3967 244.722,-21.925 244.722,-21.925"/>
</g>
<!-- v4&#45;&gt;v5 -->
<g id="edge15" class="edge"><title>v4&#45;&gt;v5</title>
<path fill="none" stroke="black" d="M784.202,-60.2134C760.632,-49.9014 719.159,-31.7572 694.365,-20.9099"/>
<polygon fill="black" stroke="black" points="689.639,-18.8422 695.122,-18.785 691.93,-19.8443 694.22,-20.8463 694.22,-20.8463 694.22,-20.8463 691.93,-19.8443 693.318,-22.9077 689.639,-18.8422 689.639,-18.8422"/>
</g>
<!-- v4&#45;&gt;v15 -->
<g id="edge16" class="edge"><title>v4&#45;&gt;v15</title>
<path fill="none" stroke="black" d="M790.936,-58.7527C779.583,-49.2632 761.866,-34.4551 749.42,-24.0526"/>
<polygon fill="black" stroke="black" points="745.418,-20.7077 750.698,-22.1879 747.336,-22.311 749.255,-23.9143 749.255,-23.9143 749.255,-23.9143 747.336,-22.311 747.812,-25.6407 745.418,-20.7077 745.418,-20.7077"/>
</g>
<!-- v16 -->
<g id="v16_Impala" class="node"><title>v16</title>
<ellipse fill="none" stroke="black" cx="804" cy="-11" rx="29" ry="11"/>
<text text-anchor="middle" x="804" y="-8.8" font-family="sans-serif" font-size="9.00">Impala</text>
</g>
<!-- v4&#45;&gt;v16 -->
<g id="edge17" class="edge"><title>v4&#45;&gt;v16</title>
<path fill="none" stroke="black" d="M802.358,-57.9883C802.661,-49.4941 803.101,-37.1697 803.449,-27.4169"/>
<polygon fill="black" stroke="black" points="803.632,-22.3039 805.702,-27.381 803.543,-24.8023 803.453,-27.3007 803.453,-27.3007 803.453,-27.3007 803.543,-24.8023 801.205,-27.2203 803.632,-22.3039 803.632,-22.3039"/>
</g>
<!-- v7&#45;&gt;v10 -->
<g id="edge18" class="edge"><title>v7&#45;&gt;v10</title>
<path fill="none" stroke="black" d="M461.503,-57.9883C463.626,-49.4941 466.708,-37.1697 469.146,-27.4169"/>
<polygon fill="black" stroke="black" points="470.424,-22.3039 471.394,-27.7003 469.818,-24.7292 469.211,-27.1546 469.211,-27.1546 469.211,-27.1546 469.818,-24.7292 467.028,-26.6089 470.424,-22.3039 470.424,-22.3039"/>
</g>
<!-- v7&#45;&gt;v11 -->
<g id="edge19" class="edge"><title>v7&#45;&gt;v11</title>
<path fill="none" stroke="black" d="M471.099,-59.737C485.108,-50.1704 508.274,-34.3496 524.066,-23.5646"/>
<polygon fill="black" stroke="black" points="528.311,-20.6656 525.451,-25.3435 526.247,-22.0755 524.182,-23.4854 524.182,-23.4854 524.182,-23.4854 526.247,-22.0755 522.913,-21.6273 528.311,-20.6656 528.311,-20.6656"/>
</g>
<!-- v7&#45;&gt;v12 -->
<g id="edge20" class="edge"><title>v7&#45;&gt;v12</title>
<path fill="none" stroke="black" d="M475.626,-61.7931C502.449,-51.7789 555.344,-32.0317 585.843,-20.6453"/>
<polygon fill="black" stroke="black" points="590.902,-18.7566 587.005,-22.6134 588.56,-19.6311 586.218,-20.5055 586.218,-20.5055 586.218,-20.5055 588.56,-19.6311 585.431,-18.3976 590.902,-18.7566 590.902,-18.7566"/>
</g>
<!-- v8&#45;&gt;v10 -->
<g id="edge21" class="edge"><title>v8&#45;&gt;v10</title>
<path fill="none" stroke="black" d="M512.027,-58.5004C504.443,-49.4645 492.955,-35.7761 484.404,-25.5877"/>
<polygon fill="black" stroke="black" points="481.17,-21.7345 486.108,-24.1179 482.777,-23.6494 484.384,-25.5644 484.384,-25.5644 484.384,-25.5644 482.777,-23.6494 482.661,-27.0108 481.17,-21.7345 481.17,-21.7345"/>
</g>
<!-- v8&#45;&gt;v11 -->
<g id="edge22" class="edge"><title>v8&#45;&gt;v11</title>
<path fill="none" stroke="black" d="M523.754,-57.9883C527.009,-49.3083 531.764,-36.6286 535.457,-26.7806"/>
<polygon fill="black" stroke="black" points="537.278,-21.925 537.629,-27.3967 536.4,-24.2658 535.522,-26.6067 535.522,-26.6067 535.522,-26.6067 536.4,-24.2658 533.416,-25.8166 537.278,-21.925 537.278,-21.925"/>
</g>
<!-- v8&#45;&gt;v12 -->
<g id="edge23" class="edge"><title>v8&#45;&gt;v12</title>
<path fill="none" stroke="black" d="M532.752,-59.9766C548.041,-50.3564 573.763,-34.1716 591.053,-23.2923"/>
<polygon fill="black" stroke="black" points="595.691,-20.3743 592.657,-24.9415 593.575,-21.7057 591.459,-23.0372 591.459,-23.0372 591.459,-23.0372 593.575,-21.7057 590.261,-21.1328 595.691,-20.3743 595.691,-20.3743"/>
</g>
<!-- v9&#45;&gt;v10 -->
<g id="edge24" class="edge"><title>v9&#45;&gt;v10</title>
<path fill="none" stroke="black" d="M566.881,-60.679C547.957,-50.8666 514.269,-33.399 492.813,-22.2734"/>
<polygon fill="black" stroke="black" points="488.166,-19.864 493.641,-20.1682 490.386,-21.0148 492.605,-22.1656 492.605,-22.1656 492.605,-22.1656 490.386,-21.0148 491.569,-24.1631 488.166,-19.864 488.166,-19.864"/>
</g>
<!-- v9&#45;&gt;v11 -->
<g id="edge25" class="edge"><title>v9&#45;&gt;v11</title>
<path fill="none" stroke="black" d="M574.215,-58.5004C567.817,-49.5445 558.156,-36.018 550.899,-25.859"/>
<polygon fill="black" stroke="black" points="547.953,-21.7345 552.69,-24.4953 549.406,-23.7688 550.859,-25.8031 550.859,-25.8031 550.859,-25.8031 549.406,-23.7688 549.029,-27.111 547.953,-21.7345 547.953,-21.7345"/>
</g>
<!-- v9&#45;&gt;v12 -->
<g id="edge26" class="edge"><title>v9&#45;&gt;v12</title>
<path fill="none" stroke="black" d="M585.877,-58.2455C590.24,-49.5202 596.696,-36.6082 601.678,-26.6435"/>
<polygon fill="black" stroke="black" points="603.99,-22.0198 603.766,-27.4982 602.872,-24.2558 601.754,-26.4919 601.754,-26.4919 601.754,-26.4919 602.872,-24.2558 599.742,-25.4856 603.99,-22.0198 603.99,-22.0198"/>
</g>
<!-- v13&#45;&gt;v14 -->
<g id="edge27" class="edge"><title>v13&#45;&gt;v14</title>
<path fill="none" stroke="black" d="M93,-57.9883C93,-49.4941 93,-37.1697 93,-27.4169"/>
<polygon fill="black" stroke="black" points="93,-22.3039 95.2501,-27.3038 93,-24.8039 93.0001,-27.3039 93.0001,-27.3039 93.0001,-27.3039 93,-24.8039 90.7501,-27.3039 93,-22.3039 93,-22.3039"/>
</g>
<!-- v16&#45;&gt;v21 -->
<g id="edge50" class="edge"><title>v16&#45;&gt;v21</title>
<path fill="none" stroke="green" d="M791.453,-21.2134C782.255,-28.0113 769.13,-36.3414 756,-40 705.908,-53.9572 338.026,-54.1915 288,-40 275.086,-36.3366 262.241,-28.007 253.251,-21.2104"/>
</g>
<!-- v17&#45;&gt;v18 -->
<g id="edge28" class="edge"><title>v17&#45;&gt;v18</title>
<path fill="none" stroke="black" d="M1112.21,-57.9883C1110.7,-49.4941 1108.49,-37.1697 1106.75,-27.4169"/>
<polygon fill="black" stroke="black" points="1105.84,-22.3039 1108.93,-26.8305 1106.28,-24.7649 1106.72,-27.226 1106.72,-27.226 1106.72,-27.226 1106.28,-24.7649 1104.5,-27.6216 1105.84,-22.3039 1105.84,-22.3039"/>
</g>
<!-- v17&#45;&gt;v19 -->
<g id="edge29" class="edge"><title>v17&#45;&gt;v19</title>
<path fill="none" stroke="black" d="M1122.82,-58.5004C1131.31,-49.3543 1144.23,-35.4415 1153.73,-25.2165"/>
<polygon fill="black" stroke="black" points="1157.31,-21.3593 1155.56,-26.5544 1155.61,-23.1913 1153.91,-25.0233 1153.91,-25.0233 1153.91,-25.0233 1155.61,-23.1913 1152.26,-23.4923 1157.31,-21.3593 1157.31,-21.3593"/>
</g>
<!-- v17&#45;&gt;v22 -->
<g id="edge51" class="edge"><title>v17&#45;&gt;v22</title>
<path fill="none" stroke="green" d="M1085,-69C1040.86,-69 996.723,-69 952.586,-69"/>
</g>
<!-- v22&#45;&gt;v23 -->
<g id="edge30" class="edge"><title>v22&#45;&gt;v23</title>
<path fill="none" stroke="black" d="M913.033,-58.2455C906.687,-49.3616 897.241,-36.1372 890.074,-26.1029"/>
<polygon fill="black" stroke="black" points="887.157,-22.0198 891.894,-24.7806 888.61,-24.0541 890.063,-26.0884 890.063,-26.0884 890.063,-26.0884 888.61,-24.0541 888.232,-27.3962 887.157,-22.0198 887.157,-22.0198"/>
</g>
<!-- v22&#45;&gt;v24 -->
<g id="edge31" class="edge"><title>v22&#45;&gt;v24</title>
<path fill="none" stroke="black" d="M926.436,-57.9883C932.118,-49.149 940.467,-36.162 946.845,-26.2414"/>
<polygon fill="black" stroke="black" points="949.62,-21.925 948.808,-27.3476 948.268,-24.028 946.916,-26.1309 946.916,-26.1309 946.916,-26.1309 948.268,-24.028 945.023,-24.9142 949.62,-21.925 949.62,-21.925"/>
</g>
</g>
</svg>
