<?xml version="1.0" encoding="UTF-8" standalone="no"?>
<?xml-stylesheet href="style.css" type="text/css"?>
<!DOCTYPE svg PUBLIC "-//W3C//DTD SVG 1.1//EN"
 "http://www.w3.org/Graphics/SVG/1.1/DTD/svg11.dtd">
<!-- Generated by graphviz version 2.38.0 (20140413.2041)
 -->
<!-- Title: 43.svg Pages: 1 -->
<svg width="1225pt" height="179pt"
 viewBox="0.00 0.00 1225.00 179.00" xmlns="http://www.w3.org/2000/svg" xmlns:xlink="http://www.w3.org/1999/xlink">
<g id="graph0" class="graph" transform="scale(1 1) rotate(0) translate(4 175)">
<title>43.svg</title>
<polygon fill="white" stroke="none" points="-4,4 -4,-175 1221,-175 1221,4 -4,4"/>
<!-- r0 -->
<g id="node1" class="node"><title>r0</title>
<polygon fill="none" stroke="black" stroke-dasharray="5,2" points="185.5,-171 162.5,-171 162.5,-153 185.5,-153 185.5,-171"/>
<text text-anchor="middle" x="174" y="-159.8" font-family="serif" font-size="9.00">0</text>
</g>
<!-- v4 -->
<g id="v4_Field" class="node"><title>v4</title>
<ellipse fill="none" stroke="black" cx="25" cy="-11" rx="25" ry="11"/>
<text text-anchor="middle" x="25" y="-8.8" font-family="sans-serif" font-size="9.00">Field</text>
</g>
<!-- r0&#45;&gt;v4 -->
<g id="edge1" class="edge"><title>r0&#45;&gt;v4</title>
<path fill="none" stroke="black" d="M162.222,-152.862C142.816,-139.14 103.443,-109.953 75,-80 58.8635,-63.0068 43.3756,-40.7082 34.0231,-26.3641"/>
<polygon fill="black" stroke="black" points="31.0945,-21.8237 35.6956,-24.8059 32.4496,-23.9246 33.8047,-26.0255 33.8047,-26.0255 33.8047,-26.0255 32.4496,-23.9246 31.9139,-27.2451 31.0945,-21.8237 31.0945,-21.8237"/>
</g>
<!-- v5 -->
<g id="v5_Aura" class="node"><title>v5</title>
<ellipse fill="none" stroke="black" cx="235" cy="-69" rx="21.5" ry="11"/>
<text text-anchor="middle" x="235" y="-66.8" font-family="sans-serif" font-size="9.00">Aura</text>
</g>
<!-- r0&#45;&gt;v5 -->
<g id="edge2" class="edge"><title>r0&#45;&gt;v5</title>
<path fill="none" stroke="black" d="M179.413,-152.924C189.789,-137.446 212.593,-103.427 225.537,-84.1163"/>
<polygon fill="black" stroke="black" points="228.602,-79.5439 227.687,-84.9499 227.21,-81.6205 225.818,-83.6971 225.818,-83.6971 225.818,-83.6971 227.21,-81.6205 223.949,-82.4443 228.602,-79.5439 228.602,-79.5439"/>
</g>
<!-- v6 -->
<g id="v6_Aura" class="node"><title>v6</title>
<ellipse fill="none" stroke="black" cx="113" cy="-69" rx="21.5" ry="11"/>
<text text-anchor="middle" x="113" y="-66.8" font-family="sans-serif" font-size="9.00">Aura</text>
</g>
<!-- r0&#45;&gt;v6 -->
<g id="edge3" class="edge"><title>r0&#45;&gt;v6</title>
<path fill="none" stroke="black" d="M165.157,-152.911C156.404,-144.557 143.038,-130.826 134,-117 127.42,-106.935 121.956,-94.4673 118.252,-84.9025"/>
<polygon fill="black" stroke="black" points="116.479,-80.1934 120.347,-84.08 117.36,-82.5331 118.241,-84.8728 118.241,-84.8728 118.241,-84.8728 117.36,-82.5331 116.135,-85.6656 116.479,-80.1934 116.479,-80.1934"/>
</g>
<!-- v7 -->
<g id="v7_Aura" class="node"><title>v7</title>
<ellipse fill="none" stroke="black" cx="174" cy="-69" rx="21.5" ry="11"/>
<text text-anchor="middle" x="174" y="-66.8" font-family="sans-serif" font-size="9.00">Aura</text>
</g>
<!-- r0&#45;&gt;v7 -->
<g id="edge4" class="edge"><title>r0&#45;&gt;v7</title>
<path fill="none" stroke="black" d="M174,-152.924C174,-137.736 174,-104.696 174,-85.2178"/>
<polygon fill="black" stroke="black" points="174,-80.1095 176.25,-85.1095 174,-82.6095 174,-85.1095 174,-85.1095 174,-85.1095 174,-82.6095 171.75,-85.1096 174,-80.1095 174,-80.1095"/>
</g>
<!-- v11 -->
<g id="v11_Aura" class="node"><title>v11</title>
<ellipse fill="none" stroke="black" cx="845" cy="-69" rx="21.5" ry="11"/>
<text text-anchor="middle" x="845" y="-66.8" font-family="sans-serif" font-size="9.00">Aura</text>
</g>
<!-- r0&#45;&gt;v11 -->
<g id="edge5" class="edge"><title>r0&#45;&gt;v11</title>
<path fill="none" stroke="black" d="M185.516,-159.839C247.867,-153.482 551.281,-121.655 797,-80 804.774,-78.6822 813.206,-77.0089 820.802,-75.4098"/>
<polygon fill="black" stroke="black" points="825.909,-74.32 821.489,-77.564 823.464,-74.8417 821.019,-75.3635 821.019,-75.3635 821.019,-75.3635 823.464,-74.8417 820.55,-73.1631 825.909,-74.32 825.909,-74.32"/>
</g>
<!-- r1 -->
<g id="node2" class="node"><title>r1</title>
<polygon fill="none" stroke="black" stroke-dasharray="5,2" points="1085.5,-171 1062.5,-171 1062.5,-153 1085.5,-153 1085.5,-171"/>
<text text-anchor="middle" x="1074" y="-159.8" font-family="serif" font-size="9.00">1</text>
</g>
<!-- v2 -->
<g id="v2_Locale" class="node"><title>v2</title>
<ellipse fill="none" stroke="black" cx="1074" cy="-69" rx="29" ry="11"/>
<text text-anchor="middle" x="1074" y="-66.8" font-family="sans-serif" font-size="9.00">Locale</text>
</g>
<!-- r1&#45;&gt;v2 -->
<g id="edge6" class="edge"><title>r1&#45;&gt;v2</title>
<path fill="none" stroke="black" d="M1074,-152.924C1074,-137.736 1074,-104.696 1074,-85.2178"/>
<polygon fill="black" stroke="black" points="1074,-80.1095 1076.25,-85.1095 1074,-82.6095 1074,-85.1095 1074,-85.1095 1074,-85.1095 1074,-82.6095 1071.75,-85.1096 1074,-80.1095 1074,-80.1095"/>
</g>
<!-- v14 -->
<g id="v14_Locale" class="node"><title>v14</title>
<ellipse fill="none" stroke="black" cx="700" cy="-69" rx="29" ry="11"/>
<text text-anchor="middle" x="700" y="-66.8" font-family="sans-serif" font-size="9.00">Locale</text>
</g>
<!-- r1&#45;&gt;v14 -->
<g id="edge7" class="edge"><title>r1&#45;&gt;v14</title>
<path fill="none" stroke="black" d="M1062.4,-158.177C1011.22,-145.726 804.881,-95.5191 728.562,-76.9496"/>
<polygon fill="black" stroke="black" points="723.296,-75.6683 728.686,-74.6642 725.725,-76.2594 728.154,-76.8504 728.154,-76.8504 728.154,-76.8504 725.725,-76.2594 727.622,-79.0366 723.296,-75.6683 723.296,-75.6683"/>
</g>
<!-- v17 -->
<g id="v17_Locale" class="node"><title>v17</title>
<ellipse fill="none" stroke="black" cx="1188" cy="-69" rx="29" ry="11"/>
<text text-anchor="middle" x="1188" y="-66.8" font-family="sans-serif" font-size="9.00">Locale</text>
</g>
<!-- r1&#45;&gt;v17 -->
<g id="edge8" class="edge"><title>r1&#45;&gt;v17</title>
<path fill="none" stroke="black" d="M1084.12,-152.924C1104.02,-137.036 1148.4,-101.613 1172.2,-82.6139"/>
<polygon fill="black" stroke="black" points="1176.39,-79.266 1173.89,-84.1438 1174.44,-80.8256 1172.48,-82.3853 1172.48,-82.3853 1172.48,-82.3853 1174.44,-80.8256 1171.08,-80.6268 1176.39,-79.266 1176.39,-79.266"/>
</g>
<!-- r2 -->
<g id="node3" class="node"><title>r2</title>
<polygon fill="none" stroke="black" stroke-dasharray="5,2" points="593.5,-171 570.5,-171 570.5,-153 593.5,-153 593.5,-171"/>
<text text-anchor="middle" x="582" y="-159.8" font-family="serif" font-size="9.00">2</text>
</g>
<!-- v0 -->
<g id="v0_Area(0)" class="node"><title>v0</title>
<ellipse fill="none" stroke="black" cx="582" cy="-69" rx="32.5" ry="11"/>
<text text-anchor="middle" x="582" y="-66.8" font-family="sans-serif" font-size="9.00">Area(0)</text>
</g>
<!-- r2&#45;&gt;v0 -->
<g id="edge9" class="edge"><title>r2&#45;&gt;v0</title>
<path fill="none" stroke="black" d="M582,-152.924C582,-137.736 582,-104.696 582,-85.2178"/>
<polygon fill="black" stroke="black" points="582,-80.1095 584.25,-85.1095 582,-82.6095 582,-85.1095 582,-85.1095 582,-85.1095 582,-82.6095 579.75,-85.1096 582,-80.1095 582,-80.1095"/>
</g>
<!-- v20 -->
<g id="v20_Area(1)" class="node"><title>v20</title>
<ellipse fill="none" stroke="black" cx="460" cy="-69" rx="32.5" ry="11"/>
<text text-anchor="middle" x="460" y="-66.8" font-family="sans-serif" font-size="9.00">Area(1)</text>
</g>
<!-- r2&#45;&gt;v20 -->
<g id="edge10" class="edge"><title>r2&#45;&gt;v20</title>
<path fill="none" stroke="black" d="M570.473,-156.996C553.02,-150.54 519.443,-136.548 496,-117 484.91,-107.753 475.15,-94.5009 468.601,-84.4243"/>
<polygon fill="black" stroke="black" points="465.824,-80.0438 470.401,-83.0623 467.163,-82.1554 468.501,-84.2669 468.501,-84.2669 468.501,-84.2669 467.163,-82.1554 466.601,-85.4715 465.824,-80.0438 465.824,-80.0438"/>
</g>
<!-- v23 -->
<g id="v23_Area(2)" class="node"><title>v23</title>
<ellipse fill="none" stroke="black" cx="994" cy="-69" rx="32.5" ry="11"/>
<text text-anchor="middle" x="994" y="-66.8" font-family="sans-serif" font-size="9.00">Area(2)</text>
</g>
<!-- r2&#45;&gt;v23 -->
<g id="edge11" class="edge"><title>r2&#45;&gt;v23</title>
<path fill="none" stroke="black" d="M593.634,-161.368C638.036,-162.389 800.495,-162.627 923,-117 944.091,-109.145 965.208,-94.009 978.86,-83.031"/>
<polygon fill="black" stroke="black" points="982.849,-79.7702 980.402,-84.6768 980.913,-81.3525 978.978,-82.9348 978.978,-82.9348 978.978,-82.9348 980.913,-81.3525 977.554,-81.1928 982.849,-79.7702 982.849,-79.7702"/>
</g>
<!-- e1 -->
<g id="node4" class="node"><title>e1</title>
</g>
<!-- v1 -->
<g id="v1_GPS(6)" class="node"><title>v1</title>
<ellipse fill="none" stroke="black" cx="521" cy="-11" rx="29" ry="11"/>
<text text-anchor="middle" x="521" y="-8.8" font-family="sans-serif" font-size="9.00">GPS(6)</text>
</g>
<!-- e1&#45;&gt;v1 -->
<g id="edge33" class="edge"><title>e1&#45;&gt;v1</title>
<path fill="none" stroke="green" d="M506,-116C506,-116 515.713,-48.6577 519.507,-22.3521"/>
</g>
<!-- v3 -->
<g id="v3_Lion" class="node"><title>v3</title>
<ellipse fill="none" stroke="black" cx="821" cy="-11" rx="21.5" ry="11"/>
<text text-anchor="middle" x="821" y="-8.8" font-family="sans-serif" font-size="9.00">Lion</text>
</g>
<!-- e1&#45;&gt;v3 -->
<g id="edge34" class="edge"><title>e1&#45;&gt;v3</title>
<path fill="none" stroke="green" d="M506,-116C506,-116 719.902,-110.346 771,-80 794.182,-66.2327 809.87,-37.127 816.861,-21.844"/>
</g>
<!-- e1&#45;&gt;v5 -->
<g id="edge35" class="edge"><title>e1&#45;&gt;v5</title>
<path fill="none" stroke="green" d="M506,-116C506,-116 317.511,-84.0056 254.927,-73.3825"/>
</g>
<!-- v8 -->
<g id="v8_Child" class="node"><title>v8</title>
<ellipse fill="none" stroke="black" cx="246" cy="-11" rx="25" ry="11"/>
<text text-anchor="middle" x="246" y="-8.8" font-family="sans-serif" font-size="9.00">Child</text>
</g>
<!-- e1&#45;&gt;v8 -->
<g id="edge36" class="edge"><title>e1&#45;&gt;v8</title>
<path fill="none" stroke="green" d="M506,-116C506,-116 321.758,-42.3033 263.463,-18.9852"/>
</g>
<!-- e2 -->
<g id="node5" class="node"><title>e2</title>
</g>
<!-- e2&#45;&gt;v6 -->
<g id="edge37" class="edge"><title>e2&#45;&gt;v6</title>
<path fill="none" stroke="green" d="M144,-116C144,-116 128.674,-93.2583 119.574,-79.7554"/>
</g>
<!-- v9 -->
<g id="v9_Child" class="node"><title>v9</title>
<ellipse fill="none" stroke="black" cx="110" cy="-11" rx="25" ry="11"/>
<text text-anchor="middle" x="110" y="-8.8" font-family="sans-serif" font-size="9.00">Child</text>
</g>
<!-- e2&#45;&gt;v9 -->
<g id="edge38" class="edge"><title>e2&#45;&gt;v9</title>
<path fill="none" stroke="green" d="M144,-116C144,-116 97.8979,-107.615 82,-80 70.6615,-60.305 88.6275,-35.1231 100.628,-21.6063"/>
</g>
<!-- v15 -->
<g id="v15_Lion" class="node"><title>v15</title>
<ellipse fill="none" stroke="black" cx="674" cy="-11" rx="21.5" ry="11"/>
<text text-anchor="middle" x="674" y="-8.8" font-family="sans-serif" font-size="9.00">Lion</text>
</g>
<!-- e2&#45;&gt;v15 -->
<g id="edge39" class="edge"><title>e2&#45;&gt;v15</title>
<path fill="none" stroke="green" d="M144,-116C144,-116 576.191,-105.642 623,-80 646.814,-66.9547 662.742,-37.5331 669.818,-22.0154"/>
</g>
<!-- v21 -->
<g id="v21_GPS(2)" class="node"><title>v21</title>
<ellipse fill="none" stroke="black" cx="335" cy="-11" rx="29" ry="11"/>
<text text-anchor="middle" x="335" y="-8.8" font-family="sans-serif" font-size="9.00">GPS(2)</text>
</g>
<!-- e2&#45;&gt;v21 -->
<g id="edge40" class="edge"><title>e2&#45;&gt;v21</title>
<path fill="none" stroke="green" d="M144,-116C144,-116 216.591,-108.366 265,-80 291.605,-64.4102 315.761,-36.6178 327.504,-21.8529"/>
</g>
<!-- e3 -->
<g id="node6" class="node"><title>e3</title>
</g>
<!-- e3&#45;&gt;v7 -->
<g id="edge41" class="edge"><title>e3&#45;&gt;v7</title>
<path fill="none" stroke="green" d="M342,-116C342,-116 264.767,-98.0322 204,-80 199.789,-78.7505 195.281,-77.3054 191.072,-75.909"/>
</g>
<!-- v10 -->
<g id="v10_Child" class="node"><title>v10</title>
<ellipse fill="none" stroke="black" cx="178" cy="-11" rx="25" ry="11"/>
<text text-anchor="middle" x="178" y="-8.8" font-family="sans-serif" font-size="9.00">Child</text>
</g>
<!-- e3&#45;&gt;v10 -->
<g id="edge42" class="edge"><title>e3&#45;&gt;v10</title>
<path fill="none" stroke="green" d="M342,-116C342,-116 301.164,-80.9749 265,-58 241.205,-42.8829 211.942,-28.1433 194.144,-19.5746"/>
</g>
<!-- v16 -->
<g id="v16_Lion" class="node"><title>v16</title>
<ellipse fill="none" stroke="black" cx="750" cy="-11" rx="21.5" ry="11"/>
<text text-anchor="middle" x="750" y="-8.8" font-family="sans-serif" font-size="9.00">Lion</text>
</g>
<!-- e3&#45;&gt;v16 -->
<g id="edge43" class="edge"><title>e3&#45;&gt;v16</title>
<path fill="none" stroke="green" d="M342,-116C342,-116 705.475,-109.902 738,-80 754.062,-65.2337 753.351,-37.0939 751.598,-22.0593"/>
</g>
<!-- v22 -->
<g id="v22_GPS(3)" class="node"><title>v22</title>
<ellipse fill="none" stroke="black" cx="434" cy="-11" rx="29" ry="11"/>
<text text-anchor="middle" x="434" y="-8.8" font-family="sans-serif" font-size="9.00">GPS(3)</text>
</g>
<!-- e3&#45;&gt;v22 -->
<g id="edge44" class="edge"><title>e3&#45;&gt;v22</title>
<path fill="none" stroke="green" d="M342,-116C342,-116 402.734,-47.3438 425.51,-21.5977"/>
</g>
<!-- e4 -->
<g id="node7" class="node"><title>e4</title>
</g>
<!-- e4&#45;&gt;v11 -->
<g id="edge45" class="edge"><title>e4&#45;&gt;v11</title>
<path fill="none" stroke="green" d="M914,-116C914,-116 877.183,-91.4551 857.336,-78.2239"/>
</g>
<!-- v12 -->
<g id="v12_Child" class="node"><title>v12</title>
<ellipse fill="none" stroke="black" cx="889" cy="-11" rx="25" ry="11"/>
<text text-anchor="middle" x="889" y="-8.8" font-family="sans-serif" font-size="9.00">Child</text>
</g>
<!-- e4&#45;&gt;v12 -->
<g id="edge46" class="edge"><title>e4&#45;&gt;v12</title>
<path fill="none" stroke="green" d="M914,-116C914,-116 897.654,-48.0023 891.397,-21.972"/>
</g>
<!-- v18 -->
<g id="v18_Lion" class="node"><title>v18</title>
<ellipse fill="none" stroke="black" cx="1165" cy="-11" rx="21.5" ry="11"/>
<text text-anchor="middle" x="1165" y="-8.8" font-family="sans-serif" font-size="9.00">Lion</text>
</g>
<!-- e4&#45;&gt;v18 -->
<g id="edge47" class="edge"><title>e4&#45;&gt;v18</title>
<path fill="none" stroke="green" d="M914,-116C914,-116 1073.74,-103.157 1112,-80 1135.43,-65.8164 1152.45,-37.1628 1160.25,-21.9746"/>
</g>
<!-- v24 -->
<g id="v24_GPS(4)" class="node"><title>v24</title>
<ellipse fill="none" stroke="black" cx="978" cy="-11" rx="29" ry="11"/>
<text text-anchor="middle" x="978" y="-8.8" font-family="sans-serif" font-size="9.00">GPS(4)</text>
</g>
<!-- e4&#45;&gt;v24 -->
<g id="edge48" class="edge"><title>e4&#45;&gt;v24</title>
<path fill="none" stroke="green" d="M914,-116C914,-116 955.845,-48.0023 971.863,-21.972"/>
</g>
<!-- v0&#45;&gt;v1 -->
<g id="edge12" class="edge"><title>v0&#45;&gt;v1</title>
<path fill="none" stroke="black" d="M571.652,-58.5004C561.601,-49.2734 546.266,-35.1949 535.102,-24.9459"/>
<polygon fill="black" stroke="black" points="531.195,-21.3593 536.4,-23.0833 533.037,-23.05 534.878,-24.7407 534.878,-24.7407 534.878,-24.7407 533.037,-23.05 533.357,-26.3982 531.195,-21.3593 531.195,-21.3593"/>
</g>
<!-- v0&#45;&gt;v2 -->
<g id="edge32" class="edge"><title>v0&#45;&gt;v2</title>
<path fill="none" stroke="green" d="M602.404,-77.6914C620.155,-84.7532 646.765,-94.1511 671,-98 748.912,-110.373 950.006,-119.174 1026,-98 1039.13,-94.3414 1052.25,-86.0113 1061.45,-79.2134"/>
</g>
<!-- v19 -->
<g id="v19_GPS(0)" class="node"><title>v19</title>
<ellipse fill="none" stroke="black" cx="597" cy="-11" rx="29" ry="11"/>
<text text-anchor="middle" x="597" y="-8.8" font-family="sans-serif" font-size="9.00">GPS(0)</text>
</g>
<!-- v0&#45;&gt;v19 -->
<g id="edge13" class="edge"><title>v0&#45;&gt;v19</title>
<path fill="none" stroke="black" d="M584.682,-57.9883C586.978,-49.4154 590.319,-36.9411 592.943,-27.1466"/>
<polygon fill="black" stroke="black" points="594.24,-22.3039 595.12,-27.7158 593.593,-24.7187 592.946,-27.1336 592.946,-27.1336 592.946,-27.1336 593.593,-24.7187 590.773,-26.5514 594.24,-22.3039 594.24,-22.3039"/>
</g>
<!-- v2&#45;&gt;v3 -->
<g id="edge14" class="edge"><title>v2&#45;&gt;v3</title>
<path fill="none" stroke="black" d="M1051.37,-61.9774C1046.01,-60.614 1040.32,-59.2121 1035,-58 955.458,-39.8617 934.212,-41.5294 855,-22 851.22,-21.068 847.231,-19.9857 843.367,-18.8844"/>
<polygon fill="black" stroke="black" points="838.566,-17.4891 843.995,-16.7238 840.967,-18.1868 843.367,-18.8844 843.367,-18.8844 843.367,-18.8844 840.967,-18.1868 842.739,-21.0451 838.566,-17.4891 838.566,-17.4891"/>
</g>
<!-- v13 -->
<g id="v13_Impala" class="node"><title>v13</title>
<ellipse fill="none" stroke="black" cx="1074" cy="-11" rx="29" ry="11"/>
<text text-anchor="middle" x="1074" y="-8.8" font-family="sans-serif" font-size="9.00">Impala</text>
</g>
<!-- v2&#45;&gt;v13 -->
<g id="edge15" class="edge"><title>v2&#45;&gt;v13</title>
<path fill="none" stroke="black" d="M1074,-57.9883C1074,-49.4941 1074,-37.1697 1074,-27.4169"/>
<polygon fill="black" stroke="black" points="1074,-22.3039 1076.25,-27.3038 1074,-24.8039 1074,-27.3039 1074,-27.3039 1074,-27.3039 1074,-24.8039 1071.75,-27.3039 1074,-22.3039 1074,-22.3039"/>
</g>
<!-- v5&#45;&gt;v8 -->
<g id="edge16" class="edge"><title>v5&#45;&gt;v8</title>
<path fill="none" stroke="black" d="M236.967,-57.9883C238.635,-49.4941 241.056,-37.1697 242.972,-27.4169"/>
<polygon fill="black" stroke="black" points="243.976,-22.3039 245.22,-27.6438 243.494,-24.757 243.012,-27.2101 243.012,-27.2101 243.012,-27.2101 243.494,-24.757 240.804,-26.7764 243.976,-22.3039 243.976,-22.3039"/>
</g>
<!-- v5&#45;&gt;v9 -->
<g id="edge17" class="edge"><title>v5&#45;&gt;v9</title>
<path fill="none" stroke="black" d="M219.673,-61.1333C197.548,-51.2214 156.568,-32.8624 131.449,-21.6093"/>
<polygon fill="black" stroke="black" points="126.647,-19.4581 132.13,-19.449 128.929,-20.4802 131.211,-21.5024 131.211,-21.5024 131.211,-21.5024 128.929,-20.4802 130.291,-23.5557 126.647,-19.4581 126.647,-19.4581"/>
</g>
<!-- v5&#45;&gt;v10 -->
<g id="edge18" class="edge"><title>v5&#45;&gt;v10</title>
<path fill="none" stroke="black" d="M225.842,-59.0026C216.537,-49.8606 202.023,-35.6014 191.42,-25.1846"/>
<polygon fill="black" stroke="black" points="187.708,-21.5373 192.851,-23.4364 189.491,-23.2894 191.274,-25.0414 191.274,-25.0414 191.274,-25.0414 189.491,-23.2894 189.697,-26.6465 187.708,-21.5373 187.708,-21.5373"/>
</g>
<!-- v6&#45;&gt;v8 -->
<g id="edge19" class="edge"><title>v6&#45;&gt;v8</title>
<path fill="none" stroke="black" d="M128.779,-61.3562C152.488,-51.3736 197.373,-32.4747 224.195,-21.1809"/>
<polygon fill="black" stroke="black" points="228.984,-19.1645 225.249,-23.1785 226.68,-20.1346 224.376,-21.1048 224.376,-21.1048 224.376,-21.1048 226.68,-20.1346 223.503,-19.0311 228.984,-19.1645 228.984,-19.1645"/>
</g>
<!-- v6&#45;&gt;v9 -->
<g id="edge20" class="edge"><title>v6&#45;&gt;v9</title>
<path fill="none" stroke="black" d="M112.464,-57.9883C112.009,-49.4941 111.348,-37.1697 110.826,-27.4169"/>
<polygon fill="black" stroke="black" points="110.552,-22.3039 113.066,-27.1763 110.686,-24.8003 110.82,-27.2967 110.82,-27.2967 110.82,-27.2967 110.686,-24.8003 108.573,-27.4171 110.552,-22.3039 110.552,-22.3039"/>
</g>
<!-- v6&#45;&gt;v10 -->
<g id="edge21" class="edge"><title>v6&#45;&gt;v10</title>
<path fill="none" stroke="black" d="M123.156,-59.25C133.935,-49.9638 151.069,-35.2025 163.316,-24.6504"/>
<polygon fill="black" stroke="black" points="167.267,-21.2473 164.947,-26.2155 165.373,-22.8791 163.479,-24.5108 163.479,-24.5108 163.479,-24.5108 165.373,-22.8791 162.01,-22.8062 167.267,-21.2473 167.267,-21.2473"/>
</g>
<!-- v7&#45;&gt;v8 -->
<g id="edge22" class="edge"><title>v7&#45;&gt;v8</title>
<path fill="none" stroke="black" d="M184.935,-59.4948C197.057,-50.067 216.705,-34.7854 230.43,-24.1101"/>
<polygon fill="black" stroke="black" points="234.484,-20.9566 231.919,-25.8024 232.511,-22.4915 230.538,-24.0264 230.538,-24.0264 230.538,-24.0264 232.511,-22.4915 229.156,-22.2503 234.484,-20.9566 234.484,-20.9566"/>
</g>
<!-- v7&#45;&gt;v9 -->
<g id="edge23" class="edge"><title>v7&#45;&gt;v9</title>
<path fill="none" stroke="black" d="M164,-59.25C153.387,-49.9638 136.517,-35.2025 124.458,-24.6504"/>
<polygon fill="black" stroke="black" points="120.568,-21.2473 125.813,-22.8465 122.45,-22.8935 124.331,-24.5398 124.331,-24.5398 124.331,-24.5398 122.45,-22.8935 122.85,-26.2331 120.568,-21.2473 120.568,-21.2473"/>
</g>
<!-- v7&#45;&gt;v10 -->
<g id="edge24" class="edge"><title>v7&#45;&gt;v10</title>
<path fill="none" stroke="black" d="M174.715,-57.9883C175.322,-49.4941 176.202,-37.1697 176.899,-27.4169"/>
<polygon fill="black" stroke="black" points="177.264,-22.3039 179.152,-27.4515 177.086,-24.7975 176.908,-27.2912 176.908,-27.2912 176.908,-27.2912 177.086,-24.7975 174.663,-27.1308 177.264,-22.3039 177.264,-22.3039"/>
</g>
<!-- v11&#45;&gt;v12 -->
<g id="edge25" class="edge"><title>v11&#45;&gt;v12</title>
<path fill="none" stroke="black" d="M852.464,-58.5004C859.501,-49.5445 870.129,-36.018 878.111,-25.859"/>
<polygon fill="black" stroke="black" points="881.351,-21.7345 880.032,-27.0562 879.807,-23.7003 878.262,-25.6661 878.262,-25.6661 878.262,-25.6661 879.807,-23.7003 876.493,-24.276 881.351,-21.7345 881.351,-21.7345"/>
</g>
<!-- v13&#45;&gt;v19 -->
<g id="edge49" class="edge"><title>v13&#45;&gt;v19</title>
<path fill="none" stroke="green" d="M1057.83,-20.2399C1044.63,-27.2198 1025.24,-36.2209 1007,-40 929.751,-56.0008 728.579,-58.9523 652,-40 637.121,-36.3175 621.826,-27.7976 611.154,-20.9398"/>
</g>
<!-- v14&#45;&gt;v15 -->
<g id="edge26" class="edge"><title>v14&#45;&gt;v15</title>
<path fill="none" stroke="black" d="M695.352,-57.9883C691.285,-49.2286 685.327,-36.3956 680.737,-26.5103"/>
<polygon fill="black" stroke="black" points="678.608,-21.925 682.754,-25.5125 679.661,-24.1925 680.714,-26.4601 680.714,-26.4601 680.714,-26.4601 679.661,-24.1925 678.673,-27.4076 678.608,-21.925 678.608,-21.925"/>
</g>
<!-- v14&#45;&gt;v16 -->
<g id="edge27" class="edge"><title>v14&#45;&gt;v16</title>
<path fill="none" stroke="black" d="M708.709,-58.2455C716.91,-49.061 729.252,-35.2372 738.308,-25.0955"/>
<polygon fill="black" stroke="black" points="741.722,-21.2708 740.071,-26.4991 740.057,-23.1357 738.392,-25.0005 738.392,-25.0005 738.392,-25.0005 740.057,-23.1357 736.714,-23.502 741.722,-21.2708 741.722,-21.2708"/>
</g>
<!-- v14&#45;&gt;v20 -->
<g id="edge50" class="edge"><title>v14&#45;&gt;v20</title>
<path fill="none" stroke="green" d="M686.7,-78.9333C676.651,-85.7878 662.206,-94.3065 648,-98 605.416,-109.072 592.455,-104.901 549,-98 524.765,-94.1511 498.155,-84.7532 480.404,-77.6914"/>
</g>
<!-- v17&#45;&gt;v18 -->
<g id="edge28" class="edge"><title>v17&#45;&gt;v18</title>
<path fill="none" stroke="black" d="M1183.89,-57.9883C1180.32,-49.3083 1175.12,-36.6286 1171.07,-26.7806"/>
<polygon fill="black" stroke="black" points="1169.08,-21.925 1173.06,-25.6953 1170.03,-24.2376 1170.98,-26.5501 1170.98,-26.5501 1170.98,-26.5501 1170.03,-24.2376 1168.89,-27.405 1169.08,-21.925 1169.08,-21.925"/>
</g>
<!-- v17&#45;&gt;v23 -->
<g id="edge51" class="edge"><title>v17&#45;&gt;v23</title>
<path fill="none" stroke="green" d="M1174.7,-78.9333C1164.65,-85.7878 1150.21,-94.3065 1136,-98 1096.86,-108.177 1084.1,-108.339 1045,-98 1031.21,-94.3546 1017.25,-86.0232 1007.43,-79.2214"/>
</g>
<!-- v20&#45;&gt;v21 -->
<g id="edge29" class="edge"><title>v20&#45;&gt;v21</title>
<path fill="none" stroke="black" d="M441.824,-59.8571C419.479,-49.8466 381.561,-32.8594 357.428,-22.0475"/>
<polygon fill="black" stroke="black" points="352.793,-19.9714 358.276,-19.9623 355.075,-20.9935 357.356,-22.0157 357.356,-22.0157 357.356,-22.0157 355.075,-20.9935 356.436,-24.069 352.793,-19.9714 352.793,-19.9714"/>
</g>
<!-- v20&#45;&gt;v22 -->
<g id="edge30" class="edge"><title>v20&#45;&gt;v22</title>
<path fill="none" stroke="black" d="M455.352,-57.9883C451.285,-49.2286 445.327,-36.3956 440.737,-26.5103"/>
<polygon fill="black" stroke="black" points="438.608,-21.925 442.754,-25.5125 439.661,-24.1925 440.714,-26.4601 440.714,-26.4601 440.714,-26.4601 439.661,-24.1925 438.673,-27.4076 438.608,-21.925 438.608,-21.925"/>
</g>
<!-- v23&#45;&gt;v24 -->
<g id="edge31" class="edge"><title>v23&#45;&gt;v24</title>
<path fill="none" stroke="black" d="M991.14,-57.9883C988.69,-49.4154 985.126,-36.9411 982.328,-27.1466"/>
<polygon fill="black" stroke="black" points="980.944,-22.3039 984.481,-26.4933 981.631,-24.7077 982.318,-27.1115 982.318,-27.1115 982.318,-27.1115 981.631,-24.7077 980.154,-27.7297 980.944,-22.3039 980.944,-22.3039"/>
</g>
</g>
</svg>
