<?xml version="1.0" encoding="UTF-8" standalone="no"?>
<?xml-stylesheet href="style.css" type="text/css"?>
<!DOCTYPE svg PUBLIC "-//W3C//DTD SVG 1.1//EN"
 "http://www.w3.org/Graphics/SVG/1.1/DTD/svg11.dtd">
<!-- Generated by graphviz version 2.38.0 (20140413.2041)
 -->
<!-- Title: 6.svg Pages: 1 -->
<svg width="1224pt" height="179pt"
 viewBox="0.00 0.00 1223.50 179.00" xmlns="http://www.w3.org/2000/svg" xmlns:xlink="http://www.w3.org/1999/xlink">
<g id="graph0" class="graph" transform="scale(1 1) rotate(0) translate(4 175)">
<title>6.svg</title>
<polygon fill="white" stroke="none" points="-4,4 -4,-175 1219.5,-175 1219.5,4 -4,4"/>
<!-- r0 -->
<g id="node1" class="node"><title>r0</title>
<polygon fill="none" stroke="black" stroke-dasharray="5,2" points="185.5,-171 162.5,-171 162.5,-153 185.5,-153 185.5,-171"/>
<text text-anchor="middle" x="174" y="-159.8" font-family="serif" font-size="9.00">0</text>
</g>
<!-- v4 -->
<g id="v4_Field" class="node"><title>v4</title>
<ellipse fill="none" stroke="black" cx="25" cy="-11" rx="25" ry="11"/>
<text text-anchor="middle" x="25" y="-8.8" font-family="sans-serif" font-size="9.00">Field</text>
</g>
<!-- r0&#45;&gt;v4 -->
<g id="edge1" class="edge"><title>r0&#45;&gt;v4</title>
<path fill="none" stroke="black" d="M162.222,-152.862C142.816,-139.14 103.443,-109.953 75,-80 58.8635,-63.0068 43.3756,-40.7082 34.0231,-26.3641"/>
<polygon fill="black" stroke="black" points="31.0945,-21.8237 35.6956,-24.8059 32.4496,-23.9246 33.8047,-26.0255 33.8047,-26.0255 33.8047,-26.0255 32.4496,-23.9246 31.9139,-27.2451 31.0945,-21.8237 31.0945,-21.8237"/>
</g>
<!-- v5 -->
<g id="v5_Aura" class="node"><title>v5</title>
<ellipse fill="none" stroke="black" cx="235" cy="-69" rx="21.5" ry="11"/>
<text text-anchor="middle" x="235" y="-66.8" font-family="sans-serif" font-size="9.00">Aura</text>
</g>
<!-- r0&#45;&gt;v5 -->
<g id="edge2" class="edge"><title>r0&#45;&gt;v5</title>
<path fill="none" stroke="black" d="M179.413,-152.924C189.789,-137.446 212.593,-103.427 225.537,-84.1163"/>
<polygon fill="black" stroke="black" points="228.602,-79.5439 227.687,-84.9499 227.21,-81.6205 225.818,-83.6971 225.818,-83.6971 225.818,-83.6971 227.21,-81.6205 223.949,-82.4443 228.602,-79.5439 228.602,-79.5439"/>
</g>
<!-- v6 -->
<g id="v6_Aura" class="node"><title>v6</title>
<ellipse fill="none" stroke="black" cx="113" cy="-69" rx="21.5" ry="11"/>
<text text-anchor="middle" x="113" y="-66.8" font-family="sans-serif" font-size="9.00">Aura</text>
</g>
<!-- r0&#45;&gt;v6 -->
<g id="edge3" class="edge"><title>r0&#45;&gt;v6</title>
<path fill="none" stroke="black" d="M165.157,-152.911C156.404,-144.557 143.038,-130.826 134,-117 127.42,-106.935 121.956,-94.4673 118.252,-84.9025"/>
<polygon fill="black" stroke="black" points="116.479,-80.1934 120.347,-84.08 117.36,-82.5331 118.241,-84.8728 118.241,-84.8728 118.241,-84.8728 117.36,-82.5331 116.135,-85.6656 116.479,-80.1934 116.479,-80.1934"/>
</g>
<!-- v7 -->
<g id="v7_Aura" class="node"><title>v7</title>
<ellipse fill="none" stroke="black" cx="174" cy="-69" rx="21.5" ry="11"/>
<text text-anchor="middle" x="174" y="-66.8" font-family="sans-serif" font-size="9.00">Aura</text>
</g>
<!-- r0&#45;&gt;v7 -->
<g id="edge4" class="edge"><title>r0&#45;&gt;v7</title>
<path fill="none" stroke="black" d="M174,-152.924C174,-137.736 174,-104.696 174,-85.2178"/>
<polygon fill="black" stroke="black" points="174,-80.1095 176.25,-85.1095 174,-82.6095 174,-85.1095 174,-85.1095 174,-85.1095 174,-82.6095 171.75,-85.1096 174,-80.1095 174,-80.1095"/>
</g>
<!-- v11 -->
<g id="v11_Aura" class="node"><title>v11</title>
<ellipse fill="none" stroke="black" cx="920" cy="-69" rx="21.5" ry="11"/>
<text text-anchor="middle" x="920" y="-66.8" font-family="sans-serif" font-size="9.00">Aura</text>
</g>
<!-- r0&#45;&gt;v11 -->
<g id="edge5" class="edge"><title>r0&#45;&gt;v11</title>
<path fill="none" stroke="black" d="M185.936,-160.538C254.807,-157.687 608.129,-140.578 889,-80 892.12,-79.3271 895.371,-78.4649 898.543,-77.5295"/>
<polygon fill="black" stroke="black" points="903.434,-76.0162 899.323,-79.6437 901.046,-76.7552 898.658,-77.4942 898.658,-77.4942 898.658,-77.4942 901.046,-76.7552 897.992,-75.3448 903.434,-76.0162 903.434,-76.0162"/>
</g>
<!-- r1 -->
<g id="node2" class="node"><title>r1</title>
<polygon fill="none" stroke="black" stroke-dasharray="5,2" points="581.5,-171 558.5,-171 558.5,-153 581.5,-153 581.5,-171"/>
<text text-anchor="middle" x="570" y="-159.8" font-family="serif" font-size="9.00">1</text>
</g>
<!-- v2 -->
<g id="v2_Locale" class="node"><title>v2</title>
<ellipse fill="none" stroke="black" cx="456" cy="-69" rx="29" ry="11"/>
<text text-anchor="middle" x="456" y="-66.8" font-family="sans-serif" font-size="9.00">Locale</text>
</g>
<!-- r1&#45;&gt;v2 -->
<g id="edge6" class="edge"><title>r1&#45;&gt;v2</title>
<path fill="none" stroke="black" d="M558.466,-155.64C543.229,-148.238 515.988,-133.872 496,-117 484.394,-107.203 473.377,-93.8456 465.855,-83.8741"/>
<polygon fill="black" stroke="black" points="462.854,-79.8282 467.64,-82.5035 464.343,-81.8361 465.832,-83.844 465.832,-83.844 465.832,-83.844 464.343,-81.8361 464.025,-85.1845 462.854,-79.8282 462.854,-79.8282"/>
</g>
<!-- v13 -->
<g id="v13_Locale" class="node"><title>v13</title>
<ellipse fill="none" stroke="black" cx="570" cy="-69" rx="29" ry="11"/>
<text text-anchor="middle" x="570" y="-66.8" font-family="sans-serif" font-size="9.00">Locale</text>
</g>
<!-- r1&#45;&gt;v13 -->
<g id="edge7" class="edge"><title>r1&#45;&gt;v13</title>
<path fill="none" stroke="black" d="M570,-152.924C570,-137.736 570,-104.696 570,-85.2178"/>
<polygon fill="black" stroke="black" points="570,-80.1095 572.25,-85.1095 570,-82.6095 570,-85.1095 570,-85.1095 570,-85.1095 570,-82.6095 567.75,-85.1096 570,-80.1095 570,-80.1095"/>
</g>
<!-- v17 -->
<g id="v17_Locale" class="node"><title>v17</title>
<ellipse fill="none" stroke="black" cx="1103" cy="-69" rx="29" ry="11"/>
<text text-anchor="middle" x="1103" y="-66.8" font-family="sans-serif" font-size="9.00">Locale</text>
</g>
<!-- r1&#45;&gt;v17 -->
<g id="edge8" class="edge"><title>r1&#45;&gt;v17</title>
<path fill="none" stroke="black" d="M581.79,-161.127C632.503,-161.395 836.757,-159.631 997,-117 1028.47,-108.628 1062.49,-92.0695 1083.28,-81.0137"/>
<polygon fill="black" stroke="black" points="1087.76,-78.6055 1084.42,-82.9542 1085.56,-79.7889 1083.35,-80.9722 1083.35,-80.9722 1083.35,-80.9722 1085.56,-79.7889 1082.29,-78.9902 1087.76,-78.6055 1087.76,-78.6055"/>
</g>
<!-- r2 -->
<g id="node3" class="node"><title>r2</title>
<polygon fill="none" stroke="black" stroke-dasharray="5,2" points="859.5,-171 836.5,-171 836.5,-153 859.5,-153 859.5,-171"/>
<text text-anchor="middle" x="848" y="-159.8" font-family="serif" font-size="9.00">2</text>
</g>
<!-- v0 -->
<g id="v0_Area(1)" class="node"><title>v0</title>
<ellipse fill="none" stroke="black" cx="726" cy="-69" rx="32.5" ry="11"/>
<text text-anchor="middle" x="726" y="-66.8" font-family="sans-serif" font-size="9.00">Area(1)</text>
</g>
<!-- r2&#45;&gt;v0 -->
<g id="edge9" class="edge"><title>r2&#45;&gt;v0</title>
<path fill="none" stroke="black" d="M837.173,-152.924C815.784,-136.97 767.987,-101.319 742.595,-82.3783"/>
<polygon fill="black" stroke="black" points="738.423,-79.266 743.776,-80.4519 740.426,-80.7607 742.43,-82.2555 742.43,-82.2555 742.43,-82.2555 740.426,-80.7607 741.085,-84.059 738.423,-79.266 738.423,-79.266"/>
</g>
<!-- v19 -->
<g id="v19_Area(0)" class="node"><title>v19</title>
<ellipse fill="none" stroke="black" cx="848" cy="-69" rx="32.5" ry="11"/>
<text text-anchor="middle" x="848" y="-66.8" font-family="sans-serif" font-size="9.00">Area(0)</text>
</g>
<!-- r2&#45;&gt;v19 -->
<g id="edge10" class="edge"><title>r2&#45;&gt;v19</title>
<path fill="none" stroke="black" d="M848,-152.924C848,-137.736 848,-104.696 848,-85.2178"/>
<polygon fill="black" stroke="black" points="848,-80.1095 850.25,-85.1095 848,-82.6095 848,-85.1095 848,-85.1095 848,-85.1095 848,-82.6095 845.75,-85.1096 848,-80.1095 848,-80.1095"/>
</g>
<!-- v23 -->
<g id="v23_Area(2)" class="node"><title>v23</title>
<ellipse fill="none" stroke="black" cx="1183" cy="-69" rx="32.5" ry="11"/>
<text text-anchor="middle" x="1183" y="-66.8" font-family="sans-serif" font-size="9.00">Area(2)</text>
</g>
<!-- r2&#45;&gt;v23 -->
<g id="edge11" class="edge"><title>r2&#45;&gt;v23</title>
<path fill="none" stroke="black" d="M859.585,-159.452C892.528,-154.883 989.37,-140.302 1067,-117 1100.42,-106.968 1137.55,-91.0294 1160.59,-80.5408"/>
<polygon fill="black" stroke="black" points="1165.29,-78.3895 1161.68,-82.5175 1163.02,-79.4307 1160.74,-80.4719 1160.74,-80.4719 1160.74,-80.4719 1163.02,-79.4307 1159.81,-78.4263 1165.29,-78.3895 1165.29,-78.3895"/>
</g>
<!-- e1 -->
<g id="node4" class="node"><title>e1</title>
</g>
<!-- v1 -->
<g id="v1_GPS(11)" class="node"><title>v1</title>
<ellipse fill="none" stroke="black" cx="648" cy="-11" rx="32.5" ry="11"/>
<text text-anchor="middle" x="648" y="-8.8" font-family="sans-serif" font-size="9.00">GPS(11)</text>
</g>
<!-- e1&#45;&gt;v1 -->
<g id="edge33" class="edge"><title>e1&#45;&gt;v1</title>
<path fill="none" stroke="green" d="M144,-116C144,-116 564.14,-107.391 608,-80 629.259,-66.7231 640.565,-37.6799 645.283,-22.1958"/>
</g>
<!-- v3 -->
<g id="v3_Lion" class="node"><title>v3</title>
<ellipse fill="none" stroke="black" cx="338" cy="-11" rx="21.5" ry="11"/>
<text text-anchor="middle" x="338" y="-8.8" font-family="sans-serif" font-size="9.00">Lion</text>
</g>
<!-- e1&#45;&gt;v3 -->
<g id="edge34" class="edge"><title>e1&#45;&gt;v3</title>
<path fill="none" stroke="green" d="M144,-116C144,-116 216.297,-107.858 265,-80 292.664,-64.1768 318.273,-35.9705 330.49,-21.3562"/>
</g>
<!-- e1&#45;&gt;v6 -->
<g id="edge35" class="edge"><title>e1&#45;&gt;v6</title>
<path fill="none" stroke="green" d="M144,-116C144,-116 128.674,-93.2583 119.574,-79.7554"/>
</g>
<!-- v9 -->
<g id="v9_Child" class="node"><title>v9</title>
<ellipse fill="none" stroke="black" cx="110" cy="-11" rx="25" ry="11"/>
<text text-anchor="middle" x="110" y="-8.8" font-family="sans-serif" font-size="9.00">Child</text>
</g>
<!-- e1&#45;&gt;v9 -->
<g id="edge36" class="edge"><title>e1&#45;&gt;v9</title>
<path fill="none" stroke="green" d="M144,-116C144,-116 97.8979,-107.615 82,-80 70.6615,-60.305 88.6275,-35.1231 100.628,-21.6063"/>
</g>
<!-- e2 -->
<g id="node5" class="node"><title>e2</title>
</g>
<!-- e2&#45;&gt;v5 -->
<g id="edge37" class="edge"><title>e2&#45;&gt;v5</title>
<path fill="none" stroke="green" d="M506,-116C506,-116 317.511,-84.0056 254.927,-73.3825"/>
</g>
<!-- v8 -->
<g id="v8_Child" class="node"><title>v8</title>
<ellipse fill="none" stroke="black" cx="246" cy="-11" rx="25" ry="11"/>
<text text-anchor="middle" x="246" y="-8.8" font-family="sans-serif" font-size="9.00">Child</text>
</g>
<!-- e2&#45;&gt;v8 -->
<g id="edge38" class="edge"><title>e2&#45;&gt;v8</title>
<path fill="none" stroke="green" d="M506,-116C506,-116 321.758,-42.3033 263.463,-18.9852"/>
</g>
<!-- v14 -->
<g id="v14_Lion" class="node"><title>v14</title>
<ellipse fill="none" stroke="black" cx="499" cy="-11" rx="21.5" ry="11"/>
<text text-anchor="middle" x="499" y="-8.8" font-family="sans-serif" font-size="9.00">Lion</text>
</g>
<!-- e2&#45;&gt;v14 -->
<g id="edge39" class="edge"><title>e2&#45;&gt;v14</title>
<path fill="none" stroke="green" d="M506,-116C506,-116 501.467,-48.6577 499.697,-22.3521"/>
</g>
<!-- v20 -->
<g id="v20_GPS(1)" class="node"><title>v20</title>
<ellipse fill="none" stroke="black" cx="804" cy="-11" rx="29" ry="11"/>
<text text-anchor="middle" x="804" y="-8.8" font-family="sans-serif" font-size="9.00">GPS(1)</text>
</g>
<!-- e2&#45;&gt;v20 -->
<g id="edge40" class="edge"><title>e2&#45;&gt;v20</title>
<path fill="none" stroke="green" d="M506,-116C506,-116 718.836,-113.29 767,-80 787.233,-66.0158 797.446,-37.2765 801.626,-22.0233"/>
</g>
<!-- e3 -->
<g id="node6" class="node"><title>e3</title>
</g>
<!-- e3&#45;&gt;v7 -->
<g id="edge41" class="edge"><title>e3&#45;&gt;v7</title>
<path fill="none" stroke="green" d="M342,-116C342,-116 264.767,-98.0322 204,-80 199.789,-78.7505 195.281,-77.3054 191.072,-75.909"/>
</g>
<!-- v10 -->
<g id="v10_Child" class="node"><title>v10</title>
<ellipse fill="none" stroke="black" cx="178" cy="-11" rx="25" ry="11"/>
<text text-anchor="middle" x="178" y="-8.8" font-family="sans-serif" font-size="9.00">Child</text>
</g>
<!-- e3&#45;&gt;v10 -->
<g id="edge42" class="edge"><title>e3&#45;&gt;v10</title>
<path fill="none" stroke="green" d="M342,-116C342,-116 301.164,-80.9749 265,-58 241.205,-42.8829 211.942,-28.1433 194.144,-19.5746"/>
</g>
<!-- v16 -->
<g id="v16_Lion" class="node"><title>v16</title>
<ellipse fill="none" stroke="black" cx="425" cy="-11" rx="21.5" ry="11"/>
<text text-anchor="middle" x="425" y="-8.8" font-family="sans-serif" font-size="9.00">Lion</text>
</g>
<!-- e3&#45;&gt;v16 -->
<g id="edge43" class="edge"><title>e3&#45;&gt;v16</title>
<path fill="none" stroke="green" d="M342,-116C342,-116 396.793,-47.3438 417.34,-21.5977"/>
</g>
<!-- v22 -->
<g id="v22_GPS(3)" class="node"><title>v22</title>
<ellipse fill="none" stroke="black" cx="728" cy="-11" rx="29" ry="11"/>
<text text-anchor="middle" x="728" y="-8.8" font-family="sans-serif" font-size="9.00">GPS(3)</text>
</g>
<!-- e3&#45;&gt;v22 -->
<g id="edge44" class="edge"><title>e3&#45;&gt;v22</title>
<path fill="none" stroke="green" d="M342,-116C342,-116 579.143,-105.544 641,-80 673.603,-66.5364 704.284,-37.2978 718.962,-21.9161"/>
</g>
<!-- e4 -->
<g id="node7" class="node"><title>e4</title>
</g>
<!-- e4&#45;&gt;v11 -->
<g id="edge45" class="edge"><title>e4&#45;&gt;v11</title>
<path fill="none" stroke="green" d="M988,-116C988,-116 951.716,-91.4551 932.157,-78.2239"/>
</g>
<!-- v12 -->
<g id="v12_Child" class="node"><title>v12</title>
<ellipse fill="none" stroke="black" cx="962" cy="-11" rx="25" ry="11"/>
<text text-anchor="middle" x="962" y="-8.8" font-family="sans-serif" font-size="9.00">Child</text>
</g>
<!-- e4&#45;&gt;v12 -->
<g id="edge46" class="edge"><title>e4&#45;&gt;v12</title>
<path fill="none" stroke="green" d="M988,-116C988,-116 971.001,-48.0023 964.493,-21.972"/>
</g>
<!-- v18 -->
<g id="v18_Lion" class="node"><title>v18</title>
<ellipse fill="none" stroke="black" cx="1066" cy="-11" rx="21.5" ry="11"/>
<text text-anchor="middle" x="1066" y="-8.8" font-family="sans-serif" font-size="9.00">Lion</text>
</g>
<!-- e4&#45;&gt;v18 -->
<g id="edge47" class="edge"><title>e4&#45;&gt;v18</title>
<path fill="none" stroke="green" d="M988,-116C988,-116 1039.49,-47.3438 1058.8,-21.5977"/>
</g>
<!-- v24 -->
<g id="v24_GPS(4)" class="node"><title>v24</title>
<ellipse fill="none" stroke="black" cx="1160" cy="-11" rx="29" ry="11"/>
<text text-anchor="middle" x="1160" y="-8.8" font-family="sans-serif" font-size="9.00">GPS(4)</text>
</g>
<!-- e4&#45;&gt;v24 -->
<g id="edge48" class="edge"><title>e4&#45;&gt;v24</title>
<path fill="none" stroke="green" d="M988,-116C988,-116 1028.43,-80.3306 1065,-58 1090.49,-42.4321 1122.04,-28.04 1141.59,-19.6379"/>
</g>
<!-- v0&#45;&gt;v1 -->
<g id="edge12" class="edge"><title>v0&#45;&gt;v1</title>
<path fill="none" stroke="black" d="M713.12,-58.7527C700.023,-49.3496 679.652,-34.7243 665.185,-24.3378"/>
<polygon fill="black" stroke="black" points="660.899,-21.261 666.273,-22.3493 662.93,-22.719 664.961,-24.1771 664.961,-24.1771 664.961,-24.1771 662.93,-22.719 663.649,-26.0048 660.899,-21.261 660.899,-21.261"/>
</g>
<!-- v0&#45;&gt;v2 -->
<g id="edge32" class="edge"><title>v0&#45;&gt;v2</title>
<path fill="none" stroke="green" d="M711.562,-78.9418C700.683,-85.8006 685.105,-94.3208 670,-98 614.295,-111.568 597.56,-107.383 541,-98 517.466,-94.0958 491.701,-84.4997 474.778,-77.4099"/>
</g>
<!-- v0&#45;&gt;v22 -->
<g id="edge13" class="edge"><title>v0&#45;&gt;v22</title>
<path fill="none" stroke="black" d="M726.358,-57.9883C726.661,-49.4941 727.101,-37.1697 727.449,-27.4169"/>
<polygon fill="black" stroke="black" points="727.632,-22.3039 729.702,-27.381 727.543,-24.8023 727.453,-27.3007 727.453,-27.3007 727.453,-27.3007 727.543,-24.8023 725.205,-27.2203 727.632,-22.3039 727.632,-22.3039"/>
</g>
<!-- v2&#45;&gt;v3 -->
<g id="edge14" class="edge"><title>v2&#45;&gt;v3</title>
<path fill="none" stroke="black" d="M439.093,-59.9766C417.556,-49.7556 380.405,-32.1243 357.636,-21.3188"/>
<polygon fill="black" stroke="black" points="353.007,-19.1217 358.488,-19.2328 355.265,-20.1936 357.524,-21.2655 357.524,-21.2655 357.524,-21.2655 355.265,-20.1936 356.559,-23.2982 353.007,-19.1217 353.007,-19.1217"/>
</g>
<!-- v2&#45;&gt;v16 -->
<g id="edge15" class="edge"><title>v2&#45;&gt;v16</title>
<path fill="none" stroke="black" d="M450.458,-57.9883C445.609,-49.2286 438.505,-36.3956 433.032,-26.5103"/>
<polygon fill="black" stroke="black" points="430.494,-21.925 434.884,-25.2097 431.705,-24.1122 432.916,-26.2995 432.916,-26.2995 432.916,-26.2995 431.705,-24.1122 430.947,-27.3892 430.494,-21.925 430.494,-21.925"/>
</g>
<!-- v5&#45;&gt;v8 -->
<g id="edge16" class="edge"><title>v5&#45;&gt;v8</title>
<path fill="none" stroke="black" d="M236.967,-57.9883C238.635,-49.4941 241.056,-37.1697 242.972,-27.4169"/>
<polygon fill="black" stroke="black" points="243.976,-22.3039 245.22,-27.6438 243.494,-24.757 243.012,-27.2101 243.012,-27.2101 243.012,-27.2101 243.494,-24.757 240.804,-26.7764 243.976,-22.3039 243.976,-22.3039"/>
</g>
<!-- v5&#45;&gt;v9 -->
<g id="edge17" class="edge"><title>v5&#45;&gt;v9</title>
<path fill="none" stroke="black" d="M219.673,-61.1333C197.548,-51.2214 156.568,-32.8624 131.449,-21.6093"/>
<polygon fill="black" stroke="black" points="126.647,-19.4581 132.13,-19.449 128.929,-20.4802 131.211,-21.5024 131.211,-21.5024 131.211,-21.5024 128.929,-20.4802 130.291,-23.5557 126.647,-19.4581 126.647,-19.4581"/>
</g>
<!-- v5&#45;&gt;v10 -->
<g id="edge18" class="edge"><title>v5&#45;&gt;v10</title>
<path fill="none" stroke="black" d="M225.842,-59.0026C216.537,-49.8606 202.023,-35.6014 191.42,-25.1846"/>
<polygon fill="black" stroke="black" points="187.708,-21.5373 192.851,-23.4364 189.491,-23.2894 191.274,-25.0414 191.274,-25.0414 191.274,-25.0414 189.491,-23.2894 189.697,-26.6465 187.708,-21.5373 187.708,-21.5373"/>
</g>
<!-- v6&#45;&gt;v8 -->
<g id="edge19" class="edge"><title>v6&#45;&gt;v8</title>
<path fill="none" stroke="black" d="M128.779,-61.3562C152.488,-51.3736 197.373,-32.4747 224.195,-21.1809"/>
<polygon fill="black" stroke="black" points="228.984,-19.1645 225.249,-23.1785 226.68,-20.1346 224.376,-21.1048 224.376,-21.1048 224.376,-21.1048 226.68,-20.1346 223.503,-19.0311 228.984,-19.1645 228.984,-19.1645"/>
</g>
<!-- v6&#45;&gt;v9 -->
<g id="edge20" class="edge"><title>v6&#45;&gt;v9</title>
<path fill="none" stroke="black" d="M112.464,-57.9883C112.009,-49.4941 111.348,-37.1697 110.826,-27.4169"/>
<polygon fill="black" stroke="black" points="110.552,-22.3039 113.066,-27.1763 110.686,-24.8003 110.82,-27.2967 110.82,-27.2967 110.82,-27.2967 110.686,-24.8003 108.573,-27.4171 110.552,-22.3039 110.552,-22.3039"/>
</g>
<!-- v6&#45;&gt;v10 -->
<g id="edge21" class="edge"><title>v6&#45;&gt;v10</title>
<path fill="none" stroke="black" d="M123.156,-59.25C133.935,-49.9638 151.069,-35.2025 163.316,-24.6504"/>
<polygon fill="black" stroke="black" points="167.267,-21.2473 164.947,-26.2155 165.373,-22.8791 163.479,-24.5108 163.479,-24.5108 163.479,-24.5108 165.373,-22.8791 162.01,-22.8062 167.267,-21.2473 167.267,-21.2473"/>
</g>
<!-- v7&#45;&gt;v8 -->
<g id="edge22" class="edge"><title>v7&#45;&gt;v8</title>
<path fill="none" stroke="black" d="M184.935,-59.4948C197.057,-50.067 216.705,-34.7854 230.43,-24.1101"/>
<polygon fill="black" stroke="black" points="234.484,-20.9566 231.919,-25.8024 232.511,-22.4915 230.538,-24.0264 230.538,-24.0264 230.538,-24.0264 232.511,-22.4915 229.156,-22.2503 234.484,-20.9566 234.484,-20.9566"/>
</g>
<!-- v7&#45;&gt;v9 -->
<g id="edge23" class="edge"><title>v7&#45;&gt;v9</title>
<path fill="none" stroke="black" d="M164,-59.25C153.387,-49.9638 136.517,-35.2025 124.458,-24.6504"/>
<polygon fill="black" stroke="black" points="120.568,-21.2473 125.813,-22.8465 122.45,-22.8935 124.331,-24.5398 124.331,-24.5398 124.331,-24.5398 122.45,-22.8935 122.85,-26.2331 120.568,-21.2473 120.568,-21.2473"/>
</g>
<!-- v7&#45;&gt;v10 -->
<g id="edge24" class="edge"><title>v7&#45;&gt;v10</title>
<path fill="none" stroke="black" d="M174.715,-57.9883C175.322,-49.4941 176.202,-37.1697 176.899,-27.4169"/>
<polygon fill="black" stroke="black" points="177.264,-22.3039 179.152,-27.4515 177.086,-24.7975 176.908,-27.2912 176.908,-27.2912 176.908,-27.2912 177.086,-24.7975 174.663,-27.1308 177.264,-22.3039 177.264,-22.3039"/>
</g>
<!-- v11&#45;&gt;v12 -->
<g id="edge25" class="edge"><title>v11&#45;&gt;v12</title>
<path fill="none" stroke="black" d="M927.125,-58.5004C933.842,-49.5445 943.987,-36.018 951.606,-25.859"/>
<polygon fill="black" stroke="black" points="954.699,-21.7345 953.499,-27.0845 953.199,-23.7345 951.699,-25.7345 951.699,-25.7345 951.699,-25.7345 953.199,-23.7345 949.899,-24.3845 954.699,-21.7345 954.699,-21.7345"/>
</g>
<!-- v13&#45;&gt;v14 -->
<g id="edge26" class="edge"><title>v13&#45;&gt;v14</title>
<path fill="none" stroke="black" d="M558.276,-58.7527C546.244,-49.2632 527.47,-34.4551 514.281,-24.0526"/>
<polygon fill="black" stroke="black" points="510.04,-20.7077 515.359,-22.0376 512.003,-22.256 513.966,-23.8042 513.966,-23.8042 513.966,-23.8042 512.003,-22.256 512.573,-25.5708 510.04,-20.7077 510.04,-20.7077"/>
</g>
<!-- v15 -->
<g id="v15_Impala" class="node"><title>v15</title>
<ellipse fill="none" stroke="black" cx="568" cy="-11" rx="29" ry="11"/>
<text text-anchor="middle" x="568" y="-8.8" font-family="sans-serif" font-size="9.00">Impala</text>
</g>
<!-- v13&#45;&gt;v15 -->
<g id="edge27" class="edge"><title>v13&#45;&gt;v15</title>
<path fill="none" stroke="black" d="M569.642,-57.9883C569.339,-49.4941 568.899,-37.1697 568.551,-27.4169"/>
<polygon fill="black" stroke="black" points="568.368,-22.3039 570.795,-27.2203 568.457,-24.8023 568.547,-27.3007 568.547,-27.3007 568.547,-27.3007 568.457,-24.8023 566.298,-27.381 568.368,-22.3039 568.368,-22.3039"/>
</g>
<!-- v13&#45;&gt;v19 -->
<g id="edge49" class="edge"><title>v13&#45;&gt;v19</title>
<path fill="none" stroke="green" d="M590.782,-76.736C630.409,-90.3867 719.302,-115.707 792,-98 807.105,-94.3208 822.683,-85.8006 833.562,-78.9418"/>
</g>
<!-- v21 -->
<g id="v21_GPS(0)" class="node"><title>v21</title>
<ellipse fill="none" stroke="black" cx="880" cy="-11" rx="29" ry="11"/>
<text text-anchor="middle" x="880" y="-8.8" font-family="sans-serif" font-size="9.00">GPS(0)</text>
</g>
<!-- v15&#45;&gt;v21 -->
<g id="edge50" class="edge"><title>v15&#45;&gt;v21</title>
<path fill="none" stroke="green" d="M580.251,-21.2104C589.241,-28.007 602.086,-36.3366 615,-40 661.605,-53.2212 786.395,-53.2212 833,-40 845.914,-36.3366 858.759,-28.007 867.749,-21.2104"/>
</g>
<!-- v17&#45;&gt;v18 -->
<g id="edge28" class="edge"><title>v17&#45;&gt;v18</title>
<path fill="none" stroke="black" d="M1096.56,-58.2455C1090.67,-49.3322 1081.89,-36.0497 1075.25,-26.0035"/>
<polygon fill="black" stroke="black" points="1072.37,-21.6427 1077,-24.574 1073.75,-23.7285 1075.13,-25.8144 1075.13,-25.8144 1075.13,-25.8144 1073.75,-23.7285 1073.25,-27.0547 1072.37,-21.6427 1072.37,-21.6427"/>
</g>
<!-- v17&#45;&gt;v23 -->
<g id="edge51" class="edge"><title>v17&#45;&gt;v23</title>
<path fill="none" stroke="green" d="M1132.06,-69C1138.16,-69 1144.27,-69 1150.37,-69"/>
</g>
<!-- v19&#45;&gt;v20 -->
<g id="edge29" class="edge"><title>v19&#45;&gt;v20</title>
<path fill="none" stroke="black" d="M840.336,-58.2455C833.269,-49.2519 822.708,-35.8101 814.79,-25.7327"/>
<polygon fill="black" stroke="black" points="811.576,-21.6427 816.435,-24.1842 813.121,-23.6085 814.666,-25.5743 814.666,-25.5743 814.666,-25.5743 813.121,-23.6085 812.896,-26.9644 811.576,-21.6427 811.576,-21.6427"/>
</g>
<!-- v19&#45;&gt;v21 -->
<g id="edge30" class="edge"><title>v19&#45;&gt;v21</title>
<path fill="none" stroke="black" d="M853.721,-57.9883C858.726,-49.2286 866.06,-36.3956 871.708,-26.5103"/>
<polygon fill="black" stroke="black" points="874.329,-21.925 873.801,-27.3826 873.088,-24.0956 871.848,-26.2662 871.848,-26.2662 871.848,-26.2662 873.088,-24.0956 869.894,-25.1499 874.329,-21.925 874.329,-21.925"/>
</g>
<!-- v23&#45;&gt;v24 -->
<g id="edge31" class="edge"><title>v23&#45;&gt;v24</title>
<path fill="none" stroke="black" d="M1178.89,-57.9883C1175.32,-49.3083 1170.12,-36.6286 1166.07,-26.7806"/>
<polygon fill="black" stroke="black" points="1164.08,-21.925 1168.06,-25.6953 1165.03,-24.2376 1165.98,-26.5501 1165.98,-26.5501 1165.98,-26.5501 1165.03,-24.2376 1163.89,-27.405 1164.08,-21.925 1164.08,-21.925"/>
</g>
</g>
</svg>
