<?xml version="1.0" encoding="UTF-8" standalone="no"?>
<?xml-stylesheet href="style.css" type="text/css"?>
<!DOCTYPE svg PUBLIC "-//W3C//DTD SVG 1.1//EN"
 "http://www.w3.org/Graphics/SVG/1.1/DTD/svg11.dtd">
<!-- Generated by graphviz version 2.38.0 (20140413.2041)
 -->
<!-- Title: 62.svg Pages: 1 -->
<svg width="1291pt" height="179pt"
 viewBox="0.00 0.00 1291.00 179.00" xmlns="http://www.w3.org/2000/svg" xmlns:xlink="http://www.w3.org/1999/xlink">
<g id="graph0" class="graph" transform="scale(1 1) rotate(0) translate(4 175)">
<title>62.svg</title>
<polygon fill="white" stroke="none" points="-4,4 -4,-175 1287,-175 1287,4 -4,4"/>
<!-- r0 -->
<g id="node1" class="node"><title>r0</title>
<polygon fill="none" stroke="black" stroke-dasharray="5,2" points="209.5,-171 186.5,-171 186.5,-153 209.5,-153 209.5,-171"/>
<text text-anchor="middle" x="198" y="-159.8" font-family="serif" font-size="9.00">0</text>
</g>
<!-- v4 -->
<g id="v4_Aura" class="node"><title>v4</title>
<ellipse fill="none" stroke="black" cx="137" cy="-69" rx="21.5" ry="11"/>
<text text-anchor="middle" x="137" y="-66.8" font-family="sans-serif" font-size="9.00">Aura</text>
</g>
<!-- r0&#45;&gt;v4 -->
<g id="edge1" class="edge"><title>r0&#45;&gt;v4</title>
<path fill="none" stroke="black" d="M192.587,-152.924C182.211,-137.446 159.407,-103.427 146.463,-84.1163"/>
<polygon fill="black" stroke="black" points="143.398,-79.5439 148.051,-82.4443 144.79,-81.6205 146.182,-83.6971 146.182,-83.6971 146.182,-83.6971 144.79,-81.6205 144.313,-84.9499 143.398,-79.5439 143.398,-79.5439"/>
</g>
<!-- v5 -->
<g id="v5_Aura" class="node"><title>v5</title>
<ellipse fill="none" stroke="black" cx="259" cy="-69" rx="21.5" ry="11"/>
<text text-anchor="middle" x="259" y="-66.8" font-family="sans-serif" font-size="9.00">Aura</text>
</g>
<!-- r0&#45;&gt;v5 -->
<g id="edge2" class="edge"><title>r0&#45;&gt;v5</title>
<path fill="none" stroke="black" d="M206.555,-152.836C215.037,-144.423 228.029,-130.648 237,-117 243.658,-106.871 249.395,-94.406 253.339,-84.8588"/>
<polygon fill="black" stroke="black" points="255.234,-80.16 255.451,-85.6387 254.299,-82.4786 253.364,-84.7972 253.364,-84.7972 253.364,-84.7972 254.299,-82.4786 251.277,-83.9558 255.234,-80.16 255.234,-80.16"/>
</g>
<!-- v6 -->
<g id="v6_Aura" class="node"><title>v6</title>
<ellipse fill="none" stroke="black" cx="198" cy="-69" rx="21.5" ry="11"/>
<text text-anchor="middle" x="198" y="-66.8" font-family="sans-serif" font-size="9.00">Aura</text>
</g>
<!-- r0&#45;&gt;v6 -->
<g id="edge3" class="edge"><title>r0&#45;&gt;v6</title>
<path fill="none" stroke="black" d="M198,-152.924C198,-137.736 198,-104.696 198,-85.2178"/>
<polygon fill="black" stroke="black" points="198,-80.1095 200.25,-85.1095 198,-82.6095 198,-85.1095 198,-85.1095 198,-85.1095 198,-82.6095 195.75,-85.1096 198,-80.1095 198,-80.1095"/>
</g>
<!-- v11 -->
<g id="v11_Field" class="node"><title>v11</title>
<ellipse fill="none" stroke="black" cx="25" cy="-11" rx="25" ry="11"/>
<text text-anchor="middle" x="25" y="-8.8" font-family="sans-serif" font-size="9.00">Field</text>
</g>
<!-- r0&#45;&gt;v11 -->
<g id="edge4" class="edge"><title>r0&#45;&gt;v11</title>
<path fill="none" stroke="black" d="M187.013,-152.807C168.026,-138.533 128.031,-107.951 96,-80 75.0764,-61.7416 52.0697,-39.2242 38.0796,-25.2367"/>
<polygon fill="black" stroke="black" points="34.382,-21.5283 39.5058,-23.4803 36.1472,-23.2986 37.9125,-25.069 37.9125,-25.069 37.9125,-25.069 36.1472,-23.2986 36.3191,-26.6577 34.382,-21.5283 34.382,-21.5283"/>
</g>
<!-- v14 -->
<g id="v14_Aura" class="node"><title>v14</title>
<ellipse fill="none" stroke="black" cx="1071" cy="-69" rx="21.5" ry="11"/>
<text text-anchor="middle" x="1071" y="-66.8" font-family="sans-serif" font-size="9.00">Aura</text>
</g>
<!-- r0&#45;&gt;v14 -->
<g id="edge5" class="edge"><title>r0&#45;&gt;v14</title>
<path fill="none" stroke="black" d="M209.53,-160.826C284.104,-159.509 705.639,-149.162 1040,-80 1043.13,-79.3535 1046.38,-78.5061 1049.55,-77.5776"/>
<polygon fill="black" stroke="black" points="1054.45,-76.0694 1050.33,-79.6927 1052.06,-76.806 1049.67,-77.5426 1049.67,-77.5426 1049.67,-77.5426 1052.06,-76.806 1049,-75.3925 1054.45,-76.0694 1054.45,-76.0694"/>
</g>
<!-- r1 -->
<g id="node2" class="node"><title>r1</title>
<polygon fill="none" stroke="black" stroke-dasharray="5,2" points="930.5,-171 907.5,-171 907.5,-153 930.5,-153 930.5,-171"/>
<text text-anchor="middle" x="919" y="-159.8" font-family="serif" font-size="9.00">1</text>
</g>
<!-- v2 -->
<g id="v2_Locale" class="node"><title>v2</title>
<ellipse fill="none" stroke="black" cx="919" cy="-69" rx="29" ry="11"/>
<text text-anchor="middle" x="919" y="-66.8" font-family="sans-serif" font-size="9.00">Locale</text>
</g>
<!-- r1&#45;&gt;v2 -->
<g id="edge6" class="edge"><title>r1&#45;&gt;v2</title>
<path fill="none" stroke="black" d="M919,-152.924C919,-137.736 919,-104.696 919,-85.2178"/>
<polygon fill="black" stroke="black" points="919,-80.1095 921.25,-85.1095 919,-82.6095 919,-85.1095 919,-85.1095 919,-85.1095 919,-82.6095 916.75,-85.1096 919,-80.1095 919,-80.1095"/>
</g>
<!-- v8 -->
<g id="v8_Localeattack" class="node"><title>v8</title>
<ellipse fill="none" stroke="black" cx="707" cy="-69" rx="50.5" ry="11"/>
<text text-anchor="middle" x="707" y="-66.8" font-family="sans-serif" font-size="9.00">Localeattack</text>
</g>
<!-- r1&#45;&gt;v8 -->
<g id="edge7" class="edge"><title>r1&#45;&gt;v8</title>
<path fill="none" stroke="black" d="M907.3,-155.978C874.218,-141.778 779.405,-101.079 733.091,-81.1994"/>
<polygon fill="black" stroke="black" points="728.227,-79.1115 733.709,-79.0162 730.524,-80.0977 732.821,-81.0838 732.821,-81.0838 732.821,-81.0838 730.524,-80.0977 731.934,-83.1514 728.227,-79.1115 728.227,-79.1115"/>
</g>
<!-- v17 -->
<g id="v17_Locale" class="node"><title>v17</title>
<ellipse fill="none" stroke="black" cx="1254" cy="-69" rx="29" ry="11"/>
<text text-anchor="middle" x="1254" y="-66.8" font-family="sans-serif" font-size="9.00">Locale</text>
</g>
<!-- r1&#45;&gt;v17 -->
<g id="edge8" class="edge"><title>r1&#45;&gt;v17</title>
<path fill="none" stroke="black" d="M930.777,-159.753C965.181,-155.9 1068.26,-142.854 1150,-117 1180.26,-107.43 1213.36,-91.4384 1233.91,-80.8059"/>
<polygon fill="black" stroke="black" points="1238.6,-78.3581 1235.21,-82.6659 1236.38,-79.5146 1234.17,-80.6711 1234.17,-80.6711 1234.17,-80.6711 1236.38,-79.5146 1233.12,-78.6763 1238.6,-78.3581 1238.6,-78.3581"/>
</g>
<!-- r2 -->
<g id="node3" class="node"><title>r2</title>
<polygon fill="none" stroke="black" stroke-dasharray="5,2" points="617.5,-171 594.5,-171 594.5,-153 617.5,-153 617.5,-171"/>
<text text-anchor="middle" x="606" y="-159.8" font-family="serif" font-size="9.00">2</text>
</g>
<!-- v0 -->
<g id="v0_Area(1)" class="node"><title>v0</title>
<ellipse fill="none" stroke="black" cx="606" cy="-69" rx="32.5" ry="11"/>
<text text-anchor="middle" x="606" y="-66.8" font-family="sans-serif" font-size="9.00">Area(1)</text>
</g>
<!-- r2&#45;&gt;v0 -->
<g id="edge9" class="edge"><title>r2&#45;&gt;v0</title>
<path fill="none" stroke="black" d="M606,-152.924C606,-137.736 606,-104.696 606,-85.2178"/>
<polygon fill="black" stroke="black" points="606,-80.1095 608.25,-85.1095 606,-82.6095 606,-85.1095 606,-85.1095 606,-85.1095 606,-82.6095 603.75,-85.1096 606,-80.1095 606,-80.1095"/>
</g>
<!-- v19 -->
<g id="v19_Area(0)" class="node"><title>v19</title>
<ellipse fill="none" stroke="black" cx="446" cy="-69" rx="32.5" ry="11"/>
<text text-anchor="middle" x="446" y="-66.8" font-family="sans-serif" font-size="9.00">Area(0)</text>
</g>
<!-- r2&#45;&gt;v19 -->
<g id="edge10" class="edge"><title>r2&#45;&gt;v19</title>
<path fill="none" stroke="black" d="M594.388,-155.715C577.339,-147.839 544.667,-132.303 518,-117 498.757,-105.957 477.59,-91.8949 463.218,-82.0411"/>
<polygon fill="black" stroke="black" points="458.986,-79.1262 464.38,-80.1093 461.045,-80.5443 463.104,-81.9623 463.104,-81.9623 463.104,-81.9623 461.045,-80.5443 461.828,-83.8154 458.986,-79.1262 458.986,-79.1262"/>
</g>
<!-- v23 -->
<g id="v23_Area(2)" class="node"><title>v23</title>
<ellipse fill="none" stroke="black" cx="999" cy="-69" rx="32.5" ry="11"/>
<text text-anchor="middle" x="999" y="-66.8" font-family="sans-serif" font-size="9.00">Area(2)</text>
</g>
<!-- r2&#45;&gt;v23 -->
<g id="edge11" class="edge"><title>r2&#45;&gt;v23</title>
<path fill="none" stroke="black" d="M617.52,-158.372C661.584,-148.314 823.655,-111.26 957,-80 960.797,-79.1099 964.786,-78.1685 968.731,-77.2334"/>
<polygon fill="black" stroke="black" points="973.688,-76.0568 969.343,-79.4008 971.255,-76.6342 968.823,-77.2117 968.823,-77.2117 968.823,-77.2117 971.255,-76.6342 968.303,-75.0225 973.688,-76.0568 973.688,-76.0568"/>
</g>
<!-- e1 -->
<g id="node4" class="node"><title>e1</title>
</g>
<!-- v1 -->
<g id="v1_GPS(10)" class="node"><title>v1</title>
<ellipse fill="none" stroke="black" cx="605" cy="-11" rx="32.5" ry="11"/>
<text text-anchor="middle" x="605" y="-8.8" font-family="sans-serif" font-size="9.00">GPS(10)</text>
</g>
<!-- e1&#45;&gt;v1 -->
<g id="edge33" class="edge"><title>e1&#45;&gt;v1</title>
<path fill="none" stroke="green" d="M528,-116C528,-116 545.839,-82.3037 564,-58 573.862,-44.8028 586.695,-30.8372 595.357,-21.8033"/>
</g>
<!-- v3 -->
<g id="v3_Lion" class="node"><title>v3</title>
<ellipse fill="none" stroke="black" cx="858" cy="-11" rx="21.5" ry="11"/>
<text text-anchor="middle" x="858" y="-8.8" font-family="sans-serif" font-size="9.00">Lion</text>
</g>
<!-- e1&#45;&gt;v3 -->
<g id="edge34" class="edge"><title>e1&#45;&gt;v3</title>
<path fill="none" stroke="green" d="M528,-116C528,-116 716.594,-100.5 766,-80 800.122,-65.8417 833.227,-36.3604 848.779,-21.2965"/>
</g>
<!-- e1&#45;&gt;v6 -->
<g id="edge35" class="edge"><title>e1&#45;&gt;v6</title>
<path fill="none" stroke="green" d="M528,-116C528,-116 359.036,-109.383 228,-80 223.607,-79.015 218.951,-77.635 214.65,-76.2141"/>
</g>
<!-- v13 -->
<g id="v13_Child" class="node"><title>v13</title>
<ellipse fill="none" stroke="black" cx="205" cy="-11" rx="25" ry="11"/>
<text text-anchor="middle" x="205" y="-8.8" font-family="sans-serif" font-size="9.00">Child</text>
</g>
<!-- e1&#45;&gt;v13 -->
<g id="edge36" class="edge"><title>e1&#45;&gt;v13</title>
<path fill="none" stroke="green" d="M528,-116C528,-116 433.269,-103.285 361,-80 307.57,-62.7852 247.519,-33.6664 220.106,-19.7962"/>
</g>
<!-- e2 -->
<g id="node5" class="node"><title>e2</title>
</g>
<!-- e2&#45;&gt;v4 -->
<g id="edge37" class="edge"><title>e2&#45;&gt;v4</title>
<path fill="none" stroke="green" d="M228,-116C228,-116 177.344,-90.3938 151.621,-77.3907"/>
</g>
<!-- v7 -->
<g id="v7_Childattack" class="node"><title>v7</title>
<ellipse fill="none" stroke="black" cx="115" cy="-11" rx="47" ry="11"/>
<text text-anchor="middle" x="115" y="-8.8" font-family="sans-serif" font-size="9.00">Childattack</text>
</g>
<!-- e2&#45;&gt;v7 -->
<g id="edge38" class="edge"><title>e2&#45;&gt;v7</title>
<path fill="none" stroke="green" d="M228,-116C228,-116 122.925,-102.64 106,-80 93.3084,-63.0223 102.617,-36.779 109.468,-22.3631"/>
</g>
<!-- v9 -->
<g id="v9_Lionattack" class="node"><title>v9</title>
<ellipse fill="none" stroke="black" cx="511" cy="-11" rx="43" ry="11"/>
<text text-anchor="middle" x="511" y="-8.8" font-family="sans-serif" font-size="9.00">Lionattack</text>
</g>
<!-- e2&#45;&gt;v9 -->
<g id="edge39" class="edge"><title>e2&#45;&gt;v9</title>
<path fill="none" stroke="green" d="M228,-116C228,-116 441.992,-116.755 487,-80 504.648,-65.5879 509.333,-37.2986 510.567,-22.1481"/>
</g>
<!-- v20 -->
<g id="v20_GPS(1)" class="node"><title>v20</title>
<ellipse fill="none" stroke="black" cx="345" cy="-11" rx="29" ry="11"/>
<text text-anchor="middle" x="345" y="-8.8" font-family="sans-serif" font-size="9.00">GPS(1)</text>
</g>
<!-- e2&#45;&gt;v20 -->
<g id="edge40" class="edge"><title>e2&#45;&gt;v20</title>
<path fill="none" stroke="green" d="M228,-116C228,-116 265.076,-100.461 289,-80 309.689,-62.3068 328.681,-36.343 338.334,-22.1638"/>
</g>
<!-- e3 -->
<g id="node6" class="node"><title>e3</title>
</g>
<!-- e3&#45;&gt;v5 -->
<g id="edge41" class="edge"><title>e3&#45;&gt;v5</title>
<path fill="none" stroke="green" d="M553,-116C553,-116 345.631,-83.5545 279.208,-73.1618"/>
</g>
<!-- v12 -->
<g id="v12_Child" class="node"><title>v12</title>
<ellipse fill="none" stroke="black" cx="273" cy="-11" rx="25" ry="11"/>
<text text-anchor="middle" x="273" y="-8.8" font-family="sans-serif" font-size="9.00">Child</text>
</g>
<!-- e3&#45;&gt;v12 -->
<g id="edge42" class="edge"><title>e3&#45;&gt;v12</title>
<path fill="none" stroke="green" d="M553,-116C553,-116 467.81,-103.868 404,-80 400.985,-78.8722 321.947,-37.5954 288.124,-19.9114"/>
</g>
<!-- v16 -->
<g id="v16_Lion" class="node"><title>v16</title>
<ellipse fill="none" stroke="black" cx="919" cy="-11" rx="21.5" ry="11"/>
<text text-anchor="middle" x="919" y="-8.8" font-family="sans-serif" font-size="9.00">Lion</text>
</g>
<!-- e3&#45;&gt;v16 -->
<g id="edge43" class="edge"><title>e3&#45;&gt;v16</title>
<path fill="none" stroke="green" d="M553,-116C553,-116 684.448,-111.51 783,-80 831.025,-64.6451 883.093,-34.35 906.438,-19.9557"/>
</g>
<!-- v22 -->
<g id="v22_GPS(2)" class="node"><title>v22</title>
<ellipse fill="none" stroke="black" cx="685" cy="-11" rx="29" ry="11"/>
<text text-anchor="middle" x="685" y="-8.8" font-family="sans-serif" font-size="9.00">GPS(2)</text>
</g>
<!-- e3&#45;&gt;v22 -->
<g id="edge44" class="edge"><title>e3&#45;&gt;v22</title>
<path fill="none" stroke="green" d="M553,-116C553,-116 735.013,-116.664 766,-80 787.808,-54.1971 736.422,-30.357 705.793,-18.9879"/>
</g>
<!-- e7 -->
<g id="node7" class="node"><title>e7</title>
</g>
<!-- e7&#45;&gt;v14 -->
<g id="edge48" class="edge"><title>e7&#45;&gt;v14</title>
<path fill="none" stroke="green" d="M1140,-116C1140,-116 1103.18,-91.4551 1083.34,-78.2239"/>
</g>
<!-- v15 -->
<g id="v15_Child" class="node"><title>v15</title>
<ellipse fill="none" stroke="black" cx="1138" cy="-11" rx="25" ry="11"/>
<text text-anchor="middle" x="1138" y="-8.8" font-family="sans-serif" font-size="9.00">Child</text>
</g>
<!-- e7&#45;&gt;v15 -->
<g id="edge49" class="edge"><title>e7&#45;&gt;v15</title>
<path fill="none" stroke="green" d="M1140,-116C1140,-116 1138.7,-48.6577 1138.2,-22.3521"/>
</g>
<!-- v18 -->
<g id="v18_Lion" class="node"><title>v18</title>
<ellipse fill="none" stroke="black" cx="1218" cy="-11" rx="21.5" ry="11"/>
<text text-anchor="middle" x="1218" y="-8.8" font-family="sans-serif" font-size="9.00">Lion</text>
</g>
<!-- e7&#45;&gt;v18 -->
<g id="edge50" class="edge"><title>e7&#45;&gt;v18</title>
<path fill="none" stroke="green" d="M1140,-116C1140,-116 1191.49,-47.3438 1210.8,-21.5977"/>
</g>
<!-- v24 -->
<g id="v24_GPS(4)" class="node"><title>v24</title>
<ellipse fill="none" stroke="black" cx="1036" cy="-11" rx="29" ry="11"/>
<text text-anchor="middle" x="1036" y="-8.8" font-family="sans-serif" font-size="9.00">GPS(4)</text>
</g>
<!-- e7&#45;&gt;v24 -->
<g id="edge51" class="edge"><title>e7&#45;&gt;v24</title>
<path fill="none" stroke="green" d="M1140,-116C1140,-116 1122.7,-80.2261 1101,-58 1085.93,-42.569 1065.09,-28.863 1051.11,-20.5097"/>
</g>
<!-- v0&#45;&gt;v1 -->
<g id="edge12" class="edge"><title>v0&#45;&gt;v1</title>
<path fill="none" stroke="black" d="M605.821,-57.9883C605.67,-49.4941 605.449,-37.1697 605.275,-27.4169"/>
<polygon fill="black" stroke="black" points="605.184,-22.3039 607.523,-27.2629 605.229,-24.8035 605.273,-27.3031 605.273,-27.3031 605.273,-27.3031 605.229,-24.8035 603.024,-27.3433 605.184,-22.3039 605.184,-22.3039"/>
</g>
<!-- v0&#45;&gt;v2 -->
<g id="edge32" class="edge"><title>v0&#45;&gt;v2</title>
<path fill="none" stroke="green" d="M619.138,-79.2189C628.752,-86.0195 642.433,-94.3504 656,-98 746.558,-122.361 776.24,-121.597 867,-98 881.206,-94.3065 895.651,-85.7878 905.7,-78.9333"/>
</g>
<!-- v0&#45;&gt;v22 -->
<g id="edge13" class="edge"><title>v0&#45;&gt;v22</title>
<path fill="none" stroke="black" d="M619.045,-58.7527C632.39,-49.2933 653.19,-34.549 667.857,-24.1517"/>
<polygon fill="black" stroke="black" points="672.197,-21.0752 669.42,-25.8024 670.158,-22.521 668.118,-23.9667 668.118,-23.9667 668.118,-23.9667 670.158,-22.521 666.817,-22.1311 672.197,-21.0752 672.197,-21.0752"/>
</g>
<!-- v2&#45;&gt;v3 -->
<g id="edge14" class="edge"><title>v2&#45;&gt;v3</title>
<path fill="none" stroke="black" d="M908.652,-58.5004C898.48,-49.1622 882.896,-34.8549 871.7,-24.5772"/>
<polygon fill="black" stroke="black" points="867.792,-20.9896 872.997,-22.7135 869.634,-22.6803 871.476,-24.371 871.476,-24.371 871.476,-24.371 869.634,-22.6803 869.954,-26.0285 867.792,-20.9896 867.792,-20.9896"/>
</g>
<!-- v2&#45;&gt;v16 -->
<g id="edge15" class="edge"><title>v2&#45;&gt;v16</title>
<path fill="none" stroke="black" d="M919,-57.9883C919,-49.4941 919,-37.1697 919,-27.4169"/>
<polygon fill="black" stroke="black" points="919,-22.3039 921.25,-27.3038 919,-24.8039 919,-27.3039 919,-27.3039 919,-27.3039 919,-24.8039 916.75,-27.3039 919,-22.3039 919,-22.3039"/>
</g>
<!-- v4&#45;&gt;v7 -->
<g id="edge16" class="edge"><title>v4&#45;&gt;v7</title>
<path fill="none" stroke="black" d="M133.067,-57.9883C129.699,-49.4154 124.798,-36.9411 120.95,-27.1466"/>
<polygon fill="black" stroke="black" points="119.048,-22.3039 122.97,-26.1349 119.962,-24.6308 120.876,-26.9576 120.876,-26.9576 120.876,-26.9576 119.962,-24.6308 118.782,-27.7804 119.048,-22.3039 119.048,-22.3039"/>
</g>
<!-- v4&#45;&gt;v12 -->
<g id="edge17" class="edge"><title>v4&#45;&gt;v12</title>
<path fill="none" stroke="black" d="M152.867,-61.4665C177.01,-51.5254 223.063,-32.5622 250.604,-21.2219"/>
<polygon fill="black" stroke="black" points="255.522,-19.197 251.755,-23.1813 253.21,-20.1489 250.898,-21.1008 250.898,-21.1008 250.898,-21.1008 253.21,-20.1489 250.041,-19.0203 255.522,-19.197 255.522,-19.197"/>
</g>
<!-- v4&#45;&gt;v13 -->
<g id="edge18" class="edge"><title>v4&#45;&gt;v13</title>
<path fill="none" stroke="black" d="M147.625,-59.25C158.901,-49.9638 176.826,-35.2025 189.639,-24.6504"/>
<polygon fill="black" stroke="black" points="193.771,-21.2473 191.342,-26.1627 191.841,-22.8365 189.912,-24.4258 189.912,-24.4258 189.912,-24.4258 191.841,-22.8365 188.481,-22.689 193.771,-21.2473 193.771,-21.2473"/>
</g>
<!-- v5&#45;&gt;v7 -->
<g id="edge19" class="edge"><title>v5&#45;&gt;v7</title>
<path fill="none" stroke="black" d="M242.761,-61.6849C218.425,-52.2209 172.19,-34.2406 142.521,-22.7027"/>
<polygon fill="black" stroke="black" points="137.546,-20.7678 143.021,-20.4831 139.876,-21.6739 142.206,-22.5801 142.206,-22.5801 142.206,-22.5801 139.876,-21.6739 141.39,-24.6771 137.546,-20.7678 137.546,-20.7678"/>
</g>
<!-- v5&#45;&gt;v12 -->
<g id="edge20" class="edge"><title>v5&#45;&gt;v12</title>
<path fill="none" stroke="black" d="M261.503,-57.9883C263.626,-49.4941 266.708,-37.1697 269.146,-27.4169"/>
<polygon fill="black" stroke="black" points="270.424,-22.3039 271.394,-27.7003 269.818,-24.7292 269.211,-27.1546 269.211,-27.1546 269.211,-27.1546 269.818,-24.7292 267.028,-26.6089 270.424,-22.3039 270.424,-22.3039"/>
</g>
<!-- v5&#45;&gt;v13 -->
<g id="edge21" class="edge"><title>v5&#45;&gt;v13</title>
<path fill="none" stroke="black" d="M250.083,-58.7527C241.225,-49.567 227.562,-35.398 217.599,-25.0651"/>
<polygon fill="black" stroke="black" points="214.111,-21.4482 219.201,-23.4856 215.846,-23.2478 217.581,-25.0474 217.581,-25.0474 217.581,-25.0474 215.846,-23.2478 215.962,-26.6092 214.111,-21.4482 214.111,-21.4482"/>
</g>
<!-- v6&#45;&gt;v7 -->
<g id="edge22" class="edge"><title>v6&#45;&gt;v7</title>
<path fill="none" stroke="black" d="M185.753,-59.737C171.986,-50.4485 149.481,-35.2641 133.553,-24.5176"/>
<polygon fill="black" stroke="black" points="129.248,-21.6128 134.651,-22.5442 131.32,-23.0111 133.392,-24.4094 133.392,-24.4094 133.392,-24.4094 131.32,-23.0111 132.134,-26.2745 129.248,-21.6128 129.248,-21.6128"/>
</g>
<!-- v6&#45;&gt;v12 -->
<g id="edge23" class="edge"><title>v6&#45;&gt;v12</title>
<path fill="none" stroke="black" d="M209.391,-59.4948C222.017,-50.067 242.484,-34.7854 256.781,-24.1101"/>
<polygon fill="black" stroke="black" points="261.005,-20.9566 258.344,-25.751 259.001,-22.4524 256.998,-23.9481 256.998,-23.9481 256.998,-23.9481 259.001,-22.4524 255.652,-22.1452 261.005,-20.9566 261.005,-20.9566"/>
</g>
<!-- v6&#45;&gt;v13 -->
<g id="edge24" class="edge"><title>v6&#45;&gt;v13</title>
<path fill="none" stroke="black" d="M199.251,-57.9883C200.313,-49.4941 201.854,-37.1697 203.073,-27.4169"/>
<polygon fill="black" stroke="black" points="203.712,-22.3039 205.324,-27.5444 203.402,-24.7846 203.092,-27.2653 203.092,-27.2653 203.092,-27.2653 203.402,-24.7846 200.859,-26.9861 203.712,-22.3039 203.712,-22.3039"/>
</g>
<!-- v8&#45;&gt;v9 -->
<g id="edge25" class="edge"><title>v8&#45;&gt;v9</title>
<path fill="none" stroke="black" d="M678.5,-59.8571C642.428,-49.551 580.475,-31.85 542.871,-21.1061"/>
<polygon fill="black" stroke="black" points="537.958,-19.7023 543.384,-18.9126 540.362,-20.3892 542.766,-21.076 542.766,-21.076 542.766,-21.076 540.362,-20.3892 542.148,-23.2394 537.958,-19.7023 537.958,-19.7023"/>
</g>
<!-- v10 -->
<g id="v10_Impalaseen" class="node"><title>v10</title>
<ellipse fill="none" stroke="black" cx="775" cy="-11" rx="43" ry="11"/>
<text text-anchor="middle" x="775" y="-8.8" font-family="sans-serif" font-size="9.00">Impalaseen</text>
</g>
<!-- v8&#45;&gt;v10 -->
<g id="edge26" class="edge"><title>v8&#45;&gt;v10</title>
<path fill="none" stroke="black" d="M718.845,-58.2455C730.058,-49.011 746.966,-35.0868 759.299,-24.9304"/>
<polygon fill="black" stroke="black" points="763.291,-21.6427 760.862,-26.5581 761.361,-23.232 759.431,-24.8212 759.431,-24.8212 759.431,-24.8212 761.361,-23.232 758.001,-23.0844 763.291,-21.6427 763.291,-21.6427"/>
</g>
<!-- v8&#45;&gt;v19 -->
<g id="edge45" class="edge"><title>v8&#45;&gt;v19</title>
<path fill="none" stroke="green" d="M688.322,-79.2524C674.797,-86.0687 655.833,-94.4048 638,-98 576.699,-110.359 503.425,-89.5802 467.716,-77.1985"/>
</g>
<!-- v9&#45;&gt;v10 -->
<g id="edge46" class="edge"><title>v9&#45;&gt;v10</title>
<path fill="none" stroke="green" d="M527.359,-21.2415C539.244,-28.0527 555.986,-36.3871 572,-40 633.564,-53.8892 652.436,-53.8892 714,-40 730.014,-36.3871 746.756,-28.0527 758.641,-21.2415"/>
</g>
<!-- v21 -->
<g id="v21_GPS(0)" class="node"><title>v21</title>
<ellipse fill="none" stroke="black" cx="421" cy="-11" rx="29" ry="11"/>
<text text-anchor="middle" x="421" y="-8.8" font-family="sans-serif" font-size="9.00">GPS(0)</text>
</g>
<!-- v10&#45;&gt;v21 -->
<g id="edge47" class="edge"><title>v10&#45;&gt;v21</title>
<path fill="none" stroke="green" d="M758.641,-21.2415C746.756,-28.0527 730.014,-36.3871 714,-40 660.674,-52.0308 520.591,-54.9193 468,-40 455.086,-36.3366 442.241,-28.007 433.251,-21.2104"/>
</g>
<!-- v14&#45;&gt;v15 -->
<g id="edge27" class="edge"><title>v14&#45;&gt;v15</title>
<path fill="none" stroke="black" d="M1081.47,-59.25C1092.58,-49.9638 1110.24,-35.2025 1122.86,-24.6504"/>
<polygon fill="black" stroke="black" points="1126.94,-21.2473 1124.54,-26.1802 1125.02,-22.8506 1123.1,-24.4538 1123.1,-24.4538 1123.1,-24.4538 1125.02,-22.8506 1121.66,-22.7275 1126.94,-21.2473 1126.94,-21.2473"/>
</g>
<!-- v17&#45;&gt;v18 -->
<g id="edge28" class="edge"><title>v17&#45;&gt;v18</title>
<path fill="none" stroke="black" d="M1247.73,-58.2455C1242,-49.3322 1233.46,-36.0497 1227,-26.0035"/>
<polygon fill="black" stroke="black" points="1224.2,-21.6427 1228.8,-24.6319 1225.55,-23.7456 1226.9,-25.8486 1226.9,-25.8486 1226.9,-25.8486 1225.55,-23.7456 1225.01,-27.0653 1224.2,-21.6427 1224.2,-21.6427"/>
</g>
<!-- v17&#45;&gt;v23 -->
<g id="edge52" class="edge"><title>v17&#45;&gt;v23</title>
<path fill="none" stroke="green" d="M1240.7,-78.9333C1230.65,-85.7878 1216.21,-94.3065 1202,-98 1136.19,-115.111 1114.67,-115.665 1049,-98 1035.43,-94.3504 1021.75,-86.0195 1012.14,-79.2189"/>
</g>
<!-- v19&#45;&gt;v20 -->
<g id="edge29" class="edge"><title>v19&#45;&gt;v20</title>
<path fill="none" stroke="black" d="M430.219,-59.25C412.624,-49.4947 384.132,-33.6971 364.992,-23.0847"/>
<polygon fill="black" stroke="black" points="360.34,-20.5052 365.804,-20.962 362.526,-21.7175 364.713,-22.9298 364.713,-22.9298 364.713,-22.9298 362.526,-21.7175 363.622,-24.8976 360.34,-20.5052 360.34,-20.5052"/>
</g>
<!-- v19&#45;&gt;v21 -->
<g id="edge30" class="edge"><title>v19&#45;&gt;v21</title>
<path fill="none" stroke="black" d="M441.531,-57.9883C437.62,-49.2286 431.891,-36.3956 427.478,-26.5103"/>
<polygon fill="black" stroke="black" points="425.431,-21.925 429.524,-25.5735 426.45,-24.2079 427.469,-26.4907 427.469,-26.4907 427.469,-26.4907 426.45,-24.2079 425.415,-27.4079 425.431,-21.925 425.431,-21.925"/>
</g>
<!-- v23&#45;&gt;v24 -->
<g id="edge31" class="edge"><title>v23&#45;&gt;v24</title>
<path fill="none" stroke="black" d="M1005.61,-57.9883C1011.46,-49.149 1020.04,-36.162 1026.59,-26.2414"/>
<polygon fill="black" stroke="black" points="1029.44,-21.925 1028.56,-27.337 1028.06,-24.0108 1026.69,-26.0967 1026.69,-26.0967 1026.69,-26.0967 1028.06,-24.0108 1024.81,-24.8563 1029.44,-21.925 1029.44,-21.925"/>
</g>
</g>
</svg>
