<?xml version="1.0" encoding="UTF-8" standalone="no"?>
<?xml-stylesheet href="style.css" type="text/css"?>
<!DOCTYPE svg PUBLIC "-//W3C//DTD SVG 1.1//EN"
 "http://www.w3.org/Graphics/SVG/1.1/DTD/svg11.dtd">
<!-- Generated by graphviz version 2.38.0 (20140413.2041)
 -->
<!-- Title: 0.svg Pages: 1 -->
<svg width="1020pt" height="316pt"
 viewBox="0.00 0.00 1019.50 316.00" xmlns="http://www.w3.org/2000/svg" xmlns:xlink="http://www.w3.org/1999/xlink">
<g id="graph0" class="graph" transform="scale(1 1) rotate(0) translate(4 312)">
<title>0.svg</title>
<polygon fill="white" stroke="none" points="-4,4 -4,-312 1015.5,-312 1015.5,4 -4,4"/>
<!-- r0 -->
<g id="node1" class="node"><title>r0</title>
<polygon fill="none" stroke="black" stroke-dasharray="5,2" points="668,-308 645,-308 645,-290 668,-290 668,-308"/>
<text text-anchor="middle" x="656.5" y="-296.8" font-family="serif" font-size="9.00">0</text>
</g>
<!-- v0 -->
<g id="v0_Floor" class="node"><title>v0</title>
<ellipse fill="none" stroke="black" cx="618.5" cy="-243" rx="25" ry="11"/>
<text text-anchor="middle" x="618.5" y="-240.8" font-family="sans-serif" font-size="9.00">Floor</text>
</g>
<!-- r0&#45;&gt;v0 -->
<g id="edge1" class="edge"><title>r0&#45;&gt;v0</title>
<path fill="none" stroke="black" d="M650.562,-289.562C644.625,-281.125 635.389,-268.001 628.352,-258.001"/>
<polygon fill="black" stroke="black" points="625.294,-253.654 630.011,-256.448 626.732,-255.699 628.171,-257.743 628.171,-257.743 628.171,-257.743 626.732,-255.699 626.331,-259.038 625.294,-253.654 625.294,-253.654"/>
</g>
<!-- r1 -->
<g id="node2" class="node"><title>r1</title>
<polygon fill="none" stroke="black" stroke-dasharray="5,2" points="248,-308 225,-308 225,-290 248,-290 248,-308"/>
<text text-anchor="middle" x="236.5" y="-296.8" font-family="serif" font-size="9.00">1</text>
</g>
<!-- v15 -->
<g id="v15_ControlProcess" class="node"><title>v15</title>
<ellipse fill="none" stroke="black" cx="300.5" cy="-11" rx="57.5" ry="11"/>
<text text-anchor="middle" x="300.5" y="-8.8" font-family="sans-serif" font-size="9.00">ControlProcess</text>
</g>
<!-- r1&#45;&gt;v15 -->
<g id="edge2" class="edge"><title>r1&#45;&gt;v15</title>
<path fill="none" stroke="black" d="M238.346,-289.749C247.223,-250.08 285.56,-78.7622 297.161,-26.9196"/>
<polygon fill="black" stroke="black" points="298.26,-22.0112 299.363,-27.3819 297.714,-24.4509 297.168,-26.8905 297.168,-26.8905 297.168,-26.8905 297.714,-24.4509 294.972,-26.3991 298.26,-22.0112 298.26,-22.0112"/>
</g>
<!-- r2 -->
<g id="node3" class="node"><title>r2</title>
<polygon fill="none" stroke="black" stroke-dasharray="5,2" points="483,-308 460,-308 460,-290 483,-290 483,-308"/>
<text text-anchor="middle" x="471.5" y="-296.8" font-family="serif" font-size="9.00">2</text>
</g>
<!-- v16 -->
<g id="v16_Database" class="node"><title>v16</title>
<ellipse fill="none" stroke="black" cx="412.5" cy="-11" rx="36" ry="11"/>
<text text-anchor="middle" x="412.5" y="-8.8" font-family="sans-serif" font-size="9.00">Database</text>
</g>
<!-- r2&#45;&gt;v16 -->
<g id="edge3" class="edge"><title>r2&#45;&gt;v16</title>
<path fill="none" stroke="black" d="M472.358,-289.86C474.228,-271.406 478.5,-224.965 478.5,-186 478.5,-186 478.5,-186 478.5,-126 478.5,-84.8353 445.871,-45.1986 426.497,-25.2923"/>
<polygon fill="black" stroke="black" points="422.812,-21.5796 427.932,-23.5438 424.573,-23.3541 426.334,-25.1287 426.334,-25.1287 426.334,-25.1287 424.573,-23.3541 424.737,-26.7136 422.812,-21.5796 422.812,-21.5796"/>
</g>
<!-- oa -->
<g id="node4" class="node"><title>oa</title>
<text text-anchor="middle" x="195.5" y="-296.8" font-family="serif" font-size="9.00">a</text>
</g>
<!-- ob -->
<g id="node5" class="node"><title>ob</title>
<text text-anchor="middle" x="89.5" y="-296.8" font-family="serif" font-size="9.00">b</text>
</g>
<!-- obusNetwork -->
<g id="node6" class="node"><title>obusNetwork</title>
<text text-anchor="middle" x="973.5" y="-296.8" font-family="serif" font-size="9.00">busNetwork</text>
</g>
<!-- e4 -->
<g id="node16" class="node"><title>e4</title>
</g>
<!-- obusNetwork&#45;&gt;e4 -->
<g id="edge22" class="edge"><title>obusNetwork&#45;&gt;e4</title>
<path fill="none" stroke="green" d="M971.827,-289.885C963.455,-249.27 926.5,-70 926.5,-70"/>
</g>
<!-- ocontrol -->
<g id="node7" class="node"><title>ocontrol</title>
<text text-anchor="middle" x="526.5" y="-296.8" font-family="serif" font-size="9.00">control</text>
</g>
<!-- e5 -->
<g id="node17" class="node"><title>e5</title>
</g>
<!-- ocontrol&#45;&gt;e5 -->
<g id="edge26" class="edge"><title>ocontrol&#45;&gt;e5</title>
<path fill="none" stroke="green" d="M529.249,-289.801C540.635,-255.842 583.5,-128 583.5,-128"/>
</g>
<!-- oent -->
<g id="node8" class="node"><title>oent</title>
<text text-anchor="middle" x="406.5" y="-296.8" font-family="serif" font-size="9.00">ent</text>
</g>
<!-- e6 -->
<g id="node18" class="node"><title>e6</title>
</g>
<!-- oent&#45;&gt;e6 -->
<g id="edge29" class="edge"><title>oent&#45;&gt;e6</title>
<path fill="none" stroke="green" d="M406.5,-289.562C406.5,-274.375 406.5,-244 406.5,-244"/>
</g>
<!-- oinstallationBus -->
<g id="node9" class="node"><title>oinstallationBus</title>
<text text-anchor="middle" x="875.5" y="-296.8" font-family="serif" font-size="9.00">installationBus</text>
</g>
<!-- e7 -->
<g id="node19" class="node"><title>e7</title>
</g>
<!-- oinstallationBus&#45;&gt;e7 -->
<g id="edge32" class="edge"><title>oinstallationBus&#45;&gt;e7</title>
<path fill="none" stroke="green" d="M875.5,-289.885C875.5,-249.27 875.5,-70 875.5,-70"/>
</g>
<!-- oip_network -->
<g id="node10" class="node"><title>oip_network</title>
<text text-anchor="middle" x="312.5" y="-296.8" font-family="serif" font-size="9.00">ip_network</text>
</g>
<!-- e8 -->
<g id="node20" class="node"><title>e8</title>
</g>
<!-- oip_network&#45;&gt;e8 -->
<g id="edge36" class="edge"><title>oip_network&#45;&gt;e8</title>
<path fill="none" stroke="green" d="M312.927,-289.885C315.065,-249.27 324.5,-70 324.5,-70"/>
</g>
<!-- osecond -->
<g id="node11" class="node"><title>osecond</title>
<text text-anchor="middle" x="602.5" y="-296.8" font-family="serif" font-size="9.00">second</text>
</g>
<!-- oserver -->
<g id="node12" class="node"><title>oserver</title>
<text text-anchor="middle" x="723.5" y="-296.8" font-family="serif" font-size="9.00">server</text>
</g>
<!-- e10 -->
<g id="node21" class="node"><title>e10</title>
</g>
<!-- oserver&#45;&gt;e10 -->
<g id="edge41" class="edge"><title>oserver&#45;&gt;e10</title>
<path fill="none" stroke="green" d="M720.268,-289.801C706.885,-255.842 656.5,-128 656.5,-128"/>
</g>
<!-- otoilet -->
<g id="node13" class="node"><title>otoilet</title>
<text text-anchor="middle" x="784.5" y="-296.8" font-family="serif" font-size="9.00">toilet</text>
</g>
<!-- e11 -->
<g id="node22" class="node"><title>e11</title>
</g>
<!-- otoilet&#45;&gt;e11 -->
<g id="edge44" class="edge"><title>otoilet&#45;&gt;e11</title>
<path fill="none" stroke="green" d="M784.5,-289.801C784.5,-255.842 784.5,-128 784.5,-128"/>
</g>
<!-- e0 -->
<g id="node14" class="node"><title>e0</title>
</g>
<!-- v3 -->
<g id="v3_Laptop" class="node"><title>v3</title>
<ellipse fill="none" stroke="black" cx="32.5" cy="-69" rx="29" ry="11"/>
<text text-anchor="middle" x="32.5" y="-66.8" font-family="sans-serif" font-size="9.00">Laptop</text>
</g>
<!-- e0&#45;&gt;v3 -->
<g id="edge18" class="edge"><title>e0&#45;&gt;v3</title>
<path fill="none" stroke="green" d="M41.8156,-122.167C40.2833,-113.586 36.535,-92.5957 34.2878,-80.0117"/>
<polygon fill="green" stroke="green" points="45.8224,-124.696 38.9314,-125.926 38.6853,-124.548 45.5763,-123.317 45.8224,-124.696"/>
<polyline fill="none" stroke="green" points="42.5,-126 41.8847,-122.555 "/>
</g>
<!-- e1 -->
<g id="node15" class="node"><title>e1</title>
</g>
<!-- e1&#45;&gt;v3 -->
<g id="edge19" class="edge"><title>e1&#45;&gt;v3</title>
<path fill="none" stroke="green" d="M24.1159,-122.167C25.4951,-113.586 28.8685,-92.5957 30.891,-80.0117"/>
<polygon fill="green" stroke="green" points="27.0667,-125.864 20.1554,-124.753 20.3776,-123.371 27.2889,-124.482 27.0667,-125.864"/>
<polyline fill="none" stroke="green" points="23.5,-126 24.0554,-122.544 "/>
</g>
<!-- v8 -->
<g id="v8_HVAC" class="node"><title>v8</title>
<ellipse fill="none" stroke="black" cx="885.5" cy="-11" rx="21.5" ry="11"/>
<text text-anchor="middle" x="885.5" y="-8.8" font-family="sans-serif" font-size="9.00">HVAC</text>
</g>
<!-- e4&#45;&gt;v8 -->
<g id="edge23" class="edge"><title>e4&#45;&gt;v8</title>
<path fill="none" stroke="green" d="M926.5,-68C926.5,-68 904.153,-37.4767 892.455,-21.4996"/>
</g>
<!-- v9 -->
<g id="v9_FireDetector" class="node"><title>v9</title>
<ellipse fill="none" stroke="black" cx="795.5" cy="-11" rx="50.5" ry="11"/>
<text text-anchor="middle" x="795.5" y="-8.8" font-family="sans-serif" font-size="9.00">FireDetector</text>
</g>
<!-- e4&#45;&gt;v9 -->
<g id="edge24" class="edge"><title>e4&#45;&gt;v9</title>
<path fill="none" stroke="green" d="M926.5,-68C926.5,-68 853.959,-36.9903 816.839,-21.122"/>
</g>
<!-- v12 -->
<g id="v12_SmartLight" class="node"><title>v12</title>
<ellipse fill="none" stroke="black" cx="968.5" cy="-11" rx="43" ry="11"/>
<text text-anchor="middle" x="968.5" y="-8.8" font-family="sans-serif" font-size="9.00">SmartLight</text>
</g>
<!-- e4&#45;&gt;v12 -->
<g id="edge25" class="edge"><title>e4&#45;&gt;v12</title>
<path fill="none" stroke="green" d="M926.5,-68C926.5,-68 948.911,-38.1193 960.991,-22.0117"/>
</g>
<!-- v6 -->
<g id="v6_Hallway" class="node"><title>v6</title>
<ellipse fill="none" stroke="black" cx="611.5" cy="-11" rx="32.5" ry="11"/>
<text text-anchor="middle" x="611.5" y="-8.8" font-family="sans-serif" font-size="9.00">Hallway</text>
</g>
<!-- e5&#45;&gt;v6 -->
<g id="edge27" class="edge"><title>e5&#45;&gt;v6</title>
<path fill="none" stroke="green" d="M583.5,-126C583.5,-126 602.163,-50.0168 609.015,-22.1167"/>
</g>
<!-- v13 -->
<g id="v13_Room" class="node"><title>v13</title>
<ellipse fill="none" stroke="black" cx="530.5" cy="-69" rx="21.5" ry="11"/>
<text text-anchor="middle" x="530.5" y="-66.8" font-family="sans-serif" font-size="9.00">Room</text>
</g>
<!-- e5&#45;&gt;v13 -->
<g id="edge28" class="edge"><title>e5&#45;&gt;v13</title>
<path fill="none" stroke="green" d="M583.5,-126C583.5,-126 554.305,-95.1528 539.252,-79.2473"/>
</g>
<!-- v1 -->
<g id="v1_Entrance" class="node"><title>v1</title>
<ellipse fill="none" stroke="black" cx="376.5" cy="-185" rx="36" ry="11"/>
<text text-anchor="middle" x="376.5" y="-182.8" font-family="sans-serif" font-size="9.00">Entrance</text>
</g>
<!-- e6&#45;&gt;v1 -->
<g id="edge30" class="edge"><title>e6&#45;&gt;v1</title>
<path fill="none" stroke="green" d="M406.5,-242C406.5,-242 390.492,-212.119 381.863,-196.012"/>
</g>
<!-- e6&#45;&gt;v6 -->
<g id="edge31" class="edge"><title>e6&#45;&gt;v6</title>
<path fill="none" stroke="green" d="M406.5,-242C406.5,-242 465.861,-89.1037 499.5,-58 513.005,-45.513 560.384,-28.6023 589.014,-19.151"/>
</g>
<!-- e7&#45;&gt;v8 -->
<g id="edge33" class="edge"><title>e7&#45;&gt;v8</title>
<path fill="none" stroke="green" d="M875.5,-68C875.5,-68 880.836,-38.1193 883.712,-22.0117"/>
</g>
<!-- e7&#45;&gt;v9 -->
<g id="edge34" class="edge"><title>e7&#45;&gt;v9</title>
<path fill="none" stroke="green" d="M875.5,-68C875.5,-68 832.355,-37.7988 809.435,-21.7545"/>
</g>
<!-- e7&#45;&gt;v12 -->
<g id="edge35" class="edge"><title>e7&#45;&gt;v12</title>
<path fill="none" stroke="green" d="M875.5,-68C875.5,-68 926.191,-37.4767 952.724,-21.4996"/>
</g>
<!-- v14 -->
<g id="v14_Wokrstation" class="node"><title>v14</title>
<ellipse fill="none" stroke="black" cx="513.5" cy="-11" rx="47" ry="11"/>
<text text-anchor="middle" x="513.5" y="-8.8" font-family="sans-serif" font-size="9.00">Wokrstation</text>
</g>
<!-- e8&#45;&gt;v14 -->
<g id="edge37" class="edge"><title>e8&#45;&gt;v14</title>
<path fill="none" stroke="green" d="M324.5,-68C324.5,-68 434.161,-35.5079 486.421,-20.0234"/>
</g>
<!-- e8&#45;&gt;v15 -->
<g id="edge38" class="edge"><title>e8&#45;&gt;v15</title>
<path fill="none" stroke="green" d="M324.5,-68C324.5,-68 311.694,-38.1193 304.791,-22.0117"/>
</g>
<!-- e8&#45;&gt;v16 -->
<g id="edge39" class="edge"><title>e8&#45;&gt;v16</title>
<path fill="none" stroke="green" d="M324.5,-68C324.5,-68 372.974,-37.1528 397.969,-21.2473"/>
</g>
<!-- e10&#45;&gt;v6 -->
<g id="edge42" class="edge"><title>e10&#45;&gt;v6</title>
<path fill="none" stroke="green" d="M656.5,-126C656.5,-126 644.5,-87.718 632.5,-58 627.438,-45.4639 620.867,-31.3639 616.434,-22.1181"/>
</g>
<!-- v7 -->
<g id="v7_Room" class="node"><title>v7</title>
<ellipse fill="none" stroke="black" cx="744.5" cy="-69" rx="21.5" ry="11"/>
<text text-anchor="middle" x="744.5" y="-66.8" font-family="sans-serif" font-size="9.00">Room</text>
</g>
<!-- e10&#45;&gt;v7 -->
<g id="edge43" class="edge"><title>e10&#45;&gt;v7</title>
<path fill="none" stroke="green" d="M656.5,-126C656.5,-126 664.777,-120.358 671.5,-116 692.492,-102.392 717.161,-86.9629 731.777,-77.8794"/>
</g>
<!-- e11&#45;&gt;v6 -->
<g id="edge45" class="edge"><title>e11&#45;&gt;v6</title>
<path fill="none" stroke="green" d="M784.5,-126C784.5,-126 744.921,-100.651 713.5,-80 681.664,-59.0764 644.48,-34.1675 624.992,-21.0761"/>
</g>
<!-- v11 -->
<g id="v11_Room" class="node"><title>v11</title>
<ellipse fill="none" stroke="black" cx="822.5" cy="-69" rx="21.5" ry="11"/>
<text text-anchor="middle" x="822.5" y="-66.8" font-family="sans-serif" font-size="9.00">Room</text>
</g>
<!-- e11&#45;&gt;v11 -->
<g id="edge46" class="edge"><title>e11&#45;&gt;v11</title>
<path fill="none" stroke="green" d="M784.5,-126C784.5,-126 805.212,-95.4767 816.054,-79.4996"/>
</g>
<!-- v0&#45;&gt;osecond -->
<g id="edge40" class="edge"><title>v0&#45;&gt;osecond</title>
<path fill="none" stroke="green" d="M615.528,-254.03C612.497,-264.259 607.848,-279.952 605,-289.562"/>
</g>
<!-- v0&#45;&gt;v1 -->
<g id="edge4" class="edge"><title>v0&#45;&gt;v1</title>
<path fill="none" stroke="black" d="M597.024,-237.03C554.415,-227.17 458.975,-205.085 408.774,-193.468"/>
<polygon fill="black" stroke="black" points="403.766,-192.31 409.145,-191.245 406.202,-192.873 408.638,-193.437 408.638,-193.437 408.638,-193.437 406.202,-192.873 408.13,-195.629 403.766,-192.31 403.766,-192.31"/>
</g>
<!-- v0&#45;&gt;v6 -->
<g id="edge5" class="edge"><title>v0&#45;&gt;v6</title>
<path fill="none" stroke="black" d="M618.19,-231.82C617.079,-195.304 613.288,-70.7575 611.962,-27.194"/>
<polygon fill="black" stroke="black" points="611.806,-22.062 614.207,-26.9912 611.882,-24.5609 611.958,-27.0597 611.958,-27.0597 611.958,-27.0597 611.882,-24.5609 609.709,-27.1282 611.806,-22.062 611.806,-22.062"/>
</g>
<!-- v0&#45;&gt;v7 -->
<g id="edge6" class="edge"><title>v0&#45;&gt;v7</title>
<path fill="none" stroke="black" d="M625.635,-232.26C646.86,-203.287 709.651,-117.572 734.353,-83.8512"/>
<polygon fill="black" stroke="black" points="737.443,-79.6335 736.303,-84.9967 735.966,-81.6502 734.488,-83.667 734.488,-83.667 734.488,-83.667 735.966,-81.6502 732.673,-82.3373 737.443,-79.6335 737.443,-79.6335"/>
</g>
<!-- v0&#45;&gt;v11 -->
<g id="edge7" class="edge"><title>v0&#45;&gt;v11</title>
<path fill="none" stroke="black" d="M636.918,-235.531C671.926,-222.376 748.582,-189.332 793.5,-138 806.899,-122.688 814.824,-100.263 818.916,-85.407"/>
<polygon fill="black" stroke="black" points="820.254,-80.3033 821.163,-85.7104 819.62,-82.7216 818.986,-85.14 818.986,-85.14 818.986,-85.14 819.62,-82.7216 816.81,-84.5696 820.254,-80.3033 820.254,-80.3033"/>
</g>
<!-- v0&#45;&gt;v13 -->
<g id="edge8" class="edge"><title>v0&#45;&gt;v13</title>
<path fill="none" stroke="black" d="M613.388,-232.009C598.564,-203.034 555.502,-118.867 538.014,-84.6863"/>
<polygon fill="black" stroke="black" points="535.626,-80.0185 539.906,-83.4449 536.764,-82.2441 537.903,-84.4697 537.903,-84.4697 537.903,-84.4697 536.764,-82.2441 535.9,-85.4946 535.626,-80.0185 535.626,-80.0185"/>
</g>
<!-- v2 -->
<g id="v2_Actor" class="node"><title>v2</title>
<ellipse fill="none" stroke="black" cx="142.5" cy="-127" rx="25" ry="11"/>
<text text-anchor="middle" x="142.5" y="-124.8" font-family="sans-serif" font-size="9.00">Actor</text>
</g>
<!-- v1&#45;&gt;v2 -->
<g id="edge9" class="edge"><title>v1&#45;&gt;v2</title>
<path fill="none" stroke="black" d="M349.657,-177.576C304.345,-166.732 213.256,-144.933 168.511,-134.225"/>
<polygon fill="black" stroke="black" points="163.549,-133.037 168.936,-132.013 165.981,-133.619 168.412,-134.201 168.412,-134.201 168.412,-134.201 165.981,-133.619 167.888,-136.389 163.549,-133.037 163.549,-133.037"/>
</g>
<!-- v5 -->
<g id="v5_FireDetector" class="node"><title>v5</title>
<ellipse fill="none" stroke="black" cx="174.5" cy="-11" rx="50.5" ry="11"/>
<text text-anchor="middle" x="174.5" y="-8.8" font-family="sans-serif" font-size="9.00">FireDetector</text>
</g>
<!-- v1&#45;&gt;v5 -->
<g id="edge10" class="edge"><title>v1&#45;&gt;v5</title>
<path fill="none" stroke="black" d="M365.352,-174.508C331.516,-145.697 229.907,-59.1784 190.43,-25.5638"/>
<polygon fill="black" stroke="black" points="186.368,-22.1054 191.634,-23.6338 188.271,-23.7261 190.175,-25.3469 190.175,-25.3469 190.175,-25.3469 188.271,-23.7261 188.716,-27.06 186.368,-22.1054 186.368,-22.1054"/>
</g>
<!-- v2&#45;&gt;v3 -->
<g id="edge11" class="edge"><title>v2&#45;&gt;v3</title>
<path fill="none" stroke="black" d="M127.205,-118.213C107.996,-108.434 74.9518,-91.6118 53.4161,-80.6482"/>
<polygon fill="black" stroke="black" points="48.7383,-78.2668 54.2149,-78.5301 50.9662,-79.401 53.1941,-80.5352 53.1941,-80.5352 53.1941,-80.5352 50.9662,-79.401 52.1733,-82.5403 48.7383,-78.2668 48.7383,-78.2668"/>
</g>
<!-- v4 -->
<g id="v4_Malware" class="node"><title>v4</title>
<ellipse fill="none" stroke="black" cx="32.5" cy="-11" rx="32.5" ry="11"/>
<text text-anchor="middle" x="32.5" y="-8.8" font-family="sans-serif" font-size="9.00">Malware</text>
</g>
<!-- v3&#45;&gt;v4 -->
<g id="edge12" class="edge"><title>v3&#45;&gt;v4</title>
<path fill="none" stroke="black" d="M32.5,-57.9883C32.5,-49.4941 32.5,-37.1697 32.5,-27.4169"/>
<polygon fill="black" stroke="black" points="32.5,-22.3039 34.7501,-27.3038 32.5,-24.8039 32.5001,-27.3039 32.5001,-27.3039 32.5001,-27.3039 32.5,-24.8039 30.2501,-27.3039 32.5,-22.3039 32.5,-22.3039"/>
</g>
<!-- v5&#45;&gt;oa -->
<g id="edge20" class="edge"><title>v5&#45;&gt;oa</title>
<path fill="none" stroke="green" d="M177.689,-22.2573C183.564,-42.0884 195.5,-87.1594 195.5,-126 195.5,-186 195.5,-186 195.5,-186 195.5,-224.889 195.5,-271.373 195.5,-289.849"/>
</g>
<!-- v5&#45;&gt;ob -->
<g id="edge21" class="edge"><title>v5&#45;&gt;ob</title>
<path fill="none" stroke="green" d="M160.081,-21.7505C135.83,-39.4399 89.5,-79.3404 89.5,-126 89.5,-186 89.5,-186 89.5,-186 89.5,-224.889 89.5,-271.373 89.5,-289.849"/>
</g>
<!-- v7&#45;&gt;v8 -->
<g id="edge13" class="edge"><title>v7&#45;&gt;v8</title>
<path fill="none" stroke="black" d="M760.674,-61.5761C786.249,-51.4189 836.023,-31.6504 864.382,-20.3873"/>
<polygon fill="black" stroke="black" points="869.08,-18.5215 865.263,-22.4582 866.756,-19.4443 864.433,-20.3671 864.433,-20.3671 864.433,-20.3671 866.756,-19.4443 863.602,-18.276 869.08,-18.5215 869.08,-18.5215"/>
</g>
<!-- v7&#45;&gt;v9 -->
<g id="edge14" class="edge"><title>v7&#45;&gt;v9</title>
<path fill="none" stroke="black" d="M752.922,-58.7527C761.114,-49.7573 773.658,-35.9828 783.012,-25.7121"/>
<polygon fill="black" stroke="black" points="786.551,-21.8266 784.848,-27.0383 784.867,-23.6749 783.184,-25.5233 783.184,-25.5233 783.184,-25.5233 784.867,-23.6749 781.521,-24.0083 786.551,-21.8266 786.551,-21.8266"/>
</g>
<!-- v10 -->
<g id="v10_Servers" class="node"><title>v10</title>
<ellipse fill="none" stroke="black" cx="694.5" cy="-11" rx="32.5" ry="11"/>
<text text-anchor="middle" x="694.5" y="-8.8" font-family="sans-serif" font-size="9.00">Servers</text>
</g>
<!-- v7&#45;&gt;v10 -->
<g id="edge15" class="edge"><title>v7&#45;&gt;v10</title>
<path fill="none" stroke="black" d="M736.244,-58.7527C728.212,-49.7573 715.913,-35.9828 706.743,-25.7121"/>
<polygon fill="black" stroke="black" points="703.274,-21.8266 708.282,-24.0577 704.939,-23.6914 706.604,-25.5563 706.604,-25.5563 706.604,-25.5563 704.939,-23.6914 704.925,-27.0548 703.274,-21.8266 703.274,-21.8266"/>
</g>
<!-- v11&#45;&gt;v12 -->
<g id="edge16" class="edge"><title>v11&#45;&gt;v12</title>
<path fill="none" stroke="black" d="M838.964,-61.6849C863.779,-52.1668 911.052,-34.0348 941.111,-22.5055"/>
<polygon fill="black" stroke="black" points="946.147,-20.5738 942.284,-24.4652 943.813,-21.4691 941.479,-22.3645 941.479,-22.3645 941.479,-22.3645 943.813,-21.4691 940.673,-20.2637 946.147,-20.5738 946.147,-20.5738"/>
</g>
<!-- v13&#45;&gt;v14 -->
<g id="edge17" class="edge"><title>v13&#45;&gt;v14</title>
<path fill="none" stroke="black" d="M527.461,-57.9883C524.858,-49.4154 521.071,-36.9411 518.098,-27.1466"/>
<polygon fill="black" stroke="black" points="516.628,-22.3039 520.233,-26.4347 517.354,-24.6961 518.08,-27.0883 518.08,-27.0883 518.08,-27.0883 517.354,-24.6961 515.927,-27.7419 516.628,-22.3039 516.628,-22.3039"/>
</g>
</g>
</svg>
