<?xml version="1.0" encoding="UTF-8" standalone="no"?>
<?xml-stylesheet href="style.css" type="text/css"?>
<!DOCTYPE svg PUBLIC "-//W3C//DTD SVG 1.1//EN"
 "http://www.w3.org/Graphics/SVG/1.1/DTD/svg11.dtd">
<!-- Generated by graphviz version 2.38.0 (20140413.2041)
 -->
<!-- Title: 1.svg Pages: 1 -->
<svg width="898pt" height="316pt"
 viewBox="0.00 0.00 898.00 316.00" xmlns="http://www.w3.org/2000/svg" xmlns:xlink="http://www.w3.org/1999/xlink">
<g id="graph0" class="graph" transform="scale(1 1) rotate(0) translate(4 312)">
<title>1.svg</title>
<polygon fill="white" stroke="none" points="-4,4 -4,-312 894,-312 894,4 -4,4"/>
<!-- r0 -->
<g id="node1" class="node"><title>r0</title>
<polygon fill="none" stroke="black" stroke-dasharray="5,2" points="306.5,-308 283.5,-308 283.5,-290 306.5,-290 306.5,-308"/>
<text text-anchor="middle" x="295" y="-296.8" font-family="serif" font-size="9.00">0</text>
</g>
<!-- v0 -->
<g id="v0_Floor" class="node"><title>v0</title>
<ellipse fill="none" stroke="black" cx="295" cy="-243" rx="25" ry="11"/>
<text text-anchor="middle" x="295" y="-240.8" font-family="sans-serif" font-size="9.00">Floor</text>
</g>
<!-- r0&#45;&gt;v0 -->
<g id="edge1" class="edge"><title>r0&#45;&gt;v0</title>
<path fill="none" stroke="black" d="M295,-289.562C295,-281.453 295,-269.014 295,-259.181"/>
<polygon fill="black" stroke="black" points="295,-254.03 297.25,-259.03 295,-256.53 295,-259.03 295,-259.03 295,-259.03 295,-256.53 292.75,-259.03 295,-254.03 295,-254.03"/>
</g>
<!-- r1 -->
<g id="node2" class="node"><title>r1</title>
<polygon fill="none" stroke="black" stroke-dasharray="5,2" points="434.5,-308 411.5,-308 411.5,-290 434.5,-290 434.5,-308"/>
<text text-anchor="middle" x="423" y="-296.8" font-family="serif" font-size="9.00">1</text>
</g>
<!-- v15 -->
<g id="v15_ControlProcess" class="node"><title>v15</title>
<ellipse fill="none" stroke="black" cx="374" cy="-11" rx="57.5" ry="11"/>
<text text-anchor="middle" x="374" y="-8.8" font-family="sans-serif" font-size="9.00">ControlProcess</text>
</g>
<!-- r1&#45;&gt;v15 -->
<g id="edge2" class="edge"><title>r1&#45;&gt;v15</title>
<path fill="none" stroke="black" d="M421.774,-289.871C419.104,-271.441 413,-225.044 413,-186 413,-186 413,-186 413,-126 413,-88.4673 393.841,-47.5444 382.38,-26.4219"/>
<polygon fill="black" stroke="black" points="379.923,-21.9792 384.312,-25.266 381.133,-24.167 382.343,-26.3548 382.343,-26.3548 382.343,-26.3548 381.133,-24.167 380.374,-27.4436 379.923,-21.9792 379.923,-21.9792"/>
</g>
<!-- r2 -->
<g id="node3" class="node"><title>r2</title>
<polygon fill="none" stroke="black" stroke-dasharray="5,2" points="538.5,-308 515.5,-308 515.5,-290 538.5,-290 538.5,-308"/>
<text text-anchor="middle" x="527" y="-296.8" font-family="serif" font-size="9.00">2</text>
</g>
<!-- v16 -->
<g id="v16_Database" class="node"><title>v16</title>
<ellipse fill="none" stroke="black" cx="486" cy="-11" rx="36" ry="11"/>
<text text-anchor="middle" x="486" y="-8.8" font-family="sans-serif" font-size="9.00">Database</text>
</g>
<!-- r2&#45;&gt;v16 -->
<g id="edge3" class="edge"><title>r2&#45;&gt;v16</title>
<path fill="none" stroke="black" d="M527,-289.849C527,-271.373 527,-224.889 527,-186 527,-186 527,-186 527,-126 527,-88.261 506.858,-47.421 494.81,-26.3666"/>
<polygon fill="black" stroke="black" points="492.227,-21.9389 496.69,-25.1242 493.487,-24.0984 494.746,-26.2579 494.746,-26.2579 494.746,-26.2579 493.487,-24.0984 492.803,-27.3916 492.227,-21.9389 492.227,-21.9389"/>
</g>
<!-- oa -->
<g id="node4" class="node"><title>oa</title>
<text text-anchor="middle" x="11" y="-296.8" font-family="serif" font-size="9.00">a</text>
</g>
<!-- ob -->
<g id="node5" class="node"><title>ob</title>
<text text-anchor="middle" x="52" y="-296.8" font-family="serif" font-size="9.00">b</text>
</g>
<!-- obusNetwork -->
<g id="node6" class="node"><title>obusNetwork</title>
<text text-anchor="middle" x="774" y="-296.8" font-family="serif" font-size="9.00">busNetwork</text>
</g>
<!-- e4 -->
<g id="node16" class="node"><title>e4</title>
</g>
<!-- obusNetwork&#45;&gt;e4 -->
<g id="edge22" class="edge"><title>obusNetwork&#45;&gt;e4</title>
<path fill="none" stroke="green" d="M774,-289.885C774,-249.27 774,-70 774,-70"/>
</g>
<!-- ocontrol -->
<g id="node7" class="node"><title>ocontrol</title>
<text text-anchor="middle" x="173" y="-296.8" font-family="serif" font-size="9.00">control</text>
</g>
<!-- e5 -->
<g id="node17" class="node"><title>e5</title>
</g>
<!-- ocontrol&#45;&gt;e5 -->
<g id="edge26" class="edge"><title>ocontrol&#45;&gt;e5</title>
<path fill="none" stroke="green" d="M173,-289.562C173,-274.375 173,-244 173,-244"/>
</g>
<!-- oent -->
<g id="node8" class="node"><title>oent</title>
<text text-anchor="middle" x="114" y="-296.8" font-family="serif" font-size="9.00">ent</text>
</g>
<!-- e6 -->
<g id="node18" class="node"><title>e6</title>
</g>
<!-- oent&#45;&gt;e6 -->
<g id="edge29" class="edge"><title>oent&#45;&gt;e6</title>
<path fill="none" stroke="green" d="M114.156,-289.562C114.438,-274.375 115,-244 115,-244"/>
</g>
<!-- oinstallationBus -->
<g id="node9" class="node"><title>oinstallationBus</title>
<text text-anchor="middle" x="659" y="-296.8" font-family="serif" font-size="9.00">installationBus</text>
</g>
<!-- e7 -->
<g id="node19" class="node"><title>e7</title>
</g>
<!-- oinstallationBus&#45;&gt;e7 -->
<g id="edge32" class="edge"><title>oinstallationBus&#45;&gt;e7</title>
<path fill="none" stroke="green" d="M659.89,-289.885C664.343,-249.27 684,-70 684,-70"/>
</g>
<!-- oip_network -->
<g id="node10" class="node"><title>oip_network</title>
<text text-anchor="middle" x="359" y="-296.8" font-family="serif" font-size="9.00">ip_network</text>
</g>
<!-- e8 -->
<g id="node20" class="node"><title>e8</title>
</g>
<!-- oip_network&#45;&gt;e8 -->
<g id="edge36" class="edge"><title>oip_network&#45;&gt;e8</title>
<path fill="none" stroke="green" d="M359.534,-289.885C362.206,-249.27 374,-70 374,-70"/>
</g>
<!-- osecond -->
<g id="node11" class="node"><title>osecond</title>
<text text-anchor="middle" x="241" y="-296.8" font-family="serif" font-size="9.00">second</text>
</g>
<!-- oserver -->
<g id="node12" class="node"><title>oserver</title>
<text text-anchor="middle" x="475" y="-296.8" font-family="serif" font-size="9.00">server</text>
</g>
<!-- e10 -->
<g id="node21" class="node"><title>e10</title>
</g>
<!-- oserver&#45;&gt;e10 -->
<g id="edge41" class="edge"><title>oserver&#45;&gt;e10</title>
<path fill="none" stroke="green" d="M475,-289.562C475,-274.375 475,-244 475,-244"/>
</g>
<!-- otoilet -->
<g id="node13" class="node"><title>otoilet</title>
<text text-anchor="middle" x="577" y="-296.8" font-family="serif" font-size="9.00">toilet</text>
</g>
<!-- e11 -->
<g id="node22" class="node"><title>e11</title>
</g>
<!-- otoilet&#45;&gt;e11 -->
<g id="edge44" class="edge"><title>otoilet&#45;&gt;e11</title>
<path fill="none" stroke="green" d="M577,-289.562C577,-274.375 577,-244 577,-244"/>
</g>
<!-- e0 -->
<g id="node14" class="node"><title>e0</title>
</g>
<!-- v5 -->
<g id="v5_Laptop" class="node"><title>v5</title>
<ellipse fill="none" stroke="black" cx="277" cy="-69" rx="29" ry="11"/>
<text text-anchor="middle" x="277" y="-66.8" font-family="sans-serif" font-size="9.00">Laptop</text>
</g>
<!-- e0&#45;&gt;v5 -->
<g id="edge18" class="edge"><title>e0&#45;&gt;v5</title>
<path fill="none" stroke="green" d="M259.131,-122.667C261.926,-114.429 269.248,-92.8474 273.603,-80.0117"/>
<polygon fill="green" stroke="green" points="261.539,-126.462 254.91,-124.213 255.36,-122.887 261.989,-125.136 261.539,-126.462"/>
<polyline fill="none" stroke="green" points="258,-126 259.125,-122.686 "/>
</g>
<!-- e1 -->
<g id="node15" class="node"><title>e1</title>
</g>
<!-- e1&#45;&gt;v5 -->
<g id="edge19" class="edge"><title>e1&#45;&gt;v5</title>
<path fill="none" stroke="green" d="M277,-122.167C277,-113.586 277,-92.5957 277,-80.0117"/>
<polygon fill="green" stroke="green" points="280.5,-125.3 273.5,-125.3 273.5,-123.9 280.5,-123.9 280.5,-125.3"/>
<polyline fill="none" stroke="green" points="277,-126 277,-122.5 "/>
</g>
<!-- v8 -->
<g id="v8_HVAC" class="node"><title>v8</title>
<ellipse fill="none" stroke="black" cx="764" cy="-11" rx="21.5" ry="11"/>
<text text-anchor="middle" x="764" y="-8.8" font-family="sans-serif" font-size="9.00">HVAC</text>
</g>
<!-- e4&#45;&gt;v8 -->
<g id="edge23" class="edge"><title>e4&#45;&gt;v8</title>
<path fill="none" stroke="green" d="M774,-68C774,-68 768.664,-38.1193 765.788,-22.0117"/>
</g>
<!-- v9 -->
<g id="v9_FireDetector" class="node"><title>v9</title>
<ellipse fill="none" stroke="black" cx="674" cy="-11" rx="50.5" ry="11"/>
<text text-anchor="middle" x="674" y="-8.8" font-family="sans-serif" font-size="9.00">FireDetector</text>
</g>
<!-- e4&#45;&gt;v9 -->
<g id="edge24" class="edge"><title>e4&#45;&gt;v9</title>
<path fill="none" stroke="green" d="M774,-68C774,-68 769.749,-61.6329 765,-58 743.91,-41.8666 716.292,-28.8467 697.037,-20.8306"/>
</g>
<!-- v12 -->
<g id="v12_SmartLight" class="node"><title>v12</title>
<ellipse fill="none" stroke="black" cx="847" cy="-11" rx="43" ry="11"/>
<text text-anchor="middle" x="847" y="-8.8" font-family="sans-serif" font-size="9.00">SmartLight</text>
</g>
<!-- e4&#45;&gt;v12 -->
<g id="edge25" class="edge"><title>e4&#45;&gt;v12</title>
<path fill="none" stroke="green" d="M774,-68C774,-68 813.369,-37.7988 834.284,-21.7545"/>
</g>
<!-- v2 -->
<g id="v2_Hallway" class="node"><title>v2</title>
<ellipse fill="none" stroke="black" cx="304" cy="-185" rx="32.5" ry="11"/>
<text text-anchor="middle" x="304" y="-182.8" font-family="sans-serif" font-size="9.00">Hallway</text>
</g>
<!-- e5&#45;&gt;v2 -->
<g id="edge27" class="edge"><title>e5&#45;&gt;v2</title>
<path fill="none" stroke="green" d="M173,-242C173,-242 249.008,-209.508 285.231,-194.023"/>
</g>
<!-- v13 -->
<g id="v13_Room" class="node"><title>v13</title>
<ellipse fill="none" stroke="black" cx="208" cy="-69" rx="21.5" ry="11"/>
<text text-anchor="middle" x="208" y="-66.8" font-family="sans-serif" font-size="9.00">Room</text>
</g>
<!-- e5&#45;&gt;v13 -->
<g id="edge28" class="edge"><title>e5&#45;&gt;v13</title>
<path fill="none" stroke="green" d="M173,-242C173,-242 198.497,-116.7 205.967,-79.9909"/>
</g>
<!-- v1 -->
<g id="v1_Entrance" class="node"><title>v1</title>
<ellipse fill="none" stroke="black" cx="116" cy="-69" rx="36" ry="11"/>
<text text-anchor="middle" x="116" y="-66.8" font-family="sans-serif" font-size="9.00">Entrance</text>
</g>
<!-- e6&#45;&gt;v1 -->
<g id="edge30" class="edge"><title>e6&#45;&gt;v1</title>
<path fill="none" stroke="green" d="M115,-242C115,-242 115.725,-117.273 115.94,-80.2443"/>
</g>
<!-- e6&#45;&gt;v2 -->
<g id="edge31" class="edge"><title>e6&#45;&gt;v2</title>
<path fill="none" stroke="green" d="M115,-242C115,-242 230.356,-207.82 280.825,-192.867"/>
</g>
<!-- e7&#45;&gt;v8 -->
<g id="edge33" class="edge"><title>e7&#45;&gt;v8</title>
<path fill="none" stroke="green" d="M684,-68C684,-68 729.942,-35.8403 752.196,-20.263"/>
</g>
<!-- e7&#45;&gt;v9 -->
<g id="edge34" class="edge"><title>e7&#45;&gt;v9</title>
<path fill="none" stroke="green" d="M684,-68C684,-68 678.664,-38.1193 675.788,-22.0117"/>
</g>
<!-- e7&#45;&gt;v12 -->
<g id="edge35" class="edge"><title>e7&#45;&gt;v12</title>
<path fill="none" stroke="green" d="M684,-68C684,-68 694.199,-61.6883 703,-58 742.212,-41.5673 789.461,-27.5115 818.873,-19.4048"/>
</g>
<!-- v14 -->
<g id="v14_Wokrstation" class="node"><title>v14</title>
<ellipse fill="none" stroke="black" cx="251" cy="-11" rx="47" ry="11"/>
<text text-anchor="middle" x="251" y="-8.8" font-family="sans-serif" font-size="9.00">Wokrstation</text>
</g>
<!-- e8&#45;&gt;v14 -->
<g id="edge37" class="edge"><title>e8&#45;&gt;v14</title>
<path fill="none" stroke="green" d="M374,-68C374,-68 305.531,-36.8273 270.762,-20.9974"/>
</g>
<!-- e8&#45;&gt;v15 -->
<g id="edge38" class="edge"><title>e8&#45;&gt;v15</title>
<path fill="none" stroke="green" d="M374,-68C374,-68 374,-38.1193 374,-22.0117"/>
</g>
<!-- e8&#45;&gt;v16 -->
<g id="edge39" class="edge"><title>e8&#45;&gt;v16</title>
<path fill="none" stroke="green" d="M374,-68C374,-68 437,-36.5 468.5,-20.75"/>
</g>
<!-- e10&#45;&gt;v2 -->
<g id="edge42" class="edge"><title>e10&#45;&gt;v2</title>
<path fill="none" stroke="green" d="M475,-242C475,-242 372.19,-208.331 326.005,-193.206"/>
</g>
<!-- v7 -->
<g id="v7_Room" class="node"><title>v7</title>
<ellipse fill="none" stroke="black" cx="577" cy="-69" rx="21.5" ry="11"/>
<text text-anchor="middle" x="577" y="-66.8" font-family="sans-serif" font-size="9.00">Room</text>
</g>
<!-- e10&#45;&gt;v7 -->
<g id="edge43" class="edge"><title>e10&#45;&gt;v7</title>
<path fill="none" stroke="green" d="M475,-242C475,-242 549.646,-116.126 571.224,-79.7403"/>
</g>
<!-- e11&#45;&gt;v2 -->
<g id="edge45" class="edge"><title>e11&#45;&gt;v2</title>
<path fill="none" stroke="green" d="M577,-242C577,-242 399.367,-205.563 330.673,-191.471"/>
</g>
<!-- v11 -->
<g id="v11_Room" class="node"><title>v11</title>
<ellipse fill="none" stroke="black" cx="734" cy="-69" rx="21.5" ry="11"/>
<text text-anchor="middle" x="734" y="-66.8" font-family="sans-serif" font-size="9.00">Room</text>
</g>
<!-- e11&#45;&gt;v11 -->
<g id="edge46" class="edge"><title>e11&#45;&gt;v11</title>
<path fill="none" stroke="green" d="M577,-242C577,-242 669.94,-243.738 711,-196 740.145,-162.115 737.702,-103.765 735.307,-80.2564"/>
</g>
<!-- v0&#45;&gt;osecond -->
<g id="edge40" class="edge"><title>v0&#45;&gt;osecond</title>
<path fill="none" stroke="green" d="M285.717,-253.283C275.52,-263.48 259.286,-279.714 249.438,-289.562"/>
</g>
<!-- v0&#45;&gt;v1 -->
<g id="edge4" class="edge"><title>v0&#45;&gt;v1</title>
<path fill="none" stroke="black" d="M285.066,-232.491C275.356,-223.192 260.155,-208.63 247,-196 204.394,-155.095 154.062,-106.649 130.077,-83.5559"/>
<polygon fill="black" stroke="black" points="126.185,-79.8088 131.348,-81.6561 127.986,-81.5429 129.787,-83.2769 129.787,-83.2769 129.787,-83.2769 127.986,-81.5429 128.227,-84.8977 126.185,-79.8088 126.185,-79.8088"/>
</g>
<!-- v0&#45;&gt;v2 -->
<g id="edge5" class="edge"><title>v0&#45;&gt;v2</title>
<path fill="none" stroke="black" d="M296.609,-231.988C297.974,-223.494 299.955,-211.17 301.522,-201.417"/>
<polygon fill="black" stroke="black" points="302.344,-196.304 303.772,-201.598 301.947,-198.772 301.551,-201.241 301.551,-201.241 301.551,-201.241 301.947,-198.772 299.329,-200.883 302.344,-196.304 302.344,-196.304"/>
</g>
<!-- v0&#45;&gt;v7 -->
<g id="edge6" class="edge"><title>v0&#45;&gt;v7</title>
<path fill="none" stroke="black" d="M308.601,-233.704C355.058,-205.369 507.442,-112.426 559.434,-80.7139"/>
<polygon fill="black" stroke="black" points="563.862,-78.0134 560.765,-82.5379 561.727,-79.3152 559.593,-80.617 559.593,-80.617 559.593,-80.617 561.727,-79.3152 558.422,-78.6961 563.862,-78.0134 563.862,-78.0134"/>
</g>
<!-- v0&#45;&gt;v11 -->
<g id="edge7" class="edge"><title>v0&#45;&gt;v11</title>
<path fill="none" stroke="black" d="M312.753,-235.044C382.602,-207.678 638.328,-107.484 713.245,-78.1317"/>
<polygon fill="black" stroke="black" points="717.914,-76.3023 714.08,-80.2213 715.587,-77.2143 713.259,-78.1264 713.259,-78.1264 713.259,-78.1264 715.587,-77.2143 712.438,-76.0314 717.914,-76.3023 717.914,-76.3023"/>
</g>
<!-- v0&#45;&gt;v13 -->
<g id="edge8" class="edge"><title>v0&#45;&gt;v13</title>
<path fill="none" stroke="black" d="M287,-232.19C279.868,-223.152 269.437,-209.183 262,-196 240.385,-157.683 221.83,-109.006 213.186,-84.9085"/>
<polygon fill="black" stroke="black" points="211.494,-80.152 215.29,-84.1089 212.332,-82.5075 213.17,-84.8629 213.17,-84.8629 213.17,-84.8629 212.332,-82.5075 211.05,-85.6169 211.494,-80.152 211.494,-80.152"/>
</g>
<!-- v4 -->
<g id="v4_FireDetector" class="node"><title>v4</title>
<ellipse fill="none" stroke="black" cx="52" cy="-11" rx="50.5" ry="11"/>
<text text-anchor="middle" x="52" y="-8.8" font-family="sans-serif" font-size="9.00">FireDetector</text>
</g>
<!-- v1&#45;&gt;v4 -->
<g id="edge9" class="edge"><title>v1&#45;&gt;v4</title>
<path fill="none" stroke="black" d="M105.143,-58.5004C94.6338,-49.3046 78.6172,-35.2901 66.9143,-25.05"/>
<polygon fill="black" stroke="black" points="63.1251,-21.7345 68.3697,-23.3337 65.0066,-23.3807 66.888,-25.027 66.888,-25.027 66.888,-25.027 65.0066,-23.3807 65.4064,-26.7203 63.1251,-21.7345 63.1251,-21.7345"/>
</g>
<!-- v3 -->
<g id="v3_Actor" class="node"><title>v3</title>
<ellipse fill="none" stroke="black" cx="321" cy="-127" rx="25" ry="11"/>
<text text-anchor="middle" x="321" y="-124.8" font-family="sans-serif" font-size="9.00">Actor</text>
</g>
<!-- v2&#45;&gt;v3 -->
<g id="edge10" class="edge"><title>v2&#45;&gt;v3</title>
<path fill="none" stroke="black" d="M307.039,-173.988C309.674,-165.308 313.523,-152.629 316.513,-142.781"/>
<polygon fill="black" stroke="black" points="317.987,-137.925 318.688,-143.363 317.261,-140.317 316.535,-142.709 316.535,-142.709 316.535,-142.709 317.261,-140.317 314.382,-142.056 317.987,-137.925 317.987,-137.925"/>
</g>
<!-- v3&#45;&gt;v5 -->
<g id="edge11" class="edge"><title>v3&#45;&gt;v5</title>
<path fill="none" stroke="black" d="M313.536,-116.5C306.499,-107.544 295.871,-94.018 287.889,-83.859"/>
<polygon fill="black" stroke="black" points="284.649,-79.7345 289.507,-82.276 286.193,-81.7003 287.738,-83.6661 287.738,-83.6661 287.738,-83.6661 286.193,-81.7003 285.968,-85.0562 284.649,-79.7345 284.649,-79.7345"/>
</g>
<!-- v4&#45;&gt;oa -->
<g id="edge20" class="edge"><title>v4&#45;&gt;oa</title>
<path fill="none" stroke="green" d="M45.773,-21.9389C34.3034,-41.2258 11,-85.4068 11,-126 11,-186 11,-186 11,-186 11,-224.889 11,-271.373 11,-289.849"/>
</g>
<!-- v4&#45;&gt;ob -->
<g id="edge21" class="edge"><title>v4&#45;&gt;ob</title>
<path fill="none" stroke="green" d="M52,-22.0648C52,-41.9341 52,-87.6042 52,-126 52,-186 52,-186 52,-186 52,-224.889 52,-271.373 52,-289.849"/>
</g>
<!-- v6 -->
<g id="v6_Malware" class="node"><title>v6</title>
<ellipse fill="none" stroke="black" cx="153" cy="-11" rx="32.5" ry="11"/>
<text text-anchor="middle" x="153" y="-8.8" font-family="sans-serif" font-size="9.00">Malware</text>
</g>
<!-- v5&#45;&gt;v6 -->
<g id="edge12" class="edge"><title>v5&#45;&gt;v6</title>
<path fill="none" stroke="black" d="M259.497,-60.0953C237.591,-50.2026 200.023,-33.2364 175.865,-22.3261"/>
<polygon fill="black" stroke="black" points="171.221,-20.2287 176.704,-20.2361 173.499,-21.2577 175.777,-22.2867 175.777,-22.2867 175.777,-22.2867 173.499,-21.2577 174.851,-24.3373 171.221,-20.2287 171.221,-20.2287"/>
</g>
<!-- v7&#45;&gt;v8 -->
<g id="edge13" class="edge"><title>v7&#45;&gt;v8</title>
<path fill="none" stroke="black" d="M595.436,-62.8358C624.839,-54.546 684.126,-37.6131 734,-22 736.62,-21.1799 739.36,-20.2987 742.075,-19.4115"/>
<polygon fill="black" stroke="black" points="746.901,-17.8201 742.858,-21.5228 744.527,-18.603 742.153,-19.386 742.153,-19.386 742.153,-19.386 744.527,-18.603 741.448,-17.2491 746.901,-17.8201 746.901,-17.8201"/>
</g>
<!-- v7&#45;&gt;v9 -->
<g id="edge14" class="edge"><title>v7&#45;&gt;v9</title>
<path fill="none" stroke="black" d="M590.487,-60.2134C606.612,-50.9044 633.792,-35.2128 652.749,-24.2683"/>
<polygon fill="black" stroke="black" points="657.38,-21.5949 654.175,-26.0434 655.215,-22.8449 653.05,-24.0949 653.05,-24.0949 653.05,-24.0949 655.215,-22.8449 651.925,-22.1463 657.38,-21.5949 657.38,-21.5949"/>
</g>
<!-- v10 -->
<g id="v10_Servers" class="node"><title>v10</title>
<ellipse fill="none" stroke="black" cx="573" cy="-11" rx="32.5" ry="11"/>
<text text-anchor="middle" x="573" y="-8.8" font-family="sans-serif" font-size="9.00">Servers</text>
</g>
<!-- v7&#45;&gt;v10 -->
<g id="edge15" class="edge"><title>v7&#45;&gt;v10</title>
<path fill="none" stroke="black" d="M576.285,-57.9883C575.678,-49.4941 574.798,-37.1697 574.101,-27.4169"/>
<polygon fill="black" stroke="black" points="573.736,-22.3039 576.337,-27.1308 573.914,-24.7975 574.092,-27.2912 574.092,-27.2912 574.092,-27.2912 573.914,-24.7975 571.848,-27.4515 573.736,-22.3039 573.736,-22.3039"/>
</g>
<!-- v11&#45;&gt;v12 -->
<g id="edge16" class="edge"><title>v11&#45;&gt;v12</title>
<path fill="none" stroke="black" d="M748.773,-60.679C767.986,-51.1575 801.743,-34.428 824.24,-23.2793"/>
<polygon fill="black" stroke="black" points="828.86,-20.9896 825.379,-25.2259 826.62,-22.0997 824.38,-23.2098 824.38,-23.2098 824.38,-23.2098 826.62,-22.0997 823.381,-21.1938 828.86,-20.9896 828.86,-20.9896"/>
</g>
<!-- v13&#45;&gt;v14 -->
<g id="edge17" class="edge"><title>v13&#45;&gt;v14</title>
<path fill="none" stroke="black" d="M215.294,-58.5004C222.087,-49.6537 232.305,-36.3472 240.072,-26.2321"/>
<polygon fill="black" stroke="black" points="243.233,-22.1148 241.973,-27.4509 241.711,-24.0977 240.188,-26.0806 240.188,-26.0806 240.188,-26.0806 241.711,-24.0977 238.403,-24.7103 243.233,-22.1148 243.233,-22.1148"/>
</g>
</g>
</svg>
