<?xml version="1.0" encoding="UTF-8" standalone="no"?>
<?xml-stylesheet href="style.css" type="text/css"?>
<!DOCTYPE svg PUBLIC "-//W3C//DTD SVG 1.1//EN"
 "http://www.w3.org/Graphics/SVG/1.1/DTD/svg11.dtd">
<!-- Generated by graphviz version 2.38.0 (20140413.2041)
 -->
<!-- Title: 10.svg Pages: 1 -->
<svg width="1042pt" height="316pt"
 viewBox="0.00 0.00 1041.50 316.00" xmlns="http://www.w3.org/2000/svg" xmlns:xlink="http://www.w3.org/1999/xlink">
<g id="graph0" class="graph" transform="scale(1 1) rotate(0) translate(4 312)">
<title>10.svg</title>
<polygon fill="white" stroke="none" points="-4,4 -4,-312 1037.5,-312 1037.5,4 -4,4"/>
<!-- r0 -->
<g id="node1" class="node"><title>r0</title>
<polygon fill="none" stroke="black" stroke-dasharray="5,2" points="513.5,-308 490.5,-308 490.5,-290 513.5,-290 513.5,-308"/>
<text text-anchor="middle" x="502" y="-296.8" font-family="serif" font-size="9.00">0</text>
</g>
<!-- v0 -->
<g id="v0_Floor" class="node"><title>v0</title>
<ellipse fill="none" stroke="black" cx="553" cy="-243" rx="25" ry="11"/>
<text text-anchor="middle" x="553" y="-240.8" font-family="sans-serif" font-size="9.00">Floor</text>
</g>
<!-- r0&#45;&gt;v0 -->
<g id="edge1" class="edge"><title>r0&#45;&gt;v0</title>
<path fill="none" stroke="black" d="M509.969,-289.562C518.081,-280.973 530.781,-267.526 540.285,-257.463"/>
<polygon fill="black" stroke="black" points="543.882,-253.654 542.085,-258.834 542.166,-255.472 540.449,-257.289 540.449,-257.289 540.449,-257.289 542.166,-255.472 538.813,-255.744 543.882,-253.654 543.882,-253.654"/>
</g>
<!-- r1 -->
<g id="node2" class="node"><title>r1</title>
<polygon fill="none" stroke="black" stroke-dasharray="5,2" points="850.5,-308 827.5,-308 827.5,-290 850.5,-290 850.5,-308"/>
<text text-anchor="middle" x="839" y="-296.8" font-family="serif" font-size="9.00">1</text>
</g>
<!-- v16 -->
<g id="v16_ControlProcess" class="node"><title>v16</title>
<ellipse fill="none" stroke="black" cx="766" cy="-11" rx="57.5" ry="11"/>
<text text-anchor="middle" x="766" y="-8.8" font-family="sans-serif" font-size="9.00">ControlProcess</text>
</g>
<!-- r1&#45;&gt;v16 -->
<g id="edge2" class="edge"><title>r1&#45;&gt;v16</title>
<path fill="none" stroke="black" d="M839,-289.849C839,-271.373 839,-224.889 839,-186 839,-186 839,-186 839,-126 839,-94.6202 836.903,-84.4382 820,-58 811.374,-44.508 797.579,-32.8542 786.092,-24.6521"/>
<polygon fill="black" stroke="black" points="781.978,-21.7895 787.367,-22.7985 784.03,-23.2174 786.082,-24.6454 786.082,-24.6454 786.082,-24.6454 784.03,-23.2174 784.797,-26.4923 781.978,-21.7895 781.978,-21.7895"/>
</g>
<!-- r2 -->
<g id="node3" class="node"><title>r2</title>
<polygon fill="none" stroke="black" stroke-dasharray="5,2" points="891.5,-308 868.5,-308 868.5,-290 891.5,-290 891.5,-308"/>
<text text-anchor="middle" x="880" y="-296.8" font-family="serif" font-size="9.00">2</text>
</g>
<!-- v17 -->
<g id="v17_Database" class="node"><title>v17</title>
<ellipse fill="none" stroke="black" cx="878" cy="-11" rx="36" ry="11"/>
<text text-anchor="middle" x="878" y="-8.8" font-family="sans-serif" font-size="9.00">Database</text>
</g>
<!-- r2&#45;&gt;v17 -->
<g id="edge3" class="edge"><title>r2&#45;&gt;v17</title>
<path fill="none" stroke="black" d="M880,-289.849C880,-271.373 880,-224.889 880,-186 880,-186 880,-186 880,-126 880,-90.5984 879.024,-49.0224 878.436,-27.1768"/>
<polygon fill="black" stroke="black" points="878.295,-22.0638 880.682,-27.0001 878.364,-24.5628 878.432,-27.0619 878.432,-27.0619 878.432,-27.0619 878.364,-24.5628 876.183,-27.1237 878.295,-22.0638 878.295,-22.0638"/>
</g>
<!-- oa -->
<g id="node4" class="node"><title>oa</title>
<text text-anchor="middle" x="962" y="-296.8" font-family="serif" font-size="9.00">a</text>
</g>
<!-- ob -->
<g id="node5" class="node"><title>ob</title>
<text text-anchor="middle" x="1003" y="-296.8" font-family="serif" font-size="9.00">b</text>
</g>
<!-- obusNetwork -->
<g id="node6" class="node"><title>obusNetwork</title>
<text text-anchor="middle" x="246" y="-296.8" font-family="serif" font-size="9.00">busNetwork</text>
</g>
<!-- e3 -->
<g id="node15" class="node"><title>e3</title>
</g>
<!-- obusNetwork&#45;&gt;e3 -->
<g id="edge22" class="edge"><title>obusNetwork&#45;&gt;e3</title>
<path fill="none" stroke="green" d="M246,-289.801C246,-255.842 246,-128 246,-128"/>
</g>
<!-- ocontrol -->
<g id="node7" class="node"><title>ocontrol</title>
<text text-anchor="middle" x="624" y="-296.8" font-family="serif" font-size="9.00">control</text>
</g>
<!-- e4 -->
<g id="node16" class="node"><title>e4</title>
</g>
<!-- ocontrol&#45;&gt;e4 -->
<g id="edge27" class="edge"><title>ocontrol&#45;&gt;e4</title>
<path fill="none" stroke="green" d="M623.518,-289.801C621.52,-255.842 614,-128 614,-128"/>
</g>
<!-- oent -->
<g id="node8" class="node"><title>oent</title>
<text text-anchor="middle" x="780" y="-296.8" font-family="serif" font-size="9.00">ent</text>
</g>
<!-- e5 -->
<g id="node17" class="node"><title>e5</title>
</g>
<!-- oent&#45;&gt;e5 -->
<g id="edge30" class="edge"><title>oent&#45;&gt;e5</title>
<path fill="none" stroke="green" d="M779.759,-289.801C778.76,-255.842 775,-128 775,-128"/>
</g>
<!-- oinstallationBus -->
<g id="node9" class="node"><title>oinstallationBus</title>
<text text-anchor="middle" x="147" y="-296.8" font-family="serif" font-size="9.00">installationBus</text>
</g>
<!-- e6 -->
<g id="node18" class="node"><title>e6</title>
</g>
<!-- oinstallationBus&#45;&gt;e6 -->
<g id="edge33" class="edge"><title>oinstallationBus&#45;&gt;e6</title>
<path fill="none" stroke="green" d="M147,-289.801C147,-255.842 147,-128 147,-128"/>
</g>
<!-- oip_network -->
<g id="node10" class="node"><title>oip_network</title>
<text text-anchor="middle" x="704" y="-296.8" font-family="serif" font-size="9.00">ip_network</text>
</g>
<!-- e7 -->
<g id="node19" class="node"><title>e7</title>
</g>
<!-- oip_network&#45;&gt;e7 -->
<g id="edge37" class="edge"><title>oip_network&#45;&gt;e7</title>
<path fill="none" stroke="green" d="M704.569,-289.885C707.42,-249.27 720,-70 720,-70"/>
</g>
<!-- osecond -->
<g id="node11" class="node"><title>osecond</title>
<text text-anchor="middle" x="556" y="-296.8" font-family="serif" font-size="9.00">second</text>
</g>
<!-- oserver -->
<g id="node12" class="node"><title>oserver</title>
<text text-anchor="middle" x="450" y="-296.8" font-family="serif" font-size="9.00">server</text>
</g>
<!-- e9 -->
<g id="node20" class="node"><title>e9</title>
</g>
<!-- oserver&#45;&gt;e9 -->
<g id="edge42" class="edge"><title>oserver&#45;&gt;e9</title>
<path fill="none" stroke="green" d="M451.726,-289.945C457.229,-264.265 474,-186 474,-186"/>
</g>
<!-- otoilet -->
<g id="node13" class="node"><title>otoilet</title>
<text text-anchor="middle" x="389" y="-296.8" font-family="serif" font-size="9.00">toilet</text>
</g>
<!-- e10 -->
<g id="node21" class="node"><title>e10</title>
</g>
<!-- otoilet&#45;&gt;e10 -->
<g id="edge45" class="edge"><title>otoilet&#45;&gt;e10</title>
<path fill="none" stroke="green" d="M389.938,-289.562C391.625,-274.375 395,-244 395,-244"/>
</g>
<!-- e0 -->
<g id="node14" class="node"><title>e0</title>
</g>
<!-- v4 -->
<g id="v4_Laptop" class="node"><title>v4</title>
<ellipse fill="none" stroke="black" cx="380" cy="-69" rx="29" ry="11"/>
<text text-anchor="middle" x="380" y="-66.8" font-family="sans-serif" font-size="9.00">Laptop</text>
</g>
<!-- e0&#45;&gt;v4 -->
<g id="edge19" class="edge"><title>e0&#45;&gt;v4</title>
<path fill="none" stroke="green" d="M380,-122.167C380,-113.586 380,-92.5957 380,-80.0117"/>
<polygon fill="green" stroke="green" points="383.5,-125.3 376.5,-125.3 376.5,-123.9 383.5,-123.9 383.5,-125.3"/>
<polyline fill="none" stroke="green" points="380,-126 380,-122.5 "/>
</g>
<!-- v2 -->
<g id="v2_SmartLight" class="node"><title>v2</title>
<ellipse fill="none" stroke="black" cx="43" cy="-11" rx="43" ry="11"/>
<text text-anchor="middle" x="43" y="-8.8" font-family="sans-serif" font-size="9.00">SmartLight</text>
</g>
<!-- e3&#45;&gt;v2 -->
<g id="edge23" class="edge"><title>e3&#45;&gt;v2</title>
<path fill="none" stroke="green" d="M246,-126C246,-126 108.095,-48.5556 59.6123,-21.3291"/>
</g>
<!-- e3&#45;&gt;v4 -->
<g id="edge24" class="edge"><title>e3&#45;&gt;v4</title>
<path fill="none" stroke="green" d="M246,-126C246,-126 324.95,-93.0061 361.649,-77.6691"/>
</g>
<!-- v7 -->
<g id="v7_HVAC" class="node"><title>v7</title>
<ellipse fill="none" stroke="black" cx="197" cy="-69" rx="21.5" ry="11"/>
<text text-anchor="middle" x="197" y="-66.8" font-family="sans-serif" font-size="9.00">HVAC</text>
</g>
<!-- e3&#45;&gt;v7 -->
<g id="edge25" class="edge"><title>e3&#45;&gt;v7</title>
<path fill="none" stroke="green" d="M246,-126C246,-126 219.009,-95.1528 205.091,-79.2473"/>
</g>
<!-- v12 -->
<g id="v12_FireDetector" class="node"><title>v12</title>
<ellipse fill="none" stroke="black" cx="238" cy="-11" rx="50.5" ry="11"/>
<text text-anchor="middle" x="238" y="-8.8" font-family="sans-serif" font-size="9.00">FireDetector</text>
</g>
<!-- e3&#45;&gt;v12 -->
<g id="edge26" class="edge"><title>e3&#45;&gt;v12</title>
<path fill="none" stroke="green" d="M246,-126C246,-126 240.668,-50.0168 238.71,-22.1167"/>
</g>
<!-- v9 -->
<g id="v9_Hallway" class="node"><title>v9</title>
<ellipse fill="none" stroke="black" cx="545" cy="-11" rx="32.5" ry="11"/>
<text text-anchor="middle" x="545" y="-8.8" font-family="sans-serif" font-size="9.00">Hallway</text>
</g>
<!-- e4&#45;&gt;v9 -->
<g id="edge28" class="edge"><title>e4&#45;&gt;v9</title>
<path fill="none" stroke="green" d="M614,-126C614,-126 568.01,-50.0168 551.123,-22.1167"/>
</g>
<!-- v14 -->
<g id="v14_Room" class="node"><title>v14</title>
<ellipse fill="none" stroke="black" cx="641" cy="-69" rx="21.5" ry="11"/>
<text text-anchor="middle" x="641" y="-66.8" font-family="sans-serif" font-size="9.00">Room</text>
</g>
<!-- e4&#45;&gt;v14 -->
<g id="edge29" class="edge"><title>e4&#45;&gt;v14</title>
<path fill="none" stroke="green" d="M614,-126C614,-126 628.561,-95.7988 636.297,-79.7545"/>
</g>
<!-- e5&#45;&gt;v9 -->
<g id="edge31" class="edge"><title>e5&#45;&gt;v9</title>
<path fill="none" stroke="green" d="M775,-126C775,-126 720.373,-82.7427 671,-58 636.648,-40.785 594.235,-26.6519 568.423,-18.7793"/>
</g>
<!-- v10 -->
<g id="v10_Entrance" class="node"><title>v10</title>
<ellipse fill="none" stroke="black" cx="775" cy="-69" rx="36" ry="11"/>
<text text-anchor="middle" x="775" y="-66.8" font-family="sans-serif" font-size="9.00">Entrance</text>
</g>
<!-- e5&#45;&gt;v10 -->
<g id="edge32" class="edge"><title>e5&#45;&gt;v10</title>
<path fill="none" stroke="green" d="M775,-126C775,-126 775,-96.1193 775,-80.0117"/>
</g>
<!-- e6&#45;&gt;v2 -->
<g id="edge34" class="edge"><title>e6&#45;&gt;v2</title>
<path fill="none" stroke="green" d="M147,-126C147,-126 116.026,-102.583 95,-80 77.1764,-60.856 59.2821,-35.8944 49.8388,-22.1629"/>
</g>
<!-- e6&#45;&gt;v7 -->
<g id="edge35" class="edge"><title>e6&#45;&gt;v7</title>
<path fill="none" stroke="green" d="M147,-126C147,-126 174.542,-95.1528 188.744,-79.2473"/>
</g>
<!-- e6&#45;&gt;v12 -->
<g id="edge36" class="edge"><title>e6&#45;&gt;v12</title>
<path fill="none" stroke="green" d="M147,-126C147,-126 147.326,-83.2188 166,-58 178.623,-40.9529 199.609,-28.5974 215.677,-21.0112"/>
</g>
<!-- v15 -->
<g id="v15_Wokrstation" class="node"><title>v15</title>
<ellipse fill="none" stroke="black" cx="643" cy="-11" rx="47" ry="11"/>
<text text-anchor="middle" x="643" y="-8.8" font-family="sans-serif" font-size="9.00">Wokrstation</text>
</g>
<!-- e7&#45;&gt;v15 -->
<g id="edge38" class="edge"><title>e7&#45;&gt;v15</title>
<path fill="none" stroke="green" d="M720,-68C720,-68 678.473,-37.7988 656.412,-21.7545"/>
</g>
<!-- e7&#45;&gt;v16 -->
<g id="edge39" class="edge"><title>e7&#45;&gt;v16</title>
<path fill="none" stroke="green" d="M720,-68C720,-68 744.545,-38.1193 757.776,-22.0117"/>
</g>
<!-- e7&#45;&gt;v17 -->
<g id="edge40" class="edge"><title>e7&#45;&gt;v17</title>
<path fill="none" stroke="green" d="M720,-68C720,-68 724.62,-61.2497 730,-58 750.613,-45.5492 814.758,-28.0203 851.481,-18.6021"/>
</g>
<!-- v6 -->
<g id="v6_Room" class="node"><title>v6</title>
<ellipse fill="none" stroke="black" cx="323" cy="-127" rx="21.5" ry="11"/>
<text text-anchor="middle" x="323" y="-124.8" font-family="sans-serif" font-size="9.00">Room</text>
</g>
<!-- e9&#45;&gt;v6 -->
<g id="edge43" class="edge"><title>e9&#45;&gt;v6</title>
<path fill="none" stroke="green" d="M474,-184C474,-184 466.19,-177.536 459,-174 418.964,-154.31 368.425,-139.665 341.644,-132.637"/>
</g>
<!-- e9&#45;&gt;v9 -->
<g id="edge44" class="edge"><title>e9&#45;&gt;v9</title>
<path fill="none" stroke="green" d="M474,-184C474,-184 474.191,-108.609 501,-58 508.863,-43.1561 522.9,-29.7225 533.008,-21.2576"/>
</g>
<!-- v1 -->
<g id="v1_Room" class="node"><title>v1</title>
<ellipse fill="none" stroke="black" cx="395" cy="-185" rx="21.5" ry="11"/>
<text text-anchor="middle" x="395" y="-182.8" font-family="sans-serif" font-size="9.00">Room</text>
</g>
<!-- e10&#45;&gt;v1 -->
<g id="edge46" class="edge"><title>e10&#45;&gt;v1</title>
<path fill="none" stroke="green" d="M395,-242C395,-242 395,-212.119 395,-196.012"/>
</g>
<!-- e10&#45;&gt;v9 -->
<g id="edge47" class="edge"><title>e10&#45;&gt;v9</title>
<path fill="none" stroke="green" d="M395,-242C395,-242 454.331,-229.552 483,-196 529.204,-141.925 541.363,-51.9913 544.209,-22.0449"/>
</g>
<!-- v0&#45;&gt;osecond -->
<g id="edge41" class="edge"><title>v0&#45;&gt;osecond</title>
<path fill="none" stroke="green" d="M553.557,-254.03C554.125,-264.259 554.997,-279.952 555.531,-289.562"/>
</g>
<!-- v0&#45;&gt;v1 -->
<g id="edge4" class="edge"><title>v0&#45;&gt;v1</title>
<path fill="none" stroke="black" d="M534.566,-235.466C505.204,-225.06 447.944,-204.765 416.667,-193.679"/>
<polygon fill="black" stroke="black" points="411.878,-191.982 417.343,-191.532 414.235,-192.817 416.591,-193.653 416.591,-193.653 416.591,-193.653 414.235,-192.817 415.839,-195.773 411.878,-191.982 411.878,-191.982"/>
</g>
<!-- v0&#45;&gt;v6 -->
<g id="edge5" class="edge"><title>v0&#45;&gt;v6</title>
<path fill="none" stroke="black" d="M537.475,-234.193C519.643,-225.175 489.556,-209.806 464,-196 446.491,-186.541 442.755,-182.989 425,-174 397.242,-159.947 364.293,-145.473 343.512,-136.606"/>
<polygon fill="black" stroke="black" points="338.758,-134.584 344.24,-134.47 341.059,-135.562 343.359,-136.541 343.359,-136.541 343.359,-136.541 341.059,-135.562 342.479,-138.611 338.758,-134.584 338.758,-134.584"/>
</g>
<!-- v0&#45;&gt;v9 -->
<g id="edge6" class="edge"><title>v0&#45;&gt;v9</title>
<path fill="none" stroke="black" d="M552.646,-231.82C551.376,-195.304 547.044,-70.7575 545.528,-27.194"/>
<polygon fill="black" stroke="black" points="545.35,-22.062 547.773,-26.9807 545.437,-24.5605 545.524,-27.059 545.524,-27.059 545.524,-27.059 545.437,-24.5605 543.275,-27.1373 545.35,-22.062 545.35,-22.062"/>
</g>
<!-- v0&#45;&gt;v10 -->
<g id="edge7" class="edge"><title>v0&#45;&gt;v10</title>
<path fill="none" stroke="black" d="M564.623,-232.995C601.453,-204.46 715.659,-115.976 758.523,-82.7663"/>
<polygon fill="black" stroke="black" points="762.68,-79.545 760.106,-84.386 760.704,-81.0762 758.728,-82.6073 758.728,-82.6073 758.728,-82.6073 760.704,-81.0762 757.35,-80.8287 762.68,-79.545 762.68,-79.545"/>
</g>
<!-- v0&#45;&gt;v14 -->
<g id="edge8" class="edge"><title>v0&#45;&gt;v14</title>
<path fill="none" stroke="black" d="M561.155,-232.337C575.638,-214.708 605.927,-175.664 623,-138 630.834,-120.718 635.789,-99.365 638.474,-85.2488"/>
<polygon fill="black" stroke="black" points="639.425,-80.0363 640.741,-85.3589 638.976,-82.4958 638.528,-84.9552 638.528,-84.9552 638.528,-84.9552 638.976,-82.4958 636.314,-84.5514 639.425,-80.0363 639.425,-80.0363"/>
</g>
<!-- v1&#45;&gt;v2 -->
<g id="edge9" class="edge"><title>v1&#45;&gt;v2</title>
<path fill="none" stroke="black" d="M373.376,-184.095C327.424,-183.476 217.663,-177.598 137,-138 102.541,-121.084 95.4608,-111.13 73,-80 61.1655,-63.5976 52.5761,-41.7874 47.6948,-27.3413"/>
<polygon fill="black" stroke="black" points="46.0651,-22.3759 49.7622,-26.4249 46.8448,-24.7513 47.6244,-27.1266 47.6244,-27.1266 47.6244,-27.1266 46.8448,-24.7513 45.4866,-27.8283 46.0651,-22.3759 46.0651,-22.3759"/>
</g>
<!-- v3 -->
<g id="v3_Actor" class="node"><title>v3</title>
<ellipse fill="none" stroke="black" cx="424" cy="-127" rx="25" ry="11"/>
<text text-anchor="middle" x="424" y="-124.8" font-family="sans-serif" font-size="9.00">Actor</text>
</g>
<!-- v1&#45;&gt;v3 -->
<g id="edge10" class="edge"><title>v1&#45;&gt;v3</title>
<path fill="none" stroke="black" d="M400.051,-174.246C404.57,-165.52 411.256,-152.608 416.417,-142.643"/>
<polygon fill="black" stroke="black" points="418.811,-138.02 418.51,-143.494 417.662,-140.24 416.512,-142.46 416.512,-142.46 416.512,-142.46 417.662,-140.24 414.514,-141.425 418.811,-138.02 418.811,-138.02"/>
</g>
<!-- v3&#45;&gt;v4 -->
<g id="edge11" class="edge"><title>v3&#45;&gt;v4</title>
<path fill="none" stroke="black" d="M416.536,-116.5C409.499,-107.544 398.871,-94.018 390.889,-83.859"/>
<polygon fill="black" stroke="black" points="387.649,-79.7345 392.507,-82.276 389.193,-81.7003 390.738,-83.6661 390.738,-83.6661 390.738,-83.6661 389.193,-81.7003 388.968,-85.0562 387.649,-79.7345 387.649,-79.7345"/>
</g>
<!-- v5 -->
<g id="v5_Malware" class="node"><title>v5</title>
<ellipse fill="none" stroke="black" cx="422" cy="-11" rx="32.5" ry="11"/>
<text text-anchor="middle" x="422" y="-8.8" font-family="sans-serif" font-size="9.00">Malware</text>
</g>
<!-- v4&#45;&gt;v5 -->
<g id="edge12" class="edge"><title>v4&#45;&gt;v5</title>
<path fill="none" stroke="black" d="M387.316,-58.2455C393.979,-49.3616 403.897,-36.1372 411.423,-26.1029"/>
<polygon fill="black" stroke="black" points="414.485,-22.0198 413.285,-27.3698 412.985,-24.0198 411.485,-26.0198 411.485,-26.0198 411.485,-26.0198 412.985,-24.0198 409.685,-24.6698 414.485,-22.0198 414.485,-22.0198"/>
</g>
<!-- v6&#45;&gt;v7 -->
<g id="edge13" class="edge"><title>v6&#45;&gt;v7</title>
<path fill="none" stroke="black" d="M307.55,-119.133C284.879,-109.057 242.566,-90.2515 217.375,-79.0557"/>
<polygon fill="black" stroke="black" points="212.576,-76.9229 218.059,-76.8975 214.861,-77.9382 217.146,-78.9536 217.146,-78.9536 217.146,-78.9536 214.861,-77.9382 216.232,-81.0097 212.576,-76.9229 212.576,-76.9229"/>
</g>
<!-- v6&#45;&gt;v12 -->
<g id="edge14" class="edge"><title>v6&#45;&gt;v12</title>
<path fill="none" stroke="black" d="M315.753,-116.28C300.711,-96.106 266.045,-49.6138 248.533,-26.1263"/>
<polygon fill="black" stroke="black" points="245.471,-22.0199 250.264,-24.6834 246.965,-24.0242 248.46,-26.0284 248.46,-26.0284 248.46,-26.0284 246.965,-24.0242 246.656,-27.3733 245.471,-22.0199 245.471,-22.0199"/>
</g>
<!-- v13 -->
<g id="v13_Servers" class="node"><title>v13</title>
<ellipse fill="none" stroke="black" cx="339" cy="-11" rx="32.5" ry="11"/>
<text text-anchor="middle" x="339" y="-8.8" font-family="sans-serif" font-size="9.00">Servers</text>
</g>
<!-- v6&#45;&gt;v13 -->
<g id="edge15" class="edge"><title>v6&#45;&gt;v13</title>
<path fill="none" stroke="black" d="M324.42,-115.883C327.236,-95.8216 333.54,-50.899 336.861,-27.2409"/>
<polygon fill="black" stroke="black" points="337.56,-22.2579 339.093,-27.5222 337.213,-24.7337 336.865,-27.2094 336.865,-27.2094 336.865,-27.2094 337.213,-24.7337 334.637,-26.8966 337.56,-22.2579 337.56,-22.2579"/>
</g>
<!-- v8 -->
<g id="v8_Malware" class="node"><title>v8</title>
<ellipse fill="none" stroke="black" cx="137" cy="-11" rx="32.5" ry="11"/>
<text text-anchor="middle" x="137" y="-8.8" font-family="sans-serif" font-size="9.00">Malware</text>
</g>
<!-- v7&#45;&gt;v8 -->
<g id="edge16" class="edge"><title>v7&#45;&gt;v8</title>
<path fill="none" stroke="black" d="M187.36,-59.0026C177.565,-49.8606 162.287,-35.6014 151.126,-25.1846"/>
<polygon fill="black" stroke="black" points="147.219,-21.5373 152.409,-23.304 149.046,-23.2431 150.874,-24.9489 150.874,-24.9489 150.874,-24.9489 149.046,-23.2431 149.339,-26.5938 147.219,-21.5373 147.219,-21.5373"/>
</g>
<!-- v11 -->
<g id="v11_FireDetector" class="node"><title>v11</title>
<ellipse fill="none" stroke="black" cx="983" cy="-11" rx="50.5" ry="11"/>
<text text-anchor="middle" x="983" y="-8.8" font-family="sans-serif" font-size="9.00">FireDetector</text>
</g>
<!-- v10&#45;&gt;v11 -->
<g id="edge17" class="edge"><title>v10&#45;&gt;v11</title>
<path fill="none" stroke="black" d="M800.505,-61.1333C837.615,-51.142 906.606,-32.5677 948.308,-21.3403"/>
<polygon fill="black" stroke="black" points="953.254,-20.0086 949.011,-23.4811 950.84,-20.6585 948.426,-21.3085 948.426,-21.3085 948.426,-21.3085 950.84,-20.6585 947.841,-19.1359 953.254,-20.0086 953.254,-20.0086"/>
</g>
<!-- v11&#45;&gt;oa -->
<g id="edge20" class="edge"><title>v11&#45;&gt;oa</title>
<path fill="none" stroke="green" d="M979.811,-22.2573C973.936,-42.0884 962,-87.1594 962,-126 962,-186 962,-186 962,-186 962,-224.889 962,-271.373 962,-289.849"/>
</g>
<!-- v11&#45;&gt;ob -->
<g id="edge21" class="edge"><title>v11&#45;&gt;ob</title>
<path fill="none" stroke="green" d="M986.038,-22.2681C991.633,-42.1176 1003,-87.2187 1003,-126 1003,-186 1003,-186 1003,-186 1003,-224.889 1003,-271.373 1003,-289.849"/>
</g>
<!-- v14&#45;&gt;v15 -->
<g id="edge18" class="edge"><title>v14&#45;&gt;v15</title>
<path fill="none" stroke="black" d="M641.358,-57.9883C641.661,-49.4941 642.101,-37.1697 642.449,-27.4169"/>
<polygon fill="black" stroke="black" points="642.632,-22.3039 644.702,-27.381 642.543,-24.8023 642.453,-27.3007 642.453,-27.3007 642.453,-27.3007 642.543,-24.8023 640.205,-27.2203 642.632,-22.3039 642.632,-22.3039"/>
</g>
</g>
</svg>
