<?xml version="1.0" encoding="UTF-8" standalone="no"?>
<?xml-stylesheet href="style.css" type="text/css"?>
<!DOCTYPE svg PUBLIC "-//W3C//DTD SVG 1.1//EN"
 "http://www.w3.org/Graphics/SVG/1.1/DTD/svg11.dtd">
<!-- Generated by graphviz version 2.38.0 (20140413.2041)
 -->
<!-- Title: 11.svg Pages: 1 -->
<svg width="1024pt" height="316pt"
 viewBox="0.00 0.00 1024.00 316.00" xmlns="http://www.w3.org/2000/svg" xmlns:xlink="http://www.w3.org/1999/xlink">
<g id="graph0" class="graph" transform="scale(1 1) rotate(0) translate(4 312)">
<title>11.svg</title>
<polygon fill="white" stroke="none" points="-4,4 -4,-312 1020,-312 1020,4 -4,4"/>
<!-- r0 -->
<g id="node1" class="node"><title>r0</title>
<polygon fill="none" stroke="black" stroke-dasharray="5,2" points="487,-308 464,-308 464,-290 487,-290 487,-308"/>
<text text-anchor="middle" x="475.5" y="-296.8" font-family="serif" font-size="9.00">0</text>
</g>
<!-- v0 -->
<g id="v0_Floor" class="node"><title>v0</title>
<ellipse fill="none" stroke="black" cx="529.5" cy="-243" rx="25" ry="11"/>
<text text-anchor="middle" x="529.5" y="-240.8" font-family="sans-serif" font-size="9.00">Floor</text>
</g>
<!-- r0&#45;&gt;v0 -->
<g id="edge1" class="edge"><title>r0&#45;&gt;v0</title>
<path fill="none" stroke="black" d="M483.938,-289.562C492.709,-280.791 506.545,-266.955 516.671,-256.829"/>
<polygon fill="black" stroke="black" points="520.217,-253.283 518.273,-258.409 518.449,-255.051 516.682,-256.818 516.682,-256.818 516.682,-256.818 518.449,-255.051 515.091,-255.227 520.217,-253.283 520.217,-253.283"/>
</g>
<!-- r1 -->
<g id="node2" class="node"><title>r1</title>
<polygon fill="none" stroke="black" stroke-dasharray="5,2" points="833,-308 810,-308 810,-290 833,-290 833,-308"/>
<text text-anchor="middle" x="821.5" y="-296.8" font-family="serif" font-size="9.00">1</text>
</g>
<!-- v16 -->
<g id="v16_ControlProcess" class="node"><title>v16</title>
<ellipse fill="none" stroke="black" cx="748.5" cy="-11" rx="57.5" ry="11"/>
<text text-anchor="middle" x="748.5" y="-8.8" font-family="sans-serif" font-size="9.00">ControlProcess</text>
</g>
<!-- r1&#45;&gt;v16 -->
<g id="edge2" class="edge"><title>r1&#45;&gt;v16</title>
<path fill="none" stroke="black" d="M821.5,-289.849C821.5,-271.373 821.5,-224.889 821.5,-186 821.5,-186 821.5,-186 821.5,-126 821.5,-94.6202 819.403,-84.4382 802.5,-58 793.874,-44.508 780.079,-32.8542 768.592,-24.6521"/>
<polygon fill="black" stroke="black" points="764.478,-21.7895 769.867,-22.7985 766.53,-23.2174 768.582,-24.6454 768.582,-24.6454 768.582,-24.6454 766.53,-23.2174 767.297,-26.4923 764.478,-21.7895 764.478,-21.7895"/>
</g>
<!-- r2 -->
<g id="node3" class="node"><title>r2</title>
<polygon fill="none" stroke="black" stroke-dasharray="5,2" points="874,-308 851,-308 851,-290 874,-290 874,-308"/>
<text text-anchor="middle" x="862.5" y="-296.8" font-family="serif" font-size="9.00">2</text>
</g>
<!-- v17 -->
<g id="v17_Database" class="node"><title>v17</title>
<ellipse fill="none" stroke="black" cx="860.5" cy="-11" rx="36" ry="11"/>
<text text-anchor="middle" x="860.5" y="-8.8" font-family="sans-serif" font-size="9.00">Database</text>
</g>
<!-- r2&#45;&gt;v17 -->
<g id="edge3" class="edge"><title>r2&#45;&gt;v17</title>
<path fill="none" stroke="black" d="M862.5,-289.849C862.5,-271.373 862.5,-224.889 862.5,-186 862.5,-186 862.5,-186 862.5,-126 862.5,-90.5984 861.524,-49.0224 860.936,-27.1768"/>
<polygon fill="black" stroke="black" points="860.795,-22.0638 863.182,-27.0001 860.864,-24.5628 860.932,-27.0619 860.932,-27.0619 860.932,-27.0619 860.864,-24.5628 858.683,-27.1237 860.795,-22.0638 860.795,-22.0638"/>
</g>
<!-- oa -->
<g id="node4" class="node"><title>oa</title>
<text text-anchor="middle" x="944.5" y="-296.8" font-family="serif" font-size="9.00">a</text>
</g>
<!-- ob -->
<g id="node5" class="node"><title>ob</title>
<text text-anchor="middle" x="985.5" y="-296.8" font-family="serif" font-size="9.00">b</text>
</g>
<!-- obusNetwork -->
<g id="node6" class="node"><title>obusNetwork</title>
<text text-anchor="middle" x="254.5" y="-296.8" font-family="serif" font-size="9.00">busNetwork</text>
</g>
<!-- e3 -->
<g id="node15" class="node"><title>e3</title>
</g>
<!-- obusNetwork&#45;&gt;e3 -->
<g id="edge22" class="edge"><title>obusNetwork&#45;&gt;e3</title>
<path fill="none" stroke="green" d="M254.162,-289.801C252.764,-255.842 247.5,-128 247.5,-128"/>
</g>
<!-- ocontrol -->
<g id="node7" class="node"><title>ocontrol</title>
<text text-anchor="middle" x="597.5" y="-296.8" font-family="serif" font-size="9.00">control</text>
</g>
<!-- e4 -->
<g id="node16" class="node"><title>e4</title>
</g>
<!-- ocontrol&#45;&gt;e4 -->
<g id="edge26" class="edge"><title>ocontrol&#45;&gt;e4</title>
<path fill="none" stroke="green" d="M597.162,-289.801C595.764,-255.842 590.5,-128 590.5,-128"/>
</g>
<!-- oent -->
<g id="node8" class="node"><title>oent</title>
<text text-anchor="middle" x="762.5" y="-296.8" font-family="serif" font-size="9.00">ent</text>
</g>
<!-- e5 -->
<g id="node17" class="node"><title>e5</title>
</g>
<!-- oent&#45;&gt;e5 -->
<g id="edge29" class="edge"><title>oent&#45;&gt;e5</title>
<path fill="none" stroke="green" d="M762.259,-289.801C761.26,-255.842 757.5,-128 757.5,-128"/>
</g>
<!-- oinstallationBus -->
<g id="node9" class="node"><title>oinstallationBus</title>
<text text-anchor="middle" x="156.5" y="-296.8" font-family="serif" font-size="9.00">installationBus</text>
</g>
<!-- e6 -->
<g id="node18" class="node"><title>e6</title>
</g>
<!-- oinstallationBus&#45;&gt;e6 -->
<g id="edge32" class="edge"><title>oinstallationBus&#45;&gt;e6</title>
<path fill="none" stroke="green" d="M156.693,-289.801C157.492,-255.842 160.5,-128 160.5,-128"/>
</g>
<!-- oip_network -->
<g id="node10" class="node"><title>oip_network</title>
<text text-anchor="middle" x="686.5" y="-296.8" font-family="serif" font-size="9.00">ip_network</text>
</g>
<!-- e7 -->
<g id="node19" class="node"><title>e7</title>
</g>
<!-- oip_network&#45;&gt;e7 -->
<g id="edge37" class="edge"><title>oip_network&#45;&gt;e7</title>
<path fill="none" stroke="green" d="M687.069,-289.885C689.92,-249.27 702.5,-70 702.5,-70"/>
</g>
<!-- osecond -->
<g id="node11" class="node"><title>osecond</title>
<text text-anchor="middle" x="529.5" y="-296.8" font-family="serif" font-size="9.00">second</text>
</g>
<!-- oserver -->
<g id="node12" class="node"><title>oserver</title>
<text text-anchor="middle" x="423.5" y="-296.8" font-family="serif" font-size="9.00">server</text>
</g>
<!-- e9 -->
<g id="node20" class="node"><title>e9</title>
</g>
<!-- oserver&#45;&gt;e9 -->
<g id="edge42" class="edge"><title>oserver&#45;&gt;e9</title>
<path fill="none" stroke="green" d="M428.175,-289.945C443.079,-264.265 488.5,-186 488.5,-186"/>
</g>
<!-- otoilet -->
<g id="node13" class="node"><title>otoilet</title>
<text text-anchor="middle" x="358.5" y="-296.8" font-family="serif" font-size="9.00">toilet</text>
</g>
<!-- e10 -->
<g id="node21" class="node"><title>e10</title>
</g>
<!-- otoilet&#45;&gt;e10 -->
<g id="edge45" class="edge"><title>otoilet&#45;&gt;e10</title>
<path fill="none" stroke="green" d="M358.5,-289.562C358.5,-274.375 358.5,-244 358.5,-244"/>
</g>
<!-- e0 -->
<g id="node14" class="node"><title>e0</title>
</g>
<!-- v3 -->
<g id="v3_Laptop" class="node"><title>v3</title>
<ellipse fill="none" stroke="black" cx="72.5" cy="-69" rx="29" ry="11"/>
<text text-anchor="middle" x="72.5" y="-66.8" font-family="sans-serif" font-size="9.00">Laptop</text>
</g>
<!-- e0&#45;&gt;v3 -->
<g id="edge19" class="edge"><title>e0&#45;&gt;v3</title>
<path fill="none" stroke="green" d="M72.5,-122.167C72.5,-113.586 72.5,-92.5957 72.5,-80.0117"/>
<polygon fill="green" stroke="green" points="76,-125.3 69,-125.3 69.0001,-123.9 76.0001,-123.9 76,-125.3"/>
<polyline fill="none" stroke="green" points="72.5,-126 72.5001,-122.5 "/>
</g>
<!-- v4 -->
<g id="v4_SmartLight" class="node"><title>v4</title>
<ellipse fill="none" stroke="black" cx="245.5" cy="-11" rx="43" ry="11"/>
<text text-anchor="middle" x="245.5" y="-8.8" font-family="sans-serif" font-size="9.00">SmartLight</text>
</g>
<!-- e3&#45;&gt;v4 -->
<g id="edge23" class="edge"><title>e3&#45;&gt;v4</title>
<path fill="none" stroke="green" d="M247.5,-126C247.5,-126 246.167,-50.0168 245.677,-22.1167"/>
</g>
<!-- v7 -->
<g id="v7_HVAC" class="node"><title>v7</title>
<ellipse fill="none" stroke="black" cx="295.5" cy="-69" rx="21.5" ry="11"/>
<text text-anchor="middle" x="295.5" y="-66.8" font-family="sans-serif" font-size="9.00">HVAC</text>
</g>
<!-- e3&#45;&gt;v7 -->
<g id="edge24" class="edge"><title>e3&#45;&gt;v7</title>
<path fill="none" stroke="green" d="M247.5,-126C247.5,-126 273.94,-95.1528 287.574,-79.2473"/>
</g>
<!-- v12 -->
<g id="v12_FireDetector" class="node"><title>v12</title>
<ellipse fill="none" stroke="black" cx="133.5" cy="-11" rx="50.5" ry="11"/>
<text text-anchor="middle" x="133.5" y="-8.8" font-family="sans-serif" font-size="9.00">FireDetector</text>
</g>
<!-- e3&#45;&gt;v12 -->
<g id="edge25" class="edge"><title>e3&#45;&gt;v12</title>
<path fill="none" stroke="green" d="M247.5,-126C247.5,-126 171.517,-50.0168 143.617,-22.1167"/>
</g>
<!-- v9 -->
<g id="v9_Hallway" class="node"><title>v9</title>
<ellipse fill="none" stroke="black" cx="527.5" cy="-11" rx="32.5" ry="11"/>
<text text-anchor="middle" x="527.5" y="-8.8" font-family="sans-serif" font-size="9.00">Hallway</text>
</g>
<!-- e4&#45;&gt;v9 -->
<g id="edge27" class="edge"><title>e4&#45;&gt;v9</title>
<path fill="none" stroke="green" d="M590.5,-126C590.5,-126 548.509,-50.0168 533.091,-22.1167"/>
</g>
<!-- v14 -->
<g id="v14_Room" class="node"><title>v14</title>
<ellipse fill="none" stroke="black" cx="623.5" cy="-69" rx="21.5" ry="11"/>
<text text-anchor="middle" x="623.5" y="-66.8" font-family="sans-serif" font-size="9.00">Room</text>
</g>
<!-- e4&#45;&gt;v14 -->
<g id="edge28" class="edge"><title>e4&#45;&gt;v14</title>
<path fill="none" stroke="green" d="M590.5,-126C590.5,-126 608.297,-95.7988 617.752,-79.7545"/>
</g>
<!-- e5&#45;&gt;v9 -->
<g id="edge30" class="edge"><title>e5&#45;&gt;v9</title>
<path fill="none" stroke="green" d="M757.5,-126C757.5,-126 702.873,-82.7427 653.5,-58 619.148,-40.785 576.735,-26.6519 550.923,-18.7793"/>
</g>
<!-- v10 -->
<g id="v10_Entrance" class="node"><title>v10</title>
<ellipse fill="none" stroke="black" cx="757.5" cy="-69" rx="36" ry="11"/>
<text text-anchor="middle" x="757.5" y="-66.8" font-family="sans-serif" font-size="9.00">Entrance</text>
</g>
<!-- e5&#45;&gt;v10 -->
<g id="edge31" class="edge"><title>e5&#45;&gt;v10</title>
<path fill="none" stroke="green" d="M757.5,-126C757.5,-126 757.5,-96.1193 757.5,-80.0117"/>
</g>
<!-- e6&#45;&gt;v3 -->
<g id="edge33" class="edge"><title>e6&#45;&gt;v3</title>
<path fill="none" stroke="green" d="M160.5,-126C160.5,-126 155.469,-119.849 150.5,-116 130.739,-100.692 105.436,-86.6542 89.0979,-78.2144"/>
</g>
<!-- e6&#45;&gt;v4 -->
<g id="edge34" class="edge"><title>e6&#45;&gt;v4</title>
<path fill="none" stroke="green" d="M160.5,-126C160.5,-126 217.154,-50.0168 237.957,-22.1167"/>
</g>
<!-- e6&#45;&gt;v7 -->
<g id="edge35" class="edge"><title>e6&#45;&gt;v7</title>
<path fill="none" stroke="green" d="M160.5,-126C160.5,-126 244.138,-91.3057 279.75,-76.5335"/>
</g>
<!-- e6&#45;&gt;v12 -->
<g id="edge36" class="edge"><title>e6&#45;&gt;v12</title>
<path fill="none" stroke="green" d="M160.5,-126C160.5,-126 142.504,-50.0168 135.896,-22.1167"/>
</g>
<!-- v15 -->
<g id="v15_Wokrstation" class="node"><title>v15</title>
<ellipse fill="none" stroke="black" cx="625.5" cy="-11" rx="47" ry="11"/>
<text text-anchor="middle" x="625.5" y="-8.8" font-family="sans-serif" font-size="9.00">Wokrstation</text>
</g>
<!-- e7&#45;&gt;v15 -->
<g id="edge38" class="edge"><title>e7&#45;&gt;v15</title>
<path fill="none" stroke="green" d="M702.5,-68C702.5,-68 660.973,-37.7988 638.912,-21.7545"/>
</g>
<!-- e7&#45;&gt;v16 -->
<g id="edge39" class="edge"><title>e7&#45;&gt;v16</title>
<path fill="none" stroke="green" d="M702.5,-68C702.5,-68 727.045,-38.1193 740.276,-22.0117"/>
</g>
<!-- e7&#45;&gt;v17 -->
<g id="edge40" class="edge"><title>e7&#45;&gt;v17</title>
<path fill="none" stroke="green" d="M702.5,-68C702.5,-68 707.12,-61.2497 712.5,-58 733.113,-45.5492 797.258,-28.0203 833.981,-18.6021"/>
</g>
<!-- v6 -->
<g id="v6_Room" class="node"><title>v6</title>
<ellipse fill="none" stroke="black" cx="409.5" cy="-127" rx="21.5" ry="11"/>
<text text-anchor="middle" x="409.5" y="-124.8" font-family="sans-serif" font-size="9.00">Room</text>
</g>
<!-- e9&#45;&gt;v6 -->
<g id="edge43" class="edge"><title>e9&#45;&gt;v6</title>
<path fill="none" stroke="green" d="M488.5,-184C488.5,-184 443.132,-151.84 421.157,-136.263"/>
</g>
<!-- e9&#45;&gt;v9 -->
<g id="edge44" class="edge"><title>e9&#45;&gt;v9</title>
<path fill="none" stroke="green" d="M488.5,-184C488.5,-184 516.911,-58.6999 525.235,-21.9909"/>
</g>
<!-- v1 -->
<g id="v1_Room" class="node"><title>v1</title>
<ellipse fill="none" stroke="black" cx="353.5" cy="-185" rx="21.5" ry="11"/>
<text text-anchor="middle" x="353.5" y="-182.8" font-family="sans-serif" font-size="9.00">Room</text>
</g>
<!-- e10&#45;&gt;v1 -->
<g id="edge46" class="edge"><title>e10&#45;&gt;v1</title>
<path fill="none" stroke="green" d="M358.5,-242C358.5,-242 355.832,-212.119 354.394,-196.012"/>
</g>
<!-- e10&#45;&gt;v9 -->
<g id="edge47" class="edge"><title>e10&#45;&gt;v9</title>
<path fill="none" stroke="green" d="M358.5,-242C358.5,-242 404.715,-185.143 439.5,-138 470.867,-95.4893 506.355,-43.3634 520.826,-21.926"/>
</g>
<!-- v0&#45;&gt;osecond -->
<g id="edge41" class="edge"><title>v0&#45;&gt;osecond</title>
<path fill="none" stroke="green" d="M529.5,-254.03C529.5,-264.259 529.5,-279.952 529.5,-289.562"/>
</g>
<!-- v0&#45;&gt;v1 -->
<g id="edge4" class="edge"><title>v0&#45;&gt;v1</title>
<path fill="none" stroke="black" d="M510.33,-235.9C477.552,-225.471 410.903,-204.265 375.985,-193.154"/>
<polygon fill="black" stroke="black" points="371.071,-191.591 376.518,-190.963 373.453,-192.349 375.836,-193.107 375.836,-193.107 375.836,-193.107 373.453,-192.349 375.153,-195.251 371.071,-191.591 371.071,-191.591"/>
</g>
<!-- v0&#45;&gt;v6 -->
<g id="edge5" class="edge"><title>v0&#45;&gt;v6</title>
<path fill="none" stroke="black" d="M519.219,-232.967C508.832,-223.785 492.381,-209.088 478.5,-196 458.59,-177.227 436.116,-154.849 422.38,-141.032"/>
<polygon fill="black" stroke="black" points="418.747,-137.372 423.866,-139.335 420.508,-139.146 422.269,-140.92 422.269,-140.92 422.269,-140.92 420.508,-139.146 420.673,-142.505 418.747,-137.372 418.747,-137.372"/>
</g>
<!-- v0&#45;&gt;v9 -->
<g id="edge6" class="edge"><title>v0&#45;&gt;v9</title>
<path fill="none" stroke="black" d="M529.411,-231.82C529.094,-195.304 528.011,-70.7575 527.632,-27.194"/>
<polygon fill="black" stroke="black" points="527.587,-22.062 529.881,-27.0422 527.609,-24.5619 527.631,-27.0618 527.631,-27.0618 527.631,-27.0618 527.609,-24.5619 525.381,-27.0814 527.587,-22.062 527.587,-22.062"/>
</g>
<!-- v0&#45;&gt;v10 -->
<g id="edge7" class="edge"><title>v0&#45;&gt;v10</title>
<path fill="none" stroke="black" d="M541.12,-233.234C578.746,-204.85 697.334,-115.389 741.08,-82.387"/>
<polygon fill="black" stroke="black" points="745.075,-79.3734 742.438,-84.1809 743.079,-80.8791 741.083,-82.3847 741.083,-82.3847 741.083,-82.3847 743.079,-80.8791 739.728,-80.5885 745.075,-79.3734 745.075,-79.3734"/>
</g>
<!-- v0&#45;&gt;v14 -->
<g id="edge8" class="edge"><title>v0&#45;&gt;v14</title>
<path fill="none" stroke="black" d="M537.135,-232.474C551.052,-214.753 580.827,-175.14 599.5,-138 608.315,-120.467 615.333,-98.9109 619.45,-84.8316"/>
<polygon fill="black" stroke="black" points="620.833,-80.0041 621.619,-85.4305 620.145,-82.4074 619.456,-84.8107 619.456,-84.8107 619.456,-84.8107 620.145,-82.4074 617.293,-84.1908 620.833,-80.0041 620.833,-80.0041"/>
</g>
<!-- v2 -->
<g id="v2_Actor" class="node"><title>v2</title>
<ellipse fill="none" stroke="black" cx="116.5" cy="-127" rx="25" ry="11"/>
<text text-anchor="middle" x="116.5" y="-124.8" font-family="sans-serif" font-size="9.00">Actor</text>
</g>
<!-- v1&#45;&gt;v2 -->
<g id="edge9" class="edge"><title>v1&#45;&gt;v2</title>
<path fill="none" stroke="black" d="M334.089,-180.028C297.842,-172.518 217.473,-155.419 150.5,-138 147.452,-137.207 144.263,-136.332 141.113,-135.438"/>
<polygon fill="black" stroke="black" points="136.218,-134.029 141.645,-133.25 138.62,-134.72 141.023,-135.412 141.023,-135.412 141.023,-135.412 138.62,-134.72 140.4,-137.574 136.218,-134.029 136.218,-134.029"/>
</g>
<!-- v1&#45;&gt;v4 -->
<g id="edge10" class="edge"><title>v1&#45;&gt;v4</title>
<path fill="none" stroke="black" d="M353.877,-173.734C354.202,-150.704 352.042,-94.1125 325.5,-58 313.011,-41.0079 292.216,-29.3285 274.958,-21.9908"/>
<polygon fill="black" stroke="black" points="270.194,-20.0354 275.673,-19.8524 272.506,-20.9847 274.819,-21.9339 274.819,-21.9339 274.819,-21.9339 272.506,-20.9847 273.965,-24.0155 270.194,-20.0354 270.194,-20.0354"/>
</g>
<!-- v2&#45;&gt;v3 -->
<g id="edge11" class="edge"><title>v2&#45;&gt;v3</title>
<path fill="none" stroke="black" d="M109.036,-116.5C101.999,-107.544 91.3713,-94.018 83.3892,-83.859"/>
<polygon fill="black" stroke="black" points="80.1485,-79.7345 85.0069,-82.276 81.6931,-81.7003 83.2376,-83.6661 83.2376,-83.6661 83.2376,-83.6661 81.6931,-81.7003 81.4684,-85.0562 80.1485,-79.7345 80.1485,-79.7345"/>
</g>
<!-- v5 -->
<g id="v5_Malware" class="node"><title>v5</title>
<ellipse fill="none" stroke="black" cx="32.5" cy="-11" rx="32.5" ry="11"/>
<text text-anchor="middle" x="32.5" y="-8.8" font-family="sans-serif" font-size="9.00">Malware</text>
</g>
<!-- v3&#45;&gt;v5 -->
<g id="edge12" class="edge"><title>v3&#45;&gt;v5</title>
<path fill="none" stroke="black" d="M65.5325,-58.2455C59.1869,-49.3616 49.7409,-36.1372 42.5735,-26.1029"/>
<polygon fill="black" stroke="black" points="39.657,-22.0198 44.3941,-24.7806 41.1101,-24.0541 42.5632,-26.0884 42.5632,-26.0884 42.5632,-26.0884 41.1101,-24.0541 40.7323,-27.3962 39.657,-22.0198 39.657,-22.0198"/>
</g>
<!-- v6&#45;&gt;v7 -->
<g id="edge13" class="edge"><title>v6&#45;&gt;v7</title>
<path fill="none" stroke="black" d="M394.596,-118.679C374.087,-108.604 337.147,-90.4584 314.623,-79.3939"/>
<polygon fill="black" stroke="black" points="310.047,-77.1458 315.527,-77.3308 312.291,-78.248 314.535,-79.3503 314.535,-79.3503 314.535,-79.3503 312.291,-78.248 313.542,-81.3698 310.047,-77.1458 310.047,-77.1458"/>
</g>
<!-- v6&#45;&gt;v12 -->
<g id="edge14" class="edge"><title>v6&#45;&gt;v12</title>
<path fill="none" stroke="black" d="M400.653,-116.51C386.314,-101.713 356.468,-73.2597 325.5,-58 299.32,-45.0997 223.009,-29.0068 174.847,-19.6774"/>
<polygon fill="black" stroke="black" points="169.698,-18.685 175.034,-17.4221 172.153,-19.1582 174.608,-19.6314 174.608,-19.6314 174.608,-19.6314 172.153,-19.1582 174.182,-21.8408 169.698,-18.685 169.698,-18.685"/>
</g>
<!-- v13 -->
<g id="v13_Servers" class="node"><title>v13</title>
<ellipse fill="none" stroke="black" cx="422.5" cy="-11" rx="32.5" ry="11"/>
<text text-anchor="middle" x="422.5" y="-8.8" font-family="sans-serif" font-size="9.00">Servers</text>
</g>
<!-- v6&#45;&gt;v13 -->
<g id="edge15" class="edge"><title>v6&#45;&gt;v13</title>
<path fill="none" stroke="black" d="M410.654,-115.883C412.941,-95.8216 418.064,-50.899 420.762,-27.2409"/>
<polygon fill="black" stroke="black" points="421.33,-22.2579 422.999,-27.4807 421.047,-24.7418 420.764,-27.2257 420.764,-27.2257 420.764,-27.2257 421.047,-24.7418 418.528,-26.9708 421.33,-22.2579 421.33,-22.2579"/>
</g>
<!-- v8 -->
<g id="v8_Malware" class="node"><title>v8</title>
<ellipse fill="none" stroke="black" cx="339.5" cy="-11" rx="32.5" ry="11"/>
<text text-anchor="middle" x="339.5" y="-8.8" font-family="sans-serif" font-size="9.00">Malware</text>
</g>
<!-- v7&#45;&gt;v8 -->
<g id="edge16" class="edge"><title>v7&#45;&gt;v8</title>
<path fill="none" stroke="black" d="M302.964,-58.5004C310.001,-49.5445 320.629,-36.018 328.611,-25.859"/>
<polygon fill="black" stroke="black" points="331.851,-21.7345 330.532,-27.0562 330.307,-23.7003 328.762,-25.6661 328.762,-25.6661 328.762,-25.6661 330.307,-23.7003 326.993,-24.276 331.851,-21.7345 331.851,-21.7345"/>
</g>
<!-- v11 -->
<g id="v11_FireDetector" class="node"><title>v11</title>
<ellipse fill="none" stroke="black" cx="965.5" cy="-11" rx="50.5" ry="11"/>
<text text-anchor="middle" x="965.5" y="-8.8" font-family="sans-serif" font-size="9.00">FireDetector</text>
</g>
<!-- v10&#45;&gt;v11 -->
<g id="edge17" class="edge"><title>v10&#45;&gt;v11</title>
<path fill="none" stroke="black" d="M783.005,-61.1333C820.115,-51.142 889.106,-32.5677 930.808,-21.3403"/>
<polygon fill="black" stroke="black" points="935.754,-20.0086 931.511,-23.4811 933.34,-20.6585 930.926,-21.3085 930.926,-21.3085 930.926,-21.3085 933.34,-20.6585 930.341,-19.1359 935.754,-20.0086 935.754,-20.0086"/>
</g>
<!-- v11&#45;&gt;oa -->
<g id="edge20" class="edge"><title>v11&#45;&gt;oa</title>
<path fill="none" stroke="green" d="M962.311,-22.2573C956.436,-42.0884 944.5,-87.1594 944.5,-126 944.5,-186 944.5,-186 944.5,-186 944.5,-224.889 944.5,-271.373 944.5,-289.849"/>
</g>
<!-- v11&#45;&gt;ob -->
<g id="edge21" class="edge"><title>v11&#45;&gt;ob</title>
<path fill="none" stroke="green" d="M968.538,-22.2681C974.133,-42.1176 985.5,-87.2187 985.5,-126 985.5,-186 985.5,-186 985.5,-186 985.5,-224.889 985.5,-271.373 985.5,-289.849"/>
</g>
<!-- v14&#45;&gt;v15 -->
<g id="edge18" class="edge"><title>v14&#45;&gt;v15</title>
<path fill="none" stroke="black" d="M623.858,-57.9883C624.161,-49.4941 624.601,-37.1697 624.949,-27.4169"/>
<polygon fill="black" stroke="black" points="625.132,-22.3039 627.202,-27.381 625.043,-24.8023 624.953,-27.3007 624.953,-27.3007 624.953,-27.3007 625.043,-24.8023 622.705,-27.2203 625.132,-22.3039 625.132,-22.3039"/>
</g>
</g>
</svg>
