<?xml version="1.0" encoding="UTF-8" standalone="no"?>
<?xml-stylesheet href="style.css" type="text/css"?>
<!DOCTYPE svg PUBLIC "-//W3C//DTD SVG 1.1//EN"
 "http://www.w3.org/Graphics/SVG/1.1/DTD/svg11.dtd">
<!-- Generated by graphviz version 2.38.0 (20140413.2041)
 -->
<!-- Title: 12.svg Pages: 1 -->
<svg width="919pt" height="316pt"
 viewBox="0.00 0.00 918.50 316.00" xmlns="http://www.w3.org/2000/svg" xmlns:xlink="http://www.w3.org/1999/xlink">
<g id="graph0" class="graph" transform="scale(1 1) rotate(0) translate(4 312)">
<title>12.svg</title>
<polygon fill="white" stroke="none" points="-4,4 -4,-312 914.5,-312 914.5,4 -4,4"/>
<!-- r0 -->
<g id="node1" class="node"><title>r0</title>
<polygon fill="none" stroke="black" stroke-dasharray="5,2" points="408.5,-308 385.5,-308 385.5,-290 408.5,-290 408.5,-308"/>
<text text-anchor="middle" x="397" y="-296.8" font-family="serif" font-size="9.00">0</text>
</g>
<!-- v0 -->
<g id="v0_Floor" class="node"><title>v0</title>
<ellipse fill="none" stroke="black" cx="397" cy="-243" rx="25" ry="11"/>
<text text-anchor="middle" x="397" y="-240.8" font-family="sans-serif" font-size="9.00">Floor</text>
</g>
<!-- r0&#45;&gt;v0 -->
<g id="edge1" class="edge"><title>r0&#45;&gt;v0</title>
<path fill="none" stroke="black" d="M397,-289.562C397,-281.453 397,-269.014 397,-259.181"/>
<polygon fill="black" stroke="black" points="397,-254.03 399.25,-259.03 397,-256.53 397,-259.03 397,-259.03 397,-259.03 397,-256.53 394.75,-259.03 397,-254.03 397,-254.03"/>
</g>
<!-- r1 -->
<g id="node2" class="node"><title>r1</title>
<polygon fill="none" stroke="black" stroke-dasharray="5,2" points="585.5,-308 562.5,-308 562.5,-290 585.5,-290 585.5,-308"/>
<text text-anchor="middle" x="574" y="-296.8" font-family="serif" font-size="9.00">1</text>
</g>
<!-- v16 -->
<g id="v16_ControlProcess" class="node"><title>v16</title>
<ellipse fill="none" stroke="black" cx="643" cy="-11" rx="57.5" ry="11"/>
<text text-anchor="middle" x="643" y="-8.8" font-family="sans-serif" font-size="9.00">ControlProcess</text>
</g>
<!-- r1&#45;&gt;v16 -->
<g id="edge2" class="edge"><title>r1&#45;&gt;v16</title>
<path fill="none" stroke="black" d="M574,-289.849C574,-271.373 574,-224.889 574,-186 574,-186 574,-186 574,-126 574,-84.7915 607.406,-45.737 627.729,-25.7896"/>
<polygon fill="black" stroke="black" points="631.606,-22.0599 629.563,-27.148 629.804,-23.7932 628.003,-25.5266 628.003,-25.5266 628.003,-25.5266 629.804,-23.7932 626.443,-23.9051 631.606,-22.0599 631.606,-22.0599"/>
</g>
<!-- r2 -->
<g id="node3" class="node"><title>r2</title>
<polygon fill="none" stroke="black" stroke-dasharray="5,2" points="773.5,-308 750.5,-308 750.5,-290 773.5,-290 773.5,-308"/>
<text text-anchor="middle" x="762" y="-296.8" font-family="serif" font-size="9.00">2</text>
</g>
<!-- v17 -->
<g id="v17_Database" class="node"><title>v17</title>
<ellipse fill="none" stroke="black" cx="755" cy="-11" rx="36" ry="11"/>
<text text-anchor="middle" x="755" y="-8.8" font-family="sans-serif" font-size="9.00">Database</text>
</g>
<!-- r2&#45;&gt;v17 -->
<g id="edge3" class="edge"><title>r2&#45;&gt;v17</title>
<path fill="none" stroke="black" d="M762,-289.849C762,-271.373 762,-224.889 762,-186 762,-186 762,-186 762,-126 762,-90.5372 758.584,-48.9855 756.524,-27.1602"/>
<polygon fill="black" stroke="black" points="756.033,-22.0521 758.751,-26.8136 756.272,-24.5406 756.512,-27.0291 756.512,-27.0291 756.512,-27.0291 756.272,-24.5406 754.272,-27.2446 756.033,-22.0521 756.033,-22.0521"/>
</g>
<!-- oa -->
<g id="node4" class="node"><title>oa</title>
<text text-anchor="middle" x="839" y="-296.8" font-family="serif" font-size="9.00">a</text>
</g>
<!-- ob -->
<g id="node5" class="node"><title>ob</title>
<text text-anchor="middle" x="880" y="-296.8" font-family="serif" font-size="9.00">b</text>
</g>
<!-- obusNetwork -->
<g id="node6" class="node"><title>obusNetwork</title>
<text text-anchor="middle" x="209" y="-296.8" font-family="serif" font-size="9.00">busNetwork</text>
</g>
<!-- e4 -->
<g id="node16" class="node"><title>e4</title>
</g>
<!-- obusNetwork&#45;&gt;e4 -->
<g id="edge23" class="edge"><title>obusNetwork&#45;&gt;e4</title>
<path fill="none" stroke="green" d="M209,-289.801C209,-255.842 209,-128 209,-128"/>
</g>
<!-- ocontrol -->
<g id="node7" class="node"><title>ocontrol</title>
<text text-anchor="middle" x="519" y="-296.8" font-family="serif" font-size="9.00">control</text>
</g>
<!-- e5 -->
<g id="node17" class="node"><title>e5</title>
</g>
<!-- ocontrol&#45;&gt;e5 -->
<g id="edge27" class="edge"><title>ocontrol&#45;&gt;e5</title>
<path fill="none" stroke="green" d="M519,-289.562C519,-274.375 519,-244 519,-244"/>
</g>
<!-- oent -->
<g id="node8" class="node"><title>oent</title>
<text text-anchor="middle" x="620" y="-296.8" font-family="serif" font-size="9.00">ent</text>
</g>
<!-- e6 -->
<g id="node18" class="node"><title>e6</title>
</g>
<!-- oent&#45;&gt;e6 -->
<g id="edge30" class="edge"><title>oent&#45;&gt;e6</title>
<path fill="none" stroke="green" d="M620,-289.562C620,-274.375 620,-244 620,-244"/>
</g>
<!-- oinstallationBus -->
<g id="node9" class="node"><title>oinstallationBus</title>
<text text-anchor="middle" x="111" y="-296.8" font-family="serif" font-size="9.00">installationBus</text>
</g>
<!-- e7 -->
<g id="node19" class="node"><title>e7</title>
</g>
<!-- oinstallationBus&#45;&gt;e7 -->
<g id="edge33" class="edge"><title>oinstallationBus&#45;&gt;e7</title>
<path fill="none" stroke="green" d="M111.241,-289.801C112.24,-255.842 116,-128 116,-128"/>
</g>
<!-- oip_network -->
<g id="node10" class="node"><title>oip_network</title>
<text text-anchor="middle" x="688" y="-296.8" font-family="serif" font-size="9.00">ip_network</text>
</g>
<!-- e8 -->
<g id="node20" class="node"><title>e8</title>
</g>
<!-- oip_network&#45;&gt;e8 -->
<g id="edge37" class="edge"><title>oip_network&#45;&gt;e8</title>
<path fill="none" stroke="green" d="M686.398,-289.885C678.382,-249.27 643,-70 643,-70"/>
</g>
<!-- osecond -->
<g id="node11" class="node"><title>osecond</title>
<text text-anchor="middle" x="451" y="-296.8" font-family="serif" font-size="9.00">second</text>
</g>
<!-- oserver -->
<g id="node12" class="node"><title>oserver</title>
<text text-anchor="middle" x="345" y="-296.8" font-family="serif" font-size="9.00">server</text>
</g>
<!-- e10 -->
<g id="node21" class="node"><title>e10</title>
</g>
<!-- oserver&#45;&gt;e10 -->
<g id="edge42" class="edge"><title>oserver&#45;&gt;e10</title>
<path fill="none" stroke="green" d="M345,-289.562C345,-274.375 345,-244 345,-244"/>
</g>
<!-- otoilet -->
<g id="node13" class="node"><title>otoilet</title>
<text text-anchor="middle" x="284" y="-296.8" font-family="serif" font-size="9.00">toilet</text>
</g>
<!-- e11 -->
<g id="node22" class="node"><title>e11</title>
</g>
<!-- otoilet&#45;&gt;e11 -->
<g id="edge45" class="edge"><title>otoilet&#45;&gt;e11</title>
<path fill="none" stroke="green" d="M284,-289.562C284,-274.375 284,-244 284,-244"/>
</g>
<!-- e0 -->
<g id="node14" class="node"><title>e0</title>
</g>
<!-- v4 -->
<g id="v4_Laptop" class="node"><title>v4</title>
<ellipse fill="none" stroke="black" cx="409" cy="-69" rx="29" ry="11"/>
<text text-anchor="middle" x="409" y="-66.8" font-family="sans-serif" font-size="9.00">Laptop</text>
</g>
<!-- e0&#45;&gt;v4 -->
<g id="edge19" class="edge"><title>e0&#45;&gt;v4</title>
<path fill="none" stroke="green" d="M344.558,-123.29C346.535,-121.232 349.371,-118.364 352,-116 366.942,-102.568 385.153,-88.1941 396.905,-79.1571"/>
<polygon fill="green" stroke="green" points="345.026,-127.893 339.935,-123.089 340.896,-122.07 345.987,-126.875 345.026,-127.893"/>
<polyline fill="none" stroke="green" points="342,-126 344.402,-123.454 "/>
</g>
<!-- e1 -->
<g id="node15" class="node"><title>e1</title>
</g>
<!-- e1&#45;&gt;v4 -->
<g id="edge20" class="edge"><title>e1&#45;&gt;v4</title>
<path fill="none" stroke="green" d="M428.75,-122.667C425.661,-114.429 417.568,-92.8474 412.754,-80.0117"/>
<polygon fill="green" stroke="green" points="433.031,-124.116 426.477,-126.574 425.985,-125.263 432.54,-122.805 433.031,-124.116"/>
<polyline fill="none" stroke="green" points="430,-126 428.771,-122.723 "/>
</g>
<!-- v5 -->
<g id="v5_SmartLight" class="node"><title>v5</title>
<ellipse fill="none" stroke="black" cx="43" cy="-11" rx="43" ry="11"/>
<text text-anchor="middle" x="43" y="-8.8" font-family="sans-serif" font-size="9.00">SmartLight</text>
</g>
<!-- e4&#45;&gt;v5 -->
<g id="edge24" class="edge"><title>e4&#45;&gt;v5</title>
<path fill="none" stroke="green" d="M209,-126C209,-126 96.764,-48.9222 56.8675,-21.5235"/>
</g>
<!-- v8 -->
<g id="v8_HVAC" class="node"><title>v8</title>
<ellipse fill="none" stroke="black" cx="209" cy="-69" rx="21.5" ry="11"/>
<text text-anchor="middle" x="209" y="-66.8" font-family="sans-serif" font-size="9.00">HVAC</text>
</g>
<!-- e4&#45;&gt;v8 -->
<g id="edge25" class="edge"><title>e4&#45;&gt;v8</title>
<path fill="none" stroke="green" d="M209,-126C209,-126 209,-96.1193 209,-80.0117"/>
</g>
<!-- v12 -->
<g id="v12_FireDetector" class="node"><title>v12</title>
<ellipse fill="none" stroke="black" cx="238" cy="-11" rx="50.5" ry="11"/>
<text text-anchor="middle" x="238" y="-8.8" font-family="sans-serif" font-size="9.00">FireDetector</text>
</g>
<!-- e4&#45;&gt;v12 -->
<g id="edge26" class="edge"><title>e4&#45;&gt;v12</title>
<path fill="none" stroke="green" d="M209,-126C209,-126 232.045,-103.396 239,-80 244.854,-60.3078 242.288,-35.9704 240.044,-22.3996"/>
</g>
<!-- v2 -->
<g id="v2_Hallway" class="node"><title>v2</title>
<ellipse fill="none" stroke="black" cx="397" cy="-185" rx="32.5" ry="11"/>
<text text-anchor="middle" x="397" y="-182.8" font-family="sans-serif" font-size="9.00">Hallway</text>
</g>
<!-- e5&#45;&gt;v2 -->
<g id="edge28" class="edge"><title>e5&#45;&gt;v2</title>
<path fill="none" stroke="green" d="M519,-242C519,-242 448.938,-209.84 415.002,-194.263"/>
</g>
<!-- v14 -->
<g id="v14_Room" class="node"><title>v14</title>
<ellipse fill="none" stroke="black" cx="520" cy="-69" rx="21.5" ry="11"/>
<text text-anchor="middle" x="520" y="-66.8" font-family="sans-serif" font-size="9.00">Room</text>
</g>
<!-- e5&#45;&gt;v14 -->
<g id="edge29" class="edge"><title>e5&#45;&gt;v14</title>
<path fill="none" stroke="green" d="M519,-242C519,-242 519.725,-117.273 519.94,-80.2443"/>
</g>
<!-- e6&#45;&gt;v2 -->
<g id="edge31" class="edge"><title>e6&#45;&gt;v2</title>
<path fill="none" stroke="green" d="M620,-242C620,-242 479.778,-206.787 421.717,-192.207"/>
</g>
<!-- v10 -->
<g id="v10_Entrance" class="node"><title>v10</title>
<ellipse fill="none" stroke="black" cx="698" cy="-69" rx="36" ry="11"/>
<text text-anchor="middle" x="698" y="-66.8" font-family="sans-serif" font-size="9.00">Entrance</text>
</g>
<!-- e6&#45;&gt;v10 -->
<g id="edge32" class="edge"><title>e6&#45;&gt;v10</title>
<path fill="none" stroke="green" d="M620,-242C620,-242 676.822,-116.7 693.469,-79.9909"/>
</g>
<!-- e7&#45;&gt;v5 -->
<g id="edge34" class="edge"><title>e7&#45;&gt;v5</title>
<path fill="none" stroke="green" d="M116,-126C116,-126 67.3441,-50.0168 49.4783,-22.1167"/>
</g>
<!-- e7&#45;&gt;v8 -->
<g id="edge35" class="edge"><title>e7&#45;&gt;v8</title>
<path fill="none" stroke="green" d="M116,-126C116,-126 169.96,-93.5079 195.675,-78.0234"/>
</g>
<!-- e7&#45;&gt;v12 -->
<g id="edge36" class="edge"><title>e7&#45;&gt;v12</title>
<path fill="none" stroke="green" d="M116,-126C116,-126 147.875,-85.6619 178,-58 192.889,-44.3284 211.577,-30.4591 224.106,-21.5774"/>
</g>
<!-- v15 -->
<g id="v15_Wokrstation" class="node"><title>v15</title>
<ellipse fill="none" stroke="black" cx="520" cy="-11" rx="47" ry="11"/>
<text text-anchor="middle" x="520" y="-8.8" font-family="sans-serif" font-size="9.00">Wokrstation</text>
</g>
<!-- e8&#45;&gt;v15 -->
<g id="edge38" class="edge"><title>e8&#45;&gt;v15</title>
<path fill="none" stroke="green" d="M643,-68C643,-68 574.531,-36.8273 539.762,-20.9974"/>
</g>
<!-- e8&#45;&gt;v16 -->
<g id="edge39" class="edge"><title>e8&#45;&gt;v16</title>
<path fill="none" stroke="green" d="M643,-68C643,-68 643,-38.1193 643,-22.0117"/>
</g>
<!-- e8&#45;&gt;v17 -->
<g id="edge40" class="edge"><title>e8&#45;&gt;v17</title>
<path fill="none" stroke="green" d="M643,-68C643,-68 647.829,-61.5725 653,-58 678.093,-40.6653 710.772,-27.2914 732.294,-19.54"/>
</g>
<!-- e10&#45;&gt;v2 -->
<g id="edge43" class="edge"><title>e10&#45;&gt;v2</title>
<path fill="none" stroke="green" d="M345,-242C345,-242 373.044,-211.799 387.942,-195.754"/>
</g>
<!-- v7 -->
<g id="v7_Room" class="node"><title>v7</title>
<ellipse fill="none" stroke="black" cx="298" cy="-127" rx="21.5" ry="11"/>
<text text-anchor="middle" x="298" y="-124.8" font-family="sans-serif" font-size="9.00">Room</text>
</g>
<!-- e10&#45;&gt;v7 -->
<g id="edge44" class="edge"><title>e10&#45;&gt;v7</title>
<path fill="none" stroke="green" d="M345,-242C345,-242 330.932,-217.04 322,-196 313.488,-175.949 305.459,-151.74 301.19,-138.289"/>
</g>
<!-- v1 -->
<g id="v1_Room" class="node"><title>v1</title>
<ellipse fill="none" stroke="black" cx="33" cy="-69" rx="21.5" ry="11"/>
<text text-anchor="middle" x="33" y="-66.8" font-family="sans-serif" font-size="9.00">Room</text>
</g>
<!-- e11&#45;&gt;v1 -->
<g id="edge46" class="edge"><title>e11&#45;&gt;v1</title>
<path fill="none" stroke="green" d="M284,-242C284,-242 94.1512,-232.33 58,-196 26.2242,-164.067 29.0291,-104.078 31.6263,-80.1913"/>
</g>
<!-- e11&#45;&gt;v2 -->
<g id="edge47" class="edge"><title>e11&#45;&gt;v2</title>
<path fill="none" stroke="green" d="M284,-242C284,-242 348.226,-210.171 379.838,-194.505"/>
</g>
<!-- v0&#45;&gt;osecond -->
<g id="edge41" class="edge"><title>v0&#45;&gt;osecond</title>
<path fill="none" stroke="green" d="M406.283,-253.283C416.48,-263.48 432.714,-279.714 442.562,-289.562"/>
</g>
<!-- v0&#45;&gt;v1 -->
<g id="edge4" class="edge"><title>v0&#45;&gt;v1</title>
<path fill="none" stroke="black" d="M377.262,-236.093C319.899,-218.75 154.24,-167.351 106,-138 81.3843,-123.023 57.9338,-98.7954 44.5291,-83.6647"/>
<polygon fill="black" stroke="black" points="41.0221,-79.6536 46.0071,-81.9367 42.6676,-81.5356 44.3132,-83.4177 44.3132,-83.4177 44.3132,-83.4177 42.6676,-81.5356 42.6193,-84.8987 41.0221,-79.6536 41.0221,-79.6536"/>
</g>
<!-- v0&#45;&gt;v2 -->
<g id="edge5" class="edge"><title>v0&#45;&gt;v2</title>
<path fill="none" stroke="black" d="M397,-231.988C397,-223.494 397,-211.17 397,-201.417"/>
<polygon fill="black" stroke="black" points="397,-196.304 399.25,-201.304 397,-198.804 397,-201.304 397,-201.304 397,-201.304 397,-198.804 394.75,-201.304 397,-196.304 397,-196.304"/>
</g>
<!-- v0&#45;&gt;v7 -->
<g id="edge6" class="edge"><title>v0&#45;&gt;v7</title>
<path fill="none" stroke="black" d="M388.194,-232.591C379.613,-223.368 366.251,-208.859 355,-196 338.637,-177.298 320.263,-155.166 308.91,-141.351"/>
<polygon fill="black" stroke="black" points="305.622,-137.344 310.533,-139.782 307.207,-139.277 308.793,-141.209 308.793,-141.209 308.793,-141.209 307.207,-139.277 307.054,-142.637 305.622,-137.344 305.622,-137.344"/>
</g>
<!-- v0&#45;&gt;v10 -->
<g id="edge7" class="edge"><title>v0&#45;&gt;v10</title>
<path fill="none" stroke="black" d="M411.518,-233.704C460.633,-205.638 620.673,-114.187 677.639,-81.6346"/>
<polygon fill="black" stroke="black" points="682.195,-79.0316 678.97,-83.4659 680.024,-80.272 677.853,-81.5124 677.853,-81.5124 677.853,-81.5124 680.024,-80.272 676.737,-79.5588 682.195,-79.0316 682.195,-79.0316"/>
</g>
<!-- v0&#45;&gt;v14 -->
<g id="edge8" class="edge"><title>v0&#45;&gt;v14</title>
<path fill="none" stroke="black" d="M406.441,-232.643C415.198,-223.691 428.301,-209.581 438,-196 461.709,-162.803 460.138,-149.787 483,-116 490.7,-104.62 500.482,-92.5442 508.054,-83.6218"/>
<polygon fill="black" stroke="black" points="511.575,-79.5119 510.031,-84.7729 509.949,-81.4105 508.322,-83.3091 508.322,-83.3091 508.322,-83.3091 509.949,-81.4105 506.613,-81.8453 511.575,-79.5119 511.575,-79.5119"/>
</g>
<!-- v1&#45;&gt;v5 -->
<g id="edge9" class="edge"><title>v1&#45;&gt;v5</title>
<path fill="none" stroke="black" d="M34.7878,-57.9883C36.3046,-49.4941 38.5054,-37.1697 40.247,-27.4169"/>
<polygon fill="black" stroke="black" points="41.16,-22.3039 42.496,-27.6216 40.7205,-24.7649 40.281,-27.226 40.281,-27.226 40.281,-27.226 40.7205,-24.7649 38.066,-26.8305 41.16,-22.3039 41.16,-22.3039"/>
</g>
<!-- v3 -->
<g id="v3_Actor" class="node"><title>v3</title>
<ellipse fill="none" stroke="black" cx="386" cy="-127" rx="25" ry="11"/>
<text text-anchor="middle" x="386" y="-124.8" font-family="sans-serif" font-size="9.00">Actor</text>
</g>
<!-- v2&#45;&gt;v3 -->
<g id="edge10" class="edge"><title>v2&#45;&gt;v3</title>
<path fill="none" stroke="black" d="M395.033,-173.988C393.365,-165.494 390.944,-153.17 389.028,-143.417"/>
<polygon fill="black" stroke="black" points="388.024,-138.304 391.196,-142.776 388.506,-140.757 388.988,-143.21 388.988,-143.21 388.988,-143.21 388.506,-140.757 386.78,-143.644 388.024,-138.304 388.024,-138.304"/>
</g>
<!-- v3&#45;&gt;v4 -->
<g id="edge11" class="edge"><title>v3&#45;&gt;v4</title>
<path fill="none" stroke="black" d="M390.112,-115.988C393.677,-107.308 398.885,-94.6286 402.929,-84.7806"/>
<polygon fill="black" stroke="black" points="404.924,-79.925 405.105,-85.405 403.974,-82.2376 403.024,-84.5501 403.024,-84.5501 403.024,-84.5501 403.974,-82.2376 400.943,-83.6953 404.924,-79.925 404.924,-79.925"/>
</g>
<!-- v6 -->
<g id="v6_Malware" class="node"><title>v6</title>
<ellipse fill="none" stroke="black" cx="422" cy="-11" rx="32.5" ry="11"/>
<text text-anchor="middle" x="422" y="-8.8" font-family="sans-serif" font-size="9.00">Malware</text>
</g>
<!-- v4&#45;&gt;v6 -->
<g id="edge12" class="edge"><title>v4&#45;&gt;v6</title>
<path fill="none" stroke="black" d="M411.324,-57.9883C413.296,-49.4941 416.157,-37.1697 418.421,-27.4169"/>
<polygon fill="black" stroke="black" points="419.608,-22.3039 420.669,-27.6832 419.043,-24.7391 418.477,-27.1744 418.477,-27.1744 418.477,-27.1744 419.043,-24.7391 416.286,-26.6655 419.608,-22.3039 419.608,-22.3039"/>
</g>
<!-- v7&#45;&gt;v8 -->
<g id="edge13" class="edge"><title>v7&#45;&gt;v8</title>
<path fill="none" stroke="black" d="M285.248,-117.977C269.784,-108.246 243.644,-91.7986 226.354,-80.9192"/>
<polygon fill="black" stroke="black" points="221.728,-78.0086 227.158,-78.767 223.844,-79.34 225.96,-80.6714 225.96,-80.6714 225.96,-80.6714 223.844,-79.34 224.762,-82.5758 221.728,-78.0086 221.728,-78.0086"/>
</g>
<!-- v7&#45;&gt;v12 -->
<g id="edge14" class="edge"><title>v7&#45;&gt;v12</title>
<path fill="none" stroke="black" d="M292.884,-116.28C282.354,-96.2734 258.202,-50.3837 245.745,-26.7158"/>
<polygon fill="black" stroke="black" points="243.274,-22.0199 247.594,-25.3966 244.438,-24.2322 245.602,-26.4445 245.602,-26.4445 245.602,-26.4445 244.438,-24.2322 243.611,-27.4925 243.274,-22.0199 243.274,-22.0199"/>
</g>
<!-- v13 -->
<g id="v13_Servers" class="node"><title>v13</title>
<ellipse fill="none" stroke="black" cx="339" cy="-11" rx="32.5" ry="11"/>
<text text-anchor="middle" x="339" y="-8.8" font-family="sans-serif" font-size="9.00">Servers</text>
</g>
<!-- v7&#45;&gt;v13 -->
<g id="edge15" class="edge"><title>v7&#45;&gt;v13</title>
<path fill="none" stroke="black" d="M301.638,-115.883C308.854,-95.8216 325.01,-50.899 333.519,-27.2409"/>
<polygon fill="black" stroke="black" points="335.311,-22.2579 335.736,-27.7244 334.465,-24.6104 333.619,-26.9629 333.619,-26.9629 333.619,-26.9629 334.465,-24.6104 331.501,-26.2014 335.311,-22.2579 335.311,-22.2579"/>
</g>
<!-- v9 -->
<g id="v9_Malware" class="node"><title>v9</title>
<ellipse fill="none" stroke="black" cx="137" cy="-11" rx="32.5" ry="11"/>
<text text-anchor="middle" x="137" y="-8.8" font-family="sans-serif" font-size="9.00">Malware</text>
</g>
<!-- v8&#45;&gt;v9 -->
<g id="edge16" class="edge"><title>v8&#45;&gt;v9</title>
<path fill="none" stroke="black" d="M198.065,-59.4948C186.086,-50.1779 166.757,-35.1441 153.057,-24.4888"/>
<polygon fill="black" stroke="black" points="149.001,-21.3337 154.329,-22.6274 150.974,-22.8686 152.947,-24.4035 152.947,-24.4035 152.947,-24.4035 150.974,-22.8686 151.566,-26.1795 149.001,-21.3337 149.001,-21.3337"/>
</g>
<!-- v11 -->
<g id="v11_FireDetector" class="node"><title>v11</title>
<ellipse fill="none" stroke="black" cx="860" cy="-11" rx="50.5" ry="11"/>
<text text-anchor="middle" x="860" y="-8.8" font-family="sans-serif" font-size="9.00">FireDetector</text>
</g>
<!-- v10&#45;&gt;v11 -->
<g id="edge17" class="edge"><title>v10&#45;&gt;v11</title>
<path fill="none" stroke="black" d="M720.186,-60.3309C748.728,-50.4643 798.41,-33.2903 830.22,-22.2942"/>
<polygon fill="black" stroke="black" points="835.166,-20.5845 831.176,-24.3447 832.803,-21.4013 830.441,-22.2181 830.441,-22.2181 830.441,-22.2181 832.803,-21.4013 829.705,-20.0916 835.166,-20.5845 835.166,-20.5845"/>
</g>
<!-- v11&#45;&gt;oa -->
<g id="edge21" class="edge"><title>v11&#45;&gt;oa</title>
<path fill="none" stroke="green" d="M856.811,-22.2573C850.936,-42.0884 839,-87.1594 839,-126 839,-186 839,-186 839,-186 839,-224.889 839,-271.373 839,-289.849"/>
</g>
<!-- v11&#45;&gt;ob -->
<g id="edge22" class="edge"><title>v11&#45;&gt;ob</title>
<path fill="none" stroke="green" d="M863.038,-22.2681C868.633,-42.1176 880,-87.2187 880,-126 880,-186 880,-186 880,-186 880,-224.889 880,-271.373 880,-289.849"/>
</g>
<!-- v14&#45;&gt;v15 -->
<g id="edge18" class="edge"><title>v14&#45;&gt;v15</title>
<path fill="none" stroke="black" d="M520,-57.9883C520,-49.4941 520,-37.1697 520,-27.4169"/>
<polygon fill="black" stroke="black" points="520,-22.3039 522.25,-27.3038 520,-24.8039 520,-27.3039 520,-27.3039 520,-27.3039 520,-24.8039 517.75,-27.3039 520,-22.3039 520,-22.3039"/>
</g>
</g>
</svg>
