<?xml version="1.0" encoding="UTF-8" standalone="no"?>
<?xml-stylesheet href="style.css" type="text/css"?>
<!DOCTYPE svg PUBLIC "-//W3C//DTD SVG 1.1//EN"
 "http://www.w3.org/Graphics/SVG/1.1/DTD/svg11.dtd">
<!-- Generated by graphviz version 2.38.0 (20140413.2041)
 -->
<!-- Title: 13.svg Pages: 1 -->
<svg width="1132pt" height="316pt"
 viewBox="0.00 0.00 1131.50 316.00" xmlns="http://www.w3.org/2000/svg" xmlns:xlink="http://www.w3.org/1999/xlink">
<g id="graph0" class="graph" transform="scale(1 1) rotate(0) translate(4 312)">
<title>13.svg</title>
<polygon fill="white" stroke="none" points="-4,4 -4,-312 1127.5,-312 1127.5,4 -4,4"/>
<!-- r0 -->
<g id="node1" class="node"><title>r0</title>
<polygon fill="none" stroke="black" stroke-dasharray="5,2" points="772,-308 749,-308 749,-290 772,-290 772,-308"/>
<text text-anchor="middle" x="760.5" y="-296.8" font-family="serif" font-size="9.00">0</text>
</g>
<!-- v0 -->
<g id="v0_Floor" class="node"><title>v0</title>
<ellipse fill="none" stroke="black" cx="709.5" cy="-243" rx="25" ry="11"/>
<text text-anchor="middle" x="709.5" y="-240.8" font-family="sans-serif" font-size="9.00">Floor</text>
</g>
<!-- r0&#45;&gt;v0 -->
<g id="edge1" class="edge"><title>r0&#45;&gt;v0</title>
<path fill="none" stroke="black" d="M752.531,-289.562C744.419,-280.973 731.719,-267.526 722.215,-257.463"/>
<polygon fill="black" stroke="black" points="718.618,-253.654 723.687,-255.744 720.334,-255.472 722.051,-257.289 722.051,-257.289 722.051,-257.289 720.334,-255.472 720.415,-258.834 718.618,-253.654 718.618,-253.654"/>
</g>
<!-- r1 -->
<g id="node2" class="node"><title>r1</title>
<polygon fill="none" stroke="black" stroke-dasharray="5,2" points="139,-308 116,-308 116,-290 139,-290 139,-308"/>
<text text-anchor="middle" x="127.5" y="-296.8" font-family="serif" font-size="9.00">1</text>
</g>
<!-- v16 -->
<g id="v16_ControlProcess" class="node"><title>v16</title>
<ellipse fill="none" stroke="black" cx="140.5" cy="-11" rx="57.5" ry="11"/>
<text text-anchor="middle" x="140.5" y="-8.8" font-family="sans-serif" font-size="9.00">ControlProcess</text>
</g>
<!-- r1&#45;&gt;v16 -->
<g id="edge2" class="edge"><title>r1&#45;&gt;v16</title>
<path fill="none" stroke="black" d="M127.5,-289.849C127.5,-271.373 127.5,-224.889 127.5,-186 127.5,-186 127.5,-186 127.5,-126 127.5,-90.3744 133.845,-48.8874 137.669,-27.1158"/>
<polygon fill="black" stroke="black" points="138.582,-22.021 139.915,-27.3394 138.141,-24.4818 137.7,-26.9427 137.7,-26.9427 137.7,-26.9427 138.141,-24.4818 135.485,-26.5459 138.582,-22.021 138.582,-22.021"/>
</g>
<!-- r2 -->
<g id="node3" class="node"><title>r2</title>
<polygon fill="none" stroke="black" stroke-dasharray="5,2" points="309,-308 286,-308 286,-290 309,-290 309,-308"/>
<text text-anchor="middle" x="297.5" y="-296.8" font-family="serif" font-size="9.00">2</text>
</g>
<!-- v17 -->
<g id="v17_Database" class="node"><title>v17</title>
<ellipse fill="none" stroke="black" cx="252.5" cy="-11" rx="36" ry="11"/>
<text text-anchor="middle" x="252.5" y="-8.8" font-family="sans-serif" font-size="9.00">Database</text>
</g>
<!-- r2&#45;&gt;v17 -->
<g id="edge3" class="edge"><title>r2&#45;&gt;v17</title>
<path fill="none" stroke="black" d="M297.5,-289.849C297.5,-271.373 297.5,-224.889 297.5,-186 297.5,-186 297.5,-186 297.5,-126 297.5,-87.8213 275.393,-47.158 262.169,-26.2485"/>
<polygon fill="black" stroke="black" points="259.335,-21.853 263.935,-24.8356 260.689,-23.954 262.044,-26.055 262.044,-26.055 262.044,-26.055 260.689,-23.954 260.153,-27.2744 259.335,-21.853 259.335,-21.853"/>
</g>
<!-- oa -->
<g id="node4" class="node"><title>oa</title>
<text text-anchor="middle" x="379.5" y="-296.8" font-family="serif" font-size="9.00">a</text>
</g>
<!-- ob -->
<g id="node5" class="node"><title>ob</title>
<text text-anchor="middle" x="338.5" y="-296.8" font-family="serif" font-size="9.00">b</text>
</g>
<!-- obusNetwork -->
<g id="node6" class="node"><title>obusNetwork</title>
<text text-anchor="middle" x="982.5" y="-296.8" font-family="serif" font-size="9.00">busNetwork</text>
</g>
<!-- e4 -->
<g id="node16" class="node"><title>e4</title>
</g>
<!-- obusNetwork&#45;&gt;e4 -->
<g id="edge23" class="edge"><title>obusNetwork&#45;&gt;e4</title>
<path fill="none" stroke="green" d="M981.873,-289.801C979.276,-255.842 969.5,-128 969.5,-128"/>
</g>
<!-- ocontrol -->
<g id="node7" class="node"><title>ocontrol</title>
<text text-anchor="middle" x="433.5" y="-296.8" font-family="serif" font-size="9.00">control</text>
</g>
<!-- e5 -->
<g id="node17" class="node"><title>e5</title>
</g>
<!-- ocontrol&#45;&gt;e5 -->
<g id="edge27" class="edge"><title>ocontrol&#45;&gt;e5</title>
<path fill="none" stroke="green" d="M436.056,-289.801C446.643,-255.842 486.5,-128 486.5,-128"/>
</g>
<!-- oent -->
<g id="node8" class="node"><title>oent</title>
<text text-anchor="middle" x="557.5" y="-296.8" font-family="serif" font-size="9.00">ent</text>
</g>
<!-- e6 -->
<g id="node18" class="node"><title>e6</title>
</g>
<!-- oent&#45;&gt;e6 -->
<g id="edge30" class="edge"><title>oent&#45;&gt;e6</title>
<path fill="none" stroke="green" d="M557.5,-289.801C557.5,-255.842 557.5,-128 557.5,-128"/>
</g>
<!-- oinstallationBus -->
<g id="node9" class="node"><title>oinstallationBus</title>
<text text-anchor="middle" x="1080.5" y="-296.8" font-family="serif" font-size="9.00">installationBus</text>
</g>
<!-- e7 -->
<g id="node19" class="node"><title>e7</title>
</g>
<!-- oinstallationBus&#45;&gt;e7 -->
<g id="edge33" class="edge"><title>oinstallationBus&#45;&gt;e7</title>
<path fill="none" stroke="green" d="M1079.97,-289.801C1077.77,-255.842 1069.5,-128 1069.5,-128"/>
</g>
<!-- oip_network -->
<g id="node10" class="node"><title>oip_network</title>
<text text-anchor="middle" x="191.5" y="-296.8" font-family="serif" font-size="9.00">ip_network</text>
</g>
<!-- e8 -->
<g id="node20" class="node"><title>e8</title>
</g>
<!-- oip_network&#45;&gt;e8 -->
<g id="edge37" class="edge"><title>oip_network&#45;&gt;e8</title>
<path fill="none" stroke="green" d="M191.523,-289.873C191.77,-264.032 193.899,-181.6 210.5,-116 215.927,-94.5562 229.5,-70 229.5,-70"/>
</g>
<!-- osecond -->
<g id="node11" class="node"><title>osecond</title>
<text text-anchor="middle" x="706.5" y="-296.8" font-family="serif" font-size="9.00">second</text>
</g>
<!-- oserver -->
<g id="node12" class="node"><title>oserver</title>
<text text-anchor="middle" x="636.5" y="-296.8" font-family="serif" font-size="9.00">server</text>
</g>
<!-- e10 -->
<g id="node21" class="node"><title>e10</title>
</g>
<!-- oserver&#45;&gt;e10 -->
<g id="edge42" class="edge"><title>oserver&#45;&gt;e10</title>
<path fill="none" stroke="green" d="M636.5,-289.562C636.5,-274.375 636.5,-244 636.5,-244"/>
</g>
<!-- otoilet -->
<g id="node13" class="node"><title>otoilet</title>
<text text-anchor="middle" x="907.5" y="-296.8" font-family="serif" font-size="9.00">toilet</text>
</g>
<!-- e11 -->
<g id="node22" class="node"><title>e11</title>
</g>
<!-- otoilet&#45;&gt;e11 -->
<g id="edge45" class="edge"><title>otoilet&#45;&gt;e11</title>
<path fill="none" stroke="green" d="M903.593,-289.801C887.413,-255.842 826.5,-128 826.5,-128"/>
</g>
<!-- e0 -->
<g id="node14" class="node"><title>e0</title>
</g>
<!-- v4 -->
<g id="v4_Laptop" class="node"><title>v4</title>
<ellipse fill="none" stroke="black" cx="45.5" cy="-69" rx="29" ry="11"/>
<text text-anchor="middle" x="45.5" y="-66.8" font-family="sans-serif" font-size="9.00">Laptop</text>
</g>
<!-- e0&#45;&gt;v4 -->
<g id="edge19" class="edge"><title>e0&#45;&gt;v4</title>
<path fill="none" stroke="green" d="M54.8156,-122.167C53.2833,-113.586 49.535,-92.5957 47.2878,-80.0117"/>
<polygon fill="green" stroke="green" points="58.8224,-124.696 51.9314,-125.926 51.6853,-124.548 58.5763,-123.317 58.8224,-124.696"/>
<polyline fill="none" stroke="green" points="55.5,-126 54.8847,-122.555 "/>
</g>
<!-- e1 -->
<g id="node15" class="node"><title>e1</title>
</g>
<!-- e1&#45;&gt;v4 -->
<g id="edge20" class="edge"><title>e1&#45;&gt;v4</title>
<path fill="none" stroke="green" d="M37.1159,-122.167C38.4951,-113.586 41.8685,-92.5957 43.891,-80.0117"/>
<polygon fill="green" stroke="green" points="40.0667,-125.864 33.1554,-124.753 33.3776,-123.371 40.2889,-124.482 40.0667,-125.864"/>
<polyline fill="none" stroke="green" points="36.5,-126 37.0554,-122.544 "/>
</g>
<!-- v6 -->
<g id="v6_HVAC" class="node"><title>v6</title>
<ellipse fill="none" stroke="black" cx="912.5" cy="-69" rx="21.5" ry="11"/>
<text text-anchor="middle" x="912.5" y="-66.8" font-family="sans-serif" font-size="9.00">HVAC</text>
</g>
<!-- e4&#45;&gt;v6 -->
<g id="edge24" class="edge"><title>e4&#45;&gt;v6</title>
<path fill="none" stroke="green" d="M969.5,-126C969.5,-126 937.771,-94.8273 921.658,-78.9974"/>
</g>
<!-- v8 -->
<g id="v8_FireDetector" class="node"><title>v8</title>
<ellipse fill="none" stroke="black" cx="962.5" cy="-11" rx="50.5" ry="11"/>
<text text-anchor="middle" x="962.5" y="-8.8" font-family="sans-serif" font-size="9.00">FireDetector</text>
</g>
<!-- e4&#45;&gt;v8 -->
<g id="edge25" class="edge"><title>e4&#45;&gt;v8</title>
<path fill="none" stroke="green" d="M969.5,-126C969.5,-126 964.834,-50.0168 963.121,-22.1167"/>
</g>
<!-- v11 -->
<g id="v11_SmartLight" class="node"><title>v11</title>
<ellipse fill="none" stroke="black" cx="1074.5" cy="-11" rx="43" ry="11"/>
<text text-anchor="middle" x="1074.5" y="-8.8" font-family="sans-serif" font-size="9.00">SmartLight</text>
</g>
<!-- e4&#45;&gt;v11 -->
<g id="edge26" class="edge"><title>e4&#45;&gt;v11</title>
<path fill="none" stroke="green" d="M969.5,-126C969.5,-126 1039.48,-50.0168 1065.18,-22.1167"/>
</g>
<!-- v1 -->
<g id="v1_Hallway" class="node"><title>v1</title>
<ellipse fill="none" stroke="black" cx="645.5" cy="-11" rx="32.5" ry="11"/>
<text text-anchor="middle" x="645.5" y="-8.8" font-family="sans-serif" font-size="9.00">Hallway</text>
</g>
<!-- e5&#45;&gt;v1 -->
<g id="edge28" class="edge"><title>e5&#45;&gt;v1</title>
<path fill="none" stroke="green" d="M486.5,-126C486.5,-126 478.239,-81.0501 498.5,-58 527.454,-25.0609 579.639,-15.4466 613.408,-12.7904"/>
</g>
<!-- v14 -->
<g id="v14_Room" class="node"><title>v14</title>
<ellipse fill="none" stroke="black" cx="429.5" cy="-69" rx="21.5" ry="11"/>
<text text-anchor="middle" x="429.5" y="-66.8" font-family="sans-serif" font-size="9.00">Room</text>
</g>
<!-- e5&#45;&gt;v14 -->
<g id="edge29" class="edge"><title>e5&#45;&gt;v14</title>
<path fill="none" stroke="green" d="M486.5,-126C486.5,-126 454.771,-94.8273 438.658,-78.9974"/>
</g>
<!-- e6&#45;&gt;v1 -->
<g id="edge31" class="edge"><title>e6&#45;&gt;v1</title>
<path fill="none" stroke="green" d="M557.5,-126C557.5,-126 616.716,-49.288 637.997,-21.7196"/>
</g>
<!-- v12 -->
<g id="v12_Entrance" class="node"><title>v12</title>
<ellipse fill="none" stroke="black" cx="543.5" cy="-69" rx="36" ry="11"/>
<text text-anchor="middle" x="543.5" y="-66.8" font-family="sans-serif" font-size="9.00">Entrance</text>
</g>
<!-- e6&#45;&gt;v12 -->
<g id="edge32" class="edge"><title>e6&#45;&gt;v12</title>
<path fill="none" stroke="green" d="M557.5,-126C557.5,-126 550.03,-96.1193 546.003,-80.0117"/>
</g>
<!-- e7&#45;&gt;v6 -->
<g id="edge34" class="edge"><title>e7&#45;&gt;v6</title>
<path fill="none" stroke="green" d="M1069.5,-126C1069.5,-126 969.803,-90.4395 929.302,-75.993"/>
</g>
<!-- e7&#45;&gt;v8 -->
<g id="edge35" class="edge"><title>e7&#45;&gt;v8</title>
<path fill="none" stroke="green" d="M1069.5,-126C1069.5,-126 998.182,-50.0168 971.996,-22.1167"/>
</g>
<!-- e7&#45;&gt;v11 -->
<g id="edge36" class="edge"><title>e7&#45;&gt;v11</title>
<path fill="none" stroke="green" d="M1069.5,-126C1069.5,-126 1072.83,-50.0168 1074.06,-22.1167"/>
</g>
<!-- v15 -->
<g id="v15_Wokrstation" class="node"><title>v15</title>
<ellipse fill="none" stroke="black" cx="353.5" cy="-11" rx="47" ry="11"/>
<text text-anchor="middle" x="353.5" y="-8.8" font-family="sans-serif" font-size="9.00">Wokrstation</text>
</g>
<!-- e8&#45;&gt;v15 -->
<g id="edge38" class="edge"><title>e8&#45;&gt;v15</title>
<path fill="none" stroke="green" d="M229.5,-68C229.5,-68 298.525,-36.8273 333.577,-20.9974"/>
</g>
<!-- e8&#45;&gt;v16 -->
<g id="edge39" class="edge"><title>e8&#45;&gt;v16</title>
<path fill="none" stroke="green" d="M229.5,-68C229.5,-68 181.502,-37.7988 156.003,-21.7545"/>
</g>
<!-- e8&#45;&gt;v17 -->
<g id="edge40" class="edge"><title>e8&#45;&gt;v17</title>
<path fill="none" stroke="green" d="M229.5,-68C229.5,-68 241.772,-38.1193 248.388,-22.0117"/>
</g>
<!-- e10&#45;&gt;v1 -->
<g id="edge43" class="edge"><title>e10&#45;&gt;v1</title>
<path fill="none" stroke="green" d="M636.5,-242C636.5,-242 643.36,-66.6915 645.102,-22.1796"/>
</g>
<!-- v2 -->
<g id="v2_Room" class="node"><title>v2</title>
<ellipse fill="none" stroke="black" cx="759.5" cy="-185" rx="21.5" ry="11"/>
<text text-anchor="middle" x="759.5" y="-182.8" font-family="sans-serif" font-size="9.00">Room</text>
</g>
<!-- e10&#45;&gt;v2 -->
<g id="edge44" class="edge"><title>e10&#45;&gt;v2</title>
<path fill="none" stroke="green" d="M636.5,-242C636.5,-242 711.573,-207.82 744.418,-192.867"/>
</g>
<!-- e11&#45;&gt;v1 -->
<g id="edge46" class="edge"><title>e11&#45;&gt;v1</title>
<path fill="none" stroke="green" d="M826.5,-126C826.5,-126 702.372,-47.8198 659.703,-20.9454"/>
</g>
<!-- v10 -->
<g id="v10_Room" class="node"><title>v10</title>
<ellipse fill="none" stroke="black" cx="851.5" cy="-69" rx="21.5" ry="11"/>
<text text-anchor="middle" x="851.5" y="-66.8" font-family="sans-serif" font-size="9.00">Room</text>
</g>
<!-- e11&#45;&gt;v10 -->
<g id="edge47" class="edge"><title>e11&#45;&gt;v10</title>
<path fill="none" stroke="green" d="M826.5,-126C826.5,-126 839.84,-96.1193 847.031,-80.0117"/>
</g>
<!-- v0&#45;&gt;osecond -->
<g id="edge41" class="edge"><title>v0&#45;&gt;osecond</title>
<path fill="none" stroke="green" d="M708.943,-254.03C708.375,-264.259 707.503,-279.952 706.969,-289.562"/>
</g>
<!-- v0&#45;&gt;v1 -->
<g id="edge4" class="edge"><title>v0&#45;&gt;v1</title>
<path fill="none" stroke="black" d="M706.667,-231.82C696.486,-195.229 661.709,-70.2499 649.654,-26.9288"/>
<polygon fill="black" stroke="black" points="648.3,-22.062 651.808,-26.2758 648.97,-24.4705 649.64,-26.879 649.64,-26.879 649.64,-26.879 648.97,-24.4705 647.473,-27.4822 648.3,-22.062 648.3,-22.062"/>
</g>
<!-- v0&#45;&gt;v2 -->
<g id="edge5" class="edge"><title>v0&#45;&gt;v2</title>
<path fill="none" stroke="black" d="M717.982,-232.5C726.148,-223.354 738.57,-209.442 747.7,-199.217"/>
<polygon fill="black" stroke="black" points="751.143,-195.359 749.492,-200.588 749.478,-197.224 747.813,-199.089 747.813,-199.089 747.813,-199.089 749.478,-197.224 746.135,-197.591 751.143,-195.359 751.143,-195.359"/>
</g>
<!-- v0&#45;&gt;v10 -->
<g id="edge6" class="edge"><title>v0&#45;&gt;v10</title>
<path fill="none" stroke="black" d="M726.3,-234.652C743.353,-226.688 769.956,-212.834 789.5,-196 814.428,-174.528 821.165,-167.614 835.5,-138 843.71,-121.039 847.848,-99.6172 849.833,-85.3975"/>
<polygon fill="black" stroke="black" points="850.514,-80.1428 852.102,-85.3905 850.192,-82.622 849.871,-85.1013 849.871,-85.1013 849.871,-85.1013 850.192,-82.622 847.64,-84.8121 850.514,-80.1428 850.514,-80.1428"/>
</g>
<!-- v0&#45;&gt;v12 -->
<g id="edge7" class="edge"><title>v0&#45;&gt;v12</title>
<path fill="none" stroke="black" d="M700.339,-232.508C672.515,-203.678 588.924,-117.066 556.527,-83.4984"/>
<polygon fill="black" stroke="black" points="552.838,-79.6752 557.929,-81.7104 554.574,-81.474 556.31,-83.2729 556.31,-83.2729 556.31,-83.2729 554.574,-81.474 554.691,-84.8354 552.838,-79.6752 552.838,-79.6752"/>
</g>
<!-- v0&#45;&gt;v14 -->
<g id="edge8" class="edge"><title>v0&#45;&gt;v14</title>
<path fill="none" stroke="black" d="M688.444,-236.768C644.909,-225.121 543.472,-193.603 476.5,-138 458.644,-123.175 444.592,-99.944 436.663,-84.8436"/>
<polygon fill="black" stroke="black" points="434.213,-80.0581 438.494,-83.4829 435.352,-82.2833 436.492,-84.5085 436.492,-84.5085 436.492,-84.5085 435.352,-82.2833 434.489,-85.5341 434.213,-80.0581 434.213,-80.0581"/>
</g>
<!-- v3 -->
<g id="v3_Actor" class="node"><title>v3</title>
<ellipse fill="none" stroke="black" cx="244.5" cy="-127" rx="25" ry="11"/>
<text text-anchor="middle" x="244.5" y="-124.8" font-family="sans-serif" font-size="9.00">Actor</text>
</g>
<!-- v2&#45;&gt;v3 -->
<g id="edge9" class="edge"><title>v2&#45;&gt;v3</title>
<path fill="none" stroke="black" d="M738.674,-181.735C658.057,-172.969 366.376,-141.253 273.274,-131.129"/>
<polygon fill="black" stroke="black" points="268.209,-130.578 273.423,-128.882 270.695,-130.848 273.18,-131.119 273.18,-131.119 273.18,-131.119 270.695,-130.848 272.937,-133.356 268.209,-130.578 268.209,-130.578"/>
</g>
<!-- v2&#45;&gt;v6 -->
<g id="edge10" class="edge"><title>v2&#45;&gt;v6</title>
<path fill="none" stroke="black" d="M773.426,-176.564C789.039,-168.003 814.871,-153.163 835.5,-138 859.144,-120.621 884.202,-97.4929 899.09,-83.1839"/>
<polygon fill="black" stroke="black" points="903.01,-79.394 900.979,-84.4871 901.212,-81.1318 899.415,-82.8695 899.415,-82.8695 899.415,-82.8695 901.212,-81.1318 897.851,-81.2519 903.01,-79.394 903.01,-79.394"/>
</g>
<!-- v2&#45;&gt;v8 -->
<g id="edge11" class="edge"><title>v2&#45;&gt;v8</title>
<path fill="none" stroke="black" d="M763.119,-174.123C773.083,-147.405 801.441,-74.6018 820.5,-58 836.191,-44.332 888.081,-29.7091 924.576,-20.7087"/>
<polygon fill="black" stroke="black" points="929.843,-19.4224 925.519,-22.7945 927.414,-20.0156 924.985,-20.6088 924.985,-20.6088 924.985,-20.6088 927.414,-20.0156 924.451,-18.423 929.843,-19.4224 929.843,-19.4224"/>
</g>
<!-- v9 -->
<g id="v9_Servers" class="node"><title>v9</title>
<ellipse fill="none" stroke="black" cx="759.5" cy="-11" rx="32.5" ry="11"/>
<text text-anchor="middle" x="759.5" y="-8.8" font-family="sans-serif" font-size="9.00">Servers</text>
</g>
<!-- v2&#45;&gt;v9 -->
<g id="edge12" class="edge"><title>v2&#45;&gt;v9</title>
<path fill="none" stroke="black" d="M759.5,-173.756C759.5,-144.786 759.5,-62.1364 759.5,-27.5335"/>
<polygon fill="black" stroke="black" points="759.5,-22.4081 761.75,-27.408 759.5,-24.9081 759.5,-27.4081 759.5,-27.4081 759.5,-27.4081 759.5,-24.9081 757.25,-27.4081 759.5,-22.4081 759.5,-22.4081"/>
</g>
<!-- v3&#45;&gt;v4 -->
<g id="edge13" class="edge"><title>v3&#45;&gt;v4</title>
<path fill="none" stroke="black" d="M224.324,-120.322C188.389,-110.21 113.282,-89.0744 72.7812,-77.6771"/>
<polygon fill="black" stroke="black" points="67.5419,-76.2027 72.9645,-75.3914 69.9484,-76.88 72.3549,-77.5572 72.3549,-77.5572 72.3549,-77.5572 69.9484,-76.88 71.7454,-79.7231 67.5419,-76.2027 67.5419,-76.2027"/>
</g>
<!-- v5 -->
<g id="v5_Malware" class="node"><title>v5</title>
<ellipse fill="none" stroke="black" cx="32.5" cy="-11" rx="32.5" ry="11"/>
<text text-anchor="middle" x="32.5" y="-8.8" font-family="sans-serif" font-size="9.00">Malware</text>
</g>
<!-- v4&#45;&gt;v5 -->
<g id="edge14" class="edge"><title>v4&#45;&gt;v5</title>
<path fill="none" stroke="black" d="M43.1759,-57.9883C41.204,-49.4941 38.343,-37.1697 36.0789,-27.4169"/>
<polygon fill="black" stroke="black" points="34.892,-22.3039 38.2144,-26.6655 35.4573,-24.7391 36.0227,-27.1744 36.0227,-27.1744 36.0227,-27.1744 35.4573,-24.7391 33.831,-27.6832 34.892,-22.3039 34.892,-22.3039"/>
</g>
<!-- v7 -->
<g id="v7_Malware" class="node"><title>v7</title>
<ellipse fill="none" stroke="black" cx="861.5" cy="-11" rx="32.5" ry="11"/>
<text text-anchor="middle" x="861.5" y="-8.8" font-family="sans-serif" font-size="9.00">Malware</text>
</g>
<!-- v6&#45;&gt;v7 -->
<g id="edge15" class="edge"><title>v6&#45;&gt;v7</title>
<path fill="none" stroke="black" d="M904.078,-58.7527C895.886,-49.7573 883.342,-35.9828 873.988,-25.7121"/>
<polygon fill="black" stroke="black" points="870.449,-21.8266 875.479,-24.0083 872.133,-23.6749 873.816,-25.5233 873.816,-25.5233 873.816,-25.5233 872.133,-23.6749 872.152,-27.0383 870.449,-21.8266 870.449,-21.8266"/>
</g>
<!-- v10&#45;&gt;v11 -->
<g id="edge16" class="edge"><title>v10&#45;&gt;v11</title>
<path fill="none" stroke="black" d="M868.553,-62.0276C872.763,-60.6331 877.276,-59.2047 881.5,-58 935.55,-42.5826 999.109,-28.1305 1038.1,-19.6769"/>
<polygon fill="black" stroke="black" points="1043.19,-18.575 1038.78,-21.8304 1040.75,-19.1031 1038.31,-19.6311 1038.31,-19.6311 1038.31,-19.6311 1040.75,-19.1031 1037.83,-17.4319 1043.19,-18.575 1043.19,-18.575"/>
</g>
<!-- v13 -->
<g id="v13_FireDetector" class="node"><title>v13</title>
<ellipse fill="none" stroke="black" cx="469.5" cy="-11" rx="50.5" ry="11"/>
<text text-anchor="middle" x="469.5" y="-8.8" font-family="sans-serif" font-size="9.00">FireDetector</text>
</g>
<!-- v12&#45;&gt;v13 -->
<g id="edge17" class="edge"><title>v12&#45;&gt;v13</title>
<path fill="none" stroke="black" d="M530.947,-58.5004C518.69,-49.2246 499.954,-35.046 486.393,-24.7838"/>
<polygon fill="black" stroke="black" points="482.363,-21.7345 487.708,-22.9575 484.357,-23.2431 486.35,-24.7517 486.35,-24.7517 486.35,-24.7517 484.357,-23.2431 484.993,-26.5459 482.363,-21.7345 482.363,-21.7345"/>
</g>
<!-- v13&#45;&gt;oa -->
<g id="edge21" class="edge"><title>v13&#45;&gt;oa</title>
<path fill="none" stroke="green" d="M447.486,-21.0861C431.64,-28.7105 410.945,-41.081 398.5,-58 379.907,-83.2781 379.5,-94.6202 379.5,-126 379.5,-186 379.5,-186 379.5,-186 379.5,-224.889 379.5,-271.373 379.5,-289.849"/>
</g>
<!-- v13&#45;&gt;ob -->
<g id="edge22" class="edge"><title>v13&#45;&gt;ob</title>
<path fill="none" stroke="green" d="M444.552,-20.6935C406.543,-35.7153 338.5,-70.3753 338.5,-126 338.5,-186 338.5,-186 338.5,-186 338.5,-224.889 338.5,-271.373 338.5,-289.849"/>
</g>
<!-- v14&#45;&gt;v15 -->
<g id="edge18" class="edge"><title>v14&#45;&gt;v15</title>
<path fill="none" stroke="black" d="M417.957,-59.4948C405.463,-50.2888 385.395,-35.5013 370.968,-24.8712"/>
<polygon fill="black" stroke="black" points="366.687,-21.7165 372.047,-22.8711 368.699,-23.1995 370.712,-24.6825 370.712,-24.6825 370.712,-24.6825 368.699,-23.1995 369.377,-26.4939 366.687,-21.7165 366.687,-21.7165"/>
</g>
</g>
</svg>
