<?xml version="1.0" encoding="UTF-8" standalone="no"?>
<?xml-stylesheet href="style.css" type="text/css"?>
<!DOCTYPE svg PUBLIC "-//W3C//DTD SVG 1.1//EN"
 "http://www.w3.org/Graphics/SVG/1.1/DTD/svg11.dtd">
<!-- Generated by graphviz version 2.38.0 (20140413.2041)
 -->
<!-- Title: 14.svg Pages: 1 -->
<svg width="1116pt" height="316pt"
 viewBox="0.00 0.00 1116.00 316.00" xmlns="http://www.w3.org/2000/svg" xmlns:xlink="http://www.w3.org/1999/xlink">
<g id="graph0" class="graph" transform="scale(1 1) rotate(0) translate(4 312)">
<title>14.svg</title>
<polygon fill="white" stroke="none" points="-4,4 -4,-312 1112,-312 1112,4 -4,4"/>
<!-- r0 -->
<g id="node1" class="node"><title>r0</title>
<polygon fill="none" stroke="black" stroke-dasharray="5,2" points="689,-308 666,-308 666,-290 689,-290 689,-308"/>
<text text-anchor="middle" x="677.5" y="-296.8" font-family="serif" font-size="9.00">0</text>
</g>
<!-- v0 -->
<g id="v0_Floor" class="node"><title>v0</title>
<ellipse fill="none" stroke="black" cx="648.5" cy="-243" rx="25" ry="11"/>
<text text-anchor="middle" x="648.5" y="-240.8" font-family="sans-serif" font-size="9.00">Floor</text>
</g>
<!-- r0&#45;&gt;v0 -->
<g id="edge1" class="edge"><title>r0&#45;&gt;v0</title>
<path fill="none" stroke="black" d="M672.969,-289.562C668.533,-281.303 661.685,-268.552 656.361,-258.638"/>
<polygon fill="black" stroke="black" points="653.887,-254.03 658.235,-257.371 655.07,-256.233 656.252,-258.435 656.252,-258.435 656.252,-258.435 655.07,-256.233 654.27,-259.5 653.887,-254.03 653.887,-254.03"/>
</g>
<!-- r1 -->
<g id="node2" class="node"><title>r1</title>
<polygon fill="none" stroke="black" stroke-dasharray="5,2" points="152,-308 129,-308 129,-290 152,-290 152,-308"/>
<text text-anchor="middle" x="140.5" y="-296.8" font-family="serif" font-size="9.00">1</text>
</g>
<!-- v16 -->
<g id="v16_ControlProcess" class="node"><title>v16</title>
<ellipse fill="none" stroke="black" cx="140.5" cy="-11" rx="57.5" ry="11"/>
<text text-anchor="middle" x="140.5" y="-8.8" font-family="sans-serif" font-size="9.00">ControlProcess</text>
</g>
<!-- r1&#45;&gt;v16 -->
<g id="edge2" class="edge"><title>r1&#45;&gt;v16</title>
<path fill="none" stroke="black" d="M140.5,-289.849C140.5,-271.373 140.5,-224.889 140.5,-186 140.5,-186 140.5,-186 140.5,-126 140.5,-90.6038 140.5,-49.0257 140.5,-27.1783"/>
<polygon fill="black" stroke="black" points="140.5,-22.0648 142.75,-27.0648 140.5,-24.5648 140.5,-27.0648 140.5,-27.0648 140.5,-27.0648 140.5,-24.5648 138.25,-27.0648 140.5,-22.0648 140.5,-22.0648"/>
</g>
<!-- r2 -->
<g id="node3" class="node"><title>r2</title>
<polygon fill="none" stroke="black" stroke-dasharray="5,2" points="298,-308 275,-308 275,-290 298,-290 298,-308"/>
<text text-anchor="middle" x="286.5" y="-296.8" font-family="serif" font-size="9.00">2</text>
</g>
<!-- v17 -->
<g id="v17_Database" class="node"><title>v17</title>
<ellipse fill="none" stroke="black" cx="252.5" cy="-11" rx="36" ry="11"/>
<text text-anchor="middle" x="252.5" y="-8.8" font-family="sans-serif" font-size="9.00">Database</text>
</g>
<!-- r2&#45;&gt;v17 -->
<g id="edge3" class="edge"><title>r2&#45;&gt;v17</title>
<path fill="none" stroke="black" d="M286.5,-289.849C286.5,-271.373 286.5,-224.889 286.5,-186 286.5,-186 286.5,-186 286.5,-126 286.5,-89.0978 269.937,-48.1739 259.932,-26.8186"/>
<polygon fill="black" stroke="black" points="257.664,-22.072 261.85,-25.6134 258.742,-24.3277 259.82,-26.5835 259.82,-26.5835 259.82,-26.5835 258.742,-24.3277 257.789,-27.5535 257.664,-22.072 257.664,-22.072"/>
</g>
<!-- oa -->
<g id="node4" class="node"><title>oa</title>
<text text-anchor="middle" x="510.5" y="-296.8" font-family="serif" font-size="9.00">a</text>
</g>
<!-- ob -->
<g id="node5" class="node"><title>ob</title>
<text text-anchor="middle" x="401.5" y="-296.8" font-family="serif" font-size="9.00">b</text>
</g>
<!-- obusNetwork -->
<g id="node6" class="node"><title>obusNetwork</title>
<text text-anchor="middle" x="1036.5" y="-296.8" font-family="serif" font-size="9.00">busNetwork</text>
</g>
<!-- e4 -->
<g id="node16" class="node"><title>e4</title>
</g>
<!-- obusNetwork&#45;&gt;e4 -->
<g id="edge23" class="edge"><title>obusNetwork&#45;&gt;e4</title>
<path fill="none" stroke="green" d="M1035.34,-289.801C1030.55,-255.842 1012.5,-128 1012.5,-128"/>
</g>
<!-- ocontrol -->
<g id="node7" class="node"><title>ocontrol</title>
<text text-anchor="middle" x="456.5" y="-296.8" font-family="serif" font-size="9.00">control</text>
</g>
<!-- e5 -->
<g id="node17" class="node"><title>e5</title>
</g>
<!-- ocontrol&#45;&gt;e5 -->
<g id="edge27" class="edge"><title>ocontrol&#45;&gt;e5</title>
<path fill="none" stroke="green" d="M456.5,-289.562C456.5,-274.375 456.5,-244 456.5,-244"/>
</g>
<!-- oent -->
<g id="node8" class="node"><title>oent</title>
<text text-anchor="middle" x="564.5" y="-296.8" font-family="serif" font-size="9.00">ent</text>
</g>
<!-- e6 -->
<g id="node18" class="node"><title>e6</title>
</g>
<!-- oent&#45;&gt;e6 -->
<g id="edge30" class="edge"><title>oent&#45;&gt;e6</title>
<path fill="none" stroke="green" d="M565.465,-289.801C569.46,-255.842 584.5,-128 584.5,-128"/>
</g>
<!-- oinstallationBus -->
<g id="node9" class="node"><title>oinstallationBus</title>
<text text-anchor="middle" x="938.5" y="-296.8" font-family="serif" font-size="9.00">installationBus</text>
</g>
<!-- e7 -->
<g id="node19" class="node"><title>e7</title>
</g>
<!-- oinstallationBus&#45;&gt;e7 -->
<g id="edge33" class="edge"><title>oinstallationBus&#45;&gt;e7</title>
<path fill="none" stroke="green" d="M938.789,-289.801C939.988,-255.842 944.5,-128 944.5,-128"/>
</g>
<!-- oip_network -->
<g id="node10" class="node"><title>oip_network</title>
<text text-anchor="middle" x="222.5" y="-296.8" font-family="serif" font-size="9.00">ip_network</text>
</g>
<!-- e8 -->
<g id="node20" class="node"><title>e8</title>
</g>
<!-- oip_network&#45;&gt;e8 -->
<g id="edge37" class="edge"><title>oip_network&#45;&gt;e8</title>
<path fill="none" stroke="green" d="M223.034,-289.885C225.706,-249.27 237.5,-70 237.5,-70"/>
</g>
<!-- osecond -->
<g id="node11" class="node"><title>osecond</title>
<text text-anchor="middle" x="623.5" y="-296.8" font-family="serif" font-size="9.00">second</text>
</g>
<!-- oserver -->
<g id="node12" class="node"><title>oserver</title>
<text text-anchor="middle" x="796.5" y="-296.8" font-family="serif" font-size="9.00">server</text>
</g>
<!-- e10 -->
<g id="node21" class="node"><title>e10</title>
</g>
<!-- oserver&#45;&gt;e10 -->
<g id="edge42" class="edge"><title>oserver&#45;&gt;e10</title>
<path fill="none" stroke="green" d="M796.5,-289.945C796.5,-264.265 796.5,-186 796.5,-186"/>
</g>
<!-- otoilet -->
<g id="node13" class="node"><title>otoilet</title>
<text text-anchor="middle" x="727.5" y="-296.8" font-family="serif" font-size="9.00">toilet</text>
</g>
<!-- e11 -->
<g id="node22" class="node"><title>e11</title>
</g>
<!-- otoilet&#45;&gt;e11 -->
<g id="edge45" class="edge"><title>otoilet&#45;&gt;e11</title>
<path fill="none" stroke="green" d="M726.487,-289.801C722.292,-255.842 706.5,-128 706.5,-128"/>
</g>
<!-- e0 -->
<g id="node14" class="node"><title>e0</title>
</g>
<!-- v4 -->
<g id="v4_Laptop" class="node"><title>v4</title>
<ellipse fill="none" stroke="black" cx="33.5" cy="-69" rx="29" ry="11"/>
<text text-anchor="middle" x="33.5" y="-66.8" font-family="sans-serif" font-size="9.00">Laptop</text>
</g>
<!-- e0&#45;&gt;v4 -->
<g id="edge19" class="edge"><title>e0&#45;&gt;v4</title>
<path fill="none" stroke="green" d="M35.3631,-122.167C35.0567,-113.586 34.307,-92.5957 33.8576,-80.0117"/>
<polygon fill="green" stroke="green" points="38.9728,-125.175 31.9772,-125.425 31.9272,-124.026 38.9228,-123.776 38.9728,-125.175"/>
<polyline fill="none" stroke="green" points="35.5,-126 35.375,-122.502 "/>
</g>
<!-- e1 -->
<g id="node15" class="node"><title>e1</title>
</g>
<!-- e1&#45;&gt;v4 -->
<g id="edge20" class="edge"><title>e1&#45;&gt;v4</title>
<path fill="none" stroke="green" d="M17.6635,-122.167C20.2685,-113.586 26.6406,-92.5957 30.4607,-80.0117"/>
<polygon fill="green" stroke="green" points="20.0524,-126.347 13.3543,-124.313 13.761,-122.974 20.4591,-125.007 20.0524,-126.347"/>
<polyline fill="none" stroke="green" points="16.5,-126 17.5167,-122.651 "/>
</g>
<!-- v8 -->
<g id="v8_SmartLight" class="node"><title>v8</title>
<ellipse fill="none" stroke="black" cx="862.5" cy="-11" rx="43" ry="11"/>
<text text-anchor="middle" x="862.5" y="-8.8" font-family="sans-serif" font-size="9.00">SmartLight</text>
</g>
<!-- e4&#45;&gt;v8 -->
<g id="edge24" class="edge"><title>e4&#45;&gt;v8</title>
<path fill="none" stroke="green" d="M1012.5,-126C1012.5,-126 1004.91,-80.8002 980.5,-58 956.96,-36.0117 921.719,-24.1253 895.878,-17.9797"/>
</g>
<!-- v10 -->
<g id="v10_HVAC" class="node"><title>v10</title>
<ellipse fill="none" stroke="black" cx="950.5" cy="-69" rx="21.5" ry="11"/>
<text text-anchor="middle" x="950.5" y="-66.8" font-family="sans-serif" font-size="9.00">HVAC</text>
</g>
<!-- e4&#45;&gt;v10 -->
<g id="edge25" class="edge"><title>e4&#45;&gt;v10</title>
<path fill="none" stroke="green" d="M1012.5,-126C1012.5,-126 977.987,-94.8273 960.461,-78.9974"/>
</g>
<!-- v14 -->
<g id="v14_FireDetector" class="node"><title>v14</title>
<ellipse fill="none" stroke="black" cx="1057.5" cy="-11" rx="50.5" ry="11"/>
<text text-anchor="middle" x="1057.5" y="-8.8" font-family="sans-serif" font-size="9.00">FireDetector</text>
</g>
<!-- e4&#45;&gt;v14 -->
<g id="edge26" class="edge"><title>e4&#45;&gt;v14</title>
<path fill="none" stroke="green" d="M1012.5,-126C1012.5,-126 1042.09,-105.011 1052.5,-80 1060.51,-60.767 1059.87,-35.8387 1058.69,-22.1368"/>
</g>
<!-- v1 -->
<g id="v1_Hallway" class="node"><title>v1</title>
<ellipse fill="none" stroke="black" cx="648.5" cy="-11" rx="32.5" ry="11"/>
<text text-anchor="middle" x="648.5" y="-8.8" font-family="sans-serif" font-size="9.00">Hallway</text>
</g>
<!-- e5&#45;&gt;v1 -->
<g id="edge28" class="edge"><title>e5&#45;&gt;v1</title>
<path fill="none" stroke="green" d="M456.5,-242C456.5,-242 443.887,-119.387 501.5,-58 531.42,-26.1194 583.084,-16.1978 616.512,-13.1902"/>
</g>
<!-- v2 -->
<g id="v2_Room" class="node"><title>v2</title>
<ellipse fill="none" stroke="black" cx="353.5" cy="-185" rx="21.5" ry="11"/>
<text text-anchor="middle" x="353.5" y="-182.8" font-family="sans-serif" font-size="9.00">Room</text>
</g>
<!-- e5&#45;&gt;v2 -->
<g id="edge29" class="edge"><title>e5&#45;&gt;v2</title>
<path fill="none" stroke="green" d="M456.5,-242C456.5,-242 395.506,-208.838 367.391,-193.552"/>
</g>
<!-- e6&#45;&gt;v1 -->
<g id="edge31" class="edge"><title>e6&#45;&gt;v1</title>
<path fill="none" stroke="green" d="M584.5,-126C584.5,-126 627.157,-50.0168 642.82,-22.1167"/>
</g>
<!-- v12 -->
<g id="v12_Entrance" class="node"><title>v12</title>
<ellipse fill="none" stroke="black" cx="546.5" cy="-69" rx="36" ry="11"/>
<text text-anchor="middle" x="546.5" y="-66.8" font-family="sans-serif" font-size="9.00">Entrance</text>
</g>
<!-- e6&#45;&gt;v12 -->
<g id="edge32" class="edge"><title>e6&#45;&gt;v12</title>
<path fill="none" stroke="green" d="M584.5,-126C584.5,-126 564.224,-96.1193 553.294,-80.0117"/>
</g>
<!-- e7&#45;&gt;v8 -->
<g id="edge34" class="edge"><title>e7&#45;&gt;v8</title>
<path fill="none" stroke="green" d="M944.5,-126C944.5,-126 889.845,-50.0168 869.777,-22.1167"/>
</g>
<!-- e7&#45;&gt;v10 -->
<g id="edge35" class="edge"><title>e7&#45;&gt;v10</title>
<path fill="none" stroke="green" d="M944.5,-126C944.5,-126 947.702,-96.1193 949.427,-80.0117"/>
</g>
<!-- e7&#45;&gt;v14 -->
<g id="edge36" class="edge"><title>e7&#45;&gt;v14</title>
<path fill="none" stroke="green" d="M944.5,-126C944.5,-126 1019.82,-50.0168 1047.47,-22.1167"/>
</g>
<!-- v6 -->
<g id="v6_Wokrstation" class="node"><title>v6</title>
<ellipse fill="none" stroke="black" cx="353.5" cy="-11" rx="47" ry="11"/>
<text text-anchor="middle" x="353.5" y="-8.8" font-family="sans-serif" font-size="9.00">Wokrstation</text>
</g>
<!-- e8&#45;&gt;v6 -->
<g id="edge38" class="edge"><title>e8&#45;&gt;v6</title>
<path fill="none" stroke="green" d="M237.5,-68C237.5,-68 301.734,-36.9903 334.604,-21.122"/>
</g>
<!-- e8&#45;&gt;v16 -->
<g id="edge39" class="edge"><title>e8&#45;&gt;v16</title>
<path fill="none" stroke="green" d="M237.5,-68C237.5,-68 185.187,-37.7988 157.396,-21.7545"/>
</g>
<!-- e8&#45;&gt;v17 -->
<g id="edge40" class="edge"><title>e8&#45;&gt;v17</title>
<path fill="none" stroke="green" d="M237.5,-68C237.5,-68 245.504,-38.1193 249.818,-22.0117"/>
</g>
<!-- e10&#45;&gt;v1 -->
<g id="edge43" class="edge"><title>e10&#45;&gt;v1</title>
<path fill="none" stroke="green" d="M796.5,-184C796.5,-184 804.302,-101.414 766.5,-58 743.975,-32.1315 705.085,-20.7087 678.138,-15.7319"/>
</g>
<!-- v9 -->
<g id="v9_Room" class="node"><title>v9</title>
<ellipse fill="none" stroke="black" cx="836.5" cy="-127" rx="21.5" ry="11"/>
<text text-anchor="middle" x="836.5" y="-124.8" font-family="sans-serif" font-size="9.00">Room</text>
</g>
<!-- e10&#45;&gt;v9 -->
<g id="edge44" class="edge"><title>e10&#45;&gt;v9</title>
<path fill="none" stroke="green" d="M796.5,-184C796.5,-184 818.302,-153.477 829.715,-137.5"/>
</g>
<!-- e11&#45;&gt;v1 -->
<g id="edge46" class="edge"><title>e11&#45;&gt;v1</title>
<path fill="none" stroke="green" d="M706.5,-126C706.5,-126 667.842,-50.0168 653.647,-22.1167"/>
</g>
<!-- v7 -->
<g id="v7_Room" class="node"><title>v7</title>
<ellipse fill="none" stroke="black" cx="736.5" cy="-69" rx="21.5" ry="11"/>
<text text-anchor="middle" x="736.5" y="-66.8" font-family="sans-serif" font-size="9.00">Room</text>
</g>
<!-- e11&#45;&gt;v7 -->
<g id="edge47" class="edge"><title>e11&#45;&gt;v7</title>
<path fill="none" stroke="green" d="M706.5,-126C706.5,-126 722.679,-95.7988 731.274,-79.7545"/>
</g>
<!-- v0&#45;&gt;osecond -->
<g id="edge41" class="edge"><title>v0&#45;&gt;osecond</title>
<path fill="none" stroke="green" d="M643.856,-254.03C639.121,-264.259 631.856,-279.952 627.406,-289.562"/>
</g>
<!-- v0&#45;&gt;v1 -->
<g id="edge4" class="edge"><title>v0&#45;&gt;v1</title>
<path fill="none" stroke="black" d="M648.5,-231.82C648.5,-195.304 648.5,-70.7575 648.5,-27.194"/>
<polygon fill="black" stroke="black" points="648.5,-22.062 650.75,-27.062 648.5,-24.562 648.5,-27.062 648.5,-27.062 648.5,-27.062 648.5,-24.562 646.25,-27.0621 648.5,-22.062 648.5,-22.062"/>
</g>
<!-- v0&#45;&gt;v2 -->
<g id="edge5" class="edge"><title>v0&#45;&gt;v2</title>
<path fill="none" stroke="black" d="M626.327,-237.791C572.457,-227.565 434.97,-201.466 378.396,-190.726"/>
<polygon fill="black" stroke="black" points="373.179,-189.736 378.511,-188.458 375.635,-190.202 378.091,-190.668 378.091,-190.668 378.091,-190.668 375.635,-190.202 377.672,-192.879 373.179,-189.736 373.179,-189.736"/>
</g>
<!-- v0&#45;&gt;v7 -->
<g id="edge6" class="edge"><title>v0&#45;&gt;v7</title>
<path fill="none" stroke="black" d="M655.915,-232.483C669.408,-214.776 698.178,-175.187 715.5,-138 723.606,-120.598 729.608,-99.2704 733.074,-85.193"/>
<polygon fill="black" stroke="black" points="734.319,-79.9964 735.342,-85.3831 733.737,-82.4276 733.154,-84.8587 733.154,-84.8587 733.154,-84.8587 733.737,-82.4276 730.966,-84.3344 734.319,-79.9964 734.319,-79.9964"/>
</g>
<!-- v0&#45;&gt;v9 -->
<g id="edge7" class="edge"><title>v0&#45;&gt;v9</title>
<path fill="none" stroke="black" d="M673.272,-240.968C706.999,-238.31 767.508,-228.923 805.5,-196 821.357,-182.259 829.551,-158.743 833.435,-143.285"/>
<polygon fill="black" stroke="black" points="834.592,-138.377 835.635,-143.76 834.018,-140.81 833.445,-143.244 833.445,-143.244 833.445,-143.244 834.018,-140.81 831.255,-142.727 834.592,-138.377 834.592,-138.377"/>
</g>
<!-- v0&#45;&gt;v12 -->
<g id="edge8" class="edge"><title>v0&#45;&gt;v12</title>
<path fill="none" stroke="black" d="M640.568,-232.457C626.082,-214.708 594.959,-175.052 574.5,-138 564.826,-120.481 556.501,-98.9214 551.5,-84.8378"/>
<polygon fill="black" stroke="black" points="549.812,-80.0086 553.586,-83.9858 550.637,-82.3685 551.462,-84.7284 551.462,-84.7284 551.462,-84.7284 550.637,-82.3685 549.338,-85.4711 549.812,-80.0086 549.812,-80.0086"/>
</g>
<!-- v3 -->
<g id="v3_Actor" class="node"><title>v3</title>
<ellipse fill="none" stroke="black" cx="82.5" cy="-127" rx="25" ry="11"/>
<text text-anchor="middle" x="82.5" y="-124.8" font-family="sans-serif" font-size="9.00">Actor</text>
</g>
<!-- v2&#45;&gt;v3 -->
<g id="edge9" class="edge"><title>v2&#45;&gt;v3</title>
<path fill="none" stroke="black" d="M334.01,-179.973C286.394,-170.133 164.065,-144.855 109.488,-133.577"/>
<polygon fill="black" stroke="black" points="104.422,-132.53 109.774,-131.339 106.871,-133.036 109.319,-133.542 109.319,-133.542 109.319,-133.542 106.871,-133.036 108.864,-135.745 104.422,-132.53 104.422,-132.53"/>
</g>
<!-- v2&#45;&gt;v6 -->
<g id="edge10" class="edge"><title>v2&#45;&gt;v6</title>
<path fill="none" stroke="black" d="M353.5,-173.756C353.5,-144.786 353.5,-62.1364 353.5,-27.5335"/>
<polygon fill="black" stroke="black" points="353.5,-22.4081 355.75,-27.408 353.5,-24.9081 353.5,-27.4081 353.5,-27.4081 353.5,-27.4081 353.5,-24.9081 351.25,-27.4081 353.5,-22.4081 353.5,-22.4081"/>
</g>
<!-- v3&#45;&gt;v4 -->
<g id="edge11" class="edge"><title>v3&#45;&gt;v4</title>
<path fill="none" stroke="black" d="M74.1878,-116.5C66.2815,-107.465 54.3041,-93.7761 45.3892,-83.5877"/>
<polygon fill="black" stroke="black" points="42.0177,-79.7345 47.0035,-82.0157 43.6639,-81.6159 45.3102,-83.4974 45.3102,-83.4974 45.3102,-83.4974 43.6639,-81.6159 43.6169,-84.979 42.0177,-79.7345 42.0177,-79.7345"/>
</g>
<!-- v5 -->
<g id="v5_Malware" class="node"><title>v5</title>
<ellipse fill="none" stroke="black" cx="32.5" cy="-11" rx="32.5" ry="11"/>
<text text-anchor="middle" x="32.5" y="-8.8" font-family="sans-serif" font-size="9.00">Malware</text>
</g>
<!-- v4&#45;&gt;v5 -->
<g id="edge12" class="edge"><title>v4&#45;&gt;v5</title>
<path fill="none" stroke="black" d="M33.3212,-57.9883C33.1695,-49.4941 32.9495,-37.1697 32.7753,-27.4169"/>
<polygon fill="black" stroke="black" points="32.684,-22.3039 35.023,-27.2629 32.7287,-24.8035 32.7734,-27.3031 32.7734,-27.3031 32.7734,-27.3031 32.7287,-24.8035 30.5237,-27.3433 32.684,-22.3039 32.684,-22.3039"/>
</g>
<!-- v7&#45;&gt;v8 -->
<g id="edge13" class="edge"><title>v7&#45;&gt;v8</title>
<path fill="none" stroke="black" d="M751.95,-61.1333C773.355,-51.62 812.268,-34.3254 837.749,-23.0005"/>
<polygon fill="black" stroke="black" points="842.343,-20.9586 838.688,-25.0454 840.059,-21.9739 837.774,-22.9893 837.774,-22.9893 837.774,-22.9893 840.059,-21.9739 836.86,-20.9332 842.343,-20.9586 842.343,-20.9586"/>
</g>
<!-- v9&#45;&gt;v10 -->
<g id="edge14" class="edge"><title>v9&#45;&gt;v10</title>
<path fill="none" stroke="black" d="M851.404,-118.679C871.913,-108.604 908.853,-90.4584 931.377,-79.3939"/>
<polygon fill="black" stroke="black" points="935.953,-77.1458 932.458,-81.3698 933.709,-78.248 931.465,-79.3503 931.465,-79.3503 931.465,-79.3503 933.709,-78.248 930.473,-77.3308 935.953,-77.1458 935.953,-77.1458"/>
</g>
<!-- v9&#45;&gt;v14 -->
<g id="edge15" class="edge"><title>v9&#45;&gt;v14</title>
<path fill="none" stroke="black" d="M845.381,-116.817C859.74,-102.441 889.487,-74.555 919.5,-58 951.379,-40.4159 991.115,-28.0488 1019.75,-20.5992"/>
<polygon fill="black" stroke="black" points="1024.61,-19.3556 1020.32,-22.7761 1022.18,-19.976 1019.76,-20.5965 1019.76,-20.5965 1019.76,-20.5965 1022.18,-19.976 1019.2,-18.4168 1024.61,-19.3556 1024.61,-19.3556"/>
</g>
<!-- v15 -->
<g id="v15_Servers" class="node"><title>v15</title>
<ellipse fill="none" stroke="black" cx="768.5" cy="-11" rx="32.5" ry="11"/>
<text text-anchor="middle" x="768.5" y="-8.8" font-family="sans-serif" font-size="9.00">Servers</text>
</g>
<!-- v9&#45;&gt;v15 -->
<g id="edge16" class="edge"><title>v9&#45;&gt;v15</title>
<path fill="none" stroke="black" d="M831.735,-116.11C825.163,-102.688 812.735,-78.0753 800.5,-58 793.8,-47.006 785.475,-35.0853 778.996,-26.1343"/>
<polygon fill="black" stroke="black" points="775.979,-21.9958 780.742,-24.7106 777.451,-24.016 778.924,-26.0361 778.924,-26.0361 778.924,-26.0361 777.451,-24.016 777.106,-27.3616 775.979,-21.9958 775.979,-21.9958"/>
</g>
<!-- v11 -->
<g id="v11_Malware" class="node"><title>v11</title>
<ellipse fill="none" stroke="black" cx="956.5" cy="-11" rx="32.5" ry="11"/>
<text text-anchor="middle" x="956.5" y="-8.8" font-family="sans-serif" font-size="9.00">Malware</text>
</g>
<!-- v10&#45;&gt;v11 -->
<g id="edge17" class="edge"><title>v10&#45;&gt;v11</title>
<path fill="none" stroke="black" d="M951.573,-57.9883C952.483,-49.4941 953.803,-37.1697 954.848,-27.4169"/>
<polygon fill="black" stroke="black" points="955.396,-22.3039 957.1,-27.5152 955.13,-24.7896 954.863,-27.2754 954.863,-27.2754 954.863,-27.2754 955.13,-24.7896 952.626,-27.0357 955.396,-22.3039 955.396,-22.3039"/>
</g>
<!-- v13 -->
<g id="v13_FireDetector" class="node"><title>v13</title>
<ellipse fill="none" stroke="black" cx="469.5" cy="-11" rx="50.5" ry="11"/>
<text text-anchor="middle" x="469.5" y="-8.8" font-family="sans-serif" font-size="9.00">FireDetector</text>
</g>
<!-- v12&#45;&gt;v13 -->
<g id="edge18" class="edge"><title>v12&#45;&gt;v13</title>
<path fill="none" stroke="black" d="M533.438,-58.5004C520.684,-49.2246 501.188,-35.046 487.078,-24.7838"/>
<polygon fill="black" stroke="black" points="482.885,-21.7345 488.252,-22.8557 484.907,-23.2049 486.929,-24.6754 486.929,-24.6754 486.929,-24.6754 484.907,-23.2049 485.605,-26.495 482.885,-21.7345 482.885,-21.7345"/>
</g>
<!-- v13&#45;&gt;oa -->
<g id="edge21" class="edge"><title>v13&#45;&gt;oa</title>
<path fill="none" stroke="green" d="M470.935,-22.0112C477.362,-66.8396 503.435,-248.718 509.317,-289.749"/>
</g>
<!-- v13&#45;&gt;ob -->
<g id="edge22" class="edge"><title>v13&#45;&gt;ob</title>
<path fill="none" stroke="green" d="M458.896,-21.8681C440.239,-40.3598 403.5,-82.3197 403.5,-126 403.5,-186 403.5,-186 403.5,-186 403.5,-224.895 402.279,-271.376 401.745,-289.85"/>
</g>
</g>
</svg>
