<?xml version="1.0" encoding="UTF-8" standalone="no"?>
<?xml-stylesheet href="style.css" type="text/css"?>
<!DOCTYPE svg PUBLIC "-//W3C//DTD SVG 1.1//EN"
 "http://www.w3.org/Graphics/SVG/1.1/DTD/svg11.dtd">
<!-- Generated by graphviz version 2.38.0 (20140413.2041)
 -->
<!-- Title: 2.svg Pages: 1 -->
<svg width="1084pt" height="316pt"
 viewBox="0.00 0.00 1084.00 316.00" xmlns="http://www.w3.org/2000/svg" xmlns:xlink="http://www.w3.org/1999/xlink">
<g id="graph0" class="graph" transform="scale(1 1) rotate(0) translate(4 312)">
<title>2.svg</title>
<polygon fill="white" stroke="none" points="-4,4 -4,-312 1080,-312 1080,4 -4,4"/>
<!-- r0 -->
<g id="node1" class="node"><title>r0</title>
<polygon fill="none" stroke="black" stroke-dasharray="5,2" points="684,-308 661,-308 661,-290 684,-290 684,-308"/>
<text text-anchor="middle" x="672.5" y="-296.8" font-family="serif" font-size="9.00">0</text>
</g>
<!-- v0 -->
<g id="v0_Floor" class="node"><title>v0</title>
<ellipse fill="none" stroke="black" cx="670.5" cy="-243" rx="25" ry="11"/>
<text text-anchor="middle" x="670.5" y="-240.8" font-family="sans-serif" font-size="9.00">Floor</text>
</g>
<!-- r0&#45;&gt;v0 -->
<g id="edge1" class="edge"><title>r0&#45;&gt;v0</title>
<path fill="none" stroke="black" d="M672.188,-289.562C671.887,-281.453 671.426,-269.014 671.062,-259.181"/>
<polygon fill="black" stroke="black" points="670.871,-254.03 673.305,-258.944 670.964,-256.529 671.057,-259.027 671.057,-259.027 671.057,-259.027 670.964,-256.529 668.808,-259.11 670.871,-254.03 670.871,-254.03"/>
</g>
<!-- r1 -->
<g id="node2" class="node"><title>r1</title>
<polygon fill="none" stroke="black" stroke-dasharray="5,2" points="144,-308 121,-308 121,-290 144,-290 144,-308"/>
<text text-anchor="middle" x="132.5" y="-296.8" font-family="serif" font-size="9.00">1</text>
</g>
<!-- v15 -->
<g id="v15_ControlProcess" class="node"><title>v15</title>
<ellipse fill="none" stroke="black" cx="140.5" cy="-11" rx="57.5" ry="11"/>
<text text-anchor="middle" x="140.5" y="-8.8" font-family="sans-serif" font-size="9.00">ControlProcess</text>
</g>
<!-- r1&#45;&gt;v15 -->
<g id="edge2" class="edge"><title>r1&#45;&gt;v15</title>
<path fill="none" stroke="black" d="M132.5,-289.849C132.5,-271.373 132.5,-224.889 132.5,-186 132.5,-186 132.5,-186 132.5,-126 132.5,-90.5168 136.404,-48.9732 138.758,-27.1546"/>
<polygon fill="black" stroke="black" points="139.32,-22.0482 141.009,-27.2642 139.046,-24.5332 138.773,-27.0182 138.773,-27.0182 138.773,-27.0182 139.046,-24.5332 136.536,-26.7722 139.32,-22.0482 139.32,-22.0482"/>
</g>
<!-- r2 -->
<g id="node3" class="node"><title>r2</title>
<polygon fill="none" stroke="black" stroke-dasharray="5,2" points="272,-308 249,-308 249,-290 272,-290 272,-308"/>
<text text-anchor="middle" x="260.5" y="-296.8" font-family="serif" font-size="9.00">2</text>
</g>
<!-- v16 -->
<g id="v16_Database" class="node"><title>v16</title>
<ellipse fill="none" stroke="black" cx="252.5" cy="-11" rx="36" ry="11"/>
<text text-anchor="middle" x="252.5" y="-8.8" font-family="sans-serif" font-size="9.00">Database</text>
</g>
<!-- r2&#45;&gt;v16 -->
<g id="edge3" class="edge"><title>r2&#45;&gt;v16</title>
<path fill="none" stroke="black" d="M260.5,-289.849C260.5,-271.373 260.5,-224.889 260.5,-186 260.5,-186 260.5,-186 260.5,-126 260.5,-90.5168 256.596,-48.9732 254.242,-27.1546"/>
<polygon fill="black" stroke="black" points="253.68,-22.0482 256.464,-26.7722 253.954,-24.5332 254.227,-27.0182 254.227,-27.0182 254.227,-27.0182 253.954,-24.5332 251.991,-27.2642 253.68,-22.0482 253.68,-22.0482"/>
</g>
<!-- oa -->
<g id="node4" class="node"><title>oa</title>
<text text-anchor="middle" x="407.5" y="-296.8" font-family="serif" font-size="9.00">a</text>
</g>
<!-- ob -->
<g id="node5" class="node"><title>ob</title>
<text text-anchor="middle" x="301.5" y="-296.8" font-family="serif" font-size="9.00">b</text>
</g>
<!-- obusNetwork -->
<g id="node6" class="node"><title>obusNetwork</title>
<text text-anchor="middle" x="1020.5" y="-296.8" font-family="serif" font-size="9.00">busNetwork</text>
</g>
<!-- e4 -->
<g id="node16" class="node"><title>e4</title>
</g>
<!-- obusNetwork&#45;&gt;e4 -->
<g id="edge22" class="edge"><title>obusNetwork&#45;&gt;e4</title>
<path fill="none" stroke="green" d="M1019.15,-289.885C1012.38,-249.27 982.5,-70 982.5,-70"/>
</g>
<!-- ocontrol -->
<g id="node7" class="node"><title>ocontrol</title>
<text text-anchor="middle" x="466.5" y="-296.8" font-family="serif" font-size="9.00">control</text>
</g>
<!-- e5 -->
<g id="node17" class="node"><title>e5</title>
</g>
<!-- ocontrol&#45;&gt;e5 -->
<g id="edge26" class="edge"><title>ocontrol&#45;&gt;e5</title>
<path fill="none" stroke="green" d="M466.5,-289.801C466.5,-255.842 466.5,-128 466.5,-128"/>
</g>
<!-- oent -->
<g id="node8" class="node"><title>oent</title>
<text text-anchor="middle" x="527.5" y="-296.8" font-family="serif" font-size="9.00">ent</text>
</g>
<!-- e6 -->
<g id="node18" class="node"><title>e6</title>
</g>
<!-- oent&#45;&gt;e6 -->
<g id="edge29" class="edge"><title>oent&#45;&gt;e6</title>
<path fill="none" stroke="green" d="M532.564,-289.801C553.539,-255.842 632.5,-128 632.5,-128"/>
</g>
<!-- oinstallationBus -->
<g id="node9" class="node"><title>oinstallationBus</title>
<text text-anchor="middle" x="922.5" y="-296.8" font-family="serif" font-size="9.00">installationBus</text>
</g>
<!-- e7 -->
<g id="node19" class="node"><title>e7</title>
</g>
<!-- oinstallationBus&#45;&gt;e7 -->
<g id="edge32" class="edge"><title>oinstallationBus&#45;&gt;e7</title>
<path fill="none" stroke="green" d="M923.39,-289.885C927.843,-249.27 947.5,-70 947.5,-70"/>
</g>
<!-- oip_network -->
<g id="node10" class="node"><title>oip_network</title>
<text text-anchor="middle" x="196.5" y="-296.8" font-family="serif" font-size="9.00">ip_network</text>
</g>
<!-- e8 -->
<g id="node20" class="node"><title>e8</title>
</g>
<!-- oip_network&#45;&gt;e8 -->
<g id="edge36" class="edge"><title>oip_network&#45;&gt;e8</title>
<path fill="none" stroke="green" d="M197.105,-289.885C200.133,-249.27 213.5,-70 213.5,-70"/>
</g>
<!-- osecond -->
<g id="node11" class="node"><title>osecond</title>
<text text-anchor="middle" x="618.5" y="-296.8" font-family="serif" font-size="9.00">second</text>
</g>
<!-- oserver -->
<g id="node12" class="node"><title>oserver</title>
<text text-anchor="middle" x="825.5" y="-296.8" font-family="serif" font-size="9.00">server</text>
</g>
<!-- e10 -->
<g id="node21" class="node"><title>e10</title>
</g>
<!-- oserver&#45;&gt;e10 -->
<g id="edge41" class="edge"><title>oserver&#45;&gt;e10</title>
<path fill="none" stroke="green" d="M825.5,-289.562C825.5,-274.375 825.5,-244 825.5,-244"/>
</g>
<!-- otoilet -->
<g id="node13" class="node"><title>otoilet</title>
<text text-anchor="middle" x="723.5" y="-296.8" font-family="serif" font-size="9.00">toilet</text>
</g>
<!-- e11 -->
<g id="node22" class="node"><title>e11</title>
</g>
<!-- otoilet&#45;&gt;e11 -->
<g id="edge44" class="edge"><title>otoilet&#45;&gt;e11</title>
<path fill="none" stroke="green" d="M723.5,-289.801C723.5,-255.842 723.5,-128 723.5,-128"/>
</g>
<!-- e0 -->
<g id="node14" class="node"><title>e0</title>
</g>
<!-- v4 -->
<g id="v4_Laptop" class="node"><title>v4</title>
<ellipse fill="none" stroke="black" cx="53.5" cy="-69" rx="29" ry="11"/>
<text text-anchor="middle" x="53.5" y="-66.8" font-family="sans-serif" font-size="9.00">Laptop</text>
</g>
<!-- e0&#45;&gt;v4 -->
<g id="edge18" class="edge"><title>e0&#45;&gt;v4</title>
<path fill="none" stroke="green" d="M62.8156,-122.167C61.2833,-113.586 57.535,-92.5957 55.2878,-80.0117"/>
<polygon fill="green" stroke="green" points="66.8224,-124.696 59.9314,-125.926 59.6853,-124.548 66.5763,-123.317 66.8224,-124.696"/>
<polyline fill="none" stroke="green" points="63.5,-126 62.8847,-122.555 "/>
</g>
<!-- e1 -->
<g id="node15" class="node"><title>e1</title>
</g>
<!-- e1&#45;&gt;v4 -->
<g id="edge19" class="edge"><title>e1&#45;&gt;v4</title>
<path fill="none" stroke="green" d="M45.1159,-122.167C46.4951,-113.586 49.8685,-92.5957 51.891,-80.0117"/>
<polygon fill="green" stroke="green" points="48.0667,-125.864 41.1554,-124.753 41.3776,-123.371 48.2889,-124.482 48.0667,-125.864"/>
<polyline fill="none" stroke="green" points="44.5,-126 45.0554,-122.544 "/>
</g>
<!-- v6 -->
<g id="v6_HVAC" class="node"><title>v6</title>
<ellipse fill="none" stroke="black" cx="1054.5" cy="-11" rx="21.5" ry="11"/>
<text text-anchor="middle" x="1054.5" y="-8.8" font-family="sans-serif" font-size="9.00">HVAC</text>
</g>
<!-- e4&#45;&gt;v6 -->
<g id="edge23" class="edge"><title>e4&#45;&gt;v6</title>
<path fill="none" stroke="green" d="M982.5,-68C982.5,-68 1023.42,-36.171 1043.56,-20.5052"/>
</g>
<!-- v7 -->
<g id="v7_FireDetector" class="node"><title>v7</title>
<ellipse fill="none" stroke="black" cx="964.5" cy="-11" rx="50.5" ry="11"/>
<text text-anchor="middle" x="964.5" y="-8.8" font-family="sans-serif" font-size="9.00">FireDetector</text>
</g>
<!-- e4&#45;&gt;v7 -->
<g id="edge24" class="edge"><title>e4&#45;&gt;v7</title>
<path fill="none" stroke="green" d="M982.5,-68C982.5,-68 972.895,-38.1193 967.718,-22.0117"/>
</g>
<!-- v12 -->
<g id="v12_SmartLight" class="node"><title>v12</title>
<ellipse fill="none" stroke="black" cx="852.5" cy="-11" rx="43" ry="11"/>
<text text-anchor="middle" x="852.5" y="-8.8" font-family="sans-serif" font-size="9.00">SmartLight</text>
</g>
<!-- e4&#45;&gt;v12 -->
<g id="edge25" class="edge"><title>e4&#45;&gt;v12</title>
<path fill="none" stroke="green" d="M982.5,-68C982.5,-68 909.375,-36.5 872.812,-20.75"/>
</g>
<!-- v1 -->
<g id="v1_Hallway" class="node"><title>v1</title>
<ellipse fill="none" stroke="black" cx="673.5" cy="-11" rx="32.5" ry="11"/>
<text text-anchor="middle" x="673.5" y="-8.8" font-family="sans-serif" font-size="9.00">Hallway</text>
</g>
<!-- e5&#45;&gt;v1 -->
<g id="edge27" class="edge"><title>e5&#45;&gt;v1</title>
<path fill="none" stroke="green" d="M466.5,-126C466.5,-126 445.557,-81.5656 464.5,-58 486.439,-30.7076 589.385,-18.6673 642.147,-14.2153"/>
</g>
<!-- v13 -->
<g id="v13_Room" class="node"><title>v13</title>
<ellipse fill="none" stroke="black" cx="495.5" cy="-69" rx="21.5" ry="11"/>
<text text-anchor="middle" x="495.5" y="-66.8" font-family="sans-serif" font-size="9.00">Room</text>
</g>
<!-- e5&#45;&gt;v13 -->
<g id="edge28" class="edge"><title>e5&#45;&gt;v13</title>
<path fill="none" stroke="green" d="M466.5,-126C466.5,-126 482.14,-95.7988 490.449,-79.7545"/>
</g>
<!-- e6&#45;&gt;v1 -->
<g id="edge30" class="edge"><title>e6&#45;&gt;v1</title>
<path fill="none" stroke="green" d="M632.5,-126C632.5,-126 659.827,-50.0168 669.862,-22.1167"/>
</g>
<!-- v9 -->
<g id="v9_Entrance" class="node"><title>v9</title>
<ellipse fill="none" stroke="black" cx="571.5" cy="-69" rx="36" ry="11"/>
<text text-anchor="middle" x="571.5" y="-66.8" font-family="sans-serif" font-size="9.00">Entrance</text>
</g>
<!-- e6&#45;&gt;v9 -->
<g id="edge31" class="edge"><title>e6&#45;&gt;v9</title>
<path fill="none" stroke="green" d="M632.5,-126C632.5,-126 599.602,-95.7988 582.125,-79.7545"/>
</g>
<!-- e7&#45;&gt;v6 -->
<g id="edge33" class="edge"><title>e7&#45;&gt;v6</title>
<path fill="none" stroke="green" d="M947.5,-68C947.5,-68 1010.86,-34.838 1040.07,-19.5524"/>
</g>
<!-- e7&#45;&gt;v7 -->
<g id="edge34" class="edge"><title>e7&#45;&gt;v7</title>
<path fill="none" stroke="green" d="M947.5,-68C947.5,-68 956.571,-38.1193 961.461,-22.0117"/>
</g>
<!-- e7&#45;&gt;v12 -->
<g id="edge35" class="edge"><title>e7&#45;&gt;v12</title>
<path fill="none" stroke="green" d="M947.5,-68C947.5,-68 895.17,-37.1528 868.187,-21.2473"/>
</g>
<!-- v14 -->
<g id="v14_Wokrstation" class="node"><title>v14</title>
<ellipse fill="none" stroke="black" cx="353.5" cy="-11" rx="47" ry="11"/>
<text text-anchor="middle" x="353.5" y="-8.8" font-family="sans-serif" font-size="9.00">Wokrstation</text>
</g>
<!-- e8&#45;&gt;v14 -->
<g id="edge37" class="edge"><title>e8&#45;&gt;v14</title>
<path fill="none" stroke="green" d="M213.5,-68C213.5,-68 292.25,-36.5 331.625,-20.75"/>
</g>
<!-- e8&#45;&gt;v15 -->
<g id="edge38" class="edge"><title>e8&#45;&gt;v15</title>
<path fill="none" stroke="green" d="M213.5,-68C213.5,-68 174.131,-37.7988 153.216,-21.7545"/>
</g>
<!-- e8&#45;&gt;v16 -->
<g id="edge39" class="edge"><title>e8&#45;&gt;v16</title>
<path fill="none" stroke="green" d="M213.5,-68C213.5,-68 234.31,-38.1193 245.528,-22.0117"/>
</g>
<!-- e10&#45;&gt;v1 -->
<g id="edge42" class="edge"><title>e10&#45;&gt;v1</title>
<path fill="none" stroke="green" d="M825.5,-242C825.5,-242 844.494,-122.091 791.5,-58 779.24,-43.1729 728.6,-27.1214 697.782,-18.4482"/>
</g>
<!-- v2 -->
<g id="v2_Room" class="node"><title>v2</title>
<ellipse fill="none" stroke="black" cx="861.5" cy="-185" rx="21.5" ry="11"/>
<text text-anchor="middle" x="861.5" y="-182.8" font-family="sans-serif" font-size="9.00">Room</text>
</g>
<!-- e10&#45;&gt;v2 -->
<g id="edge43" class="edge"><title>e10&#45;&gt;v2</title>
<path fill="none" stroke="green" d="M825.5,-242C825.5,-242 844.915,-211.799 855.229,-195.754"/>
</g>
<!-- e11&#45;&gt;v1 -->
<g id="edge45" class="edge"><title>e11&#45;&gt;v1</title>
<path fill="none" stroke="green" d="M723.5,-126C723.5,-126 690.174,-50.0168 677.937,-22.1167"/>
</g>
<!-- v11 -->
<g id="v11_Room" class="node"><title>v11</title>
<ellipse fill="none" stroke="black" cx="761.5" cy="-69" rx="21.5" ry="11"/>
<text text-anchor="middle" x="761.5" y="-66.8" font-family="sans-serif" font-size="9.00">Room</text>
</g>
<!-- e11&#45;&gt;v11 -->
<g id="edge46" class="edge"><title>e11&#45;&gt;v11</title>
<path fill="none" stroke="green" d="M723.5,-126C723.5,-126 744.212,-95.4767 755.054,-79.4996"/>
</g>
<!-- v0&#45;&gt;osecond -->
<g id="edge40" class="edge"><title>v0&#45;&gt;osecond</title>
<path fill="none" stroke="green" d="M661.561,-253.283C651.741,-263.48 636.108,-279.714 626.625,-289.562"/>
</g>
<!-- v0&#45;&gt;v1 -->
<g id="edge4" class="edge"><title>v0&#45;&gt;v1</title>
<path fill="none" stroke="black" d="M670.633,-231.82C671.109,-195.304 672.734,-70.7575 673.302,-27.194"/>
<polygon fill="black" stroke="black" points="673.369,-22.062 675.553,-27.091 673.336,-24.5618 673.303,-27.0616 673.303,-27.0616 673.303,-27.0616 673.336,-24.5618 671.054,-27.0322 673.369,-22.062 673.369,-22.062"/>
</g>
<!-- v0&#45;&gt;v2 -->
<g id="edge5" class="edge"><title>v0&#45;&gt;v2</title>
<path fill="none" stroke="black" d="M690.221,-236.218C725.887,-225.761 800.909,-203.765 838.708,-192.682"/>
<polygon fill="black" stroke="black" points="843.567,-191.258 839.402,-194.824 841.168,-191.961 838.769,-192.665 838.769,-192.665 838.769,-192.665 841.168,-191.961 838.136,-190.505 843.567,-191.258 843.567,-191.258"/>
</g>
<!-- v0&#45;&gt;v9 -->
<g id="edge6" class="edge"><title>v0&#45;&gt;v9</title>
<path fill="none" stroke="black" d="M664.894,-232.26C648.363,-203.54 599.743,-119.069 579.989,-84.749"/>
<polygon fill="black" stroke="black" points="577.291,-80.0619 581.736,-83.2729 578.539,-82.2286 579.786,-84.3953 579.786,-84.3953 579.786,-84.3953 578.539,-82.2286 577.836,-85.5178 577.291,-80.0619 577.291,-80.0619"/>
</g>
<!-- v0&#45;&gt;v11 -->
<g id="edge7" class="edge"><title>v0&#45;&gt;v11</title>
<path fill="none" stroke="black" d="M676.942,-232.212C688.747,-214.067 714.304,-173.789 732.5,-138 741.617,-120.067 750.442,-98.6004 755.914,-84.6511"/>
<polygon fill="black" stroke="black" points="757.773,-79.8724 758.057,-85.348 756.867,-82.2024 755.96,-84.5323 755.96,-84.5323 755.96,-84.5323 756.867,-82.2024 753.864,-83.7167 757.773,-79.8724 757.773,-79.8724"/>
</g>
<!-- v0&#45;&gt;v13 -->
<g id="edge8" class="edge"><title>v0&#45;&gt;v13</title>
<path fill="none" stroke="black" d="M661.091,-232.753C631.892,-204.054 542.753,-116.443 508.813,-83.0847"/>
<polygon fill="black" stroke="black" points="504.955,-79.2932 510.098,-81.1934 506.738,-81.0456 508.521,-82.7981 508.521,-82.7981 508.521,-82.7981 506.738,-81.0456 506.944,-84.4028 504.955,-79.2932 504.955,-79.2932"/>
</g>
<!-- v3 -->
<g id="v3_Actor" class="node"><title>v3</title>
<ellipse fill="none" stroke="black" cx="354.5" cy="-127" rx="25" ry="11"/>
<text text-anchor="middle" x="354.5" y="-124.8" font-family="sans-serif" font-size="9.00">Actor</text>
</g>
<!-- v2&#45;&gt;v3 -->
<g id="edge9" class="edge"><title>v2&#45;&gt;v3</title>
<path fill="none" stroke="black" d="M840.68,-181.7C761.036,-172.903 475.549,-141.37 383.399,-131.192"/>
<polygon fill="black" stroke="black" points="378.383,-130.638 383.6,-128.951 380.868,-130.912 383.353,-131.187 383.353,-131.187 383.353,-131.187 380.868,-130.912 383.106,-133.423 378.383,-130.638 378.383,-130.638"/>
</g>
<!-- v2&#45;&gt;v6 -->
<g id="edge10" class="edge"><title>v2&#45;&gt;v6</title>
<path fill="none" stroke="black" d="M873.096,-175.637C896.404,-158.634 950.229,-118.382 991.5,-80 1010.51,-62.3204 1030.58,-39.9215 1042.82,-25.7707"/>
<polygon fill="black" stroke="black" points="1046.36,-21.6582 1044.8,-26.9158 1044.73,-23.5532 1043.1,-25.4482 1043.1,-25.4482 1043.1,-25.4482 1044.73,-23.5532 1041.39,-23.9806 1046.36,-21.6582 1046.36,-21.6582"/>
</g>
<!-- v2&#45;&gt;v7 -->
<g id="edge11" class="edge"><title>v2&#45;&gt;v7</title>
<path fill="none" stroke="black" d="M867.333,-174.26C884.531,-145.54 935.116,-61.0692 955.668,-26.749"/>
<polygon fill="black" stroke="black" points="958.475,-22.0619 957.836,-27.5075 957.19,-24.2067 955.906,-26.3516 955.906,-26.3516 955.906,-26.3516 957.19,-24.2067 953.975,-25.1956 958.475,-22.0619 958.475,-22.0619"/>
</g>
<!-- v8 -->
<g id="v8_Servers" class="node"><title>v8</title>
<ellipse fill="none" stroke="black" cx="758.5" cy="-11" rx="32.5" ry="11"/>
<text text-anchor="middle" x="758.5" y="-8.8" font-family="sans-serif" font-size="9.00">Servers</text>
</g>
<!-- v2&#45;&gt;v8 -->
<g id="edge12" class="edge"><title>v2&#45;&gt;v8</title>
<path fill="none" stroke="black" d="M860.901,-173.852C859.099,-151.063 852.075,-94.9334 825.5,-58 814.32,-42.4625 796.174,-30.4745 781.584,-22.6374"/>
<polygon fill="black" stroke="black" points="776.788,-20.1396 782.262,-20.4535 779.005,-21.2943 781.222,-22.4491 781.222,-22.4491 781.222,-22.4491 779.005,-21.2943 780.183,-24.4447 776.788,-20.1396 776.788,-20.1396"/>
</g>
<!-- v3&#45;&gt;v4 -->
<g id="edge13" class="edge"><title>v3&#45;&gt;v4</title>
<path fill="none" stroke="black" d="M332.367,-121.882C279.149,-111.981 143.967,-86.831 83.5138,-75.584"/>
<polygon fill="black" stroke="black" points="78.5961,-74.669 83.9233,-73.3716 81.0539,-75.1263 83.5117,-75.5837 83.5117,-75.5837 83.5117,-75.5837 81.0539,-75.1263 83.1001,-77.7957 78.5961,-74.669 78.5961,-74.669"/>
</g>
<!-- v5 -->
<g id="v5_Malware" class="node"><title>v5</title>
<ellipse fill="none" stroke="black" cx="32.5" cy="-11" rx="32.5" ry="11"/>
<text text-anchor="middle" x="32.5" y="-8.8" font-family="sans-serif" font-size="9.00">Malware</text>
</g>
<!-- v4&#45;&gt;v5 -->
<g id="edge14" class="edge"><title>v4&#45;&gt;v5</title>
<path fill="none" stroke="black" d="M49.7456,-57.9883C46.5308,-49.4154 41.8529,-36.9411 38.18,-27.1466"/>
<polygon fill="black" stroke="black" points="36.364,-22.3039 40.2264,-26.1955 37.2418,-24.6447 38.1196,-26.9855 38.1196,-26.9855 38.1196,-26.9855 37.2418,-24.6447 36.0129,-27.7756 36.364,-22.3039 36.364,-22.3039"/>
</g>
<!-- v10 -->
<g id="v10_FireDetector" class="node"><title>v10</title>
<ellipse fill="none" stroke="black" cx="469.5" cy="-11" rx="50.5" ry="11"/>
<text text-anchor="middle" x="469.5" y="-8.8" font-family="sans-serif" font-size="9.00">FireDetector</text>
</g>
<!-- v9&#45;&gt;v10 -->
<g id="edge15" class="edge"><title>v9&#45;&gt;v10</title>
<path fill="none" stroke="black" d="M555.112,-59.0026C537.876,-49.5399 510.654,-34.5945 491.544,-24.1027"/>
<polygon fill="black" stroke="black" points="486.872,-21.5373 492.337,-21.9713 489.063,-22.7405 491.254,-23.9437 491.254,-23.9437 491.254,-23.9437 489.063,-22.7405 490.172,-25.916 486.872,-21.5373 486.872,-21.5373"/>
</g>
<!-- v10&#45;&gt;oa -->
<g id="edge20" class="edge"><title>v10&#45;&gt;oa</title>
<path fill="none" stroke="green" d="M459.539,-21.9936C442.013,-40.6895 407.5,-82.969 407.5,-126 407.5,-186 407.5,-186 407.5,-186 407.5,-224.889 407.5,-271.373 407.5,-289.849"/>
</g>
<!-- v10&#45;&gt;ob -->
<g id="edge21" class="edge"><title>v10&#45;&gt;ob</title>
<path fill="none" stroke="green" d="M435.097,-19.0906C385.947,-31.4616 301.5,-62.0253 301.5,-126 301.5,-186 301.5,-186 301.5,-186 301.5,-224.889 301.5,-271.373 301.5,-289.849"/>
</g>
<!-- v11&#45;&gt;v12 -->
<g id="edge16" class="edge"><title>v11&#45;&gt;v12</title>
<path fill="none" stroke="black" d="M774.538,-59.9766C789.851,-50.553 815.401,-34.8303 833.056,-23.9657"/>
<polygon fill="black" stroke="black" points="837.363,-21.315 834.284,-25.8518 835.234,-22.6253 833.105,-23.9356 833.105,-23.9356 833.105,-23.9356 835.234,-22.6253 831.926,-22.0193 837.363,-21.315 837.363,-21.315"/>
</g>
<!-- v13&#45;&gt;v14 -->
<g id="edge17" class="edge"><title>v13&#45;&gt;v14</title>
<path fill="none" stroke="black" d="M479.211,-61.5761C455.108,-52.0707 409.661,-34.148 380.52,-22.6559"/>
<polygon fill="black" stroke="black" points="375.634,-20.7289 381.111,-20.4701 377.96,-21.6461 380.285,-22.5633 380.285,-22.5633 380.285,-22.5633 377.96,-21.6461 379.46,-24.6564 375.634,-20.7289 375.634,-20.7289"/>
</g>
</g>
</svg>
