<?xml version="1.0" encoding="UTF-8" standalone="no"?>
<?xml-stylesheet href="style.css" type="text/css"?>
<!DOCTYPE svg PUBLIC "-//W3C//DTD SVG 1.1//EN"
 "http://www.w3.org/Graphics/SVG/1.1/DTD/svg11.dtd">
<!-- Generated by graphviz version 2.38.0 (20140413.2041)
 -->
<!-- Title: 3.svg Pages: 1 -->
<svg width="1005pt" height="316pt"
 viewBox="0.00 0.00 1005.00 316.00" xmlns="http://www.w3.org/2000/svg" xmlns:xlink="http://www.w3.org/1999/xlink">
<g id="graph0" class="graph" transform="scale(1 1) rotate(0) translate(4 312)">
<title>3.svg</title>
<polygon fill="white" stroke="none" points="-4,4 -4,-312 1001,-312 1001,4 -4,4"/>
<!-- r0 -->
<g id="node1" class="node"><title>r0</title>
<polygon fill="none" stroke="black" stroke-dasharray="5,2" points="386,-308 363,-308 363,-290 386,-290 386,-308"/>
<text text-anchor="middle" x="374.5" y="-296.8" font-family="serif" font-size="9.00">0</text>
</g>
<!-- v0 -->
<g id="v0_Floor" class="node"><title>v0</title>
<ellipse fill="none" stroke="black" cx="428.5" cy="-243" rx="25" ry="11"/>
<text text-anchor="middle" x="428.5" y="-240.8" font-family="sans-serif" font-size="9.00">Floor</text>
</g>
<!-- r0&#45;&gt;v0 -->
<g id="edge1" class="edge"><title>r0&#45;&gt;v0</title>
<path fill="none" stroke="black" d="M382.938,-289.562C391.709,-280.791 405.545,-266.955 415.671,-256.829"/>
<polygon fill="black" stroke="black" points="419.217,-253.283 417.273,-258.409 417.449,-255.051 415.682,-256.818 415.682,-256.818 415.682,-256.818 417.449,-255.051 414.091,-255.227 419.217,-253.283 419.217,-253.283"/>
</g>
<!-- r1 -->
<g id="node2" class="node"><title>r1</title>
<polygon fill="none" stroke="black" stroke-dasharray="5,2" points="69,-308 46,-308 46,-290 69,-290 69,-308"/>
<text text-anchor="middle" x="57.5" y="-296.8" font-family="serif" font-size="9.00">1</text>
</g>
<!-- v15 -->
<g id="v15_ControlProcess" class="node"><title>v15</title>
<ellipse fill="none" stroke="black" cx="57.5" cy="-11" rx="57.5" ry="11"/>
<text text-anchor="middle" x="57.5" y="-8.8" font-family="sans-serif" font-size="9.00">ControlProcess</text>
</g>
<!-- r1&#45;&gt;v15 -->
<g id="edge2" class="edge"><title>r1&#45;&gt;v15</title>
<path fill="none" stroke="black" d="M57.5,-289.849C57.5,-271.373 57.5,-224.889 57.5,-186 57.5,-186 57.5,-186 57.5,-126 57.5,-90.6038 57.5,-49.0257 57.5,-27.1783"/>
<polygon fill="black" stroke="black" points="57.5,-22.0648 59.7501,-27.0648 57.5,-24.5648 57.5001,-27.0648 57.5001,-27.0648 57.5001,-27.0648 57.5,-24.5648 55.2501,-27.0648 57.5,-22.0648 57.5,-22.0648"/>
</g>
<!-- r2 -->
<g id="node3" class="node"><title>r2</title>
<polygon fill="none" stroke="black" stroke-dasharray="5,2" points="120,-308 97,-308 97,-290 120,-290 120,-308"/>
<text text-anchor="middle" x="108.5" y="-296.8" font-family="serif" font-size="9.00">2</text>
</g>
<!-- v16 -->
<g id="v16_Database" class="node"><title>v16</title>
<ellipse fill="none" stroke="black" cx="169.5" cy="-11" rx="36" ry="11"/>
<text text-anchor="middle" x="169.5" y="-8.8" font-family="sans-serif" font-size="9.00">Database</text>
</g>
<!-- r2&#45;&gt;v16 -->
<g id="edge3" class="edge"><title>r2&#45;&gt;v16</title>
<path fill="none" stroke="black" d="M108.5,-289.849C108.5,-271.373 108.5,-224.889 108.5,-186 108.5,-186 108.5,-186 108.5,-126 108.5,-85.5956 138.657,-45.65 156.563,-25.4934"/>
<polygon fill="black" stroke="black" points="159.969,-21.7316 158.281,-26.9484 158.291,-23.585 156.613,-25.4384 156.613,-25.4384 156.613,-25.4384 158.291,-23.585 154.945,-23.9284 159.969,-21.7316 159.969,-21.7316"/>
</g>
<!-- oa -->
<g id="node4" class="node"><title>oa</title>
<text text-anchor="middle" x="565.5" y="-296.8" font-family="serif" font-size="9.00">a</text>
</g>
<!-- ob -->
<g id="node5" class="node"><title>ob</title>
<text text-anchor="middle" x="729.5" y="-296.8" font-family="serif" font-size="9.00">b</text>
</g>
<!-- obusNetwork -->
<g id="node6" class="node"><title>obusNetwork</title>
<text text-anchor="middle" x="900.5" y="-296.8" font-family="serif" font-size="9.00">busNetwork</text>
</g>
<!-- e4 -->
<g id="node16" class="node"><title>e4</title>
</g>
<!-- obusNetwork&#45;&gt;e4 -->
<g id="edge22" class="edge"><title>obusNetwork&#45;&gt;e4</title>
<path fill="none" stroke="green" d="M895.446,-289.885C870.15,-249.27 758.5,-70 758.5,-70"/>
</g>
<!-- ocontrol -->
<g id="node7" class="node"><title>ocontrol</title>
<text text-anchor="middle" x="250.5" y="-296.8" font-family="serif" font-size="9.00">control</text>
</g>
<!-- e5 -->
<g id="node17" class="node"><title>e5</title>
</g>
<!-- ocontrol&#45;&gt;e5 -->
<g id="edge26" class="edge"><title>ocontrol&#45;&gt;e5</title>
<path fill="none" stroke="green" d="M253.732,-289.801C267.115,-255.842 317.5,-128 317.5,-128"/>
</g>
<!-- oent -->
<g id="node8" class="node"><title>oent</title>
<text text-anchor="middle" x="328.5" y="-296.8" font-family="serif" font-size="9.00">ent</text>
</g>
<!-- e6 -->
<g id="node18" class="node"><title>e6</title>
</g>
<!-- oent&#45;&gt;e6 -->
<g id="edge29" class="edge"><title>oent&#45;&gt;e6</title>
<path fill="none" stroke="green" d="M329.947,-289.801C335.94,-255.842 358.5,-128 358.5,-128"/>
</g>
<!-- oinstallationBus -->
<g id="node9" class="node"><title>oinstallationBus</title>
<text text-anchor="middle" x="802.5" y="-296.8" font-family="serif" font-size="9.00">installationBus</text>
</g>
<!-- e7 -->
<g id="node19" class="node"><title>e7</title>
</g>
<!-- oinstallationBus&#45;&gt;e7 -->
<g id="edge32" class="edge"><title>oinstallationBus&#45;&gt;e7</title>
<path fill="none" stroke="green" d="M801.332,-289.837C797.477,-263.891 784.106,-181.18 761.5,-116 754.074,-94.5889 739.5,-70 739.5,-70"/>
</g>
<!-- oip_network -->
<g id="node10" class="node"><title>oip_network</title>
<text text-anchor="middle" x="172.5" y="-296.8" font-family="serif" font-size="9.00">ip_network</text>
</g>
<!-- e8 -->
<g id="node20" class="node"><title>e8</title>
</g>
<!-- oip_network&#45;&gt;e8 -->
<g id="edge36" class="edge"><title>oip_network&#45;&gt;e8</title>
<path fill="none" stroke="green" d="M172.429,-289.885C172.073,-249.27 170.5,-70 170.5,-70"/>
</g>
<!-- osecond -->
<g id="node11" class="node"><title>osecond</title>
<text text-anchor="middle" x="428.5" y="-296.8" font-family="serif" font-size="9.00">second</text>
</g>
<!-- oserver -->
<g id="node12" class="node"><title>oserver</title>
<text text-anchor="middle" x="493.5" y="-296.8" font-family="serif" font-size="9.00">server</text>
</g>
<!-- e10 -->
<g id="node21" class="node"><title>e10</title>
</g>
<!-- oserver&#45;&gt;e10 -->
<g id="edge41" class="edge"><title>oserver&#45;&gt;e10</title>
<path fill="none" stroke="green" d="M493.741,-289.801C494.74,-255.842 498.5,-128 498.5,-128"/>
</g>
<!-- otoilet -->
<g id="node13" class="node"><title>otoilet</title>
<text text-anchor="middle" x="634.5" y="-296.8" font-family="serif" font-size="9.00">toilet</text>
</g>
<!-- e11 -->
<g id="node22" class="node"><title>e11</title>
</g>
<!-- otoilet&#45;&gt;e11 -->
<g id="edge44" class="edge"><title>otoilet&#45;&gt;e11</title>
<path fill="none" stroke="green" d="M634.5,-289.562C634.5,-274.375 634.5,-244 634.5,-244"/>
</g>
<!-- e0 -->
<g id="node14" class="node"><title>e0</title>
</g>
<!-- v4 -->
<g id="v4_Laptop" class="node"><title>v4</title>
<ellipse fill="none" stroke="black" cx="956.5" cy="-69" rx="29" ry="11"/>
<text text-anchor="middle" x="956.5" y="-66.8" font-family="sans-serif" font-size="9.00">Laptop</text>
</g>
<!-- e0&#45;&gt;v4 -->
<g id="edge18" class="edge"><title>e0&#45;&gt;v4</title>
<path fill="none" stroke="green" d="M949.979,-122.167C951.052,-113.586 953.676,-92.5957 955.249,-80.0117"/>
<polygon fill="green" stroke="green" points="953.06,-125.74 946.114,-124.871 946.288,-123.482 953.233,-124.35 953.06,-125.74"/>
<polyline fill="none" stroke="green" points="949.5,-126 949.934,-122.527 "/>
</g>
<!-- e1 -->
<g id="node15" class="node"><title>e1</title>
</g>
<!-- e1&#45;&gt;v4 -->
<g id="edge19" class="edge"><title>e1&#45;&gt;v4</title>
<path fill="none" stroke="green" d="M967.679,-122.167C965.84,-113.586 961.342,-92.5957 958.645,-80.0117"/>
<polygon fill="green" stroke="green" points="971.776,-124.582 964.931,-126.049 964.638,-124.68 971.482,-123.213 971.776,-124.582"/>
<polyline fill="none" stroke="green" points="968.5,-126 967.767,-122.578 "/>
</g>
<!-- v6 -->
<g id="v6_SmartLight" class="node"><title>v6</title>
<ellipse fill="none" stroke="black" cx="870.5" cy="-11" rx="43" ry="11"/>
<text text-anchor="middle" x="870.5" y="-8.8" font-family="sans-serif" font-size="9.00">SmartLight</text>
</g>
<!-- e4&#45;&gt;v6 -->
<g id="edge23" class="edge"><title>e4&#45;&gt;v6</title>
<path fill="none" stroke="green" d="M758.5,-68C758.5,-68 766.529,-61.9492 773.5,-58 799.122,-43.4854 830.066,-29.3649 850.003,-20.681"/>
</g>
<!-- v10 -->
<g id="v10_HVAC" class="node"><title>v10</title>
<ellipse fill="none" stroke="black" cx="668.5" cy="-11" rx="21.5" ry="11"/>
<text text-anchor="middle" x="668.5" y="-8.8" font-family="sans-serif" font-size="9.00">HVAC</text>
</g>
<!-- e4&#45;&gt;v10 -->
<g id="edge24" class="edge"><title>e4&#45;&gt;v10</title>
<path fill="none" stroke="green" d="M758.5,-68C758.5,-68 753.49,-61.8219 748.5,-58 727.386,-41.8285 700.017,-27.2877 683.382,-19.0625"/>
</g>
<!-- v11 -->
<g id="v11_FireDetector" class="node"><title>v11</title>
<ellipse fill="none" stroke="black" cx="758.5" cy="-11" rx="50.5" ry="11"/>
<text text-anchor="middle" x="758.5" y="-8.8" font-family="sans-serif" font-size="9.00">FireDetector</text>
</g>
<!-- e4&#45;&gt;v11 -->
<g id="edge25" class="edge"><title>e4&#45;&gt;v11</title>
<path fill="none" stroke="green" d="M758.5,-68C758.5,-68 758.5,-38.1193 758.5,-22.0117"/>
</g>
<!-- v1 -->
<g id="v1_Hallway" class="node"><title>v1</title>
<ellipse fill="none" stroke="black" cx="394.5" cy="-11" rx="32.5" ry="11"/>
<text text-anchor="middle" x="394.5" y="-8.8" font-family="sans-serif" font-size="9.00">Hallway</text>
</g>
<!-- e5&#45;&gt;v1 -->
<g id="edge27" class="edge"><title>e5&#45;&gt;v1</title>
<path fill="none" stroke="green" d="M317.5,-126C317.5,-126 368.822,-50.0168 387.667,-22.1167"/>
</g>
<!-- v13 -->
<g id="v13_Room" class="node"><title>v13</title>
<ellipse fill="none" stroke="black" cx="270.5" cy="-69" rx="21.5" ry="11"/>
<text text-anchor="middle" x="270.5" y="-66.8" font-family="sans-serif" font-size="9.00">Room</text>
</g>
<!-- e5&#45;&gt;v13 -->
<g id="edge28" class="edge"><title>e5&#45;&gt;v13</title>
<path fill="none" stroke="green" d="M317.5,-126C317.5,-126 291.882,-95.4767 278.473,-79.4996"/>
</g>
<!-- e6&#45;&gt;v1 -->
<g id="edge30" class="edge"><title>e6&#45;&gt;v1</title>
<path fill="none" stroke="green" d="M358.5,-126C358.5,-126 382.495,-50.0168 391.305,-22.1167"/>
</g>
<!-- v7 -->
<g id="v7_Entrance" class="node"><title>v7</title>
<ellipse fill="none" stroke="black" cx="460.5" cy="-69" rx="36" ry="11"/>
<text text-anchor="middle" x="460.5" y="-66.8" font-family="sans-serif" font-size="9.00">Entrance</text>
</g>
<!-- e6&#45;&gt;v7 -->
<g id="edge31" class="edge"><title>e6&#45;&gt;v7</title>
<path fill="none" stroke="green" d="M358.5,-126C358.5,-126 415.279,-94.8273 444.112,-78.9974"/>
</g>
<!-- e7&#45;&gt;v6 -->
<g id="edge33" class="edge"><title>e7&#45;&gt;v6</title>
<path fill="none" stroke="green" d="M739.5,-68C739.5,-68 743.563,-61.3726 748.5,-58 776.911,-38.593 814.594,-26.015 840.522,-18.9983"/>
</g>
<!-- e7&#45;&gt;v10 -->
<g id="edge34" class="edge"><title>e7&#45;&gt;v10</title>
<path fill="none" stroke="green" d="M739.5,-68C739.5,-68 732.905,-62.3571 727.5,-58 711.119,-44.7944 691.843,-29.8814 679.897,-20.7101"/>
</g>
<!-- e7&#45;&gt;v11 -->
<g id="edge35" class="edge"><title>e7&#45;&gt;v11</title>
<path fill="none" stroke="green" d="M739.5,-68C739.5,-68 749.638,-38.1193 755.103,-22.0117"/>
</g>
<!-- v14 -->
<g id="v14_Wokrstation" class="node"><title>v14</title>
<ellipse fill="none" stroke="black" cx="270.5" cy="-11" rx="47" ry="11"/>
<text text-anchor="middle" x="270.5" y="-8.8" font-family="sans-serif" font-size="9.00">Wokrstation</text>
</g>
<!-- e8&#45;&gt;v14 -->
<g id="edge37" class="edge"><title>e8&#45;&gt;v14</title>
<path fill="none" stroke="green" d="M170.5,-68C170.5,-68 225.006,-37.4767 253.536,-21.4996"/>
</g>
<!-- e8&#45;&gt;v15 -->
<g id="edge38" class="edge"><title>e8&#45;&gt;v15</title>
<path fill="none" stroke="green" d="M170.5,-68C170.5,-68 108.908,-37.4767 76.6689,-21.4996"/>
</g>
<!-- e8&#45;&gt;v16 -->
<g id="edge39" class="edge"><title>e8&#45;&gt;v16</title>
<path fill="none" stroke="green" d="M170.5,-68C170.5,-68 169.966,-38.1193 169.679,-22.0117"/>
</g>
<!-- e10&#45;&gt;v1 -->
<g id="edge42" class="edge"><title>e10&#45;&gt;v1</title>
<path fill="none" stroke="green" d="M498.5,-126C498.5,-126 522.377,-83.2631 505.5,-58 495.448,-42.9528 448.036,-27.1727 418.522,-18.5647"/>
</g>
<!-- v9 -->
<g id="v9_Room" class="node"><title>v9</title>
<ellipse fill="none" stroke="black" cx="697.5" cy="-69" rx="21.5" ry="11"/>
<text text-anchor="middle" x="697.5" y="-66.8" font-family="sans-serif" font-size="9.00">Room</text>
</g>
<!-- e10&#45;&gt;v9 -->
<g id="edge43" class="edge"><title>e10&#45;&gt;v9</title>
<path fill="none" stroke="green" d="M498.5,-126C498.5,-126 506.173,-119.241 513.5,-116 569.961,-91.0232 642.421,-77.9572 677.156,-72.7531"/>
</g>
<!-- e11&#45;&gt;v1 -->
<g id="edge45" class="edge"><title>e11&#45;&gt;v1</title>
<path fill="none" stroke="green" d="M634.5,-242C634.5,-242 597.446,-118.443 523.5,-58 507.115,-44.6074 451.149,-27.5997 418.566,-18.479"/>
</g>
<!-- v2 -->
<g id="v2_Room" class="node"><title>v2</title>
<ellipse fill="none" stroke="black" cx="653.5" cy="-185" rx="21.5" ry="11"/>
<text text-anchor="middle" x="653.5" y="-182.8" font-family="sans-serif" font-size="9.00">Room</text>
</g>
<!-- e11&#45;&gt;v2 -->
<g id="edge46" class="edge"><title>e11&#45;&gt;v2</title>
<path fill="none" stroke="green" d="M634.5,-242C634.5,-242 644.638,-212.119 650.103,-196.012"/>
</g>
<!-- v0&#45;&gt;osecond -->
<g id="edge40" class="edge"><title>v0&#45;&gt;osecond</title>
<path fill="none" stroke="green" d="M428.5,-254.03C428.5,-264.259 428.5,-279.952 428.5,-289.562"/>
</g>
<!-- v0&#45;&gt;v1 -->
<g id="edge4" class="edge"><title>v0&#45;&gt;v1</title>
<path fill="none" stroke="black" d="M426.995,-231.82C421.597,-195.304 403.186,-70.7575 396.746,-27.194"/>
<polygon fill="black" stroke="black" points="395.987,-22.062 398.945,-26.6792 396.353,-24.5352 396.719,-27.0083 396.719,-27.0083 396.719,-27.0083 396.353,-24.5352 394.493,-27.3373 395.987,-22.062 395.987,-22.062"/>
</g>
<!-- v0&#45;&gt;v2 -->
<g id="edge5" class="edge"><title>v0&#45;&gt;v2</title>
<path fill="none" stroke="black" d="M449.264,-236.832C491.165,-226.403 585.601,-202.899 629.821,-191.894"/>
<polygon fill="black" stroke="black" points="634.704,-190.678 630.395,-194.069 632.278,-191.282 629.852,-191.886 629.852,-191.886 629.852,-191.886 632.278,-191.282 629.308,-189.702 634.704,-190.678 634.704,-190.678"/>
</g>
<!-- v0&#45;&gt;v7 -->
<g id="edge6" class="edge"><title>v0&#45;&gt;v7</title>
<path fill="none" stroke="black" d="M430.359,-232.009C435.727,-203.153 451.28,-119.556 457.689,-85.1091"/>
<polygon fill="black" stroke="black" points="458.636,-80.0185 459.934,-85.3457 458.179,-82.4763 457.721,-84.9341 457.721,-84.9341 457.721,-84.9341 458.179,-82.4763 455.509,-84.5225 458.636,-80.0185 458.636,-80.0185"/>
</g>
<!-- v0&#45;&gt;v9 -->
<g id="edge7" class="edge"><title>v0&#45;&gt;v9</title>
<path fill="none" stroke="black" d="M441.84,-233.47C486.514,-204.905 630.84,-112.623 680.516,-80.8597"/>
<polygon fill="black" stroke="black" points="685.021,-77.979 682.021,-82.5682 682.915,-79.3258 680.809,-80.6725 680.809,-80.6725 680.809,-80.6725 682.915,-79.3258 679.597,-78.7769 685.021,-77.979 685.021,-77.979"/>
</g>
<!-- v0&#45;&gt;v13 -->
<g id="edge8" class="edge"><title>v0&#45;&gt;v13</title>
<path fill="none" stroke="black" d="M415.861,-233.507C392.274,-217.185 340.924,-179.369 307.5,-138 294.11,-121.427 283.115,-99.3028 276.683,-84.8585"/>
<polygon fill="black" stroke="black" points="274.524,-79.9088 278.586,-83.5922 275.524,-82.2003 276.523,-84.4918 276.523,-84.4918 276.523,-84.4918 275.524,-82.2003 274.461,-85.3914 274.524,-79.9088 274.524,-79.9088"/>
</g>
<!-- v3 -->
<g id="v3_Actor" class="node"><title>v3</title>
<ellipse fill="none" stroke="black" cx="694.5" cy="-127" rx="25" ry="11"/>
<text text-anchor="middle" x="694.5" y="-124.8" font-family="sans-serif" font-size="9.00">Actor</text>
</g>
<!-- v2&#45;&gt;v3 -->
<g id="edge9" class="edge"><title>v2&#45;&gt;v3</title>
<path fill="none" stroke="black" d="M660.455,-174.5C667.012,-165.544 676.915,-152.018 684.353,-141.859"/>
<polygon fill="black" stroke="black" points="687.373,-137.734 686.235,-143.098 685.896,-139.752 684.419,-141.769 684.419,-141.769 684.419,-141.769 685.896,-139.752 682.604,-140.44 687.373,-137.734 687.373,-137.734"/>
</g>
<!-- v2&#45;&gt;v6 -->
<g id="edge10" class="edge"><title>v2&#45;&gt;v6</title>
<path fill="none" stroke="black" d="M651.458,-173.991C649.119,-159.525 647.161,-132.686 660.5,-116 691.831,-76.8096 722.408,-102.006 767.5,-80 799.904,-64.1859 834.211,-39.781 853.919,-24.9119"/>
<polygon fill="black" stroke="black" points="858.133,-21.7097 855.513,-26.5264 856.143,-23.2223 854.152,-24.7349 854.152,-24.7349 854.152,-24.7349 856.143,-23.2223 852.791,-22.9435 858.133,-21.7097 858.133,-21.7097"/>
</g>
<!-- v3&#45;&gt;v4 -->
<g id="edge11" class="edge"><title>v3&#45;&gt;v4</title>
<path fill="none" stroke="black" d="M716.387,-121.322C763.449,-111.263 874.285,-87.5727 927.281,-76.2452"/>
<polygon fill="black" stroke="black" points="932.225,-75.1885 927.806,-78.434 929.781,-75.7111 927.336,-76.2337 927.336,-76.2337 927.336,-76.2337 929.781,-75.7111 926.865,-74.0334 932.225,-75.1885 932.225,-75.1885"/>
</g>
<!-- v5 -->
<g id="v5_Malware" class="node"><title>v5</title>
<ellipse fill="none" stroke="black" cx="964.5" cy="-11" rx="32.5" ry="11"/>
<text text-anchor="middle" x="964.5" y="-8.8" font-family="sans-serif" font-size="9.00">Malware</text>
</g>
<!-- v4&#45;&gt;v5 -->
<g id="edge12" class="edge"><title>v4&#45;&gt;v5</title>
<path fill="none" stroke="black" d="M957.93,-57.9883C959.144,-49.4941 960.904,-37.1697 962.298,-27.4169"/>
<polygon fill="black" stroke="black" points="963.028,-22.3039 964.548,-27.5719 962.674,-24.7787 962.321,-27.2536 962.321,-27.2536 962.321,-27.2536 962.674,-24.7787 960.093,-26.9354 963.028,-22.3039 963.028,-22.3039"/>
</g>
<!-- v8 -->
<g id="v8_FireDetector" class="node"><title>v8</title>
<ellipse fill="none" stroke="black" cx="495.5" cy="-11" rx="50.5" ry="11"/>
<text text-anchor="middle" x="495.5" y="-8.8" font-family="sans-serif" font-size="9.00">FireDetector</text>
</g>
<!-- v7&#45;&gt;v8 -->
<g id="edge13" class="edge"><title>v7&#45;&gt;v8</title>
<path fill="none" stroke="black" d="M466.757,-57.9883C472.282,-49.149 480.399,-36.162 486.599,-26.2414"/>
<polygon fill="black" stroke="black" points="489.297,-21.925 488.555,-27.3575 487.972,-24.045 486.647,-26.165 486.647,-26.165 486.647,-26.165 487.972,-24.045 484.739,-24.9725 489.297,-21.925 489.297,-21.925"/>
</g>
<!-- v8&#45;&gt;oa -->
<g id="edge20" class="edge"><title>v8&#45;&gt;oa</title>
<path fill="none" stroke="green" d="M503.13,-22.0221C509.561,-30.9771 518.494,-44.7002 523.5,-58 556.135,-144.698 563.67,-258.7 565.167,-289.842"/>
</g>
<!-- v8&#45;&gt;ob -->
<g id="edge21" class="edge"><title>v8&#45;&gt;ob</title>
<path fill="none" stroke="green" d="M518.907,-20.788C575.526,-42.2731 716.152,-97.0808 728.5,-116 765.63,-172.891 741.098,-262.594 732.288,-289.868"/>
</g>
<!-- v9&#45;&gt;v10 -->
<g id="edge14" class="edge"><title>v9&#45;&gt;v10</title>
<path fill="none" stroke="black" d="M692.449,-58.2455C687.93,-49.5202 681.244,-36.6082 676.083,-26.6435"/>
<polygon fill="black" stroke="black" points="673.689,-22.0198 677.986,-25.425 674.838,-24.2397 675.988,-26.4597 675.988,-26.4597 675.988,-26.4597 674.838,-24.2397 673.99,-27.4944 673.689,-22.0198 673.689,-22.0198"/>
</g>
<!-- v9&#45;&gt;v11 -->
<g id="edge15" class="edge"><title>v9&#45;&gt;v11</title>
<path fill="none" stroke="black" d="M707.301,-59.0026C717.139,-49.9708 732.418,-35.9443 743.726,-25.5628"/>
<polygon fill="black" stroke="black" points="747.695,-21.919 745.534,-26.9578 745.854,-23.6097 744.012,-25.3004 744.012,-25.3004 744.012,-25.3004 745.854,-23.6097 742.491,-23.6429 747.695,-21.919 747.695,-21.919"/>
</g>
<!-- v12 -->
<g id="v12_Servers" class="node"><title>v12</title>
<ellipse fill="none" stroke="black" cx="596.5" cy="-11" rx="32.5" ry="11"/>
<text text-anchor="middle" x="596.5" y="-8.8" font-family="sans-serif" font-size="9.00">Servers</text>
</g>
<!-- v9&#45;&gt;v12 -->
<g id="edge16" class="edge"><title>v9&#45;&gt;v12</title>
<path fill="none" stroke="black" d="M683.879,-60.4476C666.631,-50.8845 636.764,-34.3245 616.818,-23.2655"/>
<polygon fill="black" stroke="black" points="612.224,-20.7183 617.688,-21.1751 614.41,-21.9306 616.597,-23.1429 616.597,-23.1429 616.597,-23.1429 614.41,-21.9306 615.506,-25.1107 612.224,-20.7183 612.224,-20.7183"/>
</g>
<!-- v13&#45;&gt;v14 -->
<g id="edge17" class="edge"><title>v13&#45;&gt;v14</title>
<path fill="none" stroke="black" d="M270.5,-57.9883C270.5,-49.4941 270.5,-37.1697 270.5,-27.4169"/>
<polygon fill="black" stroke="black" points="270.5,-22.3039 272.75,-27.3038 270.5,-24.8039 270.5,-27.3039 270.5,-27.3039 270.5,-27.3039 270.5,-24.8039 268.25,-27.3039 270.5,-22.3039 270.5,-22.3039"/>
</g>
</g>
</svg>
