<?xml version="1.0" encoding="UTF-8" standalone="no"?>
<?xml-stylesheet href="style.css" type="text/css"?>
<!DOCTYPE svg PUBLIC "-//W3C//DTD SVG 1.1//EN"
 "http://www.w3.org/Graphics/SVG/1.1/DTD/svg11.dtd">
<!-- Generated by graphviz version 2.38.0 (20140413.2041)
 -->
<!-- Title: 4.svg Pages: 1 -->
<svg width="1052pt" height="316pt"
 viewBox="0.00 0.00 1052.00 316.00" xmlns="http://www.w3.org/2000/svg" xmlns:xlink="http://www.w3.org/1999/xlink">
<g id="graph0" class="graph" transform="scale(1 1) rotate(0) translate(4 312)">
<title>4.svg</title>
<polygon fill="white" stroke="none" points="-4,4 -4,-312 1048,-312 1048,4 -4,4"/>
<!-- r0 -->
<g id="node1" class="node"><title>r0</title>
<polygon fill="none" stroke="black" stroke-dasharray="5,2" points="677,-308 654,-308 654,-290 677,-290 677,-308"/>
<text text-anchor="middle" x="665.5" y="-296.8" font-family="serif" font-size="9.00">0</text>
</g>
<!-- v0 -->
<g id="v0_Floor" class="node"><title>v0</title>
<ellipse fill="none" stroke="black" cx="634.5" cy="-243" rx="25" ry="11"/>
<text text-anchor="middle" x="634.5" y="-240.8" font-family="sans-serif" font-size="9.00">Floor</text>
</g>
<!-- r0&#45;&gt;v0 -->
<g id="edge1" class="edge"><title>r0&#45;&gt;v0</title>
<path fill="none" stroke="black" d="M660.656,-289.562C655.872,-281.228 648.462,-268.32 642.748,-258.368"/>
<polygon fill="black" stroke="black" points="640.258,-254.03 644.699,-257.246 641.503,-256.199 642.748,-258.367 642.748,-258.367 642.748,-258.367 641.503,-256.199 640.796,-259.487 640.258,-254.03 640.258,-254.03"/>
</g>
<!-- r1 -->
<g id="node2" class="node"><title>r1</title>
<polygon fill="none" stroke="black" stroke-dasharray="5,2" points="131,-308 108,-308 108,-290 131,-290 131,-308"/>
<text text-anchor="middle" x="119.5" y="-296.8" font-family="serif" font-size="9.00">1</text>
</g>
<!-- v15 -->
<g id="v15_ControlProcess" class="node"><title>v15</title>
<ellipse fill="none" stroke="black" cx="140.5" cy="-11" rx="57.5" ry="11"/>
<text text-anchor="middle" x="140.5" y="-8.8" font-family="sans-serif" font-size="9.00">ControlProcess</text>
</g>
<!-- r1&#45;&gt;v15 -->
<g id="edge2" class="edge"><title>r1&#45;&gt;v15</title>
<path fill="none" stroke="black" d="M119.5,-289.849C119.5,-271.373 119.5,-224.889 119.5,-186 119.5,-186 119.5,-186 119.5,-126 119.5,-90.0421 129.73,-48.7443 135.91,-27.0771"/>
<polygon fill="black" stroke="black" points="137.311,-22.2573 138.076,-27.6867 136.613,-24.658 135.915,-27.0587 135.915,-27.0587 135.915,-27.0587 136.613,-24.658 133.754,-26.4307 137.311,-22.2573 137.311,-22.2573"/>
</g>
<!-- r2 -->
<g id="node3" class="node"><title>r2</title>
<polygon fill="none" stroke="black" stroke-dasharray="5,2" points="172,-308 149,-308 149,-290 172,-290 172,-308"/>
<text text-anchor="middle" x="160.5" y="-296.8" font-family="serif" font-size="9.00">2</text>
</g>
<!-- v16 -->
<g id="v16_Database" class="node"><title>v16</title>
<ellipse fill="none" stroke="black" cx="252.5" cy="-11" rx="36" ry="11"/>
<text text-anchor="middle" x="252.5" y="-8.8" font-family="sans-serif" font-size="9.00">Database</text>
</g>
<!-- r2&#45;&gt;v16 -->
<g id="edge3" class="edge"><title>r2&#45;&gt;v16</title>
<path fill="none" stroke="black" d="M160.5,-289.849C160.5,-271.373 160.5,-224.889 160.5,-186 160.5,-186 160.5,-186 160.5,-126 160.5,-80.1317 206.161,-42.3115 233.147,-23.9648"/>
<polygon fill="black" stroke="black" points="237.308,-21.1893 234.397,-25.8357 235.228,-22.5766 233.149,-23.9639 233.149,-23.9639 233.149,-23.9639 235.228,-22.5766 231.9,-22.0922 237.308,-21.1893 237.308,-21.1893"/>
</g>
<!-- oa -->
<g id="node4" class="node"><title>oa</title>
<text text-anchor="middle" x="468.5" y="-296.8" font-family="serif" font-size="9.00">a</text>
</g>
<!-- ob -->
<g id="node5" class="node"><title>ob</title>
<text text-anchor="middle" x="330.5" y="-296.8" font-family="serif" font-size="9.00">b</text>
</g>
<!-- obusNetwork -->
<g id="node6" class="node"><title>obusNetwork</title>
<text text-anchor="middle" x="1007.5" y="-296.8" font-family="serif" font-size="9.00">busNetwork</text>
</g>
<!-- e4 -->
<g id="node16" class="node"><title>e4</title>
</g>
<!-- obusNetwork&#45;&gt;e4 -->
<g id="edge22" class="edge"><title>obusNetwork&#45;&gt;e4</title>
<path fill="none" stroke="green" d="M1005.79,-289.885C997.241,-249.27 959.5,-70 959.5,-70"/>
</g>
<!-- ocontrol -->
<g id="node7" class="node"><title>ocontrol</title>
<text text-anchor="middle" x="400.5" y="-296.8" font-family="serif" font-size="9.00">control</text>
</g>
<!-- e5 -->
<g id="node17" class="node"><title>e5</title>
</g>
<!-- ocontrol&#45;&gt;e5 -->
<g id="edge26" class="edge"><title>ocontrol&#45;&gt;e5</title>
<path fill="none" stroke="green" d="M400.5,-289.562C400.5,-274.375 400.5,-244 400.5,-244"/>
</g>
<!-- oent -->
<g id="node8" class="node"><title>oent</title>
<text text-anchor="middle" x="521.5" y="-296.8" font-family="serif" font-size="9.00">ent</text>
</g>
<!-- e6 -->
<g id="node18" class="node"><title>e6</title>
</g>
<!-- oent&#45;&gt;e6 -->
<g id="edge29" class="edge"><title>oent&#45;&gt;e6</title>
<path fill="none" stroke="green" d="M524.732,-289.801C538.115,-255.842 588.5,-128 588.5,-128"/>
</g>
<!-- oinstallationBus -->
<g id="node9" class="node"><title>oinstallationBus</title>
<text text-anchor="middle" x="909.5" y="-296.8" font-family="serif" font-size="9.00">installationBus</text>
</g>
<!-- e7 -->
<g id="node19" class="node"><title>e7</title>
</g>
<!-- oinstallationBus&#45;&gt;e7 -->
<g id="edge32" class="edge"><title>oinstallationBus&#45;&gt;e7</title>
<path fill="none" stroke="green" d="M909.358,-289.885C908.645,-249.27 905.5,-70 905.5,-70"/>
</g>
<!-- oip_network -->
<g id="node10" class="node"><title>oip_network</title>
<text text-anchor="middle" x="266.5" y="-296.8" font-family="serif" font-size="9.00">ip_network</text>
</g>
<!-- e8 -->
<g id="node20" class="node"><title>e8</title>
</g>
<!-- oip_network&#45;&gt;e8 -->
<g id="edge36" class="edge"><title>oip_network&#45;&gt;e8</title>
<path fill="none" stroke="green" d="M266.286,-289.885C265.218,-249.27 260.5,-70 260.5,-70"/>
</g>
<!-- osecond -->
<g id="node11" class="node"><title>osecond</title>
<text text-anchor="middle" x="611.5" y="-296.8" font-family="serif" font-size="9.00">second</text>
</g>
<!-- oserver -->
<g id="node12" class="node"><title>oserver</title>
<text text-anchor="middle" x="825.5" y="-296.8" font-family="serif" font-size="9.00">server</text>
</g>
<!-- e10 -->
<g id="node21" class="node"><title>e10</title>
</g>
<!-- oserver&#45;&gt;e10 -->
<g id="edge41" class="edge"><title>oserver&#45;&gt;e10</title>
<path fill="none" stroke="green" d="M825.631,-289.87C825.619,-269.154 823.409,-213.25 801.5,-174 786.782,-147.633 751.5,-128 751.5,-128"/>
</g>
<!-- otoilet -->
<g id="node13" class="node"><title>otoilet</title>
<text text-anchor="middle" x="764.5" y="-296.8" font-family="serif" font-size="9.00">toilet</text>
</g>
<!-- e11 -->
<g id="node22" class="node"><title>e11</title>
</g>
<!-- otoilet&#45;&gt;e11 -->
<g id="edge44" class="edge"><title>otoilet&#45;&gt;e11</title>
<path fill="none" stroke="green" d="M760.545,-289.801C744.165,-255.842 682.5,-128 682.5,-128"/>
</g>
<!-- e0 -->
<g id="node14" class="node"><title>e0</title>
</g>
<!-- v4 -->
<g id="v4_Laptop" class="node"><title>v4</title>
<ellipse fill="none" stroke="black" cx="46.5" cy="-69" rx="29" ry="11"/>
<text text-anchor="middle" x="46.5" y="-66.8" font-family="sans-serif" font-size="9.00">Laptop</text>
</g>
<!-- e0&#45;&gt;v4 -->
<g id="edge18" class="edge"><title>e0&#45;&gt;v4</title>
<path fill="none" stroke="green" d="M38.1159,-122.167C39.4951,-113.586 42.8685,-92.5957 44.891,-80.0117"/>
<polygon fill="green" stroke="green" points="41.0667,-125.864 34.1554,-124.753 34.3776,-123.371 41.2889,-124.482 41.0667,-125.864"/>
<polyline fill="none" stroke="green" points="37.5,-126 38.0554,-122.544 "/>
</g>
<!-- e1 -->
<g id="node15" class="node"><title>e1</title>
</g>
<!-- e1&#45;&gt;v4 -->
<g id="edge19" class="edge"><title>e1&#45;&gt;v4</title>
<path fill="none" stroke="green" d="M55.8156,-122.167C54.2833,-113.586 50.535,-92.5957 48.2878,-80.0117"/>
<polygon fill="green" stroke="green" points="59.8224,-124.696 52.9314,-125.926 52.6853,-124.548 59.5763,-123.317 59.8224,-124.696"/>
<polyline fill="none" stroke="green" points="56.5,-126 55.8847,-122.555 "/>
</g>
<!-- v10 -->
<g id="v10_HVAC" class="node"><title>v10</title>
<ellipse fill="none" stroke="black" cx="898.5" cy="-11" rx="21.5" ry="11"/>
<text text-anchor="middle" x="898.5" y="-8.8" font-family="sans-serif" font-size="9.00">HVAC</text>
</g>
<!-- e4&#45;&gt;v10 -->
<g id="edge23" class="edge"><title>e4&#45;&gt;v10</title>
<path fill="none" stroke="green" d="M959.5,-68C959.5,-68 925.544,-36.8273 908.301,-20.9974"/>
</g>
<!-- v11 -->
<g id="v11_FireDetector" class="node"><title>v11</title>
<ellipse fill="none" stroke="black" cx="988.5" cy="-11" rx="50.5" ry="11"/>
<text text-anchor="middle" x="988.5" y="-8.8" font-family="sans-serif" font-size="9.00">FireDetector</text>
</g>
<!-- e4&#45;&gt;v11 -->
<g id="edge24" class="edge"><title>e4&#45;&gt;v11</title>
<path fill="none" stroke="green" d="M959.5,-68C959.5,-68 974.974,-38.1193 983.315,-22.0117"/>
</g>
<!-- v14 -->
<g id="v14_SmartLight" class="node"><title>v14</title>
<ellipse fill="none" stroke="black" cx="815.5" cy="-11" rx="43" ry="11"/>
<text text-anchor="middle" x="815.5" y="-8.8" font-family="sans-serif" font-size="9.00">SmartLight</text>
</g>
<!-- e4&#45;&gt;v14 -->
<g id="edge25" class="edge"><title>e4&#45;&gt;v14</title>
<path fill="none" stroke="green" d="M959.5,-68C959.5,-68 877.654,-36.171 837.371,-20.5052"/>
</g>
<!-- v1 -->
<g id="v1_Hallway" class="node"><title>v1</title>
<ellipse fill="none" stroke="black" cx="634.5" cy="-11" rx="32.5" ry="11"/>
<text text-anchor="middle" x="634.5" y="-8.8" font-family="sans-serif" font-size="9.00">Hallway</text>
</g>
<!-- e5&#45;&gt;v1 -->
<g id="edge27" class="edge"><title>e5&#45;&gt;v1</title>
<path fill="none" stroke="green" d="M400.5,-242C400.5,-242 419.267,-117.388 487.5,-58 520.379,-29.3835 570.984,-18.5594 603.413,-14.4717"/>
</g>
<!-- v2 -->
<g id="v2_Room" class="node"><title>v2</title>
<ellipse fill="none" stroke="black" cx="380.5" cy="-185" rx="21.5" ry="11"/>
<text text-anchor="middle" x="380.5" y="-182.8" font-family="sans-serif" font-size="9.00">Room</text>
</g>
<!-- e5&#45;&gt;v2 -->
<g id="edge28" class="edge"><title>e5&#45;&gt;v2</title>
<path fill="none" stroke="green" d="M400.5,-242C400.5,-242 389.828,-212.119 384.076,-196.012"/>
</g>
<!-- e6&#45;&gt;v1 -->
<g id="edge30" class="edge"><title>e6&#45;&gt;v1</title>
<path fill="none" stroke="green" d="M588.5,-126C588.5,-126 619.16,-50.0168 630.418,-22.1167"/>
</g>
<!-- v7 -->
<g id="v7_Entrance" class="node"><title>v7</title>
<ellipse fill="none" stroke="black" cx="532.5" cy="-69" rx="36" ry="11"/>
<text text-anchor="middle" x="532.5" y="-66.8" font-family="sans-serif" font-size="9.00">Entrance</text>
</g>
<!-- e6&#45;&gt;v7 -->
<g id="edge31" class="edge"><title>e6&#45;&gt;v7</title>
<path fill="none" stroke="green" d="M588.5,-126C588.5,-126 558.299,-95.7988 542.254,-79.7545"/>
</g>
<!-- e7&#45;&gt;v10 -->
<g id="edge33" class="edge"><title>e7&#45;&gt;v10</title>
<path fill="none" stroke="green" d="M905.5,-68C905.5,-68 901.765,-38.1193 899.751,-22.0117"/>
</g>
<!-- e7&#45;&gt;v11 -->
<g id="edge34" class="edge"><title>e7&#45;&gt;v11</title>
<path fill="none" stroke="green" d="M905.5,-68C905.5,-68 950.262,-37.7988 974.043,-21.7545"/>
</g>
<!-- e7&#45;&gt;v14 -->
<g id="edge35" class="edge"><title>e7&#45;&gt;v14</title>
<path fill="none" stroke="green" d="M905.5,-68C905.5,-68 856.445,-37.4767 830.767,-21.4996"/>
</g>
<!-- v6 -->
<g id="v6_Wokrstation" class="node"><title>v6</title>
<ellipse fill="none" stroke="black" cx="353.5" cy="-11" rx="47" ry="11"/>
<text text-anchor="middle" x="353.5" y="-8.8" font-family="sans-serif" font-size="9.00">Wokrstation</text>
</g>
<!-- e8&#45;&gt;v6 -->
<g id="edge37" class="edge"><title>e8&#45;&gt;v6</title>
<path fill="none" stroke="green" d="M260.5,-68C260.5,-68 311.191,-37.4767 337.724,-21.4996"/>
</g>
<!-- e8&#45;&gt;v15 -->
<g id="edge38" class="edge"><title>e8&#45;&gt;v15</title>
<path fill="none" stroke="green" d="M260.5,-68C260.5,-68 194.746,-37.315 160.585,-21.3731"/>
</g>
<!-- e8&#45;&gt;v16 -->
<g id="edge39" class="edge"><title>e8&#45;&gt;v16</title>
<path fill="none" stroke="green" d="M260.5,-68C260.5,-68 256.231,-38.1193 253.93,-22.0117"/>
</g>
<!-- e10&#45;&gt;v1 -->
<g id="edge42" class="edge"><title>e10&#45;&gt;v1</title>
<path fill="none" stroke="green" d="M751.5,-126C751.5,-126 769.555,-82.954 752.5,-58 741.675,-42.1616 690.781,-26.5422 659.473,-18.2024"/>
</g>
<!-- v9 -->
<g id="v9_Room" class="node"><title>v9</title>
<ellipse fill="none" stroke="black" cx="822.5" cy="-69" rx="21.5" ry="11"/>
<text text-anchor="middle" x="822.5" y="-66.8" font-family="sans-serif" font-size="9.00">Room</text>
</g>
<!-- e10&#45;&gt;v9 -->
<g id="edge43" class="edge"><title>e10&#45;&gt;v9</title>
<path fill="none" stroke="green" d="M751.5,-126C751.5,-126 791.438,-94.5 811.406,-78.75"/>
</g>
<!-- e11&#45;&gt;v1 -->
<g id="edge45" class="edge"><title>e11&#45;&gt;v1</title>
<path fill="none" stroke="green" d="M682.5,-126C682.5,-126 650.507,-50.0168 638.76,-22.1167"/>
</g>
<!-- v13 -->
<g id="v13_Room" class="node"><title>v13</title>
<ellipse fill="none" stroke="black" cx="722.5" cy="-69" rx="21.5" ry="11"/>
<text text-anchor="middle" x="722.5" y="-66.8" font-family="sans-serif" font-size="9.00">Room</text>
</g>
<!-- e11&#45;&gt;v13 -->
<g id="edge46" class="edge"><title>e11&#45;&gt;v13</title>
<path fill="none" stroke="green" d="M682.5,-126C682.5,-126 704.302,-95.4767 715.715,-79.4996"/>
</g>
<!-- v0&#45;&gt;osecond -->
<g id="edge40" class="edge"><title>v0&#45;&gt;osecond</title>
<path fill="none" stroke="green" d="M630.228,-254.03C625.871,-264.259 619.187,-279.952 615.094,-289.562"/>
</g>
<!-- v0&#45;&gt;v1 -->
<g id="edge4" class="edge"><title>v0&#45;&gt;v1</title>
<path fill="none" stroke="black" d="M634.5,-231.82C634.5,-195.304 634.5,-70.7575 634.5,-27.194"/>
<polygon fill="black" stroke="black" points="634.5,-22.062 636.75,-27.062 634.5,-24.562 634.5,-27.062 634.5,-27.062 634.5,-27.062 634.5,-24.562 632.25,-27.0621 634.5,-22.062 634.5,-22.062"/>
</g>
<!-- v0&#45;&gt;v2 -->
<g id="edge5" class="edge"><title>v0&#45;&gt;v2</title>
<path fill="none" stroke="black" d="M612.844,-237.225C565.733,-226.839 454.211,-202.251 404.795,-191.356"/>
<polygon fill="black" stroke="black" points="399.647,-190.221 405.014,-189.101 402.088,-190.76 404.529,-191.298 404.529,-191.298 404.529,-191.298 402.088,-190.76 404.045,-193.495 399.647,-190.221 399.647,-190.221"/>
</g>
<!-- v0&#45;&gt;v7 -->
<g id="edge6" class="edge"><title>v0&#45;&gt;v7</title>
<path fill="none" stroke="black" d="M628.724,-232.26C611.693,-203.54 561.599,-119.069 541.247,-84.749"/>
<polygon fill="black" stroke="black" points="538.467,-80.0619 542.953,-83.2148 539.742,-82.2122 541.017,-84.3625 541.017,-84.3625 541.017,-84.3625 539.742,-82.2122 539.082,-85.5102 538.467,-80.0619 538.467,-80.0619"/>
</g>
<!-- v0&#45;&gt;v9 -->
<g id="edge7" class="edge"><title>v0&#45;&gt;v9</title>
<path fill="none" stroke="black" d="M646.433,-233.062C669.37,-215.688 720.85,-175.744 760.5,-138 779.166,-120.231 798.926,-97.8554 810.99,-83.734"/>
<polygon fill="black" stroke="black" points="814.477,-79.6308 812.953,-84.8979 812.858,-81.5358 811.239,-83.4408 811.239,-83.4408 811.239,-83.4408 812.858,-81.5358 809.524,-81.9838 814.477,-79.6308 814.477,-79.6308"/>
</g>
<!-- v0&#45;&gt;v13 -->
<g id="edge8" class="edge"><title>v0&#45;&gt;v13</title>
<path fill="none" stroke="black" d="M640.25,-232.09C650.824,-213.746 673.881,-173.158 691.5,-138 700.612,-119.818 710.187,-98.4074 716.243,-84.5388"/>
<polygon fill="black" stroke="black" points="718.307,-79.7905 718.377,-85.273 717.311,-82.0832 716.314,-84.3759 716.314,-84.3759 716.314,-84.3759 717.311,-82.0832 714.25,-83.4788 718.307,-79.7905 718.307,-79.7905"/>
</g>
<!-- v3 -->
<g id="v3_Actor" class="node"><title>v3</title>
<ellipse fill="none" stroke="black" cx="213.5" cy="-127" rx="25" ry="11"/>
<text text-anchor="middle" x="213.5" y="-124.8" font-family="sans-serif" font-size="9.00">Actor</text>
</g>
<!-- v2&#45;&gt;v3 -->
<g id="edge9" class="edge"><title>v2&#45;&gt;v3</title>
<path fill="none" stroke="black" d="M363.257,-178.218C333.233,-168.15 271.31,-147.385 237.247,-135.963"/>
<polygon fill="black" stroke="black" points="232.431,-134.348 237.887,-133.805 234.801,-135.143 237.172,-135.938 237.172,-135.938 237.172,-135.938 234.801,-135.143 236.456,-138.071 232.431,-134.348 232.431,-134.348"/>
</g>
<!-- v2&#45;&gt;v6 -->
<g id="edge10" class="edge"><title>v2&#45;&gt;v6</title>
<path fill="none" stroke="black" d="M378.932,-174.009C374.402,-145.153 361.279,-61.5561 355.872,-27.1091"/>
<polygon fill="black" stroke="black" points="355.073,-22.0185 358.071,-26.609 355.46,-24.4882 355.848,-26.958 355.848,-26.958 355.848,-26.958 355.46,-24.4882 353.625,-27.3069 355.073,-22.0185 355.073,-22.0185"/>
</g>
<!-- v3&#45;&gt;v4 -->
<g id="edge11" class="edge"><title>v3&#45;&gt;v4</title>
<path fill="none" stroke="black" d="M194.668,-119.685C164.585,-109.597 105.65,-89.8346 71.8795,-78.5105"/>
<polygon fill="black" stroke="black" points="67.086,-76.9031 72.542,-76.3596 69.4563,-77.698 71.8266,-78.4928 71.8266,-78.4928 71.8266,-78.4928 69.4563,-77.698 71.1112,-80.6261 67.086,-76.9031 67.086,-76.9031"/>
</g>
<!-- v5 -->
<g id="v5_Malware" class="node"><title>v5</title>
<ellipse fill="none" stroke="black" cx="32.5" cy="-11" rx="32.5" ry="11"/>
<text text-anchor="middle" x="32.5" y="-8.8" font-family="sans-serif" font-size="9.00">Malware</text>
</g>
<!-- v4&#45;&gt;v5 -->
<g id="edge12" class="edge"><title>v4&#45;&gt;v5</title>
<path fill="none" stroke="black" d="M43.9971,-57.9883C41.8735,-49.4941 38.7924,-37.1697 36.3542,-27.4169"/>
<polygon fill="black" stroke="black" points="35.076,-22.3039 38.4715,-26.6089 35.6823,-24.7292 36.2887,-27.1546 36.2887,-27.1546 36.2887,-27.1546 35.6823,-24.7292 34.1059,-27.7003 35.076,-22.3039 35.076,-22.3039"/>
</g>
<!-- v8 -->
<g id="v8_FireDetector" class="node"><title>v8</title>
<ellipse fill="none" stroke="black" cx="469.5" cy="-11" rx="50.5" ry="11"/>
<text text-anchor="middle" x="469.5" y="-8.8" font-family="sans-serif" font-size="9.00">FireDetector</text>
</g>
<!-- v7&#45;&gt;v8 -->
<g id="edge13" class="edge"><title>v7&#45;&gt;v8</title>
<path fill="none" stroke="black" d="M521.526,-58.2455C511.353,-49.203 496.122,-35.6636 484.765,-25.5685"/>
<polygon fill="black" stroke="black" points="480.772,-22.0198 486.004,-23.6599 482.641,-23.6807 484.509,-25.3416 484.509,-25.3416 484.509,-25.3416 482.641,-23.6807 483.014,-27.0233 480.772,-22.0198 480.772,-22.0198"/>
</g>
<!-- v8&#45;&gt;oa -->
<g id="edge20" class="edge"><title>v8&#45;&gt;oa</title>
<path fill="none" stroke="green" d="M469.352,-22.0645C469.074,-41.9334 468.5,-87.6027 468.5,-126 468.5,-186 468.5,-186 468.5,-186 468.5,-224.889 468.5,-271.373 468.5,-289.849"/>
</g>
<!-- v8&#45;&gt;ob -->
<g id="edge21" class="edge"><title>v8&#45;&gt;ob</title>
<path fill="none" stroke="green" d="M459.364,-21.872C435.686,-45.603 376.693,-108.737 349.5,-174 332.412,-215.012 330.493,-269.402 330.418,-289.806"/>
</g>
<!-- v9&#45;&gt;v10 -->
<g id="edge14" class="edge"><title>v9&#45;&gt;v10</title>
<path fill="none" stroke="black" d="M834.043,-59.4948C846.988,-49.9561 868.066,-34.425 882.574,-23.7353"/>
<polygon fill="black" stroke="black" points="886.849,-20.5852 884.158,-25.3627 884.836,-22.0683 882.823,-23.5513 882.823,-23.5513 882.823,-23.5513 884.836,-22.0683 881.489,-21.7399 886.849,-20.5852 886.849,-20.5852"/>
</g>
<!-- v9&#45;&gt;v11 -->
<g id="edge15" class="edge"><title>v9&#45;&gt;v11</title>
<path fill="none" stroke="black" d="M839.64,-62.2179C867.59,-52.7891 923.348,-33.9789 958.126,-22.2467"/>
<polygon fill="black" stroke="black" points="963.099,-20.569 959.081,-24.2993 960.73,-21.3682 958.361,-22.1673 958.361,-22.1673 958.361,-22.1673 960.73,-21.3682 957.642,-20.0354 963.099,-20.569 963.099,-20.569"/>
</g>
<!-- v12 -->
<g id="v12_Servers" class="node"><title>v12</title>
<ellipse fill="none" stroke="black" cx="721.5" cy="-11" rx="32.5" ry="11"/>
<text text-anchor="middle" x="721.5" y="-8.8" font-family="sans-serif" font-size="9.00">Servers</text>
</g>
<!-- v9&#45;&gt;v12 -->
<g id="edge16" class="edge"><title>v9&#45;&gt;v12</title>
<path fill="none" stroke="black" d="M808.879,-60.4476C791.631,-50.8845 761.764,-34.3245 741.818,-23.2655"/>
<polygon fill="black" stroke="black" points="737.224,-20.7183 742.688,-21.1751 739.41,-21.9306 741.597,-23.1429 741.597,-23.1429 741.597,-23.1429 739.41,-21.9306 740.506,-25.1107 737.224,-20.7183 737.224,-20.7183"/>
</g>
<!-- v13&#45;&gt;v14 -->
<g id="edge17" class="edge"><title>v13&#45;&gt;v14</title>
<path fill="none" stroke="black" d="M735.825,-59.9766C751.475,-50.553 777.585,-34.8303 795.628,-23.9657"/>
<polygon fill="black" stroke="black" points="800.03,-21.315 796.908,-25.8219 797.889,-22.6047 795.747,-23.8943 795.747,-23.8943 795.747,-23.8943 797.889,-22.6047 794.586,-21.9668 800.03,-21.315 800.03,-21.315"/>
</g>
</g>
</svg>
