<?xml version="1.0" encoding="UTF-8" standalone="no"?>
<?xml-stylesheet href="style.css" type="text/css"?>
<!DOCTYPE svg PUBLIC "-//W3C//DTD SVG 1.1//EN"
 "http://www.w3.org/Graphics/SVG/1.1/DTD/svg11.dtd">
<!-- Generated by graphviz version 2.38.0 (20140413.2041)
 -->
<!-- Title: 5.svg Pages: 1 -->
<svg width="980pt" height="316pt"
 viewBox="0.00 0.00 980.00 316.00" xmlns="http://www.w3.org/2000/svg" xmlns:xlink="http://www.w3.org/1999/xlink">
<g id="graph0" class="graph" transform="scale(1 1) rotate(0) translate(4 312)">
<title>5.svg</title>
<polygon fill="white" stroke="none" points="-4,4 -4,-312 976,-312 976,4 -4,4"/>
<!-- r0 -->
<g id="node1" class="node"><title>r0</title>
<polygon fill="none" stroke="black" stroke-dasharray="5,2" points="520,-308 497,-308 497,-290 520,-290 520,-308"/>
<text text-anchor="middle" x="508.5" y="-296.8" font-family="serif" font-size="9.00">0</text>
</g>
<!-- v0 -->
<g id="v0_Floor" class="node"><title>v0</title>
<ellipse fill="none" stroke="black" cx="483.5" cy="-243" rx="25" ry="11"/>
<text text-anchor="middle" x="483.5" y="-240.8" font-family="sans-serif" font-size="9.00">Floor</text>
</g>
<!-- r0&#45;&gt;v0 -->
<g id="edge1" class="edge"><title>r0&#45;&gt;v0</title>
<path fill="none" stroke="black" d="M504.594,-289.562C500.77,-281.303 494.867,-268.552 490.277,-258.638"/>
<polygon fill="black" stroke="black" points="488.144,-254.03 492.286,-257.622 489.194,-256.299 490.244,-258.568 490.244,-258.568 490.244,-258.568 489.194,-256.299 488.203,-259.513 488.144,-254.03 488.144,-254.03"/>
</g>
<!-- r1 -->
<g id="node2" class="node"><title>r1</title>
<polygon fill="none" stroke="black" stroke-dasharray="5,2" points="786,-308 763,-308 763,-290 786,-290 786,-308"/>
<text text-anchor="middle" x="774.5" y="-296.8" font-family="serif" font-size="9.00">1</text>
</g>
<!-- v15 -->
<g id="v15_ControlProcess" class="node"><title>v15</title>
<ellipse fill="none" stroke="black" cx="704.5" cy="-11" rx="57.5" ry="11"/>
<text text-anchor="middle" x="704.5" y="-8.8" font-family="sans-serif" font-size="9.00">ControlProcess</text>
</g>
<!-- r1&#45;&gt;v15 -->
<g id="edge2" class="edge"><title>r1&#45;&gt;v15</title>
<path fill="none" stroke="black" d="M774.5,-289.849C774.5,-271.373 774.5,-224.889 774.5,-186 774.5,-186 774.5,-186 774.5,-126 774.5,-94.6202 772.027,-84.675 755.5,-58 747.295,-44.7568 734.181,-33.0493 723.305,-24.7597"/>
<polygon fill="black" stroke="black" points="719.11,-21.6436 724.465,-22.8184 721.117,-23.1342 723.124,-24.6248 723.124,-24.6248 723.124,-24.6248 721.117,-23.1342 721.782,-26.4311 719.11,-21.6436 719.11,-21.6436"/>
</g>
<!-- r2 -->
<g id="node3" class="node"><title>r2</title>
<polygon fill="none" stroke="black" stroke-dasharray="5,2" points="828,-308 805,-308 805,-290 828,-290 828,-308"/>
<text text-anchor="middle" x="816.5" y="-296.8" font-family="serif" font-size="9.00">2</text>
</g>
<!-- v16 -->
<g id="v16_Database" class="node"><title>v16</title>
<ellipse fill="none" stroke="black" cx="816.5" cy="-11" rx="36" ry="11"/>
<text text-anchor="middle" x="816.5" y="-8.8" font-family="sans-serif" font-size="9.00">Database</text>
</g>
<!-- r2&#45;&gt;v16 -->
<g id="edge3" class="edge"><title>r2&#45;&gt;v16</title>
<path fill="none" stroke="black" d="M816.5,-289.849C816.5,-271.373 816.5,-224.889 816.5,-186 816.5,-186 816.5,-186 816.5,-126 816.5,-90.6038 816.5,-49.0257 816.5,-27.1783"/>
<polygon fill="black" stroke="black" points="816.5,-22.0648 818.75,-27.0648 816.5,-24.5648 816.5,-27.0648 816.5,-27.0648 816.5,-27.0648 816.5,-24.5648 814.25,-27.0648 816.5,-22.0648 816.5,-22.0648"/>
</g>
<!-- oa -->
<g id="node4" class="node"><title>oa</title>
<text text-anchor="middle" x="900.5" y="-296.8" font-family="serif" font-size="9.00">a</text>
</g>
<!-- ob -->
<g id="node5" class="node"><title>ob</title>
<text text-anchor="middle" x="941.5" y="-296.8" font-family="serif" font-size="9.00">b</text>
</g>
<!-- obusNetwork -->
<g id="node6" class="node"><title>obusNetwork</title>
<text text-anchor="middle" x="252.5" y="-296.8" font-family="serif" font-size="9.00">busNetwork</text>
</g>
<!-- e3 -->
<g id="node15" class="node"><title>e3</title>
</g>
<!-- obusNetwork&#45;&gt;e3 -->
<g id="edge21" class="edge"><title>obusNetwork&#45;&gt;e3</title>
<path fill="none" stroke="green" d="M252.215,-289.885C250.79,-249.27 244.5,-70 244.5,-70"/>
</g>
<!-- ocontrol -->
<g id="node7" class="node"><title>ocontrol</title>
<text text-anchor="middle" x="563.5" y="-296.8" font-family="serif" font-size="9.00">control</text>
</g>
<!-- e4 -->
<g id="node16" class="node"><title>e4</title>
</g>
<!-- ocontrol&#45;&gt;e4 -->
<g id="edge25" class="edge"><title>ocontrol&#45;&gt;e4</title>
<path fill="none" stroke="green" d="M562.873,-289.801C560.276,-255.842 550.5,-128 550.5,-128"/>
</g>
<!-- oent -->
<g id="node8" class="node"><title>oent</title>
<text text-anchor="middle" x="717.5" y="-296.8" font-family="serif" font-size="9.00">ent</text>
</g>
<!-- e5 -->
<g id="node17" class="node"><title>e5</title>
</g>
<!-- oent&#45;&gt;e5 -->
<g id="edge28" class="edge"><title>oent&#45;&gt;e5</title>
<path fill="none" stroke="green" d="M717.162,-289.801C715.764,-255.842 710.5,-128 710.5,-128"/>
</g>
<!-- oinstallationBus -->
<g id="node9" class="node"><title>oinstallationBus</title>
<text text-anchor="middle" x="152.5" y="-296.8" font-family="serif" font-size="9.00">installationBus</text>
</g>
<!-- e6 -->
<g id="node18" class="node"><title>e6</title>
</g>
<!-- oinstallationBus&#45;&gt;e6 -->
<g id="edge31" class="edge"><title>oinstallationBus&#45;&gt;e6</title>
<path fill="none" stroke="green" d="M152.596,-289.801C152.996,-255.842 154.5,-128 154.5,-128"/>
</g>
<!-- oip_network -->
<g id="node10" class="node"><title>oip_network</title>
<text text-anchor="middle" x="641.5" y="-296.8" font-family="serif" font-size="9.00">ip_network</text>
</g>
<!-- e7 -->
<g id="node19" class="node"><title>e7</title>
</g>
<!-- oip_network&#45;&gt;e7 -->
<g id="edge36" class="edge"><title>oip_network&#45;&gt;e7</title>
<path fill="none" stroke="green" d="M641.998,-289.885C644.492,-249.27 655.5,-70 655.5,-70"/>
</g>
<!-- osecond -->
<g id="node11" class="node"><title>osecond</title>
<text text-anchor="middle" x="454.5" y="-296.8" font-family="serif" font-size="9.00">second</text>
</g>
<!-- oserver -->
<g id="node12" class="node"><title>oserver</title>
<text text-anchor="middle" x="389.5" y="-296.8" font-family="serif" font-size="9.00">server</text>
</g>
<!-- e9 -->
<g id="node20" class="node"><title>e9</title>
</g>
<!-- oserver&#45;&gt;e9 -->
<g id="edge41" class="edge"><title>oserver&#45;&gt;e9</title>
<path fill="none" stroke="green" d="M390.706,-289.801C395.7,-255.842 414.5,-128 414.5,-128"/>
</g>
<!-- otoilet -->
<g id="node13" class="node"><title>otoilet</title>
<text text-anchor="middle" x="327.5" y="-296.8" font-family="serif" font-size="9.00">toilet</text>
</g>
<!-- e10 -->
<g id="node21" class="node"><title>e10</title>
</g>
<!-- otoilet&#45;&gt;e10 -->
<g id="edge44" class="edge"><title>otoilet&#45;&gt;e10</title>
<path fill="none" stroke="green" d="M326.562,-289.562C324.875,-274.375 321.5,-244 321.5,-244"/>
</g>
<!-- e0 -->
<g id="node14" class="node"><title>e0</title>
</g>
<!-- v3 -->
<g id="v3_Laptop" class="node"><title>v3</title>
<ellipse fill="none" stroke="black" cx="66.5" cy="-69" rx="29" ry="11"/>
<text text-anchor="middle" x="66.5" y="-66.8" font-family="sans-serif" font-size="9.00">Laptop</text>
</g>
<!-- e0&#45;&gt;v3 -->
<g id="edge18" class="edge"><title>e0&#45;&gt;v3</title>
<path fill="none" stroke="green" d="M66.5,-122.167C66.5,-113.586 66.5,-92.5957 66.5,-80.0117"/>
<polygon fill="green" stroke="green" points="70,-125.3 63,-125.3 63.0001,-123.9 70.0001,-123.9 70,-125.3"/>
<polyline fill="none" stroke="green" points="66.5,-126 66.5001,-122.5 "/>
</g>
<!-- v4 -->
<g id="v4_SmartLight" class="node"><title>v4</title>
<ellipse fill="none" stroke="black" cx="126.5" cy="-11" rx="43" ry="11"/>
<text text-anchor="middle" x="126.5" y="-8.8" font-family="sans-serif" font-size="9.00">SmartLight</text>
</g>
<!-- e3&#45;&gt;v4 -->
<g id="edge22" class="edge"><title>e3&#45;&gt;v4</title>
<path fill="none" stroke="green" d="M244.5,-68C244.5,-68 178.815,-36.8273 145.459,-20.9974"/>
</g>
<!-- v10 -->
<g id="v10_HVAC" class="node"><title>v10</title>
<ellipse fill="none" stroke="black" cx="328.5" cy="-11" rx="21.5" ry="11"/>
<text text-anchor="middle" x="328.5" y="-8.8" font-family="sans-serif" font-size="9.00">HVAC</text>
</g>
<!-- e3&#45;&gt;v10 -->
<g id="edge23" class="edge"><title>e3&#45;&gt;v10</title>
<path fill="none" stroke="green" d="M244.5,-68C244.5,-68 292.74,-35.8403 316.106,-20.263"/>
</g>
<!-- v11 -->
<g id="v11_FireDetector" class="node"><title>v11</title>
<ellipse fill="none" stroke="black" cx="238.5" cy="-11" rx="50.5" ry="11"/>
<text text-anchor="middle" x="238.5" y="-8.8" font-family="sans-serif" font-size="9.00">FireDetector</text>
</g>
<!-- e3&#45;&gt;v11 -->
<g id="edge24" class="edge"><title>e3&#45;&gt;v11</title>
<path fill="none" stroke="green" d="M244.5,-68C244.5,-68 241.298,-38.1193 239.573,-22.0117"/>
</g>
<!-- v5 -->
<g id="v5_Hallway" class="node"><title>v5</title>
<ellipse fill="none" stroke="black" cx="483.5" cy="-11" rx="32.5" ry="11"/>
<text text-anchor="middle" x="483.5" y="-8.8" font-family="sans-serif" font-size="9.00">Hallway</text>
</g>
<!-- e4&#45;&gt;v5 -->
<g id="edge26" class="edge"><title>e4&#45;&gt;v5</title>
<path fill="none" stroke="green" d="M550.5,-126C550.5,-126 505.843,-50.0168 489.446,-22.1167"/>
</g>
<!-- v13 -->
<g id="v13_Room" class="node"><title>v13</title>
<ellipse fill="none" stroke="black" cx="576.5" cy="-69" rx="21.5" ry="11"/>
<text text-anchor="middle" x="576.5" y="-66.8" font-family="sans-serif" font-size="9.00">Room</text>
</g>
<!-- e4&#45;&gt;v13 -->
<g id="edge27" class="edge"><title>e4&#45;&gt;v13</title>
<path fill="none" stroke="green" d="M550.5,-126C550.5,-126 564.522,-95.7988 571.971,-79.7545"/>
</g>
<!-- e5&#45;&gt;v5 -->
<g id="edge29" class="edge"><title>e5&#45;&gt;v5</title>
<path fill="none" stroke="green" d="M710.5,-126C710.5,-126 655.776,-82.9359 606.5,-58 572.935,-41.0145 531.541,-26.815 506.353,-18.8664"/>
</g>
<!-- v7 -->
<g id="v7_Entrance" class="node"><title>v7</title>
<ellipse fill="none" stroke="black" cx="710.5" cy="-69" rx="36" ry="11"/>
<text text-anchor="middle" x="710.5" y="-66.8" font-family="sans-serif" font-size="9.00">Entrance</text>
</g>
<!-- e5&#45;&gt;v7 -->
<g id="edge30" class="edge"><title>e5&#45;&gt;v7</title>
<path fill="none" stroke="green" d="M710.5,-126C710.5,-126 710.5,-96.1193 710.5,-80.0117"/>
</g>
<!-- e6&#45;&gt;v3 -->
<g id="edge32" class="edge"><title>e6&#45;&gt;v3</title>
<path fill="none" stroke="green" d="M154.5,-126C154.5,-126 149.469,-119.849 144.5,-116 124.739,-100.692 99.4361,-86.6542 83.0979,-78.2144"/>
</g>
<!-- e6&#45;&gt;v4 -->
<g id="edge33" class="edge"><title>e6&#45;&gt;v4</title>
<path fill="none" stroke="green" d="M154.5,-126C154.5,-126 135.837,-50.0168 128.985,-22.1167"/>
</g>
<!-- e6&#45;&gt;v10 -->
<g id="edge34" class="edge"><title>e6&#45;&gt;v10</title>
<path fill="none" stroke="green" d="M154.5,-126C154.5,-126 213.07,-106.821 253.5,-80 280.156,-62.3168 306.818,-35.4075 320.005,-21.3281"/>
</g>
<!-- e6&#45;&gt;v11 -->
<g id="edge35" class="edge"><title>e6&#45;&gt;v11</title>
<path fill="none" stroke="green" d="M154.5,-126C154.5,-126 210.488,-50.0168 231.046,-22.1167"/>
</g>
<!-- v14 -->
<g id="v14_Wokrstation" class="node"><title>v14</title>
<ellipse fill="none" stroke="black" cx="581.5" cy="-11" rx="47" ry="11"/>
<text text-anchor="middle" x="581.5" y="-8.8" font-family="sans-serif" font-size="9.00">Wokrstation</text>
</g>
<!-- e7&#45;&gt;v14 -->
<g id="edge37" class="edge"><title>e7&#45;&gt;v14</title>
<path fill="none" stroke="green" d="M655.5,-68C655.5,-68 615.591,-37.7988 594.39,-21.7545"/>
</g>
<!-- e7&#45;&gt;v15 -->
<g id="edge38" class="edge"><title>e7&#45;&gt;v15</title>
<path fill="none" stroke="green" d="M655.5,-68C655.5,-68 681.646,-38.1193 695.74,-22.0117"/>
</g>
<!-- e7&#45;&gt;v16 -->
<g id="edge39" class="edge"><title>e7&#45;&gt;v16</title>
<path fill="none" stroke="green" d="M655.5,-68C655.5,-68 660.111,-61.2345 665.5,-58 686.589,-45.3428 752.342,-27.8198 789.756,-18.4774"/>
</g>
<!-- e9&#45;&gt;v5 -->
<g id="edge42" class="edge"><title>e9&#45;&gt;v5</title>
<path fill="none" stroke="green" d="M414.5,-126C414.5,-126 460.49,-50.0168 477.377,-22.1167"/>
</g>
<!-- v9 -->
<g id="v9_Room" class="node"><title>v9</title>
<ellipse fill="none" stroke="black" cx="335.5" cy="-69" rx="21.5" ry="11"/>
<text text-anchor="middle" x="335.5" y="-66.8" font-family="sans-serif" font-size="9.00">Room</text>
</g>
<!-- e9&#45;&gt;v9 -->
<g id="edge43" class="edge"><title>e9&#45;&gt;v9</title>
<path fill="none" stroke="green" d="M414.5,-126C414.5,-126 369.132,-93.8403 347.157,-78.263"/>
</g>
<!-- v1 -->
<g id="v1_Room" class="node"><title>v1</title>
<ellipse fill="none" stroke="black" cx="202.5" cy="-185" rx="21.5" ry="11"/>
<text text-anchor="middle" x="202.5" y="-182.8" font-family="sans-serif" font-size="9.00">Room</text>
</g>
<!-- e10&#45;&gt;v1 -->
<g id="edge45" class="edge"><title>e10&#45;&gt;v1</title>
<path fill="none" stroke="green" d="M321.5,-242C321.5,-242 249.593,-208.161 217.571,-193.092"/>
</g>
<!-- e10&#45;&gt;v5 -->
<g id="edge46" class="edge"><title>e10&#45;&gt;v5</title>
<path fill="none" stroke="green" d="M321.5,-242C321.5,-242 379.422,-134.346 439.5,-58 450.025,-44.6255 463.809,-30.6958 473.123,-21.7188"/>
</g>
<!-- v0&#45;&gt;osecond -->
<g id="edge40" class="edge"><title>v0&#45;&gt;osecond</title>
<path fill="none" stroke="green" d="M478.113,-254.03C472.62,-264.259 464.193,-279.952 459.031,-289.562"/>
</g>
<!-- v0&#45;&gt;v1 -->
<g id="edge4" class="edge"><title>v0&#45;&gt;v1</title>
<path fill="none" stroke="black" d="M461.45,-237.606C409.686,-227.29 280.697,-201.584 226.785,-190.84"/>
<polygon fill="black" stroke="black" points="221.807,-189.848 227.151,-188.618 224.259,-190.336 226.711,-190.825 226.711,-190.825 226.711,-190.825 224.259,-190.336 226.271,-193.032 221.807,-189.848 221.807,-189.848"/>
</g>
<!-- v0&#45;&gt;v5 -->
<g id="edge5" class="edge"><title>v0&#45;&gt;v5</title>
<path fill="none" stroke="black" d="M483.5,-231.82C483.5,-195.304 483.5,-70.7575 483.5,-27.194"/>
<polygon fill="black" stroke="black" points="483.5,-22.062 485.75,-27.062 483.5,-24.562 483.5,-27.062 483.5,-27.062 483.5,-27.062 483.5,-24.562 481.25,-27.0621 483.5,-22.062 483.5,-22.062"/>
</g>
<!-- v0&#45;&gt;v7 -->
<g id="edge6" class="edge"><title>v0&#45;&gt;v7</title>
<path fill="none" stroke="black" d="M495.422,-233.23C507.932,-224.01 528.153,-209.058 545.5,-196 600.119,-154.887 664.378,-105.529 694.01,-82.7122"/>
<polygon fill="black" stroke="black" points="698.126,-79.5426 695.537,-84.3762 696.145,-81.0681 694.164,-82.5936 694.164,-82.5936 694.164,-82.5936 696.145,-81.0681 692.791,-80.811 698.126,-79.5426 698.126,-79.5426"/>
</g>
<!-- v0&#45;&gt;v9 -->
<g id="edge7" class="edge"><title>v0&#45;&gt;v9</title>
<path fill="none" stroke="black" d="M475.332,-232.508C450.51,-203.661 375.908,-116.96 347.062,-83.4369"/>
<polygon fill="black" stroke="black" points="343.462,-79.2532 348.429,-81.5757 345.093,-81.1482 346.723,-83.0433 346.723,-83.0433 346.723,-83.0433 345.093,-81.1482 345.018,-84.5108 343.462,-79.2532 343.462,-79.2532"/>
</g>
<!-- v0&#45;&gt;v13 -->
<g id="edge8" class="edge"><title>v0&#45;&gt;v13</title>
<path fill="none" stroke="black" d="M492.456,-232.499C508.343,-215.128 541.478,-176.478 559.5,-138 567.52,-120.878 572.067,-99.4905 574.402,-85.3228"/>
<polygon fill="black" stroke="black" points="575.219,-80.0893 576.671,-85.3763 574.833,-82.5594 574.448,-85.0296 574.448,-85.0296 574.448,-85.0296 574.833,-82.5594 572.225,-84.6829 575.219,-80.0893 575.219,-80.0893"/>
</g>
<!-- v2 -->
<g id="v2_Actor" class="node"><title>v2</title>
<ellipse fill="none" stroke="black" cx="110.5" cy="-127" rx="25" ry="11"/>
<text text-anchor="middle" x="110.5" y="-124.8" font-family="sans-serif" font-size="9.00">Actor</text>
</g>
<!-- v1&#45;&gt;v2 -->
<g id="edge9" class="edge"><title>v1&#45;&gt;v2</title>
<path fill="none" stroke="black" d="M189.319,-175.977C173.379,-166.274 146.469,-149.894 128.595,-139.014"/>
<polygon fill="black" stroke="black" points="124.258,-136.374 129.699,-137.052 126.393,-137.674 128.529,-138.974 128.529,-138.974 128.529,-138.974 126.393,-137.674 127.359,-140.896 124.258,-136.374 124.258,-136.374"/>
</g>
<!-- v1&#45;&gt;v4 -->
<g id="edge10" class="edge"><title>v1&#45;&gt;v4</title>
<path fill="none" stroke="black" d="M199.364,-173.938C192.451,-152.236 174.885,-99.6256 154.5,-58 149.157,-47.0898 142.025,-35.4042 136.295,-26.541"/>
<polygon fill="black" stroke="black" points="133.277,-21.9303 137.898,-24.8814 134.646,-24.022 136.016,-26.1137 136.016,-26.1137 136.016,-26.1137 134.646,-24.022 134.133,-27.346 133.277,-21.9303 133.277,-21.9303"/>
</g>
<!-- v2&#45;&gt;v3 -->
<g id="edge11" class="edge"><title>v2&#45;&gt;v3</title>
<path fill="none" stroke="black" d="M103.036,-116.5C95.9992,-107.544 85.3713,-94.018 77.3892,-83.859"/>
<polygon fill="black" stroke="black" points="74.1485,-79.7345 79.0069,-82.276 75.6931,-81.7003 77.2376,-83.6661 77.2376,-83.6661 77.2376,-83.6661 75.6931,-81.7003 75.4684,-85.0562 74.1485,-79.7345 74.1485,-79.7345"/>
</g>
<!-- v6 -->
<g id="v6_Malware" class="node"><title>v6</title>
<ellipse fill="none" stroke="black" cx="32.5" cy="-11" rx="32.5" ry="11"/>
<text text-anchor="middle" x="32.5" y="-8.8" font-family="sans-serif" font-size="9.00">Malware</text>
</g>
<!-- v3&#45;&gt;v6 -->
<g id="edge12" class="edge"><title>v3&#45;&gt;v6</title>
<path fill="none" stroke="black" d="M60.4215,-57.9883C55.0548,-49.149 47.1698,-36.162 41.1466,-26.2414"/>
<polygon fill="black" stroke="black" points="38.5259,-21.925 43.0441,-25.0312 39.8234,-24.062 41.1208,-26.199 41.1208,-26.199 41.1208,-26.199 39.8234,-24.062 39.1976,-27.3667 38.5259,-21.925 38.5259,-21.925"/>
</g>
<!-- v8 -->
<g id="v8_FireDetector" class="node"><title>v8</title>
<ellipse fill="none" stroke="black" cx="921.5" cy="-11" rx="50.5" ry="11"/>
<text text-anchor="middle" x="921.5" y="-8.8" font-family="sans-serif" font-size="9.00">FireDetector</text>
</g>
<!-- v7&#45;&gt;v8 -->
<g id="edge13" class="edge"><title>v7&#45;&gt;v8</title>
<path fill="none" stroke="black" d="M736.373,-61.1333C774.124,-51.114 844.397,-32.4633 886.663,-21.2458"/>
<polygon fill="black" stroke="black" points="891.675,-19.9158 887.419,-23.3732 889.258,-20.5571 886.842,-21.1984 886.842,-21.1984 886.842,-21.1984 889.258,-20.5571 886.265,-19.0237 891.675,-19.9158 891.675,-19.9158"/>
</g>
<!-- v8&#45;&gt;oa -->
<g id="edge19" class="edge"><title>v8&#45;&gt;oa</title>
<path fill="none" stroke="green" d="M918.311,-22.2573C912.436,-42.0884 900.5,-87.1594 900.5,-126 900.5,-186 900.5,-186 900.5,-186 900.5,-224.889 900.5,-271.373 900.5,-289.849"/>
</g>
<!-- v8&#45;&gt;ob -->
<g id="edge20" class="edge"><title>v8&#45;&gt;ob</title>
<path fill="none" stroke="green" d="M924.538,-22.2681C930.133,-42.1176 941.5,-87.2187 941.5,-126 941.5,-186 941.5,-186 941.5,-186 941.5,-224.889 941.5,-271.373 941.5,-289.849"/>
</g>
<!-- v9&#45;&gt;v10 -->
<g id="edge14" class="edge"><title>v9&#45;&gt;v10</title>
<path fill="none" stroke="black" d="M334.249,-57.9883C333.187,-49.4941 331.646,-37.1697 330.427,-27.4169"/>
<polygon fill="black" stroke="black" points="329.788,-22.3039 332.641,-26.9861 330.098,-24.7846 330.408,-27.2653 330.408,-27.2653 330.408,-27.2653 330.098,-24.7846 328.176,-27.5444 329.788,-22.3039 329.788,-22.3039"/>
</g>
<!-- v9&#45;&gt;v11 -->
<g id="edge15" class="edge"><title>v9&#45;&gt;v11</title>
<path fill="none" stroke="black" d="M322.013,-60.2134C305.888,-50.9044 278.708,-35.2128 259.751,-24.2683"/>
<polygon fill="black" stroke="black" points="255.12,-21.5949 260.575,-22.1463 257.285,-22.8449 259.45,-24.0949 259.45,-24.0949 259.45,-24.0949 257.285,-22.8449 258.325,-26.0434 255.12,-21.5949 255.12,-21.5949"/>
</g>
<!-- v12 -->
<g id="v12_Servers" class="node"><title>v12</title>
<ellipse fill="none" stroke="black" cx="400.5" cy="-11" rx="32.5" ry="11"/>
<text text-anchor="middle" x="400.5" y="-8.8" font-family="sans-serif" font-size="9.00">Servers</text>
</g>
<!-- v9&#45;&gt;v12 -->
<g id="edge16" class="edge"><title>v9&#45;&gt;v12</title>
<path fill="none" stroke="black" d="M345.656,-59.25C356.307,-50.0744 373.162,-35.5532 385.377,-25.0291"/>
<polygon fill="black" stroke="black" points="389.326,-21.6267 387.007,-26.595 387.432,-23.2585 385.538,-24.8903 385.538,-24.8903 385.538,-24.8903 387.432,-23.2585 384.069,-23.1857 389.326,-21.6267 389.326,-21.6267"/>
</g>
<!-- v13&#45;&gt;v14 -->
<g id="edge17" class="edge"><title>v13&#45;&gt;v14</title>
<path fill="none" stroke="black" d="M577.394,-57.9883C578.152,-49.4941 579.253,-37.1697 580.123,-27.4169"/>
<polygon fill="black" stroke="black" points="580.58,-22.3039 582.376,-27.4842 580.358,-24.794 580.135,-27.2841 580.135,-27.2841 580.135,-27.2841 580.358,-24.794 577.894,-27.0839 580.58,-22.3039 580.58,-22.3039"/>
</g>
</g>
</svg>
