<?xml version="1.0" encoding="UTF-8" standalone="no"?>
<?xml-stylesheet href="style.css" type="text/css"?>
<!DOCTYPE svg PUBLIC "-//W3C//DTD SVG 1.1//EN"
 "http://www.w3.org/Graphics/SVG/1.1/DTD/svg11.dtd">
<!-- Generated by graphviz version 2.38.0 (20140413.2041)
 -->
<!-- Title: 6.svg Pages: 1 -->
<svg width="980pt" height="316pt"
 viewBox="0.00 0.00 979.50 316.00" xmlns="http://www.w3.org/2000/svg" xmlns:xlink="http://www.w3.org/1999/xlink">
<g id="graph0" class="graph" transform="scale(1 1) rotate(0) translate(4 312)">
<title>6.svg</title>
<polygon fill="white" stroke="none" points="-4,4 -4,-312 975.5,-312 975.5,4 -4,4"/>
<!-- r0 -->
<g id="node1" class="node"><title>r0</title>
<polygon fill="none" stroke="black" stroke-dasharray="5,2" points="507.5,-308 484.5,-308 484.5,-290 507.5,-290 507.5,-308"/>
<text text-anchor="middle" x="496" y="-296.8" font-family="serif" font-size="9.00">0</text>
</g>
<!-- v0 -->
<g id="v0_Floor" class="node"><title>v0</title>
<ellipse fill="none" stroke="black" cx="486" cy="-243" rx="25" ry="11"/>
<text text-anchor="middle" x="486" y="-240.8" font-family="sans-serif" font-size="9.00">Floor</text>
</g>
<!-- r0&#45;&gt;v0 -->
<g id="edge1" class="edge"><title>r0&#45;&gt;v0</title>
<path fill="none" stroke="black" d="M494.438,-289.562C492.936,-281.453 490.632,-269.014 488.811,-259.181"/>
<polygon fill="black" stroke="black" points="487.857,-254.03 490.98,-258.537 488.313,-256.489 488.768,-258.947 488.768,-258.947 488.768,-258.947 488.313,-256.489 486.556,-259.357 487.857,-254.03 487.857,-254.03"/>
</g>
<!-- r1 -->
<g id="node2" class="node"><title>r1</title>
<polygon fill="none" stroke="black" stroke-dasharray="5,2" points="785.5,-308 762.5,-308 762.5,-290 785.5,-290 785.5,-308"/>
<text text-anchor="middle" x="774" y="-296.8" font-family="serif" font-size="9.00">1</text>
</g>
<!-- v15 -->
<g id="v15_ControlProcess" class="node"><title>v15</title>
<ellipse fill="none" stroke="black" cx="704" cy="-11" rx="57.5" ry="11"/>
<text text-anchor="middle" x="704" y="-8.8" font-family="sans-serif" font-size="9.00">ControlProcess</text>
</g>
<!-- r1&#45;&gt;v15 -->
<g id="edge2" class="edge"><title>r1&#45;&gt;v15</title>
<path fill="none" stroke="black" d="M774,-289.849C774,-271.373 774,-224.889 774,-186 774,-186 774,-186 774,-126 774,-94.6202 771.527,-84.675 755,-58 746.795,-44.7568 733.681,-33.0493 722.805,-24.7597"/>
<polygon fill="black" stroke="black" points="718.61,-21.6436 723.965,-22.8184 720.617,-23.1342 722.624,-24.6248 722.624,-24.6248 722.624,-24.6248 720.617,-23.1342 721.282,-26.4311 718.61,-21.6436 718.61,-21.6436"/>
</g>
<!-- r2 -->
<g id="node3" class="node"><title>r2</title>
<polygon fill="none" stroke="black" stroke-dasharray="5,2" points="827.5,-308 804.5,-308 804.5,-290 827.5,-290 827.5,-308"/>
<text text-anchor="middle" x="816" y="-296.8" font-family="serif" font-size="9.00">2</text>
</g>
<!-- v16 -->
<g id="v16_Database" class="node"><title>v16</title>
<ellipse fill="none" stroke="black" cx="816" cy="-11" rx="36" ry="11"/>
<text text-anchor="middle" x="816" y="-8.8" font-family="sans-serif" font-size="9.00">Database</text>
</g>
<!-- r2&#45;&gt;v16 -->
<g id="edge3" class="edge"><title>r2&#45;&gt;v16</title>
<path fill="none" stroke="black" d="M816,-289.849C816,-271.373 816,-224.889 816,-186 816,-186 816,-186 816,-126 816,-90.6038 816,-49.0257 816,-27.1783"/>
<polygon fill="black" stroke="black" points="816,-22.0648 818.25,-27.0648 816,-24.5648 816,-27.0648 816,-27.0648 816,-27.0648 816,-24.5648 813.75,-27.0648 816,-22.0648 816,-22.0648"/>
</g>
<!-- oa -->
<g id="node4" class="node"><title>oa</title>
<text text-anchor="middle" x="900" y="-296.8" font-family="serif" font-size="9.00">a</text>
</g>
<!-- ob -->
<g id="node5" class="node"><title>ob</title>
<text text-anchor="middle" x="941" y="-296.8" font-family="serif" font-size="9.00">b</text>
</g>
<!-- obusNetwork -->
<g id="node6" class="node"><title>obusNetwork</title>
<text text-anchor="middle" x="222" y="-296.8" font-family="serif" font-size="9.00">busNetwork</text>
</g>
<!-- e2 -->
<g id="node14" class="node"><title>e2</title>
</g>
<!-- obusNetwork&#45;&gt;e2 -->
<g id="edge20" class="edge"><title>obusNetwork&#45;&gt;e2</title>
<path fill="none" stroke="green" d="M222,-289.801C222,-255.842 222,-128 222,-128"/>
</g>
<!-- ocontrol -->
<g id="node7" class="node"><title>ocontrol</title>
<text text-anchor="middle" x="551" y="-296.8" font-family="serif" font-size="9.00">control</text>
</g>
<!-- e3 -->
<g id="node15" class="node"><title>e3</title>
</g>
<!-- ocontrol&#45;&gt;e3 -->
<g id="edge25" class="edge"><title>ocontrol&#45;&gt;e3</title>
<path fill="none" stroke="green" d="M550.711,-289.801C549.512,-255.842 545,-128 545,-128"/>
</g>
<!-- oent -->
<g id="node8" class="node"><title>oent</title>
<text text-anchor="middle" x="714" y="-296.8" font-family="serif" font-size="9.00">ent</text>
</g>
<!-- e4 -->
<g id="node16" class="node"><title>e4</title>
</g>
<!-- oent&#45;&gt;e4 -->
<g id="edge28" class="edge"><title>oent&#45;&gt;e4</title>
<path fill="none" stroke="green" d="M713.807,-289.801C713.008,-255.842 710,-128 710,-128"/>
</g>
<!-- oinstallationBus -->
<g id="node9" class="node"><title>oinstallationBus</title>
<text text-anchor="middle" x="99" y="-296.8" font-family="serif" font-size="9.00">installationBus</text>
</g>
<!-- e5 -->
<g id="node17" class="node"><title>e5</title>
</g>
<!-- oinstallationBus&#45;&gt;e5 -->
<g id="edge31" class="edge"><title>oinstallationBus&#45;&gt;e5</title>
<path fill="none" stroke="green" d="M99,-289.801C99,-255.842 99,-128 99,-128"/>
</g>
<!-- oip_network -->
<g id="node10" class="node"><title>oip_network</title>
<text text-anchor="middle" x="638" y="-296.8" font-family="serif" font-size="9.00">ip_network</text>
</g>
<!-- e6 -->
<g id="node18" class="node"><title>e6</title>
</g>
<!-- oip_network&#45;&gt;e6 -->
<g id="edge36" class="edge"><title>oip_network&#45;&gt;e6</title>
<path fill="none" stroke="green" d="M638.605,-289.885C641.633,-249.27 655,-70 655,-70"/>
</g>
<!-- osecond -->
<g id="node11" class="node"><title>osecond</title>
<text text-anchor="middle" x="442" y="-296.8" font-family="serif" font-size="9.00">second</text>
</g>
<!-- oserver -->
<g id="node12" class="node"><title>oserver</title>
<text text-anchor="middle" x="377" y="-296.8" font-family="serif" font-size="9.00">server</text>
</g>
<!-- e8 -->
<g id="node19" class="node"><title>e8</title>
</g>
<!-- oserver&#45;&gt;e8 -->
<g id="edge41" class="edge"><title>oserver&#45;&gt;e8</title>
<path fill="none" stroke="green" d="M379.99,-289.801C392.375,-255.842 439,-128 439,-128"/>
</g>
<!-- otoilet -->
<g id="node13" class="node"><title>otoilet</title>
<text text-anchor="middle" x="310" y="-296.8" font-family="serif" font-size="9.00">toilet</text>
</g>
<!-- e9 -->
<g id="node20" class="node"><title>e9</title>
</g>
<!-- otoilet&#45;&gt;e9 -->
<g id="edge44" class="edge"><title>otoilet&#45;&gt;e9</title>
<path fill="none" stroke="green" d="M310,-289.562C310,-274.375 310,-244 310,-244"/>
</g>
<!-- v3 -->
<g id="v3_Laptop" class="node"><title>v3</title>
<ellipse fill="none" stroke="black" cx="291" cy="-69" rx="29" ry="11"/>
<text text-anchor="middle" x="291" y="-66.8" font-family="sans-serif" font-size="9.00">Laptop</text>
</g>
<!-- e2&#45;&gt;v3 -->
<g id="edge21" class="edge"><title>e2&#45;&gt;v3</title>
<path fill="none" stroke="green" d="M222,-126C222,-126 260.008,-95.1528 279.606,-79.2473"/>
</g>
<!-- v4 -->
<g id="v4_SmartLight" class="node"><title>v4</title>
<ellipse fill="none" stroke="black" cx="43" cy="-11" rx="43" ry="11"/>
<text text-anchor="middle" x="43" y="-8.8" font-family="sans-serif" font-size="9.00">SmartLight</text>
</g>
<!-- e2&#45;&gt;v4 -->
<g id="edge22" class="edge"><title>e2&#45;&gt;v4</title>
<path fill="none" stroke="green" d="M222,-126C222,-126 100.974,-48.9222 57.9536,-21.5235"/>
</g>
<!-- v10 -->
<g id="v10_HVAC" class="node"><title>v10</title>
<ellipse fill="none" stroke="black" cx="126" cy="-11" rx="21.5" ry="11"/>
<text text-anchor="middle" x="126" y="-8.8" font-family="sans-serif" font-size="9.00">HVAC</text>
</g>
<!-- e2&#45;&gt;v10 -->
<g id="edge23" class="edge"><title>e2&#45;&gt;v10</title>
<path fill="none" stroke="green" d="M222,-126C222,-126 156.784,-48.5556 133.856,-21.3291"/>
</g>
<!-- v11 -->
<g id="v11_FireDetector" class="node"><title>v11</title>
<ellipse fill="none" stroke="black" cx="216" cy="-11" rx="50.5" ry="11"/>
<text text-anchor="middle" x="216" y="-8.8" font-family="sans-serif" font-size="9.00">FireDetector</text>
</g>
<!-- e2&#45;&gt;v11 -->
<g id="edge24" class="edge"><title>e2&#45;&gt;v11</title>
<path fill="none" stroke="green" d="M222,-126C222,-126 218.001,-50.0168 216.532,-22.1167"/>
</g>
<!-- v5 -->
<g id="v5_Hallway" class="node"><title>v5</title>
<ellipse fill="none" stroke="black" cx="483" cy="-11" rx="32.5" ry="11"/>
<text text-anchor="middle" x="483" y="-8.8" font-family="sans-serif" font-size="9.00">Hallway</text>
</g>
<!-- e3&#45;&gt;v5 -->
<g id="edge26" class="edge"><title>e3&#45;&gt;v5</title>
<path fill="none" stroke="green" d="M545,-126C545,-126 503.676,-50.0168 488.502,-22.1167"/>
</g>
<!-- v13 -->
<g id="v13_Room" class="node"><title>v13</title>
<ellipse fill="none" stroke="black" cx="576" cy="-69" rx="21.5" ry="11"/>
<text text-anchor="middle" x="576" y="-66.8" font-family="sans-serif" font-size="9.00">Room</text>
</g>
<!-- e3&#45;&gt;v13 -->
<g id="edge27" class="edge"><title>e3&#45;&gt;v13</title>
<path fill="none" stroke="green" d="M545,-126C545,-126 561.719,-95.7988 570.6,-79.7545"/>
</g>
<!-- e4&#45;&gt;v5 -->
<g id="edge29" class="edge"><title>e4&#45;&gt;v5</title>
<path fill="none" stroke="green" d="M710,-126C710,-126 655.276,-82.9359 606,-58 572.435,-41.0145 531.041,-26.815 505.853,-18.8664"/>
</g>
<!-- v7 -->
<g id="v7_Entrance" class="node"><title>v7</title>
<ellipse fill="none" stroke="black" cx="710" cy="-69" rx="36" ry="11"/>
<text text-anchor="middle" x="710" y="-66.8" font-family="sans-serif" font-size="9.00">Entrance</text>
</g>
<!-- e4&#45;&gt;v7 -->
<g id="edge30" class="edge"><title>e4&#45;&gt;v7</title>
<path fill="none" stroke="green" d="M710,-126C710,-126 710,-96.1193 710,-80.0117"/>
</g>
<!-- e5&#45;&gt;v3 -->
<g id="edge32" class="edge"><title>e5&#45;&gt;v3</title>
<path fill="none" stroke="green" d="M99,-126C99,-126 218.543,-91.1333 268.975,-76.4239"/>
</g>
<!-- e5&#45;&gt;v4 -->
<g id="edge33" class="edge"><title>e5&#45;&gt;v4</title>
<path fill="none" stroke="green" d="M99,-126C99,-126 61.6749,-50.0168 47.9696,-22.1167"/>
</g>
<!-- e5&#45;&gt;v10 -->
<g id="edge34" class="edge"><title>e5&#45;&gt;v10</title>
<path fill="none" stroke="green" d="M99,-126C99,-126 116.996,-50.0168 123.604,-22.1167"/>
</g>
<!-- e5&#45;&gt;v11 -->
<g id="edge35" class="edge"><title>e5&#45;&gt;v11</title>
<path fill="none" stroke="green" d="M99,-126C99,-126 176.983,-50.0168 205.617,-22.1167"/>
</g>
<!-- v14 -->
<g id="v14_Wokrstation" class="node"><title>v14</title>
<ellipse fill="none" stroke="black" cx="581" cy="-11" rx="47" ry="11"/>
<text text-anchor="middle" x="581" y="-8.8" font-family="sans-serif" font-size="9.00">Wokrstation</text>
</g>
<!-- e6&#45;&gt;v14 -->
<g id="edge37" class="edge"><title>e6&#45;&gt;v14</title>
<path fill="none" stroke="green" d="M655,-68C655,-68 615.091,-37.7988 593.89,-21.7545"/>
</g>
<!-- e6&#45;&gt;v15 -->
<g id="edge38" class="edge"><title>e6&#45;&gt;v15</title>
<path fill="none" stroke="green" d="M655,-68C655,-68 681.146,-38.1193 695.24,-22.0117"/>
</g>
<!-- e6&#45;&gt;v16 -->
<g id="edge39" class="edge"><title>e6&#45;&gt;v16</title>
<path fill="none" stroke="green" d="M655,-68C655,-68 659.611,-61.2345 665,-58 686.089,-45.3428 751.842,-27.8198 789.256,-18.4774"/>
</g>
<!-- e8&#45;&gt;v5 -->
<g id="edge42" class="edge"><title>e8&#45;&gt;v5</title>
<path fill="none" stroke="green" d="M439,-126C439,-126 468.327,-50.0168 479.095,-22.1167"/>
</g>
<!-- v9 -->
<g id="v9_Room" class="node"><title>v9</title>
<ellipse fill="none" stroke="black" cx="360" cy="-69" rx="21.5" ry="11"/>
<text text-anchor="middle" x="360" y="-66.8" font-family="sans-serif" font-size="9.00">Room</text>
</g>
<!-- e8&#45;&gt;v9 -->
<g id="edge43" class="edge"><title>e8&#45;&gt;v9</title>
<path fill="none" stroke="green" d="M439,-126C439,-126 393.632,-93.8403 371.657,-78.263"/>
</g>
<!-- v1 -->
<g id="v1_Room" class="node"><title>v1</title>
<ellipse fill="none" stroke="black" cx="291" cy="-185" rx="21.5" ry="11"/>
<text text-anchor="middle" x="291" y="-182.8" font-family="sans-serif" font-size="9.00">Room</text>
</g>
<!-- e9&#45;&gt;v1 -->
<g id="edge45" class="edge"><title>e9&#45;&gt;v1</title>
<path fill="none" stroke="green" d="M310,-242C310,-242 299.862,-212.119 294.397,-196.012"/>
</g>
<!-- e9&#45;&gt;v5 -->
<g id="edge46" class="edge"><title>e9&#45;&gt;v5</title>
<path fill="none" stroke="green" d="M310,-242C310,-242 442.453,-65.9062 475.566,-21.8828"/>
</g>
<!-- v0&#45;&gt;osecond -->
<g id="edge40" class="edge"><title>v0&#45;&gt;osecond</title>
<path fill="none" stroke="green" d="M478.134,-253.654C469.809,-263.871 456.803,-279.833 448.875,-289.562"/>
</g>
<!-- v0&#45;&gt;v1 -->
<g id="edge4" class="edge"><title>v0&#45;&gt;v1</title>
<path fill="none" stroke="black" d="M465.866,-236.218C429.36,-225.734 352.468,-203.652 313.974,-192.598"/>
<polygon fill="black" stroke="black" points="309.028,-191.177 314.455,-190.395 311.431,-191.867 313.834,-192.558 313.834,-192.558 313.834,-192.558 311.431,-191.867 313.213,-194.72 309.028,-191.177 309.028,-191.177"/>
</g>
<!-- v0&#45;&gt;v5 -->
<g id="edge5" class="edge"><title>v0&#45;&gt;v5</title>
<path fill="none" stroke="black" d="M485.867,-231.82C485.391,-195.304 483.766,-70.7575 483.198,-27.194"/>
<polygon fill="black" stroke="black" points="483.131,-22.062 485.446,-27.0322 483.164,-24.5618 483.197,-27.0616 483.197,-27.0616 483.197,-27.0616 483.164,-24.5618 480.947,-27.091 483.131,-22.062 483.131,-22.062"/>
</g>
<!-- v0&#45;&gt;v7 -->
<g id="edge6" class="edge"><title>v0&#45;&gt;v7</title>
<path fill="none" stroke="black" d="M497.728,-232.995C534.89,-204.46 650.125,-115.976 693.374,-82.7663"/>
<polygon fill="black" stroke="black" points="697.569,-79.545 694.974,-84.3748 695.586,-81.0676 693.604,-82.5902 693.604,-82.5902 693.604,-82.5902 695.586,-81.0676 692.233,-80.8056 697.569,-79.545 697.569,-79.545"/>
</g>
<!-- v0&#45;&gt;v9 -->
<g id="edge7" class="edge"><title>v0&#45;&gt;v9</title>
<path fill="none" stroke="black" d="M478.865,-232.26C457.64,-203.287 394.849,-117.572 370.147,-83.8512"/>
<polygon fill="black" stroke="black" points="367.057,-79.6335 371.827,-82.3373 368.534,-81.6502 370.012,-83.667 370.012,-83.667 370.012,-83.667 368.534,-81.6502 368.197,-84.9967 367.057,-79.6335 367.057,-79.6335"/>
</g>
<!-- v0&#45;&gt;v13 -->
<g id="edge8" class="edge"><title>v0&#45;&gt;v13</title>
<path fill="none" stroke="black" d="M493.488,-232.48C507.122,-214.769 536.227,-175.173 554,-138 562.316,-120.607 568.642,-99.2776 572.329,-85.1973"/>
<polygon fill="black" stroke="black" points="573.657,-79.9994 574.6,-85.4007 573.038,-82.4216 572.42,-84.8439 572.42,-84.8439 572.42,-84.8439 573.038,-82.4216 570.24,-84.287 573.657,-79.9994 573.657,-79.9994"/>
</g>
<!-- v2 -->
<g id="v2_Actor" class="node"><title>v2</title>
<ellipse fill="none" stroke="black" cx="291" cy="-127" rx="25" ry="11"/>
<text text-anchor="middle" x="291" y="-124.8" font-family="sans-serif" font-size="9.00">Actor</text>
</g>
<!-- v1&#45;&gt;v2 -->
<g id="edge9" class="edge"><title>v1&#45;&gt;v2</title>
<path fill="none" stroke="black" d="M291,-173.988C291,-165.494 291,-153.17 291,-143.417"/>
<polygon fill="black" stroke="black" points="291,-138.304 293.25,-143.304 291,-140.804 291,-143.304 291,-143.304 291,-143.304 291,-140.804 288.75,-143.304 291,-138.304 291,-138.304"/>
</g>
<!-- v1&#45;&gt;v4 -->
<g id="edge10" class="edge"><title>v1&#45;&gt;v4</title>
<path fill="none" stroke="black" d="M270.247,-181.604C224.532,-175.965 116.978,-160.602 89,-138 54.6691,-110.266 45.9585,-54.5399 43.7496,-27.4674"/>
<polygon fill="black" stroke="black" points="43.3701,-22.1457 45.9702,-26.973 43.548,-24.6394 43.7259,-27.1331 43.7259,-27.1331 43.7259,-27.1331 43.548,-24.6394 41.4816,-27.2932 43.3701,-22.1457 43.3701,-22.1457"/>
</g>
<!-- v2&#45;&gt;v3 -->
<g id="edge11" class="edge"><title>v2&#45;&gt;v3</title>
<path fill="none" stroke="black" d="M291,-115.988C291,-107.494 291,-95.1697 291,-85.4169"/>
<polygon fill="black" stroke="black" points="291,-80.3039 293.25,-85.3038 291,-82.8039 291,-85.3039 291,-85.3039 291,-85.3039 291,-82.8039 288.75,-85.3039 291,-80.3039 291,-80.3039"/>
</g>
<!-- v6 -->
<g id="v6_Malware" class="node"><title>v6</title>
<ellipse fill="none" stroke="black" cx="317" cy="-11" rx="32.5" ry="11"/>
<text text-anchor="middle" x="317" y="-8.8" font-family="sans-serif" font-size="9.00">Malware</text>
</g>
<!-- v3&#45;&gt;v6 -->
<g id="edge12" class="edge"><title>v3&#45;&gt;v6</title>
<path fill="none" stroke="black" d="M295.648,-57.9883C299.715,-49.2286 305.673,-36.3956 310.263,-26.5103"/>
<polygon fill="black" stroke="black" points="312.392,-21.925 312.327,-27.4076 311.339,-24.1925 310.286,-26.4601 310.286,-26.4601 310.286,-26.4601 311.339,-24.1925 308.246,-25.5125 312.392,-21.925 312.392,-21.925"/>
</g>
<!-- v8 -->
<g id="v8_FireDetector" class="node"><title>v8</title>
<ellipse fill="none" stroke="black" cx="921" cy="-11" rx="50.5" ry="11"/>
<text text-anchor="middle" x="921" y="-8.8" font-family="sans-serif" font-size="9.00">FireDetector</text>
</g>
<!-- v7&#45;&gt;v8 -->
<g id="edge13" class="edge"><title>v7&#45;&gt;v8</title>
<path fill="none" stroke="black" d="M735.873,-61.1333C773.624,-51.114 843.897,-32.4633 886.163,-21.2458"/>
<polygon fill="black" stroke="black" points="891.175,-19.9158 886.919,-23.3732 888.758,-20.5571 886.342,-21.1984 886.342,-21.1984 886.342,-21.1984 888.758,-20.5571 885.765,-19.0237 891.175,-19.9158 891.175,-19.9158"/>
</g>
<!-- v8&#45;&gt;oa -->
<g id="edge18" class="edge"><title>v8&#45;&gt;oa</title>
<path fill="none" stroke="green" d="M917.811,-22.2573C911.936,-42.0884 900,-87.1594 900,-126 900,-186 900,-186 900,-186 900,-224.889 900,-271.373 900,-289.849"/>
</g>
<!-- v8&#45;&gt;ob -->
<g id="edge19" class="edge"><title>v8&#45;&gt;ob</title>
<path fill="none" stroke="green" d="M924.038,-22.2681C929.633,-42.1176 941,-87.2187 941,-126 941,-186 941,-186 941,-186 941,-224.889 941,-271.373 941,-289.849"/>
</g>
<!-- v9&#45;&gt;v10 -->
<g id="edge14" class="edge"><title>v9&#45;&gt;v10</title>
<path fill="none" stroke="black" d="M343.042,-62.1685C338.509,-60.709 333.592,-59.2148 329,-58 253.075,-37.9159 231.826,-42.4524 156,-22 153.283,-21.2673 150.452,-20.4271 147.661,-19.552"/>
<polygon fill="black" stroke="black" points="142.714,-17.9545 148.163,-17.3498 145.093,-18.7227 147.472,-19.491 147.472,-19.491 147.472,-19.491 145.093,-18.7227 146.781,-21.6321 142.714,-17.9545 142.714,-17.9545"/>
</g>
<!-- v9&#45;&gt;v11 -->
<g id="edge15" class="edge"><title>v9&#45;&gt;v11</title>
<path fill="none" stroke="black" d="M343.761,-61.6849C319.495,-52.248 273.454,-34.3433 243.776,-22.8017"/>
<polygon fill="black" stroke="black" points="238.797,-20.8654 244.272,-20.5807 241.127,-21.7715 243.457,-22.6777 243.457,-22.6777 243.457,-22.6777 241.127,-21.7715 242.641,-24.7747 238.797,-20.8654 238.797,-20.8654"/>
</g>
<!-- v12 -->
<g id="v12_Servers" class="node"><title>v12</title>
<ellipse fill="none" stroke="black" cx="400" cy="-11" rx="32.5" ry="11"/>
<text text-anchor="middle" x="400" y="-8.8" font-family="sans-serif" font-size="9.00">Servers</text>
</g>
<!-- v9&#45;&gt;v12 -->
<g id="edge16" class="edge"><title>v9&#45;&gt;v12</title>
<path fill="none" stroke="black" d="M366.785,-58.5004C373.105,-49.6537 382.609,-36.3472 389.834,-26.2321"/>
<polygon fill="black" stroke="black" points="392.775,-22.1148 391.7,-27.4913 391.322,-24.1492 389.869,-26.1835 389.869,-26.1835 389.869,-26.1835 391.322,-24.1492 388.038,-24.8757 392.775,-22.1148 392.775,-22.1148"/>
</g>
<!-- v13&#45;&gt;v14 -->
<g id="edge17" class="edge"><title>v13&#45;&gt;v14</title>
<path fill="none" stroke="black" d="M576.894,-57.9883C577.652,-49.4941 578.753,-37.1697 579.623,-27.4169"/>
<polygon fill="black" stroke="black" points="580.08,-22.3039 581.876,-27.4842 579.858,-24.794 579.635,-27.2841 579.635,-27.2841 579.635,-27.2841 579.858,-24.794 577.394,-27.0839 580.08,-22.3039 580.08,-22.3039"/>
</g>
</g>
</svg>
