<?xml version="1.0" encoding="UTF-8" standalone="no"?>
<?xml-stylesheet href="style.css" type="text/css"?>
<!DOCTYPE svg PUBLIC "-//W3C//DTD SVG 1.1//EN"
 "http://www.w3.org/Graphics/SVG/1.1/DTD/svg11.dtd">
<!-- Generated by graphviz version 2.38.0 (20140413.2041)
 -->
<!-- Title: 7.svg Pages: 1 -->
<svg width="1006pt" height="316pt"
 viewBox="0.00 0.00 1005.50 316.00" xmlns="http://www.w3.org/2000/svg" xmlns:xlink="http://www.w3.org/1999/xlink">
<g id="graph0" class="graph" transform="scale(1 1) rotate(0) translate(4 312)">
<title>7.svg</title>
<polygon fill="white" stroke="none" points="-4,4 -4,-312 1001.5,-312 1001.5,4 -4,4"/>
<!-- r0 -->
<g id="node1" class="node"><title>r0</title>
<polygon fill="none" stroke="black" stroke-dasharray="5,2" points="469.5,-308 446.5,-308 446.5,-290 469.5,-290 469.5,-308"/>
<text text-anchor="middle" x="458" y="-296.8" font-family="serif" font-size="9.00">0</text>
</g>
<!-- v0 -->
<g id="v0_Floor" class="node"><title>v0</title>
<ellipse fill="none" stroke="black" cx="512" cy="-243" rx="25" ry="11"/>
<text text-anchor="middle" x="512" y="-240.8" font-family="sans-serif" font-size="9.00">Floor</text>
</g>
<!-- r0&#45;&gt;v0 -->
<g id="edge1" class="edge"><title>r0&#45;&gt;v0</title>
<path fill="none" stroke="black" d="M466.438,-289.562C475.209,-280.791 489.045,-266.955 499.171,-256.829"/>
<polygon fill="black" stroke="black" points="502.717,-253.283 500.773,-258.409 500.949,-255.051 499.182,-256.818 499.182,-256.818 499.182,-256.818 500.949,-255.051 497.591,-255.227 502.717,-253.283 502.717,-253.283"/>
</g>
<!-- r1 -->
<g id="node2" class="node"><title>r1</title>
<polygon fill="none" stroke="black" stroke-dasharray="5,2" points="814.5,-308 791.5,-308 791.5,-290 814.5,-290 814.5,-308"/>
<text text-anchor="middle" x="803" y="-296.8" font-family="serif" font-size="9.00">1</text>
</g>
<!-- v16 -->
<g id="v16_ControlProcess" class="node"><title>v16</title>
<ellipse fill="none" stroke="black" cx="730" cy="-11" rx="57.5" ry="11"/>
<text text-anchor="middle" x="730" y="-8.8" font-family="sans-serif" font-size="9.00">ControlProcess</text>
</g>
<!-- r1&#45;&gt;v16 -->
<g id="edge2" class="edge"><title>r1&#45;&gt;v16</title>
<path fill="none" stroke="black" d="M803,-289.849C803,-271.373 803,-224.889 803,-186 803,-186 803,-186 803,-126 803,-94.6202 800.903,-84.4382 784,-58 775.374,-44.508 761.579,-32.8542 750.092,-24.6521"/>
<polygon fill="black" stroke="black" points="745.978,-21.7895 751.367,-22.7985 748.03,-23.2174 750.082,-24.6454 750.082,-24.6454 750.082,-24.6454 748.03,-23.2174 748.797,-26.4923 745.978,-21.7895 745.978,-21.7895"/>
</g>
<!-- r2 -->
<g id="node3" class="node"><title>r2</title>
<polygon fill="none" stroke="black" stroke-dasharray="5,2" points="855.5,-308 832.5,-308 832.5,-290 855.5,-290 855.5,-308"/>
<text text-anchor="middle" x="844" y="-296.8" font-family="serif" font-size="9.00">2</text>
</g>
<!-- v17 -->
<g id="v17_Database" class="node"><title>v17</title>
<ellipse fill="none" stroke="black" cx="842" cy="-11" rx="36" ry="11"/>
<text text-anchor="middle" x="842" y="-8.8" font-family="sans-serif" font-size="9.00">Database</text>
</g>
<!-- r2&#45;&gt;v17 -->
<g id="edge3" class="edge"><title>r2&#45;&gt;v17</title>
<path fill="none" stroke="black" d="M844,-289.849C844,-271.373 844,-224.889 844,-186 844,-186 844,-186 844,-126 844,-90.5984 843.024,-49.0224 842.436,-27.1768"/>
<polygon fill="black" stroke="black" points="842.295,-22.0638 844.682,-27.0001 842.364,-24.5628 842.432,-27.0619 842.432,-27.0619 842.432,-27.0619 842.364,-24.5628 840.183,-27.1237 842.295,-22.0638 842.295,-22.0638"/>
</g>
<!-- oa -->
<g id="node4" class="node"><title>oa</title>
<text text-anchor="middle" x="926" y="-296.8" font-family="serif" font-size="9.00">a</text>
</g>
<!-- ob -->
<g id="node5" class="node"><title>ob</title>
<text text-anchor="middle" x="967" y="-296.8" font-family="serif" font-size="9.00">b</text>
</g>
<!-- obusNetwork -->
<g id="node6" class="node"><title>obusNetwork</title>
<text text-anchor="middle" x="126" y="-296.8" font-family="serif" font-size="9.00">busNetwork</text>
</g>
<!-- e2 -->
<g id="node14" class="node"><title>e2</title>
</g>
<!-- obusNetwork&#45;&gt;e2 -->
<g id="edge21" class="edge"><title>obusNetwork&#45;&gt;e2</title>
<path fill="none" stroke="green" d="M126,-289.801C126,-255.842 126,-128 126,-128"/>
</g>
<!-- ocontrol -->
<g id="node7" class="node"><title>ocontrol</title>
<text text-anchor="middle" x="580" y="-296.8" font-family="serif" font-size="9.00">control</text>
</g>
<!-- e3 -->
<g id="node15" class="node"><title>e3</title>
</g>
<!-- ocontrol&#45;&gt;e3 -->
<g id="edge26" class="edge"><title>ocontrol&#45;&gt;e3</title>
<path fill="none" stroke="green" d="M579.614,-289.801C578.016,-255.842 572,-128 572,-128"/>
</g>
<!-- oent -->
<g id="node8" class="node"><title>oent</title>
<text text-anchor="middle" x="744" y="-296.8" font-family="serif" font-size="9.00">ent</text>
</g>
<!-- e4 -->
<g id="node16" class="node"><title>e4</title>
</g>
<!-- oent&#45;&gt;e4 -->
<g id="edge29" class="edge"><title>oent&#45;&gt;e4</title>
<path fill="none" stroke="green" d="M743.759,-289.801C742.76,-255.842 739,-128 739,-128"/>
</g>
<!-- oinstallationBus -->
<g id="node9" class="node"><title>oinstallationBus</title>
<text text-anchor="middle" x="252" y="-296.8" font-family="serif" font-size="9.00">installationBus</text>
</g>
<!-- e5 -->
<g id="node17" class="node"><title>e5</title>
</g>
<!-- oinstallationBus&#45;&gt;e5 -->
<g id="edge32" class="edge"><title>oinstallationBus&#45;&gt;e5</title>
<path fill="none" stroke="green" d="M252,-289.801C252,-255.842 252,-128 252,-128"/>
</g>
<!-- oip_network -->
<g id="node10" class="node"><title>oip_network</title>
<text text-anchor="middle" x="668" y="-296.8" font-family="serif" font-size="9.00">ip_network</text>
</g>
<!-- e6 -->
<g id="node18" class="node"><title>e6</title>
</g>
<!-- oip_network&#45;&gt;e6 -->
<g id="edge37" class="edge"><title>oip_network&#45;&gt;e6</title>
<path fill="none" stroke="green" d="M668.569,-289.885C671.42,-249.27 684,-70 684,-70"/>
</g>
<!-- osecond -->
<g id="node11" class="node"><title>osecond</title>
<text text-anchor="middle" x="512" y="-296.8" font-family="serif" font-size="9.00">second</text>
</g>
<!-- oserver -->
<g id="node12" class="node"><title>oserver</title>
<text text-anchor="middle" x="406" y="-296.8" font-family="serif" font-size="9.00">server</text>
</g>
<!-- e8 -->
<g id="node19" class="node"><title>e8</title>
</g>
<!-- oserver&#45;&gt;e8 -->
<g id="edge42" class="edge"><title>oserver&#45;&gt;e8</title>
<path fill="none" stroke="green" d="M410.603,-289.945C425.277,-264.265 470,-186 470,-186"/>
</g>
<!-- otoilet -->
<g id="node13" class="node"><title>otoilet</title>
<text text-anchor="middle" x="340" y="-296.8" font-family="serif" font-size="9.00">toilet</text>
</g>
<!-- e9 -->
<g id="node20" class="node"><title>e9</title>
</g>
<!-- otoilet&#45;&gt;e9 -->
<g id="edge45" class="edge"><title>otoilet&#45;&gt;e9</title>
<path fill="none" stroke="green" d="M340,-289.562C340,-274.375 340,-244 340,-244"/>
</g>
<!-- v2 -->
<g id="v2_SmartLight" class="node"><title>v2</title>
<ellipse fill="none" stroke="black" cx="43" cy="-11" rx="43" ry="11"/>
<text text-anchor="middle" x="43" y="-8.8" font-family="sans-serif" font-size="9.00">SmartLight</text>
</g>
<!-- e2&#45;&gt;v2 -->
<g id="edge22" class="edge"><title>e2&#45;&gt;v2</title>
<path fill="none" stroke="green" d="M126,-126C126,-126 70.6789,-50.0168 50.3657,-22.1167"/>
</g>
<!-- v4 -->
<g id="v4_Laptop" class="node"><title>v4</title>
<ellipse fill="none" stroke="black" cx="170" cy="-69" rx="29" ry="11"/>
<text text-anchor="middle" x="170" y="-66.8" font-family="sans-serif" font-size="9.00">Laptop</text>
</g>
<!-- e2&#45;&gt;v4 -->
<g id="edge23" class="edge"><title>e2&#45;&gt;v4</title>
<path fill="none" stroke="green" d="M126,-126C126,-126 149.729,-95.7988 162.336,-79.7545"/>
</g>
<!-- v7 -->
<g id="v7_HVAC" class="node"><title>v7</title>
<ellipse fill="none" stroke="black" cx="315" cy="-69" rx="21.5" ry="11"/>
<text text-anchor="middle" x="315" y="-66.8" font-family="sans-serif" font-size="9.00">HVAC</text>
</g>
<!-- e2&#45;&gt;v7 -->
<g id="edge24" class="edge"><title>e2&#45;&gt;v7</title>
<path fill="none" stroke="green" d="M126,-126C126,-126 134.307,-119.337 142,-116 195.032,-92.9984 262.328,-79.1379 295.164,-73.2777"/>
</g>
<!-- v12 -->
<g id="v12_FireDetector" class="node"><title>v12</title>
<ellipse fill="none" stroke="black" cx="238" cy="-11" rx="50.5" ry="11"/>
<text text-anchor="middle" x="238" y="-8.8" font-family="sans-serif" font-size="9.00">FireDetector</text>
</g>
<!-- e2&#45;&gt;v12 -->
<g id="edge25" class="edge"><title>e2&#45;&gt;v12</title>
<path fill="none" stroke="green" d="M126,-126C126,-126 114.256,-82.61 132,-58 147.897,-35.9509 176.662,-24.3557 200.22,-18.3252"/>
</g>
<!-- v9 -->
<g id="v9_Hallway" class="node"><title>v9</title>
<ellipse fill="none" stroke="black" cx="509" cy="-11" rx="32.5" ry="11"/>
<text text-anchor="middle" x="509" y="-8.8" font-family="sans-serif" font-size="9.00">Hallway</text>
</g>
<!-- e3&#45;&gt;v9 -->
<g id="edge27" class="edge"><title>e3&#45;&gt;v9</title>
<path fill="none" stroke="green" d="M572,-126C572,-126 530.009,-50.0168 514.591,-22.1167"/>
</g>
<!-- v14 -->
<g id="v14_Room" class="node"><title>v14</title>
<ellipse fill="none" stroke="black" cx="605" cy="-69" rx="21.5" ry="11"/>
<text text-anchor="middle" x="605" y="-66.8" font-family="sans-serif" font-size="9.00">Room</text>
</g>
<!-- e3&#45;&gt;v14 -->
<g id="edge28" class="edge"><title>e3&#45;&gt;v14</title>
<path fill="none" stroke="green" d="M572,-126C572,-126 589.797,-95.7988 599.252,-79.7545"/>
</g>
<!-- e4&#45;&gt;v9 -->
<g id="edge30" class="edge"><title>e4&#45;&gt;v9</title>
<path fill="none" stroke="green" d="M739,-126C739,-126 684.373,-82.7427 635,-58 600.648,-40.785 558.235,-26.6519 532.423,-18.7793"/>
</g>
<!-- v10 -->
<g id="v10_Entrance" class="node"><title>v10</title>
<ellipse fill="none" stroke="black" cx="739" cy="-69" rx="36" ry="11"/>
<text text-anchor="middle" x="739" y="-66.8" font-family="sans-serif" font-size="9.00">Entrance</text>
</g>
<!-- e4&#45;&gt;v10 -->
<g id="edge31" class="edge"><title>e4&#45;&gt;v10</title>
<path fill="none" stroke="green" d="M739,-126C739,-126 739,-96.1193 739,-80.0117"/>
</g>
<!-- e5&#45;&gt;v2 -->
<g id="edge33" class="edge"><title>e5&#45;&gt;v2</title>
<path fill="none" stroke="green" d="M252,-126C252,-126 236.998,-79.3292 208,-58 187.039,-42.582 117.631,-26.7475 75.8072,-18.2707"/>
</g>
<!-- e5&#45;&gt;v4 -->
<g id="edge34" class="edge"><title>e5&#45;&gt;v4</title>
<path fill="none" stroke="green" d="M252,-126C252,-126 206.354,-94.8273 183.175,-78.9974"/>
</g>
<!-- e5&#45;&gt;v7 -->
<g id="edge35" class="edge"><title>e5&#45;&gt;v7</title>
<path fill="none" stroke="green" d="M252,-126C252,-126 287.069,-94.8273 304.878,-78.9974"/>
</g>
<!-- e5&#45;&gt;v12 -->
<g id="edge36" class="edge"><title>e5&#45;&gt;v12</title>
<path fill="none" stroke="green" d="M252,-126C252,-126 242.669,-50.0168 239.242,-22.1167"/>
</g>
<!-- v15 -->
<g id="v15_Wokrstation" class="node"><title>v15</title>
<ellipse fill="none" stroke="black" cx="607" cy="-11" rx="47" ry="11"/>
<text text-anchor="middle" x="607" y="-8.8" font-family="sans-serif" font-size="9.00">Wokrstation</text>
</g>
<!-- e6&#45;&gt;v15 -->
<g id="edge38" class="edge"><title>e6&#45;&gt;v15</title>
<path fill="none" stroke="green" d="M684,-68C684,-68 642.473,-37.7988 620.412,-21.7545"/>
</g>
<!-- e6&#45;&gt;v16 -->
<g id="edge39" class="edge"><title>e6&#45;&gt;v16</title>
<path fill="none" stroke="green" d="M684,-68C684,-68 708.545,-38.1193 721.776,-22.0117"/>
</g>
<!-- e6&#45;&gt;v17 -->
<g id="edge40" class="edge"><title>e6&#45;&gt;v17</title>
<path fill="none" stroke="green" d="M684,-68C684,-68 688.62,-61.2497 694,-58 714.613,-45.5492 778.758,-28.0203 815.481,-18.6021"/>
</g>
<!-- v6 -->
<g id="v6_Room" class="node"><title>v6</title>
<ellipse fill="none" stroke="black" cx="391" cy="-127" rx="21.5" ry="11"/>
<text text-anchor="middle" x="391" y="-124.8" font-family="sans-serif" font-size="9.00">Room</text>
</g>
<!-- e8&#45;&gt;v6 -->
<g id="edge43" class="edge"><title>e8&#45;&gt;v6</title>
<path fill="none" stroke="green" d="M470,-184C470,-184 424.632,-151.84 402.657,-136.263"/>
</g>
<!-- e8&#45;&gt;v9 -->
<g id="edge44" class="edge"><title>e8&#45;&gt;v9</title>
<path fill="none" stroke="green" d="M470,-184C470,-184 498.411,-58.6999 506.735,-21.9909"/>
</g>
<!-- v1 -->
<g id="v1_Room" class="node"><title>v1</title>
<ellipse fill="none" stroke="black" cx="183" cy="-185" rx="21.5" ry="11"/>
<text text-anchor="middle" x="183" y="-182.8" font-family="sans-serif" font-size="9.00">Room</text>
</g>
<!-- e9&#45;&gt;v1 -->
<g id="edge46" class="edge"><title>e9&#45;&gt;v1</title>
<path fill="none" stroke="green" d="M340,-242C340,-242 240.303,-206.439 199.802,-191.993"/>
</g>
<!-- e9&#45;&gt;v9 -->
<g id="edge47" class="edge"><title>e9&#45;&gt;v9</title>
<path fill="none" stroke="green" d="M340,-242C340,-242 386.215,-185.143 421,-138 452.367,-95.4893 487.855,-43.3634 502.326,-21.926"/>
</g>
<!-- v0&#45;&gt;osecond -->
<g id="edge41" class="edge"><title>v0&#45;&gt;osecond</title>
<path fill="none" stroke="green" d="M512,-254.03C512,-264.259 512,-279.952 512,-289.562"/>
</g>
<!-- v0&#45;&gt;v1 -->
<g id="edge4" class="edge"><title>v0&#45;&gt;v1</title>
<path fill="none" stroke="black" d="M489.386,-238.151C429.938,-228.032 269.601,-200.741 207.779,-190.218"/>
<polygon fill="black" stroke="black" points="202.803,-189.371 208.11,-187.992 205.268,-189.79 207.732,-190.21 207.732,-190.21 207.732,-190.21 205.268,-189.79 207.355,-192.428 202.803,-189.371 202.803,-189.371"/>
</g>
<!-- v0&#45;&gt;v6 -->
<g id="edge5" class="edge"><title>v0&#45;&gt;v6</title>
<path fill="none" stroke="black" d="M501.493,-232.998C490.884,-223.84 474.095,-209.162 460,-196 439.999,-177.324 417.55,-154.92 403.844,-141.07"/>
<polygon fill="black" stroke="black" points="400.219,-137.401 405.334,-139.377 401.976,-139.179 403.733,-140.958 403.733,-140.958 403.733,-140.958 401.976,-139.179 402.133,-142.539 400.219,-137.401 400.219,-137.401"/>
</g>
<!-- v0&#45;&gt;v9 -->
<g id="edge6" class="edge"><title>v0&#45;&gt;v9</title>
<path fill="none" stroke="black" d="M511.867,-231.82C511.391,-195.304 509.766,-70.7575 509.198,-27.194"/>
<polygon fill="black" stroke="black" points="509.131,-22.062 511.446,-27.0322 509.164,-24.5618 509.197,-27.0616 509.197,-27.0616 509.197,-27.0616 509.164,-24.5618 506.947,-27.091 509.131,-22.062 509.131,-22.062"/>
</g>
<!-- v0&#45;&gt;v10 -->
<g id="edge7" class="edge"><title>v0&#45;&gt;v10</title>
<path fill="none" stroke="black" d="M523.569,-233.234C560.954,-204.907 678.622,-115.749 722.388,-82.5873"/>
<polygon fill="black" stroke="black" points="726.629,-79.3734 724.003,-84.1865 724.637,-80.8833 722.644,-82.3931 722.644,-82.3931 722.644,-82.3931 724.637,-80.8833 721.285,-80.5998 726.629,-79.3734 726.629,-79.3734"/>
</g>
<!-- v0&#45;&gt;v14 -->
<g id="edge8" class="edge"><title>v0&#45;&gt;v14</title>
<path fill="none" stroke="black" d="M519.514,-232.454C533.213,-214.7 562.533,-175.037 581,-138 589.757,-120.438 596.788,-98.8883 600.924,-84.8185"/>
<polygon fill="black" stroke="black" points="602.314,-79.9945 603.091,-85.4221 601.622,-82.3967 600.929,-84.7989 600.929,-84.7989 600.929,-84.7989 601.622,-82.3967 598.767,-84.1757 602.314,-79.9945 602.314,-79.9945"/>
</g>
<!-- v1&#45;&gt;v2 -->
<g id="edge9" class="edge"><title>v1&#45;&gt;v2</title>
<path fill="none" stroke="black" d="M169.153,-176.404C154.848,-168.14 132.364,-153.959 116,-138 81.8941,-104.739 58.445,-52.1746 48.4433,-26.746"/>
<polygon fill="black" stroke="black" points="46.6231,-22.0359 50.5242,-25.8887 47.5243,-24.3678 48.4255,-26.6997 48.4255,-26.6997 48.4255,-26.6997 47.5243,-24.3678 46.3268,-27.5108 46.6231,-22.0359 46.6231,-22.0359"/>
</g>
<!-- v3 -->
<g id="v3_Actor" class="node"><title>v3</title>
<ellipse fill="none" stroke="black" cx="176" cy="-127" rx="25" ry="11"/>
<text text-anchor="middle" x="176" y="-124.8" font-family="sans-serif" font-size="9.00">Actor</text>
</g>
<!-- v1&#45;&gt;v3 -->
<g id="edge10" class="edge"><title>v1&#45;&gt;v3</title>
<path fill="none" stroke="black" d="M181.749,-173.988C180.687,-165.494 179.146,-153.17 177.927,-143.417"/>
<polygon fill="black" stroke="black" points="177.288,-138.304 180.141,-142.986 177.598,-140.785 177.908,-143.265 177.908,-143.265 177.908,-143.265 177.598,-140.785 175.676,-143.544 177.288,-138.304 177.288,-138.304"/>
</g>
<!-- v3&#45;&gt;v4 -->
<g id="edge11" class="edge"><title>v3&#45;&gt;v4</title>
<path fill="none" stroke="black" d="M174.927,-115.988C174.017,-107.494 172.697,-95.1697 171.652,-85.4169"/>
<polygon fill="black" stroke="black" points="171.104,-80.3039 173.874,-85.0357 171.37,-82.7896 171.637,-85.2754 171.637,-85.2754 171.637,-85.2754 171.37,-82.7896 169.4,-85.5152 171.104,-80.3039 171.104,-80.3039"/>
</g>
<!-- v5 -->
<g id="v5_Malware" class="node"><title>v5</title>
<ellipse fill="none" stroke="black" cx="137" cy="-11" rx="32.5" ry="11"/>
<text text-anchor="middle" x="137" y="-8.8" font-family="sans-serif" font-size="9.00">Malware</text>
</g>
<!-- v4&#45;&gt;v5 -->
<g id="edge12" class="edge"><title>v4&#45;&gt;v5</title>
<path fill="none" stroke="black" d="M164.1,-57.9883C158.891,-49.149 151.238,-36.162 145.392,-26.2414"/>
<polygon fill="black" stroke="black" points="142.849,-21.925 147.326,-25.0904 144.118,-24.0789 145.387,-26.2327 145.387,-26.2327 145.387,-26.2327 144.118,-24.0789 143.449,-27.375 142.849,-21.925 142.849,-21.925"/>
</g>
<!-- v6&#45;&gt;v7 -->
<g id="edge13" class="edge"><title>v6&#45;&gt;v7</title>
<path fill="none" stroke="black" d="M379.457,-117.495C366.512,-107.956 345.434,-92.425 330.926,-81.7353"/>
<polygon fill="black" stroke="black" points="326.651,-78.5852 332.011,-79.7399 328.664,-80.0683 330.677,-81.5513 330.677,-81.5513 330.677,-81.5513 328.664,-80.0683 329.342,-83.3627 326.651,-78.5852 326.651,-78.5852"/>
</g>
<!-- v6&#45;&gt;v12 -->
<g id="edge14" class="edge"><title>v6&#45;&gt;v12</title>
<path fill="none" stroke="black" d="M386.472,-115.902C379.48,-101.327 364.77,-74.351 345,-58 323.995,-40.6277 295.442,-28.796 273.115,-21.4869"/>
<polygon fill="black" stroke="black" points="268.162,-19.9057 273.609,-19.2829 270.543,-20.666 272.925,-21.4264 272.925,-21.4264 272.925,-21.4264 270.543,-20.666 272.241,-23.5698 268.162,-19.9057 268.162,-19.9057"/>
</g>
<!-- v13 -->
<g id="v13_Servers" class="node"><title>v13</title>
<ellipse fill="none" stroke="black" cx="422" cy="-11" rx="32.5" ry="11"/>
<text text-anchor="middle" x="422" y="-8.8" font-family="sans-serif" font-size="9.00">Servers</text>
</g>
<!-- v6&#45;&gt;v13 -->
<g id="edge15" class="edge"><title>v6&#45;&gt;v13</title>
<path fill="none" stroke="black" d="M393.751,-115.883C399.206,-95.8216 411.422,-50.899 417.856,-27.2409"/>
<polygon fill="black" stroke="black" points="419.211,-22.2579 420.07,-27.6732 418.555,-24.6703 417.898,-27.0827 417.898,-27.0827 417.898,-27.0827 418.555,-24.6703 415.727,-26.4923 419.211,-22.2579 419.211,-22.2579"/>
</g>
<!-- v8 -->
<g id="v8_Malware" class="node"><title>v8</title>
<ellipse fill="none" stroke="black" cx="339" cy="-11" rx="32.5" ry="11"/>
<text text-anchor="middle" x="339" y="-8.8" font-family="sans-serif" font-size="9.00">Malware</text>
</g>
<!-- v7&#45;&gt;v8 -->
<g id="edge16" class="edge"><title>v7&#45;&gt;v8</title>
<path fill="none" stroke="black" d="M319.291,-57.9883C323.011,-49.3083 328.445,-36.6286 332.665,-26.7806"/>
<polygon fill="black" stroke="black" points="334.746,-21.925 334.845,-27.4071 333.762,-24.2229 332.777,-26.5207 332.777,-26.5207 332.777,-26.5207 333.762,-24.2229 330.709,-25.6344 334.746,-21.925 334.746,-21.925"/>
</g>
<!-- v11 -->
<g id="v11_FireDetector" class="node"><title>v11</title>
<ellipse fill="none" stroke="black" cx="947" cy="-11" rx="50.5" ry="11"/>
<text text-anchor="middle" x="947" y="-8.8" font-family="sans-serif" font-size="9.00">FireDetector</text>
</g>
<!-- v10&#45;&gt;v11 -->
<g id="edge17" class="edge"><title>v10&#45;&gt;v11</title>
<path fill="none" stroke="black" d="M764.505,-61.1333C801.615,-51.142 870.606,-32.5677 912.308,-21.3403"/>
<polygon fill="black" stroke="black" points="917.254,-20.0086 913.011,-23.4811 914.84,-20.6585 912.426,-21.3085 912.426,-21.3085 912.426,-21.3085 914.84,-20.6585 911.841,-19.1359 917.254,-20.0086 917.254,-20.0086"/>
</g>
<!-- v11&#45;&gt;oa -->
<g id="edge19" class="edge"><title>v11&#45;&gt;oa</title>
<path fill="none" stroke="green" d="M943.811,-22.2573C937.936,-42.0884 926,-87.1594 926,-126 926,-186 926,-186 926,-186 926,-224.889 926,-271.373 926,-289.849"/>
</g>
<!-- v11&#45;&gt;ob -->
<g id="edge20" class="edge"><title>v11&#45;&gt;ob</title>
<path fill="none" stroke="green" d="M950.038,-22.2681C955.633,-42.1176 967,-87.2187 967,-126 967,-186 967,-186 967,-186 967,-224.889 967,-271.373 967,-289.849"/>
</g>
<!-- v14&#45;&gt;v15 -->
<g id="edge18" class="edge"><title>v14&#45;&gt;v15</title>
<path fill="none" stroke="black" d="M605.358,-57.9883C605.661,-49.4941 606.101,-37.1697 606.449,-27.4169"/>
<polygon fill="black" stroke="black" points="606.632,-22.3039 608.702,-27.381 606.543,-24.8023 606.453,-27.3007 606.453,-27.3007 606.453,-27.3007 606.543,-24.8023 604.205,-27.2203 606.632,-22.3039 606.632,-22.3039"/>
</g>
</g>
</svg>
