<?xml version="1.0" encoding="UTF-8" standalone="no"?>
<?xml-stylesheet href="style.css" type="text/css"?>
<!DOCTYPE svg PUBLIC "-//W3C//DTD SVG 1.1//EN"
 "http://www.w3.org/Graphics/SVG/1.1/DTD/svg11.dtd">
<!-- Generated by graphviz version 2.38.0 (20140413.2041)
 -->
<!-- Title: 8.svg Pages: 1 -->
<svg width="980pt" height="316pt"
 viewBox="0.00 0.00 979.50 316.00" xmlns="http://www.w3.org/2000/svg" xmlns:xlink="http://www.w3.org/1999/xlink">
<g id="graph0" class="graph" transform="scale(1 1) rotate(0) translate(4 312)">
<title>8.svg</title>
<polygon fill="white" stroke="none" points="-4,4 -4,-312 975.5,-312 975.5,4 -4,4"/>
<!-- r0 -->
<g id="node1" class="node"><title>r0</title>
<polygon fill="none" stroke="black" stroke-dasharray="5,2" points="447.5,-308 424.5,-308 424.5,-290 447.5,-290 447.5,-308"/>
<text text-anchor="middle" x="436" y="-296.8" font-family="serif" font-size="9.00">0</text>
</g>
<!-- v0 -->
<g id="v0_Floor" class="node"><title>v0</title>
<ellipse fill="none" stroke="black" cx="484" cy="-243" rx="25" ry="11"/>
<text text-anchor="middle" x="484" y="-240.8" font-family="sans-serif" font-size="9.00">Floor</text>
</g>
<!-- r0&#45;&gt;v0 -->
<g id="edge1" class="edge"><title>r0&#45;&gt;v0</title>
<path fill="none" stroke="black" d="M443.5,-289.562C451.135,-280.973 463.088,-267.526 472.033,-257.463"/>
<polygon fill="black" stroke="black" points="475.419,-253.654 473.778,-258.886 473.758,-255.523 472.097,-257.391 472.097,-257.391 472.097,-257.391 473.758,-255.523 470.415,-255.896 475.419,-253.654 475.419,-253.654"/>
</g>
<!-- r1 -->
<g id="node2" class="node"><title>r1</title>
<polygon fill="none" stroke="black" stroke-dasharray="5,2" points="785.5,-308 762.5,-308 762.5,-290 785.5,-290 785.5,-308"/>
<text text-anchor="middle" x="774" y="-296.8" font-family="serif" font-size="9.00">1</text>
</g>
<!-- v15 -->
<g id="v15_ControlProcess" class="node"><title>v15</title>
<ellipse fill="none" stroke="black" cx="704" cy="-11" rx="57.5" ry="11"/>
<text text-anchor="middle" x="704" y="-8.8" font-family="sans-serif" font-size="9.00">ControlProcess</text>
</g>
<!-- r1&#45;&gt;v15 -->
<g id="edge2" class="edge"><title>r1&#45;&gt;v15</title>
<path fill="none" stroke="black" d="M774,-289.849C774,-271.373 774,-224.889 774,-186 774,-186 774,-186 774,-126 774,-94.6202 771.527,-84.675 755,-58 746.795,-44.7568 733.681,-33.0493 722.805,-24.7597"/>
<polygon fill="black" stroke="black" points="718.61,-21.6436 723.965,-22.8184 720.617,-23.1342 722.624,-24.6248 722.624,-24.6248 722.624,-24.6248 720.617,-23.1342 721.282,-26.4311 718.61,-21.6436 718.61,-21.6436"/>
</g>
<!-- r2 -->
<g id="node3" class="node"><title>r2</title>
<polygon fill="none" stroke="black" stroke-dasharray="5,2" points="827.5,-308 804.5,-308 804.5,-290 827.5,-290 827.5,-308"/>
<text text-anchor="middle" x="816" y="-296.8" font-family="serif" font-size="9.00">2</text>
</g>
<!-- v16 -->
<g id="v16_Database" class="node"><title>v16</title>
<ellipse fill="none" stroke="black" cx="816" cy="-11" rx="36" ry="11"/>
<text text-anchor="middle" x="816" y="-8.8" font-family="sans-serif" font-size="9.00">Database</text>
</g>
<!-- r2&#45;&gt;v16 -->
<g id="edge3" class="edge"><title>r2&#45;&gt;v16</title>
<path fill="none" stroke="black" d="M816,-289.849C816,-271.373 816,-224.889 816,-186 816,-186 816,-186 816,-126 816,-90.6038 816,-49.0257 816,-27.1783"/>
<polygon fill="black" stroke="black" points="816,-22.0648 818.25,-27.0648 816,-24.5648 816,-27.0648 816,-27.0648 816,-27.0648 816,-24.5648 813.75,-27.0648 816,-22.0648 816,-22.0648"/>
</g>
<!-- oa -->
<g id="node4" class="node"><title>oa</title>
<text text-anchor="middle" x="900" y="-296.8" font-family="serif" font-size="9.00">a</text>
</g>
<!-- ob -->
<g id="node5" class="node"><title>ob</title>
<text text-anchor="middle" x="941" y="-296.8" font-family="serif" font-size="9.00">b</text>
</g>
<!-- obusNetwork -->
<g id="node6" class="node"><title>obusNetwork</title>
<text text-anchor="middle" x="110" y="-296.8" font-family="serif" font-size="9.00">busNetwork</text>
</g>
<!-- e3 -->
<g id="node15" class="node"><title>e3</title>
</g>
<!-- obusNetwork&#45;&gt;e3 -->
<g id="edge21" class="edge"><title>obusNetwork&#45;&gt;e3</title>
<path fill="none" stroke="green" d="M111.929,-289.801C119.919,-255.842 150,-128 150,-128"/>
</g>
<!-- ocontrol -->
<g id="node7" class="node"><title>ocontrol</title>
<text text-anchor="middle" x="558" y="-296.8" font-family="serif" font-size="9.00">control</text>
</g>
<!-- e4 -->
<g id="node16" class="node"><title>e4</title>
</g>
<!-- ocontrol&#45;&gt;e4 -->
<g id="edge26" class="edge"><title>ocontrol&#45;&gt;e4</title>
<path fill="none" stroke="green" d="M557.518,-289.801C555.52,-255.842 548,-128 548,-128"/>
</g>
<!-- oent -->
<g id="node8" class="node"><title>oent</title>
<text text-anchor="middle" x="715" y="-296.8" font-family="serif" font-size="9.00">ent</text>
</g>
<!-- e5 -->
<g id="node17" class="node"><title>e5</title>
</g>
<!-- oent&#45;&gt;e5 -->
<g id="edge29" class="edge"><title>oent&#45;&gt;e5</title>
<path fill="none" stroke="green" d="M714.759,-289.801C713.76,-255.842 710,-128 710,-128"/>
</g>
<!-- oinstallationBus -->
<g id="node9" class="node"><title>oinstallationBus</title>
<text text-anchor="middle" x="208" y="-296.8" font-family="serif" font-size="9.00">installationBus</text>
</g>
<!-- e6 -->
<g id="node18" class="node"><title>e6</title>
</g>
<!-- oinstallationBus&#45;&gt;e6 -->
<g id="edge32" class="edge"><title>oinstallationBus&#45;&gt;e6</title>
<path fill="none" stroke="green" d="M206.968,-289.885C201.802,-249.27 179,-70 179,-70"/>
</g>
<!-- oip_network -->
<g id="node10" class="node"><title>oip_network</title>
<text text-anchor="middle" x="639" y="-296.8" font-family="serif" font-size="9.00">ip_network</text>
</g>
<!-- e7 -->
<g id="node19" class="node"><title>e7</title>
</g>
<!-- oip_network&#45;&gt;e7 -->
<g id="edge36" class="edge"><title>oip_network&#45;&gt;e7</title>
<path fill="none" stroke="green" d="M639.569,-289.885C642.42,-249.27 655,-70 655,-70"/>
</g>
<!-- osecond -->
<g id="node11" class="node"><title>osecond</title>
<text text-anchor="middle" x="490" y="-296.8" font-family="serif" font-size="9.00">second</text>
</g>
<!-- oserver -->
<g id="node12" class="node"><title>oserver</title>
<text text-anchor="middle" x="384" y="-296.8" font-family="serif" font-size="9.00">server</text>
</g>
<!-- e9 -->
<g id="node20" class="node"><title>e9</title>
</g>
<!-- oserver&#45;&gt;e9 -->
<g id="edge41" class="edge"><title>oserver&#45;&gt;e9</title>
<path fill="none" stroke="green" d="M384.772,-289.801C387.968,-255.842 400,-128 400,-128"/>
</g>
<!-- otoilet -->
<g id="node13" class="node"><title>otoilet</title>
<text text-anchor="middle" x="314" y="-296.8" font-family="serif" font-size="9.00">toilet</text>
</g>
<!-- e10 -->
<g id="node21" class="node"><title>e10</title>
</g>
<!-- otoilet&#45;&gt;e10 -->
<g id="edge44" class="edge"><title>otoilet&#45;&gt;e10</title>
<path fill="none" stroke="green" d="M314,-289.562C314,-274.375 314,-244 314,-244"/>
</g>
<!-- e0 -->
<g id="node14" class="node"><title>e0</title>
</g>
<!-- v4 -->
<g id="v4_Laptop" class="node"><title>v4</title>
<ellipse fill="none" stroke="black" cx="265" cy="-69" rx="29" ry="11"/>
<text text-anchor="middle" x="265" y="-66.8" font-family="sans-serif" font-size="9.00">Laptop</text>
</g>
<!-- e0&#45;&gt;v4 -->
<g id="edge18" class="edge"><title>e0&#45;&gt;v4</title>
<path fill="none" stroke="green" d="M265,-122.167C265,-113.586 265,-92.5957 265,-80.0117"/>
<polygon fill="green" stroke="green" points="268.5,-125.3 261.5,-125.3 261.5,-123.9 268.5,-123.9 268.5,-125.3"/>
<polyline fill="none" stroke="green" points="265,-126 265,-122.5 "/>
</g>
<!-- v2 -->
<g id="v2_SmartLight" class="node"><title>v2</title>
<ellipse fill="none" stroke="black" cx="43" cy="-11" rx="43" ry="11"/>
<text text-anchor="middle" x="43" y="-8.8" font-family="sans-serif" font-size="9.00">SmartLight</text>
</g>
<!-- e3&#45;&gt;v2 -->
<g id="edge22" class="edge"><title>e3&#45;&gt;v2</title>
<path fill="none" stroke="green" d="M150,-126C150,-126 78.6824,-50.0168 52.4955,-22.1167"/>
</g>
<!-- e3&#45;&gt;v4 -->
<g id="edge23" class="edge"><title>e3&#45;&gt;v4</title>
<path fill="none" stroke="green" d="M150,-126C150,-126 216.042,-93.8403 248.031,-78.263"/>
</g>
<!-- v10 -->
<g id="v10_HVAC" class="node"><title>v10</title>
<ellipse fill="none" stroke="black" cx="245" cy="-11" rx="21.5" ry="11"/>
<text text-anchor="middle" x="245" y="-8.8" font-family="sans-serif" font-size="9.00">HVAC</text>
</g>
<!-- e3&#45;&gt;v10 -->
<g id="edge24" class="edge"><title>e3&#45;&gt;v10</title>
<path fill="none" stroke="green" d="M150,-126C150,-126 214.537,-48.5556 237.226,-21.3291"/>
</g>
<!-- v11 -->
<g id="v11_FireDetector" class="node"><title>v11</title>
<ellipse fill="none" stroke="black" cx="155" cy="-11" rx="50.5" ry="11"/>
<text text-anchor="middle" x="155" y="-8.8" font-family="sans-serif" font-size="9.00">FireDetector</text>
</g>
<!-- e3&#45;&gt;v11 -->
<g id="edge25" class="edge"><title>e3&#45;&gt;v11</title>
<path fill="none" stroke="green" d="M150,-126C150,-126 153.333,-50.0168 154.556,-22.1167"/>
</g>
<!-- v5 -->
<g id="v5_Hallway" class="node"><title>v5</title>
<ellipse fill="none" stroke="black" cx="483" cy="-11" rx="32.5" ry="11"/>
<text text-anchor="middle" x="483" y="-8.8" font-family="sans-serif" font-size="9.00">Hallway</text>
</g>
<!-- e4&#45;&gt;v5 -->
<g id="edge27" class="edge"><title>e4&#45;&gt;v5</title>
<path fill="none" stroke="green" d="M548,-126C548,-126 504.676,-50.0168 488.768,-22.1167"/>
</g>
<!-- v13 -->
<g id="v13_Room" class="node"><title>v13</title>
<ellipse fill="none" stroke="black" cx="576" cy="-69" rx="21.5" ry="11"/>
<text text-anchor="middle" x="576" y="-66.8" font-family="sans-serif" font-size="9.00">Room</text>
</g>
<!-- e4&#45;&gt;v13 -->
<g id="edge28" class="edge"><title>e4&#45;&gt;v13</title>
<path fill="none" stroke="green" d="M548,-126C548,-126 563.101,-95.7988 571.123,-79.7545"/>
</g>
<!-- e5&#45;&gt;v5 -->
<g id="edge30" class="edge"><title>e5&#45;&gt;v5</title>
<path fill="none" stroke="green" d="M710,-126C710,-126 655.276,-82.9359 606,-58 572.435,-41.0145 531.041,-26.815 505.853,-18.8664"/>
</g>
<!-- v7 -->
<g id="v7_Entrance" class="node"><title>v7</title>
<ellipse fill="none" stroke="black" cx="710" cy="-69" rx="36" ry="11"/>
<text text-anchor="middle" x="710" y="-66.8" font-family="sans-serif" font-size="9.00">Entrance</text>
</g>
<!-- e5&#45;&gt;v7 -->
<g id="edge31" class="edge"><title>e5&#45;&gt;v7</title>
<path fill="none" stroke="green" d="M710,-126C710,-126 710,-96.1193 710,-80.0117"/>
</g>
<!-- e6&#45;&gt;v2 -->
<g id="edge33" class="edge"><title>e6&#45;&gt;v2</title>
<path fill="none" stroke="green" d="M179,-68C179,-68 102.101,-36.3357 63.952,-20.6273"/>
</g>
<!-- e6&#45;&gt;v10 -->
<g id="edge34" class="edge"><title>e6&#45;&gt;v10</title>
<path fill="none" stroke="green" d="M179,-68C179,-68 216.125,-36.5 234.688,-20.75"/>
</g>
<!-- e6&#45;&gt;v11 -->
<g id="edge35" class="edge"><title>e6&#45;&gt;v11</title>
<path fill="none" stroke="green" d="M179,-68C179,-68 166.194,-38.1193 159.291,-22.0117"/>
</g>
<!-- v14 -->
<g id="v14_Wokrstation" class="node"><title>v14</title>
<ellipse fill="none" stroke="black" cx="581" cy="-11" rx="47" ry="11"/>
<text text-anchor="middle" x="581" y="-8.8" font-family="sans-serif" font-size="9.00">Wokrstation</text>
</g>
<!-- e7&#45;&gt;v14 -->
<g id="edge37" class="edge"><title>e7&#45;&gt;v14</title>
<path fill="none" stroke="green" d="M655,-68C655,-68 615.091,-37.7988 593.89,-21.7545"/>
</g>
<!-- e7&#45;&gt;v15 -->
<g id="edge38" class="edge"><title>e7&#45;&gt;v15</title>
<path fill="none" stroke="green" d="M655,-68C655,-68 681.146,-38.1193 695.24,-22.0117"/>
</g>
<!-- e7&#45;&gt;v16 -->
<g id="edge39" class="edge"><title>e7&#45;&gt;v16</title>
<path fill="none" stroke="green" d="M655,-68C655,-68 659.611,-61.2345 665,-58 686.089,-45.3428 751.842,-27.8198 789.256,-18.4774"/>
</g>
<!-- e9&#45;&gt;v5 -->
<g id="edge42" class="edge"><title>e9&#45;&gt;v5</title>
<path fill="none" stroke="green" d="M400,-126C400,-126 412.097,-84.8236 432,-58 442.8,-43.4452 458.754,-29.9574 469.935,-21.4007"/>
</g>
<!-- v9 -->
<g id="v9_Room" class="node"><title>v9</title>
<ellipse fill="none" stroke="black" cx="358" cy="-69" rx="21.5" ry="11"/>
<text text-anchor="middle" x="358" y="-66.8" font-family="sans-serif" font-size="9.00">Room</text>
</g>
<!-- e9&#45;&gt;v9 -->
<g id="edge43" class="edge"><title>e9&#45;&gt;v9</title>
<path fill="none" stroke="green" d="M400,-126C400,-126 377.108,-95.4767 365.125,-79.4996"/>
</g>
<!-- v1 -->
<g id="v1_Room" class="node"><title>v1</title>
<ellipse fill="none" stroke="black" cx="310" cy="-185" rx="21.5" ry="11"/>
<text text-anchor="middle" x="310" y="-182.8" font-family="sans-serif" font-size="9.00">Room</text>
</g>
<!-- e10&#45;&gt;v1 -->
<g id="edge45" class="edge"><title>e10&#45;&gt;v1</title>
<path fill="none" stroke="green" d="M314,-242C314,-242 311.866,-212.119 310.715,-196.012"/>
</g>
<!-- e10&#45;&gt;v5 -->
<g id="edge46" class="edge"><title>e10&#45;&gt;v5</title>
<path fill="none" stroke="green" d="M314,-242C314,-242 371.834,-188.377 409,-138 438.971,-97.3756 467.062,-43.7723 478.085,-21.916"/>
</g>
<!-- v0&#45;&gt;osecond -->
<g id="edge40" class="edge"><title>v0&#45;&gt;osecond</title>
<path fill="none" stroke="green" d="M485.114,-254.03C486.251,-264.259 487.995,-279.952 489.062,-289.562"/>
</g>
<!-- v0&#45;&gt;v1 -->
<g id="edge4" class="edge"><title>v0&#45;&gt;v1</title>
<path fill="none" stroke="black" d="M464.714,-235.793C432.161,-225.316 366.506,-204.186 332.13,-193.122"/>
<polygon fill="black" stroke="black" points="327.292,-191.565 332.741,-190.955 329.672,-192.331 332.052,-193.097 332.052,-193.097 332.052,-193.097 329.672,-192.331 331.363,-195.239 327.292,-191.565 327.292,-191.565"/>
</g>
<!-- v0&#45;&gt;v5 -->
<g id="edge5" class="edge"><title>v0&#45;&gt;v5</title>
<path fill="none" stroke="black" d="M483.956,-231.82C483.797,-195.304 483.255,-70.7575 483.066,-27.194"/>
<polygon fill="black" stroke="black" points="483.044,-22.062 485.316,-27.0522 483.055,-24.562 483.066,-27.062 483.066,-27.062 483.066,-27.062 483.055,-24.562 480.816,-27.0718 483.044,-22.062 483.044,-22.062"/>
</g>
<!-- v0&#45;&gt;v7 -->
<g id="edge6" class="edge"><title>v0&#45;&gt;v7</title>
<path fill="none" stroke="black" d="M495.518,-233.234C532.738,-204.907 649.888,-115.749 693.461,-82.5873"/>
<polygon fill="black" stroke="black" points="697.684,-79.3734 695.068,-84.192 695.694,-80.8875 693.705,-82.4016 693.705,-82.4016 693.705,-82.4016 695.694,-80.8875 692.342,-80.6111 697.684,-79.3734 697.684,-79.3734"/>
</g>
<!-- v0&#45;&gt;v9 -->
<g id="edge7" class="edge"><title>v0&#45;&gt;v9</title>
<path fill="none" stroke="black" d="M473.88,-232.774C455.408,-215.541 415.762,-176.694 390,-138 378.666,-120.976 369.214,-99.3055 363.589,-85.0611"/>
<polygon fill="black" stroke="black" points="361.694,-80.1715 365.599,-84.0201 362.597,-82.5025 363.501,-84.8334 363.501,-84.8334 363.501,-84.8334 362.597,-82.5025 361.403,-85.6468 361.694,-80.1715 361.694,-80.1715"/>
</g>
<!-- v0&#45;&gt;v13 -->
<g id="edge8" class="edge"><title>v0&#45;&gt;v13</title>
<path fill="none" stroke="black" d="M492.478,-232.38C507.54,-214.82 539.063,-175.881 557,-138 565.151,-120.787 570.407,-99.4191 573.279,-85.2807"/>
<polygon fill="black" stroke="black" points="574.298,-80.0591 575.549,-85.3976 573.819,-82.5128 573.34,-84.9665 573.34,-84.9665 573.34,-84.9665 573.819,-82.5128 571.132,-84.5355 574.298,-80.0591 574.298,-80.0591"/>
</g>
<!-- v1&#45;&gt;v2 -->
<g id="edge9" class="edge"><title>v1&#45;&gt;v2</title>
<path fill="none" stroke="black" d="M289.292,-181.937C255.863,-177.862 188.828,-166.555 140,-138 94.2344,-111.236 62.5448,-53.7181 49.5678,-26.6506"/>
<polygon fill="black" stroke="black" points="47.3633,-21.9652 51.5279,-25.5315 48.4276,-24.2273 49.492,-26.4894 49.492,-26.4894 49.492,-26.4894 48.4276,-24.2273 47.4561,-27.4473 47.3633,-21.9652 47.3633,-21.9652"/>
</g>
<!-- v3 -->
<g id="v3_Actor" class="node"><title>v3</title>
<ellipse fill="none" stroke="black" cx="309" cy="-127" rx="25" ry="11"/>
<text text-anchor="middle" x="309" y="-124.8" font-family="sans-serif" font-size="9.00">Actor</text>
</g>
<!-- v1&#45;&gt;v3 -->
<g id="edge10" class="edge"><title>v1&#45;&gt;v3</title>
<path fill="none" stroke="black" d="M309.821,-173.988C309.67,-165.494 309.449,-153.17 309.275,-143.417"/>
<polygon fill="black" stroke="black" points="309.184,-138.304 311.523,-143.263 309.229,-140.803 309.273,-143.303 309.273,-143.303 309.273,-143.303 309.229,-140.803 307.024,-143.343 309.184,-138.304 309.184,-138.304"/>
</g>
<!-- v3&#45;&gt;v4 -->
<g id="edge11" class="edge"><title>v3&#45;&gt;v4</title>
<path fill="none" stroke="black" d="M301.536,-116.5C294.499,-107.544 283.871,-94.018 275.889,-83.859"/>
<polygon fill="black" stroke="black" points="272.649,-79.7345 277.507,-82.276 274.193,-81.7003 275.738,-83.6661 275.738,-83.6661 275.738,-83.6661 274.193,-81.7003 273.968,-85.0562 272.649,-79.7345 272.649,-79.7345"/>
</g>
<!-- v6 -->
<g id="v6_Malware" class="node"><title>v6</title>
<ellipse fill="none" stroke="black" cx="317" cy="-11" rx="32.5" ry="11"/>
<text text-anchor="middle" x="317" y="-8.8" font-family="sans-serif" font-size="9.00">Malware</text>
</g>
<!-- v4&#45;&gt;v6 -->
<g id="edge12" class="edge"><title>v4&#45;&gt;v6</title>
<path fill="none" stroke="black" d="M273.821,-58.5004C282.212,-49.4645 294.922,-35.7761 304.383,-25.5877"/>
<polygon fill="black" stroke="black" points="307.961,-21.7345 306.207,-26.9295 306.26,-23.5665 304.559,-25.3985 304.559,-25.3985 304.559,-25.3985 306.26,-23.5665 302.91,-23.8674 307.961,-21.7345 307.961,-21.7345"/>
</g>
<!-- v8 -->
<g id="v8_FireDetector" class="node"><title>v8</title>
<ellipse fill="none" stroke="black" cx="921" cy="-11" rx="50.5" ry="11"/>
<text text-anchor="middle" x="921" y="-8.8" font-family="sans-serif" font-size="9.00">FireDetector</text>
</g>
<!-- v7&#45;&gt;v8 -->
<g id="edge13" class="edge"><title>v7&#45;&gt;v8</title>
<path fill="none" stroke="black" d="M735.873,-61.1333C773.624,-51.114 843.897,-32.4633 886.163,-21.2458"/>
<polygon fill="black" stroke="black" points="891.175,-19.9158 886.919,-23.3732 888.758,-20.5571 886.342,-21.1984 886.342,-21.1984 886.342,-21.1984 888.758,-20.5571 885.765,-19.0237 891.175,-19.9158 891.175,-19.9158"/>
</g>
<!-- v8&#45;&gt;oa -->
<g id="edge19" class="edge"><title>v8&#45;&gt;oa</title>
<path fill="none" stroke="green" d="M917.811,-22.2573C911.936,-42.0884 900,-87.1594 900,-126 900,-186 900,-186 900,-186 900,-224.889 900,-271.373 900,-289.849"/>
</g>
<!-- v8&#45;&gt;ob -->
<g id="edge20" class="edge"><title>v8&#45;&gt;ob</title>
<path fill="none" stroke="green" d="M924.038,-22.2681C929.633,-42.1176 941,-87.2187 941,-126 941,-186 941,-186 941,-186 941,-224.889 941,-271.373 941,-289.849"/>
</g>
<!-- v9&#45;&gt;v10 -->
<g id="edge14" class="edge"><title>v9&#45;&gt;v10</title>
<path fill="none" stroke="black" d="M343.227,-60.679C323.009,-50.6593 286.684,-32.6575 264.325,-21.5769"/>
<polygon fill="black" stroke="black" points="259.776,-19.3228 265.256,-19.527 262.016,-20.4329 264.256,-21.5431 264.256,-21.5431 264.256,-21.5431 262.016,-20.4329 263.257,-23.5591 259.776,-19.3228 259.776,-19.3228"/>
</g>
<!-- v9&#45;&gt;v11 -->
<g id="edge15" class="edge"><title>v9&#45;&gt;v11</title>
<path fill="none" stroke="black" d="M339.627,-62.9316C305.608,-53.5469 232.338,-33.3345 189.028,-21.3869"/>
<polygon fill="black" stroke="black" points="184.158,-20.0435 189.576,-19.2042 186.567,-20.7083 188.977,-21.3732 188.977,-21.3732 188.977,-21.3732 186.567,-20.7083 188.379,-23.5422 184.158,-20.0435 184.158,-20.0435"/>
</g>
<!-- v12 -->
<g id="v12_Servers" class="node"><title>v12</title>
<ellipse fill="none" stroke="black" cx="400" cy="-11" rx="32.5" ry="11"/>
<text text-anchor="middle" x="400" y="-8.8" font-family="sans-serif" font-size="9.00">Servers</text>
</g>
<!-- v9&#45;&gt;v12 -->
<g id="edge16" class="edge"><title>v9&#45;&gt;v12</title>
<path fill="none" stroke="black" d="M365.125,-58.5004C371.842,-49.5445 381.987,-36.018 389.606,-25.859"/>
<polygon fill="black" stroke="black" points="392.699,-21.7345 391.499,-27.0845 391.199,-23.7345 389.699,-25.7345 389.699,-25.7345 389.699,-25.7345 391.199,-23.7345 387.899,-24.3845 392.699,-21.7345 392.699,-21.7345"/>
</g>
<!-- v13&#45;&gt;v14 -->
<g id="edge17" class="edge"><title>v13&#45;&gt;v14</title>
<path fill="none" stroke="black" d="M576.894,-57.9883C577.652,-49.4941 578.753,-37.1697 579.623,-27.4169"/>
<polygon fill="black" stroke="black" points="580.08,-22.3039 581.876,-27.4842 579.858,-24.794 579.635,-27.2841 579.635,-27.2841 579.635,-27.2841 579.858,-24.794 577.394,-27.0839 580.08,-22.3039 580.08,-22.3039"/>
</g>
</g>
</svg>
