<?xml version="1.0" encoding="UTF-8" standalone="no"?>
<?xml-stylesheet href="style.css" type="text/css"?>
<!DOCTYPE svg PUBLIC "-//W3C//DTD SVG 1.1//EN"
 "http://www.w3.org/Graphics/SVG/1.1/DTD/svg11.dtd">
<!-- Generated by graphviz version 2.38.0 (20140413.2041)
 -->
<!-- Title: 9.svg Pages: 1 -->
<svg width="1209pt" height="316pt"
 viewBox="0.00 0.00 1209.00 316.00" xmlns="http://www.w3.org/2000/svg" xmlns:xlink="http://www.w3.org/1999/xlink">
<g id="graph0" class="graph" transform="scale(1 1) rotate(0) translate(4 312)">
<title>9.svg</title>
<polygon fill="white" stroke="none" points="-4,4 -4,-312 1205,-312 1205,4 -4,4"/>
<!-- r0 -->
<g id="node1" class="node"><title>r0</title>
<polygon fill="none" stroke="black" stroke-dasharray="5,2" points="672,-308 649,-308 649,-290 672,-290 672,-308"/>
<text text-anchor="middle" x="660.5" y="-296.8" font-family="serif" font-size="9.00">0</text>
</g>
<!-- v0 -->
<g id="v0_Floor" class="node"><title>v0</title>
<ellipse fill="none" stroke="black" cx="627.5" cy="-243" rx="25" ry="11"/>
<text text-anchor="middle" x="627.5" y="-240.8" font-family="sans-serif" font-size="9.00">Floor</text>
</g>
<!-- r0&#45;&gt;v0 -->
<g id="edge1" class="edge"><title>r0&#45;&gt;v0</title>
<path fill="none" stroke="black" d="M655.344,-289.562C650.251,-281.228 642.362,-268.32 636.28,-258.368"/>
<polygon fill="black" stroke="black" points="633.63,-254.03 638.157,-257.124 634.933,-256.164 636.237,-258.297 636.237,-258.297 636.237,-258.297 634.933,-256.164 634.317,-259.47 633.63,-254.03 633.63,-254.03"/>
</g>
<!-- r1 -->
<g id="node2" class="node"><title>r1</title>
<polygon fill="none" stroke="black" stroke-dasharray="5,2" points="69,-308 46,-308 46,-290 69,-290 69,-308"/>
<text text-anchor="middle" x="57.5" y="-296.8" font-family="serif" font-size="9.00">1</text>
</g>
<!-- v16 -->
<g id="v16_ControlProcess" class="node"><title>v16</title>
<ellipse fill="none" stroke="black" cx="57.5" cy="-11" rx="57.5" ry="11"/>
<text text-anchor="middle" x="57.5" y="-8.8" font-family="sans-serif" font-size="9.00">ControlProcess</text>
</g>
<!-- r1&#45;&gt;v16 -->
<g id="edge2" class="edge"><title>r1&#45;&gt;v16</title>
<path fill="none" stroke="black" d="M57.5,-289.849C57.5,-271.373 57.5,-224.889 57.5,-186 57.5,-186 57.5,-186 57.5,-126 57.5,-90.6038 57.5,-49.0257 57.5,-27.1783"/>
<polygon fill="black" stroke="black" points="57.5,-22.0648 59.7501,-27.0648 57.5,-24.5648 57.5001,-27.0648 57.5001,-27.0648 57.5001,-27.0648 57.5,-24.5648 55.2501,-27.0648 57.5,-22.0648 57.5,-22.0648"/>
</g>
<!-- r2 -->
<g id="node3" class="node"><title>r2</title>
<polygon fill="none" stroke="black" stroke-dasharray="5,2" points="209,-308 186,-308 186,-290 209,-290 209,-308"/>
<text text-anchor="middle" x="197.5" y="-296.8" font-family="serif" font-size="9.00">2</text>
</g>
<!-- v17 -->
<g id="v17_Database" class="node"><title>v17</title>
<ellipse fill="none" stroke="black" cx="169.5" cy="-11" rx="36" ry="11"/>
<text text-anchor="middle" x="169.5" y="-8.8" font-family="sans-serif" font-size="9.00">Database</text>
</g>
<!-- r2&#45;&gt;v17 -->
<g id="edge3" class="edge"><title>r2&#45;&gt;v17</title>
<path fill="none" stroke="black" d="M197.5,-289.849C197.5,-271.373 197.5,-224.889 197.5,-186 197.5,-186 197.5,-186 197.5,-126 197.5,-89.586 183.86,-48.4688 175.62,-26.9523"/>
<polygon fill="black" stroke="black" points="173.753,-22.1678 177.667,-26.0072 174.662,-24.4967 175.571,-26.8255 175.571,-26.8255 175.571,-26.8255 174.662,-24.4967 173.475,-27.6438 173.753,-22.1678 173.753,-22.1678"/>
</g>
<!-- oa -->
<g id="node4" class="node"><title>oa</title>
<text text-anchor="middle" x="387.5" y="-296.8" font-family="serif" font-size="9.00">a</text>
</g>
<!-- ob -->
<g id="node5" class="node"><title>ob</title>
<text text-anchor="middle" x="463.5" y="-296.8" font-family="serif" font-size="9.00">b</text>
</g>
<!-- obusNetwork -->
<g id="node6" class="node"><title>obusNetwork</title>
<text text-anchor="middle" x="1115.5" y="-296.8" font-family="serif" font-size="9.00">busNetwork</text>
</g>
<!-- e4 -->
<g id="node16" class="node"><title>e4</title>
</g>
<!-- obusNetwork&#45;&gt;e4 -->
<g id="edge23" class="edge"><title>obusNetwork&#45;&gt;e4</title>
<path fill="none" stroke="green" d="M1115.4,-289.801C1115,-255.842 1113.5,-128 1113.5,-128"/>
</g>
<!-- ocontrol -->
<g id="node7" class="node"><title>ocontrol</title>
<text text-anchor="middle" x="518.5" y="-296.8" font-family="serif" font-size="9.00">control</text>
</g>
<!-- e5 -->
<g id="node17" class="node"><title>e5</title>
</g>
<!-- ocontrol&#45;&gt;e5 -->
<g id="edge27" class="edge"><title>ocontrol&#45;&gt;e5</title>
<path fill="none" stroke="green" d="M517.246,-289.801C512.052,-255.842 492.5,-128 492.5,-128"/>
</g>
<!-- oent -->
<g id="node8" class="node"><title>oent</title>
<text text-anchor="middle" x="803.5" y="-296.8" font-family="serif" font-size="9.00">ent</text>
</g>
<!-- e6 -->
<g id="node18" class="node"><title>e6</title>
</g>
<!-- oent&#45;&gt;e6 -->
<g id="edge30" class="edge"><title>oent&#45;&gt;e6</title>
<path fill="none" stroke="green" d="M802.535,-289.801C798.54,-255.842 783.5,-128 783.5,-128"/>
</g>
<!-- oinstallationBus -->
<g id="node9" class="node"><title>oinstallationBus</title>
<text text-anchor="middle" x="1017.5" y="-296.8" font-family="serif" font-size="9.00">installationBus</text>
</g>
<!-- e7 -->
<g id="node19" class="node"><title>e7</title>
</g>
<!-- oinstallationBus&#45;&gt;e7 -->
<g id="edge33" class="edge"><title>oinstallationBus&#45;&gt;e7</title>
<path fill="none" stroke="green" d="M1017.6,-289.801C1018,-255.842 1019.5,-128 1019.5,-128"/>
</g>
<!-- oip_network -->
<g id="node10" class="node"><title>oip_network</title>
<text text-anchor="middle" x="133.5" y="-296.8" font-family="serif" font-size="9.00">ip_network</text>
</g>
<!-- e8 -->
<g id="node20" class="node"><title>e8</title>
</g>
<!-- oip_network&#45;&gt;e8 -->
<g id="edge37" class="edge"><title>oip_network&#45;&gt;e8</title>
<path fill="none" stroke="green" d="M133.927,-289.885C136.065,-249.27 145.5,-70 145.5,-70"/>
</g>
<!-- osecond -->
<g id="node11" class="node"><title>osecond</title>
<text text-anchor="middle" x="606.5" y="-296.8" font-family="serif" font-size="9.00">second</text>
</g>
<!-- oserver -->
<g id="node12" class="node"><title>oserver</title>
<text text-anchor="middle" x="875.5" y="-296.8" font-family="serif" font-size="9.00">server</text>
</g>
<!-- e10 -->
<g id="node21" class="node"><title>e10</title>
</g>
<!-- oserver&#45;&gt;e10 -->
<g id="edge42" class="edge"><title>oserver&#45;&gt;e10</title>
<path fill="none" stroke="green" d="M875.5,-289.945C875.5,-264.265 875.5,-186 875.5,-186"/>
</g>
<!-- otoilet -->
<g id="node13" class="node"><title>otoilet</title>
<text text-anchor="middle" x="729.5" y="-296.8" font-family="serif" font-size="9.00">toilet</text>
</g>
<!-- e11 -->
<g id="node22" class="node"><title>e11</title>
</g>
<!-- otoilet&#45;&gt;e11 -->
<g id="edge45" class="edge"><title>otoilet&#45;&gt;e11</title>
<path fill="none" stroke="green" d="M729.5,-289.562C729.5,-274.375 729.5,-244 729.5,-244"/>
</g>
<!-- e0 -->
<g id="node14" class="node"><title>e0</title>
</g>
<!-- v4 -->
<g id="v4_Laptop" class="node"><title>v4</title>
<ellipse fill="none" stroke="black" cx="368.5" cy="-69" rx="29" ry="11"/>
<text text-anchor="middle" x="368.5" y="-66.8" font-family="sans-serif" font-size="9.00">Laptop</text>
</g>
<!-- e0&#45;&gt;v4 -->
<g id="edge19" class="edge"><title>e0&#45;&gt;v4</title>
<path fill="none" stroke="green" d="M386.369,-122.667C383.574,-114.429 376.252,-92.8474 371.897,-80.0117"/>
<polygon fill="green" stroke="green" points="390.59,-124.213 383.961,-126.462 383.511,-125.136 390.14,-122.887 390.59,-124.213"/>
<polyline fill="none" stroke="green" points="387.5,-126 386.375,-122.686 "/>
</g>
<!-- e1 -->
<g id="node15" class="node"><title>e1</title>
</g>
<!-- e1&#45;&gt;v4 -->
<g id="edge20" class="edge"><title>e1&#45;&gt;v4</title>
<path fill="none" stroke="green" d="M368.5,-122.167C368.5,-113.586 368.5,-92.5957 368.5,-80.0117"/>
<polygon fill="green" stroke="green" points="372,-125.3 365,-125.3 365,-123.9 372,-123.9 372,-125.3"/>
<polyline fill="none" stroke="green" points="368.5,-126 368.5,-122.5 "/>
</g>
<!-- v2 -->
<g id="v2_SmartLight" class="node"><title>v2</title>
<ellipse fill="none" stroke="black" cx="955.5" cy="-11" rx="43" ry="11"/>
<text text-anchor="middle" x="955.5" y="-8.8" font-family="sans-serif" font-size="9.00">SmartLight</text>
</g>
<!-- e4&#45;&gt;v2 -->
<g id="edge24" class="edge"><title>e4&#45;&gt;v2</title>
<path fill="none" stroke="green" d="M1113.5,-126C1113.5,-126 1086.46,-82.0731 1054.5,-58 1031.64,-40.7822 1001.3,-27.8719 980.265,-20.178"/>
</g>
<!-- v7 -->
<g id="v7_HVAC" class="node"><title>v7</title>
<ellipse fill="none" stroke="black" cx="1024.5" cy="-69" rx="21.5" ry="11"/>
<text text-anchor="middle" x="1024.5" y="-66.8" font-family="sans-serif" font-size="9.00">HVAC</text>
</g>
<!-- e4&#45;&gt;v7 -->
<g id="edge25" class="edge"><title>e4&#45;&gt;v7</title>
<path fill="none" stroke="green" d="M1113.5,-126C1113.5,-126 1061.86,-93.5079 1037.25,-78.0234"/>
</g>
<!-- v12 -->
<g id="v12_FireDetector" class="node"><title>v12</title>
<ellipse fill="none" stroke="black" cx="1150.5" cy="-11" rx="50.5" ry="11"/>
<text text-anchor="middle" x="1150.5" y="-8.8" font-family="sans-serif" font-size="9.00">FireDetector</text>
</g>
<!-- e4&#45;&gt;v12 -->
<g id="edge26" class="edge"><title>e4&#45;&gt;v12</title>
<path fill="none" stroke="green" d="M1113.5,-126C1113.5,-126 1138.16,-50.0168 1147.22,-22.1167"/>
</g>
<!-- v9 -->
<g id="v9_Hallway" class="node"><title>v9</title>
<ellipse fill="none" stroke="black" cx="746.5" cy="-11" rx="32.5" ry="11"/>
<text text-anchor="middle" x="746.5" y="-8.8" font-family="sans-serif" font-size="9.00">Hallway</text>
</g>
<!-- e5&#45;&gt;v9 -->
<g id="edge28" class="edge"><title>e5&#45;&gt;v9</title>
<path fill="none" stroke="green" d="M492.5,-126C492.5,-126 495.303,-78.817 520.5,-58 549.902,-33.7088 660.692,-20.0975 715.461,-14.7225"/>
</g>
<!-- v14 -->
<g id="v14_Room" class="node"><title>v14</title>
<ellipse fill="none" stroke="black" cx="299.5" cy="-69" rx="21.5" ry="11"/>
<text text-anchor="middle" x="299.5" y="-66.8" font-family="sans-serif" font-size="9.00">Room</text>
</g>
<!-- e5&#45;&gt;v14 -->
<g id="edge29" class="edge"><title>e5&#45;&gt;v14</title>
<path fill="none" stroke="green" d="M492.5,-126C492.5,-126 402.127,-101.715 330.5,-80 326.062,-78.6547 321.287,-77.1452 316.845,-75.7147"/>
</g>
<!-- e6&#45;&gt;v9 -->
<g id="edge31" class="edge"><title>e6&#45;&gt;v9</title>
<path fill="none" stroke="green" d="M783.5,-126C783.5,-126 758.839,-50.0168 749.784,-22.1167"/>
</g>
<!-- v10 -->
<g id="v10_Entrance" class="node"><title>v10</title>
<ellipse fill="none" stroke="black" cx="565.5" cy="-69" rx="36" ry="11"/>
<text text-anchor="middle" x="565.5" y="-66.8" font-family="sans-serif" font-size="9.00">Entrance</text>
</g>
<!-- e6&#45;&gt;v10 -->
<g id="edge32" class="edge"><title>e6&#45;&gt;v10</title>
<path fill="none" stroke="green" d="M783.5,-126C783.5,-126 649.777,-91.6492 591.796,-76.7549"/>
</g>
<!-- e7&#45;&gt;v2 -->
<g id="edge34" class="edge"><title>e7&#45;&gt;v2</title>
<path fill="none" stroke="green" d="M1019.5,-126C1019.5,-126 1005.01,-100.472 993.5,-80 981.971,-59.4863 968.559,-35.4441 961.15,-22.1468"/>
</g>
<!-- e7&#45;&gt;v7 -->
<g id="edge35" class="edge"><title>e7&#45;&gt;v7</title>
<path fill="none" stroke="green" d="M1019.5,-126C1019.5,-126 1022.17,-96.1193 1023.61,-80.0117"/>
</g>
<!-- e7&#45;&gt;v12 -->
<g id="edge36" class="edge"><title>e7&#45;&gt;v12</title>
<path fill="none" stroke="green" d="M1019.5,-126C1019.5,-126 1106.81,-50.0168 1138.87,-22.1167"/>
</g>
<!-- v15 -->
<g id="v15_Wokrstation" class="node"><title>v15</title>
<ellipse fill="none" stroke="black" cx="270.5" cy="-11" rx="47" ry="11"/>
<text text-anchor="middle" x="270.5" y="-8.8" font-family="sans-serif" font-size="9.00">Wokrstation</text>
</g>
<!-- e8&#45;&gt;v15 -->
<g id="edge38" class="edge"><title>e8&#45;&gt;v15</title>
<path fill="none" stroke="green" d="M145.5,-68C145.5,-68 215.082,-36.8273 250.417,-20.9974"/>
</g>
<!-- e8&#45;&gt;v16 -->
<g id="edge39" class="edge"><title>e8&#45;&gt;v16</title>
<path fill="none" stroke="green" d="M145.5,-68C145.5,-68 98.041,-37.7988 72.8284,-21.7545"/>
</g>
<!-- e8&#45;&gt;v17 -->
<g id="edge40" class="edge"><title>e8&#45;&gt;v17</title>
<path fill="none" stroke="green" d="M145.5,-68C145.5,-68 158.306,-38.1193 165.209,-22.0117"/>
</g>
<!-- v6 -->
<g id="v6_Room" class="node"><title>v6</title>
<ellipse fill="none" stroke="black" cx="900.5" cy="-127" rx="21.5" ry="11"/>
<text text-anchor="middle" x="900.5" y="-124.8" font-family="sans-serif" font-size="9.00">Room</text>
</g>
<!-- e10&#45;&gt;v6 -->
<g id="edge43" class="edge"><title>e10&#45;&gt;v6</title>
<path fill="none" stroke="green" d="M875.5,-184C875.5,-184 888.84,-154.119 896.031,-138.012"/>
</g>
<!-- e10&#45;&gt;v9 -->
<g id="edge44" class="edge"><title>e10&#45;&gt;v9</title>
<path fill="none" stroke="green" d="M875.5,-184C875.5,-184 781.094,-58.1258 753.805,-21.7403"/>
</g>
<!-- v1 -->
<g id="v1_Room" class="node"><title>v1</title>
<ellipse fill="none" stroke="black" cx="677.5" cy="-185" rx="21.5" ry="11"/>
<text text-anchor="middle" x="677.5" y="-182.8" font-family="sans-serif" font-size="9.00">Room</text>
</g>
<!-- e11&#45;&gt;v1 -->
<g id="edge46" class="edge"><title>e11&#45;&gt;v1</title>
<path fill="none" stroke="green" d="M729.5,-242C729.5,-242 700.856,-211.153 686.087,-195.247"/>
</g>
<!-- e11&#45;&gt;v9 -->
<g id="edge47" class="edge"><title>e11&#45;&gt;v9</title>
<path fill="none" stroke="green" d="M729.5,-242C729.5,-242 742.458,-66.6915 745.748,-22.1796"/>
</g>
<!-- v0&#45;&gt;osecond -->
<g id="edge41" class="edge"><title>v0&#45;&gt;osecond</title>
<path fill="none" stroke="green" d="M623.599,-254.03C619.622,-264.259 613.519,-279.952 609.781,-289.562"/>
</g>
<!-- v0&#45;&gt;v1 -->
<g id="edge4" class="edge"><title>v0&#45;&gt;v1</title>
<path fill="none" stroke="black" d="M635.982,-232.5C644.148,-223.354 656.57,-209.442 665.7,-199.217"/>
<polygon fill="black" stroke="black" points="669.143,-195.359 667.492,-200.588 667.478,-197.224 665.813,-199.089 665.813,-199.089 665.813,-199.089 667.478,-197.224 664.135,-197.591 669.143,-195.359 669.143,-195.359"/>
</g>
<!-- v0&#45;&gt;v6 -->
<g id="edge5" class="edge"><title>v0&#45;&gt;v6</title>
<path fill="none" stroke="black" d="M644.577,-234.869C692.525,-214.847 828.252,-158.169 880.059,-136.536"/>
<polygon fill="black" stroke="black" points="884.804,-134.554 881.058,-138.557 882.498,-135.518 880.191,-136.481 880.191,-136.481 880.191,-136.481 882.498,-135.518 879.324,-134.405 884.804,-134.554 884.804,-134.554"/>
</g>
<!-- v0&#45;&gt;v9 -->
<g id="edge6" class="edge"><title>v0&#45;&gt;v9</title>
<path fill="none" stroke="black" d="M629.371,-232.018C632.111,-218.492 637.846,-193.762 646.5,-174 672.047,-115.66 715.791,-53.3628 735.865,-26.1184"/>
<polygon fill="black" stroke="black" points="738.877,-22.0528 737.708,-27.4098 737.389,-24.0616 735.9,-26.0704 735.9,-26.0704 735.9,-26.0704 737.389,-24.0616 734.093,-24.731 738.877,-22.0528 738.877,-22.0528"/>
</g>
<!-- v0&#45;&gt;v10 -->
<g id="edge7" class="edge"><title>v0&#45;&gt;v10</title>
<path fill="none" stroke="black" d="M623.899,-232.009C613.497,-203.153 583.363,-119.556 570.946,-85.1091"/>
<polygon fill="black" stroke="black" points="569.111,-80.0185 572.924,-83.9592 569.959,-82.3703 570.807,-84.7222 570.807,-84.7222 570.807,-84.7222 569.959,-82.3703 568.69,-85.4852 569.111,-80.0185 569.111,-80.0185"/>
</g>
<!-- v0&#45;&gt;v14 -->
<g id="edge8" class="edge"><title>v0&#45;&gt;v14</title>
<path fill="none" stroke="black" d="M605.918,-237.431C557.941,-226.51 440.23,-195.431 358.5,-138 337.407,-123.178 319.003,-99.2283 308.578,-84.065"/>
<polygon fill="black" stroke="black" points="305.605,-79.6611 310.268,-82.5462 307.004,-81.7331 308.403,-83.8051 308.403,-83.8051 308.403,-83.8051 307.004,-81.7331 306.538,-85.0641 305.605,-79.6611 305.605,-79.6611"/>
</g>
<!-- v1&#45;&gt;v2 -->
<g id="edge9" class="edge"><title>v1&#45;&gt;v2</title>
<path fill="none" stroke="black" d="M695.34,-178.58C718.563,-171.146 760.017,-156.568 792.5,-138 851.99,-103.995 913.726,-50.3214 941.03,-25.4613"/>
<polygon fill="black" stroke="black" points="944.805,-22.0082 942.634,-27.0434 942.96,-23.6958 941.116,-25.3833 941.116,-25.3833 941.116,-25.3833 942.96,-23.6958 939.597,-23.7233 944.805,-22.0082 944.805,-22.0082"/>
</g>
<!-- v3 -->
<g id="v3_Actor" class="node"><title>v3</title>
<ellipse fill="none" stroke="black" cx="536.5" cy="-127" rx="25" ry="11"/>
<text text-anchor="middle" x="536.5" y="-124.8" font-family="sans-serif" font-size="9.00">Actor</text>
</g>
<!-- v1&#45;&gt;v3 -->
<g id="edge10" class="edge"><title>v1&#45;&gt;v3</title>
<path fill="none" stroke="black" d="M661.326,-177.576C636.162,-167.582 587.568,-148.282 558.999,-136.936"/>
<polygon fill="black" stroke="black" points="554.251,-135.05 559.728,-134.804 556.574,-135.973 558.898,-136.896 558.898,-136.896 558.898,-136.896 556.574,-135.973 558.067,-138.987 554.251,-135.05 554.251,-135.05"/>
</g>
<!-- v3&#45;&gt;v4 -->
<g id="edge11" class="edge"><title>v3&#45;&gt;v4</title>
<path fill="none" stroke="black" d="M517.555,-119.685C487.211,-109.57 427.683,-89.7277 393.757,-78.4188"/>
<polygon fill="black" stroke="black" points="388.943,-76.8144 394.398,-76.2611 391.315,-77.605 393.687,-78.3956 393.687,-78.3956 393.687,-78.3956 391.315,-77.605 392.975,-80.5302 388.943,-76.8144 388.943,-76.8144"/>
</g>
<!-- v5 -->
<g id="v5_Malware" class="node"><title>v5</title>
<ellipse fill="none" stroke="black" cx="368.5" cy="-11" rx="32.5" ry="11"/>
<text text-anchor="middle" x="368.5" y="-8.8" font-family="sans-serif" font-size="9.00">Malware</text>
</g>
<!-- v4&#45;&gt;v5 -->
<g id="edge12" class="edge"><title>v4&#45;&gt;v5</title>
<path fill="none" stroke="black" d="M368.5,-57.9883C368.5,-49.4941 368.5,-37.1697 368.5,-27.4169"/>
<polygon fill="black" stroke="black" points="368.5,-22.3039 370.75,-27.3038 368.5,-24.8039 368.5,-27.3039 368.5,-27.3039 368.5,-27.3039 368.5,-24.8039 366.25,-27.3039 368.5,-22.3039 368.5,-22.3039"/>
</g>
<!-- v6&#45;&gt;v7 -->
<g id="edge13" class="edge"><title>v6&#45;&gt;v7</title>
<path fill="none" stroke="black" d="M915.705,-119.133C938.016,-109.057 979.657,-90.2515 1004.45,-79.0557"/>
<polygon fill="black" stroke="black" points="1009.17,-76.9229 1005.54,-81.0314 1006.89,-77.9519 1004.61,-78.9809 1004.61,-78.9809 1004.61,-78.9809 1006.89,-77.9519 1003.69,-76.9303 1009.17,-76.9229 1009.17,-76.9229"/>
</g>
<!-- v6&#45;&gt;v12 -->
<g id="edge14" class="edge"><title>v6&#45;&gt;v12</title>
<path fill="none" stroke="black" d="M910.335,-116.987C926.524,-102.59 960.314,-74.367 993.5,-58 1030.86,-39.5757 1076.94,-27.1646 1109.49,-19.9236"/>
<polygon fill="black" stroke="black" points="1114.59,-18.8057 1110.19,-22.0734 1112.15,-19.3406 1109.71,-19.8755 1109.71,-19.8755 1109.71,-19.8755 1112.15,-19.3406 1109.22,-17.6776 1114.59,-18.8057 1114.59,-18.8057"/>
</g>
<!-- v13 -->
<g id="v13_Servers" class="node"><title>v13</title>
<ellipse fill="none" stroke="black" cx="861.5" cy="-11" rx="32.5" ry="11"/>
<text text-anchor="middle" x="861.5" y="-8.8" font-family="sans-serif" font-size="9.00">Servers</text>
</g>
<!-- v6&#45;&gt;v13 -->
<g id="edge15" class="edge"><title>v6&#45;&gt;v13</title>
<path fill="none" stroke="black" d="M897.039,-115.883C890.176,-95.8216 874.808,-50.899 866.714,-27.2409"/>
<polygon fill="black" stroke="black" points="865.009,-22.2579 868.757,-26.2604 865.819,-24.6234 866.628,-26.9888 866.628,-26.9888 866.628,-26.9888 865.819,-24.6234 864.499,-27.7171 865.009,-22.2579 865.009,-22.2579"/>
</g>
<!-- v8 -->
<g id="v8_Malware" class="node"><title>v8</title>
<ellipse fill="none" stroke="black" cx="1049.5" cy="-11" rx="32.5" ry="11"/>
<text text-anchor="middle" x="1049.5" y="-8.8" font-family="sans-serif" font-size="9.00">Malware</text>
</g>
<!-- v7&#45;&gt;v8 -->
<g id="edge16" class="edge"><title>v7&#45;&gt;v8</title>
<path fill="none" stroke="black" d="M1028.97,-57.9883C1032.88,-49.2286 1038.61,-36.3956 1043.02,-26.5103"/>
<polygon fill="black" stroke="black" points="1045.07,-21.925 1045.09,-27.4079 1044.05,-24.2079 1043.03,-26.4907 1043.03,-26.4907 1043.03,-26.4907 1044.05,-24.2079 1040.98,-25.5735 1045.07,-21.925 1045.07,-21.925"/>
</g>
<!-- v11 -->
<g id="v11_FireDetector" class="node"><title>v11</title>
<ellipse fill="none" stroke="black" cx="469.5" cy="-11" rx="50.5" ry="11"/>
<text text-anchor="middle" x="469.5" y="-8.8" font-family="sans-serif" font-size="9.00">FireDetector</text>
</g>
<!-- v10&#45;&gt;v11 -->
<g id="edge17" class="edge"><title>v10&#45;&gt;v11</title>
<path fill="none" stroke="black" d="M550.076,-59.0026C533.854,-49.5399 508.233,-34.5945 490.248,-24.1027"/>
<polygon fill="black" stroke="black" points="485.85,-21.5373 491.302,-22.1132 488.009,-22.797 490.169,-24.0567 490.169,-24.0567 490.169,-24.0567 488.009,-22.797 489.035,-26.0002 485.85,-21.5373 485.85,-21.5373"/>
</g>
<!-- v11&#45;&gt;oa -->
<g id="edge21" class="edge"><title>v11&#45;&gt;oa</title>
<path fill="none" stroke="green" d="M466.63,-22.0112C453.777,-66.8396 401.63,-248.718 389.866,-289.749"/>
</g>
<!-- v11&#45;&gt;ob -->
<g id="edge22" class="edge"><title>v11&#45;&gt;ob</title>
<path fill="none" stroke="green" d="M468.615,-22.0554C466.946,-41.9084 463.5,-87.551 463.5,-126 463.5,-186 463.5,-186 463.5,-186 463.5,-224.889 463.5,-271.373 463.5,-289.849"/>
</g>
<!-- v14&#45;&gt;v15 -->
<g id="edge18" class="edge"><title>v14&#45;&gt;v15</title>
<path fill="none" stroke="black" d="M294.449,-58.2455C289.93,-49.5202 283.244,-36.6082 278.083,-26.6435"/>
<polygon fill="black" stroke="black" points="275.689,-22.0198 279.986,-25.425 276.838,-24.2397 277.988,-26.4597 277.988,-26.4597 277.988,-26.4597 276.838,-24.2397 275.99,-27.4944 275.689,-22.0198 275.689,-22.0198"/>
</g>
</g>
</svg>
