<?xml version="1.0" encoding="UTF-8" standalone="no"?>

<!DOCTYPE svg PUBLIC "-//W3C//DTD SVG 1.1//EN"
 "http://www.w3.org/Graphics/SVG/1.1/DTD/svg11.dtd">
<!-- Generated by graphviz version 2.38.0 (20140413.2041)
 -->
<!-- Title: transitions.svg Pages: 1 -->
<svg width="220pt" height="552pt"
 viewBox="0.00 0.00 220.00 552.00" xmlns="http://www.w3.org/2000/svg" xmlns:xlink="http://www.w3.org/1999/xlink">
<g id="graph0" class="graph" transform="scale(1 1) rotate(0) translate(4 548)">
<title>transitions.svg</title>
<polygon fill="white" stroke="none" points="-4,4 -4,-548 216,-548 216,4 -4,4"/>
<!-- 0 -->
<g id="s0" class="node"><title>0</title>
<g id="a_s0"><a xlink:href="./0.svg" xlink:title="0">
<ellipse fill="none" stroke="black" stroke-width="2" cx="82.5" cy="-533" rx="21.5" ry="11"/>
<text text-anchor="middle" x="82.5" y="-530.8" font-family="monospace" font-size="9.00">0</text>
</a>
</g>
</g>
<!-- 1 -->
<g id="s1" class="node"><title>1</title>
<g id="a_s1"><a xlink:href="./1.svg" xlink:title="1">
<ellipse fill="none" stroke="black" cx="82.5" cy="-475" rx="21.5" ry="11"/>
<text text-anchor="middle" x="82.5" y="-472.8" font-family="monospace" font-size="9.00">1</text>
</a>
</g>
</g>
<!-- 0&#45;&gt;1 -->
<g id="edge3" class="edge"><title>0&#45;&gt;1</title>
<path fill="none" stroke="black" d="M77.2332,-522.246C75.5789,-513.679 75.3085,-501.076 76.4218,-491.19"/>
<polygon fill="black" stroke="black" points="77.1826,-486.02 78.6806,-491.294 76.8186,-488.493 76.4546,-490.966 76.4546,-490.966 76.4546,-490.966 76.8186,-488.493 74.2285,-490.639 77.1826,-486.02 77.1826,-486.02"/>
</g>
<!-- 8 -->
<g id="s8" class="node"><title>8</title>
<g id="a_s8"><a xlink:href="./8.svg" xlink:title="8">
<ellipse fill="none" stroke="black" cx="57.5" cy="-243" rx="21.5" ry="11"/>
<text text-anchor="middle" x="57.5" y="-240.8" font-family="monospace" font-size="9.00">8</text>
</a>
</g>
</g>
<!-- 3 -->
<g id="s3" class="node"><title>3</title>
<g id="a_s3"><a xlink:href="./3.svg" xlink:title="3">
<ellipse fill="none" stroke="black" cx="82.5" cy="-417" rx="21.5" ry="11"/>
<text text-anchor="middle" x="82.5" y="-414.8" font-family="monospace" font-size="9.00">3</text>
</a>
</g>
</g>
<!-- 8&#45;&gt;3 -->
<g id="edge17" class="edge"><title>8&#45;&gt;3</title>
<path fill="none" stroke="black" d="M54.7647,-254.086C49.3485,-275.835 38.8308,-328.531 51.5,-370 55.2238,-382.189 63.3824,-394.069 70.3952,-402.702"/>
<polygon fill="black" stroke="black" points="73.7214,-406.666 68.7839,-404.282 72.1145,-404.751 70.5076,-402.836 70.5076,-402.836 70.5076,-402.836 72.1145,-404.751 72.2313,-401.39 73.7214,-406.666 73.7214,-406.666"/>
</g>
<!-- 6 -->
<g id="s6" class="node"><title>6</title>
<g id="a_s6"><a xlink:href="./6.svg" xlink:title="6">
<ellipse fill="none" stroke="black" cx="82.5" cy="-301" rx="21.5" ry="11"/>
<text text-anchor="middle" x="82.5" y="-298.8" font-family="monospace" font-size="9.00">6</text>
</a>
</g>
</g>
<!-- 8&#45;&gt;6 -->
<g id="edge18" class="edge"><title>8&#45;&gt;6</title>
<path fill="none" stroke="black" d="M66.7525,-253.183C72.3673,-261.805 78.4962,-274.858 81.858,-284.993"/>
<polygon fill="black" stroke="black" points="83.3464,-289.988 79.7622,-285.839 82.6324,-287.592 81.9185,-285.197 81.9185,-285.197 81.9185,-285.197 82.6324,-287.592 84.0748,-284.554 83.3464,-289.988 83.3464,-289.988"/>
</g>
<!-- 5 -->
<g id="s5" class="node"><title>5</title>
<g id="a_s5"><a xlink:href="./5.svg" xlink:title="5">
<ellipse fill="none" stroke="black" cx="82.5" cy="-359" rx="21.5" ry="11"/>
<text text-anchor="middle" x="82.5" y="-356.8" font-family="monospace" font-size="9.00">5</text>
</a>
</g>
</g>
<!-- 5&#45;&gt;3 -->
<g id="edge28" class="edge"><title>5&#45;&gt;3</title>
<path fill="none" stroke="black" d="M87.8174,-370.02C89.4432,-378.669 89.6852,-391.284 88.5435,-401.114"/>
<polygon fill="black" stroke="black" points="87.7668,-406.246 86.2905,-400.965 88.141,-403.774 88.5151,-401.302 88.5151,-401.302 88.5151,-401.302 88.141,-403.774 90.7398,-401.639 87.7668,-406.246 87.7668,-406.246"/>
</g>
<!-- 5&#45;&gt;6 -->
<g id="edge29" class="edge"><title>5&#45;&gt;6</title>
<path fill="none" stroke="black" d="M82.5,-347.988C82.5,-339.494 82.5,-327.17 82.5,-317.417"/>
<polygon fill="black" stroke="black" points="82.5,-312.304 84.7501,-317.304 82.5,-314.804 82.5001,-317.304 82.5001,-317.304 82.5001,-317.304 82.5,-314.804 80.2501,-317.304 82.5,-312.304 82.5,-312.304"/>
</g>
<!-- 12 -->
<g id="s12" class="node"><title>12</title>
<g id="a_s12"><a xlink:href="./12.svg" xlink:title="12">
<ellipse fill="none" stroke="black" cx="129.5" cy="-69" rx="21.5" ry="11"/>
<text text-anchor="middle" x="129.5" y="-66.8" font-family="monospace" font-size="9.00">12</text>
</a>
</g>
</g>
<!-- 13 -->
<g id="s13" class="node"><title>13</title>
<g id="a_s13"><a xlink:href="./13.svg" xlink:title="13">
<ellipse fill="none" stroke="black" cx="68.5" cy="-11" rx="21.5" ry="11"/>
<text text-anchor="middle" x="68.5" y="-8.8" font-family="monospace" font-size="9.00">13</text>
</a>
</g>
</g>
<!-- 12&#45;&gt;13 -->
<g id="edge22" class="edge"><title>12&#45;&gt;13</title>
<path fill="none" stroke="black" d="M116.173,-60.2134C104.379,-51.3271 88.0094,-36.6244 77.6097,-25.7873"/>
<polygon fill="black" stroke="black" points="74.0679,-21.9875 79.123,-24.1108 75.7725,-23.8162 77.4771,-25.645 77.4771,-25.645 77.4771,-25.645 75.7725,-23.8162 75.8312,-27.1792 74.0679,-21.9875 74.0679,-21.9875"/>
</g>
<!-- 14 -->
<g id="s14" class="node"><title>14</title>
<g id="a_s14"><a xlink:href="./14.svg" xlink:title="14">
<ellipse fill="none" stroke="black" cx="129.5" cy="-11" rx="21.5" ry="11"/>
<text text-anchor="middle" x="129.5" y="-8.8" font-family="monospace" font-size="9.00">14</text>
</a>
</g>
</g>
<!-- 12&#45;&gt;14 -->
<g id="edge23" class="edge"><title>12&#45;&gt;14</title>
<path fill="none" stroke="black" d="M124.233,-58.2455C122.579,-49.6789 122.308,-37.0763 123.422,-27.1899"/>
<polygon fill="black" stroke="black" points="124.183,-22.0198 125.681,-27.2941 123.819,-24.4931 123.455,-26.9665 123.455,-26.9665 123.455,-26.9665 123.819,-24.4931 121.229,-26.6389 124.183,-22.0198 124.183,-22.0198"/>
</g>
<!-- 15 -->
<g id="s15" class="node"><title>15</title>
<g id="a_s15"><a xlink:href="./15.svg" xlink:title="15">
<ellipse fill="none" stroke="black" cx="190.5" cy="-11" rx="21.5" ry="11"/>
<text text-anchor="middle" x="190.5" y="-8.8" font-family="monospace" font-size="9.00">15</text>
</a>
</g>
</g>
<!-- 12&#45;&gt;15 -->
<g id="edge24" class="edge"><title>12&#45;&gt;15</title>
<path fill="none" stroke="black" d="M134.859,-58.2455C143.639,-48.4479 159.98,-33.3712 172.878,-23.1164"/>
<polygon fill="black" stroke="black" points="177.105,-19.8381 174.533,-24.6806 175.129,-21.3704 173.154,-22.9027 173.154,-22.9027 173.154,-22.9027 175.129,-21.3704 171.775,-21.1248 177.105,-19.8381 177.105,-19.8381"/>
</g>
<!-- 9 -->
<g id="s9" class="node"><title>9</title>
<g id="a_s9"><a xlink:href="./9.svg" xlink:title="9">
<ellipse fill="none" stroke="black" cx="123.5" cy="-127" rx="21.5" ry="11"/>
<text text-anchor="middle" x="123.5" y="-124.8" font-family="monospace" font-size="9.00">9</text>
</a>
</g>
</g>
<!-- 12&#45;&gt;9 -->
<g id="edge21" class="edge"><title>12&#45;&gt;9</title>
<path fill="none" stroke="black" d="M133.744,-80.0198C134.449,-88.7487 133.313,-101.518 131.077,-111.386"/>
<polygon fill="black" stroke="black" points="129.812,-116.246 128.894,-110.84 130.442,-113.826 131.072,-111.407 131.072,-111.407 131.072,-111.407 130.442,-113.826 133.249,-111.974 129.812,-116.246 129.812,-116.246"/>
</g>
<!-- 11 -->
<g id="s11" class="node"><title>11</title>
<g id="a_s11"><a xlink:href="./11.svg" xlink:title="11">
<ellipse fill="none" stroke="black" cx="68.5" cy="-69" rx="21.5" ry="11"/>
<text text-anchor="middle" x="68.5" y="-66.8" font-family="monospace" font-size="9.00">11</text>
</a>
</g>
</g>
<!-- 7 -->
<g id="s7" class="node"><title>7</title>
<g id="a_s7"><a xlink:href="./7.svg" xlink:title="7">
<ellipse fill="none" stroke="black" cx="118.5" cy="-243" rx="21.5" ry="11"/>
<text text-anchor="middle" x="118.5" y="-240.8" font-family="monospace" font-size="9.00">7</text>
</a>
</g>
</g>
<!-- 11&#45;&gt;7 -->
<g id="edge20" class="edge"><title>11&#45;&gt;7</title>
<path fill="none" stroke="black" d="M68.6873,-80.1703C69.3934,-102.082 72.7372,-155.076 88.5,-196 93.0354,-207.775 100.899,-219.669 107.438,-228.412"/>
<polygon fill="black" stroke="black" points="110.521,-232.437 105.694,-229.836 109.001,-230.452 107.48,-228.468 107.48,-228.468 107.48,-228.468 109.001,-230.452 109.266,-227.099 110.521,-232.437 110.521,-232.437"/>
</g>
<!-- 11&#45;&gt;9 -->
<g id="edge19" class="edge"><title>11&#45;&gt;9</title>
<path fill="none" stroke="black" d="M81.3848,-78.1092C92.1003,-86.9525 106.502,-101.269 115.642,-111.949"/>
<polygon fill="black" stroke="black" points="118.983,-115.988 114.062,-113.569 117.39,-114.062 115.796,-112.135 115.796,-112.135 115.796,-112.135 117.39,-114.062 117.53,-110.701 118.983,-115.988 118.983,-115.988"/>
</g>
<!-- 10 -->
<g id="s10" class="node"><title>10</title>
<g id="a_s10"><a xlink:href="./10.svg" xlink:title="10">
<ellipse fill="none" stroke="black" cx="118.5" cy="-185" rx="21.5" ry="11"/>
<text text-anchor="middle" x="118.5" y="-182.8" font-family="monospace" font-size="9.00">10</text>
</a>
</g>
</g>
<!-- 10&#45;&gt;7 -->
<g id="edge27" class="edge"><title>10&#45;&gt;7</title>
<path fill="none" stroke="black" d="M123.817,-196.02C125.443,-204.669 125.685,-217.284 124.543,-227.114"/>
<polygon fill="black" stroke="black" points="123.767,-232.246 122.29,-226.965 124.141,-229.774 124.515,-227.302 124.515,-227.302 124.515,-227.302 124.141,-229.774 126.74,-227.639 123.767,-232.246 123.767,-232.246"/>
</g>
<!-- 10&#45;&gt;9 -->
<g id="edge26" class="edge"><title>10&#45;&gt;9</title>
<path fill="none" stroke="black" d="M119.394,-173.988C120.152,-165.494 121.253,-153.17 122.123,-143.417"/>
<polygon fill="black" stroke="black" points="122.58,-138.304 124.376,-143.484 122.358,-140.794 122.135,-143.284 122.135,-143.284 122.135,-143.284 122.358,-140.794 119.894,-143.084 122.58,-138.304 122.58,-138.304"/>
</g>
<!-- 2 -->
<g id="s2" class="node"><title>2</title>
<g id="a_s2"><a xlink:href="./2.svg" xlink:title="2">
<ellipse fill="none" stroke="black" cx="21.5" cy="-417" rx="21.5" ry="11"/>
<text text-anchor="middle" x="21.5" y="-414.8" font-family="monospace" font-size="9.00">2</text>
</a>
</g>
</g>
<!-- 2&#45;&gt;1 -->
<g id="edge1" class="edge"><title>2&#45;&gt;1</title>
<path fill="none" stroke="black" d="M34.8952,-425.838C46.7706,-434.795 63.2511,-449.613 73.6184,-460.451"/>
<polygon fill="black" stroke="black" points="77.1415,-464.246 72.0906,-462.112 75.4405,-462.413 73.7395,-460.581 73.7395,-460.581 73.7395,-460.581 75.4405,-462.413 75.3884,-459.05 77.1415,-464.246 77.1415,-464.246"/>
</g>
<!-- 3&#45;&gt;5 -->
<g id="edge31" class="edge"><title>3&#45;&gt;5</title>
<path fill="none" stroke="black" d="M77.2332,-406.246C75.5789,-397.679 75.3085,-385.076 76.4218,-375.19"/>
<polygon fill="black" stroke="black" points="77.1826,-370.02 78.6806,-375.294 76.8186,-372.493 76.4546,-374.966 76.4546,-374.966 76.4546,-374.966 76.8186,-372.493 74.2285,-374.639 77.1826,-370.02 77.1826,-370.02"/>
</g>
<!-- 3&#45;&gt;1 -->
<g id="edge30" class="edge"><title>3&#45;&gt;1</title>
<path fill="none" stroke="black" d="M87.8174,-428.02C89.4432,-436.669 89.6852,-449.284 88.5435,-459.114"/>
<polygon fill="black" stroke="black" points="87.7668,-464.246 86.2905,-458.965 88.141,-461.774 88.5151,-459.302 88.5151,-459.302 88.5151,-459.302 88.141,-461.774 90.7398,-459.639 87.7668,-464.246 87.7668,-464.246"/>
</g>
<!-- 4 -->
<g id="s4" class="node"><title>4</title>
<g id="a_s4"><a xlink:href="./4.svg" xlink:title="4">
<ellipse fill="none" stroke="black" cx="143.5" cy="-417" rx="21.5" ry="11"/>
<text text-anchor="middle" x="143.5" y="-414.8" font-family="monospace" font-size="9.00">4</text>
</a>
</g>
</g>
<!-- 4&#45;&gt;1 -->
<g id="edge8" class="edge"><title>4&#45;&gt;1</title>
<path fill="none" stroke="black" d="M137.932,-427.987C129.081,-437.815 112.836,-452.785 100.024,-462.961"/>
<polygon fill="black" stroke="black" points="95.8268,-466.213 98.4009,-461.372 97.8029,-464.682 99.7791,-463.151 99.7791,-463.151 99.7791,-463.151 97.8029,-464.682 101.157,-464.929 95.8268,-466.213 95.8268,-466.213"/>
</g>
<!-- 7&#45;&gt;10 -->
<g id="edge16" class="edge"><title>7&#45;&gt;10</title>
<path fill="none" stroke="black" d="M113.233,-232.246C111.579,-223.679 111.308,-211.076 112.422,-201.19"/>
<polygon fill="black" stroke="black" points="113.183,-196.02 114.681,-201.294 112.819,-198.493 112.455,-200.966 112.455,-200.966 112.455,-200.966 112.819,-198.493 110.229,-200.639 113.183,-196.02 113.183,-196.02"/>
</g>
<!-- 7&#45;&gt;9 -->
<g id="edge15" class="edge"><title>7&#45;&gt;9</title>
<path fill="none" stroke="black" d="M127.279,-232.666C134.829,-223.949 145.167,-210.184 149.5,-196 155.339,-176.887 144.045,-155.441 134.556,-141.837"/>
<polygon fill="black" stroke="black" points="131.434,-137.539 136.193,-140.262 132.903,-139.562 134.373,-141.585 134.373,-141.585 134.373,-141.585 132.903,-139.562 132.552,-142.907 131.434,-137.539 131.434,-137.539"/>
</g>
<!-- 13&#45;&gt;12 -->
<g id="edge2" class="edge"><title>13&#45;&gt;12</title>
<path fill="none" stroke="black" d="M81.8952,-19.8381C93.7706,-28.7952 110.251,-43.6126 120.618,-54.4508"/>
<polygon fill="black" stroke="black" points="124.141,-58.2455 119.091,-56.1121 122.44,-56.4134 120.739,-54.5813 120.739,-54.5813 120.739,-54.5813 122.44,-56.4134 122.388,-53.0504 124.141,-58.2455 124.141,-58.2455"/>
</g>
<!-- 14&#45;&gt;12 -->
<g id="edge25" class="edge"><title>14&#45;&gt;12</title>
<path fill="none" stroke="black" d="M134.817,-22.0198C136.443,-30.6686 136.685,-43.2841 135.543,-53.114"/>
<polygon fill="black" stroke="black" points="134.767,-58.2455 133.29,-52.9651 135.141,-55.7737 135.515,-53.3018 135.515,-53.3018 135.515,-53.3018 135.141,-55.7737 137.74,-53.6386 134.767,-58.2455 134.767,-58.2455"/>
</g>
<!-- 15&#45;&gt;12 -->
<g id="edge12" class="edge"><title>15&#45;&gt;12</title>
<path fill="none" stroke="black" d="M184.932,-21.9875C176.081,-31.8146 159.836,-46.7853 147.024,-56.9608"/>
<polygon fill="black" stroke="black" points="142.827,-60.2134 145.401,-55.3723 144.803,-58.6822 146.779,-57.1509 146.779,-57.1509 146.779,-57.1509 144.803,-58.6822 148.157,-58.9294 142.827,-60.2134 142.827,-60.2134"/>
</g>
<!-- 9&#45;&gt;12 -->
<g id="edge14" class="edge"><title>9&#45;&gt;12</title>
<path fill="none" stroke="black" d="M119.257,-115.988C118.545,-107.201 119.702,-94.3149 121.968,-84.4172"/>
<polygon fill="black" stroke="black" points="123.249,-79.5512 124.151,-84.9595 122.613,-81.9687 121.976,-84.3862 121.976,-84.3862 121.976,-84.3862 122.613,-81.9687 119.8,-83.813 123.249,-79.5512 123.249,-79.5512"/>
</g>
<!-- 9&#45;&gt;11 -->
<g id="edge13" class="edge"><title>9&#45;&gt;11</title>
<path fill="none" stroke="black" d="M110.719,-117.977C99.9593,-109.112 85.4367,-94.6751 76.2714,-83.9499"/>
<polygon fill="black" stroke="black" points="72.926,-79.8968 77.8441,-82.3207 74.5174,-81.8249 76.1088,-83.753 76.1088,-83.753 76.1088,-83.753 74.5174,-81.8249 74.3735,-85.1853 72.926,-79.8968 72.926,-79.8968"/>
</g>
<!-- 1&#45;&gt;0 -->
<g id="edge4" class="edge"><title>1&#45;&gt;0</title>
<path fill="none" stroke="black" d="M87.8174,-486.02C89.4432,-494.669 89.6852,-507.284 88.5435,-517.114"/>
<polygon fill="black" stroke="black" points="87.7668,-522.246 86.2905,-516.965 88.141,-519.774 88.5151,-517.302 88.5151,-517.302 88.5151,-517.302 88.141,-519.774 90.7398,-517.639 87.7668,-522.246 87.7668,-522.246"/>
</g>
<!-- 1&#45;&gt;2 -->
<g id="edge5" class="edge"><title>1&#45;&gt;2</title>
<path fill="none" stroke="black" d="M69.1732,-466.213C57.3794,-457.327 41.0094,-442.624 30.6097,-431.787"/>
<polygon fill="black" stroke="black" points="27.0679,-427.987 32.123,-430.111 28.7725,-429.816 30.4771,-431.645 30.4771,-431.645 30.4771,-431.645 28.7725,-429.816 28.8312,-433.179 27.0679,-427.987 27.0679,-427.987"/>
</g>
<!-- 1&#45;&gt;3 -->
<g id="edge6" class="edge"><title>1&#45;&gt;3</title>
<path fill="none" stroke="black" d="M77.2332,-464.246C75.5789,-455.679 75.3085,-443.076 76.4218,-433.19"/>
<polygon fill="black" stroke="black" points="77.1826,-428.02 78.6806,-433.294 76.8186,-430.493 76.4546,-432.966 76.4546,-432.966 76.4546,-432.966 76.8186,-430.493 74.2285,-432.639 77.1826,-428.02 77.1826,-428.02"/>
</g>
<!-- 1&#45;&gt;4 -->
<g id="edge7" class="edge"><title>1&#45;&gt;4</title>
<path fill="none" stroke="black" d="M87.8585,-464.246C96.639,-454.448 112.98,-439.371 125.878,-429.116"/>
<polygon fill="black" stroke="black" points="130.105,-425.838 127.533,-430.681 128.129,-427.37 126.154,-428.903 126.154,-428.903 126.154,-428.903 128.129,-427.37 124.775,-427.125 130.105,-425.838 130.105,-425.838"/>
</g>
<!-- 6&#45;&gt;8 -->
<g id="edge11" class="edge"><title>6&#45;&gt;8</title>
<path fill="none" stroke="black" d="M73.3685,-291.003C67.7793,-282.472 61.6559,-269.486 58.2479,-259.324"/>
<polygon fill="black" stroke="black" points="56.7304,-254.306 60.3314,-258.441 57.4541,-256.699 58.1777,-259.092 58.1777,-259.092 58.1777,-259.092 57.4541,-256.699 56.024,-259.743 56.7304,-254.306 56.7304,-254.306"/>
</g>
<!-- 6&#45;&gt;3 -->
<g id="edge9" class="edge"><title>6&#45;&gt;3</title>
<path fill="none" stroke="black" d="M91.2786,-311.334C98.8288,-320.051 109.167,-333.816 113.5,-348 116.357,-357.351 116.357,-360.649 113.5,-370 109.776,-382.189 101.618,-394.069 94.6048,-402.702"/>
<polygon fill="black" stroke="black" points="91.2786,-406.666 92.7687,-401.39 92.8855,-404.751 94.4924,-402.836 94.4924,-402.836 94.4924,-402.836 92.8855,-404.751 96.2161,-404.282 91.2786,-406.666 91.2786,-406.666"/>
</g>
<!-- 6&#45;&gt;7 -->
<g id="edge10" class="edge"><title>6&#45;&gt;7</title>
<path fill="none" stroke="black" d="M88.7707,-290.246C94.5007,-281.332 103.039,-268.05 109.498,-258.003"/>
<polygon fill="black" stroke="black" points="112.301,-253.643 111.49,-259.065 110.949,-255.746 109.597,-257.849 109.597,-257.849 109.597,-257.849 110.949,-255.746 107.705,-256.632 112.301,-253.643 112.301,-253.643"/>
</g>
</g>
</svg>
