<?xml version="1.0" encoding="UTF-8" standalone="no"?>
<?xml-stylesheet href="style.css" type="text/css"?>
<!DOCTYPE svg PUBLIC "-//W3C//DTD SVG 1.1//EN"
 "http://www.w3.org/Graphics/SVG/1.1/DTD/svg11.dtd">
<!-- Generated by graphviz version 2.38.0 (20140413.2041)
 -->
<!-- Title: 24.svg Pages: 1 -->
<svg width="1030pt" height="316pt"
 viewBox="0.00 0.00 1029.50 316.00" xmlns="http://www.w3.org/2000/svg" xmlns:xlink="http://www.w3.org/1999/xlink">
<g id="graph0" class="graph" transform="scale(1 1) rotate(0) translate(4 312)">
<title>24.svg</title>
<polygon fill="white" stroke="none" points="-4,4 -4,-312 1025.5,-312 1025.5,4 -4,4"/>
<!-- r0 -->
<g id="node1" class="node"><title>r0</title>
<polygon fill="none" stroke="black" stroke-dasharray="5,2" points="603,-308 580,-308 580,-290 603,-290 603,-308"/>
<text text-anchor="middle" x="591.5" y="-296.8" font-family="serif" font-size="9.00">0</text>
</g>
<!-- v0 -->
<g id="v0_H" class="node"><title>v0</title>
<ellipse fill="none" stroke="black" cx="591.5" cy="-243" rx="11" ry="11"/>
<text text-anchor="middle" x="591.5" y="-240.8" font-family="sans-serif" font-size="9.00">H</text>
</g>
<!-- r0&#45;&gt;v0 -->
<g id="edge1" class="edge"><title>r0&#45;&gt;v0</title>
<path fill="none" stroke="black" d="M591.5,-289.562C591.5,-281.453 591.5,-269.014 591.5,-259.181"/>
<polygon fill="black" stroke="black" points="591.5,-254.03 593.75,-259.03 591.5,-256.53 591.5,-259.03 591.5,-259.03 591.5,-259.03 591.5,-256.53 589.25,-259.03 591.5,-254.03 591.5,-254.03"/>
</g>
<!-- odb -->
<g id="node2" class="node"><title>odb</title>
<text text-anchor="middle" x="731.5" y="-296.8" font-family="serif" font-size="9.00">db</text>
</g>
<!-- e8 -->
<g id="node11" class="node"><title>e8</title>
</g>
<!-- odb&#45;&gt;e8 -->
<g id="edge36" class="edge"><title>odb&#45;&gt;e8</title>
<path fill="none" stroke="green" d="M731.5,-289.562C731.5,-274.375 731.5,-244 731.5,-244"/>
</g>
<!-- e0 -->
<g id="node3" class="node"><title>e0</title>
</g>
<!-- v2 -->
<g id="v2_Record" class="node"><title>v2</title>
<ellipse fill="none" stroke="black" cx="95.5" cy="-127" rx="29" ry="11"/>
<text text-anchor="middle" x="95.5" y="-124.8" font-family="sans-serif" font-size="9.00">Record</text>
</g>
<!-- e0&#45;&gt;v2 -->
<g id="edge26" class="edge"><title>e0&#45;&gt;v2</title>
<path fill="none" stroke="green" d="M95.5,-180.167C95.5,-171.586 95.5,-150.596 95.5,-138.012"/>
<polygon fill="green" stroke="green" points="99,-183.3 92,-183.3 92.0001,-181.9 99.0001,-181.9 99,-183.3"/>
<polyline fill="none" stroke="green" points="95.5,-184 95.5001,-180.5 "/>
</g>
<!-- e1 -->
<g id="node4" class="node"><title>e1</title>
</g>
<!-- v5 -->
<g id="v5_Doc" class="node"><title>v5</title>
<ellipse fill="none" stroke="black" cx="567.5" cy="-69" rx="18" ry="11"/>
<text text-anchor="middle" x="567.5" y="-66.8" font-family="sans-serif" font-size="9.00">Doc</text>
</g>
<!-- e1&#45;&gt;v5 -->
<g id="edge27" class="edge"><title>e1&#45;&gt;v5</title>
<path fill="none" stroke="green" d="M563.774,-122.167C564.387,-113.586 565.886,-92.5957 566.785,-80.0117"/>
<polygon fill="green" stroke="green" points="567.041,-125.551 560.059,-125.052 560.159,-123.656 567.141,-124.155 567.041,-125.551"/>
<polyline fill="none" stroke="green" points="563.5,-126 563.749,-122.509 "/>
</g>
<!-- e2 -->
<g id="node5" class="node"><title>e2</title>
</g>
<!-- v6 -->
<g id="v6_Ref&#39;" class="node"><title>v6</title>
<ellipse fill="none" stroke="black" cx="607.5" cy="-11" rx="21.5" ry="11"/>
<text text-anchor="middle" x="607.5" y="-8.8" font-family="sans-serif" font-size="9.00">Ref&#39;</text>
</g>
<!-- e2&#45;&gt;v6 -->
<g id="edge28" class="edge"><title>e2&#45;&gt;v6</title>
<path fill="none" stroke="green" d="M630.5,-184C630.5,-184 613.745,-58.6999 608.836,-21.9909"/>
</g>
<!-- v7 -->
<g id="v7_Data_local" class="node"><title>v7</title>
<ellipse fill="none" stroke="black" cx="524.5" cy="-11" rx="43" ry="11"/>
<text text-anchor="middle" x="524.5" y="-8.8" font-family="sans-serif" font-size="9.00">Data_local</text>
</g>
<!-- e2&#45;&gt;v7 -->
<g id="edge29" class="edge"><title>e2&#45;&gt;v7</title>
<path fill="none" stroke="green" d="M630.5,-184C630.5,-184 576.962,-170.229 553.5,-138 527.078,-101.705 524.24,-45.2166 524.263,-22.2397"/>
</g>
<!-- v8 -->
<g id="v8_Record" class="node"><title>v8</title>
<ellipse fill="none" stroke="black" cx="687.5" cy="-127" rx="29" ry="11"/>
<text text-anchor="middle" x="687.5" y="-124.8" font-family="sans-serif" font-size="9.00">Record</text>
</g>
<!-- e2&#45;&gt;v8 -->
<g id="edge30" class="edge"><title>e2&#45;&gt;v8</title>
<path fill="none" stroke="green" d="M630.5,-184C630.5,-184 661.568,-153.477 677.831,-137.5"/>
</g>
<!-- e3 -->
<g id="node6" class="node"><title>e3</title>
</g>
<!-- v10 -->
<g id="v10_Record" class="node"><title>v10</title>
<ellipse fill="none" stroke="black" cx="228.5" cy="-127" rx="29" ry="11"/>
<text text-anchor="middle" x="228.5" y="-124.8" font-family="sans-serif" font-size="9.00">Record</text>
</g>
<!-- e3&#45;&gt;v10 -->
<g id="edge31" class="edge"><title>e3&#45;&gt;v10</title>
<path fill="none" stroke="green" d="M228.5,-180.167C228.5,-171.586 228.5,-150.596 228.5,-138.012"/>
<polygon fill="green" stroke="green" points="232,-183.3 225,-183.3 225,-181.9 232,-181.9 232,-183.3"/>
<polyline fill="none" stroke="green" points="228.5,-184 228.5,-180.5 "/>
</g>
<!-- e4 -->
<g id="node7" class="node"><title>e4</title>
</g>
<!-- v17 -->
<g id="v17_Record" class="node"><title>v17</title>
<ellipse fill="none" stroke="black" cx="358.5" cy="-127" rx="29" ry="11"/>
<text text-anchor="middle" x="358.5" y="-124.8" font-family="sans-serif" font-size="9.00">Record</text>
</g>
<!-- e4&#45;&gt;v17 -->
<g id="edge32" class="edge"><title>e4&#45;&gt;v17</title>
<path fill="none" stroke="green" d="M358.5,-180.167C358.5,-171.586 358.5,-150.596 358.5,-138.012"/>
<polygon fill="green" stroke="green" points="362,-183.3 355,-183.3 355,-181.9 362,-181.9 362,-183.3"/>
<polyline fill="none" stroke="green" points="358.5,-184 358.5,-180.5 "/>
</g>
<!-- e5 -->
<g id="node8" class="node"><title>e5</title>
</g>
<!-- v22 -->
<g id="v22_Nurse" class="node"><title>v22</title>
<ellipse fill="none" stroke="black" cx="804.5" cy="-11" rx="25" ry="11"/>
<text text-anchor="middle" x="804.5" y="-8.8" font-family="sans-serif" font-size="9.00">Nurse</text>
</g>
<!-- e5&#45;&gt;v22 -->
<g id="edge33" class="edge"><title>e5&#45;&gt;v22</title>
<path fill="none" stroke="green" d="M804.5,-64.1674C804.5,-55.5862 804.5,-34.5957 804.5,-22.0117"/>
<polygon fill="green" stroke="green" points="808,-67.3001 801,-67.2999 801,-65.8999 808,-65.9001 808,-67.3001"/>
<polyline fill="none" stroke="green" points="804.5,-68 804.5,-64.5 "/>
</g>
<!-- e6 -->
<g id="node9" class="node"><title>e6</title>
</g>
<!-- v23 -->
<g id="v23_Nurse" class="node"><title>v23</title>
<ellipse fill="none" stroke="black" cx="900.5" cy="-11" rx="25" ry="11"/>
<text text-anchor="middle" x="900.5" y="-8.8" font-family="sans-serif" font-size="9.00">Nurse</text>
</g>
<!-- e6&#45;&gt;v23 -->
<g id="edge34" class="edge"><title>e6&#45;&gt;v23</title>
<path fill="none" stroke="green" d="M900.5,-64.1674C900.5,-55.5862 900.5,-34.5957 900.5,-22.0117"/>
<polygon fill="green" stroke="green" points="904,-67.3001 897,-67.2999 897,-65.8999 904,-65.9001 904,-67.3001"/>
<polyline fill="none" stroke="green" points="900.5,-68 900.5,-64.5 "/>
</g>
<!-- e7 -->
<g id="node10" class="node"><title>e7</title>
</g>
<!-- v24 -->
<g id="v24_Nurse" class="node"><title>v24</title>
<ellipse fill="none" stroke="black" cx="996.5" cy="-11" rx="25" ry="11"/>
<text text-anchor="middle" x="996.5" y="-8.8" font-family="sans-serif" font-size="9.00">Nurse</text>
</g>
<!-- e7&#45;&gt;v24 -->
<g id="edge35" class="edge"><title>e7&#45;&gt;v24</title>
<path fill="none" stroke="green" d="M996.5,-64.1674C996.5,-55.5862 996.5,-34.5957 996.5,-22.0117"/>
<polygon fill="green" stroke="green" points="1000,-67.3001 993,-67.2999 993,-65.8999 1000,-65.9001 1000,-67.3001"/>
<polyline fill="none" stroke="green" points="996.5,-68 996.5,-64.5 "/>
</g>
<!-- v1 -->
<g id="v1_DB" class="node"><title>v1</title>
<ellipse fill="none" stroke="black" cx="325.5" cy="-185" rx="14.5" ry="11"/>
<text text-anchor="middle" x="325.5" y="-182.8" font-family="sans-serif" font-size="9.00">DB</text>
</g>
<!-- e8&#45;&gt;v1 -->
<g id="edge37" class="edge"><title>e8&#45;&gt;v1</title>
<path fill="none" stroke="green" d="M731.5,-242C731.5,-242 431.234,-218.437 348.5,-196 344.634,-194.951 340.576,-193.365 336.964,-191.763"/>
</g>
<!-- e8&#45;&gt;v5 -->
<g id="edge38" class="edge"><title>e8&#45;&gt;v5</title>
<path fill="none" stroke="green" d="M731.5,-242C731.5,-242 658.361,-233.661 620.5,-196 586.682,-162.36 573.296,-103.87 569.105,-80.2904"/>
</g>
<!-- v9 -->
<g id="v9_DBadmin" class="node"><title>v9</title>
<ellipse fill="none" stroke="black" cx="430.5" cy="-11" rx="32.5" ry="11"/>
<text text-anchor="middle" x="430.5" y="-8.8" font-family="sans-serif" font-size="9.00">DBadmin</text>
</g>
<!-- e8&#45;&gt;v9 -->
<g id="edge39" class="edge"><title>e8&#45;&gt;v9</title>
<path fill="none" stroke="green" d="M731.5,-242C731.5,-242 653.398,-227.773 600.5,-196 521.46,-148.525 456.746,-53.4948 436.835,-22.2308"/>
</g>
<!-- e8&#45;&gt;v22 -->
<g id="edge40" class="edge"><title>e8&#45;&gt;v22</title>
<path fill="none" stroke="green" d="M731.5,-242C731.5,-242 816.339,-241.879 847.5,-196 886.391,-138.74 831.961,-50.8716 811.624,-21.7496"/>
</g>
<!-- e8&#45;&gt;v23 -->
<g id="edge41" class="edge"><title>e8&#45;&gt;v23</title>
<path fill="none" stroke="green" d="M731.5,-242C731.5,-242 913.241,-233.528 943.5,-196 987.153,-141.859 929.017,-51.2036 907.743,-21.6401"/>
</g>
<!-- e8&#45;&gt;v24 -->
<g id="edge42" class="edge"><title>e8&#45;&gt;v24</title>
<path fill="none" stroke="green" d="M731.5,-242C731.5,-242 923.627,-230.243 963.5,-196 1012.14,-154.231 1011.68,-121.812 1005.5,-58 1004.29,-45.5266 1001.28,-31.4139 999.072,-22.148"/>
</g>
<!-- v0&#45;&gt;v1 -->
<g id="edge2" class="edge"><title>v0&#45;&gt;v1</title>
<path fill="none" stroke="black" d="M580.634,-240.82C546.087,-236.883 435.908,-222.905 348.5,-196 346.44,-195.366 344.317,-194.603 342.232,-193.785"/>
<polygon fill="black" stroke="black" points="337.484,-191.811 342.964,-191.653 339.792,-192.771 342.101,-193.731 342.101,-193.731 342.101,-193.731 339.792,-192.771 341.237,-195.808 337.484,-191.811 337.484,-191.811"/>
</g>
<!-- v0&#45;&gt;v5 -->
<g id="edge3" class="edge"><title>v0&#45;&gt;v5</title>
<path fill="none" stroke="black" d="M586.903,-232.842C578.28,-215.092 559.965,-174.533 553.5,-138 550.245,-119.607 556.061,-98.5642 561.159,-84.8195"/>
<polygon fill="black" stroke="black" points="562.986,-80.1043 563.277,-85.5796 562.083,-82.4354 561.179,-84.7664 561.179,-84.7664 561.179,-84.7664 562.083,-82.4354 559.081,-83.9533 562.986,-80.1043 562.986,-80.1043"/>
</g>
<!-- v0&#45;&gt;v9 -->
<g id="edge4" class="edge"><title>v0&#45;&gt;v9</title>
<path fill="none" stroke="black" d="M581.418,-238.31C553.93,-227.66 477.533,-194.01 444.5,-138 423.711,-102.75 425.735,-52.2355 428.4,-27.2261"/>
<polygon fill="black" stroke="black" points="429.007,-22.007 430.665,-27.2332 428.718,-24.4903 428.43,-26.9736 428.43,-26.9736 428.43,-26.9736 428.718,-24.4903 426.195,-26.714 429.007,-22.007 429.007,-22.007"/>
</g>
<!-- v0&#45;&gt;v22 -->
<g id="edge5" class="edge"><title>v0&#45;&gt;v22</title>
<path fill="none" stroke="black" d="M600.513,-236.592C623.435,-222.527 684.999,-182.767 725.5,-138 757.978,-102.101 785.26,-51.1965 797.534,-26.5252"/>
<polygon fill="black" stroke="black" points="799.786,-21.953 799.596,-27.4326 798.682,-24.1957 797.577,-26.4385 797.577,-26.4385 797.577,-26.4385 798.682,-24.1957 795.559,-25.4443 799.786,-21.953 799.786,-21.953"/>
</g>
<!-- v0&#45;&gt;v23 -->
<g id="edge6" class="edge"><title>v0&#45;&gt;v23</title>
<path fill="none" stroke="black" d="M601.494,-238.239C619.471,-231.256 658.122,-215.234 687.5,-196 770.788,-141.473 856.403,-57.2086 887.899,-25.0654"/>
<polygon fill="black" stroke="black" points="891.468,-21.4094 889.585,-26.559 889.721,-23.1983 887.975,-24.9873 887.975,-24.9873 887.975,-24.9873 889.721,-23.1983 886.365,-23.4156 891.468,-21.4094 891.468,-21.4094"/>
</g>
<!-- v0&#45;&gt;v24 -->
<g id="edge7" class="edge"><title>v0&#45;&gt;v24</title>
<path fill="none" stroke="black" d="M601.9,-238.955C623.815,-232.376 676.127,-215.82 717.5,-196 807.413,-152.926 827.41,-136.578 909.5,-80 935.838,-61.8473 964.803,-38.4694 981.781,-24.3898"/>
<polygon fill="black" stroke="black" points="985.83,-21.0194 983.427,-25.9474 983.909,-22.6187 981.987,-24.2181 981.987,-24.2181 981.987,-24.2181 983.909,-22.6187 980.548,-22.4887 985.83,-21.0194 985.83,-21.0194"/>
</g>
<!-- v1&#45;&gt;v2 -->
<g id="edge8" class="edge"><title>v1&#45;&gt;v2</title>
<path fill="none" stroke="black" d="M311.801,-180.665C275.057,-171.718 173.731,-147.047 123.909,-134.917"/>
<polygon fill="black" stroke="black" points="118.963,-133.713 124.353,-132.709 121.392,-134.304 123.821,-134.896 123.821,-134.896 123.821,-134.896 121.392,-134.304 123.289,-137.082 118.963,-133.713 118.963,-133.713"/>
</g>
<!-- v1&#45;&gt;v8 -->
<g id="edge9" class="edge"><title>v1&#45;&gt;v8</title>
<path fill="none" stroke="black" d="M336.974,-178.274C340.586,-176.673 344.642,-175.078 348.5,-174 405.898,-157.96 581.631,-138.8 654.896,-131.268"/>
<polygon fill="black" stroke="black" points="659.991,-130.746 655.246,-133.494 657.504,-131.001 655.017,-131.256 655.017,-131.256 655.017,-131.256 657.504,-131.001 654.787,-129.018 659.991,-130.746 659.991,-130.746"/>
</g>
<!-- v1&#45;&gt;v10 -->
<g id="edge10" class="edge"><title>v1&#45;&gt;v10</title>
<path fill="none" stroke="black" d="M314.373,-177.576C298.156,-168.214 267.795,-150.686 247.865,-139.18"/>
<polygon fill="black" stroke="black" points="243.285,-136.536 248.74,-137.087 245.45,-137.786 247.615,-139.036 247.615,-139.036 247.615,-139.036 245.45,-137.786 246.49,-140.984 243.285,-136.536 243.285,-136.536"/>
</g>
<!-- v1&#45;&gt;v17 -->
<g id="edge11" class="edge"><title>v1&#45;&gt;v17</title>
<path fill="none" stroke="black" d="M330.949,-174.753C336.156,-165.917 344.081,-152.469 350.096,-142.261"/>
<polygon fill="black" stroke="black" points="352.709,-137.827 352.109,-143.277 351.44,-139.98 350.171,-142.134 350.171,-142.134 350.171,-142.134 351.44,-139.98 348.232,-140.992 352.709,-137.827 352.709,-137.827"/>
</g>
<!-- v3 -->
<g id="v3_Private" class="node"><title>v3</title>
<ellipse fill="none" stroke="black" cx="32.5" cy="-69" rx="32.5" ry="11"/>
<text text-anchor="middle" x="32.5" y="-66.8" font-family="sans-serif" font-size="9.00">Private</text>
</g>
<!-- v2&#45;&gt;v3 -->
<g id="edge12" class="edge"><title>v2&#45;&gt;v3</title>
<path fill="none" stroke="black" d="M84.8129,-116.5C74.5576,-107.385 58.9751,-93.5334 47.4828,-83.318"/>
<polygon fill="black" stroke="black" points="43.4513,-79.7345 48.6832,-81.3746 45.3198,-81.3954 47.1883,-83.0563 47.1883,-83.0563 47.1883,-83.0563 45.3198,-81.3954 45.6935,-84.738 43.4513,-79.7345 43.4513,-79.7345"/>
</g>
<!-- v21 -->
<g id="v21_Id(3)" class="node"><title>v21</title>
<ellipse fill="none" stroke="black" cx="95.5" cy="-11" rx="25" ry="11"/>
<text text-anchor="middle" x="95.5" y="-8.8" font-family="sans-serif" font-size="9.00">Id(3)</text>
</g>
<!-- v2&#45;&gt;v21 -->
<g id="edge13" class="edge"><title>v2&#45;&gt;v21</title>
<path fill="none" stroke="black" d="M95.5,-115.883C95.5,-95.9059 95.5,-51.276 95.5,-27.5402"/>
<polygon fill="black" stroke="black" points="95.5,-22.2579 97.7501,-27.2579 95.5,-24.7579 95.5001,-27.2579 95.5001,-27.2579 95.5001,-27.2579 95.5,-24.7579 93.2501,-27.258 95.5,-22.2579 95.5,-22.2579"/>
</g>
<!-- v4 -->
<g id="v4_Data" class="node"><title>v4</title>
<ellipse fill="none" stroke="black" cx="30.5" cy="-11" rx="21.5" ry="11"/>
<text text-anchor="middle" x="30.5" y="-8.8" font-family="sans-serif" font-size="9.00">Data</text>
</g>
<!-- v3&#45;&gt;v4 -->
<g id="edge14" class="edge"><title>v3&#45;&gt;v4</title>
<path fill="none" stroke="black" d="M32.1424,-57.9883C31.8391,-49.4941 31.3989,-37.1697 31.0506,-27.4169"/>
<polygon fill="black" stroke="black" points="30.868,-22.3039 33.2951,-27.2203 30.9573,-24.8023 31.0465,-27.3007 31.0465,-27.3007 31.0465,-27.3007 30.9573,-24.8023 28.798,-27.381 30.868,-22.3039 30.868,-22.3039"/>
</g>
<!-- v5&#45;&gt;v6 -->
<g id="edge15" class="edge"><title>v5&#45;&gt;v6</title>
<path fill="none" stroke="black" d="M574.105,-58.7527C580.551,-49.7282 590.433,-35.8936 597.777,-25.6124"/>
<polygon fill="black" stroke="black" points="600.751,-21.4482 599.676,-26.8247 599.298,-23.4825 597.845,-25.5169 597.845,-25.5169 597.845,-25.5169 599.298,-23.4825 596.014,-24.2091 600.751,-21.4482 600.751,-21.4482"/>
</g>
<!-- v5&#45;&gt;v7 -->
<g id="edge16" class="edge"><title>v5&#45;&gt;v7</title>
<path fill="none" stroke="black" d="M560.399,-58.7527C553.637,-49.9457 543.357,-36.5575 535.528,-26.3617"/>
<polygon fill="black" stroke="black" points="532.34,-22.2102 537.17,-24.8057 533.863,-24.1931 535.385,-26.176 535.385,-26.176 535.385,-26.176 533.863,-24.1931 533.601,-27.5463 532.34,-22.2102 532.34,-22.2102"/>
</g>
<!-- v14 -->
<g id="v14_Id(1)" class="node"><title>v14</title>
<ellipse fill="none" stroke="black" cx="672.5" cy="-11" rx="25" ry="11"/>
<text text-anchor="middle" x="672.5" y="-8.8" font-family="sans-serif" font-size="9.00">Id(1)</text>
</g>
<!-- v8&#45;&gt;v14 -->
<g id="edge17" class="edge"><title>v8&#45;&gt;v14</title>
<path fill="none" stroke="black" d="M683.221,-115.996C679.546,-106.827 674.53,-92.7756 672.5,-80 669.654,-62.0903 670.223,-41.1906 671.134,-27.3373"/>
<polygon fill="black" stroke="black" points="671.508,-22.2165 673.388,-27.367 671.326,-24.7099 671.144,-27.2033 671.144,-27.2033 671.144,-27.2033 671.326,-24.7099 668.9,-27.0395 671.508,-22.2165 671.508,-22.2165"/>
</g>
<!-- v15 -->
<g id="v15_Private" class="node"><title>v15</title>
<ellipse fill="none" stroke="black" cx="714.5" cy="-69" rx="32.5" ry="11"/>
<text text-anchor="middle" x="714.5" y="-66.8" font-family="sans-serif" font-size="9.00">Private</text>
</g>
<!-- v8&#45;&gt;v15 -->
<g id="edge18" class="edge"><title>v8&#45;&gt;v15</title>
<path fill="none" stroke="black" d="M692.327,-115.988C696.55,-107.229 702.738,-94.3956 707.504,-84.5103"/>
<polygon fill="black" stroke="black" points="709.715,-79.925 709.57,-85.4061 708.629,-82.1769 707.543,-84.4289 707.543,-84.4289 707.543,-84.4289 708.629,-82.1769 705.516,-83.4517 709.715,-79.925 709.715,-79.925"/>
</g>
<!-- v11 -->
<g id="v11_Id(0)" class="node"><title>v11</title>
<ellipse fill="none" stroke="black" cx="163.5" cy="-11" rx="25" ry="11"/>
<text text-anchor="middle" x="163.5" y="-8.8" font-family="sans-serif" font-size="9.00">Id(0)</text>
</g>
<!-- v10&#45;&gt;v11 -->
<g id="edge19" class="edge"><title>v10&#45;&gt;v11</title>
<path fill="none" stroke="black" d="M217.841,-116.742C208.443,-108.076 194.963,-94.3432 186.5,-80 176.573,-63.1753 170.179,-41.46 166.714,-27.1509"/>
<polygon fill="black" stroke="black" points="165.569,-22.2371 168.895,-26.5958 166.136,-24.6718 166.704,-27.1065 166.704,-27.1065 166.704,-27.1065 166.136,-24.6718 164.513,-27.6173 165.569,-22.2371 165.569,-22.2371"/>
</g>
<!-- v12 -->
<g id="v12_Private" class="node"><title>v12</title>
<ellipse fill="none" stroke="black" cx="228.5" cy="-69" rx="32.5" ry="11"/>
<text text-anchor="middle" x="228.5" y="-66.8" font-family="sans-serif" font-size="9.00">Private</text>
</g>
<!-- v10&#45;&gt;v12 -->
<g id="edge20" class="edge"><title>v10&#45;&gt;v12</title>
<path fill="none" stroke="black" d="M228.5,-115.988C228.5,-107.494 228.5,-95.1697 228.5,-85.4169"/>
<polygon fill="black" stroke="black" points="228.5,-80.3039 230.75,-85.3038 228.5,-82.8039 228.5,-85.3039 228.5,-85.3039 228.5,-85.3039 228.5,-82.8039 226.25,-85.3039 228.5,-80.3039 228.5,-80.3039"/>
</g>
<!-- v13 -->
<g id="v13_Data" class="node"><title>v13</title>
<ellipse fill="none" stroke="black" cx="228.5" cy="-11" rx="21.5" ry="11"/>
<text text-anchor="middle" x="228.5" y="-8.8" font-family="sans-serif" font-size="9.00">Data</text>
</g>
<!-- v12&#45;&gt;v13 -->
<g id="edge21" class="edge"><title>v12&#45;&gt;v13</title>
<path fill="none" stroke="black" d="M228.5,-57.9883C228.5,-49.4941 228.5,-37.1697 228.5,-27.4169"/>
<polygon fill="black" stroke="black" points="228.5,-22.3039 230.75,-27.3038 228.5,-24.8039 228.5,-27.3039 228.5,-27.3039 228.5,-27.3039 228.5,-24.8039 226.25,-27.3039 228.5,-22.3039 228.5,-22.3039"/>
</g>
<!-- v16 -->
<g id="v16_Data" class="node"><title>v16</title>
<ellipse fill="none" stroke="black" cx="737.5" cy="-11" rx="21.5" ry="11"/>
<text text-anchor="middle" x="737.5" y="-8.8" font-family="sans-serif" font-size="9.00">Data</text>
</g>
<!-- v15&#45;&gt;v16 -->
<g id="edge22" class="edge"><title>v15&#45;&gt;v16</title>
<path fill="none" stroke="black" d="M718.612,-57.9883C722.177,-49.3083 727.385,-36.6286 731.429,-26.7806"/>
<polygon fill="black" stroke="black" points="733.424,-21.925 733.605,-27.405 732.474,-24.2376 731.524,-26.5501 731.524,-26.5501 731.524,-26.5501 732.474,-24.2376 729.443,-25.6953 733.424,-21.925 733.424,-21.925"/>
</g>
<!-- v18 -->
<g id="v18_Id(2)" class="node"><title>v18</title>
<ellipse fill="none" stroke="black" cx="293.5" cy="-11" rx="25" ry="11"/>
<text text-anchor="middle" x="293.5" y="-8.8" font-family="sans-serif" font-size="9.00">Id(2)</text>
</g>
<!-- v17&#45;&gt;v18 -->
<g id="edge23" class="edge"><title>v17&#45;&gt;v18</title>
<path fill="none" stroke="black" d="M347.841,-116.742C338.443,-108.076 324.963,-94.3432 316.5,-80 306.573,-63.1753 300.179,-41.46 296.714,-27.1509"/>
<polygon fill="black" stroke="black" points="295.569,-22.2371 298.895,-26.5958 296.136,-24.6718 296.704,-27.1065 296.704,-27.1065 296.704,-27.1065 296.136,-24.6718 294.513,-27.6173 295.569,-22.2371 295.569,-22.2371"/>
</g>
<!-- v19 -->
<g id="v19_Private" class="node"><title>v19</title>
<ellipse fill="none" stroke="black" cx="358.5" cy="-69" rx="32.5" ry="11"/>
<text text-anchor="middle" x="358.5" y="-66.8" font-family="sans-serif" font-size="9.00">Private</text>
</g>
<!-- v17&#45;&gt;v19 -->
<g id="edge24" class="edge"><title>v17&#45;&gt;v19</title>
<path fill="none" stroke="black" d="M358.5,-115.988C358.5,-107.494 358.5,-95.1697 358.5,-85.4169"/>
<polygon fill="black" stroke="black" points="358.5,-80.3039 360.75,-85.3038 358.5,-82.8039 358.5,-85.3039 358.5,-85.3039 358.5,-85.3039 358.5,-82.8039 356.25,-85.3039 358.5,-80.3039 358.5,-80.3039"/>
</g>
<!-- v20 -->
<g id="v20_Data" class="node"><title>v20</title>
<ellipse fill="none" stroke="black" cx="358.5" cy="-11" rx="21.5" ry="11"/>
<text text-anchor="middle" x="358.5" y="-8.8" font-family="sans-serif" font-size="9.00">Data</text>
</g>
<!-- v19&#45;&gt;v20 -->
<g id="edge25" class="edge"><title>v19&#45;&gt;v20</title>
<path fill="none" stroke="black" d="M358.5,-57.9883C358.5,-49.4941 358.5,-37.1697 358.5,-27.4169"/>
<polygon fill="black" stroke="black" points="358.5,-22.3039 360.75,-27.3038 358.5,-24.8039 358.5,-27.3039 358.5,-27.3039 358.5,-27.3039 358.5,-24.8039 356.25,-27.3039 358.5,-22.3039 358.5,-22.3039"/>
</g>
</g>
</svg>
