<?xml version="1.0" encoding="UTF-8" standalone="no"?>
<?xml-stylesheet href="style.css" type="text/css"?>
<!DOCTYPE svg PUBLIC "-//W3C//DTD SVG 1.1//EN"
 "http://www.w3.org/Graphics/SVG/1.1/DTD/svg11.dtd">
<!-- Generated by graphviz version 2.38.0 (20140413.2041)
 -->
<!-- Title: 39.svg Pages: 1 -->
<svg width="1010pt" height="316pt"
 viewBox="0.00 0.00 1010.00 316.00" xmlns="http://www.w3.org/2000/svg" xmlns:xlink="http://www.w3.org/1999/xlink">
<g id="graph0" class="graph" transform="scale(1 1) rotate(0) translate(4 312)">
<title>39.svg</title>
<polygon fill="white" stroke="none" points="-4,4 -4,-312 1006,-312 1006,4 -4,4"/>
<!-- r0 -->
<g id="node1" class="node"><title>r0</title>
<polygon fill="none" stroke="black" stroke-dasharray="5,2" points="645.5,-308 622.5,-308 622.5,-290 645.5,-290 645.5,-308"/>
<text text-anchor="middle" x="634" y="-296.8" font-family="serif" font-size="9.00">0</text>
</g>
<!-- v0 -->
<g id="v0_H" class="node"><title>v0</title>
<ellipse fill="none" stroke="black" cx="634" cy="-243" rx="11" ry="11"/>
<text text-anchor="middle" x="634" y="-240.8" font-family="sans-serif" font-size="9.00">H</text>
</g>
<!-- r0&#45;&gt;v0 -->
<g id="edge1" class="edge"><title>r0&#45;&gt;v0</title>
<path fill="none" stroke="black" d="M634,-289.562C634,-281.453 634,-269.014 634,-259.181"/>
<polygon fill="black" stroke="black" points="634,-254.03 636.25,-259.03 634,-256.53 634,-259.03 634,-259.03 634,-259.03 634,-256.53 631.75,-259.03 634,-254.03 634,-254.03"/>
</g>
<!-- odb -->
<g id="node2" class="node"><title>odb</title>
<text text-anchor="middle" x="898" y="-296.8" font-family="serif" font-size="9.00">db</text>
</g>
<!-- e8 -->
<g id="node9" class="node"><title>e8</title>
</g>
<!-- odb&#45;&gt;e8 -->
<g id="edge34" class="edge"><title>odb&#45;&gt;e8</title>
<path fill="none" stroke="green" d="M898,-289.562C898,-274.375 898,-244 898,-244"/>
</g>
<!-- e1 -->
<g id="node3" class="node"><title>e1</title>
</g>
<!-- v4 -->
<g id="v4_Nurse" class="node"><title>v4</title>
<ellipse fill="none" stroke="black" cx="624" cy="-69" rx="25" ry="11"/>
<text text-anchor="middle" x="624" y="-66.8" font-family="sans-serif" font-size="9.00">Nurse</text>
</g>
<!-- e1&#45;&gt;v4 -->
<g id="edge27" class="edge"><title>e1&#45;&gt;v4</title>
<path fill="none" stroke="green" d="M633.316,-122.167C631.783,-113.586 628.035,-92.5957 625.788,-80.0117"/>
<polygon fill="green" stroke="green" points="637.322,-124.696 630.431,-125.926 630.185,-124.548 637.076,-123.317 637.322,-124.696"/>
<polyline fill="none" stroke="green" points="634,-126 633.385,-122.555 "/>
</g>
<!-- e3 -->
<g id="node4" class="node"><title>e3</title>
</g>
<!-- v7 -->
<g id="v7_Nurse" class="node"><title>v7</title>
<ellipse fill="none" stroke="black" cx="692" cy="-69" rx="25" ry="11"/>
<text text-anchor="middle" x="692" y="-66.8" font-family="sans-serif" font-size="9.00">Nurse</text>
</g>
<!-- e3&#45;&gt;v7 -->
<g id="edge29" class="edge"><title>e3&#45;&gt;v7</title>
<path fill="none" stroke="green" d="M692,-122.167C692,-113.586 692,-92.5957 692,-80.0117"/>
<polygon fill="green" stroke="green" points="695.5,-125.3 688.5,-125.3 688.5,-123.9 695.5,-123.9 695.5,-125.3"/>
<polyline fill="none" stroke="green" points="692,-126 692,-122.5 "/>
</g>
<!-- e4 -->
<g id="node5" class="node"><title>e4</title>
</g>
<!-- v12 -->
<g id="v12_Record" class="node"><title>v12</title>
<ellipse fill="none" stroke="black" cx="373" cy="-127" rx="29" ry="11"/>
<text text-anchor="middle" x="373" y="-124.8" font-family="sans-serif" font-size="9.00">Record</text>
</g>
<!-- e4&#45;&gt;v12 -->
<g id="edge30" class="edge"><title>e4&#45;&gt;v12</title>
<path fill="none" stroke="green" d="M373,-180.167C373,-171.586 373,-150.596 373,-138.012"/>
<polygon fill="green" stroke="green" points="376.5,-183.3 369.5,-183.3 369.5,-181.9 376.5,-181.9 376.5,-183.3"/>
<polyline fill="none" stroke="green" points="373,-184 373,-180.5 "/>
</g>
<!-- e5 -->
<g id="node6" class="node"><title>e5</title>
</g>
<!-- v19 -->
<g id="v19_Record" class="node"><title>v19</title>
<ellipse fill="none" stroke="black" cx="449" cy="-127" rx="29" ry="11"/>
<text text-anchor="middle" x="449" y="-124.8" font-family="sans-serif" font-size="9.00">Record</text>
</g>
<!-- e5&#45;&gt;v19 -->
<g id="edge31" class="edge"><title>e5&#45;&gt;v19</title>
<path fill="none" stroke="green" d="M449,-180.167C449,-171.586 449,-150.596 449,-138.012"/>
<polygon fill="green" stroke="green" points="452.5,-183.3 445.5,-183.3 445.5,-181.9 452.5,-181.9 452.5,-183.3"/>
<polyline fill="none" stroke="green" points="449,-184 449,-180.5 "/>
</g>
<!-- e6 -->
<g id="node7" class="node"><title>e6</title>
</g>
<!-- v23 -->
<g id="v23_Nurse" class="node"><title>v23</title>
<ellipse fill="none" stroke="black" cx="774" cy="-11" rx="25" ry="11"/>
<text text-anchor="middle" x="774" y="-8.8" font-family="sans-serif" font-size="9.00">Nurse</text>
</g>
<!-- e6&#45;&gt;v23 -->
<g id="edge32" class="edge"><title>e6&#45;&gt;v23</title>
<path fill="none" stroke="green" d="M774,-64.1674C774,-55.5862 774,-34.5957 774,-22.0117"/>
<polygon fill="green" stroke="green" points="777.5,-67.3001 770.5,-67.2999 770.5,-65.8999 777.5,-65.9001 777.5,-67.3001"/>
<polyline fill="none" stroke="green" points="774,-68 774,-64.5 "/>
</g>
<!-- e7 -->
<g id="node8" class="node"><title>e7</title>
</g>
<!-- v24 -->
<g id="v24_Doc" class="node"><title>v24</title>
<ellipse fill="none" stroke="black" cx="984" cy="-11" rx="18" ry="11"/>
<text text-anchor="middle" x="984" y="-8.8" font-family="sans-serif" font-size="9.00">Doc</text>
</g>
<!-- e7&#45;&gt;v24 -->
<g id="edge33" class="edge"><title>e7&#45;&gt;v24</title>
<path fill="none" stroke="green" d="M984,-64.1674C984,-55.5862 984,-34.5957 984,-22.0117"/>
<polygon fill="green" stroke="green" points="987.5,-67.3001 980.5,-67.2999 980.5,-65.8999 987.5,-65.9001 987.5,-67.3001"/>
<polyline fill="none" stroke="green" points="984,-68 984,-64.5 "/>
</g>
<!-- v1 -->
<g id="v1_DB" class="node"><title>v1</title>
<ellipse fill="none" stroke="black" cx="340" cy="-185" rx="14.5" ry="11"/>
<text text-anchor="middle" x="340" y="-182.8" font-family="sans-serif" font-size="9.00">DB</text>
</g>
<!-- e8&#45;&gt;v1 -->
<g id="edge35" class="edge"><title>e8&#45;&gt;v1</title>
<path fill="none" stroke="green" d="M898,-242C898,-242 478.678,-225.285 363,-196 359.117,-195.017 355.054,-193.449 351.443,-191.843"/>
</g>
<!-- v3 -->
<g id="v3_DBadmin" class="node"><title>v3</title>
<ellipse fill="none" stroke="black" cx="698" cy="-11" rx="32.5" ry="11"/>
<text text-anchor="middle" x="698" y="-8.8" font-family="sans-serif" font-size="9.00">DBadmin</text>
</g>
<!-- e8&#45;&gt;v3 -->
<g id="edge36" class="edge"><title>e8&#45;&gt;v3</title>
<path fill="none" stroke="green" d="M898,-242C898,-242 853.29,-124.025 783,-58 764.166,-40.3086 737.232,-27.2558 718.759,-19.6629"/>
</g>
<!-- e8&#45;&gt;v4 -->
<g id="edge37" class="edge"><title>e8&#45;&gt;v4</title>
<path fill="none" stroke="green" d="M898,-242C898,-242 789.4,-170.658 701,-116 679.146,-102.488 653.476,-87.2844 637.987,-78.183"/>
</g>
<!-- e8&#45;&gt;v7 -->
<g id="edge38" class="edge"><title>e8&#45;&gt;v7</title>
<path fill="none" stroke="green" d="M898,-242C898,-242 928.792,-159.126 893,-116 881.569,-102.227 765.318,-81.898 715.006,-73.6633"/>
</g>
<!-- e8&#45;&gt;v23 -->
<g id="edge39" class="edge"><title>e8&#45;&gt;v23</title>
<path fill="none" stroke="green" d="M898,-242C898,-242 918.026,-218.712 924,-196 933.13,-161.291 929.777,-147.727 913,-116 886.231,-65.3778 822.63,-32.6103 791.615,-19.0793"/>
</g>
<!-- e8&#45;&gt;v24 -->
<g id="edge40" class="edge"><title>e8&#45;&gt;v24</title>
<path fill="none" stroke="green" d="M898,-242C898,-242 947.771,-227.033 969,-196 1004.15,-144.618 999.005,-119.964 993,-58 991.791,-45.5266 988.78,-31.4139 986.572,-22.148"/>
</g>
<!-- v0&#45;&gt;v1 -->
<g id="edge2" class="edge"><title>v0&#45;&gt;v1</title>
<path fill="none" stroke="black" d="M622.941,-241.089C585.647,-237.816 461.343,-225.254 363,-196 360.934,-195.385 358.807,-194.635 356.72,-193.823"/>
<polygon fill="black" stroke="black" points="351.97,-191.856 357.451,-191.691 354.28,-192.813 356.59,-193.769 356.59,-193.769 356.59,-193.769 354.28,-192.813 355.729,-195.848 351.97,-191.856 351.97,-191.856"/>
</g>
<!-- v0&#45;&gt;v3 -->
<g id="edge3" class="edge"><title>v0&#45;&gt;v3</title>
<path fill="none" stroke="black" d="M627.706,-233.502C608.029,-205.818 551.241,-116.636 590,-58 599.189,-44.098 640.712,-29.1854 669.508,-20.2268"/>
<polygon fill="black" stroke="black" points="674.369,-18.7331 670.25,-22.3526 671.979,-19.4675 669.589,-20.2018 669.589,-20.2018 669.589,-20.2018 671.979,-19.4675 668.929,-18.051 674.369,-18.7331 674.369,-18.7331"/>
</g>
<!-- v0&#45;&gt;v4 -->
<g id="edge4" class="edge"><title>v0&#45;&gt;v4</title>
<path fill="none" stroke="black" d="M632.714,-231.983C630.409,-213.465 625.66,-172.605 624,-138 623.131,-119.886 623.305,-99.0274 623.583,-85.2395"/>
<polygon fill="black" stroke="black" points="623.697,-80.1454 625.835,-85.1946 623.641,-82.6448 623.585,-85.1442 623.585,-85.1442 623.585,-85.1442 623.641,-82.6448 621.336,-85.0938 623.697,-80.1454 623.697,-80.1454"/>
</g>
<!-- v0&#45;&gt;v7 -->
<g id="edge5" class="edge"><title>v0&#45;&gt;v7</title>
<path fill="none" stroke="black" d="M637.285,-232.26C646.929,-203.658 675.22,-119.761 686.883,-85.1735"/>
<polygon fill="black" stroke="black" points="688.607,-80.0619 689.141,-85.5187 687.808,-82.4308 687.009,-84.7998 687.009,-84.7998 687.009,-84.7998 687.808,-82.4308 684.877,-84.0808 688.607,-80.0619 688.607,-80.0619"/>
</g>
<!-- v0&#45;&gt;v23 -->
<g id="edge6" class="edge"><title>v0&#45;&gt;v23</title>
<path fill="none" stroke="black" d="M640.561,-233.727C647.635,-224.673 659.08,-209.627 668,-196 708.055,-134.806 749.687,-57.9563 766.397,-26.4652"/>
<polygon fill="black" stroke="black" points="768.86,-21.8098 768.51,-27.2816 767.691,-24.0195 766.521,-26.2291 766.521,-26.2291 766.521,-26.2291 767.691,-24.0195 764.533,-25.1766 768.86,-21.8098 768.86,-21.8098"/>
</g>
<!-- v0&#45;&gt;v24 -->
<g id="edge7" class="edge"><title>v0&#45;&gt;v24</title>
<path fill="none" stroke="black" d="M643.003,-236.083C689.93,-205.246 906.668,-62.8181 967.868,-22.6013"/>
<polygon fill="black" stroke="black" points="972.328,-19.67 969.385,-24.2962 970.239,-21.0429 968.15,-22.4159 968.15,-22.4159 968.15,-22.4159 970.239,-21.0429 966.914,-20.5355 972.328,-19.67 972.328,-19.67"/>
</g>
<!-- v2 -->
<g id="v2_Record" class="node"><title>v2</title>
<ellipse fill="none" stroke="black" cx="88" cy="-127" rx="29" ry="11"/>
<text text-anchor="middle" x="88" y="-124.8" font-family="sans-serif" font-size="9.00">Record</text>
</g>
<!-- v1&#45;&gt;v2 -->
<g id="edge8" class="edge"><title>v1&#45;&gt;v2</title>
<path fill="none" stroke="black" d="M326.451,-180.989C287.034,-172.23 171.761,-146.614 117.231,-134.496"/>
<polygon fill="black" stroke="black" points="112.149,-133.366 117.518,-132.255 114.589,-133.909 117.029,-134.451 117.029,-134.451 117.029,-134.451 114.589,-133.909 116.541,-136.647 112.149,-133.366 112.149,-133.366"/>
</g>
<!-- v6 -->
<g id="v6_Record" class="node"><title>v6</title>
<ellipse fill="none" stroke="black" cx="250" cy="-127" rx="29" ry="11"/>
<text text-anchor="middle" x="250" y="-124.8" font-family="sans-serif" font-size="9.00">Record</text>
</g>
<!-- v1&#45;&gt;v6 -->
<g id="edge9" class="edge"><title>v1&#45;&gt;v6</title>
<path fill="none" stroke="black" d="M329.322,-177.356C314.385,-168.061 287.024,-151.037 268.673,-139.618"/>
<polygon fill="black" stroke="black" points="264.214,-136.844 269.648,-137.576 266.337,-138.165 268.46,-139.486 268.46,-139.486 268.46,-139.486 266.337,-138.165 267.271,-141.396 264.214,-136.844 264.214,-136.844"/>
</g>
<!-- v1&#45;&gt;v12 -->
<g id="edge10" class="edge"><title>v1&#45;&gt;v12</title>
<path fill="none" stroke="black" d="M345.449,-174.753C350.656,-165.917 358.581,-152.469 364.596,-142.261"/>
<polygon fill="black" stroke="black" points="367.209,-137.827 366.609,-143.277 365.94,-139.98 364.671,-142.134 364.671,-142.134 364.671,-142.134 365.94,-139.98 362.732,-140.992 367.209,-137.827 367.209,-137.827"/>
</g>
<!-- v1&#45;&gt;v19 -->
<g id="edge11" class="edge"><title>v1&#45;&gt;v19</title>
<path fill="none" stroke="black" d="M351.665,-178.007C369.918,-168.629 405.489,-150.354 428.203,-138.685"/>
<polygon fill="black" stroke="black" points="432.843,-136.301 429.424,-140.587 430.62,-137.443 428.396,-138.586 428.396,-138.586 428.396,-138.586 430.62,-137.443 427.368,-136.584 432.843,-136.301 432.843,-136.301"/>
</g>
<!-- v5 -->
<g id="v5_Ref" class="node"><title>v5</title>
<ellipse fill="none" stroke="black" cx="575" cy="-11" rx="18" ry="11"/>
<text text-anchor="middle" x="575" y="-8.8" font-family="sans-serif" font-size="9.00">Ref</text>
</g>
<!-- v2&#45;&gt;v5 -->
<g id="edge26" class="edge"><title>v2&#45;&gt;v5</title>
<path fill="none" stroke="green" d="M75.1901,-116.875C57.2866,-103.062 28.8039,-76.4949 46,-58 83.4743,-17.6954 485.811,-31.6103 540,-22 546.596,-20.8303 553.73,-18.9147 559.826,-17.0716"/>
</g>
<!-- v16 -->
<g id="v16_Id(2)" class="node"><title>v16</title>
<ellipse fill="none" stroke="black" cx="25" cy="-11" rx="25" ry="11"/>
<text text-anchor="middle" x="25" y="-8.8" font-family="sans-serif" font-size="9.00">Id(2)</text>
</g>
<!-- v2&#45;&gt;v16 -->
<g id="edge12" class="edge"><title>v2&#45;&gt;v16</title>
<path fill="none" stroke="black" d="M76.8792,-116.457C67.4399,-107.809 54.164,-94.2668 46,-80 36.3808,-63.1901 30.6681,-41.4714 27.6844,-27.1576"/>
<polygon fill="black" stroke="black" points="26.7064,-22.2419 29.8889,-26.7067 27.1942,-24.6939 27.6821,-27.1458 27.6821,-27.1458 27.6821,-27.1458 27.1942,-24.6939 25.4754,-27.5849 26.7064,-22.2419 26.7064,-22.2419"/>
</g>
<!-- v17 -->
<g id="v17_Private" class="node"><title>v17</title>
<ellipse fill="none" stroke="black" cx="88" cy="-69" rx="32.5" ry="11"/>
<text text-anchor="middle" x="88" y="-66.8" font-family="sans-serif" font-size="9.00">Private</text>
</g>
<!-- v2&#45;&gt;v17 -->
<g id="edge13" class="edge"><title>v2&#45;&gt;v17</title>
<path fill="none" stroke="black" d="M88,-115.988C88,-107.494 88,-95.1697 88,-85.4169"/>
<polygon fill="black" stroke="black" points="88,-80.3039 90.2501,-85.3038 88,-82.8039 88.0001,-85.3039 88.0001,-85.3039 88.0001,-85.3039 88,-82.8039 85.7501,-85.3039 88,-80.3039 88,-80.3039"/>
</g>
<!-- v4&#45;&gt;v5 -->
<g id="edge14" class="edge"><title>v4&#45;&gt;v5</title>
<path fill="none" stroke="black" d="M615.688,-58.5004C607.589,-49.2441 595.217,-35.1056 586.242,-24.8486"/>
<polygon fill="black" stroke="black" points="582.866,-20.9896 587.852,-23.2709 584.512,-22.8711 586.158,-24.7525 586.158,-24.7525 586.158,-24.7525 584.512,-22.8711 584.465,-26.2342 582.866,-20.9896 582.866,-20.9896"/>
</g>
<!-- v8 -->
<g id="v8_Ref" class="node"><title>v8</title>
<ellipse fill="none" stroke="black" cx="629" cy="-11" rx="18" ry="11"/>
<text text-anchor="middle" x="629" y="-8.8" font-family="sans-serif" font-size="9.00">Ref</text>
</g>
<!-- v6&#45;&gt;v8 -->
<g id="edge28" class="edge"><title>v6&#45;&gt;v8</title>
<path fill="none" stroke="green" d="M237.233,-116.915C219.385,-103.153 190.974,-76.6521 208,-58 267.273,6.93588 516.255,-41.4365 602,-22 606.29,-21.0275 610.821,-19.542 614.921,-18.0111"/>
</g>
<!-- v9 -->
<g id="v9_Id(0)" class="node"><title>v9</title>
<ellipse fill="none" stroke="black" cx="185" cy="-11" rx="25" ry="11"/>
<text text-anchor="middle" x="185" y="-8.8" font-family="sans-serif" font-size="9.00">Id(0)</text>
</g>
<!-- v6&#45;&gt;v9 -->
<g id="edge15" class="edge"><title>v6&#45;&gt;v9</title>
<path fill="none" stroke="black" d="M239.341,-116.742C229.943,-108.076 216.463,-94.3432 208,-80 198.073,-63.1753 191.679,-41.46 188.214,-27.1509"/>
<polygon fill="black" stroke="black" points="187.069,-22.2371 190.395,-26.5958 187.636,-24.6718 188.204,-27.1065 188.204,-27.1065 188.204,-27.1065 187.636,-24.6718 186.013,-27.6173 187.069,-22.2371 187.069,-22.2371"/>
</g>
<!-- v10 -->
<g id="v10_Private" class="node"><title>v10</title>
<ellipse fill="none" stroke="black" cx="250" cy="-69" rx="32.5" ry="11"/>
<text text-anchor="middle" x="250" y="-66.8" font-family="sans-serif" font-size="9.00">Private</text>
</g>
<!-- v6&#45;&gt;v10 -->
<g id="edge16" class="edge"><title>v6&#45;&gt;v10</title>
<path fill="none" stroke="black" d="M250,-115.988C250,-107.494 250,-95.1697 250,-85.4169"/>
<polygon fill="black" stroke="black" points="250,-80.3039 252.25,-85.3038 250,-82.8039 250,-85.3039 250,-85.3039 250,-85.3039 250,-82.8039 247.75,-85.3039 250,-80.3039 250,-80.3039"/>
</g>
<!-- v7&#45;&gt;v8 -->
<g id="edge17" class="edge"><title>v7&#45;&gt;v8</title>
<path fill="none" stroke="black" d="M681.597,-58.7527C670.921,-49.2632 654.262,-34.4551 642.559,-24.0526"/>
<polygon fill="black" stroke="black" points="638.796,-20.7077 644.028,-22.3479 640.665,-22.3687 642.533,-24.0296 642.533,-24.0296 642.533,-24.0296 640.665,-22.3687 641.038,-25.7113 638.796,-20.7077 638.796,-20.7077"/>
</g>
<!-- v11 -->
<g id="v11_Data" class="node"><title>v11</title>
<ellipse fill="none" stroke="black" cx="250" cy="-11" rx="21.5" ry="11"/>
<text text-anchor="middle" x="250" y="-8.8" font-family="sans-serif" font-size="9.00">Data</text>
</g>
<!-- v10&#45;&gt;v11 -->
<g id="edge18" class="edge"><title>v10&#45;&gt;v11</title>
<path fill="none" stroke="black" d="M250,-57.9883C250,-49.4941 250,-37.1697 250,-27.4169"/>
<polygon fill="black" stroke="black" points="250,-22.3039 252.25,-27.3038 250,-24.8039 250,-27.3039 250,-27.3039 250,-27.3039 250,-24.8039 247.75,-27.3039 250,-22.3039 250,-22.3039"/>
</g>
<!-- v13 -->
<g id="v13_Id(1)" class="node"><title>v13</title>
<ellipse fill="none" stroke="black" cx="315" cy="-11" rx="25" ry="11"/>
<text text-anchor="middle" x="315" y="-8.8" font-family="sans-serif" font-size="9.00">Id(1)</text>
</g>
<!-- v12&#45;&gt;v13 -->
<g id="edge19" class="edge"><title>v12&#45;&gt;v13</title>
<path fill="none" stroke="black" d="M363.587,-116.549C355.292,-107.753 343.407,-93.9376 336,-80 326.991,-63.0474 321.182,-41.6239 318.007,-27.4015"/>
<polygon fill="black" stroke="black" points="316.881,-22.1456 320.129,-26.5631 317.405,-24.5901 317.929,-27.0346 317.929,-27.0346 317.929,-27.0346 317.405,-24.5901 315.729,-27.5061 316.881,-22.1456 316.881,-22.1456"/>
</g>
<!-- v14 -->
<g id="v14_Private" class="node"><title>v14</title>
<ellipse fill="none" stroke="black" cx="378" cy="-69" rx="32.5" ry="11"/>
<text text-anchor="middle" x="378" y="-66.8" font-family="sans-serif" font-size="9.00">Private</text>
</g>
<!-- v12&#45;&gt;v14 -->
<g id="edge20" class="edge"><title>v12&#45;&gt;v14</title>
<path fill="none" stroke="black" d="M373.894,-115.988C374.652,-107.494 375.753,-95.1697 376.623,-85.4169"/>
<polygon fill="black" stroke="black" points="377.08,-80.3039 378.876,-85.4842 376.858,-82.794 376.635,-85.2841 376.635,-85.2841 376.635,-85.2841 376.858,-82.794 374.394,-85.0839 377.08,-80.3039 377.08,-80.3039"/>
</g>
<!-- v15 -->
<g id="v15_Data" class="node"><title>v15</title>
<ellipse fill="none" stroke="black" cx="380" cy="-11" rx="21.5" ry="11"/>
<text text-anchor="middle" x="380" y="-8.8" font-family="sans-serif" font-size="9.00">Data</text>
</g>
<!-- v14&#45;&gt;v15 -->
<g id="edge21" class="edge"><title>v14&#45;&gt;v15</title>
<path fill="none" stroke="black" d="M378.358,-57.9883C378.661,-49.4941 379.101,-37.1697 379.449,-27.4169"/>
<polygon fill="black" stroke="black" points="379.632,-22.3039 381.702,-27.381 379.543,-24.8023 379.453,-27.3007 379.453,-27.3007 379.453,-27.3007 379.543,-24.8023 377.205,-27.2203 379.632,-22.3039 379.632,-22.3039"/>
</g>
<!-- v18 -->
<g id="v18_Data" class="node"><title>v18</title>
<ellipse fill="none" stroke="black" cx="90" cy="-11" rx="21.5" ry="11"/>
<text text-anchor="middle" x="90" y="-8.8" font-family="sans-serif" font-size="9.00">Data</text>
</g>
<!-- v17&#45;&gt;v18 -->
<g id="edge22" class="edge"><title>v17&#45;&gt;v18</title>
<path fill="none" stroke="black" d="M88.3576,-57.9883C88.6609,-49.4941 89.1011,-37.1697 89.4494,-27.4169"/>
<polygon fill="black" stroke="black" points="89.632,-22.3039 91.702,-27.381 89.5427,-24.8023 89.4535,-27.3007 89.4535,-27.3007 89.4535,-27.3007 89.5427,-24.8023 87.2049,-27.2203 89.632,-22.3039 89.632,-22.3039"/>
</g>
<!-- v20 -->
<g id="v20_Id(3)" class="node"><title>v20</title>
<ellipse fill="none" stroke="black" cx="445" cy="-11" rx="25" ry="11"/>
<text text-anchor="middle" x="445" y="-8.8" font-family="sans-serif" font-size="9.00">Id(3)</text>
</g>
<!-- v19&#45;&gt;v20 -->
<g id="edge23" class="edge"><title>v19&#45;&gt;v20</title>
<path fill="none" stroke="black" d="M448.645,-115.883C447.944,-95.9059 446.378,-51.276 445.545,-27.5402"/>
<polygon fill="black" stroke="black" points="445.36,-22.2579 447.784,-27.1759 445.448,-24.7564 445.535,-27.2549 445.535,-27.2549 445.535,-27.2549 445.448,-24.7564 443.287,-27.3338 445.36,-22.2579 445.36,-22.2579"/>
</g>
<!-- v21 -->
<g id="v21_Private" class="node"><title>v21</title>
<ellipse fill="none" stroke="black" cx="506" cy="-69" rx="32.5" ry="11"/>
<text text-anchor="middle" x="506" y="-66.8" font-family="sans-serif" font-size="9.00">Private</text>
</g>
<!-- v19&#45;&gt;v21 -->
<g id="edge24" class="edge"><title>v19&#45;&gt;v21</title>
<path fill="none" stroke="black" d="M458.669,-116.5C467.948,-107.385 482.046,-93.5334 492.444,-83.318"/>
<polygon fill="black" stroke="black" points="496.092,-79.7345 494.102,-84.8436 494.308,-81.4865 492.525,-83.2386 492.525,-83.2386 492.525,-83.2386 494.308,-81.4865 490.948,-81.6336 496.092,-79.7345 496.092,-79.7345"/>
</g>
<!-- v22 -->
<g id="v22_Data" class="node"><title>v22</title>
<ellipse fill="none" stroke="black" cx="510" cy="-11" rx="21.5" ry="11"/>
<text text-anchor="middle" x="510" y="-8.8" font-family="sans-serif" font-size="9.00">Data</text>
</g>
<!-- v21&#45;&gt;v22 -->
<g id="edge25" class="edge"><title>v21&#45;&gt;v22</title>
<path fill="none" stroke="black" d="M506.715,-57.9883C507.322,-49.4941 508.202,-37.1697 508.899,-27.4169"/>
<polygon fill="black" stroke="black" points="509.264,-22.3039 511.152,-27.4515 509.086,-24.7975 508.908,-27.2912 508.908,-27.2912 508.908,-27.2912 509.086,-24.7975 506.663,-27.1308 509.264,-22.3039 509.264,-22.3039"/>
</g>
</g>
</svg>
