<?xml version="1.0" encoding="UTF-8" standalone="no"?>
<?xml-stylesheet href="style.css" type="text/css"?>
<!DOCTYPE svg PUBLIC "-//W3C//DTD SVG 1.1//EN"
 "http://www.w3.org/Graphics/SVG/1.1/DTD/svg11.dtd">
<!-- Generated by graphviz version 2.38.0 (20140413.2041)
 -->
<!-- Title: 47.svg Pages: 1 -->
<svg width="930pt" height="316pt"
 viewBox="0.00 0.00 930.10 316.00" xmlns="http://www.w3.org/2000/svg" xmlns:xlink="http://www.w3.org/1999/xlink">
<g id="graph0" class="graph" transform="scale(1 1) rotate(0) translate(4 312)">
<title>47.svg</title>
<polygon fill="white" stroke="none" points="-4,4 -4,-312 926.104,-312 926.104,4 -4,4"/>
<!-- r0 -->
<g id="node1" class="node"><title>r0</title>
<polygon fill="none" stroke="black" stroke-dasharray="5,2" points="724.5,-308 701.5,-308 701.5,-290 724.5,-290 724.5,-308"/>
<text text-anchor="middle" x="713" y="-296.8" font-family="serif" font-size="9.00">0</text>
</g>
<!-- v0 -->
<g id="v0_H" class="node"><title>v0</title>
<ellipse fill="none" stroke="black" cx="713" cy="-243" rx="11" ry="11"/>
<text text-anchor="middle" x="713" y="-240.8" font-family="sans-serif" font-size="9.00">H</text>
</g>
<!-- r0&#45;&gt;v0 -->
<g id="edge1" class="edge"><title>r0&#45;&gt;v0</title>
<path fill="none" stroke="black" d="M713,-289.562C713,-281.453 713,-269.014 713,-259.181"/>
<polygon fill="black" stroke="black" points="713,-254.03 715.25,-259.03 713,-256.53 713,-259.03 713,-259.03 713,-259.03 713,-256.53 710.75,-259.03 713,-254.03 713,-254.03"/>
</g>
<!-- odb -->
<g id="node2" class="node"><title>odb</title>
<text text-anchor="middle" x="634" y="-296.8" font-family="serif" font-size="9.00">db</text>
</g>
<!-- e7 -->
<g id="node8" class="node"><title>e7</title>
</g>
<!-- odb&#45;&gt;e7 -->
<g id="edge32" class="edge"><title>odb&#45;&gt;e7</title>
<path fill="none" stroke="green" d="M634,-289.562C634,-274.375 634,-244 634,-244"/>
</g>
<!-- e2 -->
<g id="node3" class="node"><title>e2</title>
</g>
<!-- v7 -->
<g id="v7_Record" class="node"><title>v7</title>
<ellipse fill="none" stroke="black" cx="305" cy="-127" rx="29" ry="11"/>
<text text-anchor="middle" x="305" y="-124.8" font-family="sans-serif" font-size="9.00">Record</text>
</g>
<!-- e2&#45;&gt;v7 -->
<g id="edge27" class="edge"><title>e2&#45;&gt;v7</title>
<path fill="none" stroke="green" d="M305,-180.167C305,-171.586 305,-150.596 305,-138.012"/>
<polygon fill="green" stroke="green" points="308.5,-183.3 301.5,-183.3 301.5,-181.9 308.5,-181.9 308.5,-183.3"/>
<polyline fill="none" stroke="green" points="305,-184 305,-180.5 "/>
</g>
<!-- e3 -->
<g id="node4" class="node"><title>e3</title>
</g>
<!-- v14 -->
<g id="v14_Record" class="node"><title>v14</title>
<ellipse fill="none" stroke="black" cx="426" cy="-127" rx="29" ry="11"/>
<text text-anchor="middle" x="426" y="-124.8" font-family="sans-serif" font-size="9.00">Record</text>
</g>
<!-- e3&#45;&gt;v14 -->
<g id="edge28" class="edge"><title>e3&#45;&gt;v14</title>
<path fill="none" stroke="green" d="M426,-180.167C426,-171.586 426,-150.596 426,-138.012"/>
<polygon fill="green" stroke="green" points="429.5,-183.3 422.5,-183.3 422.5,-181.9 429.5,-181.9 429.5,-183.3"/>
<polyline fill="none" stroke="green" points="426,-184 426,-180.5 "/>
</g>
<!-- e4 -->
<g id="node5" class="node"><title>e4</title>
</g>
<!-- v18 -->
<g id="v18_Record" class="node"><title>v18</title>
<ellipse fill="none" stroke="black" cx="502" cy="-127" rx="29" ry="11"/>
<text text-anchor="middle" x="502" y="-124.8" font-family="sans-serif" font-size="9.00">Record</text>
</g>
<!-- e4&#45;&gt;v18 -->
<g id="edge29" class="edge"><title>e4&#45;&gt;v18</title>
<path fill="none" stroke="green" d="M502,-180.167C502,-171.586 502,-150.596 502,-138.012"/>
<polygon fill="green" stroke="green" points="505.5,-183.3 498.5,-183.3 498.5,-181.9 505.5,-181.9 505.5,-183.3"/>
<polyline fill="none" stroke="green" points="502,-184 502,-180.5 "/>
</g>
<!-- e5 -->
<g id="node6" class="node"><title>e5</title>
</g>
<!-- v22 -->
<g id="v22_Nurse" class="node"><title>v22</title>
<ellipse fill="none" stroke="black" cx="768" cy="-11" rx="25" ry="11"/>
<text text-anchor="middle" x="768" y="-8.8" font-family="sans-serif" font-size="9.00">Nurse</text>
</g>
<!-- e5&#45;&gt;v22 -->
<g id="edge30" class="edge"><title>e5&#45;&gt;v22</title>
<path fill="none" stroke="green" d="M760.548,-64.1674C761.773,-55.5862 764.772,-34.5957 766.57,-22.0117"/>
<polygon fill="green" stroke="green" points="763.564,-67.8021 756.634,-66.812 756.832,-65.4261 763.762,-66.4162 763.564,-67.8021"/>
<polyline fill="none" stroke="green" points="760,-68 760.495,-64.5352 "/>
</g>
<!-- e6 -->
<g id="node7" class="node"><title>e6</title>
</g>
<!-- v23 -->
<g id="v23_Nurse" class="node"><title>v23</title>
<ellipse fill="none" stroke="black" cx="856" cy="-11" rx="25" ry="11"/>
<text text-anchor="middle" x="856" y="-8.8" font-family="sans-serif" font-size="9.00">Nurse</text>
</g>
<!-- e6&#45;&gt;v23 -->
<g id="edge31" class="edge"><title>e6&#45;&gt;v23</title>
<path fill="none" stroke="green" d="M856,-64.1674C856,-55.5862 856,-34.5957 856,-22.0117"/>
<polygon fill="green" stroke="green" points="859.5,-67.3001 852.5,-67.2999 852.5,-65.8999 859.5,-65.9001 859.5,-67.3001"/>
<polyline fill="none" stroke="green" points="856,-68 856,-64.5 "/>
</g>
<!-- v1 -->
<g id="v1_Nurse" class="node"><title>v1</title>
<ellipse fill="none" stroke="black" cx="25" cy="-69" rx="25" ry="11"/>
<text text-anchor="middle" x="25" y="-66.8" font-family="sans-serif" font-size="9.00">Nurse</text>
</g>
<!-- e7&#45;&gt;v1 -->
<g id="edge33" class="edge"><title>e7&#45;&gt;v1</title>
<path fill="none" stroke="green" d="M634,-242C634,-242 142.443,-229.292 92,-196 49.8174,-168.16 32.3177,-104.679 26.9488,-80.0381"/>
</g>
<!-- v3 -->
<g id="v3_Doc" class="node"><title>v3</title>
<ellipse fill="none" stroke="black" cx="623" cy="-11" rx="18" ry="11"/>
<text text-anchor="middle" x="623" y="-8.8" font-family="sans-serif" font-size="9.00">Doc</text>
</g>
<!-- e7&#45;&gt;v3 -->
<g id="edge34" class="edge"><title>e7&#45;&gt;v3</title>
<path fill="none" stroke="green" d="M634,-242C634,-242 625.616,-66.6915 623.487,-22.1796"/>
</g>
<!-- v4 -->
<g id="v4_DB" class="node"><title>v4</title>
<ellipse fill="none" stroke="black" cx="393" cy="-185" rx="14.5" ry="11"/>
<text text-anchor="middle" x="393" y="-182.8" font-family="sans-serif" font-size="9.00">DB</text>
</g>
<!-- e7&#45;&gt;v4 -->
<g id="edge35" class="edge"><title>e7&#45;&gt;v4</title>
<path fill="none" stroke="green" d="M634,-242C634,-242 510.331,-226.117 416,-196 412.35,-194.835 408.491,-193.289 404.999,-191.762"/>
</g>
<!-- v6 -->
<g id="v6_DBadmin" class="node"><title>v6</title>
<ellipse fill="none" stroke="black" cx="692" cy="-11" rx="32.5" ry="11"/>
<text text-anchor="middle" x="692" y="-8.8" font-family="sans-serif" font-size="9.00">DBadmin</text>
</g>
<!-- e7&#45;&gt;v6 -->
<g id="edge36" class="edge"><title>e7&#45;&gt;v6</title>
<path fill="none" stroke="green" d="M634,-242C634,-242 640.771,-216.471 646,-196 662.95,-129.641 682.723,-49.6467 689.543,-21.9817"/>
</g>
<!-- e7&#45;&gt;v22 -->
<g id="edge37" class="edge"><title>e7&#45;&gt;v22</title>
<path fill="none" stroke="green" d="M634,-242C634,-242 737.094,-168.125 769,-80 776.074,-60.4611 772.949,-35.6476 770.304,-22.0472"/>
</g>
<!-- e7&#45;&gt;v23 -->
<g id="edge38" class="edge"><title>e7&#45;&gt;v23</title>
<path fill="none" stroke="green" d="M634,-242C634,-242 809.213,-192.304 865,-80 874.324,-61.2294 866.574,-36.1277 860.819,-22.2723"/>
</g>
<!-- v0&#45;&gt;v1 -->
<g id="edge2" class="edge"><title>v0&#45;&gt;v1</title>
<path fill="none" stroke="black" d="M702.105,-240.31C688.352,-238.207 663.957,-234.58 643,-232 416.845,-204.159 344.485,-236.475 139,-138 103.106,-120.799 63.7552,-95.8557 41.9498,-81.4468"/>
<polygon fill="black" stroke="black" points="37.5706,-78.5386 42.9806,-79.4304 39.6532,-79.9216 41.7358,-81.3047 41.7358,-81.3047 41.7358,-81.3047 39.6532,-79.9216 40.491,-83.1791 37.5706,-78.5386 37.5706,-78.5386"/>
</g>
<!-- v0&#45;&gt;v3 -->
<g id="edge3" class="edge"><title>v0&#45;&gt;v3</title>
<path fill="none" stroke="black" d="M709.247,-232.41C695.213,-196.545 645.756,-70.1532 628.775,-26.7571"/>
<polygon fill="black" stroke="black" points="626.869,-21.888 630.787,-25.7243 627.78,-24.2161 628.691,-26.5442 628.691,-26.5442 628.691,-26.5442 627.78,-24.2161 626.596,-27.3641 626.869,-21.888 626.869,-21.888"/>
</g>
<!-- v0&#45;&gt;v4 -->
<g id="edge4" class="edge"><title>v0&#45;&gt;v4</title>
<path fill="none" stroke="black" d="M702.303,-240.422C650.788,-232.811 430.158,-200.1 416,-196 413.93,-195.4 411.8,-194.659 409.712,-193.853"/>
<polygon fill="black" stroke="black" points="404.96,-191.89 410.44,-191.719 407.271,-192.845 409.582,-193.799 409.582,-193.799 409.582,-193.799 407.271,-192.845 408.723,-195.879 404.96,-191.89 404.96,-191.89"/>
</g>
<!-- v0&#45;&gt;v6 -->
<g id="edge5" class="edge"><title>v0&#45;&gt;v6</title>
<path fill="none" stroke="black" d="M713.66,-231.925C715.275,-204.023 718.503,-123.477 707,-58 705.146,-47.449 701.417,-35.9944 698.141,-27.155"/>
<polygon fill="black" stroke="black" points="696.18,-22.0206 700.066,-25.889 697.072,-24.3562 697.964,-26.6917 697.964,-26.6917 697.964,-26.6917 697.072,-24.3562 695.862,-27.4944 696.18,-22.0206 696.18,-22.0206"/>
</g>
<!-- v0&#45;&gt;v22 -->
<g id="edge6" class="edge"><title>v0&#45;&gt;v22</title>
<path fill="none" stroke="black" d="M723.765,-240.201C743.582,-236.244 785.414,-224.738 803,-196 835.014,-143.685 822.597,-116.118 803,-58 798.757,-45.4155 789.547,-33.5488 781.639,-25.021"/>
<polygon fill="black" stroke="black" points="777.89,-21.1143 782.975,-23.1636 779.621,-22.918 781.352,-24.7216 781.352,-24.7216 781.352,-24.7216 779.621,-22.918 779.729,-26.2797 777.89,-21.1143 777.89,-21.1143"/>
</g>
<!-- v0&#45;&gt;v23 -->
<g id="edge7" class="edge"><title>v0&#45;&gt;v23</title>
<path fill="none" stroke="black" d="M723.834,-241.03C760.206,-237.527 876.906,-224.223 899,-196 936.806,-147.705 921.513,-115.052 899,-58 893.593,-44.2974 881.964,-32.2752 872.162,-23.9607"/>
<polygon fill="black" stroke="black" points="868.096,-20.6303 873.39,-22.0582 870.03,-22.2146 871.964,-23.7988 871.964,-23.7988 871.964,-23.7988 870.03,-22.2146 870.538,-25.5394 868.096,-20.6303 868.096,-20.6303"/>
</g>
<!-- v2 -->
<g id="v2_Ref&#39;" class="node"><title>v2</title>
<ellipse fill="none" stroke="black" cx="25" cy="-11" rx="21.5" ry="11"/>
<text text-anchor="middle" x="25" y="-8.8" font-family="sans-serif" font-size="9.00">Ref&#39;</text>
</g>
<!-- v1&#45;&gt;v2 -->
<g id="edge8" class="edge"><title>v1&#45;&gt;v2</title>
<path fill="none" stroke="black" d="M25,-57.9883C25,-49.4941 25,-37.1697 25,-27.4169"/>
<polygon fill="black" stroke="black" points="25,-22.3039 27.2501,-27.3038 25,-24.8039 25.0001,-27.3039 25.0001,-27.3039 25.0001,-27.3039 25,-24.8039 22.7501,-27.3039 25,-22.3039 25,-22.3039"/>
</g>
<!-- v1&#45;&gt;v3 -->
<g id="edge25" class="edge"><title>v1&#45;&gt;v3</title>
<path fill="none" stroke="green" d="M49.0257,-65.7283C71.3052,-63.6426 105.383,-60.5051 135,-58 339.34,-40.7166 394.46,-64.8617 595,-22 599.543,-21.029 604.352,-19.5048 608.679,-17.9363"/>
</g>
<!-- v5 -->
<g id="v5_Record" class="node"><title>v5</title>
<ellipse fill="none" stroke="black" cx="177" cy="-127" rx="29" ry="11"/>
<text text-anchor="middle" x="177" y="-124.8" font-family="sans-serif" font-size="9.00">Record</text>
</g>
<!-- v2&#45;&gt;v5 -->
<g id="edge26" class="edge"><title>v2&#45;&gt;v5</title>
<path fill="none" stroke="green" d="M36.4053,-20.5539C64.3556,-41.5167 136.076,-95.3067 164.818,-116.864"/>
</g>
<!-- v4&#45;&gt;v5 -->
<g id="edge9" class="edge"><title>v4&#45;&gt;v5</title>
<path fill="none" stroke="black" d="M379.488,-180.497C344.735,-171.487 251.693,-147.365 204.812,-135.211"/>
<polygon fill="black" stroke="black" points="199.876,-133.931 205.281,-133.008 202.296,-134.558 204.716,-135.186 204.716,-135.186 204.716,-135.186 202.296,-134.558 204.152,-137.364 199.876,-133.931 199.876,-133.931"/>
</g>
<!-- v4&#45;&gt;v7 -->
<g id="edge10" class="edge"><title>v4&#45;&gt;v7</title>
<path fill="none" stroke="black" d="M382.56,-177.356C367.954,-168.061 341.201,-151.037 323.258,-139.618"/>
<polygon fill="black" stroke="black" points="318.898,-136.844 324.325,-137.631 321.007,-138.187 323.117,-139.529 323.117,-139.529 323.117,-139.529 321.007,-138.187 321.909,-141.427 318.898,-136.844 318.898,-136.844"/>
</g>
<!-- v4&#45;&gt;v14 -->
<g id="edge11" class="edge"><title>v4&#45;&gt;v14</title>
<path fill="none" stroke="black" d="M398.449,-174.753C403.656,-165.917 411.581,-152.469 417.596,-142.261"/>
<polygon fill="black" stroke="black" points="420.209,-137.827 419.609,-143.277 418.94,-139.98 417.671,-142.134 417.671,-142.134 417.671,-142.134 418.94,-139.98 415.732,-140.992 420.209,-137.827 420.209,-137.827"/>
</g>
<!-- v4&#45;&gt;v18 -->
<g id="edge12" class="edge"><title>v4&#45;&gt;v18</title>
<path fill="none" stroke="black" d="M404.665,-178.007C422.918,-168.629 458.489,-150.354 481.203,-138.685"/>
<polygon fill="black" stroke="black" points="485.843,-136.301 482.424,-140.587 483.62,-137.443 481.396,-138.586 481.396,-138.586 481.396,-138.586 483.62,-137.443 480.368,-136.584 485.843,-136.301 485.843,-136.301"/>
</g>
<!-- v11 -->
<g id="v11_Id(1)" class="node"><title>v11</title>
<ellipse fill="none" stroke="black" cx="110" cy="-11" rx="25" ry="11"/>
<text text-anchor="middle" x="110" y="-8.8" font-family="sans-serif" font-size="9.00">Id(1)</text>
</g>
<!-- v5&#45;&gt;v11 -->
<g id="edge13" class="edge"><title>v5&#45;&gt;v11</title>
<path fill="none" stroke="black" d="M166.43,-116.689C157.092,-107.987 143.65,-94.2313 135,-80 124.76,-63.1518 117.687,-41.4417 113.742,-27.1403"/>
<polygon fill="black" stroke="black" points="112.43,-22.2293 115.894,-26.4792 113.075,-24.6446 113.72,-27.0599 113.72,-27.0599 113.72,-27.0599 113.075,-24.6446 111.547,-27.6407 112.43,-22.2293 112.43,-22.2293"/>
</g>
<!-- v12 -->
<g id="v12_Private" class="node"><title>v12</title>
<ellipse fill="none" stroke="black" cx="177" cy="-69" rx="32.5" ry="11"/>
<text text-anchor="middle" x="177" y="-66.8" font-family="sans-serif" font-size="9.00">Private</text>
</g>
<!-- v5&#45;&gt;v12 -->
<g id="edge14" class="edge"><title>v5&#45;&gt;v12</title>
<path fill="none" stroke="black" d="M177,-115.988C177,-107.494 177,-95.1697 177,-85.4169"/>
<polygon fill="black" stroke="black" points="177,-80.3039 179.25,-85.3038 177,-82.8039 177,-85.3039 177,-85.3039 177,-85.3039 177,-82.8039 174.75,-85.3039 177,-80.3039 177,-80.3039"/>
</g>
<!-- v8 -->
<g id="v8_Id(0)" class="node"><title>v8</title>
<ellipse fill="none" stroke="black" cx="240" cy="-11" rx="25" ry="11"/>
<text text-anchor="middle" x="240" y="-8.8" font-family="sans-serif" font-size="9.00">Id(0)</text>
</g>
<!-- v7&#45;&gt;v8 -->
<g id="edge15" class="edge"><title>v7&#45;&gt;v8</title>
<path fill="none" stroke="black" d="M294.341,-116.742C284.943,-108.076 271.463,-94.3432 263,-80 253.073,-63.1753 246.679,-41.46 243.214,-27.1509"/>
<polygon fill="black" stroke="black" points="242.069,-22.2371 245.395,-26.5958 242.636,-24.6718 243.204,-27.1065 243.204,-27.1065 243.204,-27.1065 242.636,-24.6718 241.013,-27.6173 242.069,-22.2371 242.069,-22.2371"/>
</g>
<!-- v9 -->
<g id="v9_Private" class="node"><title>v9</title>
<ellipse fill="none" stroke="black" cx="305" cy="-69" rx="32.5" ry="11"/>
<text text-anchor="middle" x="305" y="-66.8" font-family="sans-serif" font-size="9.00">Private</text>
</g>
<!-- v7&#45;&gt;v9 -->
<g id="edge16" class="edge"><title>v7&#45;&gt;v9</title>
<path fill="none" stroke="black" d="M305,-115.988C305,-107.494 305,-95.1697 305,-85.4169"/>
<polygon fill="black" stroke="black" points="305,-80.3039 307.25,-85.3038 305,-82.8039 305,-85.3039 305,-85.3039 305,-85.3039 305,-82.8039 302.75,-85.3039 305,-80.3039 305,-80.3039"/>
</g>
<!-- v10 -->
<g id="v10_Data" class="node"><title>v10</title>
<ellipse fill="none" stroke="black" cx="305" cy="-11" rx="21.5" ry="11"/>
<text text-anchor="middle" x="305" y="-8.8" font-family="sans-serif" font-size="9.00">Data</text>
</g>
<!-- v9&#45;&gt;v10 -->
<g id="edge17" class="edge"><title>v9&#45;&gt;v10</title>
<path fill="none" stroke="black" d="M305,-57.9883C305,-49.4941 305,-37.1697 305,-27.4169"/>
<polygon fill="black" stroke="black" points="305,-22.3039 307.25,-27.3038 305,-24.8039 305,-27.3039 305,-27.3039 305,-27.3039 305,-24.8039 302.75,-27.3039 305,-22.3039 305,-22.3039"/>
</g>
<!-- v13 -->
<g id="v13_Data" class="node"><title>v13</title>
<ellipse fill="none" stroke="black" cx="175" cy="-11" rx="21.5" ry="11"/>
<text text-anchor="middle" x="175" y="-8.8" font-family="sans-serif" font-size="9.00">Data</text>
</g>
<!-- v12&#45;&gt;v13 -->
<g id="edge18" class="edge"><title>v12&#45;&gt;v13</title>
<path fill="none" stroke="black" d="M176.642,-57.9883C176.339,-49.4941 175.899,-37.1697 175.551,-27.4169"/>
<polygon fill="black" stroke="black" points="175.368,-22.3039 177.795,-27.2203 175.457,-24.8023 175.547,-27.3007 175.547,-27.3007 175.547,-27.3007 175.457,-24.8023 173.298,-27.381 175.368,-22.3039 175.368,-22.3039"/>
</g>
<!-- v15 -->
<g id="v15_Id(2)" class="node"><title>v15</title>
<ellipse fill="none" stroke="black" cx="370" cy="-11" rx="25" ry="11"/>
<text text-anchor="middle" x="370" y="-8.8" font-family="sans-serif" font-size="9.00">Id(2)</text>
</g>
<!-- v14&#45;&gt;v15 -->
<g id="edge19" class="edge"><title>v14&#45;&gt;v15</title>
<path fill="none" stroke="black" d="M417.125,-116.457C409.297,-107.598 398.067,-93.7432 391,-80 382.221,-62.9275 376.362,-41.5297 373.114,-27.3459"/>
<polygon fill="black" stroke="black" points="371.957,-22.1058 375.232,-26.5033 372.496,-24.5471 373.035,-26.9883 373.035,-26.9883 373.035,-26.9883 372.496,-24.5471 370.838,-27.4733 371.957,-22.1058 371.957,-22.1058"/>
</g>
<!-- v16 -->
<g id="v16_Private" class="node"><title>v16</title>
<ellipse fill="none" stroke="black" cx="433" cy="-69" rx="32.5" ry="11"/>
<text text-anchor="middle" x="433" y="-66.8" font-family="sans-serif" font-size="9.00">Private</text>
</g>
<!-- v14&#45;&gt;v16 -->
<g id="edge20" class="edge"><title>v14&#45;&gt;v16</title>
<path fill="none" stroke="black" d="M427.251,-115.988C428.313,-107.494 429.854,-95.1697 431.073,-85.4169"/>
<polygon fill="black" stroke="black" points="431.712,-80.3039 433.324,-85.5444 431.402,-82.7846 431.092,-85.2653 431.092,-85.2653 431.092,-85.2653 431.402,-82.7846 428.859,-84.9861 431.712,-80.3039 431.712,-80.3039"/>
</g>
<!-- v17 -->
<g id="v17_Data" class="node"><title>v17</title>
<ellipse fill="none" stroke="black" cx="435" cy="-11" rx="21.5" ry="11"/>
<text text-anchor="middle" x="435" y="-8.8" font-family="sans-serif" font-size="9.00">Data</text>
</g>
<!-- v16&#45;&gt;v17 -->
<g id="edge21" class="edge"><title>v16&#45;&gt;v17</title>
<path fill="none" stroke="black" d="M433.358,-57.9883C433.661,-49.4941 434.101,-37.1697 434.449,-27.4169"/>
<polygon fill="black" stroke="black" points="434.632,-22.3039 436.702,-27.381 434.543,-24.8023 434.453,-27.3007 434.453,-27.3007 434.453,-27.3007 434.543,-24.8023 432.205,-27.2203 434.632,-22.3039 434.632,-22.3039"/>
</g>
<!-- v19 -->
<g id="v19_Id(3)" class="node"><title>v19</title>
<ellipse fill="none" stroke="black" cx="500" cy="-11" rx="25" ry="11"/>
<text text-anchor="middle" x="500" y="-8.8" font-family="sans-serif" font-size="9.00">Id(3)</text>
</g>
<!-- v18&#45;&gt;v19 -->
<g id="edge22" class="edge"><title>v18&#45;&gt;v19</title>
<path fill="none" stroke="black" d="M501.823,-115.883C501.472,-95.9059 500.689,-51.276 500.273,-27.5402"/>
<polygon fill="black" stroke="black" points="500.18,-22.2579 502.517,-27.2177 500.224,-24.7576 500.268,-27.2572 500.268,-27.2572 500.268,-27.2572 500.224,-24.7576 498.018,-27.2967 500.18,-22.2579 500.18,-22.2579"/>
</g>
<!-- v20 -->
<g id="v20_Private" class="node"><title>v20</title>
<ellipse fill="none" stroke="black" cx="556" cy="-69" rx="32.5" ry="11"/>
<text text-anchor="middle" x="556" y="-66.8" font-family="sans-serif" font-size="9.00">Private</text>
</g>
<!-- v18&#45;&gt;v20 -->
<g id="edge23" class="edge"><title>v18&#45;&gt;v20</title>
<path fill="none" stroke="black" d="M511.16,-116.5C519.874,-107.465 533.073,-93.7761 542.898,-83.5877"/>
<polygon fill="black" stroke="black" points="546.613,-79.7345 544.762,-84.8955 544.878,-81.5341 543.142,-83.3337 543.142,-83.3337 543.142,-83.3337 544.878,-81.5341 541.523,-81.7719 546.613,-79.7345 546.613,-79.7345"/>
</g>
<!-- v21 -->
<g id="v21_Data" class="node"><title>v21</title>
<ellipse fill="none" stroke="black" cx="565" cy="-11" rx="21.5" ry="11"/>
<text text-anchor="middle" x="565" y="-8.8" font-family="sans-serif" font-size="9.00">Data</text>
</g>
<!-- v20&#45;&gt;v21 -->
<g id="edge24" class="edge"><title>v20&#45;&gt;v21</title>
<path fill="none" stroke="black" d="M557.609,-57.9883C558.974,-49.4941 560.955,-37.1697 562.522,-27.4169"/>
<polygon fill="black" stroke="black" points="563.344,-22.3039 564.772,-27.5976 562.947,-24.7722 562.551,-27.2405 562.551,-27.2405 562.551,-27.2405 562.947,-24.7722 560.329,-26.8835 563.344,-22.3039 563.344,-22.3039"/>
</g>
</g>
</svg>
