<?xml version="1.0" encoding="UTF-8" standalone="no"?>
<?xml-stylesheet href="style.css" type="text/css"?>
<!DOCTYPE svg PUBLIC "-//W3C//DTD SVG 1.1//EN"
 "http://www.w3.org/Graphics/SVG/1.1/DTD/svg11.dtd">
<!-- Generated by graphviz version 2.38.0 (20140413.2041)
 -->
<!-- Title: 55.svg Pages: 1 -->
<svg width="1150pt" height="316pt"
 viewBox="0.00 0.00 1150.00 316.00" xmlns="http://www.w3.org/2000/svg" xmlns:xlink="http://www.w3.org/1999/xlink">
<g id="graph0" class="graph" transform="scale(1 1) rotate(0) translate(4 312)">
<title>55.svg</title>
<polygon fill="white" stroke="none" points="-4,4 -4,-312 1146,-312 1146,4 -4,4"/>
<!-- r0 -->
<g id="node1" class="node"><title>r0</title>
<polygon fill="none" stroke="black" stroke-dasharray="5,2" points="793.5,-308 770.5,-308 770.5,-290 793.5,-290 793.5,-308"/>
<text text-anchor="middle" x="782" y="-296.8" font-family="serif" font-size="9.00">0</text>
</g>
<!-- v0 -->
<g id="v0_H" class="node"><title>v0</title>
<ellipse fill="none" stroke="black" cx="782" cy="-243" rx="11" ry="11"/>
<text text-anchor="middle" x="782" y="-240.8" font-family="sans-serif" font-size="9.00">H</text>
</g>
<!-- r0&#45;&gt;v0 -->
<g id="edge1" class="edge"><title>r0&#45;&gt;v0</title>
<path fill="none" stroke="black" d="M782,-289.562C782,-281.453 782,-269.014 782,-259.181"/>
<polygon fill="black" stroke="black" points="782,-254.03 784.25,-259.03 782,-256.53 782,-259.03 782,-259.03 782,-259.03 782,-256.53 779.75,-259.03 782,-254.03 782,-254.03"/>
</g>
<!-- odb -->
<g id="node2" class="node"><title>odb</title>
<text text-anchor="middle" x="1031" y="-296.8" font-family="serif" font-size="9.00">db</text>
</g>
<!-- e8 -->
<g id="node8" class="node"><title>e8</title>
</g>
<!-- odb&#45;&gt;e8 -->
<g id="edge35" class="edge"><title>odb&#45;&gt;e8</title>
<path fill="none" stroke="green" d="M1031,-289.562C1031,-274.375 1031,-244 1031,-244"/>
</g>
<!-- e1 -->
<g id="node3" class="node"><title>e1</title>
</g>
<!-- v4 -->
<g id="v4_Doc" class="node"><title>v4</title>
<ellipse fill="none" stroke="black" cx="774" cy="-69" rx="18" ry="11"/>
<text text-anchor="middle" x="774" y="-66.8" font-family="sans-serif" font-size="9.00">Doc</text>
</g>
<!-- e1&#45;&gt;v4 -->
<g id="edge28" class="edge"><title>e1&#45;&gt;v4</title>
<path fill="none" stroke="green" d="M774,-122.167C774,-113.586 774,-92.5957 774,-80.0117"/>
<polygon fill="green" stroke="green" points="777.5,-125.3 770.5,-125.3 770.5,-123.9 777.5,-123.9 777.5,-125.3"/>
<polyline fill="none" stroke="green" points="774,-126 774,-122.5 "/>
</g>
<!-- e4 -->
<g id="node4" class="node"><title>e4</title>
</g>
<!-- v13 -->
<g id="v13_Record" class="node"><title>v13</title>
<ellipse fill="none" stroke="black" cx="479" cy="-127" rx="29" ry="11"/>
<text text-anchor="middle" x="479" y="-124.8" font-family="sans-serif" font-size="9.00">Record</text>
</g>
<!-- e4&#45;&gt;v13 -->
<g id="edge31" class="edge"><title>e4&#45;&gt;v13</title>
<path fill="none" stroke="green" d="M479,-180.167C479,-171.586 479,-150.596 479,-138.012"/>
<polygon fill="green" stroke="green" points="482.5,-183.3 475.5,-183.3 475.5,-181.9 482.5,-181.9 482.5,-183.3"/>
<polyline fill="none" stroke="green" points="479,-184 479,-180.5 "/>
</g>
<!-- e5 -->
<g id="node5" class="node"><title>e5</title>
</g>
<!-- v23 -->
<g id="v23_Nurse" class="node"><title>v23</title>
<ellipse fill="none" stroke="black" cx="849" cy="-11" rx="25" ry="11"/>
<text text-anchor="middle" x="849" y="-8.8" font-family="sans-serif" font-size="9.00">Nurse</text>
</g>
<!-- e5&#45;&gt;v23 -->
<g id="edge32" class="edge"><title>e5&#45;&gt;v23</title>
<path fill="none" stroke="green" d="M849,-64.1674C849,-55.5862 849,-34.5957 849,-22.0117"/>
<polygon fill="green" stroke="green" points="852.5,-67.3001 845.5,-67.2999 845.5,-65.8999 852.5,-65.9001 852.5,-67.3001"/>
<polyline fill="none" stroke="green" points="849,-68 849,-64.5 "/>
</g>
<!-- e6 -->
<g id="node6" class="node"><title>e6</title>
</g>
<!-- v24 -->
<g id="v24_Nurse" class="node"><title>v24</title>
<ellipse fill="none" stroke="black" cx="917" cy="-11" rx="25" ry="11"/>
<text text-anchor="middle" x="917" y="-8.8" font-family="sans-serif" font-size="9.00">Nurse</text>
</g>
<!-- e6&#45;&gt;v24 -->
<g id="edge33" class="edge"><title>e6&#45;&gt;v24</title>
<path fill="none" stroke="green" d="M907.684,-64.1674C909.217,-55.5862 912.965,-34.5957 915.212,-22.0117"/>
<polygon fill="green" stroke="green" points="910.569,-67.9262 903.678,-66.6956 903.924,-65.3174 910.815,-66.548 910.569,-67.9262"/>
<polyline fill="none" stroke="green" points="907,-68 907.615,-64.5545 "/>
</g>
<!-- e7 -->
<g id="node7" class="node"><title>e7</title>
</g>
<!-- v25 -->
<g id="v25_Nurse" class="node"><title>v25</title>
<ellipse fill="none" stroke="black" cx="1117" cy="-11" rx="25" ry="11"/>
<text text-anchor="middle" x="1117" y="-8.8" font-family="sans-serif" font-size="9.00">Nurse</text>
</g>
<!-- e7&#45;&gt;v25 -->
<g id="edge34" class="edge"><title>e7&#45;&gt;v25</title>
<path fill="none" stroke="green" d="M1117,-64.1674C1117,-55.5862 1117,-34.5957 1117,-22.0117"/>
<polygon fill="green" stroke="green" points="1120.5,-67.3001 1113.5,-67.2999 1113.5,-65.8999 1120.5,-65.9001 1120.5,-67.3001"/>
<polyline fill="none" stroke="green" points="1117,-68 1117,-64.5 "/>
</g>
<!-- v1 -->
<g id="v1_DB" class="node"><title>v1</title>
<ellipse fill="none" stroke="black" cx="425" cy="-185" rx="14.5" ry="11"/>
<text text-anchor="middle" x="425" y="-182.8" font-family="sans-serif" font-size="9.00">DB</text>
</g>
<!-- e8&#45;&gt;v1 -->
<g id="edge36" class="edge"><title>e8&#45;&gt;v1</title>
<path fill="none" stroke="green" d="M1031,-242C1031,-242 716.702,-234.088 469,-196 458.625,-194.405 447.056,-191.74 438.385,-189.562"/>
</g>
<!-- v3 -->
<g id="v3_DBadmin" class="node"><title>v3</title>
<ellipse fill="none" stroke="black" cx="773" cy="-11" rx="32.5" ry="11"/>
<text text-anchor="middle" x="773" y="-8.8" font-family="sans-serif" font-size="9.00">DBadmin</text>
</g>
<!-- e8&#45;&gt;v3 -->
<g id="edge37" class="edge"><title>e8&#45;&gt;v3</title>
<path fill="none" stroke="green" d="M1031,-242C1031,-242 992.083,-117.257 916,-58 897.482,-43.5776 834.308,-26.695 798.431,-17.9421"/>
</g>
<!-- e8&#45;&gt;v4 -->
<g id="edge38" class="edge"><title>e8&#45;&gt;v4</title>
<path fill="none" stroke="green" d="M1031,-242C1031,-242 835.112,-110.9 785.375,-77.6126"/>
</g>
<!-- e8&#45;&gt;v23 -->
<g id="edge39" class="edge"><title>e8&#45;&gt;v23</title>
<path fill="none" stroke="green" d="M1031,-242C1031,-242 1044.65,-119.995 988,-58 983.831,-53.4379 905.76,-29.2548 868.49,-17.8989"/>
</g>
<!-- e8&#45;&gt;v24 -->
<g id="edge40" class="edge"><title>e8&#45;&gt;v24</title>
<path fill="none" stroke="green" d="M1031,-242C1031,-242 1056.3,-219.953 1064,-196 1082.78,-137.612 1100.32,-107.423 1064,-58 1035.89,-19.752 976.092,-12.4288 942.061,-11.5341"/>
</g>
<!-- e8&#45;&gt;v25 -->
<g id="edge41" class="edge"><title>e8&#45;&gt;v25</title>
<path fill="none" stroke="green" d="M1031,-242C1031,-242 1080.77,-227.033 1102,-196 1137.15,-144.618 1132,-119.964 1126,-58 1124.79,-45.5266 1121.78,-31.4139 1119.57,-22.148"/>
</g>
<!-- v0&#45;&gt;v1 -->
<g id="edge2" class="edge"><title>v0&#45;&gt;v1</title>
<path fill="none" stroke="black" d="M771.138,-240.714C730.916,-235.885 586.698,-217.989 469,-196 460.616,-194.434 451.405,-192.391 443.587,-190.56"/>
<polygon fill="black" stroke="black" points="438.424,-189.335 443.808,-188.3 440.856,-189.912 443.289,-190.49 443.289,-190.49 443.289,-190.49 440.856,-189.912 442.769,-192.679 438.424,-189.335 438.424,-189.335"/>
</g>
<!-- v0&#45;&gt;v3 -->
<g id="edge3" class="edge"><title>v0&#45;&gt;v3</title>
<path fill="none" stroke="black" d="M777.333,-232.709C764.309,-205.549 729.628,-124.04 747,-58 749.993,-46.6221 756.513,-35.0993 762.274,-26.4325"/>
<polygon fill="black" stroke="black" points="765.37,-21.9304 764.391,-27.3253 763.953,-23.9904 762.537,-26.0504 762.537,-26.0504 762.537,-26.0504 763.953,-23.9904 760.683,-24.7756 765.37,-21.9304 765.37,-21.9304"/>
</g>
<!-- v0&#45;&gt;v4 -->
<g id="edge4" class="edge"><title>v0&#45;&gt;v4</title>
<path fill="none" stroke="black" d="M778.927,-232.227C772.65,-211.086 759.326,-159.502 764,-116 765.124,-105.539 767.646,-93.9669 769.876,-85.0462"/>
<polygon fill="black" stroke="black" points="771.143,-80.1288 772.075,-85.532 770.519,-82.5498 769.896,-84.9708 769.896,-84.9708 769.896,-84.9708 770.519,-82.5498 767.717,-84.4095 771.143,-80.1288 771.143,-80.1288"/>
</g>
<!-- v0&#45;&gt;v23 -->
<g id="edge5" class="edge"><title>v0&#45;&gt;v23</title>
<path fill="none" stroke="black" d="M784.879,-232.117C795.421,-195.928 831.962,-70.489 844.633,-26.9918"/>
<polygon fill="black" stroke="black" points="846.056,-22.105 846.818,-27.5348 845.357,-24.5053 844.658,-26.9055 844.658,-26.9055 844.658,-26.9055 845.357,-24.5053 842.498,-26.2762 846.056,-22.105 846.056,-22.105"/>
</g>
<!-- v0&#45;&gt;v24 -->
<g id="edge6" class="edge"><title>v0&#45;&gt;v24</title>
<path fill="none" stroke="black" d="M787.915,-233.652C794.308,-224.534 804.695,-209.434 813,-196 851.097,-134.378 892.291,-58.3615 909.144,-26.8071"/>
<polygon fill="black" stroke="black" points="911.635,-22.1336 911.269,-27.6043 910.459,-24.3397 909.283,-26.5457 909.283,-26.5457 909.283,-26.5457 910.459,-24.3397 907.298,-25.4872 911.635,-22.1336 911.635,-22.1336"/>
</g>
<!-- v0&#45;&gt;v25 -->
<g id="edge7" class="edge"><title>v0&#45;&gt;v25</title>
<path fill="none" stroke="black" d="M790.618,-236.083C835.134,-205.52 1039.31,-65.3414 1099.96,-23.6978"/>
<polygon fill="black" stroke="black" points="1104.4,-20.6474 1101.56,-25.3324 1102.34,-22.0624 1100.28,-23.4775 1100.28,-23.4775 1100.28,-23.4775 1102.34,-22.0624 1099.01,-21.6226 1104.4,-20.6474 1104.4,-20.6474"/>
</g>
<!-- v2 -->
<g id="v2_Record" class="node"><title>v2</title>
<ellipse fill="none" stroke="black" cx="88" cy="-127" rx="29" ry="11"/>
<text text-anchor="middle" x="88" y="-124.8" font-family="sans-serif" font-size="9.00">Record</text>
</g>
<!-- v1&#45;&gt;v2 -->
<g id="edge8" class="edge"><title>v1&#45;&gt;v2</title>
<path fill="none" stroke="black" d="M410.949,-181.665C360.807,-173.333 189.907,-144.934 119.109,-133.169"/>
<polygon fill="black" stroke="black" points="113.783,-132.284 119.084,-130.885 116.249,-132.694 118.716,-133.104 118.716,-133.104 118.716,-133.104 116.249,-132.694 118.347,-135.324 113.783,-132.284 113.783,-132.284"/>
</g>
<!-- v6 -->
<g id="v6_Record" class="node"><title>v6</title>
<ellipse fill="none" stroke="black" cx="248" cy="-127" rx="29" ry="11"/>
<text text-anchor="middle" x="248" y="-124.8" font-family="sans-serif" font-size="9.00">Record</text>
</g>
<!-- v1&#45;&gt;v6 -->
<g id="edge9" class="edge"><title>v1&#45;&gt;v6</title>
<path fill="none" stroke="black" d="M411.985,-179.882C382.951,-170.696 312.428,-148.384 274.004,-136.227"/>
<polygon fill="black" stroke="black" points="269.029,-134.653 274.475,-134.016 271.413,-135.408 273.796,-136.162 273.796,-136.162 273.796,-136.162 271.413,-135.408 273.118,-138.307 269.029,-134.653 269.029,-134.653"/>
</g>
<!-- v8 -->
<g id="v8_Record" class="node"><title>v8</title>
<ellipse fill="none" stroke="black" cx="403" cy="-127" rx="29" ry="11"/>
<text text-anchor="middle" x="403" y="-124.8" font-family="sans-serif" font-size="9.00">Record</text>
</g>
<!-- v1&#45;&gt;v8 -->
<g id="edge10" class="edge"><title>v1&#45;&gt;v8</title>
<path fill="none" stroke="black" d="M421.168,-174.246C417.771,-165.6 412.76,-152.843 408.86,-142.916"/>
<polygon fill="black" stroke="black" points="406.936,-138.02 410.859,-141.851 407.85,-140.347 408.765,-142.674 408.765,-142.674 408.765,-142.674 407.85,-140.347 406.67,-143.496 406.936,-138.02 406.936,-138.02"/>
</g>
<!-- v1&#45;&gt;v13 -->
<g id="edge11" class="edge"><title>v1&#45;&gt;v13</title>
<path fill="none" stroke="black" d="M432.968,-175.737C441.643,-166.741 455.651,-152.214 465.939,-141.545"/>
<polygon fill="black" stroke="black" points="469.544,-137.807 467.693,-142.968 467.808,-139.606 466.073,-141.406 466.073,-141.406 466.073,-141.406 467.808,-139.606 464.453,-139.844 469.544,-137.807 469.544,-137.807"/>
</g>
<!-- v5 -->
<g id="v5_Ref" class="node"><title>v5</title>
<ellipse fill="none" stroke="black" cx="596" cy="-11" rx="18" ry="11"/>
<text text-anchor="middle" x="596" y="-8.8" font-family="sans-serif" font-size="9.00">Ref</text>
</g>
<!-- v2&#45;&gt;v5 -->
<g id="edge27" class="edge"><title>v2&#45;&gt;v5</title>
<path fill="none" stroke="green" d="M75.1811,-116.867C57.2659,-103.042 28.7679,-76.4614 46,-58 85.6702,-15.4997 511.091,-33.8885 568,-22 572.547,-21.05 577.358,-19.532 581.685,-17.9628"/>
</g>
<!-- v10 -->
<g id="v10_Id(0)" class="node"><title>v10</title>
<ellipse fill="none" stroke="black" cx="25" cy="-11" rx="25" ry="11"/>
<text text-anchor="middle" x="25" y="-8.8" font-family="sans-serif" font-size="9.00">Id(0)</text>
</g>
<!-- v2&#45;&gt;v10 -->
<g id="edge12" class="edge"><title>v2&#45;&gt;v10</title>
<path fill="none" stroke="black" d="M76.8792,-116.457C67.4399,-107.809 54.164,-94.2668 46,-80 36.3808,-63.1901 30.6681,-41.4714 27.6844,-27.1576"/>
<polygon fill="black" stroke="black" points="26.7064,-22.2419 29.8889,-26.7067 27.1942,-24.6939 27.6821,-27.1458 27.6821,-27.1458 27.6821,-27.1458 27.1942,-24.6939 25.4754,-27.5849 26.7064,-22.2419 26.7064,-22.2419"/>
</g>
<!-- v11 -->
<g id="v11_Private" class="node"><title>v11</title>
<ellipse fill="none" stroke="black" cx="88" cy="-69" rx="32.5" ry="11"/>
<text text-anchor="middle" x="88" y="-66.8" font-family="sans-serif" font-size="9.00">Private</text>
</g>
<!-- v2&#45;&gt;v11 -->
<g id="edge13" class="edge"><title>v2&#45;&gt;v11</title>
<path fill="none" stroke="black" d="M88,-115.988C88,-107.494 88,-95.1697 88,-85.4169"/>
<polygon fill="black" stroke="black" points="88,-80.3039 90.2501,-85.3038 88,-82.8039 88.0001,-85.3039 88.0001,-85.3039 88.0001,-85.3039 88,-82.8039 85.7501,-85.3039 88,-80.3039 88,-80.3039"/>
</g>
<!-- v4&#45;&gt;v5 -->
<g id="edge14" class="edge"><title>v4&#45;&gt;v5</title>
<path fill="none" stroke="black" d="M758.032,-63.4717C730.371,-55.5531 671.82,-38.4611 623,-22 620.581,-21.1845 618.053,-20.2964 615.556,-19.3973"/>
<polygon fill="black" stroke="black" points="610.517,-17.5556 615.986,-17.1588 612.865,-18.4138 615.213,-19.2721 615.213,-19.2721 615.213,-19.2721 612.865,-18.4138 614.441,-21.3853 610.517,-17.5556 610.517,-17.5556"/>
</g>
<!-- v7 -->
<g id="v7_Ref" class="node"><title>v7</title>
<ellipse fill="none" stroke="black" cx="650" cy="-11" rx="18" ry="11"/>
<text text-anchor="middle" x="650" y="-8.8" font-family="sans-serif" font-size="9.00">Ref</text>
</g>
<!-- v4&#45;&gt;v7 -->
<g id="edge15" class="edge"><title>v4&#45;&gt;v7</title>
<path fill="none" stroke="black" d="M760.256,-61.7931C737.91,-51.7015 693.679,-31.7258 668.562,-20.3828"/>
<polygon fill="black" stroke="black" points="663.806,-18.2347 669.288,-18.2421 666.084,-19.2637 668.362,-20.2927 668.362,-20.2927 668.362,-20.2927 666.084,-19.2637 667.436,-22.3433 663.806,-18.2347 663.806,-18.2347"/>
</g>
<!-- v9 -->
<g id="v9_Ref" class="node"><title>v9</title>
<ellipse fill="none" stroke="black" cx="704" cy="-11" rx="18" ry="11"/>
<text text-anchor="middle" x="704" y="-8.8" font-family="sans-serif" font-size="9.00">Ref</text>
</g>
<!-- v4&#45;&gt;v9 -->
<g id="edge16" class="edge"><title>v4&#45;&gt;v9</title>
<path fill="none" stroke="black" d="M763.671,-59.737C751.677,-50.1419 731.819,-34.2552 718.335,-23.4682"/>
<polygon fill="black" stroke="black" points="714.371,-20.2969 719.681,-21.6634 716.323,-21.8586 718.275,-23.4204 718.275,-23.4204 718.275,-23.4204 716.323,-21.8586 716.87,-25.1774 714.371,-20.2969 714.371,-20.2969"/>
</g>
<!-- v6&#45;&gt;v7 -->
<g id="edge29" class="edge"><title>v6&#45;&gt;v7</title>
<path fill="none" stroke="green" d="M235.221,-116.904C217.358,-103.128 188.928,-76.6094 206,-58 237.438,-23.7305 577.619,-32.1676 623,-22 627.292,-21.0383 631.824,-19.5561 635.924,-18.0249"/>
</g>
<!-- v17 -->
<g id="v17_Id(2)" class="node"><title>v17</title>
<ellipse fill="none" stroke="black" cx="187" cy="-11" rx="25" ry="11"/>
<text text-anchor="middle" x="187" y="-8.8" font-family="sans-serif" font-size="9.00">Id(2)</text>
</g>
<!-- v6&#45;&gt;v17 -->
<g id="edge17" class="edge"><title>v6&#45;&gt;v17</title>
<path fill="none" stroke="black" d="M236.783,-116.511C227.282,-107.897 213.97,-94.376 206,-80 196.765,-63.3432 191.741,-41.8565 189.219,-27.5386"/>
<polygon fill="black" stroke="black" points="188.342,-22.2438 191.379,-26.8092 188.75,-24.7102 189.159,-27.1767 189.159,-27.1767 189.159,-27.1767 188.75,-24.7102 186.939,-27.5441 188.342,-22.2438 188.342,-22.2438"/>
</g>
<!-- v18 -->
<g id="v18_Private" class="node"><title>v18</title>
<ellipse fill="none" stroke="black" cx="248" cy="-69" rx="32.5" ry="11"/>
<text text-anchor="middle" x="248" y="-66.8" font-family="sans-serif" font-size="9.00">Private</text>
</g>
<!-- v6&#45;&gt;v18 -->
<g id="edge18" class="edge"><title>v6&#45;&gt;v18</title>
<path fill="none" stroke="black" d="M248,-115.988C248,-107.494 248,-95.1697 248,-85.4169"/>
<polygon fill="black" stroke="black" points="248,-80.3039 250.25,-85.3038 248,-82.8039 248,-85.3039 248,-85.3039 248,-85.3039 248,-82.8039 245.75,-85.3039 248,-80.3039 248,-80.3039"/>
</g>
<!-- v8&#45;&gt;v9 -->
<g id="edge30" class="edge"><title>v8&#45;&gt;v9</title>
<path fill="none" stroke="green" d="M391.434,-116.817C375.294,-102.928 349.728,-76.2638 366,-58 412.28,-6.05327 609.339,-38.1977 677,-22 681.278,-20.9759 685.805,-19.4742 689.905,-17.9443"/>
</g>
<!-- v20 -->
<g id="v20_Id(3)" class="node"><title>v20</title>
<ellipse fill="none" stroke="black" cx="343" cy="-11" rx="25" ry="11"/>
<text text-anchor="middle" x="343" y="-8.8" font-family="sans-serif" font-size="9.00">Id(3)</text>
</g>
<!-- v8&#45;&gt;v20 -->
<g id="edge19" class="edge"><title>v8&#45;&gt;v20</title>
<path fill="none" stroke="black" d="M393.675,-116.502C385.439,-107.673 373.591,-93.8378 366,-80 356.604,-62.873 350.091,-41.2255 346.454,-27.0146"/>
<polygon fill="black" stroke="black" points="345.244,-22.1376 348.632,-26.4486 345.846,-24.564 346.448,-26.9904 346.448,-26.9904 346.448,-26.9904 345.846,-24.564 344.264,-27.5323 345.244,-22.1376 345.244,-22.1376"/>
</g>
<!-- v21 -->
<g id="v21_Private" class="node"><title>v21</title>
<ellipse fill="none" stroke="black" cx="408" cy="-69" rx="32.5" ry="11"/>
<text text-anchor="middle" x="408" y="-66.8" font-family="sans-serif" font-size="9.00">Private</text>
</g>
<!-- v8&#45;&gt;v21 -->
<g id="edge20" class="edge"><title>v8&#45;&gt;v21</title>
<path fill="none" stroke="black" d="M403.894,-115.988C404.652,-107.494 405.753,-95.1697 406.623,-85.4169"/>
<polygon fill="black" stroke="black" points="407.08,-80.3039 408.876,-85.4842 406.858,-82.794 406.635,-85.2841 406.635,-85.2841 406.635,-85.2841 406.858,-82.794 404.394,-85.0839 407.08,-80.3039 407.08,-80.3039"/>
</g>
<!-- v12 -->
<g id="v12_Data" class="node"><title>v12</title>
<ellipse fill="none" stroke="black" cx="90" cy="-11" rx="21.5" ry="11"/>
<text text-anchor="middle" x="90" y="-8.8" font-family="sans-serif" font-size="9.00">Data</text>
</g>
<!-- v11&#45;&gt;v12 -->
<g id="edge21" class="edge"><title>v11&#45;&gt;v12</title>
<path fill="none" stroke="black" d="M88.3576,-57.9883C88.6609,-49.4941 89.1011,-37.1697 89.4494,-27.4169"/>
<polygon fill="black" stroke="black" points="89.632,-22.3039 91.702,-27.381 89.5427,-24.8023 89.4535,-27.3007 89.4535,-27.3007 89.4535,-27.3007 89.5427,-24.8023 87.2049,-27.2203 89.632,-22.3039 89.632,-22.3039"/>
</g>
<!-- v14 -->
<g id="v14_Id(1)" class="node"><title>v14</title>
<ellipse fill="none" stroke="black" cx="473" cy="-11" rx="25" ry="11"/>
<text text-anchor="middle" x="473" y="-8.8" font-family="sans-serif" font-size="9.00">Id(1)</text>
</g>
<!-- v13&#45;&gt;v14 -->
<g id="edge22" class="edge"><title>v13&#45;&gt;v14</title>
<path fill="none" stroke="black" d="M478.468,-115.883C477.416,-95.9059 475.067,-51.276 473.818,-27.5402"/>
<polygon fill="black" stroke="black" points="473.54,-22.2579 476.05,-27.1327 473.671,-24.7545 473.803,-27.251 473.803,-27.251 473.803,-27.251 473.671,-24.7545 471.556,-27.3693 473.54,-22.2579 473.54,-22.2579"/>
</g>
<!-- v15 -->
<g id="v15_Private" class="node"><title>v15</title>
<ellipse fill="none" stroke="black" cx="536" cy="-69" rx="32.5" ry="11"/>
<text text-anchor="middle" x="536" y="-66.8" font-family="sans-serif" font-size="9.00">Private</text>
</g>
<!-- v13&#45;&gt;v15 -->
<g id="edge23" class="edge"><title>v13&#45;&gt;v15</title>
<path fill="none" stroke="black" d="M488.669,-116.5C497.948,-107.385 512.046,-93.5334 522.444,-83.318"/>
<polygon fill="black" stroke="black" points="526.092,-79.7345 524.102,-84.8436 524.308,-81.4865 522.525,-83.2386 522.525,-83.2386 522.525,-83.2386 524.308,-81.4865 520.948,-81.6336 526.092,-79.7345 526.092,-79.7345"/>
</g>
<!-- v16 -->
<g id="v16_Data" class="node"><title>v16</title>
<ellipse fill="none" stroke="black" cx="538" cy="-11" rx="21.5" ry="11"/>
<text text-anchor="middle" x="538" y="-8.8" font-family="sans-serif" font-size="9.00">Data</text>
</g>
<!-- v15&#45;&gt;v16 -->
<g id="edge24" class="edge"><title>v15&#45;&gt;v16</title>
<path fill="none" stroke="black" d="M536.358,-57.9883C536.661,-49.4941 537.101,-37.1697 537.449,-27.4169"/>
<polygon fill="black" stroke="black" points="537.632,-22.3039 539.702,-27.381 537.543,-24.8023 537.453,-27.3007 537.453,-27.3007 537.453,-27.3007 537.543,-24.8023 535.205,-27.2203 537.632,-22.3039 537.632,-22.3039"/>
</g>
<!-- v19 -->
<g id="v19_Data" class="node"><title>v19</title>
<ellipse fill="none" stroke="black" cx="252" cy="-11" rx="21.5" ry="11"/>
<text text-anchor="middle" x="252" y="-8.8" font-family="sans-serif" font-size="9.00">Data</text>
</g>
<!-- v18&#45;&gt;v19 -->
<g id="edge25" class="edge"><title>v18&#45;&gt;v19</title>
<path fill="none" stroke="black" d="M248.715,-57.9883C249.322,-49.4941 250.202,-37.1697 250.899,-27.4169"/>
<polygon fill="black" stroke="black" points="251.264,-22.3039 253.152,-27.4515 251.086,-24.7975 250.908,-27.2912 250.908,-27.2912 250.908,-27.2912 251.086,-24.7975 248.663,-27.1308 251.264,-22.3039 251.264,-22.3039"/>
</g>
<!-- v22 -->
<g id="v22_Data" class="node"><title>v22</title>
<ellipse fill="none" stroke="black" cx="408" cy="-11" rx="21.5" ry="11"/>
<text text-anchor="middle" x="408" y="-8.8" font-family="sans-serif" font-size="9.00">Data</text>
</g>
<!-- v21&#45;&gt;v22 -->
<g id="edge26" class="edge"><title>v21&#45;&gt;v22</title>
<path fill="none" stroke="black" d="M408,-57.9883C408,-49.4941 408,-37.1697 408,-27.4169"/>
<polygon fill="black" stroke="black" points="408,-22.3039 410.25,-27.3038 408,-24.8039 408,-27.3039 408,-27.3039 408,-27.3039 408,-24.8039 405.75,-27.3039 408,-22.3039 408,-22.3039"/>
</g>
</g>
</svg>
