<?xml version="1.0" encoding="UTF-8" standalone="no"?>
<?xml-stylesheet href="style.css" type="text/css"?>
<!DOCTYPE svg PUBLIC "-//W3C//DTD SVG 1.1//EN"
 "http://www.w3.org/Graphics/SVG/1.1/DTD/svg11.dtd">
<!-- Generated by graphviz version 2.38.0 (20140413.2041)
 -->
<!-- Title: 6.svg Pages: 1 -->
<svg width="991pt" height="316pt"
 viewBox="0.00 0.00 991.25 316.00" xmlns="http://www.w3.org/2000/svg" xmlns:xlink="http://www.w3.org/1999/xlink">
<g id="graph0" class="graph" transform="scale(1 1) rotate(0) translate(4 312)">
<title>6.svg</title>
<polygon fill="white" stroke="none" points="-4,4 -4,-312 987.25,-312 987.25,4 -4,4"/>
<!-- r0 -->
<g id="node1" class="node"><title>r0</title>
<polygon fill="none" stroke="black" stroke-dasharray="5,2" points="356.25,-308 333.25,-308 333.25,-290 356.25,-290 356.25,-308"/>
<text text-anchor="middle" x="344.75" y="-296.8" font-family="serif" font-size="9.00">0</text>
</g>
<!-- v0 -->
<g id="v0_H" class="node"><title>v0</title>
<ellipse fill="none" stroke="black" cx="344.75" cy="-243" rx="11" ry="11"/>
<text text-anchor="middle" x="344.75" y="-240.8" font-family="sans-serif" font-size="9.00">H</text>
</g>
<!-- r0&#45;&gt;v0 -->
<g id="edge1" class="edge"><title>r0&#45;&gt;v0</title>
<path fill="none" stroke="black" d="M344.75,-289.562C344.75,-281.453 344.75,-269.014 344.75,-259.181"/>
<polygon fill="black" stroke="black" points="344.75,-254.03 347,-259.03 344.75,-256.53 344.75,-259.03 344.75,-259.03 344.75,-259.03 344.75,-256.53 342.5,-259.03 344.75,-254.03 344.75,-254.03"/>
</g>
<!-- odb -->
<g id="node2" class="node"><title>odb</title>
<text text-anchor="middle" x="278.75" y="-296.8" font-family="serif" font-size="9.00">db</text>
</g>
<!-- e8 -->
<g id="node10" class="node"><title>e8</title>
</g>
<!-- odb&#45;&gt;e8 -->
<g id="edge33" class="edge"><title>odb&#45;&gt;e8</title>
<path fill="none" stroke="green" d="M278.75,-289.562C278.75,-274.375 278.75,-244 278.75,-244"/>
</g>
<!-- e1 -->
<g id="node3" class="node"><title>e1</title>
</g>
<!-- v4 -->
<g id="v4_Doc" class="node"><title>v4</title>
<ellipse fill="none" stroke="black" cx="32.7497" cy="-69" rx="18" ry="11"/>
<text text-anchor="middle" x="32.7497" y="-66.8" font-family="sans-serif" font-size="9.00">Doc</text>
</g>
<!-- e1&#45;&gt;v4 -->
<g id="edge26" class="edge"><title>e1&#45;&gt;v4</title>
<path fill="none" stroke="green" d="M32.7497,-122.167C32.7497,-113.586 32.7497,-92.5957 32.7497,-80.0117"/>
<polygon fill="green" stroke="green" points="36.2497,-125.3 29.2497,-125.3 29.2498,-123.9 36.2498,-123.9 36.2497,-125.3"/>
<polyline fill="none" stroke="green" points="32.7497,-126 32.7498,-122.5 "/>
</g>
<!-- e2 -->
<g id="node4" class="node"><title>e2</title>
</g>
<!-- v6 -->
<g id="v6_Record" class="node"><title>v6</title>
<ellipse fill="none" stroke="black" cx="632.75" cy="-127" rx="29" ry="11"/>
<text text-anchor="middle" x="632.75" y="-124.8" font-family="sans-serif" font-size="9.00">Record</text>
</g>
<!-- e2&#45;&gt;v6 -->
<g id="edge27" class="edge"><title>e2&#45;&gt;v6</title>
<path fill="none" stroke="green" d="M632.75,-180.167C632.75,-171.586 632.75,-150.596 632.75,-138.012"/>
<polygon fill="green" stroke="green" points="636.25,-183.3 629.25,-183.3 629.25,-181.9 636.25,-181.9 636.25,-183.3"/>
<polyline fill="none" stroke="green" points="632.75,-184 632.75,-180.5 "/>
</g>
<!-- e3 -->
<g id="node5" class="node"><title>e3</title>
</g>
<!-- v13 -->
<g id="v13_Record" class="node"><title>v13</title>
<ellipse fill="none" stroke="black" cx="757.75" cy="-127" rx="29" ry="11"/>
<text text-anchor="middle" x="757.75" y="-124.8" font-family="sans-serif" font-size="9.00">Record</text>
</g>
<!-- e3&#45;&gt;v13 -->
<g id="edge28" class="edge"><title>e3&#45;&gt;v13</title>
<path fill="none" stroke="green" d="M757.75,-180.167C757.75,-171.586 757.75,-150.596 757.75,-138.012"/>
<polygon fill="green" stroke="green" points="761.25,-183.3 754.25,-183.3 754.25,-181.9 761.25,-181.9 761.25,-183.3"/>
<polyline fill="none" stroke="green" points="757.75,-184 757.75,-180.5 "/>
</g>
<!-- e4 -->
<g id="node6" class="node"><title>e4</title>
</g>
<!-- v17 -->
<g id="v17_Record" class="node"><title>v17</title>
<ellipse fill="none" stroke="black" cx="887.75" cy="-127" rx="29" ry="11"/>
<text text-anchor="middle" x="887.75" y="-124.8" font-family="sans-serif" font-size="9.00">Record</text>
</g>
<!-- e4&#45;&gt;v17 -->
<g id="edge29" class="edge"><title>e4&#45;&gt;v17</title>
<path fill="none" stroke="green" d="M887.75,-180.167C887.75,-171.586 887.75,-150.596 887.75,-138.012"/>
<polygon fill="green" stroke="green" points="891.25,-183.3 884.25,-183.3 884.25,-181.9 891.25,-181.9 891.25,-183.3"/>
<polyline fill="none" stroke="green" points="887.75,-184 887.75,-180.5 "/>
</g>
<!-- e5 -->
<g id="node7" class="node"><title>e5</title>
</g>
<!-- v21 -->
<g id="v21_Nurse" class="node"><title>v21</title>
<ellipse fill="none" stroke="black" cx="204.75" cy="-11" rx="25" ry="11"/>
<text text-anchor="middle" x="204.75" y="-8.8" font-family="sans-serif" font-size="9.00">Nurse</text>
</g>
<!-- e5&#45;&gt;v21 -->
<g id="edge30" class="edge"><title>e5&#45;&gt;v21</title>
<path fill="none" stroke="green" d="M204.75,-64.1674C204.75,-55.5862 204.75,-34.5957 204.75,-22.0117"/>
<polygon fill="green" stroke="green" points="208.25,-67.3001 201.25,-67.2999 201.25,-65.8999 208.25,-65.9001 208.25,-67.3001"/>
<polyline fill="none" stroke="green" points="204.75,-68 204.75,-64.5 "/>
</g>
<!-- e6 -->
<g id="node8" class="node"><title>e6</title>
</g>
<!-- v22 -->
<g id="v22_Nurse" class="node"><title>v22</title>
<ellipse fill="none" stroke="black" cx="300.75" cy="-11" rx="25" ry="11"/>
<text text-anchor="middle" x="300.75" y="-8.8" font-family="sans-serif" font-size="9.00">Nurse</text>
</g>
<!-- e6&#45;&gt;v22 -->
<g id="edge31" class="edge"><title>e6&#45;&gt;v22</title>
<path fill="none" stroke="green" d="M300.75,-64.1674C300.75,-55.5862 300.75,-34.5957 300.75,-22.0117"/>
<polygon fill="green" stroke="green" points="304.25,-67.3001 297.25,-67.2999 297.25,-65.8999 304.25,-65.9001 304.25,-67.3001"/>
<polyline fill="none" stroke="green" points="300.75,-68 300.75,-64.5 "/>
</g>
<!-- e7 -->
<g id="node9" class="node"><title>e7</title>
</g>
<!-- v23 -->
<g id="v23_Nurse" class="node"><title>v23</title>
<ellipse fill="none" stroke="black" cx="396.75" cy="-11" rx="25" ry="11"/>
<text text-anchor="middle" x="396.75" y="-8.8" font-family="sans-serif" font-size="9.00">Nurse</text>
</g>
<!-- e7&#45;&gt;v23 -->
<g id="edge32" class="edge"><title>e7&#45;&gt;v23</title>
<path fill="none" stroke="green" d="M396.75,-64.1674C396.75,-55.5862 396.75,-34.5957 396.75,-22.0117"/>
<polygon fill="green" stroke="green" points="400.25,-67.3001 393.25,-67.2999 393.25,-65.8999 400.25,-65.9001 400.25,-67.3001"/>
<polyline fill="none" stroke="green" points="396.75,-68 396.75,-64.5 "/>
</g>
<!-- v1 -->
<g id="v1_DB" class="node"><title>v1</title>
<ellipse fill="none" stroke="black" cx="665.75" cy="-185" rx="14.5" ry="11"/>
<text text-anchor="middle" x="665.75" y="-182.8" font-family="sans-serif" font-size="9.00">DB</text>
</g>
<!-- e8&#45;&gt;v1 -->
<g id="edge34" class="edge"><title>e8&#45;&gt;v1</title>
<path fill="none" stroke="green" d="M278.75,-242C278.75,-242 304.107,-235.407 324.75,-232 464.652,-208.91 504.502,-231.621 641.75,-196 645.769,-194.957 649.999,-193.372 653.77,-191.769"/>
</g>
<!-- v3 -->
<g id="v3_DBadmin" class="node"><title>v3</title>
<ellipse fill="none" stroke="black" cx="128.75" cy="-11" rx="32.5" ry="11"/>
<text text-anchor="middle" x="128.75" y="-8.8" font-family="sans-serif" font-size="9.00">DBadmin</text>
</g>
<!-- e8&#45;&gt;v3 -->
<g id="edge35" class="edge"><title>e8&#45;&gt;v3</title>
<path fill="none" stroke="green" d="M278.75,-242C278.75,-242 197.179,-239.206 161.75,-196 118.328,-143.049 124.066,-52.3863 127.425,-22.149"/>
</g>
<!-- e8&#45;&gt;v4 -->
<g id="edge36" class="edge"><title>e8&#45;&gt;v4</title>
<path fill="none" stroke="green" d="M278.75,-242C278.75,-242 153.006,-253.03 85.7497,-196 66.9255,-180.038 43.7024,-106.835 35.6555,-79.9444"/>
</g>
<!-- e8&#45;&gt;v21 -->
<g id="edge37" class="edge"><title>e8&#45;&gt;v21</title>
<path fill="none" stroke="green" d="M278.75,-242C278.75,-242 265.548,-217.078 257.75,-196 233.757,-131.15 213.764,-50.2125 207.11,-22.1408"/>
</g>
<!-- e8&#45;&gt;v22 -->
<g id="edge38" class="edge"><title>e8&#45;&gt;v22</title>
<path fill="none" stroke="green" d="M278.75,-242C278.75,-242 317.749,-140.544 309.75,-58 308.541,-45.5266 305.53,-31.4139 303.322,-22.148"/>
</g>
<!-- e8&#45;&gt;v23 -->
<g id="edge39" class="edge"><title>e8&#45;&gt;v23</title>
<path fill="none" stroke="green" d="M278.75,-242C278.75,-242 375.893,-166.479 405.75,-80 412.59,-60.1885 405.771,-35.4772 400.841,-21.9673"/>
</g>
<!-- v0&#45;&gt;v1 -->
<g id="edge2" class="edge"><title>v0&#45;&gt;v1</title>
<path fill="none" stroke="black" d="M355.74,-241.257C395.14,-238.394 532.756,-226.661 641.75,-196 644.123,-195.332 646.577,-194.494 648.968,-193.589"/>
<polygon fill="black" stroke="black" points="653.743,-191.669 649.943,-195.622 651.423,-192.602 649.103,-193.534 649.103,-193.534 649.103,-193.534 651.423,-192.602 648.264,-191.447 653.743,-191.669 653.743,-191.669"/>
</g>
<!-- v0&#45;&gt;v3 -->
<g id="edge3" class="edge"><title>v0&#45;&gt;v3</title>
<path fill="none" stroke="black" d="M337.559,-234.536C328.825,-225.457 313.658,-209.651 300.75,-196 240.656,-132.449 169.467,-55.8794 141.206,-25.4309"/>
<polygon fill="black" stroke="black" points="137.664,-21.6139 142.714,-23.7485 139.365,-23.4465 141.065,-25.279 141.065,-25.279 141.065,-25.279 139.365,-23.4465 139.416,-26.8095 137.664,-21.6139 137.664,-21.6139"/>
</g>
<!-- v0&#45;&gt;v4 -->
<g id="edge4" class="edge"><title>v0&#45;&gt;v4</title>
<path fill="none" stroke="black" d="M334.059,-240.073C299.667,-233.759 192.342,-213.11 161.75,-196 108.8,-166.386 62.094,-109.405 42.5206,-83.4596"/>
<polygon fill="black" stroke="black" points="39.4,-79.2797 44.1942,-81.9403 40.8956,-81.283 42.3912,-83.2863 42.3912,-83.2863 42.3912,-83.2863 40.8956,-81.283 40.5882,-84.6323 39.4,-79.2797 39.4,-79.2797"/>
</g>
<!-- v0&#45;&gt;v21 -->
<g id="edge5" class="edge"><title>v0&#45;&gt;v21</title>
<path fill="none" stroke="black" d="M339.433,-233.265C318.229,-198.43 239.592,-69.2406 213.342,-26.1166"/>
<polygon fill="black" stroke="black" points="210.687,-21.7542 215.209,-24.8553 211.987,-23.8897 213.287,-26.0252 213.287,-26.0252 213.287,-26.0252 211.987,-23.8897 211.365,-27.1951 210.687,-21.7542 210.687,-21.7542"/>
</g>
<!-- v0&#45;&gt;v22 -->
<g id="edge6" class="edge"><title>v0&#45;&gt;v22</title>
<path fill="none" stroke="black" d="M344.951,-231.765C345.23,-203.453 344.155,-121.957 324.75,-58 321.351,-46.7998 315.22,-35.1185 310.005,-26.33"/>
<polygon fill="black" stroke="black" points="307.226,-21.7666 311.748,-24.8664 308.526,-23.9017 309.827,-26.0368 309.827,-26.0368 309.827,-26.0368 308.526,-23.9017 307.905,-27.2073 307.226,-21.7666 307.226,-21.7666"/>
</g>
<!-- v0&#45;&gt;v23 -->
<g id="edge7" class="edge"><title>v0&#45;&gt;v23</title>
<path fill="none" stroke="black" d="M355.765,-240.458C376.509,-236.894 420.965,-225.966 439.75,-196 472.326,-144.033 462.263,-115.052 439.75,-58 434.343,-44.2974 422.714,-32.2752 412.912,-23.9607"/>
<polygon fill="black" stroke="black" points="408.846,-20.6303 414.14,-22.0582 410.78,-22.2146 412.714,-23.7988 412.714,-23.7988 412.714,-23.7988 410.78,-22.2146 411.288,-25.5394 408.846,-20.6303 408.846,-20.6303"/>
</g>
<!-- v2 -->
<g id="v2_Record" class="node"><title>v2</title>
<ellipse fill="none" stroke="black" cx="556.75" cy="-127" rx="29" ry="11"/>
<text text-anchor="middle" x="556.75" y="-124.8" font-family="sans-serif" font-size="9.00">Record</text>
</g>
<!-- v1&#45;&gt;v2 -->
<g id="edge8" class="edge"><title>v1&#45;&gt;v2</title>
<path fill="none" stroke="black" d="M654.085,-178.007C635.832,-168.629 600.261,-150.354 577.547,-138.685"/>
<polygon fill="black" stroke="black" points="572.906,-136.301 578.382,-136.584 575.13,-137.443 577.354,-138.586 577.354,-138.586 577.354,-138.586 575.13,-137.443 576.326,-140.587 572.906,-136.301 572.906,-136.301"/>
</g>
<!-- v1&#45;&gt;v6 -->
<g id="edge9" class="edge"><title>v1&#45;&gt;v6</title>
<path fill="none" stroke="black" d="M660.3,-174.753C655.093,-165.917 647.169,-152.469 641.153,-142.261"/>
<polygon fill="black" stroke="black" points="638.54,-137.827 643.017,-140.992 639.81,-139.98 641.079,-142.134 641.079,-142.134 641.079,-142.134 639.81,-139.98 639.14,-143.277 638.54,-137.827 638.54,-137.827"/>
</g>
<!-- v1&#45;&gt;v13 -->
<g id="edge10" class="edge"><title>v1&#45;&gt;v13</title>
<path fill="none" stroke="black" d="M676.665,-177.356C692.022,-168.008 720.225,-150.841 738.985,-139.422"/>
<polygon fill="black" stroke="black" points="743.537,-136.651 740.436,-141.173 741.402,-137.951 739.266,-139.251 739.266,-139.251 739.266,-139.251 741.402,-137.951 738.096,-137.329 743.537,-136.651 743.537,-136.651"/>
</g>
<!-- v1&#45;&gt;v17 -->
<g id="edge11" class="edge"><title>v1&#45;&gt;v17</title>
<path fill="none" stroke="black" d="M679.303,-180.581C714.908,-171.6 811.657,-147.195 859.785,-135.054"/>
<polygon fill="black" stroke="black" points="864.847,-133.777 860.55,-137.182 862.423,-134.389 859.999,-135 859.999,-135 859.999,-135 862.423,-134.389 859.449,-132.819 864.847,-133.777 864.847,-133.777"/>
</g>
<!-- v5 -->
<g id="v5_Ref" class="node"><title>v5</title>
<ellipse fill="none" stroke="black" cx="32.7497" cy="-11" rx="18" ry="11"/>
<text text-anchor="middle" x="32.7497" y="-8.8" font-family="sans-serif" font-size="9.00">Ref</text>
</g>
<!-- v2&#45;&gt;v5 -->
<g id="edge25" class="edge"><title>v2&#45;&gt;v5</title>
<path fill="none" stroke="green" d="M527.777,-125.819C419.272,-124.844 41.3329,-118.678 5.74972,-80 -10.0743,-62.7998 10.7969,-35.196 23.7887,-21.0294"/>
</g>
<!-- v10 -->
<g id="v10_Id(1)" class="node"><title>v10</title>
<ellipse fill="none" stroke="black" cx="497.75" cy="-11" rx="25" ry="11"/>
<text text-anchor="middle" x="497.75" y="-8.8" font-family="sans-serif" font-size="9.00">Id(1)</text>
</g>
<!-- v2&#45;&gt;v10 -->
<g id="edge12" class="edge"><title>v2&#45;&gt;v10</title>
<path fill="none" stroke="black" d="M547.693,-116.456C539.69,-107.597 528.17,-93.7419 520.75,-80 511.468,-62.8107 504.93,-41.1772 501.255,-26.9865"/>
<polygon fill="black" stroke="black" points="500.031,-22.1171 503.432,-26.4177 500.641,-24.5417 501.25,-26.9662 501.25,-26.9662 501.25,-26.9662 500.641,-24.5417 499.068,-27.5148 500.031,-22.1171 500.031,-22.1171"/>
</g>
<!-- v11 -->
<g id="v11_Private" class="node"><title>v11</title>
<ellipse fill="none" stroke="black" cx="562.75" cy="-69" rx="32.5" ry="11"/>
<text text-anchor="middle" x="562.75" y="-66.8" font-family="sans-serif" font-size="9.00">Private</text>
</g>
<!-- v2&#45;&gt;v11 -->
<g id="edge13" class="edge"><title>v2&#45;&gt;v11</title>
<path fill="none" stroke="black" d="M557.822,-115.988C558.732,-107.494 560.053,-95.1697 561.098,-85.4169"/>
<polygon fill="black" stroke="black" points="561.646,-80.3039 563.35,-85.5152 561.379,-82.7896 561.113,-85.2754 561.113,-85.2754 561.113,-85.2754 561.379,-82.7896 558.876,-85.0357 561.646,-80.3039 561.646,-80.3039"/>
</g>
<!-- v4&#45;&gt;v5 -->
<g id="edge14" class="edge"><title>v4&#45;&gt;v5</title>
<path fill="none" stroke="black" d="M32.7497,-57.9883C32.7497,-49.4941 32.7497,-37.1697 32.7497,-27.4169"/>
<polygon fill="black" stroke="black" points="32.7497,-22.3039 34.9998,-27.3038 32.7498,-24.8039 32.7498,-27.3039 32.7498,-27.3039 32.7498,-27.3039 32.7498,-24.8039 30.4998,-27.3039 32.7497,-22.3039 32.7497,-22.3039"/>
</g>
<!-- v7 -->
<g id="v7_Id(0)" class="node"><title>v7</title>
<ellipse fill="none" stroke="black" cx="627.75" cy="-11" rx="25" ry="11"/>
<text text-anchor="middle" x="627.75" y="-8.8" font-family="sans-serif" font-size="9.00">Id(0)</text>
</g>
<!-- v6&#45;&gt;v7 -->
<g id="edge15" class="edge"><title>v6&#45;&gt;v7</title>
<path fill="none" stroke="black" d="M632.306,-115.883C631.43,-95.9059 629.472,-51.276 628.431,-27.5402"/>
<polygon fill="black" stroke="black" points="628.2,-22.2579 630.667,-27.1545 628.309,-24.7555 628.419,-27.2531 628.419,-27.2531 628.419,-27.2531 628.309,-24.7555 626.171,-27.3518 628.2,-22.2579 628.2,-22.2579"/>
</g>
<!-- v8 -->
<g id="v8_Private" class="node"><title>v8</title>
<ellipse fill="none" stroke="black" cx="690.75" cy="-69" rx="32.5" ry="11"/>
<text text-anchor="middle" x="690.75" y="-66.8" font-family="sans-serif" font-size="9.00">Private</text>
</g>
<!-- v6&#45;&gt;v8 -->
<g id="edge16" class="edge"><title>v6&#45;&gt;v8</title>
<path fill="none" stroke="black" d="M642.589,-116.5C652.03,-107.385 666.376,-93.5334 676.956,-83.318"/>
<polygon fill="black" stroke="black" points="680.668,-79.7345 678.633,-84.8261 678.869,-81.471 677.071,-83.2075 677.071,-83.2075 677.071,-83.2075 678.869,-81.471 675.508,-81.5888 680.668,-79.7345 680.668,-79.7345"/>
</g>
<!-- v9 -->
<g id="v9_Data" class="node"><title>v9</title>
<ellipse fill="none" stroke="black" cx="692.75" cy="-11" rx="21.5" ry="11"/>
<text text-anchor="middle" x="692.75" y="-8.8" font-family="sans-serif" font-size="9.00">Data</text>
</g>
<!-- v8&#45;&gt;v9 -->
<g id="edge17" class="edge"><title>v8&#45;&gt;v9</title>
<path fill="none" stroke="black" d="M691.107,-57.9883C691.411,-49.4941 691.851,-37.1697 692.199,-27.4169"/>
<polygon fill="black" stroke="black" points="692.382,-22.3039 694.452,-27.381 692.292,-24.8023 692.203,-27.3007 692.203,-27.3007 692.203,-27.3007 692.292,-24.8023 689.955,-27.2203 692.382,-22.3039 692.382,-22.3039"/>
</g>
<!-- v12 -->
<g id="v12_Data" class="node"><title>v12</title>
<ellipse fill="none" stroke="black" cx="562.75" cy="-11" rx="21.5" ry="11"/>
<text text-anchor="middle" x="562.75" y="-8.8" font-family="sans-serif" font-size="9.00">Data</text>
</g>
<!-- v11&#45;&gt;v12 -->
<g id="edge18" class="edge"><title>v11&#45;&gt;v12</title>
<path fill="none" stroke="black" d="M562.75,-57.9883C562.75,-49.4941 562.75,-37.1697 562.75,-27.4169"/>
<polygon fill="black" stroke="black" points="562.75,-22.3039 565,-27.3038 562.75,-24.8039 562.75,-27.3039 562.75,-27.3039 562.75,-27.3039 562.75,-24.8039 560.5,-27.3039 562.75,-22.3039 562.75,-22.3039"/>
</g>
<!-- v14 -->
<g id="v14_Id(2)" class="node"><title>v14</title>
<ellipse fill="none" stroke="black" cx="757.75" cy="-11" rx="25" ry="11"/>
<text text-anchor="middle" x="757.75" y="-8.8" font-family="sans-serif" font-size="9.00">Id(2)</text>
</g>
<!-- v13&#45;&gt;v14 -->
<g id="edge19" class="edge"><title>v13&#45;&gt;v14</title>
<path fill="none" stroke="black" d="M757.75,-115.883C757.75,-95.9059 757.75,-51.276 757.75,-27.5402"/>
<polygon fill="black" stroke="black" points="757.75,-22.2579 760,-27.2579 757.75,-24.7579 757.75,-27.2579 757.75,-27.2579 757.75,-27.2579 757.75,-24.7579 755.5,-27.258 757.75,-22.2579 757.75,-22.2579"/>
</g>
<!-- v15 -->
<g id="v15_Private" class="node"><title>v15</title>
<ellipse fill="none" stroke="black" cx="820.75" cy="-69" rx="32.5" ry="11"/>
<text text-anchor="middle" x="820.75" y="-66.8" font-family="sans-serif" font-size="9.00">Private</text>
</g>
<!-- v13&#45;&gt;v15 -->
<g id="edge20" class="edge"><title>v13&#45;&gt;v15</title>
<path fill="none" stroke="black" d="M768.437,-116.5C778.692,-107.385 794.275,-93.5334 805.767,-83.318"/>
<polygon fill="black" stroke="black" points="809.798,-79.7345 807.556,-84.738 807.93,-81.3954 806.061,-83.0563 806.061,-83.0563 806.061,-83.0563 807.93,-81.3954 804.567,-81.3746 809.798,-79.7345 809.798,-79.7345"/>
</g>
<!-- v16 -->
<g id="v16_Data" class="node"><title>v16</title>
<ellipse fill="none" stroke="black" cx="822.75" cy="-11" rx="21.5" ry="11"/>
<text text-anchor="middle" x="822.75" y="-8.8" font-family="sans-serif" font-size="9.00">Data</text>
</g>
<!-- v15&#45;&gt;v16 -->
<g id="edge21" class="edge"><title>v15&#45;&gt;v16</title>
<path fill="none" stroke="black" d="M821.107,-57.9883C821.411,-49.4941 821.851,-37.1697 822.199,-27.4169"/>
<polygon fill="black" stroke="black" points="822.382,-22.3039 824.452,-27.381 822.292,-24.8023 822.203,-27.3007 822.203,-27.3007 822.203,-27.3007 822.292,-24.8023 819.955,-27.2203 822.382,-22.3039 822.382,-22.3039"/>
</g>
<!-- v18 -->
<g id="v18_Id(3)" class="node"><title>v18</title>
<ellipse fill="none" stroke="black" cx="887.75" cy="-11" rx="25" ry="11"/>
<text text-anchor="middle" x="887.75" y="-8.8" font-family="sans-serif" font-size="9.00">Id(3)</text>
</g>
<!-- v17&#45;&gt;v18 -->
<g id="edge22" class="edge"><title>v17&#45;&gt;v18</title>
<path fill="none" stroke="black" d="M887.75,-115.883C887.75,-95.9059 887.75,-51.276 887.75,-27.5402"/>
<polygon fill="black" stroke="black" points="887.75,-22.2579 890,-27.2579 887.75,-24.7579 887.75,-27.2579 887.75,-27.2579 887.75,-27.2579 887.75,-24.7579 885.5,-27.258 887.75,-22.2579 887.75,-22.2579"/>
</g>
<!-- v19 -->
<g id="v19_Private" class="node"><title>v19</title>
<ellipse fill="none" stroke="black" cx="950.75" cy="-69" rx="32.5" ry="11"/>
<text text-anchor="middle" x="950.75" y="-66.8" font-family="sans-serif" font-size="9.00">Private</text>
</g>
<!-- v17&#45;&gt;v19 -->
<g id="edge23" class="edge"><title>v17&#45;&gt;v19</title>
<path fill="none" stroke="black" d="M898.437,-116.5C908.692,-107.385 924.275,-93.5334 935.767,-83.318"/>
<polygon fill="black" stroke="black" points="939.798,-79.7345 937.556,-84.738 937.93,-81.3954 936.061,-83.0563 936.061,-83.0563 936.061,-83.0563 937.93,-81.3954 934.567,-81.3746 939.798,-79.7345 939.798,-79.7345"/>
</g>
<!-- v20 -->
<g id="v20_Data" class="node"><title>v20</title>
<ellipse fill="none" stroke="black" cx="952.75" cy="-11" rx="21.5" ry="11"/>
<text text-anchor="middle" x="952.75" y="-8.8" font-family="sans-serif" font-size="9.00">Data</text>
</g>
<!-- v19&#45;&gt;v20 -->
<g id="edge24" class="edge"><title>v19&#45;&gt;v20</title>
<path fill="none" stroke="black" d="M951.107,-57.9883C951.411,-49.4941 951.851,-37.1697 952.199,-27.4169"/>
<polygon fill="black" stroke="black" points="952.382,-22.3039 954.452,-27.381 952.292,-24.8023 952.203,-27.3007 952.203,-27.3007 952.203,-27.3007 952.292,-24.8023 949.955,-27.2203 952.382,-22.3039 952.382,-22.3039"/>
</g>
</g>
</svg>
