<?xml version="1.0" encoding="UTF-8" standalone="no"?>
<?xml-stylesheet href="style.css" type="text/css"?>
<!DOCTYPE svg PUBLIC "-//W3C//DTD SVG 1.1//EN"
 "http://www.w3.org/Graphics/SVG/1.1/DTD/svg11.dtd">
<!-- Generated by graphviz version 2.38.0 (20140413.2041)
 -->
<!-- Title: 77.svg Pages: 1 -->
<svg width="941pt" height="316pt"
 viewBox="0.00 0.00 941.00 316.00" xmlns="http://www.w3.org/2000/svg" xmlns:xlink="http://www.w3.org/1999/xlink">
<g id="graph0" class="graph" transform="scale(1 1) rotate(0) translate(4 312)">
<title>77.svg</title>
<polygon fill="white" stroke="none" points="-4,4 -4,-312 937,-312 937,4 -4,4"/>
<!-- r0 -->
<g id="node1" class="node"><title>r0</title>
<polygon fill="none" stroke="black" stroke-dasharray="5,2" points="575.5,-308 552.5,-308 552.5,-290 575.5,-290 575.5,-308"/>
<text text-anchor="middle" x="564" y="-296.8" font-family="serif" font-size="9.00">0</text>
</g>
<!-- v0 -->
<g id="v0_H" class="node"><title>v0</title>
<ellipse fill="none" stroke="black" cx="564" cy="-243" rx="11" ry="11"/>
<text text-anchor="middle" x="564" y="-240.8" font-family="sans-serif" font-size="9.00">H</text>
</g>
<!-- r0&#45;&gt;v0 -->
<g id="edge1" class="edge"><title>r0&#45;&gt;v0</title>
<path fill="none" stroke="black" d="M564,-289.562C564,-281.453 564,-269.014 564,-259.181"/>
<polygon fill="black" stroke="black" points="564,-254.03 566.25,-259.03 564,-256.53 564,-259.03 564,-259.03 564,-259.03 564,-256.53 561.75,-259.03 564,-254.03 564,-254.03"/>
</g>
<!-- odb -->
<g id="node2" class="node"><title>odb</title>
<text text-anchor="middle" x="716" y="-296.8" font-family="serif" font-size="9.00">db</text>
</g>
<!-- e7 -->
<g id="node7" class="node"><title>e7</title>
</g>
<!-- odb&#45;&gt;e7 -->
<g id="edge33" class="edge"><title>odb&#45;&gt;e7</title>
<path fill="none" stroke="green" d="M716,-289.562C716,-274.375 716,-244 716,-244"/>
</g>
<!-- e3 -->
<g id="node3" class="node"><title>e3</title>
</g>
<!-- v8 -->
<g id="v8_Doc" class="node"><title>v8</title>
<ellipse fill="none" stroke="black" cx="477" cy="-69" rx="18" ry="11"/>
<text text-anchor="middle" x="477" y="-66.8" font-family="sans-serif" font-size="9.00">Doc</text>
</g>
<!-- e3&#45;&gt;v8 -->
<g id="edge29" class="edge"><title>e3&#45;&gt;v8</title>
<path fill="none" stroke="green" d="M477,-122.167C477,-113.586 477,-92.5957 477,-80.0117"/>
<polygon fill="green" stroke="green" points="480.5,-125.3 473.5,-125.3 473.5,-123.9 480.5,-123.9 480.5,-125.3"/>
<polyline fill="none" stroke="green" points="477,-126 477,-122.5 "/>
</g>
<!-- e4 -->
<g id="node4" class="node"><title>e4</title>
</g>
<!-- v13 -->
<g id="v13_Record" class="node"><title>v13</title>
<ellipse fill="none" stroke="black" cx="88" cy="-127" rx="29" ry="11"/>
<text text-anchor="middle" x="88" y="-124.8" font-family="sans-serif" font-size="9.00">Record</text>
</g>
<!-- e4&#45;&gt;v13 -->
<g id="edge30" class="edge"><title>e4&#45;&gt;v13</title>
<path fill="none" stroke="green" d="M88,-180.167C88,-171.586 88,-150.596 88,-138.012"/>
<polygon fill="green" stroke="green" points="91.5,-183.3 84.5,-183.3 84.5001,-181.9 91.5001,-181.9 91.5,-183.3"/>
<polyline fill="none" stroke="green" points="88,-184 88.0001,-180.5 "/>
</g>
<!-- e5 -->
<g id="node5" class="node"><title>e5</title>
</g>
<!-- v17 -->
<g id="v17_Record" class="node"><title>v17</title>
<ellipse fill="none" stroke="black" cx="248" cy="-127" rx="29" ry="11"/>
<text text-anchor="middle" x="248" y="-124.8" font-family="sans-serif" font-size="9.00">Record</text>
</g>
<!-- e5&#45;&gt;v17 -->
<g id="edge31" class="edge"><title>e5&#45;&gt;v17</title>
<path fill="none" stroke="green" d="M248,-180.167C248,-171.586 248,-150.596 248,-138.012"/>
<polygon fill="green" stroke="green" points="251.5,-183.3 244.5,-183.3 244.5,-181.9 251.5,-181.9 251.5,-183.3"/>
<polyline fill="none" stroke="green" points="248,-184 248,-180.5 "/>
</g>
<!-- e6 -->
<g id="node6" class="node"><title>e6</title>
</g>
<!-- v24 -->
<g id="v24_Nurse" class="node"><title>v24</title>
<ellipse fill="none" stroke="black" cx="908" cy="-11" rx="25" ry="11"/>
<text text-anchor="middle" x="908" y="-8.8" font-family="sans-serif" font-size="9.00">Nurse</text>
</g>
<!-- e6&#45;&gt;v24 -->
<g id="edge32" class="edge"><title>e6&#45;&gt;v24</title>
<path fill="none" stroke="green" d="M908,-64.1674C908,-55.5862 908,-34.5957 908,-22.0117"/>
<polygon fill="green" stroke="green" points="911.5,-67.3001 904.5,-67.2999 904.5,-65.8999 911.5,-65.9001 911.5,-67.3001"/>
<polyline fill="none" stroke="green" points="908,-68 908,-64.5 "/>
</g>
<!-- v1 -->
<g id="v1_Nurse" class="node"><title>v1</title>
<ellipse fill="none" stroke="black" cx="826" cy="-69" rx="25" ry="11"/>
<text text-anchor="middle" x="826" y="-66.8" font-family="sans-serif" font-size="9.00">Nurse</text>
</g>
<!-- e7&#45;&gt;v1 -->
<g id="edge34" class="edge"><title>e7&#45;&gt;v1</title>
<path fill="none" stroke="green" d="M716,-242C716,-242 764.304,-225.977 787,-196 814.645,-159.487 822.898,-103.121 825.186,-80.2084"/>
</g>
<!-- v3 -->
<g id="v3_Nurse" class="node"><title>v3</title>
<ellipse fill="none" stroke="black" cx="752" cy="-11" rx="25" ry="11"/>
<text text-anchor="middle" x="752" y="-8.8" font-family="sans-serif" font-size="9.00">Nurse</text>
</g>
<!-- e7&#45;&gt;v3 -->
<g id="edge35" class="edge"><title>e7&#45;&gt;v3</title>
<path fill="none" stroke="green" d="M716,-242C716,-242 740.02,-152.928 749,-80 751.513,-59.5925 751.996,-35.5121 752.047,-22.1795"/>
</g>
<!-- v4 -->
<g id="v4_DB" class="node"><title>v4</title>
<ellipse fill="none" stroke="black" cx="398" cy="-185" rx="14.5" ry="11"/>
<text text-anchor="middle" x="398" y="-182.8" font-family="sans-serif" font-size="9.00">DB</text>
</g>
<!-- e7&#45;&gt;v4 -->
<g id="edge36" class="edge"><title>e7&#45;&gt;v4</title>
<path fill="none" stroke="green" d="M716,-242C716,-242 473.617,-199.316 412.074,-188.479"/>
</g>
<!-- v6 -->
<g id="v6_DBadmin" class="node"><title>v6</title>
<ellipse fill="none" stroke="black" cx="537" cy="-11" rx="32.5" ry="11"/>
<text text-anchor="middle" x="537" y="-8.8" font-family="sans-serif" font-size="9.00">DBadmin</text>
</g>
<!-- e7&#45;&gt;v6 -->
<g id="edge37" class="edge"><title>e7&#45;&gt;v6</title>
<path fill="none" stroke="green" d="M716,-242C716,-242 676.719,-203.442 644,-174 625.724,-157.555 617.252,-157.283 602,-138 586.272,-118.116 553.767,-48.6449 541.67,-22.2664"/>
</g>
<!-- e7&#45;&gt;v8 -->
<g id="edge38" class="edge"><title>e7&#45;&gt;v8</title>
<path fill="none" stroke="green" d="M716,-242C716,-242 675.836,-217.515 645,-196 584.004,-153.442 513.539,-98.6996 487.429,-78.2164"/>
</g>
<!-- e7&#45;&gt;v24 -->
<g id="edge39" class="edge"><title>e7&#45;&gt;v24</title>
<path fill="none" stroke="green" d="M716,-242C716,-242 874.746,-186.673 917,-80 924.719,-60.5141 917.57,-35.6807 912.349,-22.0627"/>
</g>
<!-- v0&#45;&gt;v1 -->
<g id="edge2" class="edge"><title>v0&#45;&gt;v1</title>
<path fill="none" stroke="black" d="M573.207,-236.07C586.76,-227.331 612.872,-210.467 635,-196 699.279,-153.976 775.397,-103.569 808.817,-81.4038"/>
<polygon fill="black" stroke="black" points="813.055,-78.5925 810.132,-83.2314 810.972,-79.9744 808.889,-81.3563 808.889,-81.3563 808.889,-81.3563 810.972,-79.9744 807.645,-79.4813 813.055,-78.5925 813.055,-78.5925"/>
</g>
<!-- v0&#45;&gt;v3 -->
<g id="edge3" class="edge"><title>v0&#45;&gt;v3</title>
<path fill="none" stroke="black" d="M571.308,-234.687C584.011,-222.046 611.098,-195.408 635,-174 653.566,-157.371 661.55,-156.725 678,-138 698.18,-115.029 699.461,-106.334 715,-80 725.706,-61.8559 737.173,-40.4369 744.456,-26.556"/>
<polygon fill="black" stroke="black" points="746.94,-21.803 746.618,-27.2765 745.782,-24.0186 744.624,-26.2342 744.624,-26.2342 744.624,-26.2342 745.782,-24.0186 742.63,-25.1918 746.94,-21.803 746.94,-21.803"/>
</g>
<!-- v0&#45;&gt;v4 -->
<g id="edge4" class="edge"><title>v0&#45;&gt;v4</title>
<path fill="none" stroke="black" d="M553.616,-238.497C526.014,-229.185 450.57,-203.734 415.881,-192.032"/>
<polygon fill="black" stroke="black" points="411.069,-190.409 416.526,-189.875 413.438,-191.208 415.807,-192.007 415.807,-192.007 415.807,-192.007 413.438,-191.208 415.087,-194.139 411.069,-190.409 411.069,-190.409"/>
</g>
<!-- v0&#45;&gt;v6 -->
<g id="edge5" class="edge"><title>v0&#45;&gt;v6</title>
<path fill="none" stroke="black" d="M562.805,-231.82C558.518,-195.304 543.898,-70.7575 538.784,-27.194"/>
<polygon fill="black" stroke="black" points="538.181,-22.062 540.999,-26.7656 538.473,-24.545 538.764,-27.0279 538.764,-27.0279 538.764,-27.0279 538.473,-24.545 536.53,-27.2903 538.181,-22.062 538.181,-22.062"/>
</g>
<!-- v0&#45;&gt;v8 -->
<g id="edge6" class="edge"><title>v0&#45;&gt;v8</title>
<path fill="none" stroke="black" d="M554.24,-237.89C539.257,-231.144 510.493,-216.407 493,-196 468.668,-167.615 463.006,-153.172 467,-116 468.124,-105.539 470.646,-93.9669 472.876,-85.0462"/>
<polygon fill="black" stroke="black" points="474.143,-80.1288 475.075,-85.532 473.519,-82.5498 472.896,-84.9708 472.896,-84.9708 472.896,-84.9708 473.519,-82.5498 470.717,-84.4095 474.143,-80.1288 474.143,-80.1288"/>
</g>
<!-- v0&#45;&gt;v24 -->
<g id="edge7" class="edge"><title>v0&#45;&gt;v24</title>
<path fill="none" stroke="black" d="M574.295,-238.475C614.758,-224.223 765.285,-167.402 860,-80 876.983,-64.328 891.48,-41.6998 899.968,-26.9224"/>
<polygon fill="black" stroke="black" points="902.612,-22.2333 902.116,-27.6938 901.384,-24.4111 900.156,-26.5889 900.156,-26.5889 900.156,-26.5889 901.384,-24.4111 898.196,-25.4839 902.612,-22.2333 902.612,-22.2333"/>
</g>
<!-- v2 -->
<g id="v2_Ref&#39;" class="node"><title>v2</title>
<ellipse fill="none" stroke="black" cx="826" cy="-11" rx="21.5" ry="11"/>
<text text-anchor="middle" x="826" y="-8.8" font-family="sans-serif" font-size="9.00">Ref&#39;</text>
</g>
<!-- v1&#45;&gt;v2 -->
<g id="edge8" class="edge"><title>v1&#45;&gt;v2</title>
<path fill="none" stroke="black" d="M826,-57.9883C826,-49.4941 826,-37.1697 826,-27.4169"/>
<polygon fill="black" stroke="black" points="826,-22.3039 828.25,-27.3038 826,-24.8039 826,-27.3039 826,-27.3039 826,-27.3039 826,-24.8039 823.75,-27.3039 826,-22.3039 826,-22.3039"/>
</g>
<!-- v1&#45;&gt;v3 -->
<g id="edge26" class="edge"><title>v1&#45;&gt;v3</title>
<path fill="none" stroke="green" d="M814.111,-59.0026C800.22,-48.4906 777.388,-31.2127 763.616,-20.7904"/>
</g>
<!-- v5 -->
<g id="v5_Record" class="node"><title>v5</title>
<ellipse fill="none" stroke="black" cx="640" cy="-127" rx="29" ry="11"/>
<text text-anchor="middle" x="640" y="-124.8" font-family="sans-serif" font-size="9.00">Record</text>
</g>
<!-- v2&#45;&gt;v5 -->
<g id="edge27" class="edge"><title>v2&#45;&gt;v5</title>
<path fill="none" stroke="green" d="M808.222,-17.1861C801.338,-18.9981 793.357,-20.8619 786,-22 722.191,-31.8714 250.22,-10.9502 206,-58 199.304,-65.1249 199.461,-72.7308 206,-80 219.651,-95.1738 517.861,-117.398 611.875,-124.05"/>
</g>
<!-- v4&#45;&gt;v5 -->
<g id="edge9" class="edge"><title>v4&#45;&gt;v5</title>
<path fill="none" stroke="black" d="M411.704,-180.829C450.062,-171.953 559.105,-146.72 611.375,-134.624"/>
<polygon fill="black" stroke="black" points="616.252,-133.495 611.888,-136.815 613.816,-134.059 611.38,-134.623 611.38,-134.623 611.38,-134.623 613.816,-134.059 610.873,-132.431 616.252,-133.495 616.252,-133.495"/>
</g>
<!-- v7 -->
<g id="v7_Record" class="node"><title>v7</title>
<ellipse fill="none" stroke="black" cx="391" cy="-127" rx="29" ry="11"/>
<text text-anchor="middle" x="391" y="-124.8" font-family="sans-serif" font-size="9.00">Record</text>
</g>
<!-- v4&#45;&gt;v7 -->
<g id="edge10" class="edge"><title>v4&#45;&gt;v7</title>
<path fill="none" stroke="black" d="M396.749,-173.988C395.687,-165.494 394.146,-153.17 392.927,-143.417"/>
<polygon fill="black" stroke="black" points="392.288,-138.304 395.141,-142.986 392.598,-140.785 392.908,-143.265 392.908,-143.265 392.908,-143.265 392.598,-140.785 390.676,-143.544 392.288,-138.304 392.288,-138.304"/>
</g>
<!-- v4&#45;&gt;v13 -->
<g id="edge11" class="edge"><title>v4&#45;&gt;v13</title>
<path fill="none" stroke="black" d="M383.874,-181.448C336.659,-172.919 183.623,-145.274 118.158,-133.448"/>
<polygon fill="black" stroke="black" points="113.223,-132.556 118.543,-131.231 115.683,-133.001 118.143,-133.445 118.143,-133.445 118.143,-133.445 115.683,-133.001 117.743,-135.659 113.223,-132.556 113.223,-132.556"/>
</g>
<!-- v4&#45;&gt;v17 -->
<g id="edge12" class="edge"><title>v4&#45;&gt;v17</title>
<path fill="none" stroke="black" d="M385.469,-179.322C360.606,-170.04 304.652,-149.15 272.317,-137.078"/>
<polygon fill="black" stroke="black" points="267.339,-135.22 272.81,-134.861 269.681,-136.094 272.023,-136.969 272.023,-136.969 272.023,-136.969 269.681,-136.094 271.236,-139.077 267.339,-135.22 267.339,-135.22"/>
</g>
<!-- v10 -->
<g id="v10_Id(0)" class="node"><title>v10</title>
<ellipse fill="none" stroke="black" cx="613" cy="-11" rx="25" ry="11"/>
<text text-anchor="middle" x="613" y="-8.8" font-family="sans-serif" font-size="9.00">Id(0)</text>
</g>
<!-- v5&#45;&gt;v10 -->
<g id="edge13" class="edge"><title>v5&#45;&gt;v10</title>
<path fill="none" stroke="black" d="M637.604,-115.883C632.852,-95.8216 622.213,-50.899 616.61,-27.2409"/>
<polygon fill="black" stroke="black" points="615.43,-22.2579 618.771,-26.6048 616.006,-24.6906 616.582,-27.1233 616.582,-27.1233 616.582,-27.1233 616.006,-24.6906 614.392,-27.6419 615.43,-22.2579 615.43,-22.2579"/>
</g>
<!-- v11 -->
<g id="v11_Private" class="node"><title>v11</title>
<ellipse fill="none" stroke="black" cx="674" cy="-69" rx="32.5" ry="11"/>
<text text-anchor="middle" x="674" y="-66.8" font-family="sans-serif" font-size="9.00">Private</text>
</g>
<!-- v5&#45;&gt;v11 -->
<g id="edge14" class="edge"><title>v5&#45;&gt;v11</title>
<path fill="none" stroke="black" d="M646.079,-115.988C651.445,-107.149 659.33,-94.162 665.353,-84.2414"/>
<polygon fill="black" stroke="black" points="667.974,-79.925 667.302,-85.3667 666.677,-82.062 665.379,-84.199 665.379,-84.199 665.379,-84.199 666.677,-82.062 663.456,-83.0312 667.974,-79.925 667.974,-79.925"/>
</g>
<!-- v9 -->
<g id="v9_Ref" class="node"><title>v9</title>
<ellipse fill="none" stroke="black" cx="468" cy="-11" rx="18" ry="11"/>
<text text-anchor="middle" x="468" y="-8.8" font-family="sans-serif" font-size="9.00">Ref</text>
</g>
<!-- v7&#45;&gt;v9 -->
<g id="edge28" class="edge"><title>v7&#45;&gt;v9</title>
<path fill="none" stroke="green" d="M382.068,-116.146C370.683,-102.335 353.851,-76.8062 366,-58 371.086,-50.127 426.477,-27.9798 453.432,-17.556"/>
</g>
<!-- v21 -->
<g id="v21_Id(3)" class="node"><title>v21</title>
<ellipse fill="none" stroke="black" cx="345" cy="-11" rx="25" ry="11"/>
<text text-anchor="middle" x="345" y="-8.8" font-family="sans-serif" font-size="9.00">Id(3)</text>
</g>
<!-- v7&#45;&gt;v21 -->
<g id="edge15" class="edge"><title>v7&#45;&gt;v21</title>
<path fill="none" stroke="black" d="M384.844,-116.055C379.377,-106.926 371.434,-92.8998 366,-80 358.632,-62.509 352.545,-41.5255 348.855,-27.5382"/>
<polygon fill="black" stroke="black" points="347.515,-22.3625 350.946,-26.6387 348.141,-24.7827 348.768,-27.2028 348.768,-27.2028 348.768,-27.2028 348.141,-24.7827 346.59,-27.7669 347.515,-22.3625 347.515,-22.3625"/>
</g>
<!-- v22 -->
<g id="v22_Private" class="node"><title>v22</title>
<ellipse fill="none" stroke="black" cx="408" cy="-69" rx="32.5" ry="11"/>
<text text-anchor="middle" x="408" y="-66.8" font-family="sans-serif" font-size="9.00">Private</text>
</g>
<!-- v7&#45;&gt;v22 -->
<g id="edge16" class="edge"><title>v7&#45;&gt;v22</title>
<path fill="none" stroke="black" d="M394.039,-115.988C396.642,-107.415 400.429,-94.9411 403.402,-85.1466"/>
<polygon fill="black" stroke="black" points="404.872,-80.3039 405.573,-85.7419 404.146,-82.6961 403.42,-85.0883 403.42,-85.0883 403.42,-85.0883 404.146,-82.6961 401.267,-84.4347 404.872,-80.3039 404.872,-80.3039"/>
</g>
<!-- v8&#45;&gt;v9 -->
<g id="edge17" class="edge"><title>v8&#45;&gt;v9</title>
<path fill="none" stroke="black" d="M475.391,-57.9883C474.026,-49.4941 472.045,-37.1697 470.478,-27.4169"/>
<polygon fill="black" stroke="black" points="469.656,-22.3039 472.671,-26.8835 470.053,-24.7722 470.449,-27.2405 470.449,-27.2405 470.449,-27.2405 470.053,-24.7722 468.228,-27.5976 469.656,-22.3039 469.656,-22.3039"/>
</g>
<!-- v12 -->
<g id="v12_Data" class="node"><title>v12</title>
<ellipse fill="none" stroke="black" cx="678" cy="-11" rx="21.5" ry="11"/>
<text text-anchor="middle" x="678" y="-8.8" font-family="sans-serif" font-size="9.00">Data</text>
</g>
<!-- v11&#45;&gt;v12 -->
<g id="edge18" class="edge"><title>v11&#45;&gt;v12</title>
<path fill="none" stroke="black" d="M674.715,-57.9883C675.322,-49.4941 676.202,-37.1697 676.899,-27.4169"/>
<polygon fill="black" stroke="black" points="677.264,-22.3039 679.152,-27.4515 677.086,-24.7975 676.908,-27.2912 676.908,-27.2912 676.908,-27.2912 677.086,-24.7975 674.663,-27.1308 677.264,-22.3039 677.264,-22.3039"/>
</g>
<!-- v14 -->
<g id="v14_Id(1)" class="node"><title>v14</title>
<ellipse fill="none" stroke="black" cx="25" cy="-11" rx="25" ry="11"/>
<text text-anchor="middle" x="25" y="-8.8" font-family="sans-serif" font-size="9.00">Id(1)</text>
</g>
<!-- v13&#45;&gt;v14 -->
<g id="edge19" class="edge"><title>v13&#45;&gt;v14</title>
<path fill="none" stroke="black" d="M76.8792,-116.457C67.4399,-107.809 54.164,-94.2668 46,-80 36.3808,-63.1901 30.6681,-41.4714 27.6844,-27.1576"/>
<polygon fill="black" stroke="black" points="26.7064,-22.2419 29.8889,-26.7067 27.1942,-24.6939 27.6821,-27.1458 27.6821,-27.1458 27.6821,-27.1458 27.1942,-24.6939 25.4754,-27.5849 26.7064,-22.2419 26.7064,-22.2419"/>
</g>
<!-- v15 -->
<g id="v15_Private" class="node"><title>v15</title>
<ellipse fill="none" stroke="black" cx="88" cy="-69" rx="32.5" ry="11"/>
<text text-anchor="middle" x="88" y="-66.8" font-family="sans-serif" font-size="9.00">Private</text>
</g>
<!-- v13&#45;&gt;v15 -->
<g id="edge20" class="edge"><title>v13&#45;&gt;v15</title>
<path fill="none" stroke="black" d="M88,-115.988C88,-107.494 88,-95.1697 88,-85.4169"/>
<polygon fill="black" stroke="black" points="88,-80.3039 90.2501,-85.3038 88,-82.8039 88.0001,-85.3039 88.0001,-85.3039 88.0001,-85.3039 88,-82.8039 85.7501,-85.3039 88,-80.3039 88,-80.3039"/>
</g>
<!-- v16 -->
<g id="v16_Data" class="node"><title>v16</title>
<ellipse fill="none" stroke="black" cx="90" cy="-11" rx="21.5" ry="11"/>
<text text-anchor="middle" x="90" y="-8.8" font-family="sans-serif" font-size="9.00">Data</text>
</g>
<!-- v15&#45;&gt;v16 -->
<g id="edge21" class="edge"><title>v15&#45;&gt;v16</title>
<path fill="none" stroke="black" d="M88.3576,-57.9883C88.6609,-49.4941 89.1011,-37.1697 89.4494,-27.4169"/>
<polygon fill="black" stroke="black" points="89.632,-22.3039 91.702,-27.381 89.5427,-24.8023 89.4535,-27.3007 89.4535,-27.3007 89.4535,-27.3007 89.5427,-24.8023 87.2049,-27.2203 89.632,-22.3039 89.632,-22.3039"/>
</g>
<!-- v18 -->
<g id="v18_Id(2)" class="node"><title>v18</title>
<ellipse fill="none" stroke="black" cx="187" cy="-11" rx="25" ry="11"/>
<text text-anchor="middle" x="187" y="-8.8" font-family="sans-serif" font-size="9.00">Id(2)</text>
</g>
<!-- v17&#45;&gt;v18 -->
<g id="edge22" class="edge"><title>v17&#45;&gt;v18</title>
<path fill="none" stroke="black" d="M236.783,-116.511C227.282,-107.897 213.97,-94.376 206,-80 196.765,-63.3432 191.741,-41.8565 189.219,-27.5386"/>
<polygon fill="black" stroke="black" points="188.342,-22.2438 191.379,-26.8092 188.75,-24.7102 189.159,-27.1767 189.159,-27.1767 189.159,-27.1767 188.75,-24.7102 186.939,-27.5441 188.342,-22.2438 188.342,-22.2438"/>
</g>
<!-- v19 -->
<g id="v19_Private" class="node"><title>v19</title>
<ellipse fill="none" stroke="black" cx="248" cy="-69" rx="32.5" ry="11"/>
<text text-anchor="middle" x="248" y="-66.8" font-family="sans-serif" font-size="9.00">Private</text>
</g>
<!-- v17&#45;&gt;v19 -->
<g id="edge23" class="edge"><title>v17&#45;&gt;v19</title>
<path fill="none" stroke="black" d="M248,-115.988C248,-107.494 248,-95.1697 248,-85.4169"/>
<polygon fill="black" stroke="black" points="248,-80.3039 250.25,-85.3038 248,-82.8039 248,-85.3039 248,-85.3039 248,-85.3039 248,-82.8039 245.75,-85.3039 248,-80.3039 248,-80.3039"/>
</g>
<!-- v20 -->
<g id="v20_Data" class="node"><title>v20</title>
<ellipse fill="none" stroke="black" cx="252" cy="-11" rx="21.5" ry="11"/>
<text text-anchor="middle" x="252" y="-8.8" font-family="sans-serif" font-size="9.00">Data</text>
</g>
<!-- v19&#45;&gt;v20 -->
<g id="edge24" class="edge"><title>v19&#45;&gt;v20</title>
<path fill="none" stroke="black" d="M248.715,-57.9883C249.322,-49.4941 250.202,-37.1697 250.899,-27.4169"/>
<polygon fill="black" stroke="black" points="251.264,-22.3039 253.152,-27.4515 251.086,-24.7975 250.908,-27.2912 250.908,-27.2912 250.908,-27.2912 251.086,-24.7975 248.663,-27.1308 251.264,-22.3039 251.264,-22.3039"/>
</g>
<!-- v23 -->
<g id="v23_Data" class="node"><title>v23</title>
<ellipse fill="none" stroke="black" cx="410" cy="-11" rx="21.5" ry="11"/>
<text text-anchor="middle" x="410" y="-8.8" font-family="sans-serif" font-size="9.00">Data</text>
</g>
<!-- v22&#45;&gt;v23 -->
<g id="edge25" class="edge"><title>v22&#45;&gt;v23</title>
<path fill="none" stroke="black" d="M408.358,-57.9883C408.661,-49.4941 409.101,-37.1697 409.449,-27.4169"/>
<polygon fill="black" stroke="black" points="409.632,-22.3039 411.702,-27.381 409.543,-24.8023 409.453,-27.3007 409.453,-27.3007 409.453,-27.3007 409.543,-24.8023 407.205,-27.2203 409.632,-22.3039 409.632,-22.3039"/>
</g>
</g>
</svg>
