<?xml version="1.0" encoding="UTF-8" standalone="no"?>
<?xml-stylesheet href="style.css" type="text/css"?>
<!DOCTYPE svg PUBLIC "-//W3C//DTD SVG 1.1//EN"
 "http://www.w3.org/Graphics/SVG/1.1/DTD/svg11.dtd">
<!-- Generated by graphviz version 2.38.0 (20140413.2041)
 -->
<!-- Title: 80.svg Pages: 1 -->
<svg width="955pt" height="316pt"
 viewBox="0.00 0.00 955.10 316.00" xmlns="http://www.w3.org/2000/svg" xmlns:xlink="http://www.w3.org/1999/xlink">
<g id="graph0" class="graph" transform="scale(1 1) rotate(0) translate(4 312)">
<title>80.svg</title>
<polygon fill="white" stroke="none" points="-4,4 -4,-312 951.104,-312 951.104,4 -4,4"/>
<!-- r0 -->
<g id="node1" class="node"><title>r0</title>
<polygon fill="none" stroke="black" stroke-dasharray="5,2" points="689.5,-308 666.5,-308 666.5,-290 689.5,-290 689.5,-308"/>
<text text-anchor="middle" x="678" y="-296.8" font-family="serif" font-size="9.00">0</text>
</g>
<!-- v0 -->
<g id="v0_H" class="node"><title>v0</title>
<ellipse fill="none" stroke="black" cx="678" cy="-243" rx="11" ry="11"/>
<text text-anchor="middle" x="678" y="-240.8" font-family="sans-serif" font-size="9.00">H</text>
</g>
<!-- r0&#45;&gt;v0 -->
<g id="edge1" class="edge"><title>r0&#45;&gt;v0</title>
<path fill="none" stroke="black" d="M678,-289.562C678,-281.453 678,-269.014 678,-259.181"/>
<polygon fill="black" stroke="black" points="678,-254.03 680.25,-259.03 678,-256.53 678,-259.03 678,-259.03 678,-259.03 678,-256.53 675.75,-259.03 678,-254.03 678,-254.03"/>
</g>
<!-- odb -->
<g id="node2" class="node"><title>odb</title>
<text text-anchor="middle" x="738" y="-296.8" font-family="serif" font-size="9.00">db</text>
</g>
<!-- e7 -->
<g id="node7" class="node"><title>e7</title>
</g>
<!-- odb&#45;&gt;e7 -->
<g id="edge33" class="edge"><title>odb&#45;&gt;e7</title>
<path fill="none" stroke="green" d="M738,-289.562C738,-274.375 738,-244 738,-244"/>
</g>
<!-- e3 -->
<g id="node3" class="node"><title>e3</title>
</g>
<!-- v9 -->
<g id="v9_Record" class="node"><title>v9</title>
<ellipse fill="none" stroke="black" cx="88" cy="-127" rx="29" ry="11"/>
<text text-anchor="middle" x="88" y="-124.8" font-family="sans-serif" font-size="9.00">Record</text>
</g>
<!-- e3&#45;&gt;v9 -->
<g id="edge29" class="edge"><title>e3&#45;&gt;v9</title>
<path fill="none" stroke="green" d="M88,-180.167C88,-171.586 88,-150.596 88,-138.012"/>
<polygon fill="green" stroke="green" points="91.5,-183.3 84.5,-183.3 84.5001,-181.9 91.5001,-181.9 91.5,-183.3"/>
<polyline fill="none" stroke="green" points="88,-184 88.0001,-180.5 "/>
</g>
<!-- e4 -->
<g id="node4" class="node"><title>e4</title>
</g>
<!-- v16 -->
<g id="v16_Record" class="node"><title>v16</title>
<ellipse fill="none" stroke="black" cx="248" cy="-127" rx="29" ry="11"/>
<text text-anchor="middle" x="248" y="-124.8" font-family="sans-serif" font-size="9.00">Record</text>
</g>
<!-- e4&#45;&gt;v16 -->
<g id="edge30" class="edge"><title>e4&#45;&gt;v16</title>
<path fill="none" stroke="green" d="M248,-180.167C248,-171.586 248,-150.596 248,-138.012"/>
<polygon fill="green" stroke="green" points="251.5,-183.3 244.5,-183.3 244.5,-181.9 251.5,-181.9 251.5,-183.3"/>
<polyline fill="none" stroke="green" points="248,-184 248,-180.5 "/>
</g>
<!-- e5 -->
<g id="node5" class="node"><title>e5</title>
</g>
<!-- v23 -->
<g id="v23_Nurse" class="node"><title>v23</title>
<ellipse fill="none" stroke="black" cx="734" cy="-11" rx="25" ry="11"/>
<text text-anchor="middle" x="734" y="-8.8" font-family="sans-serif" font-size="9.00">Nurse</text>
</g>
<!-- e5&#45;&gt;v23 -->
<g id="edge31" class="edge"><title>e5&#45;&gt;v23</title>
<path fill="none" stroke="green" d="M718.163,-64.1674C720.768,-55.5862 727.141,-34.5957 730.961,-22.0117"/>
<polygon fill="green" stroke="green" points="720.552,-68.3469 713.854,-66.3134 714.261,-64.9738 720.959,-67.0073 720.552,-68.3469"/>
<polyline fill="none" stroke="green" points="717,-68 718.017,-64.6509 "/>
</g>
<!-- e6 -->
<g id="node6" class="node"><title>e6</title>
</g>
<!-- v24 -->
<g id="v24_Nurse" class="node"><title>v24</title>
<ellipse fill="none" stroke="black" cx="881" cy="-11" rx="25" ry="11"/>
<text text-anchor="middle" x="881" y="-8.8" font-family="sans-serif" font-size="9.00">Nurse</text>
</g>
<!-- e6&#45;&gt;v24 -->
<g id="edge32" class="edge"><title>e6&#45;&gt;v24</title>
<path fill="none" stroke="green" d="M881,-64.1674C881,-55.5862 881,-34.5957 881,-22.0117"/>
<polygon fill="green" stroke="green" points="884.5,-67.3001 877.5,-67.2999 877.5,-65.8999 884.5,-65.9001 884.5,-67.3001"/>
<polyline fill="none" stroke="green" points="881,-68 881,-64.5 "/>
</g>
<!-- v1 -->
<g id="v1_Nurse" class="node"><title>v1</title>
<ellipse fill="none" stroke="black" cx="837" cy="-69" rx="25" ry="11"/>
<text text-anchor="middle" x="837" y="-66.8" font-family="sans-serif" font-size="9.00">Nurse</text>
</g>
<!-- e7&#45;&gt;v1 -->
<g id="edge34" class="edge"><title>e7&#45;&gt;v1</title>
<path fill="none" stroke="green" d="M738,-242C738,-242 810.038,-236.51 836,-196 859.607,-159.164 846.939,-102.98 840.266,-80.1621"/>
</g>
<!-- v3 -->
<g id="v3_Doc" class="node"><title>v3</title>
<ellipse fill="none" stroke="black" cx="680" cy="-69" rx="18" ry="11"/>
<text text-anchor="middle" x="680" y="-66.8" font-family="sans-serif" font-size="9.00">Doc</text>
</g>
<!-- e7&#45;&gt;v3 -->
<g id="edge35" class="edge"><title>e7&#45;&gt;v3</title>
<path fill="none" stroke="green" d="M738,-242C738,-242 695.748,-116.7 683.369,-79.9909"/>
</g>
<!-- v4 -->
<g id="v4_DB" class="node"><title>v4</title>
<ellipse fill="none" stroke="black" cx="449" cy="-185" rx="14.5" ry="11"/>
<text text-anchor="middle" x="449" y="-182.8" font-family="sans-serif" font-size="9.00">DB</text>
</g>
<!-- e7&#45;&gt;v4 -->
<g id="edge36" class="edge"><title>e7&#45;&gt;v4</title>
<path fill="none" stroke="green" d="M738,-242C738,-242 715.937,-235.752 698,-232 604.025,-212.342 578.712,-216.876 485,-196 477.402,-194.307 469.017,-192.004 462.252,-190.035"/>
</g>
<!-- v6 -->
<g id="v6_DBadmin" class="node"><title>v6</title>
<ellipse fill="none" stroke="black" cx="413" cy="-11" rx="32.5" ry="11"/>
<text text-anchor="middle" x="413" y="-8.8" font-family="sans-serif" font-size="9.00">DBadmin</text>
</g>
<!-- e7&#45;&gt;v6 -->
<g id="edge37" class="edge"><title>e7&#45;&gt;v6</title>
<path fill="none" stroke="green" d="M738,-242C738,-242 539.47,-195.587 447,-80 432.323,-61.6541 421.619,-35.9452 416.458,-21.982"/>
</g>
<!-- e7&#45;&gt;v23 -->
<g id="edge38" class="edge"><title>e7&#45;&gt;v23</title>
<path fill="none" stroke="green" d="M738,-242C738,-242 734.951,-66.6915 734.177,-22.1796"/>
</g>
<!-- e7&#45;&gt;v24 -->
<g id="edge39" class="edge"><title>e7&#45;&gt;v24</title>
<path fill="none" stroke="green" d="M738,-242C738,-242 897.754,-229.527 924,-196 961.806,-147.705 946.513,-115.052 924,-58 917.82,-42.3399 903.515,-28.8745 893.096,-20.6303"/>
</g>
<!-- v0&#45;&gt;v1 -->
<g id="edge2" class="edge"><title>v0&#45;&gt;v1</title>
<path fill="none" stroke="black" d="M688.529,-239.238C714.822,-232.149 782.37,-212.695 798,-196 827.367,-164.631 834.636,-111.549 836.425,-85.4402"/>
<polygon fill="black" stroke="black" points="836.729,-80.2959 838.68,-85.4201 836.581,-82.7916 836.434,-85.2872 836.434,-85.2872 836.434,-85.2872 836.581,-82.7916 834.187,-85.1543 836.729,-80.2959 836.729,-80.2959"/>
</g>
<!-- v0&#45;&gt;v3 -->
<g id="edge3" class="edge"><title>v0&#45;&gt;v3</title>
<path fill="none" stroke="black" d="M678.119,-231.756C678.456,-202.786 679.417,-120.136 679.819,-85.5335"/>
<polygon fill="black" stroke="black" points="679.879,-80.4081 682.071,-85.4339 679.85,-82.9079 679.821,-85.4077 679.821,-85.4077 679.821,-85.4077 679.85,-82.9079 677.571,-85.3815 679.879,-80.4081 679.879,-80.4081"/>
</g>
<!-- v0&#45;&gt;v4 -->
<g id="edge4" class="edge"><title>v0&#45;&gt;v4</title>
<path fill="none" stroke="black" d="M667.506,-239.642C638.426,-233.078 554.375,-213.897 485,-196 479.229,-194.511 472.964,-192.803 467.302,-191.225"/>
<polygon fill="black" stroke="black" points="462.304,-189.822 467.726,-189.007 464.711,-190.498 467.118,-191.173 467.118,-191.173 467.118,-191.173 464.711,-190.498 466.51,-193.339 462.304,-189.822 462.304,-189.822"/>
</g>
<!-- v0&#45;&gt;v6 -->
<g id="edge5" class="edge"><title>v0&#45;&gt;v6</title>
<path fill="none" stroke="black" d="M666.923,-241.424C623.124,-238.938 462.594,-227.77 425,-196 375.361,-154.051 396.906,-62.9188 407.95,-26.9923"/>
<polygon fill="black" stroke="black" points="409.494,-22.1047 410.134,-27.5502 408.741,-24.4887 407.988,-26.8726 407.988,-26.8726 407.988,-26.8726 408.741,-24.4887 405.842,-26.195 409.494,-22.1047 409.494,-22.1047"/>
</g>
<!-- v0&#45;&gt;v23 -->
<g id="edge6" class="edge"><title>v0&#45;&gt;v23</title>
<path fill="none" stroke="black" d="M683.375,-233.305C697.589,-209.736 735.965,-142.214 749,-80 752.842,-61.6634 746.536,-40.6086 740.96,-26.8458"/>
<polygon fill="black" stroke="black" points="738.959,-22.1238 742.981,-25.8495 739.934,-24.4256 740.91,-26.7275 740.91,-26.7275 740.91,-26.7275 739.934,-24.4256 738.838,-27.6054 738.959,-22.1238 738.959,-22.1238"/>
</g>
<!-- v0&#45;&gt;v24 -->
<g id="edge7" class="edge"><title>v0&#45;&gt;v24</title>
<path fill="none" stroke="black" d="M688.878,-239.521C718.34,-232.648 798.885,-212.748 820,-196 867.177,-158.581 873.853,-138.01 890,-80 894.949,-62.2214 890.608,-41.049 886.411,-27.1065"/>
<polygon fill="black" stroke="black" points="884.889,-22.3166 888.548,-26.4003 885.646,-24.6992 886.403,-27.0818 886.403,-27.0818 886.403,-27.0818 885.646,-24.6992 884.259,-27.7633 884.889,-22.3166 884.889,-22.3166"/>
</g>
<!-- v2 -->
<g id="v2_Ref&#39;" class="node"><title>v2</title>
<ellipse fill="none" stroke="black" cx="816" cy="-11" rx="21.5" ry="11"/>
<text text-anchor="middle" x="816" y="-8.8" font-family="sans-serif" font-size="9.00">Ref&#39;</text>
</g>
<!-- v1&#45;&gt;v2 -->
<g id="edge8" class="edge"><title>v1&#45;&gt;v2</title>
<path fill="none" stroke="black" d="M833.246,-57.9883C829.991,-49.3083 825.236,-36.6286 821.543,-26.7806"/>
<polygon fill="black" stroke="black" points="819.722,-21.925 823.584,-25.8166 820.6,-24.2658 821.478,-26.6067 821.478,-26.6067 821.478,-26.6067 820.6,-24.2658 819.371,-27.3967 819.722,-21.925 819.722,-21.925"/>
</g>
<!-- v1&#45;&gt;v3 -->
<g id="edge26" class="edge"><title>v1&#45;&gt;v3</title>
<path fill="none" stroke="green" d="M824.845,-78.923C815.63,-85.7724 802.318,-94.2892 789,-98 757.746,-106.708 746.597,-108.791 716,-98 705.252,-94.2095 695.352,-85.7015 688.665,-78.8756"/>
</g>
<!-- v5 -->
<g id="v5_Record" class="node"><title>v5</title>
<ellipse fill="none" stroke="black" cx="442" cy="-127" rx="29" ry="11"/>
<text text-anchor="middle" x="442" y="-124.8" font-family="sans-serif" font-size="9.00">Record</text>
</g>
<!-- v2&#45;&gt;v5 -->
<g id="edge27" class="edge"><title>v2&#45;&gt;v5</title>
<path fill="none" stroke="green" d="M796.954,-16.6143C788.186,-18.5714 777.616,-20.697 768,-22 705.994,-30.402 248.808,-12.3623 206,-58 199.311,-65.1315 199.783,-72.4536 206,-80 232.013,-111.573 356.532,-121.764 413.472,-124.807"/>
</g>
<!-- v8 -->
<g id="v8_Ref" class="node"><title>v8</title>
<ellipse fill="none" stroke="black" cx="673" cy="-11" rx="18" ry="11"/>
<text text-anchor="middle" x="673" y="-8.8" font-family="sans-serif" font-size="9.00">Ref</text>
</g>
<!-- v3&#45;&gt;v8 -->
<g id="edge9" class="edge"><title>v3&#45;&gt;v8</title>
<path fill="none" stroke="black" d="M678.749,-57.9883C677.687,-49.4941 676.146,-37.1697 674.927,-27.4169"/>
<polygon fill="black" stroke="black" points="674.288,-22.3039 677.141,-26.9861 674.598,-24.7846 674.908,-27.2653 674.908,-27.2653 674.908,-27.2653 674.598,-24.7846 672.676,-27.5444 674.288,-22.3039 674.288,-22.3039"/>
</g>
<!-- v4&#45;&gt;v5 -->
<g id="edge10" class="edge"><title>v4&#45;&gt;v5</title>
<path fill="none" stroke="black" d="M447.749,-173.988C446.687,-165.494 445.146,-153.17 443.927,-143.417"/>
<polygon fill="black" stroke="black" points="443.288,-138.304 446.141,-142.986 443.598,-140.785 443.908,-143.265 443.908,-143.265 443.908,-143.265 443.598,-140.785 441.676,-143.544 443.288,-138.304 443.288,-138.304"/>
</g>
<!-- v7 -->
<g id="v7_Record" class="node"><title>v7</title>
<ellipse fill="none" stroke="black" cx="556" cy="-127" rx="29" ry="11"/>
<text text-anchor="middle" x="556" y="-124.8" font-family="sans-serif" font-size="9.00">Record</text>
</g>
<!-- v4&#45;&gt;v7 -->
<g id="edge11" class="edge"><title>v4&#45;&gt;v7</title>
<path fill="none" stroke="black" d="M460.451,-178.007C478.369,-168.629 513.287,-150.354 535.584,-138.685"/>
<polygon fill="black" stroke="black" points="540.14,-136.301 536.753,-140.613 537.925,-137.46 535.71,-138.619 535.71,-138.619 535.71,-138.619 537.925,-137.46 534.666,-136.626 540.14,-136.301 540.14,-136.301"/>
</g>
<!-- v4&#45;&gt;v9 -->
<g id="edge12" class="edge"><title>v4&#45;&gt;v9</title>
<path fill="none" stroke="black" d="M434.848,-181.805C381.826,-173.58 194.155,-144.467 119.229,-132.844"/>
<polygon fill="black" stroke="black" points="114.033,-132.038 119.319,-130.582 116.504,-132.422 118.974,-132.805 118.974,-132.805 118.974,-132.805 116.504,-132.422 118.629,-135.028 114.033,-132.038 114.033,-132.038"/>
</g>
<!-- v4&#45;&gt;v16 -->
<g id="edge13" class="edge"><title>v4&#45;&gt;v16</title>
<path fill="none" stroke="black" d="M435.812,-180.326C403.266,-171.258 318.609,-147.672 274.935,-135.504"/>
<polygon fill="black" stroke="black" points="270.073,-134.15 275.494,-133.324 272.482,-134.821 274.89,-135.492 274.89,-135.492 274.89,-135.492 272.482,-134.821 274.286,-137.659 270.073,-134.15 270.073,-134.15"/>
</g>
<!-- v13 -->
<g id="v13_Id(1)" class="node"><title>v13</title>
<ellipse fill="none" stroke="black" cx="337" cy="-11" rx="25" ry="11"/>
<text text-anchor="middle" x="337" y="-8.8" font-family="sans-serif" font-size="9.00">Id(1)</text>
</g>
<!-- v5&#45;&gt;v13 -->
<g id="edge14" class="edge"><title>v5&#45;&gt;v13</title>
<path fill="none" stroke="black" d="M433.048,-116.28C414.201,-95.8187 370.42,-48.2843 349.1,-25.137"/>
<polygon fill="black" stroke="black" points="345.634,-21.3745 350.677,-23.5279 347.328,-23.2134 349.022,-25.0523 349.022,-25.0523 349.022,-25.0523 347.328,-23.2134 347.367,-26.5766 345.634,-21.3745 345.634,-21.3745"/>
</g>
<!-- v14 -->
<g id="v14_Private" class="node"><title>v14</title>
<ellipse fill="none" stroke="black" cx="489" cy="-69" rx="32.5" ry="11"/>
<text text-anchor="middle" x="489" y="-66.8" font-family="sans-serif" font-size="9.00">Private</text>
</g>
<!-- v5&#45;&gt;v14 -->
<g id="edge15" class="edge"><title>v5&#45;&gt;v14</title>
<path fill="none" stroke="black" d="M450.187,-116.246C457.643,-107.362 468.742,-94.1372 477.164,-84.1029"/>
<polygon fill="black" stroke="black" points="480.591,-80.0198 479.1,-85.2961 478.983,-81.9347 477.376,-83.8496 477.376,-83.8496 477.376,-83.8496 478.983,-81.9347 475.653,-82.4032 480.591,-80.0198 480.591,-80.0198"/>
</g>
<!-- v7&#45;&gt;v8 -->
<g id="edge28" class="edge"><title>v7&#45;&gt;v8</title>
<path fill="none" stroke="green" d="M531.327,-120.97C491.511,-111.775 420.132,-90.1932 447,-58 504.31,10.6698 558.597,-45.1183 645,-22 649.488,-20.7992 654.281,-19.2068 658.61,-17.6465"/>
</g>
<!-- v20 -->
<g id="v20_Id(3)" class="node"><title>v20</title>
<ellipse fill="none" stroke="black" cx="550" cy="-11" rx="25" ry="11"/>
<text text-anchor="middle" x="550" y="-8.8" font-family="sans-serif" font-size="9.00">Id(3)</text>
</g>
<!-- v7&#45;&gt;v20 -->
<g id="edge16" class="edge"><title>v7&#45;&gt;v20</title>
<path fill="none" stroke="black" d="M555.468,-115.883C554.416,-95.9059 552.067,-51.276 550.818,-27.5402"/>
<polygon fill="black" stroke="black" points="550.54,-22.2579 553.05,-27.1327 550.671,-24.7545 550.803,-27.251 550.803,-27.251 550.803,-27.251 550.671,-24.7545 548.556,-27.3693 550.54,-22.2579 550.54,-22.2579"/>
</g>
<!-- v21 -->
<g id="v21_Private" class="node"><title>v21</title>
<ellipse fill="none" stroke="black" cx="611" cy="-69" rx="32.5" ry="11"/>
<text text-anchor="middle" x="611" y="-66.8" font-family="sans-serif" font-size="9.00">Private</text>
</g>
<!-- v7&#45;&gt;v21 -->
<g id="edge17" class="edge"><title>v7&#45;&gt;v21</title>
<path fill="none" stroke="black" d="M565.33,-116.5C574.283,-107.385 587.887,-93.5334 597.92,-83.318"/>
<polygon fill="black" stroke="black" points="601.439,-79.7345 599.541,-84.8783 599.688,-81.5181 597.936,-83.3017 597.936,-83.3017 597.936,-83.3017 599.688,-81.5181 596.331,-81.7251 601.439,-79.7345 601.439,-79.7345"/>
</g>
<!-- v10 -->
<g id="v10_Id(0)" class="node"><title>v10</title>
<ellipse fill="none" stroke="black" cx="25" cy="-11" rx="25" ry="11"/>
<text text-anchor="middle" x="25" y="-8.8" font-family="sans-serif" font-size="9.00">Id(0)</text>
</g>
<!-- v9&#45;&gt;v10 -->
<g id="edge18" class="edge"><title>v9&#45;&gt;v10</title>
<path fill="none" stroke="black" d="M76.8792,-116.457C67.4399,-107.809 54.164,-94.2668 46,-80 36.3808,-63.1901 30.6681,-41.4714 27.6844,-27.1576"/>
<polygon fill="black" stroke="black" points="26.7064,-22.2419 29.8889,-26.7067 27.1942,-24.6939 27.6821,-27.1458 27.6821,-27.1458 27.6821,-27.1458 27.1942,-24.6939 25.4754,-27.5849 26.7064,-22.2419 26.7064,-22.2419"/>
</g>
<!-- v11 -->
<g id="v11_Private" class="node"><title>v11</title>
<ellipse fill="none" stroke="black" cx="88" cy="-69" rx="32.5" ry="11"/>
<text text-anchor="middle" x="88" y="-66.8" font-family="sans-serif" font-size="9.00">Private</text>
</g>
<!-- v9&#45;&gt;v11 -->
<g id="edge19" class="edge"><title>v9&#45;&gt;v11</title>
<path fill="none" stroke="black" d="M88,-115.988C88,-107.494 88,-95.1697 88,-85.4169"/>
<polygon fill="black" stroke="black" points="88,-80.3039 90.2501,-85.3038 88,-82.8039 88.0001,-85.3039 88.0001,-85.3039 88.0001,-85.3039 88,-82.8039 85.7501,-85.3039 88,-80.3039 88,-80.3039"/>
</g>
<!-- v12 -->
<g id="v12_Data" class="node"><title>v12</title>
<ellipse fill="none" stroke="black" cx="90" cy="-11" rx="21.5" ry="11"/>
<text text-anchor="middle" x="90" y="-8.8" font-family="sans-serif" font-size="9.00">Data</text>
</g>
<!-- v11&#45;&gt;v12 -->
<g id="edge20" class="edge"><title>v11&#45;&gt;v12</title>
<path fill="none" stroke="black" d="M88.3576,-57.9883C88.6609,-49.4941 89.1011,-37.1697 89.4494,-27.4169"/>
<polygon fill="black" stroke="black" points="89.632,-22.3039 91.702,-27.381 89.5427,-24.8023 89.4535,-27.3007 89.4535,-27.3007 89.4535,-27.3007 89.5427,-24.8023 87.2049,-27.2203 89.632,-22.3039 89.632,-22.3039"/>
</g>
<!-- v15 -->
<g id="v15_Data" class="node"><title>v15</title>
<ellipse fill="none" stroke="black" cx="485" cy="-11" rx="21.5" ry="11"/>
<text text-anchor="middle" x="485" y="-8.8" font-family="sans-serif" font-size="9.00">Data</text>
</g>
<!-- v14&#45;&gt;v15 -->
<g id="edge21" class="edge"><title>v14&#45;&gt;v15</title>
<path fill="none" stroke="black" d="M488.285,-57.9883C487.678,-49.4941 486.798,-37.1697 486.101,-27.4169"/>
<polygon fill="black" stroke="black" points="485.736,-22.3039 488.337,-27.1308 485.914,-24.7975 486.092,-27.2912 486.092,-27.2912 486.092,-27.2912 485.914,-24.7975 483.848,-27.4515 485.736,-22.3039 485.736,-22.3039"/>
</g>
<!-- v17 -->
<g id="v17_Id(2)" class="node"><title>v17</title>
<ellipse fill="none" stroke="black" cx="187" cy="-11" rx="25" ry="11"/>
<text text-anchor="middle" x="187" y="-8.8" font-family="sans-serif" font-size="9.00">Id(2)</text>
</g>
<!-- v16&#45;&gt;v17 -->
<g id="edge22" class="edge"><title>v16&#45;&gt;v17</title>
<path fill="none" stroke="black" d="M236.783,-116.511C227.282,-107.897 213.97,-94.376 206,-80 196.765,-63.3432 191.741,-41.8565 189.219,-27.5386"/>
<polygon fill="black" stroke="black" points="188.342,-22.2438 191.379,-26.8092 188.75,-24.7102 189.159,-27.1767 189.159,-27.1767 189.159,-27.1767 188.75,-24.7102 186.939,-27.5441 188.342,-22.2438 188.342,-22.2438"/>
</g>
<!-- v18 -->
<g id="v18_Private" class="node"><title>v18</title>
<ellipse fill="none" stroke="black" cx="248" cy="-69" rx="32.5" ry="11"/>
<text text-anchor="middle" x="248" y="-66.8" font-family="sans-serif" font-size="9.00">Private</text>
</g>
<!-- v16&#45;&gt;v18 -->
<g id="edge23" class="edge"><title>v16&#45;&gt;v18</title>
<path fill="none" stroke="black" d="M248,-115.988C248,-107.494 248,-95.1697 248,-85.4169"/>
<polygon fill="black" stroke="black" points="248,-80.3039 250.25,-85.3038 248,-82.8039 248,-85.3039 248,-85.3039 248,-85.3039 248,-82.8039 245.75,-85.3039 248,-80.3039 248,-80.3039"/>
</g>
<!-- v19 -->
<g id="v19_Data" class="node"><title>v19</title>
<ellipse fill="none" stroke="black" cx="252" cy="-11" rx="21.5" ry="11"/>
<text text-anchor="middle" x="252" y="-8.8" font-family="sans-serif" font-size="9.00">Data</text>
</g>
<!-- v18&#45;&gt;v19 -->
<g id="edge24" class="edge"><title>v18&#45;&gt;v19</title>
<path fill="none" stroke="black" d="M248.715,-57.9883C249.322,-49.4941 250.202,-37.1697 250.899,-27.4169"/>
<polygon fill="black" stroke="black" points="251.264,-22.3039 253.152,-27.4515 251.086,-24.7975 250.908,-27.2912 250.908,-27.2912 250.908,-27.2912 251.086,-24.7975 248.663,-27.1308 251.264,-22.3039 251.264,-22.3039"/>
</g>
<!-- v22 -->
<g id="v22_Data" class="node"><title>v22</title>
<ellipse fill="none" stroke="black" cx="615" cy="-11" rx="21.5" ry="11"/>
<text text-anchor="middle" x="615" y="-8.8" font-family="sans-serif" font-size="9.00">Data</text>
</g>
<!-- v21&#45;&gt;v22 -->
<g id="edge25" class="edge"><title>v21&#45;&gt;v22</title>
<path fill="none" stroke="black" d="M611.715,-57.9883C612.322,-49.4941 613.202,-37.1697 613.899,-27.4169"/>
<polygon fill="black" stroke="black" points="614.264,-22.3039 616.152,-27.4515 614.086,-24.7975 613.908,-27.2912 613.908,-27.2912 613.908,-27.2912 614.086,-24.7975 611.663,-27.1308 614.264,-22.3039 614.264,-22.3039"/>
</g>
</g>
</svg>
