<?xml version="1.0" encoding="UTF-8" standalone="no"?>
<?xml-stylesheet href="style.css" type="text/css"?>
<!DOCTYPE svg PUBLIC "-//W3C//DTD SVG 1.1//EN"
 "http://www.w3.org/Graphics/SVG/1.1/DTD/svg11.dtd">
<!-- Generated by graphviz version 2.38.0 (20140413.2041)
 -->
<!-- Title: 83.svg Pages: 1 -->
<svg width="1095pt" height="316pt"
 viewBox="0.00 0.00 1094.50 316.00" xmlns="http://www.w3.org/2000/svg" xmlns:xlink="http://www.w3.org/1999/xlink">
<g id="graph0" class="graph" transform="scale(1 1) rotate(0) translate(4 312)">
<title>83.svg</title>
<polygon fill="white" stroke="none" points="-4,4 -4,-312 1090.5,-312 1090.5,4 -4,4"/>
<!-- r0 -->
<g id="node1" class="node"><title>r0</title>
<polygon fill="none" stroke="black" stroke-dasharray="5,2" points="565,-308 542,-308 542,-290 565,-290 565,-308"/>
<text text-anchor="middle" x="553.5" y="-296.8" font-family="serif" font-size="9.00">0</text>
</g>
<!-- v0 -->
<g id="v0_H" class="node"><title>v0</title>
<ellipse fill="none" stroke="black" cx="553.5" cy="-243" rx="11" ry="11"/>
<text text-anchor="middle" x="553.5" y="-240.8" font-family="sans-serif" font-size="9.00">H</text>
</g>
<!-- r0&#45;&gt;v0 -->
<g id="edge1" class="edge"><title>r0&#45;&gt;v0</title>
<path fill="none" stroke="black" d="M553.5,-289.562C553.5,-281.453 553.5,-269.014 553.5,-259.181"/>
<polygon fill="black" stroke="black" points="553.5,-254.03 555.75,-259.03 553.5,-256.53 553.5,-259.03 553.5,-259.03 553.5,-259.03 553.5,-256.53 551.25,-259.03 553.5,-254.03 553.5,-254.03"/>
</g>
<!-- odb -->
<g id="node2" class="node"><title>odb</title>
<text text-anchor="middle" x="618.5" y="-296.8" font-family="serif" font-size="9.00">db</text>
</g>
<!-- e8 -->
<g id="node10" class="node"><title>e8</title>
</g>
<!-- odb&#45;&gt;e8 -->
<g id="edge37" class="edge"><title>odb&#45;&gt;e8</title>
<path fill="none" stroke="green" d="M618.5,-289.562C618.5,-274.375 618.5,-244 618.5,-244"/>
</g>
<!-- e0 -->
<g id="node3" class="node"><title>e0</title>
</g>
<!-- v2 -->
<g id="v2_Record" class="node"><title>v2</title>
<ellipse fill="none" stroke="black" cx="497.5" cy="-127" rx="29" ry="11"/>
<text text-anchor="middle" x="497.5" y="-124.8" font-family="sans-serif" font-size="9.00">Record</text>
</g>
<!-- e0&#45;&gt;v2 -->
<g id="edge27" class="edge"><title>e0&#45;&gt;v2</title>
<path fill="none" stroke="green" d="M497.5,-180.167C497.5,-171.586 497.5,-150.596 497.5,-138.012"/>
<polygon fill="green" stroke="green" points="501,-183.3 494,-183.3 494,-181.9 501,-181.9 501,-183.3"/>
<polyline fill="none" stroke="green" points="497.5,-184 497.5,-180.5 "/>
</g>
<!-- e1 -->
<g id="node4" class="node"><title>e1</title>
</g>
<!-- v5 -->
<g id="v5_Doc" class="node"><title>v5</title>
<ellipse fill="none" stroke="black" cx="205.5" cy="-69" rx="18" ry="11"/>
<text text-anchor="middle" x="205.5" y="-66.8" font-family="sans-serif" font-size="9.00">Doc</text>
</g>
<!-- e1&#45;&gt;v5 -->
<g id="edge28" class="edge"><title>e1&#45;&gt;v5</title>
<path fill="none" stroke="green" d="M205.5,-122.167C205.5,-113.586 205.5,-92.5957 205.5,-80.0117"/>
<polygon fill="green" stroke="green" points="209,-125.3 202,-125.3 202,-123.9 209,-123.9 209,-125.3"/>
<polyline fill="none" stroke="green" points="205.5,-126 205.5,-122.5 "/>
</g>
<!-- e2 -->
<g id="node5" class="node"><title>e2</title>
</g>
<!-- v6 -->
<g id="v6_Ref&#39;" class="node"><title>v6</title>
<ellipse fill="none" stroke="black" cx="263.5" cy="-11" rx="21.5" ry="11"/>
<text text-anchor="middle" x="263.5" y="-8.8" font-family="sans-serif" font-size="9.00">Ref&#39;</text>
</g>
<!-- e2&#45;&gt;v6 -->
<g id="edge29" class="edge"><title>e2&#45;&gt;v6</title>
<path fill="none" stroke="green" d="M272.5,-184C272.5,-184 265.974,-59.2727 264.036,-22.2443"/>
</g>
<!-- v7 -->
<g id="v7_Data_local" class="node"><title>v7</title>
<ellipse fill="none" stroke="black" cx="126.5" cy="-11" rx="43" ry="11"/>
<text text-anchor="middle" x="126.5" y="-8.8" font-family="sans-serif" font-size="9.00">Data_local</text>
</g>
<!-- e2&#45;&gt;v7 -->
<g id="edge30" class="edge"><title>e2&#45;&gt;v7</title>
<path fill="none" stroke="green" d="M272.5,-184C272.5,-184 223.155,-166.712 195.5,-138 160.897,-102.074 138.247,-45.3782 129.993,-22.2928"/>
</g>
<!-- v11 -->
<g id="v11_Record" class="node"><title>v11</title>
<ellipse fill="none" stroke="black" cx="361.5" cy="-127" rx="29" ry="11"/>
<text text-anchor="middle" x="361.5" y="-124.8" font-family="sans-serif" font-size="9.00">Record</text>
</g>
<!-- e2&#45;&gt;v11 -->
<g id="edge31" class="edge"><title>e2&#45;&gt;v11</title>
<path fill="none" stroke="green" d="M272.5,-184C272.5,-184 322.562,-152.5 347.594,-136.75"/>
</g>
<!-- e4 -->
<g id="node6" class="node"><title>e4</title>
</g>
<!-- v19 -->
<g id="v19_Record" class="node"><title>v19</title>
<ellipse fill="none" stroke="black" cx="798.5" cy="-127" rx="29" ry="11"/>
<text text-anchor="middle" x="798.5" y="-124.8" font-family="sans-serif" font-size="9.00">Record</text>
</g>
<!-- e4&#45;&gt;v19 -->
<g id="edge33" class="edge"><title>e4&#45;&gt;v19</title>
<path fill="none" stroke="green" d="M798.5,-180.167C798.5,-171.586 798.5,-150.596 798.5,-138.012"/>
<polygon fill="green" stroke="green" points="802,-183.3 795,-183.3 795,-181.9 802,-181.9 802,-183.3"/>
<polyline fill="none" stroke="green" points="798.5,-184 798.5,-180.5 "/>
</g>
<!-- e5 -->
<g id="node7" class="node"><title>e5</title>
</g>
<!-- v23 -->
<g id="v23_Nurse" class="node"><title>v23</title>
<ellipse fill="none" stroke="black" cx="927.5" cy="-11" rx="25" ry="11"/>
<text text-anchor="middle" x="927.5" y="-8.8" font-family="sans-serif" font-size="9.00">Nurse</text>
</g>
<!-- e5&#45;&gt;v23 -->
<g id="edge34" class="edge"><title>e5&#45;&gt;v23</title>
<path fill="none" stroke="green" d="M927.5,-64.1674C927.5,-55.5862 927.5,-34.5957 927.5,-22.0117"/>
<polygon fill="green" stroke="green" points="931,-67.3001 924,-67.2999 924,-65.8999 931,-65.9001 931,-67.3001"/>
<polyline fill="none" stroke="green" points="927.5,-68 927.5,-64.5 "/>
</g>
<!-- e6 -->
<g id="node8" class="node"><title>e6</title>
</g>
<!-- v24 -->
<g id="v24_Nurse" class="node"><title>v24</title>
<ellipse fill="none" stroke="black" cx="1061.5" cy="-11" rx="25" ry="11"/>
<text text-anchor="middle" x="1061.5" y="-8.8" font-family="sans-serif" font-size="9.00">Nurse</text>
</g>
<!-- e6&#45;&gt;v24 -->
<g id="edge35" class="edge"><title>e6&#45;&gt;v24</title>
<path fill="none" stroke="green" d="M1061.5,-64.1674C1061.5,-55.5862 1061.5,-34.5957 1061.5,-22.0117"/>
<polygon fill="green" stroke="green" points="1065,-67.3001 1058,-67.2999 1058,-65.8999 1065,-65.9001 1065,-67.3001"/>
<polyline fill="none" stroke="green" points="1061.5,-68 1061.5,-64.5 "/>
</g>
<!-- e7 -->
<g id="node9" class="node"><title>e7</title>
</g>
<!-- v25 -->
<g id="v25_Nurse" class="node"><title>v25</title>
<ellipse fill="none" stroke="black" cx="587.5" cy="-11" rx="25" ry="11"/>
<text text-anchor="middle" x="587.5" y="-8.8" font-family="sans-serif" font-size="9.00">Nurse</text>
</g>
<!-- e7&#45;&gt;v25 -->
<g id="edge36" class="edge"><title>e7&#45;&gt;v25</title>
<path fill="none" stroke="green" d="M587.5,-64.1674C587.5,-55.5862 587.5,-34.5957 587.5,-22.0117"/>
<polygon fill="green" stroke="green" points="591,-67.3001 584,-67.2999 584,-65.8999 591,-65.9001 591,-67.3001"/>
<polyline fill="none" stroke="green" points="587.5,-68 587.5,-64.5 "/>
</g>
<!-- v1 -->
<g id="v1_DB" class="node"><title>v1</title>
<ellipse fill="none" stroke="black" cx="586.5" cy="-185" rx="14.5" ry="11"/>
<text text-anchor="middle" x="586.5" y="-182.8" font-family="sans-serif" font-size="9.00">DB</text>
</g>
<!-- e8&#45;&gt;v1 -->
<g id="edge38" class="edge"><title>e8&#45;&gt;v1</title>
<path fill="none" stroke="green" d="M618.5,-242C618.5,-242 600.873,-211.153 591.784,-195.247"/>
</g>
<!-- e8&#45;&gt;v5 -->
<g id="edge39" class="edge"><title>e8&#45;&gt;v5</title>
<path fill="none" stroke="green" d="M618.5,-242C618.5,-242 593.703,-235.405 573.5,-232 504.895,-220.438 318.692,-237.022 262.5,-196 242.333,-181.277 217.308,-107.299 208.633,-80.0751"/>
</g>
<!-- v9 -->
<g id="v9_DBadmin" class="node"><title>v9</title>
<ellipse fill="none" stroke="black" cx="32.5" cy="-11" rx="32.5" ry="11"/>
<text text-anchor="middle" x="32.5" y="-8.8" font-family="sans-serif" font-size="9.00">DBadmin</text>
</g>
<!-- e8&#45;&gt;v9 -->
<g id="edge40" class="edge"><title>e8&#45;&gt;v9</title>
<path fill="none" stroke="green" d="M618.5,-242C618.5,-242 593.714,-235.338 573.5,-232 427.935,-207.961 378.638,-255.202 243.5,-196 148.229,-154.263 64.7941,-53.7273 39.9815,-21.8626"/>
</g>
<!-- e8&#45;&gt;v23 -->
<g id="edge41" class="edge"><title>e8&#45;&gt;v23</title>
<path fill="none" stroke="green" d="M618.5,-242C618.5,-242 863.597,-241.268 911.5,-196 960.907,-149.31 939.456,-53.7649 930.623,-22.3004"/>
</g>
<!-- e8&#45;&gt;v24 -->
<g id="edge42" class="edge"><title>e8&#45;&gt;v24</title>
<path fill="none" stroke="green" d="M618.5,-242C618.5,-242 874.212,-233.43 934.5,-196 1004.74,-152.392 1046.02,-53.9716 1057.9,-22.1389"/>
</g>
<!-- e8&#45;&gt;v25 -->
<g id="edge43" class="edge"><title>e8&#45;&gt;v25</title>
<path fill="none" stroke="green" d="M618.5,-242C618.5,-242 609.305,-139.359 596.5,-58 594.552,-45.6206 591.691,-31.4888 589.72,-22.1928"/>
</g>
<!-- v0&#45;&gt;v1 -->
<g id="edge2" class="edge"><title>v0&#45;&gt;v1</title>
<path fill="none" stroke="black" d="M558.656,-233.25C563.938,-224.287 572.226,-210.223 578.388,-199.766"/>
<polygon fill="black" stroke="black" points="581.051,-195.247 580.451,-200.697 579.781,-197.401 578.512,-199.555 578.512,-199.555 578.512,-199.555 579.781,-197.401 576.574,-198.413 581.051,-195.247 581.051,-195.247"/>
</g>
<!-- v0&#45;&gt;v5 -->
<g id="edge3" class="edge"><title>v0&#45;&gt;v5</title>
<path fill="none" stroke="black" d="M542.332,-241.889C490.388,-241.164 272.746,-235.763 220.5,-196 190.857,-173.44 191.521,-153.038 195.5,-116 196.624,-105.539 199.146,-93.9669 201.376,-85.0462"/>
<polygon fill="black" stroke="black" points="202.643,-80.1288 203.575,-85.532 202.019,-82.5498 201.396,-84.9708 201.396,-84.9708 201.396,-84.9708 202.019,-82.5498 199.217,-84.4095 202.643,-80.1288 202.643,-80.1288"/>
</g>
<!-- v0&#45;&gt;v9 -->
<g id="edge4" class="edge"><title>v0&#45;&gt;v9</title>
<path fill="none" stroke="black" d="M542.485,-241.643C475.341,-239.373 122.811,-226.077 86.5,-196 34.6626,-153.063 31.0228,-63.1773 31.7834,-27.2831"/>
<polygon fill="black" stroke="black" points="31.9365,-22.0013 34.0406,-27.0644 31.864,-24.5002 31.7915,-26.9992 31.7915,-26.9992 31.7915,-26.9992 31.864,-24.5002 29.5425,-26.9339 31.9365,-22.0013 31.9365,-22.0013"/>
</g>
<!-- v0&#45;&gt;v23 -->
<g id="edge5" class="edge"><title>v0&#45;&gt;v23</title>
<path fill="none" stroke="black" d="M564.457,-240.005C575.556,-237.985 593.221,-234.771 608.5,-232 696.937,-215.961 732.612,-245.701 807.5,-196 872.011,-153.186 909.671,-62.5605 922.497,-26.8811"/>
<polygon fill="black" stroke="black" points="924.209,-22.0279 924.667,-27.4916 923.377,-24.3854 922.546,-26.743 922.546,-26.743 922.546,-26.743 923.377,-24.3854 920.424,-25.9943 924.209,-22.0279 924.209,-22.0279"/>
</g>
<!-- v0&#45;&gt;v24 -->
<g id="edge6" class="edge"><title>v0&#45;&gt;v24</title>
<path fill="none" stroke="black" d="M564.445,-239.937C575.535,-237.864 593.193,-234.61 608.5,-232 708.763,-214.902 741.611,-237.433 834.5,-196 929.774,-153.503 1018.46,-60.5518 1049.66,-25.626"/>
<polygon fill="black" stroke="black" points="1053.18,-21.6618 1051.55,-26.8952 1051.52,-23.5319 1049.86,-25.402 1049.86,-25.402 1049.86,-25.402 1051.52,-23.5319 1048.18,-23.9087 1053.18,-21.6618 1053.18,-21.6618"/>
</g>
<!-- v0&#45;&gt;v25 -->
<g id="edge7" class="edge"><title>v0&#45;&gt;v25</title>
<path fill="none" stroke="black" d="M554.506,-231.983C557.358,-204.226 566.039,-124.02 577.5,-58 579.299,-47.634 581.818,-36.0612 583.877,-27.1165"/>
<polygon fill="black" stroke="black" points="585.028,-22.1828 586.083,-27.5631 584.46,-24.6175 583.892,-27.0521 583.892,-27.0521 583.892,-27.0521 584.46,-24.6175 581.701,-26.5411 585.028,-22.1828 585.028,-22.1828"/>
</g>
<!-- v1&#45;&gt;v2 -->
<g id="edge8" class="edge"><title>v1&#45;&gt;v2</title>
<path fill="none" stroke="black" d="M575.941,-177.356C561.169,-168.061 534.112,-151.037 515.965,-139.618"/>
<polygon fill="black" stroke="black" points="511.556,-136.844 516.987,-137.603 513.672,-138.176 515.788,-139.507 515.788,-139.507 515.788,-139.507 513.672,-138.176 514.59,-141.412 511.556,-136.844 511.556,-136.844"/>
</g>
<!-- v8 -->
<g id="v8_Record" class="node"><title>v8</title>
<ellipse fill="none" stroke="black" cx="673.5" cy="-127" rx="29" ry="11"/>
<text text-anchor="middle" x="673.5" y="-124.8" font-family="sans-serif" font-size="9.00">Record</text>
</g>
<!-- v1&#45;&gt;v8 -->
<g id="edge9" class="edge"><title>v1&#45;&gt;v8</title>
<path fill="none" stroke="black" d="M597.168,-177.133C611.724,-167.764 638.008,-150.845 655.607,-139.517"/>
<polygon fill="black" stroke="black" points="659.882,-136.765 656.896,-141.364 657.78,-138.119 655.678,-139.472 655.678,-139.472 655.678,-139.472 657.78,-138.119 654.46,-137.58 659.882,-136.765 659.882,-136.765"/>
</g>
<!-- v1&#45;&gt;v11 -->
<g id="edge10" class="edge"><title>v1&#45;&gt;v11</title>
<path fill="none" stroke="black" d="M573.099,-180.665C537.245,-171.741 438.534,-147.173 389.665,-135.01"/>
<polygon fill="black" stroke="black" points="384.81,-133.802 390.206,-132.826 387.236,-134.406 389.662,-135.009 389.662,-135.009 389.662,-135.009 387.236,-134.406 389.119,-137.193 384.81,-133.802 384.81,-133.802"/>
</g>
<!-- v1&#45;&gt;v19 -->
<g id="edge11" class="edge"><title>v1&#45;&gt;v19</title>
<path fill="none" stroke="black" d="M599.762,-180.497C633.784,-171.51 724.722,-147.489 770.848,-135.304"/>
<polygon fill="black" stroke="black" points="775.707,-134.021 771.447,-137.473 773.29,-134.659 770.873,-135.298 770.873,-135.298 770.873,-135.298 773.29,-134.659 770.298,-133.122 775.707,-134.021 775.707,-134.021"/>
</g>
<!-- v3 -->
<g id="v3_Private" class="node"><title>v3</title>
<ellipse fill="none" stroke="black" cx="497.5" cy="-69" rx="32.5" ry="11"/>
<text text-anchor="middle" x="497.5" y="-66.8" font-family="sans-serif" font-size="9.00">Private</text>
</g>
<!-- v2&#45;&gt;v3 -->
<g id="edge12" class="edge"><title>v2&#45;&gt;v3</title>
<path fill="none" stroke="black" d="M497.5,-115.988C497.5,-107.494 497.5,-95.1697 497.5,-85.4169"/>
<polygon fill="black" stroke="black" points="497.5,-80.3039 499.75,-85.3038 497.5,-82.8039 497.5,-85.3039 497.5,-85.3039 497.5,-85.3039 497.5,-82.8039 495.25,-85.3039 497.5,-80.3039 497.5,-80.3039"/>
</g>
<!-- v12 -->
<g id="v12_Id(0)" class="node"><title>v12</title>
<ellipse fill="none" stroke="black" cx="457.5" cy="-11" rx="25" ry="11"/>
<text text-anchor="middle" x="457.5" y="-8.8" font-family="sans-serif" font-size="9.00">Id(0)</text>
</g>
<!-- v2&#45;&gt;v12 -->
<g id="edge13" class="edge"><title>v2&#45;&gt;v12</title>
<path fill="none" stroke="black" d="M485.28,-116.981C475.136,-108.669 461.444,-95.3252 455.5,-80 448.864,-62.891 451.02,-41.501 453.74,-27.329"/>
<polygon fill="black" stroke="black" points="454.834,-22.0937 456.014,-27.4482 454.323,-24.5409 453.811,-26.988 453.811,-26.988 453.811,-26.988 454.323,-24.5409 451.609,-26.5278 454.834,-22.0937 454.834,-22.0937"/>
</g>
<!-- v4 -->
<g id="v4_Data" class="node"><title>v4</title>
<ellipse fill="none" stroke="black" cx="522.5" cy="-11" rx="21.5" ry="11"/>
<text text-anchor="middle" x="522.5" y="-8.8" font-family="sans-serif" font-size="9.00">Data</text>
</g>
<!-- v3&#45;&gt;v4 -->
<g id="edge14" class="edge"><title>v3&#45;&gt;v4</title>
<path fill="none" stroke="black" d="M501.969,-57.9883C505.88,-49.2286 511.609,-36.3956 516.022,-26.5103"/>
<polygon fill="black" stroke="black" points="518.069,-21.925 518.085,-27.4079 517.05,-24.2079 516.031,-26.4907 516.031,-26.4907 516.031,-26.4907 517.05,-24.2079 513.976,-25.5735 518.069,-21.925 518.069,-21.925"/>
</g>
<!-- v5&#45;&gt;v6 -->
<g id="edge15" class="edge"><title>v5&#45;&gt;v6</title>
<path fill="none" stroke="black" d="M214.562,-59.25C224.097,-50.0446 239.203,-35.4588 250.112,-24.9266"/>
<polygon fill="black" stroke="black" points="253.922,-21.2473 251.888,-26.3389 252.124,-22.9838 250.325,-24.7203 250.325,-24.7203 250.325,-24.7203 252.124,-22.9838 248.763,-23.1016 253.922,-21.2473 253.922,-21.2473"/>
</g>
<!-- v5&#45;&gt;v7 -->
<g id="edge16" class="edge"><title>v5&#45;&gt;v7</title>
<path fill="none" stroke="black" d="M194.515,-60.2134C181.494,-50.9833 159.621,-35.4783 144.201,-24.5476"/>
<polygon fill="black" stroke="black" points="140.036,-21.5949 145.416,-22.6509 142.075,-23.0407 144.115,-24.4865 144.115,-24.4865 144.115,-24.4865 142.075,-23.0407 142.814,-26.3221 140.036,-21.5949 140.036,-21.5949"/>
</g>
<!-- v10 -->
<g id="v10_Ref" class="node"><title>v10</title>
<ellipse fill="none" stroke="black" cx="205.5" cy="-11" rx="18" ry="11"/>
<text text-anchor="middle" x="205.5" y="-8.8" font-family="sans-serif" font-size="9.00">Ref</text>
</g>
<!-- v5&#45;&gt;v10 -->
<g id="edge17" class="edge"><title>v5&#45;&gt;v10</title>
<path fill="none" stroke="black" d="M205.5,-57.9883C205.5,-49.4941 205.5,-37.1697 205.5,-27.4169"/>
<polygon fill="black" stroke="black" points="205.5,-22.3039 207.75,-27.3038 205.5,-24.8039 205.5,-27.3039 205.5,-27.3039 205.5,-27.3039 205.5,-24.8039 203.25,-27.3039 205.5,-22.3039 205.5,-22.3039"/>
</g>
<!-- v8&#45;&gt;v10 -->
<g id="edge32" class="edge"><title>v8&#45;&gt;v10</title>
<path fill="none" stroke="green" d="M645.614,-123.916C542.241,-116.125 186.448,-88.7213 178.5,-80 162.757,-62.7259 183.593,-35.1544 196.558,-21.0119"/>
</g>
<!-- v13 -->
<g id="v13_Id(1)" class="node"><title>v13</title>
<ellipse fill="none" stroke="black" cx="655.5" cy="-11" rx="25" ry="11"/>
<text text-anchor="middle" x="655.5" y="-8.8" font-family="sans-serif" font-size="9.00">Id(1)</text>
</g>
<!-- v8&#45;&gt;v13 -->
<g id="edge18" class="edge"><title>v8&#45;&gt;v13</title>
<path fill="none" stroke="black" d="M671.903,-115.883C668.735,-95.8216 661.642,-50.899 657.906,-27.2409"/>
<polygon fill="black" stroke="black" points="657.12,-22.2579 660.122,-26.8458 657.51,-24.7273 657.9,-27.1968 657.9,-27.1968 657.9,-27.1968 657.51,-24.7273 655.677,-27.5477 657.12,-22.2579 657.12,-22.2579"/>
</g>
<!-- v14 -->
<g id="v14_Private" class="node"><title>v14</title>
<ellipse fill="none" stroke="black" cx="715.5" cy="-69" rx="32.5" ry="11"/>
<text text-anchor="middle" x="715.5" y="-66.8" font-family="sans-serif" font-size="9.00">Private</text>
</g>
<!-- v8&#45;&gt;v14 -->
<g id="edge19" class="edge"><title>v8&#45;&gt;v14</title>
<path fill="none" stroke="black" d="M680.816,-116.246C687.479,-107.362 697.397,-94.1372 704.923,-84.1029"/>
<polygon fill="black" stroke="black" points="707.985,-80.0198 706.785,-85.3698 706.485,-82.0198 704.985,-84.0198 704.985,-84.0198 704.985,-84.0198 706.485,-82.0198 703.185,-82.6698 707.985,-80.0198 707.985,-80.0198"/>
</g>
<!-- v16 -->
<g id="v16_Id(2)" class="node"><title>v16</title>
<ellipse fill="none" stroke="black" cx="389.5" cy="-11" rx="25" ry="11"/>
<text text-anchor="middle" x="389.5" y="-8.8" font-family="sans-serif" font-size="9.00">Id(2)</text>
</g>
<!-- v11&#45;&gt;v16 -->
<g id="edge20" class="edge"><title>v11&#45;&gt;v16</title>
<path fill="none" stroke="black" d="M363.985,-115.883C368.912,-95.8216 379.946,-50.899 385.757,-27.2409"/>
<polygon fill="black" stroke="black" points="386.981,-22.2579 387.973,-27.6503 386.384,-24.6858 385.788,-27.1136 385.788,-27.1136 385.788,-27.1136 386.384,-24.6858 383.603,-26.5769 386.981,-22.2579 386.981,-22.2579"/>
</g>
<!-- v17 -->
<g id="v17_Private" class="node"><title>v17</title>
<ellipse fill="none" stroke="black" cx="330.5" cy="-69" rx="32.5" ry="11"/>
<text text-anchor="middle" x="330.5" y="-66.8" font-family="sans-serif" font-size="9.00">Private</text>
</g>
<!-- v11&#45;&gt;v17 -->
<g id="edge21" class="edge"><title>v11&#45;&gt;v17</title>
<path fill="none" stroke="black" d="M355.958,-115.988C351.109,-107.229 344.005,-94.3956 338.532,-84.5103"/>
<polygon fill="black" stroke="black" points="335.994,-79.925 340.384,-83.2097 337.205,-82.1122 338.416,-84.2995 338.416,-84.2995 338.416,-84.2995 337.205,-82.1122 336.447,-85.3892 335.994,-79.925 335.994,-79.925"/>
</g>
<!-- v15 -->
<g id="v15_Data" class="node"><title>v15</title>
<ellipse fill="none" stroke="black" cx="720.5" cy="-11" rx="21.5" ry="11"/>
<text text-anchor="middle" x="720.5" y="-8.8" font-family="sans-serif" font-size="9.00">Data</text>
</g>
<!-- v14&#45;&gt;v15 -->
<g id="edge22" class="edge"><title>v14&#45;&gt;v15</title>
<path fill="none" stroke="black" d="M716.394,-57.9883C717.152,-49.4941 718.253,-37.1697 719.123,-27.4169"/>
<polygon fill="black" stroke="black" points="719.58,-22.3039 721.376,-27.4842 719.358,-24.794 719.135,-27.2841 719.135,-27.2841 719.135,-27.2841 719.358,-24.794 716.894,-27.0839 719.58,-22.3039 719.58,-22.3039"/>
</g>
<!-- v18 -->
<g id="v18_Data" class="node"><title>v18</title>
<ellipse fill="none" stroke="black" cx="324.5" cy="-11" rx="21.5" ry="11"/>
<text text-anchor="middle" x="324.5" y="-8.8" font-family="sans-serif" font-size="9.00">Data</text>
</g>
<!-- v17&#45;&gt;v18 -->
<g id="edge23" class="edge"><title>v17&#45;&gt;v18</title>
<path fill="none" stroke="black" d="M329.427,-57.9883C328.517,-49.4941 327.197,-37.1697 326.152,-27.4169"/>
<polygon fill="black" stroke="black" points="325.604,-22.3039 328.374,-27.0357 325.87,-24.7896 326.137,-27.2754 326.137,-27.2754 326.137,-27.2754 325.87,-24.7896 323.9,-27.5152 325.604,-22.3039 325.604,-22.3039"/>
</g>
<!-- v20 -->
<g id="v20_Id(3)" class="node"><title>v20</title>
<ellipse fill="none" stroke="black" cx="859.5" cy="-11" rx="25" ry="11"/>
<text text-anchor="middle" x="859.5" y="-8.8" font-family="sans-serif" font-size="9.00">Id(3)</text>
</g>
<!-- v19&#45;&gt;v20 -->
<g id="edge24" class="edge"><title>v19&#45;&gt;v20</title>
<path fill="none" stroke="black" d="M809.393,-116.431C818.631,-107.767 831.604,-94.2151 839.5,-80 848.784,-63.2856 854.166,-41.8112 856.962,-27.5119"/>
<polygon fill="black" stroke="black" points="857.942,-22.2247 859.243,-27.551 857.487,-24.6828 857.031,-27.1409 857.031,-27.1409 857.031,-27.1409 857.487,-24.6828 854.819,-26.7308 857.942,-22.2247 857.942,-22.2247"/>
</g>
<!-- v21 -->
<g id="v21_Private" class="node"><title>v21</title>
<ellipse fill="none" stroke="black" cx="798.5" cy="-69" rx="32.5" ry="11"/>
<text text-anchor="middle" x="798.5" y="-66.8" font-family="sans-serif" font-size="9.00">Private</text>
</g>
<!-- v19&#45;&gt;v21 -->
<g id="edge25" class="edge"><title>v19&#45;&gt;v21</title>
<path fill="none" stroke="black" d="M798.5,-115.988C798.5,-107.494 798.5,-95.1697 798.5,-85.4169"/>
<polygon fill="black" stroke="black" points="798.5,-80.3039 800.75,-85.3038 798.5,-82.8039 798.5,-85.3039 798.5,-85.3039 798.5,-85.3039 798.5,-82.8039 796.25,-85.3039 798.5,-80.3039 798.5,-80.3039"/>
</g>
<!-- v22 -->
<g id="v22_Data" class="node"><title>v22</title>
<ellipse fill="none" stroke="black" cx="794.5" cy="-11" rx="21.5" ry="11"/>
<text text-anchor="middle" x="794.5" y="-8.8" font-family="sans-serif" font-size="9.00">Data</text>
</g>
<!-- v21&#45;&gt;v22 -->
<g id="edge26" class="edge"><title>v21&#45;&gt;v22</title>
<path fill="none" stroke="black" d="M797.785,-57.9883C797.178,-49.4941 796.298,-37.1697 795.601,-27.4169"/>
<polygon fill="black" stroke="black" points="795.236,-22.3039 797.837,-27.1308 795.414,-24.7975 795.592,-27.2912 795.592,-27.2912 795.592,-27.2912 795.414,-24.7975 793.348,-27.4515 795.236,-22.3039 795.236,-22.3039"/>
</g>
</g>
</svg>
