<?xml version="1.0" encoding="UTF-8" standalone="no"?>
<?xml-stylesheet href="style.css" type="text/css"?>
<!DOCTYPE svg PUBLIC "-//W3C//DTD SVG 1.1//EN"
 "http://www.w3.org/Graphics/SVG/1.1/DTD/svg11.dtd">
<!-- Generated by graphviz version 2.38.0 (20140413.2041)
 -->
<!-- Title: 95.svg Pages: 1 -->
<svg width="1036pt" height="316pt"
 viewBox="0.00 0.00 1035.50 316.00" xmlns="http://www.w3.org/2000/svg" xmlns:xlink="http://www.w3.org/1999/xlink">
<g id="graph0" class="graph" transform="scale(1 1) rotate(0) translate(4 312)">
<title>95.svg</title>
<polygon fill="white" stroke="none" points="-4,4 -4,-312 1031.5,-312 1031.5,4 -4,4"/>
<!-- r0 -->
<g id="node1" class="node"><title>r0</title>
<polygon fill="none" stroke="black" stroke-dasharray="5,2" points="527,-308 504,-308 504,-290 527,-290 527,-308"/>
<text text-anchor="middle" x="515.5" y="-296.8" font-family="serif" font-size="9.00">0</text>
</g>
<!-- v0 -->
<g id="v0_H" class="node"><title>v0</title>
<ellipse fill="none" stroke="black" cx="515.5" cy="-243" rx="11" ry="11"/>
<text text-anchor="middle" x="515.5" y="-240.8" font-family="sans-serif" font-size="9.00">H</text>
</g>
<!-- r0&#45;&gt;v0 -->
<g id="edge1" class="edge"><title>r0&#45;&gt;v0</title>
<path fill="none" stroke="black" d="M515.5,-289.562C515.5,-281.453 515.5,-269.014 515.5,-259.181"/>
<polygon fill="black" stroke="black" points="515.5,-254.03 517.75,-259.03 515.5,-256.53 515.5,-259.03 515.5,-259.03 515.5,-259.03 515.5,-256.53 513.25,-259.03 515.5,-254.03 515.5,-254.03"/>
</g>
<!-- odb -->
<g id="node2" class="node"><title>odb</title>
<text text-anchor="middle" x="771.5" y="-296.8" font-family="serif" font-size="9.00">db</text>
</g>
<!-- e8 -->
<g id="node10" class="node"><title>e8</title>
</g>
<!-- odb&#45;&gt;e8 -->
<g id="edge37" class="edge"><title>odb&#45;&gt;e8</title>
<path fill="none" stroke="green" d="M771.5,-289.562C771.5,-274.375 771.5,-244 771.5,-244"/>
</g>
<!-- e0 -->
<g id="node3" class="node"><title>e0</title>
</g>
<!-- v2 -->
<g id="v2_Record" class="node"><title>v2</title>
<ellipse fill="none" stroke="black" cx="95.5" cy="-127" rx="29" ry="11"/>
<text text-anchor="middle" x="95.5" y="-124.8" font-family="sans-serif" font-size="9.00">Record</text>
</g>
<!-- e0&#45;&gt;v2 -->
<g id="edge27" class="edge"><title>e0&#45;&gt;v2</title>
<path fill="none" stroke="green" d="M95.5,-180.167C95.5,-171.586 95.5,-150.596 95.5,-138.012"/>
<polygon fill="green" stroke="green" points="99,-183.3 92,-183.3 92.0001,-181.9 99.0001,-181.9 99,-183.3"/>
<polyline fill="none" stroke="green" points="95.5,-184 95.5001,-180.5 "/>
</g>
<!-- e1 -->
<g id="node4" class="node"><title>e1</title>
</g>
<!-- v5 -->
<g id="v5_Doc" class="node"><title>v5</title>
<ellipse fill="none" stroke="black" cx="734.5" cy="-69" rx="18" ry="11"/>
<text text-anchor="middle" x="734.5" y="-66.8" font-family="sans-serif" font-size="9.00">Doc</text>
</g>
<!-- e1&#45;&gt;v5 -->
<g id="edge28" class="edge"><title>e1&#45;&gt;v5</title>
<path fill="none" stroke="green" d="M734.5,-122.167C734.5,-113.586 734.5,-92.5957 734.5,-80.0117"/>
<polygon fill="green" stroke="green" points="738,-125.3 731,-125.3 731,-123.9 738,-123.9 738,-125.3"/>
<polyline fill="none" stroke="green" points="734.5,-126 734.5,-122.5 "/>
</g>
<!-- e2 -->
<g id="node5" class="node"><title>e2</title>
</g>
<!-- v6 -->
<g id="v6_Ref&#39;" class="node"><title>v6</title>
<ellipse fill="none" stroke="black" cx="803.5" cy="-11" rx="21.5" ry="11"/>
<text text-anchor="middle" x="803.5" y="-8.8" font-family="sans-serif" font-size="9.00">Ref&#39;</text>
</g>
<!-- e2&#45;&gt;v6 -->
<g id="edge29" class="edge"><title>e2&#45;&gt;v6</title>
<path fill="none" stroke="green" d="M667.5,-184C667.5,-184 717.009,-167.277 743.5,-138 776.174,-101.889 794.528,-44.8081 800.906,-21.9482"/>
</g>
<!-- v7 -->
<g id="v7_Data_local" class="node"><title>v7</title>
<ellipse fill="none" stroke="black" cx="720.5" cy="-11" rx="43" ry="11"/>
<text text-anchor="middle" x="720.5" y="-8.8" font-family="sans-serif" font-size="9.00">Data_local</text>
</g>
<!-- e2&#45;&gt;v7 -->
<g id="edge30" class="edge"><title>e2&#45;&gt;v7</title>
<path fill="none" stroke="green" d="M667.5,-184C667.5,-184 706.11,-58.6999 717.421,-21.9909"/>
</g>
<!-- v12 -->
<g id="v12_Record" class="node"><title>v12</title>
<ellipse fill="none" stroke="black" cx="588.5" cy="-127" rx="29" ry="11"/>
<text text-anchor="middle" x="588.5" y="-124.8" font-family="sans-serif" font-size="9.00">Record</text>
</g>
<!-- e2&#45;&gt;v12 -->
<g id="edge31" class="edge"><title>e2&#45;&gt;v12</title>
<path fill="none" stroke="green" d="M667.5,-184C667.5,-184 623.524,-152.827 601.193,-136.997"/>
</g>
<!-- e4 -->
<g id="node6" class="node"><title>e4</title>
</g>
<!-- v10 -->
<g id="v10_Nurse" class="node"><title>v10</title>
<ellipse fill="none" stroke="black" cx="186.5" cy="-69" rx="25" ry="11"/>
<text text-anchor="middle" x="186.5" y="-66.8" font-family="sans-serif" font-size="9.00">Nurse</text>
</g>
<!-- e4&#45;&gt;v10 -->
<g id="edge33" class="edge"><title>e4&#45;&gt;v10</title>
<path fill="none" stroke="green" d="M186.5,-122.167C186.5,-113.586 186.5,-92.5957 186.5,-80.0117"/>
<polygon fill="green" stroke="green" points="190,-125.3 183,-125.3 183,-123.9 190,-123.9 190,-125.3"/>
<polyline fill="none" stroke="green" points="186.5,-126 186.5,-122.5 "/>
</g>
<!-- e5 -->
<g id="node7" class="node"><title>e5</title>
</g>
<!-- v13 -->
<g id="v13_Record" class="node"><title>v13</title>
<ellipse fill="none" stroke="black" cx="300.5" cy="-127" rx="29" ry="11"/>
<text text-anchor="middle" x="300.5" y="-124.8" font-family="sans-serif" font-size="9.00">Record</text>
</g>
<!-- e5&#45;&gt;v13 -->
<g id="edge34" class="edge"><title>e5&#45;&gt;v13</title>
<path fill="none" stroke="green" d="M300.5,-180.167C300.5,-171.586 300.5,-150.596 300.5,-138.012"/>
<polygon fill="green" stroke="green" points="304,-183.3 297,-183.3 297,-181.9 304,-181.9 304,-183.3"/>
<polyline fill="none" stroke="green" points="300.5,-184 300.5,-180.5 "/>
</g>
<!-- e6 -->
<g id="node8" class="node"><title>e6</title>
</g>
<!-- v24 -->
<g id="v24_Nurse" class="node"><title>v24</title>
<ellipse fill="none" stroke="black" cx="1002.5" cy="-11" rx="25" ry="11"/>
<text text-anchor="middle" x="1002.5" y="-8.8" font-family="sans-serif" font-size="9.00">Nurse</text>
</g>
<!-- e6&#45;&gt;v24 -->
<g id="edge35" class="edge"><title>e6&#45;&gt;v24</title>
<path fill="none" stroke="green" d="M1002.5,-64.1674C1002.5,-55.5862 1002.5,-34.5957 1002.5,-22.0117"/>
<polygon fill="green" stroke="green" points="1006,-67.3001 999,-67.2999 999,-65.8999 1006,-65.9001 1006,-67.3001"/>
<polyline fill="none" stroke="green" points="1002.5,-68 1002.5,-64.5 "/>
</g>
<!-- e7 -->
<g id="node9" class="node"><title>e7</title>
</g>
<!-- v25 -->
<g id="v25_Nurse" class="node"><title>v25</title>
<ellipse fill="none" stroke="black" cx="868.5" cy="-11" rx="25" ry="11"/>
<text text-anchor="middle" x="868.5" y="-8.8" font-family="sans-serif" font-size="9.00">Nurse</text>
</g>
<!-- e7&#45;&gt;v25 -->
<g id="edge36" class="edge"><title>e7&#45;&gt;v25</title>
<path fill="none" stroke="green" d="M868.5,-64.1674C868.5,-55.5862 868.5,-34.5957 868.5,-22.0117"/>
<polygon fill="green" stroke="green" points="872,-67.3001 865,-67.2999 865,-65.8999 872,-65.9001 872,-67.3001"/>
<polyline fill="none" stroke="green" points="868.5,-68 868.5,-64.5 "/>
</g>
<!-- v1 -->
<g id="v1_DB" class="node"><title>v1</title>
<ellipse fill="none" stroke="black" cx="409.5" cy="-185" rx="14.5" ry="11"/>
<text text-anchor="middle" x="409.5" y="-182.8" font-family="sans-serif" font-size="9.00">DB</text>
</g>
<!-- e8&#45;&gt;v1 -->
<g id="edge38" class="edge"><title>e8&#45;&gt;v1</title>
<path fill="none" stroke="green" d="M771.5,-242C771.5,-242 583.811,-230.739 438.5,-196 433.01,-194.687 427.094,-192.747 422.046,-190.924"/>
</g>
<!-- e8&#45;&gt;v5 -->
<g id="edge39" class="edge"><title>e8&#45;&gt;v5</title>
<path fill="none" stroke="green" d="M771.5,-242C771.5,-242 744.546,-116.7 736.649,-79.9909"/>
</g>
<!-- v9 -->
<g id="v9_DBadmin" class="node"><title>v9</title>
<ellipse fill="none" stroke="black" cx="366.5" cy="-11" rx="32.5" ry="11"/>
<text text-anchor="middle" x="366.5" y="-8.8" font-family="sans-serif" font-size="9.00">DBadmin</text>
</g>
<!-- e8&#45;&gt;v9 -->
<g id="edge40" class="edge"><title>e8&#45;&gt;v9</title>
<path fill="none" stroke="green" d="M771.5,-242C771.5,-242 547.019,-242.963 425.5,-138 388.575,-106.106 373.188,-46.0947 368.339,-22.1965"/>
</g>
<!-- e8&#45;&gt;v10 -->
<g id="edge41" class="edge"><title>e8&#45;&gt;v10</title>
<path fill="none" stroke="green" d="M771.5,-242C771.5,-242 337.92,-221.175 290.5,-196 239.393,-168.868 203.697,-104.966 191.304,-80.1258"/>
</g>
<!-- e8&#45;&gt;v24 -->
<g id="edge42" class="edge"><title>e8&#45;&gt;v24</title>
<path fill="none" stroke="green" d="M771.5,-242C771.5,-242 810.979,-219.395 838.5,-196 907.293,-137.521 974.096,-50.443 995.456,-21.6366"/>
</g>
<!-- e8&#45;&gt;v25 -->
<g id="edge43" class="edge"><title>e8&#45;&gt;v25</title>
<path fill="none" stroke="green" d="M771.5,-242C771.5,-242 860.729,-164.393 877.5,-80 881.539,-59.6766 875.93,-35.566 871.922,-22.2054"/>
</g>
<!-- v0&#45;&gt;v1 -->
<g id="edge2" class="edge"><title>v0&#45;&gt;v1</title>
<path fill="none" stroke="black" d="M506.093,-237.03C487.929,-227.434 447.844,-206.257 425.442,-194.422"/>
<polygon fill="black" stroke="black" points="420.945,-192.046 426.417,-192.392 423.155,-193.214 425.366,-194.382 425.366,-194.382 425.366,-194.382 423.155,-193.214 424.315,-196.371 420.945,-192.046 420.945,-192.046"/>
</g>
<!-- v0&#45;&gt;v5 -->
<g id="edge3" class="edge"><title>v0&#45;&gt;v5</title>
<path fill="none" stroke="black" d="M526.737,-241.869C555.234,-240.954 631.262,-234.793 676.5,-196 710.974,-166.437 726.132,-112.053 731.724,-85.4608"/>
<polygon fill="black" stroke="black" points="732.776,-80.227 733.997,-85.5723 732.283,-82.678 731.791,-85.129 731.791,-85.129 731.791,-85.129 732.283,-82.678 729.585,-84.6857 732.776,-80.227 732.776,-80.227"/>
</g>
<!-- v0&#45;&gt;v9 -->
<g id="edge4" class="edge"><title>v0&#45;&gt;v9</title>
<path fill="none" stroke="black" d="M504.198,-241.779C478.429,-240.606 415.261,-233.814 385.5,-196 345.72,-145.457 356.555,-61.3748 363.155,-27.1702"/>
<polygon fill="black" stroke="black" points="364.17,-22.1216 365.391,-27.467 363.677,-24.5726 363.185,-27.0236 363.185,-27.0236 363.185,-27.0236 363.677,-24.5726 360.979,-26.5803 364.17,-22.1216 364.17,-22.1216"/>
</g>
<!-- v0&#45;&gt;v10 -->
<g id="edge5" class="edge"><title>v0&#45;&gt;v10</title>
<path fill="none" stroke="black" d="M504.303,-241.473C455.93,-239.021 265.106,-227.481 215.5,-196 189.272,-179.355 185.561,-167.713 176.5,-138 171.044,-120.109 176.019,-98.6332 180.696,-84.6701"/>
<polygon fill="black" stroke="black" points="182.386,-79.8863 182.842,-85.3503 181.553,-82.2436 180.721,-84.6008 180.721,-84.6008 180.721,-84.6008 181.553,-82.2436 178.599,-83.8514 182.386,-79.8863 182.386,-79.8863"/>
</g>
<!-- v0&#45;&gt;v24 -->
<g id="edge6" class="edge"><title>v0&#45;&gt;v24</title>
<path fill="none" stroke="black" d="M526.688,-241.121C559.322,-238.245 656.755,-227.42 730.5,-196 838.797,-149.859 949.342,-58.452 988.059,-24.8132"/>
<polygon fill="black" stroke="black" points="992.002,-21.3712 989.715,-26.3545 990.119,-23.0154 988.235,-24.6596 988.235,-24.6596 988.235,-24.6596 990.119,-23.0154 986.756,-22.9646 992.002,-21.3712 992.002,-21.3712"/>
</g>
<!-- v0&#45;&gt;v25 -->
<g id="edge7" class="edge"><title>v0&#45;&gt;v25</title>
<path fill="none" stroke="black" d="M526.568,-241.082C556.309,-238.241 639.807,-227.778 700.5,-196 778.985,-154.906 839.416,-61.7987 860.447,-26.2024"/>
<polygon fill="black" stroke="black" points="863.04,-21.7656 862.46,-27.2178 861.779,-23.9241 860.517,-26.0826 860.517,-26.0826 860.517,-26.0826 861.779,-23.9241 858.575,-24.9474 863.04,-21.7656 863.04,-21.7656"/>
</g>
<!-- v1&#45;&gt;v2 -->
<g id="edge8" class="edge"><title>v1&#45;&gt;v2</title>
<path fill="none" stroke="black" d="M395.603,-181.521C348.176,-173.063 191.985,-145.207 125.687,-133.384"/>
<polygon fill="black" stroke="black" points="120.692,-132.493 126.009,-131.156 123.153,-132.932 125.614,-133.371 125.614,-133.371 125.614,-133.371 123.153,-132.932 125.219,-135.586 120.692,-132.493 120.692,-132.493"/>
</g>
<!-- v8 -->
<g id="v8_Record" class="node"><title>v8</title>
<ellipse fill="none" stroke="black" cx="463.5" cy="-127" rx="29" ry="11"/>
<text text-anchor="middle" x="463.5" y="-124.8" font-family="sans-serif" font-size="9.00">Record</text>
</g>
<!-- v1&#45;&gt;v8 -->
<g id="edge9" class="edge"><title>v1&#45;&gt;v8</title>
<path fill="none" stroke="black" d="M417.468,-175.737C426.143,-166.741 440.151,-152.214 450.439,-141.545"/>
<polygon fill="black" stroke="black" points="454.044,-137.807 452.193,-142.968 452.308,-139.606 450.573,-141.406 450.573,-141.406 450.573,-141.406 452.308,-139.606 448.953,-139.844 454.044,-137.807 454.044,-137.807"/>
</g>
<!-- v1&#45;&gt;v12 -->
<g id="edge10" class="edge"><title>v1&#45;&gt;v12</title>
<path fill="none" stroke="black" d="M422.662,-179.882C452.024,-170.696 523.344,-148.384 562.202,-136.227"/>
<polygon fill="black" stroke="black" points="567.233,-134.653 563.133,-138.294 564.847,-135.4 562.461,-136.146 562.461,-136.146 562.461,-136.146 564.847,-135.4 561.789,-133.999 567.233,-134.653 567.233,-134.653"/>
</g>
<!-- v1&#45;&gt;v13 -->
<g id="edge11" class="edge"><title>v1&#45;&gt;v13</title>
<path fill="none" stroke="black" d="M397.835,-178.007C379.582,-168.629 344.011,-150.354 321.297,-138.685"/>
<polygon fill="black" stroke="black" points="316.657,-136.301 322.132,-136.584 318.88,-137.443 321.104,-138.586 321.104,-138.586 321.104,-138.586 318.88,-137.443 320.076,-140.587 316.657,-136.301 316.657,-136.301"/>
</g>
<!-- v3 -->
<g id="v3_Private" class="node"><title>v3</title>
<ellipse fill="none" stroke="black" cx="32.5" cy="-69" rx="32.5" ry="11"/>
<text text-anchor="middle" x="32.5" y="-66.8" font-family="sans-serif" font-size="9.00">Private</text>
</g>
<!-- v2&#45;&gt;v3 -->
<g id="edge12" class="edge"><title>v2&#45;&gt;v3</title>
<path fill="none" stroke="black" d="M84.8129,-116.5C74.5576,-107.385 58.9751,-93.5334 47.4828,-83.318"/>
<polygon fill="black" stroke="black" points="43.4513,-79.7345 48.6832,-81.3746 45.3198,-81.3954 47.1883,-83.0563 47.1883,-83.0563 47.1883,-83.0563 45.3198,-81.3954 45.6935,-84.738 43.4513,-79.7345 43.4513,-79.7345"/>
</g>
<!-- v17 -->
<g id="v17_Id(1)" class="node"><title>v17</title>
<ellipse fill="none" stroke="black" cx="95.5" cy="-11" rx="25" ry="11"/>
<text text-anchor="middle" x="95.5" y="-8.8" font-family="sans-serif" font-size="9.00">Id(1)</text>
</g>
<!-- v2&#45;&gt;v17 -->
<g id="edge13" class="edge"><title>v2&#45;&gt;v17</title>
<path fill="none" stroke="black" d="M95.5,-115.883C95.5,-95.9059 95.5,-51.276 95.5,-27.5402"/>
<polygon fill="black" stroke="black" points="95.5,-22.2579 97.7501,-27.2579 95.5,-24.7579 95.5001,-27.2579 95.5001,-27.2579 95.5001,-27.2579 95.5,-24.7579 93.2501,-27.258 95.5,-22.2579 95.5,-22.2579"/>
</g>
<!-- v4 -->
<g id="v4_Data" class="node"><title>v4</title>
<ellipse fill="none" stroke="black" cx="30.5" cy="-11" rx="21.5" ry="11"/>
<text text-anchor="middle" x="30.5" y="-8.8" font-family="sans-serif" font-size="9.00">Data</text>
</g>
<!-- v3&#45;&gt;v4 -->
<g id="edge14" class="edge"><title>v3&#45;&gt;v4</title>
<path fill="none" stroke="black" d="M32.1424,-57.9883C31.8391,-49.4941 31.3989,-37.1697 31.0506,-27.4169"/>
<polygon fill="black" stroke="black" points="30.868,-22.3039 33.2951,-27.2203 30.9573,-24.8023 31.0465,-27.3007 31.0465,-27.3007 31.0465,-27.3007 30.9573,-24.8023 28.798,-27.381 30.868,-22.3039 30.868,-22.3039"/>
</g>
<!-- v5&#45;&gt;v6 -->
<g id="edge15" class="edge"><title>v5&#45;&gt;v6</title>
<path fill="none" stroke="black" d="M744.681,-59.737C756.368,-50.2522 775.629,-34.6196 788.909,-23.8422"/>
<polygon fill="black" stroke="black" points="792.823,-20.6656 790.358,-25.5635 790.882,-22.241 788.94,-23.8164 788.94,-23.8164 788.94,-23.8164 790.882,-22.241 787.523,-22.0694 792.823,-20.6656 792.823,-20.6656"/>
</g>
<!-- v5&#45;&gt;v7 -->
<g id="edge16" class="edge"><title>v5&#45;&gt;v7</title>
<path fill="none" stroke="black" d="M731.997,-57.9883C729.874,-49.4941 726.792,-37.1697 724.354,-27.4169"/>
<polygon fill="black" stroke="black" points="723.076,-22.3039 726.472,-26.6089 723.682,-24.7292 724.289,-27.1546 724.289,-27.1546 724.289,-27.1546 723.682,-24.7292 722.106,-27.7003 723.076,-22.3039 723.076,-22.3039"/>
</g>
<!-- v11 -->
<g id="v11_Ref" class="node"><title>v11</title>
<ellipse fill="none" stroke="black" cx="168.5" cy="-11" rx="18" ry="11"/>
<text text-anchor="middle" x="168.5" y="-8.8" font-family="sans-serif" font-size="9.00">Ref</text>
</g>
<!-- v8&#45;&gt;v11 -->
<g id="edge32" class="edge"><title>v8&#45;&gt;v11</title>
<path fill="none" stroke="green" d="M435.444,-123.919C362.44,-118.221 170.931,-101.358 152.5,-80 138.079,-63.2892 152.25,-35.9697 161.647,-21.5719"/>
</g>
<!-- v21 -->
<g id="v21_Id(3)" class="node"><title>v21</title>
<ellipse fill="none" stroke="black" cx="442.5" cy="-11" rx="25" ry="11"/>
<text text-anchor="middle" x="442.5" y="-8.8" font-family="sans-serif" font-size="9.00">Id(3)</text>
</g>
<!-- v8&#45;&gt;v21 -->
<g id="edge17" class="edge"><title>v8&#45;&gt;v21</title>
<path fill="none" stroke="black" d="M461.636,-115.883C457.941,-95.8216 449.666,-50.899 445.308,-27.2409"/>
<polygon fill="black" stroke="black" points="444.39,-22.2579 447.508,-26.7676 444.843,-24.7166 445.296,-27.1752 445.296,-27.1752 445.296,-27.1752 444.843,-24.7166 443.083,-27.5829 444.39,-22.2579 444.39,-22.2579"/>
</g>
<!-- v22 -->
<g id="v22_Private" class="node"><title>v22</title>
<ellipse fill="none" stroke="black" cx="505.5" cy="-69" rx="32.5" ry="11"/>
<text text-anchor="middle" x="505.5" y="-66.8" font-family="sans-serif" font-size="9.00">Private</text>
</g>
<!-- v8&#45;&gt;v22 -->
<g id="edge18" class="edge"><title>v8&#45;&gt;v22</title>
<path fill="none" stroke="black" d="M470.816,-116.246C477.479,-107.362 487.397,-94.1372 494.923,-84.1029"/>
<polygon fill="black" stroke="black" points="497.985,-80.0198 496.785,-85.3698 496.485,-82.0198 494.985,-84.0198 494.985,-84.0198 494.985,-84.0198 496.485,-82.0198 493.185,-82.6698 497.985,-80.0198 497.985,-80.0198"/>
</g>
<!-- v10&#45;&gt;v11 -->
<g id="edge19" class="edge"><title>v10&#45;&gt;v11</title>
<path fill="none" stroke="black" d="M183.282,-57.9883C180.492,-49.3083 176.416,-36.6286 173.251,-26.7806"/>
<polygon fill="black" stroke="black" points="171.69,-21.925 175.362,-25.9966 172.455,-24.3051 173.22,-26.6851 173.22,-26.6851 173.22,-26.6851 172.455,-24.3051 171.078,-27.3737 171.69,-21.925 171.69,-21.925"/>
</g>
<!-- v18 -->
<g id="v18_Id(2)" class="node"><title>v18</title>
<ellipse fill="none" stroke="black" cx="572.5" cy="-11" rx="25" ry="11"/>
<text text-anchor="middle" x="572.5" y="-8.8" font-family="sans-serif" font-size="9.00">Id(2)</text>
</g>
<!-- v12&#45;&gt;v18 -->
<g id="edge20" class="edge"><title>v12&#45;&gt;v18</title>
<path fill="none" stroke="black" d="M587.08,-115.883C584.264,-95.8216 577.96,-50.899 574.639,-27.2409"/>
<polygon fill="black" stroke="black" points="573.94,-22.2579 576.863,-26.8966 574.287,-24.7337 574.635,-27.2094 574.635,-27.2094 574.635,-27.2094 574.287,-24.7337 572.407,-27.5222 573.94,-22.2579 573.94,-22.2579"/>
</g>
<!-- v19 -->
<g id="v19_Private" class="node"><title>v19</title>
<ellipse fill="none" stroke="black" cx="627.5" cy="-69" rx="32.5" ry="11"/>
<text text-anchor="middle" x="627.5" y="-66.8" font-family="sans-serif" font-size="9.00">Private</text>
</g>
<!-- v12&#45;&gt;v19 -->
<g id="edge21" class="edge"><title>v12&#45;&gt;v19</title>
<path fill="none" stroke="black" d="M595.293,-116.246C601.425,-107.441 610.526,-94.373 617.491,-84.3724"/>
<polygon fill="black" stroke="black" points="620.522,-80.0198 619.511,-85.4087 619.093,-82.0713 617.664,-84.1228 617.664,-84.1228 617.664,-84.1228 619.093,-82.0713 615.818,-82.8369 620.522,-80.0198 620.522,-80.0198"/>
</g>
<!-- v14 -->
<g id="v14_Id(0)" class="node"><title>v14</title>
<ellipse fill="none" stroke="black" cx="229.5" cy="-11" rx="25" ry="11"/>
<text text-anchor="middle" x="229.5" y="-8.8" font-family="sans-serif" font-size="9.00">Id(0)</text>
</g>
<!-- v13&#45;&gt;v14 -->
<g id="edge22" class="edge"><title>v13&#45;&gt;v14</title>
<path fill="none" stroke="black" d="M290.101,-116.582C280.878,-107.808 267.509,-94.007 258.5,-80 247.618,-63.0796 239.189,-41.3857 234.29,-27.1078"/>
<polygon fill="black" stroke="black" points="232.646,-22.2056 236.369,-26.231 233.441,-24.5759 234.236,-26.9463 234.236,-26.9463 234.236,-26.9463 233.441,-24.5759 232.102,-27.6615 232.646,-22.2056 232.646,-22.2056"/>
</g>
<!-- v15 -->
<g id="v15_Private" class="node"><title>v15</title>
<ellipse fill="none" stroke="black" cx="300.5" cy="-69" rx="32.5" ry="11"/>
<text text-anchor="middle" x="300.5" y="-66.8" font-family="sans-serif" font-size="9.00">Private</text>
</g>
<!-- v13&#45;&gt;v15 -->
<g id="edge23" class="edge"><title>v13&#45;&gt;v15</title>
<path fill="none" stroke="black" d="M300.5,-115.988C300.5,-107.494 300.5,-95.1697 300.5,-85.4169"/>
<polygon fill="black" stroke="black" points="300.5,-80.3039 302.75,-85.3038 300.5,-82.8039 300.5,-85.3039 300.5,-85.3039 300.5,-85.3039 300.5,-82.8039 298.25,-85.3039 300.5,-80.3039 300.5,-80.3039"/>
</g>
<!-- v16 -->
<g id="v16_Data" class="node"><title>v16</title>
<ellipse fill="none" stroke="black" cx="294.5" cy="-11" rx="21.5" ry="11"/>
<text text-anchor="middle" x="294.5" y="-8.8" font-family="sans-serif" font-size="9.00">Data</text>
</g>
<!-- v15&#45;&gt;v16 -->
<g id="edge24" class="edge"><title>v15&#45;&gt;v16</title>
<path fill="none" stroke="black" d="M299.427,-57.9883C298.517,-49.4941 297.197,-37.1697 296.152,-27.4169"/>
<polygon fill="black" stroke="black" points="295.604,-22.3039 298.374,-27.0357 295.87,-24.7896 296.137,-27.2754 296.137,-27.2754 296.137,-27.2754 295.87,-24.7896 293.9,-27.5152 295.604,-22.3039 295.604,-22.3039"/>
</g>
<!-- v20 -->
<g id="v20_Data" class="node"><title>v20</title>
<ellipse fill="none" stroke="black" cx="637.5" cy="-11" rx="21.5" ry="11"/>
<text text-anchor="middle" x="637.5" y="-8.8" font-family="sans-serif" font-size="9.00">Data</text>
</g>
<!-- v19&#45;&gt;v20 -->
<g id="edge25" class="edge"><title>v19&#45;&gt;v20</title>
<path fill="none" stroke="black" d="M629.288,-57.9883C630.805,-49.4941 633.005,-37.1697 634.747,-27.4169"/>
<polygon fill="black" stroke="black" points="635.66,-22.3039 636.996,-27.6216 635.221,-24.7649 634.781,-27.226 634.781,-27.226 634.781,-27.226 635.221,-24.7649 632.566,-26.8305 635.66,-22.3039 635.66,-22.3039"/>
</g>
<!-- v23 -->
<g id="v23_Data" class="node"><title>v23</title>
<ellipse fill="none" stroke="black" cx="507.5" cy="-11" rx="21.5" ry="11"/>
<text text-anchor="middle" x="507.5" y="-8.8" font-family="sans-serif" font-size="9.00">Data</text>
</g>
<!-- v22&#45;&gt;v23 -->
<g id="edge26" class="edge"><title>v22&#45;&gt;v23</title>
<path fill="none" stroke="black" d="M505.858,-57.9883C506.161,-49.4941 506.601,-37.1697 506.949,-27.4169"/>
<polygon fill="black" stroke="black" points="507.132,-22.3039 509.202,-27.381 507.043,-24.8023 506.953,-27.3007 506.953,-27.3007 506.953,-27.3007 507.043,-24.8023 504.705,-27.2203 507.132,-22.3039 507.132,-22.3039"/>
</g>
</g>
</svg>
