<?xml version="1.0" encoding="UTF-8" standalone="no"?>
<?xml-stylesheet href="style.css" type="text/css"?>
<!DOCTYPE svg PUBLIC "-//W3C//DTD SVG 1.1//EN"
 "http://www.w3.org/Graphics/SVG/1.1/DTD/svg11.dtd">
<!-- Generated by graphviz version 2.38.0 (20140413.2041)
 -->
<!-- Title: 98.svg Pages: 1 -->
<svg width="1002pt" height="316pt"
 viewBox="0.00 0.00 1001.71 316.00" xmlns="http://www.w3.org/2000/svg" xmlns:xlink="http://www.w3.org/1999/xlink">
<g id="graph0" class="graph" transform="scale(1 1) rotate(0) translate(4 312)">
<title>98.svg</title>
<polygon fill="white" stroke="none" points="-4,4 -4,-312 997.71,-312 997.71,4 -4,4"/>
<!-- r0 -->
<g id="node1" class="node"><title>r0</title>
<polygon fill="none" stroke="black" stroke-dasharray="5,2" points="664.21,-308 641.21,-308 641.21,-290 664.21,-290 664.21,-308"/>
<text text-anchor="middle" x="652.71" y="-296.8" font-family="serif" font-size="9.00">0</text>
</g>
<!-- v0 -->
<g id="v0_H" class="node"><title>v0</title>
<ellipse fill="none" stroke="black" cx="652.71" cy="-243" rx="11" ry="11"/>
<text text-anchor="middle" x="652.71" y="-240.8" font-family="sans-serif" font-size="9.00">H</text>
</g>
<!-- r0&#45;&gt;v0 -->
<g id="edge1" class="edge"><title>r0&#45;&gt;v0</title>
<path fill="none" stroke="black" d="M652.71,-289.562C652.71,-281.453 652.71,-269.014 652.71,-259.181"/>
<polygon fill="black" stroke="black" points="652.71,-254.03 654.96,-259.03 652.71,-256.53 652.71,-259.03 652.71,-259.03 652.71,-259.03 652.71,-256.53 650.46,-259.03 652.71,-254.03 652.71,-254.03"/>
</g>
<!-- odb -->
<g id="node2" class="node"><title>odb</title>
<text text-anchor="middle" x="786.71" y="-296.8" font-family="serif" font-size="9.00">db</text>
</g>
<!-- e8 -->
<g id="node10" class="node"><title>e8</title>
</g>
<!-- odb&#45;&gt;e8 -->
<g id="edge37" class="edge"><title>odb&#45;&gt;e8</title>
<path fill="none" stroke="green" d="M786.71,-289.562C786.71,-274.375 786.71,-244 786.71,-244"/>
</g>
<!-- e1 -->
<g id="node3" class="node"><title>e1</title>
</g>
<!-- v4 -->
<g id="v4_Nurse" class="node"><title>v4</title>
<ellipse fill="none" stroke="black" cx="39.7101" cy="-69" rx="25" ry="11"/>
<text text-anchor="middle" x="39.7101" y="-66.8" font-family="sans-serif" font-size="9.00">Nurse</text>
</g>
<!-- e1&#45;&gt;v4 -->
<g id="edge28" class="edge"><title>e1&#45;&gt;v4</title>
<path fill="none" stroke="green" d="M39.7101,-122.167C39.7101,-113.586 39.7101,-92.5957 39.7101,-80.0117"/>
<polygon fill="green" stroke="green" points="43.2101,-125.3 36.2101,-125.3 36.2101,-123.9 43.2101,-123.9 43.2101,-125.3"/>
<polyline fill="none" stroke="green" points="39.7101,-126 39.7101,-122.5 "/>
</g>
<!-- e2 -->
<g id="node4" class="node"><title>e2</title>
</g>
<!-- v6 -->
<g id="v6_Record" class="node"><title>v6</title>
<ellipse fill="none" stroke="black" cx="153.71" cy="-127" rx="29" ry="11"/>
<text text-anchor="middle" x="153.71" y="-124.8" font-family="sans-serif" font-size="9.00">Record</text>
</g>
<!-- e2&#45;&gt;v6 -->
<g id="edge29" class="edge"><title>e2&#45;&gt;v6</title>
<path fill="none" stroke="green" d="M153.71,-180.167C153.71,-171.586 153.71,-150.596 153.71,-138.012"/>
<polygon fill="green" stroke="green" points="157.21,-183.3 150.21,-183.3 150.21,-181.9 157.21,-181.9 157.21,-183.3"/>
<polyline fill="none" stroke="green" points="153.71,-184 153.71,-180.5 "/>
</g>
<!-- e3 -->
<g id="node5" class="node"><title>e3</title>
</g>
<!-- v9 -->
<g id="v9_Doc" class="node"><title>v9</title>
<ellipse fill="none" stroke="black" cx="700.71" cy="-69" rx="18" ry="11"/>
<text text-anchor="middle" x="700.71" y="-66.8" font-family="sans-serif" font-size="9.00">Doc</text>
</g>
<!-- e3&#45;&gt;v9 -->
<g id="edge30" class="edge"><title>e3&#45;&gt;v9</title>
<path fill="none" stroke="green" d="M700.71,-122.167C700.71,-113.586 700.71,-92.5957 700.71,-80.0117"/>
<polygon fill="green" stroke="green" points="704.21,-125.3 697.21,-125.3 697.21,-123.9 704.21,-123.9 704.21,-125.3"/>
<polyline fill="none" stroke="green" points="700.71,-126 700.71,-122.5 "/>
</g>
<!-- e4 -->
<g id="node6" class="node"><title>e4</title>
</g>
<!-- v10 -->
<g id="v10_Ref&#39;" class="node"><title>v10</title>
<ellipse fill="none" stroke="black" cx="720.71" cy="-11" rx="21.5" ry="11"/>
<text text-anchor="middle" x="720.71" y="-8.8" font-family="sans-serif" font-size="9.00">Ref&#39;</text>
</g>
<!-- e4&#45;&gt;v10 -->
<g id="edge31" class="edge"><title>e4&#45;&gt;v10</title>
<path fill="none" stroke="green" d="M595.71,-184C595.71,-184 672.705,-178.196 709.71,-138 739.752,-105.368 729.233,-45.7831 723.458,-22.0979"/>
</g>
<!-- v11 -->
<g id="v11_Data_local" class="node"><title>v11</title>
<ellipse fill="none" stroke="black" cx="631.71" cy="-11" rx="43" ry="11"/>
<text text-anchor="middle" x="631.71" y="-8.8" font-family="sans-serif" font-size="9.00">Data_local</text>
</g>
<!-- e4&#45;&gt;v11 -->
<g id="edge32" class="edge"><title>e4&#45;&gt;v11</title>
<path fill="none" stroke="green" d="M595.71,-184C595.71,-184 607.175,-113.612 619.71,-58 622.505,-45.6009 626.28,-31.4731 628.844,-22.1834"/>
</g>
<!-- v12 -->
<g id="v12_Record" class="node"><title>v12</title>
<ellipse fill="none" stroke="black" cx="511.71" cy="-127" rx="29" ry="11"/>
<text text-anchor="middle" x="511.71" y="-124.8" font-family="sans-serif" font-size="9.00">Record</text>
</g>
<!-- e4&#45;&gt;v12 -->
<g id="edge33" class="edge"><title>e4&#45;&gt;v12</title>
<path fill="none" stroke="green" d="M595.71,-184C595.71,-184 548.951,-152.827 525.206,-136.997"/>
</g>
<!-- e5 -->
<g id="node7" class="node"><title>e5</title>
</g>
<!-- v13 -->
<g id="v13_Record" class="node"><title>v13</title>
<ellipse fill="none" stroke="black" cx="297.71" cy="-127" rx="29" ry="11"/>
<text text-anchor="middle" x="297.71" y="-124.8" font-family="sans-serif" font-size="9.00">Record</text>
</g>
<!-- e5&#45;&gt;v13 -->
<g id="edge34" class="edge"><title>e5&#45;&gt;v13</title>
<path fill="none" stroke="green" d="M297.71,-180.167C297.71,-171.586 297.71,-150.596 297.71,-138.012"/>
<polygon fill="green" stroke="green" points="301.21,-183.3 294.21,-183.3 294.21,-181.9 301.21,-181.9 301.21,-183.3"/>
<polyline fill="none" stroke="green" points="297.71,-184 297.71,-180.5 "/>
</g>
<!-- e6 -->
<g id="node8" class="node"><title>e6</title>
</g>
<!-- v24 -->
<g id="v24_Nurse" class="node"><title>v24</title>
<ellipse fill="none" stroke="black" cx="872.71" cy="-11" rx="25" ry="11"/>
<text text-anchor="middle" x="872.71" y="-8.8" font-family="sans-serif" font-size="9.00">Nurse</text>
</g>
<!-- e6&#45;&gt;v24 -->
<g id="edge35" class="edge"><title>e6&#45;&gt;v24</title>
<path fill="none" stroke="green" d="M872.71,-64.1674C872.71,-55.5862 872.71,-34.5957 872.71,-22.0117"/>
<polygon fill="green" stroke="green" points="876.21,-67.3001 869.21,-67.2999 869.21,-65.8999 876.21,-65.9001 876.21,-67.3001"/>
<polyline fill="none" stroke="green" points="872.71,-68 872.71,-64.5 "/>
</g>
<!-- e7 -->
<g id="node9" class="node"><title>e7</title>
</g>
<!-- v25 -->
<g id="v25_Nurse" class="node"><title>v25</title>
<ellipse fill="none" stroke="black" cx="968.71" cy="-11" rx="25" ry="11"/>
<text text-anchor="middle" x="968.71" y="-8.8" font-family="sans-serif" font-size="9.00">Nurse</text>
</g>
<!-- e7&#45;&gt;v25 -->
<g id="edge36" class="edge"><title>e7&#45;&gt;v25</title>
<path fill="none" stroke="green" d="M968.71,-64.1674C968.71,-55.5862 968.71,-34.5957 968.71,-22.0117"/>
<polygon fill="green" stroke="green" points="972.21,-67.3001 965.21,-67.2999 965.21,-65.8999 972.21,-65.9001 972.21,-67.3001"/>
<polyline fill="none" stroke="green" points="968.71,-68 968.71,-64.5 "/>
</g>
<!-- v1 -->
<g id="v1_DB" class="node"><title>v1</title>
<ellipse fill="none" stroke="black" cx="450.71" cy="-185" rx="14.5" ry="11"/>
<text text-anchor="middle" x="450.71" y="-182.8" font-family="sans-serif" font-size="9.00">DB</text>
</g>
<!-- e8&#45;&gt;v1 -->
<g id="edge38" class="edge"><title>e8&#45;&gt;v1</title>
<path fill="none" stroke="green" d="M786.71,-242C786.71,-242 528.31,-198.933 464.72,-188.335"/>
</g>
<!-- v3 -->
<g id="v3_DBadmin" class="node"><title>v3</title>
<ellipse fill="none" stroke="black" cx="795.71" cy="-11" rx="32.5" ry="11"/>
<text text-anchor="middle" x="795.71" y="-8.8" font-family="sans-serif" font-size="9.00">DBadmin</text>
</g>
<!-- e8&#45;&gt;v3 -->
<g id="edge39" class="edge"><title>e8&#45;&gt;v3</title>
<path fill="none" stroke="green" d="M786.71,-242C786.71,-242 812.007,-219.953 819.71,-196 840.225,-132.21 811.559,-50.6101 800.089,-22.2526"/>
</g>
<!-- e8&#45;&gt;v4 -->
<g id="edge40" class="edge"><title>e8&#45;&gt;v4</title>
<path fill="none" stroke="green" d="M786.71,-242C786.71,-242 723.418,-235.949 672.71,-232 555.238,-222.851 248.528,-249.819 143.71,-196 91.9838,-169.441 56.4103,-104.62 44.2894,-79.8474"/>
</g>
<!-- e8&#45;&gt;v9 -->
<g id="edge41" class="edge"><title>e8&#45;&gt;v9</title>
<path fill="none" stroke="green" d="M786.71,-242C786.71,-242 723.773,-116.126 705.58,-79.7403"/>
</g>
<!-- e8&#45;&gt;v24 -->
<g id="edge42" class="edge"><title>e8&#45;&gt;v24</title>
<path fill="none" stroke="green" d="M786.71,-242C786.71,-242 880.634,-245.747 915.71,-196 955.597,-139.429 900.521,-51.1139 879.926,-21.8135"/>
</g>
<!-- e8&#45;&gt;v25 -->
<g id="edge43" class="edge"><title>e8&#45;&gt;v25</title>
<path fill="none" stroke="green" d="M786.71,-242C786.71,-242 885.543,-243.818 935.71,-196 982.117,-151.766 983.894,-121.812 977.71,-58 976.501,-45.5266 973.49,-31.4139 971.282,-22.148"/>
</g>
<!-- v0&#45;&gt;v1 -->
<g id="edge2" class="edge"><title>v0&#45;&gt;v1</title>
<path fill="none" stroke="black" d="M642.134,-239.068C609.516,-230.025 510.196,-202.491 468.959,-191.059"/>
<polygon fill="black" stroke="black" points="463.996,-189.683 469.416,-188.851 466.405,-190.351 468.814,-191.019 468.814,-191.019 468.814,-191.019 466.405,-190.351 468.213,-193.187 463.996,-189.683 463.996,-189.683"/>
</g>
<!-- v0&#45;&gt;v3 -->
<g id="edge3" class="edge"><title>v0&#45;&gt;v3</title>
<path fill="none" stroke="black" d="M650.563,-231.903C644.785,-201.811 632.012,-111.513 673.71,-58 685.299,-43.1275 733.467,-28.1321 765.7,-19.4717"/>
<polygon fill="black" stroke="black" points="770.728,-18.1371 766.473,-21.5945 768.312,-18.7785 765.895,-19.4198 765.895,-19.4198 765.895,-19.4198 768.312,-18.7785 765.318,-17.2451 770.728,-18.1371 770.728,-18.1371"/>
</g>
<!-- v0&#45;&gt;v4 -->
<g id="edge4" class="edge"><title>v0&#45;&gt;v4</title>
<path fill="none" stroke="black" d="M641.651,-241.704C565.478,-239.592 120.082,-226.011 68.7101,-196 41.8881,-180.331 38.7707,-167.713 29.7101,-138 24.2544,-120.109 29.2289,-98.6332 33.9062,-84.6701"/>
<polygon fill="black" stroke="black" points="35.5961,-79.8863 36.0521,-85.3503 34.7633,-82.2436 33.9306,-84.6008 33.9306,-84.6008 33.9306,-84.6008 34.7633,-82.2436 31.8091,-83.8514 35.5961,-79.8863 35.5961,-79.8863"/>
</g>
<!-- v0&#45;&gt;v9 -->
<g id="edge5" class="edge"><title>v0&#45;&gt;v9</title>
<path fill="none" stroke="black" d="M655.428,-232.26C663.41,-203.658 686.823,-119.761 696.476,-85.1735"/>
<polygon fill="black" stroke="black" points="697.902,-80.0619 698.725,-85.4827 697.23,-82.4699 696.558,-84.8779 696.558,-84.8779 696.558,-84.8779 697.23,-82.4699 694.391,-84.273 697.902,-80.0619 697.902,-80.0619"/>
</g>
<!-- v0&#45;&gt;v24 -->
<g id="edge6" class="edge"><title>v0&#45;&gt;v24</title>
<path fill="none" stroke="black" d="M660.03,-234.347C691.954,-200.972 819.231,-67.9098 860.045,-25.2407"/>
<polygon fill="black" stroke="black" points="863.719,-21.4 861.889,-26.5685 861.991,-23.2066 860.263,-25.0132 860.263,-25.0132 860.263,-25.0132 861.991,-23.2066 858.637,-23.458 863.719,-21.4 863.719,-21.4"/>
</g>
<!-- v0&#45;&gt;v25 -->
<g id="edge7" class="edge"><title>v0&#45;&gt;v25</title>
<path fill="none" stroke="black" d="M661.718,-236.157C674.965,-227.527 700.434,-210.796 721.71,-196 793.821,-145.852 811.542,-132.831 881.71,-80 907.123,-60.8659 936.145,-37.9665 953.419,-24.2223"/>
<polygon fill="black" stroke="black" points="957.548,-20.9332 955.039,-25.8083 955.593,-22.4908 953.637,-24.0484 953.637,-24.0484 953.637,-24.0484 955.593,-22.4908 952.236,-22.2885 957.548,-20.9332 957.548,-20.9332"/>
</g>
<!-- v2 -->
<g id="v2_Record" class="node"><title>v2</title>
<ellipse fill="none" stroke="black" cx="412.71" cy="-127" rx="29" ry="11"/>
<text text-anchor="middle" x="412.71" y="-124.8" font-family="sans-serif" font-size="9.00">Record</text>
</g>
<!-- v1&#45;&gt;v2 -->
<g id="edge8" class="edge"><title>v1&#45;&gt;v2</title>
<path fill="none" stroke="black" d="M444.605,-175.003C438.583,-166.129 429.291,-152.435 422.286,-142.113"/>
<polygon fill="black" stroke="black" points="419.441,-137.919 424.11,-140.793 420.845,-139.988 422.248,-142.056 422.248,-142.056 422.248,-142.056 420.845,-139.988 420.386,-143.32 419.441,-137.919 419.441,-137.919"/>
</g>
<!-- v1&#45;&gt;v6 -->
<g id="edge9" class="edge"><title>v1&#45;&gt;v6</title>
<path fill="none" stroke="black" d="M436.783,-181.374C391.384,-172.814 246.963,-145.583 183.785,-133.671"/>
<polygon fill="black" stroke="black" points="178.654,-132.703 183.984,-131.419 181.11,-133.166 183.567,-133.63 183.567,-133.63 183.567,-133.63 181.11,-133.166 183.15,-135.841 178.654,-132.703 178.654,-132.703"/>
</g>
<!-- v1&#45;&gt;v12 -->
<g id="edge10" class="edge"><title>v1&#45;&gt;v12</title>
<path fill="none" stroke="black" d="M459.45,-175.977C469.395,-166.847 485.78,-151.805 497.553,-140.996"/>
<polygon fill="black" stroke="black" points="501.354,-137.508 499.192,-142.546 499.512,-139.198 497.67,-140.889 497.67,-140.889 497.67,-140.889 499.512,-139.198 496.149,-139.231 501.354,-137.508 501.354,-137.508"/>
</g>
<!-- v1&#45;&gt;v13 -->
<g id="edge11" class="edge"><title>v1&#45;&gt;v13</title>
<path fill="none" stroke="black" d="M438.189,-179.417C412.921,-170.169 355.422,-149.123 322.353,-137.02"/>
<polygon fill="black" stroke="black" points="317.264,-135.157 322.732,-134.763 319.611,-136.016 321.959,-136.876 321.959,-136.876 321.959,-136.876 319.611,-136.016 321.186,-138.988 317.264,-135.157 317.264,-135.157"/>
</g>
<!-- v5 -->
<g id="v5_Ref" class="node"><title>v5</title>
<ellipse fill="none" stroke="black" cx="31.7101" cy="-11" rx="18" ry="11"/>
<text text-anchor="middle" x="31.7101" y="-8.8" font-family="sans-serif" font-size="9.00">Ref</text>
</g>
<!-- v2&#45;&gt;v5 -->
<g id="edge27" class="edge"><title>v2&#45;&gt;v5</title>
<path fill="none" stroke="green" d="M386,-122.394C371.192,-120.43 352.441,-117.999 335.71,-116 262.463,-107.249 54.9626,-134.918 5.71005,-80 -9.8171,-62.6869 10.4077,-35.1325 23.0123,-21.0026"/>
</g>
<!-- v17 -->
<g id="v17_Id(1)" class="node"><title>v17</title>
<ellipse fill="none" stroke="black" cx="351.71" cy="-11" rx="25" ry="11"/>
<text text-anchor="middle" x="351.71" y="-8.8" font-family="sans-serif" font-size="9.00">Id(1)</text>
</g>
<!-- v2&#45;&gt;v17 -->
<g id="edge12" class="edge"><title>v2&#45;&gt;v17</title>
<path fill="none" stroke="black" d="M401.493,-116.511C391.992,-107.897 378.68,-94.376 370.71,-80 361.475,-63.3432 356.451,-41.8565 353.929,-27.5386"/>
<polygon fill="black" stroke="black" points="353.052,-22.2438 356.089,-26.8092 353.46,-24.7102 353.869,-27.1767 353.869,-27.1767 353.869,-27.1767 353.46,-24.7102 351.649,-27.5441 353.052,-22.2438 353.052,-22.2438"/>
</g>
<!-- v18 -->
<g id="v18_Private" class="node"><title>v18</title>
<ellipse fill="none" stroke="black" cx="412.71" cy="-69" rx="32.5" ry="11"/>
<text text-anchor="middle" x="412.71" y="-66.8" font-family="sans-serif" font-size="9.00">Private</text>
</g>
<!-- v2&#45;&gt;v18 -->
<g id="edge13" class="edge"><title>v2&#45;&gt;v18</title>
<path fill="none" stroke="black" d="M412.71,-115.988C412.71,-107.494 412.71,-95.1697 412.71,-85.4169"/>
<polygon fill="black" stroke="black" points="412.71,-80.3039 414.96,-85.3038 412.71,-82.8039 412.71,-85.3039 412.71,-85.3039 412.71,-85.3039 412.71,-82.8039 410.46,-85.3039 412.71,-80.3039 412.71,-80.3039"/>
</g>
<!-- v4&#45;&gt;v5 -->
<g id="edge14" class="edge"><title>v4&#45;&gt;v5</title>
<path fill="none" stroke="black" d="M38.2798,-57.9883C37.0663,-49.4941 35.3057,-37.1697 33.9125,-27.4169"/>
<polygon fill="black" stroke="black" points="33.182,-22.3039 36.1166,-26.9354 33.5356,-24.7787 33.8892,-27.2536 33.8892,-27.2536 33.8892,-27.2536 33.5356,-24.7787 31.6618,-27.5719 33.182,-22.3039 33.182,-22.3039"/>
</g>
<!-- v7 -->
<g id="v7_Private" class="node"><title>v7</title>
<ellipse fill="none" stroke="black" cx="153.71" cy="-69" rx="32.5" ry="11"/>
<text text-anchor="middle" x="153.71" y="-66.8" font-family="sans-serif" font-size="9.00">Private</text>
</g>
<!-- v6&#45;&gt;v7 -->
<g id="edge15" class="edge"><title>v6&#45;&gt;v7</title>
<path fill="none" stroke="black" d="M153.71,-115.988C153.71,-107.494 153.71,-95.1697 153.71,-85.4169"/>
<polygon fill="black" stroke="black" points="153.71,-80.3039 155.96,-85.3038 153.71,-82.8039 153.71,-85.3039 153.71,-85.3039 153.71,-85.3039 153.71,-82.8039 151.46,-85.3039 153.71,-80.3039 153.71,-80.3039"/>
</g>
<!-- v23 -->
<g id="v23_Id(3)" class="node"><title>v23</title>
<ellipse fill="none" stroke="black" cx="92.7101" cy="-11" rx="25" ry="11"/>
<text text-anchor="middle" x="92.7101" y="-8.8" font-family="sans-serif" font-size="9.00">Id(3)</text>
</g>
<!-- v6&#45;&gt;v23 -->
<g id="edge16" class="edge"><title>v6&#45;&gt;v23</title>
<path fill="none" stroke="black" d="M142.493,-116.511C132.992,-107.897 119.68,-94.376 111.71,-80 102.475,-63.3432 97.4514,-41.8565 94.9286,-27.5386"/>
<polygon fill="black" stroke="black" points="94.0522,-22.2438 97.0886,-26.8092 94.4605,-24.7102 94.8688,-27.1767 94.8688,-27.1767 94.8688,-27.1767 94.4605,-24.7102 92.649,-27.5441 94.0522,-22.2438 94.0522,-22.2438"/>
</g>
<!-- v8 -->
<g id="v8_Data" class="node"><title>v8</title>
<ellipse fill="none" stroke="black" cx="157.71" cy="-11" rx="21.5" ry="11"/>
<text text-anchor="middle" x="157.71" y="-8.8" font-family="sans-serif" font-size="9.00">Data</text>
</g>
<!-- v7&#45;&gt;v8 -->
<g id="edge17" class="edge"><title>v7&#45;&gt;v8</title>
<path fill="none" stroke="black" d="M154.425,-57.9883C155.032,-49.4941 155.912,-37.1697 156.609,-27.4169"/>
<polygon fill="black" stroke="black" points="156.974,-22.3039 158.862,-27.4515 156.796,-24.7975 156.618,-27.2912 156.618,-27.2912 156.618,-27.2912 156.796,-24.7975 154.373,-27.1308 156.974,-22.3039 156.974,-22.3039"/>
</g>
<!-- v9&#45;&gt;v10 -->
<g id="edge18" class="edge"><title>v9&#45;&gt;v10</title>
<path fill="none" stroke="black" d="M704.286,-57.9883C707.386,-49.3083 711.914,-36.6286 715.431,-26.7806"/>
<polygon fill="black" stroke="black" points="717.165,-21.925 717.603,-27.3905 716.325,-24.2794 715.484,-26.6337 715.484,-26.6337 715.484,-26.6337 716.325,-24.2794 713.365,-25.8769 717.165,-21.925 717.165,-21.925"/>
</g>
<!-- v9&#45;&gt;v11 -->
<g id="edge19" class="edge"><title>v9&#45;&gt;v11</title>
<path fill="none" stroke="black" d="M690.529,-59.737C679.25,-50.583 660.915,-35.7027 647.712,-24.9873"/>
<polygon fill="black" stroke="black" points="643.793,-21.8065 649.093,-23.2104 645.734,-23.382 647.675,-24.9574 647.675,-24.9574 647.675,-24.9574 645.734,-23.382 646.257,-26.7044 643.793,-21.8065 643.793,-21.8065"/>
</g>
<!-- v20 -->
<g id="v20_Id(2)" class="node"><title>v20</title>
<ellipse fill="none" stroke="black" cx="481.71" cy="-11" rx="25" ry="11"/>
<text text-anchor="middle" x="481.71" y="-8.8" font-family="sans-serif" font-size="9.00">Id(2)</text>
</g>
<!-- v12&#45;&gt;v20 -->
<g id="edge20" class="edge"><title>v12&#45;&gt;v20</title>
<path fill="none" stroke="black" d="M506.792,-116.009C502.476,-106.848 496.337,-92.8027 492.71,-80 487.703,-62.3253 484.745,-41.3785 483.179,-27.4501"/>
<polygon fill="black" stroke="black" points="482.627,-22.2985 485.397,-27.0305 482.893,-24.7842 483.16,-27.27 483.16,-27.27 483.16,-27.27 482.893,-24.7842 480.922,-27.5096 482.627,-22.2985 482.627,-22.2985"/>
</g>
<!-- v21 -->
<g id="v21_Private" class="node"><title>v21</title>
<ellipse fill="none" stroke="black" cx="534.71" cy="-69" rx="32.5" ry="11"/>
<text text-anchor="middle" x="534.71" y="-66.8" font-family="sans-serif" font-size="9.00">Private</text>
</g>
<!-- v12&#45;&gt;v21 -->
<g id="edge21" class="edge"><title>v12&#45;&gt;v21</title>
<path fill="none" stroke="black" d="M515.822,-115.988C519.387,-107.308 524.595,-94.6286 528.639,-84.7806"/>
<polygon fill="black" stroke="black" points="530.634,-79.925 530.815,-85.405 529.684,-82.2376 528.734,-84.5501 528.734,-84.5501 528.734,-84.5501 529.684,-82.2376 526.653,-83.6953 530.634,-79.925 530.634,-79.925"/>
</g>
<!-- v14 -->
<g id="v14_Id(0)" class="node"><title>v14</title>
<ellipse fill="none" stroke="black" cx="283.71" cy="-11" rx="25" ry="11"/>
<text text-anchor="middle" x="283.71" y="-8.8" font-family="sans-serif" font-size="9.00">Id(0)</text>
</g>
<!-- v13&#45;&gt;v14 -->
<g id="edge22" class="edge"><title>v13&#45;&gt;v14</title>
<path fill="none" stroke="black" d="M296.468,-115.883C294.004,-95.8216 288.487,-50.899 285.582,-27.2409"/>
<polygon fill="black" stroke="black" points="284.97,-22.2579 287.813,-26.9464 285.275,-24.7393 285.579,-27.2207 285.579,-27.2207 285.579,-27.2207 285.275,-24.7393 283.346,-27.495 284.97,-22.2579 284.97,-22.2579"/>
</g>
<!-- v15 -->
<g id="v15_Private" class="node"><title>v15</title>
<ellipse fill="none" stroke="black" cx="236.71" cy="-69" rx="32.5" ry="11"/>
<text text-anchor="middle" x="236.71" y="-66.8" font-family="sans-serif" font-size="9.00">Private</text>
</g>
<!-- v13&#45;&gt;v15 -->
<g id="edge23" class="edge"><title>v13&#45;&gt;v15</title>
<path fill="none" stroke="black" d="M287.362,-116.5C277.433,-107.385 262.345,-93.5334 251.217,-83.318"/>
<polygon fill="black" stroke="black" points="247.314,-79.7345 252.519,-81.4584 249.155,-81.4252 250.997,-83.1158 250.997,-83.1158 250.997,-83.1158 249.155,-81.4252 249.475,-84.7733 247.314,-79.7345 247.314,-79.7345"/>
</g>
<!-- v16 -->
<g id="v16_Data" class="node"><title>v16</title>
<ellipse fill="none" stroke="black" cx="218.71" cy="-11" rx="21.5" ry="11"/>
<text text-anchor="middle" x="218.71" y="-8.8" font-family="sans-serif" font-size="9.00">Data</text>
</g>
<!-- v15&#45;&gt;v16 -->
<g id="edge24" class="edge"><title>v15&#45;&gt;v16</title>
<path fill="none" stroke="black" d="M233.492,-57.9883C230.702,-49.3083 226.626,-36.6286 223.461,-26.7806"/>
<polygon fill="black" stroke="black" points="221.9,-21.925 225.572,-25.9966 222.665,-24.3051 223.43,-26.6851 223.43,-26.6851 223.43,-26.6851 222.665,-24.3051 221.288,-27.3737 221.9,-21.925 221.9,-21.925"/>
</g>
<!-- v19 -->
<g id="v19_Data" class="node"><title>v19</title>
<ellipse fill="none" stroke="black" cx="416.71" cy="-11" rx="21.5" ry="11"/>
<text text-anchor="middle" x="416.71" y="-8.8" font-family="sans-serif" font-size="9.00">Data</text>
</g>
<!-- v18&#45;&gt;v19 -->
<g id="edge25" class="edge"><title>v18&#45;&gt;v19</title>
<path fill="none" stroke="black" d="M413.425,-57.9883C414.032,-49.4941 414.912,-37.1697 415.609,-27.4169"/>
<polygon fill="black" stroke="black" points="415.974,-22.3039 417.862,-27.4515 415.796,-24.7975 415.618,-27.2912 415.618,-27.2912 415.618,-27.2912 415.796,-24.7975 413.373,-27.1308 415.974,-22.3039 415.974,-22.3039"/>
</g>
<!-- v22 -->
<g id="v22_Data" class="node"><title>v22</title>
<ellipse fill="none" stroke="black" cx="546.71" cy="-11" rx="21.5" ry="11"/>
<text text-anchor="middle" x="546.71" y="-8.8" font-family="sans-serif" font-size="9.00">Data</text>
</g>
<!-- v21&#45;&gt;v22 -->
<g id="edge26" class="edge"><title>v21&#45;&gt;v22</title>
<path fill="none" stroke="black" d="M536.855,-57.9883C538.676,-49.4941 541.317,-37.1697 543.406,-27.4169"/>
<polygon fill="black" stroke="black" points="544.502,-22.3039 545.654,-27.6644 543.978,-24.7484 543.454,-27.1929 543.454,-27.1929 543.454,-27.1929 543.978,-24.7484 541.254,-26.7214 544.502,-22.3039 544.502,-22.3039"/>
</g>
</g>
</svg>
