<?xml version="1.0" encoding="UTF-8" standalone="no"?>
<?xml-stylesheet href="style.css" type="text/css"?>
<!DOCTYPE svg PUBLIC "-//W3C//DTD SVG 1.1//EN"
 "http://www.w3.org/Graphics/SVG/1.1/DTD/svg11.dtd">
<!-- Generated by graphviz version 2.38.0 (20140413.2041)
 -->
<!-- Title: 0.svg Pages: 1 -->
<svg width="802pt" height="316pt"
 viewBox="0.00 0.00 802.00 316.00" xmlns="http://www.w3.org/2000/svg" xmlns:xlink="http://www.w3.org/1999/xlink">
<g id="graph0" class="graph" transform="scale(1 1) rotate(0) translate(4 312)">
<title>0.svg</title>
<polygon fill="white" stroke="none" points="-4,4 -4,-312 798,-312 798,4 -4,4"/>
<!-- r0 -->
<g id="node1" class="node"><title>r0</title>
<polygon fill="none" stroke="black" stroke-dasharray="5,2" points="381.5,-308 358.5,-308 358.5,-290 381.5,-290 381.5,-308"/>
<text text-anchor="middle" x="370" y="-296.8" font-family="serif" font-size="9.00">0</text>
</g>
<!-- v0 -->
<g id="v0_Building" class="node"><title>v0</title>
<ellipse fill="none" stroke="black" cx="358" cy="-243" rx="36" ry="11"/>
<text text-anchor="middle" x="358" y="-240.8" font-family="sans-serif" font-size="9.00">Building</text>
</g>
<!-- r0&#45;&gt;v0 -->
<g id="edge1" class="edge"><title>r0&#45;&gt;v0</title>
<path fill="none" stroke="black" d="M368.125,-289.562C366.323,-281.453 363.559,-269.014 361.374,-259.181"/>
<polygon fill="black" stroke="black" points="360.229,-254.03 363.51,-258.423 360.771,-256.471 361.314,-258.911 361.314,-258.911 361.314,-258.911 360.771,-256.471 359.117,-259.399 360.229,-254.03 360.229,-254.03"/>
</g>
<!-- oalarm -->
<g id="node2" class="node"><title>oalarm</title>
<text text-anchor="middle" x="422" y="-296.8" font-family="serif" font-size="9.00">alarm</text>
</g>
<!-- e1 -->
<g id="node12" class="node"><title>e1</title>
</g>
<!-- oalarm&#45;&gt;e1 -->
<g id="edge17" class="edge"><title>oalarm&#45;&gt;e1</title>
<path fill="none" stroke="green" d="M422,-289.885C422,-249.27 422,-70 422,-70"/>
</g>
<!-- ocntrlRm -->
<g id="node3" class="node"><title>ocntrlRm</title>
<text text-anchor="middle" x="313" y="-296.8" font-family="serif" font-size="9.00">cntrlRm</text>
</g>
<!-- e2 -->
<g id="node13" class="node"><title>e2</title>
</g>
<!-- ocntrlRm&#45;&gt;e2 -->
<g id="edge20" class="edge"><title>ocntrlRm&#45;&gt;e2</title>
<path fill="none" stroke="green" d="M310.771,-289.945C303.663,-264.265 282,-186 282,-186"/>
</g>
<!-- oserv -->
<g id="node4" class="node"><title>oserv</title>
<text text-anchor="middle" x="250" y="-296.8" font-family="serif" font-size="9.00">serv</text>
</g>
<!-- e3 -->
<g id="node14" class="node"><title>e3</title>
</g>
<!-- oserv&#45;&gt;e3 -->
<g id="edge23" class="edge"><title>oserv&#45;&gt;e3</title>
<path fill="none" stroke="green" d="M250.32,-289.862C251.354,-269.586 255.567,-215.465 272,-174 292.347,-122.659 340,-70 340,-70"/>
</g>
<!-- oserverRm -->
<g id="node5" class="node"><title>oserverRm</title>
<text text-anchor="middle" x="550" y="-296.8" font-family="serif" font-size="9.00">serverRm</text>
</g>
<!-- e4 -->
<g id="node15" class="node"><title>e4</title>
</g>
<!-- oserverRm&#45;&gt;e4 -->
<g id="edge26" class="edge"><title>oserverRm&#45;&gt;e4</title>
<path fill="none" stroke="green" d="M550,-289.945C550,-264.265 550,-186 550,-186"/>
</g>
<!-- osl1 -->
<g id="node6" class="node"><title>osl1</title>
<text text-anchor="middle" x="746" y="-296.8" font-family="serif" font-size="9.00">sl1</text>
</g>
<!-- e5 -->
<g id="node16" class="node"><title>e5</title>
</g>
<!-- osl1&#45;&gt;e5 -->
<g id="edge29" class="edge"><title>osl1&#45;&gt;e5</title>
<path fill="none" stroke="green" d="M746,-289.885C746,-249.27 746,-70 746,-70"/>
</g>
<!-- osl2 -->
<g id="node7" class="node"><title>osl2</title>
<text text-anchor="middle" x="199" y="-296.8" font-family="serif" font-size="9.00">sl2</text>
</g>
<!-- e6 -->
<g id="node17" class="node"><title>e6</title>
</g>
<!-- osl2&#45;&gt;e6 -->
<g id="edge32" class="edge"><title>osl2&#45;&gt;e6</title>
<path fill="none" stroke="green" d="M199.166,-289.893C200.007,-263.424 205.103,-177.697 236,-116 248.263,-91.5124 277,-70 277,-70"/>
</g>
<!-- osl3 -->
<g id="node8" class="node"><title>osl3</title>
<text text-anchor="middle" x="60" y="-296.8" font-family="serif" font-size="9.00">sl3</text>
</g>
<!-- e7 -->
<g id="node18" class="node"><title>e7</title>
</g>
<!-- osl3&#45;&gt;e7 -->
<g id="edge35" class="edge"><title>osl3&#45;&gt;e7</title>
<path fill="none" stroke="green" d="M60,-289.885C60,-249.27 60,-70 60,-70"/>
</g>
<!-- ostation -->
<g id="node9" class="node"><title>ostation</title>
<text text-anchor="middle" x="142" y="-296.8" font-family="serif" font-size="9.00">station</text>
</g>
<!-- e8 -->
<g id="node19" class="node"><title>e8</title>
</g>
<!-- ostation&#45;&gt;e8 -->
<g id="edge38" class="edge"><title>ostation&#45;&gt;e8</title>
<path fill="none" stroke="green" d="M142.534,-289.885C145.206,-249.27 157,-70 157,-70"/>
</g>
<!-- otoiletRm -->
<g id="node10" class="node"><title>otoiletRm</title>
<text text-anchor="middle" x="660" y="-296.8" font-family="serif" font-size="9.00">toiletRm</text>
</g>
<!-- e9 -->
<g id="node20" class="node"><title>e9</title>
</g>
<!-- otoiletRm&#45;&gt;e9 -->
<g id="edge41" class="edge"><title>otoiletRm&#45;&gt;e9</title>
<path fill="none" stroke="green" d="M660,-289.945C660,-264.265 660,-186 660,-186"/>
</g>
<!-- e0 -->
<g id="node11" class="node"><title>e0</title>
</g>
<!-- v13 -->
<g id="v13_Laptop" class="node"><title>v13</title>
<ellipse fill="none" stroke="black" cx="661" cy="-11" rx="29" ry="11"/>
<text text-anchor="middle" x="661" y="-8.8" font-family="sans-serif" font-size="9.00">Laptop</text>
</g>
<!-- e0&#45;&gt;v13 -->
<g id="edge16" class="edge"><title>e0&#45;&gt;v13</title>
<path fill="none" stroke="green" d="M661,-64.1674C661,-55.5862 661,-34.5957 661,-22.0117"/>
<polygon fill="green" stroke="green" points="664.5,-67.3001 657.5,-67.2999 657.5,-65.8999 664.5,-65.9001 664.5,-67.3001"/>
<polyline fill="none" stroke="green" points="661,-68 661,-64.5 "/>
</g>
<!-- v7 -->
<g id="v7_FireAlarm" class="node"><title>v7</title>
<ellipse fill="none" stroke="black" cx="575" cy="-11" rx="39.5" ry="11"/>
<text text-anchor="middle" x="575" y="-8.8" font-family="sans-serif" font-size="9.00">FireAlarm</text>
</g>
<!-- e1&#45;&gt;v7 -->
<g id="edge18" class="edge"><title>e1&#45;&gt;v7</title>
<path fill="none" stroke="green" d="M422,-68C422,-68 510.318,-35.6743 552.752,-20.1429"/>
</g>
<!-- v14 -->
<g id="v14_InstallationBus" class="node"><title>v14</title>
<ellipse fill="none" stroke="black" cx="277" cy="-11" rx="61" ry="11"/>
<text text-anchor="middle" x="277" y="-8.8" font-family="sans-serif" font-size="9.00">InstallationBus</text>
</g>
<!-- e1&#45;&gt;v14 -->
<g id="edge19" class="edge"><title>e1&#45;&gt;v14</title>
<path fill="none" stroke="green" d="M422,-68C422,-68 342.128,-37.1528 300.944,-21.2473"/>
</g>
<!-- v8 -->
<g id="v8_Room" class="node"><title>v8</title>
<ellipse fill="none" stroke="black" cx="117" cy="-69" rx="21.5" ry="11"/>
<text text-anchor="middle" x="117" y="-66.8" font-family="sans-serif" font-size="9.00">Room</text>
</g>
<!-- e2&#45;&gt;v8 -->
<g id="edge21" class="edge"><title>e2&#45;&gt;v8</title>
<path fill="none" stroke="green" d="M282,-184C282,-184 166.699,-104.338 128.866,-78.1986"/>
</g>
<!-- v11 -->
<g id="v11_Hallway" class="node"><title>v11</title>
<ellipse fill="none" stroke="black" cx="635" cy="-127" rx="32.5" ry="11"/>
<text text-anchor="middle" x="635" y="-124.8" font-family="sans-serif" font-size="9.00">Hallway</text>
</g>
<!-- e2&#45;&gt;v11 -->
<g id="edge22" class="edge"><title>e2&#45;&gt;v11</title>
<path fill="none" stroke="green" d="M282,-184C282,-184 522.944,-145.777 606.709,-132.488"/>
</g>
<!-- v6 -->
<g id="v6_Server" class="node"><title>v6</title>
<ellipse fill="none" stroke="black" cx="489" cy="-11" rx="29" ry="11"/>
<text text-anchor="middle" x="489" y="-8.8" font-family="sans-serif" font-size="9.00">Server</text>
</g>
<!-- e3&#45;&gt;v6 -->
<g id="edge24" class="edge"><title>e3&#45;&gt;v6</title>
<path fill="none" stroke="green" d="M340,-68C340,-68 429.133,-34.5005 469.521,-19.321"/>
</g>
<!-- e3&#45;&gt;v14 -->
<g id="edge25" class="edge"><title>e3&#45;&gt;v14</title>
<path fill="none" stroke="green" d="M340,-68C340,-68 306.384,-38.1193 288.263,-22.0117"/>
</g>
<!-- v4 -->
<g id="v4_Room" class="node"><title>v4</title>
<ellipse fill="none" stroke="black" cx="498" cy="-69" rx="21.5" ry="11"/>
<text text-anchor="middle" x="498" y="-66.8" font-family="sans-serif" font-size="9.00">Room</text>
</g>
<!-- e4&#45;&gt;v4 -->
<g id="edge27" class="edge"><title>e4&#45;&gt;v4</title>
<path fill="none" stroke="green" d="M550,-184C550,-184 515.341,-108.017 502.615,-80.1167"/>
</g>
<!-- e4&#45;&gt;v11 -->
<g id="edge28" class="edge"><title>e4&#45;&gt;v11</title>
<path fill="none" stroke="green" d="M550,-184C550,-184 597.316,-152.827 621.343,-136.997"/>
</g>
<!-- v3 -->
<g id="v3_SmartLight" class="node"><title>v3</title>
<ellipse fill="none" stroke="black" cx="751" cy="-11" rx="43" ry="11"/>
<text text-anchor="middle" x="751" y="-8.8" font-family="sans-serif" font-size="9.00">SmartLight</text>
</g>
<!-- e5&#45;&gt;v3 -->
<g id="edge30" class="edge"><title>e5&#45;&gt;v3</title>
<path fill="none" stroke="green" d="M746,-68C746,-68 748.668,-38.1193 750.106,-22.0117"/>
</g>
<!-- e5&#45;&gt;v14 -->
<g id="edge31" class="edge"><title>e5&#45;&gt;v14</title>
<path fill="none" stroke="green" d="M746,-68C746,-68 738.552,-60.6776 731,-58 569.44,-0.715781 517.229,-42.1268 347,-22 338.588,-21.0054 329.625,-19.8205 321.02,-18.6201"/>
</g>
<!-- v5 -->
<g id="v5_SmartLight" class="node"><title>v5</title>
<ellipse fill="none" stroke="black" cx="399" cy="-11" rx="43" ry="11"/>
<text text-anchor="middle" x="399" y="-8.8" font-family="sans-serif" font-size="9.00">SmartLight</text>
</g>
<!-- e6&#45;&gt;v5 -->
<g id="edge33" class="edge"><title>e6&#45;&gt;v5</title>
<path fill="none" stroke="green" d="M277,-68C277,-68 345.268,-36.6638 379.669,-20.8734"/>
</g>
<!-- e6&#45;&gt;v14 -->
<g id="edge34" class="edge"><title>e6&#45;&gt;v14</title>
<path fill="none" stroke="green" d="M277,-68C277,-68 277,-38.1193 277,-22.0117"/>
</g>
<!-- v9 -->
<g id="v9_SmartLight" class="node"><title>v9</title>
<ellipse fill="none" stroke="black" cx="43" cy="-11" rx="43" ry="11"/>
<text text-anchor="middle" x="43" y="-8.8" font-family="sans-serif" font-size="9.00">SmartLight</text>
</g>
<!-- e7&#45;&gt;v9 -->
<g id="edge36" class="edge"><title>e7&#45;&gt;v9</title>
<path fill="none" stroke="green" d="M60,-68C60,-68 50.9291,-38.1193 46.0393,-22.0117"/>
</g>
<!-- e7&#45;&gt;v14 -->
<g id="edge37" class="edge"><title>e7&#45;&gt;v14</title>
<path fill="none" stroke="green" d="M60,-68C60,-68 74.1786,-61.6795 86,-58 138.27,-41.7305 200.074,-27.7802 238.913,-19.6361"/>
</g>
<!-- v10 -->
<g id="v10_Workstation" class="node"><title>v10</title>
<ellipse fill="none" stroke="black" cx="151" cy="-11" rx="47" ry="11"/>
<text text-anchor="middle" x="151" y="-8.8" font-family="sans-serif" font-size="9.00">Workstation</text>
</g>
<!-- e8&#45;&gt;v10 -->
<g id="edge39" class="edge"><title>e8&#45;&gt;v10</title>
<path fill="none" stroke="green" d="M157,-68C157,-68 153.798,-38.1193 152.073,-22.0117"/>
</g>
<!-- e8&#45;&gt;v14 -->
<g id="edge40" class="edge"><title>e8&#45;&gt;v14</title>
<path fill="none" stroke="green" d="M157,-68C157,-68 222.407,-37.4767 256.644,-21.4996"/>
</g>
<!-- v2 -->
<g id="v2_Room" class="node"><title>v2</title>
<ellipse fill="none" stroke="black" cx="701" cy="-69" rx="21.5" ry="11"/>
<text text-anchor="middle" x="701" y="-66.8" font-family="sans-serif" font-size="9.00">Room</text>
</g>
<!-- e9&#45;&gt;v2 -->
<g id="edge42" class="edge"><title>e9&#45;&gt;v2</title>
<path fill="none" stroke="green" d="M660,-184C660,-184 687.327,-108.017 697.362,-80.1167"/>
</g>
<!-- e9&#45;&gt;v11 -->
<g id="edge43" class="edge"><title>e9&#45;&gt;v11</title>
<path fill="none" stroke="green" d="M660,-184C660,-184 646.66,-154.119 639.469,-138.012"/>
</g>
<!-- v1 -->
<g id="v1_Floor" class="node"><title>v1</title>
<ellipse fill="none" stroke="black" cx="498" cy="-185" rx="25" ry="11"/>
<text text-anchor="middle" x="498" y="-182.8" font-family="sans-serif" font-size="9.00">Floor</text>
</g>
<!-- v0&#45;&gt;v1 -->
<g id="edge2" class="edge"><title>v0&#45;&gt;v1</title>
<path fill="none" stroke="black" d="M378.357,-233.857C404.202,-223.519 448.647,-205.741 475.482,-195.007"/>
<polygon fill="black" stroke="black" points="480.279,-193.088 476.472,-197.035 477.958,-194.017 475.636,-194.945 475.636,-194.945 475.636,-194.945 477.958,-194.017 474.801,-192.856 480.279,-193.088 480.279,-193.088"/>
</g>
<!-- v0&#45;&gt;v14 -->
<g id="edge3" class="edge"><title>v0&#45;&gt;v14</title>
<path fill="none" stroke="black" d="M354.415,-231.82C341.529,-195.229 297.514,-70.2499 282.258,-26.9288"/>
<polygon fill="black" stroke="black" points="280.544,-22.062 284.327,-26.0307 281.374,-24.4201 282.205,-26.7781 282.205,-26.7781 282.205,-26.7781 281.374,-24.4201 280.082,-27.5255 280.544,-22.062 280.544,-22.062"/>
</g>
<!-- v1&#45;&gt;v2 -->
<g id="edge4" class="edge"><title>v1&#45;&gt;v2</title>
<path fill="none" stroke="black" d="M508.875,-175.001C526,-161.118 560.641,-134.183 593,-116 621.576,-99.9427 656.875,-85.9049 679.17,-77.6871"/>
<polygon fill="black" stroke="black" points="683.996,-75.9241 680.072,-79.753 681.648,-76.7818 679.3,-77.6396 679.3,-77.6396 679.3,-77.6396 681.648,-76.7818 678.528,-75.5261 683.996,-75.9241 683.996,-75.9241"/>
</g>
<!-- v1&#45;&gt;v4 -->
<g id="edge5" class="edge"><title>v1&#45;&gt;v4</title>
<path fill="none" stroke="black" d="M498,-173.883C498,-153.906 498,-109.276 498,-85.5402"/>
<polygon fill="black" stroke="black" points="498,-80.2579 500.25,-85.2579 498,-82.7579 498,-85.2579 498,-85.2579 498,-85.2579 498,-82.7579 495.75,-85.258 498,-80.2579 498,-80.2579"/>
</g>
<!-- v1&#45;&gt;v8 -->
<g id="edge6" class="edge"><title>v1&#45;&gt;v8</title>
<path fill="none" stroke="black" d="M477.747,-178.258C423.798,-162.906 272.19,-119.399 147,-80 144.382,-79.1759 141.642,-78.2923 138.927,-77.4038"/>
<polygon fill="black" stroke="black" points="134.101,-75.8111 139.555,-75.2416 136.475,-76.5946 138.85,-77.3782 138.85,-77.3782 138.85,-77.3782 136.475,-76.5946 138.144,-79.5148 134.101,-75.8111 134.101,-75.8111"/>
</g>
<!-- v1&#45;&gt;v11 -->
<g id="edge7" class="edge"><title>v1&#45;&gt;v11</title>
<path fill="none" stroke="black" d="M515.351,-176.908C539.482,-167.044 583.287,-149.138 610.671,-137.945"/>
<polygon fill="black" stroke="black" points="615.585,-135.936 611.808,-139.911 613.271,-136.882 610.957,-137.828 610.957,-137.828 610.957,-137.828 613.271,-136.882 610.105,-135.745 615.585,-135.936 615.585,-135.936"/>
</g>
<!-- v2&#45;&gt;v3 -->
<g id="edge8" class="edge"><title>v2&#45;&gt;v3</title>
<path fill="none" stroke="black" d="M709.256,-58.7527C717.288,-49.7573 729.587,-35.9828 738.757,-25.7121"/>
<polygon fill="black" stroke="black" points="742.226,-21.8266 740.575,-27.0548 740.561,-23.6914 738.896,-25.5563 738.896,-25.5563 738.896,-25.5563 740.561,-23.6914 737.218,-24.0577 742.226,-21.8266 742.226,-21.8266"/>
</g>
<!-- v4&#45;&gt;v5 -->
<g id="edge9" class="edge"><title>v4&#45;&gt;v5</title>
<path fill="none" stroke="black" d="M484.234,-60.2134C467.582,-50.7936 439.375,-34.8383 420.001,-23.8795"/>
<polygon fill="black" stroke="black" points="415.279,-21.2081 420.738,-21.7114 417.455,-22.4389 419.631,-23.6698 419.631,-23.6698 419.631,-23.6698 417.455,-22.4389 418.523,-25.6282 415.279,-21.2081 415.279,-21.2081"/>
</g>
<!-- v4&#45;&gt;v6 -->
<g id="edge10" class="edge"><title>v4&#45;&gt;v6</title>
<path fill="none" stroke="black" d="M496.391,-57.9883C495.026,-49.4941 493.045,-37.1697 491.478,-27.4169"/>
<polygon fill="black" stroke="black" points="490.656,-22.3039 493.671,-26.8835 491.053,-24.7722 491.449,-27.2405 491.449,-27.2405 491.449,-27.2405 491.053,-24.7722 489.228,-27.5976 490.656,-22.3039 490.656,-22.3039"/>
</g>
<!-- v4&#45;&gt;v7 -->
<g id="edge11" class="edge"><title>v4&#45;&gt;v7</title>
<path fill="none" stroke="black" d="M509.695,-59.4948C522.429,-50.2334 542.931,-35.3229 557.566,-24.6796"/>
<polygon fill="black" stroke="black" points="561.904,-21.5244 559.184,-26.285 559.882,-22.9949 557.86,-24.4653 557.86,-24.4653 557.86,-24.4653 559.882,-22.9949 556.537,-22.6456 561.904,-21.5244 561.904,-21.5244"/>
</g>
<!-- v8&#45;&gt;v9 -->
<g id="edge12" class="edge"><title>v8&#45;&gt;v9</title>
<path fill="none" stroke="black" d="M105.761,-59.4948C93.5227,-50.2334 73.8196,-35.3229 59.7551,-24.6796"/>
<polygon fill="black" stroke="black" points="55.5858,-21.5244 60.9306,-22.7475 57.5794,-23.033 59.5729,-24.5417 59.5729,-24.5417 59.5729,-24.5417 57.5794,-23.033 58.2151,-26.3358 55.5858,-21.5244 55.5858,-21.5244"/>
</g>
<!-- v8&#45;&gt;v10 -->
<g id="edge13" class="edge"><title>v8&#45;&gt;v10</title>
<path fill="none" stroke="black" d="M122.922,-58.2455C128.268,-49.4409 136.202,-36.373 142.274,-26.3724"/>
<polygon fill="black" stroke="black" points="144.917,-22.0198 144.245,-27.4614 143.619,-24.1567 142.322,-26.2937 142.322,-26.2937 142.322,-26.2937 143.619,-24.1567 140.398,-25.126 144.917,-22.0198 144.917,-22.0198"/>
</g>
<!-- v12 -->
<g id="v12_Visitor" class="node"><title>v12</title>
<ellipse fill="none" stroke="black" cx="610" cy="-69" rx="32.5" ry="11"/>
<text text-anchor="middle" x="610" y="-66.8" font-family="sans-serif" font-size="9.00">Visitor</text>
</g>
<!-- v11&#45;&gt;v12 -->
<g id="edge14" class="edge"><title>v11&#45;&gt;v12</title>
<path fill="none" stroke="black" d="M630.531,-115.988C626.62,-107.229 620.891,-94.3956 616.478,-84.5103"/>
<polygon fill="black" stroke="black" points="614.431,-79.925 618.524,-83.5735 615.45,-82.2079 616.469,-84.4907 616.469,-84.4907 616.469,-84.4907 615.45,-82.2079 614.415,-85.4079 614.431,-79.925 614.431,-79.925"/>
</g>
<!-- v12&#45;&gt;v13 -->
<g id="edge15" class="edge"><title>v12&#45;&gt;v13</title>
<path fill="none" stroke="black" d="M618.884,-58.2455C627.147,-49.1716 639.535,-35.5697 648.738,-25.4636"/>
<polygon fill="black" stroke="black" points="652.218,-21.6427 650.515,-26.8544 650.535,-23.491 648.852,-25.3394 648.852,-25.3394 648.852,-25.3394 650.535,-23.491 647.188,-23.8244 652.218,-21.6427 652.218,-21.6427"/>
</g>
</g>
</svg>
