<?xml version="1.0" encoding="UTF-8" standalone="no"?>
<?xml-stylesheet href="style.css" type="text/css"?>
<!DOCTYPE svg PUBLIC "-//W3C//DTD SVG 1.1//EN"
 "http://www.w3.org/Graphics/SVG/1.1/DTD/svg11.dtd">
<!-- Generated by graphviz version 2.38.0 (20140413.2041)
 -->
<!-- Title: 2.svg Pages: 1 -->
<svg width="694pt" height="316pt"
 viewBox="0.00 0.00 694.00 316.00" xmlns="http://www.w3.org/2000/svg" xmlns:xlink="http://www.w3.org/1999/xlink">
<g id="graph0" class="graph" transform="scale(1 1) rotate(0) translate(4 312)">
<title>2.svg</title>
<polygon fill="white" stroke="none" points="-4,4 -4,-312 690,-312 690,4 -4,4"/>
<!-- r0 -->
<g id="node1" class="node"><title>r0</title>
<polygon fill="none" stroke="black" stroke-dasharray="5,2" points="407.5,-308 384.5,-308 384.5,-290 407.5,-290 407.5,-308"/>
<text text-anchor="middle" x="396" y="-296.8" font-family="serif" font-size="9.00">0</text>
</g>
<!-- v0 -->
<g id="v0_Building" class="node"><title>v0</title>
<ellipse fill="none" stroke="black" cx="396" cy="-243" rx="36" ry="11"/>
<text text-anchor="middle" x="396" y="-240.8" font-family="sans-serif" font-size="9.00">Building</text>
</g>
<!-- r0&#45;&gt;v0 -->
<g id="edge1" class="edge"><title>r0&#45;&gt;v0</title>
<path fill="none" stroke="black" d="M396,-289.562C396,-281.453 396,-269.014 396,-259.181"/>
<polygon fill="black" stroke="black" points="396,-254.03 398.25,-259.03 396,-256.53 396,-259.03 396,-259.03 396,-259.03 396,-256.53 393.75,-259.03 396,-254.03 396,-254.03"/>
</g>
<!-- oalarm -->
<g id="node2" class="node"><title>oalarm</title>
<text text-anchor="middle" x="562" y="-296.8" font-family="serif" font-size="9.00">alarm</text>
</g>
<!-- ocntrlRm -->
<g id="node3" class="node"><title>ocntrlRm</title>
<text text-anchor="middle" x="161" y="-296.8" font-family="serif" font-size="9.00">cntrlRm</text>
</g>
<!-- oserv -->
<g id="node4" class="node"><title>oserv</title>
<text text-anchor="middle" x="620" y="-296.8" font-family="serif" font-size="9.00">serv</text>
</g>
<!-- oserverRm -->
<g id="node5" class="node"><title>oserverRm</title>
<text text-anchor="middle" x="237" y="-296.8" font-family="serif" font-size="9.00">serverRm</text>
</g>
<!-- osl1 -->
<g id="node6" class="node"><title>osl1</title>
<text text-anchor="middle" x="332" y="-296.8" font-family="serif" font-size="9.00">sl1</text>
</g>
<!-- e5 -->
<g id="node12" class="node"><title>e5</title>
</g>
<!-- osl1&#45;&gt;e5 -->
<g id="edge14" class="edge"><title>osl1&#45;&gt;e5</title>
<path fill="none" stroke="green" d="M332,-289.885C332,-249.27 332,-70 332,-70"/>
</g>
<!-- osl2 -->
<g id="node7" class="node"><title>osl2</title>
<text text-anchor="middle" x="671" y="-296.8" font-family="serif" font-size="9.00">sl2</text>
</g>
<!-- osl3 -->
<g id="node8" class="node"><title>osl3</title>
<text text-anchor="middle" x="441" y="-296.8" font-family="serif" font-size="9.00">sl3</text>
</g>
<!-- ostation -->
<g id="node9" class="node"><title>ostation</title>
<text text-anchor="middle" x="498" y="-296.8" font-family="serif" font-size="9.00">station</text>
</g>
<!-- otoiletRm -->
<g id="node10" class="node"><title>otoiletRm</title>
<text text-anchor="middle" x="73" y="-296.8" font-family="serif" font-size="9.00">toiletRm</text>
</g>
<!-- e9 -->
<g id="node13" class="node"><title>e9</title>
</g>
<!-- otoiletRm&#45;&gt;e9 -->
<g id="edge20" class="edge"><title>otoiletRm&#45;&gt;e9</title>
<path fill="none" stroke="green" d="M73,-289.945C73,-264.265 73,-186 73,-186"/>
</g>
<!-- e0 -->
<g id="node11" class="node"><title>e0</title>
</g>
<!-- v5 -->
<g id="v5_Laptop" class="node"><title>v5</title>
<ellipse fill="none" stroke="black" cx="29" cy="-11" rx="29" ry="11"/>
<text text-anchor="middle" x="29" y="-8.8" font-family="sans-serif" font-size="9.00">Laptop</text>
</g>
<!-- e0&#45;&gt;v5 -->
<g id="edge9" class="edge"><title>e0&#45;&gt;v5</title>
<path fill="none" stroke="green" d="M29,-64.1674C29,-55.5862 29,-34.5957 29,-22.0117"/>
<polygon fill="green" stroke="green" points="32.5,-67.3001 25.5,-67.2999 25.5001,-65.8999 32.5001,-65.9001 32.5,-67.3001"/>
<polyline fill="none" stroke="green" points="29,-68 29.0001,-64.5 "/>
</g>
<!-- v6 -->
<g id="v6_SmartLight" class="node"><title>v6</title>
<ellipse fill="none" stroke="black" cx="313" cy="-11" rx="43" ry="11"/>
<text text-anchor="middle" x="313" y="-8.8" font-family="sans-serif" font-size="9.00">SmartLight</text>
</g>
<!-- e5&#45;&gt;v6 -->
<g id="edge15" class="edge"><title>e5&#45;&gt;v6</title>
<path fill="none" stroke="green" d="M332,-68C332,-68 321.862,-38.1193 316.397,-22.0117"/>
</g>
<!-- v7 -->
<g id="v7_InstallationBus" class="node"><title>v7</title>
<ellipse fill="none" stroke="black" cx="498" cy="-11" rx="61" ry="11"/>
<text text-anchor="middle" x="498" y="-8.8" font-family="sans-serif" font-size="9.00">InstallationBus</text>
</g>
<!-- e5&#45;&gt;v7 -->
<g id="edge16" class="edge"><title>e5&#45;&gt;v7</title>
<path fill="none" stroke="green" d="M332,-68C332,-68 424.405,-36.8273 471.329,-20.9974"/>
</g>
<!-- v2 -->
<g id="v2_Hallway" class="node"><title>v2</title>
<ellipse fill="none" stroke="black" cx="199" cy="-11" rx="32.5" ry="11"/>
<text text-anchor="middle" x="199" y="-8.8" font-family="sans-serif" font-size="9.00">Hallway</text>
</g>
<!-- e9&#45;&gt;v2 -->
<g id="edge21" class="edge"><title>e9&#45;&gt;v2</title>
<path fill="none" stroke="green" d="M73,-184C73,-184 44.4008,-103.568 77,-58 97.7435,-29.0041 139.141,-18.2751 167.927,-14.3115"/>
</g>
<!-- v3 -->
<g id="v3_Room" class="node"><title>v3</title>
<ellipse fill="none" stroke="black" cx="124" cy="-127" rx="21.5" ry="11"/>
<text text-anchor="middle" x="124" y="-124.8" font-family="sans-serif" font-size="9.00">Room</text>
</g>
<!-- e9&#45;&gt;v3 -->
<g id="edge22" class="edge"><title>e9&#45;&gt;v3</title>
<path fill="none" stroke="green" d="M73,-184C73,-184 101.093,-153.153 115.578,-137.247"/>
</g>
<!-- v1 -->
<g id="v1_Floor" class="node"><title>v1</title>
<ellipse fill="none" stroke="black" cx="279" cy="-185" rx="25" ry="11"/>
<text text-anchor="middle" x="279" y="-182.8" font-family="sans-serif" font-size="9.00">Floor</text>
</g>
<!-- v0&#45;&gt;v1 -->
<g id="edge2" class="edge"><title>v0&#45;&gt;v1</title>
<path fill="none" stroke="black" d="M377.975,-233.373C356.79,-223.233 321.716,-206.445 299.51,-195.817"/>
<polygon fill="black" stroke="black" points="294.976,-193.647 300.458,-193.776 297.231,-194.726 299.486,-195.805 299.486,-195.805 299.486,-195.805 297.231,-194.726 298.515,-197.835 294.976,-193.647 294.976,-193.647"/>
</g>
<!-- v0&#45;&gt;v7 -->
<g id="edge3" class="edge"><title>v0&#45;&gt;v7</title>
<path fill="none" stroke="black" d="M396.745,-231.614C399.267,-202.218 409.488,-116.766 446,-58 454.199,-44.8042 467.323,-33.2354 478.335,-25.0003"/>
<polygon fill="black" stroke="black" points="482.592,-21.9011 479.874,-26.663 480.571,-23.3725 478.55,-24.8439 478.55,-24.8439 478.55,-24.8439 480.571,-23.3725 477.226,-23.0249 482.592,-21.9011 482.592,-21.9011"/>
</g>
<!-- v1&#45;&gt;v2 -->
<g id="edge4" class="edge"><title>v1&#45;&gt;v2</title>
<path fill="none" stroke="black" d="M276.204,-173.81C269.968,-151.859 253.742,-98.7954 232,-58 225.882,-46.521 217.27,-34.6168 210.378,-25.7948"/>
<polygon fill="black" stroke="black" points="207.151,-21.727 212.021,-24.2459 208.705,-23.6856 210.259,-25.6442 210.259,-25.6442 210.259,-25.6442 208.705,-23.6856 208.496,-27.0425 207.151,-21.727 207.151,-21.727"/>
</g>
<!-- v1&#45;&gt;v3 -->
<g id="edge5" class="edge"><title>v1&#45;&gt;v3</title>
<path fill="none" stroke="black" d="M260.611,-177.356C231.956,-167.004 176.759,-147.061 146.024,-135.957"/>
<polygon fill="black" stroke="black" points="140.945,-134.122 146.412,-133.705 143.297,-134.972 145.648,-135.821 145.648,-135.821 145.648,-135.821 143.297,-134.972 144.883,-137.937 140.945,-134.122 140.945,-134.122"/>
</g>
<!-- v2&#45;&gt;ocntrlRm -->
<g id="edge11" class="edge"><title>v2&#45;&gt;ocntrlRm</title>
<path fill="none" stroke="green" d="M196.196,-21.9716C190.911,-41.6776 180,-87.0745 180,-126 180,-186 180,-186 180,-186 180,-225.445 168.403,-271.616 163.33,-289.929"/>
</g>
<!-- v2&#45;&gt;oserverRm -->
<g id="edge13" class="edge"><title>v2&#45;&gt;oserverRm</title>
<path fill="none" stroke="green" d="M201.804,-21.9716C207.089,-41.6776 218,-87.0745 218,-126 218,-186 218,-186 218,-186 218,-225.445 229.597,-271.616 234.67,-289.929"/>
</g>
<!-- v4 -->
<g id="v4_Visitor" class="node"><title>v4</title>
<ellipse fill="none" stroke="black" cx="119" cy="-69" rx="32.5" ry="11"/>
<text text-anchor="middle" x="119" y="-66.8" font-family="sans-serif" font-size="9.00">Visitor</text>
</g>
<!-- v3&#45;&gt;v4 -->
<g id="edge6" class="edge"><title>v3&#45;&gt;v4</title>
<path fill="none" stroke="black" d="M123.106,-115.988C122.348,-107.494 121.247,-95.1697 120.377,-85.4169"/>
<polygon fill="black" stroke="black" points="119.92,-80.3039 122.606,-85.0839 120.142,-82.794 120.365,-85.2841 120.365,-85.2841 120.365,-85.2841 120.142,-82.794 118.124,-85.4842 119.92,-80.3039 119.92,-80.3039"/>
</g>
<!-- v3&#45;&gt;v6 -->
<g id="edge7" class="edge"><title>v3&#45;&gt;v6</title>
<path fill="none" stroke="black" d="M136.991,-118.164C169.448,-98.5869 254.257,-47.4324 293.078,-24.0167"/>
<polygon fill="black" stroke="black" points="297.577,-21.3027 294.458,-25.8118 295.436,-22.5939 293.296,-23.8852 293.296,-23.8852 293.296,-23.8852 295.436,-22.5939 292.134,-21.9585 297.577,-21.3027 297.577,-21.3027"/>
</g>
<!-- v4&#45;&gt;v5 -->
<g id="edge8" class="edge"><title>v4&#45;&gt;v5</title>
<path fill="none" stroke="black" d="M104.54,-59.0026C89.0974,-49.394 64.5698,-34.1324 47.676,-23.6206"/>
<polygon fill="black" stroke="black" points="43.1274,-20.7904 48.5614,-21.5216 45.2501,-22.1112 47.3727,-23.432 47.3727,-23.432 47.3727,-23.432 45.2501,-22.1112 46.184,-25.3423 43.1274,-20.7904 43.1274,-20.7904"/>
</g>
<!-- v7&#45;&gt;oalarm -->
<g id="edge10" class="edge"><title>v7&#45;&gt;oalarm</title>
<path fill="none" stroke="green" d="M508.283,-21.9316C526.374,-40.5266 562,-82.6482 562,-126 562,-186 562,-186 562,-186 562,-224.889 562,-271.373 562,-289.849"/>
</g>
<!-- v7&#45;&gt;oserv -->
<g id="edge12" class="edge"><title>v7&#45;&gt;oserv</title>
<path fill="none" stroke="green" d="M521.234,-21.1946C556.632,-36.9113 620,-72.5164 620,-126 620,-186 620,-186 620,-186 620,-224.889 620,-271.373 620,-289.849"/>
</g>
<!-- v7&#45;&gt;osl2 -->
<g id="edge17" class="edge"><title>v7&#45;&gt;osl2</title>
<path fill="none" stroke="green" d="M536.825,-19.5739C587.831,-32.0395 671,-62.1544 671,-126 671,-186 671,-186 671,-186 671,-224.889 671,-271.373 671,-289.849"/>
</g>
<!-- v7&#45;&gt;osl3 -->
<g id="edge18" class="edge"><title>v7&#45;&gt;osl3</title>
<path fill="none" stroke="green" d="M492.229,-21.9987C481.598,-41.3878 460,-85.7359 460,-126 460,-186 460,-186 460,-186 460,-225.445 448.403,-271.616 443.33,-289.929"/>
</g>
<!-- v7&#45;&gt;ostation -->
<g id="edge19" class="edge"><title>v7&#45;&gt;ostation</title>
<path fill="none" stroke="green" d="M498,-22.0648C498,-41.9341 498,-87.6042 498,-126 498,-186 498,-186 498,-186 498,-224.889 498,-271.373 498,-289.849"/>
</g>
</g>
</svg>
