<?xml version="1.0" encoding="UTF-8" standalone="no"?>
<?xml-stylesheet href="style.css" type="text/css"?>
<!DOCTYPE svg PUBLIC "-//W3C//DTD SVG 1.1//EN"
 "http://www.w3.org/Graphics/SVG/1.1/DTD/svg11.dtd">
<!-- Generated by graphviz version 2.38.0 (20140413.2041)
 -->
<!-- Title: 4.svg Pages: 1 -->
<svg width="696pt" height="316pt"
 viewBox="0.00 0.00 695.50 316.00" xmlns="http://www.w3.org/2000/svg" xmlns:xlink="http://www.w3.org/1999/xlink">
<g id="graph0" class="graph" transform="scale(1 1) rotate(0) translate(4 312)">
<title>4.svg</title>
<polygon fill="white" stroke="none" points="-4,4 -4,-312 691.5,-312 691.5,4 -4,4"/>
<!-- r0 -->
<g id="node1" class="node"><title>r0</title>
<polygon fill="none" stroke="black" stroke-dasharray="5,2" points="408.5,-308 385.5,-308 385.5,-290 408.5,-290 408.5,-308"/>
<text text-anchor="middle" x="397" y="-296.8" font-family="serif" font-size="9.00">0</text>
</g>
<!-- v0 -->
<g id="v0_Building" class="node"><title>v0</title>
<ellipse fill="none" stroke="black" cx="397" cy="-243" rx="36" ry="11"/>
<text text-anchor="middle" x="397" y="-240.8" font-family="sans-serif" font-size="9.00">Building</text>
</g>
<!-- r0&#45;&gt;v0 -->
<g id="edge1" class="edge"><title>r0&#45;&gt;v0</title>
<path fill="none" stroke="black" d="M397,-289.562C397,-281.453 397,-269.014 397,-259.181"/>
<polygon fill="black" stroke="black" points="397,-254.03 399.25,-259.03 397,-256.53 397,-259.03 397,-259.03 397,-259.03 397,-256.53 394.75,-259.03 397,-254.03 397,-254.03"/>
</g>
<!-- oalarm -->
<g id="node2" class="node"><title>oalarm</title>
<text text-anchor="middle" x="22" y="-296.8" font-family="serif" font-size="9.00">alarm</text>
</g>
<!-- ocntrlRm -->
<g id="node3" class="node"><title>ocntrlRm</title>
<text text-anchor="middle" x="581" y="-296.8" font-family="serif" font-size="9.00">cntrlRm</text>
</g>
<!-- oserv -->
<g id="node4" class="node"><title>oserv</title>
<text text-anchor="middle" x="146" y="-296.8" font-family="serif" font-size="9.00">serv</text>
</g>
<!-- oserverRm -->
<g id="node5" class="node"><title>oserverRm</title>
<text text-anchor="middle" x="657" y="-296.8" font-family="serif" font-size="9.00">serverRm</text>
</g>
<!-- osl1 -->
<g id="node6" class="node"><title>osl1</title>
<text text-anchor="middle" x="293" y="-296.8" font-family="serif" font-size="9.00">sl1</text>
</g>
<!-- e5 -->
<g id="node12" class="node"><title>e5</title>
</g>
<!-- osl1&#45;&gt;e5 -->
<g id="edge14" class="edge"><title>osl1&#45;&gt;e5</title>
<path fill="none" stroke="green" d="M292.822,-289.885C291.931,-249.27 288,-70 288,-70"/>
</g>
<!-- osl2 -->
<g id="node7" class="node"><title>osl2</title>
<text text-anchor="middle" x="197" y="-296.8" font-family="serif" font-size="9.00">sl2</text>
</g>
<!-- osl3 -->
<g id="node8" class="node"><title>osl3</title>
<text text-anchor="middle" x="245" y="-296.8" font-family="serif" font-size="9.00">sl3</text>
</g>
<!-- ostation -->
<g id="node9" class="node"><title>ostation</title>
<text text-anchor="middle" x="86" y="-296.8" font-family="serif" font-size="9.00">station</text>
</g>
<!-- otoiletRm -->
<g id="node10" class="node"><title>otoiletRm</title>
<text text-anchor="middle" x="503" y="-296.8" font-family="serif" font-size="9.00">toiletRm</text>
</g>
<!-- e9 -->
<g id="node13" class="node"><title>e9</title>
</g>
<!-- otoiletRm&#45;&gt;e9 -->
<g id="edge20" class="edge"><title>otoiletRm&#45;&gt;e9</title>
<path fill="none" stroke="green" d="M503,-289.945C503,-264.265 503,-186 503,-186"/>
</g>
<!-- e0 -->
<g id="node11" class="node"><title>e0</title>
</g>
<!-- v5 -->
<g id="v5_SmartLight" class="node"><title>v5</title>
<ellipse fill="none" stroke="black" cx="438" cy="-11" rx="43" ry="11"/>
<text text-anchor="middle" x="438" y="-8.8" font-family="sans-serif" font-size="9.00">SmartLight</text>
</g>
<!-- e0&#45;&gt;v5 -->
<g id="edge9" class="edge"><title>e0&#45;&gt;v5</title>
<path fill="none" stroke="green" d="M438,-64.1674C438,-55.5862 438,-34.5957 438,-22.0117"/>
<polygon fill="green" stroke="green" points="441.5,-67.3001 434.5,-67.2999 434.5,-65.8999 441.5,-65.9001 441.5,-67.3001"/>
<polyline fill="none" stroke="green" points="438,-68 438,-64.5 "/>
</g>
<!-- v4 -->
<g id="v4_Laptop" class="node"><title>v4</title>
<ellipse fill="none" stroke="black" cx="327" cy="-11" rx="29" ry="11"/>
<text text-anchor="middle" x="327" y="-8.8" font-family="sans-serif" font-size="9.00">Laptop</text>
</g>
<!-- e5&#45;&gt;v4 -->
<g id="edge15" class="edge"><title>e5&#45;&gt;v4</title>
<path fill="none" stroke="green" d="M288,-68C288,-68 309.033,-37.7988 320.207,-21.7545"/>
</g>
<!-- v6 -->
<g id="v6_InstallationBus" class="node"><title>v6</title>
<ellipse fill="none" stroke="black" cx="197" cy="-11" rx="61" ry="11"/>
<text text-anchor="middle" x="197" y="-8.8" font-family="sans-serif" font-size="9.00">InstallationBus</text>
</g>
<!-- e5&#45;&gt;v6 -->
<g id="edge16" class="edge"><title>e5&#45;&gt;v6</title>
<path fill="none" stroke="green" d="M288,-68C288,-68 238.923,-37.7988 212.851,-21.7545"/>
</g>
<!-- v2 -->
<g id="v2_Room" class="node"><title>v2</title>
<ellipse fill="none" stroke="black" cx="455" cy="-127" rx="21.5" ry="11"/>
<text text-anchor="middle" x="455" y="-124.8" font-family="sans-serif" font-size="9.00">Room</text>
</g>
<!-- e9&#45;&gt;v2 -->
<g id="edge21" class="edge"><title>e9&#45;&gt;v2</title>
<path fill="none" stroke="green" d="M503,-184C503,-184 476.56,-153.153 462.926,-137.247"/>
</g>
<!-- v7 -->
<g id="v7_Hallway" class="node"><title>v7</title>
<ellipse fill="none" stroke="black" cx="562" cy="-11" rx="32.5" ry="11"/>
<text text-anchor="middle" x="562" y="-8.8" font-family="sans-serif" font-size="9.00">Hallway</text>
</g>
<!-- e9&#45;&gt;v7 -->
<g id="edge22" class="edge"><title>e9&#45;&gt;v7</title>
<path fill="none" stroke="green" d="M503,-184C503,-184 511.949,-158.465 519,-138 533.833,-94.9495 551.301,-43.542 558.564,-22.1329"/>
</g>
<!-- v1 -->
<g id="v1_Floor" class="node"><title>v1</title>
<ellipse fill="none" stroke="black" cx="455" cy="-185" rx="25" ry="11"/>
<text text-anchor="middle" x="455" y="-182.8" font-family="sans-serif" font-size="9.00">Floor</text>
</g>
<!-- v0&#45;&gt;v1 -->
<g id="edge2" class="edge"><title>v0&#45;&gt;v1</title>
<path fill="none" stroke="black" d="M407.103,-232.246C416.7,-222.98 431.187,-208.992 441.715,-198.827"/>
<polygon fill="black" stroke="black" points="445.398,-195.271 443.364,-200.362 443.6,-197.007 441.801,-198.744 441.801,-198.744 441.801,-198.744 443.6,-197.007 440.238,-197.125 445.398,-195.271 445.398,-195.271"/>
</g>
<!-- v0&#45;&gt;v6 -->
<g id="edge3" class="edge"><title>v0&#45;&gt;v6</title>
<path fill="none" stroke="black" d="M394.01,-231.8C384.629,-201.422 353.023,-110.407 297,-58 278.912,-41.0798 253.507,-29.5016 232.83,-22.1932"/>
<polygon fill="black" stroke="black" points="227.955,-20.5173 233.415,-20.0149 230.319,-21.33 232.683,-22.1427 232.683,-22.1427 232.683,-22.1427 230.319,-21.33 231.952,-24.2705 227.955,-20.5173 227.955,-20.5173"/>
</g>
<!-- v1&#45;&gt;v2 -->
<g id="edge4" class="edge"><title>v1&#45;&gt;v2</title>
<path fill="none" stroke="black" d="M455,-173.988C455,-165.494 455,-153.17 455,-143.417"/>
<polygon fill="black" stroke="black" points="455,-138.304 457.25,-143.304 455,-140.804 455,-143.304 455,-143.304 455,-143.304 455,-140.804 452.75,-143.304 455,-138.304 455,-138.304"/>
</g>
<!-- v1&#45;&gt;v7 -->
<g id="edge5" class="edge"><title>v1&#45;&gt;v7</title>
<path fill="none" stroke="black" d="M461.521,-174.183C467.656,-164.907 477.059,-150.576 485,-138 510.408,-97.7631 539.453,-49.631 553.503,-26.2084"/>
<polygon fill="black" stroke="black" points="556.107,-21.8631 555.466,-27.3085 554.822,-24.0074 553.537,-26.1518 553.537,-26.1518 553.537,-26.1518 554.822,-24.0074 551.607,-24.9951 556.107,-21.8631 556.107,-21.8631"/>
</g>
<!-- v3 -->
<g id="v3_Visitor" class="node"><title>v3</title>
<ellipse fill="none" stroke="black" cx="387" cy="-69" rx="32.5" ry="11"/>
<text text-anchor="middle" x="387" y="-66.8" font-family="sans-serif" font-size="9.00">Visitor</text>
</g>
<!-- v2&#45;&gt;v3 -->
<g id="edge6" class="edge"><title>v2&#45;&gt;v3</title>
<path fill="none" stroke="black" d="M444.375,-117.25C433.233,-108.074 415.6,-93.5532 402.821,-83.0291"/>
<polygon fill="black" stroke="black" points="398.69,-79.6267 403.98,-81.0685 400.619,-81.216 402.549,-82.8053 402.549,-82.8053 402.549,-82.8053 400.619,-81.216 401.119,-84.5422 398.69,-79.6267 398.69,-79.6267"/>
</g>
<!-- v2&#45;&gt;v5 -->
<g id="edge7" class="edge"><title>v2&#45;&gt;v5</title>
<path fill="none" stroke="black" d="M454.047,-115.829C452.743,-102.505 450.196,-78.4349 447,-58 445.381,-47.6501 443.114,-36.0771 441.261,-27.1284"/>
<polygon fill="black" stroke="black" points="440.225,-22.1919 443.454,-26.6234 440.739,-24.6387 441.252,-27.0854 441.252,-27.0854 441.252,-27.0854 440.739,-24.6387 439.05,-27.5474 440.225,-22.1919 440.225,-22.1919"/>
</g>
<!-- v3&#45;&gt;v4 -->
<g id="edge8" class="edge"><title>v3&#45;&gt;v4</title>
<path fill="none" stroke="black" d="M376.822,-58.5004C366.936,-49.2734 351.852,-35.1949 340.871,-24.9459"/>
<polygon fill="black" stroke="black" points="337.028,-21.3593 342.218,-23.1261 338.856,-23.0652 340.683,-24.771 340.683,-24.771 340.683,-24.771 338.856,-23.0652 339.148,-26.4159 337.028,-21.3593 337.028,-21.3593"/>
</g>
<!-- v6&#45;&gt;oalarm -->
<g id="edge10" class="edge"><title>v6&#45;&gt;oalarm</title>
<path fill="none" stroke="green" d="M157.727,-19.4285C106.131,-31.7233 22,-61.6389 22,-126 22,-186 22,-186 22,-186 22,-224.889 22,-271.373 22,-289.849"/>
</g>
<!-- v6&#45;&gt;oserv -->
<g id="edge12" class="edge"><title>v6&#45;&gt;oserv</title>
<path fill="none" stroke="green" d="M189.031,-22.007C174.688,-41.0603 146,-84.3707 146,-126 146,-186 146,-186 146,-186 146,-224.889 146,-271.373 146,-289.849"/>
</g>
<!-- v6&#45;&gt;osl2 -->
<g id="edge17" class="edge"><title>v6&#45;&gt;osl2</title>
<path fill="none" stroke="green" d="M197,-22.0648C197,-41.9341 197,-87.6042 197,-126 197,-186 197,-186 197,-186 197,-224.889 197,-271.373 197,-289.849"/>
</g>
<!-- v6&#45;&gt;osl3 -->
<g id="edge18" class="edge"><title>v6&#45;&gt;osl3</title>
<path fill="none" stroke="green" d="M204.5,-22.0817C218,-41.2595 245,-84.7689 245,-126 245,-186 245,-186 245,-186 245,-224.889 245,-271.373 245,-289.849"/>
</g>
<!-- v6&#45;&gt;ostation -->
<g id="edge19" class="edge"><title>v6&#45;&gt;ostation</title>
<path fill="none" stroke="green" d="M176.641,-21.3845C144.596,-37.7216 86,-74.6197 86,-126 86,-186 86,-186 86,-186 86,-224.889 86,-271.373 86,-289.849"/>
</g>
<!-- v7&#45;&gt;ocntrlRm -->
<g id="edge11" class="edge"><title>v7&#45;&gt;ocntrlRm</title>
<path fill="none" stroke="green" d="M564.804,-21.9716C570.089,-41.6776 581,-87.0745 581,-126 581,-186 581,-186 581,-186 581,-224.889 581,-271.373 581,-289.849"/>
</g>
<!-- v7&#45;&gt;oserverRm -->
<g id="edge13" class="edge"><title>v7&#45;&gt;oserverRm</title>
<path fill="none" stroke="green" d="M577.263,-20.7991C604.118,-37.5532 657,-76.7927 657,-126 657,-186 657,-186 657,-186 657,-224.889 657,-271.373 657,-289.849"/>
</g>
</g>
</svg>
