<?xml version="1.0" encoding="UTF-8" standalone="no"?>
<?xml-stylesheet href="style.css" type="text/css"?>
<!DOCTYPE svg PUBLIC "-//W3C//DTD SVG 1.1//EN"
 "http://www.w3.org/Graphics/SVG/1.1/DTD/svg11.dtd">
<!-- Generated by graphviz version 2.38.0 (20140413.2041)
 -->
<!-- Title: 0.svg Pages: 1 -->
<svg width="1379pt" height="374pt"
 viewBox="0.00 0.00 1378.50 374.00" xmlns="http://www.w3.org/2000/svg" xmlns:xlink="http://www.w3.org/1999/xlink">
<g id="graph0" class="graph" transform="scale(1 1) rotate(0) translate(4 370)">
<title>0.svg</title>
<polygon fill="white" stroke="none" points="-4,4 -4,-370 1374.5,-370 1374.5,4 -4,4"/>
<!-- r0 -->
<g id="node1" class="node"><title>r0</title>
<polygon fill="none" stroke="black" stroke-dasharray="5,2" points="560.5,-366 537.5,-366 537.5,-348 560.5,-348 560.5,-366"/>
<text text-anchor="middle" x="549" y="-354.8" font-family="serif" font-size="9.00">0</text>
</g>
<!-- v0 -->
<g id="v0_Building" class="node"><title>v0</title>
<ellipse fill="none" stroke="black" cx="549" cy="-301" rx="36" ry="11"/>
<text text-anchor="middle" x="549" y="-298.8" font-family="sans-serif" font-size="9.00">Building</text>
</g>
<!-- r0&#45;&gt;v0 -->
<g id="edge1" class="edge"><title>r0&#45;&gt;v0</title>
<path fill="none" stroke="black" d="M549,-347.562C549,-339.453 549,-327.014 549,-317.181"/>
<polygon fill="black" stroke="black" points="549,-312.03 551.25,-317.03 549,-314.53 549,-317.03 549,-317.03 549,-317.03 549,-314.53 546.75,-317.03 549,-312.03 549,-312.03"/>
</g>
<!-- r1 -->
<g id="node2" class="node"><title>r1</title>
<polygon fill="none" stroke="black" stroke-dasharray="5,2" points="1099.5,-366 1076.5,-366 1076.5,-348 1099.5,-348 1099.5,-366"/>
<text text-anchor="middle" x="1088" y="-354.8" font-family="serif" font-size="9.00">1</text>
</g>
<!-- v16 -->
<g id="v16_RulesKeywords" class="node"><title>v16</title>
<ellipse fill="none" stroke="black" cx="1088" cy="-69" rx="54" ry="11"/>
<text text-anchor="middle" x="1088" y="-66.8" font-family="sans-serif" font-size="9.00">RulesKeywords</text>
</g>
<!-- r1&#45;&gt;v16 -->
<g id="edge2" class="edge"><title>r1&#45;&gt;v16</title>
<path fill="none" stroke="black" d="M1088,-347.849C1088,-329.373 1088,-282.889 1088,-244 1088,-244 1088,-244 1088,-184 1088,-148.604 1088,-107.026 1088,-85.1783"/>
<polygon fill="black" stroke="black" points="1088,-80.0648 1090.25,-85.0648 1088,-82.5648 1088,-85.0648 1088,-85.0648 1088,-85.0648 1088,-82.5648 1085.75,-85.0648 1088,-80.0648 1088,-80.0648"/>
</g>
<!-- e9 -->
<g id="node3" class="node"><title>e9</title>
</g>
<!-- v13 -->
<g id="v13_Laptop" class="node"><title>v13</title>
<ellipse fill="none" stroke="black" cx="619" cy="-69" rx="29" ry="11"/>
<text text-anchor="middle" x="619" y="-66.8" font-family="sans-serif" font-size="9.00">Laptop</text>
</g>
<!-- e9&#45;&gt;v13 -->
<g id="edge32" class="edge"><title>e9&#45;&gt;v13</title>
<path fill="none" stroke="green" d="M619,-122.167C619,-113.586 619,-92.5957 619,-80.0117"/>
<polygon fill="green" stroke="green" points="622.5,-125.3 615.5,-125.3 615.5,-123.9 622.5,-123.9 622.5,-125.3"/>
<polyline fill="none" stroke="green" points="619,-126 619,-122.5 "/>
</g>
<!-- v1 -->
<g id="v1_Floor" class="node"><title>v1</title>
<ellipse fill="none" stroke="black" cx="393" cy="-243" rx="25" ry="11"/>
<text text-anchor="middle" x="393" y="-240.8" font-family="sans-serif" font-size="9.00">Floor</text>
</g>
<!-- v0&#45;&gt;v1 -->
<g id="edge3" class="edge"><title>v0&#45;&gt;v1</title>
<path fill="none" stroke="black" d="M527.309,-292.213C498.185,-281.759 446.634,-263.253 416.577,-252.464"/>
<polygon fill="black" stroke="black" points="411.585,-250.672 417.051,-250.243 413.938,-251.516 416.291,-252.361 416.291,-252.361 416.291,-252.361 413.938,-251.516 415.531,-254.479 411.585,-250.672 411.585,-250.672"/>
</g>
<!-- v15 -->
<g id="v15_InstallationBus" class="node"><title>v15</title>
<ellipse fill="none" stroke="black" cx="734" cy="-11" rx="61" ry="11"/>
<text text-anchor="middle" x="734" y="-8.8" font-family="sans-serif" font-size="9.00">InstallationBus</text>
</g>
<!-- v0&#45;&gt;v15 -->
<g id="edge4" class="edge"><title>v0&#45;&gt;v15</title>
<path fill="none" stroke="black" d="M575.817,-293.591C620.42,-281.153 705,-249.231 705,-186 705,-186 705,-186 705,-126 705,-89.5108 719.127,-48.4234 727.661,-26.9317"/>
<polygon fill="black" stroke="black" points="729.596,-22.1531 729.805,-27.632 728.657,-24.4704 727.719,-26.7877 727.719,-26.7877 727.719,-26.7877 728.657,-24.4704 725.634,-25.9434 729.596,-22.1531 729.596,-22.1531"/>
</g>
<!-- v2 -->
<g id="v2_Room" class="node"><title>v2</title>
<ellipse fill="none" stroke="black" cx="106" cy="-69" rx="21.5" ry="11"/>
<text text-anchor="middle" x="106" y="-66.8" font-family="sans-serif" font-size="9.00">Room</text>
</g>
<!-- v1&#45;&gt;v2 -->
<g id="edge5" class="edge"><title>v1&#45;&gt;v2</title>
<path fill="none" stroke="black" d="M379.157,-233.704C331.768,-205.304 176.078,-111.998 123.514,-80.4961"/>
<polygon fill="black" stroke="black" points="119.042,-77.8162 124.488,-78.4566 121.187,-79.1014 123.331,-80.3865 123.331,-80.3865 123.331,-80.3865 121.187,-79.1014 122.174,-82.3165 119.042,-77.8162 119.042,-77.8162"/>
</g>
<!-- v4 -->
<g id="v4_Room" class="node"><title>v4</title>
<ellipse fill="none" stroke="black" cx="261" cy="-69" rx="21.5" ry="11"/>
<text text-anchor="middle" x="261" y="-66.8" font-family="sans-serif" font-size="9.00">Room</text>
</g>
<!-- v1&#45;&gt;v4 -->
<g id="edge6" class="edge"><title>v1&#45;&gt;v4</title>
<path fill="none" stroke="black" d="M385.525,-232.26C363.29,-203.287 297.509,-117.572 271.63,-83.8512"/>
<polygon fill="black" stroke="black" points="268.393,-79.6335 273.222,-82.2302 269.915,-81.6167 271.437,-83.6 271.437,-83.6 271.437,-83.6 269.915,-81.6167 269.652,-84.9699 268.393,-79.6335 268.393,-79.6335"/>
</g>
<!-- v8 -->
<g id="v8_Room" class="node"><title>v8</title>
<ellipse fill="none" stroke="black" cx="410" cy="-69" rx="21.5" ry="11"/>
<text text-anchor="middle" x="410" y="-66.8" font-family="sans-serif" font-size="9.00">Room</text>
</g>
<!-- v1&#45;&gt;v8 -->
<g id="edge7" class="edge"><title>v1&#45;&gt;v8</title>
<path fill="none" stroke="black" d="M394.013,-231.756C396.876,-202.786 405.045,-120.136 408.465,-85.5335"/>
<polygon fill="black" stroke="black" points="408.971,-80.4081 410.719,-85.6052 408.725,-82.896 408.479,-85.3838 408.479,-85.3838 408.479,-85.3838 408.725,-82.896 406.24,-85.1625 408.971,-80.4081 408.971,-80.4081"/>
</g>
<!-- v11 -->
<g id="v11_Hallway" class="node"><title>v11</title>
<ellipse fill="none" stroke="black" cx="461" cy="-185" rx="32.5" ry="11"/>
<text text-anchor="middle" x="461" y="-182.8" font-family="sans-serif" font-size="9.00">Hallway</text>
</g>
<!-- v1&#45;&gt;v11 -->
<g id="edge8" class="edge"><title>v1&#45;&gt;v11</title>
<path fill="none" stroke="black" d="M403.925,-233.003C415.124,-223.78 432.645,-209.351 445.322,-198.911"/>
<polygon fill="black" stroke="black" points="449.419,-195.537 446.99,-200.453 447.489,-197.127 445.559,-198.716 445.559,-198.716 445.559,-198.716 447.489,-197.127 444.129,-196.979 449.419,-195.537 449.419,-195.537"/>
</g>
<!-- v3 -->
<g id="v3_SmartLight" class="node"><title>v3</title>
<ellipse fill="none" stroke="black" cx="43" cy="-11" rx="43" ry="11"/>
<text text-anchor="middle" x="43" y="-8.8" font-family="sans-serif" font-size="9.00">SmartLight</text>
</g>
<!-- v2&#45;&gt;v3 -->
<g id="edge9" class="edge"><title>v2&#45;&gt;v3</title>
<path fill="none" stroke="black" d="M95.878,-59.0026C85.628,-49.8915 69.6601,-35.6978 57.9518,-25.2905"/>
<polygon fill="black" stroke="black" points="54.1588,-21.919 59.3907,-23.5591 56.0274,-23.5799 57.8959,-25.2408 57.8959,-25.2408 57.8959,-25.2408 56.0274,-23.5799 56.4011,-26.9225 54.1588,-21.919 54.1588,-21.919"/>
</g>
<!-- v2&#45;&gt;v11 -->
<g id="edge23" class="edge"><title>v2&#45;&gt;v11</title>
<path fill="none" stroke="green" d="M123.44,-75.6004C182.268,-94.4918 373.37,-155.86 438.793,-176.869"/>
</g>
<!-- v3&#45;&gt;v15 -->
<g id="edge24" class="edge"><title>v3&#45;&gt;v15</title>
<path fill="none" stroke="green" d="M59.3593,-21.2415C71.2438,-28.0527 87.9859,-36.3871 104,-40 163.721,-53.4735 594.723,-50.714 655,-40 674.995,-36.446 696.567,-28.2018 712.109,-21.4084"/>
</g>
<!-- v5 -->
<g id="v5_SmartLight" class="node"><title>v5</title>
<ellipse fill="none" stroke="black" cx="147" cy="-11" rx="43" ry="11"/>
<text text-anchor="middle" x="147" y="-8.8" font-family="sans-serif" font-size="9.00">SmartLight</text>
</g>
<!-- v4&#45;&gt;v5 -->
<g id="edge10" class="edge"><title>v4&#45;&gt;v5</title>
<path fill="none" stroke="black" d="M246.096,-60.679C226.714,-51.1575 192.657,-34.428 169.961,-23.2793"/>
<polygon fill="black" stroke="black" points="165.3,-20.9896 170.78,-21.1747 167.544,-22.0919 169.788,-23.1942 169.788,-23.1942 169.788,-23.1942 167.544,-22.0919 168.796,-25.2137 165.3,-20.9896 165.3,-20.9896"/>
</g>
<!-- v6 -->
<g id="v6_HVAC" class="node"><title>v6</title>
<ellipse fill="none" stroke="black" cx="230" cy="-11" rx="21.5" ry="11"/>
<text text-anchor="middle" x="230" y="-8.8" font-family="sans-serif" font-size="9.00">HVAC</text>
</g>
<!-- v4&#45;&gt;v6 -->
<g id="edge11" class="edge"><title>v4&#45;&gt;v6</title>
<path fill="none" stroke="black" d="M255.6,-58.2455C250.77,-49.5202 243.622,-36.6082 238.106,-26.6435"/>
<polygon fill="black" stroke="black" points="235.547,-22.0198 239.937,-25.3045 236.757,-24.207 237.968,-26.3942 237.968,-26.3942 237.968,-26.3942 236.757,-24.207 236,-27.484 235.547,-22.0198 235.547,-22.0198"/>
</g>
<!-- v7 -->
<g id="v7_FireAlarm" class="node"><title>v7</title>
<ellipse fill="none" stroke="black" cx="309" cy="-11" rx="39.5" ry="11"/>
<text text-anchor="middle" x="309" y="-8.8" font-family="sans-serif" font-size="9.00">FireAlarm</text>
</g>
<!-- v4&#45;&gt;v7 -->
<g id="edge12" class="edge"><title>v4&#45;&gt;v7</title>
<path fill="none" stroke="black" d="M268.926,-58.7527C276.637,-49.7573 288.443,-35.9828 297.247,-25.7121"/>
<polygon fill="black" stroke="black" points="300.577,-21.8266 299.032,-27.0872 298.95,-23.7247 297.323,-25.6229 297.323,-25.6229 297.323,-25.6229 298.95,-23.7247 295.615,-24.1586 300.577,-21.8266 300.577,-21.8266"/>
</g>
<!-- v4&#45;&gt;v11 -->
<g id="edge25" class="edge"><title>v4&#45;&gt;v11</title>
<path fill="none" stroke="green" d="M281.53,-72.4396C324.558,-77.9655 422.11,-92.79 445,-116 460.329,-131.543 462.012,-158.847 461.66,-173.689"/>
</g>
<!-- v5&#45;&gt;v15 -->
<g id="edge26" class="edge"><title>v5&#45;&gt;v15</title>
<path fill="none" stroke="green" d="M163.359,-21.2415C175.244,-28.0527 191.986,-36.3871 208,-40 304.898,-61.8608 557.2,-57.3836 655,-40 674.995,-36.446 696.567,-28.2018 712.109,-21.4084"/>
</g>
<!-- v6&#45;&gt;v15 -->
<g id="edge27" class="edge"><title>v6&#45;&gt;v15</title>
<path fill="none" stroke="green" d="M239.547,-20.8905C246.87,-27.7237 257.626,-36.2346 269,-40 350.432,-66.9578 570.546,-55.0113 655,-40 674.995,-36.446 696.567,-28.2018 712.109,-21.4084"/>
</g>
<!-- v7&#45;&gt;v15 -->
<g id="edge28" class="edge"><title>v7&#45;&gt;v15</title>
<path fill="none" stroke="green" d="M324.485,-21.2364C335.752,-28.0452 351.66,-36.3788 367,-40 429.288,-54.7042 591.988,-51.2002 655,-40 674.995,-36.446 696.567,-28.2018 712.109,-21.4084"/>
</g>
<!-- v9 -->
<g id="v9_SmartLight" class="node"><title>v9</title>
<ellipse fill="none" stroke="black" cx="410" cy="-11" rx="43" ry="11"/>
<text text-anchor="middle" x="410" y="-8.8" font-family="sans-serif" font-size="9.00">SmartLight</text>
</g>
<!-- v8&#45;&gt;v9 -->
<g id="edge13" class="edge"><title>v8&#45;&gt;v9</title>
<path fill="none" stroke="black" d="M410,-57.9883C410,-49.4941 410,-37.1697 410,-27.4169"/>
<polygon fill="black" stroke="black" points="410,-22.3039 412.25,-27.3038 410,-24.8039 410,-27.3039 410,-27.3039 410,-27.3039 410,-24.8039 407.75,-27.3039 410,-22.3039 410,-22.3039"/>
</g>
<!-- v10 -->
<g id="v10_Workstation" class="node"><title>v10</title>
<ellipse fill="none" stroke="black" cx="518" cy="-11" rx="47" ry="11"/>
<text text-anchor="middle" x="518" y="-8.8" font-family="sans-serif" font-size="9.00">Workstation</text>
</g>
<!-- v8&#45;&gt;v10 -->
<g id="edge14" class="edge"><title>v8&#45;&gt;v10</title>
<path fill="none" stroke="black" d="M424.119,-60.679C442.192,-51.3076 473.732,-34.9536 495.222,-23.8106"/>
<polygon fill="black" stroke="black" points="499.916,-21.3771 496.513,-25.6762 497.696,-22.5279 495.477,-23.6787 495.477,-23.6787 495.477,-23.6787 497.696,-22.5279 494.441,-21.6813 499.916,-21.3771 499.916,-21.3771"/>
</g>
<!-- v8&#45;&gt;v11 -->
<g id="edge29" class="edge"><title>v8&#45;&gt;v11</title>
<path fill="none" stroke="green" d="M427.557,-75.4575C445.156,-81.9759 471.275,-94.753 483,-116 493.671,-135.337 478.867,-160.659 468.854,-174.294"/>
</g>
<!-- v9&#45;&gt;v15 -->
<g id="edge30" class="edge"><title>v9&#45;&gt;v15</title>
<path fill="none" stroke="green" d="M426.359,-21.2415C438.244,-28.0527 454.986,-36.3871 471,-40 550.773,-57.9972 574.484,-54.3113 655,-40 674.995,-36.446 696.567,-28.2018 712.109,-21.4084"/>
</g>
<!-- v10&#45;&gt;v15 -->
<g id="edge31" class="edge"><title>v10&#45;&gt;v15</title>
<path fill="none" stroke="green" d="M535.521,-21.2474C548.226,-28.0614 566.08,-36.3967 583,-40 614.298,-46.6653 623.494,-45.6001 655,-40 674.995,-36.446 696.567,-28.2018 712.109,-21.4084"/>
</g>
<!-- v12 -->
<g id="v12_Visitor" class="node"><title>v12</title>
<ellipse fill="none" stroke="black" cx="568" cy="-127" rx="32.5" ry="11"/>
<text text-anchor="middle" x="568" y="-124.8" font-family="sans-serif" font-size="9.00">Visitor</text>
</g>
<!-- v11&#45;&gt;v12 -->
<g id="edge15" class="edge"><title>v11&#45;&gt;v12</title>
<path fill="none" stroke="black" d="M477.719,-175.25C496.329,-165.51 526.446,-149.748 546.723,-139.136"/>
<polygon fill="black" stroke="black" points="551.399,-136.689 548.012,-141.001 549.184,-137.848 546.969,-139.007 546.969,-139.007 546.969,-139.007 549.184,-137.848 545.925,-137.014 551.399,-136.689 551.399,-136.689"/>
</g>
<!-- v12&#45;&gt;v13 -->
<g id="edge16" class="edge"><title>v12&#45;&gt;v13</title>
<path fill="none" stroke="black" d="M576.884,-116.246C585.147,-107.172 597.535,-93.5697 606.738,-83.4636"/>
<polygon fill="black" stroke="black" points="610.218,-79.6427 608.515,-84.8544 608.535,-81.491 606.852,-83.3394 606.852,-83.3394 606.852,-83.3394 608.535,-81.491 605.188,-81.8244 610.218,-79.6427 610.218,-79.6427"/>
</g>
<!-- v14 -->
<g id="v14_Software" class="node"><title>v14</title>
<ellipse fill="none" stroke="black" cx="619" cy="-11" rx="36" ry="11"/>
<text text-anchor="middle" x="619" y="-8.8" font-family="sans-serif" font-size="9.00">Software</text>
</g>
<!-- v13&#45;&gt;v14 -->
<g id="edge17" class="edge"><title>v13&#45;&gt;v14</title>
<path fill="none" stroke="black" d="M619,-57.9883C619,-49.4941 619,-37.1697 619,-27.4169"/>
<polygon fill="black" stroke="black" points="619,-22.3039 621.25,-27.3038 619,-24.8039 619,-27.3039 619,-27.3039 619,-27.3039 619,-24.8039 616.75,-27.3039 619,-22.3039 619,-22.3039"/>
</g>
<!-- v17 -->
<g id="v17_EnterRoom" class="node"><title>v17</title>
<ellipse fill="none" stroke="black" cx="853" cy="-11" rx="39.5" ry="11"/>
<text text-anchor="middle" x="853" y="-8.8" font-family="sans-serif" font-size="9.00">EnterRoom</text>
</g>
<!-- v16&#45;&gt;v17 -->
<g id="edge18" class="edge"><title>v16&#45;&gt;v17</title>
<path fill="none" stroke="black" d="M1055.32,-60.2134C1010.76,-49.5932 931.329,-30.6655 886.392,-19.9572"/>
<polygon fill="black" stroke="black" points="881.354,-18.7566 886.739,-17.727 883.786,-19.3362 886.218,-19.9158 886.218,-19.9158 886.218,-19.9158 883.786,-19.3362 885.696,-22.1045 881.354,-18.7566 881.354,-18.7566"/>
</g>
<!-- v18 -->
<g id="v18_ConnectDevice" class="node"><title>v18</title>
<ellipse fill="none" stroke="black" cx="965" cy="-11" rx="54" ry="11"/>
<text text-anchor="middle" x="965" y="-8.8" font-family="sans-serif" font-size="9.00">ConnectDevice</text>
</g>
<!-- v16&#45;&gt;v18 -->
<g id="edge19" class="edge"><title>v16&#45;&gt;v18</title>
<path fill="none" stroke="black" d="M1067.69,-58.7527C1046.41,-49.0659 1012.96,-33.837 990.06,-23.4095"/>
<polygon fill="black" stroke="black" points="985.341,-21.261 990.824,-21.2851 987.616,-22.2969 989.892,-23.3329 989.892,-23.3329 989.892,-23.3329 987.616,-22.2969 988.959,-25.3806 985.341,-21.261 985.341,-21.261"/>
</g>
<!-- v19 -->
<g id="v19_GenerateData" class="node"><title>v19</title>
<ellipse fill="none" stroke="black" cx="1088" cy="-11" rx="50.5" ry="11"/>
<text text-anchor="middle" x="1088" y="-8.8" font-family="sans-serif" font-size="9.00">GenerateData</text>
</g>
<!-- v16&#45;&gt;v19 -->
<g id="edge20" class="edge"><title>v16&#45;&gt;v19</title>
<path fill="none" stroke="black" d="M1088,-57.9883C1088,-49.4941 1088,-37.1697 1088,-27.4169"/>
<polygon fill="black" stroke="black" points="1088,-22.3039 1090.25,-27.3038 1088,-24.8039 1088,-27.3039 1088,-27.3039 1088,-27.3039 1088,-24.8039 1085.75,-27.3039 1088,-22.3039 1088,-22.3039"/>
</g>
<!-- v20 -->
<g id="v20_CollectData" class="node"><title>v20</title>
<ellipse fill="none" stroke="black" cx="1204" cy="-11" rx="47" ry="11"/>
<text text-anchor="middle" x="1204" y="-8.8" font-family="sans-serif" font-size="9.00">CollectData</text>
</g>
<!-- v16&#45;&gt;v20 -->
<g id="edge21" class="edge"><title>v16&#45;&gt;v20</title>
<path fill="none" stroke="black" d="M1107.42,-58.6269C1127.44,-48.9585 1158.7,-33.8675 1180.2,-23.4873"/>
<polygon fill="black" stroke="black" points="1184.91,-21.2174 1181.38,-25.4174 1182.66,-22.3043 1180.4,-23.3912 1180.4,-23.3912 1180.4,-23.3912 1182.66,-22.3043 1179.43,-21.3649 1184.91,-21.2174 1184.91,-21.2174"/>
</g>
<!-- v21 -->
<g id="v21_SendSoftware" class="node"><title>v21</title>
<ellipse fill="none" stroke="black" cx="1320" cy="-11" rx="50.5" ry="11"/>
<text text-anchor="middle" x="1320" y="-8.8" font-family="sans-serif" font-size="9.00">SendSoftware</text>
</g>
<!-- v16&#45;&gt;v21 -->
<g id="edge22" class="edge"><title>v16&#45;&gt;v21</title>
<path fill="none" stroke="black" d="M1120.75,-60.0953C1163.56,-49.7605 1238.36,-31.7058 1283.13,-20.9008"/>
<polygon fill="black" stroke="black" points="1288.16,-19.6847 1283.83,-23.0452 1285.73,-20.2713 1283.3,-20.858 1283.3,-20.858 1283.3,-20.858 1285.73,-20.2713 1282.78,-18.6708 1288.16,-19.6847 1288.16,-19.6847"/>
</g>
</g>
</svg>
