<?xml version="1.0" encoding="UTF-8" standalone="no"?>
<?xml-stylesheet href="style.css" type="text/css"?>
<!DOCTYPE svg PUBLIC "-//W3C//DTD SVG 1.1//EN"
 "http://www.w3.org/Graphics/SVG/1.1/DTD/svg11.dtd">
<!-- Generated by graphviz version 2.38.0 (20140413.2041)
 -->
<!-- Title: 0.svg Pages: 1 -->
<svg width="991pt" height="316pt"
 viewBox="0.00 0.00 991.00 316.00" xmlns="http://www.w3.org/2000/svg" xmlns:xlink="http://www.w3.org/1999/xlink">
<g id="graph0" class="graph" transform="scale(1 1) rotate(0) translate(4 312)">
<title>0.svg</title>
<polygon fill="white" stroke="none" points="-4,4 -4,-312 987,-312 987,4 -4,4"/>
<!-- r0 -->
<g id="node1" class="node"><title>r0</title>
<polygon fill="none" stroke="black" stroke-dasharray="5,2" points="590.5,-308 567.5,-308 567.5,-290 590.5,-290 590.5,-308"/>
<text text-anchor="middle" x="579" y="-296.8" font-family="serif" font-size="9.00">0</text>
</g>
<!-- v0 -->
<g id="v0_Building" class="node"><title>v0</title>
<ellipse fill="none" stroke="black" cx="579" cy="-243" rx="36" ry="11"/>
<text text-anchor="middle" x="579" y="-240.8" font-family="sans-serif" font-size="9.00">Building</text>
</g>
<!-- r0&#45;&gt;v0 -->
<g id="edge1" class="edge"><title>r0&#45;&gt;v0</title>
<path fill="none" stroke="black" d="M579,-289.562C579,-281.453 579,-269.014 579,-259.181"/>
<polygon fill="black" stroke="black" points="579,-254.03 581.25,-259.03 579,-256.53 579,-259.03 579,-259.03 579,-259.03 579,-256.53 576.75,-259.03 579,-254.03 579,-254.03"/>
</g>
<!-- r1 -->
<g id="node2" class="node"><title>r1</title>
<polygon fill="none" stroke="black" stroke-dasharray="5,2" points="911.5,-308 888.5,-308 888.5,-290 911.5,-290 911.5,-308"/>
<text text-anchor="middle" x="900" y="-296.8" font-family="serif" font-size="9.00">1</text>
</g>
<!-- v15 -->
<g id="v15_RulesKeywords" class="node"><title>v15</title>
<ellipse fill="none" stroke="black" cx="900" cy="-69" rx="54" ry="11"/>
<text text-anchor="middle" x="900" y="-66.8" font-family="sans-serif" font-size="9.00">RulesKeywords</text>
</g>
<!-- r1&#45;&gt;v15 -->
<g id="edge2" class="edge"><title>r1&#45;&gt;v15</title>
<path fill="none" stroke="black" d="M900,-289.885C900,-256.489 900,-129.348 900,-85.206"/>
<polygon fill="black" stroke="black" points="900,-80.0114 902.25,-85.0113 900,-82.5114 900,-85.0114 900,-85.0114 900,-85.0114 900,-82.5114 897.75,-85.0114 900,-80.0114 900,-80.0114"/>
</g>
<!-- e9 -->
<g id="node3" class="node"><title>e9</title>
</g>
<!-- v13 -->
<g id="v13_Laptop" class="node"><title>v13</title>
<ellipse fill="none" stroke="black" cx="626" cy="-11" rx="29" ry="11"/>
<text text-anchor="middle" x="626" y="-8.8" font-family="sans-serif" font-size="9.00">Laptop</text>
</g>
<!-- e9&#45;&gt;v13 -->
<g id="edge28" class="edge"><title>e9&#45;&gt;v13</title>
<path fill="none" stroke="green" d="M626,-64.1674C626,-55.5862 626,-34.5957 626,-22.0117"/>
<polygon fill="green" stroke="green" points="629.5,-67.3001 622.5,-67.2999 622.5,-65.8999 629.5,-65.9001 629.5,-67.3001"/>
<polyline fill="none" stroke="green" points="626,-68 626,-64.5 "/>
</g>
<!-- v1 -->
<g id="v1_Floor" class="node"><title>v1</title>
<ellipse fill="none" stroke="black" cx="463" cy="-185" rx="25" ry="11"/>
<text text-anchor="middle" x="463" y="-182.8" font-family="sans-serif" font-size="9.00">Floor</text>
</g>
<!-- v0&#45;&gt;v1 -->
<g id="edge3" class="edge"><title>v0&#45;&gt;v1</title>
<path fill="none" stroke="black" d="M561.129,-233.373C540.213,-223.275 505.642,-206.586 483.612,-195.95"/>
<polygon fill="black" stroke="black" points="478.84,-193.647 484.321,-193.794 481.091,-194.734 483.342,-195.821 483.342,-195.821 483.342,-195.821 481.091,-194.734 482.364,-197.847 478.84,-193.647 478.84,-193.647"/>
</g>
<!-- v14 -->
<g id="v14_InstallationBus" class="node"><title>v14</title>
<ellipse fill="none" stroke="black" cx="734" cy="-11" rx="61" ry="11"/>
<text text-anchor="middle" x="734" y="-8.8" font-family="sans-serif" font-size="9.00">InstallationBus</text>
</g>
<!-- v0&#45;&gt;v14 -->
<g id="edge4" class="edge"><title>v0&#45;&gt;v14</title>
<path fill="none" stroke="black" d="M585.66,-232.117C610.148,-195.781 695.272,-69.4677 724.252,-26.4655"/>
<polygon fill="black" stroke="black" points="727.19,-22.105 726.262,-27.5088 725.793,-24.1782 724.396,-26.2514 724.396,-26.2514 724.396,-26.2514 725.793,-24.1782 722.53,-24.9939 727.19,-22.105 727.19,-22.105"/>
</g>
<!-- v2 -->
<g id="v2_Room" class="node"><title>v2</title>
<ellipse fill="none" stroke="black" cx="110" cy="-69" rx="21.5" ry="11"/>
<text text-anchor="middle" x="110" y="-66.8" font-family="sans-serif" font-size="9.00">Room</text>
</g>
<!-- v1&#45;&gt;v2 -->
<g id="edge5" class="edge"><title>v1&#45;&gt;v2</title>
<path fill="none" stroke="black" d="M443.771,-177.79C383.195,-158.227 196.543,-97.9486 132.128,-77.1463"/>
<polygon fill="black" stroke="black" points="127.347,-75.6023 132.797,-74.9978 129.726,-76.3706 132.105,-77.1389 132.105,-77.1389 132.105,-77.1389 129.726,-76.3706 131.414,-79.28 127.347,-75.6023 127.347,-75.6023"/>
</g>
<!-- v4 -->
<g id="v4_Room" class="node"><title>v4</title>
<ellipse fill="none" stroke="black" cx="280" cy="-69" rx="21.5" ry="11"/>
<text text-anchor="middle" x="280" y="-66.8" font-family="sans-serif" font-size="9.00">Room</text>
</g>
<!-- v1&#45;&gt;v4 -->
<g id="edge6" class="edge"><title>v1&#45;&gt;v4</title>
<path fill="none" stroke="black" d="M449.544,-175.617C416.997,-155.343 334.028,-103.657 297.601,-80.9644"/>
<polygon fill="black" stroke="black" points="292.984,-78.0887 298.418,-78.8227 295.106,-79.4106 297.228,-80.7325 297.228,-80.7325 297.228,-80.7325 295.106,-79.4106 296.039,-82.6422 292.984,-78.0887 292.984,-78.0887"/>
</g>
<!-- v8 -->
<g id="v8_Room" class="node"><title>v8</title>
<ellipse fill="none" stroke="black" cx="463" cy="-69" rx="21.5" ry="11"/>
<text text-anchor="middle" x="463" y="-66.8" font-family="sans-serif" font-size="9.00">Room</text>
</g>
<!-- v1&#45;&gt;v8 -->
<g id="edge7" class="edge"><title>v1&#45;&gt;v8</title>
<path fill="none" stroke="black" d="M463,-173.883C463,-153.906 463,-109.276 463,-85.5402"/>
<polygon fill="black" stroke="black" points="463,-80.2579 465.25,-85.2579 463,-82.7579 463,-85.2579 463,-85.2579 463,-85.2579 463,-82.7579 460.75,-85.258 463,-80.2579 463,-80.2579"/>
</g>
<!-- v11 -->
<g id="v11_Hallway" class="node"><title>v11</title>
<ellipse fill="none" stroke="black" cx="539" cy="-127" rx="32.5" ry="11"/>
<text text-anchor="middle" x="539" y="-124.8" font-family="sans-serif" font-size="9.00">Hallway</text>
</g>
<!-- v1&#45;&gt;v11 -->
<g id="edge8" class="edge"><title>v1&#45;&gt;v11</title>
<path fill="none" stroke="black" d="M474.875,-175.25C487.587,-165.883 507.86,-150.945 522.204,-140.376"/>
<polygon fill="black" stroke="black" points="526.45,-137.247 523.76,-142.025 524.437,-138.73 522.425,-140.213 522.425,-140.213 522.425,-140.213 524.437,-138.73 521.09,-138.402 526.45,-137.247 526.45,-137.247"/>
</g>
<!-- v3 -->
<g id="v3_SmartLight" class="node"><title>v3</title>
<ellipse fill="none" stroke="black" cx="43" cy="-11" rx="43" ry="11"/>
<text text-anchor="middle" x="43" y="-8.8" font-family="sans-serif" font-size="9.00">SmartLight</text>
</g>
<!-- v2&#45;&gt;v3 -->
<g id="edge9" class="edge"><title>v2&#45;&gt;v3</title>
<path fill="none" stroke="black" d="M99.5312,-59.25C88.5532,-50.0744 71.1797,-35.5532 58.5883,-25.0291"/>
<polygon fill="black" stroke="black" points="54.5177,-21.6267 59.7971,-23.1069 56.4359,-23.23 58.3541,-24.8333 58.3541,-24.8333 58.3541,-24.8333 56.4359,-23.23 56.9112,-26.5597 54.5177,-21.6267 54.5177,-21.6267"/>
</g>
<!-- v2&#45;&gt;v11 -->
<g id="edge19" class="edge"><title>v2&#45;&gt;v11</title>
<path fill="none" stroke="green" d="M130.707,-72.7031C200.594,-81.8258 427.923,-111.5 509.513,-122.151"/>
</g>
<!-- v3&#45;&gt;v14 -->
<g id="edge20" class="edge"><title>v3&#45;&gt;v14</title>
<path fill="none" stroke="green" d="M59.3593,-21.2415C71.2438,-28.0527 87.9859,-36.3871 104,-40 163.721,-53.4735 594.723,-50.714 655,-40 674.995,-36.446 696.567,-28.2018 712.109,-21.4084"/>
</g>
<!-- v5 -->
<g id="v5_SmartLight" class="node"><title>v5</title>
<ellipse fill="none" stroke="black" cx="147" cy="-11" rx="43" ry="11"/>
<text text-anchor="middle" x="147" y="-8.8" font-family="sans-serif" font-size="9.00">SmartLight</text>
</g>
<!-- v4&#45;&gt;v5 -->
<g id="edge10" class="edge"><title>v4&#45;&gt;v5</title>
<path fill="none" stroke="black" d="M264.221,-61.3562C241.678,-51.8646 199.991,-34.312 172.888,-22.9004"/>
<polygon fill="black" stroke="black" points="168.005,-20.8444 173.487,-20.7111 170.31,-21.8146 172.614,-22.7847 172.614,-22.7847 172.614,-22.7847 170.31,-21.8146 171.74,-24.8584 168.005,-20.8444 168.005,-20.8444"/>
</g>
<!-- v6 -->
<g id="v6_Server" class="node"><title>v6</title>
<ellipse fill="none" stroke="black" cx="237" cy="-11" rx="29" ry="11"/>
<text text-anchor="middle" x="237" y="-8.8" font-family="sans-serif" font-size="9.00">Server</text>
</g>
<!-- v4&#45;&gt;v6 -->
<g id="edge11" class="edge"><title>v4&#45;&gt;v6</title>
<path fill="none" stroke="black" d="M272.706,-58.5004C265.829,-49.5445 255.442,-36.018 247.642,-25.859"/>
<polygon fill="black" stroke="black" points="244.475,-21.7345 249.304,-24.3299 245.997,-23.7173 247.52,-25.7002 247.52,-25.7002 247.52,-25.7002 245.997,-23.7173 245.735,-27.0706 244.475,-21.7345 244.475,-21.7345"/>
</g>
<!-- v7 -->
<g id="v7_FireAlarm" class="node"><title>v7</title>
<ellipse fill="none" stroke="black" cx="323" cy="-11" rx="39.5" ry="11"/>
<text text-anchor="middle" x="323" y="-8.8" font-family="sans-serif" font-size="9.00">FireAlarm</text>
</g>
<!-- v4&#45;&gt;v7 -->
<g id="edge12" class="edge"><title>v4&#45;&gt;v7</title>
<path fill="none" stroke="black" d="M287.294,-58.5004C294.087,-49.6537 304.305,-36.3472 312.072,-26.2321"/>
<polygon fill="black" stroke="black" points="315.233,-22.1148 313.973,-27.4509 313.711,-24.0977 312.188,-26.0806 312.188,-26.0806 312.188,-26.0806 313.711,-24.0977 310.403,-24.7103 315.233,-22.1148 315.233,-22.1148"/>
</g>
<!-- v4&#45;&gt;v11 -->
<g id="edge21" class="edge"><title>v4&#45;&gt;v11</title>
<path fill="none" stroke="green" d="M299.083,-74.126C344.774,-84.0051 460.527,-109.033 512.74,-120.322"/>
</g>
<!-- v5&#45;&gt;v14 -->
<g id="edge22" class="edge"><title>v5&#45;&gt;v14</title>
<path fill="none" stroke="green" d="M163.359,-21.2415C175.244,-28.0527 191.986,-36.3871 208,-40 304.898,-61.8608 557.2,-57.3836 655,-40 674.995,-36.446 696.567,-28.2018 712.109,-21.4084"/>
</g>
<!-- v6&#45;&gt;v14 -->
<g id="edge23" class="edge"><title>v6&#45;&gt;v14</title>
<path fill="none" stroke="green" d="M248.954,-21.2073C257.735,-28.0024 270.302,-36.3316 283,-40 362.419,-62.9446 573.609,-54.4669 655,-40 674.995,-36.446 696.567,-28.2018 712.109,-21.4084"/>
</g>
<!-- v7&#45;&gt;v14 -->
<g id="edge24" class="edge"><title>v7&#45;&gt;v14</title>
<path fill="none" stroke="green" d="M338.485,-21.2364C349.752,-28.0452 365.66,-36.3788 381,-40 440.26,-53.9894 595.051,-50.6557 655,-40 674.995,-36.446 696.567,-28.2018 712.109,-21.4084"/>
</g>
<!-- v9 -->
<g id="v9_SmartLight" class="node"><title>v9</title>
<ellipse fill="none" stroke="black" cx="424" cy="-11" rx="43" ry="11"/>
<text text-anchor="middle" x="424" y="-8.8" font-family="sans-serif" font-size="9.00">SmartLight</text>
</g>
<!-- v8&#45;&gt;v9 -->
<g id="edge13" class="edge"><title>v8&#45;&gt;v9</title>
<path fill="none" stroke="black" d="M456.384,-58.5004C450.223,-49.6537 440.956,-36.3472 433.912,-26.2321"/>
<polygon fill="black" stroke="black" points="431.044,-22.1148 435.748,-24.932 432.473,-24.1664 433.902,-26.2179 433.902,-26.2179 433.902,-26.2179 432.473,-24.1664 432.055,-27.5038 431.044,-22.1148 431.044,-22.1148"/>
</g>
<!-- v10 -->
<g id="v10_Workstation" class="node"><title>v10</title>
<ellipse fill="none" stroke="black" cx="532" cy="-11" rx="47" ry="11"/>
<text text-anchor="middle" x="532" y="-8.8" font-family="sans-serif" font-size="9.00">Workstation</text>
</g>
<!-- v8&#45;&gt;v10 -->
<g id="edge14" class="edge"><title>v8&#45;&gt;v10</title>
<path fill="none" stroke="black" d="M473.781,-59.25C484.951,-50.1849 502.549,-35.9023 515.476,-25.4112"/>
<polygon fill="black" stroke="black" points="519.664,-22.0117 517.2,-26.9096 517.723,-23.5871 515.782,-25.1626 515.782,-25.1626 515.782,-25.1626 517.723,-23.5871 514.364,-23.4155 519.664,-22.0117 519.664,-22.0117"/>
</g>
<!-- v8&#45;&gt;v11 -->
<g id="edge25" class="edge"><title>v8&#45;&gt;v11</title>
<path fill="none" stroke="green" d="M474.818,-78.7077C488.839,-89.0392 512.116,-106.19 526.45,-116.753"/>
</g>
<!-- v9&#45;&gt;v14 -->
<g id="edge26" class="edge"><title>v9&#45;&gt;v14</title>
<path fill="none" stroke="green" d="M440.359,-21.2415C452.244,-28.0527 468.986,-36.3871 485,-40 558.703,-56.6279 580.61,-53.2224 655,-40 674.995,-36.446 696.567,-28.2018 712.109,-21.4084"/>
</g>
<!-- v10&#45;&gt;v14 -->
<g id="edge27" class="edge"><title>v10&#45;&gt;v14</title>
<path fill="none" stroke="green" d="M549.521,-21.2474C562.226,-28.0614 580.08,-36.3967 597,-40 622.212,-45.3692 629.62,-44.5112 655,-40 674.995,-36.446 696.567,-28.2018 712.109,-21.4084"/>
</g>
<!-- v12 -->
<g id="v12_Visitor" class="node"><title>v12</title>
<ellipse fill="none" stroke="black" cx="555" cy="-69" rx="32.5" ry="11"/>
<text text-anchor="middle" x="555" y="-66.8" font-family="sans-serif" font-size="9.00">Visitor</text>
</g>
<!-- v11&#45;&gt;v12 -->
<g id="edge15" class="edge"><title>v11&#45;&gt;v12</title>
<path fill="none" stroke="black" d="M541.86,-115.988C544.31,-107.415 547.874,-94.9411 550.672,-85.1466"/>
<polygon fill="black" stroke="black" points="552.056,-80.3039 552.846,-85.7297 551.369,-82.7077 550.682,-85.1115 550.682,-85.1115 550.682,-85.1115 551.369,-82.7077 548.519,-84.4933 552.056,-80.3039 552.056,-80.3039"/>
</g>
<!-- v12&#45;&gt;v13 -->
<g id="edge16" class="edge"><title>v12&#45;&gt;v13</title>
<path fill="none" stroke="black" d="M567.044,-58.5004C578.845,-49.1924 596.906,-34.9475 609.927,-24.6771"/>
<polygon fill="black" stroke="black" points="614.134,-21.3593 611.601,-26.2224 612.171,-22.9076 610.208,-24.4558 610.208,-24.4558 610.208,-24.4558 612.171,-22.9076 608.814,-22.6892 614.134,-21.3593 614.134,-21.3593"/>
</g>
<!-- v16 -->
<g id="v16_EnterRoom" class="node"><title>v16</title>
<ellipse fill="none" stroke="black" cx="853" cy="-11" rx="39.5" ry="11"/>
<text text-anchor="middle" x="853" y="-8.8" font-family="sans-serif" font-size="9.00">EnterRoom</text>
</g>
<!-- v15&#45;&gt;v16 -->
<g id="edge17" class="edge"><title>v15&#45;&gt;v16</title>
<path fill="none" stroke="black" d="M891.597,-57.9883C884.112,-49.0694 873.082,-35.9276 864.728,-25.974"/>
<polygon fill="black" stroke="black" points="861.33,-21.925 866.268,-24.3084 862.937,-23.8399 864.544,-25.7549 864.544,-25.7549 864.544,-25.7549 862.937,-23.8399 862.821,-27.2014 861.33,-21.925 861.33,-21.925"/>
</g>
<!-- v17 -->
<g id="v17_ExitRoom" class="node"><title>v17</title>
<ellipse fill="none" stroke="black" cx="947" cy="-11" rx="36" ry="11"/>
<text text-anchor="middle" x="947" y="-8.8" font-family="sans-serif" font-size="9.00">ExitRoom</text>
</g>
<!-- v15&#45;&gt;v17 -->
<g id="edge18" class="edge"><title>v15&#45;&gt;v17</title>
<path fill="none" stroke="black" d="M908.403,-57.9883C915.888,-49.0694 926.918,-35.9276 935.272,-25.974"/>
<polygon fill="black" stroke="black" points="938.67,-21.925 937.179,-27.2014 937.063,-23.8399 935.456,-25.7549 935.456,-25.7549 935.456,-25.7549 937.063,-23.8399 933.732,-24.3084 938.67,-21.925 938.67,-21.925"/>
</g>
</g>
</svg>
