<?xml version="1.0" encoding="UTF-8" standalone="no"?>
<?xml-stylesheet href="style.css" type="text/css"?>
<!DOCTYPE svg PUBLIC "-//W3C//DTD SVG 1.1//EN"
 "http://www.w3.org/Graphics/SVG/1.1/DTD/svg11.dtd">
<!-- Generated by graphviz version 2.38.0 (20140413.2041)
 -->
<!-- Title: 10.svg Pages: 1 -->
<svg width="1109pt" height="316pt"
 viewBox="0.00 0.00 1108.50 316.00" xmlns="http://www.w3.org/2000/svg" xmlns:xlink="http://www.w3.org/1999/xlink">
<g id="graph0" class="graph" transform="scale(1 1) rotate(0) translate(4 312)">
<title>10.svg</title>
<polygon fill="white" stroke="none" points="-4,4 -4,-312 1104.5,-312 1104.5,4 -4,4"/>
<!-- r0 -->
<g id="node1" class="node"><title>r0</title>
<polygon fill="none" stroke="black" stroke-dasharray="5,2" points="611,-308 588,-308 588,-290 611,-290 611,-308"/>
<text text-anchor="middle" x="599.5" y="-296.8" font-family="serif" font-size="9.00">0</text>
</g>
<!-- v0 -->
<g id="v0_Building" class="node"><title>v0</title>
<ellipse fill="none" stroke="black" cx="599.5" cy="-243" rx="36" ry="11"/>
<text text-anchor="middle" x="599.5" y="-240.8" font-family="sans-serif" font-size="9.00">Building</text>
</g>
<!-- r0&#45;&gt;v0 -->
<g id="edge1" class="edge"><title>r0&#45;&gt;v0</title>
<path fill="none" stroke="black" d="M599.5,-289.562C599.5,-281.453 599.5,-269.014 599.5,-259.181"/>
<polygon fill="black" stroke="black" points="599.5,-254.03 601.75,-259.03 599.5,-256.53 599.5,-259.03 599.5,-259.03 599.5,-259.03 599.5,-256.53 597.25,-259.03 599.5,-254.03 599.5,-254.03"/>
</g>
<!-- r1 -->
<g id="node2" class="node"><title>r1</title>
<polygon fill="none" stroke="black" stroke-dasharray="5,2" points="1031,-308 1008,-308 1008,-290 1031,-290 1031,-308"/>
<text text-anchor="middle" x="1019.5" y="-296.8" font-family="serif" font-size="9.00">1</text>
</g>
<!-- v8 -->
<g id="v8_RulesKeywords" class="node"><title>v8</title>
<ellipse fill="none" stroke="black" cx="1019.5" cy="-69" rx="54" ry="11"/>
<text text-anchor="middle" x="1019.5" y="-66.8" font-family="sans-serif" font-size="9.00">RulesKeywords</text>
</g>
<!-- r1&#45;&gt;v8 -->
<g id="edge2" class="edge"><title>r1&#45;&gt;v8</title>
<path fill="none" stroke="black" d="M1019.5,-289.885C1019.5,-256.489 1019.5,-129.348 1019.5,-85.206"/>
<polygon fill="black" stroke="black" points="1019.5,-80.0114 1021.75,-85.0113 1019.5,-82.5114 1019.5,-85.0114 1019.5,-85.0114 1019.5,-85.0114 1019.5,-82.5114 1017.25,-85.0114 1019.5,-80.0114 1019.5,-80.0114"/>
</g>
<!-- e2 -->
<g id="node3" class="node"><title>e2</title>
</g>
<!-- v5 -->
<g id="v5_SmartLight" class="node"><title>v5</title>
<ellipse fill="none" stroke="black" cx="160.5" cy="-11" rx="43" ry="11"/>
<text text-anchor="middle" x="160.5" y="-8.8" font-family="sans-serif" font-size="9.00">SmartLight</text>
</g>
<!-- e2&#45;&gt;v5 -->
<g id="edge21" class="edge"><title>e2&#45;&gt;v5</title>
<path fill="none" stroke="green" d="M160.5,-64.1674C160.5,-55.5862 160.5,-34.5957 160.5,-22.0117"/>
<polygon fill="green" stroke="green" points="164,-67.3001 157,-67.2999 157,-65.8999 164,-65.9001 164,-67.3001"/>
<polyline fill="none" stroke="green" points="160.5,-68 160.5,-64.5 "/>
</g>
<!-- v1 -->
<g id="v1_Floor" class="node"><title>v1</title>
<ellipse fill="none" stroke="black" cx="460.5" cy="-185" rx="25" ry="11"/>
<text text-anchor="middle" x="460.5" y="-182.8" font-family="sans-serif" font-size="9.00">Floor</text>
</g>
<!-- v0&#45;&gt;v1 -->
<g id="edge3" class="edge"><title>v0&#45;&gt;v1</title>
<path fill="none" stroke="black" d="M579.288,-233.857C553.628,-223.519 509.501,-205.741 482.858,-195.007"/>
<polygon fill="black" stroke="black" points="478.095,-193.088 483.573,-192.87 480.413,-194.023 482.732,-194.957 482.732,-194.957 482.732,-194.957 480.413,-194.023 481.891,-197.044 478.095,-193.088 478.095,-193.088"/>
</g>
<!-- v6 -->
<g id="v6_InstallationBus" class="node"><title>v6</title>
<ellipse fill="none" stroke="black" cx="859.5" cy="-11" rx="61" ry="11"/>
<text text-anchor="middle" x="859.5" y="-8.8" font-family="sans-serif" font-size="9.00">InstallationBus</text>
</g>
<!-- v0&#45;&gt;v6 -->
<g id="edge4" class="edge"><title>v0&#45;&gt;v6</title>
<path fill="none" stroke="black" d="M610.341,-232.41C651.378,-196.108 797.262,-67.057 844.571,-25.2068"/>
<polygon fill="black" stroke="black" points="848.322,-21.888 846.068,-26.8862 846.45,-23.5444 844.577,-25.2009 844.577,-25.2009 844.577,-25.2009 846.45,-23.5444 843.086,-23.5156 848.322,-21.888 848.322,-21.888"/>
</g>
<!-- v2 -->
<g id="v2_Room" class="node"><title>v2</title>
<ellipse fill="none" stroke="black" cx="112.5" cy="-127" rx="21.5" ry="11"/>
<text text-anchor="middle" x="112.5" y="-124.8" font-family="sans-serif" font-size="9.00">Room</text>
</g>
<!-- v1&#45;&gt;v2 -->
<g id="edge5" class="edge"><title>v1&#45;&gt;v2</title>
<path fill="none" stroke="black" d="M437.667,-180.326C375.453,-170.314 203.253,-142.604 138.006,-132.104"/>
<polygon fill="black" stroke="black" points="132.762,-131.261 138.056,-129.834 135.23,-131.658 137.698,-132.055 137.698,-132.055 137.698,-132.055 135.23,-131.658 137.341,-134.276 132.762,-131.261 132.762,-131.261"/>
</g>
<!-- v7 -->
<g id="v7_Hallway" class="node"><title>v7</title>
<ellipse fill="none" stroke="black" cx="366.5" cy="-11" rx="32.5" ry="11"/>
<text text-anchor="middle" x="366.5" y="-8.8" font-family="sans-serif" font-size="9.00">Hallway</text>
</g>
<!-- v1&#45;&gt;v7 -->
<g id="edge6" class="edge"><title>v1&#45;&gt;v7</title>
<path fill="none" stroke="black" d="M455.04,-174.009C439.205,-145.034 393.206,-60.8671 374.526,-26.6863"/>
<polygon fill="black" stroke="black" points="371.975,-22.0185 376.347,-25.327 373.174,-24.2122 374.373,-26.406 374.373,-26.406 374.373,-26.406 373.174,-24.2122 372.399,-27.4851 371.975,-22.0185 371.975,-22.0185"/>
</g>
<!-- v12 -->
<g id="v12_Room" class="node"><title>v12</title>
<ellipse fill="none" stroke="black" cx="460.5" cy="-69" rx="21.5" ry="11"/>
<text text-anchor="middle" x="460.5" y="-66.8" font-family="sans-serif" font-size="9.00">Room</text>
</g>
<!-- v1&#45;&gt;v12 -->
<g id="edge7" class="edge"><title>v1&#45;&gt;v12</title>
<path fill="none" stroke="black" d="M460.5,-173.883C460.5,-153.906 460.5,-109.276 460.5,-85.5402"/>
<polygon fill="black" stroke="black" points="460.5,-80.2579 462.75,-85.2579 460.5,-82.7579 460.5,-85.2579 460.5,-85.2579 460.5,-85.2579 460.5,-82.7579 458.25,-85.258 460.5,-80.2579 460.5,-80.2579"/>
</g>
<!-- v14 -->
<g id="v14_Room" class="node"><title>v14</title>
<ellipse fill="none" stroke="black" cx="609.5" cy="-69" rx="21.5" ry="11"/>
<text text-anchor="middle" x="609.5" y="-66.8" font-family="sans-serif" font-size="9.00">Room</text>
</g>
<!-- v1&#45;&gt;v14 -->
<g id="edge8" class="edge"><title>v1&#45;&gt;v14</title>
<path fill="none" stroke="black" d="M472.192,-175.055C498.87,-154.643 564.232,-104.634 594.126,-81.7627"/>
<polygon fill="black" stroke="black" points="598.27,-78.5919 595.666,-83.4171 596.285,-80.111 594.299,-81.6302 594.299,-81.6302 594.299,-81.6302 596.285,-80.111 592.932,-79.8432 598.27,-78.5919 598.27,-78.5919"/>
</g>
<!-- v3 -->
<g id="v3_Visitor" class="node"><title>v3</title>
<ellipse fill="none" stroke="black" cx="32.5" cy="-69" rx="32.5" ry="11"/>
<text text-anchor="middle" x="32.5" y="-66.8" font-family="sans-serif" font-size="9.00">Visitor</text>
</g>
<!-- v2&#45;&gt;v3 -->
<g id="edge9" class="edge"><title>v2&#45;&gt;v3</title>
<path fill="none" stroke="black" d="M100.696,-117.737C87.2675,-108.337 65.2137,-92.8996 49.8335,-82.1334"/>
<polygon fill="black" stroke="black" points="45.6852,-79.2296 51.0716,-80.2537 47.7332,-80.6633 49.7813,-82.097 49.7813,-82.097 49.7813,-82.097 47.7332,-80.6633 48.491,-83.9402 45.6852,-79.2296 45.6852,-79.2296"/>
</g>
<!-- v2&#45;&gt;v5 -->
<g id="edge10" class="edge"><title>v2&#45;&gt;v5</title>
<path fill="none" stroke="black" d="M111.212,-115.82C109.916,-102.069 109.147,-77.0859 117.5,-58 123.176,-45.0308 134.113,-33.4117 143.536,-25.0955"/>
<polygon fill="black" stroke="black" points="147.462,-21.7393 145.123,-26.6986 145.561,-23.3638 143.661,-24.9883 143.661,-24.9883 143.661,-24.9883 145.561,-23.3638 142.199,-23.2781 147.462,-21.7393 147.462,-21.7393"/>
</g>
<!-- v2&#45;&gt;v7 -->
<g id="edge19" class="edge"><title>v2&#45;&gt;v7</title>
<path fill="none" stroke="green" d="M115.214,-115.887C119.818,-100.783 130.65,-72.5527 150.5,-58 214.189,-11.3081 247.413,-39.1476 324.5,-22 329.914,-20.7956 335.708,-19.4519 341.209,-18.1501"/>
</g>
<!-- v10 -->
<g id="v10_Workstation" class="node"><title>v10</title>
<ellipse fill="none" stroke="black" cx="268.5" cy="-11" rx="47" ry="11"/>
<text text-anchor="middle" x="268.5" y="-8.8" font-family="sans-serif" font-size="9.00">Workstation</text>
</g>
<!-- v2&#45;&gt;v10 -->
<g id="edge11" class="edge"><title>v2&#45;&gt;v10</title>
<path fill="none" stroke="black" d="M123.971,-117.617C151.042,-97.8348 219.035,-48.1474 251.166,-24.6672"/>
<polygon fill="black" stroke="black" points="255.27,-21.6681 252.561,-26.4349 253.251,-23.1432 251.233,-24.6182 251.233,-24.6182 251.233,-24.6182 253.251,-23.1432 249.905,-22.8016 255.27,-21.6681 255.27,-21.6681"/>
</g>
<!-- v4 -->
<g id="v4_Laptop" class="node"><title>v4</title>
<ellipse fill="none" stroke="black" cx="32.5" cy="-11" rx="29" ry="11"/>
<text text-anchor="middle" x="32.5" y="-8.8" font-family="sans-serif" font-size="9.00">Laptop</text>
</g>
<!-- v3&#45;&gt;v4 -->
<g id="edge12" class="edge"><title>v3&#45;&gt;v4</title>
<path fill="none" stroke="black" d="M32.5,-57.9883C32.5,-49.4941 32.5,-37.1697 32.5,-27.4169"/>
<polygon fill="black" stroke="black" points="32.5,-22.3039 34.7501,-27.3038 32.5,-24.8039 32.5001,-27.3039 32.5001,-27.3039 32.5001,-27.3039 32.5,-24.8039 30.2501,-27.3039 32.5,-22.3039 32.5,-22.3039"/>
</g>
<!-- v4&#45;&gt;v6 -->
<g id="edge20" class="edge"><title>v4&#45;&gt;v6</title>
<path fill="none" stroke="green" d="M51.2779,-19.4099C68.2008,-26.4997 93.9656,-36.0958 117.5,-40 190.064,-52.0379 707.054,-52.7257 779.5,-40 799.725,-36.4473 821.572,-28.203 837.317,-21.4092"/>
</g>
<!-- v6&#45;&gt;v10 -->
<g id="edge22" class="edge"><title>v6&#45;&gt;v10</title>
<path fill="none" stroke="green" d="M837.317,-21.4092C821.572,-28.203 799.725,-36.4473 779.5,-40 681.883,-57.1471 430.437,-60.6438 333.5,-40 316.58,-36.3967 298.726,-28.0614 286.021,-21.2474"/>
</g>
<!-- v13 -->
<g id="v13_SmartLight" class="node"><title>v13</title>
<ellipse fill="none" stroke="black" cx="460.5" cy="-11" rx="43" ry="11"/>
<text text-anchor="middle" x="460.5" y="-8.8" font-family="sans-serif" font-size="9.00">SmartLight</text>
</g>
<!-- v6&#45;&gt;v13 -->
<g id="edge23" class="edge"><title>v6&#45;&gt;v13</title>
<path fill="none" stroke="green" d="M837.317,-21.4092C821.572,-28.203 799.725,-36.4473 779.5,-40 666.562,-59.8383 633.355,-65.2353 521.5,-40 505.486,-36.3871 488.744,-28.0527 476.859,-21.2415"/>
</g>
<!-- v15 -->
<g id="v15_SmartLight" class="node"><title>v15</title>
<ellipse fill="none" stroke="black" cx="564.5" cy="-11" rx="43" ry="11"/>
<text text-anchor="middle" x="564.5" y="-8.8" font-family="sans-serif" font-size="9.00">SmartLight</text>
</g>
<!-- v6&#45;&gt;v15 -->
<g id="edge24" class="edge"><title>v6&#45;&gt;v15</title>
<path fill="none" stroke="green" d="M837.317,-21.4092C821.572,-28.203 799.725,-36.4473 779.5,-40 712.088,-51.8415 692.266,-55.0629 625.5,-40 609.486,-36.3871 592.744,-28.0527 580.859,-21.2415"/>
</g>
<!-- v16 -->
<g id="v16_Server" class="node"><title>v16</title>
<ellipse fill="none" stroke="black" cx="654.5" cy="-11" rx="29" ry="11"/>
<text text-anchor="middle" x="654.5" y="-8.8" font-family="sans-serif" font-size="9.00">Server</text>
</g>
<!-- v6&#45;&gt;v16 -->
<g id="edge25" class="edge"><title>v6&#45;&gt;v16</title>
<path fill="none" stroke="green" d="M837.317,-21.4092C821.572,-28.203 799.725,-36.4473 779.5,-40 744.918,-46.0745 734.232,-49.7453 700.5,-40 687.802,-36.3316 675.235,-28.0024 666.454,-21.2073"/>
</g>
<!-- v17 -->
<g id="v17_FireAlarm" class="node"><title>v17</title>
<ellipse fill="none" stroke="black" cx="740.5" cy="-11" rx="39.5" ry="11"/>
<text text-anchor="middle" x="740.5" y="-8.8" font-family="sans-serif" font-size="9.00">FireAlarm</text>
</g>
<!-- v6&#45;&gt;v17 -->
<g id="edge26" class="edge"><title>v6&#45;&gt;v17</title>
<path fill="none" stroke="green" d="M798.331,-11C792.225,-11 786.118,-11 780.012,-11"/>
</g>
<!-- v7&#45;&gt;v12 -->
<g id="edge27" class="edge"><title>v7&#45;&gt;v12</title>
<path fill="none" stroke="green" d="M381.317,-20.827C399.508,-31.6646 430.076,-49.8751 447.43,-60.2134"/>
</g>
<!-- v7&#45;&gt;v14 -->
<g id="edge28" class="edge"><title>v7&#45;&gt;v14</title>
<path fill="none" stroke="green" d="M391.811,-18.0642C397.31,-19.3713 403.099,-20.7389 408.5,-22 475.258,-37.586 554.614,-55.5943 590.364,-63.6794"/>
</g>
<!-- v9 -->
<g id="v9_ExitRoom" class="node"><title>v9</title>
<ellipse fill="none" stroke="black" cx="974.5" cy="-11" rx="36" ry="11"/>
<text text-anchor="middle" x="974.5" y="-8.8" font-family="sans-serif" font-size="9.00">ExitRoom</text>
</g>
<!-- v8&#45;&gt;v9 -->
<g id="edge13" class="edge"><title>v8&#45;&gt;v9</title>
<path fill="none" stroke="black" d="M1011.45,-57.9883C1004.29,-49.0694 993.728,-35.9276 985.729,-25.974"/>
<polygon fill="black" stroke="black" points="982.475,-21.925 987.361,-24.4132 984.041,-23.8738 985.607,-25.8226 985.607,-25.8226 985.607,-25.8226 984.041,-23.8738 983.854,-27.232 982.475,-21.925 982.475,-21.925"/>
</g>
<!-- v11 -->
<g id="v11_ExitRoom" class="node"><title>v11</title>
<ellipse fill="none" stroke="black" cx="1064.5" cy="-11" rx="36" ry="11"/>
<text text-anchor="middle" x="1064.5" y="-8.8" font-family="sans-serif" font-size="9.00">ExitRoom</text>
</g>
<!-- v8&#45;&gt;v11 -->
<g id="edge14" class="edge"><title>v8&#45;&gt;v11</title>
<path fill="none" stroke="black" d="M1027.55,-57.9883C1034.71,-49.0694 1045.27,-35.9276 1053.27,-25.974"/>
<polygon fill="black" stroke="black" points="1056.52,-21.925 1055.15,-27.232 1054.96,-23.8738 1053.39,-25.8226 1053.39,-25.8226 1053.39,-25.8226 1054.96,-23.8738 1051.64,-24.4132 1056.52,-21.925 1056.52,-21.925"/>
</g>
<!-- v12&#45;&gt;v13 -->
<g id="edge15" class="edge"><title>v12&#45;&gt;v13</title>
<path fill="none" stroke="black" d="M460.5,-57.9883C460.5,-49.4941 460.5,-37.1697 460.5,-27.4169"/>
<polygon fill="black" stroke="black" points="460.5,-22.3039 462.75,-27.3038 460.5,-24.8039 460.5,-27.3039 460.5,-27.3039 460.5,-27.3039 460.5,-24.8039 458.25,-27.3039 460.5,-22.3039 460.5,-22.3039"/>
</g>
<!-- v14&#45;&gt;v15 -->
<g id="edge16" class="edge"><title>v14&#45;&gt;v15</title>
<path fill="none" stroke="black" d="M601.866,-58.5004C594.757,-49.6537 584.065,-36.3472 575.937,-26.2321"/>
<polygon fill="black" stroke="black" points="572.628,-22.1148 577.514,-24.603 574.194,-24.0636 575.76,-26.0124 575.76,-26.0124 575.76,-26.0124 574.194,-24.0636 574.006,-27.4218 572.628,-22.1148 572.628,-22.1148"/>
</g>
<!-- v14&#45;&gt;v16 -->
<g id="edge17" class="edge"><title>v14&#45;&gt;v16</title>
<path fill="none" stroke="black" d="M617.134,-58.5004C624.33,-49.5445 635.2,-36.018 643.363,-25.859"/>
<polygon fill="black" stroke="black" points="646.678,-21.7345 645.3,-27.0414 645.112,-23.6832 643.546,-25.632 643.546,-25.632 643.546,-25.632 645.112,-23.6832 641.792,-24.2226 646.678,-21.7345 646.678,-21.7345"/>
</g>
<!-- v14&#45;&gt;v17 -->
<g id="edge18" class="edge"><title>v14&#45;&gt;v17</title>
<path fill="none" stroke="black" d="M625.042,-61.3562C647.373,-51.81 688.778,-34.11 715.46,-22.7043"/>
<polygon fill="black" stroke="black" points="720.262,-20.6512 716.549,-24.6855 717.964,-21.6339 715.665,-22.6166 715.665,-22.6166 715.665,-22.6166 717.964,-21.6339 714.78,-20.5477 720.262,-20.6512 720.262,-20.6512"/>
</g>
</g>
</svg>
