<?xml version="1.0" encoding="UTF-8" standalone="no"?>
<?xml-stylesheet href="style.css" type="text/css"?>
<!DOCTYPE svg PUBLIC "-//W3C//DTD SVG 1.1//EN"
 "http://www.w3.org/Graphics/SVG/1.1/DTD/svg11.dtd">
<!-- Generated by graphviz version 2.38.0 (20140413.2041)
 -->
<!-- Title: 11.svg Pages: 1 -->
<svg width="1019pt" height="316pt"
 viewBox="0.00 0.00 1019.00 316.00" xmlns="http://www.w3.org/2000/svg" xmlns:xlink="http://www.w3.org/1999/xlink">
<g id="graph0" class="graph" transform="scale(1 1) rotate(0) translate(4 312)">
<title>11.svg</title>
<polygon fill="white" stroke="none" points="-4,4 -4,-312 1015,-312 1015,4 -4,4"/>
<!-- r0 -->
<g id="node1" class="node"><title>r0</title>
<polygon fill="none" stroke="black" stroke-dasharray="5,2" points="166.5,-308 143.5,-308 143.5,-290 166.5,-290 166.5,-308"/>
<text text-anchor="middle" x="155" y="-296.8" font-family="serif" font-size="9.00">0</text>
</g>
<!-- v0 -->
<g id="v0_Building" class="node"><title>v0</title>
<ellipse fill="none" stroke="black" cx="155" cy="-243" rx="36" ry="11"/>
<text text-anchor="middle" x="155" y="-240.8" font-family="sans-serif" font-size="9.00">Building</text>
</g>
<!-- r0&#45;&gt;v0 -->
<g id="edge1" class="edge"><title>r0&#45;&gt;v0</title>
<path fill="none" stroke="black" d="M155,-289.562C155,-281.453 155,-269.014 155,-259.181"/>
<polygon fill="black" stroke="black" points="155,-254.03 157.25,-259.03 155,-256.53 155,-259.03 155,-259.03 155,-259.03 155,-256.53 152.75,-259.03 155,-254.03 155,-254.03"/>
</g>
<!-- r1 -->
<g id="node2" class="node"><title>r1</title>
<polygon fill="none" stroke="black" stroke-dasharray="5,2" points="941.5,-308 918.5,-308 918.5,-290 941.5,-290 941.5,-308"/>
<text text-anchor="middle" x="930" y="-296.8" font-family="serif" font-size="9.00">1</text>
</g>
<!-- v9 -->
<g id="v9_RulesKeywords" class="node"><title>v9</title>
<ellipse fill="none" stroke="black" cx="930" cy="-69" rx="54" ry="11"/>
<text text-anchor="middle" x="930" y="-66.8" font-family="sans-serif" font-size="9.00">RulesKeywords</text>
</g>
<!-- r1&#45;&gt;v9 -->
<g id="edge2" class="edge"><title>r1&#45;&gt;v9</title>
<path fill="none" stroke="black" d="M930,-289.885C930,-256.489 930,-129.348 930,-85.206"/>
<polygon fill="black" stroke="black" points="930,-80.0114 932.25,-85.0113 930,-82.5114 930,-85.0114 930,-85.0114 930,-85.0114 930,-82.5114 927.75,-85.0114 930,-80.0114 930,-80.0114"/>
</g>
<!-- e7 -->
<g id="node3" class="node"><title>e7</title>
</g>
<!-- v7 -->
<g id="v7_SmartLight" class="node"><title>v7</title>
<ellipse fill="none" stroke="black" cx="788" cy="-11" rx="43" ry="11"/>
<text text-anchor="middle" x="788" y="-8.8" font-family="sans-serif" font-size="9.00">SmartLight</text>
</g>
<!-- e7&#45;&gt;v7 -->
<g id="edge27" class="edge"><title>e7&#45;&gt;v7</title>
<path fill="none" stroke="green" d="M788,-64.1674C788,-55.5862 788,-34.5957 788,-22.0117"/>
<polygon fill="green" stroke="green" points="791.5,-67.3001 784.5,-67.2999 784.5,-65.8999 791.5,-65.9001 791.5,-67.3001"/>
<polyline fill="none" stroke="green" points="788,-68 788,-64.5 "/>
</g>
<!-- v1 -->
<g id="v1_InstallationBus" class="node"><title>v1</title>
<ellipse fill="none" stroke="black" cx="61" cy="-69" rx="61" ry="11"/>
<text text-anchor="middle" x="61" y="-66.8" font-family="sans-serif" font-size="9.00">InstallationBus</text>
</g>
<!-- v0&#45;&gt;v1 -->
<g id="edge3" class="edge"><title>v0&#45;&gt;v1</title>
<path fill="none" stroke="black" d="M149.54,-232.009C133.705,-203.034 87.7064,-118.867 69.0262,-84.6863"/>
<polygon fill="black" stroke="black" points="66.4752,-80.0185 70.8475,-83.327 67.6742,-82.2122 68.8731,-84.406 68.8731,-84.406 68.8731,-84.406 67.6742,-82.2122 66.8987,-85.4851 66.4752,-80.0185 66.4752,-80.0185"/>
</g>
<!-- v3 -->
<g id="v3_Floor" class="node"><title>v3</title>
<ellipse fill="none" stroke="black" cx="220" cy="-185" rx="25" ry="11"/>
<text text-anchor="middle" x="220" y="-182.8" font-family="sans-serif" font-size="9.00">Floor</text>
</g>
<!-- v0&#45;&gt;v3 -->
<g id="edge4" class="edge"><title>v0&#45;&gt;v3</title>
<path fill="none" stroke="black" d="M166.026,-232.5C176.83,-223.192 193.364,-208.948 205.285,-198.677"/>
<polygon fill="black" stroke="black" points="209.136,-195.359 206.817,-200.328 207.242,-196.991 205.348,-198.623 205.348,-198.623 205.348,-198.623 207.242,-196.991 203.88,-196.918 209.136,-195.359 209.136,-195.359"/>
</g>
<!-- v2 -->
<g id="v2_Data" class="node"><title>v2</title>
<ellipse fill="none" stroke="black" cx="54" cy="-11" rx="21.5" ry="11"/>
<text text-anchor="middle" x="54" y="-8.8" font-family="sans-serif" font-size="9.00">Data</text>
</g>
<!-- v1&#45;&gt;v2 -->
<g id="edge5" class="edge"><title>v1&#45;&gt;v2</title>
<path fill="none" stroke="black" d="M59.7485,-57.9883C58.6868,-49.4941 57.1462,-37.1697 55.9271,-27.4169"/>
<polygon fill="black" stroke="black" points="55.288,-22.3039 58.1409,-26.9861 55.5981,-24.7846 55.9082,-27.2653 55.9082,-27.2653 55.9082,-27.2653 55.5981,-24.7846 53.6756,-27.5444 55.288,-22.3039 55.288,-22.3039"/>
</g>
<!-- v6 -->
<g id="v6_Laptop" class="node"><title>v6</title>
<ellipse fill="none" stroke="black" cx="698" cy="-11" rx="29" ry="11"/>
<text text-anchor="middle" x="698" y="-8.8" font-family="sans-serif" font-size="9.00">Laptop</text>
</g>
<!-- v1&#45;&gt;v6 -->
<g id="edge20" class="edge"><title>v1&#45;&gt;v6</title>
<path fill="none" stroke="green" d="M114.87,-63.7712C137.729,-61.9819 164.665,-59.8806 189,-58 398.32,-41.824 452.97,-56.8574 660,-22 665.382,-21.0939 671.111,-19.7775 676.445,-18.3958"/>
</g>
<!-- v11 -->
<g id="v11_Server" class="node"><title>v11</title>
<ellipse fill="none" stroke="black" cx="526" cy="-11" rx="29" ry="11"/>
<text text-anchor="middle" x="526" y="-8.8" font-family="sans-serif" font-size="9.00">Server</text>
</g>
<!-- v1&#45;&gt;v11 -->
<g id="edge21" class="edge"><title>v1&#45;&gt;v11</title>
<path fill="none" stroke="green" d="M113.376,-63.3495C211.013,-54.5155 417.333,-35.0286 488,-22 493.233,-21.0352 498.805,-19.73 504.023,-18.3814"/>
</g>
<!-- v12 -->
<g id="v12_FireAlarm" class="node"><title>v12</title>
<ellipse fill="none" stroke="black" cx="612" cy="-11" rx="39.5" ry="11"/>
<text text-anchor="middle" x="612" y="-8.8" font-family="sans-serif" font-size="9.00">FireAlarm</text>
</g>
<!-- v1&#45;&gt;v12 -->
<g id="edge22" class="edge"><title>v1&#45;&gt;v12</title>
<path fill="none" stroke="green" d="M115.224,-63.8299C226.758,-55.1228 478.573,-34.7623 564,-22 570.23,-21.0693 576.869,-19.8411 583.16,-18.5651"/>
</g>
<!-- v15 -->
<g id="v15_SmartLight" class="node"><title>v15</title>
<ellipse fill="none" stroke="black" cx="220" cy="-11" rx="43" ry="11"/>
<text text-anchor="middle" x="220" y="-8.8" font-family="sans-serif" font-size="9.00">SmartLight</text>
</g>
<!-- v1&#45;&gt;v15 -->
<g id="edge23" class="edge"><title>v1&#45;&gt;v15</title>
<path fill="none" stroke="green" d="M86.5461,-59.0026C116.92,-48.3051 167.187,-30.6008 196.59,-20.2451"/>
</g>
<!-- v17 -->
<g id="v17_SmartLight" class="node"><title>v17</title>
<ellipse fill="none" stroke="black" cx="324" cy="-11" rx="43" ry="11"/>
<text text-anchor="middle" x="324" y="-8.8" font-family="sans-serif" font-size="9.00">SmartLight</text>
</g>
<!-- v1&#45;&gt;v17 -->
<g id="edge24" class="edge"><title>v1&#45;&gt;v17</title>
<path fill="none" stroke="green" d="M97.8459,-60.1545C149.87,-49.0771 243.941,-29.0468 292.741,-18.656"/>
</g>
<!-- v18 -->
<g id="v18_Workstation" class="node"><title>v18</title>
<ellipse fill="none" stroke="black" cx="432" cy="-11" rx="47" ry="11"/>
<text text-anchor="middle" x="432" y="-8.8" font-family="sans-serif" font-size="9.00">Workstation</text>
</g>
<!-- v1&#45;&gt;v18 -->
<g id="edge25" class="edge"><title>v1&#45;&gt;v18</title>
<path fill="none" stroke="green" d="M106.977,-61.7512C168.386,-53.2986 280.53,-37.4909 376,-22 382.824,-20.8927 390.103,-19.6433 397.078,-18.4123"/>
</g>
<!-- v4 -->
<g id="v4_Room" class="node"><title>v4</title>
<ellipse fill="none" stroke="black" cx="612" cy="-127" rx="21.5" ry="11"/>
<text text-anchor="middle" x="612" y="-124.8" font-family="sans-serif" font-size="9.00">Room</text>
</g>
<!-- v3&#45;&gt;v4 -->
<g id="edge6" class="edge"><title>v3&#45;&gt;v4</title>
<path fill="none" stroke="black" d="M243.058,-180.706C311.676,-170.903 514.258,-141.963 586.251,-131.678"/>
<polygon fill="black" stroke="black" points="591.607,-130.913 586.976,-133.848 589.133,-131.267 586.658,-131.62 586.658,-131.62 586.658,-131.62 589.133,-131.267 586.339,-129.393 591.607,-130.913 591.607,-130.913"/>
</g>
<!-- v8 -->
<g id="v8_Hallway" class="node"><title>v8</title>
<ellipse fill="none" stroke="black" cx="126" cy="-11" rx="32.5" ry="11"/>
<text text-anchor="middle" x="126" y="-8.8" font-family="sans-serif" font-size="9.00">Hallway</text>
</g>
<!-- v3&#45;&gt;v8 -->
<g id="edge7" class="edge"><title>v3&#45;&gt;v8</title>
<path fill="none" stroke="black" d="M214.54,-174.009C198.705,-145.034 152.706,-60.8671 134.026,-26.6863"/>
<polygon fill="black" stroke="black" points="131.475,-22.0185 135.847,-25.327 132.674,-24.2122 133.873,-26.406 133.873,-26.406 133.873,-26.406 132.674,-24.2122 131.899,-27.4851 131.475,-22.0185 131.475,-22.0185"/>
</g>
<!-- v14 -->
<g id="v14_Room" class="node"><title>v14</title>
<ellipse fill="none" stroke="black" cx="220" cy="-69" rx="21.5" ry="11"/>
<text text-anchor="middle" x="220" y="-66.8" font-family="sans-serif" font-size="9.00">Room</text>
</g>
<!-- v3&#45;&gt;v14 -->
<g id="edge8" class="edge"><title>v3&#45;&gt;v14</title>
<path fill="none" stroke="black" d="M220,-173.883C220,-153.906 220,-109.276 220,-85.5402"/>
<polygon fill="black" stroke="black" points="220,-80.2579 222.25,-85.2579 220,-82.7579 220,-85.2579 220,-85.2579 220,-85.2579 220,-82.7579 217.75,-85.258 220,-80.2579 220,-80.2579"/>
</g>
<!-- v16 -->
<g id="v16_Room" class="node"><title>v16</title>
<ellipse fill="none" stroke="black" cx="324" cy="-69" rx="21.5" ry="11"/>
<text text-anchor="middle" x="324" y="-66.8" font-family="sans-serif" font-size="9.00">Room</text>
</g>
<!-- v3&#45;&gt;v16 -->
<g id="edge9" class="edge"><title>v3&#45;&gt;v16</title>
<path fill="none" stroke="black" d="M228.867,-174.28C247.534,-153.819 290.899,-106.284 312.015,-83.137"/>
<polygon fill="black" stroke="black" points="315.448,-79.3745 313.74,-84.5848 313.763,-81.2214 312.078,-83.0684 312.078,-83.0684 312.078,-83.0684 313.763,-81.2214 310.416,-81.5519 315.448,-79.3745 315.448,-79.3745"/>
</g>
<!-- v5 -->
<g id="v5_Visitor" class="node"><title>v5</title>
<ellipse fill="none" stroke="black" cx="679" cy="-69" rx="32.5" ry="11"/>
<text text-anchor="middle" x="679" y="-66.8" font-family="sans-serif" font-size="9.00">Visitor</text>
</g>
<!-- v4&#45;&gt;v5 -->
<g id="edge10" class="edge"><title>v4&#45;&gt;v5</title>
<path fill="none" stroke="black" d="M622.469,-117.25C633.447,-108.074 650.82,-93.5532 663.412,-83.0291"/>
<polygon fill="black" stroke="black" points="667.482,-79.6267 665.089,-84.5597 665.564,-81.23 663.646,-82.8333 663.646,-82.8333 663.646,-82.8333 665.564,-81.23 662.203,-81.1069 667.482,-79.6267 667.482,-79.6267"/>
</g>
<!-- v4&#45;&gt;v7 -->
<g id="edge11" class="edge"><title>v4&#45;&gt;v7</title>
<path fill="none" stroke="black" d="M629.87,-120.729C652.184,-113.64 690.951,-99.6195 720,-80 742.764,-64.6253 764.355,-40.9249 776.879,-25.9514"/>
<polygon fill="black" stroke="black" points="780.164,-21.9737 778.715,-27.2617 778.572,-23.9013 776.98,-25.8289 776.98,-25.8289 776.98,-25.8289 778.572,-23.9013 775.245,-24.3961 780.164,-21.9737 780.164,-21.9737"/>
</g>
<!-- v4&#45;&gt;v8 -->
<g id="edge26" class="edge"><title>v4&#45;&gt;v8</title>
<path fill="none" stroke="green" d="M590.561,-125.33C538.406,-123.186 401.241,-114.441 293,-80 272.543,-73.4909 269.653,-66.637 250,-58 214.895,-42.5722 172.823,-27.6974 147.812,-19.2195"/>
</g>
<!-- v4&#45;&gt;v11 -->
<g id="edge12" class="edge"><title>v4&#45;&gt;v11</title>
<path fill="none" stroke="black" d="M604.668,-116.28C589.372,-96.0046 554.022,-49.1459 536.391,-25.774"/>
<polygon fill="black" stroke="black" points="533.314,-21.695 538.121,-24.3315 534.819,-23.6908 536.325,-25.6866 536.325,-25.6866 536.325,-25.6866 534.819,-23.6908 534.529,-27.0416 533.314,-21.695 533.314,-21.695"/>
</g>
<!-- v4&#45;&gt;v12 -->
<g id="edge13" class="edge"><title>v4&#45;&gt;v12</title>
<path fill="none" stroke="black" d="M612,-115.883C612,-95.9059 612,-51.276 612,-27.5402"/>
<polygon fill="black" stroke="black" points="612,-22.2579 614.25,-27.2579 612,-24.7579 612,-27.2579 612,-27.2579 612,-27.2579 612,-24.7579 609.75,-27.258 612,-22.2579 612,-22.2579"/>
</g>
<!-- v5&#45;&gt;v6 -->
<g id="edge14" class="edge"><title>v5&#45;&gt;v6</title>
<path fill="none" stroke="black" d="M682.397,-57.9883C685.305,-49.4154 689.538,-36.9411 692.861,-27.1466"/>
<polygon fill="black" stroke="black" points="694.504,-22.3039 695.028,-27.7617 693.701,-24.6713 692.897,-27.0388 692.897,-27.0388 692.897,-27.0388 693.701,-24.6713 690.767,-26.3158 694.504,-22.3039 694.504,-22.3039"/>
</g>
<!-- v8&#45;&gt;v14 -->
<g id="edge28" class="edge"><title>v8&#45;&gt;v14</title>
<path fill="none" stroke="green" d="M140.817,-20.827C159.008,-31.6646 189.576,-49.8751 206.93,-60.2134"/>
</g>
<!-- v8&#45;&gt;v16 -->
<g id="edge29" class="edge"><title>v8&#45;&gt;v16</title>
<path fill="none" stroke="green" d="M149.687,-18.6993C189.676,-30.0094 269.731,-52.6512 305.728,-62.832"/>
</g>
<!-- v10 -->
<g id="v10_ExitRoom" class="node"><title>v10</title>
<ellipse fill="none" stroke="black" cx="885" cy="-11" rx="36" ry="11"/>
<text text-anchor="middle" x="885" y="-8.8" font-family="sans-serif" font-size="9.00">ExitRoom</text>
</g>
<!-- v9&#45;&gt;v10 -->
<g id="edge15" class="edge"><title>v9&#45;&gt;v10</title>
<path fill="none" stroke="black" d="M921.955,-57.9883C914.788,-49.0694 904.228,-35.9276 896.229,-25.974"/>
<polygon fill="black" stroke="black" points="892.975,-21.925 897.861,-24.4132 894.541,-23.8738 896.107,-25.8226 896.107,-25.8226 896.107,-25.8226 894.541,-23.8738 894.354,-27.232 892.975,-21.925 892.975,-21.925"/>
</g>
<!-- v13 -->
<g id="v13_ExitRoom" class="node"><title>v13</title>
<ellipse fill="none" stroke="black" cx="975" cy="-11" rx="36" ry="11"/>
<text text-anchor="middle" x="975" y="-8.8" font-family="sans-serif" font-size="9.00">ExitRoom</text>
</g>
<!-- v9&#45;&gt;v13 -->
<g id="edge16" class="edge"><title>v9&#45;&gt;v13</title>
<path fill="none" stroke="black" d="M938.045,-57.9883C945.212,-49.0694 955.772,-35.9276 963.771,-25.974"/>
<polygon fill="black" stroke="black" points="967.025,-21.925 965.646,-27.232 965.459,-23.8738 963.893,-25.8226 963.893,-25.8226 963.893,-25.8226 965.459,-23.8738 962.139,-24.4132 967.025,-21.925 967.025,-21.925"/>
</g>
<!-- v14&#45;&gt;v15 -->
<g id="edge17" class="edge"><title>v14&#45;&gt;v15</title>
<path fill="none" stroke="black" d="M220,-57.9883C220,-49.4941 220,-37.1697 220,-27.4169"/>
<polygon fill="black" stroke="black" points="220,-22.3039 222.25,-27.3038 220,-24.8039 220,-27.3039 220,-27.3039 220,-27.3039 220,-24.8039 217.75,-27.3039 220,-22.3039 220,-22.3039"/>
</g>
<!-- v16&#45;&gt;v17 -->
<g id="edge18" class="edge"><title>v16&#45;&gt;v17</title>
<path fill="none" stroke="black" d="M324,-57.9883C324,-49.4941 324,-37.1697 324,-27.4169"/>
<polygon fill="black" stroke="black" points="324,-22.3039 326.25,-27.3038 324,-24.8039 324,-27.3039 324,-27.3039 324,-27.3039 324,-24.8039 321.75,-27.3039 324,-22.3039 324,-22.3039"/>
</g>
<!-- v16&#45;&gt;v18 -->
<g id="edge19" class="edge"><title>v16&#45;&gt;v18</title>
<path fill="none" stroke="black" d="M338.119,-60.679C356.192,-51.3076 387.732,-34.9536 409.222,-23.8106"/>
<polygon fill="black" stroke="black" points="413.916,-21.3771 410.513,-25.6762 411.696,-22.5279 409.477,-23.6787 409.477,-23.6787 409.477,-23.6787 411.696,-22.5279 408.441,-21.6813 413.916,-21.3771 413.916,-21.3771"/>
</g>
</g>
</svg>
