<?xml version="1.0" encoding="UTF-8" standalone="no"?>
<?xml-stylesheet href="style.css" type="text/css"?>
<!DOCTYPE svg PUBLIC "-//W3C//DTD SVG 1.1//EN"
 "http://www.w3.org/Graphics/SVG/1.1/DTD/svg11.dtd">
<!-- Generated by graphviz version 2.38.0 (20140413.2041)
 -->
<!-- Title: 12.svg Pages: 1 -->
<svg width="996pt" height="316pt"
 viewBox="0.00 0.00 995.50 316.00" xmlns="http://www.w3.org/2000/svg" xmlns:xlink="http://www.w3.org/1999/xlink">
<g id="graph0" class="graph" transform="scale(1 1) rotate(0) translate(4 312)">
<title>12.svg</title>
<polygon fill="white" stroke="none" points="-4,4 -4,-312 991.5,-312 991.5,4 -4,4"/>
<!-- r0 -->
<g id="node1" class="node"><title>r0</title>
<polygon fill="none" stroke="black" stroke-dasharray="5,2" points="330,-308 307,-308 307,-290 330,-290 330,-308"/>
<text text-anchor="middle" x="318.5" y="-296.8" font-family="serif" font-size="9.00">0</text>
</g>
<!-- v0 -->
<g id="v0_Building" class="node"><title>v0</title>
<ellipse fill="none" stroke="black" cx="318.5" cy="-243" rx="36" ry="11"/>
<text text-anchor="middle" x="318.5" y="-240.8" font-family="sans-serif" font-size="9.00">Building</text>
</g>
<!-- r0&#45;&gt;v0 -->
<g id="edge1" class="edge"><title>r0&#45;&gt;v0</title>
<path fill="none" stroke="black" d="M318.5,-289.562C318.5,-281.453 318.5,-269.014 318.5,-259.181"/>
<polygon fill="black" stroke="black" points="318.5,-254.03 320.75,-259.03 318.5,-256.53 318.5,-259.03 318.5,-259.03 318.5,-259.03 318.5,-256.53 316.25,-259.03 318.5,-254.03 318.5,-254.03"/>
</g>
<!-- r1 -->
<g id="node2" class="node"><title>r1</title>
<polygon fill="none" stroke="black" stroke-dasharray="5,2" points="880,-308 857,-308 857,-290 880,-290 880,-308"/>
<text text-anchor="middle" x="868.5" y="-296.8" font-family="serif" font-size="9.00">1</text>
</g>
<!-- v9 -->
<g id="v9_RulesKeywords" class="node"><title>v9</title>
<ellipse fill="none" stroke="black" cx="868.5" cy="-69" rx="54" ry="11"/>
<text text-anchor="middle" x="868.5" y="-66.8" font-family="sans-serif" font-size="9.00">RulesKeywords</text>
</g>
<!-- r1&#45;&gt;v9 -->
<g id="edge2" class="edge"><title>r1&#45;&gt;v9</title>
<path fill="none" stroke="black" d="M868.5,-289.885C868.5,-256.489 868.5,-129.348 868.5,-85.206"/>
<polygon fill="black" stroke="black" points="868.5,-80.0114 870.75,-85.0113 868.5,-82.5114 868.5,-85.0114 868.5,-85.0114 868.5,-85.0114 868.5,-82.5114 866.25,-85.0114 868.5,-80.0114 868.5,-80.0114"/>
</g>
<!-- e7 -->
<g id="node3" class="node"><title>e7</title>
</g>
<!-- v7 -->
<g id="v7_SmartLight" class="node"><title>v7</title>
<ellipse fill="none" stroke="black" cx="757.5" cy="-11" rx="43" ry="11"/>
<text text-anchor="middle" x="757.5" y="-8.8" font-family="sans-serif" font-size="9.00">SmartLight</text>
</g>
<!-- e7&#45;&gt;v7 -->
<g id="edge27" class="edge"><title>e7&#45;&gt;v7</title>
<path fill="none" stroke="green" d="M757.5,-64.1674C757.5,-55.5862 757.5,-34.5957 757.5,-22.0117"/>
<polygon fill="green" stroke="green" points="761,-67.3001 754,-67.2999 754,-65.8999 761,-65.9001 761,-67.3001"/>
<polyline fill="none" stroke="green" points="757.5,-68 757.5,-64.5 "/>
</g>
<!-- v1 -->
<g id="v1_InstallationBus" class="node"><title>v1</title>
<ellipse fill="none" stroke="black" cx="123.5" cy="-69" rx="61" ry="11"/>
<text text-anchor="middle" x="123.5" y="-66.8" font-family="sans-serif" font-size="9.00">InstallationBus</text>
</g>
<!-- v0&#45;&gt;v1 -->
<g id="edge3" class="edge"><title>v0&#45;&gt;v1</title>
<path fill="none" stroke="black" d="M307.457,-232.26C274.497,-203.187 176.766,-116.984 138.812,-83.506"/>
<polygon fill="black" stroke="black" points="134.907,-80.0619 140.146,-81.682 136.782,-81.7156 138.657,-83.3694 138.657,-83.3694 138.657,-83.3694 136.782,-81.7156 137.169,-85.0568 134.907,-80.0619 134.907,-80.0619"/>
</g>
<!-- v3 -->
<g id="v3_Floor" class="node"><title>v3</title>
<ellipse fill="none" stroke="black" cx="456.5" cy="-185" rx="25" ry="11"/>
<text text-anchor="middle" x="456.5" y="-182.8" font-family="sans-serif" font-size="9.00">Floor</text>
</g>
<!-- v0&#45;&gt;v3 -->
<g id="edge4" class="edge"><title>v0&#45;&gt;v3</title>
<path fill="none" stroke="black" d="M338.566,-233.857C364.042,-223.519 407.852,-205.741 434.303,-195.007"/>
<polygon fill="black" stroke="black" points="439.032,-193.088 435.245,-197.053 436.716,-194.029 434.399,-194.969 434.399,-194.969 434.399,-194.969 436.716,-194.029 433.553,-192.884 439.032,-193.088 439.032,-193.088"/>
</g>
<!-- v2 -->
<g id="v2_Data" class="node"><title>v2</title>
<ellipse fill="none" stroke="black" cx="21.5" cy="-11" rx="21.5" ry="11"/>
<text text-anchor="middle" x="21.5" y="-8.8" font-family="sans-serif" font-size="9.00">Data</text>
</g>
<!-- v1&#45;&gt;v2 -->
<g id="edge5" class="edge"><title>v1&#45;&gt;v2</title>
<path fill="none" stroke="black" d="M105.733,-58.2455C87.3165,-48.1346 58.6597,-32.4014 39.9831,-22.1476"/>
<polygon fill="black" stroke="black" points="35.4621,-19.6655 40.9279,-20.0995 37.6536,-20.8687 39.845,-22.0718 39.845,-22.0718 39.845,-22.0718 37.6536,-20.8687 38.7622,-24.0441 35.4621,-19.6655 35.4621,-19.6655"/>
</g>
<!-- v6 -->
<g id="v6_Laptop" class="node"><title>v6</title>
<ellipse fill="none" stroke="black" cx="667.5" cy="-11" rx="29" ry="11"/>
<text text-anchor="middle" x="667.5" y="-8.8" font-family="sans-serif" font-size="9.00">Laptop</text>
</g>
<!-- v1&#45;&gt;v6 -->
<g id="edge20" class="edge"><title>v1&#45;&gt;v6</title>
<path fill="none" stroke="green" d="M176.181,-63.4302C301.09,-52.5639 606.459,-25.8044 628.5,-22 634.01,-21.0489 639.885,-19.7156 645.359,-18.332"/>
</g>
<!-- v13 -->
<g id="v13_SmartLight" class="node"><title>v13</title>
<ellipse fill="none" stroke="black" cx="201.5" cy="-11" rx="43" ry="11"/>
<text text-anchor="middle" x="201.5" y="-8.8" font-family="sans-serif" font-size="9.00">SmartLight</text>
</g>
<!-- v1&#45;&gt;v13 -->
<g id="edge21" class="edge"><title>v1&#45;&gt;v13</title>
<path fill="none" stroke="green" d="M137.087,-58.2455C151.403,-47.9671 173.812,-31.8787 188.069,-21.6427"/>
</g>
<!-- v14 -->
<g id="v14_Server" class="node"><title>v14</title>
<ellipse fill="none" stroke="black" cx="291.5" cy="-11" rx="29" ry="11"/>
<text text-anchor="middle" x="291.5" y="-8.8" font-family="sans-serif" font-size="9.00">Server</text>
</g>
<!-- v1&#45;&gt;v14 -->
<g id="edge22" class="edge"><title>v1&#45;&gt;v14</title>
<path fill="none" stroke="green" d="M150.492,-59.0026C184.069,-47.8104 240.655,-28.9484 270.929,-18.8571"/>
</g>
<!-- v15 -->
<g id="v15_FireAlarm" class="node"><title>v15</title>
<ellipse fill="none" stroke="black" cx="100.5" cy="-11" rx="39.5" ry="11"/>
<text text-anchor="middle" x="100.5" y="-8.8" font-family="sans-serif" font-size="9.00">FireAlarm</text>
</g>
<!-- v1&#45;&gt;v15 -->
<g id="edge23" class="edge"><title>v1&#45;&gt;v15</title>
<path fill="none" stroke="green" d="M119.388,-57.9883C115.253,-47.9211 108.909,-32.4737 104.732,-22.3039"/>
</g>
<!-- v17 -->
<g id="v17_SmartLight" class="node"><title>v17</title>
<ellipse fill="none" stroke="black" cx="381.5" cy="-11" rx="43" ry="11"/>
<text text-anchor="middle" x="381.5" y="-8.8" font-family="sans-serif" font-size="9.00">SmartLight</text>
</g>
<!-- v1&#45;&gt;v17 -->
<g id="edge24" class="edge"><title>v1&#45;&gt;v17</title>
<path fill="none" stroke="green" d="M159.918,-60.0953C210.895,-49.0306 302.64,-29.1169 350.516,-18.7251"/>
</g>
<!-- v18 -->
<g id="v18_Workstation" class="node"><title>v18</title>
<ellipse fill="none" stroke="black" cx="489.5" cy="-11" rx="47" ry="11"/>
<text text-anchor="middle" x="489.5" y="-8.8" font-family="sans-serif" font-size="9.00">Workstation</text>
</g>
<!-- v1&#45;&gt;v18 -->
<g id="edge25" class="edge"><title>v1&#45;&gt;v18</title>
<path fill="none" stroke="green" d="M169.262,-61.6384C229.803,-53.1243 339.8,-37.3146 433.5,-22 440.323,-20.8849 447.601,-19.6319 454.576,-18.3999"/>
</g>
<!-- v4 -->
<g id="v4_Room" class="node"><title>v4</title>
<ellipse fill="none" stroke="black" cx="667.5" cy="-127" rx="21.5" ry="11"/>
<text text-anchor="middle" x="667.5" y="-124.8" font-family="sans-serif" font-size="9.00">Room</text>
</g>
<!-- v3&#45;&gt;v4 -->
<g id="edge6" class="edge"><title>v3&#45;&gt;v4</title>
<path fill="none" stroke="black" d="M477.116,-178.529C516.595,-168.051 602.629,-145.217 644.154,-134.196"/>
<polygon fill="black" stroke="black" points="649.231,-132.849 644.976,-136.306 646.815,-133.49 644.398,-134.131 644.398,-134.131 644.398,-134.131 646.815,-133.49 643.821,-131.957 649.231,-132.849 649.231,-132.849"/>
</g>
<!-- v8 -->
<g id="v8_Hallway" class="node"><title>v8</title>
<ellipse fill="none" stroke="black" cx="587.5" cy="-11" rx="32.5" ry="11"/>
<text text-anchor="middle" x="587.5" y="-8.8" font-family="sans-serif" font-size="9.00">Hallway</text>
</g>
<!-- v3&#45;&gt;v8 -->
<g id="edge7" class="edge"><title>v3&#45;&gt;v8</title>
<path fill="none" stroke="black" d="M463.918,-174.26C485.882,-145.423 550.656,-60.3758 576.586,-26.3296"/>
<polygon fill="black" stroke="black" points="579.837,-22.0619 578.597,-27.4029 578.322,-24.0507 576.807,-26.0396 576.807,-26.0396 576.807,-26.0396 578.322,-24.0507 575.017,-24.6763 579.837,-22.0619 579.837,-22.0619"/>
</g>
<!-- v12 -->
<g id="v12_Room" class="node"><title>v12</title>
<ellipse fill="none" stroke="black" cx="269.5" cy="-69" rx="21.5" ry="11"/>
<text text-anchor="middle" x="269.5" y="-66.8" font-family="sans-serif" font-size="9.00">Room</text>
</g>
<!-- v3&#45;&gt;v12 -->
<g id="edge8" class="edge"><title>v3&#45;&gt;v12</title>
<path fill="none" stroke="black" d="M442.749,-175.617C409.492,-155.343 324.709,-103.657 287.486,-80.9644"/>
<polygon fill="black" stroke="black" points="282.768,-78.0887 288.209,-78.7702 284.903,-79.39 287.038,-80.6914 287.038,-80.6914 287.038,-80.6914 284.903,-79.39 285.866,-82.6125 282.768,-78.0887 282.768,-78.0887"/>
</g>
<!-- v16 -->
<g id="v16_Room" class="node"><title>v16</title>
<ellipse fill="none" stroke="black" cx="456.5" cy="-69" rx="21.5" ry="11"/>
<text text-anchor="middle" x="456.5" y="-66.8" font-family="sans-serif" font-size="9.00">Room</text>
</g>
<!-- v3&#45;&gt;v16 -->
<g id="edge9" class="edge"><title>v3&#45;&gt;v16</title>
<path fill="none" stroke="black" d="M456.5,-173.883C456.5,-153.906 456.5,-109.276 456.5,-85.5402"/>
<polygon fill="black" stroke="black" points="456.5,-80.2579 458.75,-85.2579 456.5,-82.7579 456.5,-85.2579 456.5,-85.2579 456.5,-85.2579 456.5,-82.7579 454.25,-85.258 456.5,-80.2579 456.5,-80.2579"/>
</g>
<!-- v5 -->
<g id="v5_Visitor" class="node"><title>v5</title>
<ellipse fill="none" stroke="black" cx="667.5" cy="-69" rx="32.5" ry="11"/>
<text text-anchor="middle" x="667.5" y="-66.8" font-family="sans-serif" font-size="9.00">Visitor</text>
</g>
<!-- v4&#45;&gt;v5 -->
<g id="edge10" class="edge"><title>v4&#45;&gt;v5</title>
<path fill="none" stroke="black" d="M667.5,-115.988C667.5,-107.494 667.5,-95.1697 667.5,-85.4169"/>
<polygon fill="black" stroke="black" points="667.5,-80.3039 669.75,-85.3038 667.5,-82.8039 667.5,-85.3039 667.5,-85.3039 667.5,-85.3039 667.5,-82.8039 665.25,-85.3039 667.5,-80.3039 667.5,-80.3039"/>
</g>
<!-- v4&#45;&gt;v7 -->
<g id="edge11" class="edge"><title>v4&#45;&gt;v7</title>
<path fill="none" stroke="black" d="M687.644,-123.11C711.2,-118.534 749.17,-107.161 766.5,-80 776.743,-63.9452 770.677,-41.4125 764.68,-26.7607"/>
<polygon fill="black" stroke="black" points="762.673,-22.1146 766.721,-25.8122 763.664,-24.4096 764.656,-26.7046 764.656,-26.7046 764.656,-26.7046 763.664,-24.4096 762.59,-27.597 762.673,-22.1146 762.673,-22.1146"/>
</g>
<!-- v4&#45;&gt;v8 -->
<g id="edge26" class="edge"><title>v4&#45;&gt;v8</title>
<path fill="none" stroke="green" d="M658.141,-117.031C649.15,-108.133 635.494,-93.8586 625.5,-80 611.578,-60.6945 598.838,-35.7934 592.235,-22.1156"/>
</g>
<!-- v5&#45;&gt;v6 -->
<g id="edge12" class="edge"><title>v5&#45;&gt;v6</title>
<path fill="none" stroke="black" d="M667.5,-57.9883C667.5,-49.4941 667.5,-37.1697 667.5,-27.4169"/>
<polygon fill="black" stroke="black" points="667.5,-22.3039 669.75,-27.3038 667.5,-24.8039 667.5,-27.3039 667.5,-27.3039 667.5,-27.3039 667.5,-24.8039 665.25,-27.3039 667.5,-22.3039 667.5,-22.3039"/>
</g>
<!-- v8&#45;&gt;v12 -->
<g id="edge28" class="edge"><title>v8&#45;&gt;v12</title>
<path fill="none" stroke="green" d="M562.689,-18.2053C557.054,-19.5315 551.084,-20.8714 545.5,-22 450.271,-41.249 335.38,-58.4976 289.672,-65.1228"/>
</g>
<!-- v8&#45;&gt;v16 -->
<g id="edge29" class="edge"><title>v8&#45;&gt;v16</title>
<path fill="none" stroke="green" d="M568.596,-20.0812C542.564,-31.2093 496.17,-51.042 472.042,-61.3562"/>
</g>
<!-- v10 -->
<g id="v10_ExitRoom" class="node"><title>v10</title>
<ellipse fill="none" stroke="black" cx="861.5" cy="-11" rx="36" ry="11"/>
<text text-anchor="middle" x="861.5" y="-8.8" font-family="sans-serif" font-size="9.00">ExitRoom</text>
</g>
<!-- v9&#45;&gt;v10 -->
<g id="edge13" class="edge"><title>v9&#45;&gt;v10</title>
<path fill="none" stroke="black" d="M867.249,-57.9883C866.187,-49.4941 864.646,-37.1697 863.427,-27.4169"/>
<polygon fill="black" stroke="black" points="862.788,-22.3039 865.641,-26.9861 863.098,-24.7846 863.408,-27.2653 863.408,-27.2653 863.408,-27.2653 863.098,-24.7846 861.176,-27.5444 862.788,-22.3039 862.788,-22.3039"/>
</g>
<!-- v11 -->
<g id="v11_ExitRoom" class="node"><title>v11</title>
<ellipse fill="none" stroke="black" cx="951.5" cy="-11" rx="36" ry="11"/>
<text text-anchor="middle" x="951.5" y="-8.8" font-family="sans-serif" font-size="9.00">ExitRoom</text>
</g>
<!-- v9&#45;&gt;v11 -->
<g id="edge14" class="edge"><title>v9&#45;&gt;v11</title>
<path fill="none" stroke="black" d="M882.957,-58.2455C896.932,-48.8171 918.152,-34.5 933.276,-24.2957"/>
<polygon fill="black" stroke="black" points="937.759,-21.2708 934.873,-25.9325 935.687,-22.6691 933.614,-24.0674 933.614,-24.0674 933.614,-24.0674 935.687,-22.6691 932.356,-22.2022 937.759,-21.2708 937.759,-21.2708"/>
</g>
<!-- v12&#45;&gt;v13 -->
<g id="edge15" class="edge"><title>v12&#45;&gt;v13</title>
<path fill="none" stroke="black" d="M258.875,-59.25C247.733,-50.0744 230.1,-35.5532 217.321,-25.0291"/>
<polygon fill="black" stroke="black" points="213.19,-21.6267 218.48,-23.0685 215.119,-23.216 217.049,-24.8053 217.049,-24.8053 217.049,-24.8053 215.119,-23.216 215.619,-26.5422 213.19,-21.6267 213.19,-21.6267"/>
</g>
<!-- v12&#45;&gt;v14 -->
<g id="edge16" class="edge"><title>v12&#45;&gt;v14</title>
<path fill="none" stroke="black" d="M273.433,-57.9883C276.843,-49.3083 281.824,-36.6286 285.693,-26.7806"/>
<polygon fill="black" stroke="black" points="287.601,-21.925 287.867,-27.4015 286.687,-24.2519 285.773,-26.5788 285.773,-26.5788 285.773,-26.5788 286.687,-24.2519 283.678,-25.756 287.601,-21.925 287.601,-21.925"/>
</g>
<!-- v12&#45;&gt;v15 -->
<g id="edge17" class="edge"><title>v12&#45;&gt;v15</title>
<path fill="none" stroke="black" d="M252.365,-62.3222C223.412,-52.7282 164.515,-33.2121 129.181,-21.5036"/>
<polygon fill="black" stroke="black" points="124.145,-19.8349 129.599,-19.2719 126.518,-20.6213 128.891,-21.4077 128.891,-21.4077 128.891,-21.4077 126.518,-20.6213 128.183,-23.5435 124.145,-19.8349 124.145,-19.8349"/>
</g>
<!-- v16&#45;&gt;v17 -->
<g id="edge18" class="edge"><title>v16&#45;&gt;v17</title>
<path fill="none" stroke="black" d="M445.109,-59.4948C432.705,-50.2334 412.736,-35.3229 398.482,-24.6796"/>
<polygon fill="black" stroke="black" points="394.256,-21.5244 399.608,-22.713 396.259,-23.0202 398.262,-24.5159 398.262,-24.5159 398.262,-24.5159 396.259,-23.0202 396.916,-26.3188 394.256,-21.5244 394.256,-21.5244"/>
</g>
<!-- v16&#45;&gt;v18 -->
<g id="edge19" class="edge"><title>v16&#45;&gt;v18</title>
<path fill="none" stroke="black" d="M462.248,-58.2455C467.437,-49.4409 475.137,-36.373 481.031,-26.3724"/>
<polygon fill="black" stroke="black" points="483.596,-22.0198 482.995,-27.4698 482.326,-24.1736 481.057,-26.3275 481.057,-26.3275 481.057,-26.3275 482.326,-24.1736 479.119,-25.1851 483.596,-22.0198 483.596,-22.0198"/>
</g>
</g>
</svg>
