<?xml version="1.0" encoding="UTF-8" standalone="no"?>
<?xml-stylesheet href="style.css" type="text/css"?>
<!DOCTYPE svg PUBLIC "-//W3C//DTD SVG 1.1//EN"
 "http://www.w3.org/Graphics/SVG/1.1/DTD/svg11.dtd">
<!-- Generated by graphviz version 2.38.0 (20140413.2041)
 -->
<!-- Title: 13.svg Pages: 1 -->
<svg width="1020pt" height="316pt"
 viewBox="0.00 0.00 1020.00 316.00" xmlns="http://www.w3.org/2000/svg" xmlns:xlink="http://www.w3.org/1999/xlink">
<g id="graph0" class="graph" transform="scale(1 1) rotate(0) translate(4 312)">
<title>13.svg</title>
<polygon fill="white" stroke="none" points="-4,4 -4,-312 1016,-312 1016,4 -4,4"/>
<!-- r0 -->
<g id="node1" class="node"><title>r0</title>
<polygon fill="none" stroke="black" stroke-dasharray="5,2" points="166.5,-308 143.5,-308 143.5,-290 166.5,-290 166.5,-308"/>
<text text-anchor="middle" x="155" y="-296.8" font-family="serif" font-size="9.00">0</text>
</g>
<!-- v0 -->
<g id="v0_Building" class="node"><title>v0</title>
<ellipse fill="none" stroke="black" cx="155" cy="-243" rx="36" ry="11"/>
<text text-anchor="middle" x="155" y="-240.8" font-family="sans-serif" font-size="9.00">Building</text>
</g>
<!-- r0&#45;&gt;v0 -->
<g id="edge1" class="edge"><title>r0&#45;&gt;v0</title>
<path fill="none" stroke="black" d="M155,-289.562C155,-281.453 155,-269.014 155,-259.181"/>
<polygon fill="black" stroke="black" points="155,-254.03 157.25,-259.03 155,-256.53 155,-259.03 155,-259.03 155,-259.03 155,-256.53 152.75,-259.03 155,-254.03 155,-254.03"/>
</g>
<!-- r1 -->
<g id="node2" class="node"><title>r1</title>
<polygon fill="none" stroke="black" stroke-dasharray="5,2" points="942.5,-308 919.5,-308 919.5,-290 942.5,-290 942.5,-308"/>
<text text-anchor="middle" x="931" y="-296.8" font-family="serif" font-size="9.00">1</text>
</g>
<!-- v9 -->
<g id="v9_RulesKeywords" class="node"><title>v9</title>
<ellipse fill="none" stroke="black" cx="931" cy="-69" rx="54" ry="11"/>
<text text-anchor="middle" x="931" y="-66.8" font-family="sans-serif" font-size="9.00">RulesKeywords</text>
</g>
<!-- r1&#45;&gt;v9 -->
<g id="edge2" class="edge"><title>r1&#45;&gt;v9</title>
<path fill="none" stroke="black" d="M931,-289.885C931,-256.489 931,-129.348 931,-85.206"/>
<polygon fill="black" stroke="black" points="931,-80.0114 933.25,-85.0113 931,-82.5114 931,-85.0114 931,-85.0114 931,-85.0114 931,-82.5114 928.75,-85.0114 931,-80.0114 931,-80.0114"/>
</g>
<!-- e7 -->
<g id="node3" class="node"><title>e7</title>
</g>
<!-- v7 -->
<g id="v7_SmartLight" class="node"><title>v7</title>
<ellipse fill="none" stroke="black" cx="677" cy="-11" rx="43" ry="11"/>
<text text-anchor="middle" x="677" y="-8.8" font-family="sans-serif" font-size="9.00">SmartLight</text>
</g>
<!-- e7&#45;&gt;v7 -->
<g id="edge27" class="edge"><title>e7&#45;&gt;v7</title>
<path fill="none" stroke="green" d="M677,-64.1674C677,-55.5862 677,-34.5957 677,-22.0117"/>
<polygon fill="green" stroke="green" points="680.5,-67.3001 673.5,-67.2999 673.5,-65.8999 680.5,-65.9001 680.5,-67.3001"/>
<polyline fill="none" stroke="green" points="677,-68 677,-64.5 "/>
</g>
<!-- v1 -->
<g id="v1_InstallationBus" class="node"><title>v1</title>
<ellipse fill="none" stroke="black" cx="61" cy="-69" rx="61" ry="11"/>
<text text-anchor="middle" x="61" y="-66.8" font-family="sans-serif" font-size="9.00">InstallationBus</text>
</g>
<!-- v0&#45;&gt;v1 -->
<g id="edge3" class="edge"><title>v0&#45;&gt;v1</title>
<path fill="none" stroke="black" d="M149.54,-232.009C133.705,-203.034 87.7064,-118.867 69.0262,-84.6863"/>
<polygon fill="black" stroke="black" points="66.4752,-80.0185 70.8475,-83.327 67.6742,-82.2122 68.8731,-84.406 68.8731,-84.406 68.8731,-84.406 67.6742,-82.2122 66.8987,-85.4851 66.4752,-80.0185 66.4752,-80.0185"/>
</g>
<!-- v3 -->
<g id="v3_Floor" class="node"><title>v3</title>
<ellipse fill="none" stroke="black" cx="220" cy="-185" rx="25" ry="11"/>
<text text-anchor="middle" x="220" y="-182.8" font-family="sans-serif" font-size="9.00">Floor</text>
</g>
<!-- v0&#45;&gt;v3 -->
<g id="edge4" class="edge"><title>v0&#45;&gt;v3</title>
<path fill="none" stroke="black" d="M166.026,-232.5C176.83,-223.192 193.364,-208.948 205.285,-198.677"/>
<polygon fill="black" stroke="black" points="209.136,-195.359 206.817,-200.328 207.242,-196.991 205.348,-198.623 205.348,-198.623 205.348,-198.623 207.242,-196.991 203.88,-196.918 209.136,-195.359 209.136,-195.359"/>
</g>
<!-- v2 -->
<g id="v2_Data" class="node"><title>v2</title>
<ellipse fill="none" stroke="black" cx="54" cy="-11" rx="21.5" ry="11"/>
<text text-anchor="middle" x="54" y="-8.8" font-family="sans-serif" font-size="9.00">Data</text>
</g>
<!-- v1&#45;&gt;v2 -->
<g id="edge5" class="edge"><title>v1&#45;&gt;v2</title>
<path fill="none" stroke="black" d="M59.7485,-57.9883C58.6868,-49.4941 57.1462,-37.1697 55.9271,-27.4169"/>
<polygon fill="black" stroke="black" points="55.288,-22.3039 58.1409,-26.9861 55.5981,-24.7846 55.9082,-27.2653 55.9082,-27.2653 55.9082,-27.2653 55.5981,-24.7846 53.6756,-27.5444 55.288,-22.3039 55.288,-22.3039"/>
</g>
<!-- v6 -->
<g id="v6_Laptop" class="node"><title>v6</title>
<ellipse fill="none" stroke="black" cx="587" cy="-11" rx="29" ry="11"/>
<text text-anchor="middle" x="587" y="-8.8" font-family="sans-serif" font-size="9.00">Laptop</text>
</g>
<!-- v1&#45;&gt;v6 -->
<g id="edge20" class="edge"><title>v1&#45;&gt;v6</title>
<path fill="none" stroke="green" d="M113.942,-63.5024C231.447,-53.4488 507.001,-29.4541 549,-22 554.239,-21.0701 559.813,-19.7786 565.032,-18.432"/>
</g>
<!-- v11 -->
<g id="v11_Workstation" class="node"><title>v11</title>
<ellipse fill="none" stroke="black" cx="785" cy="-11" rx="47" ry="11"/>
<text text-anchor="middle" x="785" y="-8.8" font-family="sans-serif" font-size="9.00">Workstation</text>
</g>
<!-- v1&#45;&gt;v11 -->
<g id="edge21" class="edge"><title>v1&#45;&gt;v11</title>
<path fill="none" stroke="green" d="M114.549,-63.6797C137.473,-61.8657 164.545,-59.7704 189,-58 428.905,-40.6325 490.245,-51.1859 729,-22 736.156,-21.1252 743.785,-19.9362 751.034,-18.6833"/>
</g>
<!-- v14 -->
<g id="v14_SmartLight" class="node"><title>v14</title>
<ellipse fill="none" stroke="black" cx="220" cy="-11" rx="43" ry="11"/>
<text text-anchor="middle" x="220" y="-8.8" font-family="sans-serif" font-size="9.00">SmartLight</text>
</g>
<!-- v1&#45;&gt;v14 -->
<g id="edge22" class="edge"><title>v1&#45;&gt;v14</title>
<path fill="none" stroke="green" d="M86.5461,-59.0026C116.92,-48.3051 167.187,-30.6008 196.59,-20.2451"/>
</g>
<!-- v16 -->
<g id="v16_SmartLight" class="node"><title>v16</title>
<ellipse fill="none" stroke="black" cx="497" cy="-11" rx="43" ry="11"/>
<text text-anchor="middle" x="497" y="-8.8" font-family="sans-serif" font-size="9.00">SmartLight</text>
</g>
<!-- v1&#45;&gt;v16 -->
<g id="edge23" class="edge"><title>v1&#45;&gt;v16</title>
<path fill="none" stroke="green" d="M112.258,-62.9461C185.868,-55.4384 325.688,-40.2454 444,-22 450.756,-20.9582 457.968,-19.6974 464.828,-18.4272"/>
</g>
<!-- v17 -->
<g id="v17_Server" class="node"><title>v17</title>
<ellipse fill="none" stroke="black" cx="310" cy="-11" rx="29" ry="11"/>
<text text-anchor="middle" x="310" y="-8.8" font-family="sans-serif" font-size="9.00">Server</text>
</g>
<!-- v1&#45;&gt;v17 -->
<g id="edge24" class="edge"><title>v1&#45;&gt;v17</title>
<path fill="none" stroke="green" d="M98.8452,-60.2574C141.159,-51.4826 211.67,-36.5074 272,-22 277.041,-20.7878 282.438,-19.414 287.535,-18.0814"/>
</g>
<!-- v18 -->
<g id="v18_FireAlarm" class="node"><title>v18</title>
<ellipse fill="none" stroke="black" cx="396" cy="-11" rx="39.5" ry="11"/>
<text text-anchor="middle" x="396" y="-8.8" font-family="sans-serif" font-size="9.00">FireAlarm</text>
</g>
<!-- v1&#45;&gt;v18 -->
<g id="edge25" class="edge"><title>v1&#45;&gt;v18</title>
<path fill="none" stroke="green" d="M105.851,-61.4709C162.427,-53.0836 262.641,-37.7234 348,-22 354.027,-20.8897 360.461,-19.613 366.596,-18.3512"/>
</g>
<!-- v4 -->
<g id="v4_Room" class="node"><title>v4</title>
<ellipse fill="none" stroke="black" cx="617" cy="-127" rx="21.5" ry="11"/>
<text text-anchor="middle" x="617" y="-124.8" font-family="sans-serif" font-size="9.00">Room</text>
</g>
<!-- v3&#45;&gt;v4 -->
<g id="edge6" class="edge"><title>v3&#45;&gt;v4</title>
<path fill="none" stroke="black" d="M243.06,-180.747C312.552,-170.945 519.59,-141.74 591.81,-131.553"/>
<polygon fill="black" stroke="black" points="596.773,-130.853 592.137,-133.78 594.298,-131.202 591.822,-131.552 591.822,-131.552 591.822,-131.552 594.298,-131.202 591.508,-129.324 596.773,-130.853 596.773,-130.853"/>
</g>
<!-- v8 -->
<g id="v8_Hallway" class="node"><title>v8</title>
<ellipse fill="none" stroke="black" cx="126" cy="-11" rx="32.5" ry="11"/>
<text text-anchor="middle" x="126" y="-8.8" font-family="sans-serif" font-size="9.00">Hallway</text>
</g>
<!-- v3&#45;&gt;v8 -->
<g id="edge7" class="edge"><title>v3&#45;&gt;v8</title>
<path fill="none" stroke="black" d="M214.54,-174.009C198.705,-145.034 152.706,-60.8671 134.026,-26.6863"/>
<polygon fill="black" stroke="black" points="131.475,-22.0185 135.847,-25.327 132.674,-24.2122 133.873,-26.406 133.873,-26.406 133.873,-26.406 132.674,-24.2122 131.899,-27.4851 131.475,-22.0185 131.475,-22.0185"/>
</g>
<!-- v13 -->
<g id="v13_Room" class="node"><title>v13</title>
<ellipse fill="none" stroke="black" cx="220" cy="-69" rx="21.5" ry="11"/>
<text text-anchor="middle" x="220" y="-66.8" font-family="sans-serif" font-size="9.00">Room</text>
</g>
<!-- v3&#45;&gt;v13 -->
<g id="edge8" class="edge"><title>v3&#45;&gt;v13</title>
<path fill="none" stroke="black" d="M220,-173.883C220,-153.906 220,-109.276 220,-85.5402"/>
<polygon fill="black" stroke="black" points="220,-80.2579 222.25,-85.2579 220,-82.7579 220,-85.2579 220,-85.2579 220,-85.2579 220,-82.7579 217.75,-85.258 220,-80.2579 220,-80.2579"/>
</g>
<!-- v15 -->
<g id="v15_Room" class="node"><title>v15</title>
<ellipse fill="none" stroke="black" cx="377" cy="-69" rx="21.5" ry="11"/>
<text text-anchor="middle" x="377" y="-66.8" font-family="sans-serif" font-size="9.00">Room</text>
</g>
<!-- v3&#45;&gt;v15 -->
<g id="edge9" class="edge"><title>v3&#45;&gt;v15</title>
<path fill="none" stroke="black" d="M232.059,-175.244C260.118,-154.869 329.78,-104.287 361.192,-81.4782"/>
<polygon fill="black" stroke="black" points="365.54,-78.3214 362.816,-83.0799 363.517,-79.7903 361.494,-81.2592 361.494,-81.2592 361.494,-81.2592 363.517,-79.7903 360.172,-79.4385 365.54,-78.3214 365.54,-78.3214"/>
</g>
<!-- v5 -->
<g id="v5_Visitor" class="node"><title>v5</title>
<ellipse fill="none" stroke="black" cx="587" cy="-69" rx="32.5" ry="11"/>
<text text-anchor="middle" x="587" y="-66.8" font-family="sans-serif" font-size="9.00">Visitor</text>
</g>
<!-- v4&#45;&gt;v5 -->
<g id="edge10" class="edge"><title>v4&#45;&gt;v5</title>
<path fill="none" stroke="black" d="M611.774,-116.246C607.1,-107.52 600.183,-94.6082 594.845,-84.6435"/>
<polygon fill="black" stroke="black" points="592.368,-80.0198 596.712,-83.3646 593.548,-82.2235 594.729,-84.4272 594.729,-84.4272 594.729,-84.4272 593.548,-82.2235 592.746,-85.4897 592.368,-80.0198 592.368,-80.0198"/>
</g>
<!-- v4&#45;&gt;v7 -->
<g id="edge11" class="edge"><title>v4&#45;&gt;v7</title>
<path fill="none" stroke="black" d="M622.116,-116.28C632.646,-96.2734 656.798,-50.3837 669.255,-26.7158"/>
<polygon fill="black" stroke="black" points="671.726,-22.0199 671.389,-27.4925 670.562,-24.2322 669.398,-26.4445 669.398,-26.4445 669.398,-26.4445 670.562,-24.2322 667.406,-25.3966 671.726,-22.0199 671.726,-22.0199"/>
</g>
<!-- v4&#45;&gt;v8 -->
<g id="edge26" class="edge"><title>v4&#45;&gt;v8</title>
<path fill="none" stroke="green" d="M596.417,-123.448C550.893,-117.6 438.379,-102.016 346,-80 271.724,-62.2983 185.817,-33.1583 146.981,-19.5018"/>
</g>
<!-- v4&#45;&gt;v11 -->
<g id="edge12" class="edge"><title>v4&#45;&gt;v11</title>
<path fill="none" stroke="black" d="M629.249,-117.908C643.07,-108.76 666.207,-93.3944 686,-80 714.417,-60.7698 747.206,-38.1653 767.006,-24.47"/>
<polygon fill="black" stroke="black" points="771.268,-21.5209 768.436,-26.2163 769.212,-22.9435 767.156,-24.366 767.156,-24.366 767.156,-24.366 769.212,-22.9435 765.876,-22.5158 771.268,-21.5209 771.268,-21.5209"/>
</g>
<!-- v5&#45;&gt;v6 -->
<g id="edge13" class="edge"><title>v5&#45;&gt;v6</title>
<path fill="none" stroke="black" d="M587,-57.9883C587,-49.4941 587,-37.1697 587,-27.4169"/>
<polygon fill="black" stroke="black" points="587,-22.3039 589.25,-27.3038 587,-24.8039 587,-27.3039 587,-27.3039 587,-27.3039 587,-24.8039 584.75,-27.3039 587,-22.3039 587,-22.3039"/>
</g>
<!-- v8&#45;&gt;v13 -->
<g id="edge28" class="edge"><title>v8&#45;&gt;v13</title>
<path fill="none" stroke="green" d="M140.817,-20.827C159.008,-31.6646 189.576,-49.8751 206.93,-60.2134"/>
</g>
<!-- v8&#45;&gt;v15 -->
<g id="edge29" class="edge"><title>v8&#45;&gt;v15</title>
<path fill="none" stroke="green" d="M151.303,-18.0984C156.803,-19.4034 162.593,-20.7615 168,-22 237.714,-37.97 320.76,-55.9325 357.67,-63.8611"/>
</g>
<!-- v10 -->
<g id="v10_ExitRoom" class="node"><title>v10</title>
<ellipse fill="none" stroke="black" cx="886" cy="-11" rx="36" ry="11"/>
<text text-anchor="middle" x="886" y="-8.8" font-family="sans-serif" font-size="9.00">ExitRoom</text>
</g>
<!-- v9&#45;&gt;v10 -->
<g id="edge14" class="edge"><title>v9&#45;&gt;v10</title>
<path fill="none" stroke="black" d="M922.955,-57.9883C915.788,-49.0694 905.228,-35.9276 897.229,-25.974"/>
<polygon fill="black" stroke="black" points="893.975,-21.925 898.861,-24.4132 895.541,-23.8738 897.107,-25.8226 897.107,-25.8226 897.107,-25.8226 895.541,-23.8738 895.354,-27.232 893.975,-21.925 893.975,-21.925"/>
</g>
<!-- v12 -->
<g id="v12_ExitRoom" class="node"><title>v12</title>
<ellipse fill="none" stroke="black" cx="976" cy="-11" rx="36" ry="11"/>
<text text-anchor="middle" x="976" y="-8.8" font-family="sans-serif" font-size="9.00">ExitRoom</text>
</g>
<!-- v9&#45;&gt;v12 -->
<g id="edge15" class="edge"><title>v9&#45;&gt;v12</title>
<path fill="none" stroke="black" d="M939.045,-57.9883C946.212,-49.0694 956.772,-35.9276 964.771,-25.974"/>
<polygon fill="black" stroke="black" points="968.025,-21.925 966.646,-27.232 966.459,-23.8738 964.893,-25.8226 964.893,-25.8226 964.893,-25.8226 966.459,-23.8738 963.139,-24.4132 968.025,-21.925 968.025,-21.925"/>
</g>
<!-- v13&#45;&gt;v14 -->
<g id="edge16" class="edge"><title>v13&#45;&gt;v14</title>
<path fill="none" stroke="black" d="M220,-57.9883C220,-49.4941 220,-37.1697 220,-27.4169"/>
<polygon fill="black" stroke="black" points="220,-22.3039 222.25,-27.3038 220,-24.8039 220,-27.3039 220,-27.3039 220,-27.3039 220,-24.8039 217.75,-27.3039 220,-22.3039 220,-22.3039"/>
</g>
<!-- v15&#45;&gt;v16 -->
<g id="edge17" class="edge"><title>v15&#45;&gt;v16</title>
<path fill="none" stroke="black" d="M392.198,-60.9076C412.655,-51.3608 449.257,-34.2802 473.335,-23.0436"/>
<polygon fill="black" stroke="black" points="477.975,-20.8782 474.396,-25.0316 475.71,-21.9354 473.444,-22.9927 473.444,-22.9927 473.444,-22.9927 475.71,-21.9354 472.493,-20.9538 477.975,-20.8782 477.975,-20.8782"/>
</g>
<!-- v15&#45;&gt;v17 -->
<g id="edge18" class="edge"><title>v15&#45;&gt;v17</title>
<path fill="none" stroke="black" d="M366.531,-59.25C355.421,-49.9638 337.76,-35.2025 325.135,-24.6504"/>
<polygon fill="black" stroke="black" points="321.064,-21.2473 326.343,-22.7275 322.982,-22.8506 324.9,-24.4538 324.9,-24.4538 324.9,-24.4538 322.982,-22.8506 323.457,-26.1802 321.064,-21.2473 321.064,-21.2473"/>
</g>
<!-- v15&#45;&gt;v18 -->
<g id="edge19" class="edge"><title>v15&#45;&gt;v18</title>
<path fill="none" stroke="black" d="M380.397,-57.9883C383.305,-49.4154 387.538,-36.9411 390.861,-27.1466"/>
<polygon fill="black" stroke="black" points="392.504,-22.3039 393.028,-27.7617 391.701,-24.6713 390.897,-27.0388 390.897,-27.0388 390.897,-27.0388 391.701,-24.6713 388.767,-26.3158 392.504,-22.3039 392.504,-22.3039"/>
</g>
</g>
</svg>
