<?xml version="1.0" encoding="UTF-8" standalone="no"?>
<?xml-stylesheet href="style.css" type="text/css"?>
<!DOCTYPE svg PUBLIC "-//W3C//DTD SVG 1.1//EN"
 "http://www.w3.org/Graphics/SVG/1.1/DTD/svg11.dtd">
<!-- Generated by graphviz version 2.38.0 (20140413.2041)
 -->
<!-- Title: 14.svg Pages: 1 -->
<svg width="1001pt" height="374pt"
 viewBox="0.00 0.00 1000.50 374.00" xmlns="http://www.w3.org/2000/svg" xmlns:xlink="http://www.w3.org/1999/xlink">
<g id="graph0" class="graph" transform="scale(1 1) rotate(0) translate(4 370)">
<title>14.svg</title>
<polygon fill="white" stroke="none" points="-4,4 -4,-370 996.5,-370 996.5,4 -4,4"/>
<!-- r0 -->
<g id="node1" class="node"><title>r0</title>
<polygon fill="none" stroke="black" stroke-dasharray="5,2" points="519,-366 496,-366 496,-348 519,-348 519,-366"/>
<text text-anchor="middle" x="507.5" y="-354.8" font-family="serif" font-size="9.00">0</text>
</g>
<!-- v0 -->
<g id="v0_Building" class="node"><title>v0</title>
<ellipse fill="none" stroke="black" cx="507.5" cy="-301" rx="36" ry="11"/>
<text text-anchor="middle" x="507.5" y="-298.8" font-family="sans-serif" font-size="9.00">Building</text>
</g>
<!-- r0&#45;&gt;v0 -->
<g id="edge1" class="edge"><title>r0&#45;&gt;v0</title>
<path fill="none" stroke="black" d="M507.5,-347.562C507.5,-339.453 507.5,-327.014 507.5,-317.181"/>
<polygon fill="black" stroke="black" points="507.5,-312.03 509.75,-317.03 507.5,-314.53 507.5,-317.03 507.5,-317.03 507.5,-317.03 507.5,-314.53 505.25,-317.03 507.5,-312.03 507.5,-312.03"/>
</g>
<!-- r1 -->
<g id="node2" class="node"><title>r1</title>
<polygon fill="none" stroke="black" stroke-dasharray="5,2" points="905,-366 882,-366 882,-348 905,-348 905,-366"/>
<text text-anchor="middle" x="893.5" y="-354.8" font-family="serif" font-size="9.00">1</text>
</g>
<!-- v12 -->
<g id="v12_RulesKeywords" class="node"><title>v12</title>
<ellipse fill="none" stroke="black" cx="893.5" cy="-69" rx="54" ry="11"/>
<text text-anchor="middle" x="893.5" y="-66.8" font-family="sans-serif" font-size="9.00">RulesKeywords</text>
</g>
<!-- r1&#45;&gt;v12 -->
<g id="edge2" class="edge"><title>r1&#45;&gt;v12</title>
<path fill="none" stroke="black" d="M893.5,-347.849C893.5,-329.373 893.5,-282.889 893.5,-244 893.5,-244 893.5,-244 893.5,-184 893.5,-148.604 893.5,-107.026 893.5,-85.1783"/>
<polygon fill="black" stroke="black" points="893.5,-80.0648 895.75,-85.0648 893.5,-82.5648 893.5,-85.0648 893.5,-85.0648 893.5,-85.0648 893.5,-82.5648 891.25,-85.0648 893.5,-80.0648 893.5,-80.0648"/>
</g>
<!-- e7 -->
<g id="node3" class="node"><title>e7</title>
</g>
<!-- v8 -->
<g id="v8_SmartLight" class="node"><title>v8</title>
<ellipse fill="none" stroke="black" cx="446.5" cy="-11" rx="43" ry="11"/>
<text text-anchor="middle" x="446.5" y="-8.8" font-family="sans-serif" font-size="9.00">SmartLight</text>
</g>
<!-- e7&#45;&gt;v8 -->
<g id="edge28" class="edge"><title>e7&#45;&gt;v8</title>
<path fill="none" stroke="green" d="M446.5,-64.1674C446.5,-55.5862 446.5,-34.5957 446.5,-22.0117"/>
<polygon fill="green" stroke="green" points="450,-67.3001 443,-67.2999 443,-65.8999 450,-65.9001 450,-67.3001"/>
<polyline fill="none" stroke="green" points="446.5,-68 446.5,-64.5 "/>
</g>
<!-- v1 -->
<g id="v1_Floor" class="node"><title>v1</title>
<ellipse fill="none" stroke="black" cx="282.5" cy="-243" rx="25" ry="11"/>
<text text-anchor="middle" x="282.5" y="-240.8" font-family="sans-serif" font-size="9.00">Floor</text>
</g>
<!-- v0&#45;&gt;v1 -->
<g id="edge3" class="edge"><title>v0&#45;&gt;v1</title>
<path fill="none" stroke="black" d="M481.249,-293.466C437.805,-282.654 351.476,-261.167 308.318,-250.426"/>
<polygon fill="black" stroke="black" points="303.275,-249.171 308.671,-248.195 305.701,-249.775 308.127,-250.378 308.127,-250.378 308.127,-250.378 305.701,-249.775 307.584,-252.562 303.275,-249.171 303.275,-249.171"/>
</g>
<!-- v2 -->
<g id="v2_InstallationBus" class="node"><title>v2</title>
<ellipse fill="none" stroke="black" cx="760.5" cy="-69" rx="61" ry="11"/>
<text text-anchor="middle" x="760.5" y="-66.8" font-family="sans-serif" font-size="9.00">InstallationBus</text>
</g>
<!-- v0&#45;&gt;v2 -->
<g id="edge4" class="edge"><title>v0&#45;&gt;v2</title>
<path fill="none" stroke="black" d="M518.049,-290.41C557.901,-254.181 699.368,-125.575 745.694,-83.4599"/>
<polygon fill="black" stroke="black" points="749.623,-79.888 747.437,-84.9163 747.773,-81.5697 745.923,-83.2514 745.923,-83.2514 745.923,-83.2514 747.773,-81.5697 744.41,-81.5865 749.623,-79.888 749.623,-79.888"/>
</g>
<!-- v4 -->
<g id="v4_Room" class="node"><title>v4</title>
<ellipse fill="none" stroke="black" cx="536.5" cy="-185" rx="21.5" ry="11"/>
<text text-anchor="middle" x="536.5" y="-182.8" font-family="sans-serif" font-size="9.00">Room</text>
</g>
<!-- v1&#45;&gt;v4 -->
<g id="edge5" class="edge"><title>v1&#45;&gt;v4</title>
<path fill="none" stroke="black" d="M304.156,-237.225C351.267,-226.839 462.789,-202.251 512.205,-191.356"/>
<polygon fill="black" stroke="black" points="517.353,-190.221 512.955,-193.495 514.912,-190.76 512.471,-191.298 512.471,-191.298 512.471,-191.298 514.912,-190.76 511.986,-189.101 517.353,-190.221 517.353,-190.221"/>
</g>
<!-- v11 -->
<g id="v11_Hallway" class="node"><title>v11</title>
<ellipse fill="none" stroke="black" cx="32.5" cy="-11" rx="32.5" ry="11"/>
<text text-anchor="middle" x="32.5" y="-8.8" font-family="sans-serif" font-size="9.00">Hallway</text>
</g>
<!-- v1&#45;&gt;v11 -->
<g id="edge6" class="edge"><title>v1&#45;&gt;v11</title>
<path fill="none" stroke="black" d="M272.39,-232.699C233.374,-196.804 92.5159,-67.2146 46.8794,-25.2291"/>
<polygon fill="black" stroke="black" points="43.013,-21.6719 48.2161,-23.4014 44.8528,-23.3646 46.6927,-25.0573 46.6927,-25.0573 46.6927,-25.0573 44.8528,-23.3646 45.1693,-26.7131 43.013,-21.6719 43.013,-21.6719"/>
</g>
<!-- v15 -->
<g id="v15_Room" class="node"><title>v15</title>
<ellipse fill="none" stroke="black" cx="174.5" cy="-69" rx="21.5" ry="11"/>
<text text-anchor="middle" x="174.5" y="-66.8" font-family="sans-serif" font-size="9.00">Room</text>
</g>
<!-- v1&#45;&gt;v15 -->
<g id="edge7" class="edge"><title>v1&#45;&gt;v15</title>
<path fill="none" stroke="black" d="M276.384,-232.26C258.266,-203.405 204.81,-118.271 183.458,-84.2667"/>
<polygon fill="black" stroke="black" points="180.549,-79.6335 185.113,-82.6714 181.878,-81.7507 183.208,-83.8679 183.208,-83.8679 183.208,-83.8679 181.878,-81.7507 181.302,-85.0644 180.549,-79.6335 180.549,-79.6335"/>
</g>
<!-- v17 -->
<g id="v17_Room" class="node"><title>v17</title>
<ellipse fill="none" stroke="black" cx="282.5" cy="-69" rx="21.5" ry="11"/>
<text text-anchor="middle" x="282.5" y="-66.8" font-family="sans-serif" font-size="9.00">Room</text>
</g>
<!-- v1&#45;&gt;v17 -->
<g id="edge8" class="edge"><title>v1&#45;&gt;v17</title>
<path fill="none" stroke="black" d="M282.5,-231.756C282.5,-202.786 282.5,-120.136 282.5,-85.5335"/>
<polygon fill="black" stroke="black" points="282.5,-80.4081 284.75,-85.408 282.5,-82.9081 282.5,-85.4081 282.5,-85.4081 282.5,-85.4081 282.5,-82.9081 280.25,-85.4081 282.5,-80.4081 282.5,-80.4081"/>
</g>
<!-- v3 -->
<g id="v3_Data" class="node"><title>v3</title>
<ellipse fill="none" stroke="black" cx="762.5" cy="-11" rx="21.5" ry="11"/>
<text text-anchor="middle" x="762.5" y="-8.8" font-family="sans-serif" font-size="9.00">Data</text>
</g>
<!-- v2&#45;&gt;v3 -->
<g id="edge9" class="edge"><title>v2&#45;&gt;v3</title>
<path fill="none" stroke="black" d="M760.858,-57.9883C761.161,-49.4941 761.601,-37.1697 761.949,-27.4169"/>
<polygon fill="black" stroke="black" points="762.132,-22.3039 764.202,-27.381 762.043,-24.8023 761.953,-27.3007 761.953,-27.3007 761.953,-27.3007 762.043,-24.8023 759.705,-27.2203 762.132,-22.3039 762.132,-22.3039"/>
</g>
<!-- v6 -->
<g id="v6_Laptop" class="node"><title>v6</title>
<ellipse fill="none" stroke="black" cx="643.5" cy="-69" rx="29" ry="11"/>
<text text-anchor="middle" x="643.5" y="-66.8" font-family="sans-serif" font-size="9.00">Laptop</text>
</g>
<!-- v2&#45;&gt;v6 -->
<g id="edge21" class="edge"><title>v2&#45;&gt;v6</title>
<path fill="none" stroke="green" d="M699.486,-69C690.574,-69 681.662,-69 672.75,-69"/>
</g>
<!-- v9 -->
<g id="v9_Server" class="node"><title>v9</title>
<ellipse fill="none" stroke="black" cx="536.5" cy="-11" rx="29" ry="11"/>
<text text-anchor="middle" x="536.5" y="-8.8" font-family="sans-serif" font-size="9.00">Server</text>
</g>
<!-- v2&#45;&gt;v9 -->
<g id="edge22" class="edge"><title>v2&#45;&gt;v9</title>
<path fill="none" stroke="green" d="M726.318,-59.8387C688.781,-50.8186 626.752,-35.7441 573.5,-22 568.732,-20.7695 563.629,-19.4148 558.783,-18.1105"/>
</g>
<!-- v10 -->
<g id="v10_FireAlarm" class="node"><title>v10</title>
<ellipse fill="none" stroke="black" cx="622.5" cy="-11" rx="39.5" ry="11"/>
<text text-anchor="middle" x="622.5" y="-8.8" font-family="sans-serif" font-size="9.00">FireAlarm</text>
</g>
<!-- v2&#45;&gt;v10 -->
<g id="edge23" class="edge"><title>v2&#45;&gt;v10</title>
<path fill="none" stroke="green" d="M737.712,-58.7527C711.53,-48.1283 668.92,-30.8372 643.511,-20.5261"/>
</g>
<!-- v16 -->
<g id="v16_SmartLight" class="node"><title>v16</title>
<ellipse fill="none" stroke="black" cx="126.5" cy="-11" rx="43" ry="11"/>
<text text-anchor="middle" x="126.5" y="-8.8" font-family="sans-serif" font-size="9.00">SmartLight</text>
</g>
<!-- v2&#45;&gt;v16 -->
<g id="edge24" class="edge"><title>v2&#45;&gt;v16</title>
<path fill="none" stroke="green" d="M714.179,-61.7081C703.461,-60.3713 692.093,-59.0488 681.5,-58 458.463,-35.9188 400.715,-51.2142 178.5,-22 171.755,-21.1133 164.565,-19.9036 157.75,-18.6318"/>
</g>
<!-- v18 -->
<g id="v18_SmartLight" class="node"><title>v18</title>
<ellipse fill="none" stroke="black" cx="342.5" cy="-11" rx="43" ry="11"/>
<text text-anchor="middle" x="342.5" y="-8.8" font-family="sans-serif" font-size="9.00">SmartLight</text>
</g>
<!-- v2&#45;&gt;v18 -->
<g id="edge25" class="edge"><title>v2&#45;&gt;v18</title>
<path fill="none" stroke="green" d="M713.296,-62.016C702.827,-60.6913 691.787,-59.2963 681.5,-58 553.953,-41.928 521.466,-42.1494 394.5,-22 387.963,-20.9625 380.989,-19.7176 374.342,-18.464"/>
</g>
<!-- v19 -->
<g id="v19_Workstation" class="node"><title>v19</title>
<ellipse fill="none" stroke="black" cx="234.5" cy="-11" rx="47" ry="11"/>
<text text-anchor="middle" x="234.5" y="-8.8" font-family="sans-serif" font-size="9.00">Workstation</text>
</g>
<!-- v2&#45;&gt;v19 -->
<g id="edge26" class="edge"><title>v2&#45;&gt;v19</title>
<path fill="none" stroke="green" d="M713.745,-61.8138C703.15,-60.4866 691.945,-59.1415 681.5,-58 508.02,-39.0396 463.442,-45.3599 290.5,-22 283.453,-21.0482 275.941,-19.8407 268.782,-18.5968"/>
</g>
<!-- v5 -->
<g id="v5_Visitor" class="node"><title>v5</title>
<ellipse fill="none" stroke="black" cx="641.5" cy="-127" rx="32.5" ry="11"/>
<text text-anchor="middle" x="641.5" y="-124.8" font-family="sans-serif" font-size="9.00">Visitor</text>
</g>
<!-- v4&#45;&gt;v5 -->
<g id="edge10" class="edge"><title>v4&#45;&gt;v5</title>
<path fill="none" stroke="black" d="M550.661,-176.448C568.667,-166.844 599.904,-150.185 620.639,-139.126"/>
<polygon fill="black" stroke="black" points="625.153,-136.718 621.8,-141.057 622.947,-137.895 620.741,-139.071 620.741,-139.071 620.741,-139.071 622.947,-137.895 619.683,-137.086 625.153,-136.718 625.153,-136.718"/>
</g>
<!-- v4&#45;&gt;v8 -->
<g id="edge11" class="edge"><title>v4&#45;&gt;v8</title>
<path fill="none" stroke="black" d="M523.89,-175.873C501.242,-160.428 454.374,-124.378 436.5,-80 429.512,-62.6502 434.831,-41.0528 440.005,-26.9141"/>
<polygon fill="black" stroke="black" points="441.882,-22.0643 442.176,-27.5394 440.98,-24.3958 440.077,-26.7273 440.077,-26.7273 440.077,-26.7273 440.98,-24.3958 437.979,-25.9153 441.882,-22.0643 441.882,-22.0643"/>
</g>
<!-- v4&#45;&gt;v9 -->
<g id="edge12" class="edge"><title>v4&#45;&gt;v9</title>
<path fill="none" stroke="black" d="M536.5,-173.756C536.5,-144.786 536.5,-62.1364 536.5,-27.5335"/>
<polygon fill="black" stroke="black" points="536.5,-22.4081 538.75,-27.408 536.5,-24.9081 536.5,-27.4081 536.5,-27.4081 536.5,-27.4081 536.5,-24.9081 534.25,-27.4081 536.5,-22.4081 536.5,-22.4081"/>
</g>
<!-- v4&#45;&gt;v10 -->
<g id="edge13" class="edge"><title>v4&#45;&gt;v10</title>
<path fill="none" stroke="black" d="M541.37,-174.26C555.73,-145.54 597.965,-61.0692 615.125,-26.749"/>
<polygon fill="black" stroke="black" points="617.469,-22.0619 617.245,-27.5403 616.351,-24.298 615.233,-26.534 615.233,-26.534 615.233,-26.534 616.351,-24.298 613.22,-25.5278 617.469,-22.0619 617.469,-22.0619"/>
</g>
<!-- v4&#45;&gt;v11 -->
<g id="edge27" class="edge"><title>v4&#45;&gt;v11</title>
<path fill="none" stroke="green" d="M525.084,-175.556C493.286,-152.499 400.262,-88.1839 312.5,-58 211.335,-23.2065 179.517,-42.4073 74.5,-22 68.908,-20.9133 62.9346,-19.5905 57.2991,-18.2676"/>
</g>
<!-- v5&#45;&gt;v6 -->
<g id="edge14" class="edge"><title>v5&#45;&gt;v6</title>
<path fill="none" stroke="black" d="M641.858,-115.988C642.161,-107.494 642.601,-95.1697 642.949,-85.4169"/>
<polygon fill="black" stroke="black" points="643.132,-80.3039 645.202,-85.381 643.043,-82.8023 642.953,-85.3007 642.953,-85.3007 642.953,-85.3007 643.043,-82.8023 640.705,-85.2203 643.132,-80.3039 643.132,-80.3039"/>
</g>
<!-- v7 -->
<g id="v7_Data" class="node"><title>v7</title>
<ellipse fill="none" stroke="black" cx="701.5" cy="-11" rx="21.5" ry="11"/>
<text text-anchor="middle" x="701.5" y="-8.8" font-family="sans-serif" font-size="9.00">Data</text>
</g>
<!-- v6&#45;&gt;v7 -->
<g id="edge15" class="edge"><title>v6&#45;&gt;v7</title>
<path fill="none" stroke="black" d="M653.339,-58.5004C663.011,-49.1622 677.829,-34.8549 688.474,-24.5772"/>
<polygon fill="black" stroke="black" points="692.189,-20.9896 690.155,-26.0813 690.391,-22.7261 688.592,-24.4626 688.592,-24.4626 688.592,-24.4626 690.391,-22.7261 687.029,-22.8439 692.189,-20.9896 692.189,-20.9896"/>
</g>
<!-- v11&#45;&gt;v15 -->
<g id="edge29" class="edge"><title>v11&#45;&gt;v15</title>
<path fill="none" stroke="green" d="M52.2258,-19.7792C80.4898,-30.9255 131.985,-51.2335 158.211,-61.5761"/>
</g>
<!-- v11&#45;&gt;v17 -->
<g id="edge30" class="edge"><title>v11&#45;&gt;v17</title>
<path fill="none" stroke="green" d="M57.8036,-18.0942C63.304,-19.3995 69.094,-20.7587 74.5,-22 143.888,-37.9321 226.533,-55.9138 263.264,-63.8541"/>
</g>
<!-- v13 -->
<g id="v13_ExitRoom" class="node"><title>v13</title>
<ellipse fill="none" stroke="black" cx="866.5" cy="-11" rx="36" ry="11"/>
<text text-anchor="middle" x="866.5" y="-8.8" font-family="sans-serif" font-size="9.00">ExitRoom</text>
</g>
<!-- v12&#45;&gt;v13 -->
<g id="edge16" class="edge"><title>v12&#45;&gt;v13</title>
<path fill="none" stroke="black" d="M888.673,-57.9883C884.45,-49.2286 878.262,-36.3956 873.496,-26.5103"/>
<polygon fill="black" stroke="black" points="871.285,-21.925 875.484,-25.4517 872.371,-24.1769 873.457,-26.4289 873.457,-26.4289 873.457,-26.4289 872.371,-24.1769 871.43,-27.4061 871.285,-21.925 871.285,-21.925"/>
</g>
<!-- v14 -->
<g id="v14_ExitRoom" class="node"><title>v14</title>
<ellipse fill="none" stroke="black" cx="956.5" cy="-11" rx="36" ry="11"/>
<text text-anchor="middle" x="956.5" y="-8.8" font-family="sans-serif" font-size="9.00">ExitRoom</text>
</g>
<!-- v12&#45;&gt;v14 -->
<g id="edge17" class="edge"><title>v12&#45;&gt;v14</title>
<path fill="none" stroke="black" d="M904.763,-57.9883C915.102,-48.798 930.485,-35.1241 941.791,-25.0746"/>
<polygon fill="black" stroke="black" points="945.755,-21.5512 943.513,-26.5547 943.886,-23.2121 942.018,-24.8731 942.018,-24.8731 942.018,-24.8731 943.886,-23.2121 940.523,-23.1914 945.755,-21.5512 945.755,-21.5512"/>
</g>
<!-- v15&#45;&gt;v16 -->
<g id="edge18" class="edge"><title>v15&#45;&gt;v16</title>
<path fill="none" stroke="black" d="M166.574,-58.7527C158.863,-49.7573 147.057,-35.9828 138.253,-25.7121"/>
<polygon fill="black" stroke="black" points="134.923,-21.8266 139.885,-24.1586 136.55,-23.7247 138.177,-25.6229 138.177,-25.6229 138.177,-25.6229 136.55,-23.7247 136.468,-27.0872 134.923,-21.8266 134.923,-21.8266"/>
</g>
<!-- v17&#45;&gt;v18 -->
<g id="edge19" class="edge"><title>v17&#45;&gt;v18</title>
<path fill="none" stroke="black" d="M292.14,-59.0026C301.817,-49.9708 316.845,-35.9443 327.968,-25.5628"/>
<polygon fill="black" stroke="black" points="331.873,-21.919 329.752,-26.9755 330.045,-23.6248 328.217,-25.3306 328.217,-25.3306 328.217,-25.3306 330.045,-23.6248 326.682,-23.6857 331.873,-21.919 331.873,-21.919"/>
</g>
<!-- v17&#45;&gt;v19 -->
<g id="edge20" class="edge"><title>v17&#45;&gt;v19</title>
<path fill="none" stroke="black" d="M274.574,-58.7527C266.863,-49.7573 255.057,-35.9828 246.253,-25.7121"/>
<polygon fill="black" stroke="black" points="242.923,-21.8266 247.885,-24.1586 244.55,-23.7247 246.177,-25.6229 246.177,-25.6229 246.177,-25.6229 244.55,-23.7247 244.468,-27.0872 242.923,-21.8266 242.923,-21.8266"/>
</g>
</g>
</svg>
