<?xml version="1.0" encoding="UTF-8" standalone="no"?>
<?xml-stylesheet href="style.css" type="text/css"?>
<!DOCTYPE svg PUBLIC "-//W3C//DTD SVG 1.1//EN"
 "http://www.w3.org/Graphics/SVG/1.1/DTD/svg11.dtd">
<!-- Generated by graphviz version 2.38.0 (20140413.2041)
 -->
<!-- Title: 15.svg Pages: 1 -->
<svg width="850pt" height="374pt"
 viewBox="0.00 0.00 850.00 374.00" xmlns="http://www.w3.org/2000/svg" xmlns:xlink="http://www.w3.org/1999/xlink">
<g id="graph0" class="graph" transform="scale(1 1) rotate(0) translate(4 370)">
<title>15.svg</title>
<polygon fill="white" stroke="none" points="-4,4 -4,-370 846,-370 846,4 -4,4"/>
<!-- r0 -->
<g id="node1" class="node"><title>r0</title>
<polygon fill="none" stroke="black" stroke-dasharray="5,2" points="560,-366 537,-366 537,-348 560,-348 560,-366"/>
<text text-anchor="middle" x="548.5" y="-354.8" font-family="serif" font-size="9.00">0</text>
</g>
<!-- v0 -->
<g id="v0_Building" class="node"><title>v0</title>
<ellipse fill="none" stroke="black" cx="548.5" cy="-301" rx="36" ry="11"/>
<text text-anchor="middle" x="548.5" y="-298.8" font-family="sans-serif" font-size="9.00">Building</text>
</g>
<!-- r0&#45;&gt;v0 -->
<g id="edge1" class="edge"><title>r0&#45;&gt;v0</title>
<path fill="none" stroke="black" d="M548.5,-347.562C548.5,-339.453 548.5,-327.014 548.5,-317.181"/>
<polygon fill="black" stroke="black" points="548.5,-312.03 550.75,-317.03 548.5,-314.53 548.5,-317.03 548.5,-317.03 548.5,-317.03 548.5,-314.53 546.25,-317.03 548.5,-312.03 548.5,-312.03"/>
</g>
<!-- e7 -->
<g id="node2" class="node"><title>e7</title>
</g>
<!-- v8 -->
<g id="v8_SmartLight" class="node"><title>v8</title>
<ellipse fill="none" stroke="black" cx="160.5" cy="-11" rx="43" ry="11"/>
<text text-anchor="middle" x="160.5" y="-8.8" font-family="sans-serif" font-size="9.00">SmartLight</text>
</g>
<!-- e7&#45;&gt;v8 -->
<g id="edge25" class="edge"><title>e7&#45;&gt;v8</title>
<path fill="none" stroke="green" d="M160.5,-64.1674C160.5,-55.5862 160.5,-34.5957 160.5,-22.0117"/>
<polygon fill="green" stroke="green" points="164,-67.3001 157,-67.2999 157,-65.8999 164,-65.9001 164,-67.3001"/>
<polyline fill="none" stroke="green" points="160.5,-68 160.5,-64.5 "/>
</g>
<!-- v1 -->
<g id="v1_Floor" class="node"><title>v1</title>
<ellipse fill="none" stroke="black" cx="438.5" cy="-243" rx="25" ry="11"/>
<text text-anchor="middle" x="438.5" y="-240.8" font-family="sans-serif" font-size="9.00">Floor</text>
</g>
<!-- v0&#45;&gt;v1 -->
<g id="edge2" class="edge"><title>v0&#45;&gt;v1</title>
<path fill="none" stroke="black" d="M531.312,-291.25C511.538,-281.183 479.126,-264.682 458.309,-254.084"/>
<polygon fill="black" stroke="black" points="453.795,-251.787 459.272,-252.05 456.023,-252.921 458.251,-254.055 458.251,-254.055 458.251,-254.055 456.023,-252.921 457.23,-256.06 453.795,-251.787 453.795,-251.787"/>
</g>
<!-- v2 -->
<g id="v2_InstallationBus" class="node"><title>v2</title>
<ellipse fill="none" stroke="black" cx="729.5" cy="-69" rx="61" ry="11"/>
<text text-anchor="middle" x="729.5" y="-66.8" font-family="sans-serif" font-size="9.00">InstallationBus</text>
</g>
<!-- v0&#45;&gt;v2 -->
<g id="edge3" class="edge"><title>v0&#45;&gt;v2</title>
<path fill="none" stroke="black" d="M556.277,-290.117C584.931,-253.707 684.678,-126.956 718.321,-84.2053"/>
<polygon fill="black" stroke="black" points="721.548,-80.105 720.224,-85.4257 720.002,-82.0696 718.456,-84.0343 718.456,-84.0343 718.456,-84.0343 720.002,-82.0696 716.687,-82.6428 721.548,-80.105 721.548,-80.105"/>
</g>
<!-- v4 -->
<g id="v4_Room" class="node"><title>v4</title>
<ellipse fill="none" stroke="black" cx="93.5" cy="-185" rx="21.5" ry="11"/>
<text text-anchor="middle" x="93.5" y="-182.8" font-family="sans-serif" font-size="9.00">Room</text>
</g>
<!-- v1&#45;&gt;v4 -->
<g id="edge4" class="edge"><title>v1&#45;&gt;v4</title>
<path fill="none" stroke="black" d="M415.864,-238.326C354.186,-228.314 183.47,-200.604 118.786,-190.104"/>
<polygon fill="black" stroke="black" points="113.587,-189.261 118.883,-187.841 116.055,-189.661 118.523,-190.062 118.523,-190.062 118.523,-190.062 116.055,-189.661 118.162,-192.283 113.587,-189.261 113.587,-189.261"/>
</g>
<!-- v9 -->
<g id="v9_Hallway" class="node"><title>v9</title>
<ellipse fill="none" stroke="black" cx="254.5" cy="-11" rx="32.5" ry="11"/>
<text text-anchor="middle" x="254.5" y="-8.8" font-family="sans-serif" font-size="9.00">Hallway</text>
</g>
<!-- v1&#45;&gt;v9 -->
<g id="edge5" class="edge"><title>v1&#45;&gt;v9</title>
<path fill="none" stroke="black" d="M430.828,-232.41C401.961,-196.326 299.787,-68.6084 265.678,-25.9726"/>
<polygon fill="black" stroke="black" points="262.41,-21.888 267.291,-24.3868 263.972,-23.8402 265.534,-25.7924 265.534,-25.7924 265.534,-25.7924 263.972,-23.8402 263.777,-27.1979 262.41,-21.888 262.41,-21.888"/>
</g>
<!-- v10 -->
<g id="v10_Room" class="node"><title>v10</title>
<ellipse fill="none" stroke="black" cx="438.5" cy="-69" rx="21.5" ry="11"/>
<text text-anchor="middle" x="438.5" y="-66.8" font-family="sans-serif" font-size="9.00">Room</text>
</g>
<!-- v1&#45;&gt;v10 -->
<g id="edge6" class="edge"><title>v1&#45;&gt;v10</title>
<path fill="none" stroke="black" d="M438.5,-231.756C438.5,-202.786 438.5,-120.136 438.5,-85.5335"/>
<polygon fill="black" stroke="black" points="438.5,-80.4081 440.75,-85.408 438.5,-82.9081 438.5,-85.4081 438.5,-85.4081 438.5,-85.4081 438.5,-82.9081 436.25,-85.4081 438.5,-80.4081 438.5,-80.4081"/>
</g>
<!-- v14 -->
<g id="v14_Room" class="node"><title>v14</title>
<ellipse fill="none" stroke="black" cx="625.5" cy="-69" rx="21.5" ry="11"/>
<text text-anchor="middle" x="625.5" y="-66.8" font-family="sans-serif" font-size="9.00">Room</text>
</g>
<!-- v1&#45;&gt;v14 -->
<g id="edge7" class="edge"><title>v1&#45;&gt;v14</title>
<path fill="none" stroke="black" d="M448.554,-232.753C479.901,-203.92 575.898,-115.623 611.779,-82.6207"/>
<polygon fill="black" stroke="black" points="615.848,-78.8778 613.691,-83.9187 614.008,-80.5702 612.168,-82.2627 612.168,-82.2627 612.168,-82.2627 614.008,-80.5702 610.645,-80.6067 615.848,-78.8778 615.848,-78.8778"/>
</g>
<!-- v3 -->
<g id="v3_Data" class="node"><title>v3</title>
<ellipse fill="none" stroke="black" cx="820.5" cy="-11" rx="21.5" ry="11"/>
<text text-anchor="middle" x="820.5" y="-8.8" font-family="sans-serif" font-size="9.00">Data</text>
</g>
<!-- v2&#45;&gt;v3 -->
<g id="edge8" class="edge"><title>v2&#45;&gt;v3</title>
<path fill="none" stroke="black" d="M745.351,-58.2455C761.456,-48.3348 786.339,-33.0224 803.01,-22.7632"/>
<polygon fill="black" stroke="black" points="807.48,-20.0123 804.401,-24.549 805.351,-21.3225 803.222,-22.6328 803.222,-22.6328 803.222,-22.6328 805.351,-21.3225 802.043,-20.7166 807.48,-20.0123 807.48,-20.0123"/>
</g>
<!-- v6 -->
<g id="v6_Laptop" class="node"><title>v6</title>
<ellipse fill="none" stroke="black" cx="32.5" cy="-69" rx="29" ry="11"/>
<text text-anchor="middle" x="32.5" y="-66.8" font-family="sans-serif" font-size="9.00">Laptop</text>
</g>
<!-- v2&#45;&gt;v6 -->
<g id="edge18" class="edge"><title>v2&#45;&gt;v6</title>
<path fill="none" stroke="green" d="M707.083,-79.2643C690.906,-86.0863 668.336,-94.4242 647.5,-98 540.618,-116.343 267.262,-110.147 159.5,-98 122.643,-93.8454 80.8881,-83.1123 55.637,-75.9344"/>
</g>
<!-- v11 -->
<g id="v11_SmartLight" class="node"><title>v11</title>
<ellipse fill="none" stroke="black" cx="348.5" cy="-11" rx="43" ry="11"/>
<text text-anchor="middle" x="348.5" y="-8.8" font-family="sans-serif" font-size="9.00">SmartLight</text>
</g>
<!-- v2&#45;&gt;v11 -->
<g id="edge19" class="edge"><title>v2&#45;&gt;v11</title>
<path fill="none" stroke="green" d="M683.542,-61.7072C599.664,-50.2026 427.845,-26.538 400.5,-22 393.97,-20.9164 387,-19.6513 380.354,-18.3925"/>
</g>
<!-- v12 -->
<g id="v12_Server" class="node"><title>v12</title>
<ellipse fill="none" stroke="black" cx="438.5" cy="-11" rx="29" ry="11"/>
<text text-anchor="middle" x="438.5" y="-8.8" font-family="sans-serif" font-size="9.00">Server</text>
</g>
<!-- v2&#45;&gt;v12 -->
<g id="edge20" class="edge"><title>v2&#45;&gt;v12</title>
<path fill="none" stroke="green" d="M686.321,-61.1958C635.795,-52.9922 549.717,-38.2642 476.5,-22 471.439,-20.8757 466.034,-19.5376 460.935,-18.2118"/>
</g>
<!-- v13 -->
<g id="v13_FireAlarm" class="node"><title>v13</title>
<ellipse fill="none" stroke="black" cx="524.5" cy="-11" rx="39.5" ry="11"/>
<text text-anchor="middle" x="524.5" y="-8.8" font-family="sans-serif" font-size="9.00">FireAlarm</text>
</g>
<!-- v2&#45;&gt;v13 -->
<g id="edge21" class="edge"><title>v2&#45;&gt;v13</title>
<path fill="none" stroke="green" d="M698.365,-59.4948C658.154,-48.5104 588.853,-29.5794 551.026,-19.2462"/>
</g>
<!-- v15 -->
<g id="v15_SmartLight" class="node"><title>v15</title>
<ellipse fill="none" stroke="black" cx="625.5" cy="-11" rx="43" ry="11"/>
<text text-anchor="middle" x="625.5" y="-8.8" font-family="sans-serif" font-size="9.00">SmartLight</text>
</g>
<!-- v2&#45;&gt;v15 -->
<g id="edge22" class="edge"><title>v2&#45;&gt;v15</title>
<path fill="none" stroke="green" d="M711.385,-58.2455C692.063,-47.8418 661.687,-31.4855 642.717,-21.2708"/>
</g>
<!-- v16 -->
<g id="v16_Workstation" class="node"><title>v16</title>
<ellipse fill="none" stroke="black" cx="733.5" cy="-11" rx="47" ry="11"/>
<text text-anchor="middle" x="733.5" y="-8.8" font-family="sans-serif" font-size="9.00">Workstation</text>
</g>
<!-- v2&#45;&gt;v16 -->
<g id="edge23" class="edge"><title>v2&#45;&gt;v16</title>
<path fill="none" stroke="green" d="M730.215,-57.9883C730.934,-47.9211 732.038,-32.4737 732.764,-22.3039"/>
</g>
<!-- v5 -->
<g id="v5_Visitor" class="node"><title>v5</title>
<ellipse fill="none" stroke="black" cx="32.5" cy="-127" rx="32.5" ry="11"/>
<text text-anchor="middle" x="32.5" y="-124.8" font-family="sans-serif" font-size="9.00">Visitor</text>
</g>
<!-- v4&#45;&gt;v5 -->
<g id="edge9" class="edge"><title>v4&#45;&gt;v5</title>
<path fill="none" stroke="black" d="M83.6993,-175.003C73.741,-165.861 58.2087,-151.601 46.8618,-141.185"/>
<polygon fill="black" stroke="black" points="42.8889,-137.537 48.0938,-139.261 44.7305,-139.228 46.5721,-140.919 46.5721,-140.919 46.5721,-140.919 44.7305,-139.228 45.0505,-142.576 42.8889,-137.537 42.8889,-137.537"/>
</g>
<!-- v4&#45;&gt;v8 -->
<g id="edge10" class="edge"><title>v4&#45;&gt;v8</title>
<path fill="none" stroke="black" d="M93.555,-173.918C94.0613,-151.731 97.4323,-97.5096 117.5,-58 123.998,-45.2073 135.135,-33.4407 144.448,-25.0107"/>
<polygon fill="black" stroke="black" points="148.308,-21.6089 146.044,-26.6028 146.432,-23.2618 144.557,-24.9147 144.557,-24.9147 144.557,-24.9147 146.432,-23.2618 143.069,-23.2266 148.308,-21.6089 148.308,-21.6089"/>
</g>
<!-- v4&#45;&gt;v9 -->
<g id="edge24" class="edge"><title>v4&#45;&gt;v9</title>
<path fill="none" stroke="green" d="M97.7477,-174.102C110.197,-145.164 146.004,-62.4589 150.5,-58 172.229,-36.4525 205.771,-24.1344 228.856,-17.7687"/>
</g>
<!-- v5&#45;&gt;v6 -->
<g id="edge11" class="edge"><title>v5&#45;&gt;v6</title>
<path fill="none" stroke="black" d="M32.5,-115.988C32.5,-107.494 32.5,-95.1697 32.5,-85.4169"/>
<polygon fill="black" stroke="black" points="32.5,-80.3039 34.7501,-85.3038 32.5,-82.8039 32.5001,-85.3039 32.5001,-85.3039 32.5001,-85.3039 32.5,-82.8039 30.2501,-85.3039 32.5,-80.3039 32.5,-80.3039"/>
</g>
<!-- v7 -->
<g id="v7_Data" class="node"><title>v7</title>
<ellipse fill="none" stroke="black" cx="32.5" cy="-11" rx="21.5" ry="11"/>
<text text-anchor="middle" x="32.5" y="-8.8" font-family="sans-serif" font-size="9.00">Data</text>
</g>
<!-- v6&#45;&gt;v7 -->
<g id="edge12" class="edge"><title>v6&#45;&gt;v7</title>
<path fill="none" stroke="black" d="M32.5,-57.9883C32.5,-49.4941 32.5,-37.1697 32.5,-27.4169"/>
<polygon fill="black" stroke="black" points="32.5,-22.3039 34.7501,-27.3038 32.5,-24.8039 32.5001,-27.3039 32.5001,-27.3039 32.5001,-27.3039 32.5,-24.8039 30.2501,-27.3039 32.5,-22.3039 32.5,-22.3039"/>
</g>
<!-- v9&#45;&gt;v10 -->
<g id="edge26" class="edge"><title>v9&#45;&gt;v10</title>
<path fill="none" stroke="green" d="M277.208,-18.911C314.349,-30.2148 387.306,-52.4194 420.857,-62.6305"/>
</g>
<!-- v9&#45;&gt;v14 -->
<g id="edge27" class="edge"><title>v9&#45;&gt;v14</title>
<path fill="none" stroke="green" d="M279.29,-18.3141C284.926,-19.6346 290.902,-20.9447 296.5,-22 412.118,-43.7959 552.388,-60.065 604.602,-65.7751"/>
</g>
<!-- v10&#45;&gt;v11 -->
<g id="edge13" class="edge"><title>v10&#45;&gt;v11</title>
<path fill="none" stroke="black" d="M425.605,-59.9766C410.46,-50.553 385.192,-34.8303 367.731,-23.9657"/>
<polygon fill="black" stroke="black" points="363.471,-21.315 368.905,-22.0462 365.593,-22.6358 367.716,-23.9566 367.716,-23.9566 367.716,-23.9566 365.593,-22.6358 366.527,-25.867 363.471,-21.315 363.471,-21.315"/>
</g>
<!-- v10&#45;&gt;v12 -->
<g id="edge14" class="edge"><title>v10&#45;&gt;v12</title>
<path fill="none" stroke="black" d="M438.5,-57.9883C438.5,-49.4941 438.5,-37.1697 438.5,-27.4169"/>
<polygon fill="black" stroke="black" points="438.5,-22.3039 440.75,-27.3038 438.5,-24.8039 438.5,-27.3039 438.5,-27.3039 438.5,-27.3039 438.5,-24.8039 436.25,-27.3039 438.5,-22.3039 438.5,-22.3039"/>
</g>
<!-- v10&#45;&gt;v13 -->
<g id="edge15" class="edge"><title>v10&#45;&gt;v13</title>
<path fill="none" stroke="black" d="M450.822,-59.9766C465.171,-50.6328 489.031,-35.0963 505.698,-24.243"/>
<polygon fill="black" stroke="black" points="510.195,-21.315 507.233,-25.929 508.1,-22.6792 506.005,-24.0434 506.005,-24.0434 506.005,-24.0434 508.1,-22.6792 504.777,-22.1579 510.195,-21.315 510.195,-21.315"/>
</g>
<!-- v14&#45;&gt;v15 -->
<g id="edge16" class="edge"><title>v14&#45;&gt;v15</title>
<path fill="none" stroke="black" d="M625.5,-57.9883C625.5,-49.4941 625.5,-37.1697 625.5,-27.4169"/>
<polygon fill="black" stroke="black" points="625.5,-22.3039 627.75,-27.3038 625.5,-24.8039 625.5,-27.3039 625.5,-27.3039 625.5,-27.3039 625.5,-24.8039 623.25,-27.3039 625.5,-22.3039 625.5,-22.3039"/>
</g>
<!-- v14&#45;&gt;v16 -->
<g id="edge17" class="edge"><title>v14&#45;&gt;v16</title>
<path fill="none" stroke="black" d="M639.619,-60.679C657.692,-51.3076 689.232,-34.9536 710.722,-23.8106"/>
<polygon fill="black" stroke="black" points="715.416,-21.3771 712.013,-25.6762 713.196,-22.5279 710.977,-23.6787 710.977,-23.6787 710.977,-23.6787 713.196,-22.5279 709.941,-21.6813 715.416,-21.3771 715.416,-21.3771"/>
</g>
</g>
</svg>
