<?xml version="1.0" encoding="UTF-8" standalone="no"?>
<?xml-stylesheet href="style.css" type="text/css"?>
<!DOCTYPE svg PUBLIC "-//W3C//DTD SVG 1.1//EN"
 "http://www.w3.org/Graphics/SVG/1.1/DTD/svg11.dtd">
<!-- Generated by graphviz version 2.38.0 (20140413.2041)
 -->
<!-- Title: 16.svg Pages: 1 -->
<svg width="1055pt" height="374pt"
 viewBox="0.00 0.00 1054.50 374.00" xmlns="http://www.w3.org/2000/svg" xmlns:xlink="http://www.w3.org/1999/xlink">
<g id="graph0" class="graph" transform="scale(1 1) rotate(0) translate(4 370)">
<title>16.svg</title>
<polygon fill="white" stroke="none" points="-4,4 -4,-370 1050.5,-370 1050.5,4 -4,4"/>
<!-- r0 -->
<g id="node1" class="node"><title>r0</title>
<polygon fill="none" stroke="black" stroke-dasharray="5,2" points="568,-366 545,-366 545,-348 568,-348 568,-366"/>
<text text-anchor="middle" x="556.5" y="-354.8" font-family="serif" font-size="9.00">0</text>
</g>
<!-- v0 -->
<g id="v0_Building" class="node"><title>v0</title>
<ellipse fill="none" stroke="black" cx="556.5" cy="-301" rx="36" ry="11"/>
<text text-anchor="middle" x="556.5" y="-298.8" font-family="sans-serif" font-size="9.00">Building</text>
</g>
<!-- r0&#45;&gt;v0 -->
<g id="edge1" class="edge"><title>r0&#45;&gt;v0</title>
<path fill="none" stroke="black" d="M556.5,-347.562C556.5,-339.453 556.5,-327.014 556.5,-317.181"/>
<polygon fill="black" stroke="black" points="556.5,-312.03 558.75,-317.03 556.5,-314.53 556.5,-317.03 556.5,-317.03 556.5,-317.03 556.5,-314.53 554.25,-317.03 556.5,-312.03 556.5,-312.03"/>
</g>
<!-- r1 -->
<g id="node2" class="node"><title>r1</title>
<polygon fill="none" stroke="black" stroke-dasharray="5,2" points="960,-366 937,-366 937,-348 960,-348 960,-366"/>
<text text-anchor="middle" x="948.5" y="-354.8" font-family="serif" font-size="9.00">1</text>
</g>
<!-- v11 -->
<g id="v11_RulesKeywords" class="node"><title>v11</title>
<ellipse fill="none" stroke="black" cx="948.5" cy="-69" rx="54" ry="11"/>
<text text-anchor="middle" x="948.5" y="-66.8" font-family="sans-serif" font-size="9.00">RulesKeywords</text>
</g>
<!-- r1&#45;&gt;v11 -->
<g id="edge2" class="edge"><title>r1&#45;&gt;v11</title>
<path fill="none" stroke="black" d="M948.5,-347.849C948.5,-329.373 948.5,-282.889 948.5,-244 948.5,-244 948.5,-244 948.5,-184 948.5,-148.604 948.5,-107.026 948.5,-85.1783"/>
<polygon fill="black" stroke="black" points="948.5,-80.0648 950.75,-85.0648 948.5,-82.5648 948.5,-85.0648 948.5,-85.0648 948.5,-85.0648 948.5,-82.5648 946.25,-85.0648 948.5,-80.0648 948.5,-80.0648"/>
</g>
<!-- e7 -->
<g id="node3" class="node"><title>e7</title>
</g>
<!-- v8 -->
<g id="v8_SmartLight" class="node"><title>v8</title>
<ellipse fill="none" stroke="black" cx="619.5" cy="-11" rx="43" ry="11"/>
<text text-anchor="middle" x="619.5" y="-8.8" font-family="sans-serif" font-size="9.00">SmartLight</text>
</g>
<!-- e7&#45;&gt;v8 -->
<g id="edge28" class="edge"><title>e7&#45;&gt;v8</title>
<path fill="none" stroke="green" d="M619.5,-64.1674C619.5,-55.5862 619.5,-34.5957 619.5,-22.0117"/>
<polygon fill="green" stroke="green" points="623,-67.3001 616,-67.2999 616,-65.8999 623,-65.9001 623,-67.3001"/>
<polyline fill="none" stroke="green" points="619.5,-68 619.5,-64.5 "/>
</g>
<!-- v1 -->
<g id="v1_Floor" class="node"><title>v1</title>
<ellipse fill="none" stroke="black" cx="320.5" cy="-243" rx="25" ry="11"/>
<text text-anchor="middle" x="320.5" y="-240.8" font-family="sans-serif" font-size="9.00">Floor</text>
</g>
<!-- v0&#45;&gt;v1 -->
<g id="edge3" class="edge"><title>v0&#45;&gt;v1</title>
<path fill="none" stroke="black" d="M529.428,-293.576C483.728,-282.732 391.861,-260.933 346.733,-250.225"/>
<polygon fill="black" stroke="black" points="341.729,-249.037 347.114,-248.003 344.162,-249.615 346.594,-250.192 346.594,-250.192 346.594,-250.192 344.162,-249.615 346.075,-252.381 341.729,-249.037 341.729,-249.037"/>
</g>
<!-- v2 -->
<g id="v2_InstallationBus" class="node"><title>v2</title>
<ellipse fill="none" stroke="black" cx="815.5" cy="-69" rx="61" ry="11"/>
<text text-anchor="middle" x="815.5" y="-66.8" font-family="sans-serif" font-size="9.00">InstallationBus</text>
</g>
<!-- v0&#45;&gt;v2 -->
<g id="edge4" class="edge"><title>v0&#45;&gt;v2</title>
<path fill="none" stroke="black" d="M568.708,-290.588C599.919,-266.361 684.796,-199.437 750.5,-138 769.691,-120.056 790.431,-97.8105 803.195,-83.7565"/>
<polygon fill="black" stroke="black" points="806.575,-80.0201 804.889,-85.2373 804.898,-81.8739 803.221,-83.7278 803.221,-83.7278 803.221,-83.7278 804.898,-81.8739 801.552,-82.2182 806.575,-80.0201 806.575,-80.0201"/>
</g>
<!-- v4 -->
<g id="v4_Room" class="node"><title>v4</title>
<ellipse fill="none" stroke="black" cx="599.5" cy="-185" rx="21.5" ry="11"/>
<text text-anchor="middle" x="599.5" y="-182.8" font-family="sans-serif" font-size="9.00">Room</text>
</g>
<!-- v1&#45;&gt;v4 -->
<g id="edge5" class="edge"><title>v1&#45;&gt;v4</title>
<path fill="none" stroke="black" d="M342.393,-237.606C393.664,-227.315 521.239,-201.708 574.998,-190.918"/>
<polygon fill="black" stroke="black" points="579.964,-189.921 575.505,-193.111 577.513,-190.413 575.062,-190.905 575.062,-190.905 575.062,-190.905 577.513,-190.413 574.619,-188.699 579.964,-189.921 579.964,-189.921"/>
</g>
<!-- v10 -->
<g id="v10_Hallway" class="node"><title>v10</title>
<ellipse fill="none" stroke="black" cx="32.5" cy="-11" rx="32.5" ry="11"/>
<text text-anchor="middle" x="32.5" y="-8.8" font-family="sans-serif" font-size="9.00">Hallway</text>
</g>
<!-- v1&#45;&gt;v10 -->
<g id="edge6" class="edge"><title>v1&#45;&gt;v10</title>
<path fill="none" stroke="black" d="M309.21,-232.984C264.601,-197.358 100.523,-66.3236 48.4617,-24.7472"/>
<polygon fill="black" stroke="black" points="44.3417,-21.4569 49.6528,-22.819 46.2952,-23.017 48.2487,-24.5771 48.2487,-24.5771 48.2487,-24.5771 46.2952,-23.017 46.8446,-26.3353 44.3417,-21.4569 44.3417,-21.4569"/>
</g>
<!-- v14 -->
<g id="v14_Room" class="node"><title>v14</title>
<ellipse fill="none" stroke="black" cx="193.5" cy="-69" rx="21.5" ry="11"/>
<text text-anchor="middle" x="193.5" y="-66.8" font-family="sans-serif" font-size="9.00">Room</text>
</g>
<!-- v1&#45;&gt;v14 -->
<g id="edge7" class="edge"><title>v1&#45;&gt;v14</title>
<path fill="none" stroke="black" d="M313.308,-232.26C291.915,-203.287 228.626,-117.572 203.727,-83.8512"/>
<polygon fill="black" stroke="black" points="200.613,-79.6335 205.393,-82.3193 202.098,-81.6446 203.583,-83.6558 203.583,-83.6558 203.583,-83.6558 202.098,-81.6446 201.773,-84.9923 200.613,-79.6335 200.613,-79.6335"/>
</g>
<!-- v16 -->
<g id="v16_Room" class="node"><title>v16</title>
<ellipse fill="none" stroke="black" cx="320.5" cy="-69" rx="21.5" ry="11"/>
<text text-anchor="middle" x="320.5" y="-66.8" font-family="sans-serif" font-size="9.00">Room</text>
</g>
<!-- v1&#45;&gt;v16 -->
<g id="edge8" class="edge"><title>v1&#45;&gt;v16</title>
<path fill="none" stroke="black" d="M320.5,-231.756C320.5,-202.786 320.5,-120.136 320.5,-85.5335"/>
<polygon fill="black" stroke="black" points="320.5,-80.4081 322.75,-85.408 320.5,-82.9081 320.5,-85.4081 320.5,-85.4081 320.5,-85.4081 320.5,-82.9081 318.25,-85.4081 320.5,-80.4081 320.5,-80.4081"/>
</g>
<!-- v3 -->
<g id="v3_Data" class="node"><title>v3</title>
<ellipse fill="none" stroke="black" cx="815.5" cy="-11" rx="21.5" ry="11"/>
<text text-anchor="middle" x="815.5" y="-8.8" font-family="sans-serif" font-size="9.00">Data</text>
</g>
<!-- v2&#45;&gt;v3 -->
<g id="edge9" class="edge"><title>v2&#45;&gt;v3</title>
<path fill="none" stroke="black" d="M815.5,-57.9883C815.5,-49.4941 815.5,-37.1697 815.5,-27.4169"/>
<polygon fill="black" stroke="black" points="815.5,-22.3039 817.75,-27.3038 815.5,-24.8039 815.5,-27.3039 815.5,-27.3039 815.5,-27.3039 815.5,-24.8039 813.25,-27.3039 815.5,-22.3039 815.5,-22.3039"/>
</g>
<!-- v6 -->
<g id="v6_Laptop" class="node"><title>v6</title>
<ellipse fill="none" stroke="black" cx="707.5" cy="-69" rx="29" ry="11"/>
<text text-anchor="middle" x="707.5" y="-66.8" font-family="sans-serif" font-size="9.00">Laptop</text>
</g>
<!-- v2&#45;&gt;v6 -->
<g id="edge21" class="edge"><title>v2&#45;&gt;v6</title>
<path fill="none" stroke="green" d="M754.483,-69C748.525,-69 742.567,-69 736.609,-69"/>
</g>
<!-- v9 -->
<g id="v9_Workstation" class="node"><title>v9</title>
<ellipse fill="none" stroke="black" cx="511.5" cy="-11" rx="47" ry="11"/>
<text text-anchor="middle" x="511.5" y="-8.8" font-family="sans-serif" font-size="9.00">Workstation</text>
</g>
<!-- v2&#45;&gt;v9 -->
<g id="edge22" class="edge"><title>v2&#45;&gt;v9</title>
<path fill="none" stroke="green" d="M775.445,-60.6214C715.468,-49.573 603.31,-28.9124 546.458,-18.4397"/>
</g>
<!-- v15 -->
<g id="v15_SmartLight" class="node"><title>v15</title>
<ellipse fill="none" stroke="black" cx="126.5" cy="-11" rx="43" ry="11"/>
<text text-anchor="middle" x="126.5" y="-8.8" font-family="sans-serif" font-size="9.00">SmartLight</text>
</g>
<!-- v2&#45;&gt;v15 -->
<g id="edge23" class="edge"><title>v2&#45;&gt;v15</title>
<path fill="none" stroke="green" d="M771.876,-61.2287C763.155,-60.0273 754.048,-58.8806 745.5,-58 494.322,-32.1251 428.983,-53.9066 178.5,-22 171.752,-21.1404 164.56,-19.9422 157.744,-18.6729"/>
</g>
<!-- v17 -->
<g id="v17_SmartLight" class="node"><title>v17</title>
<ellipse fill="none" stroke="black" cx="230.5" cy="-11" rx="43" ry="11"/>
<text text-anchor="middle" x="230.5" y="-8.8" font-family="sans-serif" font-size="9.00">SmartLight</text>
</g>
<!-- v2&#45;&gt;v17 -->
<g id="edge24" class="edge"><title>v2&#45;&gt;v17</title>
<path fill="none" stroke="green" d="M771.492,-61.2729C762.886,-60.0819 753.92,-58.9278 745.5,-58 540.343,-35.3937 487.054,-49.5324 282.5,-22 275.758,-21.0925 268.569,-19.8741 261.754,-18.6003"/>
</g>
<!-- v18 -->
<g id="v18_Server" class="node"><title>v18</title>
<ellipse fill="none" stroke="black" cx="320.5" cy="-11" rx="29" ry="11"/>
<text text-anchor="middle" x="320.5" y="-8.8" font-family="sans-serif" font-size="9.00">Server</text>
</g>
<!-- v2&#45;&gt;v18 -->
<g id="edge25" class="edge"><title>v2&#45;&gt;v18</title>
<path fill="none" stroke="green" d="M771.481,-61.3734C762.875,-60.1736 753.912,-58.9905 745.5,-58 573.503,-37.7478 527.941,-52.7055 357.5,-22 352.392,-21.0798 346.962,-19.792 341.88,-18.446"/>
</g>
<!-- v19 -->
<g id="v19_FireAlarm" class="node"><title>v19</title>
<ellipse fill="none" stroke="black" cx="406.5" cy="-11" rx="39.5" ry="11"/>
<text text-anchor="middle" x="406.5" y="-8.8" font-family="sans-serif" font-size="9.00">FireAlarm</text>
</g>
<!-- v2&#45;&gt;v19 -->
<g id="edge26" class="edge"><title>v2&#45;&gt;v19</title>
<path fill="none" stroke="green" d="M770.706,-61.4759C762.333,-60.2919 753.653,-59.0883 745.5,-58 616.764,-40.8155 583.669,-43.0011 455.5,-22 449.16,-20.9611 442.391,-19.6872 435.97,-18.4011"/>
</g>
<!-- v5 -->
<g id="v5_Visitor" class="node"><title>v5</title>
<ellipse fill="none" stroke="black" cx="709.5" cy="-127" rx="32.5" ry="11"/>
<text text-anchor="middle" x="709.5" y="-124.8" font-family="sans-serif" font-size="9.00">Visitor</text>
</g>
<!-- v4&#45;&gt;v5 -->
<g id="edge10" class="edge"><title>v4&#45;&gt;v5</title>
<path fill="none" stroke="black" d="M613.881,-176.679C632.801,-167.047 666.211,-150.038 688.104,-138.893"/>
<polygon fill="black" stroke="black" points="692.591,-136.608 689.156,-140.882 690.363,-137.742 688.135,-138.877 688.135,-138.877 688.135,-138.877 690.363,-137.742 687.114,-136.872 692.591,-136.608 692.591,-136.608"/>
</g>
<!-- v4&#45;&gt;v8 -->
<g id="edge11" class="edge"><title>v4&#45;&gt;v8</title>
<path fill="none" stroke="black" d="M604.091,-174.021C613.293,-152.902 632.765,-102.014 628.5,-58 627.49,-47.573 625.219,-36.0005 623.212,-27.0713"/>
<polygon fill="black" stroke="black" points="622.072,-22.148 625.392,-26.5115 622.636,-24.5836 623.2,-27.0192 623.2,-27.0192 623.2,-27.0192 622.636,-24.5836 621.008,-27.5268 622.072,-22.148 622.072,-22.148"/>
</g>
<!-- v4&#45;&gt;v9 -->
<g id="edge12" class="edge"><title>v4&#45;&gt;v9</title>
<path fill="none" stroke="black" d="M594.517,-174.26C579.823,-145.54 536.605,-61.0692 519.046,-26.749"/>
<polygon fill="black" stroke="black" points="516.648,-22.0619 520.928,-25.4883 517.787,-24.2875 518.925,-26.5131 518.925,-26.5131 518.925,-26.5131 517.787,-24.2875 516.922,-27.538 516.648,-22.0619 516.648,-22.0619"/>
</g>
<!-- v4&#45;&gt;v10 -->
<g id="edge27" class="edge"><title>v4&#45;&gt;v10</title>
<path fill="none" stroke="green" d="M587.188,-175.835C551.993,-152.936 447.263,-87.8346 350.5,-58 232.286,-21.5513 196.169,-44.3566 74.5,-22 68.8972,-20.9705 62.9194,-19.6709 57.2831,-18.3523"/>
</g>
<!-- v5&#45;&gt;v6 -->
<g id="edge13" class="edge"><title>v5&#45;&gt;v6</title>
<path fill="none" stroke="black" d="M709.142,-115.988C708.839,-107.494 708.399,-95.1697 708.051,-85.4169"/>
<polygon fill="black" stroke="black" points="707.868,-80.3039 710.295,-85.2203 707.957,-82.8023 708.047,-85.3007 708.047,-85.3007 708.047,-85.3007 707.957,-82.8023 705.798,-85.381 707.868,-80.3039 707.868,-80.3039"/>
</g>
<!-- v7 -->
<g id="v7_Data" class="node"><title>v7</title>
<ellipse fill="none" stroke="black" cx="707.5" cy="-11" rx="21.5" ry="11"/>
<text text-anchor="middle" x="707.5" y="-8.8" font-family="sans-serif" font-size="9.00">Data</text>
</g>
<!-- v6&#45;&gt;v7 -->
<g id="edge14" class="edge"><title>v6&#45;&gt;v7</title>
<path fill="none" stroke="black" d="M707.5,-57.9883C707.5,-49.4941 707.5,-37.1697 707.5,-27.4169"/>
<polygon fill="black" stroke="black" points="707.5,-22.3039 709.75,-27.3038 707.5,-24.8039 707.5,-27.3039 707.5,-27.3039 707.5,-27.3039 707.5,-24.8039 705.25,-27.3039 707.5,-22.3039 707.5,-22.3039"/>
</g>
<!-- v10&#45;&gt;v14 -->
<g id="edge29" class="edge"><title>v10&#45;&gt;v14</title>
<path fill="none" stroke="green" d="M53.7563,-19.3935C86.1001,-30.6435 147.026,-51.835 176.574,-62.1129"/>
</g>
<!-- v10&#45;&gt;v16 -->
<g id="edge30" class="edge"><title>v10&#45;&gt;v16</title>
<path fill="none" stroke="green" d="M57.3284,-18.1238C62.9624,-19.4542 68.9277,-20.8164 74.5,-22 158.226,-39.7843 258.768,-57.4376 300.665,-64.6301"/>
</g>
<!-- v12 -->
<g id="v12_ExitRoom" class="node"><title>v12</title>
<ellipse fill="none" stroke="black" cx="920.5" cy="-11" rx="36" ry="11"/>
<text text-anchor="middle" x="920.5" y="-8.8" font-family="sans-serif" font-size="9.00">ExitRoom</text>
</g>
<!-- v11&#45;&gt;v12 -->
<g id="edge15" class="edge"><title>v11&#45;&gt;v12</title>
<path fill="none" stroke="black" d="M943.494,-57.9883C939.114,-49.2286 932.698,-36.3956 927.755,-26.5103"/>
<polygon fill="black" stroke="black" points="925.463,-21.925 929.711,-25.3909 926.581,-24.1611 927.699,-26.3971 927.699,-26.3971 927.699,-26.3971 926.581,-24.1611 925.686,-27.4034 925.463,-21.925 925.463,-21.925"/>
</g>
<!-- v13 -->
<g id="v13_ExitRoom" class="node"><title>v13</title>
<ellipse fill="none" stroke="black" cx="1010.5" cy="-11" rx="36" ry="11"/>
<text text-anchor="middle" x="1010.5" y="-8.8" font-family="sans-serif" font-size="9.00">ExitRoom</text>
</g>
<!-- v11&#45;&gt;v13 -->
<g id="edge16" class="edge"><title>v11&#45;&gt;v13</title>
<path fill="none" stroke="black" d="M959.584,-57.9883C969.759,-48.798 984.898,-35.1241 996.025,-25.0746"/>
<polygon fill="black" stroke="black" points="999.925,-21.5512 997.723,-26.5724 998.07,-23.2269 996.215,-24.9027 996.215,-24.9027 996.215,-24.9027 998.07,-23.2269 994.707,-23.2329 999.925,-21.5512 999.925,-21.5512"/>
</g>
<!-- v14&#45;&gt;v15 -->
<g id="edge17" class="edge"><title>v14&#45;&gt;v15</title>
<path fill="none" stroke="black" d="M183.031,-59.25C172.053,-50.0744 154.68,-35.5532 142.088,-25.0291"/>
<polygon fill="black" stroke="black" points="138.018,-21.6267 143.297,-23.1069 139.936,-23.23 141.854,-24.8333 141.854,-24.8333 141.854,-24.8333 139.936,-23.23 140.411,-26.5597 138.018,-21.6267 138.018,-21.6267"/>
</g>
<!-- v16&#45;&gt;v17 -->
<g id="edge18" class="edge"><title>v16&#45;&gt;v17</title>
<path fill="none" stroke="black" d="M307.605,-59.9766C292.46,-50.553 267.192,-34.8303 249.731,-23.9657"/>
<polygon fill="black" stroke="black" points="245.471,-21.315 250.905,-22.0462 247.593,-22.6358 249.716,-23.9566 249.716,-23.9566 249.716,-23.9566 247.593,-22.6358 248.527,-25.867 245.471,-21.315 245.471,-21.315"/>
</g>
<!-- v16&#45;&gt;v18 -->
<g id="edge19" class="edge"><title>v16&#45;&gt;v18</title>
<path fill="none" stroke="black" d="M320.5,-57.9883C320.5,-49.4941 320.5,-37.1697 320.5,-27.4169"/>
<polygon fill="black" stroke="black" points="320.5,-22.3039 322.75,-27.3038 320.5,-24.8039 320.5,-27.3039 320.5,-27.3039 320.5,-27.3039 320.5,-24.8039 318.25,-27.3039 320.5,-22.3039 320.5,-22.3039"/>
</g>
<!-- v16&#45;&gt;v19 -->
<g id="edge20" class="edge"><title>v16&#45;&gt;v19</title>
<path fill="none" stroke="black" d="M332.822,-59.9766C347.171,-50.6328 371.031,-35.0963 387.698,-24.243"/>
<polygon fill="black" stroke="black" points="392.195,-21.315 389.233,-25.929 390.1,-22.6792 388.005,-24.0434 388.005,-24.0434 388.005,-24.0434 390.1,-22.6792 386.777,-22.1579 392.195,-21.315 392.195,-21.315"/>
</g>
</g>
</svg>
