<?xml version="1.0" encoding="UTF-8" standalone="no"?>
<?xml-stylesheet href="style.css" type="text/css"?>
<!DOCTYPE svg PUBLIC "-//W3C//DTD SVG 1.1//EN"
 "http://www.w3.org/Graphics/SVG/1.1/DTD/svg11.dtd">
<!-- Generated by graphviz version 2.38.0 (20140413.2041)
 -->
<!-- Title: 17.svg Pages: 1 -->
<svg width="860pt" height="374pt"
 viewBox="0.00 0.00 859.50 374.00" xmlns="http://www.w3.org/2000/svg" xmlns:xlink="http://www.w3.org/1999/xlink">
<g id="graph0" class="graph" transform="scale(1 1) rotate(0) translate(4 370)">
<title>17.svg</title>
<polygon fill="white" stroke="none" points="-4,4 -4,-370 855.5,-370 855.5,4 -4,4"/>
<!-- r0 -->
<g id="node1" class="node"><title>r0</title>
<polygon fill="none" stroke="black" stroke-dasharray="5,2" points="334,-366 311,-366 311,-348 334,-348 334,-366"/>
<text text-anchor="middle" x="322.5" y="-354.8" font-family="serif" font-size="9.00">0</text>
</g>
<!-- v0 -->
<g id="v0_Building" class="node"><title>v0</title>
<ellipse fill="none" stroke="black" cx="322.5" cy="-301" rx="36" ry="11"/>
<text text-anchor="middle" x="322.5" y="-298.8" font-family="sans-serif" font-size="9.00">Building</text>
</g>
<!-- r0&#45;&gt;v0 -->
<g id="edge1" class="edge"><title>r0&#45;&gt;v0</title>
<path fill="none" stroke="black" d="M322.5,-347.562C322.5,-339.453 322.5,-327.014 322.5,-317.181"/>
<polygon fill="black" stroke="black" points="322.5,-312.03 324.75,-317.03 322.5,-314.53 322.5,-317.03 322.5,-317.03 322.5,-317.03 322.5,-314.53 320.25,-317.03 322.5,-312.03 322.5,-312.03"/>
</g>
<!-- oalarm -->
<g id="node2" class="node"><title>oalarm</title>
<text text-anchor="middle" x="22.5" y="-354.8" font-family="serif" font-size="9.00">alarm</text>
</g>
<!-- e1 -->
<g id="node12" class="node"><title>e1</title>
</g>
<!-- oalarm&#45;&gt;e1 -->
<g id="edge19" class="edge"><title>oalarm&#45;&gt;e1</title>
<path fill="none" stroke="green" d="M23.105,-347.885C26.1334,-307.27 39.5,-128 39.5,-128"/>
</g>
<!-- ocntrlRm -->
<g id="node3" class="node"><title>ocntrlRm</title>
<text text-anchor="middle" x="641.5" y="-354.8" font-family="serif" font-size="9.00">cntrlRm</text>
</g>
<!-- e2 -->
<g id="node13" class="node"><title>e2</title>
</g>
<!-- ocntrlRm&#45;&gt;e2 -->
<g id="edge22" class="edge"><title>ocntrlRm&#45;&gt;e2</title>
<path fill="none" stroke="green" d="M641.5,-347.945C641.5,-322.265 641.5,-244 641.5,-244"/>
</g>
<!-- oserv -->
<g id="node4" class="node"><title>oserv</title>
<text text-anchor="middle" x="80.5" y="-354.8" font-family="serif" font-size="9.00">serv</text>
</g>
<!-- e3 -->
<g id="node14" class="node"><title>e3</title>
</g>
<!-- oserv&#45;&gt;e3 -->
<g id="edge25" class="edge"><title>oserv&#45;&gt;e3</title>
<path fill="none" stroke="green" d="M80.5712,-347.885C80.9275,-307.27 82.5,-128 82.5,-128"/>
</g>
<!-- oserverRm -->
<g id="node5" class="node"><title>oserverRm</title>
<text text-anchor="middle" x="440.5" y="-354.8" font-family="serif" font-size="9.00">serverRm</text>
</g>
<!-- e4 -->
<g id="node15" class="node"><title>e4</title>
</g>
<!-- oserverRm&#45;&gt;e4 -->
<g id="edge28" class="edge"><title>oserverRm&#45;&gt;e4</title>
<path fill="none" stroke="green" d="M439.931,-347.885C437.08,-307.27 424.5,-128 424.5,-128"/>
</g>
<!-- osl1 -->
<g id="node6" class="node"><title>osl1</title>
<text text-anchor="middle" x="376.5" y="-354.8" font-family="serif" font-size="9.00">sl1</text>
</g>
<!-- e5 -->
<g id="node16" class="node"><title>e5</title>
</g>
<!-- osl1&#45;&gt;e5 -->
<g id="edge31" class="edge"><title>osl1&#45;&gt;e5</title>
<path fill="none" stroke="green" d="M376.144,-347.885C374.363,-307.27 366.5,-128 366.5,-128"/>
</g>
<!-- osl2 -->
<g id="node7" class="node"><title>osl2</title>
<text text-anchor="middle" x="131.5" y="-354.8" font-family="serif" font-size="9.00">sl2</text>
</g>
<!-- e6 -->
<g id="node17" class="node"><title>e6</title>
</g>
<!-- osl2&#45;&gt;e6 -->
<g id="edge34" class="edge"><title>osl2&#45;&gt;e6</title>
<path fill="none" stroke="green" d="M131.5,-347.885C131.5,-307.27 131.5,-128 131.5,-128"/>
</g>
<!-- osl3 -->
<g id="node8" class="node"><title>osl3</title>
<text text-anchor="middle" x="258.5" y="-354.8" font-family="serif" font-size="9.00">sl3</text>
</g>
<!-- e7 -->
<g id="node18" class="node"><title>e7</title>
</g>
<!-- osl3&#45;&gt;e7 -->
<g id="edge37" class="edge"><title>osl3&#45;&gt;e7</title>
<path fill="none" stroke="green" d="M258.571,-347.885C258.927,-307.27 260.5,-128 260.5,-128"/>
</g>
<!-- ostation -->
<g id="node9" class="node"><title>ostation</title>
<text text-anchor="middle" x="188.5" y="-354.8" font-family="serif" font-size="9.00">station</text>
</g>
<!-- e8 -->
<g id="node19" class="node"><title>e8</title>
</g>
<!-- ostation&#45;&gt;e8 -->
<g id="edge40" class="edge"><title>ostation&#45;&gt;e8</title>
<path fill="none" stroke="green" d="M188.678,-347.885C189.569,-307.27 193.5,-128 193.5,-128"/>
</g>
<!-- otoiletRm -->
<g id="node10" class="node"><title>otoiletRm</title>
<text text-anchor="middle" x="823.5" y="-354.8" font-family="serif" font-size="9.00">toiletRm</text>
</g>
<!-- e9 -->
<g id="node20" class="node"><title>e9</title>
</g>
<!-- otoiletRm&#45;&gt;e9 -->
<g id="edge43" class="edge"><title>otoiletRm&#45;&gt;e9</title>
<path fill="none" stroke="green" d="M823.5,-347.885C823.5,-307.27 823.5,-128 823.5,-128"/>
</g>
<!-- e0 -->
<g id="node11" class="node"><title>e0</title>
</g>
<!-- v4 -->
<g id="v4_Laptop" class="node"><title>v4</title>
<ellipse fill="none" stroke="black" cx="686.5" cy="-69" rx="29" ry="11"/>
<text text-anchor="middle" x="686.5" y="-66.8" font-family="sans-serif" font-size="9.00">Laptop</text>
</g>
<!-- e0&#45;&gt;v4 -->
<g id="edge18" class="edge"><title>e0&#45;&gt;v4</title>
<path fill="none" stroke="green" d="M637.864,-123.364C639.676,-121.345 642.241,-118.492 644.5,-116 655.976,-103.341 669.285,-88.7854 677.793,-79.4967"/>
<polygon fill="green" stroke="green" points="638.573,-127.815 633.361,-123.142 634.296,-122.1 639.508,-126.773 638.573,-127.815"/>
<polyline fill="none" stroke="green" points="635.5,-126 637.836,-123.394 "/>
</g>
<!-- v6 -->
<g id="v6_InstallationBus" class="node"><title>v6</title>
<ellipse fill="none" stroke="black" cx="209.5" cy="-69" rx="61" ry="11"/>
<text text-anchor="middle" x="209.5" y="-66.8" font-family="sans-serif" font-size="9.00">InstallationBus</text>
</g>
<!-- e1&#45;&gt;v6 -->
<g id="edge20" class="edge"><title>e1&#45;&gt;v6</title>
<path fill="none" stroke="green" d="M39.5,-126C39.5,-126 134.628,-94.6638 182.563,-78.8734"/>
</g>
<!-- v16 -->
<g id="v16_FireAlarm" class="node"><title>v16</title>
<ellipse fill="none" stroke="black" cx="39.5" cy="-11" rx="39.5" ry="11"/>
<text text-anchor="middle" x="39.5" y="-8.8" font-family="sans-serif" font-size="9.00">FireAlarm</text>
</g>
<!-- e1&#45;&gt;v16 -->
<g id="edge21" class="edge"><title>e1&#45;&gt;v16</title>
<path fill="none" stroke="green" d="M39.5,-126C39.5,-126 39.5,-50.0168 39.5,-22.1167"/>
</g>
<!-- v2 -->
<g id="v2_Room" class="node"><title>v2</title>
<ellipse fill="none" stroke="black" cx="523.5" cy="-185" rx="21.5" ry="11"/>
<text text-anchor="middle" x="523.5" y="-182.8" font-family="sans-serif" font-size="9.00">Room</text>
</g>
<!-- e2&#45;&gt;v2 -->
<g id="edge23" class="edge"><title>e2&#45;&gt;v2</title>
<path fill="none" stroke="green" d="M641.5,-242C641.5,-242 570.197,-208.161 538.445,-193.092"/>
</g>
<!-- v10 -->
<g id="v10_Hallway" class="node"><title>v10</title>
<ellipse fill="none" stroke="black" cx="771.5" cy="-11" rx="32.5" ry="11"/>
<text text-anchor="middle" x="771.5" y="-8.8" font-family="sans-serif" font-size="9.00">Hallway</text>
</g>
<!-- e2&#45;&gt;v10 -->
<g id="edge24" class="edge"><title>e2&#45;&gt;v10</title>
<path fill="none" stroke="green" d="M641.5,-242C641.5,-242 727.872,-242.169 761.5,-196 801.242,-141.437 782.265,-51.8198 774.366,-21.9997"/>
</g>
<!-- e3&#45;&gt;v6 -->
<g id="edge26" class="edge"><title>e3&#45;&gt;v6</title>
<path fill="none" stroke="green" d="M82.5,-126C82.5,-126 152.089,-95.315 188.243,-79.3731"/>
</g>
<!-- v15 -->
<g id="v15_Server" class="node"><title>v15</title>
<ellipse fill="none" stroke="black" cx="125.5" cy="-11" rx="29" ry="11"/>
<text text-anchor="middle" x="125.5" y="-8.8" font-family="sans-serif" font-size="9.00">Server</text>
</g>
<!-- e3&#45;&gt;v15 -->
<g id="edge27" class="edge"><title>e3&#45;&gt;v15</title>
<path fill="none" stroke="green" d="M82.5,-126C82.5,-126 95.0452,-87.9324 106.5,-58 111.256,-45.5725 117.166,-31.4505 121.12,-22.1699"/>
</g>
<!-- e4&#45;&gt;v10 -->
<g id="edge29" class="edge"><title>e4&#45;&gt;v10</title>
<path fill="none" stroke="green" d="M424.5,-126C424.5,-126 512.392,-82.6048 586.5,-58 641.782,-39.6457 708.492,-24.7864 744.788,-17.2917"/>
</g>
<!-- v13 -->
<g id="v13_Room" class="node"><title>v13</title>
<ellipse fill="none" stroke="black" cx="310.5" cy="-69" rx="21.5" ry="11"/>
<text text-anchor="middle" x="310.5" y="-66.8" font-family="sans-serif" font-size="9.00">Room</text>
</g>
<!-- e4&#45;&gt;v13 -->
<g id="edge30" class="edge"><title>e4&#45;&gt;v13</title>
<path fill="none" stroke="green" d="M424.5,-126C424.5,-126 416.487,-119.922 409.5,-116 381.239,-100.137 346.561,-84.9416 326.648,-76.5997"/>
</g>
<!-- e5&#45;&gt;v6 -->
<g id="edge32" class="edge"><title>e5&#45;&gt;v6</title>
<path fill="none" stroke="green" d="M366.5,-126C366.5,-126 279.562,-94.9903 235.074,-79.122"/>
</g>
<!-- v12 -->
<g id="v12_SmartLight" class="node"><title>v12</title>
<ellipse fill="none" stroke="black" cx="601.5" cy="-11" rx="43" ry="11"/>
<text text-anchor="middle" x="601.5" y="-8.8" font-family="sans-serif" font-size="9.00">SmartLight</text>
</g>
<!-- e5&#45;&gt;v12 -->
<g id="edge33" class="edge"><title>e5&#45;&gt;v12</title>
<path fill="none" stroke="green" d="M366.5,-126C366.5,-126 527.661,-47.8198 583.06,-20.9454"/>
</g>
<!-- e6&#45;&gt;v6 -->
<g id="edge35" class="edge"><title>e6&#45;&gt;v6</title>
<path fill="none" stroke="green" d="M131.5,-126C131.5,-126 173.566,-95.7988 195.913,-79.7545"/>
</g>
<!-- v14 -->
<g id="v14_SmartLight" class="node"><title>v14</title>
<ellipse fill="none" stroke="black" cx="277.5" cy="-11" rx="43" ry="11"/>
<text text-anchor="middle" x="277.5" y="-8.8" font-family="sans-serif" font-size="9.00">SmartLight</text>
</g>
<!-- e6&#45;&gt;v14 -->
<g id="edge36" class="edge"><title>e6&#45;&gt;v14</title>
<path fill="none" stroke="green" d="M131.5,-126C131.5,-126 120.293,-81.6031 139.5,-58 153.049,-41.3501 209.458,-26.5283 245.829,-18.4489"/>
</g>
<!-- v5 -->
<g id="v5_SmartLight" class="node"><title>v5</title>
<ellipse fill="none" stroke="black" cx="493.5" cy="-11" rx="43" ry="11"/>
<text text-anchor="middle" x="493.5" y="-8.8" font-family="sans-serif" font-size="9.00">SmartLight</text>
</g>
<!-- e7&#45;&gt;v5 -->
<g id="edge38" class="edge"><title>e7&#45;&gt;v5</title>
<path fill="none" stroke="green" d="M260.5,-126C260.5,-126 319.007,-102.019 364.5,-80 405.518,-60.1465 452.63,-34.5938 476.988,-21.1717"/>
</g>
<!-- e7&#45;&gt;v6 -->
<g id="edge39" class="edge"><title>e7&#45;&gt;v6</title>
<path fill="none" stroke="green" d="M260.5,-126C260.5,-126 233.287,-96.1193 218.618,-80.0117"/>
</g>
<!-- e8&#45;&gt;v6 -->
<g id="edge41" class="edge"><title>e8&#45;&gt;v6</title>
<path fill="none" stroke="green" d="M193.5,-126C193.5,-126 202.037,-96.1193 206.64,-80.0117"/>
</g>
<!-- v9 -->
<g id="v9_Workstation" class="node"><title>v9</title>
<ellipse fill="none" stroke="black" cx="385.5" cy="-11" rx="47" ry="11"/>
<text text-anchor="middle" x="385.5" y="-8.8" font-family="sans-serif" font-size="9.00">Workstation</text>
</g>
<!-- e8&#45;&gt;v9 -->
<g id="edge42" class="edge"><title>e8&#45;&gt;v9</title>
<path fill="none" stroke="green" d="M193.5,-126C193.5,-126 313.142,-100.571 340.5,-80 360.866,-64.6859 374.84,-37.2891 381.342,-22.3719"/>
</g>
<!-- e9&#45;&gt;v10 -->
<g id="edge44" class="edge"><title>e9&#45;&gt;v10</title>
<path fill="none" stroke="green" d="M823.5,-126C823.5,-126 813.239,-86.9551 799.5,-58 793.328,-44.9922 784.449,-30.9881 778.353,-21.8935"/>
</g>
<!-- v11 -->
<g id="v11_Room" class="node"><title>v11</title>
<ellipse fill="none" stroke="black" cx="617.5" cy="-69" rx="21.5" ry="11"/>
<text text-anchor="middle" x="617.5" y="-66.8" font-family="sans-serif" font-size="9.00">Room</text>
</g>
<!-- e9&#45;&gt;v11 -->
<g id="edge45" class="edge"><title>e9&#45;&gt;v11</title>
<path fill="none" stroke="green" d="M823.5,-126C823.5,-126 725.686,-102.575 648.5,-80 644.049,-78.6983 639.269,-77.2045 634.827,-75.7752"/>
</g>
<!-- v1 -->
<g id="v1_Floor" class="node"><title>v1</title>
<ellipse fill="none" stroke="black" cx="523.5" cy="-243" rx="25" ry="11"/>
<text text-anchor="middle" x="523.5" y="-240.8" font-family="sans-serif" font-size="9.00">Floor</text>
</g>
<!-- v0&#45;&gt;v1 -->
<g id="edge2" class="edge"><title>v0&#45;&gt;v1</title>
<path fill="none" stroke="black" d="M347.55,-293.021C386.124,-282.274 459.645,-261.79 498.306,-251.019"/>
<polygon fill="black" stroke="black" points="503.296,-249.629 499.084,-253.138 500.888,-250.3 498.48,-250.971 498.48,-250.971 498.48,-250.971 500.888,-250.3 497.876,-248.803 503.296,-249.629 503.296,-249.629"/>
</g>
<!-- v0&#45;&gt;v6 -->
<g id="edge3" class="edge"><title>v0&#45;&gt;v6</title>
<path fill="none" stroke="black" d="M317.499,-289.82C299.485,-253.155 237.869,-127.741 216.705,-84.6657"/>
<polygon fill="black" stroke="black" points="214.444,-80.062 218.668,-83.5575 215.546,-82.3059 216.648,-84.5497 216.648,-84.5497 216.648,-84.5497 215.546,-82.3059 214.629,-85.5419 214.444,-80.062 214.444,-80.062"/>
</g>
<!-- v1&#45;&gt;v2 -->
<g id="edge4" class="edge"><title>v1&#45;&gt;v2</title>
<path fill="none" stroke="black" d="M523.5,-231.988C523.5,-223.494 523.5,-211.17 523.5,-201.417"/>
<polygon fill="black" stroke="black" points="523.5,-196.304 525.75,-201.304 523.5,-198.804 523.5,-201.304 523.5,-201.304 523.5,-201.304 523.5,-198.804 521.25,-201.304 523.5,-196.304 523.5,-196.304"/>
</g>
<!-- v1&#45;&gt;v10 -->
<g id="edge5" class="edge"><title>v1&#45;&gt;v10</title>
<path fill="none" stroke="black" d="M544.677,-236.878C585.781,-225.867 676.783,-196.1 727.5,-138 756.093,-105.244 766.41,-52.8081 769.88,-27.1437"/>
<polygon fill="black" stroke="black" points="770.521,-22.0902 772.124,-27.3336 770.206,-24.5704 769.892,-27.0505 769.892,-27.0505 769.892,-27.0505 770.206,-24.5704 767.66,-26.7674 770.521,-22.0902 770.521,-22.0902"/>
</g>
<!-- v1&#45;&gt;v11 -->
<g id="edge6" class="edge"><title>v1&#45;&gt;v11</title>
<path fill="none" stroke="black" d="M530.25,-232.322C536.546,-223.143 546.059,-208.878 553.5,-196 576.19,-156.73 599.481,-108.476 610.675,-84.6878"/>
<polygon fill="black" stroke="black" points="612.876,-79.995 612.79,-85.4773 611.814,-82.2585 610.753,-84.522 610.753,-84.522 610.753,-84.522 611.814,-82.2585 608.716,-83.5668 612.876,-79.995 612.876,-79.995"/>
</g>
<!-- v1&#45;&gt;v13 -->
<g id="edge7" class="edge"><title>v1&#45;&gt;v13</title>
<path fill="none" stroke="black" d="M513.358,-232.814C489.751,-211.557 429.059,-157.617 375.5,-116 359.415,-103.502 340.313,-90.152 326.996,-81.0713"/>
<polygon fill="black" stroke="black" points="322.714,-78.1628 328.114,-79.1111 324.782,-79.5675 326.85,-80.9723 326.85,-80.9723 326.85,-80.9723 324.782,-79.5675 325.586,-82.8335 322.714,-78.1628 322.714,-78.1628"/>
</g>
<!-- v3 -->
<g id="v3_Visitor" class="node"><title>v3</title>
<ellipse fill="none" stroke="black" cx="686.5" cy="-127" rx="32.5" ry="11"/>
<text text-anchor="middle" x="686.5" y="-124.8" font-family="sans-serif" font-size="9.00">Visitor</text>
</g>
<!-- v2&#45;&gt;v3 -->
<g id="edge8" class="edge"><title>v2&#45;&gt;v3</title>
<path fill="none" stroke="black" d="M540.636,-178.113C569.149,-168.317 626.521,-148.606 660.19,-137.039"/>
<polygon fill="black" stroke="black" points="664.98,-135.393 660.982,-139.146 662.615,-136.206 660.251,-137.018 660.251,-137.018 660.251,-137.018 662.615,-136.206 659.52,-134.89 664.98,-135.393 664.98,-135.393"/>
</g>
<!-- v2&#45;&gt;v5 -->
<g id="edge9" class="edge"><title>v2&#45;&gt;v5</title>
<path fill="none" stroke="black" d="M521.757,-174.009C516.724,-145.153 502.143,-61.5561 496.135,-27.1091"/>
<polygon fill="black" stroke="black" points="495.247,-22.0185 498.323,-26.5575 495.677,-24.4813 496.107,-26.9441 496.107,-26.9441 496.107,-26.9441 495.677,-24.4813 493.89,-27.3308 495.247,-22.0185 495.247,-22.0185"/>
</g>
<!-- v2&#45;&gt;v9 -->
<g id="edge10" class="edge"><title>v2&#45;&gt;v9</title>
<path fill="none" stroke="black" d="M515.884,-174.508C492.956,-145.93 424.474,-60.5757 397.046,-26.3907"/>
<polygon fill="black" stroke="black" points="393.608,-22.1054 398.492,-24.5972 395.172,-24.0553 396.737,-26.0053 396.737,-26.0053 396.737,-26.0053 395.172,-24.0553 394.982,-27.4134 393.608,-22.1054 393.608,-22.1054"/>
</g>
<!-- v3&#45;&gt;v4 -->
<g id="edge11" class="edge"><title>v3&#45;&gt;v4</title>
<path fill="none" stroke="black" d="M686.5,-115.988C686.5,-107.494 686.5,-95.1697 686.5,-85.4169"/>
<polygon fill="black" stroke="black" points="686.5,-80.3039 688.75,-85.3038 686.5,-82.8039 686.5,-85.3039 686.5,-85.3039 686.5,-85.3039 686.5,-82.8039 684.25,-85.3039 686.5,-80.3039 686.5,-80.3039"/>
</g>
<!-- v8 -->
<g id="v8_Data" class="node"><title>v8</title>
<ellipse fill="none" stroke="black" cx="686.5" cy="-11" rx="21.5" ry="11"/>
<text text-anchor="middle" x="686.5" y="-8.8" font-family="sans-serif" font-size="9.00">Data</text>
</g>
<!-- v4&#45;&gt;v8 -->
<g id="edge12" class="edge"><title>v4&#45;&gt;v8</title>
<path fill="none" stroke="black" d="M686.5,-57.9883C686.5,-49.4941 686.5,-37.1697 686.5,-27.4169"/>
<polygon fill="black" stroke="black" points="686.5,-22.3039 688.75,-27.3038 686.5,-24.8039 686.5,-27.3039 686.5,-27.3039 686.5,-27.3039 686.5,-24.8039 684.25,-27.3039 686.5,-22.3039 686.5,-22.3039"/>
</g>
<!-- v7 -->
<g id="v7_Data" class="node"><title>v7</title>
<ellipse fill="none" stroke="black" cx="194.5" cy="-11" rx="21.5" ry="11"/>
<text text-anchor="middle" x="194.5" y="-8.8" font-family="sans-serif" font-size="9.00">Data</text>
</g>
<!-- v6&#45;&gt;v7 -->
<g id="edge13" class="edge"><title>v6&#45;&gt;v7</title>
<path fill="none" stroke="black" d="M206.818,-57.9883C204.493,-49.3083 201.097,-36.6286 198.459,-26.7806"/>
<polygon fill="black" stroke="black" points="197.158,-21.925 200.626,-26.1726 197.805,-24.3399 198.452,-26.7547 198.452,-26.7547 198.452,-26.7547 197.805,-24.3399 196.279,-27.3369 197.158,-21.925 197.158,-21.925"/>
</g>
<!-- v11&#45;&gt;v12 -->
<g id="edge14" class="edge"><title>v11&#45;&gt;v12</title>
<path fill="none" stroke="black" d="M614.64,-57.9883C612.19,-49.4154 608.626,-36.9411 605.828,-27.1466"/>
<polygon fill="black" stroke="black" points="604.444,-22.3039 607.981,-26.4933 605.131,-24.7077 605.818,-27.1115 605.818,-27.1115 605.818,-27.1115 605.131,-24.7077 603.654,-27.7297 604.444,-22.3039 604.444,-22.3039"/>
</g>
<!-- v13&#45;&gt;v14 -->
<g id="edge15" class="edge"><title>v13&#45;&gt;v14</title>
<path fill="none" stroke="black" d="M304.752,-58.2455C299.563,-49.4409 291.863,-36.373 285.969,-26.3724"/>
<polygon fill="black" stroke="black" points="283.404,-22.0198 287.881,-25.1851 284.674,-24.1736 285.943,-26.3275 285.943,-26.3275 285.943,-26.3275 284.674,-24.1736 284.005,-27.4698 283.404,-22.0198 283.404,-22.0198"/>
</g>
<!-- v13&#45;&gt;v15 -->
<g id="edge16" class="edge"><title>v13&#45;&gt;v15</title>
<path fill="none" stroke="black" d="M293.142,-62.327C288.701,-60.8958 283.928,-59.3755 279.5,-58 235.039,-44.1904 183.117,-28.8419 152.346,-19.8264"/>
<polygon fill="black" stroke="black" points="147.223,-18.3268 152.654,-17.5722 149.623,-19.0292 152.022,-19.7316 152.022,-19.7316 152.022,-19.7316 149.623,-19.0292 151.39,-21.891 147.223,-18.3268 147.223,-18.3268"/>
</g>
<!-- v13&#45;&gt;v16 -->
<g id="edge17" class="edge"><title>v13&#45;&gt;v16</title>
<path fill="none" stroke="black" d="M293.558,-62.1068C289.024,-60.6478 284.104,-59.1692 279.5,-58 195.351,-36.6301 172.669,-38.8545 87.5,-22 83.2387,-21.1567 78.769,-20.2523 74.3432,-19.3445"/>
<polygon fill="black" stroke="black" points="69.1831,-18.2809 74.5344,-17.0867 71.6316,-18.7856 74.0801,-19.2904 74.0801,-19.2904 74.0801,-19.2904 71.6316,-18.7856 73.6259,-21.4941 69.1831,-18.2809 69.1831,-18.2809"/>
</g>
</g>
</svg>
