<?xml version="1.0" encoding="UTF-8" standalone="no"?>
<?xml-stylesheet href="style.css" type="text/css"?>
<!DOCTYPE svg PUBLIC "-//W3C//DTD SVG 1.1//EN"
 "http://www.w3.org/Graphics/SVG/1.1/DTD/svg11.dtd">
<!-- Generated by graphviz version 2.38.0 (20140413.2041)
 -->
<!-- Title: 17.svg Pages: 1 -->
<svg width="1001pt" height="374pt"
 viewBox="0.00 0.00 1000.50 374.00" xmlns="http://www.w3.org/2000/svg" xmlns:xlink="http://www.w3.org/1999/xlink">
<g id="graph0" class="graph" transform="scale(1 1) rotate(0) translate(4 370)">
<title>17.svg</title>
<polygon fill="white" stroke="none" points="-4,4 -4,-370 996.5,-370 996.5,4 -4,4"/>
<!-- r0 -->
<g id="node1" class="node"><title>r0</title>
<polygon fill="none" stroke="black" stroke-dasharray="5,2" points="532,-366 509,-366 509,-348 532,-348 532,-366"/>
<text text-anchor="middle" x="520.5" y="-354.8" font-family="serif" font-size="9.00">0</text>
</g>
<!-- v0 -->
<g id="v0_Building" class="node"><title>v0</title>
<ellipse fill="none" stroke="black" cx="520.5" cy="-301" rx="36" ry="11"/>
<text text-anchor="middle" x="520.5" y="-298.8" font-family="sans-serif" font-size="9.00">Building</text>
</g>
<!-- r0&#45;&gt;v0 -->
<g id="edge1" class="edge"><title>r0&#45;&gt;v0</title>
<path fill="none" stroke="black" d="M520.5,-347.562C520.5,-339.453 520.5,-327.014 520.5,-317.181"/>
<polygon fill="black" stroke="black" points="520.5,-312.03 522.75,-317.03 520.5,-314.53 520.5,-317.03 520.5,-317.03 520.5,-317.03 520.5,-314.53 518.25,-317.03 520.5,-312.03 520.5,-312.03"/>
</g>
<!-- r1 -->
<g id="node2" class="node"><title>r1</title>
<polygon fill="none" stroke="black" stroke-dasharray="5,2" points="903,-366 880,-366 880,-348 903,-348 903,-366"/>
<text text-anchor="middle" x="891.5" y="-354.8" font-family="serif" font-size="9.00">1</text>
</g>
<!-- v12 -->
<g id="v12_RulesKeywords" class="node"><title>v12</title>
<ellipse fill="none" stroke="black" cx="891.5" cy="-69" rx="54" ry="11"/>
<text text-anchor="middle" x="891.5" y="-66.8" font-family="sans-serif" font-size="9.00">RulesKeywords</text>
</g>
<!-- r1&#45;&gt;v12 -->
<g id="edge2" class="edge"><title>r1&#45;&gt;v12</title>
<path fill="none" stroke="black" d="M891.5,-347.849C891.5,-329.373 891.5,-282.889 891.5,-244 891.5,-244 891.5,-244 891.5,-184 891.5,-148.604 891.5,-107.026 891.5,-85.1783"/>
<polygon fill="black" stroke="black" points="891.5,-80.0648 893.75,-85.0648 891.5,-82.5648 891.5,-85.0648 891.5,-85.0648 891.5,-85.0648 891.5,-82.5648 889.25,-85.0648 891.5,-80.0648 891.5,-80.0648"/>
</g>
<!-- e1 -->
<g id="node3" class="node"><title>e1</title>
</g>
<!-- v4 -->
<g id="v4_Laptop" class="node"><title>v4</title>
<ellipse fill="none" stroke="black" cx="501.5" cy="-69" rx="29" ry="11"/>
<text text-anchor="middle" x="501.5" y="-66.8" font-family="sans-serif" font-size="9.00">Laptop</text>
</g>
<!-- e1&#45;&gt;v4 -->
<g id="edge22" class="edge"><title>e1&#45;&gt;v4</title>
<path fill="none" stroke="green" d="M501.5,-122.167C501.5,-113.586 501.5,-92.5957 501.5,-80.0117"/>
<polygon fill="green" stroke="green" points="505,-125.3 498,-125.3 498,-123.9 505,-123.9 505,-125.3"/>
<polyline fill="none" stroke="green" points="501.5,-126 501.5,-122.5 "/>
</g>
<!-- v1 -->
<g id="v1_Floor" class="node"><title>v1</title>
<ellipse fill="none" stroke="black" cx="312.5" cy="-243" rx="25" ry="11"/>
<text text-anchor="middle" x="312.5" y="-240.8" font-family="sans-serif" font-size="9.00">Floor</text>
</g>
<!-- v0&#45;&gt;v1 -->
<g id="edge3" class="edge"><title>v0&#45;&gt;v1</title>
<path fill="none" stroke="black" d="M494.995,-293.133C455.025,-282.372 378.072,-261.654 338.064,-250.883"/>
<polygon fill="black" stroke="black" points="332.906,-249.494 338.319,-248.621 335.32,-250.144 337.734,-250.794 337.734,-250.794 337.734,-250.794 335.32,-250.144 337.149,-252.966 332.906,-249.494 332.906,-249.494"/>
</g>
<!-- v6 -->
<g id="v6_InstallationBus" class="node"><title>v6</title>
<ellipse fill="none" stroke="black" cx="758.5" cy="-69" rx="61" ry="11"/>
<text text-anchor="middle" x="758.5" y="-66.8" font-family="sans-serif" font-size="9.00">InstallationBus</text>
</g>
<!-- v0&#45;&gt;v6 -->
<g id="edge4" class="edge"><title>v0&#45;&gt;v6</title>
<path fill="none" stroke="black" d="M530.424,-290.41C567.913,-254.181 700.992,-125.575 744.572,-83.4599"/>
<polygon fill="black" stroke="black" points="748.268,-79.888 746.236,-84.9806 746.47,-81.6253 744.673,-83.3626 744.673,-83.3626 744.673,-83.3626 746.47,-81.6253 743.109,-81.7447 748.268,-79.888 748.268,-79.888"/>
</g>
<!-- v2 -->
<g id="v2_Room" class="node"><title>v2</title>
<ellipse fill="none" stroke="black" cx="552.5" cy="-185" rx="21.5" ry="11"/>
<text text-anchor="middle" x="552.5" y="-182.8" font-family="sans-serif" font-size="9.00">Room</text>
</g>
<!-- v1&#45;&gt;v2 -->
<g id="edge5" class="edge"><title>v1&#45;&gt;v2</title>
<path fill="none" stroke="black" d="M333.798,-237.03C378.516,-226.596 481.907,-202.472 528.713,-191.55"/>
<polygon fill="black" stroke="black" points="533.599,-190.41 529.241,-193.738 531.164,-190.978 528.73,-191.547 528.73,-191.547 528.73,-191.547 531.164,-190.978 528.218,-189.355 533.599,-190.41 533.599,-190.41"/>
</g>
<!-- v11 -->
<g id="v11_Hallway" class="node"><title>v11</title>
<ellipse fill="none" stroke="black" cx="32.5" cy="-11" rx="32.5" ry="11"/>
<text text-anchor="middle" x="32.5" y="-8.8" font-family="sans-serif" font-size="9.00">Hallway</text>
</g>
<!-- v1&#45;&gt;v11 -->
<g id="edge6" class="edge"><title>v1&#45;&gt;v11</title>
<path fill="none" stroke="black" d="M300.887,-232.909C289.136,-223.682 270.472,-208.951 254.5,-196 176.408,-132.682 84.2115,-55.4664 48.1039,-25.129"/>
<polygon fill="black" stroke="black" points="43.9833,-21.6658 49.2587,-23.1604 45.8972,-23.2743 47.811,-24.8828 47.811,-24.8828 47.811,-24.8828 45.8972,-23.2743 46.3633,-26.6053 43.9833,-21.6658 43.9833,-21.6658"/>
</g>
<!-- v15 -->
<g id="v15_Room" class="node"><title>v15</title>
<ellipse fill="none" stroke="black" cx="174.5" cy="-69" rx="21.5" ry="11"/>
<text text-anchor="middle" x="174.5" y="-66.8" font-family="sans-serif" font-size="9.00">Room</text>
</g>
<!-- v1&#45;&gt;v15 -->
<g id="edge7" class="edge"><title>v1&#45;&gt;v15</title>
<path fill="none" stroke="black" d="M304.884,-232.508C281.847,-203.795 212.826,-117.769 185.661,-83.9103"/>
<polygon fill="black" stroke="black" points="182.263,-79.6752 187.147,-82.167 183.827,-81.6251 185.392,-83.5751 185.392,-83.5751 185.392,-83.5751 183.827,-81.6251 183.637,-84.9832 182.263,-79.6752 182.263,-79.6752"/>
</g>
<!-- v17 -->
<g id="v17_Room" class="node"><title>v17</title>
<ellipse fill="none" stroke="black" cx="312.5" cy="-69" rx="21.5" ry="11"/>
<text text-anchor="middle" x="312.5" y="-66.8" font-family="sans-serif" font-size="9.00">Room</text>
</g>
<!-- v1&#45;&gt;v17 -->
<g id="edge8" class="edge"><title>v1&#45;&gt;v17</title>
<path fill="none" stroke="black" d="M312.5,-231.756C312.5,-202.786 312.5,-120.136 312.5,-85.5335"/>
<polygon fill="black" stroke="black" points="312.5,-80.4081 314.75,-85.408 312.5,-82.9081 312.5,-85.4081 312.5,-85.4081 312.5,-85.4081 312.5,-82.9081 310.25,-85.4081 312.5,-80.4081 312.5,-80.4081"/>
</g>
<!-- v3 -->
<g id="v3_Visitor" class="node"><title>v3</title>
<ellipse fill="none" stroke="black" cx="552.5" cy="-127" rx="32.5" ry="11"/>
<text text-anchor="middle" x="552.5" y="-124.8" font-family="sans-serif" font-size="9.00">Visitor</text>
</g>
<!-- v2&#45;&gt;v3 -->
<g id="edge9" class="edge"><title>v2&#45;&gt;v3</title>
<path fill="none" stroke="black" d="M552.5,-173.988C552.5,-165.494 552.5,-153.17 552.5,-143.417"/>
<polygon fill="black" stroke="black" points="552.5,-138.304 554.75,-143.304 552.5,-140.804 552.5,-143.304 552.5,-143.304 552.5,-143.304 552.5,-140.804 550.25,-143.304 552.5,-138.304 552.5,-138.304"/>
</g>
<!-- v5 -->
<g id="v5_SmartLight" class="node"><title>v5</title>
<ellipse fill="none" stroke="black" cx="681.5" cy="-11" rx="43" ry="11"/>
<text text-anchor="middle" x="681.5" y="-8.8" font-family="sans-serif" font-size="9.00">SmartLight</text>
</g>
<!-- v2&#45;&gt;v5 -->
<g id="edge10" class="edge"><title>v2&#45;&gt;v5</title>
<path fill="none" stroke="black" d="M565.219,-176.043C577.83,-167.697 597.148,-153.638 610.5,-138 640.943,-102.345 664.748,-51.672 675.403,-26.8559"/>
<polygon fill="black" stroke="black" points="677.475,-21.9676 677.596,-27.4492 676.499,-24.2694 675.524,-26.5712 675.524,-26.5712 675.524,-26.5712 676.499,-24.2694 673.452,-25.6932 677.475,-21.9676 677.475,-21.9676"/>
</g>
<!-- v9 -->
<g id="v9_Server" class="node"><title>v9</title>
<ellipse fill="none" stroke="black" cx="432.5" cy="-11" rx="29" ry="11"/>
<text text-anchor="middle" x="432.5" y="-8.8" font-family="sans-serif" font-size="9.00">Server</text>
</g>
<!-- v2&#45;&gt;v9 -->
<g id="edge11" class="edge"><title>v2&#45;&gt;v9</title>
<path fill="none" stroke="black" d="M538.879,-176.366C525.426,-168.273 504.963,-154.405 491.5,-138 462.889,-103.136 444.627,-52.1002 436.838,-27.0297"/>
<polygon fill="black" stroke="black" points="435.335,-22.0893 438.943,-26.2179 436.063,-24.481 436.79,-26.8728 436.79,-26.8728 436.79,-26.8728 436.063,-24.481 434.638,-27.5277 435.335,-22.0893 435.335,-22.0893"/>
</g>
<!-- v10 -->
<g id="v10_FireAlarm" class="node"><title>v10</title>
<ellipse fill="none" stroke="black" cx="580.5" cy="-11" rx="39.5" ry="11"/>
<text text-anchor="middle" x="580.5" y="-8.8" font-family="sans-serif" font-size="9.00">FireAlarm</text>
</g>
<!-- v2&#45;&gt;v10 -->
<g id="edge12" class="edge"><title>v2&#45;&gt;v10</title>
<path fill="none" stroke="black" d="M563.661,-175.565C573.633,-167.265 587.559,-153.595 593.5,-138 607.972,-100.012 594.766,-51.189 586.308,-26.9849"/>
<polygon fill="black" stroke="black" points="584.587,-22.2064 588.398,-26.1481 585.434,-24.5585 586.281,-26.9106 586.281,-26.9106 586.281,-26.9106 585.434,-24.5585 584.164,-27.6731 584.587,-22.2064 584.587,-22.2064"/>
</g>
<!-- v2&#45;&gt;v11 -->
<g id="edge21" class="edge"><title>v2&#45;&gt;v11</title>
<path fill="none" stroke="green" d="M541.493,-175.117C511.6,-151.521 425.561,-87.0993 342.5,-58 229.078,-18.2642 192.66,-43.9457 74.5,-22 68.8992,-20.9598 62.9222,-19.6558 57.286,-18.3364"/>
</g>
<!-- v3&#45;&gt;v4 -->
<g id="edge13" class="edge"><title>v3&#45;&gt;v4</title>
<path fill="none" stroke="black" d="M543.616,-116.246C535.353,-107.172 522.965,-93.5697 513.762,-83.4636"/>
<polygon fill="black" stroke="black" points="510.282,-79.6427 515.312,-81.8244 511.965,-81.491 513.648,-83.3394 513.648,-83.3394 513.648,-83.3394 511.965,-81.491 511.985,-84.8544 510.282,-79.6427 510.282,-79.6427"/>
</g>
<!-- v8 -->
<g id="v8_Data" class="node"><title>v8</title>
<ellipse fill="none" stroke="black" cx="501.5" cy="-11" rx="21.5" ry="11"/>
<text text-anchor="middle" x="501.5" y="-8.8" font-family="sans-serif" font-size="9.00">Data</text>
</g>
<!-- v4&#45;&gt;v8 -->
<g id="edge14" class="edge"><title>v4&#45;&gt;v8</title>
<path fill="none" stroke="black" d="M501.5,-57.9883C501.5,-49.4941 501.5,-37.1697 501.5,-27.4169"/>
<polygon fill="black" stroke="black" points="501.5,-22.3039 503.75,-27.3038 501.5,-24.8039 501.5,-27.3039 501.5,-27.3039 501.5,-27.3039 501.5,-24.8039 499.25,-27.3039 501.5,-22.3039 501.5,-22.3039"/>
</g>
<!-- v5&#45;&gt;v6 -->
<g id="edge23" class="edge"><title>v5&#45;&gt;v6</title>
<path fill="none" stroke="green" d="M694.759,-21.6427C708.833,-31.8787 730.955,-47.9671 745.088,-58.2455"/>
</g>
<!-- v7 -->
<g id="v7_Data" class="node"><title>v7</title>
<ellipse fill="none" stroke="black" cx="764.5" cy="-11" rx="21.5" ry="11"/>
<text text-anchor="middle" x="764.5" y="-8.8" font-family="sans-serif" font-size="9.00">Data</text>
</g>
<!-- v6&#45;&gt;v7 -->
<g id="edge15" class="edge"><title>v6&#45;&gt;v7</title>
<path fill="none" stroke="black" d="M759.573,-57.9883C760.483,-49.4941 761.803,-37.1697 762.848,-27.4169"/>
<polygon fill="black" stroke="black" points="763.396,-22.3039 765.1,-27.5152 763.13,-24.7896 762.863,-27.2754 762.863,-27.2754 762.863,-27.2754 763.13,-24.7896 760.626,-27.0357 763.396,-22.3039 763.396,-22.3039"/>
</g>
<!-- v6&#45;&gt;v9 -->
<g id="edge24" class="edge"><title>v6&#45;&gt;v9</title>
<path fill="none" stroke="green" d="M711.599,-61.9619C654.383,-54.2621 554.849,-39.7891 470.5,-22 465.293,-20.9019 459.732,-19.5447 454.515,-18.1881"/>
</g>
<!-- v6&#45;&gt;v10 -->
<g id="edge25" class="edge"><title>v6&#45;&gt;v10</title>
<path fill="none" stroke="green" d="M730.295,-59.1266C695.691,-48.2398 637.598,-29.9635 604.854,-19.6621"/>
</g>
<!-- v16 -->
<g id="v16_SmartLight" class="node"><title>v16</title>
<ellipse fill="none" stroke="black" cx="126.5" cy="-11" rx="43" ry="11"/>
<text text-anchor="middle" x="126.5" y="-8.8" font-family="sans-serif" font-size="9.00">SmartLight</text>
</g>
<!-- v6&#45;&gt;v16 -->
<g id="edge26" class="edge"><title>v6&#45;&gt;v16</title>
<path fill="none" stroke="green" d="M700.235,-65.5188C595.454,-60.5813 368.435,-47.7143 178.5,-22 171.759,-21.0873 164.57,-19.8667 157.755,-18.5924"/>
</g>
<!-- v18 -->
<g id="v18_SmartLight" class="node"><title>v18</title>
<ellipse fill="none" stroke="black" cx="342.5" cy="-11" rx="43" ry="11"/>
<text text-anchor="middle" x="342.5" y="-8.8" font-family="sans-serif" font-size="9.00">SmartLight</text>
</g>
<!-- v6&#45;&gt;v18 -->
<g id="edge27" class="edge"><title>v6&#45;&gt;v18</title>
<path fill="none" stroke="green" d="M708.308,-62.6901C637.969,-55.014 506.157,-39.7726 394.5,-22 387.963,-20.9595 380.99,-19.7133 374.343,-18.4594"/>
</g>
<!-- v19 -->
<g id="v19_Workstation" class="node"><title>v19</title>
<ellipse fill="none" stroke="black" cx="234.5" cy="-11" rx="47" ry="11"/>
<text text-anchor="middle" x="234.5" y="-8.8" font-family="sans-serif" font-size="9.00">Workstation</text>
</g>
<!-- v6&#45;&gt;v19 -->
<g id="edge28" class="edge"><title>v6&#45;&gt;v19</title>
<path fill="none" stroke="green" d="M703.934,-64.0385C616.453,-57.3726 439.508,-42.5948 290.5,-22 283.456,-21.0265 275.945,-19.8095 268.786,-18.5631"/>
</g>
<!-- v11&#45;&gt;v15 -->
<g id="edge29" class="edge"><title>v11&#45;&gt;v15</title>
<path fill="none" stroke="green" d="M52.2258,-19.7792C80.4898,-30.9255 131.985,-51.2335 158.211,-61.5761"/>
</g>
<!-- v11&#45;&gt;v17 -->
<g id="edge30" class="edge"><title>v11&#45;&gt;v17</title>
<path fill="none" stroke="green" d="M57.3337,-18.0987C62.9674,-19.4304 68.9314,-20.7995 74.5,-22 155.132,-39.383 251.808,-57.1126 292.695,-64.4685"/>
</g>
<!-- v13 -->
<g id="v13_ExitRoom" class="node"><title>v13</title>
<ellipse fill="none" stroke="black" cx="866.5" cy="-11" rx="36" ry="11"/>
<text text-anchor="middle" x="866.5" y="-8.8" font-family="sans-serif" font-size="9.00">ExitRoom</text>
</g>
<!-- v12&#45;&gt;v13 -->
<g id="edge16" class="edge"><title>v12&#45;&gt;v13</title>
<path fill="none" stroke="black" d="M887.031,-57.9883C883.12,-49.2286 877.391,-36.3956 872.978,-26.5103"/>
<polygon fill="black" stroke="black" points="870.931,-21.925 875.024,-25.5735 871.95,-24.2079 872.969,-26.4907 872.969,-26.4907 872.969,-26.4907 871.95,-24.2079 870.915,-27.4079 870.931,-21.925 870.931,-21.925"/>
</g>
<!-- v14 -->
<g id="v14_ExitRoom" class="node"><title>v14</title>
<ellipse fill="none" stroke="black" cx="956.5" cy="-11" rx="36" ry="11"/>
<text text-anchor="middle" x="956.5" y="-8.8" font-family="sans-serif" font-size="9.00">ExitRoom</text>
</g>
<!-- v12&#45;&gt;v14 -->
<g id="edge17" class="edge"><title>v12&#45;&gt;v14</title>
<path fill="none" stroke="black" d="M903.121,-57.9883C913.788,-48.798 929.66,-35.1241 941.324,-25.0746"/>
<polygon fill="black" stroke="black" points="945.414,-21.5512 943.094,-26.5194 943.52,-23.183 941.626,-24.8148 941.626,-24.8148 941.626,-24.8148 943.52,-23.183 940.157,-23.1101 945.414,-21.5512 945.414,-21.5512"/>
</g>
<!-- v15&#45;&gt;v16 -->
<g id="edge18" class="edge"><title>v15&#45;&gt;v16</title>
<path fill="none" stroke="black" d="M166.574,-58.7527C158.863,-49.7573 147.057,-35.9828 138.253,-25.7121"/>
<polygon fill="black" stroke="black" points="134.923,-21.8266 139.885,-24.1586 136.55,-23.7247 138.177,-25.6229 138.177,-25.6229 138.177,-25.6229 136.55,-23.7247 136.468,-27.0872 134.923,-21.8266 134.923,-21.8266"/>
</g>
<!-- v17&#45;&gt;v18 -->
<g id="edge19" class="edge"><title>v17&#45;&gt;v18</title>
<path fill="none" stroke="black" d="M317.726,-58.2455C322.4,-49.5202 329.317,-36.6082 334.655,-26.6435"/>
<polygon fill="black" stroke="black" points="337.132,-22.0198 336.754,-27.4897 335.952,-24.2235 334.771,-26.4272 334.771,-26.4272 334.771,-26.4272 335.952,-24.2235 332.788,-25.3646 337.132,-22.0198 337.132,-22.0198"/>
</g>
<!-- v17&#45;&gt;v19 -->
<g id="edge20" class="edge"><title>v17&#45;&gt;v19</title>
<path fill="none" stroke="black" d="M300.653,-59.4948C287.831,-50.2888 267.234,-35.5013 252.428,-24.8712"/>
<polygon fill="black" stroke="black" points="248.034,-21.7165 253.408,-22.8048 250.064,-23.1745 252.095,-24.6326 252.095,-24.6326 252.095,-24.6326 250.064,-23.1745 250.783,-26.4603 248.034,-21.7165 248.034,-21.7165"/>
</g>
</g>
</svg>
