<?xml version="1.0" encoding="UTF-8" standalone="no"?>
<?xml-stylesheet href="style.css" type="text/css"?>
<!DOCTYPE svg PUBLIC "-//W3C//DTD SVG 1.1//EN"
 "http://www.w3.org/Graphics/SVG/1.1/DTD/svg11.dtd">
<!-- Generated by graphviz version 2.38.0 (20140413.2041)
 -->
<!-- Title: 18.svg Pages: 1 -->
<svg width="1243pt" height="374pt"
 viewBox="0.00 0.00 1243.00 374.00" xmlns="http://www.w3.org/2000/svg" xmlns:xlink="http://www.w3.org/1999/xlink">
<g id="graph0" class="graph" transform="scale(1 1) rotate(0) translate(4 370)">
<title>18.svg</title>
<polygon fill="white" stroke="none" points="-4,4 -4,-370 1239,-370 1239,4 -4,4"/>
<!-- r0 -->
<g id="node1" class="node"><title>r0</title>
<polygon fill="none" stroke="black" stroke-dasharray="5,2" points="645,-366 622,-366 622,-348 645,-348 645,-366"/>
<text text-anchor="middle" x="633.5" y="-354.8" font-family="serif" font-size="9.00">0</text>
</g>
<!-- v0 -->
<g id="v0_Building" class="node"><title>v0</title>
<ellipse fill="none" stroke="black" cx="633.5" cy="-301" rx="36" ry="11"/>
<text text-anchor="middle" x="633.5" y="-298.8" font-family="sans-serif" font-size="9.00">Building</text>
</g>
<!-- r0&#45;&gt;v0 -->
<g id="edge1" class="edge"><title>r0&#45;&gt;v0</title>
<path fill="none" stroke="black" d="M633.5,-347.562C633.5,-339.453 633.5,-327.014 633.5,-317.181"/>
<polygon fill="black" stroke="black" points="633.5,-312.03 635.75,-317.03 633.5,-314.53 633.5,-317.03 633.5,-317.03 633.5,-317.03 633.5,-314.53 631.25,-317.03 633.5,-312.03 633.5,-312.03"/>
</g>
<!-- r1 -->
<g id="node2" class="node"><title>r1</title>
<polygon fill="none" stroke="black" stroke-dasharray="5,2" points="1091,-366 1068,-366 1068,-348 1091,-348 1091,-366"/>
<text text-anchor="middle" x="1079.5" y="-354.8" font-family="serif" font-size="9.00">1</text>
</g>
<!-- v9 -->
<g id="v9_RulesKeywords" class="node"><title>v9</title>
<ellipse fill="none" stroke="black" cx="1079.5" cy="-69" rx="54" ry="11"/>
<text text-anchor="middle" x="1079.5" y="-66.8" font-family="sans-serif" font-size="9.00">RulesKeywords</text>
</g>
<!-- r1&#45;&gt;v9 -->
<g id="edge2" class="edge"><title>r1&#45;&gt;v9</title>
<path fill="none" stroke="black" d="M1079.5,-347.849C1079.5,-329.373 1079.5,-282.889 1079.5,-244 1079.5,-244 1079.5,-244 1079.5,-184 1079.5,-148.604 1079.5,-107.026 1079.5,-85.1783"/>
<polygon fill="black" stroke="black" points="1079.5,-80.0648 1081.75,-85.0648 1079.5,-82.5648 1079.5,-85.0648 1079.5,-85.0648 1079.5,-85.0648 1079.5,-82.5648 1077.25,-85.0648 1079.5,-80.0648 1079.5,-80.0648"/>
</g>
<!-- e7 -->
<g id="node3" class="node"><title>e7</title>
</g>
<!-- v8 -->
<g id="v8_SmartLight" class="node"><title>v8</title>
<ellipse fill="none" stroke="black" cx="209.5" cy="-11" rx="43" ry="11"/>
<text text-anchor="middle" x="209.5" y="-8.8" font-family="sans-serif" font-size="9.00">SmartLight</text>
</g>
<!-- e7&#45;&gt;v8 -->
<g id="edge30" class="edge"><title>e7&#45;&gt;v8</title>
<path fill="none" stroke="green" d="M209.5,-64.1674C209.5,-55.5862 209.5,-34.5957 209.5,-22.0117"/>
<polygon fill="green" stroke="green" points="213,-67.3001 206,-67.2999 206,-65.8999 213,-65.9001 213,-67.3001"/>
<polyline fill="none" stroke="green" points="209.5,-68 209.5,-64.5 "/>
</g>
<!-- v1 -->
<g id="v1_Floor" class="node"><title>v1</title>
<ellipse fill="none" stroke="black" cx="480.5" cy="-243" rx="25" ry="11"/>
<text text-anchor="middle" x="480.5" y="-240.8" font-family="sans-serif" font-size="9.00">Floor</text>
</g>
<!-- v0&#45;&gt;v1 -->
<g id="edge3" class="edge"><title>v0&#45;&gt;v1</title>
<path fill="none" stroke="black" d="M611.903,-292.095C583.248,-281.607 532.871,-263.168 503.517,-252.425"/>
<polygon fill="black" stroke="black" points="498.642,-250.64 504.111,-250.246 500.99,-251.5 503.338,-252.359 503.338,-252.359 503.338,-252.359 500.99,-251.5 502.564,-254.472 498.642,-250.64 498.642,-250.64"/>
</g>
<!-- v2 -->
<g id="v2_InstallationBus" class="node"><title>v2</title>
<ellipse fill="none" stroke="black" cx="810.5" cy="-69" rx="61" ry="11"/>
<text text-anchor="middle" x="810.5" y="-66.8" font-family="sans-serif" font-size="9.00">InstallationBus</text>
</g>
<!-- v0&#45;&gt;v2 -->
<g id="edge4" class="edge"><title>v0&#45;&gt;v2</title>
<path fill="none" stroke="black" d="M641.105,-290.117C669.126,-253.707 766.669,-126.956 799.568,-84.2053"/>
<polygon fill="black" stroke="black" points="802.724,-80.105 801.457,-85.4398 801.199,-82.0863 799.674,-84.0675 799.674,-84.0675 799.674,-84.0675 801.199,-82.0863 797.891,-82.6953 802.724,-80.105 802.724,-80.105"/>
</g>
<!-- v4 -->
<g id="v4_Room" class="node"><title>v4</title>
<ellipse fill="none" stroke="black" cx="142.5" cy="-185" rx="21.5" ry="11"/>
<text text-anchor="middle" x="142.5" y="-182.8" font-family="sans-serif" font-size="9.00">Room</text>
</g>
<!-- v1&#45;&gt;v4 -->
<g id="edge5" class="edge"><title>v1&#45;&gt;v4</title>
<path fill="none" stroke="black" d="M457.798,-238.239C397.044,-228.173 231.061,-200.673 167.615,-190.161"/>
<polygon fill="black" stroke="black" points="162.512,-189.316 167.813,-187.913 164.978,-189.724 167.445,-190.133 167.445,-190.133 167.445,-190.133 164.978,-189.724 167.077,-192.353 162.512,-189.316 162.512,-189.316"/>
</g>
<!-- v11 -->
<g id="v11_Hallway" class="node"><title>v11</title>
<ellipse fill="none" stroke="black" cx="303.5" cy="-11" rx="32.5" ry="11"/>
<text text-anchor="middle" x="303.5" y="-8.8" font-family="sans-serif" font-size="9.00">Hallway</text>
</g>
<!-- v1&#45;&gt;v11 -->
<g id="edge6" class="edge"><title>v1&#45;&gt;v11</title>
<path fill="none" stroke="black" d="M473.12,-232.41C445.351,-196.326 347.064,-68.6084 314.253,-25.9726"/>
<polygon fill="black" stroke="black" points="311.109,-21.888 315.942,-24.4783 312.634,-23.8692 314.159,-25.8505 314.159,-25.8505 314.159,-25.8505 312.634,-23.8692 312.376,-27.2227 311.109,-21.888 311.109,-21.888"/>
</g>
<!-- v15 -->
<g id="v15_Room" class="node"><title>v15</title>
<ellipse fill="none" stroke="black" cx="480.5" cy="-69" rx="21.5" ry="11"/>
<text text-anchor="middle" x="480.5" y="-66.8" font-family="sans-serif" font-size="9.00">Room</text>
</g>
<!-- v1&#45;&gt;v15 -->
<g id="edge7" class="edge"><title>v1&#45;&gt;v15</title>
<path fill="none" stroke="black" d="M480.5,-231.756C480.5,-202.786 480.5,-120.136 480.5,-85.5335"/>
<polygon fill="black" stroke="black" points="480.5,-80.4081 482.75,-85.408 480.5,-82.9081 480.5,-85.4081 480.5,-85.4081 480.5,-85.4081 480.5,-82.9081 478.25,-85.4081 480.5,-80.4081 480.5,-80.4081"/>
</g>
<!-- v19 -->
<g id="v19_Room" class="node"><title>v19</title>
<ellipse fill="none" stroke="black" cx="660.5" cy="-69" rx="21.5" ry="11"/>
<text text-anchor="middle" x="660.5" y="-66.8" font-family="sans-serif" font-size="9.00">Room</text>
</g>
<!-- v1&#45;&gt;v19 -->
<g id="edge8" class="edge"><title>v1&#45;&gt;v19</title>
<path fill="none" stroke="black" d="M490.178,-232.753C520.211,-204.054 611.897,-116.443 646.807,-83.0847"/>
<polygon fill="black" stroke="black" points="650.775,-79.2932 648.714,-84.3742 648.967,-81.0203 647.16,-82.7475 647.16,-82.7475 647.16,-82.7475 648.967,-81.0203 645.605,-81.1208 650.775,-79.2932 650.775,-79.2932"/>
</g>
<!-- v3 -->
<g id="v3_Data" class="node"><title>v3</title>
<ellipse fill="none" stroke="black" cx="855.5" cy="-11" rx="21.5" ry="11"/>
<text text-anchor="middle" x="855.5" y="-8.8" font-family="sans-serif" font-size="9.00">Data</text>
</g>
<!-- v2&#45;&gt;v3 -->
<g id="edge9" class="edge"><title>v2&#45;&gt;v3</title>
<path fill="none" stroke="black" d="M818.545,-57.9883C825.801,-48.9593 836.534,-35.6025 844.566,-25.6069"/>
<polygon fill="black" stroke="black" points="847.825,-21.5512 846.447,-26.8582 846.259,-23.5 844.693,-25.4488 844.693,-25.4488 844.693,-25.4488 846.259,-23.5 842.939,-24.0394 847.825,-21.5512 847.825,-21.5512"/>
</g>
<!-- v6 -->
<g id="v6_Laptop" class="node"><title>v6</title>
<ellipse fill="none" stroke="black" cx="81.5" cy="-69" rx="29" ry="11"/>
<text text-anchor="middle" x="81.5" y="-66.8" font-family="sans-serif" font-size="9.00">Laptop</text>
</g>
<!-- v2&#45;&gt;v6 -->
<g id="edge23" class="edge"><title>v2&#45;&gt;v6</title>
<path fill="none" stroke="green" d="M778.231,-78.3417C752.339,-85.3286 714.923,-94.2894 681.5,-98 472.561,-121.196 417.399,-121.548 208.5,-98 171.643,-93.8454 129.888,-83.1123 104.637,-75.9344"/>
</g>
<!-- v16 -->
<g id="v16_SmartLight" class="node"><title>v16</title>
<ellipse fill="none" stroke="black" cx="397.5" cy="-11" rx="43" ry="11"/>
<text text-anchor="middle" x="397.5" y="-8.8" font-family="sans-serif" font-size="9.00">SmartLight</text>
</g>
<!-- v2&#45;&gt;v16 -->
<g id="edge24" class="edge"><title>v2&#45;&gt;v16</title>
<path fill="none" stroke="green" d="M760.428,-62.633C690.597,-54.9176 560.086,-39.6608 449.5,-22 442.964,-20.9561 435.991,-19.7084 429.344,-18.4541"/>
</g>
<!-- v17 -->
<g id="v17_HVAC" class="node"><title>v17</title>
<ellipse fill="none" stroke="black" cx="480.5" cy="-11" rx="21.5" ry="11"/>
<text text-anchor="middle" x="480.5" y="-8.8" font-family="sans-serif" font-size="9.00">HVAC</text>
</g>
<!-- v2&#45;&gt;v17 -->
<g id="edge25" class="edge"><title>v2&#45;&gt;v17</title>
<path fill="none" stroke="green" d="M759.564,-62.8562C699.467,-56.1758 596.805,-42.8415 510.5,-22 506.124,-20.9432 501.473,-19.5375 497.173,-18.1147"/>
</g>
<!-- v18 -->
<g id="v18_FireAlarm" class="node"><title>v18</title>
<ellipse fill="none" stroke="black" cx="559.5" cy="-11" rx="39.5" ry="11"/>
<text text-anchor="middle" x="559.5" y="-8.8" font-family="sans-serif" font-size="9.00">FireAlarm</text>
</g>
<!-- v2&#45;&gt;v18 -->
<g id="edge26" class="edge"><title>v2&#45;&gt;v18</title>
<path fill="none" stroke="green" d="M774.804,-60.036C724.862,-48.8935 635.075,-28.8614 588.816,-18.5407"/>
</g>
<!-- v20 -->
<g id="v20_SmartLight" class="node"><title>v20</title>
<ellipse fill="none" stroke="black" cx="660.5" cy="-11" rx="43" ry="11"/>
<text text-anchor="middle" x="660.5" y="-8.8" font-family="sans-serif" font-size="9.00">SmartLight</text>
</g>
<!-- v2&#45;&gt;v20 -->
<g id="edge27" class="edge"><title>v2&#45;&gt;v20</title>
<path fill="none" stroke="green" d="M786.066,-58.878C757.509,-48.2165 710.643,-30.7199 682.962,-20.3857"/>
</g>
<!-- v21 -->
<g id="v21_Workstation" class="node"><title>v21</title>
<ellipse fill="none" stroke="black" cx="768.5" cy="-11" rx="47" ry="11"/>
<text text-anchor="middle" x="768.5" y="-8.8" font-family="sans-serif" font-size="9.00">Workstation</text>
</g>
<!-- v2&#45;&gt;v21 -->
<g id="edge28" class="edge"><title>v2&#45;&gt;v21</title>
<path fill="none" stroke="green" d="M802.991,-57.9883C795.346,-47.7952 783.565,-32.0867 775.944,-21.925"/>
</g>
<!-- v5 -->
<g id="v5_Visitor" class="node"><title>v5</title>
<ellipse fill="none" stroke="black" cx="81.5" cy="-127" rx="32.5" ry="11"/>
<text text-anchor="middle" x="81.5" y="-124.8" font-family="sans-serif" font-size="9.00">Visitor</text>
</g>
<!-- v4&#45;&gt;v5 -->
<g id="edge10" class="edge"><title>v4&#45;&gt;v5</title>
<path fill="none" stroke="black" d="M132.699,-175.003C122.741,-165.861 107.209,-151.601 95.8618,-141.185"/>
<polygon fill="black" stroke="black" points="91.8889,-137.537 97.0938,-139.261 93.7305,-139.228 95.5721,-140.919 95.5721,-140.919 95.5721,-140.919 93.7305,-139.228 94.0505,-142.576 91.8889,-137.537 91.8889,-137.537"/>
</g>
<!-- v4&#45;&gt;v8 -->
<g id="edge11" class="edge"><title>v4&#45;&gt;v8</title>
<path fill="none" stroke="black" d="M142.555,-173.918C143.061,-151.731 146.432,-97.5096 166.5,-58 172.998,-45.2073 184.135,-33.4407 193.448,-25.0107"/>
<polygon fill="black" stroke="black" points="197.308,-21.6089 195.044,-26.6028 195.432,-23.2618 193.557,-24.9147 193.557,-24.9147 193.557,-24.9147 195.432,-23.2618 192.069,-23.2266 197.308,-21.6089 197.308,-21.6089"/>
</g>
<!-- v4&#45;&gt;v11 -->
<g id="edge29" class="edge"><title>v4&#45;&gt;v11</title>
<path fill="none" stroke="green" d="M146.748,-174.102C159.197,-145.164 195.004,-62.4589 199.5,-58 221.229,-36.4525 254.771,-24.1344 277.856,-17.7687"/>
</g>
<!-- v5&#45;&gt;v6 -->
<g id="edge12" class="edge"><title>v5&#45;&gt;v6</title>
<path fill="none" stroke="black" d="M81.5,-115.988C81.5,-107.494 81.5,-95.1697 81.5,-85.4169"/>
<polygon fill="black" stroke="black" points="81.5,-80.3039 83.7501,-85.3038 81.5,-82.8039 81.5001,-85.3039 81.5001,-85.3039 81.5001,-85.3039 81.5,-82.8039 79.2501,-85.3039 81.5,-80.3039 81.5,-80.3039"/>
</g>
<!-- v7 -->
<g id="v7_Data" class="node"><title>v7</title>
<ellipse fill="none" stroke="black" cx="21.5" cy="-11" rx="21.5" ry="11"/>
<text text-anchor="middle" x="21.5" y="-8.8" font-family="sans-serif" font-size="9.00">Data</text>
</g>
<!-- v6&#45;&gt;v7 -->
<g id="edge13" class="edge"><title>v6&#45;&gt;v7</title>
<path fill="none" stroke="black" d="M71.3218,-58.5004C61.3167,-49.1622 45.9874,-34.8549 34.9755,-24.5772"/>
<polygon fill="black" stroke="black" points="31.1317,-20.9896 36.3222,-22.7563 32.9594,-22.6954 34.787,-24.4012 34.787,-24.4012 34.787,-24.4012 32.9594,-22.6954 33.2518,-26.0461 31.1317,-20.9896 31.1317,-20.9896"/>
</g>
<!-- v13 -->
<g id="v13_Software" class="node"><title>v13</title>
<ellipse fill="none" stroke="black" cx="97.5" cy="-11" rx="36" ry="11"/>
<text text-anchor="middle" x="97.5" y="-8.8" font-family="sans-serif" font-size="9.00">Software</text>
</g>
<!-- v6&#45;&gt;v13 -->
<g id="edge14" class="edge"><title>v6&#45;&gt;v13</title>
<path fill="none" stroke="black" d="M84.3605,-57.9883C86.8099,-49.4154 90.374,-36.9411 93.1724,-27.1466"/>
<polygon fill="black" stroke="black" points="94.556,-22.3039 95.3458,-27.7297 93.8692,-24.7077 93.1824,-27.1115 93.1824,-27.1115 93.1824,-27.1115 93.8692,-24.7077 91.0189,-26.4933 94.556,-22.3039 94.556,-22.3039"/>
</g>
<!-- v10 -->
<g id="v10_DisconnectDevice" class="node"><title>v10</title>
<ellipse fill="none" stroke="black" cx="960.5" cy="-11" rx="65" ry="11"/>
<text text-anchor="middle" x="960.5" y="-8.8" font-family="sans-serif" font-size="9.00">DisconnectDevice</text>
</g>
<!-- v9&#45;&gt;v10 -->
<g id="edge15" class="edge"><title>v9&#45;&gt;v10</title>
<path fill="none" stroke="black" d="M1059.85,-58.7527C1039.51,-49.1819 1007.68,-34.201 985.546,-23.7862"/>
<polygon fill="black" stroke="black" points="980.978,-21.6367 986.46,-21.7299 983.24,-22.7012 985.502,-23.7657 985.502,-23.7657 985.502,-23.7657 983.24,-22.7012 984.544,-25.8016 980.978,-21.6367 980.978,-21.6367"/>
</g>
<!-- v12 -->
<g id="v12_ExitRoom" class="node"><title>v12</title>
<ellipse fill="none" stroke="black" cx="1079.5" cy="-11" rx="36" ry="11"/>
<text text-anchor="middle" x="1079.5" y="-8.8" font-family="sans-serif" font-size="9.00">ExitRoom</text>
</g>
<!-- v9&#45;&gt;v12 -->
<g id="edge16" class="edge"><title>v9&#45;&gt;v12</title>
<path fill="none" stroke="black" d="M1079.5,-57.9883C1079.5,-49.4941 1079.5,-37.1697 1079.5,-27.4169"/>
<polygon fill="black" stroke="black" points="1079.5,-22.3039 1081.75,-27.3038 1079.5,-24.8039 1079.5,-27.3039 1079.5,-27.3039 1079.5,-27.3039 1079.5,-24.8039 1077.25,-27.3039 1079.5,-22.3039 1079.5,-22.3039"/>
</g>
<!-- v14 -->
<g id="v14_SendSoftware" class="node"><title>v14</title>
<ellipse fill="none" stroke="black" cx="1184.5" cy="-11" rx="50.5" ry="11"/>
<text text-anchor="middle" x="1184.5" y="-8.8" font-family="sans-serif" font-size="9.00">SendSoftware</text>
</g>
<!-- v9&#45;&gt;v14 -->
<g id="edge17" class="edge"><title>v9&#45;&gt;v14</title>
<path fill="none" stroke="black" d="M1097.31,-58.5004C1115.22,-48.9496 1142.87,-34.201 1162.22,-23.8816"/>
<polygon fill="black" stroke="black" points="1166.95,-21.3593 1163.6,-25.6976 1164.75,-22.5358 1162.54,-23.7123 1162.54,-23.7123 1162.54,-23.7123 1164.75,-22.5358 1161.48,-21.727 1166.95,-21.3593 1166.95,-21.3593"/>
</g>
<!-- v11&#45;&gt;v15 -->
<g id="edge31" class="edge"><title>v11&#45;&gt;v15</title>
<path fill="none" stroke="green" d="M325.724,-19.0313C361.329,-30.2962 430.441,-52.162 462.881,-62.4258"/>
</g>
<!-- v11&#45;&gt;v19 -->
<g id="edge32" class="edge"><title>v11&#45;&gt;v19</title>
<path fill="none" stroke="green" d="M328.295,-18.2888C333.931,-19.6107 339.905,-20.9276 345.5,-22 455.687,-43.1198 589.196,-59.6697 639.754,-65.6171"/>
</g>
<!-- v15&#45;&gt;v16 -->
<g id="edge18" class="edge"><title>v15&#45;&gt;v16</title>
<path fill="none" stroke="black" d="M468.253,-59.737C454.404,-50.3929 431.711,-35.082 415.767,-24.325"/>
<polygon fill="black" stroke="black" points="411.463,-21.4205 416.866,-22.3519 413.535,-22.8188 415.607,-24.2171 415.607,-24.2171 415.607,-24.2171 413.535,-22.8188 414.349,-26.0822 411.463,-21.4205 411.463,-21.4205"/>
</g>
<!-- v15&#45;&gt;v17 -->
<g id="edge19" class="edge"><title>v15&#45;&gt;v17</title>
<path fill="none" stroke="black" d="M480.5,-57.9883C480.5,-49.4941 480.5,-37.1697 480.5,-27.4169"/>
<polygon fill="black" stroke="black" points="480.5,-22.3039 482.75,-27.3038 480.5,-24.8039 480.5,-27.3039 480.5,-27.3039 480.5,-27.3039 480.5,-24.8039 478.25,-27.3039 480.5,-22.3039 480.5,-22.3039"/>
</g>
<!-- v15&#45;&gt;v18 -->
<g id="edge20" class="edge"><title>v15&#45;&gt;v18</title>
<path fill="none" stroke="black" d="M492.157,-59.737C505.339,-50.3929 526.938,-35.082 542.113,-24.325"/>
<polygon fill="black" stroke="black" points="546.21,-21.4205 543.432,-26.1477 544.171,-22.8663 542.131,-24.3121 542.131,-24.3121 542.131,-24.3121 544.171,-22.8663 540.83,-22.4765 546.21,-21.4205 546.21,-21.4205"/>
</g>
<!-- v19&#45;&gt;v20 -->
<g id="edge21" class="edge"><title>v19&#45;&gt;v20</title>
<path fill="none" stroke="black" d="M660.5,-57.9883C660.5,-49.4941 660.5,-37.1697 660.5,-27.4169"/>
<polygon fill="black" stroke="black" points="660.5,-22.3039 662.75,-27.3038 660.5,-24.8039 660.5,-27.3039 660.5,-27.3039 660.5,-27.3039 660.5,-24.8039 658.25,-27.3039 660.5,-22.3039 660.5,-22.3039"/>
</g>
<!-- v19&#45;&gt;v21 -->
<g id="edge22" class="edge"><title>v19&#45;&gt;v21</title>
<path fill="none" stroke="black" d="M674.619,-60.679C692.692,-51.3076 724.232,-34.9536 745.722,-23.8106"/>
<polygon fill="black" stroke="black" points="750.416,-21.3771 747.013,-25.6762 748.196,-22.5279 745.977,-23.6787 745.977,-23.6787 745.977,-23.6787 748.196,-22.5279 744.941,-21.6813 750.416,-21.3771 750.416,-21.3771"/>
</g>
</g>
</svg>
