<?xml version="1.0" encoding="UTF-8" standalone="no"?>
<?xml-stylesheet href="style.css" type="text/css"?>
<!DOCTYPE svg PUBLIC "-//W3C//DTD SVG 1.1//EN"
 "http://www.w3.org/Graphics/SVG/1.1/DTD/svg11.dtd">
<!-- Generated by graphviz version 2.38.0 (20140413.2041)
 -->
<!-- Title: 18.svg Pages: 1 -->
<svg width="975pt" height="374pt"
 viewBox="0.00 0.00 974.50 374.00" xmlns="http://www.w3.org/2000/svg" xmlns:xlink="http://www.w3.org/1999/xlink">
<g id="graph0" class="graph" transform="scale(1 1) rotate(0) translate(4 370)">
<title>18.svg</title>
<polygon fill="white" stroke="none" points="-4,4 -4,-370 970.5,-370 970.5,4 -4,4"/>
<!-- r0 -->
<g id="node1" class="node"><title>r0</title>
<polygon fill="none" stroke="black" stroke-dasharray="5,2" points="553,-366 530,-366 530,-348 553,-348 553,-366"/>
<text text-anchor="middle" x="541.5" y="-354.8" font-family="serif" font-size="9.00">0</text>
</g>
<!-- v0 -->
<g id="v0_Building" class="node"><title>v0</title>
<ellipse fill="none" stroke="black" cx="541.5" cy="-301" rx="36" ry="11"/>
<text text-anchor="middle" x="541.5" y="-298.8" font-family="sans-serif" font-size="9.00">Building</text>
</g>
<!-- r0&#45;&gt;v0 -->
<g id="edge1" class="edge"><title>r0&#45;&gt;v0</title>
<path fill="none" stroke="black" d="M541.5,-347.562C541.5,-339.453 541.5,-327.014 541.5,-317.181"/>
<polygon fill="black" stroke="black" points="541.5,-312.03 543.75,-317.03 541.5,-314.53 541.5,-317.03 541.5,-317.03 541.5,-317.03 541.5,-314.53 539.25,-317.03 541.5,-312.03 541.5,-312.03"/>
</g>
<!-- r1 -->
<g id="node2" class="node"><title>r1</title>
<polygon fill="none" stroke="black" stroke-dasharray="5,2" points="897,-366 874,-366 874,-348 897,-348 897,-366"/>
<text text-anchor="middle" x="885.5" y="-354.8" font-family="serif" font-size="9.00">1</text>
</g>
<!-- v10 -->
<g id="v10_RulesKeywords" class="node"><title>v10</title>
<ellipse fill="none" stroke="black" cx="885.5" cy="-69" rx="54" ry="11"/>
<text text-anchor="middle" x="885.5" y="-66.8" font-family="sans-serif" font-size="9.00">RulesKeywords</text>
</g>
<!-- r1&#45;&gt;v10 -->
<g id="edge2" class="edge"><title>r1&#45;&gt;v10</title>
<path fill="none" stroke="black" d="M885.5,-347.849C885.5,-329.373 885.5,-282.889 885.5,-244 885.5,-244 885.5,-244 885.5,-184 885.5,-148.604 885.5,-107.026 885.5,-85.1783"/>
<polygon fill="black" stroke="black" points="885.5,-80.0648 887.75,-85.0648 885.5,-82.5648 885.5,-85.0648 885.5,-85.0648 885.5,-85.0648 885.5,-82.5648 883.25,-85.0648 885.5,-80.0648 885.5,-80.0648"/>
</g>
<!-- e1 -->
<g id="node3" class="node"><title>e1</title>
</g>
<!-- v4 -->
<g id="v4_Laptop" class="node"><title>v4</title>
<ellipse fill="none" stroke="black" cx="388.5" cy="-69" rx="29" ry="11"/>
<text text-anchor="middle" x="388.5" y="-66.8" font-family="sans-serif" font-size="9.00">Laptop</text>
</g>
<!-- e1&#45;&gt;v4 -->
<g id="edge22" class="edge"><title>e1&#45;&gt;v4</title>
<path fill="none" stroke="green" d="M388.5,-122.167C388.5,-113.586 388.5,-92.5957 388.5,-80.0117"/>
<polygon fill="green" stroke="green" points="392,-125.3 385,-125.3 385,-123.9 392,-123.9 392,-125.3"/>
<polyline fill="none" stroke="green" points="388.5,-126 388.5,-122.5 "/>
</g>
<!-- v1 -->
<g id="v1_Floor" class="node"><title>v1</title>
<ellipse fill="none" stroke="black" cx="446.5" cy="-243" rx="25" ry="11"/>
<text text-anchor="middle" x="446.5" y="-240.8" font-family="sans-serif" font-size="9.00">Floor</text>
</g>
<!-- v0&#45;&gt;v1 -->
<g id="edge3" class="edge"><title>v0&#45;&gt;v1</title>
<path fill="none" stroke="black" d="M526.237,-291.003C509.507,-281.141 482.675,-265.324 464.821,-254.8"/>
<polygon fill="black" stroke="black" points="460.487,-252.245 465.937,-252.846 462.641,-253.515 464.795,-254.784 464.795,-254.784 464.795,-254.784 462.641,-253.515 463.652,-256.723 460.487,-252.245 460.487,-252.245"/>
</g>
<!-- v6 -->
<g id="v6_InstallationBus" class="node"><title>v6</title>
<ellipse fill="none" stroke="black" cx="690.5" cy="-69" rx="61" ry="11"/>
<text text-anchor="middle" x="690.5" y="-66.8" font-family="sans-serif" font-size="9.00">InstallationBus</text>
</g>
<!-- v0&#45;&gt;v6 -->
<g id="edge4" class="edge"><title>v0&#45;&gt;v6</title>
<path fill="none" stroke="black" d="M547.902,-290.117C571.442,-253.781 653.271,-127.468 681.129,-84.4655"/>
<polygon fill="black" stroke="black" points="683.954,-80.105 683.124,-85.5248 682.594,-82.2032 681.235,-84.3014 681.235,-84.3014 681.235,-84.3014 682.594,-82.2032 679.347,-83.0781 683.954,-80.105 683.954,-80.105"/>
</g>
<!-- v2 -->
<g id="v2_Room" class="node"><title>v2</title>
<ellipse fill="none" stroke="black" cx="446.5" cy="-185" rx="21.5" ry="11"/>
<text text-anchor="middle" x="446.5" y="-182.8" font-family="sans-serif" font-size="9.00">Room</text>
</g>
<!-- v1&#45;&gt;v2 -->
<g id="edge5" class="edge"><title>v1&#45;&gt;v2</title>
<path fill="none" stroke="black" d="M446.5,-231.988C446.5,-223.494 446.5,-211.17 446.5,-201.417"/>
<polygon fill="black" stroke="black" points="446.5,-196.304 448.75,-201.304 446.5,-198.804 446.5,-201.304 446.5,-201.304 446.5,-201.304 446.5,-198.804 444.25,-201.304 446.5,-196.304 446.5,-196.304"/>
</g>
<!-- v9 -->
<g id="v9_Hallway" class="node"><title>v9</title>
<ellipse fill="none" stroke="black" cx="32.5" cy="-11" rx="32.5" ry="11"/>
<text text-anchor="middle" x="32.5" y="-8.8" font-family="sans-serif" font-size="9.00">Hallway</text>
</g>
<!-- v1&#45;&gt;v9 -->
<g id="edge6" class="edge"><title>v1&#45;&gt;v9</title>
<path fill="none" stroke="black" d="M424.772,-237.144C395.915,-230.234 343.782,-216.13 302.5,-196 197.717,-144.906 87.1664,-57.2666 47.6364,-24.6855"/>
<polygon fill="black" stroke="black" points="43.6019,-21.3477 48.8886,-22.8013 45.5281,-22.9413 47.4544,-24.5349 47.4544,-24.5349 47.4544,-24.5349 45.5281,-22.9413 46.0201,-26.2686 43.6019,-21.3477 43.6019,-21.3477"/>
</g>
<!-- v13 -->
<g id="v13_Room" class="node"><title>v13</title>
<ellipse fill="none" stroke="black" cx="202.5" cy="-69" rx="21.5" ry="11"/>
<text text-anchor="middle" x="202.5" y="-66.8" font-family="sans-serif" font-size="9.00">Room</text>
</g>
<!-- v1&#45;&gt;v13 -->
<g id="edge7" class="edge"><title>v1&#45;&gt;v13</title>
<path fill="none" stroke="black" d="M428.563,-235.28C392.682,-221.231 310.696,-186.028 254.5,-138 236.07,-122.249 220.014,-98.9612 210.789,-84.1369"/>
<polygon fill="black" stroke="black" points="208.151,-79.8257 212.68,-82.9158 209.456,-81.958 210.761,-84.0904 210.761,-84.0904 210.761,-84.0904 209.456,-81.958 208.842,-85.2649 208.151,-79.8257 208.151,-79.8257"/>
</g>
<!-- v17 -->
<g id="v17_Room" class="node"><title>v17</title>
<ellipse fill="none" stroke="black" cx="569.5" cy="-69" rx="21.5" ry="11"/>
<text text-anchor="middle" x="569.5" y="-66.8" font-family="sans-serif" font-size="9.00">Room</text>
</g>
<!-- v1&#45;&gt;v17 -->
<g id="edge8" class="edge"><title>v1&#45;&gt;v17</title>
<path fill="none" stroke="black" d="M453.465,-232.26C474.185,-203.287 535.48,-117.572 559.595,-83.8512"/>
<polygon fill="black" stroke="black" points="562.611,-79.6335 561.533,-85.0094 561.157,-81.667 559.702,-83.7005 559.702,-83.7005 559.702,-83.7005 561.157,-81.667 557.872,-82.3917 562.611,-79.6335 562.611,-79.6335"/>
</g>
<!-- v3 -->
<g id="v3_Visitor" class="node"><title>v3</title>
<ellipse fill="none" stroke="black" cx="337.5" cy="-127" rx="32.5" ry="11"/>
<text text-anchor="middle" x="337.5" y="-124.8" font-family="sans-serif" font-size="9.00">Visitor</text>
</g>
<!-- v2&#45;&gt;v3 -->
<g id="edge9" class="edge"><title>v2&#45;&gt;v3</title>
<path fill="none" stroke="black" d="M432.25,-176.679C413.58,-167.087 380.672,-150.18 358.975,-139.033"/>
<polygon fill="black" stroke="black" points="354.255,-136.608 359.731,-136.892 356.479,-137.751 358.703,-138.893 358.703,-138.893 358.703,-138.893 356.479,-137.751 357.674,-140.894 354.255,-136.608 354.255,-136.608"/>
</g>
<!-- v5 -->
<g id="v5_SmartLight" class="node"><title>v5</title>
<ellipse fill="none" stroke="black" cx="465.5" cy="-11" rx="43" ry="11"/>
<text text-anchor="middle" x="465.5" y="-8.8" font-family="sans-serif" font-size="9.00">SmartLight</text>
</g>
<!-- v2&#45;&gt;v5 -->
<g id="edge10" class="edge"><title>v2&#45;&gt;v5</title>
<path fill="none" stroke="black" d="M447.604,-174.009C450.791,-145.153 460.026,-61.5561 463.831,-27.1091"/>
<polygon fill="black" stroke="black" points="464.393,-22.0185 466.081,-27.2353 464.119,-24.5034 463.844,-26.9882 463.844,-26.9882 463.844,-26.9882 464.119,-24.5034 461.608,-26.7412 464.393,-22.0185 464.393,-22.0185"/>
</g>
<!-- v2&#45;&gt;v9 -->
<g id="edge21" class="edge"><title>v2&#45;&gt;v9</title>
<path fill="none" stroke="green" d="M425.756,-181.678C394.976,-177.399 336.447,-165.996 295.5,-138 258.14,-112.457 270.751,-82.1883 232.5,-58 171.628,-19.5068 144.644,-38.3411 74.5,-22 69.098,-20.7415 63.3096,-19.375 57.8096,-18.0681"/>
</g>
<!-- v3&#45;&gt;v4 -->
<g id="edge11" class="edge"><title>v3&#45;&gt;v4</title>
<path fill="none" stroke="black" d="M346.384,-116.246C354.647,-107.172 367.035,-93.5697 376.238,-83.4636"/>
<polygon fill="black" stroke="black" points="379.718,-79.6427 378.015,-84.8544 378.035,-81.491 376.352,-83.3394 376.352,-83.3394 376.352,-83.3394 378.035,-81.491 374.688,-81.8244 379.718,-79.6427 379.718,-79.6427"/>
</g>
<!-- v8 -->
<g id="v8_Data" class="node"><title>v8</title>
<ellipse fill="none" stroke="black" cx="382.5" cy="-11" rx="21.5" ry="11"/>
<text text-anchor="middle" x="382.5" y="-8.8" font-family="sans-serif" font-size="9.00">Data</text>
</g>
<!-- v4&#45;&gt;v8 -->
<g id="edge12" class="edge"><title>v4&#45;&gt;v8</title>
<path fill="none" stroke="black" d="M387.427,-57.9883C386.517,-49.4941 385.197,-37.1697 384.152,-27.4169"/>
<polygon fill="black" stroke="black" points="383.604,-22.3039 386.374,-27.0357 383.87,-24.7896 384.137,-27.2754 384.137,-27.2754 384.137,-27.2754 383.87,-24.7896 381.9,-27.5152 383.604,-22.3039 383.604,-22.3039"/>
</g>
<!-- v5&#45;&gt;v6 -->
<g id="edge23" class="edge"><title>v5&#45;&gt;v6</title>
<path fill="none" stroke="green" d="M494.54,-19.2278C536.348,-29.6333 613.294,-48.7842 657.3,-59.737"/>
</g>
<!-- v7 -->
<g id="v7_Data" class="node"><title>v7</title>
<ellipse fill="none" stroke="black" cx="764.5" cy="-11" rx="21.5" ry="11"/>
<text text-anchor="middle" x="764.5" y="-8.8" font-family="sans-serif" font-size="9.00">Data</text>
</g>
<!-- v6&#45;&gt;v7 -->
<g id="edge13" class="edge"><title>v6&#45;&gt;v7</title>
<path fill="none" stroke="black" d="M703.39,-58.2455C716.149,-48.5899 735.683,-33.8071 749.217,-23.5653"/>
<polygon fill="black" stroke="black" points="753.211,-20.5433 750.581,-25.3547 751.217,-22.0519 749.224,-23.5605 749.224,-23.5605 749.224,-23.5605 751.217,-22.0519 747.866,-21.7664 753.211,-20.5433 753.211,-20.5433"/>
</g>
<!-- v14 -->
<g id="v14_SmartLight" class="node"><title>v14</title>
<ellipse fill="none" stroke="black" cx="299.5" cy="-11" rx="43" ry="11"/>
<text text-anchor="middle" x="299.5" y="-8.8" font-family="sans-serif" font-size="9.00">SmartLight</text>
</g>
<!-- v6&#45;&gt;v14 -->
<g id="edge24" class="edge"><title>v6&#45;&gt;v14</title>
<path fill="none" stroke="green" d="M642.096,-62.2836C576.203,-54.3075 454.657,-38.9046 351.5,-22 344.968,-20.9296 337.997,-19.6703 331.351,-18.413"/>
</g>
<!-- v15 -->
<g id="v15_Server" class="node"><title>v15</title>
<ellipse fill="none" stroke="black" cx="112.5" cy="-11" rx="29" ry="11"/>
<text text-anchor="middle" x="112.5" y="-8.8" font-family="sans-serif" font-size="9.00">Server</text>
</g>
<!-- v6&#45;&gt;v15 -->
<g id="edge25" class="edge"><title>v6&#45;&gt;v15</title>
<path fill="none" stroke="green" d="M641.411,-62.3362C627.842,-60.844 613.107,-59.2917 599.5,-58 399.759,-39.0398 347.182,-56.3196 149.5,-22 144.386,-21.1122 138.954,-19.8371 133.872,-18.493"/>
</g>
<!-- v16 -->
<g id="v16_FireAlarm" class="node"><title>v16</title>
<ellipse fill="none" stroke="black" cx="198.5" cy="-11" rx="39.5" ry="11"/>
<text text-anchor="middle" x="198.5" y="-8.8" font-family="sans-serif" font-size="9.00">FireAlarm</text>
</g>
<!-- v6&#45;&gt;v16 -->
<g id="edge26" class="edge"><title>v6&#45;&gt;v16</title>
<path fill="none" stroke="green" d="M640.917,-62.4828C627.48,-61.0063 612.934,-59.4251 599.5,-58 443.117,-41.4109 402.956,-45.7522 247.5,-22 241.063,-21.0165 234.192,-19.7509 227.694,-18.453"/>
</g>
<!-- v18 -->
<g id="v18_SmartLight" class="node"><title>v18</title>
<ellipse fill="none" stroke="black" cx="569.5" cy="-11" rx="43" ry="11"/>
<text text-anchor="middle" x="569.5" y="-8.8" font-family="sans-serif" font-size="9.00">SmartLight</text>
</g>
<!-- v6&#45;&gt;v18 -->
<g id="edge27" class="edge"><title>v6&#45;&gt;v18</title>
<path fill="none" stroke="green" d="M669.974,-58.5004C647.319,-48.0154 611.128,-31.2659 588.924,-20.9896"/>
</g>
<!-- v19 -->
<g id="v19_Workstation" class="node"><title>v19</title>
<ellipse fill="none" stroke="black" cx="677.5" cy="-11" rx="47" ry="11"/>
<text text-anchor="middle" x="677.5" y="-8.8" font-family="sans-serif" font-size="9.00">Workstation</text>
</g>
<!-- v6&#45;&gt;v19 -->
<g id="edge28" class="edge"><title>v6&#45;&gt;v19</title>
<path fill="none" stroke="green" d="M688.176,-57.9883C685.839,-47.9211 682.253,-32.4737 679.892,-22.3039"/>
</g>
<!-- v9&#45;&gt;v13 -->
<g id="edge29" class="edge"><title>v9&#45;&gt;v13</title>
<path fill="none" stroke="green" d="M54.304,-19.1825C88.5173,-30.4528 154.116,-52.0617 185.264,-62.3222"/>
</g>
<!-- v9&#45;&gt;v17 -->
<g id="edge30" class="edge"><title>v9&#45;&gt;v17</title>
<path fill="none" stroke="green" d="M56.8119,-18.4029C62.5787,-19.7507 68.7312,-21.0501 74.5,-22 168.177,-37.4256 466.417,-60.3106 548.444,-66.442"/>
</g>
<!-- v11 -->
<g id="v11_ExitRoom" class="node"><title>v11</title>
<ellipse fill="none" stroke="black" cx="840.5" cy="-11" rx="36" ry="11"/>
<text text-anchor="middle" x="840.5" y="-8.8" font-family="sans-serif" font-size="9.00">ExitRoom</text>
</g>
<!-- v10&#45;&gt;v11 -->
<g id="edge14" class="edge"><title>v10&#45;&gt;v11</title>
<path fill="none" stroke="black" d="M877.455,-57.9883C870.288,-49.0694 859.728,-35.9276 851.729,-25.974"/>
<polygon fill="black" stroke="black" points="848.475,-21.925 853.361,-24.4132 850.041,-23.8738 851.607,-25.8226 851.607,-25.8226 851.607,-25.8226 850.041,-23.8738 849.854,-27.232 848.475,-21.925 848.475,-21.925"/>
</g>
<!-- v12 -->
<g id="v12_ExitRoom" class="node"><title>v12</title>
<ellipse fill="none" stroke="black" cx="930.5" cy="-11" rx="36" ry="11"/>
<text text-anchor="middle" x="930.5" y="-8.8" font-family="sans-serif" font-size="9.00">ExitRoom</text>
</g>
<!-- v10&#45;&gt;v12 -->
<g id="edge15" class="edge"><title>v10&#45;&gt;v12</title>
<path fill="none" stroke="black" d="M893.545,-57.9883C900.712,-49.0694 911.272,-35.9276 919.271,-25.974"/>
<polygon fill="black" stroke="black" points="922.525,-21.925 921.146,-27.232 920.959,-23.8738 919.393,-25.8226 919.393,-25.8226 919.393,-25.8226 920.959,-23.8738 917.639,-24.4132 922.525,-21.925 922.525,-21.925"/>
</g>
<!-- v13&#45;&gt;v14 -->
<g id="edge16" class="edge"><title>v13&#45;&gt;v14</title>
<path fill="none" stroke="black" d="M215.987,-60.2134C232.208,-50.849 259.616,-35.0258 278.587,-24.0734"/>
<polygon fill="black" stroke="black" points="283.217,-21.4008 280.011,-25.8493 281.051,-22.6507 278.886,-23.9007 278.886,-23.9007 278.886,-23.9007 281.051,-22.6507 277.761,-21.9521 283.217,-21.4008 283.217,-21.4008"/>
</g>
<!-- v13&#45;&gt;v15 -->
<g id="edge17" class="edge"><title>v13&#45;&gt;v15</title>
<path fill="none" stroke="black" d="M189.605,-59.9766C174.191,-50.3857 148.291,-34.2701 130.808,-23.3918"/>
<polygon fill="black" stroke="black" points="126.556,-20.7462 131.99,-21.4773 128.679,-22.0669 130.802,-23.3877 130.802,-23.3877 130.802,-23.3877 128.679,-22.0669 129.613,-25.2981 126.556,-20.7462 126.556,-20.7462"/>
</g>
<!-- v13&#45;&gt;v16 -->
<g id="edge18" class="edge"><title>v13&#45;&gt;v16</title>
<path fill="none" stroke="black" d="M201.785,-57.9883C201.178,-49.4941 200.298,-37.1697 199.601,-27.4169"/>
<polygon fill="black" stroke="black" points="199.236,-22.3039 201.837,-27.1308 199.414,-24.7975 199.592,-27.2912 199.592,-27.2912 199.592,-27.2912 199.414,-24.7975 197.348,-27.4515 199.236,-22.3039 199.236,-22.3039"/>
</g>
<!-- v17&#45;&gt;v18 -->
<g id="edge19" class="edge"><title>v17&#45;&gt;v18</title>
<path fill="none" stroke="black" d="M569.5,-57.9883C569.5,-49.4941 569.5,-37.1697 569.5,-27.4169"/>
<polygon fill="black" stroke="black" points="569.5,-22.3039 571.75,-27.3038 569.5,-24.8039 569.5,-27.3039 569.5,-27.3039 569.5,-27.3039 569.5,-24.8039 567.25,-27.3039 569.5,-22.3039 569.5,-22.3039"/>
</g>
<!-- v17&#45;&gt;v19 -->
<g id="edge20" class="edge"><title>v17&#45;&gt;v19</title>
<path fill="none" stroke="black" d="M583.619,-60.679C601.692,-51.3076 633.232,-34.9536 654.722,-23.8106"/>
<polygon fill="black" stroke="black" points="659.416,-21.3771 656.013,-25.6762 657.196,-22.5279 654.977,-23.6787 654.977,-23.6787 654.977,-23.6787 657.196,-22.5279 653.941,-21.6813 659.416,-21.3771 659.416,-21.3771"/>
</g>
</g>
</svg>
