<?xml version="1.0" encoding="UTF-8" standalone="no"?>
<?xml-stylesheet href="style.css" type="text/css"?>
<!DOCTYPE svg PUBLIC "-//W3C//DTD SVG 1.1//EN"
 "http://www.w3.org/Graphics/SVG/1.1/DTD/svg11.dtd">
<!-- Generated by graphviz version 2.38.0 (20140413.2041)
 -->
<!-- Title: 2.svg Pages: 1 -->
<svg width="1137pt" height="316pt"
 viewBox="0.00 0.00 1136.50 316.00" xmlns="http://www.w3.org/2000/svg" xmlns:xlink="http://www.w3.org/1999/xlink">
<g id="graph0" class="graph" transform="scale(1 1) rotate(0) translate(4 312)">
<title>2.svg</title>
<polygon fill="white" stroke="none" points="-4,4 -4,-312 1132.5,-312 1132.5,4 -4,4"/>
<!-- r0 -->
<g id="node1" class="node"><title>r0</title>
<polygon fill="none" stroke="black" stroke-dasharray="5,2" points="639,-308 616,-308 616,-290 639,-290 639,-308"/>
<text text-anchor="middle" x="627.5" y="-296.8" font-family="serif" font-size="9.00">0</text>
</g>
<!-- v0 -->
<g id="v0_Building" class="node"><title>v0</title>
<ellipse fill="none" stroke="black" cx="627.5" cy="-243" rx="36" ry="11"/>
<text text-anchor="middle" x="627.5" y="-240.8" font-family="sans-serif" font-size="9.00">Building</text>
</g>
<!-- r0&#45;&gt;v0 -->
<g id="edge1" class="edge"><title>r0&#45;&gt;v0</title>
<path fill="none" stroke="black" d="M627.5,-289.562C627.5,-281.453 627.5,-269.014 627.5,-259.181"/>
<polygon fill="black" stroke="black" points="627.5,-254.03 629.75,-259.03 627.5,-256.53 627.5,-259.03 627.5,-259.03 627.5,-259.03 627.5,-256.53 625.25,-259.03 627.5,-254.03 627.5,-254.03"/>
</g>
<!-- r1 -->
<g id="node2" class="node"><title>r1</title>
<polygon fill="none" stroke="black" stroke-dasharray="5,2" points="1059,-308 1036,-308 1036,-290 1059,-290 1059,-308"/>
<text text-anchor="middle" x="1047.5" y="-296.8" font-family="serif" font-size="9.00">1</text>
</g>
<!-- v6 -->
<g id="v6_RulesKeywords" class="node"><title>v6</title>
<ellipse fill="none" stroke="black" cx="1047.5" cy="-69" rx="54" ry="11"/>
<text text-anchor="middle" x="1047.5" y="-66.8" font-family="sans-serif" font-size="9.00">RulesKeywords</text>
</g>
<!-- r1&#45;&gt;v6 -->
<g id="edge2" class="edge"><title>r1&#45;&gt;v6</title>
<path fill="none" stroke="black" d="M1047.5,-289.885C1047.5,-256.489 1047.5,-129.348 1047.5,-85.206"/>
<polygon fill="black" stroke="black" points="1047.5,-80.0114 1049.75,-85.0113 1047.5,-82.5114 1047.5,-85.0114 1047.5,-85.0114 1047.5,-85.0114 1047.5,-82.5114 1045.25,-85.0114 1047.5,-80.0114 1047.5,-80.0114"/>
</g>
<!-- e3 -->
<g id="node3" class="node"><title>e3</title>
</g>
<!-- v5 -->
<g id="v5_Laptop" class="node"><title>v5</title>
<ellipse fill="none" stroke="black" cx="182.5" cy="-11" rx="29" ry="11"/>
<text text-anchor="middle" x="182.5" y="-8.8" font-family="sans-serif" font-size="9.00">Laptop</text>
</g>
<!-- e3&#45;&gt;v5 -->
<g id="edge22" class="edge"><title>e3&#45;&gt;v5</title>
<path fill="none" stroke="green" d="M182.5,-64.1674C182.5,-55.5862 182.5,-34.5957 182.5,-22.0117"/>
<polygon fill="green" stroke="green" points="186,-67.3001 179,-67.2999 179,-65.8999 186,-65.9001 186,-67.3001"/>
<polyline fill="none" stroke="green" points="182.5,-68 182.5,-64.5 "/>
</g>
<!-- v1 -->
<g id="v1_Floor" class="node"><title>v1</title>
<ellipse fill="none" stroke="black" cx="488.5" cy="-185" rx="25" ry="11"/>
<text text-anchor="middle" x="488.5" y="-182.8" font-family="sans-serif" font-size="9.00">Floor</text>
</g>
<!-- v0&#45;&gt;v1 -->
<g id="edge3" class="edge"><title>v0&#45;&gt;v1</title>
<path fill="none" stroke="black" d="M607.288,-233.857C581.628,-223.519 537.501,-205.741 510.858,-195.007"/>
<polygon fill="black" stroke="black" points="506.095,-193.088 511.573,-192.87 508.413,-194.023 510.732,-194.957 510.732,-194.957 510.732,-194.957 508.413,-194.023 509.891,-197.044 506.095,-193.088 506.095,-193.088"/>
</g>
<!-- v17 -->
<g id="v17_InstallationBus" class="node"><title>v17</title>
<ellipse fill="none" stroke="black" cx="887.5" cy="-11" rx="61" ry="11"/>
<text text-anchor="middle" x="887.5" y="-8.8" font-family="sans-serif" font-size="9.00">InstallationBus</text>
</g>
<!-- v0&#45;&gt;v17 -->
<g id="edge4" class="edge"><title>v0&#45;&gt;v17</title>
<path fill="none" stroke="black" d="M638.341,-232.41C679.378,-196.108 825.262,-67.057 872.571,-25.2068"/>
<polygon fill="black" stroke="black" points="876.322,-21.888 874.068,-26.8862 874.45,-23.5444 872.577,-25.2009 872.577,-25.2009 872.577,-25.2009 874.45,-23.5444 871.086,-23.5156 876.322,-21.888 876.322,-21.888"/>
</g>
<!-- v2 -->
<g id="v2_Hallway" class="node"><title>v2</title>
<ellipse fill="none" stroke="black" cx="32.5" cy="-11" rx="32.5" ry="11"/>
<text text-anchor="middle" x="32.5" y="-8.8" font-family="sans-serif" font-size="9.00">Hallway</text>
</g>
<!-- v1&#45;&gt;v2 -->
<g id="edge5" class="edge"><title>v1&#45;&gt;v2</title>
<path fill="none" stroke="black" d="M465.001,-181.124C384.753,-170.883 123.071,-133.899 60.5,-80 44.8567,-66.5247 37.8038,-42.9382 34.7307,-27.3928"/>
<polygon fill="black" stroke="black" points="33.8344,-22.4554 36.9413,-26.973 34.2809,-24.9152 34.7275,-27.375 34.7275,-27.375 34.7275,-27.375 34.2809,-24.9152 32.5137,-27.7769 33.8344,-22.4554 33.8344,-22.4554"/>
</g>
<!-- v3 -->
<g id="v3_Room" class="node"><title>v3</title>
<ellipse fill="none" stroke="black" cx="326.5" cy="-127" rx="21.5" ry="11"/>
<text text-anchor="middle" x="326.5" y="-124.8" font-family="sans-serif" font-size="9.00">Room</text>
</g>
<!-- v1&#45;&gt;v3 -->
<g id="edge6" class="edge"><title>v1&#45;&gt;v3</title>
<path fill="none" stroke="black" d="M469.917,-177.576C439.781,-167.159 380.398,-146.632 348.309,-135.539"/>
<polygon fill="black" stroke="black" points="343.402,-133.843 348.863,-133.35 345.765,-134.66 348.128,-135.476 348.128,-135.476 348.128,-135.476 345.765,-134.66 347.393,-137.603 343.402,-133.843 343.402,-133.843"/>
</g>
<!-- v11 -->
<g id="v11_Room" class="node"><title>v11</title>
<ellipse fill="none" stroke="black" cx="488.5" cy="-69" rx="21.5" ry="11"/>
<text text-anchor="middle" x="488.5" y="-66.8" font-family="sans-serif" font-size="9.00">Room</text>
</g>
<!-- v1&#45;&gt;v11 -->
<g id="edge7" class="edge"><title>v1&#45;&gt;v11</title>
<path fill="none" stroke="black" d="M488.5,-173.883C488.5,-153.906 488.5,-109.276 488.5,-85.5402"/>
<polygon fill="black" stroke="black" points="488.5,-80.2579 490.75,-85.2579 488.5,-82.7579 488.5,-85.2579 488.5,-85.2579 488.5,-85.2579 488.5,-82.7579 486.25,-85.258 488.5,-80.2579 488.5,-80.2579"/>
</g>
<!-- v13 -->
<g id="v13_Room" class="node"><title>v13</title>
<ellipse fill="none" stroke="black" cx="637.5" cy="-69" rx="21.5" ry="11"/>
<text text-anchor="middle" x="637.5" y="-66.8" font-family="sans-serif" font-size="9.00">Room</text>
</g>
<!-- v1&#45;&gt;v13 -->
<g id="edge8" class="edge"><title>v1&#45;&gt;v13</title>
<path fill="none" stroke="black" d="M500.192,-175.055C526.87,-154.643 592.232,-104.634 622.126,-81.7627"/>
<polygon fill="black" stroke="black" points="626.27,-78.5919 623.666,-83.4171 624.285,-80.111 622.299,-81.6302 622.299,-81.6302 622.299,-81.6302 624.285,-80.111 620.932,-79.8432 626.27,-78.5919 626.27,-78.5919"/>
</g>
<!-- v2&#45;&gt;v3 -->
<g id="edge19" class="edge"><title>v2&#45;&gt;v3</title>
<path fill="none" stroke="green" d="M37.8365,-21.9437C46.5212,-37.0905 65.2121,-65.6896 89.5,-80 160.098,-121.596 261.086,-126.488 304.875,-126.476"/>
</g>
<!-- v2&#45;&gt;v11 -->
<g id="edge20" class="edge"><title>v2&#45;&gt;v11</title>
<path fill="none" stroke="green" d="M62.2748,-15.6565C148.209,-26.2099 395.148,-56.5357 468.021,-65.485"/>
</g>
<!-- v2&#45;&gt;v13 -->
<g id="edge21" class="edge"><title>v2&#45;&gt;v13</title>
<path fill="none" stroke="green" d="M63.1339,-14.8355C170.279,-24.7531 526.602,-57.7351 616.675,-66.0724"/>
</g>
<!-- v4 -->
<g id="v4_Visitor" class="node"><title>v4</title>
<ellipse fill="none" stroke="black" cx="131.5" cy="-69" rx="32.5" ry="11"/>
<text text-anchor="middle" x="131.5" y="-66.8" font-family="sans-serif" font-size="9.00">Visitor</text>
</g>
<!-- v3&#45;&gt;v4 -->
<g id="edge9" class="edge"><title>v3&#45;&gt;v4</title>
<path fill="none" stroke="black" d="M308.504,-120.832C274.577,-111.089 200.907,-89.9322 160.117,-78.2181"/>
<polygon fill="black" stroke="black" points="154.828,-76.6993 160.255,-75.9169 157.231,-77.3894 159.634,-78.0795 159.634,-78.0795 159.634,-78.0795 157.231,-77.3894 159.013,-80.2421 154.828,-76.6993 154.828,-76.6993"/>
</g>
<!-- v8 -->
<g id="v8_SmartLight" class="node"><title>v8</title>
<ellipse fill="none" stroke="black" cx="272.5" cy="-11" rx="43" ry="11"/>
<text text-anchor="middle" x="272.5" y="-8.8" font-family="sans-serif" font-size="9.00">SmartLight</text>
</g>
<!-- v3&#45;&gt;v8 -->
<g id="edge10" class="edge"><title>v3&#45;&gt;v8</title>
<path fill="none" stroke="black" d="M321.708,-115.883C312.165,-95.7373 290.747,-50.521 279.579,-26.9438"/>
<polygon fill="black" stroke="black" points="277.359,-22.2579 281.533,-25.8134 278.429,-24.5173 279.5,-26.7766 279.5,-26.7766 279.5,-26.7766 278.429,-24.5173 277.466,-27.7399 277.359,-22.2579 277.359,-22.2579"/>
</g>
<!-- v9 -->
<g id="v9_Workstation" class="node"><title>v9</title>
<ellipse fill="none" stroke="black" cx="380.5" cy="-11" rx="47" ry="11"/>
<text text-anchor="middle" x="380.5" y="-8.8" font-family="sans-serif" font-size="9.00">Workstation</text>
</g>
<!-- v3&#45;&gt;v9 -->
<g id="edge11" class="edge"><title>v3&#45;&gt;v9</title>
<path fill="none" stroke="black" d="M331.292,-115.883C340.835,-95.7373 362.253,-50.521 373.421,-26.9438"/>
<polygon fill="black" stroke="black" points="375.641,-22.2579 375.534,-27.7399 374.571,-24.5173 373.5,-26.7766 373.5,-26.7766 373.5,-26.7766 374.571,-24.5173 371.467,-25.8134 375.641,-22.2579 375.641,-22.2579"/>
</g>
<!-- v4&#45;&gt;v5 -->
<g id="edge12" class="edge"><title>v4&#45;&gt;v5</title>
<path fill="none" stroke="black" d="M140.384,-58.2455C148.647,-49.1716 161.035,-35.5697 170.238,-25.4636"/>
<polygon fill="black" stroke="black" points="173.718,-21.6427 172.015,-26.8544 172.035,-23.491 170.352,-25.3394 170.352,-25.3394 170.352,-25.3394 172.035,-23.491 168.688,-23.8244 173.718,-21.6427 173.718,-21.6427"/>
</g>
<!-- v7 -->
<g id="v7_ExitRoom" class="node"><title>v7</title>
<ellipse fill="none" stroke="black" cx="1002.5" cy="-11" rx="36" ry="11"/>
<text text-anchor="middle" x="1002.5" y="-8.8" font-family="sans-serif" font-size="9.00">ExitRoom</text>
</g>
<!-- v6&#45;&gt;v7 -->
<g id="edge13" class="edge"><title>v6&#45;&gt;v7</title>
<path fill="none" stroke="black" d="M1039.45,-57.9883C1032.29,-49.0694 1021.73,-35.9276 1013.73,-25.974"/>
<polygon fill="black" stroke="black" points="1010.48,-21.925 1015.36,-24.4132 1012.04,-23.8738 1013.61,-25.8226 1013.61,-25.8226 1013.61,-25.8226 1012.04,-23.8738 1011.85,-27.232 1010.48,-21.925 1010.48,-21.925"/>
</g>
<!-- v10 -->
<g id="v10_ExitRoom" class="node"><title>v10</title>
<ellipse fill="none" stroke="black" cx="1092.5" cy="-11" rx="36" ry="11"/>
<text text-anchor="middle" x="1092.5" y="-8.8" font-family="sans-serif" font-size="9.00">ExitRoom</text>
</g>
<!-- v6&#45;&gt;v10 -->
<g id="edge14" class="edge"><title>v6&#45;&gt;v10</title>
<path fill="none" stroke="black" d="M1055.55,-57.9883C1062.71,-49.0694 1073.27,-35.9276 1081.27,-25.974"/>
<polygon fill="black" stroke="black" points="1084.52,-21.925 1083.15,-27.232 1082.96,-23.8738 1081.39,-25.8226 1081.39,-25.8226 1081.39,-25.8226 1082.96,-23.8738 1079.64,-24.4132 1084.52,-21.925 1084.52,-21.925"/>
</g>
<!-- v8&#45;&gt;v17 -->
<g id="edge23" class="edge"><title>v8&#45;&gt;v17</title>
<path fill="none" stroke="green" d="M288.859,-21.2415C300.744,-28.0527 317.486,-36.3871 333.5,-40 436.251,-63.1812 703.755,-58.2236 807.5,-40 827.725,-36.4473 849.572,-28.203 865.317,-21.4092"/>
</g>
<!-- v9&#45;&gt;v17 -->
<g id="edge24" class="edge"><title>v9&#45;&gt;v17</title>
<path fill="none" stroke="green" d="M398.021,-21.2474C410.726,-28.0614 428.58,-36.3967 445.5,-40 524.18,-56.7557 728.269,-53.9176 807.5,-40 827.725,-36.4473 849.572,-28.203 865.317,-21.4092"/>
</g>
<!-- v12 -->
<g id="v12_SmartLight" class="node"><title>v12</title>
<ellipse fill="none" stroke="black" cx="488.5" cy="-11" rx="43" ry="11"/>
<text text-anchor="middle" x="488.5" y="-8.8" font-family="sans-serif" font-size="9.00">SmartLight</text>
</g>
<!-- v11&#45;&gt;v12 -->
<g id="edge15" class="edge"><title>v11&#45;&gt;v12</title>
<path fill="none" stroke="black" d="M488.5,-57.9883C488.5,-49.4941 488.5,-37.1697 488.5,-27.4169"/>
<polygon fill="black" stroke="black" points="488.5,-22.3039 490.75,-27.3038 488.5,-24.8039 488.5,-27.3039 488.5,-27.3039 488.5,-27.3039 488.5,-24.8039 486.25,-27.3039 488.5,-22.3039 488.5,-22.3039"/>
</g>
<!-- v12&#45;&gt;v17 -->
<g id="edge25" class="edge"><title>v12&#45;&gt;v17</title>
<path fill="none" stroke="green" d="M504.859,-21.2415C516.744,-28.0527 533.486,-36.3871 549.5,-40 661.355,-65.2353 694.562,-59.8383 807.5,-40 827.725,-36.4473 849.572,-28.203 865.317,-21.4092"/>
</g>
<!-- v14 -->
<g id="v14_SmartLight" class="node"><title>v14</title>
<ellipse fill="none" stroke="black" cx="592.5" cy="-11" rx="43" ry="11"/>
<text text-anchor="middle" x="592.5" y="-8.8" font-family="sans-serif" font-size="9.00">SmartLight</text>
</g>
<!-- v13&#45;&gt;v14 -->
<g id="edge16" class="edge"><title>v13&#45;&gt;v14</title>
<path fill="none" stroke="black" d="M629.866,-58.5004C622.757,-49.6537 612.065,-36.3472 603.937,-26.2321"/>
<polygon fill="black" stroke="black" points="600.628,-22.1148 605.514,-24.603 602.194,-24.0636 603.76,-26.0124 603.76,-26.0124 603.76,-26.0124 602.194,-24.0636 602.006,-27.4218 600.628,-22.1148 600.628,-22.1148"/>
</g>
<!-- v15 -->
<g id="v15_Server" class="node"><title>v15</title>
<ellipse fill="none" stroke="black" cx="682.5" cy="-11" rx="29" ry="11"/>
<text text-anchor="middle" x="682.5" y="-8.8" font-family="sans-serif" font-size="9.00">Server</text>
</g>
<!-- v13&#45;&gt;v15 -->
<g id="edge17" class="edge"><title>v13&#45;&gt;v15</title>
<path fill="none" stroke="black" d="M645.134,-58.5004C652.33,-49.5445 663.2,-36.018 671.363,-25.859"/>
<polygon fill="black" stroke="black" points="674.678,-21.7345 673.3,-27.0414 673.112,-23.6832 671.546,-25.632 671.546,-25.632 671.546,-25.632 673.112,-23.6832 669.792,-24.2226 674.678,-21.7345 674.678,-21.7345"/>
</g>
<!-- v16 -->
<g id="v16_FireAlarm" class="node"><title>v16</title>
<ellipse fill="none" stroke="black" cx="768.5" cy="-11" rx="39.5" ry="11"/>
<text text-anchor="middle" x="768.5" y="-8.8" font-family="sans-serif" font-size="9.00">FireAlarm</text>
</g>
<!-- v13&#45;&gt;v16 -->
<g id="edge18" class="edge"><title>v13&#45;&gt;v16</title>
<path fill="none" stroke="black" d="M653.042,-61.3562C675.373,-51.81 716.778,-34.11 743.46,-22.7043"/>
<polygon fill="black" stroke="black" points="748.262,-20.6512 744.549,-24.6855 745.964,-21.6339 743.665,-22.6166 743.665,-22.6166 743.665,-22.6166 745.964,-21.6339 742.78,-20.5477 748.262,-20.6512 748.262,-20.6512"/>
</g>
<!-- v14&#45;&gt;v17 -->
<g id="edge26" class="edge"><title>v14&#45;&gt;v17</title>
<path fill="none" stroke="green" d="M608.859,-21.2415C620.744,-28.0527 637.486,-36.3871 653.5,-40 720.266,-55.0629 740.088,-51.8415 807.5,-40 827.725,-36.4473 849.572,-28.203 865.317,-21.4092"/>
</g>
<!-- v15&#45;&gt;v17 -->
<g id="edge27" class="edge"><title>v15&#45;&gt;v17</title>
<path fill="none" stroke="green" d="M694.454,-21.2073C703.235,-28.0024 715.802,-36.3316 728.5,-40 762.232,-49.7453 772.918,-46.0745 807.5,-40 827.725,-36.4473 849.572,-28.203 865.317,-21.4092"/>
</g>
<!-- v16&#45;&gt;v17 -->
<g id="edge28" class="edge"><title>v16&#45;&gt;v17</title>
<path fill="none" stroke="green" d="M808.012,-11C814.118,-11 820.225,-11 826.331,-11"/>
</g>
</g>
</svg>
