<?xml version="1.0" encoding="UTF-8" standalone="no"?>
<?xml-stylesheet href="style.css" type="text/css"?>
<!DOCTYPE svg PUBLIC "-//W3C//DTD SVG 1.1//EN"
 "http://www.w3.org/Graphics/SVG/1.1/DTD/svg11.dtd">
<!-- Generated by graphviz version 2.38.0 (20140413.2041)
 -->
<!-- Title: 2.svg Pages: 1 -->
<svg width="1454pt" height="374pt"
 viewBox="0.00 0.00 1454.00 374.00" xmlns="http://www.w3.org/2000/svg" xmlns:xlink="http://www.w3.org/1999/xlink">
<g id="graph0" class="graph" transform="scale(1 1) rotate(0) translate(4 370)">
<title>2.svg</title>
<polygon fill="white" stroke="none" points="-4,4 -4,-370 1450,-370 1450,4 -4,4"/>
<!-- r0 -->
<g id="node1" class="node"><title>r0</title>
<polygon fill="none" stroke="black" stroke-dasharray="5,2" points="579,-366 556,-366 556,-348 579,-348 579,-366"/>
<text text-anchor="middle" x="567.5" y="-354.8" font-family="serif" font-size="9.00">0</text>
</g>
<!-- v0 -->
<g id="v0_Building" class="node"><title>v0</title>
<ellipse fill="none" stroke="black" cx="567.5" cy="-301" rx="36" ry="11"/>
<text text-anchor="middle" x="567.5" y="-298.8" font-family="sans-serif" font-size="9.00">Building</text>
</g>
<!-- r0&#45;&gt;v0 -->
<g id="edge1" class="edge"><title>r0&#45;&gt;v0</title>
<path fill="none" stroke="black" d="M567.5,-347.562C567.5,-339.453 567.5,-327.014 567.5,-317.181"/>
<polygon fill="black" stroke="black" points="567.5,-312.03 569.75,-317.03 567.5,-314.53 567.5,-317.03 567.5,-317.03 567.5,-317.03 567.5,-314.53 565.25,-317.03 567.5,-312.03 567.5,-312.03"/>
</g>
<!-- r1 -->
<g id="node2" class="node"><title>r1</title>
<polygon fill="none" stroke="black" stroke-dasharray="5,2" points="1175,-366 1152,-366 1152,-348 1175,-348 1175,-366"/>
<text text-anchor="middle" x="1163.5" y="-354.8" font-family="serif" font-size="9.00">1</text>
</g>
<!-- v6 -->
<g id="v6_RulesKeywords" class="node"><title>v6</title>
<ellipse fill="none" stroke="black" cx="1163.5" cy="-69" rx="54" ry="11"/>
<text text-anchor="middle" x="1163.5" y="-66.8" font-family="sans-serif" font-size="9.00">RulesKeywords</text>
</g>
<!-- r1&#45;&gt;v6 -->
<g id="edge2" class="edge"><title>r1&#45;&gt;v6</title>
<path fill="none" stroke="black" d="M1163.5,-347.849C1163.5,-329.373 1163.5,-282.889 1163.5,-244 1163.5,-244 1163.5,-244 1163.5,-184 1163.5,-148.604 1163.5,-107.026 1163.5,-85.1783"/>
<polygon fill="black" stroke="black" points="1163.5,-80.0648 1165.75,-85.0648 1163.5,-82.5648 1163.5,-85.0648 1163.5,-85.0648 1163.5,-85.0648 1163.5,-82.5648 1161.25,-85.0648 1163.5,-80.0648 1163.5,-80.0648"/>
</g>
<!-- e3 -->
<g id="node3" class="node"><title>e3</title>
</g>
<!-- v5 -->
<g id="v5_Laptop" class="node"><title>v5</title>
<ellipse fill="none" stroke="black" cx="202.5" cy="-69" rx="29" ry="11"/>
<text text-anchor="middle" x="202.5" y="-66.8" font-family="sans-serif" font-size="9.00">Laptop</text>
</g>
<!-- e3&#45;&gt;v5 -->
<g id="edge26" class="edge"><title>e3&#45;&gt;v5</title>
<path fill="none" stroke="green" d="M202.5,-122.167C202.5,-113.586 202.5,-92.5957 202.5,-80.0117"/>
<polygon fill="green" stroke="green" points="206,-125.3 199,-125.3 199,-123.9 206,-123.9 206,-125.3"/>
<polyline fill="none" stroke="green" points="202.5,-126 202.5,-122.5 "/>
</g>
<!-- v1 -->
<g id="v1_Floor" class="node"><title>v1</title>
<ellipse fill="none" stroke="black" cx="432.5" cy="-243" rx="25" ry="11"/>
<text text-anchor="middle" x="432.5" y="-240.8" font-family="sans-serif" font-size="9.00">Floor</text>
</g>
<!-- v0&#45;&gt;v1 -->
<g id="edge3" class="edge"><title>v0&#45;&gt;v1</title>
<path fill="none" stroke="black" d="M547.58,-291.737C522.826,-281.469 480.703,-263.995 454.865,-253.277"/>
<polygon fill="black" stroke="black" points="449.924,-251.228 455.405,-251.065 452.233,-252.186 454.543,-253.144 454.543,-253.144 454.543,-253.144 452.233,-252.186 453.681,-255.222 449.924,-251.228 449.924,-251.228"/>
</g>
<!-- v21 -->
<g id="v21_InstallationBus" class="node"><title>v21</title>
<ellipse fill="none" stroke="black" cx="817.5" cy="-11" rx="61" ry="11"/>
<text text-anchor="middle" x="817.5" y="-8.8" font-family="sans-serif" font-size="9.00">InstallationBus</text>
</g>
<!-- v0&#45;&gt;v21 -->
<g id="edge4" class="edge"><title>v0&#45;&gt;v21</title>
<path fill="none" stroke="black" d="M590.707,-292.463C629.306,-278.302 702.5,-243.825 702.5,-186 702.5,-186 702.5,-186 702.5,-126 702.5,-76.2955 757.354,-40.8705 791.292,-23.7094"/>
<polygon fill="black" stroke="black" points="796.139,-21.3104 792.656,-25.545 793.898,-22.4195 791.658,-23.5285 791.658,-23.5285 791.658,-23.5285 793.898,-22.4195 790.66,-21.512 796.139,-21.3104 796.139,-21.3104"/>
</g>
<!-- v2 -->
<g id="v2_Hallway" class="node"><title>v2</title>
<ellipse fill="none" stroke="black" cx="32.5" cy="-11" rx="32.5" ry="11"/>
<text text-anchor="middle" x="32.5" y="-8.8" font-family="sans-serif" font-size="9.00">Hallway</text>
</g>
<!-- v1&#45;&gt;v2 -->
<g id="edge5" class="edge"><title>v1&#45;&gt;v2</title>
<path fill="none" stroke="black" d="M407.743,-240.684C346.445,-236.251 185.226,-217.287 83.5,-138 48.0769,-110.391 37.136,-54.1967 33.8535,-27.1767"/>
<polygon fill="black" stroke="black" points="33.2942,-22.1788 36.0864,-26.8975 33.5723,-24.6633 33.8504,-27.1478 33.8504,-27.1478 33.8504,-27.1478 33.5723,-24.6633 31.6144,-27.3981 33.2942,-22.1788 33.2942,-22.1788"/>
</g>
<!-- v3 -->
<g id="v3_Room" class="node"><title>v3</title>
<ellipse fill="none" stroke="black" cx="304.5" cy="-185" rx="21.5" ry="11"/>
<text text-anchor="middle" x="304.5" y="-182.8" font-family="sans-serif" font-size="9.00">Room</text>
</g>
<!-- v1&#45;&gt;v3 -->
<g id="edge6" class="edge"><title>v1&#45;&gt;v3</title>
<path fill="none" stroke="black" d="M415.766,-234.679C392.387,-224.451 349.995,-205.904 324.828,-194.894"/>
<polygon fill="black" stroke="black" points="320.035,-192.797 325.518,-192.74 322.326,-193.799 324.616,-194.801 324.616,-194.801 324.616,-194.801 322.326,-193.799 323.714,-196.862 320.035,-192.797 320.035,-192.797"/>
</g>
<!-- v15 -->
<g id="v15_Room" class="node"><title>v15</title>
<ellipse fill="none" stroke="black" cx="432.5" cy="-69" rx="21.5" ry="11"/>
<text text-anchor="middle" x="432.5" y="-66.8" font-family="sans-serif" font-size="9.00">Room</text>
</g>
<!-- v1&#45;&gt;v15 -->
<g id="edge7" class="edge"><title>v1&#45;&gt;v15</title>
<path fill="none" stroke="black" d="M432.5,-231.756C432.5,-202.786 432.5,-120.136 432.5,-85.5335"/>
<polygon fill="black" stroke="black" points="432.5,-80.4081 434.75,-85.408 432.5,-82.9081 432.5,-85.4081 432.5,-85.4081 432.5,-85.4081 432.5,-82.9081 430.25,-85.4081 432.5,-80.4081 432.5,-80.4081"/>
</g>
<!-- v17 -->
<g id="v17_Room" class="node"><title>v17</title>
<ellipse fill="none" stroke="black" cx="577.5" cy="-69" rx="21.5" ry="11"/>
<text text-anchor="middle" x="577.5" y="-66.8" font-family="sans-serif" font-size="9.00">Room</text>
</g>
<!-- v1&#45;&gt;v17 -->
<g id="edge8" class="edge"><title>v1&#45;&gt;v17</title>
<path fill="none" stroke="black" d="M440.502,-232.508C464.821,-203.661 537.911,-116.96 566.172,-83.4369"/>
<polygon fill="black" stroke="black" points="569.699,-79.2532 568.197,-84.5263 568.088,-81.1646 566.477,-83.076 566.477,-83.076 566.477,-83.076 568.088,-81.1646 564.756,-81.6258 569.699,-79.2532 569.699,-79.2532"/>
</g>
<!-- v2&#45;&gt;v3 -->
<g id="edge23" class="edge"><title>v2&#45;&gt;v3</title>
<path fill="none" stroke="green" d="M35.6154,-22.0397C43.6321,-46.1292 67.3557,-107.468 109.5,-138 163.02,-176.773 244.51,-183.331 282.972,-184.135"/>
</g>
<!-- v2&#45;&gt;v15 -->
<g id="edge24" class="edge"><title>v2&#45;&gt;v15</title>
<path fill="none" stroke="green" d="M57.2816,-18.3603C62.9181,-19.6784 68.8962,-20.9758 74.5,-22 201.484,-45.2079 355.916,-60.8516 411.397,-66.0771"/>
</g>
<!-- v2&#45;&gt;v17 -->
<g id="edge25" class="edge"><title>v2&#45;&gt;v17</title>
<path fill="none" stroke="green" d="M56.8109,-18.409C62.5777,-19.7565 68.7305,-21.0543 74.5,-22 98.703,-25.9672 464.848,-58.1397 556.716,-66.1827"/>
</g>
<!-- v4 -->
<g id="v4_Visitor" class="node"><title>v4</title>
<ellipse fill="none" stroke="black" cx="151.5" cy="-127" rx="32.5" ry="11"/>
<text text-anchor="middle" x="151.5" y="-124.8" font-family="sans-serif" font-size="9.00">Visitor</text>
</g>
<!-- v3&#45;&gt;v4 -->
<g id="edge9" class="edge"><title>v3&#45;&gt;v4</title>
<path fill="none" stroke="black" d="M287.835,-177.9C261.149,-168.133 208.634,-148.912 177.142,-137.385"/>
<polygon fill="black" stroke="black" points="172.275,-135.604 177.744,-135.21 174.623,-136.463 176.971,-137.323 176.971,-137.323 176.971,-137.323 174.623,-136.463 176.197,-139.436 172.275,-135.604 172.275,-135.604"/>
</g>
<!-- v9 -->
<g id="v9_SmartLight" class="node"><title>v9</title>
<ellipse fill="none" stroke="black" cx="216.5" cy="-11" rx="43" ry="11"/>
<text text-anchor="middle" x="216.5" y="-8.8" font-family="sans-serif" font-size="9.00">SmartLight</text>
</g>
<!-- v3&#45;&gt;v9 -->
<g id="edge10" class="edge"><title>v3&#45;&gt;v9</title>
<path fill="none" stroke="black" d="M299.557,-174.179C288.861,-152.945 262.736,-101.192 240.5,-58 235.143,-47.5937 229.041,-35.9004 224.33,-26.9076"/>
<polygon fill="black" stroke="black" points="221.87,-22.2147 226.184,-25.5984 223.031,-24.4289 224.192,-26.6431 224.192,-26.6431 224.192,-26.6431 223.031,-24.4289 222.199,-27.6878 221.87,-22.2147 221.87,-22.2147"/>
</g>
<!-- v10 -->
<g id="v10_Workstation" class="node"><title>v10</title>
<ellipse fill="none" stroke="black" cx="324.5" cy="-11" rx="47" ry="11"/>
<text text-anchor="middle" x="324.5" y="-8.8" font-family="sans-serif" font-size="9.00">Workstation</text>
</g>
<!-- v3&#45;&gt;v10 -->
<g id="edge11" class="edge"><title>v3&#45;&gt;v10</title>
<path fill="none" stroke="black" d="M305.662,-174.009C309.017,-145.153 318.738,-61.5561 322.743,-27.1091"/>
<polygon fill="black" stroke="black" points="323.335,-22.0185 324.992,-27.2449 323.046,-24.5017 322.757,-26.985 322.757,-26.985 322.757,-26.985 323.046,-24.5017 320.523,-26.7251 323.335,-22.0185 323.335,-22.0185"/>
</g>
<!-- v4&#45;&gt;v5 -->
<g id="edge12" class="edge"><title>v4&#45;&gt;v5</title>
<path fill="none" stroke="black" d="M160.384,-116.246C168.647,-107.172 181.035,-93.5697 190.238,-83.4636"/>
<polygon fill="black" stroke="black" points="193.718,-79.6427 192.015,-84.8544 192.035,-81.491 190.352,-83.3394 190.352,-83.3394 190.352,-83.3394 192.035,-81.491 188.688,-81.8244 193.718,-79.6427 193.718,-79.6427"/>
</g>
<!-- v8 -->
<g id="v8_Software" class="node"><title>v8</title>
<ellipse fill="none" stroke="black" cx="119.5" cy="-11" rx="36" ry="11"/>
<text text-anchor="middle" x="119.5" y="-8.8" font-family="sans-serif" font-size="9.00">Software</text>
</g>
<!-- v5&#45;&gt;v8 -->
<g id="edge13" class="edge"><title>v5&#45;&gt;v8</title>
<path fill="none" stroke="black" d="M189.165,-59.0026C175.175,-49.5635 153.099,-34.6692 137.555,-24.1815"/>
<polygon fill="black" stroke="black" points="133.356,-21.3485 138.759,-22.2799 135.428,-22.7468 137.501,-24.1451 137.501,-24.1451 137.501,-24.1451 135.428,-22.7468 136.242,-26.0102 133.356,-21.3485 133.356,-21.3485"/>
</g>
<!-- v7 -->
<g id="v7_ExitRoom" class="node"><title>v7</title>
<ellipse fill="none" stroke="black" cx="932.5" cy="-11" rx="36" ry="11"/>
<text text-anchor="middle" x="932.5" y="-8.8" font-family="sans-serif" font-size="9.00">ExitRoom</text>
</g>
<!-- v6&#45;&gt;v7 -->
<g id="edge14" class="edge"><title>v6&#45;&gt;v7</title>
<path fill="none" stroke="black" d="M1130.89,-60.0953C1086.59,-49.3541 1007.88,-30.2738 964.1,-19.6606"/>
<polygon fill="black" stroke="black" points="959.198,-18.4722 964.587,-17.4636 961.627,-19.0612 964.057,-19.6503 964.057,-19.6503 964.057,-19.6503 961.627,-19.0612 963.527,-21.8369 959.198,-18.4722 959.198,-18.4722"/>
</g>
<!-- v11 -->
<g id="v11_ConnectDevice" class="node"><title>v11</title>
<ellipse fill="none" stroke="black" cx="1040.5" cy="-11" rx="54" ry="11"/>
<text text-anchor="middle" x="1040.5" y="-8.8" font-family="sans-serif" font-size="9.00">ConnectDevice</text>
</g>
<!-- v6&#45;&gt;v11 -->
<g id="edge15" class="edge"><title>v6&#45;&gt;v11</title>
<path fill="none" stroke="black" d="M1143.19,-58.7527C1121.91,-49.0659 1088.46,-33.837 1065.56,-23.4095"/>
<polygon fill="black" stroke="black" points="1060.84,-21.261 1066.32,-21.2851 1063.12,-22.2969 1065.39,-23.3329 1065.39,-23.3329 1065.39,-23.3329 1063.12,-22.2969 1064.46,-25.3806 1060.84,-21.261 1060.84,-21.261"/>
</g>
<!-- v12 -->
<g id="v12_GenerateData" class="node"><title>v12</title>
<ellipse fill="none" stroke="black" cx="1163.5" cy="-11" rx="50.5" ry="11"/>
<text text-anchor="middle" x="1163.5" y="-8.8" font-family="sans-serif" font-size="9.00">GenerateData</text>
</g>
<!-- v6&#45;&gt;v12 -->
<g id="edge16" class="edge"><title>v6&#45;&gt;v12</title>
<path fill="none" stroke="black" d="M1163.5,-57.9883C1163.5,-49.4941 1163.5,-37.1697 1163.5,-27.4169"/>
<polygon fill="black" stroke="black" points="1163.5,-22.3039 1165.75,-27.3038 1163.5,-24.8039 1163.5,-27.3039 1163.5,-27.3039 1163.5,-27.3039 1163.5,-24.8039 1161.25,-27.3039 1163.5,-22.3039 1163.5,-22.3039"/>
</g>
<!-- v13 -->
<g id="v13_CollectData" class="node"><title>v13</title>
<ellipse fill="none" stroke="black" cx="1279.5" cy="-11" rx="47" ry="11"/>
<text text-anchor="middle" x="1279.5" y="-8.8" font-family="sans-serif" font-size="9.00">CollectData</text>
</g>
<!-- v6&#45;&gt;v13 -->
<g id="edge17" class="edge"><title>v6&#45;&gt;v13</title>
<path fill="none" stroke="black" d="M1182.92,-58.6269C1202.94,-48.9585 1234.2,-33.8675 1255.7,-23.4873"/>
<polygon fill="black" stroke="black" points="1260.41,-21.2174 1256.88,-25.4174 1258.16,-22.3043 1255.9,-23.3912 1255.9,-23.3912 1255.9,-23.3912 1258.16,-22.3043 1254.93,-21.3649 1260.41,-21.2174 1260.41,-21.2174"/>
</g>
<!-- v14 -->
<g id="v14_SendSoftware" class="node"><title>v14</title>
<ellipse fill="none" stroke="black" cx="1395.5" cy="-11" rx="50.5" ry="11"/>
<text text-anchor="middle" x="1395.5" y="-8.8" font-family="sans-serif" font-size="9.00">SendSoftware</text>
</g>
<!-- v6&#45;&gt;v14 -->
<g id="edge18" class="edge"><title>v6&#45;&gt;v14</title>
<path fill="none" stroke="black" d="M1196.25,-60.0953C1239.06,-49.7605 1313.86,-31.7058 1358.63,-20.9008"/>
<polygon fill="black" stroke="black" points="1363.66,-19.6847 1359.33,-23.0452 1361.23,-20.2713 1358.8,-20.858 1358.8,-20.858 1358.8,-20.858 1361.23,-20.2713 1358.28,-18.6708 1363.66,-19.6847 1363.66,-19.6847"/>
</g>
<!-- v9&#45;&gt;v21 -->
<g id="edge27" class="edge"><title>v9&#45;&gt;v21</title>
<path fill="none" stroke="green" d="M232.859,-21.2415C244.744,-28.0527 261.486,-36.3871 277.5,-40 377.216,-62.4966 636.819,-57.6853 737.5,-40 757.725,-36.4473 779.572,-28.203 795.317,-21.4092"/>
</g>
<!-- v10&#45;&gt;v21 -->
<g id="edge28" class="edge"><title>v10&#45;&gt;v21</title>
<path fill="none" stroke="green" d="M342.021,-21.2474C354.726,-28.0614 372.58,-36.3967 389.5,-40 465.137,-56.1077 661.333,-53.3793 737.5,-40 757.725,-36.4473 779.572,-28.203 795.317,-21.4092"/>
</g>
<!-- v16 -->
<g id="v16_SmartLight" class="node"><title>v16</title>
<ellipse fill="none" stroke="black" cx="432.5" cy="-11" rx="43" ry="11"/>
<text text-anchor="middle" x="432.5" y="-8.8" font-family="sans-serif" font-size="9.00">SmartLight</text>
</g>
<!-- v15&#45;&gt;v16 -->
<g id="edge19" class="edge"><title>v15&#45;&gt;v16</title>
<path fill="none" stroke="black" d="M432.5,-57.9883C432.5,-49.4941 432.5,-37.1697 432.5,-27.4169"/>
<polygon fill="black" stroke="black" points="432.5,-22.3039 434.75,-27.3038 432.5,-24.8039 432.5,-27.3039 432.5,-27.3039 432.5,-27.3039 432.5,-24.8039 430.25,-27.3039 432.5,-22.3039 432.5,-22.3039"/>
</g>
<!-- v16&#45;&gt;v21 -->
<g id="edge29" class="edge"><title>v16&#45;&gt;v21</title>
<path fill="none" stroke="green" d="M448.859,-21.2415C460.744,-28.0527 477.486,-36.3871 493.5,-40 599.286,-63.8659 630.691,-58.7618 737.5,-40 757.725,-36.4473 779.572,-28.203 795.317,-21.4092"/>
</g>
<!-- v18 -->
<g id="v18_SmartLight" class="node"><title>v18</title>
<ellipse fill="none" stroke="black" cx="536.5" cy="-11" rx="43" ry="11"/>
<text text-anchor="middle" x="536.5" y="-8.8" font-family="sans-serif" font-size="9.00">SmartLight</text>
</g>
<!-- v17&#45;&gt;v18 -->
<g id="edge20" class="edge"><title>v17&#45;&gt;v18</title>
<path fill="none" stroke="black" d="M570.545,-58.5004C564.068,-49.6537 554.326,-36.3472 546.92,-26.2321"/>
<polygon fill="black" stroke="black" points="543.905,-22.1148 548.675,-24.82 545.382,-24.132 546.859,-26.1492 546.859,-26.1492 546.859,-26.1492 545.382,-24.132 545.044,-27.4783 543.905,-22.1148 543.905,-22.1148"/>
</g>
<!-- v19 -->
<g id="v19_HVAC" class="node"><title>v19</title>
<ellipse fill="none" stroke="black" cx="619.5" cy="-11" rx="21.5" ry="11"/>
<text text-anchor="middle" x="619.5" y="-8.8" font-family="sans-serif" font-size="9.00">HVAC</text>
</g>
<!-- v17&#45;&gt;v19 -->
<g id="edge21" class="edge"><title>v17&#45;&gt;v19</title>
<path fill="none" stroke="black" d="M584.625,-58.5004C591.342,-49.5445 601.487,-36.018 609.106,-25.859"/>
<polygon fill="black" stroke="black" points="612.199,-21.7345 610.999,-27.0845 610.699,-23.7345 609.199,-25.7345 609.199,-25.7345 609.199,-25.7345 610.699,-23.7345 607.399,-24.3845 612.199,-21.7345 612.199,-21.7345"/>
</g>
<!-- v20 -->
<g id="v20_FireAlarm" class="node"><title>v20</title>
<ellipse fill="none" stroke="black" cx="698.5" cy="-11" rx="39.5" ry="11"/>
<text text-anchor="middle" x="698.5" y="-8.8" font-family="sans-serif" font-size="9.00">FireAlarm</text>
</g>
<!-- v17&#45;&gt;v20 -->
<g id="edge22" class="edge"><title>v17&#45;&gt;v20</title>
<path fill="none" stroke="black" d="M592.825,-60.9076C613.572,-51.3056 650.786,-34.0824 675.058,-22.8494"/>
<polygon fill="black" stroke="black" points="679.731,-20.6866 676.138,-24.8287 677.462,-21.7367 675.193,-22.7867 675.193,-22.7867 675.193,-22.7867 677.462,-21.7367 674.248,-20.7448 679.731,-20.6866 679.731,-20.6866"/>
</g>
<!-- v18&#45;&gt;v21 -->
<g id="edge30" class="edge"><title>v18&#45;&gt;v21</title>
<path fill="none" stroke="green" d="M552.859,-21.2415C564.744,-28.0527 581.486,-36.3871 597.5,-40 658.197,-53.6936 676.216,-50.765 737.5,-40 757.725,-36.4473 779.572,-28.203 795.317,-21.4092"/>
</g>
<!-- v19&#45;&gt;v21 -->
<g id="edge31" class="edge"><title>v19&#45;&gt;v21</title>
<path fill="none" stroke="green" d="M629.047,-20.8905C636.37,-27.7237 647.126,-36.2346 658.5,-40 706.448,-55.8732 765.576,-35.0875 796.458,-21.3471"/>
</g>
<!-- v20&#45;&gt;v21 -->
<g id="edge32" class="edge"><title>v20&#45;&gt;v21</title>
<path fill="none" stroke="green" d="M738.012,-11C744.118,-11 750.225,-11 756.331,-11"/>
</g>
</g>
</svg>
