<?xml version="1.0" encoding="UTF-8" standalone="no"?>
<?xml-stylesheet href="style.css" type="text/css"?>
<!DOCTYPE svg PUBLIC "-//W3C//DTD SVG 1.1//EN"
 "http://www.w3.org/Graphics/SVG/1.1/DTD/svg11.dtd">
<!-- Generated by graphviz version 2.38.0 (20140413.2041)
 -->
<!-- Title: 20.svg Pages: 1 -->
<svg width="923pt" height="374pt"
 viewBox="0.00 0.00 923.00 374.00" xmlns="http://www.w3.org/2000/svg" xmlns:xlink="http://www.w3.org/1999/xlink">
<g id="graph0" class="graph" transform="scale(1 1) rotate(0) translate(4 370)">
<title>20.svg</title>
<polygon fill="white" stroke="none" points="-4,4 -4,-370 919,-370 919,4 -4,4"/>
<!-- r0 -->
<g id="node1" class="node"><title>r0</title>
<polygon fill="none" stroke="black" stroke-dasharray="5,2" points="530.5,-366 507.5,-366 507.5,-348 530.5,-348 530.5,-366"/>
<text text-anchor="middle" x="519" y="-354.8" font-family="serif" font-size="9.00">0</text>
</g>
<!-- v0 -->
<g id="v0_Building" class="node"><title>v0</title>
<ellipse fill="none" stroke="black" cx="519" cy="-301" rx="36" ry="11"/>
<text text-anchor="middle" x="519" y="-298.8" font-family="sans-serif" font-size="9.00">Building</text>
</g>
<!-- r0&#45;&gt;v0 -->
<g id="edge1" class="edge"><title>r0&#45;&gt;v0</title>
<path fill="none" stroke="black" d="M519,-347.562C519,-339.453 519,-327.014 519,-317.181"/>
<polygon fill="black" stroke="black" points="519,-312.03 521.25,-317.03 519,-314.53 519,-317.03 519,-317.03 519,-317.03 519,-314.53 516.75,-317.03 519,-312.03 519,-312.03"/>
</g>
<!-- r1 -->
<g id="node2" class="node"><title>r1</title>
<polygon fill="none" stroke="black" stroke-dasharray="5,2" points="843.5,-366 820.5,-366 820.5,-348 843.5,-348 843.5,-366"/>
<text text-anchor="middle" x="832" y="-354.8" font-family="serif" font-size="9.00">1</text>
</g>
<!-- v6 -->
<g id="v6_RulesKeywords" class="node"><title>v6</title>
<ellipse fill="none" stroke="black" cx="832" cy="-69" rx="54" ry="11"/>
<text text-anchor="middle" x="832" y="-66.8" font-family="sans-serif" font-size="9.00">RulesKeywords</text>
</g>
<!-- r1&#45;&gt;v6 -->
<g id="edge2" class="edge"><title>r1&#45;&gt;v6</title>
<path fill="none" stroke="black" d="M832,-347.849C832,-329.373 832,-282.889 832,-244 832,-244 832,-244 832,-184 832,-148.604 832,-107.026 832,-85.1783"/>
<polygon fill="black" stroke="black" points="832,-80.0648 834.25,-85.0648 832,-82.5648 832,-85.0648 832,-85.0648 832,-85.0648 832,-82.5648 829.75,-85.0648 832,-80.0648 832,-80.0648"/>
</g>
<!-- e3 -->
<g id="node3" class="node"><title>e3</title>
</g>
<!-- v5 -->
<g id="v5_Laptop" class="node"><title>v5</title>
<ellipse fill="none" stroke="black" cx="360" cy="-69" rx="29" ry="11"/>
<text text-anchor="middle" x="360" y="-66.8" font-family="sans-serif" font-size="9.00">Laptop</text>
</g>
<!-- e3&#45;&gt;v5 -->
<g id="edge24" class="edge"><title>e3&#45;&gt;v5</title>
<path fill="none" stroke="green" d="M360,-122.167C360,-113.586 360,-92.5957 360,-80.0117"/>
<polygon fill="green" stroke="green" points="363.5,-125.3 356.5,-125.3 356.5,-123.9 363.5,-123.9 363.5,-125.3"/>
<polyline fill="none" stroke="green" points="360,-126 360,-122.5 "/>
</g>
<!-- v1 -->
<g id="v1_Floor" class="node"><title>v1</title>
<ellipse fill="none" stroke="black" cx="429" cy="-243" rx="25" ry="11"/>
<text text-anchor="middle" x="429" y="-240.8" font-family="sans-serif" font-size="9.00">Floor</text>
</g>
<!-- v0&#45;&gt;v1 -->
<g id="edge3" class="edge"><title>v0&#45;&gt;v1</title>
<path fill="none" stroke="black" d="M504.138,-290.753C488.439,-280.985 463.684,-265.581 446.916,-255.148"/>
<polygon fill="black" stroke="black" points="442.413,-252.346 447.847,-253.077 444.536,-253.667 446.658,-254.988 446.658,-254.988 446.658,-254.988 444.536,-253.667 445.47,-256.898 442.413,-252.346 442.413,-252.346"/>
</g>
<!-- v13 -->
<g id="v13_InstallationBus" class="node"><title>v13</title>
<ellipse fill="none" stroke="black" cx="634" cy="-69" rx="61" ry="11"/>
<text text-anchor="middle" x="634" y="-66.8" font-family="sans-serif" font-size="9.00">InstallationBus</text>
</g>
<!-- v0&#45;&gt;v13 -->
<g id="edge4" class="edge"><title>v0&#45;&gt;v13</title>
<path fill="none" stroke="black" d="M524.09,-289.82C542.423,-253.155 605.129,-127.741 626.667,-84.6657"/>
<polygon fill="black" stroke="black" points="628.969,-80.062 628.745,-85.5404 627.851,-82.2981 626.733,-84.5342 626.733,-84.5342 626.733,-84.5342 627.851,-82.2981 624.72,-83.5279 628.969,-80.062 628.969,-80.062"/>
</g>
<!-- v2 -->
<g id="v2_Room" class="node"><title>v2</title>
<ellipse fill="none" stroke="black" cx="133" cy="-69" rx="21.5" ry="11"/>
<text text-anchor="middle" x="133" y="-66.8" font-family="sans-serif" font-size="9.00">Room</text>
</g>
<!-- v1&#45;&gt;v2 -->
<g id="edge5" class="edge"><title>v1&#45;&gt;v2</title>
<path fill="none" stroke="black" d="M405.354,-239.099C354.343,-231.64 232.934,-207.259 163,-138 148.302,-123.444 140.248,-100.452 136.28,-85.2981"/>
<polygon fill="black" stroke="black" points="134.999,-80.0998 138.38,-84.4158 135.597,-82.5271 136.196,-84.9544 136.196,-84.9544 136.196,-84.9544 135.597,-82.5271 134.011,-85.493 134.999,-80.0998 134.999,-80.0998"/>
</g>
<!-- v3 -->
<g id="v3_Hallway" class="node"><title>v3</title>
<ellipse fill="none" stroke="black" cx="340" cy="-185" rx="32.5" ry="11"/>
<text text-anchor="middle" x="340" y="-182.8" font-family="sans-serif" font-size="9.00">Hallway</text>
</g>
<!-- v1&#45;&gt;v3 -->
<g id="edge6" class="edge"><title>v1&#45;&gt;v3</title>
<path fill="none" stroke="black" d="M415.483,-233.495C400.37,-223.986 375.793,-208.521 358.809,-197.835"/>
<polygon fill="black" stroke="black" points="354.235,-194.957 359.665,-195.715 356.351,-196.288 358.467,-197.619 358.467,-197.619 358.467,-197.619 356.351,-196.288 357.268,-199.524 354.235,-194.957 354.235,-194.957"/>
</g>
<!-- v15 -->
<g id="v15_Room" class="node"><title>v15</title>
<ellipse fill="none" stroke="black" cx="429" cy="-69" rx="21.5" ry="11"/>
<text text-anchor="middle" x="429" y="-66.8" font-family="sans-serif" font-size="9.00">Room</text>
</g>
<!-- v1&#45;&gt;v15 -->
<g id="edge7" class="edge"><title>v1&#45;&gt;v15</title>
<path fill="none" stroke="black" d="M429,-231.756C429,-202.786 429,-120.136 429,-85.5335"/>
<polygon fill="black" stroke="black" points="429,-80.4081 431.25,-85.408 429,-82.9081 429,-85.4081 429,-85.4081 429,-85.4081 429,-82.9081 426.75,-85.4081 429,-80.4081 429,-80.4081"/>
</g>
<!-- v17 -->
<g id="v17_Room" class="node"><title>v17</title>
<ellipse fill="none" stroke="black" cx="511" cy="-69" rx="21.5" ry="11"/>
<text text-anchor="middle" x="511" y="-66.8" font-family="sans-serif" font-size="9.00">Room</text>
</g>
<!-- v1&#45;&gt;v17 -->
<g id="edge8" class="edge"><title>v1&#45;&gt;v17</title>
<path fill="none" stroke="black" d="M433.763,-232.009C447.577,-203.034 487.703,-118.867 503.998,-84.6863"/>
<polygon fill="black" stroke="black" points="506.224,-80.0185 506.103,-85.5001 505.148,-82.2751 504.072,-84.5318 504.072,-84.5318 504.072,-84.5318 505.148,-82.2751 502.041,-83.5635 506.224,-80.0185 506.224,-80.0185"/>
</g>
<!-- v2&#45;&gt;v3 -->
<g id="edge21" class="edge"><title>v2&#45;&gt;v3</title>
<path fill="none" stroke="green" d="M138.677,-79.8779C147.68,-94.6754 166.632,-122.51 190,-138 227.461,-162.832 278.946,-174.763 310.814,-180.108"/>
</g>
<!-- v8 -->
<g id="v8_SmartLight" class="node"><title>v8</title>
<ellipse fill="none" stroke="black" cx="43" cy="-11" rx="43" ry="11"/>
<text text-anchor="middle" x="43" y="-8.8" font-family="sans-serif" font-size="9.00">SmartLight</text>
</g>
<!-- v2&#45;&gt;v8 -->
<g id="edge9" class="edge"><title>v2&#45;&gt;v8</title>
<path fill="none" stroke="black" d="M120.105,-59.9766C104.96,-50.553 79.6915,-34.8303 62.2307,-23.9657"/>
<polygon fill="black" stroke="black" points="57.9706,-21.315 63.4046,-22.0462 60.0933,-22.6358 62.2159,-23.9566 62.2159,-23.9566 62.2159,-23.9566 60.0933,-22.6358 61.0272,-25.867 57.9706,-21.315 57.9706,-21.315"/>
</g>
<!-- v9 -->
<g id="v9_Server" class="node"><title>v9</title>
<ellipse fill="none" stroke="black" cx="133" cy="-11" rx="29" ry="11"/>
<text text-anchor="middle" x="133" y="-8.8" font-family="sans-serif" font-size="9.00">Server</text>
</g>
<!-- v2&#45;&gt;v9 -->
<g id="edge10" class="edge"><title>v2&#45;&gt;v9</title>
<path fill="none" stroke="black" d="M133,-57.9883C133,-49.4941 133,-37.1697 133,-27.4169"/>
<polygon fill="black" stroke="black" points="133,-22.3039 135.25,-27.3038 133,-24.8039 133,-27.3039 133,-27.3039 133,-27.3039 133,-24.8039 130.75,-27.3039 133,-22.3039 133,-22.3039"/>
</g>
<!-- v10 -->
<g id="v10_FireAlarm" class="node"><title>v10</title>
<ellipse fill="none" stroke="black" cx="219" cy="-11" rx="39.5" ry="11"/>
<text text-anchor="middle" x="219" y="-8.8" font-family="sans-serif" font-size="9.00">FireAlarm</text>
</g>
<!-- v2&#45;&gt;v10 -->
<g id="edge11" class="edge"><title>v2&#45;&gt;v10</title>
<path fill="none" stroke="black" d="M145.322,-59.9766C159.671,-50.6328 183.531,-35.0963 200.198,-24.243"/>
<polygon fill="black" stroke="black" points="204.695,-21.315 201.733,-25.929 202.6,-22.6792 200.505,-24.0434 200.505,-24.0434 200.505,-24.0434 202.6,-22.6792 199.277,-22.1579 204.695,-21.315 204.695,-21.315"/>
</g>
<!-- v4 -->
<g id="v4_Visitor" class="node"><title>v4</title>
<ellipse fill="none" stroke="black" cx="232" cy="-127" rx="32.5" ry="11"/>
<text text-anchor="middle" x="232" y="-124.8" font-family="sans-serif" font-size="9.00">Visitor</text>
</g>
<!-- v3&#45;&gt;v4 -->
<g id="edge12" class="edge"><title>v3&#45;&gt;v4</title>
<path fill="none" stroke="black" d="M323.597,-175.495C304.725,-165.709 273.691,-149.618 253.052,-138.916"/>
<polygon fill="black" stroke="black" points="248.557,-136.585 254.032,-136.889 250.777,-137.736 252.996,-138.887 252.996,-138.887 252.996,-138.887 250.777,-137.736 251.96,-140.884 248.557,-136.585 248.557,-136.585"/>
</g>
<!-- v3&#45;&gt;v15 -->
<g id="edge22" class="edge"><title>v3&#45;&gt;v15</title>
<path fill="none" stroke="green" d="M331.455,-174.04C320.593,-160.104 304.648,-134.426 317,-116 322.56,-107.706 381.561,-86.3848 411.614,-75.9422"/>
</g>
<!-- v3&#45;&gt;v17 -->
<g id="edge23" class="edge"><title>v3&#45;&gt;v17</title>
<path fill="none" stroke="green" d="M338.379,-173.851C336.654,-159.212 335.849,-132.158 350,-116 359.528,-105.12 451.529,-83.3589 492.026,-74.2078"/>
</g>
<!-- v4&#45;&gt;v5 -->
<g id="edge13" class="edge"><title>v4&#45;&gt;v5</title>
<path fill="none" stroke="black" d="M250.612,-117.857C273.623,-107.79 312.763,-90.6662 337.454,-79.8638"/>
<polygon fill="black" stroke="black" points="342.191,-77.7916 338.512,-81.8571 339.9,-78.7937 337.61,-79.7958 337.61,-79.7958 337.61,-79.7958 339.9,-78.7937 336.708,-77.7344 342.191,-77.7916 342.191,-77.7916"/>
</g>
<!-- v11 -->
<g id="v11_Data" class="node"><title>v11</title>
<ellipse fill="none" stroke="black" cx="324" cy="-11" rx="21.5" ry="11"/>
<text text-anchor="middle" x="324" y="-8.8" font-family="sans-serif" font-size="9.00">Data</text>
</g>
<!-- v5&#45;&gt;v11 -->
<g id="edge14" class="edge"><title>v5&#45;&gt;v11</title>
<path fill="none" stroke="black" d="M353.729,-58.2455C347.999,-49.3322 339.461,-36.0497 333.002,-26.0035"/>
<polygon fill="black" stroke="black" points="330.199,-21.6427 334.795,-24.6319 331.551,-23.7456 332.903,-25.8486 332.903,-25.8486 332.903,-25.8486 331.551,-23.7456 331.01,-27.0653 330.199,-21.6427 330.199,-21.6427"/>
</g>
<!-- v7 -->
<g id="v7_EnterRoom" class="node"><title>v7</title>
<ellipse fill="none" stroke="black" cx="785" cy="-11" rx="39.5" ry="11"/>
<text text-anchor="middle" x="785" y="-8.8" font-family="sans-serif" font-size="9.00">EnterRoom</text>
</g>
<!-- v6&#45;&gt;v7 -->
<g id="edge15" class="edge"><title>v6&#45;&gt;v7</title>
<path fill="none" stroke="black" d="M823.597,-57.9883C816.112,-49.0694 805.082,-35.9276 796.728,-25.974"/>
<polygon fill="black" stroke="black" points="793.33,-21.925 798.268,-24.3084 794.937,-23.8399 796.544,-25.7549 796.544,-25.7549 796.544,-25.7549 794.937,-23.8399 794.821,-27.2014 793.33,-21.925 793.33,-21.925"/>
</g>
<!-- v12 -->
<g id="v12_ExitRoom" class="node"><title>v12</title>
<ellipse fill="none" stroke="black" cx="879" cy="-11" rx="36" ry="11"/>
<text text-anchor="middle" x="879" y="-8.8" font-family="sans-serif" font-size="9.00">ExitRoom</text>
</g>
<!-- v6&#45;&gt;v12 -->
<g id="edge16" class="edge"><title>v6&#45;&gt;v12</title>
<path fill="none" stroke="black" d="M840.403,-57.9883C847.888,-49.0694 858.918,-35.9276 867.272,-25.974"/>
<polygon fill="black" stroke="black" points="870.67,-21.925 869.179,-27.2014 869.063,-23.8399 867.456,-25.7549 867.456,-25.7549 867.456,-25.7549 869.063,-23.8399 865.732,-24.3084 870.67,-21.925 870.67,-21.925"/>
</g>
<!-- v8&#45;&gt;v13 -->
<g id="edge25" class="edge"><title>v8&#45;&gt;v13</title>
<path fill="none" stroke="green" d="M74.2559,-18.5853C81.0704,-19.86 88.2592,-21.0826 95,-22 292.05,-48.8179 343.008,-39.3679 541,-58 555.227,-59.3389 570.663,-60.9389 584.794,-62.4624"/>
</g>
<!-- v9&#45;&gt;v13 -->
<g id="edge26" class="edge"><title>v9&#45;&gt;v13</title>
<path fill="none" stroke="green" d="M154.774,-18.5339C159.743,-19.843 165.025,-21.0929 170,-22 332.977,-51.7153 376.196,-41.1442 541,-58 555.055,-59.4375 570.297,-61.0528 584.297,-62.5592"/>
</g>
<!-- v10&#45;&gt;v13 -->
<g id="edge27" class="edge"><title>v10&#45;&gt;v13</title>
<path fill="none" stroke="green" d="M253.263,-16.6318C265.769,-18.3219 280.024,-20.248 293,-22 398.377,-36.2276 522.074,-52.9091 587.669,-61.7535"/>
</g>
<!-- v14 -->
<g id="v14_Data" class="node"><title>v14</title>
<ellipse fill="none" stroke="black" cx="706" cy="-11" rx="21.5" ry="11"/>
<text text-anchor="middle" x="706" y="-8.8" font-family="sans-serif" font-size="9.00">Data</text>
</g>
<!-- v13&#45;&gt;v14 -->
<g id="edge17" class="edge"><title>v13&#45;&gt;v14</title>
<path fill="none" stroke="black" d="M646.872,-57.9883C659.083,-48.4913 677.449,-34.2063 690.468,-24.0808"/>
<polygon fill="black" stroke="black" points="694.661,-20.8193 692.095,-25.6651 692.687,-22.3542 690.714,-23.8891 690.714,-23.8891 690.714,-23.8891 692.687,-22.3542 689.333,-22.113 694.661,-20.8193 694.661,-20.8193"/>
</g>
<!-- v16 -->
<g id="v16_SmartLight" class="node"><title>v16</title>
<ellipse fill="none" stroke="black" cx="407" cy="-11" rx="43" ry="11"/>
<text text-anchor="middle" x="407" y="-8.8" font-family="sans-serif" font-size="9.00">SmartLight</text>
</g>
<!-- v13&#45;&gt;v16 -->
<g id="edge28" class="edge"><title>v13&#45;&gt;v16</title>
<path fill="none" stroke="green" d="M600.505,-59.737C555.984,-48.7538 478.046,-29.5269 435.948,-19.1413"/>
</g>
<!-- v18 -->
<g id="v18_SmartLight" class="node"><title>v18</title>
<ellipse fill="none" stroke="black" cx="511" cy="-11" rx="43" ry="11"/>
<text text-anchor="middle" x="511" y="-8.8" font-family="sans-serif" font-size="9.00">SmartLight</text>
</g>
<!-- v13&#45;&gt;v18 -->
<g id="edge29" class="edge"><title>v13&#45;&gt;v18</title>
<path fill="none" stroke="green" d="M613.413,-58.6269C590.297,-48.1028 553.069,-31.1535 530.436,-20.8487"/>
</g>
<!-- v19 -->
<g id="v19_Workstation" class="node"><title>v19</title>
<ellipse fill="none" stroke="black" cx="619" cy="-11" rx="47" ry="11"/>
<text text-anchor="middle" x="619" y="-8.8" font-family="sans-serif" font-size="9.00">Workstation</text>
</g>
<!-- v13&#45;&gt;v19 -->
<g id="edge30" class="edge"><title>v13&#45;&gt;v19</title>
<path fill="none" stroke="green" d="M631.318,-57.9883C628.622,-47.9211 624.484,-32.4737 621.76,-22.3039"/>
</g>
<!-- v15&#45;&gt;v16 -->
<g id="edge18" class="edge"><title>v15&#45;&gt;v16</title>
<path fill="none" stroke="black" d="M425.067,-57.9883C421.699,-49.4154 416.798,-36.9411 412.95,-27.1466"/>
<polygon fill="black" stroke="black" points="411.048,-22.3039 414.97,-26.1349 411.962,-24.6308 412.876,-26.9576 412.876,-26.9576 412.876,-26.9576 411.962,-24.6308 410.782,-27.7804 411.048,-22.3039 411.048,-22.3039"/>
</g>
<!-- v17&#45;&gt;v18 -->
<g id="edge19" class="edge"><title>v17&#45;&gt;v18</title>
<path fill="none" stroke="black" d="M511,-57.9883C511,-49.4941 511,-37.1697 511,-27.4169"/>
<polygon fill="black" stroke="black" points="511,-22.3039 513.25,-27.3038 511,-24.8039 511,-27.3039 511,-27.3039 511,-27.3039 511,-24.8039 508.75,-27.3039 511,-22.3039 511,-22.3039"/>
</g>
<!-- v17&#45;&gt;v19 -->
<g id="edge20" class="edge"><title>v17&#45;&gt;v19</title>
<path fill="none" stroke="black" d="M525.119,-60.679C543.192,-51.3076 574.732,-34.9536 596.222,-23.8106"/>
<polygon fill="black" stroke="black" points="600.916,-21.3771 597.513,-25.6762 598.696,-22.5279 596.477,-23.6787 596.477,-23.6787 596.477,-23.6787 598.696,-22.5279 595.441,-21.6813 600.916,-21.3771 600.916,-21.3771"/>
</g>
</g>
</svg>
