<?xml version="1.0" encoding="UTF-8" standalone="no"?>
<?xml-stylesheet href="style.css" type="text/css"?>
<!DOCTYPE svg PUBLIC "-//W3C//DTD SVG 1.1//EN"
 "http://www.w3.org/Graphics/SVG/1.1/DTD/svg11.dtd">
<!-- Generated by graphviz version 2.38.0 (20140413.2041)
 -->
<!-- Title: 21.svg Pages: 1 -->
<svg width="933pt" height="374pt"
 viewBox="0.00 0.00 932.50 374.00" xmlns="http://www.w3.org/2000/svg" xmlns:xlink="http://www.w3.org/1999/xlink">
<g id="graph0" class="graph" transform="scale(1 1) rotate(0) translate(4 370)">
<title>21.svg</title>
<polygon fill="white" stroke="none" points="-4,4 -4,-370 928.5,-370 928.5,4 -4,4"/>
<!-- r0 -->
<g id="node1" class="node"><title>r0</title>
<polygon fill="none" stroke="black" stroke-dasharray="5,2" points="525,-366 502,-366 502,-348 525,-348 525,-366"/>
<text text-anchor="middle" x="513.5" y="-354.8" font-family="serif" font-size="9.00">0</text>
</g>
<!-- v0 -->
<g id="v0_Building" class="node"><title>v0</title>
<ellipse fill="none" stroke="black" cx="513.5" cy="-301" rx="36" ry="11"/>
<text text-anchor="middle" x="513.5" y="-298.8" font-family="sans-serif" font-size="9.00">Building</text>
</g>
<!-- r0&#45;&gt;v0 -->
<g id="edge1" class="edge"><title>r0&#45;&gt;v0</title>
<path fill="none" stroke="black" d="M513.5,-347.562C513.5,-339.453 513.5,-327.014 513.5,-317.181"/>
<polygon fill="black" stroke="black" points="513.5,-312.03 515.75,-317.03 513.5,-314.53 513.5,-317.03 513.5,-317.03 513.5,-317.03 513.5,-314.53 511.25,-317.03 513.5,-312.03 513.5,-312.03"/>
</g>
<!-- r1 -->
<g id="node2" class="node"><title>r1</title>
<polygon fill="none" stroke="black" stroke-dasharray="5,2" points="882,-366 859,-366 859,-348 882,-348 882,-366"/>
<text text-anchor="middle" x="870.5" y="-354.8" font-family="serif" font-size="9.00">1</text>
</g>
<!-- v10 -->
<g id="v10_RulesKeywords" class="node"><title>v10</title>
<ellipse fill="none" stroke="black" cx="870.5" cy="-69" rx="54" ry="11"/>
<text text-anchor="middle" x="870.5" y="-66.8" font-family="sans-serif" font-size="9.00">RulesKeywords</text>
</g>
<!-- r1&#45;&gt;v10 -->
<g id="edge2" class="edge"><title>r1&#45;&gt;v10</title>
<path fill="none" stroke="black" d="M870.5,-347.849C870.5,-329.373 870.5,-282.889 870.5,-244 870.5,-244 870.5,-244 870.5,-184 870.5,-148.604 870.5,-107.026 870.5,-85.1783"/>
<polygon fill="black" stroke="black" points="870.5,-80.0648 872.75,-85.0648 870.5,-82.5648 870.5,-85.0648 870.5,-85.0648 870.5,-85.0648 870.5,-82.5648 868.25,-85.0648 870.5,-80.0648 870.5,-80.0648"/>
</g>
<!-- e1 -->
<g id="node3" class="node"><title>e1</title>
</g>
<!-- v4 -->
<g id="v4_Laptop" class="node"><title>v4</title>
<ellipse fill="none" stroke="black" cx="470.5" cy="-69" rx="29" ry="11"/>
<text text-anchor="middle" x="470.5" y="-66.8" font-family="sans-serif" font-size="9.00">Laptop</text>
</g>
<!-- e1&#45;&gt;v4 -->
<g id="edge21" class="edge"><title>e1&#45;&gt;v4</title>
<path fill="none" stroke="green" d="M470.5,-122.167C470.5,-113.586 470.5,-92.5957 470.5,-80.0117"/>
<polygon fill="green" stroke="green" points="474,-125.3 467,-125.3 467,-123.9 474,-123.9 474,-125.3"/>
<polyline fill="none" stroke="green" points="470.5,-126 470.5,-122.5 "/>
</g>
<!-- v1 -->
<g id="v1_Floor" class="node"><title>v1</title>
<ellipse fill="none" stroke="black" cx="320.5" cy="-243" rx="25" ry="11"/>
<text text-anchor="middle" x="320.5" y="-240.8" font-family="sans-serif" font-size="9.00">Floor</text>
</g>
<!-- v0&#45;&gt;v1 -->
<g id="edge3" class="edge"><title>v0&#45;&gt;v1</title>
<path fill="none" stroke="black" d="M489.056,-292.908C452.222,-282.22 382.846,-262.09 345.618,-251.288"/>
<polygon fill="black" stroke="black" points="340.367,-249.764 345.796,-248.997 342.768,-250.461 345.169,-251.158 345.169,-251.158 345.169,-251.158 342.768,-250.461 344.542,-253.319 340.367,-249.764 340.367,-249.764"/>
</g>
<!-- v6 -->
<g id="v6_InstallationBus" class="node"><title>v6</title>
<ellipse fill="none" stroke="black" cx="732.5" cy="-69" rx="61" ry="11"/>
<text text-anchor="middle" x="732.5" y="-66.8" font-family="sans-serif" font-size="9.00">InstallationBus</text>
</g>
<!-- v0&#45;&gt;v6 -->
<g id="edge4" class="edge"><title>v0&#45;&gt;v6</title>
<path fill="none" stroke="black" d="M522.91,-290.117C557.649,-253.633 678.756,-126.443 719.22,-83.9473"/>
<polygon fill="black" stroke="black" points="722.878,-80.105 721.06,-85.2777 721.154,-81.9156 719.43,-83.7261 719.43,-83.7261 719.43,-83.7261 721.154,-81.9156 717.801,-82.1746 722.878,-80.105 722.878,-80.105"/>
</g>
<!-- v2 -->
<g id="v2_Room" class="node"><title>v2</title>
<ellipse fill="none" stroke="black" cx="552.5" cy="-185" rx="21.5" ry="11"/>
<text text-anchor="middle" x="552.5" y="-182.8" font-family="sans-serif" font-size="9.00">Room</text>
</g>
<!-- v1&#45;&gt;v2 -->
<g id="edge5" class="edge"><title>v1&#45;&gt;v2</title>
<path fill="none" stroke="black" d="M341.498,-236.932C384.673,-226.51 483.167,-202.735 528.658,-191.755"/>
<polygon fill="black" stroke="black" points="533.676,-190.544 529.343,-193.904 531.246,-191.13 528.815,-191.717 528.815,-191.717 528.815,-191.717 531.246,-191.13 528.287,-189.53 533.676,-190.544 533.676,-190.544"/>
</g>
<!-- v11 -->
<g id="v11_Hallway" class="node"><title>v11</title>
<ellipse fill="none" stroke="black" cx="32.5" cy="-11" rx="32.5" ry="11"/>
<text text-anchor="middle" x="32.5" y="-8.8" font-family="sans-serif" font-size="9.00">Hallway</text>
</g>
<!-- v1&#45;&gt;v11 -->
<g id="edge6" class="edge"><title>v1&#45;&gt;v11</title>
<path fill="none" stroke="black" d="M309.21,-232.984C264.601,-197.358 100.523,-66.3236 48.4617,-24.7472"/>
<polygon fill="black" stroke="black" points="44.3417,-21.4569 49.6528,-22.819 46.2952,-23.017 48.2487,-24.5771 48.2487,-24.5771 48.2487,-24.5771 46.2952,-23.017 46.8446,-26.3353 44.3417,-21.4569 44.3417,-21.4569"/>
</g>
<!-- v12 -->
<g id="v12_Room" class="node"><title>v12</title>
<ellipse fill="none" stroke="black" cx="193.5" cy="-69" rx="21.5" ry="11"/>
<text text-anchor="middle" x="193.5" y="-66.8" font-family="sans-serif" font-size="9.00">Room</text>
</g>
<!-- v1&#45;&gt;v12 -->
<g id="edge7" class="edge"><title>v1&#45;&gt;v12</title>
<path fill="none" stroke="black" d="M313.308,-232.26C291.915,-203.287 228.626,-117.572 203.727,-83.8512"/>
<polygon fill="black" stroke="black" points="200.613,-79.6335 205.393,-82.3193 202.098,-81.6446 203.583,-83.6558 203.583,-83.6558 203.583,-83.6558 202.098,-81.6446 201.773,-84.9923 200.613,-79.6335 200.613,-79.6335"/>
</g>
<!-- v14 -->
<g id="v14_Room" class="node"><title>v14</title>
<ellipse fill="none" stroke="black" cx="320.5" cy="-69" rx="21.5" ry="11"/>
<text text-anchor="middle" x="320.5" y="-66.8" font-family="sans-serif" font-size="9.00">Room</text>
</g>
<!-- v1&#45;&gt;v14 -->
<g id="edge8" class="edge"><title>v1&#45;&gt;v14</title>
<path fill="none" stroke="black" d="M320.5,-231.756C320.5,-202.786 320.5,-120.136 320.5,-85.5335"/>
<polygon fill="black" stroke="black" points="320.5,-80.4081 322.75,-85.408 320.5,-82.9081 320.5,-85.4081 320.5,-85.4081 320.5,-85.4081 320.5,-82.9081 318.25,-85.4081 320.5,-80.4081 320.5,-80.4081"/>
</g>
<!-- v3 -->
<g id="v3_Visitor" class="node"><title>v3</title>
<ellipse fill="none" stroke="black" cx="521.5" cy="-127" rx="32.5" ry="11"/>
<text text-anchor="middle" x="521.5" y="-124.8" font-family="sans-serif" font-size="9.00">Visitor</text>
</g>
<!-- v2&#45;&gt;v3 -->
<g id="edge9" class="edge"><title>v2&#45;&gt;v3</title>
<path fill="none" stroke="black" d="M547.1,-174.246C542.27,-165.52 535.122,-152.608 529.606,-142.643"/>
<polygon fill="black" stroke="black" points="527.047,-138.02 531.437,-141.304 528.257,-140.207 529.468,-142.394 529.468,-142.394 529.468,-142.394 528.257,-140.207 527.5,-143.484 527.047,-138.02 527.047,-138.02"/>
</g>
<!-- v5 -->
<g id="v5_SmartLight" class="node"><title>v5</title>
<ellipse fill="none" stroke="black" cx="568.5" cy="-11" rx="43" ry="11"/>
<text text-anchor="middle" x="568.5" y="-8.8" font-family="sans-serif" font-size="9.00">SmartLight</text>
</g>
<!-- v2&#45;&gt;v5 -->
<g id="edge10" class="edge"><title>v2&#45;&gt;v5</title>
<path fill="none" stroke="black" d="M555.216,-173.854C557.573,-164.59 560.858,-150.478 562.5,-138 567.71,-98.4007 568.542,-51.274 568.589,-27.4434"/>
<polygon fill="black" stroke="black" points="568.588,-22.177 570.839,-27.1762 568.589,-24.677 568.589,-27.177 568.589,-27.177 568.589,-27.177 568.589,-24.677 566.339,-27.1778 568.588,-22.177 568.588,-22.177"/>
</g>
<!-- v9 -->
<g id="v9_Workstation" class="node"><title>v9</title>
<ellipse fill="none" stroke="black" cx="676.5" cy="-11" rx="47" ry="11"/>
<text text-anchor="middle" x="676.5" y="-8.8" font-family="sans-serif" font-size="9.00">Workstation</text>
</g>
<!-- v2&#45;&gt;v9 -->
<g id="edge11" class="edge"><title>v2&#45;&gt;v9</title>
<path fill="none" stroke="black" d="M559.343,-174.508C579.946,-145.93 641.48,-60.5757 666.125,-26.3907"/>
<polygon fill="black" stroke="black" points="669.215,-22.1054 668.116,-27.4771 667.753,-24.1333 666.291,-26.1613 666.291,-26.1613 666.291,-26.1613 667.753,-24.1333 664.466,-24.8454 669.215,-22.1054 669.215,-22.1054"/>
</g>
<!-- v2&#45;&gt;v11 -->
<g id="edge20" class="edge"><title>v2&#45;&gt;v11</title>
<path fill="none" stroke="green" d="M537.111,-177.253C518.499,-168.88 486.44,-153.77 460.5,-138 408.845,-106.598 406.656,-80.3804 350.5,-58 235.584,-12.2012 196.169,-44.3566 74.5,-22 68.8972,-20.9705 62.9194,-19.6709 57.2831,-18.3523"/>
</g>
<!-- v3&#45;&gt;v4 -->
<g id="edge12" class="edge"><title>v3&#45;&gt;v4</title>
<path fill="none" stroke="black" d="M512.616,-116.246C504.353,-107.172 491.965,-93.5697 482.762,-83.4636"/>
<polygon fill="black" stroke="black" points="479.282,-79.6427 484.312,-81.8244 480.965,-81.491 482.648,-83.3394 482.648,-83.3394 482.648,-83.3394 480.965,-81.491 480.985,-84.8544 479.282,-79.6427 479.282,-79.6427"/>
</g>
<!-- v8 -->
<g id="v8_Data" class="node"><title>v8</title>
<ellipse fill="none" stroke="black" cx="485.5" cy="-11" rx="21.5" ry="11"/>
<text text-anchor="middle" x="485.5" y="-8.8" font-family="sans-serif" font-size="9.00">Data</text>
</g>
<!-- v4&#45;&gt;v8 -->
<g id="edge13" class="edge"><title>v4&#45;&gt;v8</title>
<path fill="none" stroke="black" d="M473.182,-57.9883C475.507,-49.3083 478.903,-36.6286 481.541,-26.7806"/>
<polygon fill="black" stroke="black" points="482.842,-21.925 483.721,-27.3369 482.195,-24.3399 481.548,-26.7547 481.548,-26.7547 481.548,-26.7547 482.195,-24.3399 479.374,-26.1726 482.842,-21.925 482.842,-21.925"/>
</g>
<!-- v5&#45;&gt;v6 -->
<g id="edge22" class="edge"><title>v5&#45;&gt;v6</title>
<path fill="none" stroke="green" d="M592.384,-20.1555C622.674,-30.4984 674.731,-48.2742 706.151,-59.0026"/>
</g>
<!-- v7 -->
<g id="v7_Data" class="node"><title>v7</title>
<ellipse fill="none" stroke="black" cx="763.5" cy="-11" rx="21.5" ry="11"/>
<text text-anchor="middle" x="763.5" y="-8.8" font-family="sans-serif" font-size="9.00">Data</text>
</g>
<!-- v6&#45;&gt;v7 -->
<g id="edge14" class="edge"><title>v6&#45;&gt;v7</title>
<path fill="none" stroke="black" d="M738.042,-57.9883C742.891,-49.2286 749.995,-36.3956 755.468,-26.5103"/>
<polygon fill="black" stroke="black" points="758.006,-21.925 757.553,-27.3892 756.795,-24.1122 755.584,-26.2995 755.584,-26.2995 755.584,-26.2995 756.795,-24.1122 753.616,-25.2097 758.006,-21.925 758.006,-21.925"/>
</g>
<!-- v6&#45;&gt;v9 -->
<g id="edge23" class="edge"><title>v6&#45;&gt;v9</title>
<path fill="none" stroke="green" d="M722.488,-57.9883C712.295,-47.7952 696.587,-32.0867 686.425,-21.925"/>
</g>
<!-- v13 -->
<g id="v13_SmartLight" class="node"><title>v13</title>
<ellipse fill="none" stroke="black" cx="126.5" cy="-11" rx="43" ry="11"/>
<text text-anchor="middle" x="126.5" y="-8.8" font-family="sans-serif" font-size="9.00">SmartLight</text>
</g>
<!-- v6&#45;&gt;v13 -->
<g id="edge24" class="edge"><title>v6&#45;&gt;v13</title>
<path fill="none" stroke="green" d="M674.855,-65.2524C573.913,-59.9869 358.734,-46.7404 178.5,-22 171.76,-21.0748 164.572,-19.849 157.758,-18.5735"/>
</g>
<!-- v15 -->
<g id="v15_SmartLight" class="node"><title>v15</title>
<ellipse fill="none" stroke="black" cx="230.5" cy="-11" rx="43" ry="11"/>
<text text-anchor="middle" x="230.5" y="-8.8" font-family="sans-serif" font-size="9.00">SmartLight</text>
</g>
<!-- v6&#45;&gt;v15 -->
<g id="edge25" class="edge"><title>v6&#45;&gt;v15</title>
<path fill="none" stroke="green" d="M677.932,-63.9826C593.08,-57.3845 424.492,-42.869 282.5,-22 275.86,-21.0241 268.779,-19.7917 262.048,-18.5283"/>
</g>
<!-- v16 -->
<g id="v16_Server" class="node"><title>v16</title>
<ellipse fill="none" stroke="black" cx="320.5" cy="-11" rx="29" ry="11"/>
<text text-anchor="middle" x="320.5" y="-8.8" font-family="sans-serif" font-size="9.00">Server</text>
</g>
<!-- v6&#45;&gt;v16 -->
<g id="edge26" class="edge"><title>v6&#45;&gt;v16</title>
<path fill="none" stroke="green" d="M678.406,-63.7918C605.175,-57.5436 470.638,-44.112 357.5,-22 352.537,-21.03 347.26,-19.7546 342.292,-18.4406"/>
</g>
<!-- v17 -->
<g id="v17_FireAlarm" class="node"><title>v17</title>
<ellipse fill="none" stroke="black" cx="406.5" cy="-11" rx="39.5" ry="11"/>
<text text-anchor="middle" x="406.5" y="-8.8" font-family="sans-serif" font-size="9.00">FireAlarm</text>
</g>
<!-- v6&#45;&gt;v17 -->
<g id="edge27" class="edge"><title>v6&#45;&gt;v17</title>
<path fill="none" stroke="green" d="M688.586,-61.3091C633.709,-52.8157 536.971,-37.4071 454.5,-22 448.559,-20.8901 442.221,-19.6267 436.164,-18.3803"/>
</g>
<!-- v18 -->
<g id="v18_ExitRoom" class="node"><title>v18</title>
<ellipse fill="none" stroke="black" cx="870.5" cy="-11" rx="36" ry="11"/>
<text text-anchor="middle" x="870.5" y="-8.8" font-family="sans-serif" font-size="9.00">ExitRoom</text>
</g>
<!-- v10&#45;&gt;v18 -->
<g id="edge15" class="edge"><title>v10&#45;&gt;v18</title>
<path fill="none" stroke="black" d="M870.5,-57.9883C870.5,-49.4941 870.5,-37.1697 870.5,-27.4169"/>
<polygon fill="black" stroke="black" points="870.5,-22.3039 872.75,-27.3038 870.5,-24.8039 870.5,-27.3039 870.5,-27.3039 870.5,-27.3039 870.5,-24.8039 868.25,-27.3039 870.5,-22.3039 870.5,-22.3039"/>
</g>
<!-- v11&#45;&gt;v12 -->
<g id="edge28" class="edge"><title>v11&#45;&gt;v12</title>
<path fill="none" stroke="green" d="M53.7563,-19.3935C86.1001,-30.6435 147.026,-51.835 176.574,-62.1129"/>
</g>
<!-- v11&#45;&gt;v14 -->
<g id="edge29" class="edge"><title>v11&#45;&gt;v14</title>
<path fill="none" stroke="green" d="M57.3284,-18.1238C62.9624,-19.4542 68.9277,-20.8164 74.5,-22 158.226,-39.7843 258.768,-57.4376 300.665,-64.6301"/>
</g>
<!-- v12&#45;&gt;v13 -->
<g id="edge16" class="edge"><title>v12&#45;&gt;v13</title>
<path fill="none" stroke="black" d="M183.031,-59.25C172.053,-50.0744 154.68,-35.5532 142.088,-25.0291"/>
<polygon fill="black" stroke="black" points="138.018,-21.6267 143.297,-23.1069 139.936,-23.23 141.854,-24.8333 141.854,-24.8333 141.854,-24.8333 139.936,-23.23 140.411,-26.5597 138.018,-21.6267 138.018,-21.6267"/>
</g>
<!-- v14&#45;&gt;v15 -->
<g id="edge17" class="edge"><title>v14&#45;&gt;v15</title>
<path fill="none" stroke="black" d="M307.605,-59.9766C292.46,-50.553 267.192,-34.8303 249.731,-23.9657"/>
<polygon fill="black" stroke="black" points="245.471,-21.315 250.905,-22.0462 247.593,-22.6358 249.716,-23.9566 249.716,-23.9566 249.716,-23.9566 247.593,-22.6358 248.527,-25.867 245.471,-21.315 245.471,-21.315"/>
</g>
<!-- v14&#45;&gt;v16 -->
<g id="edge18" class="edge"><title>v14&#45;&gt;v16</title>
<path fill="none" stroke="black" d="M320.5,-57.9883C320.5,-49.4941 320.5,-37.1697 320.5,-27.4169"/>
<polygon fill="black" stroke="black" points="320.5,-22.3039 322.75,-27.3038 320.5,-24.8039 320.5,-27.3039 320.5,-27.3039 320.5,-27.3039 320.5,-24.8039 318.25,-27.3039 320.5,-22.3039 320.5,-22.3039"/>
</g>
<!-- v14&#45;&gt;v17 -->
<g id="edge19" class="edge"><title>v14&#45;&gt;v17</title>
<path fill="none" stroke="black" d="M332.822,-59.9766C347.171,-50.6328 371.031,-35.0963 387.698,-24.243"/>
<polygon fill="black" stroke="black" points="392.195,-21.315 389.233,-25.929 390.1,-22.6792 388.005,-24.0434 388.005,-24.0434 388.005,-24.0434 390.1,-22.6792 386.777,-22.1579 392.195,-21.315 392.195,-21.315"/>
</g>
</g>
</svg>
