<?xml version="1.0" encoding="UTF-8" standalone="no"?>
<?xml-stylesheet href="style.css" type="text/css"?>
<!DOCTYPE svg PUBLIC "-//W3C//DTD SVG 1.1//EN"
 "http://www.w3.org/Graphics/SVG/1.1/DTD/svg11.dtd">
<!-- Generated by graphviz version 2.38.0 (20140413.2041)
 -->
<!-- Title: 22.svg Pages: 1 -->
<svg width="862pt" height="374pt"
 viewBox="0.00 0.00 862.00 374.00" xmlns="http://www.w3.org/2000/svg" xmlns:xlink="http://www.w3.org/1999/xlink">
<g id="graph0" class="graph" transform="scale(1 1) rotate(0) translate(4 370)">
<title>22.svg</title>
<polygon fill="white" stroke="none" points="-4,4 -4,-370 858,-370 858,4 -4,4"/>
<!-- r0 -->
<g id="node1" class="node"><title>r0</title>
<polygon fill="none" stroke="black" stroke-dasharray="5,2" points="562.5,-366 539.5,-366 539.5,-348 562.5,-348 562.5,-366"/>
<text text-anchor="middle" x="551" y="-354.8" font-family="serif" font-size="9.00">0</text>
</g>
<!-- v0 -->
<g id="v0_Building" class="node"><title>v0</title>
<ellipse fill="none" stroke="black" cx="551" cy="-301" rx="36" ry="11"/>
<text text-anchor="middle" x="551" y="-298.8" font-family="sans-serif" font-size="9.00">Building</text>
</g>
<!-- r0&#45;&gt;v0 -->
<g id="edge1" class="edge"><title>r0&#45;&gt;v0</title>
<path fill="none" stroke="black" d="M551,-347.562C551,-339.453 551,-327.014 551,-317.181"/>
<polygon fill="black" stroke="black" points="551,-312.03 553.25,-317.03 551,-314.53 551,-317.03 551,-317.03 551,-317.03 551,-314.53 548.75,-317.03 551,-312.03 551,-312.03"/>
</g>
<!-- r1 -->
<g id="node2" class="node"><title>r1</title>
<polygon fill="none" stroke="black" stroke-dasharray="5,2" points="811.5,-366 788.5,-366 788.5,-348 811.5,-348 811.5,-366"/>
<text text-anchor="middle" x="800" y="-354.8" font-family="serif" font-size="9.00">1</text>
</g>
<!-- v2 -->
<g id="v2_RulesKeywords" class="node"><title>v2</title>
<ellipse fill="none" stroke="black" cx="800" cy="-11" rx="54" ry="11"/>
<text text-anchor="middle" x="800" y="-8.8" font-family="sans-serif" font-size="9.00">RulesKeywords</text>
</g>
<!-- r1&#45;&gt;v2 -->
<g id="edge2" class="edge"><title>r1&#45;&gt;v2</title>
<path fill="none" stroke="black" d="M800,-347.849C800,-329.373 800,-282.889 800,-244 800,-244 800,-244 800,-126 800,-90.6038 800,-49.0257 800,-27.1783"/>
<polygon fill="black" stroke="black" points="800,-22.0648 802.25,-27.0648 800,-24.5648 800,-27.0648 800,-27.0648 800,-27.0648 800,-24.5648 797.75,-27.0648 800,-22.0648 800,-22.0648"/>
</g>
<!-- e3 -->
<g id="node3" class="node"><title>e3</title>
</g>
<!-- v6 -->
<g id="v6_Laptop" class="node"><title>v6</title>
<ellipse fill="none" stroke="black" cx="360" cy="-69" rx="29" ry="11"/>
<text text-anchor="middle" x="360" y="-66.8" font-family="sans-serif" font-size="9.00">Laptop</text>
</g>
<!-- e3&#45;&gt;v6 -->
<g id="edge22" class="edge"><title>e3&#45;&gt;v6</title>
<path fill="none" stroke="green" d="M360,-122.167C360,-113.586 360,-92.5957 360,-80.0117"/>
<polygon fill="green" stroke="green" points="363.5,-125.3 356.5,-125.3 356.5,-123.9 363.5,-123.9 363.5,-125.3"/>
<polyline fill="none" stroke="green" points="360,-126 360,-122.5 "/>
</g>
<!-- v1 -->
<g id="v1_Floor" class="node"><title>v1</title>
<ellipse fill="none" stroke="black" cx="429" cy="-243" rx="25" ry="11"/>
<text text-anchor="middle" x="429" y="-240.8" font-family="sans-serif" font-size="9.00">Floor</text>
</g>
<!-- v0&#45;&gt;v1 -->
<g id="edge3" class="edge"><title>v0&#45;&gt;v1</title>
<path fill="none" stroke="black" d="M532.471,-291.495C510.316,-281.326 473.324,-264.345 450.093,-253.682"/>
<polygon fill="black" stroke="black" points="445.355,-251.507 450.837,-251.548 447.627,-252.55 449.899,-253.593 449.899,-253.593 449.899,-253.593 447.627,-252.55 448.96,-255.638 445.355,-251.507 445.355,-251.507"/>
</g>
<!-- v11 -->
<g id="v11_InstallationBus" class="node"><title>v11</title>
<ellipse fill="none" stroke="black" cx="661" cy="-69" rx="61" ry="11"/>
<text text-anchor="middle" x="661" y="-66.8" font-family="sans-serif" font-size="9.00">InstallationBus</text>
</g>
<!-- v0&#45;&gt;v11 -->
<g id="edge4" class="edge"><title>v0&#45;&gt;v11</title>
<path fill="none" stroke="black" d="M555.868,-289.82C573.404,-253.155 633.385,-127.741 653.986,-84.6657"/>
<polygon fill="black" stroke="black" points="656.188,-80.062 656.06,-85.5435 655.109,-82.3174 654.03,-84.5727 654.03,-84.5727 654.03,-84.5727 655.109,-82.3174 652.001,-83.6019 656.188,-80.062 656.188,-80.062"/>
</g>
<!-- v3 -->
<g id="v3_Room" class="node"><title>v3</title>
<ellipse fill="none" stroke="black" cx="133" cy="-69" rx="21.5" ry="11"/>
<text text-anchor="middle" x="133" y="-66.8" font-family="sans-serif" font-size="9.00">Room</text>
</g>
<!-- v1&#45;&gt;v3 -->
<g id="edge5" class="edge"><title>v1&#45;&gt;v3</title>
<path fill="none" stroke="black" d="M405.354,-239.099C354.343,-231.64 232.934,-207.259 163,-138 148.302,-123.444 140.248,-100.452 136.28,-85.2981"/>
<polygon fill="black" stroke="black" points="134.999,-80.0998 138.38,-84.4158 135.597,-82.5271 136.196,-84.9544 136.196,-84.9544 136.196,-84.9544 135.597,-82.5271 134.011,-85.493 134.999,-80.0998 134.999,-80.0998"/>
</g>
<!-- v4 -->
<g id="v4_Hallway" class="node"><title>v4</title>
<ellipse fill="none" stroke="black" cx="340" cy="-185" rx="32.5" ry="11"/>
<text text-anchor="middle" x="340" y="-182.8" font-family="sans-serif" font-size="9.00">Hallway</text>
</g>
<!-- v1&#45;&gt;v4 -->
<g id="edge6" class="edge"><title>v1&#45;&gt;v4</title>
<path fill="none" stroke="black" d="M415.483,-233.495C400.37,-223.986 375.793,-208.521 358.809,-197.835"/>
<polygon fill="black" stroke="black" points="354.235,-194.957 359.665,-195.715 356.351,-196.288 358.467,-197.619 358.467,-197.619 358.467,-197.619 356.351,-196.288 357.268,-199.524 354.235,-194.957 354.235,-194.957"/>
</g>
<!-- v13 -->
<g id="v13_Room" class="node"><title>v13</title>
<ellipse fill="none" stroke="black" cx="429" cy="-69" rx="21.5" ry="11"/>
<text text-anchor="middle" x="429" y="-66.8" font-family="sans-serif" font-size="9.00">Room</text>
</g>
<!-- v1&#45;&gt;v13 -->
<g id="edge7" class="edge"><title>v1&#45;&gt;v13</title>
<path fill="none" stroke="black" d="M429,-231.756C429,-202.786 429,-120.136 429,-85.5335"/>
<polygon fill="black" stroke="black" points="429,-80.4081 431.25,-85.408 429,-82.9081 429,-85.4081 429,-85.4081 429,-85.4081 429,-82.9081 426.75,-85.4081 429,-80.4081 429,-80.4081"/>
</g>
<!-- v15 -->
<g id="v15_Room" class="node"><title>v15</title>
<ellipse fill="none" stroke="black" cx="511" cy="-69" rx="21.5" ry="11"/>
<text text-anchor="middle" x="511" y="-66.8" font-family="sans-serif" font-size="9.00">Room</text>
</g>
<!-- v1&#45;&gt;v15 -->
<g id="edge8" class="edge"><title>v1&#45;&gt;v15</title>
<path fill="none" stroke="black" d="M433.763,-232.009C447.577,-203.034 487.703,-118.867 503.998,-84.6863"/>
<polygon fill="black" stroke="black" points="506.224,-80.0185 506.103,-85.5001 505.148,-82.2751 504.072,-84.5318 504.072,-84.5318 504.072,-84.5318 505.148,-82.2751 502.041,-83.5635 506.224,-80.0185 506.224,-80.0185"/>
</g>
<!-- v3&#45;&gt;v4 -->
<g id="edge19" class="edge"><title>v3&#45;&gt;v4</title>
<path fill="none" stroke="green" d="M138.677,-79.8779C147.68,-94.6754 166.632,-122.51 190,-138 227.461,-162.832 278.946,-174.763 310.814,-180.108"/>
</g>
<!-- v7 -->
<g id="v7_SmartLight" class="node"><title>v7</title>
<ellipse fill="none" stroke="black" cx="43" cy="-11" rx="43" ry="11"/>
<text text-anchor="middle" x="43" y="-8.8" font-family="sans-serif" font-size="9.00">SmartLight</text>
</g>
<!-- v3&#45;&gt;v7 -->
<g id="edge9" class="edge"><title>v3&#45;&gt;v7</title>
<path fill="none" stroke="black" d="M120.105,-59.9766C104.96,-50.553 79.6915,-34.8303 62.2307,-23.9657"/>
<polygon fill="black" stroke="black" points="57.9706,-21.315 63.4046,-22.0462 60.0933,-22.6358 62.2159,-23.9566 62.2159,-23.9566 62.2159,-23.9566 60.0933,-22.6358 61.0272,-25.867 57.9706,-21.315 57.9706,-21.315"/>
</g>
<!-- v8 -->
<g id="v8_Server" class="node"><title>v8</title>
<ellipse fill="none" stroke="black" cx="133" cy="-11" rx="29" ry="11"/>
<text text-anchor="middle" x="133" y="-8.8" font-family="sans-serif" font-size="9.00">Server</text>
</g>
<!-- v3&#45;&gt;v8 -->
<g id="edge10" class="edge"><title>v3&#45;&gt;v8</title>
<path fill="none" stroke="black" d="M133,-57.9883C133,-49.4941 133,-37.1697 133,-27.4169"/>
<polygon fill="black" stroke="black" points="133,-22.3039 135.25,-27.3038 133,-24.8039 133,-27.3039 133,-27.3039 133,-27.3039 133,-24.8039 130.75,-27.3039 133,-22.3039 133,-22.3039"/>
</g>
<!-- v9 -->
<g id="v9_FireAlarm" class="node"><title>v9</title>
<ellipse fill="none" stroke="black" cx="219" cy="-11" rx="39.5" ry="11"/>
<text text-anchor="middle" x="219" y="-8.8" font-family="sans-serif" font-size="9.00">FireAlarm</text>
</g>
<!-- v3&#45;&gt;v9 -->
<g id="edge11" class="edge"><title>v3&#45;&gt;v9</title>
<path fill="none" stroke="black" d="M145.322,-59.9766C159.671,-50.6328 183.531,-35.0963 200.198,-24.243"/>
<polygon fill="black" stroke="black" points="204.695,-21.315 201.733,-25.929 202.6,-22.6792 200.505,-24.0434 200.505,-24.0434 200.505,-24.0434 202.6,-22.6792 199.277,-22.1579 204.695,-21.315 204.695,-21.315"/>
</g>
<!-- v5 -->
<g id="v5_Visitor" class="node"><title>v5</title>
<ellipse fill="none" stroke="black" cx="232" cy="-127" rx="32.5" ry="11"/>
<text text-anchor="middle" x="232" y="-124.8" font-family="sans-serif" font-size="9.00">Visitor</text>
</g>
<!-- v4&#45;&gt;v5 -->
<g id="edge12" class="edge"><title>v4&#45;&gt;v5</title>
<path fill="none" stroke="black" d="M323.597,-175.495C304.725,-165.709 273.691,-149.618 253.052,-138.916"/>
<polygon fill="black" stroke="black" points="248.557,-136.585 254.032,-136.889 250.777,-137.736 252.996,-138.887 252.996,-138.887 252.996,-138.887 250.777,-137.736 251.96,-140.884 248.557,-136.585 248.557,-136.585"/>
</g>
<!-- v4&#45;&gt;v13 -->
<g id="edge20" class="edge"><title>v4&#45;&gt;v13</title>
<path fill="none" stroke="green" d="M331.455,-174.04C320.593,-160.104 304.648,-134.426 317,-116 322.56,-107.706 381.561,-86.3848 411.614,-75.9422"/>
</g>
<!-- v4&#45;&gt;v15 -->
<g id="edge21" class="edge"><title>v4&#45;&gt;v15</title>
<path fill="none" stroke="green" d="M338.379,-173.851C336.654,-159.212 335.849,-132.158 350,-116 359.528,-105.12 451.529,-83.3589 492.026,-74.2078"/>
</g>
<!-- v5&#45;&gt;v6 -->
<g id="edge13" class="edge"><title>v5&#45;&gt;v6</title>
<path fill="none" stroke="black" d="M250.612,-117.857C273.623,-107.79 312.763,-90.6662 337.454,-79.8638"/>
<polygon fill="black" stroke="black" points="342.191,-77.7916 338.512,-81.8571 339.9,-78.7937 337.61,-79.7958 337.61,-79.7958 337.61,-79.7958 339.9,-78.7937 336.708,-77.7344 342.191,-77.7916 342.191,-77.7916"/>
</g>
<!-- v10 -->
<g id="v10_Data" class="node"><title>v10</title>
<ellipse fill="none" stroke="black" cx="324" cy="-11" rx="21.5" ry="11"/>
<text text-anchor="middle" x="324" y="-8.8" font-family="sans-serif" font-size="9.00">Data</text>
</g>
<!-- v6&#45;&gt;v10 -->
<g id="edge14" class="edge"><title>v6&#45;&gt;v10</title>
<path fill="none" stroke="black" d="M353.729,-58.2455C347.999,-49.3322 339.461,-36.0497 333.002,-26.0035"/>
<polygon fill="black" stroke="black" points="330.199,-21.6427 334.795,-24.6319 331.551,-23.7456 332.903,-25.8486 332.903,-25.8486 332.903,-25.8486 331.551,-23.7456 331.01,-27.0653 330.199,-21.6427 330.199,-21.6427"/>
</g>
<!-- v7&#45;&gt;v11 -->
<g id="edge23" class="edge"><title>v7&#45;&gt;v11</title>
<path fill="none" stroke="green" d="M74.2559,-18.5853C81.0704,-19.86 88.2592,-21.0826 95,-22 292.05,-48.8179 342.799,-41.7425 541,-58 562.877,-59.7945 586.996,-61.7992 607.837,-63.5398"/>
</g>
<!-- v8&#45;&gt;v11 -->
<g id="edge24" class="edge"><title>v8&#45;&gt;v11</title>
<path fill="none" stroke="green" d="M154.381,-18.4427C159.462,-19.7888 164.892,-21.0775 170,-22 212.232,-29.6277 489.494,-53.5241 607.729,-63.5269"/>
</g>
<!-- v9&#45;&gt;v11 -->
<g id="edge25" class="edge"><title>v9&#45;&gt;v11</title>
<path fill="none" stroke="green" d="M253.254,-16.7013C265.758,-18.3984 280.016,-20.3112 293,-22 407.767,-36.9271 542.796,-53.5707 613.051,-62.1611"/>
</g>
<!-- v12 -->
<g id="v12_Data" class="node"><title>v12</title>
<ellipse fill="none" stroke="black" cx="706" cy="-11" rx="21.5" ry="11"/>
<text text-anchor="middle" x="706" y="-8.8" font-family="sans-serif" font-size="9.00">Data</text>
</g>
<!-- v11&#45;&gt;v12 -->
<g id="edge15" class="edge"><title>v11&#45;&gt;v12</title>
<path fill="none" stroke="black" d="M669.045,-57.9883C676.301,-48.9593 687.034,-35.6025 695.066,-25.6069"/>
<polygon fill="black" stroke="black" points="698.325,-21.5512 696.947,-26.8582 696.759,-23.5 695.193,-25.4488 695.193,-25.4488 695.193,-25.4488 696.759,-23.5 693.439,-24.0394 698.325,-21.5512 698.325,-21.5512"/>
</g>
<!-- v14 -->
<g id="v14_SmartLight" class="node"><title>v14</title>
<ellipse fill="none" stroke="black" cx="407" cy="-11" rx="43" ry="11"/>
<text text-anchor="middle" x="407" y="-8.8" font-family="sans-serif" font-size="9.00">SmartLight</text>
</g>
<!-- v11&#45;&gt;v14 -->
<g id="edge26" class="edge"><title>v11&#45;&gt;v14</title>
<path fill="none" stroke="green" d="M625.147,-60.0953C575.097,-49.0607 485.129,-29.2254 437.889,-18.8103"/>
</g>
<!-- v16 -->
<g id="v16_SmartLight" class="node"><title>v16</title>
<ellipse fill="none" stroke="black" cx="511" cy="-11" rx="43" ry="11"/>
<text text-anchor="middle" x="511" y="-8.8" font-family="sans-serif" font-size="9.00">SmartLight</text>
</g>
<!-- v11&#45;&gt;v16 -->
<g id="edge27" class="edge"><title>v11&#45;&gt;v16</title>
<path fill="none" stroke="green" d="M636.566,-58.878C608.009,-48.2165 561.143,-30.7199 533.462,-20.3857"/>
</g>
<!-- v17 -->
<g id="v17_Workstation" class="node"><title>v17</title>
<ellipse fill="none" stroke="black" cx="619" cy="-11" rx="47" ry="11"/>
<text text-anchor="middle" x="619" y="-8.8" font-family="sans-serif" font-size="9.00">Workstation</text>
</g>
<!-- v11&#45;&gt;v17 -->
<g id="edge28" class="edge"><title>v11&#45;&gt;v17</title>
<path fill="none" stroke="green" d="M653.491,-57.9883C645.846,-47.7952 634.065,-32.0867 626.444,-21.925"/>
</g>
<!-- v13&#45;&gt;v14 -->
<g id="edge16" class="edge"><title>v13&#45;&gt;v14</title>
<path fill="none" stroke="black" d="M425.067,-57.9883C421.699,-49.4154 416.798,-36.9411 412.95,-27.1466"/>
<polygon fill="black" stroke="black" points="411.048,-22.3039 414.97,-26.1349 411.962,-24.6308 412.876,-26.9576 412.876,-26.9576 412.876,-26.9576 411.962,-24.6308 410.782,-27.7804 411.048,-22.3039 411.048,-22.3039"/>
</g>
<!-- v15&#45;&gt;v16 -->
<g id="edge17" class="edge"><title>v15&#45;&gt;v16</title>
<path fill="none" stroke="black" d="M511,-57.9883C511,-49.4941 511,-37.1697 511,-27.4169"/>
<polygon fill="black" stroke="black" points="511,-22.3039 513.25,-27.3038 511,-24.8039 511,-27.3039 511,-27.3039 511,-27.3039 511,-24.8039 508.75,-27.3039 511,-22.3039 511,-22.3039"/>
</g>
<!-- v15&#45;&gt;v17 -->
<g id="edge18" class="edge"><title>v15&#45;&gt;v17</title>
<path fill="none" stroke="black" d="M525.119,-60.679C543.192,-51.3076 574.732,-34.9536 596.222,-23.8106"/>
<polygon fill="black" stroke="black" points="600.916,-21.3771 597.513,-25.6762 598.696,-22.5279 596.477,-23.6787 596.477,-23.6787 596.477,-23.6787 598.696,-22.5279 595.441,-21.6813 600.916,-21.3771 600.916,-21.3771"/>
</g>
</g>
</svg>
