<?xml version="1.0" encoding="UTF-8" standalone="no"?>
<?xml-stylesheet href="style.css" type="text/css"?>
<!DOCTYPE svg PUBLIC "-//W3C//DTD SVG 1.1//EN"
 "http://www.w3.org/Graphics/SVG/1.1/DTD/svg11.dtd">
<!-- Generated by graphviz version 2.38.0 (20140413.2041)
 -->
<!-- Title: 24.svg Pages: 1 -->
<svg width="1205pt" height="374pt"
 viewBox="0.00 0.00 1205.00 374.00" xmlns="http://www.w3.org/2000/svg" xmlns:xlink="http://www.w3.org/1999/xlink">
<g id="graph0" class="graph" transform="scale(1 1) rotate(0) translate(4 370)">
<title>24.svg</title>
<polygon fill="white" stroke="none" points="-4,4 -4,-370 1201,-370 1201,4 -4,4"/>
<!-- r0 -->
<g id="node1" class="node"><title>r0</title>
<polygon fill="none" stroke="black" stroke-dasharray="5,2" points="651,-366 628,-366 628,-348 651,-348 651,-366"/>
<text text-anchor="middle" x="639.5" y="-354.8" font-family="serif" font-size="9.00">0</text>
</g>
<!-- v0 -->
<g id="v0_Building" class="node"><title>v0</title>
<ellipse fill="none" stroke="black" cx="639.5" cy="-301" rx="36" ry="11"/>
<text text-anchor="middle" x="639.5" y="-298.8" font-family="sans-serif" font-size="9.00">Building</text>
</g>
<!-- r0&#45;&gt;v0 -->
<g id="edge1" class="edge"><title>r0&#45;&gt;v0</title>
<path fill="none" stroke="black" d="M639.5,-347.562C639.5,-339.453 639.5,-327.014 639.5,-317.181"/>
<polygon fill="black" stroke="black" points="639.5,-312.03 641.75,-317.03 639.5,-314.53 639.5,-317.03 639.5,-317.03 639.5,-317.03 639.5,-314.53 637.25,-317.03 639.5,-312.03 639.5,-312.03"/>
</g>
<!-- r1 -->
<g id="node2" class="node"><title>r1</title>
<polygon fill="none" stroke="black" stroke-dasharray="5,2" points="1053,-366 1030,-366 1030,-348 1053,-348 1053,-366"/>
<text text-anchor="middle" x="1041.5" y="-354.8" font-family="serif" font-size="9.00">1</text>
</g>
<!-- v7 -->
<g id="v7_RulesKeywords" class="node"><title>v7</title>
<ellipse fill="none" stroke="black" cx="1041.5" cy="-69" rx="54" ry="11"/>
<text text-anchor="middle" x="1041.5" y="-66.8" font-family="sans-serif" font-size="9.00">RulesKeywords</text>
</g>
<!-- r1&#45;&gt;v7 -->
<g id="edge2" class="edge"><title>r1&#45;&gt;v7</title>
<path fill="none" stroke="black" d="M1041.5,-347.849C1041.5,-329.373 1041.5,-282.889 1041.5,-244 1041.5,-244 1041.5,-244 1041.5,-184 1041.5,-148.604 1041.5,-107.026 1041.5,-85.1783"/>
<polygon fill="black" stroke="black" points="1041.5,-80.0648 1043.75,-85.0648 1041.5,-82.5648 1041.5,-85.0648 1041.5,-85.0648 1041.5,-85.0648 1041.5,-82.5648 1039.25,-85.0648 1041.5,-80.0648 1041.5,-80.0648"/>
</g>
<!-- e1 -->
<g id="node3" class="node"><title>e1</title>
</g>
<!-- v4 -->
<g id="v4_Laptop" class="node"><title>v4</title>
<ellipse fill="none" stroke="black" cx="443.5" cy="-69" rx="29" ry="11"/>
<text text-anchor="middle" x="443.5" y="-66.8" font-family="sans-serif" font-size="9.00">Laptop</text>
</g>
<!-- e1&#45;&gt;v4 -->
<g id="edge24" class="edge"><title>e1&#45;&gt;v4</title>
<path fill="none" stroke="green" d="M443.5,-122.167C443.5,-113.586 443.5,-92.5957 443.5,-80.0117"/>
<polygon fill="green" stroke="green" points="447,-125.3 440,-125.3 440,-123.9 447,-123.9 447,-125.3"/>
<polyline fill="none" stroke="green" points="443.5,-126 443.5,-122.5 "/>
</g>
<!-- v1 -->
<g id="v1_Floor" class="node"><title>v1</title>
<ellipse fill="none" stroke="black" cx="514.5" cy="-243" rx="25" ry="11"/>
<text text-anchor="middle" x="514.5" y="-240.8" font-family="sans-serif" font-size="9.00">Floor</text>
</g>
<!-- v0&#45;&gt;v1 -->
<g id="edge3" class="edge"><title>v0&#45;&gt;v1</title>
<path fill="none" stroke="black" d="M620.515,-291.495C597.688,-281.268 559.487,-264.154 535.711,-253.503"/>
<polygon fill="black" stroke="black" points="530.868,-251.333 536.351,-251.324 533.149,-252.355 535.431,-253.377 535.431,-253.377 535.431,-253.377 533.149,-252.355 534.511,-255.43 530.868,-251.333 530.868,-251.333"/>
</g>
<!-- v6 -->
<g id="v6_InstallationBus" class="node"><title>v6</title>
<ellipse fill="none" stroke="black" cx="796.5" cy="-69" rx="61" ry="11"/>
<text text-anchor="middle" x="796.5" y="-66.8" font-family="sans-serif" font-size="9.00">InstallationBus</text>
</g>
<!-- v0&#45;&gt;v6 -->
<g id="edge4" class="edge"><title>v0&#45;&gt;v6</title>
<path fill="none" stroke="black" d="M646.246,-290.117C671.05,-253.781 757.272,-127.468 786.626,-84.4655"/>
<polygon fill="black" stroke="black" points="789.602,-80.105 788.642,-85.5032 788.193,-82.1698 786.783,-84.2347 786.783,-84.2347 786.783,-84.2347 788.193,-82.1698 784.925,-82.9661 789.602,-80.105 789.602,-80.105"/>
</g>
<!-- v2 -->
<g id="v2_Room" class="node"><title>v2</title>
<ellipse fill="none" stroke="black" cx="514.5" cy="-185" rx="21.5" ry="11"/>
<text text-anchor="middle" x="514.5" y="-182.8" font-family="sans-serif" font-size="9.00">Room</text>
</g>
<!-- v1&#45;&gt;v2 -->
<g id="edge5" class="edge"><title>v1&#45;&gt;v2</title>
<path fill="none" stroke="black" d="M514.5,-231.988C514.5,-223.494 514.5,-211.17 514.5,-201.417"/>
<polygon fill="black" stroke="black" points="514.5,-196.304 516.75,-201.304 514.5,-198.804 514.5,-201.304 514.5,-201.304 514.5,-201.304 514.5,-198.804 512.25,-201.304 514.5,-196.304 514.5,-196.304"/>
</g>
<!-- v11 -->
<g id="v11_Hallway" class="node"><title>v11</title>
<ellipse fill="none" stroke="black" cx="32.5" cy="-11" rx="32.5" ry="11"/>
<text text-anchor="middle" x="32.5" y="-8.8" font-family="sans-serif" font-size="9.00">Hallway</text>
</g>
<!-- v1&#45;&gt;v11 -->
<g id="edge6" class="edge"><title>v1&#45;&gt;v11</title>
<path fill="none" stroke="black" d="M492.86,-237.452C461.74,-230.531 402.883,-216.017 355.5,-196 232.542,-144.055 97.4303,-55.9413 50.063,-24.0082"/>
<polygon fill="black" stroke="black" points="45.7564,-21.0964 51.1587,-22.0331 47.8274,-22.4967 49.8985,-23.897 49.8985,-23.897 49.8985,-23.897 47.8274,-22.4967 48.6382,-25.761 45.7564,-21.0964 45.7564,-21.0964"/>
</g>
<!-- v15 -->
<g id="v15_Room" class="node"><title>v15</title>
<ellipse fill="none" stroke="black" cx="197.5" cy="-69" rx="21.5" ry="11"/>
<text text-anchor="middle" x="197.5" y="-66.8" font-family="sans-serif" font-size="9.00">Room</text>
</g>
<!-- v1&#45;&gt;v15 -->
<g id="edge7" class="edge"><title>v1&#45;&gt;v15</title>
<path fill="none" stroke="black" d="M496.769,-235.162C458.105,-219.955 363.803,-181.246 290.5,-138 261.279,-120.76 229.951,-96.5123 212.138,-82.112"/>
<polygon fill="black" stroke="black" points="207.909,-78.6734 213.208,-80.0825 209.849,-80.2508 211.789,-81.8282 211.789,-81.8282 211.789,-81.8282 209.849,-80.2508 210.369,-83.5738 207.909,-78.6734 207.909,-78.6734"/>
</g>
<!-- v19 -->
<g id="v19_Room" class="node"><title>v19</title>
<ellipse fill="none" stroke="black" cx="648.5" cy="-69" rx="21.5" ry="11"/>
<text text-anchor="middle" x="648.5" y="-66.8" font-family="sans-serif" font-size="9.00">Room</text>
</g>
<!-- v1&#45;&gt;v19 -->
<g id="edge8" class="edge"><title>v1&#45;&gt;v19</title>
<path fill="none" stroke="black" d="M522.088,-232.26C544.66,-203.287 611.438,-117.572 637.709,-83.8512"/>
<polygon fill="black" stroke="black" points="640.995,-79.6335 639.697,-84.9606 639.458,-81.6056 637.922,-83.5778 637.922,-83.5778 637.922,-83.5778 639.458,-81.6056 636.147,-82.195 640.995,-79.6335 640.995,-79.6335"/>
</g>
<!-- v3 -->
<g id="v3_Visitor" class="node"><title>v3</title>
<ellipse fill="none" stroke="black" cx="392.5" cy="-127" rx="32.5" ry="11"/>
<text text-anchor="middle" x="392.5" y="-124.8" font-family="sans-serif" font-size="9.00">Visitor</text>
</g>
<!-- v2&#45;&gt;v3 -->
<g id="edge9" class="edge"><title>v2&#45;&gt;v3</title>
<path fill="none" stroke="black" d="M499.049,-176.908C477.89,-167.195 439.743,-149.686 415.297,-138.464"/>
<polygon fill="black" stroke="black" points="410.6,-136.308 416.083,-136.349 412.872,-137.351 415.144,-138.394 415.144,-138.394 415.144,-138.394 412.872,-137.351 414.206,-140.439 410.6,-136.308 410.6,-136.308"/>
</g>
<!-- v5 -->
<g id="v5_SmartLight" class="node"><title>v5</title>
<ellipse fill="none" stroke="black" cx="540.5" cy="-11" rx="43" ry="11"/>
<text text-anchor="middle" x="540.5" y="-8.8" font-family="sans-serif" font-size="9.00">SmartLight</text>
</g>
<!-- v2&#45;&gt;v5 -->
<g id="edge10" class="edge"><title>v2&#45;&gt;v5</title>
<path fill="none" stroke="black" d="M516.01,-174.009C520.372,-145.153 533.009,-61.5561 538.216,-27.1091"/>
<polygon fill="black" stroke="black" points="538.986,-22.0185 540.463,-27.2986 538.612,-24.4904 538.238,-26.9623 538.238,-26.9623 538.238,-26.9623 538.612,-24.4904 536.013,-26.626 538.986,-22.0185 538.986,-22.0185"/>
</g>
<!-- v2&#45;&gt;v11 -->
<g id="edge23" class="edge"><title>v2&#45;&gt;v11</title>
<path fill="none" stroke="green" d="M494.642,-180.455C463.105,-174.385 400.069,-160.438 350.5,-138 291.091,-111.108 287.484,-83.584 227.5,-58 162.845,-30.424 141.867,-38.328 73.5,-22 68.3691,-20.7746 62.8811,-19.4475 57.6428,-18.1727"/>
</g>
<!-- v3&#45;&gt;v4 -->
<g id="edge11" class="edge"><title>v3&#45;&gt;v4</title>
<path fill="none" stroke="black" d="M401.384,-116.246C409.647,-107.172 422.035,-93.5697 431.238,-83.4636"/>
<polygon fill="black" stroke="black" points="434.718,-79.6427 433.015,-84.8544 433.035,-81.491 431.352,-83.3394 431.352,-83.3394 431.352,-83.3394 433.035,-81.491 429.688,-81.8244 434.718,-79.6427 434.718,-79.6427"/>
</g>
<!-- v10 -->
<g id="v10_Data" class="node"><title>v10</title>
<ellipse fill="none" stroke="black" cx="367.5" cy="-11" rx="21.5" ry="11"/>
<text text-anchor="middle" x="367.5" y="-8.8" font-family="sans-serif" font-size="9.00">Data</text>
</g>
<!-- v4&#45;&gt;v10 -->
<g id="edge12" class="edge"><title>v4&#45;&gt;v10</title>
<path fill="none" stroke="black" d="M431.289,-59.0026C418.208,-49.364 397.408,-34.0372 383.138,-23.5225"/>
<polygon fill="black" stroke="black" points="378.935,-20.4254 384.295,-21.5801 380.947,-21.9085 382.96,-23.3915 382.96,-23.3915 382.96,-23.3915 380.947,-21.9085 381.625,-25.2029 378.935,-20.4254 378.935,-20.4254"/>
</g>
<!-- v13 -->
<g id="v13_Software" class="node"><title>v13</title>
<ellipse fill="none" stroke="black" cx="443.5" cy="-11" rx="36" ry="11"/>
<text text-anchor="middle" x="443.5" y="-8.8" font-family="sans-serif" font-size="9.00">Software</text>
</g>
<!-- v4&#45;&gt;v13 -->
<g id="edge13" class="edge"><title>v4&#45;&gt;v13</title>
<path fill="none" stroke="black" d="M443.5,-57.9883C443.5,-49.4941 443.5,-37.1697 443.5,-27.4169"/>
<polygon fill="black" stroke="black" points="443.5,-22.3039 445.75,-27.3038 443.5,-24.8039 443.5,-27.3039 443.5,-27.3039 443.5,-27.3039 443.5,-24.8039 441.25,-27.3039 443.5,-22.3039 443.5,-22.3039"/>
</g>
<!-- v5&#45;&gt;v6 -->
<g id="edge25" class="edge"><title>v5&#45;&gt;v6</title>
<path fill="none" stroke="green" d="M571.243,-18.7251C618.749,-29.1169 709.783,-49.0306 760.364,-60.0953"/>
</g>
<!-- v9 -->
<g id="v9_Data" class="node"><title>v9</title>
<ellipse fill="none" stroke="black" cx="839.5" cy="-11" rx="21.5" ry="11"/>
<text text-anchor="middle" x="839.5" y="-8.8" font-family="sans-serif" font-size="9.00">Data</text>
</g>
<!-- v6&#45;&gt;v9 -->
<g id="edge14" class="edge"><title>v6&#45;&gt;v9</title>
<path fill="none" stroke="black" d="M804.188,-57.9883C811.121,-48.9593 821.377,-35.6025 829.052,-25.6069"/>
<polygon fill="black" stroke="black" points="832.166,-21.5512 830.905,-26.8873 830.643,-23.5341 829.121,-25.517 829.121,-25.517 829.121,-25.517 830.643,-23.5341 827.336,-24.1466 832.166,-21.5512 832.166,-21.5512"/>
</g>
<!-- v16 -->
<g id="v16_SmartLight" class="node"><title>v16</title>
<ellipse fill="none" stroke="black" cx="284.5" cy="-11" rx="43" ry="11"/>
<text text-anchor="middle" x="284.5" y="-8.8" font-family="sans-serif" font-size="9.00">SmartLight</text>
</g>
<!-- v6&#45;&gt;v16 -->
<g id="edge26" class="edge"><title>v6&#45;&gt;v16</title>
<path fill="none" stroke="green" d="M743.783,-63.333C640.301,-54.0721 413.934,-33.2937 336.5,-22 329.859,-21.0314 322.777,-19.8021 316.046,-18.5395"/>
</g>
<!-- v17 -->
<g id="v17_HVAC" class="node"><title>v17</title>
<ellipse fill="none" stroke="black" cx="104.5" cy="-11" rx="21.5" ry="11"/>
<text text-anchor="middle" x="104.5" y="-8.8" font-family="sans-serif" font-size="9.00">HVAC</text>
</g>
<!-- v6&#45;&gt;v17 -->
<g id="edge27" class="edge"><title>v6&#45;&gt;v17</title>
<path fill="none" stroke="green" d="M743.944,-63.337C723.519,-61.5796 699.924,-59.6165 678.5,-58 436.88,-39.7687 372.265,-68.693 134.5,-22 129.975,-21.1113 125.189,-19.7292 120.801,-18.2731"/>
</g>
<!-- v18 -->
<g id="v18_FireAlarm" class="node"><title>v18</title>
<ellipse fill="none" stroke="black" cx="183.5" cy="-11" rx="39.5" ry="11"/>
<text text-anchor="middle" x="183.5" y="-8.8" font-family="sans-serif" font-size="9.00">FireAlarm</text>
</g>
<!-- v6&#45;&gt;v18 -->
<g id="edge28" class="edge"><title>v6&#45;&gt;v18</title>
<path fill="none" stroke="green" d="M743.638,-63.4747C723.279,-61.7439 699.809,-59.7629 678.5,-58 480.31,-41.6035 429.395,-49.9336 232.5,-22 225.967,-21.0731 218.994,-19.8153 212.419,-18.5046"/>
</g>
<!-- v20 -->
<g id="v20_SmartLight" class="node"><title>v20</title>
<ellipse fill="none" stroke="black" cx="756.5" cy="-11" rx="43" ry="11"/>
<text text-anchor="middle" x="756.5" y="-8.8" font-family="sans-serif" font-size="9.00">SmartLight</text>
</g>
<!-- v6&#45;&gt;v20 -->
<g id="edge29" class="edge"><title>v6&#45;&gt;v20</title>
<path fill="none" stroke="green" d="M789.349,-57.9883C782.068,-47.7952 770.848,-32.0867 763.589,-21.925"/>
</g>
<!-- v21 -->
<g id="v21_Workstation" class="node"><title>v21</title>
<ellipse fill="none" stroke="black" cx="648.5" cy="-11" rx="47" ry="11"/>
<text text-anchor="middle" x="648.5" y="-8.8" font-family="sans-serif" font-size="9.00">Workstation</text>
</g>
<!-- v6&#45;&gt;v21 -->
<g id="edge30" class="edge"><title>v6&#45;&gt;v21</title>
<path fill="none" stroke="green" d="M772.392,-58.878C744.543,-48.3405 699.047,-31.1259 671.622,-20.749"/>
</g>
<!-- v8 -->
<g id="v8_ConnectDevice" class="node"><title>v8</title>
<ellipse fill="none" stroke="black" cx="933.5" cy="-11" rx="54" ry="11"/>
<text text-anchor="middle" x="933.5" y="-8.8" font-family="sans-serif" font-size="9.00">ConnectDevice</text>
</g>
<!-- v7&#45;&gt;v8 -->
<g id="edge15" class="edge"><title>v7&#45;&gt;v8</title>
<path fill="none" stroke="black" d="M1023.18,-58.5004C1004.79,-48.9669 976.419,-34.2544 956.523,-23.9378"/>
<polygon fill="black" stroke="black" points="951.911,-21.5462 957.385,-21.8504 954.13,-22.6971 956.349,-23.8479 956.349,-23.8479 956.349,-23.8479 954.13,-22.6971 955.314,-25.8453 951.911,-21.5462 951.911,-21.5462"/>
</g>
<!-- v12 -->
<g id="v12_ExitRoom" class="node"><title>v12</title>
<ellipse fill="none" stroke="black" cx="1041.5" cy="-11" rx="36" ry="11"/>
<text text-anchor="middle" x="1041.5" y="-8.8" font-family="sans-serif" font-size="9.00">ExitRoom</text>
</g>
<!-- v7&#45;&gt;v12 -->
<g id="edge16" class="edge"><title>v7&#45;&gt;v12</title>
<path fill="none" stroke="black" d="M1041.5,-57.9883C1041.5,-49.4941 1041.5,-37.1697 1041.5,-27.4169"/>
<polygon fill="black" stroke="black" points="1041.5,-22.3039 1043.75,-27.3038 1041.5,-24.8039 1041.5,-27.3039 1041.5,-27.3039 1041.5,-27.3039 1041.5,-24.8039 1039.25,-27.3039 1041.5,-22.3039 1041.5,-22.3039"/>
</g>
<!-- v14 -->
<g id="v14_SendSoftware" class="node"><title>v14</title>
<ellipse fill="none" stroke="black" cx="1146.5" cy="-11" rx="50.5" ry="11"/>
<text text-anchor="middle" x="1146.5" y="-8.8" font-family="sans-serif" font-size="9.00">SendSoftware</text>
</g>
<!-- v7&#45;&gt;v14 -->
<g id="edge17" class="edge"><title>v7&#45;&gt;v14</title>
<path fill="none" stroke="black" d="M1059.31,-58.5004C1077.22,-48.9496 1104.87,-34.201 1124.22,-23.8816"/>
<polygon fill="black" stroke="black" points="1128.95,-21.3593 1125.6,-25.6976 1126.75,-22.5358 1124.54,-23.7123 1124.54,-23.7123 1124.54,-23.7123 1126.75,-22.5358 1123.48,-21.727 1128.95,-21.3593 1128.95,-21.3593"/>
</g>
<!-- v11&#45;&gt;v15 -->
<g id="edge31" class="edge"><title>v11&#45;&gt;v15</title>
<path fill="none" stroke="green" d="M54.1093,-19.3341C87.3245,-30.6071 150.245,-51.9621 180.464,-62.2179"/>
</g>
<!-- v11&#45;&gt;v19 -->
<g id="edge32" class="edge"><title>v11&#45;&gt;v19</title>
<path fill="none" stroke="green" d="M56.6512,-18.5673C62.1555,-19.8747 68.0024,-21.1154 73.5,-22 183.497,-39.6983 536.646,-61.3806 627.189,-66.7522"/>
</g>
<!-- v15&#45;&gt;v16 -->
<g id="edge18" class="edge"><title>v15&#45;&gt;v16</title>
<path fill="none" stroke="black" d="M209.965,-59.9766C224.395,-50.6881 248.333,-35.28 265.18,-24.4362"/>
<polygon fill="black" stroke="black" points="269.729,-21.5076 266.743,-26.1058 267.627,-22.8607 265.525,-24.2138 265.525,-24.2138 265.525,-24.2138 267.627,-22.8607 264.307,-22.3219 269.729,-21.5076 269.729,-21.5076"/>
</g>
<!-- v15&#45;&gt;v17 -->
<g id="edge19" class="edge"><title>v15&#45;&gt;v17</title>
<path fill="none" stroke="black" d="M184.175,-59.9766C167.785,-50.1069 139.919,-33.3276 121.866,-22.4567"/>
<polygon fill="black" stroke="black" points="117.5,-19.828 122.944,-20.4798 119.642,-21.1177 121.783,-22.4073 121.783,-22.4073 121.783,-22.4073 119.642,-21.1177 120.623,-24.3348 117.5,-19.828 117.5,-19.828"/>
</g>
<!-- v15&#45;&gt;v18 -->
<g id="edge20" class="edge"><title>v15&#45;&gt;v18</title>
<path fill="none" stroke="black" d="M194.997,-57.9883C192.874,-49.4941 189.792,-37.1697 187.354,-27.4169"/>
<polygon fill="black" stroke="black" points="186.076,-22.3039 189.472,-26.6089 186.682,-24.7292 187.289,-27.1546 187.289,-27.1546 187.289,-27.1546 186.682,-24.7292 185.106,-27.7003 186.076,-22.3039 186.076,-22.3039"/>
</g>
<!-- v19&#45;&gt;v20 -->
<g id="edge21" class="edge"><title>v19&#45;&gt;v20</title>
<path fill="none" stroke="black" d="M662.619,-60.679C680.799,-51.2525 712.604,-34.761 734.101,-23.6145"/>
<polygon fill="black" stroke="black" points="738.791,-21.1826 735.388,-25.4817 736.571,-22.3334 734.352,-23.4842 734.352,-23.4842 734.352,-23.4842 736.571,-22.3334 733.316,-21.4868 738.791,-21.1826 738.791,-21.1826"/>
</g>
<!-- v19&#45;&gt;v21 -->
<g id="edge22" class="edge"><title>v19&#45;&gt;v21</title>
<path fill="none" stroke="black" d="M648.5,-57.9883C648.5,-49.4941 648.5,-37.1697 648.5,-27.4169"/>
<polygon fill="black" stroke="black" points="648.5,-22.3039 650.75,-27.3038 648.5,-24.8039 648.5,-27.3039 648.5,-27.3039 648.5,-27.3039 648.5,-24.8039 646.25,-27.3039 648.5,-22.3039 648.5,-22.3039"/>
</g>
</g>
</svg>
