<?xml version="1.0" encoding="UTF-8" standalone="no"?>
<?xml-stylesheet href="style.css" type="text/css"?>
<!DOCTYPE svg PUBLIC "-//W3C//DTD SVG 1.1//EN"
 "http://www.w3.org/Graphics/SVG/1.1/DTD/svg11.dtd">
<!-- Generated by graphviz version 2.38.0 (20140413.2041)
 -->
<!-- Title: 25.svg Pages: 1 -->
<svg width="1142pt" height="374pt"
 viewBox="0.00 0.00 1142.00 374.00" xmlns="http://www.w3.org/2000/svg" xmlns:xlink="http://www.w3.org/1999/xlink">
<g id="graph0" class="graph" transform="scale(1 1) rotate(0) translate(4 370)">
<title>25.svg</title>
<polygon fill="white" stroke="none" points="-4,4 -4,-370 1138,-370 1138,4 -4,4"/>
<!-- r0 -->
<g id="node1" class="node"><title>r0</title>
<polygon fill="none" stroke="black" stroke-dasharray="5,2" points="641.5,-366 618.5,-366 618.5,-348 641.5,-348 641.5,-366"/>
<text text-anchor="middle" x="630" y="-354.8" font-family="serif" font-size="9.00">0</text>
</g>
<!-- v0 -->
<g id="v0_Building" class="node"><title>v0</title>
<ellipse fill="none" stroke="black" cx="630" cy="-301" rx="36" ry="11"/>
<text text-anchor="middle" x="630" y="-298.8" font-family="sans-serif" font-size="9.00">Building</text>
</g>
<!-- r0&#45;&gt;v0 -->
<g id="edge1" class="edge"><title>r0&#45;&gt;v0</title>
<path fill="none" stroke="black" d="M630,-347.562C630,-339.453 630,-327.014 630,-317.181"/>
<polygon fill="black" stroke="black" points="630,-312.03 632.25,-317.03 630,-314.53 630,-317.03 630,-317.03 630,-317.03 630,-314.53 627.75,-317.03 630,-312.03 630,-312.03"/>
</g>
<!-- r1 -->
<g id="node2" class="node"><title>r1</title>
<polygon fill="none" stroke="black" stroke-dasharray="5,2" points="1049.5,-366 1026.5,-366 1026.5,-348 1049.5,-348 1049.5,-366"/>
<text text-anchor="middle" x="1038" y="-354.8" font-family="serif" font-size="9.00">1</text>
</g>
<!-- v9 -->
<g id="v9_RulesKeywords" class="node"><title>v9</title>
<ellipse fill="none" stroke="black" cx="1038" cy="-69" rx="54" ry="11"/>
<text text-anchor="middle" x="1038" y="-66.8" font-family="sans-serif" font-size="9.00">RulesKeywords</text>
</g>
<!-- r1&#45;&gt;v9 -->
<g id="edge2" class="edge"><title>r1&#45;&gt;v9</title>
<path fill="none" stroke="black" d="M1038,-347.849C1038,-329.373 1038,-282.889 1038,-244 1038,-244 1038,-244 1038,-184 1038,-148.604 1038,-107.026 1038,-85.1783"/>
<polygon fill="black" stroke="black" points="1038,-80.0648 1040.25,-85.0648 1038,-82.5648 1038,-85.0648 1038,-85.0648 1038,-85.0648 1038,-82.5648 1035.75,-85.0648 1038,-80.0648 1038,-80.0648"/>
</g>
<!-- e7 -->
<g id="node3" class="node"><title>e7</title>
</g>
<!-- v8 -->
<g id="v8_SmartLight" class="node"><title>v8</title>
<ellipse fill="none" stroke="black" cx="423" cy="-11" rx="43" ry="11"/>
<text text-anchor="middle" x="423" y="-8.8" font-family="sans-serif" font-size="9.00">SmartLight</text>
</g>
<!-- e7&#45;&gt;v8 -->
<g id="edge30" class="edge"><title>e7&#45;&gt;v8</title>
<path fill="none" stroke="green" d="M423,-64.1674C423,-55.5862 423,-34.5957 423,-22.0117"/>
<polygon fill="green" stroke="green" points="426.5,-67.3001 419.5,-67.2999 419.5,-65.8999 426.5,-65.9001 426.5,-67.3001"/>
<polyline fill="none" stroke="green" points="423,-68 423,-64.5 "/>
</g>
<!-- v1 -->
<g id="v1_Floor" class="node"><title>v1</title>
<ellipse fill="none" stroke="black" cx="438" cy="-243" rx="25" ry="11"/>
<text text-anchor="middle" x="438" y="-240.8" font-family="sans-serif" font-size="9.00">Floor</text>
</g>
<!-- v0&#45;&gt;v1 -->
<g id="edge3" class="edge"><title>v0&#45;&gt;v1</title>
<path fill="none" stroke="black" d="M605.292,-292.794C568.61,-282.094 500.11,-262.116 463.165,-251.34"/>
<polygon fill="black" stroke="black" points="457.951,-249.819 463.381,-249.059 460.351,-250.519 462.751,-251.219 462.751,-251.219 462.751,-251.219 460.351,-250.519 462.121,-253.379 457.951,-249.819 457.951,-249.819"/>
</g>
<!-- v2 -->
<g id="v2_InstallationBus" class="node"><title>v2</title>
<ellipse fill="none" stroke="black" cx="815" cy="-69" rx="61" ry="11"/>
<text text-anchor="middle" x="815" y="-66.8" font-family="sans-serif" font-size="9.00">InstallationBus</text>
</g>
<!-- v0&#45;&gt;v2 -->
<g id="edge4" class="edge"><title>v0&#45;&gt;v2</title>
<path fill="none" stroke="black" d="M637.949,-290.117C667.236,-253.707 769.188,-126.956 803.574,-84.2053"/>
<polygon fill="black" stroke="black" points="806.872,-80.105 805.491,-85.4113 805.305,-82.0531 803.738,-84.0011 803.738,-84.0011 803.738,-84.0011 805.305,-82.0531 801.985,-82.5909 806.872,-80.105 806.872,-80.105"/>
</g>
<!-- v4 -->
<g id="v4_Room" class="node"><title>v4</title>
<ellipse fill="none" stroke="black" cx="438" cy="-185" rx="21.5" ry="11"/>
<text text-anchor="middle" x="438" y="-182.8" font-family="sans-serif" font-size="9.00">Room</text>
</g>
<!-- v1&#45;&gt;v4 -->
<g id="edge5" class="edge"><title>v1&#45;&gt;v4</title>
<path fill="none" stroke="black" d="M438,-231.988C438,-223.494 438,-211.17 438,-201.417"/>
<polygon fill="black" stroke="black" points="438,-196.304 440.25,-201.304 438,-198.804 438,-201.304 438,-201.304 438,-201.304 438,-198.804 435.75,-201.304 438,-196.304 438,-196.304"/>
</g>
<!-- v10 -->
<g id="v10_Room" class="node"><title>v10</title>
<ellipse fill="none" stroke="black" cx="171" cy="-127" rx="21.5" ry="11"/>
<text text-anchor="middle" x="171" y="-124.8" font-family="sans-serif" font-size="9.00">Room</text>
</g>
<!-- v1&#45;&gt;v10 -->
<g id="edge6" class="edge"><title>v1&#45;&gt;v10</title>
<path fill="none" stroke="black" d="M418.143,-236.153C391.689,-228.145 343.618,-212.828 304,-196 261.755,-178.057 214.353,-152.422 189.116,-138.307"/>
<polygon fill="black" stroke="black" points="184.668,-135.81 190.13,-136.296 186.848,-137.034 189.028,-138.258 189.028,-138.258 189.028,-138.258 186.848,-137.034 187.927,-140.22 184.668,-135.81 184.668,-135.81"/>
</g>
<!-- v15 -->
<g id="v15_Hallway" class="node"><title>v15</title>
<ellipse fill="none" stroke="black" cx="324" cy="-11" rx="32.5" ry="11"/>
<text text-anchor="middle" x="324" y="-8.8" font-family="sans-serif" font-size="9.00">Hallway</text>
</g>
<!-- v1&#45;&gt;v15 -->
<g id="edge7" class="edge"><title>v1&#45;&gt;v15</title>
<path fill="none" stroke="black" d="M430.852,-232.434C424.225,-223.334 414.313,-209.123 407,-196 373.321,-135.56 342.222,-58.9022 329.756,-26.9927"/>
<polygon fill="black" stroke="black" points="327.918,-22.2649 331.827,-26.1096 328.824,-24.595 329.73,-26.925 329.73,-26.925 329.73,-26.925 328.824,-24.595 327.633,-27.7405 327.918,-22.2649 327.918,-22.2649"/>
</g>
<!-- v19 -->
<g id="v19_Room" class="node"><title>v19</title>
<ellipse fill="none" stroke="black" cx="679" cy="-69" rx="21.5" ry="11"/>
<text text-anchor="middle" x="679" y="-66.8" font-family="sans-serif" font-size="9.00">Room</text>
</g>
<!-- v1&#45;&gt;v19 -->
<g id="edge8" class="edge"><title>v1&#45;&gt;v19</title>
<path fill="none" stroke="black" d="M450.283,-233.234C490.518,-204.518 618.343,-113.29 663.232,-81.2537"/>
<polygon fill="black" stroke="black" points="667.311,-78.3422 664.548,-83.0783 665.276,-79.7945 663.241,-81.2469 663.241,-81.2469 663.241,-81.2469 665.276,-79.7945 661.934,-79.4154 667.311,-78.3422 667.311,-78.3422"/>
</g>
<!-- v3 -->
<g id="v3_Data" class="node"><title>v3</title>
<ellipse fill="none" stroke="black" cx="874" cy="-11" rx="21.5" ry="11"/>
<text text-anchor="middle" x="874" y="-8.8" font-family="sans-serif" font-size="9.00">Data</text>
</g>
<!-- v2&#45;&gt;v3 -->
<g id="edge9" class="edge"><title>v2&#45;&gt;v3</title>
<path fill="none" stroke="black" d="M825.548,-57.9883C835.349,-48.686 849.989,-34.7899 860.611,-24.7086"/>
<polygon fill="black" stroke="black" points="864.325,-21.1826 862.248,-26.2567 862.512,-22.9037 860.699,-24.6248 860.699,-24.6248 860.699,-24.6248 862.512,-22.9037 859.15,-22.9928 864.325,-21.1826 864.325,-21.1826"/>
</g>
<!-- v6 -->
<g id="v6_Laptop" class="node"><title>v6</title>
<ellipse fill="none" stroke="black" cx="506" cy="-69" rx="29" ry="11"/>
<text text-anchor="middle" x="506" y="-66.8" font-family="sans-serif" font-size="9.00">Laptop</text>
</g>
<!-- v2&#45;&gt;v6 -->
<g id="edge23" class="edge"><title>v2&#45;&gt;v6</title>
<path fill="none" stroke="green" d="M785.121,-78.6979C762.133,-85.628 729.424,-94.3472 700,-98 637.479,-105.762 564.007,-87.1606 528.063,-76.2457"/>
</g>
<!-- v12 -->
<g id="v12_HVAC" class="node"><title>v12</title>
<ellipse fill="none" stroke="black" cx="63" cy="-69" rx="21.5" ry="11"/>
<text text-anchor="middle" x="63" y="-66.8" font-family="sans-serif" font-size="9.00">HVAC</text>
</g>
<!-- v2&#45;&gt;v12 -->
<g id="edge24" class="edge"><title>v2&#45;&gt;v12</title>
<path fill="none" stroke="green" d="M785.121,-78.6979C762.133,-85.628 729.424,-94.3472 700,-98 458.854,-127.937 162.931,-85.2167 83.4488,-72.4262"/>
</g>
<!-- v17 -->
<g id="v17_SmartLight" class="node"><title>v17</title>
<ellipse fill="none" stroke="black" cx="133" cy="-11" rx="43" ry="11"/>
<text text-anchor="middle" x="133" y="-8.8" font-family="sans-serif" font-size="9.00">SmartLight</text>
</g>
<!-- v2&#45;&gt;v17 -->
<g id="edge25" class="edge"><title>v2&#45;&gt;v17</title>
<path fill="none" stroke="green" d="M764.072,-62.9304C746.619,-61.2635 726.963,-59.4641 709,-58 476.334,-39.0359 416.489,-52.0975 185,-22 178.254,-21.1229 171.063,-19.9173 164.248,-18.6464"/>
</g>
<!-- v18 -->
<g id="v18_FireAlarm" class="node"><title>v18</title>
<ellipse fill="none" stroke="black" cx="234" cy="-11" rx="39.5" ry="11"/>
<text text-anchor="middle" x="234" y="-8.8" font-family="sans-serif" font-size="9.00">FireAlarm</text>
</g>
<!-- v2&#45;&gt;v18 -->
<g id="edge26" class="edge"><title>v2&#45;&gt;v18</title>
<path fill="none" stroke="green" d="M763.521,-63.0397C746.201,-61.3984 726.767,-59.587 709,-58 519.304,-41.056 470.459,-49.4722 282,-22 275.767,-21.0914 269.126,-19.8725 262.835,-18.5986"/>
</g>
<!-- v20 -->
<g id="v20_SmartLight" class="node"><title>v20</title>
<ellipse fill="none" stroke="black" cx="679" cy="-11" rx="43" ry="11"/>
<text text-anchor="middle" x="679" y="-8.8" font-family="sans-serif" font-size="9.00">SmartLight</text>
</g>
<!-- v2&#45;&gt;v20 -->
<g id="edge27" class="edge"><title>v2&#45;&gt;v20</title>
<path fill="none" stroke="green" d="M792.542,-58.7527C766.891,-48.1904 725.238,-31.0392 700.147,-20.7077"/>
</g>
<!-- v21 -->
<g id="v21_Workstation" class="node"><title>v21</title>
<ellipse fill="none" stroke="black" cx="787" cy="-11" rx="47" ry="11"/>
<text text-anchor="middle" x="787" y="-8.8" font-family="sans-serif" font-size="9.00">Workstation</text>
</g>
<!-- v2&#45;&gt;v21 -->
<g id="edge28" class="edge"><title>v2&#45;&gt;v21</title>
<path fill="none" stroke="green" d="M809.994,-57.9883C804.961,-47.9211 797.237,-32.4737 792.152,-22.3039"/>
</g>
<!-- v5 -->
<g id="v5_Visitor" class="node"><title>v5</title>
<ellipse fill="none" stroke="black" cx="481" cy="-127" rx="32.5" ry="11"/>
<text text-anchor="middle" x="481" y="-124.8" font-family="sans-serif" font-size="9.00">Visitor</text>
</g>
<!-- v4&#45;&gt;v5 -->
<g id="edge10" class="edge"><title>v4&#45;&gt;v5</title>
<path fill="none" stroke="black" d="M445.294,-174.5C452.171,-165.544 462.558,-152.018 470.358,-141.859"/>
<polygon fill="black" stroke="black" points="473.525,-137.734 472.265,-143.071 472.003,-139.717 470.48,-141.7 470.48,-141.7 470.48,-141.7 472.003,-139.717 468.696,-140.33 473.525,-137.734 473.525,-137.734"/>
</g>
<!-- v4&#45;&gt;v8 -->
<g id="edge11" class="edge"><title>v4&#45;&gt;v8</title>
<path fill="none" stroke="black" d="M433.881,-173.968C425.641,-152.749 408.307,-101.682 413,-58 414.124,-47.5392 416.646,-35.9669 418.876,-27.0462"/>
<polygon fill="black" stroke="black" points="420.143,-22.1288 421.075,-27.532 419.519,-24.5498 418.896,-26.9708 418.896,-26.9708 418.896,-26.9708 419.519,-24.5498 416.717,-26.4095 420.143,-22.1288 420.143,-22.1288"/>
</g>
<!-- v4&#45;&gt;v15 -->
<g id="edge29" class="edge"><title>v4&#45;&gt;v15</title>
<path fill="none" stroke="green" d="M431.544,-174.26C411.573,-144.128 350.926,-52.6257 330.669,-22.0619"/>
</g>
<!-- v5&#45;&gt;v6 -->
<g id="edge12" class="edge"><title>v5&#45;&gt;v6</title>
<path fill="none" stroke="black" d="M485.469,-115.988C489.38,-107.229 495.109,-94.3956 499.522,-84.5103"/>
<polygon fill="black" stroke="black" points="501.569,-79.925 501.585,-85.4079 500.55,-82.2079 499.531,-84.4907 499.531,-84.4907 499.531,-84.4907 500.55,-82.2079 497.476,-83.5735 501.569,-79.925 501.569,-79.925"/>
</g>
<!-- v7 -->
<g id="v7_Data" class="node"><title>v7</title>
<ellipse fill="none" stroke="black" cx="506" cy="-11" rx="21.5" ry="11"/>
<text text-anchor="middle" x="506" y="-8.8" font-family="sans-serif" font-size="9.00">Data</text>
</g>
<!-- v6&#45;&gt;v7 -->
<g id="edge13" class="edge"><title>v6&#45;&gt;v7</title>
<path fill="none" stroke="black" d="M506,-57.9883C506,-49.4941 506,-37.1697 506,-27.4169"/>
<polygon fill="black" stroke="black" points="506,-22.3039 508.25,-27.3038 506,-24.8039 506,-27.3039 506,-27.3039 506,-27.3039 506,-24.8039 503.75,-27.3039 506,-22.3039 506,-22.3039"/>
</g>
<!-- v11 -->
<g id="v11_Software" class="node"><title>v11</title>
<ellipse fill="none" stroke="black" cx="582" cy="-11" rx="36" ry="11"/>
<text text-anchor="middle" x="582" y="-8.8" font-family="sans-serif" font-size="9.00">Software</text>
</g>
<!-- v6&#45;&gt;v11 -->
<g id="edge14" class="edge"><title>v6&#45;&gt;v11</title>
<path fill="none" stroke="black" d="M518.211,-59.0026C530.911,-49.6442 550.89,-34.9234 565.102,-24.4514"/>
<polygon fill="black" stroke="black" points="569.313,-21.3485 566.622,-26.1259 567.3,-22.8315 565.287,-24.3145 565.287,-24.3145 565.287,-24.3145 567.3,-22.8315 563.953,-22.5032 569.313,-21.3485 569.313,-21.3485"/>
</g>
<!-- v14 -->
<g id="v14_DisconnectDevice" class="node"><title>v14</title>
<ellipse fill="none" stroke="black" cx="979" cy="-11" rx="65" ry="11"/>
<text text-anchor="middle" x="979" y="-8.8" font-family="sans-serif" font-size="9.00">DisconnectDevice</text>
</g>
<!-- v9&#45;&gt;v14 -->
<g id="edge15" class="edge"><title>v9&#45;&gt;v14</title>
<path fill="none" stroke="black" d="M1027.45,-57.9883C1017.89,-48.9101 1003.71,-35.4569 993.164,-25.4439"/>
<polygon fill="black" stroke="black" points="989.457,-21.925 994.632,-23.7352 991.27,-23.6461 993.083,-25.3672 993.083,-25.3672 993.083,-25.3672 991.27,-23.6461 991.534,-26.9991 989.457,-21.925 989.457,-21.925"/>
</g>
<!-- v16 -->
<g id="v16_ExitRoom" class="node"><title>v16</title>
<ellipse fill="none" stroke="black" cx="1098" cy="-11" rx="36" ry="11"/>
<text text-anchor="middle" x="1098" y="-8.8" font-family="sans-serif" font-size="9.00">ExitRoom</text>
</g>
<!-- v9&#45;&gt;v16 -->
<g id="edge16" class="edge"><title>v9&#45;&gt;v16</title>
<path fill="none" stroke="black" d="M1048.73,-57.9883C1058.57,-48.798 1073.22,-35.1241 1083.99,-25.0746"/>
<polygon fill="black" stroke="black" points="1087.77,-21.5512 1085.65,-26.6077 1085.94,-23.257 1084.11,-24.9628 1084.11,-24.9628 1084.11,-24.9628 1085.94,-23.257 1082.58,-23.3179 1087.77,-21.5512 1087.77,-21.5512"/>
</g>
<!-- v10&#45;&gt;v12 -->
<g id="edge17" class="edge"><title>v10&#45;&gt;v12</title>
<path fill="none" stroke="black" d="M156.881,-118.679C137.638,-108.701 103.13,-90.808 81.7387,-79.7163"/>
<polygon fill="black" stroke="black" points="77.1226,-77.3228 82.5971,-77.627 79.342,-78.4736 81.5614,-79.6245 81.5614,-79.6245 81.5614,-79.6245 79.342,-78.4736 80.5256,-81.6219 77.1226,-77.3228 77.1226,-77.3228"/>
</g>
<!-- v10&#45;&gt;v15 -->
<g id="edge31" class="edge"><title>v10&#45;&gt;v15</title>
<path fill="none" stroke="green" d="M182.5,-117.431C210.576,-96.5118 282.445,-42.9623 311.516,-21.3019"/>
</g>
<!-- v10&#45;&gt;v17 -->
<g id="edge18" class="edge"><title>v10&#45;&gt;v17</title>
<path fill="none" stroke="black" d="M167.628,-115.883C160.941,-95.8216 145.966,-50.899 138.08,-27.2409"/>
<polygon fill="black" stroke="black" points="136.419,-22.2579 140.135,-26.2898 137.21,-24.6297 138.001,-27.0014 138.001,-27.0014 138.001,-27.0014 137.21,-24.6297 135.866,-27.7129 136.419,-22.2579 136.419,-22.2579"/>
</g>
<!-- v10&#45;&gt;v18 -->
<g id="edge19" class="edge"><title>v10&#45;&gt;v18</title>
<path fill="none" stroke="black" d="M176.371,-116.28C187.474,-96.1897 213,-49.9992 226.031,-26.4199"/>
<polygon fill="black" stroke="black" points="228.463,-22.0199 228.013,-27.4845 227.253,-24.2081 226.044,-26.3962 226.044,-26.3962 226.044,-26.3962 227.253,-24.2081 224.075,-25.3078 228.463,-22.0199 228.463,-22.0199"/>
</g>
<!-- v13 -->
<g id="v13_Software" class="node"><title>v13</title>
<ellipse fill="none" stroke="black" cx="36" cy="-11" rx="36" ry="11"/>
<text text-anchor="middle" x="36" y="-8.8" font-family="sans-serif" font-size="9.00">Software</text>
</g>
<!-- v12&#45;&gt;v13 -->
<g id="edge20" class="edge"><title>v12&#45;&gt;v13</title>
<path fill="none" stroke="black" d="M58.297,-58.2455C54.0901,-49.5202 47.8646,-36.6082 43.0602,-26.6435"/>
<polygon fill="black" stroke="black" points="40.831,-22.0198 45.0292,-25.5464 41.9167,-24.2717 43.0025,-26.5236 43.0025,-26.5236 43.0025,-26.5236 41.9167,-24.2717 40.9758,-27.5008 40.831,-22.0198 40.831,-22.0198"/>
</g>
<!-- v15&#45;&gt;v19 -->
<g id="edge32" class="edge"><title>v15&#45;&gt;v19</title>
<path fill="none" stroke="green" d="M349.801,-17.7874C356.674,-19.2473 364.104,-20.7527 371,-22 478.734,-41.4872 608.747,-58.9275 658.383,-65.3659"/>
</g>
<!-- v19&#45;&gt;v20 -->
<g id="edge21" class="edge"><title>v19&#45;&gt;v20</title>
<path fill="none" stroke="black" d="M679,-57.9883C679,-49.4941 679,-37.1697 679,-27.4169"/>
<polygon fill="black" stroke="black" points="679,-22.3039 681.25,-27.3038 679,-24.8039 679,-27.3039 679,-27.3039 679,-27.3039 679,-24.8039 676.75,-27.3039 679,-22.3039 679,-22.3039"/>
</g>
<!-- v19&#45;&gt;v21 -->
<g id="edge22" class="edge"><title>v19&#45;&gt;v21</title>
<path fill="none" stroke="black" d="M693.119,-60.679C711.192,-51.3076 742.732,-34.9536 764.222,-23.8106"/>
<polygon fill="black" stroke="black" points="768.916,-21.3771 765.513,-25.6762 766.696,-22.5279 764.477,-23.6787 764.477,-23.6787 764.477,-23.6787 766.696,-22.5279 763.441,-21.6813 768.916,-21.3771 768.916,-21.3771"/>
</g>
</g>
</svg>
