<?xml version="1.0" encoding="UTF-8" standalone="no"?>
<?xml-stylesheet href="style.css" type="text/css"?>
<!DOCTYPE svg PUBLIC "-//W3C//DTD SVG 1.1//EN"
 "http://www.w3.org/Graphics/SVG/1.1/DTD/svg11.dtd">
<!-- Generated by graphviz version 2.38.0 (20140413.2041)
 -->
<!-- Title: 27.svg Pages: 1 -->
<svg width="1288pt" height="374pt"
 viewBox="0.00 0.00 1287.50 374.00" xmlns="http://www.w3.org/2000/svg" xmlns:xlink="http://www.w3.org/1999/xlink">
<g id="graph0" class="graph" transform="scale(1 1) rotate(0) translate(4 370)">
<title>27.svg</title>
<polygon fill="white" stroke="none" points="-4,4 -4,-370 1283.5,-370 1283.5,4 -4,4"/>
<!-- r0 -->
<g id="node1" class="node"><title>r0</title>
<polygon fill="none" stroke="black" stroke-dasharray="5,2" points="616,-366 593,-366 593,-348 616,-348 616,-366"/>
<text text-anchor="middle" x="604.5" y="-354.8" font-family="serif" font-size="9.00">0</text>
</g>
<!-- v0 -->
<g id="v0_Building" class="node"><title>v0</title>
<ellipse fill="none" stroke="black" cx="604.5" cy="-301" rx="36" ry="11"/>
<text text-anchor="middle" x="604.5" y="-298.8" font-family="sans-serif" font-size="9.00">Building</text>
</g>
<!-- r0&#45;&gt;v0 -->
<g id="edge1" class="edge"><title>r0&#45;&gt;v0</title>
<path fill="none" stroke="black" d="M604.5,-347.562C604.5,-339.453 604.5,-327.014 604.5,-317.181"/>
<polygon fill="black" stroke="black" points="604.5,-312.03 606.75,-317.03 604.5,-314.53 604.5,-317.03 604.5,-317.03 604.5,-317.03 604.5,-314.53 602.25,-317.03 604.5,-312.03 604.5,-312.03"/>
</g>
<!-- r1 -->
<g id="node2" class="node"><title>r1</title>
<polygon fill="none" stroke="black" stroke-dasharray="5,2" points="1066,-366 1043,-366 1043,-348 1066,-348 1066,-366"/>
<text text-anchor="middle" x="1054.5" y="-354.8" font-family="serif" font-size="9.00">1</text>
</g>
<!-- v6 -->
<g id="v6_RulesKeywords" class="node"><title>v6</title>
<ellipse fill="none" stroke="black" cx="1054.5" cy="-69" rx="54" ry="11"/>
<text text-anchor="middle" x="1054.5" y="-66.8" font-family="sans-serif" font-size="9.00">RulesKeywords</text>
</g>
<!-- r1&#45;&gt;v6 -->
<g id="edge2" class="edge"><title>r1&#45;&gt;v6</title>
<path fill="none" stroke="black" d="M1054.5,-347.849C1054.5,-329.373 1054.5,-282.889 1054.5,-244 1054.5,-244 1054.5,-244 1054.5,-184 1054.5,-148.604 1054.5,-107.026 1054.5,-85.1783"/>
<polygon fill="black" stroke="black" points="1054.5,-80.0648 1056.75,-85.0648 1054.5,-82.5648 1054.5,-85.0648 1054.5,-85.0648 1054.5,-85.0648 1054.5,-82.5648 1052.25,-85.0648 1054.5,-80.0648 1054.5,-80.0648"/>
</g>
<!-- e3 -->
<g id="node3" class="node"><title>e3</title>
</g>
<!-- v5 -->
<g id="v5_Laptop" class="node"><title>v5</title>
<ellipse fill="none" stroke="black" cx="330.5" cy="-69" rx="29" ry="11"/>
<text text-anchor="middle" x="330.5" y="-66.8" font-family="sans-serif" font-size="9.00">Laptop</text>
</g>
<!-- e3&#45;&gt;v5 -->
<g id="edge26" class="edge"><title>e3&#45;&gt;v5</title>
<path fill="none" stroke="green" d="M330.5,-122.167C330.5,-113.586 330.5,-92.5957 330.5,-80.0117"/>
<polygon fill="green" stroke="green" points="334,-125.3 327,-125.3 327,-123.9 334,-123.9 334,-125.3"/>
<polyline fill="none" stroke="green" points="330.5,-126 330.5,-122.5 "/>
</g>
<!-- v1 -->
<g id="v1_Floor" class="node"><title>v1</title>
<ellipse fill="none" stroke="black" cx="505.5" cy="-243" rx="25" ry="11"/>
<text text-anchor="middle" x="505.5" y="-240.8" font-family="sans-serif" font-size="9.00">Floor</text>
</g>
<!-- v0&#45;&gt;v1 -->
<g id="edge3" class="edge"><title>v0&#45;&gt;v1</title>
<path fill="none" stroke="black" d="M588.594,-291.003C571.059,-281.084 542.875,-265.141 524.271,-254.618"/>
<polygon fill="black" stroke="black" points="519.76,-252.066 525.22,-252.57 521.936,-253.297 524.112,-254.528 524.112,-254.528 524.112,-254.528 521.936,-253.297 523.004,-256.486 519.76,-252.066 519.76,-252.066"/>
</g>
<!-- v13 -->
<g id="v13_InstallationBus" class="node"><title>v13</title>
<ellipse fill="none" stroke="black" cx="762.5" cy="-11" rx="61" ry="11"/>
<text text-anchor="middle" x="762.5" y="-8.8" font-family="sans-serif" font-size="9.00">InstallationBus</text>
</g>
<!-- v0&#45;&gt;v13 -->
<g id="edge4" class="edge"><title>v0&#45;&gt;v13</title>
<path fill="none" stroke="black" d="M620.848,-291.106C648.967,-274.477 703.5,-235.805 703.5,-186 703.5,-186 703.5,-186 703.5,-126 703.5,-86.0956 732.366,-46.2402 749.716,-25.8884"/>
<polygon fill="black" stroke="black" points="753.021,-22.0838 751.44,-27.3342 751.381,-23.9713 749.742,-25.8587 749.742,-25.8587 749.742,-25.8587 751.381,-23.9713 748.043,-24.3832 753.021,-22.0838 753.021,-22.0838"/>
</g>
<!-- v2 -->
<g id="v2_Room" class="node"><title>v2</title>
<ellipse fill="none" stroke="black" cx="589.5" cy="-69" rx="21.5" ry="11"/>
<text text-anchor="middle" x="589.5" y="-66.8" font-family="sans-serif" font-size="9.00">Room</text>
</g>
<!-- v1&#45;&gt;v2 -->
<g id="edge5" class="edge"><title>v1&#45;&gt;v2</title>
<path fill="none" stroke="black" d="M510.379,-232.009C524.53,-203.034 565.635,-118.867 582.328,-84.6863"/>
<polygon fill="black" stroke="black" points="584.607,-80.0185 584.435,-85.4987 583.51,-82.2649 582.413,-84.5113 582.413,-84.5113 582.413,-84.5113 583.51,-82.2649 580.391,-83.5239 584.607,-80.0185 584.607,-80.0185"/>
</g>
<!-- v3 -->
<g id="v3_Hallway" class="node"><title>v3</title>
<ellipse fill="none" stroke="black" cx="415.5" cy="-185" rx="32.5" ry="11"/>
<text text-anchor="middle" x="415.5" y="-182.8" font-family="sans-serif" font-size="9.00">Hallway</text>
</g>
<!-- v1&#45;&gt;v3 -->
<g id="edge6" class="edge"><title>v1&#45;&gt;v3</title>
<path fill="none" stroke="black" d="M491.831,-233.495C476.548,-223.986 451.695,-208.521 434.521,-197.835"/>
<polygon fill="black" stroke="black" points="429.895,-194.957 435.329,-195.688 432.017,-196.277 434.14,-197.598 434.14,-197.598 434.14,-197.598 432.017,-196.277 432.951,-199.509 429.895,-194.957 429.895,-194.957"/>
</g>
<!-- v14 -->
<g id="v14_Room" class="node"><title>v14</title>
<ellipse fill="none" stroke="black" cx="174.5" cy="-127" rx="21.5" ry="11"/>
<text text-anchor="middle" x="174.5" y="-124.8" font-family="sans-serif" font-size="9.00">Room</text>
</g>
<!-- v1&#45;&gt;v14 -->
<g id="edge7" class="edge"><title>v1&#45;&gt;v14</title>
<path fill="none" stroke="black" d="M486.756,-235.544C429.557,-215.844 257.441,-156.566 196.324,-135.516"/>
<polygon fill="black" stroke="black" points="191.437,-133.833 196.898,-133.334 193.801,-134.648 196.165,-135.462 196.165,-135.462 196.165,-135.462 193.801,-134.648 195.432,-137.589 191.437,-133.833 191.437,-133.833"/>
</g>
<!-- v19 -->
<g id="v19_Room" class="node"><title>v19</title>
<ellipse fill="none" stroke="black" cx="505.5" cy="-69" rx="21.5" ry="11"/>
<text text-anchor="middle" x="505.5" y="-66.8" font-family="sans-serif" font-size="9.00">Room</text>
</g>
<!-- v1&#45;&gt;v19 -->
<g id="edge8" class="edge"><title>v1&#45;&gt;v19</title>
<path fill="none" stroke="black" d="M505.5,-231.756C505.5,-202.786 505.5,-120.136 505.5,-85.5335"/>
<polygon fill="black" stroke="black" points="505.5,-80.4081 507.75,-85.408 505.5,-82.9081 505.5,-85.4081 505.5,-85.4081 505.5,-85.4081 505.5,-82.9081 503.25,-85.4081 505.5,-80.4081 505.5,-80.4081"/>
</g>
<!-- v2&#45;&gt;v3 -->
<g id="edge23" class="edge"><title>v2&#45;&gt;v3</title>
<path fill="none" stroke="green" d="M570.019,-73.6913C559.756,-75.6146 546.955,-77.9804 535.5,-80 487.793,-88.4108 351.798,-79.0253 320.5,-116 296.453,-144.408 355.691,-167.029 391.172,-177.563"/>
</g>
<!-- v8 -->
<g id="v8_SmartLight" class="node"><title>v8</title>
<ellipse fill="none" stroke="black" cx="640.5" cy="-11" rx="43" ry="11"/>
<text text-anchor="middle" x="640.5" y="-8.8" font-family="sans-serif" font-size="9.00">SmartLight</text>
</g>
<!-- v2&#45;&gt;v8 -->
<g id="edge9" class="edge"><title>v2&#45;&gt;v8</title>
<path fill="none" stroke="black" d="M597.922,-58.7527C606.114,-49.7573 618.658,-35.9828 628.012,-25.7121"/>
<polygon fill="black" stroke="black" points="631.551,-21.8266 629.848,-27.0383 629.867,-23.6749 628.184,-25.5233 628.184,-25.5233 628.184,-25.5233 629.867,-23.6749 626.521,-24.0083 631.551,-21.8266 631.551,-21.8266"/>
</g>
<!-- v4 -->
<g id="v4_Visitor" class="node"><title>v4</title>
<ellipse fill="none" stroke="black" cx="385.5" cy="-127" rx="32.5" ry="11"/>
<text text-anchor="middle" x="385.5" y="-124.8" font-family="sans-serif" font-size="9.00">Visitor</text>
</g>
<!-- v3&#45;&gt;v4 -->
<g id="edge10" class="edge"><title>v3&#45;&gt;v4</title>
<path fill="none" stroke="black" d="M410.137,-173.988C405.444,-165.229 398.569,-152.396 393.273,-142.51"/>
<polygon fill="black" stroke="black" points="390.817,-137.925 395.161,-141.27 391.998,-140.129 393.178,-142.332 393.178,-142.332 393.178,-142.332 391.998,-140.129 391.195,-143.395 390.817,-137.925 390.817,-137.925"/>
</g>
<!-- v3&#45;&gt;v14 -->
<g id="edge24" class="edge"><title>v3&#45;&gt;v14</title>
<path fill="none" stroke="green" d="M389.709,-178.007C340.894,-166.664 236.064,-142.305 193.273,-132.362"/>
</g>
<!-- v3&#45;&gt;v19 -->
<g id="edge25" class="edge"><title>v3&#45;&gt;v19</title>
<path fill="none" stroke="green" d="M423.173,-174.28C440.262,-152.635 481.268,-100.694 498.099,-79.3745"/>
</g>
<!-- v4&#45;&gt;v5 -->
<g id="edge11" class="edge"><title>v4&#45;&gt;v5</title>
<path fill="none" stroke="black" d="M375.92,-116.246C367.008,-107.172 353.649,-93.5697 343.723,-83.4636"/>
<polygon fill="black" stroke="black" points="339.97,-79.6427 345.079,-81.6333 341.722,-81.4263 343.474,-83.2099 343.474,-83.2099 343.474,-83.2099 341.722,-81.4263 341.869,-84.7865 339.97,-79.6427 339.97,-79.6427"/>
</g>
<!-- v9 -->
<g id="v9_Software" class="node"><title>v9</title>
<ellipse fill="none" stroke="black" cx="327.5" cy="-11" rx="36" ry="11"/>
<text text-anchor="middle" x="327.5" y="-8.8" font-family="sans-serif" font-size="9.00">Software</text>
</g>
<!-- v5&#45;&gt;v9 -->
<g id="edge12" class="edge"><title>v5&#45;&gt;v9</title>
<path fill="none" stroke="black" d="M329.964,-57.9883C329.509,-49.4941 328.848,-37.1697 328.326,-27.4169"/>
<polygon fill="black" stroke="black" points="328.052,-22.3039 330.566,-27.1763 328.186,-24.8003 328.32,-27.2967 328.32,-27.2967 328.32,-27.2967 328.186,-24.8003 326.073,-27.4171 328.052,-22.3039 328.052,-22.3039"/>
</g>
<!-- v7 -->
<g id="v7_EnterRoom" class="node"><title>v7</title>
<ellipse fill="none" stroke="black" cx="881.5" cy="-11" rx="39.5" ry="11"/>
<text text-anchor="middle" x="881.5" y="-8.8" font-family="sans-serif" font-size="9.00">EnterRoom</text>
</g>
<!-- v6&#45;&gt;v7 -->
<g id="edge13" class="edge"><title>v6&#45;&gt;v7</title>
<path fill="none" stroke="black" d="M1027.85,-59.3727C996.179,-49.1216 943.518,-32.0753 910.751,-21.4684"/>
<polygon fill="black" stroke="black" points="905.669,-19.8234 911.119,-19.2226 908.047,-20.5933 910.426,-21.3633 910.426,-21.3633 910.426,-21.3633 908.047,-20.5933 909.733,-23.5039 905.669,-19.8234 905.669,-19.8234"/>
</g>
<!-- v10 -->
<g id="v10_ConnectDevice" class="node"><title>v10</title>
<ellipse fill="none" stroke="black" cx="993.5" cy="-11" rx="54" ry="11"/>
<text text-anchor="middle" x="993.5" y="-8.8" font-family="sans-serif" font-size="9.00">ConnectDevice</text>
</g>
<!-- v6&#45;&gt;v10 -->
<g id="edge14" class="edge"><title>v6&#45;&gt;v10</title>
<path fill="none" stroke="black" d="M1043.59,-57.9883C1033.71,-48.9101 1019.05,-35.4569 1008.14,-25.4439"/>
<polygon fill="black" stroke="black" points="1004.31,-21.925 1009.52,-23.6489 1006.15,-23.6157 1007.99,-25.3064 1007.99,-25.3064 1007.99,-25.3064 1006.15,-23.6157 1006.47,-26.9639 1004.31,-21.925 1004.31,-21.925"/>
</g>
<!-- v11 -->
<g id="v11_GenerateData" class="node"><title>v11</title>
<ellipse fill="none" stroke="black" cx="1116.5" cy="-11" rx="50.5" ry="11"/>
<text text-anchor="middle" x="1116.5" y="-8.8" font-family="sans-serif" font-size="9.00">GenerateData</text>
</g>
<!-- v6&#45;&gt;v11 -->
<g id="edge15" class="edge"><title>v6&#45;&gt;v11</title>
<path fill="none" stroke="black" d="M1065.58,-57.9883C1075.64,-48.9101 1090.53,-35.4569 1101.62,-25.4439"/>
<polygon fill="black" stroke="black" points="1105.51,-21.925 1103.31,-26.9462 1103.66,-23.6007 1101.8,-25.2765 1101.8,-25.2765 1101.8,-25.2765 1103.66,-23.6007 1100.29,-23.6067 1105.51,-21.925 1105.51,-21.925"/>
</g>
<!-- v12 -->
<g id="v12_CollectData" class="node"><title>v12</title>
<ellipse fill="none" stroke="black" cx="1232.5" cy="-11" rx="47" ry="11"/>
<text text-anchor="middle" x="1232.5" y="-8.8" font-family="sans-serif" font-size="9.00">CollectData</text>
</g>
<!-- v6&#45;&gt;v12 -->
<g id="edge16" class="edge"><title>v6&#45;&gt;v12</title>
<path fill="none" stroke="black" d="M1081.92,-59.3727C1114.27,-49.1964 1167.9,-32.3237 1201.66,-21.7016"/>
<polygon fill="black" stroke="black" points="1206.5,-20.1813 1202.4,-23.8282 1204.11,-20.9316 1201.73,-21.6819 1201.73,-21.6819 1201.73,-21.6819 1204.11,-20.9316 1201.05,-19.5356 1206.5,-20.1813 1206.5,-20.1813"/>
</g>
<!-- v8&#45;&gt;v13 -->
<g id="edge27" class="edge"><title>v8&#45;&gt;v13</title>
<path fill="none" stroke="green" d="M683.867,-11C689.703,-11 695.539,-11 701.375,-11"/>
</g>
<!-- v15 -->
<g id="v15_HVAC" class="node"><title>v15</title>
<ellipse fill="none" stroke="black" cx="145.5" cy="-69" rx="21.5" ry="11"/>
<text text-anchor="middle" x="145.5" y="-66.8" font-family="sans-serif" font-size="9.00">HVAC</text>
</g>
<!-- v13&#45;&gt;v15 -->
<g id="edge28" class="edge"><title>v13&#45;&gt;v15</title>
<path fill="none" stroke="green" d="M718.488,-18.6846C709.881,-19.8794 700.917,-21.0457 692.5,-22 488.198,-45.1636 239.741,-61.9562 166.663,-66.664"/>
</g>
<!-- v17 -->
<g id="v17_SmartLight" class="node"><title>v17</title>
<ellipse fill="none" stroke="black" cx="230.5" cy="-11" rx="43" ry="11"/>
<text text-anchor="middle" x="230.5" y="-8.8" font-family="sans-serif" font-size="9.00">SmartLight</text>
</g>
<!-- v13&#45;&gt;v17 -->
<g id="edge29" class="edge"><title>v13&#45;&gt;v17</title>
<path fill="none" stroke="green" d="M740.609,-21.4084C725.067,-28.2018 703.495,-36.446 683.5,-40 597.733,-55.2447 376.475,-59.171 291.5,-40 275.486,-36.3871 258.744,-28.0527 246.859,-21.2415"/>
</g>
<!-- v18 -->
<g id="v18_FireAlarm" class="node"><title>v18</title>
<ellipse fill="none" stroke="black" cx="39.5" cy="-11" rx="39.5" ry="11"/>
<text text-anchor="middle" x="39.5" y="-8.8" font-family="sans-serif" font-size="9.00">FireAlarm</text>
</g>
<!-- v13&#45;&gt;v18 -->
<g id="edge30" class="edge"><title>v13&#45;&gt;v18</title>
<path fill="none" stroke="green" d="M740.609,-21.4084C725.067,-28.2018 703.495,-36.446 683.5,-40 619.394,-51.3946 160.869,-54.9595 97.5,-40 82.1605,-36.3788 66.2523,-28.0452 54.9852,-21.2364"/>
</g>
<!-- v20 -->
<g id="v20_SmartLight" class="node"><title>v20</title>
<ellipse fill="none" stroke="black" cx="424.5" cy="-11" rx="43" ry="11"/>
<text text-anchor="middle" x="424.5" y="-8.8" font-family="sans-serif" font-size="9.00">SmartLight</text>
</g>
<!-- v13&#45;&gt;v20 -->
<g id="edge31" class="edge"><title>v13&#45;&gt;v20</title>
<path fill="none" stroke="green" d="M740.609,-21.4084C725.067,-28.2018 703.495,-36.446 683.5,-40 596.858,-55.4002 571.343,-59.3666 485.5,-40 469.486,-36.3871 452.744,-28.0527 440.859,-21.2415"/>
</g>
<!-- v21 -->
<g id="v21_Workstation" class="node"><title>v21</title>
<ellipse fill="none" stroke="black" cx="532.5" cy="-11" rx="47" ry="11"/>
<text text-anchor="middle" x="532.5" y="-8.8" font-family="sans-serif" font-size="9.00">Workstation</text>
</g>
<!-- v13&#45;&gt;v21 -->
<g id="edge32" class="edge"><title>v13&#45;&gt;v21</title>
<path fill="none" stroke="green" d="M740.609,-21.4084C725.067,-28.2018 703.495,-36.446 683.5,-40 645.868,-46.689 634.884,-47.9613 597.5,-40 580.58,-36.3967 562.726,-28.0614 550.021,-21.2474"/>
</g>
<!-- v14&#45;&gt;v15 -->
<g id="edge17" class="edge"><title>v14&#45;&gt;v15</title>
<path fill="none" stroke="black" d="M169.449,-116.246C164.93,-107.52 158.244,-94.6082 153.083,-84.6435"/>
<polygon fill="black" stroke="black" points="150.689,-80.0198 154.986,-83.425 151.838,-82.2397 152.988,-84.4597 152.988,-84.4597 152.988,-84.4597 151.838,-82.2397 150.99,-85.4944 150.689,-80.0198 150.689,-80.0198"/>
</g>
<!-- v14&#45;&gt;v17 -->
<g id="edge18" class="edge"><title>v14&#45;&gt;v17</title>
<path fill="none" stroke="black" d="M179.47,-115.883C189.416,-95.6355 211.802,-50.0637 223.334,-26.5882"/>
<polygon fill="black" stroke="black" points="225.621,-21.9313 225.436,-27.4111 224.519,-24.1752 223.417,-26.4191 223.417,-26.4191 223.417,-26.4191 224.519,-24.1752 221.397,-25.427 225.621,-21.9313 225.621,-21.9313"/>
</g>
<!-- v14&#45;&gt;v18 -->
<g id="edge19" class="edge"><title>v14&#45;&gt;v18</title>
<path fill="none" stroke="black" d="M162.776,-117.458C150.518,-108.424 130.828,-93.6216 114.5,-80 92.7882,-61.8867 68.7464,-39.6851 53.8772,-25.6865"/>
<polygon fill="black" stroke="black" points="49.9361,-21.966 55.1165,-23.7622 51.754,-23.6821 53.5719,-25.3983 53.5719,-25.3983 53.5719,-25.3983 51.754,-23.6821 52.0274,-27.0345 49.9361,-21.966 49.9361,-21.966"/>
</g>
<!-- v16 -->
<g id="v16_Software" class="node"><title>v16</title>
<ellipse fill="none" stroke="black" cx="133.5" cy="-11" rx="36" ry="11"/>
<text text-anchor="middle" x="133.5" y="-8.8" font-family="sans-serif" font-size="9.00">Software</text>
</g>
<!-- v15&#45;&gt;v16 -->
<g id="edge20" class="edge"><title>v15&#45;&gt;v16</title>
<path fill="none" stroke="black" d="M143.355,-57.9883C141.534,-49.4941 138.893,-37.1697 136.804,-27.4169"/>
<polygon fill="black" stroke="black" points="135.708,-22.3039 138.956,-26.7214 136.232,-24.7484 136.756,-27.1929 136.756,-27.1929 136.756,-27.1929 136.232,-24.7484 134.556,-27.6644 135.708,-22.3039 135.708,-22.3039"/>
</g>
<!-- v19&#45;&gt;v20 -->
<g id="edge21" class="edge"><title>v19&#45;&gt;v20</title>
<path fill="none" stroke="black" d="M493.548,-59.737C480.113,-50.4485 458.15,-35.2641 442.606,-24.5176"/>
<polygon fill="black" stroke="black" points="438.404,-21.6128 443.797,-22.6055 440.461,-23.0345 442.517,-24.4563 442.517,-24.4563 442.517,-24.4563 440.461,-23.0345 441.237,-26.307 438.404,-21.6128 438.404,-21.6128"/>
</g>
<!-- v19&#45;&gt;v21 -->
<g id="edge22" class="edge"><title>v19&#45;&gt;v21</title>
<path fill="none" stroke="black" d="M510.203,-58.2455C514.41,-49.5202 520.635,-36.6082 525.44,-26.6435"/>
<polygon fill="black" stroke="black" points="527.669,-22.0198 527.524,-27.5008 526.583,-24.2717 525.497,-26.5236 525.497,-26.5236 525.497,-26.5236 526.583,-24.2717 523.471,-25.5464 527.669,-22.0198 527.669,-22.0198"/>
</g>
</g>
</svg>
