<?xml version="1.0" encoding="UTF-8" standalone="no"?>
<?xml-stylesheet href="style.css" type="text/css"?>
<!DOCTYPE svg PUBLIC "-//W3C//DTD SVG 1.1//EN"
 "http://www.w3.org/Graphics/SVG/1.1/DTD/svg11.dtd">
<!-- Generated by graphviz version 2.38.0 (20140413.2041)
 -->
<!-- Title: 3.svg Pages: 1 -->
<svg width="957pt" height="316pt"
 viewBox="0.00 0.00 956.50 316.00" xmlns="http://www.w3.org/2000/svg" xmlns:xlink="http://www.w3.org/1999/xlink">
<g id="graph0" class="graph" transform="scale(1 1) rotate(0) translate(4 312)">
<title>3.svg</title>
<polygon fill="white" stroke="none" points="-4,4 -4,-312 952.5,-312 952.5,4 -4,4"/>
<!-- r0 -->
<g id="node1" class="node"><title>r0</title>
<polygon fill="none" stroke="black" stroke-dasharray="5,2" points="596,-308 573,-308 573,-290 596,-290 596,-308"/>
<text text-anchor="middle" x="584.5" y="-296.8" font-family="serif" font-size="9.00">0</text>
</g>
<!-- v0 -->
<g id="v0_Building" class="node"><title>v0</title>
<ellipse fill="none" stroke="black" cx="584.5" cy="-243" rx="36" ry="11"/>
<text text-anchor="middle" x="584.5" y="-240.8" font-family="sans-serif" font-size="9.00">Building</text>
</g>
<!-- r0&#45;&gt;v0 -->
<g id="edge1" class="edge"><title>r0&#45;&gt;v0</title>
<path fill="none" stroke="black" d="M584.5,-289.562C584.5,-281.453 584.5,-269.014 584.5,-259.181"/>
<polygon fill="black" stroke="black" points="584.5,-254.03 586.75,-259.03 584.5,-256.53 584.5,-259.03 584.5,-259.03 584.5,-259.03 584.5,-256.53 582.25,-259.03 584.5,-254.03 584.5,-254.03"/>
</g>
<!-- e3 -->
<g id="node2" class="node"><title>e3</title>
</g>
<!-- v5 -->
<g id="v5_Laptop" class="node"><title>v5</title>
<ellipse fill="none" stroke="black" cx="182.5" cy="-11" rx="29" ry="11"/>
<text text-anchor="middle" x="182.5" y="-8.8" font-family="sans-serif" font-size="9.00">Laptop</text>
</g>
<!-- e3&#45;&gt;v5 -->
<g id="edge19" class="edge"><title>e3&#45;&gt;v5</title>
<path fill="none" stroke="green" d="M182.5,-64.1674C182.5,-55.5862 182.5,-34.5957 182.5,-22.0117"/>
<polygon fill="green" stroke="green" points="186,-67.3001 179,-67.2999 179,-65.8999 186,-65.9001 186,-67.3001"/>
<polyline fill="none" stroke="green" points="182.5,-68 182.5,-64.5 "/>
</g>
<!-- v1 -->
<g id="v1_Floor" class="node"><title>v1</title>
<ellipse fill="none" stroke="black" cx="466.5" cy="-185" rx="25" ry="11"/>
<text text-anchor="middle" x="466.5" y="-182.8" font-family="sans-serif" font-size="9.00">Floor</text>
</g>
<!-- v0&#45;&gt;v1 -->
<g id="edge2" class="edge"><title>v0&#45;&gt;v1</title>
<path fill="none" stroke="black" d="M566.321,-233.373C544.955,-223.233 509.581,-206.445 487.185,-195.817"/>
<polygon fill="black" stroke="black" points="482.613,-193.647 488.095,-193.758 484.871,-194.719 487.13,-195.791 487.13,-195.791 487.13,-195.791 484.871,-194.719 486.165,-197.823 482.613,-193.647 482.613,-193.647"/>
</g>
<!-- v14 -->
<g id="v14_InstallationBus" class="node"><title>v14</title>
<ellipse fill="none" stroke="black" cx="887.5" cy="-11" rx="61" ry="11"/>
<text text-anchor="middle" x="887.5" y="-8.8" font-family="sans-serif" font-size="9.00">InstallationBus</text>
</g>
<!-- v0&#45;&gt;v14 -->
<g id="edge3" class="edge"><title>v0&#45;&gt;v14</title>
<path fill="none" stroke="black" d="M597.134,-232.41C645.054,-196.035 815.652,-66.5383 870.432,-24.9557"/>
<polygon fill="black" stroke="black" points="874.474,-21.888 871.851,-26.7033 872.482,-23.3996 870.491,-24.9111 870.491,-24.9111 870.491,-24.9111 872.482,-23.3996 869.131,-23.1189 874.474,-21.888 874.474,-21.888"/>
</g>
<!-- v2 -->
<g id="v2_Hallway" class="node"><title>v2</title>
<ellipse fill="none" stroke="black" cx="32.5" cy="-11" rx="32.5" ry="11"/>
<text text-anchor="middle" x="32.5" y="-8.8" font-family="sans-serif" font-size="9.00">Hallway</text>
</g>
<!-- v1&#45;&gt;v2 -->
<g id="edge4" class="edge"><title>v1&#45;&gt;v2</title>
<path fill="none" stroke="black" d="M443.179,-180.866C365.968,-170.066 120.292,-132.171 62.5,-80 47.0106,-66.0171 39.1191,-42.5644 35.4073,-27.1863"/>
<polygon fill="black" stroke="black" points="34.3038,-22.306 37.6012,-26.6866 34.8552,-24.7444 35.4066,-27.1829 35.4066,-27.1829 35.4066,-27.1829 34.8552,-24.7444 33.212,-27.6791 34.3038,-22.306 34.3038,-22.306"/>
</g>
<!-- v3 -->
<g id="v3_Room" class="node"><title>v3</title>
<ellipse fill="none" stroke="black" cx="272.5" cy="-127" rx="21.5" ry="11"/>
<text text-anchor="middle" x="272.5" y="-124.8" font-family="sans-serif" font-size="9.00">Room</text>
</g>
<!-- v1&#45;&gt;v3 -->
<g id="edge5" class="edge"><title>v1&#45;&gt;v3</title>
<path fill="none" stroke="black" d="M446.469,-178.218C410.15,-167.734 333.653,-145.652 295.356,-134.598"/>
<polygon fill="black" stroke="black" points="290.436,-133.177 295.864,-132.402 292.838,-133.871 295.24,-134.564 295.24,-134.564 295.24,-134.564 292.838,-133.871 294.616,-136.726 290.436,-133.177 290.436,-133.177"/>
</g>
<!-- v7 -->
<g id="v7_Room" class="node"><title>v7</title>
<ellipse fill="none" stroke="black" cx="466.5" cy="-69" rx="21.5" ry="11"/>
<text text-anchor="middle" x="466.5" y="-66.8" font-family="sans-serif" font-size="9.00">Room</text>
</g>
<!-- v1&#45;&gt;v7 -->
<g id="edge6" class="edge"><title>v1&#45;&gt;v7</title>
<path fill="none" stroke="black" d="M466.5,-173.883C466.5,-153.906 466.5,-109.276 466.5,-85.5402"/>
<polygon fill="black" stroke="black" points="466.5,-80.2579 468.75,-85.2579 466.5,-82.7579 466.5,-85.2579 466.5,-85.2579 466.5,-85.2579 466.5,-82.7579 464.25,-85.258 466.5,-80.2579 466.5,-80.2579"/>
</g>
<!-- v11 -->
<g id="v11_Room" class="node"><title>v11</title>
<ellipse fill="none" stroke="black" cx="653.5" cy="-69" rx="21.5" ry="11"/>
<text text-anchor="middle" x="653.5" y="-66.8" font-family="sans-serif" font-size="9.00">Room</text>
</g>
<!-- v1&#45;&gt;v11 -->
<g id="edge7" class="edge"><title>v1&#45;&gt;v11</title>
<path fill="none" stroke="black" d="M480.251,-175.617C513.508,-155.343 598.291,-103.657 635.514,-80.9644"/>
<polygon fill="black" stroke="black" points="640.232,-78.0887 637.134,-82.6125 638.097,-79.39 635.962,-80.6914 635.962,-80.6914 635.962,-80.6914 638.097,-79.39 634.791,-78.7702 640.232,-78.0887 640.232,-78.0887"/>
</g>
<!-- v2&#45;&gt;v3 -->
<g id="edge16" class="edge"><title>v2&#45;&gt;v3</title>
<path fill="none" stroke="green" d="M38.0793,-22.0294C46.9553,-37.0248 65.742,-65.1143 89.5,-80 141.551,-112.613 215.524,-122.129 251.385,-124.887"/>
</g>
<!-- v2&#45;&gt;v7 -->
<g id="edge17" class="edge"><title>v2&#45;&gt;v7</title>
<path fill="none" stroke="green" d="M61.8294,-15.7844C144.169,-26.4089 376.015,-56.3245 446.149,-65.3741"/>
</g>
<!-- v2&#45;&gt;v11 -->
<g id="edge18" class="edge"><title>v2&#45;&gt;v11</title>
<path fill="none" stroke="green" d="M63.2512,-14.7731C172.52,-24.6266 540.425,-57.8033 632.482,-66.1047"/>
</g>
<!-- v4 -->
<g id="v4_Visitor" class="node"><title>v4</title>
<ellipse fill="none" stroke="black" cx="131.5" cy="-69" rx="32.5" ry="11"/>
<text text-anchor="middle" x="131.5" y="-66.8" font-family="sans-serif" font-size="9.00">Visitor</text>
</g>
<!-- v3&#45;&gt;v4 -->
<g id="edge8" class="edge"><title>v3&#45;&gt;v4</title>
<path fill="none" stroke="black" d="M256.326,-119.576C231.709,-109.799 184.669,-91.1169 155.89,-79.687"/>
<polygon fill="black" stroke="black" points="151.087,-77.7792 156.564,-77.5337 153.41,-78.702 155.734,-79.6248 155.734,-79.6248 155.734,-79.6248 153.41,-78.702 154.903,-81.716 151.087,-77.7792 151.087,-77.7792"/>
</g>
<!-- v6 -->
<g id="v6_SmartLight" class="node"><title>v6</title>
<ellipse fill="none" stroke="black" cx="272.5" cy="-11" rx="43" ry="11"/>
<text text-anchor="middle" x="272.5" y="-8.8" font-family="sans-serif" font-size="9.00">SmartLight</text>
</g>
<!-- v3&#45;&gt;v6 -->
<g id="edge9" class="edge"><title>v3&#45;&gt;v6</title>
<path fill="none" stroke="black" d="M272.5,-115.883C272.5,-95.9059 272.5,-51.276 272.5,-27.5402"/>
<polygon fill="black" stroke="black" points="272.5,-22.2579 274.75,-27.2579 272.5,-24.7579 272.5,-27.2579 272.5,-27.2579 272.5,-27.2579 272.5,-24.7579 270.25,-27.258 272.5,-22.2579 272.5,-22.2579"/>
</g>
<!-- v4&#45;&gt;v5 -->
<g id="edge10" class="edge"><title>v4&#45;&gt;v5</title>
<path fill="none" stroke="black" d="M140.384,-58.2455C148.647,-49.1716 161.035,-35.5697 170.238,-25.4636"/>
<polygon fill="black" stroke="black" points="173.718,-21.6427 172.015,-26.8544 172.035,-23.491 170.352,-25.3394 170.352,-25.3394 170.352,-25.3394 172.035,-23.491 168.688,-23.8244 173.718,-21.6427 173.718,-21.6427"/>
</g>
<!-- v6&#45;&gt;v14 -->
<g id="edge20" class="edge"><title>v6&#45;&gt;v14</title>
<path fill="none" stroke="green" d="M288.859,-21.2415C300.744,-28.0527 317.486,-36.3871 333.5,-40 436.468,-63.2301 704.573,-58.4725 808.5,-40 828.495,-36.446 850.067,-28.2018 865.609,-21.4084"/>
</g>
<!-- v8 -->
<g id="v8_SmartLight" class="node"><title>v8</title>
<ellipse fill="none" stroke="black" cx="376.5" cy="-11" rx="43" ry="11"/>
<text text-anchor="middle" x="376.5" y="-8.8" font-family="sans-serif" font-size="9.00">SmartLight</text>
</g>
<!-- v7&#45;&gt;v8 -->
<g id="edge11" class="edge"><title>v7&#45;&gt;v8</title>
<path fill="none" stroke="black" d="M453.605,-59.9766C438.46,-50.553 413.192,-34.8303 395.731,-23.9657"/>
<polygon fill="black" stroke="black" points="391.471,-21.315 396.905,-22.0462 393.593,-22.6358 395.716,-23.9566 395.716,-23.9566 395.716,-23.9566 393.593,-22.6358 394.527,-25.867 391.471,-21.315 391.471,-21.315"/>
</g>
<!-- v9 -->
<g id="v9_Server" class="node"><title>v9</title>
<ellipse fill="none" stroke="black" cx="466.5" cy="-11" rx="29" ry="11"/>
<text text-anchor="middle" x="466.5" y="-8.8" font-family="sans-serif" font-size="9.00">Server</text>
</g>
<!-- v7&#45;&gt;v9 -->
<g id="edge12" class="edge"><title>v7&#45;&gt;v9</title>
<path fill="none" stroke="black" d="M466.5,-57.9883C466.5,-49.4941 466.5,-37.1697 466.5,-27.4169"/>
<polygon fill="black" stroke="black" points="466.5,-22.3039 468.75,-27.3038 466.5,-24.8039 466.5,-27.3039 466.5,-27.3039 466.5,-27.3039 466.5,-24.8039 464.25,-27.3039 466.5,-22.3039 466.5,-22.3039"/>
</g>
<!-- v10 -->
<g id="v10_FireAlarm" class="node"><title>v10</title>
<ellipse fill="none" stroke="black" cx="552.5" cy="-11" rx="39.5" ry="11"/>
<text text-anchor="middle" x="552.5" y="-8.8" font-family="sans-serif" font-size="9.00">FireAlarm</text>
</g>
<!-- v7&#45;&gt;v10 -->
<g id="edge13" class="edge"><title>v7&#45;&gt;v10</title>
<path fill="none" stroke="black" d="M478.822,-59.9766C493.171,-50.6328 517.031,-35.0963 533.698,-24.243"/>
<polygon fill="black" stroke="black" points="538.195,-21.315 535.233,-25.929 536.1,-22.6792 534.005,-24.0434 534.005,-24.0434 534.005,-24.0434 536.1,-22.6792 532.777,-22.1579 538.195,-21.315 538.195,-21.315"/>
</g>
<!-- v8&#45;&gt;v14 -->
<g id="edge21" class="edge"><title>v8&#45;&gt;v14</title>
<path fill="none" stroke="green" d="M392.859,-21.2415C404.744,-28.0527 421.486,-36.3871 437.5,-40 517.923,-58.144 727.328,-54.428 808.5,-40 828.495,-36.446 850.067,-28.2018 865.609,-21.4084"/>
</g>
<!-- v9&#45;&gt;v14 -->
<g id="edge22" class="edge"><title>v9&#45;&gt;v14</title>
<path fill="none" stroke="green" d="M478.454,-21.2073C487.235,-28.0024 499.802,-36.3316 512.5,-40 575.693,-58.257 743.737,-51.5113 808.5,-40 828.495,-36.446 850.067,-28.2018 865.609,-21.4084"/>
</g>
<!-- v10&#45;&gt;v14 -->
<g id="edge23" class="edge"><title>v10&#45;&gt;v14</title>
<path fill="none" stroke="green" d="M567.985,-21.2364C579.252,-28.0452 595.16,-36.3788 610.5,-40 696.146,-60.2183 721.858,-55.4002 808.5,-40 828.495,-36.446 850.067,-28.2018 865.609,-21.4084"/>
</g>
<!-- v12 -->
<g id="v12_SmartLight" class="node"><title>v12</title>
<ellipse fill="none" stroke="black" cx="653.5" cy="-11" rx="43" ry="11"/>
<text text-anchor="middle" x="653.5" y="-8.8" font-family="sans-serif" font-size="9.00">SmartLight</text>
</g>
<!-- v11&#45;&gt;v12 -->
<g id="edge14" class="edge"><title>v11&#45;&gt;v12</title>
<path fill="none" stroke="black" d="M653.5,-57.9883C653.5,-49.4941 653.5,-37.1697 653.5,-27.4169"/>
<polygon fill="black" stroke="black" points="653.5,-22.3039 655.75,-27.3038 653.5,-24.8039 653.5,-27.3039 653.5,-27.3039 653.5,-27.3039 653.5,-24.8039 651.25,-27.3039 653.5,-22.3039 653.5,-22.3039"/>
</g>
<!-- v13 -->
<g id="v13_Workstation" class="node"><title>v13</title>
<ellipse fill="none" stroke="black" cx="761.5" cy="-11" rx="47" ry="11"/>
<text text-anchor="middle" x="761.5" y="-8.8" font-family="sans-serif" font-size="9.00">Workstation</text>
</g>
<!-- v11&#45;&gt;v13 -->
<g id="edge15" class="edge"><title>v11&#45;&gt;v13</title>
<path fill="none" stroke="black" d="M667.619,-60.679C685.692,-51.3076 717.232,-34.9536 738.722,-23.8106"/>
<polygon fill="black" stroke="black" points="743.416,-21.3771 740.013,-25.6762 741.196,-22.5279 738.977,-23.6787 738.977,-23.6787 738.977,-23.6787 741.196,-22.5279 737.941,-21.6813 743.416,-21.3771 743.416,-21.3771"/>
</g>
<!-- v12&#45;&gt;v14 -->
<g id="edge24" class="edge"><title>v12&#45;&gt;v14</title>
<path fill="none" stroke="green" d="M669.859,-21.2415C681.744,-28.0527 698.486,-36.3871 714.5,-40 755.254,-49.1942 767.367,-47.3112 808.5,-40 828.495,-36.446 850.067,-28.2018 865.609,-21.4084"/>
</g>
<!-- v13&#45;&gt;v14 -->
<g id="edge25" class="edge"><title>v13&#45;&gt;v14</title>
<path fill="none" stroke="green" d="M808.75,-11C814.595,-11 820.439,-11 826.284,-11"/>
</g>
</g>
</svg>
