<?xml version="1.0" encoding="UTF-8" standalone="no"?>
<?xml-stylesheet href="style.css" type="text/css"?>
<!DOCTYPE svg PUBLIC "-//W3C//DTD SVG 1.1//EN"
 "http://www.w3.org/Graphics/SVG/1.1/DTD/svg11.dtd">
<!-- Generated by graphviz version 2.38.0 (20140413.2041)
 -->
<!-- Title: 32.svg Pages: 1 -->
<svg width="1089pt" height="374pt"
 viewBox="0.00 0.00 1088.50 374.00" xmlns="http://www.w3.org/2000/svg" xmlns:xlink="http://www.w3.org/1999/xlink">
<g id="graph0" class="graph" transform="scale(1 1) rotate(0) translate(4 370)">
<title>32.svg</title>
<polygon fill="white" stroke="none" points="-4,4 -4,-370 1084.5,-370 1084.5,4 -4,4"/>
<!-- r0 -->
<g id="node1" class="node"><title>r0</title>
<polygon fill="none" stroke="black" stroke-dasharray="5,2" points="611,-366 588,-366 588,-348 611,-348 611,-366"/>
<text text-anchor="middle" x="599.5" y="-354.8" font-family="serif" font-size="9.00">0</text>
</g>
<!-- v0 -->
<g id="v0_Building" class="node"><title>v0</title>
<ellipse fill="none" stroke="black" cx="599.5" cy="-301" rx="36" ry="11"/>
<text text-anchor="middle" x="599.5" y="-298.8" font-family="sans-serif" font-size="9.00">Building</text>
</g>
<!-- r0&#45;&gt;v0 -->
<g id="edge1" class="edge"><title>r0&#45;&gt;v0</title>
<path fill="none" stroke="black" d="M599.5,-347.562C599.5,-339.453 599.5,-327.014 599.5,-317.181"/>
<polygon fill="black" stroke="black" points="599.5,-312.03 601.75,-317.03 599.5,-314.53 599.5,-317.03 599.5,-317.03 599.5,-317.03 599.5,-314.53 597.25,-317.03 599.5,-312.03 599.5,-312.03"/>
</g>
<!-- r1 -->
<g id="node2" class="node"><title>r1</title>
<polygon fill="none" stroke="black" stroke-dasharray="5,2" points="926,-366 903,-366 903,-348 926,-348 926,-366"/>
<text text-anchor="middle" x="914.5" y="-354.8" font-family="serif" font-size="9.00">1</text>
</g>
<!-- v6 -->
<g id="v6_RulesKeywords" class="node"><title>v6</title>
<ellipse fill="none" stroke="black" cx="914.5" cy="-69" rx="54" ry="11"/>
<text text-anchor="middle" x="914.5" y="-66.8" font-family="sans-serif" font-size="9.00">RulesKeywords</text>
</g>
<!-- r1&#45;&gt;v6 -->
<g id="edge2" class="edge"><title>r1&#45;&gt;v6</title>
<path fill="none" stroke="black" d="M914.5,-347.849C914.5,-329.373 914.5,-282.889 914.5,-244 914.5,-244 914.5,-244 914.5,-184 914.5,-148.604 914.5,-107.026 914.5,-85.1783"/>
<polygon fill="black" stroke="black" points="914.5,-80.0648 916.75,-85.0648 914.5,-82.5648 914.5,-85.0648 914.5,-85.0648 914.5,-85.0648 914.5,-82.5648 912.25,-85.0648 914.5,-80.0648 914.5,-80.0648"/>
</g>
<!-- e3 -->
<g id="node3" class="node"><title>e3</title>
</g>
<!-- v5 -->
<g id="v5_Laptop" class="node"><title>v5</title>
<ellipse fill="none" stroke="black" cx="336.5" cy="-69" rx="29" ry="11"/>
<text text-anchor="middle" x="336.5" y="-66.8" font-family="sans-serif" font-size="9.00">Laptop</text>
</g>
<!-- e3&#45;&gt;v5 -->
<g id="edge26" class="edge"><title>e3&#45;&gt;v5</title>
<path fill="none" stroke="green" d="M336.5,-122.167C336.5,-113.586 336.5,-92.5957 336.5,-80.0117"/>
<polygon fill="green" stroke="green" points="340,-125.3 333,-125.3 333,-123.9 340,-123.9 340,-125.3"/>
<polyline fill="none" stroke="green" points="336.5,-126 336.5,-122.5 "/>
</g>
<!-- v1 -->
<g id="v1_Floor" class="node"><title>v1</title>
<ellipse fill="none" stroke="black" cx="531.5" cy="-243" rx="25" ry="11"/>
<text text-anchor="middle" x="531.5" y="-240.8" font-family="sans-serif" font-size="9.00">Floor</text>
</g>
<!-- v0&#45;&gt;v1 -->
<g id="edge3" class="edge"><title>v0&#45;&gt;v1</title>
<path fill="none" stroke="black" d="M587.965,-290.5C576.526,-281.08 558.947,-266.604 546.445,-256.308"/>
<polygon fill="black" stroke="black" points="542.416,-252.99 547.706,-254.431 544.346,-254.579 546.276,-256.168 546.276,-256.168 546.276,-256.168 544.346,-254.579 544.845,-257.905 542.416,-252.99 542.416,-252.99"/>
</g>
<!-- v12 -->
<g id="v12_InstallationBus" class="node"><title>v12</title>
<ellipse fill="none" stroke="black" cx="711.5" cy="-69" rx="61" ry="11"/>
<text text-anchor="middle" x="711.5" y="-66.8" font-family="sans-serif" font-size="9.00">InstallationBus</text>
</g>
<!-- v0&#45;&gt;v12 -->
<g id="edge4" class="edge"><title>v0&#45;&gt;v12</title>
<path fill="none" stroke="black" d="M604.457,-289.82C622.312,-253.155 683.382,-127.741 704.358,-84.6657"/>
<polygon fill="black" stroke="black" points="706.6,-80.062 706.434,-85.5425 705.506,-82.3097 704.411,-84.5574 704.411,-84.5574 704.411,-84.5574 705.506,-82.3097 702.388,-83.5723 706.6,-80.062 706.6,-80.062"/>
</g>
<!-- v2 -->
<g id="v2_Room" class="node"><title>v2</title>
<ellipse fill="none" stroke="black" cx="598.5" cy="-69" rx="21.5" ry="11"/>
<text text-anchor="middle" x="598.5" y="-66.8" font-family="sans-serif" font-size="9.00">Room</text>
</g>
<!-- v1&#45;&gt;v2 -->
<g id="edge5" class="edge"><title>v1&#45;&gt;v2</title>
<path fill="none" stroke="black" d="M535.392,-232.009C546.678,-203.034 579.465,-118.867 592.779,-84.6863"/>
<polygon fill="black" stroke="black" points="594.597,-80.0185 594.879,-85.4942 593.69,-82.348 592.783,-84.6775 592.783,-84.6775 592.783,-84.6775 593.69,-82.348 590.686,-83.8608 594.597,-80.0185 594.597,-80.0185"/>
</g>
<!-- v3 -->
<g id="v3_Hallway" class="node"><title>v3</title>
<ellipse fill="none" stroke="black" cx="431.5" cy="-185" rx="32.5" ry="11"/>
<text text-anchor="middle" x="431.5" y="-182.8" font-family="sans-serif" font-size="9.00">Hallway</text>
</g>
<!-- v1&#45;&gt;v3 -->
<g id="edge6" class="edge"><title>v1&#45;&gt;v3</title>
<path fill="none" stroke="black" d="M517.172,-233.977C500.046,-224.386 471.268,-208.27 451.843,-197.392"/>
<polygon fill="black" stroke="black" points="447.118,-194.746 452.58,-195.226 449.299,-195.968 451.481,-197.189 451.481,-197.189 451.481,-197.189 449.299,-195.968 450.381,-199.152 447.118,-194.746 447.118,-194.746"/>
</g>
<!-- v13 -->
<g id="v13_Room" class="node"><title>v13</title>
<ellipse fill="none" stroke="black" cx="174.5" cy="-127" rx="21.5" ry="11"/>
<text text-anchor="middle" x="174.5" y="-124.8" font-family="sans-serif" font-size="9.00">Room</text>
</g>
<!-- v1&#45;&gt;v13 -->
<g id="edge7" class="edge"><title>v1&#45;&gt;v13</title>
<path fill="none" stroke="black" d="M512.306,-235.871C451.328,-216.399 262.206,-156.007 196.927,-135.162"/>
<polygon fill="black" stroke="black" points="192.082,-133.614 197.529,-132.992 194.463,-134.375 196.845,-135.135 196.845,-135.135 196.845,-135.135 194.463,-134.375 196.161,-137.279 192.082,-133.614 192.082,-133.614"/>
</g>
<!-- v19 -->
<g id="v19_Room" class="node"><title>v19</title>
<ellipse fill="none" stroke="black" cx="531.5" cy="-69" rx="21.5" ry="11"/>
<text text-anchor="middle" x="531.5" y="-66.8" font-family="sans-serif" font-size="9.00">Room</text>
</g>
<!-- v1&#45;&gt;v19 -->
<g id="edge8" class="edge"><title>v1&#45;&gt;v19</title>
<path fill="none" stroke="black" d="M531.5,-231.756C531.5,-202.786 531.5,-120.136 531.5,-85.5335"/>
<polygon fill="black" stroke="black" points="531.5,-80.4081 533.75,-85.408 531.5,-82.9081 531.5,-85.4081 531.5,-85.4081 531.5,-85.4081 531.5,-82.9081 529.25,-85.4081 531.5,-80.4081 531.5,-80.4081"/>
</g>
<!-- v2&#45;&gt;v3 -->
<g id="edge23" class="edge"><title>v2&#45;&gt;v3</title>
<path fill="none" stroke="green" d="M580.532,-75.2902C574.516,-76.9449 567.75,-78.681 561.5,-80 509.807,-90.9092 360.913,-75.9138 326.5,-116 300.329,-146.486 366.818,-168.422 405.711,-178.245"/>
</g>
<!-- v8 -->
<g id="v8_SmartLight" class="node"><title>v8</title>
<ellipse fill="none" stroke="black" cx="640.5" cy="-11" rx="43" ry="11"/>
<text text-anchor="middle" x="640.5" y="-8.8" font-family="sans-serif" font-size="9.00">SmartLight</text>
</g>
<!-- v2&#45;&gt;v8 -->
<g id="edge9" class="edge"><title>v2&#45;&gt;v8</title>
<path fill="none" stroke="black" d="M605.625,-58.5004C612.26,-49.6537 622.24,-36.3472 629.826,-26.2321"/>
<polygon fill="black" stroke="black" points="632.914,-22.1148 631.714,-27.4649 631.414,-24.1148 629.914,-26.1148 629.914,-26.1148 629.914,-26.1148 631.414,-24.1148 628.114,-24.7648 632.914,-22.1148 632.914,-22.1148"/>
</g>
<!-- v4 -->
<g id="v4_Visitor" class="node"><title>v4</title>
<ellipse fill="none" stroke="black" cx="392.5" cy="-127" rx="32.5" ry="11"/>
<text text-anchor="middle" x="392.5" y="-124.8" font-family="sans-serif" font-size="9.00">Visitor</text>
</g>
<!-- v3&#45;&gt;v4 -->
<g id="edge10" class="edge"><title>v3&#45;&gt;v4</title>
<path fill="none" stroke="black" d="M424.528,-173.988C418.372,-165.149 409.327,-152.162 402.418,-142.241"/>
<polygon fill="black" stroke="black" points="399.412,-137.925 404.116,-140.742 400.841,-139.977 402.27,-142.028 402.27,-142.028 402.27,-142.028 400.841,-139.977 400.423,-143.314 399.412,-137.925 399.412,-137.925"/>
</g>
<!-- v3&#45;&gt;v13 -->
<g id="edge24" class="edge"><title>v3&#45;&gt;v13</title>
<path fill="none" stroke="green" d="M405.443,-178.322C353.761,-167.061 239.339,-142.128 193.772,-132.199"/>
</g>
<!-- v3&#45;&gt;v19 -->
<g id="edge25" class="edge"><title>v3&#45;&gt;v19</title>
<path fill="none" stroke="green" d="M440.026,-174.28C459.013,-152.635 504.576,-100.694 523.277,-79.3745"/>
</g>
<!-- v4&#45;&gt;v5 -->
<g id="edge11" class="edge"><title>v4&#45;&gt;v5</title>
<path fill="none" stroke="black" d="M382.746,-116.246C373.591,-107.091 359.829,-93.3286 349.696,-83.1962"/>
<polygon fill="black" stroke="black" points="346.143,-79.6427 351.269,-81.5872 347.91,-81.4105 349.678,-83.1782 349.678,-83.1782 349.678,-83.1782 347.91,-81.4105 348.087,-84.7692 346.143,-79.6427 346.143,-79.6427"/>
</g>
<!-- v9 -->
<g id="v9_Software" class="node"><title>v9</title>
<ellipse fill="none" stroke="black" cx="327.5" cy="-11" rx="36" ry="11"/>
<text text-anchor="middle" x="327.5" y="-8.8" font-family="sans-serif" font-size="9.00">Software</text>
</g>
<!-- v5&#45;&gt;v9 -->
<g id="edge12" class="edge"><title>v5&#45;&gt;v9</title>
<path fill="none" stroke="black" d="M334.891,-57.9883C333.526,-49.4941 331.545,-37.1697 329.978,-27.4169"/>
<polygon fill="black" stroke="black" points="329.156,-22.3039 332.171,-26.8835 329.553,-24.7722 329.949,-27.2405 329.949,-27.2405 329.949,-27.2405 329.553,-24.7722 327.728,-27.5976 329.156,-22.3039 329.156,-22.3039"/>
</g>
<!-- v7 -->
<g id="v7_EnterRoom" class="node"><title>v7</title>
<ellipse fill="none" stroke="black" cx="802.5" cy="-11" rx="39.5" ry="11"/>
<text text-anchor="middle" x="802.5" y="-8.8" font-family="sans-serif" font-size="9.00">EnterRoom</text>
</g>
<!-- v6&#45;&gt;v7 -->
<g id="edge13" class="edge"><title>v6&#45;&gt;v7</title>
<path fill="none" stroke="black" d="M895.754,-58.6269C876.185,-48.8427 845.51,-33.5052 824.733,-23.1164"/>
<polygon fill="black" stroke="black" points="820.197,-20.8487 825.676,-21.0724 822.434,-21.9668 824.67,-23.0849 824.67,-23.0849 824.67,-23.0849 822.434,-21.9668 823.663,-25.0973 820.197,-20.8487 820.197,-20.8487"/>
</g>
<!-- v10 -->
<g id="v10_ConnectDevice" class="node"><title>v10</title>
<ellipse fill="none" stroke="black" cx="914.5" cy="-11" rx="54" ry="11"/>
<text text-anchor="middle" x="914.5" y="-8.8" font-family="sans-serif" font-size="9.00">ConnectDevice</text>
</g>
<!-- v6&#45;&gt;v10 -->
<g id="edge14" class="edge"><title>v6&#45;&gt;v10</title>
<path fill="none" stroke="black" d="M914.5,-57.9883C914.5,-49.4941 914.5,-37.1697 914.5,-27.4169"/>
<polygon fill="black" stroke="black" points="914.5,-22.3039 916.75,-27.3038 914.5,-24.8039 914.5,-27.3039 914.5,-27.3039 914.5,-27.3039 914.5,-24.8039 912.25,-27.3039 914.5,-22.3039 914.5,-22.3039"/>
</g>
<!-- v11 -->
<g id="v11_CollectData" class="node"><title>v11</title>
<ellipse fill="none" stroke="black" cx="1033.5" cy="-11" rx="47" ry="11"/>
<text text-anchor="middle" x="1033.5" y="-8.8" font-family="sans-serif" font-size="9.00">CollectData</text>
</g>
<!-- v6&#45;&gt;v11 -->
<g id="edge15" class="edge"><title>v6&#45;&gt;v11</title>
<path fill="none" stroke="black" d="M934.15,-58.7527C954.858,-49.0079 987.484,-33.6544 1009.65,-23.2227"/>
<polygon fill="black" stroke="black" points="1014.22,-21.0752 1010.65,-25.2401 1011.95,-22.1397 1009.69,-23.2042 1009.69,-23.2042 1009.69,-23.2042 1011.95,-22.1397 1008.73,-21.1684 1014.22,-21.0752 1014.22,-21.0752"/>
</g>
<!-- v8&#45;&gt;v12 -->
<g id="edge27" class="edge"><title>v8&#45;&gt;v12</title>
<path fill="none" stroke="green" d="M653.083,-21.925C665.967,-32.0867 685.883,-47.7952 698.807,-57.9883"/>
</g>
<!-- v14 -->
<g id="v14_HVAC" class="node"><title>v14</title>
<ellipse fill="none" stroke="black" cx="145.5" cy="-69" rx="21.5" ry="11"/>
<text text-anchor="middle" x="145.5" y="-66.8" font-family="sans-serif" font-size="9.00">HVAC</text>
</g>
<!-- v12&#45;&gt;v14 -->
<g id="edge28" class="edge"><title>v12&#45;&gt;v14</title>
<path fill="none" stroke="green" d="M686.613,-79.1245C668.377,-85.976 642.839,-94.4087 619.5,-98 482.446,-119.089 445.623,-110.265 307.5,-98 255.703,-93.4004 195.675,-80.6833 165.299,-73.7156"/>
</g>
<!-- v16 -->
<g id="v16_Data" class="node"><title>v16</title>
<ellipse fill="none" stroke="black" cx="723.5" cy="-11" rx="21.5" ry="11"/>
<text text-anchor="middle" x="723.5" y="-8.8" font-family="sans-serif" font-size="9.00">Data</text>
</g>
<!-- v12&#45;&gt;v16 -->
<g id="edge16" class="edge"><title>v12&#45;&gt;v16</title>
<path fill="none" stroke="black" d="M713.645,-57.9883C715.466,-49.4941 718.107,-37.1697 720.196,-27.4169"/>
<polygon fill="black" stroke="black" points="721.292,-22.3039 722.444,-27.6644 720.768,-24.7484 720.244,-27.1929 720.244,-27.1929 720.244,-27.1929 720.768,-24.7484 718.044,-26.7214 721.292,-22.3039 721.292,-22.3039"/>
</g>
<!-- v17 -->
<g id="v17_SmartLight" class="node"><title>v17</title>
<ellipse fill="none" stroke="black" cx="230.5" cy="-11" rx="43" ry="11"/>
<text text-anchor="middle" x="230.5" y="-8.8" font-family="sans-serif" font-size="9.00">SmartLight</text>
</g>
<!-- v12&#45;&gt;v17 -->
<g id="edge29" class="edge"><title>v12&#45;&gt;v17</title>
<path fill="none" stroke="green" d="M663.675,-62.1035C652.16,-60.7211 639.894,-59.2791 628.5,-58 474.857,-40.7526 435.444,-44.6197 282.5,-22 275.861,-21.0182 268.78,-19.7831 262.049,-18.5191"/>
</g>
<!-- v18 -->
<g id="v18_FireAlarm" class="node"><title>v18</title>
<ellipse fill="none" stroke="black" cx="39.5" cy="-11" rx="39.5" ry="11"/>
<text text-anchor="middle" x="39.5" y="-8.8" font-family="sans-serif" font-size="9.00">FireAlarm</text>
</g>
<!-- v12&#45;&gt;v18 -->
<g id="edge30" class="edge"><title>v12&#45;&gt;v18</title>
<path fill="none" stroke="green" d="M664.579,-61.9043C652.813,-60.4975 640.205,-59.0945 628.5,-58 389.012,-35.6061 326.878,-54.1213 88.5,-22 81.9606,-21.1188 74.9853,-19.8795 68.4094,-18.5723"/>
</g>
<!-- v20 -->
<g id="v20_SmartLight" class="node"><title>v20</title>
<ellipse fill="none" stroke="black" cx="536.5" cy="-11" rx="43" ry="11"/>
<text text-anchor="middle" x="536.5" y="-8.8" font-family="sans-serif" font-size="9.00">SmartLight</text>
</g>
<!-- v12&#45;&gt;v20 -->
<g id="edge31" class="edge"><title>v12&#45;&gt;v20</title>
<path fill="none" stroke="green" d="M683.771,-59.1266C650.135,-48.3632 593.927,-30.3767 561.548,-20.0153"/>
</g>
<!-- v21 -->
<g id="v21_Workstation" class="node"><title>v21</title>
<ellipse fill="none" stroke="black" cx="428.5" cy="-11" rx="47" ry="11"/>
<text text-anchor="middle" x="428.5" y="-8.8" font-family="sans-serif" font-size="9.00">Workstation</text>
</g>
<!-- v12&#45;&gt;v21 -->
<g id="edge32" class="edge"><title>v12&#45;&gt;v21</title>
<path fill="none" stroke="green" d="M673.039,-60.3893C617.424,-49.3842 515.426,-29.201 462.452,-18.7184"/>
</g>
<!-- v13&#45;&gt;v14 -->
<g id="edge17" class="edge"><title>v13&#45;&gt;v14</title>
<path fill="none" stroke="black" d="M169.449,-116.246C164.93,-107.52 158.244,-94.6082 153.083,-84.6435"/>
<polygon fill="black" stroke="black" points="150.689,-80.0198 154.986,-83.425 151.838,-82.2397 152.988,-84.4597 152.988,-84.4597 152.988,-84.4597 151.838,-82.2397 150.99,-85.4944 150.689,-80.0198 150.689,-80.0198"/>
</g>
<!-- v13&#45;&gt;v17 -->
<g id="edge18" class="edge"><title>v13&#45;&gt;v17</title>
<path fill="none" stroke="black" d="M179.47,-115.883C189.416,-95.6355 211.802,-50.0637 223.334,-26.5882"/>
<polygon fill="black" stroke="black" points="225.621,-21.9313 225.436,-27.4111 224.519,-24.1752 223.417,-26.4191 223.417,-26.4191 223.417,-26.4191 224.519,-24.1752 221.397,-25.427 225.621,-21.9313 225.621,-21.9313"/>
</g>
<!-- v13&#45;&gt;v18 -->
<g id="edge19" class="edge"><title>v13&#45;&gt;v18</title>
<path fill="none" stroke="black" d="M162.776,-117.458C150.518,-108.424 130.828,-93.6216 114.5,-80 92.7882,-61.8867 68.7464,-39.6851 53.8772,-25.6865"/>
<polygon fill="black" stroke="black" points="49.9361,-21.966 55.1165,-23.7622 51.754,-23.6821 53.5719,-25.3983 53.5719,-25.3983 53.5719,-25.3983 51.754,-23.6821 52.0274,-27.0345 49.9361,-21.966 49.9361,-21.966"/>
</g>
<!-- v15 -->
<g id="v15_Software" class="node"><title>v15</title>
<ellipse fill="none" stroke="black" cx="133.5" cy="-11" rx="36" ry="11"/>
<text text-anchor="middle" x="133.5" y="-8.8" font-family="sans-serif" font-size="9.00">Software</text>
</g>
<!-- v14&#45;&gt;v15 -->
<g id="edge20" class="edge"><title>v14&#45;&gt;v15</title>
<path fill="none" stroke="black" d="M143.355,-57.9883C141.534,-49.4941 138.893,-37.1697 136.804,-27.4169"/>
<polygon fill="black" stroke="black" points="135.708,-22.3039 138.956,-26.7214 136.232,-24.7484 136.756,-27.1929 136.756,-27.1929 136.756,-27.1929 136.232,-24.7484 134.556,-27.6644 135.708,-22.3039 135.708,-22.3039"/>
</g>
<!-- v19&#45;&gt;v20 -->
<g id="edge21" class="edge"><title>v19&#45;&gt;v20</title>
<path fill="none" stroke="black" d="M532.394,-57.9883C533.152,-49.4941 534.253,-37.1697 535.123,-27.4169"/>
<polygon fill="black" stroke="black" points="535.58,-22.3039 537.376,-27.4842 535.358,-24.794 535.135,-27.2841 535.135,-27.2841 535.135,-27.2841 535.358,-24.794 532.894,-27.0839 535.58,-22.3039 535.58,-22.3039"/>
</g>
<!-- v19&#45;&gt;v21 -->
<g id="edge22" class="edge"><title>v19&#45;&gt;v21</title>
<path fill="none" stroke="black" d="M517.609,-60.4476C500.252,-51.0107 470.363,-34.7603 450.031,-23.7062"/>
<polygon fill="black" stroke="black" points="445.591,-21.2924 451.059,-21.704 447.788,-22.4866 449.984,-23.6808 449.984,-23.6808 449.984,-23.6808 447.788,-22.4866 448.909,-25.6575 445.591,-21.2924 445.591,-21.2924"/>
</g>
</g>
</svg>
