<?xml version="1.0" encoding="UTF-8" standalone="no"?>
<?xml-stylesheet href="style.css" type="text/css"?>
<!DOCTYPE svg PUBLIC "-//W3C//DTD SVG 1.1//EN"
 "http://www.w3.org/Graphics/SVG/1.1/DTD/svg11.dtd">
<!-- Generated by graphviz version 2.38.0 (20140413.2041)
 -->
<!-- Title: 36.svg Pages: 1 -->
<svg width="1166pt" height="374pt"
 viewBox="0.00 0.00 1165.50 374.00" xmlns="http://www.w3.org/2000/svg" xmlns:xlink="http://www.w3.org/1999/xlink">
<g id="graph0" class="graph" transform="scale(1 1) rotate(0) translate(4 370)">
<title>36.svg</title>
<polygon fill="white" stroke="none" points="-4,4 -4,-370 1161.5,-370 1161.5,4 -4,4"/>
<!-- r0 -->
<g id="node1" class="node"><title>r0</title>
<polygon fill="none" stroke="black" stroke-dasharray="5,2" points="645,-366 622,-366 622,-348 645,-348 645,-366"/>
<text text-anchor="middle" x="633.5" y="-354.8" font-family="serif" font-size="9.00">0</text>
</g>
<!-- v0 -->
<g id="v0_Building" class="node"><title>v0</title>
<ellipse fill="none" stroke="black" cx="633.5" cy="-301" rx="36" ry="11"/>
<text text-anchor="middle" x="633.5" y="-298.8" font-family="sans-serif" font-size="9.00">Building</text>
</g>
<!-- r0&#45;&gt;v0 -->
<g id="edge1" class="edge"><title>r0&#45;&gt;v0</title>
<path fill="none" stroke="black" d="M633.5,-347.562C633.5,-339.453 633.5,-327.014 633.5,-317.181"/>
<polygon fill="black" stroke="black" points="633.5,-312.03 635.75,-317.03 633.5,-314.53 633.5,-317.03 633.5,-317.03 633.5,-317.03 633.5,-314.53 631.25,-317.03 633.5,-312.03 633.5,-312.03"/>
</g>
<!-- r1 -->
<g id="node2" class="node"><title>r1</title>
<polygon fill="none" stroke="black" stroke-dasharray="5,2" points="1003,-366 980,-366 980,-348 1003,-348 1003,-366"/>
<text text-anchor="middle" x="991.5" y="-354.8" font-family="serif" font-size="9.00">1</text>
</g>
<!-- v6 -->
<g id="v6_RulesKeywords" class="node"><title>v6</title>
<ellipse fill="none" stroke="black" cx="991.5" cy="-69" rx="54" ry="11"/>
<text text-anchor="middle" x="991.5" y="-66.8" font-family="sans-serif" font-size="9.00">RulesKeywords</text>
</g>
<!-- r1&#45;&gt;v6 -->
<g id="edge2" class="edge"><title>r1&#45;&gt;v6</title>
<path fill="none" stroke="black" d="M991.5,-347.849C991.5,-329.373 991.5,-282.889 991.5,-244 991.5,-244 991.5,-244 991.5,-184 991.5,-148.604 991.5,-107.026 991.5,-85.1783"/>
<polygon fill="black" stroke="black" points="991.5,-80.0648 993.75,-85.0648 991.5,-82.5648 991.5,-85.0648 991.5,-85.0648 991.5,-85.0648 991.5,-82.5648 989.25,-85.0648 991.5,-80.0648 991.5,-80.0648"/>
</g>
<!-- e3 -->
<g id="node3" class="node"><title>e3</title>
</g>
<!-- v5 -->
<g id="v5_Laptop" class="node"><title>v5</title>
<ellipse fill="none" stroke="black" cx="184.5" cy="-69" rx="29" ry="11"/>
<text text-anchor="middle" x="184.5" y="-66.8" font-family="sans-serif" font-size="9.00">Laptop</text>
</g>
<!-- e3&#45;&gt;v5 -->
<g id="edge26" class="edge"><title>e3&#45;&gt;v5</title>
<path fill="none" stroke="green" d="M184.5,-122.167C184.5,-113.586 184.5,-92.5957 184.5,-80.0117"/>
<polygon fill="green" stroke="green" points="188,-125.3 181,-125.3 181,-123.9 188,-123.9 188,-125.3"/>
<polyline fill="none" stroke="green" points="184.5,-126 184.5,-122.5 "/>
</g>
<!-- v1 -->
<g id="v1_Floor" class="node"><title>v1</title>
<ellipse fill="none" stroke="black" cx="508.5" cy="-243" rx="25" ry="11"/>
<text text-anchor="middle" x="508.5" y="-240.8" font-family="sans-serif" font-size="9.00">Floor</text>
</g>
<!-- v0&#45;&gt;v1 -->
<g id="edge3" class="edge"><title>v0&#45;&gt;v1</title>
<path fill="none" stroke="black" d="M614.515,-291.495C591.688,-281.268 553.487,-264.154 529.711,-253.503"/>
<polygon fill="black" stroke="black" points="524.868,-251.333 530.351,-251.324 527.149,-252.355 529.431,-253.377 529.431,-253.377 529.431,-253.377 527.149,-252.355 528.511,-255.43 524.868,-251.333 524.868,-251.333"/>
</g>
<!-- v17 -->
<g id="v17_InstallationBus" class="node"><title>v17</title>
<ellipse fill="none" stroke="black" cx="762.5" cy="-69" rx="61" ry="11"/>
<text text-anchor="middle" x="762.5" y="-66.8" font-family="sans-serif" font-size="9.00">InstallationBus</text>
</g>
<!-- v0&#45;&gt;v17 -->
<g id="edge4" class="edge"><title>v0&#45;&gt;v17</title>
<path fill="none" stroke="black" d="M639.043,-290.117C659.382,-253.854 729.982,-127.979 754.24,-84.7276"/>
<polygon fill="black" stroke="black" points="756.832,-80.105 756.349,-85.5666 755.609,-82.2855 754.386,-84.4659 754.386,-84.4659 754.386,-84.4659 755.609,-82.2855 752.424,-83.3653 756.832,-80.105 756.832,-80.105"/>
</g>
<!-- v2 -->
<g id="v2_Hallway" class="node"><title>v2</title>
<ellipse fill="none" stroke="black" cx="32.5" cy="-11" rx="32.5" ry="11"/>
<text text-anchor="middle" x="32.5" y="-8.8" font-family="sans-serif" font-size="9.00">Hallway</text>
</g>
<!-- v1&#45;&gt;v2 -->
<g id="edge5" class="edge"><title>v1&#45;&gt;v2</title>
<path fill="none" stroke="black" d="M484.8,-239.274C403.24,-229.461 135.699,-193.548 72.5,-138 39.8297,-109.284 33.6094,-54.0302 32.5819,-27.2689"/>
<polygon fill="black" stroke="black" points="32.4338,-22.0106 34.8237,-26.9452 32.5042,-24.5096 32.5746,-27.0086 32.5746,-27.0086 32.5746,-27.0086 32.5042,-24.5096 30.3255,-27.072 32.4338,-22.0106 32.4338,-22.0106"/>
</g>
<!-- v3 -->
<g id="v3_Room" class="node"><title>v3</title>
<ellipse fill="none" stroke="black" cx="306.5" cy="-185" rx="21.5" ry="11"/>
<text text-anchor="middle" x="306.5" y="-182.8" font-family="sans-serif" font-size="9.00">Room</text>
</g>
<!-- v1&#45;&gt;v3 -->
<g id="edge6" class="edge"><title>v1&#45;&gt;v3</title>
<path fill="none" stroke="black" d="M488.393,-236.426C450.764,-225.994 369.905,-203.578 329.899,-192.487"/>
<polygon fill="black" stroke="black" points="324.766,-191.064 330.185,-190.231 327.175,-191.732 329.584,-192.4 329.584,-192.4 329.584,-192.4 327.175,-191.732 328.983,-194.568 324.766,-191.064 324.766,-191.064"/>
</g>
<!-- v15 -->
<g id="v15_Room" class="node"><title>v15</title>
<ellipse fill="none" stroke="black" cx="508.5" cy="-69" rx="21.5" ry="11"/>
<text text-anchor="middle" x="508.5" y="-66.8" font-family="sans-serif" font-size="9.00">Room</text>
</g>
<!-- v1&#45;&gt;v15 -->
<g id="edge7" class="edge"><title>v1&#45;&gt;v15</title>
<path fill="none" stroke="black" d="M508.5,-231.756C508.5,-202.786 508.5,-120.136 508.5,-85.5335"/>
<polygon fill="black" stroke="black" points="508.5,-80.4081 510.75,-85.408 508.5,-82.9081 508.5,-85.4081 508.5,-85.4081 508.5,-85.4081 508.5,-82.9081 506.25,-85.4081 508.5,-80.4081 508.5,-80.4081"/>
</g>
<!-- v19 -->
<g id="v19_Room" class="node"><title>v19</title>
<ellipse fill="none" stroke="black" cx="612.5" cy="-69" rx="21.5" ry="11"/>
<text text-anchor="middle" x="612.5" y="-66.8" font-family="sans-serif" font-size="9.00">Room</text>
</g>
<!-- v1&#45;&gt;v19 -->
<g id="edge8" class="edge"><title>v1&#45;&gt;v19</title>
<path fill="none" stroke="black" d="M514.389,-232.26C531.837,-203.405 583.313,-118.271 603.874,-84.2667"/>
<polygon fill="black" stroke="black" points="606.675,-79.6335 606.013,-85.0763 605.382,-81.7728 604.088,-83.9121 604.088,-83.9121 604.088,-83.9121 605.382,-81.7728 602.163,-82.7479 606.675,-79.6335 606.675,-79.6335"/>
</g>
<!-- v2&#45;&gt;v3 -->
<g id="edge23" class="edge"><title>v2&#45;&gt;v3</title>
<path fill="none" stroke="green" d="M35.8711,-21.9789C45.1777,-48.957 71.8384,-122.365 91.5,-138 121.6,-161.936 237.517,-176.691 285.509,-181.888"/>
</g>
<!-- v2&#45;&gt;v15 -->
<g id="edge24" class="edge"><title>v2&#45;&gt;v15</title>
<path fill="none" stroke="green" d="M56.821,-18.3488C62.5874,-19.6988 68.7375,-21.0128 74.5,-22 231.704,-48.9317 423.818,-62.6749 487.142,-66.7095"/>
</g>
<!-- v2&#45;&gt;v19 -->
<g id="edge25" class="edge"><title>v2&#45;&gt;v19</title>
<path fill="none" stroke="green" d="M56.8016,-18.4667C62.5689,-19.8118 68.7241,-21.094 74.5,-22 278.843,-54.0523 332.816,-36.1412 538.5,-58 556.806,-59.9454 577.572,-62.8094 592.436,-64.9744"/>
</g>
<!-- v4 -->
<g id="v4_Visitor" class="node"><title>v4</title>
<ellipse fill="none" stroke="black" cx="133.5" cy="-127" rx="32.5" ry="11"/>
<text text-anchor="middle" x="133.5" y="-124.8" font-family="sans-serif" font-size="9.00">Visitor</text>
</g>
<!-- v3&#45;&gt;v4 -->
<g id="edge9" class="edge"><title>v3&#45;&gt;v4</title>
<path fill="none" stroke="black" d="M288.96,-178.322C258.748,-168.543 196.687,-148.454 160.789,-136.833"/>
<polygon fill="black" stroke="black" points="155.689,-135.183 161.139,-134.582 158.067,-135.952 160.446,-136.722 160.446,-136.722 160.446,-136.722 158.067,-135.952 159.753,-138.863 155.689,-135.183 155.689,-135.183"/>
</g>
<!-- v9 -->
<g id="v9_HVAC" class="node"><title>v9</title>
<ellipse fill="none" stroke="black" cx="254.5" cy="-69" rx="21.5" ry="11"/>
<text text-anchor="middle" x="254.5" y="-66.8" font-family="sans-serif" font-size="9.00">HVAC</text>
</g>
<!-- v3&#45;&gt;v9 -->
<g id="edge10" class="edge"><title>v3&#45;&gt;v9</title>
<path fill="none" stroke="black" d="M301.885,-173.883C292.65,-153.636 271.862,-108.064 261.154,-84.5882"/>
<polygon fill="black" stroke="black" points="259.03,-79.9313 263.152,-83.5466 260.068,-82.2058 261.105,-84.4804 261.105,-84.4804 261.105,-84.4804 260.068,-82.2058 259.058,-85.4142 259.03,-79.9313 259.03,-79.9313"/>
</g>
<!-- v11 -->
<g id="v11_SmartLight" class="node"><title>v11</title>
<ellipse fill="none" stroke="black" cx="306.5" cy="-11" rx="43" ry="11"/>
<text text-anchor="middle" x="306.5" y="-8.8" font-family="sans-serif" font-size="9.00">SmartLight</text>
</g>
<!-- v3&#45;&gt;v11 -->
<g id="edge11" class="edge"><title>v3&#45;&gt;v11</title>
<path fill="none" stroke="black" d="M306.5,-173.756C306.5,-144.786 306.5,-62.1364 306.5,-27.5335"/>
<polygon fill="black" stroke="black" points="306.5,-22.4081 308.75,-27.408 306.5,-24.9081 306.5,-27.4081 306.5,-27.4081 306.5,-27.4081 306.5,-24.9081 304.25,-27.4081 306.5,-22.4081 306.5,-22.4081"/>
</g>
<!-- v12 -->
<g id="v12_FireAlarm" class="node"><title>v12</title>
<ellipse fill="none" stroke="black" cx="407.5" cy="-11" rx="39.5" ry="11"/>
<text text-anchor="middle" x="407.5" y="-8.8" font-family="sans-serif" font-size="9.00">FireAlarm</text>
</g>
<!-- v3&#45;&gt;v12 -->
<g id="edge12" class="edge"><title>v3&#45;&gt;v12</title>
<path fill="none" stroke="black" d="M312.22,-174.26C329.084,-145.54 378.686,-61.0692 398.839,-26.749"/>
<polygon fill="black" stroke="black" points="401.592,-22.0619 401,-27.5128 400.326,-24.2177 399.06,-26.3735 399.06,-26.3735 399.06,-26.3735 400.326,-24.2177 397.119,-25.2342 401.592,-22.0619 401.592,-22.0619"/>
</g>
<!-- v4&#45;&gt;v5 -->
<g id="edge13" class="edge"><title>v4&#45;&gt;v5</title>
<path fill="none" stroke="black" d="M142.384,-116.246C150.647,-107.172 163.035,-93.5697 172.238,-83.4636"/>
<polygon fill="black" stroke="black" points="175.718,-79.6427 174.015,-84.8544 174.035,-81.491 172.352,-83.3394 172.352,-83.3394 172.352,-83.3394 174.035,-81.491 170.688,-81.8244 175.718,-79.6427 175.718,-79.6427"/>
</g>
<!-- v8 -->
<g id="v8_Software" class="node"><title>v8</title>
<ellipse fill="none" stroke="black" cx="119.5" cy="-11" rx="36" ry="11"/>
<text text-anchor="middle" x="119.5" y="-8.8" font-family="sans-serif" font-size="9.00">Software</text>
</g>
<!-- v5&#45;&gt;v8 -->
<g id="edge14" class="edge"><title>v5&#45;&gt;v8</title>
<path fill="none" stroke="black" d="M173.767,-58.7527C163.141,-49.5981 146.77,-35.4938 134.787,-25.1701"/>
<polygon fill="black" stroke="black" points="130.906,-21.8266 136.163,-23.3855 132.8,-23.4583 134.694,-25.0901 134.694,-25.0901 134.694,-25.0901 132.8,-23.4583 133.225,-26.7948 130.906,-21.8266 130.906,-21.8266"/>
</g>
<!-- v7 -->
<g id="v7_ExitRoom" class="node"><title>v7</title>
<ellipse fill="none" stroke="black" cx="883.5" cy="-11" rx="36" ry="11"/>
<text text-anchor="middle" x="883.5" y="-8.8" font-family="sans-serif" font-size="9.00">ExitRoom</text>
</g>
<!-- v6&#45;&gt;v7 -->
<g id="edge15" class="edge"><title>v6&#45;&gt;v7</title>
<path fill="none" stroke="black" d="M973.179,-58.5004C954.348,-48.7358 925.038,-33.538 905.091,-23.1953"/>
<polygon fill="black" stroke="black" points="900.485,-20.8068 905.959,-21.111 902.704,-21.9576 904.923,-23.1084 904.923,-23.1084 904.923,-23.1084 902.704,-21.9576 903.888,-25.1059 900.485,-20.8068 900.485,-20.8068"/>
</g>
<!-- v13 -->
<g id="v13_ConnectDevice" class="node"><title>v13</title>
<ellipse fill="none" stroke="black" cx="991.5" cy="-11" rx="54" ry="11"/>
<text text-anchor="middle" x="991.5" y="-8.8" font-family="sans-serif" font-size="9.00">ConnectDevice</text>
</g>
<!-- v6&#45;&gt;v13 -->
<g id="edge16" class="edge"><title>v6&#45;&gt;v13</title>
<path fill="none" stroke="black" d="M991.5,-57.9883C991.5,-49.4941 991.5,-37.1697 991.5,-27.4169"/>
<polygon fill="black" stroke="black" points="991.5,-22.3039 993.75,-27.3038 991.5,-24.8039 991.5,-27.3039 991.5,-27.3039 991.5,-27.3039 991.5,-24.8039 989.25,-27.3039 991.5,-22.3039 991.5,-22.3039"/>
</g>
<!-- v14 -->
<g id="v14_CollectData" class="node"><title>v14</title>
<ellipse fill="none" stroke="black" cx="1110.5" cy="-11" rx="47" ry="11"/>
<text text-anchor="middle" x="1110.5" y="-8.8" font-family="sans-serif" font-size="9.00">CollectData</text>
</g>
<!-- v6&#45;&gt;v14 -->
<g id="edge17" class="edge"><title>v6&#45;&gt;v14</title>
<path fill="none" stroke="black" d="M1011.15,-58.7527C1031.86,-49.0079 1064.48,-33.6544 1086.65,-23.2227"/>
<polygon fill="black" stroke="black" points="1091.22,-21.0752 1087.65,-25.2401 1088.95,-22.1397 1086.69,-23.2042 1086.69,-23.2042 1086.69,-23.2042 1088.95,-22.1397 1085.73,-21.1684 1091.22,-21.0752 1091.22,-21.0752"/>
</g>
<!-- v10 -->
<g id="v10_Software" class="node"><title>v10</title>
<ellipse fill="none" stroke="black" cx="209.5" cy="-11" rx="36" ry="11"/>
<text text-anchor="middle" x="209.5" y="-8.8" font-family="sans-serif" font-size="9.00">Software</text>
</g>
<!-- v9&#45;&gt;v10 -->
<g id="edge18" class="edge"><title>v9&#45;&gt;v10</title>
<path fill="none" stroke="black" d="M246.866,-58.5004C239.757,-49.6537 229.065,-36.3472 220.937,-26.2321"/>
<polygon fill="black" stroke="black" points="217.628,-22.1148 222.514,-24.603 219.194,-24.0636 220.76,-26.0124 220.76,-26.0124 220.76,-26.0124 219.194,-24.0636 219.006,-27.4218 217.628,-22.1148 217.628,-22.1148"/>
</g>
<!-- v9&#45;&gt;v17 -->
<g id="edge27" class="edge"><title>v9&#45;&gt;v17</title>
<path fill="none" stroke="green" d="M274.678,-73.1927C331.349,-84.3972 496.749,-113.182 633.5,-98 666.923,-94.2894 704.339,-85.3286 730.231,-78.3417"/>
</g>
<!-- v11&#45;&gt;v17 -->
<g id="edge28" class="edge"><title>v11&#45;&gt;v17</title>
<path fill="none" stroke="green" d="M338.333,-18.5219C344.981,-19.7713 351.957,-20.9999 358.5,-22 484.107,-41.1996 632.811,-56.1415 710.033,-63.321"/>
</g>
<!-- v12&#45;&gt;v17 -->
<g id="edge29" class="edge"><title>v12&#45;&gt;v17</title>
<path fill="none" stroke="green" d="M437.252,-18.3301C443.593,-19.6068 450.259,-20.8948 456.5,-22 548.28,-38.2524 656.208,-53.604 716.239,-61.8108"/>
</g>
<!-- v16 -->
<g id="v16_SmartLight" class="node"><title>v16</title>
<ellipse fill="none" stroke="black" cx="508.5" cy="-11" rx="43" ry="11"/>
<text text-anchor="middle" x="508.5" y="-8.8" font-family="sans-serif" font-size="9.00">SmartLight</text>
</g>
<!-- v15&#45;&gt;v16 -->
<g id="edge19" class="edge"><title>v15&#45;&gt;v16</title>
<path fill="none" stroke="black" d="M508.5,-57.9883C508.5,-49.4941 508.5,-37.1697 508.5,-27.4169"/>
<polygon fill="black" stroke="black" points="508.5,-22.3039 510.75,-27.3038 508.5,-24.8039 508.5,-27.3039 508.5,-27.3039 508.5,-27.3039 508.5,-24.8039 506.25,-27.3039 508.5,-22.3039 508.5,-22.3039"/>
</g>
<!-- v16&#45;&gt;v17 -->
<g id="edge30" class="edge"><title>v16&#45;&gt;v17</title>
<path fill="none" stroke="green" d="M539.389,-18.8103C586.629,-29.2254 676.597,-49.0607 726.647,-60.0953"/>
</g>
<!-- v18 -->
<g id="v18_Data" class="node"><title>v18</title>
<ellipse fill="none" stroke="black" cx="807.5" cy="-11" rx="21.5" ry="11"/>
<text text-anchor="middle" x="807.5" y="-8.8" font-family="sans-serif" font-size="9.00">Data</text>
</g>
<!-- v17&#45;&gt;v18 -->
<g id="edge20" class="edge"><title>v17&#45;&gt;v18</title>
<path fill="none" stroke="black" d="M770.545,-57.9883C777.801,-48.9593 788.534,-35.6025 796.566,-25.6069"/>
<polygon fill="black" stroke="black" points="799.825,-21.5512 798.447,-26.8582 798.259,-23.5 796.693,-25.4488 796.693,-25.4488 796.693,-25.4488 798.259,-23.5 794.939,-24.0394 799.825,-21.5512 799.825,-21.5512"/>
</g>
<!-- v20 -->
<g id="v20_SmartLight" class="node"><title>v20</title>
<ellipse fill="none" stroke="black" cx="612.5" cy="-11" rx="43" ry="11"/>
<text text-anchor="middle" x="612.5" y="-8.8" font-family="sans-serif" font-size="9.00">SmartLight</text>
</g>
<!-- v17&#45;&gt;v20 -->
<g id="edge31" class="edge"><title>v17&#45;&gt;v20</title>
<path fill="none" stroke="green" d="M738.066,-58.878C709.509,-48.2165 662.643,-30.7199 634.962,-20.3857"/>
</g>
<!-- v21 -->
<g id="v21_Workstation" class="node"><title>v21</title>
<ellipse fill="none" stroke="black" cx="720.5" cy="-11" rx="47" ry="11"/>
<text text-anchor="middle" x="720.5" y="-8.8" font-family="sans-serif" font-size="9.00">Workstation</text>
</g>
<!-- v17&#45;&gt;v21 -->
<g id="edge32" class="edge"><title>v17&#45;&gt;v21</title>
<path fill="none" stroke="green" d="M754.991,-57.9883C747.346,-47.7952 735.565,-32.0867 727.944,-21.925"/>
</g>
<!-- v19&#45;&gt;v20 -->
<g id="edge21" class="edge"><title>v19&#45;&gt;v20</title>
<path fill="none" stroke="black" d="M612.5,-57.9883C612.5,-49.4941 612.5,-37.1697 612.5,-27.4169"/>
<polygon fill="black" stroke="black" points="612.5,-22.3039 614.75,-27.3038 612.5,-24.8039 612.5,-27.3039 612.5,-27.3039 612.5,-27.3039 612.5,-24.8039 610.25,-27.3039 612.5,-22.3039 612.5,-22.3039"/>
</g>
<!-- v19&#45;&gt;v21 -->
<g id="edge22" class="edge"><title>v19&#45;&gt;v21</title>
<path fill="none" stroke="black" d="M626.619,-60.679C644.692,-51.3076 676.232,-34.9536 697.722,-23.8106"/>
<polygon fill="black" stroke="black" points="702.416,-21.3771 699.013,-25.6762 700.196,-22.5279 697.977,-23.6787 697.977,-23.6787 697.977,-23.6787 700.196,-22.5279 696.941,-21.6813 702.416,-21.3771 702.416,-21.3771"/>
</g>
</g>
</svg>
