<?xml version="1.0" encoding="UTF-8" standalone="no"?>
<?xml-stylesheet href="style.css" type="text/css"?>
<!DOCTYPE svg PUBLIC "-//W3C//DTD SVG 1.1//EN"
 "http://www.w3.org/Graphics/SVG/1.1/DTD/svg11.dtd">
<!-- Generated by graphviz version 2.38.0 (20140413.2041)
 -->
<!-- Title: 40.svg Pages: 1 -->
<svg width="1116pt" height="374pt"
 viewBox="0.00 0.00 1115.50 374.00" xmlns="http://www.w3.org/2000/svg" xmlns:xlink="http://www.w3.org/1999/xlink">
<g id="graph0" class="graph" transform="scale(1 1) rotate(0) translate(4 370)">
<title>40.svg</title>
<polygon fill="white" stroke="none" points="-4,4 -4,-370 1111.5,-370 1111.5,4 -4,4"/>
<!-- r0 -->
<g id="node1" class="node"><title>r0</title>
<polygon fill="none" stroke="black" stroke-dasharray="5,2" points="678,-366 655,-366 655,-348 678,-348 678,-366"/>
<text text-anchor="middle" x="666.5" y="-354.8" font-family="serif" font-size="9.00">0</text>
</g>
<!-- v0 -->
<g id="v0_Building" class="node"><title>v0</title>
<ellipse fill="none" stroke="black" cx="666.5" cy="-301" rx="36" ry="11"/>
<text text-anchor="middle" x="666.5" y="-298.8" font-family="sans-serif" font-size="9.00">Building</text>
</g>
<!-- r0&#45;&gt;v0 -->
<g id="edge1" class="edge"><title>r0&#45;&gt;v0</title>
<path fill="none" stroke="black" d="M666.5,-347.562C666.5,-339.453 666.5,-327.014 666.5,-317.181"/>
<polygon fill="black" stroke="black" points="666.5,-312.03 668.75,-317.03 666.5,-314.53 666.5,-317.03 666.5,-317.03 666.5,-317.03 666.5,-314.53 664.25,-317.03 666.5,-312.03 666.5,-312.03"/>
</g>
<!-- r1 -->
<g id="node2" class="node"><title>r1</title>
<polygon fill="none" stroke="black" stroke-dasharray="5,2" points="1011,-366 988,-366 988,-348 1011,-348 1011,-366"/>
<text text-anchor="middle" x="999.5" y="-354.8" font-family="serif" font-size="9.00">1</text>
</g>
<!-- v6 -->
<g id="v6_RulesKeywords" class="node"><title>v6</title>
<ellipse fill="none" stroke="black" cx="999.5" cy="-69" rx="54" ry="11"/>
<text text-anchor="middle" x="999.5" y="-66.8" font-family="sans-serif" font-size="9.00">RulesKeywords</text>
</g>
<!-- r1&#45;&gt;v6 -->
<g id="edge2" class="edge"><title>r1&#45;&gt;v6</title>
<path fill="none" stroke="black" d="M999.5,-347.849C999.5,-329.373 999.5,-282.889 999.5,-244 999.5,-244 999.5,-244 999.5,-184 999.5,-148.604 999.5,-107.026 999.5,-85.1783"/>
<polygon fill="black" stroke="black" points="999.5,-80.0648 1001.75,-85.0648 999.5,-82.5648 999.5,-85.0648 999.5,-85.0648 999.5,-85.0648 999.5,-82.5648 997.25,-85.0648 999.5,-80.0648 999.5,-80.0648"/>
</g>
<!-- e3 -->
<g id="node3" class="node"><title>e3</title>
</g>
<!-- v5 -->
<g id="v5_Laptop" class="node"><title>v5</title>
<ellipse fill="none" stroke="black" cx="182.5" cy="-69" rx="29" ry="11"/>
<text text-anchor="middle" x="182.5" y="-66.8" font-family="sans-serif" font-size="9.00">Laptop</text>
</g>
<!-- e3&#45;&gt;v5 -->
<g id="edge26" class="edge"><title>e3&#45;&gt;v5</title>
<path fill="none" stroke="green" d="M182.5,-122.167C182.5,-113.586 182.5,-92.5957 182.5,-80.0117"/>
<polygon fill="green" stroke="green" points="186,-125.3 179,-125.3 179,-123.9 186,-123.9 186,-125.3"/>
<polyline fill="none" stroke="green" points="182.5,-126 182.5,-122.5 "/>
</g>
<!-- v1 -->
<g id="v1_Floor" class="node"><title>v1</title>
<ellipse fill="none" stroke="black" cx="570.5" cy="-243" rx="25" ry="11"/>
<text text-anchor="middle" x="570.5" y="-240.8" font-family="sans-serif" font-size="9.00">Floor</text>
</g>
<!-- v0&#45;&gt;v1 -->
<g id="edge3" class="edge"><title>v0&#45;&gt;v1</title>
<path fill="none" stroke="black" d="M651.076,-291.003C634.17,-281.141 607.056,-265.324 589.014,-254.8"/>
<polygon fill="black" stroke="black" points="584.634,-252.245 590.087,-252.821 586.794,-253.505 588.953,-254.765 588.953,-254.765 588.953,-254.765 586.794,-253.505 587.82,-256.708 584.634,-252.245 584.634,-252.245"/>
</g>
<!-- v17 -->
<g id="v17_InstallationBus" class="node"><title>v17</title>
<ellipse fill="none" stroke="black" cx="795.5" cy="-69" rx="61" ry="11"/>
<text text-anchor="middle" x="795.5" y="-66.8" font-family="sans-serif" font-size="9.00">InstallationBus</text>
</g>
<!-- v0&#45;&gt;v17 -->
<g id="edge4" class="edge"><title>v0&#45;&gt;v17</title>
<path fill="none" stroke="black" d="M672.043,-290.117C692.382,-253.854 762.982,-127.979 787.24,-84.7276"/>
<polygon fill="black" stroke="black" points="789.832,-80.105 789.349,-85.5666 788.609,-82.2855 787.386,-84.4659 787.386,-84.4659 787.386,-84.4659 788.609,-82.2855 785.424,-83.3653 789.832,-80.105 789.832,-80.105"/>
</g>
<!-- v2 -->
<g id="v2_Hallway" class="node"><title>v2</title>
<ellipse fill="none" stroke="black" cx="32.5" cy="-11" rx="32.5" ry="11"/>
<text text-anchor="middle" x="32.5" y="-8.8" font-family="sans-serif" font-size="9.00">Hallway</text>
</g>
<!-- v1&#45;&gt;v2 -->
<g id="edge5" class="edge"><title>v1&#45;&gt;v2</title>
<path fill="none" stroke="black" d="M546.241,-239.958C456.519,-231.962 144.824,-200.119 70.5,-138 37.2747,-110.231 32.4172,-54.5218 32.135,-27.4604"/>
<polygon fill="black" stroke="black" points="32.1357,-22.1409 34.3849,-27.1413 32.1353,-24.6409 32.1349,-27.1409 32.1349,-27.1409 32.1349,-27.1409 32.1353,-24.6409 29.8849,-27.1406 32.1357,-22.1409 32.1357,-22.1409"/>
</g>
<!-- v3 -->
<g id="v3_Room" class="node"><title>v3</title>
<ellipse fill="none" stroke="black" cx="368.5" cy="-185" rx="21.5" ry="11"/>
<text text-anchor="middle" x="368.5" y="-182.8" font-family="sans-serif" font-size="9.00">Room</text>
</g>
<!-- v1&#45;&gt;v3 -->
<g id="edge6" class="edge"><title>v1&#45;&gt;v3</title>
<path fill="none" stroke="black" d="M550.393,-236.426C512.764,-225.994 431.905,-203.578 391.899,-192.487"/>
<polygon fill="black" stroke="black" points="386.766,-191.064 392.185,-190.231 389.175,-191.732 391.584,-192.4 391.584,-192.4 391.584,-192.4 389.175,-191.732 390.983,-194.568 386.766,-191.064 386.766,-191.064"/>
</g>
<!-- v15 -->
<g id="v15_Room" class="node"><title>v15</title>
<ellipse fill="none" stroke="black" cx="570.5" cy="-69" rx="21.5" ry="11"/>
<text text-anchor="middle" x="570.5" y="-66.8" font-family="sans-serif" font-size="9.00">Room</text>
</g>
<!-- v1&#45;&gt;v15 -->
<g id="edge7" class="edge"><title>v1&#45;&gt;v15</title>
<path fill="none" stroke="black" d="M570.5,-231.756C570.5,-202.786 570.5,-120.136 570.5,-85.5335"/>
<polygon fill="black" stroke="black" points="570.5,-80.4081 572.75,-85.408 570.5,-82.9081 570.5,-85.4081 570.5,-85.4081 570.5,-85.4081 570.5,-82.9081 568.25,-85.4081 570.5,-80.4081 570.5,-80.4081"/>
</g>
<!-- v19 -->
<g id="v19_Room" class="node"><title>v19</title>
<ellipse fill="none" stroke="black" cx="674.5" cy="-69" rx="21.5" ry="11"/>
<text text-anchor="middle" x="674.5" y="-66.8" font-family="sans-serif" font-size="9.00">Room</text>
</g>
<!-- v1&#45;&gt;v19 -->
<g id="edge8" class="edge"><title>v1&#45;&gt;v19</title>
<path fill="none" stroke="black" d="M576.389,-232.26C593.837,-203.405 645.313,-118.271 665.874,-84.2667"/>
<polygon fill="black" stroke="black" points="668.675,-79.6335 668.013,-85.0763 667.382,-81.7728 666.088,-83.9121 666.088,-83.9121 666.088,-83.9121 667.382,-81.7728 664.163,-82.7479 668.675,-79.6335 668.675,-79.6335"/>
</g>
<!-- v2&#45;&gt;v3 -->
<g id="edge23" class="edge"><title>v2&#45;&gt;v3</title>
<path fill="none" stroke="green" d="M35.6712,-22.0244C44.4435,-49.1187 69.6931,-122.796 89.5,-138 129.999,-169.088 288.871,-180.025 347.024,-183.034"/>
</g>
<!-- v2&#45;&gt;v15 -->
<g id="edge24" class="edge"><title>v2&#45;&gt;v15</title>
<path fill="none" stroke="green" d="M56.8118,-18.4037C62.5786,-19.7514 68.7311,-21.0506 74.5,-22 256.685,-51.9827 479.974,-63.9496 549.092,-67.0966"/>
</g>
<!-- v2&#45;&gt;v19 -->
<g id="edge25" class="edge"><title>v2&#45;&gt;v19</title>
<path fill="none" stroke="green" d="M56.7958,-18.5048C62.5632,-19.8483 68.7201,-21.1203 74.5,-22 306.157,-57.2577 367.377,-34.297 600.5,-58 618.814,-59.8621 639.579,-62.7353 654.442,-64.9248"/>
</g>
<!-- v4 -->
<g id="v4_Visitor" class="node"><title>v4</title>
<ellipse fill="none" stroke="black" cx="131.5" cy="-127" rx="32.5" ry="11"/>
<text text-anchor="middle" x="131.5" y="-124.8" font-family="sans-serif" font-size="9.00">Visitor</text>
</g>
<!-- v3&#45;&gt;v4 -->
<g id="edge9" class="edge"><title>v3&#45;&gt;v4</title>
<path fill="none" stroke="black" d="M349.566,-179.614C314.575,-171.496 237.426,-153.536 172.5,-138 168.973,-137.156 165.277,-136.264 161.609,-135.375"/>
<polygon fill="black" stroke="black" points="156.644,-134.169 162.034,-133.163 159.073,-134.759 161.502,-135.35 161.502,-135.35 161.502,-135.35 159.073,-134.759 160.971,-137.536 156.644,-134.169 156.644,-134.169"/>
</g>
<!-- v10 -->
<g id="v10_HVAC" class="node"><title>v10</title>
<ellipse fill="none" stroke="black" cx="286.5" cy="-69" rx="21.5" ry="11"/>
<text text-anchor="middle" x="286.5" y="-66.8" font-family="sans-serif" font-size="9.00">HVAC</text>
</g>
<!-- v3&#45;&gt;v10 -->
<g id="edge10" class="edge"><title>v3&#45;&gt;v10</title>
<path fill="none" stroke="black" d="M361.509,-174.28C346.924,-154.005 313.219,-107.146 296.408,-83.774"/>
<polygon fill="black" stroke="black" points="293.474,-79.695 298.22,-82.4402 294.933,-81.7245 296.393,-83.754 296.393,-83.754 296.393,-83.754 294.933,-81.7245 294.567,-85.0679 293.474,-79.695 293.474,-79.695"/>
</g>
<!-- v12 -->
<g id="v12_SmartLight" class="node"><title>v12</title>
<ellipse fill="none" stroke="black" cx="368.5" cy="-11" rx="43" ry="11"/>
<text text-anchor="middle" x="368.5" y="-8.8" font-family="sans-serif" font-size="9.00">SmartLight</text>
</g>
<!-- v3&#45;&gt;v12 -->
<g id="edge11" class="edge"><title>v3&#45;&gt;v12</title>
<path fill="none" stroke="black" d="M368.5,-173.756C368.5,-144.786 368.5,-62.1364 368.5,-27.5335"/>
<polygon fill="black" stroke="black" points="368.5,-22.4081 370.75,-27.408 368.5,-24.9081 368.5,-27.4081 368.5,-27.4081 368.5,-27.4081 368.5,-24.9081 366.25,-27.4081 368.5,-22.4081 368.5,-22.4081"/>
</g>
<!-- v13 -->
<g id="v13_FireAlarm" class="node"><title>v13</title>
<ellipse fill="none" stroke="black" cx="469.5" cy="-11" rx="39.5" ry="11"/>
<text text-anchor="middle" x="469.5" y="-8.8" font-family="sans-serif" font-size="9.00">FireAlarm</text>
</g>
<!-- v3&#45;&gt;v13 -->
<g id="edge12" class="edge"><title>v3&#45;&gt;v13</title>
<path fill="none" stroke="black" d="M374.22,-174.26C391.084,-145.54 440.686,-61.0692 460.839,-26.749"/>
<polygon fill="black" stroke="black" points="463.592,-22.0619 463,-27.5128 462.326,-24.2177 461.06,-26.3735 461.06,-26.3735 461.06,-26.3735 462.326,-24.2177 459.119,-25.2342 463.592,-22.0619 463.592,-22.0619"/>
</g>
<!-- v4&#45;&gt;v5 -->
<g id="edge13" class="edge"><title>v4&#45;&gt;v5</title>
<path fill="none" stroke="black" d="M140.384,-116.246C148.647,-107.172 161.035,-93.5697 170.238,-83.4636"/>
<polygon fill="black" stroke="black" points="173.718,-79.6427 172.015,-84.8544 172.035,-81.491 170.352,-83.3394 170.352,-83.3394 170.352,-83.3394 172.035,-81.491 168.688,-81.8244 173.718,-79.6427 173.718,-79.6427"/>
</g>
<!-- v8 -->
<g id="v8_Data" class="node"><title>v8</title>
<ellipse fill="none" stroke="black" cx="105.5" cy="-11" rx="21.5" ry="11"/>
<text text-anchor="middle" x="105.5" y="-8.8" font-family="sans-serif" font-size="9.00">Data</text>
</g>
<!-- v5&#45;&gt;v8 -->
<g id="edge14" class="edge"><title>v5&#45;&gt;v8</title>
<path fill="none" stroke="black" d="M170.129,-59.0026C156.876,-49.364 135.801,-34.0372 121.343,-23.5225"/>
<polygon fill="black" stroke="black" points="117.085,-20.4254 122.452,-21.5467 119.107,-21.8959 121.129,-23.3663 121.129,-23.3663 121.129,-23.3663 119.107,-21.8959 119.805,-25.186 117.085,-20.4254 117.085,-20.4254"/>
</g>
<!-- v9 -->
<g id="v9_Software" class="node"><title>v9</title>
<ellipse fill="none" stroke="black" cx="181.5" cy="-11" rx="36" ry="11"/>
<text text-anchor="middle" x="181.5" y="-8.8" font-family="sans-serif" font-size="9.00">Software</text>
</g>
<!-- v5&#45;&gt;v9 -->
<g id="edge15" class="edge"><title>v5&#45;&gt;v9</title>
<path fill="none" stroke="black" d="M182.321,-57.9883C182.17,-49.4941 181.949,-37.1697 181.775,-27.4169"/>
<polygon fill="black" stroke="black" points="181.684,-22.3039 184.023,-27.2629 181.729,-24.8035 181.773,-27.3031 181.773,-27.3031 181.773,-27.3031 181.729,-24.8035 179.524,-27.3433 181.684,-22.3039 181.684,-22.3039"/>
</g>
<!-- v7 -->
<g id="v7_ExitRoom" class="node"><title>v7</title>
<ellipse fill="none" stroke="black" cx="945.5" cy="-11" rx="36" ry="11"/>
<text text-anchor="middle" x="945.5" y="-8.8" font-family="sans-serif" font-size="9.00">ExitRoom</text>
</g>
<!-- v6&#45;&gt;v7 -->
<g id="edge16" class="edge"><title>v6&#45;&gt;v7</title>
<path fill="none" stroke="black" d="M989.846,-57.9883C981.169,-48.9897 968.346,-35.6926 958.719,-25.7082"/>
<polygon fill="black" stroke="black" points="955.071,-21.925 960.161,-23.9624 956.806,-23.7246 958.541,-25.5242 958.541,-25.5242 958.541,-25.5242 956.806,-23.7246 956.922,-27.0861 955.071,-21.925 955.071,-21.925"/>
</g>
<!-- v14 -->
<g id="v14_ConnectDevice" class="node"><title>v14</title>
<ellipse fill="none" stroke="black" cx="1053.5" cy="-11" rx="54" ry="11"/>
<text text-anchor="middle" x="1053.5" y="-8.8" font-family="sans-serif" font-size="9.00">ConnectDevice</text>
</g>
<!-- v6&#45;&gt;v14 -->
<g id="edge17" class="edge"><title>v6&#45;&gt;v14</title>
<path fill="none" stroke="black" d="M1009.15,-57.9883C1017.83,-48.9897 1030.65,-35.6926 1040.28,-25.7082"/>
<polygon fill="black" stroke="black" points="1043.93,-21.925 1042.08,-27.0861 1042.19,-23.7246 1040.46,-25.5242 1040.46,-25.5242 1040.46,-25.5242 1042.19,-23.7246 1038.84,-23.9624 1043.93,-21.925 1043.93,-21.925"/>
</g>
<!-- v11 -->
<g id="v11_Software" class="node"><title>v11</title>
<ellipse fill="none" stroke="black" cx="271.5" cy="-11" rx="36" ry="11"/>
<text text-anchor="middle" x="271.5" y="-8.8" font-family="sans-serif" font-size="9.00">Software</text>
</g>
<!-- v10&#45;&gt;v11 -->
<g id="edge18" class="edge"><title>v10&#45;&gt;v11</title>
<path fill="none" stroke="black" d="M283.818,-57.9883C281.522,-49.4154 278.181,-36.9411 275.557,-27.1466"/>
<polygon fill="black" stroke="black" points="274.26,-22.3039 277.727,-26.5514 274.907,-24.7187 275.554,-27.1336 275.554,-27.1336 275.554,-27.1336 274.907,-24.7187 273.38,-27.7158 274.26,-22.3039 274.26,-22.3039"/>
</g>
<!-- v10&#45;&gt;v17 -->
<g id="edge27" class="edge"><title>v10&#45;&gt;v17</title>
<path fill="none" stroke="green" d="M306.608,-73.4201C366.231,-85.8848 547.145,-119.077 695.5,-98 720.913,-94.3895 748.902,-85.8617 768.789,-78.9826"/>
</g>
<!-- v12&#45;&gt;v17 -->
<g id="edge28" class="edge"><title>v12&#45;&gt;v17</title>
<path fill="none" stroke="green" d="M400.34,-18.4779C406.987,-19.7305 413.961,-20.9715 420.5,-22 482.218,-31.7082 659.737,-52.4402 746.536,-62.4136"/>
</g>
<!-- v13&#45;&gt;v17 -->
<g id="edge29" class="edge"><title>v13&#45;&gt;v17</title>
<path fill="none" stroke="green" d="M499.265,-18.2567C505.605,-19.5384 512.268,-20.847 518.5,-22 600.709,-37.2094 697.087,-52.6852 751.755,-61.2445"/>
</g>
<!-- v16 -->
<g id="v16_SmartLight" class="node"><title>v16</title>
<ellipse fill="none" stroke="black" cx="570.5" cy="-11" rx="43" ry="11"/>
<text text-anchor="middle" x="570.5" y="-8.8" font-family="sans-serif" font-size="9.00">SmartLight</text>
</g>
<!-- v15&#45;&gt;v16 -->
<g id="edge19" class="edge"><title>v15&#45;&gt;v16</title>
<path fill="none" stroke="black" d="M570.5,-57.9883C570.5,-49.4941 570.5,-37.1697 570.5,-27.4169"/>
<polygon fill="black" stroke="black" points="570.5,-22.3039 572.75,-27.3038 570.5,-24.8039 570.5,-27.3039 570.5,-27.3039 570.5,-27.3039 570.5,-24.8039 568.25,-27.3039 570.5,-22.3039 570.5,-22.3039"/>
</g>
<!-- v16&#45;&gt;v17 -->
<g id="edge30" class="edge"><title>v16&#45;&gt;v17</title>
<path fill="none" stroke="green" d="M599.54,-19.2278C641.348,-29.6333 718.294,-48.7842 762.3,-59.737"/>
</g>
<!-- v18 -->
<g id="v18_Data" class="node"><title>v18</title>
<ellipse fill="none" stroke="black" cx="869.5" cy="-11" rx="21.5" ry="11"/>
<text text-anchor="middle" x="869.5" y="-8.8" font-family="sans-serif" font-size="9.00">Data</text>
</g>
<!-- v17&#45;&gt;v18 -->
<g id="edge20" class="edge"><title>v17&#45;&gt;v18</title>
<path fill="none" stroke="black" d="M808.39,-58.2455C821.149,-48.5899 840.683,-33.8071 854.217,-23.5653"/>
<polygon fill="black" stroke="black" points="858.211,-20.5433 855.581,-25.3547 856.217,-22.0519 854.224,-23.5605 854.224,-23.5605 854.224,-23.5605 856.217,-22.0519 852.866,-21.7664 858.211,-20.5433 858.211,-20.5433"/>
</g>
<!-- v20 -->
<g id="v20_SmartLight" class="node"><title>v20</title>
<ellipse fill="none" stroke="black" cx="674.5" cy="-11" rx="43" ry="11"/>
<text text-anchor="middle" x="674.5" y="-8.8" font-family="sans-serif" font-size="9.00">SmartLight</text>
</g>
<!-- v17&#45;&gt;v20 -->
<g id="edge31" class="edge"><title>v17&#45;&gt;v20</title>
<path fill="none" stroke="green" d="M774.974,-58.5004C752.319,-48.0154 716.128,-31.2659 693.924,-20.9896"/>
</g>
<!-- v21 -->
<g id="v21_Workstation" class="node"><title>v21</title>
<ellipse fill="none" stroke="black" cx="782.5" cy="-11" rx="47" ry="11"/>
<text text-anchor="middle" x="782.5" y="-8.8" font-family="sans-serif" font-size="9.00">Workstation</text>
</g>
<!-- v17&#45;&gt;v21 -->
<g id="edge32" class="edge"><title>v17&#45;&gt;v21</title>
<path fill="none" stroke="green" d="M793.176,-57.9883C790.839,-47.9211 787.253,-32.4737 784.892,-22.3039"/>
</g>
<!-- v19&#45;&gt;v20 -->
<g id="edge21" class="edge"><title>v19&#45;&gt;v20</title>
<path fill="none" stroke="black" d="M674.5,-57.9883C674.5,-49.4941 674.5,-37.1697 674.5,-27.4169"/>
<polygon fill="black" stroke="black" points="674.5,-22.3039 676.75,-27.3038 674.5,-24.8039 674.5,-27.3039 674.5,-27.3039 674.5,-27.3039 674.5,-24.8039 672.25,-27.3039 674.5,-22.3039 674.5,-22.3039"/>
</g>
<!-- v19&#45;&gt;v21 -->
<g id="edge22" class="edge"><title>v19&#45;&gt;v21</title>
<path fill="none" stroke="black" d="M688.619,-60.679C706.692,-51.3076 738.232,-34.9536 759.722,-23.8106"/>
<polygon fill="black" stroke="black" points="764.416,-21.3771 761.013,-25.6762 762.196,-22.5279 759.977,-23.6787 759.977,-23.6787 759.977,-23.6787 762.196,-22.5279 758.941,-21.6813 764.416,-21.3771 764.416,-21.3771"/>
</g>
</g>
</svg>
