<?xml version="1.0" encoding="UTF-8" standalone="no"?>
<?xml-stylesheet href="style.css" type="text/css"?>
<!DOCTYPE svg PUBLIC "-//W3C//DTD SVG 1.1//EN"
 "http://www.w3.org/Graphics/SVG/1.1/DTD/svg11.dtd">
<!-- Generated by graphviz version 2.38.0 (20140413.2041)
 -->
<!-- Title: 5.svg Pages: 1 -->
<svg width="989pt" height="316pt"
 viewBox="0.00 0.00 988.50 316.00" xmlns="http://www.w3.org/2000/svg" xmlns:xlink="http://www.w3.org/1999/xlink">
<g id="graph0" class="graph" transform="scale(1 1) rotate(0) translate(4 312)">
<title>5.svg</title>
<polygon fill="white" stroke="none" points="-4,4 -4,-312 984.5,-312 984.5,4 -4,4"/>
<!-- r0 -->
<g id="node1" class="node"><title>r0</title>
<polygon fill="none" stroke="black" stroke-dasharray="5,2" points="217,-308 194,-308 194,-290 217,-290 217,-308"/>
<text text-anchor="middle" x="205.5" y="-296.8" font-family="serif" font-size="9.00">0</text>
</g>
<!-- v0 -->
<g id="v0_Building" class="node"><title>v0</title>
<ellipse fill="none" stroke="black" cx="205.5" cy="-243" rx="36" ry="11"/>
<text text-anchor="middle" x="205.5" y="-240.8" font-family="sans-serif" font-size="9.00">Building</text>
</g>
<!-- r0&#45;&gt;v0 -->
<g id="edge1" class="edge"><title>r0&#45;&gt;v0</title>
<path fill="none" stroke="black" d="M205.5,-289.562C205.5,-281.453 205.5,-269.014 205.5,-259.181"/>
<polygon fill="black" stroke="black" points="205.5,-254.03 207.75,-259.03 205.5,-256.53 205.5,-259.03 205.5,-259.03 205.5,-259.03 205.5,-256.53 203.25,-259.03 205.5,-254.03 205.5,-254.03"/>
</g>
<!-- r1 -->
<g id="node2" class="node"><title>r1</title>
<polygon fill="none" stroke="black" stroke-dasharray="5,2" points="911,-308 888,-308 888,-290 911,-290 911,-308"/>
<text text-anchor="middle" x="899.5" y="-296.8" font-family="serif" font-size="9.00">1</text>
</g>
<!-- v8 -->
<g id="v8_RulesKeywords" class="node"><title>v8</title>
<ellipse fill="none" stroke="black" cx="899.5" cy="-69" rx="54" ry="11"/>
<text text-anchor="middle" x="899.5" y="-66.8" font-family="sans-serif" font-size="9.00">RulesKeywords</text>
</g>
<!-- r1&#45;&gt;v8 -->
<g id="edge2" class="edge"><title>r1&#45;&gt;v8</title>
<path fill="none" stroke="black" d="M899.5,-289.885C899.5,-256.489 899.5,-129.348 899.5,-85.206"/>
<polygon fill="black" stroke="black" points="899.5,-80.0114 901.75,-85.0113 899.5,-82.5114 899.5,-85.0114 899.5,-85.0114 899.5,-85.0114 899.5,-82.5114 897.25,-85.0114 899.5,-80.0114 899.5,-80.0114"/>
</g>
<!-- e9 -->
<g id="node3" class="node"><title>e9</title>
</g>
<!-- v7 -->
<g id="v7_Laptop" class="node"><title>v7</title>
<ellipse fill="none" stroke="black" cx="486.5" cy="-11" rx="29" ry="11"/>
<text text-anchor="middle" x="486.5" y="-8.8" font-family="sans-serif" font-size="9.00">Laptop</text>
</g>
<!-- e9&#45;&gt;v7 -->
<g id="edge29" class="edge"><title>e9&#45;&gt;v7</title>
<path fill="none" stroke="green" d="M486.5,-64.1674C486.5,-55.5862 486.5,-34.5957 486.5,-22.0117"/>
<polygon fill="green" stroke="green" points="490,-67.3001 483,-67.2999 483,-65.8999 490,-65.9001 490,-67.3001"/>
<polyline fill="none" stroke="green" points="486.5,-68 486.5,-64.5 "/>
</g>
<!-- v1 -->
<g id="v1_InstallationBus" class="node"><title>v1</title>
<ellipse fill="none" stroke="black" cx="63.5" cy="-69" rx="61" ry="11"/>
<text text-anchor="middle" x="63.5" y="-66.8" font-family="sans-serif" font-size="9.00">InstallationBus</text>
</g>
<!-- v0&#45;&gt;v1 -->
<g id="edge3" class="edge"><title>v0&#45;&gt;v1</title>
<path fill="none" stroke="black" d="M197.459,-232.26C173.651,-203.423 103.438,-118.376 75.3302,-84.3296"/>
<polygon fill="black" stroke="black" points="71.8069,-80.0619 76.7253,-82.4852 73.3985,-81.9898 74.9902,-83.9177 74.9902,-83.9177 74.9902,-83.9177 73.3985,-81.9898 73.2551,-85.3501 71.8069,-80.0619 71.8069,-80.0619"/>
</g>
<!-- v3 -->
<g id="v3_Floor" class="node"><title>v3</title>
<ellipse fill="none" stroke="black" cx="271.5" cy="-185" rx="25" ry="11"/>
<text text-anchor="middle" x="271.5" y="-182.8" font-family="sans-serif" font-size="9.00">Floor</text>
</g>
<!-- v0&#45;&gt;v3 -->
<g id="edge4" class="edge"><title>v0&#45;&gt;v3</title>
<path fill="none" stroke="black" d="M216.696,-232.5C227.798,-223.08 244.86,-208.604 256.995,-198.308"/>
<polygon fill="black" stroke="black" points="260.905,-194.99 258.548,-199.94 258.999,-196.607 257.093,-198.225 257.093,-198.225 257.093,-198.225 258.999,-196.607 255.637,-196.509 260.905,-194.99 260.905,-194.99"/>
</g>
<!-- v2 -->
<g id="v2_Data" class="node"><title>v2</title>
<ellipse fill="none" stroke="black" cx="21.5" cy="-11" rx="21.5" ry="11"/>
<text text-anchor="middle" x="21.5" y="-8.8" font-family="sans-serif" font-size="9.00">Data</text>
</g>
<!-- v1&#45;&gt;v2 -->
<g id="edge5" class="edge"><title>v1&#45;&gt;v2</title>
<path fill="none" stroke="black" d="M55.9912,-57.9883C49.2194,-48.9593 39.2019,-35.6025 31.7051,-25.6069"/>
<polygon fill="black" stroke="black" points="28.6634,-21.5512 33.4634,-24.2012 30.1634,-23.5512 31.6634,-25.5512 31.6634,-25.5512 31.6634,-25.5512 30.1634,-23.5512 29.8634,-26.9012 28.6634,-21.5512 28.6634,-21.5512"/>
</g>
<!-- v10 -->
<g id="v10_SmartLight" class="node"><title>v10</title>
<ellipse fill="none" stroke="black" cx="673.5" cy="-11" rx="43" ry="11"/>
<text text-anchor="middle" x="673.5" y="-8.8" font-family="sans-serif" font-size="9.00">SmartLight</text>
</g>
<!-- v1&#45;&gt;v10 -->
<g id="edge20" class="edge"><title>v1&#45;&gt;v10</title>
<path fill="none" stroke="green" d="M115.992,-63.3246C135.325,-61.6213 157.406,-59.6978 177.5,-58 374.337,-41.3691 424.727,-48.3491 620.5,-22 627.46,-21.0632 634.891,-19.8171 641.919,-18.5232"/>
</g>
<!-- v11 -->
<g id="v11_Server" class="node"><title>v11</title>
<ellipse fill="none" stroke="black" cx="410.5" cy="-11" rx="29" ry="11"/>
<text text-anchor="middle" x="410.5" y="-8.8" font-family="sans-serif" font-size="9.00">Server</text>
</g>
<!-- v1&#45;&gt;v11 -->
<g id="edge21" class="edge"><title>v1&#45;&gt;v11</title>
<path fill="none" stroke="green" d="M112.492,-62.3894C173.672,-54.9976 281.385,-40.7122 372.5,-22 377.712,-20.9296 383.276,-19.5831 388.493,-18.2281"/>
</g>
<!-- v12 -->
<g id="v12_FireAlarm" class="node"><title>v12</title>
<ellipse fill="none" stroke="black" cx="572.5" cy="-11" rx="39.5" ry="11"/>
<text text-anchor="middle" x="572.5" y="-8.8" font-family="sans-serif" font-size="9.00">FireAlarm</text>
</g>
<!-- v1&#45;&gt;v12 -->
<g id="edge22" class="edge"><title>v1&#45;&gt;v12</title>
<path fill="none" stroke="green" d="M115.581,-63.1175C227.677,-52.5631 484.899,-28.0833 524.5,-22 530.726,-21.0436 537.363,-19.8045 543.654,-18.5261"/>
</g>
<!-- v15 -->
<g id="v15_SmartLight" class="node"><title>v15</title>
<ellipse fill="none" stroke="black" cx="104.5" cy="-11" rx="43" ry="11"/>
<text text-anchor="middle" x="104.5" y="-8.8" font-family="sans-serif" font-size="9.00">SmartLight</text>
</g>
<!-- v1&#45;&gt;v15 -->
<g id="edge23" class="edge"><title>v1&#45;&gt;v15</title>
<path fill="none" stroke="green" d="M70.83,-57.9883C78.2928,-47.7952 89.7937,-32.0867 97.2335,-21.925"/>
</g>
<!-- v17 -->
<g id="v17_SmartLight" class="node"><title>v17</title>
<ellipse fill="none" stroke="black" cx="320.5" cy="-11" rx="43" ry="11"/>
<text text-anchor="middle" x="320.5" y="-8.8" font-family="sans-serif" font-size="9.00">SmartLight</text>
</g>
<!-- v1&#45;&gt;v17 -->
<g id="edge24" class="edge"><title>v1&#45;&gt;v17</title>
<path fill="none" stroke="green" d="M99.7767,-60.0953C150.556,-49.0306 241.946,-29.1169 289.637,-18.7251"/>
</g>
<!-- v18 -->
<g id="v18_Workstation" class="node"><title>v18</title>
<ellipse fill="none" stroke="black" cx="212.5" cy="-11" rx="47" ry="11"/>
<text text-anchor="middle" x="212.5" y="-8.8" font-family="sans-serif" font-size="9.00">Workstation</text>
</g>
<!-- v1&#45;&gt;v18 -->
<g id="edge25" class="edge"><title>v1&#45;&gt;v18</title>
<path fill="none" stroke="green" d="M87.771,-58.878C115.808,-48.3405 161.611,-31.1259 189.221,-20.749"/>
</g>
<!-- v4 -->
<g id="v4_Hallway" class="node"><title>v4</title>
<ellipse fill="none" stroke="black" cx="767.5" cy="-11" rx="32.5" ry="11"/>
<text text-anchor="middle" x="767.5" y="-8.8" font-family="sans-serif" font-size="9.00">Hallway</text>
</g>
<!-- v3&#45;&gt;v4 -->
<g id="edge6" class="edge"><title>v3&#45;&gt;v4</title>
<path fill="none" stroke="black" d="M293.936,-179.912C330.404,-172.995 404.595,-157.781 465.5,-138 573.329,-102.979 696.564,-45.9903 745.66,-22.5652"/>
<polygon fill="black" stroke="black" points="750.177,-20.4049 746.637,-24.5921 747.922,-21.4836 745.666,-22.5623 745.666,-22.5623 745.666,-22.5623 747.922,-21.4836 744.696,-20.5325 750.177,-20.4049 750.177,-20.4049"/>
</g>
<!-- v5 -->
<g id="v5_Room" class="node"><title>v5</title>
<ellipse fill="none" stroke="black" cx="435.5" cy="-127" rx="21.5" ry="11"/>
<text text-anchor="middle" x="435.5" y="-124.8" font-family="sans-serif" font-size="9.00">Room</text>
</g>
<!-- v3&#45;&gt;v5 -->
<g id="edge7" class="edge"><title>v3&#45;&gt;v5</title>
<path fill="none" stroke="black" d="M290.313,-177.576C320.821,-167.159 380.936,-146.632 413.422,-135.539"/>
<polygon fill="black" stroke="black" points="418.389,-133.843 414.385,-137.588 416.023,-134.651 413.657,-135.458 413.657,-135.458 413.657,-135.458 416.023,-134.651 412.93,-133.329 418.389,-133.843 418.389,-133.843"/>
</g>
<!-- v14 -->
<g id="v14_Room" class="node"><title>v14</title>
<ellipse fill="none" stroke="black" cx="208.5" cy="-69" rx="21.5" ry="11"/>
<text text-anchor="middle" x="208.5" y="-66.8" font-family="sans-serif" font-size="9.00">Room</text>
</g>
<!-- v3&#45;&gt;v14 -->
<g id="edge8" class="edge"><title>v3&#45;&gt;v14</title>
<path fill="none" stroke="black" d="M265.909,-173.883C254.72,-153.636 229.535,-108.064 216.562,-84.5882"/>
<polygon fill="black" stroke="black" points="213.988,-79.9313 218.376,-83.2192 215.198,-82.1194 216.407,-84.3075 216.407,-84.3075 216.407,-84.3075 215.198,-82.1194 214.438,-85.3958 213.988,-79.9313 213.988,-79.9313"/>
</g>
<!-- v16 -->
<g id="v16_Room" class="node"><title>v16</title>
<ellipse fill="none" stroke="black" cx="271.5" cy="-69" rx="21.5" ry="11"/>
<text text-anchor="middle" x="271.5" y="-66.8" font-family="sans-serif" font-size="9.00">Room</text>
</g>
<!-- v3&#45;&gt;v16 -->
<g id="edge9" class="edge"><title>v3&#45;&gt;v16</title>
<path fill="none" stroke="black" d="M271.5,-173.883C271.5,-153.906 271.5,-109.276 271.5,-85.5402"/>
<polygon fill="black" stroke="black" points="271.5,-80.2579 273.75,-85.2579 271.5,-82.7579 271.5,-85.2579 271.5,-85.2579 271.5,-85.2579 271.5,-82.7579 269.25,-85.258 271.5,-80.2579 271.5,-80.2579"/>
</g>
<!-- v4&#45;&gt;v5 -->
<g id="edge26" class="edge"><title>v4&#45;&gt;v5</title>
<path fill="none" stroke="green" d="M743.177,-18.3387C737.411,-19.6891 731.261,-21.0058 725.5,-22 652.371,-34.6192 443.066,-2.76938 393.5,-58 376.355,-77.105 405.923,-104.109 423.644,-117.618"/>
</g>
<!-- v4&#45;&gt;v14 -->
<g id="edge27" class="edge"><title>v4&#45;&gt;v14</title>
<path fill="none" stroke="green" d="M743.201,-18.4807C737.433,-19.8252 731.277,-21.1037 725.5,-22 511.907,-55.1377 452.82,-17.4994 240.5,-58 235.469,-58.9597 230.115,-60.4413 225.255,-61.9725"/>
</g>
<!-- v4&#45;&gt;v16 -->
<g id="edge28" class="edge"><title>v4&#45;&gt;v16</title>
<path fill="none" stroke="green" d="M743.192,-18.4268C737.425,-19.7736 731.271,-21.0666 725.5,-22 543.612,-51.4174 494.307,-28.0835 312.5,-58 304.981,-59.2372 296.805,-61.1196 289.746,-62.9187"/>
</g>
<!-- v6 -->
<g id="v6_Visitor" class="node"><title>v6</title>
<ellipse fill="none" stroke="black" cx="435.5" cy="-69" rx="32.5" ry="11"/>
<text text-anchor="middle" x="435.5" y="-66.8" font-family="sans-serif" font-size="9.00">Visitor</text>
</g>
<!-- v5&#45;&gt;v6 -->
<g id="edge10" class="edge"><title>v5&#45;&gt;v6</title>
<path fill="none" stroke="black" d="M435.5,-115.988C435.5,-107.494 435.5,-95.1697 435.5,-85.4169"/>
<polygon fill="black" stroke="black" points="435.5,-80.3039 437.75,-85.3038 435.5,-82.8039 435.5,-85.3039 435.5,-85.3039 435.5,-85.3039 435.5,-82.8039 433.25,-85.3039 435.5,-80.3039 435.5,-80.3039"/>
</g>
<!-- v5&#45;&gt;v10 -->
<g id="edge11" class="edge"><title>v5&#45;&gt;v10</title>
<path fill="none" stroke="black" d="M450.388,-118.869C490.53,-99.6412 601.246,-46.6091 649.967,-23.2719"/>
<polygon fill="black" stroke="black" points="654.762,-20.9751 651.225,-25.1644 652.508,-22.0551 650.253,-23.1351 650.253,-23.1351 650.253,-23.1351 652.508,-22.0551 649.281,-21.1059 654.762,-20.9751 654.762,-20.9751"/>
</g>
<!-- v5&#45;&gt;v11 -->
<g id="edge12" class="edge"><title>v5&#45;&gt;v11</title>
<path fill="none" stroke="black" d="M424.073,-117.626C413.862,-109.369 399.6,-95.7285 393.5,-80 386.542,-62.06 394.665,-40.3386 401.894,-26.3517"/>
<polygon fill="black" stroke="black" points="404.288,-21.9215 403.891,-27.39 403.1,-24.1209 401.911,-26.3203 401.911,-26.3203 401.911,-26.3203 403.1,-24.1209 399.932,-25.2506 404.288,-21.9215 404.288,-21.9215"/>
</g>
<!-- v5&#45;&gt;v12 -->
<g id="edge13" class="edge"><title>v5&#45;&gt;v12</title>
<path fill="none" stroke="black" d="M447.188,-117.415C459.417,-108.346 479.083,-93.5145 495.5,-80 517.651,-61.7645 542.37,-39.5942 557.682,-25.6359"/>
<polygon fill="black" stroke="black" points="561.741,-21.9268 559.567,-26.9606 559.895,-23.6132 558.05,-25.2996 558.05,-25.2996 558.05,-25.2996 559.895,-23.6132 556.532,-23.6385 561.741,-21.9268 561.741,-21.9268"/>
</g>
<!-- v6&#45;&gt;v7 -->
<g id="edge14" class="edge"><title>v6&#45;&gt;v7</title>
<path fill="none" stroke="black" d="M444.384,-58.2455C452.647,-49.1716 465.035,-35.5697 474.238,-25.4636"/>
<polygon fill="black" stroke="black" points="477.718,-21.6427 476.015,-26.8544 476.035,-23.491 474.352,-25.3394 474.352,-25.3394 474.352,-25.3394 476.035,-23.491 472.688,-23.8244 477.718,-21.6427 477.718,-21.6427"/>
</g>
<!-- v9 -->
<g id="v9_ExitRoom" class="node"><title>v9</title>
<ellipse fill="none" stroke="black" cx="854.5" cy="-11" rx="36" ry="11"/>
<text text-anchor="middle" x="854.5" y="-8.8" font-family="sans-serif" font-size="9.00">ExitRoom</text>
</g>
<!-- v8&#45;&gt;v9 -->
<g id="edge15" class="edge"><title>v8&#45;&gt;v9</title>
<path fill="none" stroke="black" d="M891.455,-57.9883C884.288,-49.0694 873.728,-35.9276 865.729,-25.974"/>
<polygon fill="black" stroke="black" points="862.475,-21.925 867.361,-24.4132 864.041,-23.8738 865.607,-25.8226 865.607,-25.8226 865.607,-25.8226 864.041,-23.8738 863.854,-27.232 862.475,-21.925 862.475,-21.925"/>
</g>
<!-- v13 -->
<g id="v13_ExitRoom" class="node"><title>v13</title>
<ellipse fill="none" stroke="black" cx="944.5" cy="-11" rx="36" ry="11"/>
<text text-anchor="middle" x="944.5" y="-8.8" font-family="sans-serif" font-size="9.00">ExitRoom</text>
</g>
<!-- v8&#45;&gt;v13 -->
<g id="edge16" class="edge"><title>v8&#45;&gt;v13</title>
<path fill="none" stroke="black" d="M907.545,-57.9883C914.712,-49.0694 925.272,-35.9276 933.271,-25.974"/>
<polygon fill="black" stroke="black" points="936.525,-21.925 935.146,-27.232 934.959,-23.8738 933.393,-25.8226 933.393,-25.8226 933.393,-25.8226 934.959,-23.8738 931.639,-24.4132 936.525,-21.925 936.525,-21.925"/>
</g>
<!-- v14&#45;&gt;v15 -->
<g id="edge17" class="edge"><title>v14&#45;&gt;v15</title>
<path fill="none" stroke="black" d="M194.474,-60.4476C176.948,-51.0107 146.769,-34.7603 126.24,-23.7062"/>
<polygon fill="black" stroke="black" points="121.757,-21.2924 127.226,-21.6819 123.959,-22.4777 126.16,-23.663 126.16,-23.663 126.16,-23.663 123.959,-22.4777 125.093,-25.644 121.757,-21.2924 121.757,-21.2924"/>
</g>
<!-- v16&#45;&gt;v17 -->
<g id="edge18" class="edge"><title>v16&#45;&gt;v17</title>
<path fill="none" stroke="black" d="M279.591,-58.7527C287.462,-49.7573 299.515,-35.9828 308.502,-25.7121"/>
<polygon fill="black" stroke="black" points="311.902,-21.8266 310.303,-27.0711 310.255,-23.708 308.609,-25.5895 308.609,-25.5895 308.609,-25.5895 310.255,-23.708 306.916,-24.1078 311.902,-21.8266 311.902,-21.8266"/>
</g>
<!-- v16&#45;&gt;v18 -->
<g id="edge19" class="edge"><title>v16&#45;&gt;v18</title>
<path fill="none" stroke="black" d="M262.021,-59.0026C252.505,-49.9708 237.727,-35.9443 226.789,-25.5628"/>
<polygon fill="black" stroke="black" points="222.95,-21.919 228.126,-23.7292 224.764,-23.64 226.577,-25.3611 226.577,-25.3611 226.577,-25.3611 224.764,-23.64 225.028,-26.9931 222.95,-21.919 222.95,-21.919"/>
</g>
</g>
</svg>
