<?xml version="1.0" encoding="UTF-8" standalone="no"?>
<?xml-stylesheet href="style.css" type="text/css"?>
<!DOCTYPE svg PUBLIC "-//W3C//DTD SVG 1.1//EN"
 "http://www.w3.org/Graphics/SVG/1.1/DTD/svg11.dtd">
<!-- Generated by graphviz version 2.38.0 (20140413.2041)
 -->
<!-- Title: 6.svg Pages: 1 -->
<svg width="1108pt" height="316pt"
 viewBox="0.00 0.00 1107.50 316.00" xmlns="http://www.w3.org/2000/svg" xmlns:xlink="http://www.w3.org/1999/xlink">
<g id="graph0" class="graph" transform="scale(1 1) rotate(0) translate(4 312)">
<title>6.svg</title>
<polygon fill="white" stroke="none" points="-4,4 -4,-312 1103.5,-312 1103.5,4 -4,4"/>
<!-- r0 -->
<g id="node1" class="node"><title>r0</title>
<polygon fill="none" stroke="black" stroke-dasharray="5,2" points="655,-308 632,-308 632,-290 655,-290 655,-308"/>
<text text-anchor="middle" x="643.5" y="-296.8" font-family="serif" font-size="9.00">0</text>
</g>
<!-- v0 -->
<g id="v0_Building" class="node"><title>v0</title>
<ellipse fill="none" stroke="black" cx="643.5" cy="-243" rx="36" ry="11"/>
<text text-anchor="middle" x="643.5" y="-240.8" font-family="sans-serif" font-size="9.00">Building</text>
</g>
<!-- r0&#45;&gt;v0 -->
<g id="edge1" class="edge"><title>r0&#45;&gt;v0</title>
<path fill="none" stroke="black" d="M643.5,-289.562C643.5,-281.453 643.5,-269.014 643.5,-259.181"/>
<polygon fill="black" stroke="black" points="643.5,-254.03 645.75,-259.03 643.5,-256.53 643.5,-259.03 643.5,-259.03 643.5,-259.03 643.5,-256.53 641.25,-259.03 643.5,-254.03 643.5,-254.03"/>
</g>
<!-- r1 -->
<g id="node2" class="node"><title>r1</title>
<polygon fill="none" stroke="black" stroke-dasharray="5,2" points="1030,-308 1007,-308 1007,-290 1030,-290 1030,-308"/>
<text text-anchor="middle" x="1018.5" y="-296.8" font-family="serif" font-size="9.00">1</text>
</g>
<!-- v8 -->
<g id="v8_RulesKeywords" class="node"><title>v8</title>
<ellipse fill="none" stroke="black" cx="1018.5" cy="-69" rx="54" ry="11"/>
<text text-anchor="middle" x="1018.5" y="-66.8" font-family="sans-serif" font-size="9.00">RulesKeywords</text>
</g>
<!-- r1&#45;&gt;v8 -->
<g id="edge2" class="edge"><title>r1&#45;&gt;v8</title>
<path fill="none" stroke="black" d="M1018.5,-289.885C1018.5,-256.489 1018.5,-129.348 1018.5,-85.206"/>
<polygon fill="black" stroke="black" points="1018.5,-80.0114 1020.75,-85.0113 1018.5,-82.5114 1018.5,-85.0114 1018.5,-85.0114 1018.5,-85.0114 1018.5,-82.5114 1016.25,-85.0114 1018.5,-80.0114 1018.5,-80.0114"/>
</g>
<!-- e2 -->
<g id="node3" class="node"><title>e2</title>
</g>
<!-- v5 -->
<g id="v5_SmartLight" class="node"><title>v5</title>
<ellipse fill="none" stroke="black" cx="160.5" cy="-11" rx="43" ry="11"/>
<text text-anchor="middle" x="160.5" y="-8.8" font-family="sans-serif" font-size="9.00">SmartLight</text>
</g>
<!-- e2&#45;&gt;v5 -->
<g id="edge21" class="edge"><title>e2&#45;&gt;v5</title>
<path fill="none" stroke="green" d="M160.5,-64.1674C160.5,-55.5862 160.5,-34.5957 160.5,-22.0117"/>
<polygon fill="green" stroke="green" points="164,-67.3001 157,-67.2999 157,-65.8999 164,-65.9001 164,-67.3001"/>
<polyline fill="none" stroke="green" points="160.5,-68 160.5,-64.5 "/>
</g>
<!-- v1 -->
<g id="v1_Floor" class="node"><title>v1</title>
<ellipse fill="none" stroke="black" cx="520.5" cy="-185" rx="25" ry="11"/>
<text text-anchor="middle" x="520.5" y="-182.8" font-family="sans-serif" font-size="9.00">Floor</text>
</g>
<!-- v0&#45;&gt;v1 -->
<g id="edge3" class="edge"><title>v0&#45;&gt;v1</title>
<path fill="none" stroke="black" d="M624.819,-233.495C602.483,-223.326 565.187,-206.345 541.766,-195.682"/>
<polygon fill="black" stroke="black" points="536.989,-193.507 542.471,-193.531 539.264,-194.543 541.539,-195.579 541.539,-195.579 541.539,-195.579 539.264,-194.543 540.607,-197.627 536.989,-193.507 536.989,-193.507"/>
</g>
<!-- v6 -->
<g id="v6_InstallationBus" class="node"><title>v6</title>
<ellipse fill="none" stroke="black" cx="858.5" cy="-11" rx="61" ry="11"/>
<text text-anchor="middle" x="858.5" y="-8.8" font-family="sans-serif" font-size="9.00">InstallationBus</text>
</g>
<!-- v0&#45;&gt;v6 -->
<g id="edge4" class="edge"><title>v0&#45;&gt;v6</title>
<path fill="none" stroke="black" d="M652.738,-232.117C686.843,-195.633 805.738,-68.4434 845.462,-25.9473"/>
<polygon fill="black" stroke="black" points="849.054,-22.105 847.283,-27.2942 847.347,-23.9314 845.64,-25.7577 845.64,-25.7577 845.64,-25.7577 847.347,-23.9314 843.996,-24.2212 849.054,-22.105 849.054,-22.105"/>
</g>
<!-- v2 -->
<g id="v2_Room" class="node"><title>v2</title>
<ellipse fill="none" stroke="black" cx="250.5" cy="-127" rx="21.5" ry="11"/>
<text text-anchor="middle" x="250.5" y="-124.8" font-family="sans-serif" font-size="9.00">Room</text>
</g>
<!-- v1&#45;&gt;v2 -->
<g id="edge5" class="edge"><title>v1&#45;&gt;v2</title>
<path fill="none" stroke="black" d="M498.405,-179.417C448.482,-169.063 327.271,-143.923 275.076,-133.097"/>
<polygon fill="black" stroke="black" points="269.948,-132.034 275.301,-130.846 272.396,-132.541 274.844,-133.049 274.844,-133.049 274.844,-133.049 272.396,-132.541 274.387,-135.252 269.948,-132.034 269.948,-132.034"/>
</g>
<!-- v7 -->
<g id="v7_Hallway" class="node"><title>v7</title>
<ellipse fill="none" stroke="black" cx="426.5" cy="-11" rx="32.5" ry="11"/>
<text text-anchor="middle" x="426.5" y="-8.8" font-family="sans-serif" font-size="9.00">Hallway</text>
</g>
<!-- v1&#45;&gt;v7 -->
<g id="edge6" class="edge"><title>v1&#45;&gt;v7</title>
<path fill="none" stroke="black" d="M515.04,-174.009C499.205,-145.034 453.206,-60.8671 434.526,-26.6863"/>
<polygon fill="black" stroke="black" points="431.975,-22.0185 436.347,-25.327 433.174,-24.2122 434.373,-26.406 434.373,-26.406 434.373,-26.406 433.174,-24.2122 432.399,-27.4851 431.975,-22.0185 431.975,-22.0185"/>
</g>
<!-- v13 -->
<g id="v13_Room" class="node"><title>v13</title>
<ellipse fill="none" stroke="black" cx="520.5" cy="-69" rx="21.5" ry="11"/>
<text text-anchor="middle" x="520.5" y="-66.8" font-family="sans-serif" font-size="9.00">Room</text>
</g>
<!-- v1&#45;&gt;v13 -->
<g id="edge7" class="edge"><title>v1&#45;&gt;v13</title>
<path fill="none" stroke="black" d="M520.5,-173.883C520.5,-153.906 520.5,-109.276 520.5,-85.5402"/>
<polygon fill="black" stroke="black" points="520.5,-80.2579 522.75,-85.2579 520.5,-82.7579 520.5,-85.2579 520.5,-85.2579 520.5,-85.2579 520.5,-82.7579 518.25,-85.258 520.5,-80.2579 520.5,-80.2579"/>
</g>
<!-- v15 -->
<g id="v15_Room" class="node"><title>v15</title>
<ellipse fill="none" stroke="black" cx="624.5" cy="-69" rx="21.5" ry="11"/>
<text text-anchor="middle" x="624.5" y="-66.8" font-family="sans-serif" font-size="9.00">Room</text>
</g>
<!-- v1&#45;&gt;v15 -->
<g id="edge8" class="edge"><title>v1&#45;&gt;v15</title>
<path fill="none" stroke="black" d="M529.367,-174.28C548.034,-153.819 591.399,-106.284 612.515,-83.137"/>
<polygon fill="black" stroke="black" points="615.948,-79.3745 614.24,-84.5848 614.263,-81.2214 612.578,-83.0684 612.578,-83.0684 612.578,-83.0684 614.263,-81.2214 610.916,-81.5519 615.948,-79.3745 615.948,-79.3745"/>
</g>
<!-- v3 -->
<g id="v3_Visitor" class="node"><title>v3</title>
<ellipse fill="none" stroke="black" cx="32.5" cy="-69" rx="32.5" ry="11"/>
<text text-anchor="middle" x="32.5" y="-66.8" font-family="sans-serif" font-size="9.00">Visitor</text>
</g>
<!-- v2&#45;&gt;v3 -->
<g id="edge9" class="edge"><title>v2&#45;&gt;v3</title>
<path fill="none" stroke="black" d="M231.913,-121.225C194.04,-111.497 107.665,-89.3084 62.0225,-77.5838"/>
<polygon fill="black" stroke="black" points="56.932,-76.2761 62.3346,-75.341 59.3534,-76.8982 61.7748,-77.5202 61.7748,-77.5202 61.7748,-77.5202 59.3534,-76.8982 61.215,-79.6995 56.932,-76.2761 56.932,-76.2761"/>
</g>
<!-- v2&#45;&gt;v5 -->
<g id="edge10" class="edge"><title>v2&#45;&gt;v5</title>
<path fill="none" stroke="black" d="M229.04,-125.716C198.402,-124.01 143.014,-115.821 117.5,-80 104.203,-61.331 125.62,-38.6562 142.711,-24.7815"/>
<polygon fill="black" stroke="black" points="146.94,-21.4514 144.404,-26.3127 144.976,-22.9982 143.012,-24.545 143.012,-24.545 143.012,-24.545 144.976,-22.9982 141.62,-22.7774 146.94,-21.4514 146.94,-21.4514"/>
</g>
<!-- v2&#45;&gt;v7 -->
<g id="edge19" class="edge"><title>v2&#45;&gt;v7</title>
<path fill="none" stroke="green" d="M231.632,-121.55C195.818,-112.262 123.843,-89.0719 150.5,-58 184.757,-18.0695 332.867,-32.1013 384.5,-22 390.091,-20.9063 396.063,-19.5806 401.699,-18.2571"/>
</g>
<!-- v10 -->
<g id="v10_Server" class="node"><title>v10</title>
<ellipse fill="none" stroke="black" cx="250.5" cy="-11" rx="29" ry="11"/>
<text text-anchor="middle" x="250.5" y="-8.8" font-family="sans-serif" font-size="9.00">Server</text>
</g>
<!-- v2&#45;&gt;v10 -->
<g id="edge11" class="edge"><title>v2&#45;&gt;v10</title>
<path fill="none" stroke="black" d="M250.5,-115.883C250.5,-95.9059 250.5,-51.276 250.5,-27.5402"/>
<polygon fill="black" stroke="black" points="250.5,-22.2579 252.75,-27.2579 250.5,-24.7579 250.5,-27.2579 250.5,-27.2579 250.5,-27.2579 250.5,-24.7579 248.25,-27.258 250.5,-22.2579 250.5,-22.2579"/>
</g>
<!-- v11 -->
<g id="v11_FireAlarm" class="node"><title>v11</title>
<ellipse fill="none" stroke="black" cx="336.5" cy="-11" rx="39.5" ry="11"/>
<text text-anchor="middle" x="336.5" y="-8.8" font-family="sans-serif" font-size="9.00">FireAlarm</text>
</g>
<!-- v2&#45;&gt;v11 -->
<g id="edge12" class="edge"><title>v2&#45;&gt;v11</title>
<path fill="none" stroke="black" d="M257.832,-116.28C273.052,-96.106 308.125,-49.6138 325.843,-26.1263"/>
<polygon fill="black" stroke="black" points="328.941,-22.0199 327.726,-27.3666 327.435,-24.0157 325.93,-26.0115 325.93,-26.0115 325.93,-26.0115 327.435,-24.0157 324.134,-24.6565 328.941,-22.0199 328.941,-22.0199"/>
</g>
<!-- v4 -->
<g id="v4_Laptop" class="node"><title>v4</title>
<ellipse fill="none" stroke="black" cx="32.5" cy="-11" rx="29" ry="11"/>
<text text-anchor="middle" x="32.5" y="-8.8" font-family="sans-serif" font-size="9.00">Laptop</text>
</g>
<!-- v3&#45;&gt;v4 -->
<g id="edge13" class="edge"><title>v3&#45;&gt;v4</title>
<path fill="none" stroke="black" d="M32.5,-57.9883C32.5,-49.4941 32.5,-37.1697 32.5,-27.4169"/>
<polygon fill="black" stroke="black" points="32.5,-22.3039 34.7501,-27.3038 32.5,-24.8039 32.5001,-27.3039 32.5001,-27.3039 32.5001,-27.3039 32.5,-24.8039 30.2501,-27.3039 32.5,-22.3039 32.5,-22.3039"/>
</g>
<!-- v4&#45;&gt;v6 -->
<g id="edge20" class="edge"><title>v4&#45;&gt;v6</title>
<path fill="none" stroke="green" d="M51.2779,-19.4099C68.2008,-26.4997 93.9656,-36.0958 117.5,-40 190.064,-52.0379 707.08,-52.8724 779.5,-40 799.495,-36.446 821.067,-28.2018 836.609,-21.4084"/>
</g>
<!-- v6&#45;&gt;v10 -->
<g id="edge22" class="edge"><title>v6&#45;&gt;v10</title>
<path fill="none" stroke="green" d="M836.609,-21.4084C821.067,-28.2018 799.495,-36.446 779.5,-40 726.662,-49.3918 348.058,-54.8955 296.5,-40 283.802,-36.3316 271.235,-28.0024 262.454,-21.2073"/>
</g>
<!-- v6&#45;&gt;v11 -->
<g id="edge23" class="edge"><title>v6&#45;&gt;v11</title>
<path fill="none" stroke="green" d="M836.609,-21.4084C821.067,-28.2018 799.495,-36.446 779.5,-40 695.046,-55.0113 476.914,-59.9995 393.5,-40 378.384,-36.3758 362.754,-28.0425 351.693,-21.2345"/>
</g>
<!-- v14 -->
<g id="v14_SmartLight" class="node"><title>v14</title>
<ellipse fill="none" stroke="black" cx="520.5" cy="-11" rx="43" ry="11"/>
<text text-anchor="middle" x="520.5" y="-8.8" font-family="sans-serif" font-size="9.00">SmartLight</text>
</g>
<!-- v6&#45;&gt;v14 -->
<g id="edge24" class="edge"><title>v6&#45;&gt;v14</title>
<path fill="none" stroke="green" d="M836.609,-21.4084C821.067,-28.2018 799.495,-36.446 779.5,-40 692.858,-55.4002 667.343,-59.3666 581.5,-40 565.486,-36.3871 548.744,-28.0527 536.859,-21.2415"/>
</g>
<!-- v16 -->
<g id="v16_SmartLight" class="node"><title>v16</title>
<ellipse fill="none" stroke="black" cx="624.5" cy="-11" rx="43" ry="11"/>
<text text-anchor="middle" x="624.5" y="-8.8" font-family="sans-serif" font-size="9.00">SmartLight</text>
</g>
<!-- v6&#45;&gt;v16 -->
<g id="edge25" class="edge"><title>v6&#45;&gt;v16</title>
<path fill="none" stroke="green" d="M836.609,-21.4084C821.067,-28.2018 799.495,-36.446 779.5,-40 738.367,-47.3112 726.254,-49.1942 685.5,-40 669.486,-36.3871 652.744,-28.0527 640.859,-21.2415"/>
</g>
<!-- v17 -->
<g id="v17_Workstation" class="node"><title>v17</title>
<ellipse fill="none" stroke="black" cx="732.5" cy="-11" rx="47" ry="11"/>
<text text-anchor="middle" x="732.5" y="-8.8" font-family="sans-serif" font-size="9.00">Workstation</text>
</g>
<!-- v6&#45;&gt;v17 -->
<g id="edge26" class="edge"><title>v6&#45;&gt;v17</title>
<path fill="none" stroke="green" d="M797.284,-11C791.439,-11 785.595,-11 779.75,-11"/>
</g>
<!-- v7&#45;&gt;v13 -->
<g id="edge27" class="edge"><title>v7&#45;&gt;v13</title>
<path fill="none" stroke="green" d="M441.317,-20.827C459.508,-31.6646 490.076,-49.8751 507.43,-60.2134"/>
</g>
<!-- v7&#45;&gt;v15 -->
<g id="edge28" class="edge"><title>v7&#45;&gt;v15</title>
<path fill="none" stroke="green" d="M450.187,-18.6993C490.176,-30.0094 570.231,-52.6512 606.228,-62.832"/>
</g>
<!-- v9 -->
<g id="v9_ExitRoom" class="node"><title>v9</title>
<ellipse fill="none" stroke="black" cx="973.5" cy="-11" rx="36" ry="11"/>
<text text-anchor="middle" x="973.5" y="-8.8" font-family="sans-serif" font-size="9.00">ExitRoom</text>
</g>
<!-- v8&#45;&gt;v9 -->
<g id="edge14" class="edge"><title>v8&#45;&gt;v9</title>
<path fill="none" stroke="black" d="M1010.45,-57.9883C1003.29,-49.0694 992.728,-35.9276 984.729,-25.974"/>
<polygon fill="black" stroke="black" points="981.475,-21.925 986.361,-24.4132 983.041,-23.8738 984.607,-25.8226 984.607,-25.8226 984.607,-25.8226 983.041,-23.8738 982.854,-27.232 981.475,-21.925 981.475,-21.925"/>
</g>
<!-- v12 -->
<g id="v12_ExitRoom" class="node"><title>v12</title>
<ellipse fill="none" stroke="black" cx="1063.5" cy="-11" rx="36" ry="11"/>
<text text-anchor="middle" x="1063.5" y="-8.8" font-family="sans-serif" font-size="9.00">ExitRoom</text>
</g>
<!-- v8&#45;&gt;v12 -->
<g id="edge15" class="edge"><title>v8&#45;&gt;v12</title>
<path fill="none" stroke="black" d="M1026.55,-57.9883C1033.71,-49.0694 1044.27,-35.9276 1052.27,-25.974"/>
<polygon fill="black" stroke="black" points="1055.52,-21.925 1054.15,-27.232 1053.96,-23.8738 1052.39,-25.8226 1052.39,-25.8226 1052.39,-25.8226 1053.96,-23.8738 1050.64,-24.4132 1055.52,-21.925 1055.52,-21.925"/>
</g>
<!-- v13&#45;&gt;v14 -->
<g id="edge16" class="edge"><title>v13&#45;&gt;v14</title>
<path fill="none" stroke="black" d="M520.5,-57.9883C520.5,-49.4941 520.5,-37.1697 520.5,-27.4169"/>
<polygon fill="black" stroke="black" points="520.5,-22.3039 522.75,-27.3038 520.5,-24.8039 520.5,-27.3039 520.5,-27.3039 520.5,-27.3039 520.5,-24.8039 518.25,-27.3039 520.5,-22.3039 520.5,-22.3039"/>
</g>
<!-- v15&#45;&gt;v16 -->
<g id="edge17" class="edge"><title>v15&#45;&gt;v16</title>
<path fill="none" stroke="black" d="M624.5,-57.9883C624.5,-49.4941 624.5,-37.1697 624.5,-27.4169"/>
<polygon fill="black" stroke="black" points="624.5,-22.3039 626.75,-27.3038 624.5,-24.8039 624.5,-27.3039 624.5,-27.3039 624.5,-27.3039 624.5,-24.8039 622.25,-27.3039 624.5,-22.3039 624.5,-22.3039"/>
</g>
<!-- v15&#45;&gt;v17 -->
<g id="edge18" class="edge"><title>v15&#45;&gt;v17</title>
<path fill="none" stroke="black" d="M638.619,-60.679C656.692,-51.3076 688.232,-34.9536 709.722,-23.8106"/>
<polygon fill="black" stroke="black" points="714.416,-21.3771 711.013,-25.6762 712.196,-22.5279 709.977,-23.6787 709.977,-23.6787 709.977,-23.6787 712.196,-22.5279 708.941,-21.6813 714.416,-21.3771 714.416,-21.3771"/>
</g>
</g>
</svg>
