<?xml version="1.0" encoding="UTF-8" standalone="no"?>
<?xml-stylesheet href="style.css" type="text/css"?>
<!DOCTYPE svg PUBLIC "-//W3C//DTD SVG 1.1//EN"
 "http://www.w3.org/Graphics/SVG/1.1/DTD/svg11.dtd">
<!-- Generated by graphviz version 2.38.0 (20140413.2041)
 -->
<!-- Title: 8.svg Pages: 1 -->
<svg width="1476pt" height="374pt"
 viewBox="0.00 0.00 1476.00 374.00" xmlns="http://www.w3.org/2000/svg" xmlns:xlink="http://www.w3.org/1999/xlink">
<g id="graph0" class="graph" transform="scale(1 1) rotate(0) translate(4 370)">
<title>8.svg</title>
<polygon fill="white" stroke="none" points="-4,4 -4,-370 1472,-370 1472,4 -4,4"/>
<!-- r0 -->
<g id="node1" class="node"><title>r0</title>
<polygon fill="none" stroke="black" stroke-dasharray="5,2" points="589,-366 566,-366 566,-348 589,-348 589,-366"/>
<text text-anchor="middle" x="577.5" y="-354.8" font-family="serif" font-size="9.00">0</text>
</g>
<!-- v0 -->
<g id="v0_Building" class="node"><title>v0</title>
<ellipse fill="none" stroke="black" cx="577.5" cy="-301" rx="36" ry="11"/>
<text text-anchor="middle" x="577.5" y="-298.8" font-family="sans-serif" font-size="9.00">Building</text>
</g>
<!-- r0&#45;&gt;v0 -->
<g id="edge1" class="edge"><title>r0&#45;&gt;v0</title>
<path fill="none" stroke="black" d="M577.5,-347.562C577.5,-339.453 577.5,-327.014 577.5,-317.181"/>
<polygon fill="black" stroke="black" points="577.5,-312.03 579.75,-317.03 577.5,-314.53 577.5,-317.03 577.5,-317.03 577.5,-317.03 577.5,-314.53 575.25,-317.03 577.5,-312.03 577.5,-312.03"/>
</g>
<!-- r1 -->
<g id="node2" class="node"><title>r1</title>
<polygon fill="none" stroke="black" stroke-dasharray="5,2" points="1197,-366 1174,-366 1174,-348 1197,-348 1197,-366"/>
<text text-anchor="middle" x="1185.5" y="-354.8" font-family="serif" font-size="9.00">1</text>
</g>
<!-- v7 -->
<g id="v7_RulesKeywords" class="node"><title>v7</title>
<ellipse fill="none" stroke="black" cx="1185.5" cy="-69" rx="54" ry="11"/>
<text text-anchor="middle" x="1185.5" y="-66.8" font-family="sans-serif" font-size="9.00">RulesKeywords</text>
</g>
<!-- r1&#45;&gt;v7 -->
<g id="edge2" class="edge"><title>r1&#45;&gt;v7</title>
<path fill="none" stroke="black" d="M1185.5,-347.849C1185.5,-329.373 1185.5,-282.889 1185.5,-244 1185.5,-244 1185.5,-244 1185.5,-184 1185.5,-148.604 1185.5,-107.026 1185.5,-85.1783"/>
<polygon fill="black" stroke="black" points="1185.5,-80.0648 1187.75,-85.0648 1185.5,-82.5648 1185.5,-85.0648 1185.5,-85.0648 1185.5,-85.0648 1185.5,-82.5648 1183.25,-85.0648 1185.5,-80.0648 1185.5,-80.0648"/>
</g>
<!-- e2 -->
<g id="node3" class="node"><title>e2</title>
</g>
<!-- v5 -->
<g id="v5_SmartLight" class="node"><title>v5</title>
<ellipse fill="none" stroke="black" cx="605.5" cy="-11" rx="43" ry="11"/>
<text text-anchor="middle" x="605.5" y="-8.8" font-family="sans-serif" font-size="9.00">SmartLight</text>
</g>
<!-- e2&#45;&gt;v5 -->
<g id="edge25" class="edge"><title>e2&#45;&gt;v5</title>
<path fill="none" stroke="green" d="M605.5,-64.1674C605.5,-55.5862 605.5,-34.5957 605.5,-22.0117"/>
<polygon fill="green" stroke="green" points="609,-67.3001 602,-67.2999 602,-65.8999 609,-65.9001 609,-67.3001"/>
<polyline fill="none" stroke="green" points="605.5,-68 605.5,-64.5 "/>
</g>
<!-- v1 -->
<g id="v1_Floor" class="node"><title>v1</title>
<ellipse fill="none" stroke="black" cx="443.5" cy="-243" rx="25" ry="11"/>
<text text-anchor="middle" x="443.5" y="-240.8" font-family="sans-serif" font-size="9.00">Floor</text>
</g>
<!-- v0&#45;&gt;v1 -->
<g id="edge3" class="edge"><title>v0&#45;&gt;v1</title>
<path fill="none" stroke="black" d="M557.728,-291.737C533.157,-281.469 491.346,-263.995 465.699,-253.277"/>
<polygon fill="black" stroke="black" points="460.795,-251.228 466.276,-251.08 463.102,-252.192 465.408,-253.156 465.408,-253.156 465.408,-253.156 463.102,-252.192 464.541,-255.232 460.795,-251.228 460.795,-251.228"/>
</g>
<!-- v6 -->
<g id="v6_InstallationBus" class="node"><title>v6</title>
<ellipse fill="none" stroke="black" cx="817.5" cy="-11" rx="61" ry="11"/>
<text text-anchor="middle" x="817.5" y="-8.8" font-family="sans-serif" font-size="9.00">InstallationBus</text>
</g>
<!-- v0&#45;&gt;v6 -->
<g id="edge4" class="edge"><title>v0&#45;&gt;v6</title>
<path fill="none" stroke="black" d="M608.8,-295.505C662.034,-285.899 764.5,-258.052 764.5,-186 764.5,-186 764.5,-186 764.5,-126 764.5,-86.8768 790.484,-46.6502 806.065,-26.0464"/>
<polygon fill="black" stroke="black" points="809.219,-21.9551 807.948,-27.2889 807.692,-23.9352 806.166,-25.9152 806.166,-25.9152 806.166,-25.9152 807.692,-23.9352 804.384,-24.5416 809.219,-21.9551 809.219,-21.9551"/>
</g>
<!-- v2 -->
<g id="v2_Room" class="node"><title>v2</title>
<ellipse fill="none" stroke="black" cx="576.5" cy="-185" rx="21.5" ry="11"/>
<text text-anchor="middle" x="576.5" y="-182.8" font-family="sans-serif" font-size="9.00">Room</text>
</g>
<!-- v1&#45;&gt;v2 -->
<g id="edge5" class="edge"><title>v1&#45;&gt;v2</title>
<path fill="none" stroke="black" d="M460.615,-234.794C485.053,-224.504 529.874,-205.632 556.035,-194.617"/>
<polygon fill="black" stroke="black" points="560.693,-192.656 556.958,-196.67 558.389,-193.626 556.085,-194.596 556.085,-194.596 556.085,-194.596 558.389,-193.626 555.212,-192.522 560.693,-192.656 560.693,-192.656"/>
</g>
<!-- v9 -->
<g id="v9_Hallway" class="node"><title>v9</title>
<ellipse fill="none" stroke="black" cx="32.5" cy="-11" rx="32.5" ry="11"/>
<text text-anchor="middle" x="32.5" y="-8.8" font-family="sans-serif" font-size="9.00">Hallway</text>
</g>
<!-- v1&#45;&gt;v9 -->
<g id="edge6" class="edge"><title>v1&#45;&gt;v9</title>
<path fill="none" stroke="black" d="M428.872,-233.814C366.745,-199.047 124.648,-63.5668 52.7444,-23.329"/>
<polygon fill="black" stroke="black" points="48.2581,-20.8184 53.7201,-21.2967 50.4397,-22.0393 52.6213,-23.2602 52.6213,-23.2602 52.6213,-23.2602 50.4397,-22.0393 51.5225,-25.2236 48.2581,-20.8184 48.2581,-20.8184"/>
</g>
<!-- v15 -->
<g id="v15_Room" class="node"><title>v15</title>
<ellipse fill="none" stroke="black" cx="249.5" cy="-69" rx="21.5" ry="11"/>
<text text-anchor="middle" x="249.5" y="-66.8" font-family="sans-serif" font-size="9.00">Room</text>
</g>
<!-- v1&#45;&gt;v15 -->
<g id="edge7" class="edge"><title>v1&#45;&gt;v15</title>
<path fill="none" stroke="black" d="M433.07,-232.753C400.417,-203.803 300.148,-114.904 263.284,-82.2209"/>
<polygon fill="black" stroke="black" points="259.513,-78.8778 264.747,-80.5113 261.384,-80.5363 263.255,-82.1949 263.255,-82.1949 263.255,-82.1949 261.384,-80.5363 261.762,-83.8785 259.513,-78.8778 259.513,-78.8778"/>
</g>
<!-- v19 -->
<g id="v19_Room" class="node"><title>v19</title>
<ellipse fill="none" stroke="black" cx="443.5" cy="-69" rx="21.5" ry="11"/>
<text text-anchor="middle" x="443.5" y="-66.8" font-family="sans-serif" font-size="9.00">Room</text>
</g>
<!-- v1&#45;&gt;v19 -->
<g id="edge8" class="edge"><title>v1&#45;&gt;v19</title>
<path fill="none" stroke="black" d="M443.5,-231.756C443.5,-202.786 443.5,-120.136 443.5,-85.5335"/>
<polygon fill="black" stroke="black" points="443.5,-80.4081 445.75,-85.408 443.5,-82.9081 443.5,-85.4081 443.5,-85.4081 443.5,-85.4081 443.5,-82.9081 441.25,-85.4081 443.5,-80.4081 443.5,-80.4081"/>
</g>
<!-- v3 -->
<g id="v3_Visitor" class="node"><title>v3</title>
<ellipse fill="none" stroke="black" cx="657.5" cy="-127" rx="32.5" ry="11"/>
<text text-anchor="middle" x="657.5" y="-124.8" font-family="sans-serif" font-size="9.00">Visitor</text>
</g>
<!-- v2&#45;&gt;v3 -->
<g id="edge9" class="edge"><title>v2&#45;&gt;v3</title>
<path fill="none" stroke="black" d="M588.452,-175.737C602.048,-166.337 624.377,-150.9 639.95,-140.133"/>
<polygon fill="black" stroke="black" points="644.15,-137.23 641.317,-141.924 642.094,-138.651 640.037,-140.073 640.037,-140.073 640.037,-140.073 642.094,-138.651 638.758,-138.222 644.15,-137.23 644.15,-137.23"/>
</g>
<!-- v2&#45;&gt;v5 -->
<g id="edge10" class="edge"><title>v2&#45;&gt;v5</title>
<path fill="none" stroke="black" d="M577.806,-173.837C580.615,-152.371 587.618,-100.862 595.5,-58 597.403,-47.6525 599.921,-36.0795 601.954,-27.1302"/>
<polygon fill="black" stroke="black" points="603.087,-22.1933 604.161,-27.5699 602.527,-24.63 601.968,-27.0667 601.968,-27.0667 601.968,-27.0667 602.527,-24.63 599.775,-26.5635 603.087,-22.1933 603.087,-22.1933"/>
</g>
<!-- v2&#45;&gt;v9 -->
<g id="edge23" class="edge"><title>v2&#45;&gt;v9</title>
<path fill="none" stroke="green" d="M562.404,-176.643C520.498,-155.077 392.562,-91.4357 279.5,-58 190.792,-31.7667 165.091,-40.7215 74.5,-22 68.9213,-20.8471 62.9533,-19.4974 57.3188,-18.1693"/>
</g>
<!-- v4 -->
<g id="v4_Laptop" class="node"><title>v4</title>
<ellipse fill="none" stroke="black" cx="677.5" cy="-69" rx="29" ry="11"/>
<text text-anchor="middle" x="677.5" y="-66.8" font-family="sans-serif" font-size="9.00">Laptop</text>
</g>
<!-- v3&#45;&gt;v4 -->
<g id="edge11" class="edge"><title>v3&#45;&gt;v4</title>
<path fill="none" stroke="black" d="M661.076,-115.988C664.176,-107.308 668.704,-94.6286 672.221,-84.7806"/>
<polygon fill="black" stroke="black" points="673.955,-79.925 674.393,-85.3905 673.114,-82.2794 672.274,-84.6337 672.274,-84.6337 672.274,-84.6337 673.114,-82.2794 670.155,-83.8769 673.955,-79.925 673.955,-79.925"/>
</g>
<!-- v4&#45;&gt;v6 -->
<g id="edge24" class="edge"><title>v4&#45;&gt;v6</title>
<path fill="none" stroke="green" d="M696.381,-60.4476C721.758,-50.297 766.842,-32.2633 794.269,-21.2924"/>
</g>
<!-- v11 -->
<g id="v11_Software" class="node"><title>v11</title>
<ellipse fill="none" stroke="black" cx="702.5" cy="-11" rx="36" ry="11"/>
<text text-anchor="middle" x="702.5" y="-8.8" font-family="sans-serif" font-size="9.00">Software</text>
</g>
<!-- v4&#45;&gt;v11 -->
<g id="edge12" class="edge"><title>v4&#45;&gt;v11</title>
<path fill="none" stroke="black" d="M681.969,-57.9883C685.88,-49.2286 691.609,-36.3956 696.022,-26.5103"/>
<polygon fill="black" stroke="black" points="698.069,-21.925 698.085,-27.4079 697.05,-24.2079 696.031,-26.4907 696.031,-26.4907 696.031,-26.4907 697.05,-24.2079 693.976,-25.5735 698.069,-21.925 698.069,-21.925"/>
</g>
<!-- v16 -->
<g id="v16_SmartLight" class="node"><title>v16</title>
<ellipse fill="none" stroke="black" cx="126.5" cy="-11" rx="43" ry="11"/>
<text text-anchor="middle" x="126.5" y="-8.8" font-family="sans-serif" font-size="9.00">SmartLight</text>
</g>
<!-- v6&#45;&gt;v16 -->
<g id="edge26" class="edge"><title>v6&#45;&gt;v16</title>
<path fill="none" stroke="green" d="M795.609,-21.4084C780.067,-28.2018 758.495,-36.446 738.5,-40 678.223,-50.714 247.221,-53.4735 187.5,-40 171.486,-36.3871 154.744,-28.0527 142.859,-21.2415"/>
</g>
<!-- v17 -->
<g id="v17_HVAC" class="node"><title>v17</title>
<ellipse fill="none" stroke="black" cx="209.5" cy="-11" rx="21.5" ry="11"/>
<text text-anchor="middle" x="209.5" y="-8.8" font-family="sans-serif" font-size="9.00">HVAC</text>
</g>
<!-- v6&#45;&gt;v17 -->
<g id="edge27" class="edge"><title>v6&#45;&gt;v17</title>
<path fill="none" stroke="green" d="M795.609,-21.4084C780.067,-28.2018 758.495,-36.446 738.5,-40 684.896,-49.5279 300.186,-57.1105 248.5,-40 237.126,-36.2346 226.37,-27.7237 219.047,-20.8905"/>
</g>
<!-- v18 -->
<g id="v18_FireAlarm" class="node"><title>v18</title>
<ellipse fill="none" stroke="black" cx="288.5" cy="-11" rx="39.5" ry="11"/>
<text text-anchor="middle" x="288.5" y="-8.8" font-family="sans-serif" font-size="9.00">FireAlarm</text>
</g>
<!-- v6&#45;&gt;v18 -->
<g id="edge28" class="edge"><title>v6&#45;&gt;v18</title>
<path fill="none" stroke="green" d="M795.609,-21.4084C780.067,-28.2018 758.495,-36.446 738.5,-40 652.733,-55.2447 431.281,-60.014 346.5,-40 331.16,-36.3788 315.252,-28.0452 303.985,-21.2364"/>
</g>
<!-- v20 -->
<g id="v20_SmartLight" class="node"><title>v20</title>
<ellipse fill="none" stroke="black" cx="389.5" cy="-11" rx="43" ry="11"/>
<text text-anchor="middle" x="389.5" y="-8.8" font-family="sans-serif" font-size="9.00">SmartLight</text>
</g>
<!-- v6&#45;&gt;v20 -->
<g id="edge29" class="edge"><title>v6&#45;&gt;v20</title>
<path fill="none" stroke="green" d="M795.609,-21.4084C780.067,-28.2018 758.495,-36.446 738.5,-40 675.488,-51.2002 512.931,-54.0848 450.5,-40 434.486,-36.3871 417.744,-28.0527 405.859,-21.2415"/>
</g>
<!-- v21 -->
<g id="v21_Workstation" class="node"><title>v21</title>
<ellipse fill="none" stroke="black" cx="497.5" cy="-11" rx="47" ry="11"/>
<text text-anchor="middle" x="497.5" y="-8.8" font-family="sans-serif" font-size="9.00">Workstation</text>
</g>
<!-- v6&#45;&gt;v21 -->
<g id="edge30" class="edge"><title>v6&#45;&gt;v21</title>
<path fill="none" stroke="green" d="M795.609,-21.4084C780.067,-28.2018 758.495,-36.446 738.5,-40 661.485,-53.6891 639.007,-56.2928 562.5,-40 545.58,-36.3967 527.726,-28.0614 515.021,-21.2474"/>
</g>
<!-- v8 -->
<g id="v8_DisconnectDevice" class="node"><title>v8</title>
<ellipse fill="none" stroke="black" cx="961.5" cy="-11" rx="65" ry="11"/>
<text text-anchor="middle" x="961.5" y="-8.8" font-family="sans-serif" font-size="9.00">DisconnectDevice</text>
</g>
<!-- v7&#45;&gt;v8 -->
<g id="edge13" class="edge"><title>v7&#45;&gt;v8</title>
<path fill="none" stroke="black" d="M1153.41,-59.9766C1112.99,-49.8716 1043.59,-32.5237 1000.26,-21.6895"/>
<polygon fill="black" stroke="black" points="995.367,-20.4667 1000.76,-19.4966 997.792,-21.0731 1000.22,-21.6795 1000.22,-21.6795 1000.22,-21.6795 997.792,-21.0731 999.672,-23.8623 995.367,-20.4667 995.367,-20.4667"/>
</g>
<!-- v10 -->
<g id="v10_ExitRoom" class="node"><title>v10</title>
<ellipse fill="none" stroke="black" cx="1080.5" cy="-11" rx="36" ry="11"/>
<text text-anchor="middle" x="1080.5" y="-8.8" font-family="sans-serif" font-size="9.00">ExitRoom</text>
</g>
<!-- v7&#45;&gt;v10 -->
<g id="edge14" class="edge"><title>v7&#45;&gt;v10</title>
<path fill="none" stroke="black" d="M1167.69,-58.5004C1149.46,-48.777 1121.12,-33.6662 1101.74,-23.3265"/>
<polygon fill="black" stroke="black" points="1097.01,-20.8068 1102.48,-21.1745 1099.22,-21.9833 1101.42,-23.1598 1101.42,-23.1598 1101.42,-23.1598 1099.22,-21.9833 1100.37,-25.1451 1097.01,-20.8068 1097.01,-20.8068"/>
</g>
<!-- v12 -->
<g id="v12_GenerateData" class="node"><title>v12</title>
<ellipse fill="none" stroke="black" cx="1185.5" cy="-11" rx="50.5" ry="11"/>
<text text-anchor="middle" x="1185.5" y="-8.8" font-family="sans-serif" font-size="9.00">GenerateData</text>
</g>
<!-- v7&#45;&gt;v12 -->
<g id="edge15" class="edge"><title>v7&#45;&gt;v12</title>
<path fill="none" stroke="black" d="M1185.5,-57.9883C1185.5,-49.4941 1185.5,-37.1697 1185.5,-27.4169"/>
<polygon fill="black" stroke="black" points="1185.5,-22.3039 1187.75,-27.3038 1185.5,-24.8039 1185.5,-27.3039 1185.5,-27.3039 1185.5,-27.3039 1185.5,-24.8039 1183.25,-27.3039 1185.5,-22.3039 1185.5,-22.3039"/>
</g>
<!-- v13 -->
<g id="v13_CollectData" class="node"><title>v13</title>
<ellipse fill="none" stroke="black" cx="1301.5" cy="-11" rx="47" ry="11"/>
<text text-anchor="middle" x="1301.5" y="-8.8" font-family="sans-serif" font-size="9.00">CollectData</text>
</g>
<!-- v7&#45;&gt;v13 -->
<g id="edge16" class="edge"><title>v7&#45;&gt;v13</title>
<path fill="none" stroke="black" d="M1204.92,-58.6269C1224.94,-48.9585 1256.2,-33.8675 1277.7,-23.4873"/>
<polygon fill="black" stroke="black" points="1282.41,-21.2174 1278.88,-25.4174 1280.16,-22.3043 1277.9,-23.3912 1277.9,-23.3912 1277.9,-23.3912 1280.16,-22.3043 1276.93,-21.3649 1282.41,-21.2174 1282.41,-21.2174"/>
</g>
<!-- v14 -->
<g id="v14_SendSoftware" class="node"><title>v14</title>
<ellipse fill="none" stroke="black" cx="1417.5" cy="-11" rx="50.5" ry="11"/>
<text text-anchor="middle" x="1417.5" y="-8.8" font-family="sans-serif" font-size="9.00">SendSoftware</text>
</g>
<!-- v7&#45;&gt;v14 -->
<g id="edge17" class="edge"><title>v7&#45;&gt;v14</title>
<path fill="none" stroke="black" d="M1218.25,-60.0953C1261.06,-49.7605 1335.86,-31.7058 1380.63,-20.9008"/>
<polygon fill="black" stroke="black" points="1385.66,-19.6847 1381.33,-23.0452 1383.23,-20.2713 1380.8,-20.858 1380.8,-20.858 1380.8,-20.858 1383.23,-20.2713 1380.28,-18.6708 1385.66,-19.6847 1385.66,-19.6847"/>
</g>
<!-- v9&#45;&gt;v15 -->
<g id="edge31" class="edge"><title>v9&#45;&gt;v15</title>
<path fill="none" stroke="green" d="M57.1649,-18.3651C101.098,-29.7028 191.949,-53.148 230.999,-63.2255"/>
</g>
<!-- v9&#45;&gt;v19 -->
<g id="edge32" class="edge"><title>v9&#45;&gt;v19</title>
<path fill="none" stroke="green" d="M57.2788,-18.3759C62.9154,-19.6933 68.8943,-20.9864 74.5,-22 206.003,-45.7778 366.102,-61.1783 422.572,-66.2027"/>
</g>
<!-- v15&#45;&gt;v16 -->
<g id="edge18" class="edge"><title>v15&#45;&gt;v16</title>
<path fill="none" stroke="black" d="M234.418,-61.1333C213.609,-51.6595 175.851,-34.4688 150.972,-23.1418"/>
<polygon fill="black" stroke="black" points="146.177,-20.9586 151.66,-20.9826 148.452,-21.9945 150.727,-23.0304 150.727,-23.0304 150.727,-23.0304 148.452,-21.9945 149.795,-25.0782 146.177,-20.9586 146.177,-20.9586"/>
</g>
<!-- v15&#45;&gt;v17 -->
<g id="edge19" class="edge"><title>v15&#45;&gt;v17</title>
<path fill="none" stroke="black" d="M242.715,-58.5004C236.317,-49.5445 226.656,-36.018 219.399,-25.859"/>
<polygon fill="black" stroke="black" points="216.453,-21.7345 221.19,-24.4953 217.906,-23.7688 219.359,-25.8031 219.359,-25.8031 219.359,-25.8031 217.906,-23.7688 217.529,-27.111 216.453,-21.7345 216.453,-21.7345"/>
</g>
<!-- v15&#45;&gt;v18 -->
<g id="edge20" class="edge"><title>v15&#45;&gt;v18</title>
<path fill="none" stroke="black" d="M256.116,-58.5004C262.277,-49.6537 271.544,-36.3472 278.588,-26.2321"/>
<polygon fill="black" stroke="black" points="281.456,-22.1148 280.445,-27.5038 280.027,-24.1664 278.598,-26.2179 278.598,-26.2179 278.598,-26.2179 280.027,-24.1664 276.752,-24.932 281.456,-22.1148 281.456,-22.1148"/>
</g>
<!-- v19&#45;&gt;v20 -->
<g id="edge21" class="edge"><title>v19&#45;&gt;v20</title>
<path fill="none" stroke="black" d="M434.583,-58.7527C425.832,-49.6777 412.391,-35.7387 402.46,-25.4402"/>
<polygon fill="black" stroke="black" points="398.976,-21.8266 404.066,-23.864 400.711,-23.6262 402.446,-25.4258 402.446,-25.4258 402.446,-25.4258 400.711,-23.6262 400.827,-26.9876 398.976,-21.8266 398.976,-21.8266"/>
</g>
<!-- v19&#45;&gt;v21 -->
<g id="edge22" class="edge"><title>v19&#45;&gt;v21</title>
<path fill="none" stroke="black" d="M452.417,-58.7527C461.168,-49.6777 474.609,-35.7387 484.54,-25.4402"/>
<polygon fill="black" stroke="black" points="488.024,-21.8266 486.173,-26.9876 486.289,-23.6262 484.554,-25.4258 484.554,-25.4258 484.554,-25.4258 486.289,-23.6262 482.934,-23.864 488.024,-21.8266 488.024,-21.8266"/>
</g>
</g>
</svg>
