<?xml version="1.0" encoding="UTF-8" standalone="no"?>
<?xml-stylesheet href="style.css" type="text/css"?>
<!DOCTYPE svg PUBLIC "-//W3C//DTD SVG 1.1//EN"
 "http://www.w3.org/Graphics/SVG/1.1/DTD/svg11.dtd">
<!-- Generated by graphviz version 2.38.0 (20140413.2041)
 -->
<!-- Title: 9.svg Pages: 1 -->
<svg width="990pt" height="316pt"
 viewBox="0.00 0.00 989.50 316.00" xmlns="http://www.w3.org/2000/svg" xmlns:xlink="http://www.w3.org/1999/xlink">
<g id="graph0" class="graph" transform="scale(1 1) rotate(0) translate(4 312)">
<title>9.svg</title>
<polygon fill="white" stroke="none" points="-4,4 -4,-312 985.5,-312 985.5,4 -4,4"/>
<!-- r0 -->
<g id="node1" class="node"><title>r0</title>
<polygon fill="none" stroke="black" stroke-dasharray="5,2" points="309,-308 286,-308 286,-290 309,-290 309,-308"/>
<text text-anchor="middle" x="297.5" y="-296.8" font-family="serif" font-size="9.00">0</text>
</g>
<!-- v0 -->
<g id="v0_Building" class="node"><title>v0</title>
<ellipse fill="none" stroke="black" cx="297.5" cy="-243" rx="36" ry="11"/>
<text text-anchor="middle" x="297.5" y="-240.8" font-family="sans-serif" font-size="9.00">Building</text>
</g>
<!-- r0&#45;&gt;v0 -->
<g id="edge1" class="edge"><title>r0&#45;&gt;v0</title>
<path fill="none" stroke="black" d="M297.5,-289.562C297.5,-281.453 297.5,-269.014 297.5,-259.181"/>
<polygon fill="black" stroke="black" points="297.5,-254.03 299.75,-259.03 297.5,-256.53 297.5,-259.03 297.5,-259.03 297.5,-259.03 297.5,-256.53 295.25,-259.03 297.5,-254.03 297.5,-254.03"/>
</g>
<!-- r1 -->
<g id="node2" class="node"><title>r1</title>
<polygon fill="none" stroke="black" stroke-dasharray="5,2" points="912,-308 889,-308 889,-290 912,-290 912,-308"/>
<text text-anchor="middle" x="900.5" y="-296.8" font-family="serif" font-size="9.00">1</text>
</g>
<!-- v8 -->
<g id="v8_RulesKeywords" class="node"><title>v8</title>
<ellipse fill="none" stroke="black" cx="900.5" cy="-69" rx="54" ry="11"/>
<text text-anchor="middle" x="900.5" y="-66.8" font-family="sans-serif" font-size="9.00">RulesKeywords</text>
</g>
<!-- r1&#45;&gt;v8 -->
<g id="edge2" class="edge"><title>r1&#45;&gt;v8</title>
<path fill="none" stroke="black" d="M900.5,-289.885C900.5,-256.489 900.5,-129.348 900.5,-85.206"/>
<polygon fill="black" stroke="black" points="900.5,-80.0114 902.75,-85.0113 900.5,-82.5114 900.5,-85.0114 900.5,-85.0114 900.5,-85.0114 900.5,-82.5114 898.25,-85.0114 900.5,-80.0114 900.5,-80.0114"/>
</g>
<!-- e9 -->
<g id="node3" class="node"><title>e9</title>
</g>
<!-- v7 -->
<g id="v7_Laptop" class="node"><title>v7</title>
<ellipse fill="none" stroke="black" cx="306.5" cy="-11" rx="29" ry="11"/>
<text text-anchor="middle" x="306.5" y="-8.8" font-family="sans-serif" font-size="9.00">Laptop</text>
</g>
<!-- e9&#45;&gt;v7 -->
<g id="edge29" class="edge"><title>e9&#45;&gt;v7</title>
<path fill="none" stroke="green" d="M306.5,-64.1674C306.5,-55.5862 306.5,-34.5957 306.5,-22.0117"/>
<polygon fill="green" stroke="green" points="310,-67.3001 303,-67.2999 303,-65.8999 310,-65.9001 310,-67.3001"/>
<polyline fill="none" stroke="green" points="306.5,-68 306.5,-64.5 "/>
</g>
<!-- v1 -->
<g id="v1_InstallationBus" class="node"><title>v1</title>
<ellipse fill="none" stroke="black" cx="63.5" cy="-69" rx="61" ry="11"/>
<text text-anchor="middle" x="63.5" y="-66.8" font-family="sans-serif" font-size="9.00">InstallationBus</text>
</g>
<!-- v0&#45;&gt;v1 -->
<g id="edge3" class="edge"><title>v0&#45;&gt;v1</title>
<path fill="none" stroke="black" d="M284.586,-232.508C245.138,-203.512 126.171,-116.066 81.0816,-82.9233"/>
<polygon fill="black" stroke="black" points="76.954,-79.8892 82.3153,-81.0376 78.9683,-81.3699 80.9827,-82.8506 80.9827,-82.8506 80.9827,-82.8506 78.9683,-81.3699 79.6501,-84.6635 76.954,-79.8892 76.954,-79.8892"/>
</g>
<!-- v3 -->
<g id="v3_Floor" class="node"><title>v3</title>
<ellipse fill="none" stroke="black" cx="429.5" cy="-185" rx="25" ry="11"/>
<text text-anchor="middle" x="429.5" y="-182.8" font-family="sans-serif" font-size="9.00">Floor</text>
</g>
<!-- v0&#45;&gt;v3 -->
<g id="edge4" class="edge"><title>v0&#45;&gt;v3</title>
<path fill="none" stroke="black" d="M316.977,-233.737C341.181,-223.469 382.369,-205.995 407.632,-195.277"/>
<polygon fill="black" stroke="black" points="412.463,-193.228 408.739,-197.252 410.162,-194.204 407.86,-195.181 407.86,-195.181 407.86,-195.181 410.162,-194.204 406.981,-193.109 412.463,-193.228 412.463,-193.228"/>
</g>
<!-- v2 -->
<g id="v2_Data" class="node"><title>v2</title>
<ellipse fill="none" stroke="black" cx="21.5" cy="-11" rx="21.5" ry="11"/>
<text text-anchor="middle" x="21.5" y="-8.8" font-family="sans-serif" font-size="9.00">Data</text>
</g>
<!-- v1&#45;&gt;v2 -->
<g id="edge5" class="edge"><title>v1&#45;&gt;v2</title>
<path fill="none" stroke="black" d="M55.9912,-57.9883C49.2194,-48.9593 39.2019,-35.6025 31.7051,-25.6069"/>
<polygon fill="black" stroke="black" points="28.6634,-21.5512 33.4634,-24.2012 30.1634,-23.5512 31.6634,-25.5512 31.6634,-25.5512 31.6634,-25.5512 30.1634,-23.5512 29.8634,-26.9012 28.6634,-21.5512 28.6634,-21.5512"/>
</g>
<!-- v10 -->
<g id="v10_SmartLight" class="node"><title>v10</title>
<ellipse fill="none" stroke="black" cx="104.5" cy="-11" rx="43" ry="11"/>
<text text-anchor="middle" x="104.5" y="-8.8" font-family="sans-serif" font-size="9.00">SmartLight</text>
</g>
<!-- v1&#45;&gt;v10 -->
<g id="edge20" class="edge"><title>v1&#45;&gt;v10</title>
<path fill="none" stroke="green" d="M70.83,-57.9883C78.2928,-47.7952 89.7937,-32.0867 97.2335,-21.925"/>
</g>
<!-- v11 -->
<g id="v11_Workstation" class="node"><title>v11</title>
<ellipse fill="none" stroke="black" cx="212.5" cy="-11" rx="47" ry="11"/>
<text text-anchor="middle" x="212.5" y="-8.8" font-family="sans-serif" font-size="9.00">Workstation</text>
</g>
<!-- v1&#45;&gt;v11 -->
<g id="edge21" class="edge"><title>v1&#45;&gt;v11</title>
<path fill="none" stroke="green" d="M87.771,-58.878C115.808,-48.3405 161.611,-31.1259 189.221,-20.749"/>
</g>
<!-- v14 -->
<g id="v14_SmartLight" class="node"><title>v14</title>
<ellipse fill="none" stroke="black" cx="396.5" cy="-11" rx="43" ry="11"/>
<text text-anchor="middle" x="396.5" y="-8.8" font-family="sans-serif" font-size="9.00">SmartLight</text>
</g>
<!-- v1&#45;&gt;v14 -->
<g id="edge22" class="edge"><title>v1&#45;&gt;v14</title>
<path fill="none" stroke="green" d="M107.37,-61.2043C162.717,-52.542 260.789,-36.898 344.5,-22 350.926,-20.8563 357.788,-19.5779 364.349,-18.3273"/>
</g>
<!-- v16 -->
<g id="v16_SmartLight" class="node"><title>v16</title>
<ellipse fill="none" stroke="black" cx="598.5" cy="-11" rx="43" ry="11"/>
<text text-anchor="middle" x="598.5" y="-8.8" font-family="sans-serif" font-size="9.00">SmartLight</text>
</g>
<!-- v1&#45;&gt;v16 -->
<g id="edge23" class="edge"><title>v1&#45;&gt;v16</title>
<path fill="none" stroke="green" d="M115.758,-63.2852C231.749,-52.7809 503.782,-27.9138 545.5,-22 552.361,-21.0275 559.683,-19.7816 566.628,-18.5017"/>
</g>
<!-- v17 -->
<g id="v17_Server" class="node"><title>v17</title>
<ellipse fill="none" stroke="black" cx="688.5" cy="-11" rx="29" ry="11"/>
<text text-anchor="middle" x="688.5" y="-8.8" font-family="sans-serif" font-size="9.00">Server</text>
</g>
<!-- v1&#45;&gt;v17 -->
<g id="edge24" class="edge"><title>v1&#45;&gt;v17</title>
<path fill="none" stroke="green" d="M116.039,-63.362C135.917,-61.6359 158.749,-59.6875 179.5,-58 388.753,-40.9839 443.47,-56.8574 650.5,-22 655.882,-21.0939 661.611,-19.7775 666.945,-18.3958"/>
</g>
<!-- v18 -->
<g id="v18_FireAlarm" class="node"><title>v18</title>
<ellipse fill="none" stroke="black" cx="497.5" cy="-11" rx="39.5" ry="11"/>
<text text-anchor="middle" x="497.5" y="-8.8" font-family="sans-serif" font-size="9.00">FireAlarm</text>
</g>
<!-- v1&#45;&gt;v18 -->
<g id="edge25" class="edge"><title>v1&#45;&gt;v18</title>
<path fill="none" stroke="green" d="M115.376,-63.1723C189.499,-55.9634 329.879,-41.1573 448.5,-22 454.843,-20.9757 461.613,-19.7079 468.033,-18.4231"/>
</g>
<!-- v4 -->
<g id="v4_Hallway" class="node"><title>v4</title>
<ellipse fill="none" stroke="black" cx="768.5" cy="-11" rx="32.5" ry="11"/>
<text text-anchor="middle" x="768.5" y="-8.8" font-family="sans-serif" font-size="9.00">Hallway</text>
</g>
<!-- v3&#45;&gt;v4 -->
<g id="edge6" class="edge"><title>v3&#45;&gt;v4</title>
<path fill="none" stroke="black" d="M444.947,-176.163C499.609,-148.429 683.97,-54.8883 747.092,-22.862"/>
<polygon fill="black" stroke="black" points="751.774,-20.4864 748.333,-24.7553 749.544,-21.6176 747.315,-22.7488 747.315,-22.7488 747.315,-22.7488 749.544,-21.6176 746.297,-20.7423 751.774,-20.4864 751.774,-20.4864"/>
</g>
<!-- v5 -->
<g id="v5_Room" class="node"><title>v5</title>
<ellipse fill="none" stroke="black" cx="315.5" cy="-127" rx="21.5" ry="11"/>
<text text-anchor="middle" x="315.5" y="-124.8" font-family="sans-serif" font-size="9.00">Room</text>
</g>
<!-- v3&#45;&gt;v5 -->
<g id="edge7" class="edge"><title>v3&#45;&gt;v5</title>
<path fill="none" stroke="black" d="M413.649,-176.213C392.972,-166.057 356.828,-148.302 334.645,-137.405"/>
<polygon fill="black" stroke="black" points="330.134,-135.189 335.614,-135.374 332.378,-136.291 334.622,-137.393 334.622,-137.393 334.622,-137.393 332.378,-136.291 333.63,-139.413 330.134,-135.189 330.134,-135.189"/>
</g>
<!-- v13 -->
<g id="v13_Room" class="node"><title>v13</title>
<ellipse fill="none" stroke="black" cx="429.5" cy="-69" rx="21.5" ry="11"/>
<text text-anchor="middle" x="429.5" y="-66.8" font-family="sans-serif" font-size="9.00">Room</text>
</g>
<!-- v3&#45;&gt;v13 -->
<g id="edge8" class="edge"><title>v3&#45;&gt;v13</title>
<path fill="none" stroke="black" d="M429.5,-173.883C429.5,-153.906 429.5,-109.276 429.5,-85.5402"/>
<polygon fill="black" stroke="black" points="429.5,-80.2579 431.75,-85.2579 429.5,-82.7579 429.5,-85.2579 429.5,-85.2579 429.5,-85.2579 429.5,-82.7579 427.25,-85.258 429.5,-80.2579 429.5,-80.2579"/>
</g>
<!-- v15 -->
<g id="v15_Room" class="node"><title>v15</title>
<ellipse fill="none" stroke="black" cx="547.5" cy="-69" rx="21.5" ry="11"/>
<text text-anchor="middle" x="547.5" y="-66.8" font-family="sans-serif" font-size="9.00">Room</text>
</g>
<!-- v3&#45;&gt;v15 -->
<g id="edge9" class="edge"><title>v3&#45;&gt;v15</title>
<path fill="none" stroke="black" d="M439.156,-174.671C460.264,-154.278 510.533,-105.714 534.438,-82.6191"/>
<polygon fill="black" stroke="black" points="538.04,-79.1394 536.007,-84.2317 536.242,-80.8764 534.444,-82.6135 534.444,-82.6135 534.444,-82.6135 536.242,-80.8764 532.881,-80.9953 538.04,-79.1394 538.04,-79.1394"/>
</g>
<!-- v4&#45;&gt;v5 -->
<g id="edge26" class="edge"><title>v4&#45;&gt;v5</title>
<path fill="none" stroke="green" d="M744.194,-18.4411C738.427,-19.7873 732.273,-21.0764 726.5,-22 679.157,-29.5739 328.957,-22.7119 296.5,-58 281.397,-74.4198 297.372,-101.862 307.869,-116.355"/>
</g>
<!-- v4&#45;&gt;v13 -->
<g id="edge27" class="edge"><title>v4&#45;&gt;v13</title>
<path fill="none" stroke="green" d="M743.698,-18.2529C738.063,-19.5766 732.09,-20.9034 726.5,-22 623.329,-42.2382 498.568,-59.1159 450.123,-65.3849"/>
</g>
<!-- v4&#45;&gt;v15 -->
<g id="edge28" class="edge"><title>v4&#45;&gt;v15</title>
<path fill="none" stroke="green" d="M743.623,-18.3036C698.83,-29.6539 605.591,-53.2801 565.962,-63.3218"/>
</g>
<!-- v6 -->
<g id="v6_Visitor" class="node"><title>v6</title>
<ellipse fill="none" stroke="black" cx="357.5" cy="-69" rx="32.5" ry="11"/>
<text text-anchor="middle" x="357.5" y="-66.8" font-family="sans-serif" font-size="9.00">Visitor</text>
</g>
<!-- v5&#45;&gt;v6 -->
<g id="edge10" class="edge"><title>v5&#45;&gt;v6</title>
<path fill="none" stroke="black" d="M322.625,-116.5C329.342,-107.544 339.487,-94.018 347.106,-83.859"/>
<polygon fill="black" stroke="black" points="350.199,-79.7345 348.999,-85.0845 348.699,-81.7345 347.199,-83.7345 347.199,-83.7345 347.199,-83.7345 348.699,-81.7345 345.399,-82.3845 350.199,-79.7345 350.199,-79.7345"/>
</g>
<!-- v5&#45;&gt;v10 -->
<g id="edge11" class="edge"><title>v5&#45;&gt;v10</title>
<path fill="none" stroke="black" d="M295.97,-122.052C268.559,-115.938 217.75,-102.479 179.5,-80 154.569,-65.3481 130.704,-41.4414 116.834,-26.2283"/>
<polygon fill="black" stroke="black" points="113.194,-22.1828 118.211,-24.3949 114.866,-24.0413 116.538,-25.8998 116.538,-25.8998 116.538,-25.8998 114.866,-24.0413 114.866,-27.4047 113.194,-22.1828 113.194,-22.1828"/>
</g>
<!-- v5&#45;&gt;v11 -->
<g id="edge12" class="edge"><title>v5&#45;&gt;v11</title>
<path fill="none" stroke="black" d="M307.071,-116.671C288.995,-96.664 246.418,-49.5404 225.109,-25.9559"/>
<polygon fill="black" stroke="black" points="221.633,-22.1089 226.655,-24.3105 223.31,-23.9639 224.986,-25.8189 224.986,-25.8189 224.986,-25.8189 223.31,-23.9639 223.316,-27.3274 221.633,-22.1089 221.633,-22.1089"/>
</g>
<!-- v6&#45;&gt;v7 -->
<g id="edge13" class="edge"><title>v6&#45;&gt;v7</title>
<path fill="none" stroke="black" d="M348.616,-58.2455C340.353,-49.1716 327.965,-35.5697 318.762,-25.4636"/>
<polygon fill="black" stroke="black" points="315.282,-21.6427 320.312,-23.8244 316.965,-23.491 318.648,-25.3394 318.648,-25.3394 318.648,-25.3394 316.965,-23.491 316.985,-26.8544 315.282,-21.6427 315.282,-21.6427"/>
</g>
<!-- v9 -->
<g id="v9_ExitRoom" class="node"><title>v9</title>
<ellipse fill="none" stroke="black" cx="855.5" cy="-11" rx="36" ry="11"/>
<text text-anchor="middle" x="855.5" y="-8.8" font-family="sans-serif" font-size="9.00">ExitRoom</text>
</g>
<!-- v8&#45;&gt;v9 -->
<g id="edge14" class="edge"><title>v8&#45;&gt;v9</title>
<path fill="none" stroke="black" d="M892.455,-57.9883C885.288,-49.0694 874.728,-35.9276 866.729,-25.974"/>
<polygon fill="black" stroke="black" points="863.475,-21.925 868.361,-24.4132 865.041,-23.8738 866.607,-25.8226 866.607,-25.8226 866.607,-25.8226 865.041,-23.8738 864.854,-27.232 863.475,-21.925 863.475,-21.925"/>
</g>
<!-- v12 -->
<g id="v12_ExitRoom" class="node"><title>v12</title>
<ellipse fill="none" stroke="black" cx="945.5" cy="-11" rx="36" ry="11"/>
<text text-anchor="middle" x="945.5" y="-8.8" font-family="sans-serif" font-size="9.00">ExitRoom</text>
</g>
<!-- v8&#45;&gt;v12 -->
<g id="edge15" class="edge"><title>v8&#45;&gt;v12</title>
<path fill="none" stroke="black" d="M908.545,-57.9883C915.712,-49.0694 926.272,-35.9276 934.271,-25.974"/>
<polygon fill="black" stroke="black" points="937.525,-21.925 936.146,-27.232 935.959,-23.8738 934.393,-25.8226 934.393,-25.8226 934.393,-25.8226 935.959,-23.8738 932.639,-24.4132 937.525,-21.925 937.525,-21.925"/>
</g>
<!-- v13&#45;&gt;v14 -->
<g id="edge16" class="edge"><title>v13&#45;&gt;v14</title>
<path fill="none" stroke="black" d="M423.752,-58.2455C418.563,-49.4409 410.863,-36.373 404.969,-26.3724"/>
<polygon fill="black" stroke="black" points="402.404,-22.0198 406.881,-25.1851 403.674,-24.1736 404.943,-26.3275 404.943,-26.3275 404.943,-26.3275 403.674,-24.1736 403.005,-27.4698 402.404,-22.0198 402.404,-22.0198"/>
</g>
<!-- v15&#45;&gt;v16 -->
<g id="edge17" class="edge"><title>v15&#45;&gt;v16</title>
<path fill="none" stroke="black" d="M555.922,-58.7527C564.114,-49.7573 576.658,-35.9828 586.012,-25.7121"/>
<polygon fill="black" stroke="black" points="589.551,-21.8266 587.848,-27.0383 587.867,-23.6749 586.184,-25.5233 586.184,-25.5233 586.184,-25.5233 587.867,-23.6749 584.521,-24.0083 589.551,-21.8266 589.551,-21.8266"/>
</g>
<!-- v15&#45;&gt;v17 -->
<g id="edge18" class="edge"><title>v15&#45;&gt;v17</title>
<path fill="none" stroke="black" d="M563.674,-61.5761C588.428,-51.7448 635.854,-32.9091 664.588,-21.4971"/>
<polygon fill="black" stroke="black" points="669.379,-19.5943 665.562,-23.531 667.055,-20.5171 664.732,-21.4399 664.732,-21.4399 664.732,-21.4399 667.055,-20.5171 663.901,-19.3488 669.379,-19.5943 669.379,-19.5943"/>
</g>
<!-- v15&#45;&gt;v18 -->
<g id="edge19" class="edge"><title>v15&#45;&gt;v18</title>
<path fill="none" stroke="black" d="M539.244,-58.7527C531.212,-49.7573 518.913,-35.9828 509.743,-25.7121"/>
<polygon fill="black" stroke="black" points="506.274,-21.8266 511.282,-24.0577 507.939,-23.6914 509.604,-25.5563 509.604,-25.5563 509.604,-25.5563 507.939,-23.6914 507.925,-27.0548 506.274,-21.8266 506.274,-21.8266"/>
</g>
</g>
</svg>
