<?xml version="1.0" encoding="UTF-8" standalone="no"?>
<?xml-stylesheet href="style.css" type="text/css"?>
<!DOCTYPE svg PUBLIC "-//W3C//DTD SVG 1.1//EN"
 "http://www.w3.org/Graphics/SVG/1.1/DTD/svg11.dtd">
<!-- Generated by graphviz version 2.38.0 (20140413.2041)
 -->
<!-- Title: 9.svg Pages: 1 -->
<svg width="848pt" height="316pt"
 viewBox="0.00 0.00 847.50 316.00" xmlns="http://www.w3.org/2000/svg" xmlns:xlink="http://www.w3.org/1999/xlink">
<g id="graph0" class="graph" transform="scale(1 1) rotate(0) translate(4 312)">
<title>9.svg</title>
<polygon fill="white" stroke="none" points="-4,4 -4,-312 843.5,-312 843.5,4 -4,4"/>
<!-- r0 -->
<g id="node1" class="node"><title>r0</title>
<polygon fill="none" stroke="black" stroke-dasharray="5,2" points="356,-308 333,-308 333,-290 356,-290 356,-308"/>
<text text-anchor="middle" x="344.5" y="-296.8" font-family="serif" font-size="9.00">0</text>
</g>
<!-- v0 -->
<g id="v0_Building" class="node"><title>v0</title>
<ellipse fill="none" stroke="black" cx="344.5" cy="-243" rx="36" ry="11"/>
<text text-anchor="middle" x="344.5" y="-240.8" font-family="sans-serif" font-size="9.00">Building</text>
</g>
<!-- r0&#45;&gt;v0 -->
<g id="edge1" class="edge"><title>r0&#45;&gt;v0</title>
<path fill="none" stroke="black" d="M344.5,-289.562C344.5,-281.453 344.5,-269.014 344.5,-259.181"/>
<polygon fill="black" stroke="black" points="344.5,-254.03 346.75,-259.03 344.5,-256.53 344.5,-259.03 344.5,-259.03 344.5,-259.03 344.5,-256.53 342.25,-259.03 344.5,-254.03 344.5,-254.03"/>
</g>
<!-- oalarm -->
<g id="node2" class="node"><title>oalarm</title>
<text text-anchor="middle" x="39.5" y="-296.8" font-family="serif" font-size="9.00">alarm</text>
</g>
<!-- e1 -->
<g id="node12" class="node"><title>e1</title>
</g>
<!-- oalarm&#45;&gt;e1 -->
<g id="edge18" class="edge"><title>oalarm&#45;&gt;e1</title>
<path fill="none" stroke="green" d="M39.5,-289.801C39.5,-255.842 39.5,-128 39.5,-128"/>
</g>
<!-- ocntrlRm -->
<g id="node3" class="node"><title>ocntrlRm</title>
<text text-anchor="middle" x="677.5" y="-296.8" font-family="serif" font-size="9.00">cntrlRm</text>
</g>
<!-- e2 -->
<g id="node13" class="node"><title>e2</title>
</g>
<!-- ocntrlRm&#45;&gt;e2 -->
<g id="edge21" class="edge"><title>ocntrlRm&#45;&gt;e2</title>
<path fill="none" stroke="green" d="M677.5,-289.801C677.5,-255.842 677.5,-128 677.5,-128"/>
</g>
<!-- oserv -->
<g id="node4" class="node"><title>oserv</title>
<text text-anchor="middle" x="106.5" y="-296.8" font-family="serif" font-size="9.00">serv</text>
</g>
<!-- e3 -->
<g id="node14" class="node"><title>e3</title>
</g>
<!-- oserv&#45;&gt;e3 -->
<g id="edge24" class="edge"><title>oserv&#45;&gt;e3</title>
<path fill="none" stroke="green" d="M106.5,-289.801C106.5,-255.842 106.5,-128 106.5,-128"/>
</g>
<!-- oserverRm -->
<g id="node5" class="node"><title>oserverRm</title>
<text text-anchor="middle" x="469.5" y="-296.8" font-family="serif" font-size="9.00">serverRm</text>
</g>
<!-- e4 -->
<g id="node15" class="node"><title>e4</title>
</g>
<!-- oserverRm&#45;&gt;e4 -->
<g id="edge27" class="edge"><title>oserverRm&#45;&gt;e4</title>
<path fill="none" stroke="green" d="M469.404,-289.801C469.004,-255.842 467.5,-128 467.5,-128"/>
</g>
<!-- osl1 -->
<g id="node6" class="node"><title>osl1</title>
<text text-anchor="middle" x="405.5" y="-296.8" font-family="serif" font-size="9.00">sl1</text>
</g>
<!-- e5 -->
<g id="node16" class="node"><title>e5</title>
</g>
<!-- osl1&#45;&gt;e5 -->
<g id="edge30" class="edge"><title>osl1&#45;&gt;e5</title>
<path fill="none" stroke="green" d="M405.645,-289.801C406.244,-255.842 408.5,-128 408.5,-128"/>
</g>
<!-- osl2 -->
<g id="node7" class="node"><title>osl2</title>
<text text-anchor="middle" x="161.5" y="-296.8" font-family="serif" font-size="9.00">sl2</text>
</g>
<!-- e6 -->
<g id="node17" class="node"><title>e6</title>
</g>
<!-- osl2&#45;&gt;e6 -->
<g id="edge33" class="edge"><title>osl2&#45;&gt;e6</title>
<path fill="none" stroke="green" d="M161.5,-289.801C161.5,-255.842 161.5,-128 161.5,-128"/>
</g>
<!-- osl3 -->
<g id="node8" class="node"><title>osl3</title>
<text text-anchor="middle" x="228.5" y="-296.8" font-family="serif" font-size="9.00">sl3</text>
</g>
<!-- e7 -->
<g id="node18" class="node"><title>e7</title>
</g>
<!-- osl3&#45;&gt;e7 -->
<g id="edge36" class="edge"><title>osl3&#45;&gt;e7</title>
<path fill="none" stroke="green" d="M229.031,-289.801C231.228,-255.842 239.5,-128 239.5,-128"/>
</g>
<!-- ostation -->
<g id="node9" class="node"><title>ostation</title>
<text text-anchor="middle" x="285.5" y="-296.8" font-family="serif" font-size="9.00">station</text>
</g>
<!-- e8 -->
<g id="node19" class="node"><title>e8</title>
</g>
<!-- ostation&#45;&gt;e8 -->
<g id="edge39" class="edge"><title>ostation&#45;&gt;e8</title>
<path fill="none" stroke="green" d="M285.259,-289.801C284.26,-255.842 280.5,-128 280.5,-128"/>
</g>
<!-- otoiletRm -->
<g id="node10" class="node"><title>otoiletRm</title>
<text text-anchor="middle" x="759.5" y="-296.8" font-family="serif" font-size="9.00">toiletRm</text>
</g>
<!-- e9 -->
<g id="node20" class="node"><title>e9</title>
</g>
<!-- otoiletRm&#45;&gt;e9 -->
<g id="edge42" class="edge"><title>otoiletRm&#45;&gt;e9</title>
<path fill="none" stroke="green" d="M759.5,-289.945C759.5,-264.265 759.5,-186 759.5,-186"/>
</g>
<!-- e0 -->
<g id="node11" class="node"><title>e0</title>
</g>
<!-- v7 -->
<g id="v7_SmartLight" class="node"><title>v7</title>
<ellipse fill="none" stroke="black" cx="796.5" cy="-11" rx="43" ry="11"/>
<text text-anchor="middle" x="796.5" y="-8.8" font-family="sans-serif" font-size="9.00">SmartLight</text>
</g>
<!-- e0&#45;&gt;v7 -->
<g id="edge17" class="edge"><title>e0&#45;&gt;v7</title>
<path fill="none" stroke="green" d="M796.5,-64.1674C796.5,-55.5862 796.5,-34.5957 796.5,-22.0117"/>
<polygon fill="green" stroke="green" points="800,-67.3001 793,-67.2999 793,-65.8999 800,-65.9001 800,-67.3001"/>
<polyline fill="none" stroke="green" points="796.5,-68 796.5,-64.5 "/>
</g>
<!-- v1 -->
<g id="v1_InstallationBus" class="node"><title>v1</title>
<ellipse fill="none" stroke="black" cx="202.5" cy="-69" rx="61" ry="11"/>
<text text-anchor="middle" x="202.5" y="-66.8" font-family="sans-serif" font-size="9.00">InstallationBus</text>
</g>
<!-- e1&#45;&gt;v1 -->
<g id="edge19" class="edge"><title>e1&#45;&gt;v1</title>
<path fill="none" stroke="green" d="M39.5,-126C39.5,-126 130.235,-94.8273 176.311,-78.9974"/>
</g>
<!-- v12 -->
<g id="v12_FireAlarm" class="node"><title>v12</title>
<ellipse fill="none" stroke="black" cx="39.5" cy="-11" rx="39.5" ry="11"/>
<text text-anchor="middle" x="39.5" y="-8.8" font-family="sans-serif" font-size="9.00">FireAlarm</text>
</g>
<!-- e1&#45;&gt;v12 -->
<g id="edge20" class="edge"><title>e1&#45;&gt;v12</title>
<path fill="none" stroke="green" d="M39.5,-126C39.5,-126 39.5,-50.0168 39.5,-22.1167"/>
</g>
<!-- v8 -->
<g id="v8_Hallway" class="node"><title>v8</title>
<ellipse fill="none" stroke="black" cx="679.5" cy="-11" rx="32.5" ry="11"/>
<text text-anchor="middle" x="679.5" y="-8.8" font-family="sans-serif" font-size="9.00">Hallway</text>
</g>
<!-- e2&#45;&gt;v8 -->
<g id="edge22" class="edge"><title>e2&#45;&gt;v8</title>
<path fill="none" stroke="green" d="M677.5,-126C677.5,-126 678.833,-50.0168 679.323,-22.1167"/>
</g>
<!-- v13 -->
<g id="v13_Room" class="node"><title>v13</title>
<ellipse fill="none" stroke="black" cx="517.5" cy="-69" rx="21.5" ry="11"/>
<text text-anchor="middle" x="517.5" y="-66.8" font-family="sans-serif" font-size="9.00">Room</text>
</g>
<!-- e2&#45;&gt;v13 -->
<g id="edge23" class="edge"><title>e2&#45;&gt;v13</title>
<path fill="none" stroke="green" d="M677.5,-126C677.5,-126 575.4,-90.2649 534.32,-75.8871"/>
</g>
<!-- e3&#45;&gt;v1 -->
<g id="edge25" class="edge"><title>e3&#45;&gt;v1</title>
<path fill="none" stroke="green" d="M106.5,-126C106.5,-126 158.273,-95.7988 185.778,-79.7545"/>
</g>
<!-- v11 -->
<g id="v11_Server" class="node"><title>v11</title>
<ellipse fill="none" stroke="black" cx="129.5" cy="-11" rx="29" ry="11"/>
<text text-anchor="middle" x="129.5" y="-8.8" font-family="sans-serif" font-size="9.00">Server</text>
</g>
<!-- e3&#45;&gt;v11 -->
<g id="edge26" class="edge"><title>e3&#45;&gt;v11</title>
<path fill="none" stroke="green" d="M106.5,-126C106.5,-126 90.8428,-87.1224 99.5,-58 103.63,-44.1085 113.431,-30.4964 120.714,-21.7291"/>
</g>
<!-- e4&#45;&gt;v8 -->
<g id="edge28" class="edge"><title>e4&#45;&gt;v8</title>
<path fill="none" stroke="green" d="M467.5,-126C467.5,-126 463.888,-79.7578 486.5,-58 492.566,-52.1635 601.924,-28.4144 653.273,-17.5152"/>
</g>
<!-- v9 -->
<g id="v9_Room" class="node"><title>v9</title>
<ellipse fill="none" stroke="black" cx="303.5" cy="-69" rx="21.5" ry="11"/>
<text text-anchor="middle" x="303.5" y="-66.8" font-family="sans-serif" font-size="9.00">Room</text>
</g>
<!-- e4&#45;&gt;v9 -->
<g id="edge29" class="edge"><title>e4&#45;&gt;v9</title>
<path fill="none" stroke="green" d="M467.5,-126C467.5,-126 459.736,-119.44 452.5,-116 408.244,-94.9634 352.084,-80.6788 322.977,-74.1145"/>
</g>
<!-- e5&#45;&gt;v1 -->
<g id="edge31" class="edge"><title>e5&#45;&gt;v1</title>
<path fill="none" stroke="green" d="M408.5,-126C408.5,-126 291.415,-94.171 233.787,-78.5052"/>
</g>
<!-- v6 -->
<g id="v6_Laptop" class="node"><title>v6</title>
<ellipse fill="none" stroke="black" cx="589.5" cy="-11" rx="29" ry="11"/>
<text text-anchor="middle" x="589.5" y="-8.8" font-family="sans-serif" font-size="9.00">Laptop</text>
</g>
<!-- e5&#45;&gt;v6 -->
<g id="edge32" class="edge"><title>e5&#45;&gt;v6</title>
<path fill="none" stroke="green" d="M408.5,-126C408.5,-126 424.785,-80.1101 453.5,-58 462.807,-50.8339 532.144,-29.2808 568.062,-18.4131"/>
</g>
<!-- e6&#45;&gt;v1 -->
<g id="edge34" class="edge"><title>e6&#45;&gt;v1</title>
<path fill="none" stroke="green" d="M161.5,-126C161.5,-126 183.377,-96.1193 195.17,-80.0117"/>
</g>
<!-- v10 -->
<g id="v10_SmartLight" class="node"><title>v10</title>
<ellipse fill="none" stroke="black" cx="283.5" cy="-11" rx="43" ry="11"/>
<text text-anchor="middle" x="283.5" y="-8.8" font-family="sans-serif" font-size="9.00">SmartLight</text>
</g>
<!-- e6&#45;&gt;v10 -->
<g id="edge35" class="edge"><title>e6&#45;&gt;v10</title>
<path fill="none" stroke="green" d="M161.5,-126C161.5,-126 112.943,-84.4016 132.5,-58 139.861,-48.0629 211.909,-29.2704 253.766,-19.0501"/>
</g>
<!-- e7&#45;&gt;v1 -->
<g id="edge37" class="edge"><title>e7&#45;&gt;v1</title>
<path fill="none" stroke="green" d="M239.5,-126C239.5,-126 219.757,-96.1193 209.115,-80.0117"/>
</g>
<!-- v14 -->
<g id="v14_SmartLight" class="node"><title>v14</title>
<ellipse fill="none" stroke="black" cx="387.5" cy="-11" rx="43" ry="11"/>
<text text-anchor="middle" x="387.5" y="-8.8" font-family="sans-serif" font-size="9.00">SmartLight</text>
</g>
<!-- e7&#45;&gt;v14 -->
<g id="edge38" class="edge"><title>e7&#45;&gt;v14</title>
<path fill="none" stroke="green" d="M239.5,-126C239.5,-126 297.257,-109.151 333.5,-80 354.644,-62.9929 372.751,-36.2839 381.639,-21.9243"/>
</g>
<!-- e8&#45;&gt;v1 -->
<g id="edge40" class="edge"><title>e8&#45;&gt;v1</title>
<path fill="none" stroke="green" d="M280.5,-126C280.5,-126 238.434,-95.7988 216.087,-79.7545"/>
</g>
<!-- v15 -->
<g id="v15_Workstation" class="node"><title>v15</title>
<ellipse fill="none" stroke="black" cx="495.5" cy="-11" rx="47" ry="11"/>
<text text-anchor="middle" x="495.5" y="-8.8" font-family="sans-serif" font-size="9.00">Workstation</text>
</g>
<!-- e8&#45;&gt;v15 -->
<g id="edge41" class="edge"><title>e8&#45;&gt;v15</title>
<path fill="none" stroke="green" d="M280.5,-126C280.5,-126 426.557,-48.5556 477.906,-21.3291"/>
</g>
<!-- v4 -->
<g id="v4_Room" class="node"><title>v4</title>
<ellipse fill="none" stroke="black" cx="717.5" cy="-127" rx="21.5" ry="11"/>
<text text-anchor="middle" x="717.5" y="-124.8" font-family="sans-serif" font-size="9.00">Room</text>
</g>
<!-- e9&#45;&gt;v4 -->
<g id="edge43" class="edge"><title>e9&#45;&gt;v4</title>
<path fill="none" stroke="green" d="M759.5,-184C759.5,-184 736.608,-153.477 724.625,-137.5"/>
</g>
<!-- e9&#45;&gt;v8 -->
<g id="edge44" class="edge"><title>e9&#45;&gt;v8</title>
<path fill="none" stroke="green" d="M759.5,-184C759.5,-184 758.794,-144.535 747.5,-116 732.495,-78.0893 702.582,-39.47 687.952,-21.8519"/>
</g>
<!-- v0&#45;&gt;v1 -->
<g id="edge2" class="edge"><title>v0&#45;&gt;v1</title>
<path fill="none" stroke="black" d="M330.577,-232.684C306.851,-216.174 258.357,-179.573 229.5,-138 218.147,-121.644 210.574,-99.8231 206.409,-85.3621"/>
<polygon fill="black" stroke="black" points="205.028,-80.3911 208.534,-84.6063 205.697,-82.7999 206.366,-85.2086 206.366,-85.2086 206.366,-85.2086 205.697,-82.7999 204.198,-85.811 205.028,-80.3911 205.028,-80.3911"/>
</g>
<!-- v3 -->
<g id="v3_Floor" class="node"><title>v3</title>
<ellipse fill="none" stroke="black" cx="521.5" cy="-185" rx="25" ry="11"/>
<text text-anchor="middle" x="521.5" y="-182.8" font-family="sans-serif" font-size="9.00">Floor</text>
</g>
<!-- v0&#45;&gt;v3 -->
<g id="edge3" class="edge"><title>v0&#45;&gt;v3</title>
<path fill="none" stroke="black" d="M368.004,-234.564C401.705,-223.901 463.43,-204.372 497.438,-193.613"/>
<polygon fill="black" stroke="black" points="502.247,-192.091 498.159,-195.745 499.864,-192.845 497.48,-193.6 497.48,-193.6 497.48,-193.6 499.864,-192.845 496.802,-191.454 502.247,-192.091 502.247,-192.091"/>
</g>
<!-- v2 -->
<g id="v2_Data" class="node"><title>v2</title>
<ellipse fill="none" stroke="black" cx="200.5" cy="-11" rx="21.5" ry="11"/>
<text text-anchor="middle" x="200.5" y="-8.8" font-family="sans-serif" font-size="9.00">Data</text>
</g>
<!-- v1&#45;&gt;v2 -->
<g id="edge4" class="edge"><title>v1&#45;&gt;v2</title>
<path fill="none" stroke="black" d="M202.142,-57.9883C201.839,-49.4941 201.399,-37.1697 201.051,-27.4169"/>
<polygon fill="black" stroke="black" points="200.868,-22.3039 203.295,-27.2203 200.957,-24.8023 201.047,-27.3007 201.047,-27.3007 201.047,-27.3007 200.957,-24.8023 198.798,-27.381 200.868,-22.3039 200.868,-22.3039"/>
</g>
<!-- v3&#45;&gt;v4 -->
<g id="edge5" class="edge"><title>v3&#45;&gt;v4</title>
<path fill="none" stroke="black" d="M541.897,-178.596C573.138,-170.256 634.667,-153.579 686.5,-138 689.276,-137.166 692.182,-136.265 695.056,-135.357"/>
<polygon fill="black" stroke="black" points="700.159,-133.729 696.079,-137.393 697.777,-134.489 695.395,-135.249 695.395,-135.249 695.395,-135.249 697.777,-134.489 694.712,-133.106 700.159,-133.729 700.159,-133.729"/>
</g>
<!-- v3&#45;&gt;v8 -->
<g id="edge6" class="edge"><title>v3&#45;&gt;v8</title>
<path fill="none" stroke="black" d="M532.346,-174.85C552.694,-157.433 597.514,-117.866 630.5,-80 645.614,-62.6507 660.751,-40.7903 670.117,-26.6107"/>
<polygon fill="black" stroke="black" points="673.064,-22.1141 672.205,-27.5294 671.693,-24.2051 670.323,-26.2962 670.323,-26.2962 670.323,-26.2962 671.693,-24.2051 668.441,-25.063 673.064,-22.1141 673.064,-22.1141"/>
</g>
<!-- v3&#45;&gt;v9 -->
<g id="edge7" class="edge"><title>v3&#45;&gt;v9</title>
<path fill="none" stroke="black" d="M509.797,-175.249C491.018,-161.465 452.684,-134.375 417.5,-116 386.593,-99.8582 348.703,-85.584 325.332,-77.3682"/>
<polygon fill="black" stroke="black" points="320.573,-75.7085 326.036,-75.2306 322.934,-76.5318 325.295,-77.3551 325.295,-77.3551 325.295,-77.3551 322.934,-76.5318 324.554,-79.4796 320.573,-75.7085 320.573,-75.7085"/>
</g>
<!-- v3&#45;&gt;v13 -->
<g id="edge8" class="edge"><title>v3&#45;&gt;v13</title>
<path fill="none" stroke="black" d="M521.145,-173.883C520.444,-153.906 518.878,-109.276 518.045,-85.5402"/>
<polygon fill="black" stroke="black" points="517.86,-80.2579 520.284,-85.1759 517.948,-82.7564 518.035,-85.2549 518.035,-85.2549 518.035,-85.2549 517.948,-82.7564 515.787,-85.3338 517.86,-80.2579 517.86,-80.2579"/>
</g>
<!-- v5 -->
<g id="v5_Visitor" class="node"><title>v5</title>
<ellipse fill="none" stroke="black" cx="589.5" cy="-69" rx="32.5" ry="11"/>
<text text-anchor="middle" x="589.5" y="-66.8" font-family="sans-serif" font-size="9.00">Visitor</text>
</g>
<!-- v4&#45;&gt;v5 -->
<g id="edge9" class="edge"><title>v4&#45;&gt;v5</title>
<path fill="none" stroke="black" d="M702.06,-119.245C679.901,-109.55 638.901,-91.6129 612.975,-80.2701"/>
<polygon fill="black" stroke="black" points="608.317,-78.2324 613.8,-78.1752 610.607,-79.2345 612.898,-80.2366 612.898,-80.2366 612.898,-80.2366 610.607,-79.2345 611.996,-82.2979 608.317,-78.2324 608.317,-78.2324"/>
</g>
<!-- v4&#45;&gt;v7 -->
<g id="edge10" class="edge"><title>v4&#45;&gt;v7</title>
<path fill="none" stroke="black" d="M724.235,-116.28C738.158,-96.1897 770.167,-49.9992 786.507,-26.4199"/>
<polygon fill="black" stroke="black" points="789.556,-22.0199 788.558,-27.4112 788.132,-24.0748 786.708,-26.1296 786.708,-26.1296 786.708,-26.1296 788.132,-24.0748 784.859,-24.848 789.556,-22.0199 789.556,-22.0199"/>
</g>
<!-- v5&#45;&gt;v6 -->
<g id="edge11" class="edge"><title>v5&#45;&gt;v6</title>
<path fill="none" stroke="black" d="M589.5,-57.9883C589.5,-49.4941 589.5,-37.1697 589.5,-27.4169"/>
<polygon fill="black" stroke="black" points="589.5,-22.3039 591.75,-27.3038 589.5,-24.8039 589.5,-27.3039 589.5,-27.3039 589.5,-27.3039 589.5,-24.8039 587.25,-27.3039 589.5,-22.3039 589.5,-22.3039"/>
</g>
<!-- v9&#45;&gt;v10 -->
<g id="edge12" class="edge"><title>v9&#45;&gt;v10</title>
<path fill="none" stroke="black" d="M299.924,-57.9883C296.863,-49.4154 292.408,-36.9411 288.91,-27.1466"/>
<polygon fill="black" stroke="black" points="287.18,-22.3039 290.981,-26.2558 288.021,-24.6582 288.862,-27.0126 288.862,-27.0126 288.862,-27.0126 288.021,-24.6582 286.743,-27.7694 287.18,-22.3039 287.18,-22.3039"/>
</g>
<!-- v9&#45;&gt;v11 -->
<g id="edge13" class="edge"><title>v9&#45;&gt;v11</title>
<path fill="none" stroke="black" d="M286.121,-62.3912C281.681,-60.9588 276.914,-59.4218 272.5,-58 231.435,-44.7718 183.728,-29.431 155.112,-20.2319"/>
<polygon fill="black" stroke="black" points="150.342,-18.6986 155.791,-18.0868 152.722,-19.4637 155.102,-20.2288 155.102,-20.2288 155.102,-20.2288 152.722,-19.4637 154.414,-22.3709 150.342,-18.6986 150.342,-18.6986"/>
</g>
<!-- v9&#45;&gt;v12 -->
<g id="edge14" class="edge"><title>v9&#45;&gt;v12</title>
<path fill="none" stroke="black" d="M286.55,-62.1367C282.017,-60.6774 277.098,-59.1912 272.5,-58 262.988,-55.536 138.43,-31.2319 75.4479,-18.9824"/>
<polygon fill="black" stroke="black" points="70.2861,-17.9786 75.6237,-16.7245 72.7401,-18.4559 75.1942,-18.9331 75.1942,-18.9331 75.1942,-18.9331 72.7401,-18.4559 74.7647,-21.1417 70.2861,-17.9786 70.2861,-17.9786"/>
</g>
<!-- v13&#45;&gt;v14 -->
<g id="edge15" class="edge"><title>v13&#45;&gt;v14</title>
<path fill="none" stroke="black" d="M501.819,-61.2451C479.695,-51.7148 439.079,-34.2186 412.693,-22.8525"/>
<polygon fill="black" stroke="black" points="407.94,-20.8049 413.422,-20.7166 410.236,-21.7939 412.532,-22.783 412.532,-22.783 412.532,-22.783 410.236,-21.7939 411.642,-24.8495 407.94,-20.8049 407.94,-20.8049"/>
</g>
<!-- v13&#45;&gt;v15 -->
<g id="edge16" class="edge"><title>v13&#45;&gt;v15</title>
<path fill="none" stroke="black" d="M513.567,-57.9883C510.199,-49.4154 505.298,-36.9411 501.45,-27.1466"/>
<polygon fill="black" stroke="black" points="499.548,-22.3039 503.47,-26.1349 500.462,-24.6308 501.376,-26.9576 501.376,-26.9576 501.376,-26.9576 500.462,-24.6308 499.282,-27.7804 499.548,-22.3039 499.548,-22.3039"/>
</g>
</g>
</svg>
