<?xml version="1.0" encoding="UTF-8" standalone="no"?>
<?xml-stylesheet href="style.css" type="text/css"?>
<!DOCTYPE svg PUBLIC "-//W3C//DTD SVG 1.1//EN"
 "http://www.w3.org/Graphics/SVG/1.1/DTD/svg11.dtd">
<!-- Generated by graphviz version 2.38.0 (20140413.2041)
 -->
<!-- Title: 15.svg Pages: 1 -->
<svg width="1310pt" height="374pt"
 viewBox="0.00 0.00 1309.50 374.00" xmlns="http://www.w3.org/2000/svg" xmlns:xlink="http://www.w3.org/1999/xlink">
<g id="graph0" class="graph" transform="scale(1 1) rotate(0) translate(4 370)">
<title>15.svg</title>
<polygon fill="white" stroke="none" points="-4,4 -4,-370 1305.5,-370 1305.5,4 -4,4"/>
<!-- r0 -->
<g id="node1" class="node"><title>r0</title>
<polygon fill="none" stroke="black" stroke-dasharray="5,2" points="165.5,-366 142.5,-366 142.5,-348 165.5,-348 165.5,-366"/>
<text text-anchor="middle" x="154" y="-354.8" font-family="serif" font-size="9.00">0</text>
</g>
<!-- v0 -->
<g id="v0_Building" class="node"><title>v0</title>
<ellipse fill="none" stroke="black" cx="154" cy="-301" rx="36" ry="11"/>
<text text-anchor="middle" x="154" y="-298.8" font-family="sans-serif" font-size="9.00">Building</text>
</g>
<!-- r0&#45;&gt;v0 -->
<g id="edge1" class="edge"><title>r0&#45;&gt;v0</title>
<path fill="none" stroke="black" d="M154,-347.562C154,-339.453 154,-327.014 154,-317.181"/>
<polygon fill="black" stroke="black" points="154,-312.03 156.25,-317.03 154,-314.53 154,-317.03 154,-317.03 154,-317.03 154,-314.53 151.75,-317.03 154,-312.03 154,-312.03"/>
</g>
<!-- r1 -->
<g id="node2" class="node"><title>r1</title>
<polygon fill="none" stroke="black" stroke-dasharray="5,2" points="1095.5,-366 1072.5,-366 1072.5,-348 1095.5,-348 1095.5,-366"/>
<text text-anchor="middle" x="1084" y="-354.8" font-family="serif" font-size="9.00">1</text>
</g>
<!-- v3 -->
<g id="v3_RulesKeywords" class="node"><title>v3</title>
<ellipse fill="none" stroke="black" cx="1084" cy="-69" rx="54" ry="11"/>
<text text-anchor="middle" x="1084" y="-66.8" font-family="sans-serif" font-size="9.00">RulesKeywords</text>
</g>
<!-- r1&#45;&gt;v3 -->
<g id="edge2" class="edge"><title>r1&#45;&gt;v3</title>
<path fill="none" stroke="black" d="M1084,-347.849C1084,-329.373 1084,-282.889 1084,-244 1084,-244 1084,-244 1084,-184 1084,-148.604 1084,-107.026 1084,-85.1783"/>
<polygon fill="black" stroke="black" points="1084,-80.0648 1086.25,-85.0648 1084,-82.5648 1084,-85.0648 1084,-85.0648 1084,-85.0648 1084,-82.5648 1081.75,-85.0648 1084,-80.0648 1084,-80.0648"/>
</g>
<!-- e7 -->
<g id="node3" class="node"><title>e7</title>
</g>
<!-- v8 -->
<g id="v8_SmartLight" class="node"><title>v8</title>
<ellipse fill="none" stroke="black" cx="789" cy="-11" rx="43" ry="11"/>
<text text-anchor="middle" x="789" y="-8.8" font-family="sans-serif" font-size="9.00">SmartLight</text>
</g>
<!-- e7&#45;&gt;v8 -->
<g id="edge30" class="edge"><title>e7&#45;&gt;v8</title>
<path fill="none" stroke="green" d="M789,-64.1674C789,-55.5862 789,-34.5957 789,-22.0117"/>
<polygon fill="green" stroke="green" points="792.5,-67.3001 785.5,-67.2999 785.5,-65.8999 792.5,-65.9001 792.5,-67.3001"/>
<polyline fill="none" stroke="green" points="789,-68 789,-64.5 "/>
</g>
<!-- v1 -->
<g id="v1_InstallationBus" class="node"><title>v1</title>
<ellipse fill="none" stroke="black" cx="61" cy="-69" rx="61" ry="11"/>
<text text-anchor="middle" x="61" y="-66.8" font-family="sans-serif" font-size="9.00">InstallationBus</text>
</g>
<!-- v0&#45;&gt;v1 -->
<g id="edge3" class="edge"><title>v0&#45;&gt;v1</title>
<path fill="none" stroke="black" d="M149.884,-289.82C135.088,-253.229 84.5532,-128.25 67.0364,-84.9288"/>
<polygon fill="black" stroke="black" points="65.0686,-80.062 69.0289,-83.854 66.0057,-82.3797 66.9429,-84.6974 66.9429,-84.6974 66.9429,-84.6974 66.0057,-82.3797 64.857,-85.5409 65.0686,-80.062 65.0686,-80.062"/>
</g>
<!-- v4 -->
<g id="v4_Floor" class="node"><title>v4</title>
<ellipse fill="none" stroke="black" cx="220" cy="-243" rx="25" ry="11"/>
<text text-anchor="middle" x="220" y="-240.8" font-family="sans-serif" font-size="9.00">Floor</text>
</g>
<!-- v0&#45;&gt;v4 -->
<g id="edge4" class="edge"><title>v0&#45;&gt;v4</title>
<path fill="none" stroke="black" d="M165.196,-290.5C176.298,-281.08 193.36,-266.604 205.495,-256.308"/>
<polygon fill="black" stroke="black" points="209.405,-252.99 207.048,-257.94 207.499,-254.607 205.593,-256.225 205.593,-256.225 205.593,-256.225 207.499,-254.607 204.137,-254.509 209.405,-252.99 209.405,-252.99"/>
</g>
<!-- v2 -->
<g id="v2_Data" class="node"><title>v2</title>
<ellipse fill="none" stroke="black" cx="54" cy="-11" rx="21.5" ry="11"/>
<text text-anchor="middle" x="54" y="-8.8" font-family="sans-serif" font-size="9.00">Data</text>
</g>
<!-- v1&#45;&gt;v2 -->
<g id="edge5" class="edge"><title>v1&#45;&gt;v2</title>
<path fill="none" stroke="black" d="M59.7485,-57.9883C58.6868,-49.4941 57.1462,-37.1697 55.9271,-27.4169"/>
<polygon fill="black" stroke="black" points="55.288,-22.3039 58.1409,-26.9861 55.5981,-24.7846 55.9082,-27.2653 55.9082,-27.2653 55.9082,-27.2653 55.5981,-24.7846 53.6756,-27.5444 55.288,-22.3039 55.288,-22.3039"/>
</g>
<!-- v7 -->
<g id="v7_Laptop" class="node"><title>v7</title>
<ellipse fill="none" stroke="black" cx="682" cy="-69" rx="29" ry="11"/>
<text text-anchor="middle" x="682" y="-66.8" font-family="sans-serif" font-size="9.00">Laptop</text>
</g>
<!-- v1&#45;&gt;v7 -->
<g id="edge23" class="edge"><title>v1&#45;&gt;v7</title>
<path fill="none" stroke="green" d="M94.7483,-78.2003C122.288,-85.2081 162.335,-94.2666 198,-98 287.069,-107.324 512.764,-113.319 601,-98 623.222,-94.1419 647.41,-84.7456 663.514,-77.6867"/>
</g>
<!-- v13 -->
<g id="v13_Workstation" class="node"><title>v13</title>
<ellipse fill="none" stroke="black" cx="591" cy="-11" rx="47" ry="11"/>
<text text-anchor="middle" x="591" y="-8.8" font-family="sans-serif" font-size="9.00">Workstation</text>
</g>
<!-- v1&#45;&gt;v13 -->
<g id="edge24" class="edge"><title>v1&#45;&gt;v13</title>
<path fill="none" stroke="green" d="M113.68,-63.4238C219.524,-54.1411 454.731,-33.0437 535,-22 542.044,-21.0308 549.556,-19.8158 556.715,-18.5698"/>
</g>
<!-- v17 -->
<g id="v17_SmartLight" class="node"><title>v17</title>
<ellipse fill="none" stroke="black" cx="220" cy="-11" rx="43" ry="11"/>
<text text-anchor="middle" x="220" y="-8.8" font-family="sans-serif" font-size="9.00">SmartLight</text>
</g>
<!-- v1&#45;&gt;v17 -->
<g id="edge25" class="edge"><title>v1&#45;&gt;v17</title>
<path fill="none" stroke="green" d="M86.5461,-59.0026C116.92,-48.3051 167.187,-30.6008 196.59,-20.2451"/>
</g>
<!-- v19 -->
<g id="v19_SmartLight" class="node"><title>v19</title>
<ellipse fill="none" stroke="black" cx="483" cy="-11" rx="43" ry="11"/>
<text text-anchor="middle" x="483" y="-8.8" font-family="sans-serif" font-size="9.00">SmartLight</text>
</g>
<!-- v1&#45;&gt;v19 -->
<g id="edge26" class="edge"><title>v1&#45;&gt;v19</title>
<path fill="none" stroke="green" d="M111.274,-62.7399C182.42,-55.0673 316.468,-39.7693 430,-22 436.753,-20.943 443.965,-19.6757 450.824,-18.404"/>
</g>
<!-- v20 -->
<g id="v20_HVAC" class="node"><title>v20</title>
<ellipse fill="none" stroke="black" cx="303" cy="-11" rx="21.5" ry="11"/>
<text text-anchor="middle" x="303" y="-8.8" font-family="sans-serif" font-size="9.00">HVAC</text>
</g>
<!-- v1&#45;&gt;v20 -->
<g id="edge27" class="edge"><title>v1&#45;&gt;v20</title>
<path fill="none" stroke="green" d="M100.554,-60.573C143.161,-52.2951 212.813,-37.9572 272,-22 276.586,-20.7635 281.501,-19.2617 286.034,-17.802"/>
</g>
<!-- v21 -->
<g id="v21_FireAlarm" class="node"><title>v21</title>
<ellipse fill="none" stroke="black" cx="382" cy="-11" rx="39.5" ry="11"/>
<text text-anchor="middle" x="382" y="-8.8" font-family="sans-serif" font-size="9.00">FireAlarm</text>
</g>
<!-- v1&#45;&gt;v21 -->
<g id="edge28" class="edge"><title>v1&#45;&gt;v21</title>
<path fill="none" stroke="green" d="M104.42,-61.1209C158.176,-52.4975 252.492,-37.0183 333,-22 339.231,-20.8377 345.892,-19.5252 352.232,-18.2425"/>
</g>
<!-- v9 -->
<g id="v9_DisconnectDevice" class="node"><title>v9</title>
<ellipse fill="none" stroke="black" cx="915" cy="-11" rx="65" ry="11"/>
<text text-anchor="middle" x="915" y="-8.8" font-family="sans-serif" font-size="9.00">DisconnectDevice</text>
</g>
<!-- v3&#45;&gt;v9 -->
<g id="edge6" class="edge"><title>v3&#45;&gt;v9</title>
<path fill="none" stroke="black" d="M1057.59,-59.25C1027.81,-49.3805 979.36,-33.3265 947.334,-22.7143"/>
<polygon fill="black" stroke="black" points="942.341,-21.0596 947.795,-20.4966 944.714,-21.846 947.087,-22.6324 947.087,-22.6324 947.087,-22.6324 944.714,-21.846 946.379,-24.7682 942.341,-21.0596 942.341,-21.0596"/>
</g>
<!-- v11 -->
<g id="v11_ExitRoom" class="node"><title>v11</title>
<ellipse fill="none" stroke="black" cx="1034" cy="-11" rx="36" ry="11"/>
<text text-anchor="middle" x="1034" y="-8.8" font-family="sans-serif" font-size="9.00">ExitRoom</text>
</g>
<!-- v3&#45;&gt;v11 -->
<g id="edge7" class="edge"><title>v3&#45;&gt;v11</title>
<path fill="none" stroke="black" d="M1075.06,-57.9883C1067.03,-48.9897 1055.15,-35.6926 1046.24,-25.7082"/>
<polygon fill="black" stroke="black" points="1042.86,-21.925 1047.87,-24.1562 1044.53,-23.7899 1046.19,-25.6547 1046.19,-25.6547 1046.19,-25.6547 1044.53,-23.7899 1044.51,-27.1533 1042.86,-21.925 1042.86,-21.925"/>
</g>
<!-- v14 -->
<g id="v14_CollectData" class="node"><title>v14</title>
<ellipse fill="none" stroke="black" cx="1135" cy="-11" rx="47" ry="11"/>
<text text-anchor="middle" x="1135" y="-8.8" font-family="sans-serif" font-size="9.00">CollectData</text>
</g>
<!-- v3&#45;&gt;v14 -->
<g id="edge8" class="edge"><title>v3&#45;&gt;v14</title>
<path fill="none" stroke="black" d="M1093.12,-57.9883C1101.31,-48.9897 1113.42,-35.6926 1122.52,-25.7082"/>
<polygon fill="black" stroke="black" points="1125.96,-21.925 1124.26,-27.1367 1124.28,-23.7734 1122.59,-25.6217 1122.59,-25.6217 1122.59,-25.6217 1124.28,-23.7734 1120.93,-24.1067 1125.96,-21.925 1125.96,-21.925"/>
</g>
<!-- v15 -->
<g id="v15_SendSoftware" class="node"><title>v15</title>
<ellipse fill="none" stroke="black" cx="1251" cy="-11" rx="50.5" ry="11"/>
<text text-anchor="middle" x="1251" y="-8.8" font-family="sans-serif" font-size="9.00">SendSoftware</text>
</g>
<!-- v3&#45;&gt;v15 -->
<g id="edge9" class="edge"><title>v3&#45;&gt;v15</title>
<path fill="none" stroke="black" d="M1110.09,-59.25C1139.96,-49.2345 1188.82,-32.8502 1220.44,-22.247"/>
<polygon fill="black" stroke="black" points="1225.36,-20.5967 1221.34,-24.3197 1222.99,-21.3916 1220.62,-22.1864 1220.62,-22.1864 1220.62,-22.1864 1222.99,-21.3916 1219.91,-20.0532 1225.36,-20.5967 1225.36,-20.5967"/>
</g>
<!-- v5 -->
<g id="v5_Room" class="node"><title>v5</title>
<ellipse fill="none" stroke="black" cx="631" cy="-185" rx="21.5" ry="11"/>
<text text-anchor="middle" x="631" y="-182.8" font-family="sans-serif" font-size="9.00">Room</text>
</g>
<!-- v4&#45;&gt;v5 -->
<g id="edge10" class="edge"><title>v4&#45;&gt;v5</title>
<path fill="none" stroke="black" d="M243.275,-238.829C314.749,-229.09 530.733,-199.662 605.331,-189.498"/>
<polygon fill="black" stroke="black" points="610.454,-188.8 605.803,-191.704 607.977,-189.137 605.499,-189.475 605.499,-189.475 605.499,-189.475 607.977,-189.137 605.196,-187.245 610.454,-188.8 610.454,-188.8"/>
</g>
<!-- v10 -->
<g id="v10_Hallway" class="node"><title>v10</title>
<ellipse fill="none" stroke="black" cx="126" cy="-11" rx="32.5" ry="11"/>
<text text-anchor="middle" x="126" y="-8.8" font-family="sans-serif" font-size="9.00">Hallway</text>
</g>
<!-- v4&#45;&gt;v10 -->
<g id="edge11" class="edge"><title>v4&#45;&gt;v10</title>
<path fill="none" stroke="black" d="M215.961,-232.117C201.17,-195.928 149.904,-70.489 132.127,-26.9918"/>
<polygon fill="black" stroke="black" points="130.13,-22.105 134.104,-25.8822 131.076,-24.4192 132.022,-26.7334 132.022,-26.7334 132.022,-26.7334 131.076,-24.4192 129.939,-27.5846 130.13,-22.105 130.13,-22.105"/>
</g>
<!-- v16 -->
<g id="v16_Room" class="node"><title>v16</title>
<ellipse fill="none" stroke="black" cx="220" cy="-69" rx="21.5" ry="11"/>
<text text-anchor="middle" x="220" y="-66.8" font-family="sans-serif" font-size="9.00">Room</text>
</g>
<!-- v4&#45;&gt;v16 -->
<g id="edge12" class="edge"><title>v4&#45;&gt;v16</title>
<path fill="none" stroke="black" d="M220,-231.756C220,-202.786 220,-120.136 220,-85.5335"/>
<polygon fill="black" stroke="black" points="220,-80.4081 222.25,-85.408 220,-82.9081 220,-85.4081 220,-85.4081 220,-85.4081 220,-82.9081 217.75,-85.4081 220,-80.4081 220,-80.4081"/>
</g>
<!-- v18 -->
<g id="v18_Room" class="node"><title>v18</title>
<ellipse fill="none" stroke="black" cx="371" cy="-69" rx="21.5" ry="11"/>
<text text-anchor="middle" x="371" y="-66.8" font-family="sans-serif" font-size="9.00">Room</text>
</g>
<!-- v4&#45;&gt;v18 -->
<g id="edge13" class="edge"><title>v4&#45;&gt;v18</title>
<path fill="none" stroke="black" d="M228.334,-232.508C253.762,-203.543 330.395,-116.251 359.562,-83.0291"/>
<polygon fill="black" stroke="black" points="362.877,-79.2532 361.269,-84.4951 361.227,-81.1319 359.578,-83.0107 359.578,-83.0107 359.578,-83.0107 361.227,-81.1319 357.887,-81.5262 362.877,-79.2532 362.877,-79.2532"/>
</g>
<!-- v6 -->
<g id="v6_Visitor" class="node"><title>v6</title>
<ellipse fill="none" stroke="black" cx="662" cy="-127" rx="32.5" ry="11"/>
<text text-anchor="middle" x="662" y="-124.8" font-family="sans-serif" font-size="9.00">Visitor</text>
</g>
<!-- v5&#45;&gt;v6 -->
<g id="edge14" class="edge"><title>v5&#45;&gt;v6</title>
<path fill="none" stroke="black" d="M636.4,-174.246C641.23,-165.52 648.378,-152.608 653.894,-142.643"/>
<polygon fill="black" stroke="black" points="656.453,-138.02 656,-143.484 655.243,-140.207 654.032,-142.394 654.032,-142.394 654.032,-142.394 655.243,-140.207 652.063,-141.304 656.453,-138.02 656.453,-138.02"/>
</g>
<!-- v5&#45;&gt;v8 -->
<g id="edge15" class="edge"><title>v5&#45;&gt;v8</title>
<path fill="none" stroke="black" d="M645.731,-176.864C661.201,-168.881 685.646,-154.835 703,-138 738.643,-103.424 768.209,-51.9045 781.479,-26.8094"/>
<polygon fill="black" stroke="black" points="783.913,-22.1555 783.589,-27.629 782.754,-24.3709 781.596,-26.5863 781.596,-26.5863 781.596,-26.5863 782.754,-24.3709 779.602,-25.5436 783.913,-22.1555 783.913,-22.1555"/>
</g>
<!-- v5&#45;&gt;v10 -->
<g id="edge29" class="edge"><title>v5&#45;&gt;v10</title>
<path fill="none" stroke="green" d="M613.908,-178.179C538.013,-152.329 231.559,-47.9528 147.447,-19.3048"/>
</g>
<!-- v5&#45;&gt;v13 -->
<g id="edge16" class="edge"><title>v5&#45;&gt;v13</title>
<path fill="none" stroke="black" d="M628.528,-173.775C626.283,-164.457 622.889,-150.311 620,-138 610.609,-97.9758 599.812,-50.7294 594.427,-27.0803"/>
<polygon fill="black" stroke="black" points="593.301,-22.1328 596.605,-26.5089 593.856,-24.5705 594.411,-27.0082 594.411,-27.0082 594.411,-27.0082 593.856,-24.5705 592.217,-27.5075 593.301,-22.1328 593.301,-22.1328"/>
</g>
<!-- v6&#45;&gt;v7 -->
<g id="edge17" class="edge"><title>v6&#45;&gt;v7</title>
<path fill="none" stroke="black" d="M665.576,-115.988C668.676,-107.308 673.204,-94.6286 676.721,-84.7806"/>
<polygon fill="black" stroke="black" points="678.455,-79.925 678.893,-85.3905 677.614,-82.2794 676.774,-84.6337 676.774,-84.6337 676.774,-84.6337 677.614,-82.2794 674.655,-83.8769 678.455,-79.925 678.455,-79.925"/>
</g>
<!-- v12 -->
<g id="v12_Software" class="node"><title>v12</title>
<ellipse fill="none" stroke="black" cx="692" cy="-11" rx="36" ry="11"/>
<text text-anchor="middle" x="692" y="-8.8" font-family="sans-serif" font-size="9.00">Software</text>
</g>
<!-- v7&#45;&gt;v12 -->
<g id="edge18" class="edge"><title>v7&#45;&gt;v12</title>
<path fill="none" stroke="black" d="M683.788,-57.9883C685.305,-49.4941 687.505,-37.1697 689.247,-27.4169"/>
<polygon fill="black" stroke="black" points="690.16,-22.3039 691.496,-27.6216 689.721,-24.7649 689.281,-27.226 689.281,-27.226 689.281,-27.226 689.721,-24.7649 687.066,-26.8305 690.16,-22.3039 690.16,-22.3039"/>
</g>
<!-- v10&#45;&gt;v16 -->
<g id="edge31" class="edge"><title>v10&#45;&gt;v16</title>
<path fill="none" stroke="green" d="M140.817,-20.827C159.008,-31.6646 189.576,-49.8751 206.93,-60.2134"/>
</g>
<!-- v10&#45;&gt;v18 -->
<g id="edge32" class="edge"><title>v10&#45;&gt;v18</title>
<path fill="none" stroke="green" d="M151.308,-18.073C156.809,-19.3796 162.597,-20.7447 168,-22 235.582,-37.7021 315.979,-55.726 351.953,-63.7566"/>
</g>
<!-- v16&#45;&gt;v17 -->
<g id="edge19" class="edge"><title>v16&#45;&gt;v17</title>
<path fill="none" stroke="black" d="M220,-57.9883C220,-49.4941 220,-37.1697 220,-27.4169"/>
<polygon fill="black" stroke="black" points="220,-22.3039 222.25,-27.3038 220,-24.8039 220,-27.3039 220,-27.3039 220,-27.3039 220,-24.8039 217.75,-27.3039 220,-22.3039 220,-22.3039"/>
</g>
<!-- v18&#45;&gt;v19 -->
<g id="edge20" class="edge"><title>v18&#45;&gt;v19</title>
<path fill="none" stroke="black" d="M385.642,-60.679C404.574,-51.2129 437.755,-34.6223 460.051,-23.4743"/>
<polygon fill="black" stroke="black" points="464.635,-21.1826 461.169,-25.4312 462.399,-22.3007 460.163,-23.4187 460.163,-23.4187 460.163,-23.4187 462.399,-22.3007 459.156,-21.4063 464.635,-21.1826 464.635,-21.1826"/>
</g>
<!-- v18&#45;&gt;v20 -->
<g id="edge21" class="edge"><title>v18&#45;&gt;v20</title>
<path fill="none" stroke="black" d="M360.375,-59.25C348.965,-49.8533 330.747,-34.8502 317.906,-24.2754"/>
<polygon fill="black" stroke="black" points="313.775,-20.8734 319.065,-22.3151 315.705,-22.4627 317.634,-24.0519 317.634,-24.0519 317.634,-24.0519 315.705,-22.4627 316.204,-25.7888 313.775,-20.8734 313.775,-20.8734"/>
</g>
<!-- v18&#45;&gt;v21 -->
<g id="edge22" class="edge"><title>v18&#45;&gt;v21</title>
<path fill="none" stroke="black" d="M372.967,-57.9883C374.635,-49.4941 377.056,-37.1697 378.972,-27.4169"/>
<polygon fill="black" stroke="black" points="379.976,-22.3039 381.22,-27.6438 379.494,-24.757 379.012,-27.2101 379.012,-27.2101 379.012,-27.2101 379.494,-24.757 376.804,-26.7764 379.976,-22.3039 379.976,-22.3039"/>
</g>
</g>
</svg>
