<?xml version="1.0" encoding="UTF-8" standalone="no"?>
<?xml-stylesheet href="style.css" type="text/css"?>
<!DOCTYPE svg PUBLIC "-//W3C//DTD SVG 1.1//EN"
 "http://www.w3.org/Graphics/SVG/1.1/DTD/svg11.dtd">
<!-- Generated by graphviz version 2.38.0 (20140413.2041)
 -->
<!-- Title: 23.svg Pages: 1 -->
<svg width="1206pt" height="374pt"
 viewBox="0.00 0.00 1206.00 374.00" xmlns="http://www.w3.org/2000/svg" xmlns:xlink="http://www.w3.org/1999/xlink">
<g id="graph0" class="graph" transform="scale(1 1) rotate(0) translate(4 370)">
<title>23.svg</title>
<polygon fill="white" stroke="none" points="-4,4 -4,-370 1202,-370 1202,4 -4,4"/>
<!-- r0 -->
<g id="node1" class="node"><title>r0</title>
<polygon fill="none" stroke="black" stroke-dasharray="5,2" points="569,-366 546,-366 546,-348 569,-348 569,-366"/>
<text text-anchor="middle" x="557.5" y="-354.8" font-family="serif" font-size="9.00">0</text>
</g>
<!-- v0 -->
<g id="v0_Building" class="node"><title>v0</title>
<ellipse fill="none" stroke="black" cx="557.5" cy="-301" rx="36" ry="11"/>
<text text-anchor="middle" x="557.5" y="-298.8" font-family="sans-serif" font-size="9.00">Building</text>
</g>
<!-- r0&#45;&gt;v0 -->
<g id="edge1" class="edge"><title>r0&#45;&gt;v0</title>
<path fill="none" stroke="black" d="M557.5,-347.562C557.5,-339.453 557.5,-327.014 557.5,-317.181"/>
<polygon fill="black" stroke="black" points="557.5,-312.03 559.75,-317.03 557.5,-314.53 557.5,-317.03 557.5,-317.03 557.5,-317.03 557.5,-314.53 555.25,-317.03 557.5,-312.03 557.5,-312.03"/>
</g>
<!-- r1 -->
<g id="node2" class="node"><title>r1</title>
<polygon fill="none" stroke="black" stroke-dasharray="5,2" points="1054,-366 1031,-366 1031,-348 1054,-348 1054,-366"/>
<text text-anchor="middle" x="1042.5" y="-354.8" font-family="serif" font-size="9.00">1</text>
</g>
<!-- v7 -->
<g id="v7_RulesKeywords" class="node"><title>v7</title>
<ellipse fill="none" stroke="black" cx="1042.5" cy="-69" rx="54" ry="11"/>
<text text-anchor="middle" x="1042.5" y="-66.8" font-family="sans-serif" font-size="9.00">RulesKeywords</text>
</g>
<!-- r1&#45;&gt;v7 -->
<g id="edge2" class="edge"><title>r1&#45;&gt;v7</title>
<path fill="none" stroke="black" d="M1042.5,-347.849C1042.5,-329.373 1042.5,-282.889 1042.5,-244 1042.5,-244 1042.5,-244 1042.5,-184 1042.5,-148.604 1042.5,-107.026 1042.5,-85.1783"/>
<polygon fill="black" stroke="black" points="1042.5,-80.0648 1044.75,-85.0648 1042.5,-82.5648 1042.5,-85.0648 1042.5,-85.0648 1042.5,-85.0648 1042.5,-82.5648 1040.25,-85.0648 1042.5,-80.0648 1042.5,-80.0648"/>
</g>
<!-- e1 -->
<g id="node3" class="node"><title>e1</title>
</g>
<!-- v4 -->
<g id="v4_Laptop" class="node"><title>v4</title>
<ellipse fill="none" stroke="black" cx="475.5" cy="-69" rx="29" ry="11"/>
<text text-anchor="middle" x="475.5" y="-66.8" font-family="sans-serif" font-size="9.00">Laptop</text>
</g>
<!-- e1&#45;&gt;v4 -->
<g id="edge24" class="edge"><title>e1&#45;&gt;v4</title>
<path fill="none" stroke="green" d="M475.5,-122.167C475.5,-113.586 475.5,-92.5957 475.5,-80.0117"/>
<polygon fill="green" stroke="green" points="479,-125.3 472,-125.3 472,-123.9 479,-123.9 479,-125.3"/>
<polyline fill="none" stroke="green" points="475.5,-126 475.5,-122.5 "/>
</g>
<!-- v1 -->
<g id="v1_Floor" class="node"><title>v1</title>
<ellipse fill="none" stroke="black" cx="328.5" cy="-243" rx="25" ry="11"/>
<text text-anchor="middle" x="328.5" y="-240.8" font-family="sans-serif" font-size="9.00">Floor</text>
</g>
<!-- v0&#45;&gt;v1 -->
<g id="edge3" class="edge"><title>v0&#45;&gt;v1</title>
<path fill="none" stroke="black" d="M530.783,-293.466C486.453,-282.626 398.251,-261.057 354.44,-250.344"/>
<polygon fill="black" stroke="black" points="349.324,-249.092 354.715,-248.094 351.752,-249.686 354.181,-250.28 354.181,-250.28 354.181,-250.28 351.752,-249.686 353.646,-252.466 349.324,-249.092 349.324,-249.092"/>
</g>
<!-- v6 -->
<g id="v6_InstallationBus" class="node"><title>v6</title>
<ellipse fill="none" stroke="black" cx="831.5" cy="-69" rx="61" ry="11"/>
<text text-anchor="middle" x="831.5" y="-66.8" font-family="sans-serif" font-size="9.00">InstallationBus</text>
</g>
<!-- v0&#45;&gt;v6 -->
<g id="edge4" class="edge"><title>v0&#45;&gt;v6</title>
<path fill="none" stroke="black" d="M568.925,-290.41C612.172,-254.108 765.91,-125.057 815.767,-83.2068"/>
<polygon fill="black" stroke="black" points="819.72,-79.888 817.337,-84.826 817.806,-81.4953 815.891,-83.1027 815.891,-83.1027 815.891,-83.1027 817.806,-81.4953 814.444,-81.3793 819.72,-79.888 819.72,-79.888"/>
</g>
<!-- v2 -->
<g id="v2_Room" class="node"><title>v2</title>
<ellipse fill="none" stroke="black" cx="587.5" cy="-185" rx="21.5" ry="11"/>
<text text-anchor="middle" x="587.5" y="-182.8" font-family="sans-serif" font-size="9.00">Room</text>
</g>
<!-- v1&#45;&gt;v2 -->
<g id="edge5" class="edge"><title>v1&#45;&gt;v2</title>
<path fill="none" stroke="black" d="M350.137,-237.322C398.094,-226.953 513.042,-202.099 563.295,-191.234"/>
<polygon fill="black" stroke="black" points="568.238,-190.165 563.826,-193.421 565.794,-190.693 563.351,-191.222 563.351,-191.222 563.351,-191.222 565.794,-190.693 562.875,-189.022 568.238,-190.165 568.238,-190.165"/>
</g>
<!-- v11 -->
<g id="v11_Hallway" class="node"><title>v11</title>
<ellipse fill="none" stroke="black" cx="32.5" cy="-11" rx="32.5" ry="11"/>
<text text-anchor="middle" x="32.5" y="-8.8" font-family="sans-serif" font-size="9.00">Hallway</text>
</g>
<!-- v1&#45;&gt;v11 -->
<g id="edge6" class="edge"><title>v1&#45;&gt;v11</title>
<path fill="none" stroke="black" d="M313.614,-233.984C297.796,-225.266 272.254,-210.613 251.5,-196 169.562,-138.308 80.7228,-57.238 46.776,-25.4942"/>
<polygon fill="black" stroke="black" points="42.9125,-21.8724 48.0991,-23.6504 44.7364,-23.5822 46.5603,-25.292 46.5603,-25.292 46.5603,-25.292 44.7364,-23.5822 45.0215,-26.9335 42.9125,-21.8724 42.9125,-21.8724"/>
</g>
<!-- v17 -->
<g id="v17_Room" class="node"><title>v17</title>
<ellipse fill="none" stroke="black" cx="141.5" cy="-69" rx="21.5" ry="11"/>
<text text-anchor="middle" x="141.5" y="-66.8" font-family="sans-serif" font-size="9.00">Room</text>
</g>
<!-- v1&#45;&gt;v17 -->
<g id="edge7" class="edge"><title>v1&#45;&gt;v17</title>
<path fill="none" stroke="black" d="M318.446,-232.753C287.099,-203.92 191.102,-115.623 155.221,-82.6207"/>
<polygon fill="black" stroke="black" points="151.152,-78.8778 156.355,-80.6067 152.992,-80.5702 154.832,-82.2627 154.832,-82.2627 154.832,-82.2627 152.992,-80.5702 153.309,-83.9187 151.152,-78.8778 151.152,-78.8778"/>
</g>
<!-- v19 -->
<g id="v19_Room" class="node"><title>v19</title>
<ellipse fill="none" stroke="black" cx="328.5" cy="-69" rx="21.5" ry="11"/>
<text text-anchor="middle" x="328.5" y="-66.8" font-family="sans-serif" font-size="9.00">Room</text>
</g>
<!-- v1&#45;&gt;v19 -->
<g id="edge8" class="edge"><title>v1&#45;&gt;v19</title>
<path fill="none" stroke="black" d="M328.5,-231.756C328.5,-202.786 328.5,-120.136 328.5,-85.5335"/>
<polygon fill="black" stroke="black" points="328.5,-80.4081 330.75,-85.408 328.5,-82.9081 328.5,-85.4081 328.5,-85.4081 328.5,-85.4081 328.5,-82.9081 326.25,-85.4081 328.5,-80.4081 328.5,-80.4081"/>
</g>
<!-- v3 -->
<g id="v3_Visitor" class="node"><title>v3</title>
<ellipse fill="none" stroke="black" cx="526.5" cy="-127" rx="32.5" ry="11"/>
<text text-anchor="middle" x="526.5" y="-124.8" font-family="sans-serif" font-size="9.00">Visitor</text>
</g>
<!-- v2&#45;&gt;v3 -->
<g id="edge9" class="edge"><title>v2&#45;&gt;v3</title>
<path fill="none" stroke="black" d="M577.699,-175.003C567.741,-165.861 552.209,-151.601 540.862,-141.185"/>
<polygon fill="black" stroke="black" points="536.889,-137.537 542.094,-139.261 538.73,-139.228 540.572,-140.919 540.572,-140.919 540.572,-140.919 538.73,-139.228 539.051,-142.576 536.889,-137.537 536.889,-137.537"/>
</g>
<!-- v5 -->
<g id="v5_SmartLight" class="node"><title>v5</title>
<ellipse fill="none" stroke="black" cx="757.5" cy="-11" rx="43" ry="11"/>
<text text-anchor="middle" x="757.5" y="-8.8" font-family="sans-serif" font-size="9.00">SmartLight</text>
</g>
<!-- v2&#45;&gt;v5 -->
<g id="edge10" class="edge"><title>v2&#45;&gt;v5</title>
<path fill="none" stroke="black" d="M596.64,-174.753C624.739,-146.322 709.983,-60.0757 743.629,-26.0342"/>
<polygon fill="black" stroke="black" points="747.469,-22.1489 745.555,-27.2868 745.712,-23.927 743.954,-25.7051 743.954,-25.7051 743.954,-25.7051 745.712,-23.927 742.354,-24.1234 747.469,-22.1489 747.469,-22.1489"/>
</g>
<!-- v2&#45;&gt;v11 -->
<g id="edge23" class="edge"><title>v2&#45;&gt;v11</title>
<path fill="none" stroke="green" d="M569.973,-178.568C488.44,-153.3 146.377,-47.2917 55.0147,-18.9775"/>
</g>
<!-- v14 -->
<g id="v14_HVAC" class="node"><title>v14</title>
<ellipse fill="none" stroke="black" cx="577.5" cy="-11" rx="21.5" ry="11"/>
<text text-anchor="middle" x="577.5" y="-8.8" font-family="sans-serif" font-size="9.00">HVAC</text>
</g>
<!-- v2&#45;&gt;v14 -->
<g id="edge11" class="edge"><title>v2&#45;&gt;v14</title>
<path fill="none" stroke="black" d="M586.904,-173.756C585.22,-144.786 580.415,-62.1364 578.403,-27.5335"/>
<polygon fill="black" stroke="black" points="578.105,-22.4081 580.642,-27.269 578.25,-24.9039 578.395,-27.3996 578.395,-27.3996 578.395,-27.3996 578.25,-24.9039 576.149,-27.5303 578.105,-22.4081 578.105,-22.4081"/>
</g>
<!-- v15 -->
<g id="v15_FireAlarm" class="node"><title>v15</title>
<ellipse fill="none" stroke="black" cx="656.5" cy="-11" rx="39.5" ry="11"/>
<text text-anchor="middle" x="656.5" y="-8.8" font-family="sans-serif" font-size="9.00">FireAlarm</text>
</g>
<!-- v2&#45;&gt;v15 -->
<g id="edge12" class="edge"><title>v2&#45;&gt;v15</title>
<path fill="none" stroke="black" d="M591.508,-174.009C603.132,-145.034 636.896,-60.8671 650.608,-26.6863"/>
<polygon fill="black" stroke="black" points="652.481,-22.0185 652.708,-27.4968 651.55,-24.3387 650.619,-26.659 650.619,-26.659 650.619,-26.659 651.55,-24.3387 648.531,-25.8213 652.481,-22.0185 652.481,-22.0185"/>
</g>
<!-- v3&#45;&gt;v4 -->
<g id="edge13" class="edge"><title>v3&#45;&gt;v4</title>
<path fill="none" stroke="black" d="M517.616,-116.246C509.353,-107.172 496.965,-93.5697 487.762,-83.4636"/>
<polygon fill="black" stroke="black" points="484.282,-79.6427 489.312,-81.8244 485.965,-81.491 487.648,-83.3394 487.648,-83.3394 487.648,-83.3394 485.965,-81.491 485.985,-84.8544 484.282,-79.6427 484.282,-79.6427"/>
</g>
<!-- v10 -->
<g id="v10_Data" class="node"><title>v10</title>
<ellipse fill="none" stroke="black" cx="425.5" cy="-11" rx="21.5" ry="11"/>
<text text-anchor="middle" x="425.5" y="-8.8" font-family="sans-serif" font-size="9.00">Data</text>
</g>
<!-- v4&#45;&gt;v10 -->
<g id="edge14" class="edge"><title>v4&#45;&gt;v10</title>
<path fill="none" stroke="black" d="M466.791,-58.2455C458.59,-49.061 446.248,-35.2372 437.192,-25.0955"/>
<polygon fill="black" stroke="black" points="433.778,-21.2708 438.786,-23.502 435.443,-23.1357 437.108,-25.0005 437.108,-25.0005 437.108,-25.0005 435.443,-23.1357 435.429,-26.4991 433.778,-21.2708 433.778,-21.2708"/>
</g>
<!-- v13 -->
<g id="v13_Software" class="node"><title>v13</title>
<ellipse fill="none" stroke="black" cx="501.5" cy="-11" rx="36" ry="11"/>
<text text-anchor="middle" x="501.5" y="-8.8" font-family="sans-serif" font-size="9.00">Software</text>
</g>
<!-- v4&#45;&gt;v13 -->
<g id="edge15" class="edge"><title>v4&#45;&gt;v13</title>
<path fill="none" stroke="black" d="M480.148,-57.9883C484.215,-49.2286 490.173,-36.3956 494.763,-26.5103"/>
<polygon fill="black" stroke="black" points="496.892,-21.925 496.827,-27.4076 495.839,-24.1925 494.786,-26.4601 494.786,-26.4601 494.786,-26.4601 495.839,-24.1925 492.746,-25.5125 496.892,-21.925 496.892,-21.925"/>
</g>
<!-- v5&#45;&gt;v6 -->
<g id="edge25" class="edge"><title>v5&#45;&gt;v6</title>
<path fill="none" stroke="green" d="M770.242,-21.6427C783.768,-31.8787 805.028,-47.9671 818.61,-58.2455"/>
</g>
<!-- v9 -->
<g id="v9_Data" class="node"><title>v9</title>
<ellipse fill="none" stroke="black" cx="840.5" cy="-11" rx="21.5" ry="11"/>
<text text-anchor="middle" x="840.5" y="-8.8" font-family="sans-serif" font-size="9.00">Data</text>
</g>
<!-- v6&#45;&gt;v9 -->
<g id="edge16" class="edge"><title>v6&#45;&gt;v9</title>
<path fill="none" stroke="black" d="M833.109,-57.9883C834.474,-49.4941 836.455,-37.1697 838.022,-27.4169"/>
<polygon fill="black" stroke="black" points="838.844,-22.3039 840.272,-27.5976 838.447,-24.7722 838.051,-27.2405 838.051,-27.2405 838.051,-27.2405 838.447,-24.7722 835.829,-26.8835 838.844,-22.3039 838.844,-22.3039"/>
</g>
<!-- v6&#45;&gt;v14 -->
<g id="edge26" class="edge"><title>v6&#45;&gt;v14</title>
<path fill="none" stroke="green" d="M789.454,-60.9117C744.175,-52.9198 670.193,-38.8217 607.5,-22 603.152,-20.8333 598.511,-19.3881 594.212,-17.9624"/>
</g>
<!-- v6&#45;&gt;v15 -->
<g id="edge27" class="edge"><title>v6&#45;&gt;v15</title>
<path fill="none" stroke="green" d="M803.771,-59.1266C769.846,-48.2707 712.959,-30.067 680.718,-19.7498"/>
</g>
<!-- v18 -->
<g id="v18_SmartLight" class="node"><title>v18</title>
<ellipse fill="none" stroke="black" cx="126.5" cy="-11" rx="43" ry="11"/>
<text text-anchor="middle" x="126.5" y="-8.8" font-family="sans-serif" font-size="9.00">SmartLight</text>
</g>
<!-- v6&#45;&gt;v18 -->
<g id="edge28" class="edge"><title>v6&#45;&gt;v18</title>
<path fill="none" stroke="green" d="M772.285,-66.2016C657.369,-62.1874 396.269,-50.5055 178.5,-22 171.755,-21.117 164.564,-19.909 157.749,-18.6375"/>
</g>
<!-- v20 -->
<g id="v20_SmartLight" class="node"><title>v20</title>
<ellipse fill="none" stroke="black" cx="342.5" cy="-11" rx="43" ry="11"/>
<text text-anchor="middle" x="342.5" y="-8.8" font-family="sans-serif" font-size="9.00">SmartLight</text>
</g>
<!-- v6&#45;&gt;v20 -->
<g id="edge29" class="edge"><title>v6&#45;&gt;v20</title>
<path fill="none" stroke="green" d="M777.493,-63.8039C694.772,-57.0412 531.837,-42.3959 394.5,-22 387.862,-21.0142 380.781,-19.7774 374.05,-18.513"/>
</g>
<!-- v21 -->
<g id="v21_Workstation" class="node"><title>v21</title>
<ellipse fill="none" stroke="black" cx="234.5" cy="-11" rx="47" ry="11"/>
<text text-anchor="middle" x="234.5" y="-8.8" font-family="sans-serif" font-size="9.00">Workstation</text>
</g>
<!-- v6&#45;&gt;v21 -->
<g id="edge30" class="edge"><title>v6&#45;&gt;v21</title>
<path fill="none" stroke="green" d="M774.849,-64.9017C676.163,-59.1212 466.434,-45.1383 290.5,-22 283.45,-21.0728 275.936,-19.8761 268.776,-18.6349"/>
</g>
<!-- v8 -->
<g id="v8_ConnectDevice" class="node"><title>v8</title>
<ellipse fill="none" stroke="black" cx="934.5" cy="-11" rx="54" ry="11"/>
<text text-anchor="middle" x="934.5" y="-8.8" font-family="sans-serif" font-size="9.00">ConnectDevice</text>
</g>
<!-- v7&#45;&gt;v8 -->
<g id="edge17" class="edge"><title>v7&#45;&gt;v8</title>
<path fill="none" stroke="black" d="M1024.18,-58.5004C1005.79,-48.9669 977.419,-34.2544 957.523,-23.9378"/>
<polygon fill="black" stroke="black" points="952.911,-21.5462 958.385,-21.8504 955.13,-22.6971 957.349,-23.8479 957.349,-23.8479 957.349,-23.8479 955.13,-22.6971 956.314,-25.8453 952.911,-21.5462 952.911,-21.5462"/>
</g>
<!-- v12 -->
<g id="v12_ExitRoom" class="node"><title>v12</title>
<ellipse fill="none" stroke="black" cx="1042.5" cy="-11" rx="36" ry="11"/>
<text text-anchor="middle" x="1042.5" y="-8.8" font-family="sans-serif" font-size="9.00">ExitRoom</text>
</g>
<!-- v7&#45;&gt;v12 -->
<g id="edge18" class="edge"><title>v7&#45;&gt;v12</title>
<path fill="none" stroke="black" d="M1042.5,-57.9883C1042.5,-49.4941 1042.5,-37.1697 1042.5,-27.4169"/>
<polygon fill="black" stroke="black" points="1042.5,-22.3039 1044.75,-27.3038 1042.5,-24.8039 1042.5,-27.3039 1042.5,-27.3039 1042.5,-27.3039 1042.5,-24.8039 1040.25,-27.3039 1042.5,-22.3039 1042.5,-22.3039"/>
</g>
<!-- v16 -->
<g id="v16_SendSoftware" class="node"><title>v16</title>
<ellipse fill="none" stroke="black" cx="1147.5" cy="-11" rx="50.5" ry="11"/>
<text text-anchor="middle" x="1147.5" y="-8.8" font-family="sans-serif" font-size="9.00">SendSoftware</text>
</g>
<!-- v7&#45;&gt;v16 -->
<g id="edge19" class="edge"><title>v7&#45;&gt;v16</title>
<path fill="none" stroke="black" d="M1060.31,-58.5004C1078.22,-48.9496 1105.87,-34.201 1125.22,-23.8816"/>
<polygon fill="black" stroke="black" points="1129.95,-21.3593 1126.6,-25.6976 1127.75,-22.5358 1125.54,-23.7123 1125.54,-23.7123 1125.54,-23.7123 1127.75,-22.5358 1124.48,-21.727 1129.95,-21.3593 1129.95,-21.3593"/>
</g>
<!-- v11&#45;&gt;v17 -->
<g id="edge31" class="edge"><title>v11&#45;&gt;v17</title>
<path fill="none" stroke="green" d="M49.2552,-20.6082C70.613,-31.581 107.168,-50.3617 127.25,-60.679"/>
</g>
<!-- v11&#45;&gt;v19 -->
<g id="edge32" class="edge"><title>v11&#45;&gt;v19</title>
<path fill="none" stroke="green" d="M57.3234,-18.1473C62.9576,-19.4765 68.9244,-20.8323 74.5,-22 161.129,-40.1433 265.27,-57.6707 308.342,-64.7338"/>
</g>
<!-- v17&#45;&gt;v18 -->
<g id="edge20" class="edge"><title>v17&#45;&gt;v18</title>
<path fill="none" stroke="black" d="M138.818,-57.9883C136.522,-49.4154 133.181,-36.9411 130.557,-27.1466"/>
<polygon fill="black" stroke="black" points="129.26,-22.3039 132.727,-26.5514 129.907,-24.7187 130.554,-27.1336 130.554,-27.1336 130.554,-27.1336 129.907,-24.7187 128.38,-27.7158 129.26,-22.3039 129.26,-22.3039"/>
</g>
<!-- v19&#45;&gt;v20 -->
<g id="edge21" class="edge"><title>v19&#45;&gt;v20</title>
<path fill="none" stroke="black" d="M331.003,-57.9883C333.126,-49.4941 336.208,-37.1697 338.646,-27.4169"/>
<polygon fill="black" stroke="black" points="339.924,-22.3039 340.894,-27.7003 339.318,-24.7292 338.711,-27.1546 338.711,-27.1546 338.711,-27.1546 339.318,-24.7292 336.528,-26.6089 339.924,-22.3039 339.924,-22.3039"/>
</g>
<!-- v19&#45;&gt;v21 -->
<g id="edge22" class="edge"><title>v19&#45;&gt;v21</title>
<path fill="none" stroke="black" d="M315.43,-60.2134C299.711,-50.849 273.15,-35.0258 254.766,-24.0734"/>
<polygon fill="black" stroke="black" points="250.28,-21.4008 255.727,-22.0268 252.428,-22.6803 254.575,-23.9598 254.575,-23.9598 254.575,-23.9598 252.428,-22.6803 253.424,-25.8928 250.28,-21.4008 250.28,-21.4008"/>
</g>
</g>
</svg>
