<?xml version="1.0" encoding="UTF-8" standalone="no"?>
<?xml-stylesheet href="style.css" type="text/css"?>
<!DOCTYPE svg PUBLIC "-//W3C//DTD SVG 1.1//EN"
 "http://www.w3.org/Graphics/SVG/1.1/DTD/svg11.dtd">
<!-- Generated by graphviz version 2.38.0 (20140413.2041)
 -->
<!-- Title: 26.svg Pages: 1 -->
<svg width="1169pt" height="374pt"
 viewBox="0.00 0.00 1168.50 374.00" xmlns="http://www.w3.org/2000/svg" xmlns:xlink="http://www.w3.org/1999/xlink">
<g id="graph0" class="graph" transform="scale(1 1) rotate(0) translate(4 370)">
<title>26.svg</title>
<polygon fill="white" stroke="none" points="-4,4 -4,-370 1164.5,-370 1164.5,4 -4,4"/>
<!-- r0 -->
<g id="node1" class="node"><title>r0</title>
<polygon fill="none" stroke="black" stroke-dasharray="5,2" points="671,-366 648,-366 648,-348 671,-348 671,-366"/>
<text text-anchor="middle" x="659.5" y="-354.8" font-family="serif" font-size="9.00">0</text>
</g>
<!-- v0 -->
<g id="v0_Building" class="node"><title>v0</title>
<ellipse fill="none" stroke="black" cx="659.5" cy="-301" rx="36" ry="11"/>
<text text-anchor="middle" x="659.5" y="-298.8" font-family="sans-serif" font-size="9.00">Building</text>
</g>
<!-- r0&#45;&gt;v0 -->
<g id="edge1" class="edge"><title>r0&#45;&gt;v0</title>
<path fill="none" stroke="black" d="M659.5,-347.562C659.5,-339.453 659.5,-327.014 659.5,-317.181"/>
<polygon fill="black" stroke="black" points="659.5,-312.03 661.75,-317.03 659.5,-314.53 659.5,-317.03 659.5,-317.03 659.5,-317.03 659.5,-314.53 657.25,-317.03 659.5,-312.03 659.5,-312.03"/>
</g>
<!-- r1 -->
<g id="node2" class="node"><title>r1</title>
<polygon fill="none" stroke="black" stroke-dasharray="5,2" points="1024,-366 1001,-366 1001,-348 1024,-348 1024,-366"/>
<text text-anchor="middle" x="1012.5" y="-354.8" font-family="serif" font-size="9.00">1</text>
</g>
<!-- v7 -->
<g id="v7_RulesKeywords" class="node"><title>v7</title>
<ellipse fill="none" stroke="black" cx="1012.5" cy="-69" rx="54" ry="11"/>
<text text-anchor="middle" x="1012.5" y="-66.8" font-family="sans-serif" font-size="9.00">RulesKeywords</text>
</g>
<!-- r1&#45;&gt;v7 -->
<g id="edge2" class="edge"><title>r1&#45;&gt;v7</title>
<path fill="none" stroke="black" d="M1012.5,-347.849C1012.5,-329.373 1012.5,-282.889 1012.5,-244 1012.5,-244 1012.5,-244 1012.5,-184 1012.5,-148.604 1012.5,-107.026 1012.5,-85.1783"/>
<polygon fill="black" stroke="black" points="1012.5,-80.0648 1014.75,-85.0648 1012.5,-82.5648 1012.5,-85.0648 1012.5,-85.0648 1012.5,-85.0648 1012.5,-82.5648 1010.25,-85.0648 1012.5,-80.0648 1012.5,-80.0648"/>
</g>
<!-- e1 -->
<g id="node3" class="node"><title>e1</title>
</g>
<!-- v4 -->
<g id="v4_Laptop" class="node"><title>v4</title>
<ellipse fill="none" stroke="black" cx="609.5" cy="-69" rx="29" ry="11"/>
<text text-anchor="middle" x="609.5" y="-66.8" font-family="sans-serif" font-size="9.00">Laptop</text>
</g>
<!-- e1&#45;&gt;v4 -->
<g id="edge24" class="edge"><title>e1&#45;&gt;v4</title>
<path fill="none" stroke="green" d="M609.5,-122.167C609.5,-113.586 609.5,-92.5957 609.5,-80.0117"/>
<polygon fill="green" stroke="green" points="613,-125.3 606,-125.3 606,-123.9 613,-123.9 613,-125.3"/>
<polyline fill="none" stroke="green" points="609.5,-126 609.5,-122.5 "/>
</g>
<!-- v1 -->
<g id="v1_Floor" class="node"><title>v1</title>
<ellipse fill="none" stroke="black" cx="516.5" cy="-243" rx="25" ry="11"/>
<text text-anchor="middle" x="516.5" y="-240.8" font-family="sans-serif" font-size="9.00">Floor</text>
</g>
<!-- v0&#45;&gt;v1 -->
<g id="edge3" class="edge"><title>v0&#45;&gt;v1</title>
<path fill="none" stroke="black" d="M638.707,-291.857C612.162,-281.462 566.408,-263.545 539.048,-252.83"/>
<polygon fill="black" stroke="black" points="534.162,-250.917 539.639,-250.645 536.49,-251.828 538.818,-252.74 538.818,-252.74 538.818,-252.74 536.49,-251.828 537.998,-254.835 534.162,-250.917 534.162,-250.917"/>
</g>
<!-- v6 -->
<g id="v6_InstallationBus" class="node"><title>v6</title>
<ellipse fill="none" stroke="black" cx="810.5" cy="-69" rx="61" ry="11"/>
<text text-anchor="middle" x="810.5" y="-66.8" font-family="sans-serif" font-size="9.00">InstallationBus</text>
</g>
<!-- v0&#45;&gt;v6 -->
<g id="edge4" class="edge"><title>v0&#45;&gt;v6</title>
<path fill="none" stroke="black" d="M665.988,-290.117C689.844,-253.781 772.771,-127.468 801.003,-84.4655"/>
<polygon fill="black" stroke="black" points="803.866,-80.105 803.003,-85.5196 802.494,-82.1949 801.122,-84.2848 801.122,-84.2848 801.122,-84.2848 802.494,-82.1949 799.241,-83.0499 803.866,-80.105 803.866,-80.105"/>
</g>
<!-- v2 -->
<g id="v2_Room" class="node"><title>v2</title>
<ellipse fill="none" stroke="black" cx="660.5" cy="-185" rx="21.5" ry="11"/>
<text text-anchor="middle" x="660.5" y="-182.8" font-family="sans-serif" font-size="9.00">Room</text>
</g>
<!-- v1&#45;&gt;v2 -->
<g id="edge5" class="edge"><title>v1&#45;&gt;v2</title>
<path fill="none" stroke="black" d="M534.157,-235.133C560.709,-224.808 610.835,-205.314 639.317,-194.238"/>
<polygon fill="black" stroke="black" points="644.034,-192.403 640.19,-196.313 641.704,-193.31 639.374,-194.216 639.374,-194.216 639.374,-194.216 641.704,-193.31 638.558,-192.119 644.034,-192.403 644.034,-192.403"/>
</g>
<!-- v9 -->
<g id="v9_Room" class="node"><title>v9</title>
<ellipse fill="none" stroke="black" cx="181.5" cy="-127" rx="21.5" ry="11"/>
<text text-anchor="middle" x="181.5" y="-124.8" font-family="sans-serif" font-size="9.00">Room</text>
</g>
<!-- v1&#45;&gt;v9 -->
<g id="edge6" class="edge"><title>v1&#45;&gt;v9</title>
<path fill="none" stroke="black" d="M494.68,-237.571C460.636,-230.399 393.025,-215.099 337.5,-196 287.057,-178.649 230.168,-151.947 201.018,-137.716"/>
<polygon fill="black" stroke="black" points="196.244,-135.375 201.724,-135.556 198.489,-136.476 200.733,-137.576 200.733,-137.576 200.733,-137.576 198.489,-136.476 199.743,-139.597 196.244,-135.375 196.244,-135.375"/>
</g>
<!-- v14 -->
<g id="v14_Hallway" class="node"><title>v14</title>
<ellipse fill="none" stroke="black" cx="324.5" cy="-11" rx="32.5" ry="11"/>
<text text-anchor="middle" x="324.5" y="-8.8" font-family="sans-serif" font-size="9.00">Hallway</text>
</g>
<!-- v1&#45;&gt;v14 -->
<g id="edge7" class="edge"><title>v1&#45;&gt;v14</title>
<path fill="none" stroke="black" d="M508.494,-232.41C478.372,-196.326 371.756,-68.6084 336.164,-25.9726"/>
<polygon fill="black" stroke="black" points="332.754,-21.888 337.686,-24.2845 334.356,-23.8072 335.959,-25.7264 335.959,-25.7264 335.959,-25.7264 334.356,-23.8072 334.231,-27.1683 332.754,-21.888 332.754,-21.888"/>
</g>
<!-- v19 -->
<g id="v19_Room" class="node"><title>v19</title>
<ellipse fill="none" stroke="black" cx="516.5" cy="-69" rx="21.5" ry="11"/>
<text text-anchor="middle" x="516.5" y="-66.8" font-family="sans-serif" font-size="9.00">Room</text>
</g>
<!-- v1&#45;&gt;v19 -->
<g id="edge8" class="edge"><title>v1&#45;&gt;v19</title>
<path fill="none" stroke="black" d="M516.5,-231.756C516.5,-202.786 516.5,-120.136 516.5,-85.5335"/>
<polygon fill="black" stroke="black" points="516.5,-80.4081 518.75,-85.408 516.5,-82.9081 516.5,-85.4081 516.5,-85.4081 516.5,-85.4081 516.5,-82.9081 514.25,-85.4081 516.5,-80.4081 516.5,-80.4081"/>
</g>
<!-- v3 -->
<g id="v3_Visitor" class="node"><title>v3</title>
<ellipse fill="none" stroke="black" cx="660.5" cy="-127" rx="32.5" ry="11"/>
<text text-anchor="middle" x="660.5" y="-124.8" font-family="sans-serif" font-size="9.00">Visitor</text>
</g>
<!-- v2&#45;&gt;v3 -->
<g id="edge9" class="edge"><title>v2&#45;&gt;v3</title>
<path fill="none" stroke="black" d="M660.5,-173.988C660.5,-165.494 660.5,-153.17 660.5,-143.417"/>
<polygon fill="black" stroke="black" points="660.5,-138.304 662.75,-143.304 660.5,-140.804 660.5,-143.304 660.5,-143.304 660.5,-143.304 660.5,-140.804 658.25,-143.304 660.5,-138.304 660.5,-138.304"/>
</g>
<!-- v5 -->
<g id="v5_SmartLight" class="node"><title>v5</title>
<ellipse fill="none" stroke="black" cx="724.5" cy="-11" rx="43" ry="11"/>
<text text-anchor="middle" x="724.5" y="-8.8" font-family="sans-serif" font-size="9.00">SmartLight</text>
</g>
<!-- v2&#45;&gt;v5 -->
<g id="edge10" class="edge"><title>v2&#45;&gt;v5</title>
<path fill="none" stroke="black" d="M671.028,-175.291C680.554,-166.797 694.177,-152.996 701.5,-138 719.552,-101.033 723.525,-51.6904 724.339,-27.1665"/>
<polygon fill="black" stroke="black" points="724.475,-22.0442 726.592,-27.102 724.409,-24.5433 724.343,-27.0424 724.343,-27.0424 724.343,-27.0424 724.409,-24.5433 722.093,-26.9829 724.475,-22.0442 724.475,-22.0442"/>
</g>
<!-- v2&#45;&gt;v14 -->
<g id="edge23" class="edge"><title>v2&#45;&gt;v14</title>
<path fill="none" stroke="green" d="M646.062,-176.609C591.673,-148.767 399.292,-50.2866 341.22,-20.5589"/>
</g>
<!-- v3&#45;&gt;v4 -->
<g id="edge11" class="edge"><title>v3&#45;&gt;v4</title>
<path fill="none" stroke="black" d="M651.616,-116.246C643.353,-107.172 630.965,-93.5697 621.762,-83.4636"/>
<polygon fill="black" stroke="black" points="618.282,-79.6427 623.312,-81.8244 619.965,-81.491 621.648,-83.3394 621.648,-83.3394 621.648,-83.3394 619.965,-81.491 619.985,-84.8544 618.282,-79.6427 618.282,-79.6427"/>
</g>
<!-- v10 -->
<g id="v10_Software" class="node"><title>v10</title>
<ellipse fill="none" stroke="black" cx="627.5" cy="-11" rx="36" ry="11"/>
<text text-anchor="middle" x="627.5" y="-8.8" font-family="sans-serif" font-size="9.00">Software</text>
</g>
<!-- v4&#45;&gt;v10 -->
<g id="edge12" class="edge"><title>v4&#45;&gt;v10</title>
<path fill="none" stroke="black" d="M612.718,-57.9883C615.474,-49.4154 619.483,-36.9411 622.631,-27.1466"/>
<polygon fill="black" stroke="black" points="624.188,-22.3039 624.8,-27.7526 623.423,-24.6839 622.658,-27.064 622.658,-27.064 622.658,-27.064 623.423,-24.6839 620.516,-26.3755 624.188,-22.3039 624.188,-22.3039"/>
</g>
<!-- v5&#45;&gt;v6 -->
<g id="edge25" class="edge"><title>v5&#45;&gt;v6</title>
<path fill="none" stroke="green" d="M739.022,-21.4561C754.726,-31.6823 779.639,-47.9044 795.52,-58.2455"/>
</g>
<!-- v11 -->
<g id="v11_HVAC" class="node"><title>v11</title>
<ellipse fill="none" stroke="black" cx="134.5" cy="-69" rx="21.5" ry="11"/>
<text text-anchor="middle" x="134.5" y="-66.8" font-family="sans-serif" font-size="9.00">HVAC</text>
</g>
<!-- v6&#45;&gt;v11 -->
<g id="edge26" class="edge"><title>v6&#45;&gt;v11</title>
<path fill="none" stroke="green" d="M787.51,-79.2657C770.927,-86.0884 747.801,-94.4264 726.5,-98 504.76,-135.199 230.272,-87.7721 154.613,-73.0791"/>
</g>
<!-- v13 -->
<g id="v13_Data" class="node"><title>v13</title>
<ellipse fill="none" stroke="black" cx="810.5" cy="-11" rx="21.5" ry="11"/>
<text text-anchor="middle" x="810.5" y="-8.8" font-family="sans-serif" font-size="9.00">Data</text>
</g>
<!-- v6&#45;&gt;v13 -->
<g id="edge13" class="edge"><title>v6&#45;&gt;v13</title>
<path fill="none" stroke="black" d="M810.5,-57.9883C810.5,-49.4941 810.5,-37.1697 810.5,-27.4169"/>
<polygon fill="black" stroke="black" points="810.5,-22.3039 812.75,-27.3038 810.5,-24.8039 810.5,-27.3039 810.5,-27.3039 810.5,-27.3039 810.5,-24.8039 808.25,-27.3039 810.5,-22.3039 810.5,-22.3039"/>
</g>
<!-- v17 -->
<g id="v17_SmartLight" class="node"><title>v17</title>
<ellipse fill="none" stroke="black" cx="230.5" cy="-11" rx="43" ry="11"/>
<text text-anchor="middle" x="230.5" y="-8.8" font-family="sans-serif" font-size="9.00">SmartLight</text>
</g>
<!-- v6&#45;&gt;v17 -->
<g id="edge27" class="edge"><title>v6&#45;&gt;v17</title>
<path fill="none" stroke="green" d="M755.806,-63.9551C639.908,-55.2659 372.836,-34.5871 282.5,-22 275.853,-21.0739 268.769,-19.8628 262.037,-18.6045"/>
</g>
<!-- v18 -->
<g id="v18_FireAlarm" class="node"><title>v18</title>
<ellipse fill="none" stroke="black" cx="39.5" cy="-11" rx="39.5" ry="11"/>
<text text-anchor="middle" x="39.5" y="-8.8" font-family="sans-serif" font-size="9.00">FireAlarm</text>
</g>
<!-- v6&#45;&gt;v18 -->
<g id="edge28" class="edge"><title>v6&#45;&gt;v18</title>
<path fill="none" stroke="green" d="M754.424,-64.5305C587.6,-54.1956 104.967,-24.1943 88.5,-22 81.9593,-21.1284 74.9835,-19.893 68.4075,-18.5866"/>
</g>
<!-- v20 -->
<g id="v20_SmartLight" class="node"><title>v20</title>
<ellipse fill="none" stroke="black" cx="530.5" cy="-11" rx="43" ry="11"/>
<text text-anchor="middle" x="530.5" y="-8.8" font-family="sans-serif" font-size="9.00">SmartLight</text>
</g>
<!-- v6&#45;&gt;v20 -->
<g id="edge29" class="edge"><title>v6&#45;&gt;v20</title>
<path fill="none" stroke="green" d="M772.447,-60.3893C716.823,-49.2646 614.305,-28.7611 562.4,-18.38"/>
</g>
<!-- v21 -->
<g id="v21_Workstation" class="node"><title>v21</title>
<ellipse fill="none" stroke="black" cx="422.5" cy="-11" rx="47" ry="11"/>
<text text-anchor="middle" x="422.5" y="-8.8" font-family="sans-serif" font-size="9.00">Workstation</text>
</g>
<!-- v6&#45;&gt;v21 -->
<g id="edge30" class="edge"><title>v6&#45;&gt;v21</title>
<path fill="none" stroke="green" d="M763.132,-62.0281C698.641,-53.7625 579.651,-38.0325 478.5,-22 471.672,-20.9178 464.391,-19.6797 457.415,-18.4519"/>
</g>
<!-- v8 -->
<g id="v8_ConnectDevice" class="node"><title>v8</title>
<ellipse fill="none" stroke="black" cx="904.5" cy="-11" rx="54" ry="11"/>
<text text-anchor="middle" x="904.5" y="-8.8" font-family="sans-serif" font-size="9.00">ConnectDevice</text>
</g>
<!-- v7&#45;&gt;v8 -->
<g id="edge14" class="edge"><title>v7&#45;&gt;v8</title>
<path fill="none" stroke="black" d="M994.179,-58.5004C975.793,-48.9669 947.419,-34.2544 927.523,-23.9378"/>
<polygon fill="black" stroke="black" points="922.911,-21.5462 928.385,-21.8504 925.13,-22.6971 927.349,-23.8479 927.349,-23.8479 927.349,-23.8479 925.13,-22.6971 926.314,-25.8453 922.911,-21.5462 922.911,-21.5462"/>
</g>
<!-- v15 -->
<g id="v15_ExitRoom" class="node"><title>v15</title>
<ellipse fill="none" stroke="black" cx="1012.5" cy="-11" rx="36" ry="11"/>
<text text-anchor="middle" x="1012.5" y="-8.8" font-family="sans-serif" font-size="9.00">ExitRoom</text>
</g>
<!-- v7&#45;&gt;v15 -->
<g id="edge15" class="edge"><title>v7&#45;&gt;v15</title>
<path fill="none" stroke="black" d="M1012.5,-57.9883C1012.5,-49.4941 1012.5,-37.1697 1012.5,-27.4169"/>
<polygon fill="black" stroke="black" points="1012.5,-22.3039 1014.75,-27.3038 1012.5,-24.8039 1012.5,-27.3039 1012.5,-27.3039 1012.5,-27.3039 1012.5,-24.8039 1010.25,-27.3039 1012.5,-22.3039 1012.5,-22.3039"/>
</g>
<!-- v16 -->
<g id="v16_CollectData" class="node"><title>v16</title>
<ellipse fill="none" stroke="black" cx="1113.5" cy="-11" rx="47" ry="11"/>
<text text-anchor="middle" x="1113.5" y="-8.8" font-family="sans-serif" font-size="9.00">CollectData</text>
</g>
<!-- v7&#45;&gt;v16 -->
<g id="edge16" class="edge"><title>v7&#45;&gt;v16</title>
<path fill="none" stroke="black" d="M1029.63,-58.5004C1046.86,-48.9496 1073.46,-34.201 1092.07,-23.8816"/>
<polygon fill="black" stroke="black" points="1096.62,-21.3593 1093.34,-25.7517 1094.43,-22.5716 1092.25,-23.7839 1092.25,-23.7839 1092.25,-23.7839 1094.43,-22.5716 1091.16,-21.8162 1096.62,-21.3593 1096.62,-21.3593"/>
</g>
<!-- v9&#45;&gt;v11 -->
<g id="edge17" class="edge"><title>v9&#45;&gt;v11</title>
<path fill="none" stroke="black" d="M173.527,-116.5C165.851,-107.354 154.174,-93.4415 145.592,-83.2165"/>
<polygon fill="black" stroke="black" points="142.355,-79.3593 147.293,-81.7428 143.962,-81.2743 145.57,-83.1892 145.57,-83.1892 145.57,-83.1892 143.962,-81.2743 143.846,-84.6357 142.355,-79.3593 142.355,-79.3593"/>
</g>
<!-- v9&#45;&gt;v14 -->
<g id="edge31" class="edge"><title>v9&#45;&gt;v14</title>
<path fill="none" stroke="green" d="M192.248,-117.431C218.49,-96.5118 285.661,-42.9623 312.832,-21.3019"/>
</g>
<!-- v9&#45;&gt;v17 -->
<g id="edge18" class="edge"><title>v9&#45;&gt;v17</title>
<path fill="none" stroke="black" d="M185.848,-115.883C194.508,-95.7373 213.943,-50.521 224.077,-26.9438"/>
<polygon fill="black" stroke="black" points="226.091,-22.2579 226.184,-27.7401 225.104,-24.5548 224.116,-26.8516 224.116,-26.8516 224.116,-26.8516 225.104,-24.5548 222.049,-25.9631 226.091,-22.2579 226.091,-22.2579"/>
</g>
<!-- v9&#45;&gt;v18 -->
<g id="edge19" class="edge"><title>v9&#45;&gt;v18</title>
<path fill="none" stroke="black" d="M166.62,-118.834C150.309,-110.623 123.763,-96.1949 103.5,-80 82.8949,-63.5319 62.6295,-40.5291 50.5951,-25.95"/>
<polygon fill="black" stroke="black" points="47.4256,-22.0738 52.3325,-24.5203 49.0081,-24.0092 50.5906,-25.9446 50.5906,-25.9446 50.5906,-25.9446 49.0081,-24.0092 48.8488,-27.3688 47.4256,-22.0738 47.4256,-22.0738"/>
</g>
<!-- v12 -->
<g id="v12_Software" class="node"><title>v12</title>
<ellipse fill="none" stroke="black" cx="133.5" cy="-11" rx="36" ry="11"/>
<text text-anchor="middle" x="133.5" y="-8.8" font-family="sans-serif" font-size="9.00">Software</text>
</g>
<!-- v11&#45;&gt;v12 -->
<g id="edge20" class="edge"><title>v11&#45;&gt;v12</title>
<path fill="none" stroke="black" d="M134.321,-57.9883C134.17,-49.4941 133.949,-37.1697 133.775,-27.4169"/>
<polygon fill="black" stroke="black" points="133.684,-22.3039 136.023,-27.2629 133.729,-24.8035 133.773,-27.3031 133.773,-27.3031 133.773,-27.3031 133.729,-24.8035 131.524,-27.3433 133.684,-22.3039 133.684,-22.3039"/>
</g>
<!-- v14&#45;&gt;v19 -->
<g id="edge32" class="edge"><title>v14&#45;&gt;v19</title>
<path fill="none" stroke="green" d="M347.677,-18.7599C386.396,-30.053 463.43,-52.5214 498.437,-62.7317"/>
</g>
<!-- v19&#45;&gt;v20 -->
<g id="edge21" class="edge"><title>v19&#45;&gt;v20</title>
<path fill="none" stroke="black" d="M519.003,-57.9883C521.126,-49.4941 524.208,-37.1697 526.646,-27.4169"/>
<polygon fill="black" stroke="black" points="527.924,-22.3039 528.894,-27.7003 527.318,-24.7292 526.711,-27.1546 526.711,-27.1546 526.711,-27.1546 527.318,-24.7292 524.528,-26.6089 527.924,-22.3039 527.924,-22.3039"/>
</g>
<!-- v19&#45;&gt;v21 -->
<g id="edge22" class="edge"><title>v19&#45;&gt;v21</title>
<path fill="none" stroke="black" d="M503.43,-60.2134C487.711,-50.849 461.15,-35.0258 442.766,-24.0734"/>
<polygon fill="black" stroke="black" points="438.28,-21.4008 443.727,-22.0268 440.428,-22.6803 442.575,-23.9598 442.575,-23.9598 442.575,-23.9598 440.428,-22.6803 441.424,-25.8928 438.28,-21.4008 438.28,-21.4008"/>
</g>
</g>
</svg>
