<?xml version="1.0" encoding="UTF-8" standalone="no"?>
<?xml-stylesheet href="style.css" type="text/css"?>
<!DOCTYPE svg PUBLIC "-//W3C//DTD SVG 1.1//EN"
 "http://www.w3.org/Graphics/SVG/1.1/DTD/svg11.dtd">
<!-- Generated by graphviz version 2.38.0 (20140413.2041)
 -->
<!-- Title: 33.svg Pages: 1 -->
<svg width="1139pt" height="374pt"
 viewBox="0.00 0.00 1138.50 374.00" xmlns="http://www.w3.org/2000/svg" xmlns:xlink="http://www.w3.org/1999/xlink">
<g id="graph0" class="graph" transform="scale(1 1) rotate(0) translate(4 370)">
<title>33.svg</title>
<polygon fill="white" stroke="none" points="-4,4 -4,-370 1134.5,-370 1134.5,4 -4,4"/>
<!-- r0 -->
<g id="node1" class="node"><title>r0</title>
<polygon fill="none" stroke="black" stroke-dasharray="5,2" points="710,-366 687,-366 687,-348 710,-348 710,-366"/>
<text text-anchor="middle" x="698.5" y="-354.8" font-family="serif" font-size="9.00">0</text>
</g>
<!-- v0 -->
<g id="v0_Building" class="node"><title>v0</title>
<ellipse fill="none" stroke="black" cx="698.5" cy="-301" rx="36" ry="11"/>
<text text-anchor="middle" x="698.5" y="-298.8" font-family="sans-serif" font-size="9.00">Building</text>
</g>
<!-- r0&#45;&gt;v0 -->
<g id="edge1" class="edge"><title>r0&#45;&gt;v0</title>
<path fill="none" stroke="black" d="M698.5,-347.562C698.5,-339.453 698.5,-327.014 698.5,-317.181"/>
<polygon fill="black" stroke="black" points="698.5,-312.03 700.75,-317.03 698.5,-314.53 698.5,-317.03 698.5,-317.03 698.5,-317.03 698.5,-314.53 696.25,-317.03 698.5,-312.03 698.5,-312.03"/>
</g>
<!-- r1 -->
<g id="node2" class="node"><title>r1</title>
<polygon fill="none" stroke="black" stroke-dasharray="5,2" points="1010,-366 987,-366 987,-348 1010,-348 1010,-366"/>
<text text-anchor="middle" x="998.5" y="-354.8" font-family="serif" font-size="9.00">1</text>
</g>
<!-- v7 -->
<g id="v7_RulesKeywords" class="node"><title>v7</title>
<ellipse fill="none" stroke="black" cx="998.5" cy="-69" rx="54" ry="11"/>
<text text-anchor="middle" x="998.5" y="-66.8" font-family="sans-serif" font-size="9.00">RulesKeywords</text>
</g>
<!-- r1&#45;&gt;v7 -->
<g id="edge2" class="edge"><title>r1&#45;&gt;v7</title>
<path fill="none" stroke="black" d="M998.5,-347.849C998.5,-329.373 998.5,-282.889 998.5,-244 998.5,-244 998.5,-244 998.5,-184 998.5,-148.604 998.5,-107.026 998.5,-85.1783"/>
<polygon fill="black" stroke="black" points="998.5,-80.0648 1000.75,-85.0648 998.5,-82.5648 998.5,-85.0648 998.5,-85.0648 998.5,-85.0648 998.5,-82.5648 996.25,-85.0648 998.5,-80.0648 998.5,-80.0648"/>
</g>
<!-- e1 -->
<g id="node3" class="node"><title>e1</title>
</g>
<!-- v4 -->
<g id="v4_Laptop" class="node"><title>v4</title>
<ellipse fill="none" stroke="black" cx="626.5" cy="-69" rx="29" ry="11"/>
<text text-anchor="middle" x="626.5" y="-66.8" font-family="sans-serif" font-size="9.00">Laptop</text>
</g>
<!-- e1&#45;&gt;v4 -->
<g id="edge24" class="edge"><title>e1&#45;&gt;v4</title>
<path fill="none" stroke="green" d="M626.5,-122.167C626.5,-113.586 626.5,-92.5957 626.5,-80.0117"/>
<polygon fill="green" stroke="green" points="630,-125.3 623,-125.3 623,-123.9 630,-123.9 630,-125.3"/>
<polyline fill="none" stroke="green" points="626.5,-126 626.5,-122.5 "/>
</g>
<!-- v1 -->
<g id="v1_Floor" class="node"><title>v1</title>
<ellipse fill="none" stroke="black" cx="516.5" cy="-243" rx="25" ry="11"/>
<text text-anchor="middle" x="516.5" y="-240.8" font-family="sans-serif" font-size="9.00">Floor</text>
</g>
<!-- v0&#45;&gt;v1 -->
<g id="edge3" class="edge"><title>v0&#45;&gt;v1</title>
<path fill="none" stroke="black" d="M674.707,-292.679C640.084,-282.026 576.135,-262.349 541.076,-251.562"/>
<polygon fill="black" stroke="black" points="536.12,-250.037 541.561,-249.357 538.51,-250.772 540.899,-251.508 540.899,-251.508 540.899,-251.508 538.51,-250.772 540.238,-253.658 536.12,-250.037 536.12,-250.037"/>
</g>
<!-- v6 -->
<g id="v6_InstallationBus" class="node"><title>v6</title>
<ellipse fill="none" stroke="black" cx="857.5" cy="-69" rx="61" ry="11"/>
<text text-anchor="middle" x="857.5" y="-66.8" font-family="sans-serif" font-size="9.00">InstallationBus</text>
</g>
<!-- v0&#45;&gt;v6 -->
<g id="edge4" class="edge"><title>v0&#45;&gt;v6</title>
<path fill="none" stroke="black" d="M705.332,-290.117C730.452,-253.781 817.772,-127.468 847.5,-84.4655"/>
<polygon fill="black" stroke="black" points="850.514,-80.105 849.522,-85.4974 849.093,-82.1615 847.671,-84.2179 847.671,-84.2179 847.671,-84.2179 849.093,-82.1615 845.82,-82.9384 850.514,-80.105 850.514,-80.105"/>
</g>
<!-- v2 -->
<g id="v2_Room" class="node"><title>v2</title>
<ellipse fill="none" stroke="black" cx="677.5" cy="-185" rx="21.5" ry="11"/>
<text text-anchor="middle" x="677.5" y="-182.8" font-family="sans-serif" font-size="9.00">Room</text>
</g>
<!-- v1&#45;&gt;v2 -->
<g id="edge5" class="edge"><title>v1&#45;&gt;v2</title>
<path fill="none" stroke="black" d="M534.969,-235.576C564.762,-225.213 623.317,-204.846 655.322,-193.714"/>
<polygon fill="black" stroke="black" points="660.222,-192.01 656.239,-195.777 657.861,-192.831 655.5,-193.652 655.5,-193.652 655.5,-193.652 657.861,-192.831 654.761,-191.527 660.222,-192.01 660.222,-192.01"/>
</g>
<!-- v11 -->
<g id="v11_Room" class="node"><title>v11</title>
<ellipse fill="none" stroke="black" cx="181.5" cy="-127" rx="21.5" ry="11"/>
<text text-anchor="middle" x="181.5" y="-124.8" font-family="sans-serif" font-size="9.00">Room</text>
</g>
<!-- v1&#45;&gt;v11 -->
<g id="edge6" class="edge"><title>v1&#45;&gt;v11</title>
<path fill="none" stroke="black" d="M494.68,-237.571C460.636,-230.399 393.025,-215.099 337.5,-196 287.057,-178.649 230.168,-151.947 201.018,-137.716"/>
<polygon fill="black" stroke="black" points="196.244,-135.375 201.724,-135.556 198.489,-136.476 200.733,-137.576 200.733,-137.576 200.733,-137.576 198.489,-136.476 199.743,-139.597 196.244,-135.375 196.244,-135.375"/>
</g>
<!-- v15 -->
<g id="v15_Hallway" class="node"><title>v15</title>
<ellipse fill="none" stroke="black" cx="324.5" cy="-11" rx="32.5" ry="11"/>
<text text-anchor="middle" x="324.5" y="-8.8" font-family="sans-serif" font-size="9.00">Hallway</text>
</g>
<!-- v1&#45;&gt;v15 -->
<g id="edge7" class="edge"><title>v1&#45;&gt;v15</title>
<path fill="none" stroke="black" d="M508.494,-232.41C478.372,-196.326 371.756,-68.6084 336.164,-25.9726"/>
<polygon fill="black" stroke="black" points="332.754,-21.888 337.686,-24.2845 334.356,-23.8072 335.959,-25.7264 335.959,-25.7264 335.959,-25.7264 334.356,-23.8072 334.231,-27.1683 332.754,-21.888 332.754,-21.888"/>
</g>
<!-- v19 -->
<g id="v19_Room" class="node"><title>v19</title>
<ellipse fill="none" stroke="black" cx="516.5" cy="-69" rx="21.5" ry="11"/>
<text text-anchor="middle" x="516.5" y="-66.8" font-family="sans-serif" font-size="9.00">Room</text>
</g>
<!-- v1&#45;&gt;v19 -->
<g id="edge8" class="edge"><title>v1&#45;&gt;v19</title>
<path fill="none" stroke="black" d="M516.5,-231.756C516.5,-202.786 516.5,-120.136 516.5,-85.5335"/>
<polygon fill="black" stroke="black" points="516.5,-80.4081 518.75,-85.408 516.5,-82.9081 516.5,-85.4081 516.5,-85.4081 516.5,-85.4081 516.5,-82.9081 514.25,-85.4081 516.5,-80.4081 516.5,-80.4081"/>
</g>
<!-- v3 -->
<g id="v3_Visitor" class="node"><title>v3</title>
<ellipse fill="none" stroke="black" cx="677.5" cy="-127" rx="32.5" ry="11"/>
<text text-anchor="middle" x="677.5" y="-124.8" font-family="sans-serif" font-size="9.00">Visitor</text>
</g>
<!-- v2&#45;&gt;v3 -->
<g id="edge9" class="edge"><title>v2&#45;&gt;v3</title>
<path fill="none" stroke="black" d="M677.5,-173.988C677.5,-165.494 677.5,-153.17 677.5,-143.417"/>
<polygon fill="black" stroke="black" points="677.5,-138.304 679.75,-143.304 677.5,-140.804 677.5,-143.304 677.5,-143.304 677.5,-143.304 677.5,-140.804 675.25,-143.304 677.5,-138.304 677.5,-138.304"/>
</g>
<!-- v5 -->
<g id="v5_SmartLight" class="node"><title>v5</title>
<ellipse fill="none" stroke="black" cx="786.5" cy="-11" rx="43" ry="11"/>
<text text-anchor="middle" x="786.5" y="-8.8" font-family="sans-serif" font-size="9.00">SmartLight</text>
</g>
<!-- v2&#45;&gt;v5 -->
<g id="edge10" class="edge"><title>v2&#45;&gt;v5</title>
<path fill="none" stroke="black" d="M686.659,-175.023C695.453,-166.119 708.797,-151.84 718.5,-138 744.877,-100.376 768.616,-51.391 779.774,-27.0691"/>
<polygon fill="black" stroke="black" points="781.961,-22.2664 781.937,-27.7493 780.925,-24.5417 779.889,-26.817 779.889,-26.817 779.889,-26.817 780.925,-24.5417 777.841,-25.8847 781.961,-22.2664 781.961,-22.2664"/>
</g>
<!-- v2&#45;&gt;v15 -->
<g id="edge23" class="edge"><title>v2&#45;&gt;v15</title>
<path fill="none" stroke="green" d="M662.781,-176.828C606.151,-149.235 402.465,-49.9884 341.718,-20.3896"/>
</g>
<!-- v3&#45;&gt;v4 -->
<g id="edge11" class="edge"><title>v3&#45;&gt;v4</title>
<path fill="none" stroke="black" d="M668.616,-116.246C660.353,-107.172 647.965,-93.5697 638.762,-83.4636"/>
<polygon fill="black" stroke="black" points="635.282,-79.6427 640.312,-81.8244 636.965,-81.491 638.648,-83.3394 638.648,-83.3394 638.648,-83.3394 636.965,-81.491 636.985,-84.8544 635.282,-79.6427 635.282,-79.6427"/>
</g>
<!-- v10 -->
<g id="v10_Data" class="node"><title>v10</title>
<ellipse fill="none" stroke="black" cx="613.5" cy="-11" rx="21.5" ry="11"/>
<text text-anchor="middle" x="613.5" y="-8.8" font-family="sans-serif" font-size="9.00">Data</text>
</g>
<!-- v4&#45;&gt;v10 -->
<g id="edge12" class="edge"><title>v4&#45;&gt;v10</title>
<path fill="none" stroke="black" d="M624.176,-57.9883C622.204,-49.4941 619.343,-37.1697 617.079,-27.4169"/>
<polygon fill="black" stroke="black" points="615.892,-22.3039 619.214,-26.6655 616.457,-24.7391 617.023,-27.1744 617.023,-27.1744 617.023,-27.1744 616.457,-24.7391 614.831,-27.6832 615.892,-22.3039 615.892,-22.3039"/>
</g>
<!-- v12 -->
<g id="v12_Software" class="node"><title>v12</title>
<ellipse fill="none" stroke="black" cx="689.5" cy="-11" rx="36" ry="11"/>
<text text-anchor="middle" x="689.5" y="-8.8" font-family="sans-serif" font-size="9.00">Software</text>
</g>
<!-- v4&#45;&gt;v12 -->
<g id="edge13" class="edge"><title>v4&#45;&gt;v12</title>
<path fill="none" stroke="black" d="M637.187,-58.5004C647.442,-49.3846 663.025,-35.5334 674.517,-25.318"/>
<polygon fill="black" stroke="black" points="678.549,-21.7345 676.306,-26.738 676.68,-23.3954 674.812,-25.0563 674.812,-25.0563 674.812,-25.0563 676.68,-23.3954 673.317,-23.3746 678.549,-21.7345 678.549,-21.7345"/>
</g>
<!-- v5&#45;&gt;v6 -->
<g id="edge25" class="edge"><title>v5&#45;&gt;v6</title>
<path fill="none" stroke="green" d="M799.083,-21.925C811.967,-32.0867 831.883,-47.7952 844.807,-57.9883"/>
</g>
<!-- v9 -->
<g id="v9_Data" class="node"><title>v9</title>
<ellipse fill="none" stroke="black" cx="869.5" cy="-11" rx="21.5" ry="11"/>
<text text-anchor="middle" x="869.5" y="-8.8" font-family="sans-serif" font-size="9.00">Data</text>
</g>
<!-- v6&#45;&gt;v9 -->
<g id="edge14" class="edge"><title>v6&#45;&gt;v9</title>
<path fill="none" stroke="black" d="M859.645,-57.9883C861.466,-49.4941 864.107,-37.1697 866.196,-27.4169"/>
<polygon fill="black" stroke="black" points="867.292,-22.3039 868.444,-27.6644 866.768,-24.7484 866.244,-27.1929 866.244,-27.1929 866.244,-27.1929 866.768,-24.7484 864.044,-26.7214 867.292,-22.3039 867.292,-22.3039"/>
</g>
<!-- v13 -->
<g id="v13_HVAC" class="node"><title>v13</title>
<ellipse fill="none" stroke="black" cx="134.5" cy="-69" rx="21.5" ry="11"/>
<text text-anchor="middle" x="134.5" y="-66.8" font-family="sans-serif" font-size="9.00">HVAC</text>
</g>
<!-- v6&#45;&gt;v13 -->
<g id="edge26" class="edge"><title>v6&#45;&gt;v13</title>
<path fill="none" stroke="green" d="M833.366,-79.2683C815.969,-86.0921 791.736,-94.4306 769.5,-98 530.054,-136.438 233.79,-87.517 154.688,-72.8919"/>
</g>
<!-- v17 -->
<g id="v17_SmartLight" class="node"><title>v17</title>
<ellipse fill="none" stroke="black" cx="230.5" cy="-11" rx="43" ry="11"/>
<text text-anchor="middle" x="230.5" y="-8.8" font-family="sans-serif" font-size="9.00">SmartLight</text>
</g>
<!-- v6&#45;&gt;v17 -->
<g id="edge27" class="edge"><title>v6&#45;&gt;v17</title>
<path fill="none" stroke="green" d="M799.326,-65.4677C695.268,-60.4665 470.551,-47.5248 282.5,-22 275.759,-21.085 268.57,-19.8634 261.755,-18.5889"/>
</g>
<!-- v18 -->
<g id="v18_FireAlarm" class="node"><title>v18</title>
<ellipse fill="none" stroke="black" cx="39.5" cy="-11" rx="39.5" ry="11"/>
<text text-anchor="middle" x="39.5" y="-8.8" font-family="sans-serif" font-size="9.00">FireAlarm</text>
</g>
<!-- v6&#45;&gt;v18 -->
<g id="edge28" class="edge"><title>v6&#45;&gt;v18</title>
<path fill="none" stroke="green" d="M800.464,-65.0562C634.372,-56.418 158.368,-31.1721 88.5,-22 81.9576,-21.1411 74.9811,-19.9109 68.405,-18.6054"/>
</g>
<!-- v20 -->
<g id="v20_SmartLight" class="node"><title>v20</title>
<ellipse fill="none" stroke="black" cx="530.5" cy="-11" rx="43" ry="11"/>
<text text-anchor="middle" x="530.5" y="-8.8" font-family="sans-serif" font-size="9.00">SmartLight</text>
</g>
<!-- v6&#45;&gt;v20 -->
<g id="edge29" class="edge"><title>v6&#45;&gt;v20</title>
<path fill="none" stroke="green" d="M814.574,-61.1503C760.416,-52.4322 664.445,-36.7308 582.5,-22 576.076,-20.8452 569.215,-19.5617 562.654,-18.3098"/>
</g>
<!-- v21 -->
<g id="v21_Workstation" class="node"><title>v21</title>
<ellipse fill="none" stroke="black" cx="422.5" cy="-11" rx="47" ry="11"/>
<text text-anchor="middle" x="422.5" y="-8.8" font-family="sans-serif" font-size="9.00">Workstation</text>
</g>
<!-- v6&#45;&gt;v21 -->
<g id="edge30" class="edge"><title>v6&#45;&gt;v21</title>
<path fill="none" stroke="green" d="M807.108,-62.7908C734.379,-55.0668 595.834,-39.5827 478.5,-22 471.565,-20.9608 464.17,-19.7289 457.103,-18.491"/>
</g>
<!-- v8 -->
<g id="v8_ConnectDevice" class="node"><title>v8</title>
<ellipse fill="none" stroke="black" cx="986.5" cy="-11" rx="54" ry="11"/>
<text text-anchor="middle" x="986.5" y="-8.8" font-family="sans-serif" font-size="9.00">ConnectDevice</text>
</g>
<!-- v7&#45;&gt;v8 -->
<g id="edge15" class="edge"><title>v7&#45;&gt;v8</title>
<path fill="none" stroke="black" d="M996.355,-57.9883C994.534,-49.4941 991.893,-37.1697 989.804,-27.4169"/>
<polygon fill="black" stroke="black" points="988.708,-22.3039 991.956,-26.7214 989.232,-24.7484 989.756,-27.1929 989.756,-27.1929 989.756,-27.1929 989.232,-24.7484 987.556,-27.6644 988.708,-22.3039 988.708,-22.3039"/>
</g>
<!-- v16 -->
<g id="v16_ExitRoom" class="node"><title>v16</title>
<ellipse fill="none" stroke="black" cx="1094.5" cy="-11" rx="36" ry="11"/>
<text text-anchor="middle" x="1094.5" y="-8.8" font-family="sans-serif" font-size="9.00">ExitRoom</text>
</g>
<!-- v7&#45;&gt;v16 -->
<g id="edge16" class="edge"><title>v7&#45;&gt;v16</title>
<path fill="none" stroke="black" d="M1014.79,-58.5004C1031.36,-48.8346 1057.05,-33.8448 1074.77,-23.5106"/>
<polygon fill="black" stroke="black" points="1079.09,-20.9896 1075.9,-25.4525 1076.93,-22.2493 1074.77,-23.509 1074.77,-23.509 1074.77,-23.509 1076.93,-22.2493 1073.64,-21.5655 1079.09,-20.9896 1079.09,-20.9896"/>
</g>
<!-- v11&#45;&gt;v13 -->
<g id="edge17" class="edge"><title>v11&#45;&gt;v13</title>
<path fill="none" stroke="black" d="M173.527,-116.5C165.851,-107.354 154.174,-93.4415 145.592,-83.2165"/>
<polygon fill="black" stroke="black" points="142.355,-79.3593 147.293,-81.7428 143.962,-81.2743 145.57,-83.1892 145.57,-83.1892 145.57,-83.1892 143.962,-81.2743 143.846,-84.6357 142.355,-79.3593 142.355,-79.3593"/>
</g>
<!-- v11&#45;&gt;v15 -->
<g id="edge31" class="edge"><title>v11&#45;&gt;v15</title>
<path fill="none" stroke="green" d="M192.248,-117.431C218.49,-96.5118 285.661,-42.9623 312.832,-21.3019"/>
</g>
<!-- v11&#45;&gt;v17 -->
<g id="edge18" class="edge"><title>v11&#45;&gt;v17</title>
<path fill="none" stroke="black" d="M185.848,-115.883C194.508,-95.7373 213.943,-50.521 224.077,-26.9438"/>
<polygon fill="black" stroke="black" points="226.091,-22.2579 226.184,-27.7401 225.104,-24.5548 224.116,-26.8516 224.116,-26.8516 224.116,-26.8516 225.104,-24.5548 222.049,-25.9631 226.091,-22.2579 226.091,-22.2579"/>
</g>
<!-- v11&#45;&gt;v18 -->
<g id="edge19" class="edge"><title>v11&#45;&gt;v18</title>
<path fill="none" stroke="black" d="M166.62,-118.834C150.309,-110.623 123.763,-96.1949 103.5,-80 82.8949,-63.5319 62.6295,-40.5291 50.5951,-25.95"/>
<polygon fill="black" stroke="black" points="47.4256,-22.0738 52.3325,-24.5203 49.0081,-24.0092 50.5906,-25.9446 50.5906,-25.9446 50.5906,-25.9446 49.0081,-24.0092 48.8488,-27.3688 47.4256,-22.0738 47.4256,-22.0738"/>
</g>
<!-- v14 -->
<g id="v14_Software" class="node"><title>v14</title>
<ellipse fill="none" stroke="black" cx="133.5" cy="-11" rx="36" ry="11"/>
<text text-anchor="middle" x="133.5" y="-8.8" font-family="sans-serif" font-size="9.00">Software</text>
</g>
<!-- v13&#45;&gt;v14 -->
<g id="edge20" class="edge"><title>v13&#45;&gt;v14</title>
<path fill="none" stroke="black" d="M134.321,-57.9883C134.17,-49.4941 133.949,-37.1697 133.775,-27.4169"/>
<polygon fill="black" stroke="black" points="133.684,-22.3039 136.023,-27.2629 133.729,-24.8035 133.773,-27.3031 133.773,-27.3031 133.773,-27.3031 133.729,-24.8035 131.524,-27.3433 133.684,-22.3039 133.684,-22.3039"/>
</g>
<!-- v15&#45;&gt;v19 -->
<g id="edge32" class="edge"><title>v15&#45;&gt;v19</title>
<path fill="none" stroke="green" d="M347.677,-18.7599C386.396,-30.053 463.43,-52.5214 498.437,-62.7317"/>
</g>
<!-- v19&#45;&gt;v20 -->
<g id="edge21" class="edge"><title>v19&#45;&gt;v20</title>
<path fill="none" stroke="black" d="M519.003,-57.9883C521.126,-49.4941 524.208,-37.1697 526.646,-27.4169"/>
<polygon fill="black" stroke="black" points="527.924,-22.3039 528.894,-27.7003 527.318,-24.7292 526.711,-27.1546 526.711,-27.1546 526.711,-27.1546 527.318,-24.7292 524.528,-26.6089 527.924,-22.3039 527.924,-22.3039"/>
</g>
<!-- v19&#45;&gt;v21 -->
<g id="edge22" class="edge"><title>v19&#45;&gt;v21</title>
<path fill="none" stroke="black" d="M503.43,-60.2134C487.711,-50.849 461.15,-35.0258 442.766,-24.0734"/>
<polygon fill="black" stroke="black" points="438.28,-21.4008 443.727,-22.0268 440.428,-22.6803 442.575,-23.9598 442.575,-23.9598 442.575,-23.9598 440.428,-22.6803 441.424,-25.8928 438.28,-21.4008 438.28,-21.4008"/>
</g>
</g>
</svg>
