<?xml version="1.0" encoding="UTF-8" standalone="no"?>
<?xml-stylesheet href="style.css" type="text/css"?>
<!DOCTYPE svg PUBLIC "-//W3C//DTD SVG 1.1//EN"
 "http://www.w3.org/Graphics/SVG/1.1/DTD/svg11.dtd">
<!-- Generated by graphviz version 2.38.0 (20140413.2041)
 -->
<!-- Title: 38.svg Pages: 1 -->
<svg width="1386pt" height="374pt"
 viewBox="0.00 0.00 1385.50 374.00" xmlns="http://www.w3.org/2000/svg" xmlns:xlink="http://www.w3.org/1999/xlink">
<g id="graph0" class="graph" transform="scale(1 1) rotate(0) translate(4 370)">
<title>38.svg</title>
<polygon fill="white" stroke="none" points="-4,4 -4,-370 1381.5,-370 1381.5,4 -4,4"/>
<!-- r0 -->
<g id="node1" class="node"><title>r0</title>
<polygon fill="none" stroke="black" stroke-dasharray="5,2" points="584,-366 561,-366 561,-348 584,-348 584,-366"/>
<text text-anchor="middle" x="572.5" y="-354.8" font-family="serif" font-size="9.00">0</text>
</g>
<!-- v0 -->
<g id="v0_Building" class="node"><title>v0</title>
<ellipse fill="none" stroke="black" cx="572.5" cy="-301" rx="36" ry="11"/>
<text text-anchor="middle" x="572.5" y="-298.8" font-family="sans-serif" font-size="9.00">Building</text>
</g>
<!-- r0&#45;&gt;v0 -->
<g id="edge1" class="edge"><title>r0&#45;&gt;v0</title>
<path fill="none" stroke="black" d="M572.5,-347.562C572.5,-339.453 572.5,-327.014 572.5,-317.181"/>
<polygon fill="black" stroke="black" points="572.5,-312.03 574.75,-317.03 572.5,-314.53 572.5,-317.03 572.5,-317.03 572.5,-317.03 572.5,-314.53 570.25,-317.03 572.5,-312.03 572.5,-312.03"/>
</g>
<!-- r1 -->
<g id="node2" class="node"><title>r1</title>
<polygon fill="none" stroke="black" stroke-dasharray="5,2" points="1173,-366 1150,-366 1150,-348 1173,-348 1173,-366"/>
<text text-anchor="middle" x="1161.5" y="-354.8" font-family="serif" font-size="9.00">1</text>
</g>
<!-- v7 -->
<g id="v7_RulesKeywords" class="node"><title>v7</title>
<ellipse fill="none" stroke="black" cx="1161.5" cy="-69" rx="54" ry="11"/>
<text text-anchor="middle" x="1161.5" y="-66.8" font-family="sans-serif" font-size="9.00">RulesKeywords</text>
</g>
<!-- r1&#45;&gt;v7 -->
<g id="edge2" class="edge"><title>r1&#45;&gt;v7</title>
<path fill="none" stroke="black" d="M1161.5,-347.849C1161.5,-329.373 1161.5,-282.889 1161.5,-244 1161.5,-244 1161.5,-244 1161.5,-184 1161.5,-148.604 1161.5,-107.026 1161.5,-85.1783"/>
<polygon fill="black" stroke="black" points="1161.5,-80.0648 1163.75,-85.0648 1161.5,-82.5648 1161.5,-85.0648 1161.5,-85.0648 1161.5,-85.0648 1161.5,-82.5648 1159.25,-85.0648 1161.5,-80.0648 1161.5,-80.0648"/>
</g>
<!-- e2 -->
<g id="node3" class="node"><title>e2</title>
</g>
<!-- v5 -->
<g id="v5_SmartLight" class="node"><title>v5</title>
<ellipse fill="none" stroke="black" cx="634.5" cy="-11" rx="43" ry="11"/>
<text text-anchor="middle" x="634.5" y="-8.8" font-family="sans-serif" font-size="9.00">SmartLight</text>
</g>
<!-- e2&#45;&gt;v5 -->
<g id="edge25" class="edge"><title>e2&#45;&gt;v5</title>
<path fill="none" stroke="green" d="M634.5,-64.1674C634.5,-55.5862 634.5,-34.5957 634.5,-22.0117"/>
<polygon fill="green" stroke="green" points="638,-67.3001 631,-67.2999 631,-65.8999 638,-65.9001 638,-67.3001"/>
<polyline fill="none" stroke="green" points="634.5,-68 634.5,-64.5 "/>
</g>
<!-- v1 -->
<g id="v1_Floor" class="node"><title>v1</title>
<ellipse fill="none" stroke="black" cx="324.5" cy="-243" rx="25" ry="11"/>
<text text-anchor="middle" x="324.5" y="-240.8" font-family="sans-serif" font-size="9.00">Floor</text>
</g>
<!-- v0&#45;&gt;v1 -->
<g id="edge3" class="edge"><title>v0&#45;&gt;v1</title>
<path fill="none" stroke="black" d="M545.012,-293.793C496.949,-282.94 398.258,-260.655 350.941,-249.971"/>
<polygon fill="black" stroke="black" points="345.978,-248.85 351.351,-247.757 348.417,-249.401 350.856,-249.951 350.856,-249.951 350.856,-249.951 348.417,-249.401 350.36,-252.146 345.978,-248.85 345.978,-248.85"/>
</g>
<!-- v6 -->
<g id="v6_InstallationBus" class="node"><title>v6</title>
<ellipse fill="none" stroke="black" cx="846.5" cy="-11" rx="61" ry="11"/>
<text text-anchor="middle" x="846.5" y="-8.8" font-family="sans-serif" font-size="9.00">InstallationBus</text>
</g>
<!-- v0&#45;&gt;v6 -->
<g id="edge4" class="edge"><title>v0&#45;&gt;v6</title>
<path fill="none" stroke="black" d="M607.635,-298.496C672.725,-293.627 805.5,-273.027 805.5,-186 805.5,-186 805.5,-186 805.5,-126 805.5,-88.4565 825.433,-47.8442 837.502,-26.6954"/>
<polygon fill="black" stroke="black" points="840.094,-22.2407 839.524,-27.694 838.837,-24.4017 837.58,-26.5627 837.58,-26.5627 837.58,-26.5627 838.837,-24.4017 835.635,-25.4313 840.094,-22.2407 840.094,-22.2407"/>
</g>
<!-- v2 -->
<g id="v2_Room" class="node"><title>v2</title>
<ellipse fill="none" stroke="black" cx="533.5" cy="-185" rx="21.5" ry="11"/>
<text text-anchor="middle" x="533.5" y="-182.8" font-family="sans-serif" font-size="9.00">Room</text>
</g>
<!-- v1&#45;&gt;v2 -->
<g id="edge5" class="edge"><title>v1&#45;&gt;v2</title>
<path fill="none" stroke="black" d="M344.92,-236.529C383.927,-226.077 468.815,-203.332 510.064,-192.28"/>
<polygon fill="black" stroke="black" points="515.11,-190.927 510.863,-194.395 512.695,-191.575 510.28,-192.222 510.28,-192.222 510.28,-192.222 512.695,-191.575 509.698,-190.048 515.11,-190.927 515.11,-190.927"/>
</g>
<!-- v9 -->
<g id="v9_Hallway" class="node"><title>v9</title>
<ellipse fill="none" stroke="black" cx="32.5" cy="-11" rx="32.5" ry="11"/>
<text text-anchor="middle" x="32.5" y="-8.8" font-family="sans-serif" font-size="9.00">Hallway</text>
</g>
<!-- v1&#45;&gt;v9 -->
<g id="edge6" class="edge"><title>v1&#45;&gt;v9</title>
<path fill="none" stroke="black" d="M309.799,-233.981C294.179,-225.26 268.963,-210.604 248.5,-196 167.586,-138.251 80.0204,-57.2139 46.5672,-25.4865"/>
<polygon fill="black" stroke="black" points="42.7599,-21.8667 47.9339,-23.6813 44.5717,-23.5893 46.3835,-25.3119 46.3835,-25.3119 46.3835,-25.3119 44.5717,-23.5893 44.8332,-26.9425 42.7599,-21.8667 42.7599,-21.8667"/>
</g>
<!-- v17 -->
<g id="v17_Room" class="node"><title>v17</title>
<ellipse fill="none" stroke="black" cx="140.5" cy="-69" rx="21.5" ry="11"/>
<text text-anchor="middle" x="140.5" y="-66.8" font-family="sans-serif" font-size="9.00">Room</text>
</g>
<!-- v1&#45;&gt;v17 -->
<g id="edge7" class="edge"><title>v1&#45;&gt;v17</title>
<path fill="none" stroke="black" d="M314.607,-232.753C283.763,-203.92 189.306,-115.623 154.001,-82.6207"/>
<polygon fill="black" stroke="black" points="149.997,-78.8778 155.186,-80.6486 151.824,-80.585 153.65,-82.2922 153.65,-82.2922 153.65,-82.2922 151.824,-80.585 152.113,-83.9359 149.997,-78.8778 149.997,-78.8778"/>
</g>
<!-- v19 -->
<g id="v19_Room" class="node"><title>v19</title>
<ellipse fill="none" stroke="black" cx="324.5" cy="-69" rx="21.5" ry="11"/>
<text text-anchor="middle" x="324.5" y="-66.8" font-family="sans-serif" font-size="9.00">Room</text>
</g>
<!-- v1&#45;&gt;v19 -->
<g id="edge8" class="edge"><title>v1&#45;&gt;v19</title>
<path fill="none" stroke="black" d="M324.5,-231.756C324.5,-202.786 324.5,-120.136 324.5,-85.5335"/>
<polygon fill="black" stroke="black" points="324.5,-80.4081 326.75,-85.408 324.5,-82.9081 324.5,-85.4081 324.5,-85.4081 324.5,-85.4081 324.5,-82.9081 322.25,-85.4081 324.5,-80.4081 324.5,-80.4081"/>
</g>
<!-- v3 -->
<g id="v3_Visitor" class="node"><title>v3</title>
<ellipse fill="none" stroke="black" cx="658.5" cy="-127" rx="32.5" ry="11"/>
<text text-anchor="middle" x="658.5" y="-124.8" font-family="sans-serif" font-size="9.00">Visitor</text>
</g>
<!-- v2&#45;&gt;v3 -->
<g id="edge9" class="edge"><title>v2&#45;&gt;v3</title>
<path fill="none" stroke="black" d="M548.827,-177.133C570.463,-167.44 610.13,-149.67 635.362,-138.366"/>
<polygon fill="black" stroke="black" points="640.207,-136.195 636.564,-140.293 637.925,-137.217 635.644,-138.24 635.644,-138.24 635.644,-138.24 637.925,-137.217 634.724,-136.186 640.207,-136.195 640.207,-136.195"/>
</g>
<!-- v2&#45;&gt;v5 -->
<g id="edge10" class="edge"><title>v2&#45;&gt;v5</title>
<path fill="none" stroke="black" d="M539.22,-174.26C556.084,-145.54 605.686,-61.0692 625.839,-26.749"/>
<polygon fill="black" stroke="black" points="628.592,-22.0619 628,-27.5128 627.326,-24.2177 626.06,-26.3735 626.06,-26.3735 626.06,-26.3735 627.326,-24.2177 624.119,-25.2342 628.592,-22.0619 628.592,-22.0619"/>
</g>
<!-- v2&#45;&gt;v9 -->
<g id="edge23" class="edge"><title>v2&#45;&gt;v9</title>
<path fill="none" stroke="green" d="M516.516,-178.021C464.706,-159.801 304.072,-103.442 170.5,-58 129.616,-44.0911 81.7775,-28.2393 54.5168,-19.246"/>
</g>
<!-- v12 -->
<g id="v12_HVAC" class="node"><title>v12</title>
<ellipse fill="none" stroke="black" cx="461.5" cy="-69" rx="21.5" ry="11"/>
<text text-anchor="middle" x="461.5" y="-66.8" font-family="sans-serif" font-size="9.00">HVAC</text>
</g>
<!-- v2&#45;&gt;v12 -->
<g id="edge11" class="edge"><title>v2&#45;&gt;v12</title>
<path fill="none" stroke="black" d="M527.361,-174.28C514.609,-154.089 485.206,-107.534 470.384,-84.0661"/>
<polygon fill="black" stroke="black" points="467.623,-79.695 472.196,-82.7209 468.958,-81.8087 470.293,-83.9224 470.293,-83.9224 470.293,-83.9224 468.958,-81.8087 468.391,-85.1239 467.623,-79.695 467.623,-79.695"/>
</g>
<!-- v14 -->
<g id="v14_FireAlarm" class="node"><title>v14</title>
<ellipse fill="none" stroke="black" cx="533.5" cy="-11" rx="39.5" ry="11"/>
<text text-anchor="middle" x="533.5" y="-8.8" font-family="sans-serif" font-size="9.00">FireAlarm</text>
</g>
<!-- v2&#45;&gt;v14 -->
<g id="edge12" class="edge"><title>v2&#45;&gt;v14</title>
<path fill="none" stroke="black" d="M533.5,-173.756C533.5,-144.786 533.5,-62.1364 533.5,-27.5335"/>
<polygon fill="black" stroke="black" points="533.5,-22.4081 535.75,-27.408 533.5,-24.9081 533.5,-27.4081 533.5,-27.4081 533.5,-27.4081 533.5,-24.9081 531.25,-27.4081 533.5,-22.4081 533.5,-22.4081"/>
</g>
<!-- v4 -->
<g id="v4_Laptop" class="node"><title>v4</title>
<ellipse fill="none" stroke="black" cx="707.5" cy="-69" rx="29" ry="11"/>
<text text-anchor="middle" x="707.5" y="-66.8" font-family="sans-serif" font-size="9.00">Laptop</text>
</g>
<!-- v3&#45;&gt;v4 -->
<g id="edge13" class="edge"><title>v3&#45;&gt;v4</title>
<path fill="none" stroke="black" d="M667.035,-116.246C674.975,-107.172 686.877,-93.5697 695.719,-83.4636"/>
<polygon fill="black" stroke="black" points="699.063,-79.6427 697.463,-84.8872 697.416,-81.5241 695.77,-83.4056 695.77,-83.4056 695.77,-83.4056 697.416,-81.5241 694.077,-81.9239 699.063,-79.6427 699.063,-79.6427"/>
</g>
<!-- v4&#45;&gt;v6 -->
<g id="edge24" class="edge"><title>v4&#45;&gt;v6</title>
<path fill="none" stroke="green" d="M726.246,-60.4476C751.441,-50.297 796.204,-32.2633 823.435,-21.2924"/>
</g>
<!-- v11 -->
<g id="v11_Software" class="node"><title>v11</title>
<ellipse fill="none" stroke="black" cx="731.5" cy="-11" rx="36" ry="11"/>
<text text-anchor="middle" x="731.5" y="-8.8" font-family="sans-serif" font-size="9.00">Software</text>
</g>
<!-- v4&#45;&gt;v11 -->
<g id="edge14" class="edge"><title>v4&#45;&gt;v11</title>
<path fill="none" stroke="black" d="M711.791,-57.9883C715.511,-49.3083 720.945,-36.6286 725.165,-26.7806"/>
<polygon fill="black" stroke="black" points="727.246,-21.925 727.345,-27.4071 726.262,-24.2229 725.277,-26.5207 725.277,-26.5207 725.277,-26.5207 726.262,-24.2229 723.209,-25.6344 727.246,-21.925 727.246,-21.925"/>
</g>
<!-- v6&#45;&gt;v12 -->
<g id="edge26" class="edge"><title>v6&#45;&gt;v12</title>
<path fill="none" stroke="green" d="M801.614,-18.5289C717.961,-30.6967 541.302,-56.3925 481.657,-65.068"/>
</g>
<!-- v6&#45;&gt;v14 -->
<g id="edge27" class="edge"><title>v6&#45;&gt;v14</title>
<path fill="none" stroke="green" d="M824.609,-21.4084C809.067,-28.2018 787.495,-36.446 767.5,-40 690.485,-53.6891 667.63,-57.9718 591.5,-40 576.16,-36.3788 560.252,-28.0452 548.985,-21.2364"/>
</g>
<!-- v18 -->
<g id="v18_SmartLight" class="node"><title>v18</title>
<ellipse fill="none" stroke="black" cx="126.5" cy="-11" rx="43" ry="11"/>
<text text-anchor="middle" x="126.5" y="-8.8" font-family="sans-serif" font-size="9.00">SmartLight</text>
</g>
<!-- v6&#45;&gt;v18 -->
<g id="edge28" class="edge"><title>v6&#45;&gt;v18</title>
<path fill="none" stroke="green" d="M824.609,-21.4084C809.067,-28.2018 787.495,-36.446 767.5,-40 704.05,-51.2779 250.364,-54.1826 187.5,-40 171.486,-36.3871 154.744,-28.0527 142.859,-21.2415"/>
</g>
<!-- v20 -->
<g id="v20_SmartLight" class="node"><title>v20</title>
<ellipse fill="none" stroke="black" cx="230.5" cy="-11" rx="43" ry="11"/>
<text text-anchor="middle" x="230.5" y="-8.8" font-family="sans-serif" font-size="9.00">SmartLight</text>
</g>
<!-- v6&#45;&gt;v20 -->
<g id="edge29" class="edge"><title>v6&#45;&gt;v20</title>
<path fill="none" stroke="green" d="M824.609,-21.4084C809.067,-28.2018 787.495,-36.446 767.5,-40 663.355,-58.5114 394.684,-63.279 291.5,-40 275.486,-36.3871 258.744,-28.0527 246.859,-21.2415"/>
</g>
<!-- v21 -->
<g id="v21_Workstation" class="node"><title>v21</title>
<ellipse fill="none" stroke="black" cx="338.5" cy="-11" rx="47" ry="11"/>
<text text-anchor="middle" x="338.5" y="-8.8" font-family="sans-serif" font-size="9.00">Workstation</text>
</g>
<!-- v6&#45;&gt;v21 -->
<g id="edge30" class="edge"><title>v6&#45;&gt;v21</title>
<path fill="none" stroke="green" d="M824.609,-21.4084C809.067,-28.2018 787.495,-36.446 767.5,-40 687.859,-54.1558 482.615,-56.8483 403.5,-40 386.58,-36.3967 368.726,-28.0614 356.021,-21.2474"/>
</g>
<!-- v8 -->
<g id="v8_DisconnectDevice" class="node"><title>v8</title>
<ellipse fill="none" stroke="black" cx="990.5" cy="-11" rx="65" ry="11"/>
<text text-anchor="middle" x="990.5" y="-8.8" font-family="sans-serif" font-size="9.00">DisconnectDevice</text>
</g>
<!-- v7&#45;&gt;v8 -->
<g id="edge15" class="edge"><title>v7&#45;&gt;v8</title>
<path fill="none" stroke="black" d="M1135.16,-59.3727C1105.01,-49.5002 1055.62,-33.3251 1023.08,-22.6693"/>
<polygon fill="black" stroke="black" points="1018.01,-21.0083 1023.46,-20.4262 1020.38,-21.7864 1022.76,-22.5645 1022.76,-22.5645 1022.76,-22.5645 1020.38,-21.7864 1022.06,-24.7027 1018.01,-21.0083 1018.01,-21.0083"/>
</g>
<!-- v10 -->
<g id="v10_ExitRoom" class="node"><title>v10</title>
<ellipse fill="none" stroke="black" cx="1109.5" cy="-11" rx="36" ry="11"/>
<text text-anchor="middle" x="1109.5" y="-8.8" font-family="sans-serif" font-size="9.00">ExitRoom</text>
</g>
<!-- v7&#45;&gt;v10 -->
<g id="edge16" class="edge"><title>v7&#45;&gt;v10</title>
<path fill="none" stroke="black" d="M1152.2,-57.9883C1143.85,-48.9897 1131.5,-35.6926 1122.23,-25.7082"/>
<polygon fill="black" stroke="black" points="1118.72,-21.925 1123.77,-24.058 1120.42,-23.757 1122.12,-25.589 1122.12,-25.589 1122.12,-25.589 1120.42,-23.757 1120.47,-27.12 1118.72,-21.925 1118.72,-21.925"/>
</g>
<!-- v15 -->
<g id="v15_GenerateData" class="node"><title>v15</title>
<ellipse fill="none" stroke="black" cx="1214.5" cy="-11" rx="50.5" ry="11"/>
<text text-anchor="middle" x="1214.5" y="-8.8" font-family="sans-serif" font-size="9.00">GenerateData</text>
</g>
<!-- v7&#45;&gt;v15 -->
<g id="edge17" class="edge"><title>v7&#45;&gt;v15</title>
<path fill="none" stroke="black" d="M1170.98,-57.9883C1179.49,-48.9897 1192.08,-35.6926 1201.53,-25.7082"/>
<polygon fill="black" stroke="black" points="1205.11,-21.925 1203.3,-27.1031 1203.39,-23.7407 1201.67,-25.5565 1201.67,-25.5565 1201.67,-25.5565 1203.39,-23.7407 1200.04,-24.0099 1205.11,-21.925 1205.11,-21.925"/>
</g>
<!-- v16 -->
<g id="v16_CollectData" class="node"><title>v16</title>
<ellipse fill="none" stroke="black" cx="1330.5" cy="-11" rx="47" ry="11"/>
<text text-anchor="middle" x="1330.5" y="-8.8" font-family="sans-serif" font-size="9.00">CollectData</text>
</g>
<!-- v7&#45;&gt;v16 -->
<g id="edge18" class="edge"><title>v7&#45;&gt;v16</title>
<path fill="none" stroke="black" d="M1187.91,-59.25C1218.4,-49.1469 1268.44,-32.5631 1300.41,-21.9701"/>
<polygon fill="black" stroke="black" points="1305.38,-20.3233 1301.34,-24.0319 1303.01,-21.1097 1300.64,-21.8961 1300.64,-21.8961 1300.64,-21.8961 1303.01,-21.1097 1299.93,-19.7603 1305.38,-20.3233 1305.38,-20.3233"/>
</g>
<!-- v9&#45;&gt;v17 -->
<g id="edge31" class="edge"><title>v9&#45;&gt;v17</title>
<path fill="none" stroke="green" d="M49.1014,-20.6082C70.2633,-31.581 106.483,-50.3617 126.381,-60.679"/>
</g>
<!-- v9&#45;&gt;v19 -->
<g id="edge32" class="edge"><title>v9&#45;&gt;v19</title>
<path fill="none" stroke="green" d="M57.3258,-18.1357C62.96,-19.4655 68.926,-20.8245 74.5,-22 159.783,-39.9863 262.274,-57.5989 304.662,-64.7093"/>
</g>
<!-- v13 -->
<g id="v13_Software" class="node"><title>v13</title>
<ellipse fill="none" stroke="black" cx="439.5" cy="-11" rx="36" ry="11"/>
<text text-anchor="middle" x="439.5" y="-8.8" font-family="sans-serif" font-size="9.00">Software</text>
</g>
<!-- v12&#45;&gt;v13 -->
<g id="edge19" class="edge"><title>v12&#45;&gt;v13</title>
<path fill="none" stroke="black" d="M457.567,-57.9883C454.199,-49.4154 449.298,-36.9411 445.45,-27.1466"/>
<polygon fill="black" stroke="black" points="443.548,-22.3039 447.47,-26.1349 444.462,-24.6308 445.376,-26.9576 445.376,-26.9576 445.376,-26.9576 444.462,-24.6308 443.282,-27.7804 443.548,-22.3039 443.548,-22.3039"/>
</g>
<!-- v17&#45;&gt;v18 -->
<g id="edge20" class="edge"><title>v17&#45;&gt;v18</title>
<path fill="none" stroke="black" d="M137.997,-57.9883C135.874,-49.4941 132.792,-37.1697 130.354,-27.4169"/>
<polygon fill="black" stroke="black" points="129.076,-22.3039 132.472,-26.6089 129.682,-24.7292 130.289,-27.1546 130.289,-27.1546 130.289,-27.1546 129.682,-24.7292 128.106,-27.7003 129.076,-22.3039 129.076,-22.3039"/>
</g>
<!-- v19&#45;&gt;v20 -->
<g id="edge21" class="edge"><title>v19&#45;&gt;v20</title>
<path fill="none" stroke="black" d="M311.43,-60.2134C295.711,-50.849 269.15,-35.0258 250.766,-24.0734"/>
<polygon fill="black" stroke="black" points="246.28,-21.4008 251.727,-22.0268 248.428,-22.6803 250.575,-23.9598 250.575,-23.9598 250.575,-23.9598 248.428,-22.6803 249.424,-25.8928 246.28,-21.4008 246.28,-21.4008"/>
</g>
<!-- v19&#45;&gt;v21 -->
<g id="edge22" class="edge"><title>v19&#45;&gt;v21</title>
<path fill="none" stroke="black" d="M327.003,-57.9883C329.126,-49.4941 332.208,-37.1697 334.646,-27.4169"/>
<polygon fill="black" stroke="black" points="335.924,-22.3039 336.894,-27.7003 335.318,-24.7292 334.711,-27.1546 334.711,-27.1546 334.711,-27.1546 335.318,-24.7292 332.528,-26.6089 335.924,-22.3039 335.924,-22.3039"/>
</g>
</g>
</svg>
