<?xml version="1.0" encoding="UTF-8" standalone="no"?>
<?xml-stylesheet href="style.css" type="text/css"?>
<!DOCTYPE svg PUBLIC "-//W3C//DTD SVG 1.1//EN"
 "http://www.w3.org/Graphics/SVG/1.1/DTD/svg11.dtd">
<!-- Generated by graphviz version 2.38.0 (20140413.2041)
 -->
<!-- Title: 39.svg Pages: 1 -->
<svg width="1218pt" height="374pt"
 viewBox="0.00 0.00 1218.00 374.00" xmlns="http://www.w3.org/2000/svg" xmlns:xlink="http://www.w3.org/1999/xlink">
<g id="graph0" class="graph" transform="scale(1 1) rotate(0) translate(4 370)">
<title>39.svg</title>
<polygon fill="white" stroke="none" points="-4,4 -4,-370 1214,-370 1214,4 -4,4"/>
<!-- r0 -->
<g id="node1" class="node"><title>r0</title>
<polygon fill="none" stroke="black" stroke-dasharray="5,2" points="675.5,-366 652.5,-366 652.5,-348 675.5,-348 675.5,-366"/>
<text text-anchor="middle" x="664" y="-354.8" font-family="serif" font-size="9.00">0</text>
</g>
<!-- v0 -->
<g id="v0_Building" class="node"><title>v0</title>
<ellipse fill="none" stroke="black" cx="664" cy="-301" rx="36" ry="11"/>
<text text-anchor="middle" x="664" y="-298.8" font-family="sans-serif" font-size="9.00">Building</text>
</g>
<!-- r0&#45;&gt;v0 -->
<g id="edge1" class="edge"><title>r0&#45;&gt;v0</title>
<path fill="none" stroke="black" d="M664,-347.562C664,-339.453 664,-327.014 664,-317.181"/>
<polygon fill="black" stroke="black" points="664,-312.03 666.25,-317.03 664,-314.53 664,-317.03 664,-317.03 664,-317.03 664,-314.53 661.75,-317.03 664,-312.03 664,-312.03"/>
</g>
<!-- r1 -->
<g id="node2" class="node"><title>r1</title>
<polygon fill="none" stroke="black" stroke-dasharray="5,2" points="1073.5,-366 1050.5,-366 1050.5,-348 1073.5,-348 1073.5,-366"/>
<text text-anchor="middle" x="1062" y="-354.8" font-family="serif" font-size="9.00">1</text>
</g>
<!-- v7 -->
<g id="v7_RulesKeywords" class="node"><title>v7</title>
<ellipse fill="none" stroke="black" cx="1062" cy="-69" rx="54" ry="11"/>
<text text-anchor="middle" x="1062" y="-66.8" font-family="sans-serif" font-size="9.00">RulesKeywords</text>
</g>
<!-- r1&#45;&gt;v7 -->
<g id="edge2" class="edge"><title>r1&#45;&gt;v7</title>
<path fill="none" stroke="black" d="M1062,-347.849C1062,-329.373 1062,-282.889 1062,-244 1062,-244 1062,-244 1062,-184 1062,-148.604 1062,-107.026 1062,-85.1783"/>
<polygon fill="black" stroke="black" points="1062,-80.0648 1064.25,-85.0648 1062,-82.5648 1062,-85.0648 1062,-85.0648 1062,-85.0648 1062,-82.5648 1059.75,-85.0648 1062,-80.0648 1062,-80.0648"/>
</g>
<!-- e2 -->
<g id="node3" class="node"><title>e2</title>
</g>
<!-- v5 -->
<g id="v5_SmartLight" class="node"><title>v5</title>
<ellipse fill="none" stroke="black" cx="164" cy="-11" rx="43" ry="11"/>
<text text-anchor="middle" x="164" y="-8.8" font-family="sans-serif" font-size="9.00">SmartLight</text>
</g>
<!-- e2&#45;&gt;v5 -->
<g id="edge25" class="edge"><title>e2&#45;&gt;v5</title>
<path fill="none" stroke="green" d="M164,-64.1674C164,-55.5862 164,-34.5957 164,-22.0117"/>
<polygon fill="green" stroke="green" points="167.5,-67.3001 160.5,-67.2999 160.5,-65.8999 167.5,-65.9001 167.5,-67.3001"/>
<polyline fill="none" stroke="green" points="164,-68 164,-64.5 "/>
</g>
<!-- v1 -->
<g id="v1_Floor" class="node"><title>v1</title>
<ellipse fill="none" stroke="black" cx="539" cy="-243" rx="25" ry="11"/>
<text text-anchor="middle" x="539" y="-240.8" font-family="sans-serif" font-size="9.00">Floor</text>
</g>
<!-- v0&#45;&gt;v1 -->
<g id="edge3" class="edge"><title>v0&#45;&gt;v1</title>
<path fill="none" stroke="black" d="M645.015,-291.495C622.188,-281.268 583.987,-264.154 560.211,-253.503"/>
<polygon fill="black" stroke="black" points="555.368,-251.333 560.851,-251.324 557.649,-252.355 559.931,-253.377 559.931,-253.377 559.931,-253.377 557.649,-252.355 559.011,-255.43 555.368,-251.333 555.368,-251.333"/>
</g>
<!-- v6 -->
<g id="v6_InstallationBus" class="node"><title>v6</title>
<ellipse fill="none" stroke="black" cx="793" cy="-69" rx="61" ry="11"/>
<text text-anchor="middle" x="793" y="-66.8" font-family="sans-serif" font-size="9.00">InstallationBus</text>
</g>
<!-- v0&#45;&gt;v6 -->
<g id="edge4" class="edge"><title>v0&#45;&gt;v6</title>
<path fill="none" stroke="black" d="M669.543,-290.117C689.882,-253.854 760.482,-127.979 784.74,-84.7276"/>
<polygon fill="black" stroke="black" points="787.332,-80.105 786.849,-85.5666 786.109,-82.2855 784.886,-84.4659 784.886,-84.4659 784.886,-84.4659 786.109,-82.2855 782.924,-83.3653 787.332,-80.105 787.332,-80.105"/>
</g>
<!-- v2 -->
<g id="v2_Room" class="node"><title>v2</title>
<ellipse fill="none" stroke="black" cx="261" cy="-185" rx="21.5" ry="11"/>
<text text-anchor="middle" x="261" y="-182.8" font-family="sans-serif" font-size="9.00">Room</text>
</g>
<!-- v1&#45;&gt;v2 -->
<g id="edge5" class="edge"><title>v1&#45;&gt;v2</title>
<path fill="none" stroke="black" d="M517.186,-237.606C466.098,-227.315 338.98,-201.708 285.415,-190.918"/>
<polygon fill="black" stroke="black" points="280.466,-189.921 285.811,-188.703 282.916,-190.415 285.367,-190.909 285.367,-190.909 285.367,-190.909 282.916,-190.415 284.923,-193.114 280.466,-189.921 280.466,-189.921"/>
</g>
<!-- v9 -->
<g id="v9_Hallway" class="node"><title>v9</title>
<ellipse fill="none" stroke="black" cx="445" cy="-11" rx="32.5" ry="11"/>
<text text-anchor="middle" x="445" y="-8.8" font-family="sans-serif" font-size="9.00">Hallway</text>
</g>
<!-- v1&#45;&gt;v9 -->
<g id="edge6" class="edge"><title>v1&#45;&gt;v9</title>
<path fill="none" stroke="black" d="M534.961,-232.117C520.17,-195.928 468.904,-70.489 451.127,-26.9918"/>
<polygon fill="black" stroke="black" points="449.13,-22.105 453.104,-25.8822 450.076,-24.4192 451.022,-26.7334 451.022,-26.7334 451.022,-26.7334 450.076,-24.4192 448.939,-27.5846 449.13,-22.105 449.13,-22.105"/>
</g>
<!-- v16 -->
<g id="v16_Room" class="node"><title>v16</title>
<ellipse fill="none" stroke="black" cx="539" cy="-69" rx="21.5" ry="11"/>
<text text-anchor="middle" x="539" y="-66.8" font-family="sans-serif" font-size="9.00">Room</text>
</g>
<!-- v1&#45;&gt;v16 -->
<g id="edge7" class="edge"><title>v1&#45;&gt;v16</title>
<path fill="none" stroke="black" d="M539,-231.756C539,-202.786 539,-120.136 539,-85.5335"/>
<polygon fill="black" stroke="black" points="539,-80.4081 541.25,-85.408 539,-82.9081 539,-85.4081 539,-85.4081 539,-85.4081 539,-82.9081 536.75,-85.4081 539,-80.4081 539,-80.4081"/>
</g>
<!-- v19 -->
<g id="v19_Room" class="node"><title>v19</title>
<ellipse fill="none" stroke="black" cx="643" cy="-69" rx="21.5" ry="11"/>
<text text-anchor="middle" x="643" y="-66.8" font-family="sans-serif" font-size="9.00">Room</text>
</g>
<!-- v1&#45;&gt;v19 -->
<g id="edge8" class="edge"><title>v1&#45;&gt;v19</title>
<path fill="none" stroke="black" d="M544.889,-232.26C562.337,-203.405 613.813,-118.271 634.374,-84.2667"/>
<polygon fill="black" stroke="black" points="637.175,-79.6335 636.513,-85.0763 635.882,-81.7728 634.588,-83.9121 634.588,-83.9121 634.588,-83.9121 635.882,-81.7728 632.663,-82.7479 637.175,-79.6335 637.175,-79.6335"/>
</g>
<!-- v3 -->
<g id="v3_Visitor" class="node"><title>v3</title>
<ellipse fill="none" stroke="black" cx="36" cy="-127" rx="32.5" ry="11"/>
<text text-anchor="middle" x="36" y="-124.8" font-family="sans-serif" font-size="9.00">Visitor</text>
</g>
<!-- v2&#45;&gt;v3 -->
<g id="edge9" class="edge"><title>v2&#45;&gt;v3</title>
<path fill="none" stroke="black" d="M242.204,-179.322C203.174,-169.608 113.068,-147.181 65.9452,-135.453"/>
<polygon fill="black" stroke="black" points="60.9699,-134.215 66.3653,-133.239 63.3959,-134.819 65.8219,-135.422 65.8219,-135.422 65.8219,-135.422 63.3959,-134.819 65.2784,-137.606 60.9699,-134.215 60.9699,-134.215"/>
</g>
<!-- v2&#45;&gt;v5 -->
<g id="edge10" class="edge"><title>v2&#45;&gt;v5</title>
<path fill="none" stroke="black" d="M243.296,-178.388C222.884,-171.304 189.058,-157.627 165,-138 139.929,-117.546 131.316,-110.667 121,-80 117.883,-70.7325 117.411,-67.0952 121,-58 126.197,-44.8313 137.139,-33.2145 146.684,-24.9493"/>
<polygon fill="black" stroke="black" points="150.669,-21.6175 148.277,-26.551 148.751,-23.2212 146.833,-24.8249 146.833,-24.8249 146.833,-24.8249 148.751,-23.2212 145.39,-23.0988 150.669,-21.6175 150.669,-21.6175"/>
</g>
<!-- v2&#45;&gt;v9 -->
<g id="edge23" class="edge"><title>v2&#45;&gt;v9</title>
<path fill="none" stroke="green" d="M247.533,-176.105C223.342,-161.037 173.259,-125.577 154,-80 150.194,-70.9933 147.6,-65.3921 154,-58 190.596,-15.7327 348.083,-32.4854 403,-22 408.595,-20.9316 414.57,-19.6163 420.206,-18.2947"/>
</g>
<!-- v12 -->
<g id="v12_HVAC" class="node"><title>v12</title>
<ellipse fill="none" stroke="black" cx="261" cy="-69" rx="21.5" ry="11"/>
<text text-anchor="middle" x="261" y="-66.8" font-family="sans-serif" font-size="9.00">HVAC</text>
</g>
<!-- v2&#45;&gt;v12 -->
<g id="edge11" class="edge"><title>v2&#45;&gt;v12</title>
<path fill="none" stroke="black" d="M261,-173.883C261,-153.906 261,-109.276 261,-85.5402"/>
<polygon fill="black" stroke="black" points="261,-80.2579 263.25,-85.2579 261,-82.7579 261,-85.2579 261,-85.2579 261,-85.2579 261,-82.7579 258.75,-85.258 261,-80.2579 261,-80.2579"/>
</g>
<!-- v14 -->
<g id="v14_FireAlarm" class="node"><title>v14</title>
<ellipse fill="none" stroke="black" cx="355" cy="-11" rx="39.5" ry="11"/>
<text text-anchor="middle" x="355" y="-8.8" font-family="sans-serif" font-size="9.00">FireAlarm</text>
</g>
<!-- v2&#45;&gt;v14 -->
<g id="edge12" class="edge"><title>v2&#45;&gt;v14</title>
<path fill="none" stroke="black" d="M266.323,-174.26C282.019,-145.54 328.183,-61.0692 346.939,-26.749"/>
<polygon fill="black" stroke="black" points="349.501,-22.0619 349.078,-27.5285 348.302,-24.2556 347.103,-26.4494 347.103,-26.4494 347.103,-26.4494 348.302,-24.2556 345.129,-25.3704 349.501,-22.0619 349.501,-22.0619"/>
</g>
<!-- v4 -->
<g id="v4_Laptop" class="node"><title>v4</title>
<ellipse fill="none" stroke="black" cx="36" cy="-69" rx="29" ry="11"/>
<text text-anchor="middle" x="36" y="-66.8" font-family="sans-serif" font-size="9.00">Laptop</text>
</g>
<!-- v3&#45;&gt;v4 -->
<g id="edge13" class="edge"><title>v3&#45;&gt;v4</title>
<path fill="none" stroke="black" d="M36,-115.988C36,-107.494 36,-95.1697 36,-85.4169"/>
<polygon fill="black" stroke="black" points="36,-80.3039 38.2501,-85.3038 36,-82.8039 36.0001,-85.3039 36.0001,-85.3039 36.0001,-85.3039 36,-82.8039 33.7501,-85.3039 36,-80.3039 36,-80.3039"/>
</g>
<!-- v4&#45;&gt;v6 -->
<g id="edge24" class="edge"><title>v4&#45;&gt;v6</title>
<path fill="none" stroke="green" d="M59.137,-75.9344C84.3881,-83.1123 126.143,-93.8454 163,-98 273.633,-110.471 553.346,-110.285 664,-98 697.423,-94.2894 734.839,-85.3286 760.731,-78.3417"/>
</g>
<!-- v11 -->
<g id="v11_Software" class="node"><title>v11</title>
<ellipse fill="none" stroke="black" cx="36" cy="-11" rx="36" ry="11"/>
<text text-anchor="middle" x="36" y="-8.8" font-family="sans-serif" font-size="9.00">Software</text>
</g>
<!-- v4&#45;&gt;v11 -->
<g id="edge14" class="edge"><title>v4&#45;&gt;v11</title>
<path fill="none" stroke="black" d="M36,-57.9883C36,-49.4941 36,-37.1697 36,-27.4169"/>
<polygon fill="black" stroke="black" points="36,-22.3039 38.2501,-27.3038 36,-24.8039 36.0001,-27.3039 36.0001,-27.3039 36.0001,-27.3039 36,-24.8039 33.7501,-27.3039 36,-22.3039 36,-22.3039"/>
</g>
<!-- v6&#45;&gt;v12 -->
<g id="edge26" class="edge"><title>v6&#45;&gt;v12</title>
<path fill="none" stroke="green" d="M760.731,-78.3417C734.839,-85.3286 697.423,-94.2894 664,-98 517.592,-114.254 340.201,-84.3268 281.178,-73.0469"/>
</g>
<!-- v6&#45;&gt;v14 -->
<g id="edge27" class="edge"><title>v6&#45;&gt;v14</title>
<path fill="none" stroke="green" d="M740.753,-63.3118C665.735,-56.2463 523.284,-41.5842 403,-22 396.867,-21.0014 390.328,-19.7592 384.115,-18.4935"/>
</g>
<!-- v17 -->
<g id="v17_SmartLight" class="node"><title>v17</title>
<ellipse fill="none" stroke="black" cx="539" cy="-11" rx="43" ry="11"/>
<text text-anchor="middle" x="539" y="-8.8" font-family="sans-serif" font-size="9.00">SmartLight</text>
</g>
<!-- v6&#45;&gt;v17 -->
<g id="edge28" class="edge"><title>v6&#45;&gt;v17</title>
<path fill="none" stroke="green" d="M757.147,-60.0953C707.097,-49.0607 617.129,-29.2254 569.889,-18.8103"/>
</g>
<!-- v18 -->
<g id="v18_Data" class="node"><title>v18</title>
<ellipse fill="none" stroke="black" cx="838" cy="-11" rx="21.5" ry="11"/>
<text text-anchor="middle" x="838" y="-8.8" font-family="sans-serif" font-size="9.00">Data</text>
</g>
<!-- v6&#45;&gt;v18 -->
<g id="edge15" class="edge"><title>v6&#45;&gt;v18</title>
<path fill="none" stroke="black" d="M801.045,-57.9883C808.301,-48.9593 819.034,-35.6025 827.066,-25.6069"/>
<polygon fill="black" stroke="black" points="830.325,-21.5512 828.947,-26.8582 828.759,-23.5 827.193,-25.4488 827.193,-25.4488 827.193,-25.4488 828.759,-23.5 825.439,-24.0394 830.325,-21.5512 830.325,-21.5512"/>
</g>
<!-- v20 -->
<g id="v20_SmartLight" class="node"><title>v20</title>
<ellipse fill="none" stroke="black" cx="643" cy="-11" rx="43" ry="11"/>
<text text-anchor="middle" x="643" y="-8.8" font-family="sans-serif" font-size="9.00">SmartLight</text>
</g>
<!-- v6&#45;&gt;v20 -->
<g id="edge29" class="edge"><title>v6&#45;&gt;v20</title>
<path fill="none" stroke="green" d="M768.566,-58.878C740.009,-48.2165 693.143,-30.7199 665.462,-20.3857"/>
</g>
<!-- v21 -->
<g id="v21_Workstation" class="node"><title>v21</title>
<ellipse fill="none" stroke="black" cx="751" cy="-11" rx="47" ry="11"/>
<text text-anchor="middle" x="751" y="-8.8" font-family="sans-serif" font-size="9.00">Workstation</text>
</g>
<!-- v6&#45;&gt;v21 -->
<g id="edge30" class="edge"><title>v6&#45;&gt;v21</title>
<path fill="none" stroke="green" d="M785.491,-57.9883C777.846,-47.7952 766.065,-32.0867 758.444,-21.925"/>
</g>
<!-- v8 -->
<g id="v8_DisconnectDevice" class="node"><title>v8</title>
<ellipse fill="none" stroke="black" cx="943" cy="-11" rx="65" ry="11"/>
<text text-anchor="middle" x="943" y="-8.8" font-family="sans-serif" font-size="9.00">DisconnectDevice</text>
</g>
<!-- v7&#45;&gt;v8 -->
<g id="edge16" class="edge"><title>v7&#45;&gt;v8</title>
<path fill="none" stroke="black" d="M1042.35,-58.7527C1022.01,-49.1819 990.177,-34.201 968.046,-23.7862"/>
<polygon fill="black" stroke="black" points="963.478,-21.6367 968.96,-21.7299 965.74,-22.7012 968.002,-23.7657 968.002,-23.7657 968.002,-23.7657 965.74,-22.7012 967.044,-25.8016 963.478,-21.6367 963.478,-21.6367"/>
</g>
<!-- v10 -->
<g id="v10_ExitRoom" class="node"><title>v10</title>
<ellipse fill="none" stroke="black" cx="1062" cy="-11" rx="36" ry="11"/>
<text text-anchor="middle" x="1062" y="-8.8" font-family="sans-serif" font-size="9.00">ExitRoom</text>
</g>
<!-- v7&#45;&gt;v10 -->
<g id="edge17" class="edge"><title>v7&#45;&gt;v10</title>
<path fill="none" stroke="black" d="M1062,-57.9883C1062,-49.4941 1062,-37.1697 1062,-27.4169"/>
<polygon fill="black" stroke="black" points="1062,-22.3039 1064.25,-27.3038 1062,-24.8039 1062,-27.3039 1062,-27.3039 1062,-27.3039 1062,-24.8039 1059.75,-27.3039 1062,-22.3039 1062,-22.3039"/>
</g>
<!-- v15 -->
<g id="v15_CollectData" class="node"><title>v15</title>
<ellipse fill="none" stroke="black" cx="1163" cy="-11" rx="47" ry="11"/>
<text text-anchor="middle" x="1163" y="-8.8" font-family="sans-serif" font-size="9.00">CollectData</text>
</g>
<!-- v7&#45;&gt;v15 -->
<g id="edge18" class="edge"><title>v7&#45;&gt;v15</title>
<path fill="none" stroke="black" d="M1079.13,-58.5004C1096.36,-48.9496 1122.96,-34.201 1141.57,-23.8816"/>
<polygon fill="black" stroke="black" points="1146.12,-21.3593 1142.84,-25.7517 1143.93,-22.5716 1141.75,-23.7839 1141.75,-23.7839 1141.75,-23.7839 1143.93,-22.5716 1140.66,-21.8162 1146.12,-21.3593 1146.12,-21.3593"/>
</g>
<!-- v9&#45;&gt;v16 -->
<g id="edge31" class="edge"><title>v9&#45;&gt;v16</title>
<path fill="none" stroke="green" d="M459.817,-20.827C478.008,-31.6646 508.576,-49.8751 525.93,-60.2134"/>
</g>
<!-- v9&#45;&gt;v19 -->
<g id="edge32" class="edge"><title>v9&#45;&gt;v19</title>
<path fill="none" stroke="green" d="M468.687,-18.6993C508.676,-30.0094 588.731,-52.6512 624.728,-62.832"/>
</g>
<!-- v13 -->
<g id="v13_Software" class="node"><title>v13</title>
<ellipse fill="none" stroke="black" cx="261" cy="-11" rx="36" ry="11"/>
<text text-anchor="middle" x="261" y="-8.8" font-family="sans-serif" font-size="9.00">Software</text>
</g>
<!-- v12&#45;&gt;v13 -->
<g id="edge19" class="edge"><title>v12&#45;&gt;v13</title>
<path fill="none" stroke="black" d="M261,-57.9883C261,-49.4941 261,-37.1697 261,-27.4169"/>
<polygon fill="black" stroke="black" points="261,-22.3039 263.25,-27.3038 261,-24.8039 261,-27.3039 261,-27.3039 261,-27.3039 261,-24.8039 258.75,-27.3039 261,-22.3039 261,-22.3039"/>
</g>
<!-- v16&#45;&gt;v17 -->
<g id="edge20" class="edge"><title>v16&#45;&gt;v17</title>
<path fill="none" stroke="black" d="M539,-57.9883C539,-49.4941 539,-37.1697 539,-27.4169"/>
<polygon fill="black" stroke="black" points="539,-22.3039 541.25,-27.3038 539,-24.8039 539,-27.3039 539,-27.3039 539,-27.3039 539,-24.8039 536.75,-27.3039 539,-22.3039 539,-22.3039"/>
</g>
<!-- v19&#45;&gt;v20 -->
<g id="edge21" class="edge"><title>v19&#45;&gt;v20</title>
<path fill="none" stroke="black" d="M643,-57.9883C643,-49.4941 643,-37.1697 643,-27.4169"/>
<polygon fill="black" stroke="black" points="643,-22.3039 645.25,-27.3038 643,-24.8039 643,-27.3039 643,-27.3039 643,-27.3039 643,-24.8039 640.75,-27.3039 643,-22.3039 643,-22.3039"/>
</g>
<!-- v19&#45;&gt;v21 -->
<g id="edge22" class="edge"><title>v19&#45;&gt;v21</title>
<path fill="none" stroke="black" d="M657.119,-60.679C675.192,-51.3076 706.732,-34.9536 728.222,-23.8106"/>
<polygon fill="black" stroke="black" points="732.916,-21.3771 729.513,-25.6762 730.696,-22.5279 728.477,-23.6787 728.477,-23.6787 728.477,-23.6787 730.696,-22.5279 727.441,-21.6813 732.916,-21.3771 732.916,-21.3771"/>
</g>
</g>
</svg>
