<?xml version="1.0" encoding="UTF-8" standalone="no"?>
<?xml-stylesheet href="style.css" type="text/css"?>
<!DOCTYPE svg PUBLIC "-//W3C//DTD SVG 1.1//EN"
 "http://www.w3.org/Graphics/SVG/1.1/DTD/svg11.dtd">
<!-- Generated by graphviz version 2.38.0 (20140413.2041)
 -->
<!-- Title: 10.svg Pages: 1 -->
<svg width="1239pt" height="374pt"
 viewBox="0.00 0.00 1239.00 374.00" xmlns="http://www.w3.org/2000/svg" xmlns:xlink="http://www.w3.org/1999/xlink">
<g id="graph0" class="graph" transform="scale(1 1) rotate(0) translate(4 370)">
<title>10.svg</title>
<polygon fill="white" stroke="none" points="-4,4 -4,-370 1235,-370 1235,4 -4,4"/>
<!-- r0 -->
<g id="node1" class="node"><title>r0</title>
<polygon fill="none" stroke="black" stroke-dasharray="5,2" points="562,-366 539,-366 539,-348 562,-348 562,-366"/>
<text text-anchor="middle" x="550.5" y="-354.8" font-family="serif" font-size="9.00">0</text>
</g>
<!-- v0 -->
<g id="v0_Building" class="node"><title>v0</title>
<ellipse fill="none" stroke="black" cx="550.5" cy="-301" rx="36" ry="11"/>
<text text-anchor="middle" x="550.5" y="-298.8" font-family="sans-serif" font-size="9.00">Building</text>
</g>
<!-- r0&#45;&gt;v0 -->
<g id="edge1" class="edge"><title>r0&#45;&gt;v0</title>
<path fill="none" stroke="black" d="M550.5,-347.562C550.5,-339.453 550.5,-327.014 550.5,-317.181"/>
<polygon fill="black" stroke="black" points="550.5,-312.03 552.75,-317.03 550.5,-314.53 550.5,-317.03 550.5,-317.03 550.5,-317.03 550.5,-314.53 548.25,-317.03 550.5,-312.03 550.5,-312.03"/>
</g>
<!-- r1 -->
<g id="node2" class="node"><title>r1</title>
<polygon fill="none" stroke="black" stroke-dasharray="5,2" points="1076,-366 1053,-366 1053,-348 1076,-348 1076,-366"/>
<text text-anchor="middle" x="1064.5" y="-354.8" font-family="serif" font-size="9.00">1</text>
</g>
<!-- v7 -->
<g id="v7_RulesKeywords" class="node"><title>v7</title>
<ellipse fill="none" stroke="black" cx="1064.5" cy="-69" rx="54" ry="11"/>
<text text-anchor="middle" x="1064.5" y="-66.8" font-family="sans-serif" font-size="9.00">RulesKeywords</text>
</g>
<!-- r1&#45;&gt;v7 -->
<g id="edge2" class="edge"><title>r1&#45;&gt;v7</title>
<path fill="none" stroke="black" d="M1064.5,-347.849C1064.5,-329.373 1064.5,-282.889 1064.5,-244 1064.5,-244 1064.5,-244 1064.5,-184 1064.5,-148.604 1064.5,-107.026 1064.5,-85.1783"/>
<polygon fill="black" stroke="black" points="1064.5,-80.0648 1066.75,-85.0648 1064.5,-82.5648 1064.5,-85.0648 1064.5,-85.0648 1064.5,-85.0648 1064.5,-82.5648 1062.25,-85.0648 1064.5,-80.0648 1064.5,-80.0648"/>
</g>
<!-- e2 -->
<g id="node3" class="node"><title>e2</title>
</g>
<!-- v5 -->
<g id="v5_SmartLight" class="node"><title>v5</title>
<ellipse fill="none" stroke="black" cx="696.5" cy="-11" rx="43" ry="11"/>
<text text-anchor="middle" x="696.5" y="-8.8" font-family="sans-serif" font-size="9.00">SmartLight</text>
</g>
<!-- e2&#45;&gt;v5 -->
<g id="edge23" class="edge"><title>e2&#45;&gt;v5</title>
<path fill="none" stroke="green" d="M696.5,-64.1674C696.5,-55.5862 696.5,-34.5957 696.5,-22.0117"/>
<polygon fill="green" stroke="green" points="700,-67.3001 693,-67.2999 693,-65.8999 700,-65.9001 700,-67.3001"/>
<polyline fill="none" stroke="green" points="696.5,-68 696.5,-64.5 "/>
</g>
<!-- v1 -->
<g id="v1_Floor" class="node"><title>v1</title>
<ellipse fill="none" stroke="black" cx="328.5" cy="-243" rx="25" ry="11"/>
<text text-anchor="middle" x="328.5" y="-240.8" font-family="sans-serif" font-size="9.00">Floor</text>
</g>
<!-- v0&#45;&gt;v1 -->
<g id="edge3" class="edge"><title>v0&#45;&gt;v1</title>
<path fill="none" stroke="black" d="M524.162,-293.356C481.229,-282.526 396.692,-261.202 354.185,-250.479"/>
<polygon fill="black" stroke="black" points="349.215,-249.226 354.614,-248.267 351.639,-249.837 354.064,-250.449 354.064,-250.449 354.064,-250.449 351.639,-249.837 353.513,-252.63 349.215,-249.226 349.215,-249.226"/>
</g>
<!-- v6 -->
<g id="v6_InstallationBus" class="node"><title>v6</title>
<ellipse fill="none" stroke="black" cx="818.5" cy="-11" rx="61" ry="11"/>
<text text-anchor="middle" x="818.5" y="-8.8" font-family="sans-serif" font-size="9.00">InstallationBus</text>
</g>
<!-- v0&#45;&gt;v6 -->
<g id="edge4" class="edge"><title>v0&#45;&gt;v6</title>
<path fill="none" stroke="black" d="M585.188,-297.785C647.625,-291.718 772.5,-269.187 772.5,-186 772.5,-186 772.5,-186 772.5,-126 772.5,-87.9042 794.864,-47.5098 808.405,-26.5436"/>
<polygon fill="black" stroke="black" points="811.312,-22.1293 810.441,-27.5426 809.937,-24.2172 808.562,-26.305 808.562,-26.305 808.562,-26.305 809.937,-24.2172 806.683,-25.0674 811.312,-22.1293 811.312,-22.1293"/>
</g>
<!-- v2 -->
<g id="v2_Room" class="node"><title>v2</title>
<ellipse fill="none" stroke="black" cx="533.5" cy="-185" rx="21.5" ry="11"/>
<text text-anchor="middle" x="533.5" y="-182.8" font-family="sans-serif" font-size="9.00">Room</text>
</g>
<!-- v1&#45;&gt;v2 -->
<g id="edge5" class="edge"><title>v1&#45;&gt;v2</title>
<path fill="none" stroke="black" d="M348.906,-236.426C387.19,-225.968 469.57,-203.464 510.061,-192.403"/>
<polygon fill="black" stroke="black" points="515.254,-190.984 511.024,-194.472 512.842,-191.643 510.431,-192.302 510.431,-192.302 510.431,-192.302 512.842,-191.643 509.838,-190.131 515.254,-190.984 515.254,-190.984"/>
</g>
<!-- v8 -->
<g id="v8_Hallway" class="node"><title>v8</title>
<ellipse fill="none" stroke="black" cx="32.5" cy="-11" rx="32.5" ry="11"/>
<text text-anchor="middle" x="32.5" y="-8.8" font-family="sans-serif" font-size="9.00">Hallway</text>
</g>
<!-- v1&#45;&gt;v8 -->
<g id="edge6" class="edge"><title>v1&#45;&gt;v8</title>
<path fill="none" stroke="black" d="M314.431,-233.863C299.471,-225.044 275.286,-210.308 255.5,-196 173.423,-136.649 82.1786,-56.5352 47.2194,-25.271"/>
<polygon fill="black" stroke="black" points="43.2395,-21.7051 48.4649,-23.3659 45.1015,-23.3734 46.9634,-25.0417 46.9634,-25.0417 46.9634,-25.0417 45.1015,-23.3734 45.462,-26.7174 43.2395,-21.7051 43.2395,-21.7051"/>
</g>
<!-- v14 -->
<g id="v14_Room" class="node"><title>v14</title>
<ellipse fill="none" stroke="black" cx="152.5" cy="-69" rx="21.5" ry="11"/>
<text text-anchor="middle" x="152.5" y="-66.8" font-family="sans-serif" font-size="9.00">Room</text>
</g>
<!-- v1&#45;&gt;v14 -->
<g id="edge7" class="edge"><title>v1&#45;&gt;v14</title>
<path fill="none" stroke="black" d="M319.037,-232.753C289.672,-204.054 200.023,-116.443 165.889,-83.0847"/>
<polygon fill="black" stroke="black" points="162.009,-79.2932 167.158,-81.1787 163.797,-81.0405 165.585,-82.7879 165.585,-82.7879 165.585,-82.7879 163.797,-81.0405 164.013,-84.3971 162.009,-79.2932 162.009,-79.2932"/>
</g>
<!-- v16 -->
<g id="v16_Room" class="node"><title>v16</title>
<ellipse fill="none" stroke="black" cx="328.5" cy="-69" rx="21.5" ry="11"/>
<text text-anchor="middle" x="328.5" y="-66.8" font-family="sans-serif" font-size="9.00">Room</text>
</g>
<!-- v1&#45;&gt;v16 -->
<g id="edge8" class="edge"><title>v1&#45;&gt;v16</title>
<path fill="none" stroke="black" d="M328.5,-231.756C328.5,-202.786 328.5,-120.136 328.5,-85.5335"/>
<polygon fill="black" stroke="black" points="328.5,-80.4081 330.75,-85.408 328.5,-82.9081 328.5,-85.4081 328.5,-85.4081 328.5,-85.4081 328.5,-82.9081 326.25,-85.4081 328.5,-80.4081 328.5,-80.4081"/>
</g>
<!-- v3 -->
<g id="v3_Visitor" class="node"><title>v3</title>
<ellipse fill="none" stroke="black" cx="583.5" cy="-127" rx="32.5" ry="11"/>
<text text-anchor="middle" x="583.5" y="-124.8" font-family="sans-serif" font-size="9.00">Visitor</text>
</g>
<!-- v2&#45;&gt;v3 -->
<g id="edge9" class="edge"><title>v2&#45;&gt;v3</title>
<path fill="none" stroke="black" d="M541.756,-174.753C549.788,-165.757 562.087,-151.983 571.257,-141.712"/>
<polygon fill="black" stroke="black" points="574.726,-137.827 573.075,-143.055 573.061,-139.691 571.396,-141.556 571.396,-141.556 571.396,-141.556 573.061,-139.691 569.718,-140.058 574.726,-137.827 574.726,-137.827"/>
</g>
<!-- v2&#45;&gt;v5 -->
<g id="edge10" class="edge"><title>v2&#45;&gt;v5</title>
<path fill="none" stroke="black" d="M551.078,-178.57C570.873,-171.734 603.068,-158.363 624.5,-138 658.917,-105.298 681.678,-52.4697 691.294,-26.8628"/>
<polygon fill="black" stroke="black" points="693.042,-22.1184 693.425,-27.588 692.177,-24.4643 691.313,-26.8103 691.313,-26.8103 691.313,-26.8103 692.177,-24.4643 689.202,-26.0325 693.042,-22.1184 693.042,-22.1184"/>
</g>
<!-- v2&#45;&gt;v8 -->
<g id="edge21" class="edge"><title>v2&#45;&gt;v8</title>
<path fill="none" stroke="green" d="M517.148,-177.82C467.252,-159.028 312.436,-101.219 182.5,-58 137.915,-43.1703 85.3085,-27.4399 55.7344,-18.756"/>
</g>
<!-- v10 -->
<g id="v10_Workstation" class="node"><title>v10</title>
<ellipse fill="none" stroke="black" cx="498.5" cy="-11" rx="47" ry="11"/>
<text text-anchor="middle" x="498.5" y="-8.8" font-family="sans-serif" font-size="9.00">Workstation</text>
</g>
<!-- v2&#45;&gt;v10 -->
<g id="edge11" class="edge"><title>v2&#45;&gt;v10</title>
<path fill="none" stroke="black" d="M531.467,-174.009C525.595,-145.153 508.584,-61.5561 501.575,-27.1091"/>
<polygon fill="black" stroke="black" points="500.539,-22.0185 503.741,-26.4694 501.037,-24.4683 501.536,-26.9181 501.536,-26.9181 501.536,-26.9181 501.037,-24.4683 499.331,-27.3668 500.539,-22.0185 500.539,-22.0185"/>
</g>
<!-- v4 -->
<g id="v4_Laptop" class="node"><title>v4</title>
<ellipse fill="none" stroke="black" cx="594.5" cy="-69" rx="29" ry="11"/>
<text text-anchor="middle" x="594.5" y="-66.8" font-family="sans-serif" font-size="9.00">Laptop</text>
</g>
<!-- v3&#45;&gt;v4 -->
<g id="edge12" class="edge"><title>v3&#45;&gt;v4</title>
<path fill="none" stroke="black" d="M585.467,-115.988C587.135,-107.494 589.556,-95.1697 591.472,-85.4169"/>
<polygon fill="black" stroke="black" points="592.476,-80.3039 593.72,-85.6438 591.994,-82.757 591.512,-85.2101 591.512,-85.2101 591.512,-85.2101 591.994,-82.757 589.304,-84.7764 592.476,-80.3039 592.476,-80.3039"/>
</g>
<!-- v4&#45;&gt;v6 -->
<g id="edge22" class="edge"><title>v4&#45;&gt;v6</title>
<path fill="none" stroke="green" d="M617.628,-62.2179C657.534,-52.2415 739.45,-31.7626 785.39,-20.2776"/>
</g>
<!-- v9 -->
<g id="v9_Software" class="node"><title>v9</title>
<ellipse fill="none" stroke="black" cx="599.5" cy="-11" rx="36" ry="11"/>
<text text-anchor="middle" x="599.5" y="-8.8" font-family="sans-serif" font-size="9.00">Software</text>
</g>
<!-- v4&#45;&gt;v9 -->
<g id="edge13" class="edge"><title>v4&#45;&gt;v9</title>
<path fill="none" stroke="black" d="M595.394,-57.9883C596.152,-49.4941 597.253,-37.1697 598.123,-27.4169"/>
<polygon fill="black" stroke="black" points="598.58,-22.3039 600.376,-27.4842 598.358,-24.794 598.135,-27.2841 598.135,-27.2841 598.135,-27.2841 598.358,-24.794 595.894,-27.0839 598.58,-22.3039 598.58,-22.3039"/>
</g>
<!-- v6&#45;&gt;v10 -->
<g id="edge24" class="edge"><title>v6&#45;&gt;v10</title>
<path fill="none" stroke="green" d="M796.609,-21.4084C781.067,-28.2018 759.495,-36.446 739.5,-40 662.485,-53.6891 640.007,-56.2928 563.5,-40 546.58,-36.3967 528.726,-28.0614 516.021,-21.2474"/>
</g>
<!-- v15 -->
<g id="v15_SmartLight" class="node"><title>v15</title>
<ellipse fill="none" stroke="black" cx="126.5" cy="-11" rx="43" ry="11"/>
<text text-anchor="middle" x="126.5" y="-8.8" font-family="sans-serif" font-size="9.00">SmartLight</text>
</g>
<!-- v6&#45;&gt;v15 -->
<g id="edge25" class="edge"><title>v6&#45;&gt;v15</title>
<path fill="none" stroke="green" d="M796.609,-21.4084C781.067,-28.2018 759.495,-36.446 739.5,-40 679.113,-50.7335 247.33,-53.4979 187.5,-40 171.486,-36.3871 154.744,-28.0527 142.859,-21.2415"/>
</g>
<!-- v17 -->
<g id="v17_SmartLight" class="node"><title>v17</title>
<ellipse fill="none" stroke="black" cx="328.5" cy="-11" rx="43" ry="11"/>
<text text-anchor="middle" x="328.5" y="-8.8" font-family="sans-serif" font-size="9.00">SmartLight</text>
</g>
<!-- v6&#45;&gt;v17 -->
<g id="edge26" class="edge"><title>v6&#45;&gt;v17</title>
<path fill="none" stroke="green" d="M796.609,-21.4084C781.067,-28.2018 759.495,-36.446 739.5,-40 662.922,-53.6113 465.371,-57.1169 389.5,-40 373.486,-36.3871 356.744,-28.0527 344.859,-21.2415"/>
</g>
<!-- v18 -->
<g id="v18_HVAC" class="node"><title>v18</title>
<ellipse fill="none" stroke="black" cx="411.5" cy="-11" rx="21.5" ry="11"/>
<text text-anchor="middle" x="411.5" y="-8.8" font-family="sans-serif" font-size="9.00">HVAC</text>
</g>
<!-- v6&#45;&gt;v18 -->
<g id="edge27" class="edge"><title>v6&#45;&gt;v18</title>
<path fill="none" stroke="green" d="M796.609,-21.4084C781.067,-28.2018 759.495,-36.446 739.5,-40 676.488,-51.2002 512.378,-59.7463 451.5,-40 439.914,-36.242 428.874,-27.7304 421.339,-20.8949"/>
</g>
<!-- v19 -->
<g id="v19_FireAlarm" class="node"><title>v19</title>
<ellipse fill="none" stroke="black" cx="227.5" cy="-11" rx="39.5" ry="11"/>
<text text-anchor="middle" x="227.5" y="-8.8" font-family="sans-serif" font-size="9.00">FireAlarm</text>
</g>
<!-- v6&#45;&gt;v19 -->
<g id="edge28" class="edge"><title>v6&#45;&gt;v19</title>
<path fill="none" stroke="green" d="M796.609,-21.4084C781.067,-28.2018 759.495,-36.446 739.5,-40 640.168,-57.6558 383.69,-63.1795 285.5,-40 270.16,-36.3788 254.252,-28.0452 242.985,-21.2364"/>
</g>
<!-- v11 -->
<g id="v11_GenerateData" class="node"><title>v11</title>
<ellipse fill="none" stroke="black" cx="948.5" cy="-11" rx="50.5" ry="11"/>
<text text-anchor="middle" x="948.5" y="-8.8" font-family="sans-serif" font-size="9.00">GenerateData</text>
</g>
<!-- v7&#45;&gt;v11 -->
<g id="edge14" class="edge"><title>v7&#45;&gt;v11</title>
<path fill="none" stroke="black" d="M1045.08,-58.6269C1025.06,-48.9585 993.797,-33.8675 972.295,-23.4873"/>
<polygon fill="black" stroke="black" points="967.593,-21.2174 973.074,-21.3649 969.844,-22.3043 972.096,-23.3912 972.096,-23.3912 972.096,-23.3912 969.844,-22.3043 971.118,-25.4174 967.593,-21.2174 967.593,-21.2174"/>
</g>
<!-- v12 -->
<g id="v12_CollectData" class="node"><title>v12</title>
<ellipse fill="none" stroke="black" cx="1064.5" cy="-11" rx="47" ry="11"/>
<text text-anchor="middle" x="1064.5" y="-8.8" font-family="sans-serif" font-size="9.00">CollectData</text>
</g>
<!-- v7&#45;&gt;v12 -->
<g id="edge15" class="edge"><title>v7&#45;&gt;v12</title>
<path fill="none" stroke="black" d="M1064.5,-57.9883C1064.5,-49.4941 1064.5,-37.1697 1064.5,-27.4169"/>
<polygon fill="black" stroke="black" points="1064.5,-22.3039 1066.75,-27.3038 1064.5,-24.8039 1064.5,-27.3039 1064.5,-27.3039 1064.5,-27.3039 1064.5,-24.8039 1062.25,-27.3039 1064.5,-22.3039 1064.5,-22.3039"/>
</g>
<!-- v13 -->
<g id="v13_SendSoftware" class="node"><title>v13</title>
<ellipse fill="none" stroke="black" cx="1180.5" cy="-11" rx="50.5" ry="11"/>
<text text-anchor="middle" x="1180.5" y="-8.8" font-family="sans-serif" font-size="9.00">SendSoftware</text>
</g>
<!-- v7&#45;&gt;v13 -->
<g id="edge16" class="edge"><title>v7&#45;&gt;v13</title>
<path fill="none" stroke="black" d="M1083.92,-58.6269C1103.94,-48.9585 1135.2,-33.8675 1156.7,-23.4873"/>
<polygon fill="black" stroke="black" points="1161.41,-21.2174 1157.88,-25.4174 1159.16,-22.3043 1156.9,-23.3912 1156.9,-23.3912 1156.9,-23.3912 1159.16,-22.3043 1155.93,-21.3649 1161.41,-21.2174 1161.41,-21.2174"/>
</g>
<!-- v8&#45;&gt;v14 -->
<g id="edge29" class="edge"><title>v8&#45;&gt;v14</title>
<path fill="none" stroke="green" d="M50.3033,-20.3082C73.8919,-31.3162 115.102,-50.5478 137.302,-60.9076"/>
</g>
<!-- v8&#45;&gt;v16 -->
<g id="edge30" class="edge"><title>v8&#45;&gt;v16</title>
<path fill="none" stroke="green" d="M57.3234,-18.1473C62.9576,-19.4765 68.9244,-20.8323 74.5,-22 161.129,-40.1433 265.27,-57.6707 308.342,-64.7338"/>
</g>
<!-- v14&#45;&gt;v15 -->
<g id="edge17" class="edge"><title>v14&#45;&gt;v15</title>
<path fill="none" stroke="black" d="M147.971,-58.2455C143.92,-49.5202 137.925,-36.6082 133.299,-26.6435"/>
<polygon fill="black" stroke="black" points="131.152,-22.0198 135.298,-25.6073 132.205,-24.2873 133.258,-26.5548 133.258,-26.5548 133.258,-26.5548 132.205,-24.2873 131.217,-27.5023 131.152,-22.0198 131.152,-22.0198"/>
</g>
<!-- v16&#45;&gt;v17 -->
<g id="edge18" class="edge"><title>v16&#45;&gt;v17</title>
<path fill="none" stroke="black" d="M328.5,-57.9883C328.5,-49.4941 328.5,-37.1697 328.5,-27.4169"/>
<polygon fill="black" stroke="black" points="328.5,-22.3039 330.75,-27.3038 328.5,-24.8039 328.5,-27.3039 328.5,-27.3039 328.5,-27.3039 328.5,-24.8039 326.25,-27.3039 328.5,-22.3039 328.5,-22.3039"/>
</g>
<!-- v16&#45;&gt;v18 -->
<g id="edge19" class="edge"><title>v16&#45;&gt;v18</title>
<path fill="none" stroke="black" d="M340.747,-59.737C355.091,-50.0592 378.921,-33.9808 394.914,-23.1904"/>
<polygon fill="black" stroke="black" points="399.203,-20.2969 396.316,-24.9586 397.13,-21.6952 395.058,-23.0934 395.058,-23.0934 395.058,-23.0934 397.13,-21.6952 393.8,-21.2283 399.203,-20.2969 399.203,-20.2969"/>
</g>
<!-- v16&#45;&gt;v19 -->
<g id="edge20" class="edge"><title>v16&#45;&gt;v19</title>
<path fill="none" stroke="black" d="M314.879,-60.4476C297.83,-50.9951 268.453,-34.7065 248.514,-23.6513"/>
<polygon fill="black" stroke="black" points="243.912,-21.0996 249.376,-21.5564 246.098,-22.3119 248.285,-23.5241 248.285,-23.5241 248.285,-23.5241 246.098,-22.3119 247.193,-25.4919 243.912,-21.0996 243.912,-21.0996"/>
</g>
</g>
</svg>
