<?xml version="1.0" encoding="UTF-8" standalone="no"?>
<?xml-stylesheet href="style.css" type="text/css"?>
<!DOCTYPE svg PUBLIC "-//W3C//DTD SVG 1.1//EN"
 "http://www.w3.org/Graphics/SVG/1.1/DTD/svg11.dtd">
<!-- Generated by graphviz version 2.38.0 (20140413.2041)
 -->
<!-- Title: 19.svg Pages: 1 -->
<svg width="956pt" height="374pt"
 viewBox="0.00 0.00 956.00 374.00" xmlns="http://www.w3.org/2000/svg" xmlns:xlink="http://www.w3.org/1999/xlink">
<g id="graph0" class="graph" transform="scale(1 1) rotate(0) translate(4 370)">
<title>19.svg</title>
<polygon fill="white" stroke="none" points="-4,4 -4,-370 952,-370 952,4 -4,4"/>
<!-- r0 -->
<g id="node1" class="node"><title>r0</title>
<polygon fill="none" stroke="black" stroke-dasharray="5,2" points="573.5,-366 550.5,-366 550.5,-348 573.5,-348 573.5,-366"/>
<text text-anchor="middle" x="562" y="-354.8" font-family="serif" font-size="9.00">0</text>
</g>
<!-- v0 -->
<g id="v0_Building" class="node"><title>v0</title>
<ellipse fill="none" stroke="black" cx="562" cy="-301" rx="36" ry="11"/>
<text text-anchor="middle" x="562" y="-298.8" font-family="sans-serif" font-size="9.00">Building</text>
</g>
<!-- r0&#45;&gt;v0 -->
<g id="edge1" class="edge"><title>r0&#45;&gt;v0</title>
<path fill="none" stroke="black" d="M562,-347.562C562,-339.453 562,-327.014 562,-317.181"/>
<polygon fill="black" stroke="black" points="562,-312.03 564.25,-317.03 562,-314.53 562,-317.03 562,-317.03 562,-317.03 562,-314.53 559.75,-317.03 562,-312.03 562,-312.03"/>
</g>
<!-- r1 -->
<g id="node2" class="node"><title>r1</title>
<polygon fill="none" stroke="black" stroke-dasharray="5,2" points="905.5,-366 882.5,-366 882.5,-348 905.5,-348 905.5,-366"/>
<text text-anchor="middle" x="894" y="-354.8" font-family="serif" font-size="9.00">1</text>
</g>
<!-- v11 -->
<g id="v11_RulesKeywords" class="node"><title>v11</title>
<ellipse fill="none" stroke="black" cx="894" cy="-69" rx="54" ry="11"/>
<text text-anchor="middle" x="894" y="-66.8" font-family="sans-serif" font-size="9.00">RulesKeywords</text>
</g>
<!-- r1&#45;&gt;v11 -->
<g id="edge2" class="edge"><title>r1&#45;&gt;v11</title>
<path fill="none" stroke="black" d="M894,-347.849C894,-329.373 894,-282.889 894,-244 894,-244 894,-244 894,-184 894,-148.604 894,-107.026 894,-85.1783"/>
<polygon fill="black" stroke="black" points="894,-80.0648 896.25,-85.0648 894,-82.5648 894,-85.0648 894,-85.0648 894,-85.0648 894,-82.5648 891.75,-85.0648 894,-80.0648 894,-80.0648"/>
</g>
<!-- e3 -->
<g id="node3" class="node"><title>e3</title>
</g>
<!-- v7 -->
<g id="v7_SmartLight" class="node"><title>v7</title>
<ellipse fill="none" stroke="black" cx="245" cy="-11" rx="43" ry="11"/>
<text text-anchor="middle" x="245" y="-8.8" font-family="sans-serif" font-size="9.00">SmartLight</text>
</g>
<!-- e3&#45;&gt;v7 -->
<g id="edge24" class="edge"><title>e3&#45;&gt;v7</title>
<path fill="none" stroke="green" d="M245,-64.1674C245,-55.5862 245,-34.5957 245,-22.0117"/>
<polygon fill="green" stroke="green" points="248.5,-67.3001 241.5,-67.2999 241.5,-65.8999 248.5,-65.9001 248.5,-67.3001"/>
<polyline fill="none" stroke="green" points="245,-68 245,-64.5 "/>
</g>
<!-- v1 -->
<g id="v1_Floor" class="node"><title>v1</title>
<ellipse fill="none" stroke="black" cx="433" cy="-243" rx="25" ry="11"/>
<text text-anchor="middle" x="433" y="-240.8" font-family="sans-serif" font-size="9.00">Floor</text>
</g>
<!-- v0&#45;&gt;v1 -->
<g id="edge3" class="edge"><title>v0&#45;&gt;v1</title>
<path fill="none" stroke="black" d="M542.687,-291.616C519.097,-281.376 479.302,-264.1 454.683,-253.413"/>
<polygon fill="black" stroke="black" points="449.971,-251.367 455.454,-251.295 452.264,-252.363 454.558,-253.358 454.558,-253.358 454.558,-253.358 452.264,-252.363 453.662,-255.422 449.971,-251.367 449.971,-251.367"/>
</g>
<!-- v10 -->
<g id="v10_InstallationBus" class="node"><title>v10</title>
<ellipse fill="none" stroke="black" cx="739" cy="-69" rx="61" ry="11"/>
<text text-anchor="middle" x="739" y="-66.8" font-family="sans-serif" font-size="9.00">InstallationBus</text>
</g>
<!-- v0&#45;&gt;v10 -->
<g id="edge4" class="edge"><title>v0&#45;&gt;v10</title>
<path fill="none" stroke="black" d="M569.605,-290.117C597.626,-253.707 695.169,-126.956 728.068,-84.2053"/>
<polygon fill="black" stroke="black" points="731.224,-80.105 729.957,-85.4398 729.699,-82.0863 728.174,-84.0675 728.174,-84.0675 728.174,-84.0675 729.699,-82.0863 726.391,-82.6953 731.224,-80.105 731.224,-80.105"/>
</g>
<!-- v2 -->
<g id="v2_Room" class="node"><title>v2</title>
<ellipse fill="none" stroke="black" cx="557" cy="-127" rx="21.5" ry="11"/>
<text text-anchor="middle" x="557" y="-124.8" font-family="sans-serif" font-size="9.00">Room</text>
</g>
<!-- v1&#45;&gt;v2 -->
<g id="edge5" class="edge"><title>v1&#45;&gt;v2</title>
<path fill="none" stroke="black" d="M443.147,-232.671C465.329,-212.278 518.153,-163.714 543.274,-140.619"/>
<polygon fill="black" stroke="black" points="547.059,-137.139 544.901,-142.18 545.218,-138.831 543.378,-140.523 543.378,-140.523 543.378,-140.523 545.218,-138.831 541.855,-138.867 547.059,-137.139 547.059,-137.139"/>
</g>
<!-- v3 -->
<g id="v3_Room" class="node"><title>v3</title>
<ellipse fill="none" stroke="black" cx="182" cy="-185" rx="21.5" ry="11"/>
<text text-anchor="middle" x="182" y="-182.8" font-family="sans-serif" font-size="9.00">Room</text>
</g>
<!-- v1&#45;&gt;v3 -->
<g id="edge6" class="edge"><title>v1&#45;&gt;v3</title>
<path fill="none" stroke="black" d="M411.6,-237.225C365.16,-226.864 255.382,-202.372 206.369,-191.437"/>
<polygon fill="black" stroke="black" points="201.259,-190.297 206.629,-189.19 203.699,-190.841 206.139,-191.386 206.139,-191.386 206.139,-191.386 203.699,-190.841 205.649,-193.582 201.259,-190.297 201.259,-190.297"/>
</g>
<!-- v13 -->
<g id="v13_Hallway" class="node"><title>v13</title>
<ellipse fill="none" stroke="black" cx="339" cy="-11" rx="32.5" ry="11"/>
<text text-anchor="middle" x="339" y="-8.8" font-family="sans-serif" font-size="9.00">Hallway</text>
</g>
<!-- v1&#45;&gt;v13 -->
<g id="edge7" class="edge"><title>v1&#45;&gt;v13</title>
<path fill="none" stroke="black" d="M428.961,-232.117C414.17,-195.928 362.904,-70.489 345.127,-26.9918"/>
<polygon fill="black" stroke="black" points="343.13,-22.105 347.104,-25.8822 344.076,-24.4192 345.022,-26.7334 345.022,-26.7334 345.022,-26.7334 344.076,-24.4192 342.939,-27.5846 343.13,-22.105 343.13,-22.105"/>
</g>
<!-- v16 -->
<g id="v16_Room" class="node"><title>v16</title>
<ellipse fill="none" stroke="black" cx="433" cy="-69" rx="21.5" ry="11"/>
<text text-anchor="middle" x="433" y="-66.8" font-family="sans-serif" font-size="9.00">Room</text>
</g>
<!-- v1&#45;&gt;v16 -->
<g id="edge8" class="edge"><title>v1&#45;&gt;v16</title>
<path fill="none" stroke="black" d="M433,-231.756C433,-202.786 433,-120.136 433,-85.5335"/>
<polygon fill="black" stroke="black" points="433,-80.4081 435.25,-85.408 433,-82.9081 433,-85.4081 433,-85.4081 433,-85.4081 433,-82.9081 430.75,-85.4081 433,-80.4081 433,-80.4081"/>
</g>
<!-- v8 -->
<g id="v8_HVAC" class="node"><title>v8</title>
<ellipse fill="none" stroke="black" cx="531" cy="-69" rx="21.5" ry="11"/>
<text text-anchor="middle" x="531" y="-66.8" font-family="sans-serif" font-size="9.00">HVAC</text>
</g>
<!-- v2&#45;&gt;v8 -->
<g id="edge9" class="edge"><title>v2&#45;&gt;v8</title>
<path fill="none" stroke="black" d="M552.471,-116.246C548.42,-107.52 542.425,-94.6082 537.799,-84.6435"/>
<polygon fill="black" stroke="black" points="535.652,-80.0198 539.798,-83.6073 536.705,-82.2873 537.758,-84.5548 537.758,-84.5548 537.758,-84.5548 536.705,-82.2873 535.717,-85.5023 535.652,-80.0198 535.652,-80.0198"/>
</g>
<!-- v2&#45;&gt;v13 -->
<g id="edge21" class="edge"><title>v2&#45;&gt;v13</title>
<path fill="none" stroke="green" d="M535.597,-125.438C450.557,-122.988 139.776,-111.897 111,-80 67.8794,-32.2033 54.4692,-74.3186 297,-22 302.568,-20.7988 308.532,-19.4294 314.166,-18.0976"/>
</g>
<!-- v18 -->
<g id="v18_SmartLight" class="node"><title>v18</title>
<ellipse fill="none" stroke="black" cx="627" cy="-11" rx="43" ry="11"/>
<text text-anchor="middle" x="627" y="-8.8" font-family="sans-serif" font-size="9.00">SmartLight</text>
</g>
<!-- v2&#45;&gt;v18 -->
<g id="edge10" class="edge"><title>v2&#45;&gt;v18</title>
<path fill="none" stroke="black" d="M562.968,-116.28C575.305,-96.1897 603.667,-49.9992 618.146,-26.4199"/>
<polygon fill="black" stroke="black" points="620.847,-22.0199 620.148,-27.4582 619.539,-24.1504 618.231,-26.2808 618.231,-26.2808 618.231,-26.2808 619.539,-24.1504 616.314,-25.1035 620.847,-22.0199 620.847,-22.0199"/>
</g>
<!-- v19 -->
<g id="v19_FireAlarm" class="node"><title>v19</title>
<ellipse fill="none" stroke="black" cx="728" cy="-11" rx="39.5" ry="11"/>
<text text-anchor="middle" x="728" y="-8.8" font-family="sans-serif" font-size="9.00">FireAlarm</text>
</g>
<!-- v2&#45;&gt;v19 -->
<g id="edge11" class="edge"><title>v2&#45;&gt;v19</title>
<path fill="none" stroke="black" d="M569.298,-117.801C598.907,-98.0622 674.299,-47.8008 709.442,-24.3719"/>
<polygon fill="black" stroke="black" points="713.925,-21.3836 711.012,-26.0293 711.844,-22.7704 709.764,-24.1571 709.764,-24.1571 709.764,-24.1571 711.844,-22.7704 708.516,-22.285 713.925,-21.3836 713.925,-21.3836"/>
</g>
<!-- v4 -->
<g id="v4_Visitor" class="node"><title>v4</title>
<ellipse fill="none" stroke="black" cx="151" cy="-127" rx="32.5" ry="11"/>
<text text-anchor="middle" x="151" y="-124.8" font-family="sans-serif" font-size="9.00">Visitor</text>
</g>
<!-- v3&#45;&gt;v4 -->
<g id="edge12" class="edge"><title>v3&#45;&gt;v4</title>
<path fill="none" stroke="black" d="M176.6,-174.246C171.77,-165.52 164.622,-152.608 159.106,-142.643"/>
<polygon fill="black" stroke="black" points="156.547,-138.02 160.937,-141.304 157.757,-140.207 158.968,-142.394 158.968,-142.394 158.968,-142.394 157.757,-140.207 157,-143.484 156.547,-138.02 156.547,-138.02"/>
</g>
<!-- v3&#45;&gt;v7 -->
<g id="edge13" class="edge"><title>v3&#45;&gt;v7</title>
<path fill="none" stroke="black" d="M185.659,-174.009C196.229,-145.153 226.849,-61.5561 239.466,-27.1091"/>
<polygon fill="black" stroke="black" points="241.33,-22.0185 241.723,-27.4873 240.471,-24.366 239.611,-26.7134 239.611,-26.7134 239.611,-26.7134 240.471,-24.366 237.498,-25.9396 241.33,-22.0185 241.33,-22.0185"/>
</g>
<!-- v3&#45;&gt;v13 -->
<g id="edge22" class="edge"><title>v3&#45;&gt;v13</title>
<path fill="none" stroke="green" d="M190.441,-174.753C217.574,-145.027 302.4,-52.097 330.13,-21.7169"/>
</g>
<!-- v14 -->
<g id="v14_Workstation" class="node"><title>v14</title>
<ellipse fill="none" stroke="black" cx="47" cy="-11" rx="47" ry="11"/>
<text text-anchor="middle" x="47" y="-8.8" font-family="sans-serif" font-size="9.00">Workstation</text>
</g>
<!-- v3&#45;&gt;v14 -->
<g id="edge14" class="edge"><title>v3&#45;&gt;v14</title>
<path fill="none" stroke="black" d="M166.268,-177.244C150.156,-169.666 125.236,-156.037 109,-138 78.5449,-104.166 59.533,-52.6576 51.4733,-27.256"/>
<polygon fill="black" stroke="black" points="49.9195,-22.2476 53.55,-26.3564 50.6603,-24.6354 51.4011,-27.0231 51.4011,-27.0231 51.4011,-27.0231 50.6603,-24.6354 49.2521,-27.6898 49.9195,-22.2476 49.9195,-22.2476"/>
</g>
<!-- v5 -->
<g id="v5_Laptop" class="node"><title>v5</title>
<ellipse fill="none" stroke="black" cx="149" cy="-69" rx="29" ry="11"/>
<text text-anchor="middle" x="149" y="-66.8" font-family="sans-serif" font-size="9.00">Laptop</text>
</g>
<!-- v4&#45;&gt;v5 -->
<g id="edge15" class="edge"><title>v4&#45;&gt;v5</title>
<path fill="none" stroke="black" d="M150.642,-115.988C150.339,-107.494 149.899,-95.1697 149.551,-85.4169"/>
<polygon fill="black" stroke="black" points="149.368,-80.3039 151.795,-85.2203 149.457,-82.8023 149.547,-85.3007 149.547,-85.3007 149.547,-85.3007 149.457,-82.8023 147.298,-85.381 149.368,-80.3039 149.368,-80.3039"/>
</g>
<!-- v6 -->
<g id="v6_Software" class="node"><title>v6</title>
<ellipse fill="none" stroke="black" cx="148" cy="-11" rx="36" ry="11"/>
<text text-anchor="middle" x="148" y="-8.8" font-family="sans-serif" font-size="9.00">Software</text>
</g>
<!-- v5&#45;&gt;v6 -->
<g id="edge16" class="edge"><title>v5&#45;&gt;v6</title>
<path fill="none" stroke="black" d="M148.821,-57.9883C148.67,-49.4941 148.449,-37.1697 148.275,-27.4169"/>
<polygon fill="black" stroke="black" points="148.184,-22.3039 150.523,-27.2629 148.229,-24.8035 148.273,-27.3031 148.273,-27.3031 148.273,-27.3031 148.229,-24.8035 146.024,-27.3433 148.184,-22.3039 148.184,-22.3039"/>
</g>
<!-- v5&#45;&gt;v10 -->
<g id="edge23" class="edge"><title>v5&#45;&gt;v10</title>
<path fill="none" stroke="green" d="M168.983,-77.0005C187.936,-84.1292 217.393,-94.0294 244,-98 329.278,-110.726 546.532,-109.377 632,-98 659.282,-94.3684 689.472,-85.7452 710.808,-78.8401"/>
</g>
<!-- v9 -->
<g id="v9_Software" class="node"><title>v9</title>
<ellipse fill="none" stroke="black" cx="530" cy="-11" rx="36" ry="11"/>
<text text-anchor="middle" x="530" y="-8.8" font-family="sans-serif" font-size="9.00">Software</text>
</g>
<!-- v8&#45;&gt;v9 -->
<g id="edge17" class="edge"><title>v8&#45;&gt;v9</title>
<path fill="none" stroke="black" d="M530.821,-57.9883C530.67,-49.4941 530.449,-37.1697 530.275,-27.4169"/>
<polygon fill="black" stroke="black" points="530.184,-22.3039 532.523,-27.2629 530.229,-24.8035 530.273,-27.3031 530.273,-27.3031 530.273,-27.3031 530.229,-24.8035 528.024,-27.3433 530.184,-22.3039 530.184,-22.3039"/>
</g>
<!-- v8&#45;&gt;v10 -->
<g id="edge25" class="edge"><title>v8&#45;&gt;v10</title>
<path fill="none" stroke="green" d="M552.531,-69C594.292,-69 636.054,-69 677.815,-69"/>
</g>
<!-- v12 -->
<g id="v12_Data" class="node"><title>v12</title>
<ellipse fill="none" stroke="black" cx="807" cy="-11" rx="21.5" ry="11"/>
<text text-anchor="middle" x="807" y="-8.8" font-family="sans-serif" font-size="9.00">Data</text>
</g>
<!-- v10&#45;&gt;v12 -->
<g id="edge18" class="edge"><title>v10&#45;&gt;v12</title>
<path fill="none" stroke="black" d="M751.157,-57.9883C762.689,-48.4913 780.035,-34.2063 792.33,-24.0808"/>
<polygon fill="black" stroke="black" points="796.291,-20.8193 793.862,-25.7347 794.361,-22.4086 792.431,-23.9979 792.431,-23.9979 792.431,-23.9979 794.361,-22.4086 791.001,-22.261 796.291,-20.8193 796.291,-20.8193"/>
</g>
<!-- v10&#45;&gt;v14 -->
<g id="edge26" class="edge"><title>v10&#45;&gt;v14</title>
<path fill="none" stroke="green" d="M682.844,-64.695C549.083,-56.7003 214.497,-35.9484 103,-22 95.8463,-21.1051 88.2188,-19.9074 80.9695,-18.6524"/>
</g>
<!-- v17 -->
<g id="v17_SmartLight" class="node"><title>v17</title>
<ellipse fill="none" stroke="black" cx="433" cy="-11" rx="43" ry="11"/>
<text text-anchor="middle" x="433" y="-8.8" font-family="sans-serif" font-size="9.00">SmartLight</text>
</g>
<!-- v10&#45;&gt;v17 -->
<g id="edge27" class="edge"><title>v10&#45;&gt;v17</title>
<path fill="none" stroke="green" d="M698.062,-60.7268C647.84,-51.7716 560.111,-36.0232 485,-22 478.674,-20.819 471.92,-19.5361 465.444,-18.2954"/>
</g>
<!-- v10&#45;&gt;v18 -->
<g id="edge28" class="edge"><title>v10&#45;&gt;v18</title>
<path fill="none" stroke="green" d="M720.001,-58.5004C699.156,-48.0778 665.93,-31.4651 645.348,-21.1738"/>
</g>
<!-- v10&#45;&gt;v19 -->
<g id="edge29" class="edge"><title>v10&#45;&gt;v19</title>
<path fill="none" stroke="green" d="M737.033,-57.9883C735.056,-47.9211 732.022,-32.4737 730.024,-22.3039"/>
</g>
<!-- v15 -->
<g id="v15_CollectData" class="node"><title>v15</title>
<ellipse fill="none" stroke="black" cx="894" cy="-11" rx="47" ry="11"/>
<text text-anchor="middle" x="894" y="-8.8" font-family="sans-serif" font-size="9.00">CollectData</text>
</g>
<!-- v11&#45;&gt;v15 -->
<g id="edge19" class="edge"><title>v11&#45;&gt;v15</title>
<path fill="none" stroke="black" d="M894,-57.9883C894,-49.4941 894,-37.1697 894,-27.4169"/>
<polygon fill="black" stroke="black" points="894,-22.3039 896.25,-27.3038 894,-24.8039 894,-27.3039 894,-27.3039 894,-27.3039 894,-24.8039 891.75,-27.3039 894,-22.3039 894,-22.3039"/>
</g>
<!-- v13&#45;&gt;v16 -->
<g id="edge30" class="edge"><title>v13&#45;&gt;v16</title>
<path fill="none" stroke="green" d="M353.817,-20.827C372.008,-31.6646 402.576,-49.8751 419.93,-60.2134"/>
</g>
<!-- v16&#45;&gt;v17 -->
<g id="edge20" class="edge"><title>v16&#45;&gt;v17</title>
<path fill="none" stroke="black" d="M433,-57.9883C433,-49.4941 433,-37.1697 433,-27.4169"/>
<polygon fill="black" stroke="black" points="433,-22.3039 435.25,-27.3038 433,-24.8039 433,-27.3039 433,-27.3039 433,-27.3039 433,-24.8039 430.75,-27.3039 433,-22.3039 433,-22.3039"/>
</g>
</g>
</svg>
