<?xml version="1.0" encoding="UTF-8" standalone="no"?>
<?xml-stylesheet href="style.css" type="text/css"?>
<!DOCTYPE svg PUBLIC "-//W3C//DTD SVG 1.1//EN"
 "http://www.w3.org/Graphics/SVG/1.1/DTD/svg11.dtd">
<!-- Generated by graphviz version 2.38.0 (20140413.2041)
 -->
<!-- Title: 3.svg Pages: 1 -->
<svg width="1375pt" height="374pt"
 viewBox="0.00 0.00 1375.00 374.00" xmlns="http://www.w3.org/2000/svg" xmlns:xlink="http://www.w3.org/1999/xlink">
<g id="graph0" class="graph" transform="scale(1 1) rotate(0) translate(4 370)">
<title>3.svg</title>
<polygon fill="white" stroke="none" points="-4,4 -4,-370 1371,-370 1371,4 -4,4"/>
<!-- r0 -->
<g id="node1" class="node"><title>r0</title>
<polygon fill="none" stroke="black" stroke-dasharray="5,2" points="587,-366 564,-366 564,-348 587,-348 587,-366"/>
<text text-anchor="middle" x="575.5" y="-354.8" font-family="serif" font-size="9.00">0</text>
</g>
<!-- v0 -->
<g id="v0_Building" class="node"><title>v0</title>
<ellipse fill="none" stroke="black" cx="575.5" cy="-301" rx="36" ry="11"/>
<text text-anchor="middle" x="575.5" y="-298.8" font-family="sans-serif" font-size="9.00">Building</text>
</g>
<!-- r0&#45;&gt;v0 -->
<g id="edge1" class="edge"><title>r0&#45;&gt;v0</title>
<path fill="none" stroke="black" d="M575.5,-347.562C575.5,-339.453 575.5,-327.014 575.5,-317.181"/>
<polygon fill="black" stroke="black" points="575.5,-312.03 577.75,-317.03 575.5,-314.53 575.5,-317.03 575.5,-317.03 575.5,-317.03 575.5,-314.53 573.25,-317.03 575.5,-312.03 575.5,-312.03"/>
</g>
<!-- r1 -->
<g id="node2" class="node"><title>r1</title>
<polygon fill="none" stroke="black" stroke-dasharray="5,2" points="1154,-366 1131,-366 1131,-348 1154,-348 1154,-366"/>
<text text-anchor="middle" x="1142.5" y="-354.8" font-family="serif" font-size="9.00">1</text>
</g>
<!-- v6 -->
<g id="v6_RulesKeywords" class="node"><title>v6</title>
<ellipse fill="none" stroke="black" cx="1142.5" cy="-69" rx="54" ry="11"/>
<text text-anchor="middle" x="1142.5" y="-66.8" font-family="sans-serif" font-size="9.00">RulesKeywords</text>
</g>
<!-- r1&#45;&gt;v6 -->
<g id="edge2" class="edge"><title>r1&#45;&gt;v6</title>
<path fill="none" stroke="black" d="M1142.5,-347.849C1142.5,-329.373 1142.5,-282.889 1142.5,-244 1142.5,-244 1142.5,-244 1142.5,-184 1142.5,-148.604 1142.5,-107.026 1142.5,-85.1783"/>
<polygon fill="black" stroke="black" points="1142.5,-80.0648 1144.75,-85.0648 1142.5,-82.5648 1142.5,-85.0648 1142.5,-85.0648 1142.5,-85.0648 1142.5,-82.5648 1140.25,-85.0648 1142.5,-80.0648 1142.5,-80.0648"/>
</g>
<!-- e3 -->
<g id="node3" class="node"><title>e3</title>
</g>
<!-- v5 -->
<g id="v5_Laptop" class="node"><title>v5</title>
<ellipse fill="none" stroke="black" cx="182.5" cy="-69" rx="29" ry="11"/>
<text text-anchor="middle" x="182.5" y="-66.8" font-family="sans-serif" font-size="9.00">Laptop</text>
</g>
<!-- e3&#45;&gt;v5 -->
<g id="edge25" class="edge"><title>e3&#45;&gt;v5</title>
<path fill="none" stroke="green" d="M182.5,-122.167C182.5,-113.586 182.5,-92.5957 182.5,-80.0117"/>
<polygon fill="green" stroke="green" points="186,-125.3 179,-125.3 179,-123.9 186,-123.9 186,-125.3"/>
<polyline fill="none" stroke="green" points="182.5,-126 182.5,-122.5 "/>
</g>
<!-- v1 -->
<g id="v1_Floor" class="node"><title>v1</title>
<ellipse fill="none" stroke="black" cx="414.5" cy="-243" rx="25" ry="11"/>
<text text-anchor="middle" x="414.5" y="-240.8" font-family="sans-serif" font-size="9.00">Floor</text>
</g>
<!-- v0&#45;&gt;v1 -->
<g id="edge3" class="edge"><title>v0&#45;&gt;v1</title>
<path fill="none" stroke="black" d="M553.114,-292.213C522.768,-281.658 468.831,-262.898 437.947,-252.155"/>
<polygon fill="black" stroke="black" points="433.195,-250.503 438.657,-250.02 435.556,-251.324 437.917,-252.145 437.917,-252.145 437.917,-252.145 435.556,-251.324 437.178,-254.27 433.195,-250.503 433.195,-250.503"/>
</g>
<!-- v20 -->
<g id="v20_InstallationBus" class="node"><title>v20</title>
<ellipse fill="none" stroke="black" cx="828.5" cy="-11" rx="61" ry="11"/>
<text text-anchor="middle" x="828.5" y="-8.8" font-family="sans-serif" font-size="9.00">InstallationBus</text>
</g>
<!-- v0&#45;&gt;v20 -->
<g id="edge4" class="edge"><title>v0&#45;&gt;v20</title>
<path fill="none" stroke="black" d="M603.177,-293.868C649.209,-281.853 736.5,-250.559 736.5,-186 736.5,-186 736.5,-186 736.5,-126 736.5,-80.6146 781.205,-43.1086 808.289,-24.5507"/>
<polygon fill="black" stroke="black" points="812.475,-21.7366 809.581,-26.3935 810.4,-23.1314 808.325,-24.5262 808.325,-24.5262 808.325,-24.5262 810.4,-23.1314 807.07,-22.6589 812.475,-21.7366 812.475,-21.7366"/>
</g>
<!-- v2 -->
<g id="v2_Hallway" class="node"><title>v2</title>
<ellipse fill="none" stroke="black" cx="32.5" cy="-11" rx="32.5" ry="11"/>
<text text-anchor="middle" x="32.5" y="-8.8" font-family="sans-serif" font-size="9.00">Hallway</text>
</g>
<!-- v1&#45;&gt;v2 -->
<g id="edge5" class="edge"><title>v1&#45;&gt;v2</title>
<path fill="none" stroke="black" d="M389.401,-241.956C326.698,-240.451 161.772,-227.688 71.5,-138 40.8653,-107.564 34.2013,-53.5931 32.8159,-27.279"/>
<polygon fill="black" stroke="black" points="32.5937,-22.102 35.0561,-27.0009 32.7009,-24.5997 32.8082,-27.0974 32.8082,-27.0974 32.8082,-27.0974 32.7009,-24.5997 30.5603,-27.194 32.5937,-22.102 32.5937,-22.102"/>
</g>
<!-- v3 -->
<g id="v3_Room" class="node"><title>v3</title>
<ellipse fill="none" stroke="black" cx="239.5" cy="-185" rx="21.5" ry="11"/>
<text text-anchor="middle" x="239.5" y="-182.8" font-family="sans-serif" font-size="9.00">Room</text>
</g>
<!-- v1&#45;&gt;v3 -->
<g id="edge6" class="edge"><title>v1&#45;&gt;v3</title>
<path fill="none" stroke="black" d="M395.103,-235.793C362.363,-225.316 296.331,-204.186 261.757,-193.122"/>
<polygon fill="black" stroke="black" points="256.892,-191.565 262.34,-190.946 259.273,-192.327 261.654,-193.089 261.654,-193.089 261.654,-193.089 259.273,-192.327 260.968,-195.232 256.892,-191.565 256.892,-191.565"/>
</g>
<!-- v13 -->
<g id="v13_Room" class="node"><title>v13</title>
<ellipse fill="none" stroke="black" cx="414.5" cy="-69" rx="21.5" ry="11"/>
<text text-anchor="middle" x="414.5" y="-66.8" font-family="sans-serif" font-size="9.00">Room</text>
</g>
<!-- v1&#45;&gt;v13 -->
<g id="edge7" class="edge"><title>v1&#45;&gt;v13</title>
<path fill="none" stroke="black" d="M414.5,-231.756C414.5,-202.786 414.5,-120.136 414.5,-85.5335"/>
<polygon fill="black" stroke="black" points="414.5,-80.4081 416.75,-85.408 414.5,-82.9081 414.5,-85.4081 414.5,-85.4081 414.5,-85.4081 414.5,-82.9081 412.25,-85.4081 414.5,-80.4081 414.5,-80.4081"/>
</g>
<!-- v17 -->
<g id="v17_Room" class="node"><title>v17</title>
<ellipse fill="none" stroke="black" cx="594.5" cy="-69" rx="21.5" ry="11"/>
<text text-anchor="middle" x="594.5" y="-66.8" font-family="sans-serif" font-size="9.00">Room</text>
</g>
<!-- v1&#45;&gt;v17 -->
<g id="edge8" class="edge"><title>v1&#45;&gt;v17</title>
<path fill="none" stroke="black" d="M424.178,-232.753C454.211,-204.054 545.897,-116.443 580.807,-83.0847"/>
<polygon fill="black" stroke="black" points="584.775,-79.2932 582.714,-84.3742 582.967,-81.0203 581.16,-82.7475 581.16,-82.7475 581.16,-82.7475 582.967,-81.0203 579.605,-81.1208 584.775,-79.2932 584.775,-79.2932"/>
</g>
<!-- v2&#45;&gt;v3 -->
<g id="edge22" class="edge"><title>v2&#45;&gt;v3</title>
<path fill="none" stroke="green" d="M35.9153,-22.2769C45.0914,-49.3331 70.8469,-121.582 89.5,-138 126.61,-170.664 186.498,-180.134 218.212,-182.879"/>
</g>
<!-- v2&#45;&gt;v13 -->
<g id="edge23" class="edge"><title>v2&#45;&gt;v13</title>
<path fill="none" stroke="green" d="M59.4186,-17.3357C67.7633,-18.9206 76.9991,-20.6046 85.5,-22 201.885,-41.1049 342.27,-59.0406 394.043,-65.4837"/>
</g>
<!-- v2&#45;&gt;v17 -->
<g id="edge24" class="edge"><title>v2&#45;&gt;v17</title>
<path fill="none" stroke="green" d="M58.837,-17.4875C67.3206,-19.1159 76.7821,-20.7865 85.5,-22 182.389,-35.4866 489.992,-59.8672 573.44,-66.3696"/>
</g>
<!-- v4 -->
<g id="v4_Visitor" class="node"><title>v4</title>
<ellipse fill="none" stroke="black" cx="131.5" cy="-127" rx="32.5" ry="11"/>
<text text-anchor="middle" x="131.5" y="-124.8" font-family="sans-serif" font-size="9.00">Visitor</text>
</g>
<!-- v3&#45;&gt;v4 -->
<g id="edge9" class="edge"><title>v3&#45;&gt;v4</title>
<path fill="none" stroke="black" d="M225.381,-176.679C206.882,-167.087 174.276,-150.18 152.778,-139.033"/>
<polygon fill="black" stroke="black" points="148.101,-136.608 153.576,-136.912 150.321,-137.759 152.54,-138.91 152.54,-138.91 152.54,-138.91 150.321,-137.759 151.504,-140.907 148.101,-136.608 148.101,-136.608"/>
</g>
<!-- v8 -->
<g id="v8_SmartLight" class="node"><title>v8</title>
<ellipse fill="none" stroke="black" cx="227.5" cy="-11" rx="43" ry="11"/>
<text text-anchor="middle" x="227.5" y="-8.8" font-family="sans-serif" font-size="9.00">SmartLight</text>
</g>
<!-- v3&#45;&gt;v8 -->
<g id="edge10" class="edge"><title>v3&#45;&gt;v8</title>
<path fill="none" stroke="black" d="M238.785,-173.756C236.764,-144.786 230.998,-62.1364 228.584,-27.5335"/>
<polygon fill="black" stroke="black" points="228.226,-22.4081 230.819,-27.2393 228.4,-24.902 228.574,-27.396 228.574,-27.396 228.574,-27.396 228.4,-24.902 226.33,-27.5526 228.226,-22.4081 228.226,-22.4081"/>
</g>
<!-- v4&#45;&gt;v5 -->
<g id="edge11" class="edge"><title>v4&#45;&gt;v5</title>
<path fill="none" stroke="black" d="M140.384,-116.246C148.647,-107.172 161.035,-93.5697 170.238,-83.4636"/>
<polygon fill="black" stroke="black" points="173.718,-79.6427 172.015,-84.8544 172.035,-81.491 170.352,-83.3394 170.352,-83.3394 170.352,-83.3394 172.035,-81.491 168.688,-81.8244 173.718,-79.6427 173.718,-79.6427"/>
</g>
<!-- v7 -->
<g id="v7_Software" class="node"><title>v7</title>
<ellipse fill="none" stroke="black" cx="130.5" cy="-11" rx="36" ry="11"/>
<text text-anchor="middle" x="130.5" y="-8.8" font-family="sans-serif" font-size="9.00">Software</text>
</g>
<!-- v5&#45;&gt;v7 -->
<g id="edge12" class="edge"><title>v5&#45;&gt;v7</title>
<path fill="none" stroke="black" d="M173.679,-58.5004C165.288,-49.4645 152.578,-35.7761 143.117,-25.5877"/>
<polygon fill="black" stroke="black" points="139.539,-21.7345 144.59,-23.8674 141.24,-23.5665 142.941,-25.3985 142.941,-25.3985 142.941,-25.3985 141.24,-23.5665 141.293,-26.9295 139.539,-21.7345 139.539,-21.7345"/>
</g>
<!-- v9 -->
<g id="v9_ConnectDevice" class="node"><title>v9</title>
<ellipse fill="none" stroke="black" cx="961.5" cy="-11" rx="54" ry="11"/>
<text text-anchor="middle" x="961.5" y="-8.8" font-family="sans-serif" font-size="9.00">ConnectDevice</text>
</g>
<!-- v6&#45;&gt;v9 -->
<g id="edge13" class="edge"><title>v6&#45;&gt;v9</title>
<path fill="none" stroke="black" d="M1115.01,-59.4948C1082.49,-49.4335 1028.42,-32.7054 993.899,-22.0239"/>
<polygon fill="black" stroke="black" points="988.952,-20.4933 994.393,-19.8217 991.34,-21.2323 993.728,-21.9712 993.728,-21.9712 993.728,-21.9712 991.34,-21.2323 993.063,-24.1207 988.952,-20.4933 988.952,-20.4933"/>
</g>
<!-- v10 -->
<g id="v10_GenerateData" class="node"><title>v10</title>
<ellipse fill="none" stroke="black" cx="1084.5" cy="-11" rx="50.5" ry="11"/>
<text text-anchor="middle" x="1084.5" y="-8.8" font-family="sans-serif" font-size="9.00">GenerateData</text>
</g>
<!-- v6&#45;&gt;v10 -->
<g id="edge14" class="edge"><title>v6&#45;&gt;v10</title>
<path fill="none" stroke="black" d="M1132.13,-57.9883C1122.73,-48.9101 1108.79,-35.4569 1098.42,-25.4439"/>
<polygon fill="black" stroke="black" points="1094.78,-21.925 1099.94,-23.7793 1096.58,-23.6615 1098.38,-25.398 1098.38,-25.398 1098.38,-25.398 1096.58,-23.6615 1096.81,-27.0167 1094.78,-21.925 1094.78,-21.925"/>
</g>
<!-- v11 -->
<g id="v11_CollectData" class="node"><title>v11</title>
<ellipse fill="none" stroke="black" cx="1200.5" cy="-11" rx="47" ry="11"/>
<text text-anchor="middle" x="1200.5" y="-8.8" font-family="sans-serif" font-size="9.00">CollectData</text>
</g>
<!-- v6&#45;&gt;v11 -->
<g id="edge15" class="edge"><title>v6&#45;&gt;v11</title>
<path fill="none" stroke="black" d="M1152.87,-57.9883C1162.27,-48.9101 1176.21,-35.4569 1186.58,-25.4439"/>
<polygon fill="black" stroke="black" points="1190.22,-21.925 1188.19,-27.0167 1188.42,-23.6615 1186.62,-25.398 1186.62,-25.398 1186.62,-25.398 1188.42,-23.6615 1185.06,-23.7793 1190.22,-21.925 1190.22,-21.925"/>
</g>
<!-- v12 -->
<g id="v12_SendSoftware" class="node"><title>v12</title>
<ellipse fill="none" stroke="black" cx="1316.5" cy="-11" rx="50.5" ry="11"/>
<text text-anchor="middle" x="1316.5" y="-8.8" font-family="sans-serif" font-size="9.00">SendSoftware</text>
</g>
<!-- v6&#45;&gt;v12 -->
<g id="edge16" class="edge"><title>v6&#45;&gt;v12</title>
<path fill="none" stroke="black" d="M1169.31,-59.3727C1200.52,-49.3254 1252.02,-32.7506 1285.09,-22.1088"/>
<polygon fill="black" stroke="black" points="1290.23,-20.4536 1286.16,-24.1273 1287.85,-21.2196 1285.47,-21.9855 1285.47,-21.9855 1285.47,-21.9855 1287.85,-21.2196 1284.78,-19.8437 1290.23,-20.4536 1290.23,-20.4536"/>
</g>
<!-- v8&#45;&gt;v20 -->
<g id="edge26" class="edge"><title>v8&#45;&gt;v20</title>
<path fill="none" stroke="green" d="M243.859,-21.2415C255.744,-28.0527 272.486,-36.3871 288.5,-40 388.433,-62.5455 648.636,-57.928 749.5,-40 769.495,-36.446 791.067,-28.2018 806.609,-21.4084"/>
</g>
<!-- v14 -->
<g id="v14_SmartLight" class="node"><title>v14</title>
<ellipse fill="none" stroke="black" cx="331.5" cy="-11" rx="43" ry="11"/>
<text text-anchor="middle" x="331.5" y="-8.8" font-family="sans-serif" font-size="9.00">SmartLight</text>
</g>
<!-- v13&#45;&gt;v14 -->
<g id="edge17" class="edge"><title>v13&#45;&gt;v14</title>
<path fill="none" stroke="black" d="M402.253,-59.737C388.404,-50.3929 365.711,-35.082 349.767,-24.325"/>
<polygon fill="black" stroke="black" points="345.463,-21.4205 350.866,-22.3519 347.535,-22.8188 349.607,-24.2171 349.607,-24.2171 349.607,-24.2171 347.535,-22.8188 348.349,-26.0822 345.463,-21.4205 345.463,-21.4205"/>
</g>
<!-- v15 -->
<g id="v15_HVAC" class="node"><title>v15</title>
<ellipse fill="none" stroke="black" cx="414.5" cy="-11" rx="21.5" ry="11"/>
<text text-anchor="middle" x="414.5" y="-8.8" font-family="sans-serif" font-size="9.00">HVAC</text>
</g>
<!-- v13&#45;&gt;v15 -->
<g id="edge18" class="edge"><title>v13&#45;&gt;v15</title>
<path fill="none" stroke="black" d="M414.5,-57.9883C414.5,-49.4941 414.5,-37.1697 414.5,-27.4169"/>
<polygon fill="black" stroke="black" points="414.5,-22.3039 416.75,-27.3038 414.5,-24.8039 414.5,-27.3039 414.5,-27.3039 414.5,-27.3039 414.5,-24.8039 412.25,-27.3039 414.5,-22.3039 414.5,-22.3039"/>
</g>
<!-- v16 -->
<g id="v16_FireAlarm" class="node"><title>v16</title>
<ellipse fill="none" stroke="black" cx="493.5" cy="-11" rx="39.5" ry="11"/>
<text text-anchor="middle" x="493.5" y="-8.8" font-family="sans-serif" font-size="9.00">FireAlarm</text>
</g>
<!-- v13&#45;&gt;v16 -->
<g id="edge19" class="edge"><title>v13&#45;&gt;v16</title>
<path fill="none" stroke="black" d="M426.157,-59.737C439.339,-50.3929 460.938,-35.082 476.113,-24.325"/>
<polygon fill="black" stroke="black" points="480.21,-21.4205 477.432,-26.1477 478.171,-22.8663 476.131,-24.3121 476.131,-24.3121 476.131,-24.3121 478.171,-22.8663 474.83,-22.4765 480.21,-21.4205 480.21,-21.4205"/>
</g>
<!-- v14&#45;&gt;v20 -->
<g id="edge27" class="edge"><title>v14&#45;&gt;v20</title>
<path fill="none" stroke="green" d="M347.859,-21.2415C359.744,-28.0527 376.486,-36.3871 392.5,-40 469.888,-57.4593 671.391,-53.8835 749.5,-40 769.495,-36.446 791.067,-28.2018 806.609,-21.4084"/>
</g>
<!-- v15&#45;&gt;v20 -->
<g id="edge28" class="edge"><title>v15&#45;&gt;v20</title>
<path fill="none" stroke="green" d="M424.047,-20.8905C431.37,-27.7237 442.126,-36.2346 453.5,-40 515.945,-60.6723 684.737,-51.5113 749.5,-40 769.495,-36.446 791.067,-28.2018 806.609,-21.4084"/>
</g>
<!-- v16&#45;&gt;v20 -->
<g id="edge29" class="edge"><title>v16&#45;&gt;v20</title>
<path fill="none" stroke="green" d="M508.985,-21.2364C520.252,-28.0452 536.16,-36.3788 551.5,-40 637.146,-60.2183 662.858,-55.4002 749.5,-40 769.495,-36.446 791.067,-28.2018 806.609,-21.4084"/>
</g>
<!-- v18 -->
<g id="v18_SmartLight" class="node"><title>v18</title>
<ellipse fill="none" stroke="black" cx="594.5" cy="-11" rx="43" ry="11"/>
<text text-anchor="middle" x="594.5" y="-8.8" font-family="sans-serif" font-size="9.00">SmartLight</text>
</g>
<!-- v17&#45;&gt;v18 -->
<g id="edge20" class="edge"><title>v17&#45;&gt;v18</title>
<path fill="none" stroke="black" d="M594.5,-57.9883C594.5,-49.4941 594.5,-37.1697 594.5,-27.4169"/>
<polygon fill="black" stroke="black" points="594.5,-22.3039 596.75,-27.3038 594.5,-24.8039 594.5,-27.3039 594.5,-27.3039 594.5,-27.3039 594.5,-24.8039 592.25,-27.3039 594.5,-22.3039 594.5,-22.3039"/>
</g>
<!-- v19 -->
<g id="v19_Workstation" class="node"><title>v19</title>
<ellipse fill="none" stroke="black" cx="702.5" cy="-11" rx="47" ry="11"/>
<text text-anchor="middle" x="702.5" y="-8.8" font-family="sans-serif" font-size="9.00">Workstation</text>
</g>
<!-- v17&#45;&gt;v19 -->
<g id="edge21" class="edge"><title>v17&#45;&gt;v19</title>
<path fill="none" stroke="black" d="M608.619,-60.679C626.692,-51.3076 658.232,-34.9536 679.722,-23.8106"/>
<polygon fill="black" stroke="black" points="684.416,-21.3771 681.013,-25.6762 682.196,-22.5279 679.977,-23.6787 679.977,-23.6787 679.977,-23.6787 682.196,-22.5279 678.941,-21.6813 684.416,-21.3771 684.416,-21.3771"/>
</g>
<!-- v18&#45;&gt;v20 -->
<g id="edge30" class="edge"><title>v18&#45;&gt;v20</title>
<path fill="none" stroke="green" d="M610.859,-21.2415C622.744,-28.0527 639.486,-36.3871 655.5,-40 696.254,-49.1942 708.367,-47.3112 749.5,-40 769.495,-36.446 791.067,-28.2018 806.609,-21.4084"/>
</g>
<!-- v19&#45;&gt;v20 -->
<g id="edge31" class="edge"><title>v19&#45;&gt;v20</title>
<path fill="none" stroke="green" d="M749.75,-11C755.595,-11 761.439,-11 767.284,-11"/>
</g>
</g>
</svg>
