<?xml version="1.0" encoding="UTF-8" standalone="no"?>
<?xml-stylesheet href="style.css" type="text/css"?>
<!DOCTYPE svg PUBLIC "-//W3C//DTD SVG 1.1//EN"
 "http://www.w3.org/Graphics/SVG/1.1/DTD/svg11.dtd">
<!-- Generated by graphviz version 2.38.0 (20140413.2041)
 -->
<!-- Title: 6.svg Pages: 1 -->
<svg width="1238pt" height="374pt"
 viewBox="0.00 0.00 1238.00 374.00" xmlns="http://www.w3.org/2000/svg" xmlns:xlink="http://www.w3.org/1999/xlink">
<g id="graph0" class="graph" transform="scale(1 1) rotate(0) translate(4 370)">
<title>6.svg</title>
<polygon fill="white" stroke="none" points="-4,4 -4,-370 1234,-370 1234,4 -4,4"/>
<!-- r0 -->
<g id="node1" class="node"><title>r0</title>
<polygon fill="none" stroke="black" stroke-dasharray="5,2" points="569,-366 546,-366 546,-348 569,-348 569,-366"/>
<text text-anchor="middle" x="557.5" y="-354.8" font-family="serif" font-size="9.00">0</text>
</g>
<!-- v0 -->
<g id="v0_Building" class="node"><title>v0</title>
<ellipse fill="none" stroke="black" cx="557.5" cy="-301" rx="36" ry="11"/>
<text text-anchor="middle" x="557.5" y="-298.8" font-family="sans-serif" font-size="9.00">Building</text>
</g>
<!-- r0&#45;&gt;v0 -->
<g id="edge1" class="edge"><title>r0&#45;&gt;v0</title>
<path fill="none" stroke="black" d="M557.5,-347.562C557.5,-339.453 557.5,-327.014 557.5,-317.181"/>
<polygon fill="black" stroke="black" points="557.5,-312.03 559.75,-317.03 557.5,-314.53 557.5,-317.03 557.5,-317.03 557.5,-317.03 557.5,-314.53 555.25,-317.03 557.5,-312.03 557.5,-312.03"/>
</g>
<!-- r1 -->
<g id="node2" class="node"><title>r1</title>
<polygon fill="none" stroke="black" stroke-dasharray="5,2" points="1075,-366 1052,-366 1052,-348 1075,-348 1075,-366"/>
<text text-anchor="middle" x="1063.5" y="-354.8" font-family="serif" font-size="9.00">1</text>
</g>
<!-- v7 -->
<g id="v7_RulesKeywords" class="node"><title>v7</title>
<ellipse fill="none" stroke="black" cx="1063.5" cy="-69" rx="54" ry="11"/>
<text text-anchor="middle" x="1063.5" y="-66.8" font-family="sans-serif" font-size="9.00">RulesKeywords</text>
</g>
<!-- r1&#45;&gt;v7 -->
<g id="edge2" class="edge"><title>r1&#45;&gt;v7</title>
<path fill="none" stroke="black" d="M1063.5,-347.849C1063.5,-329.373 1063.5,-282.889 1063.5,-244 1063.5,-244 1063.5,-244 1063.5,-184 1063.5,-148.604 1063.5,-107.026 1063.5,-85.1783"/>
<polygon fill="black" stroke="black" points="1063.5,-80.0648 1065.75,-85.0648 1063.5,-82.5648 1063.5,-85.0648 1063.5,-85.0648 1063.5,-85.0648 1063.5,-82.5648 1061.25,-85.0648 1063.5,-80.0648 1063.5,-80.0648"/>
</g>
<!-- e2 -->
<g id="node3" class="node"><title>e2</title>
</g>
<!-- v5 -->
<g id="v5_SmartLight" class="node"><title>v5</title>
<ellipse fill="none" stroke="black" cx="605.5" cy="-11" rx="43" ry="11"/>
<text text-anchor="middle" x="605.5" y="-8.8" font-family="sans-serif" font-size="9.00">SmartLight</text>
</g>
<!-- e2&#45;&gt;v5 -->
<g id="edge23" class="edge"><title>e2&#45;&gt;v5</title>
<path fill="none" stroke="green" d="M605.5,-64.1674C605.5,-55.5862 605.5,-34.5957 605.5,-22.0117"/>
<polygon fill="green" stroke="green" points="609,-67.3001 602,-67.2999 602,-65.8999 609,-65.9001 609,-67.3001"/>
<polyline fill="none" stroke="green" points="605.5,-68 605.5,-64.5 "/>
</g>
<!-- v1 -->
<g id="v1_Floor" class="node"><title>v1</title>
<ellipse fill="none" stroke="black" cx="324.5" cy="-243" rx="25" ry="11"/>
<text text-anchor="middle" x="324.5" y="-240.8" font-family="sans-serif" font-size="9.00">Floor</text>
</g>
<!-- v0&#45;&gt;v1 -->
<g id="edge3" class="edge"><title>v0&#45;&gt;v1</title>
<path fill="none" stroke="black" d="M530.772,-293.576C485.653,-282.732 394.953,-260.933 350.4,-250.225"/>
<polygon fill="black" stroke="black" points="345.459,-249.037 350.847,-248.018 347.89,-249.622 350.321,-250.206 350.321,-250.206 350.321,-250.206 347.89,-249.622 349.795,-252.394 345.459,-249.037 345.459,-249.037"/>
</g>
<!-- v6 -->
<g id="v6_InstallationBus" class="node"><title>v6</title>
<ellipse fill="none" stroke="black" cx="817.5" cy="-11" rx="61" ry="11"/>
<text text-anchor="middle" x="817.5" y="-8.8" font-family="sans-serif" font-size="9.00">InstallationBus</text>
</g>
<!-- v0&#45;&gt;v6 -->
<g id="edge4" class="edge"><title>v0&#45;&gt;v6</title>
<path fill="none" stroke="black" d="M592.201,-297.569C653.953,-291.154 776.5,-268.084 776.5,-186 776.5,-186 776.5,-186 776.5,-126 776.5,-88.4565 796.433,-47.8442 808.502,-26.6954"/>
<polygon fill="black" stroke="black" points="811.094,-22.2407 810.524,-27.694 809.837,-24.4017 808.58,-26.5627 808.58,-26.5627 808.58,-26.5627 809.837,-24.4017 806.635,-25.4313 811.094,-22.2407 811.094,-22.2407"/>
</g>
<!-- v2 -->
<g id="v2_Room" class="node"><title>v2</title>
<ellipse fill="none" stroke="black" cx="504.5" cy="-185" rx="21.5" ry="11"/>
<text text-anchor="middle" x="504.5" y="-182.8" font-family="sans-serif" font-size="9.00">Room</text>
</g>
<!-- v1&#45;&gt;v2 -->
<g id="edge5" class="edge"><title>v1&#45;&gt;v2</title>
<path fill="none" stroke="black" d="M344.106,-235.9C377.715,-225.444 446.146,-204.155 481.781,-193.068"/>
<polygon fill="black" stroke="black" points="486.793,-191.509 482.687,-195.143 484.406,-192.252 482.018,-192.994 482.018,-192.994 482.018,-192.994 484.406,-192.252 481.35,-190.846 486.793,-191.509 486.793,-191.509"/>
</g>
<!-- v8 -->
<g id="v8_Hallway" class="node"><title>v8</title>
<ellipse fill="none" stroke="black" cx="32.5" cy="-11" rx="32.5" ry="11"/>
<text text-anchor="middle" x="32.5" y="-8.8" font-family="sans-serif" font-size="9.00">Hallway</text>
</g>
<!-- v1&#45;&gt;v8 -->
<g id="edge6" class="edge"><title>v1&#45;&gt;v8</title>
<path fill="none" stroke="black" d="M309.799,-233.981C294.179,-225.26 268.963,-210.604 248.5,-196 167.586,-138.251 80.0204,-57.2139 46.5672,-25.4865"/>
<polygon fill="black" stroke="black" points="42.7599,-21.8667 47.9339,-23.6813 44.5717,-23.5893 46.3835,-25.3119 46.3835,-25.3119 46.3835,-25.3119 44.5717,-23.5893 44.8332,-26.9425 42.7599,-21.8667 42.7599,-21.8667"/>
</g>
<!-- v15 -->
<g id="v15_Room" class="node"><title>v15</title>
<ellipse fill="none" stroke="black" cx="140.5" cy="-69" rx="21.5" ry="11"/>
<text text-anchor="middle" x="140.5" y="-66.8" font-family="sans-serif" font-size="9.00">Room</text>
</g>
<!-- v1&#45;&gt;v15 -->
<g id="edge7" class="edge"><title>v1&#45;&gt;v15</title>
<path fill="none" stroke="black" d="M314.607,-232.753C283.763,-203.92 189.306,-115.623 154.001,-82.6207"/>
<polygon fill="black" stroke="black" points="149.997,-78.8778 155.186,-80.6486 151.824,-80.585 153.65,-82.2922 153.65,-82.2922 153.65,-82.2922 151.824,-80.585 152.113,-83.9359 149.997,-78.8778 149.997,-78.8778"/>
</g>
<!-- v17 -->
<g id="v17_Room" class="node"><title>v17</title>
<ellipse fill="none" stroke="black" cx="324.5" cy="-69" rx="21.5" ry="11"/>
<text text-anchor="middle" x="324.5" y="-66.8" font-family="sans-serif" font-size="9.00">Room</text>
</g>
<!-- v1&#45;&gt;v17 -->
<g id="edge8" class="edge"><title>v1&#45;&gt;v17</title>
<path fill="none" stroke="black" d="M324.5,-231.756C324.5,-202.786 324.5,-120.136 324.5,-85.5335"/>
<polygon fill="black" stroke="black" points="324.5,-80.4081 326.75,-85.408 324.5,-82.9081 324.5,-85.4081 324.5,-85.4081 324.5,-85.4081 324.5,-82.9081 322.25,-85.4081 324.5,-80.4081 324.5,-80.4081"/>
</g>
<!-- v3 -->
<g id="v3_Visitor" class="node"><title>v3</title>
<ellipse fill="none" stroke="black" cx="629.5" cy="-127" rx="32.5" ry="11"/>
<text text-anchor="middle" x="629.5" y="-124.8" font-family="sans-serif" font-size="9.00">Visitor</text>
</g>
<!-- v2&#45;&gt;v3 -->
<g id="edge9" class="edge"><title>v2&#45;&gt;v3</title>
<path fill="none" stroke="black" d="M519.827,-177.133C541.463,-167.44 581.13,-149.67 606.362,-138.366"/>
<polygon fill="black" stroke="black" points="611.207,-136.195 607.564,-140.293 608.925,-137.217 606.644,-138.24 606.644,-138.24 606.644,-138.24 608.925,-137.217 605.724,-136.186 611.207,-136.195 611.207,-136.195"/>
</g>
<!-- v2&#45;&gt;v5 -->
<g id="edge10" class="edge"><title>v2&#45;&gt;v5</title>
<path fill="none" stroke="black" d="M510.22,-174.26C527.084,-145.54 576.686,-61.0692 596.839,-26.749"/>
<polygon fill="black" stroke="black" points="599.592,-22.0619 599,-27.5128 598.326,-24.2177 597.06,-26.3735 597.06,-26.3735 597.06,-26.3735 598.326,-24.2177 595.119,-25.2342 599.592,-22.0619 599.592,-22.0619"/>
</g>
<!-- v2&#45;&gt;v8 -->
<g id="edge21" class="edge"><title>v2&#45;&gt;v8</title>
<path fill="none" stroke="green" d="M488.248,-177.612C440.024,-158.711 293.435,-101.659 170.5,-58 130.043,-43.6323 82.463,-28.0617 55.0607,-19.2216"/>
</g>
<!-- v10 -->
<g id="v10_HVAC" class="node"><title>v10</title>
<ellipse fill="none" stroke="black" cx="425.5" cy="-11" rx="21.5" ry="11"/>
<text text-anchor="middle" x="425.5" y="-8.8" font-family="sans-serif" font-size="9.00">HVAC</text>
</g>
<!-- v2&#45;&gt;v10 -->
<g id="edge11" class="edge"><title>v2&#45;&gt;v10</title>
<path fill="none" stroke="black" d="M499.911,-174.009C486.603,-145.034 447.945,-60.8671 432.245,-26.6863"/>
<polygon fill="black" stroke="black" points="430.102,-22.0185 434.233,-25.623 431.145,-24.2903 432.188,-26.5621 432.188,-26.5621 432.188,-26.5621 431.145,-24.2903 430.144,-27.5013 430.102,-22.0185 430.102,-22.0185"/>
</g>
<!-- v11 -->
<g id="v11_FireAlarm" class="node"><title>v11</title>
<ellipse fill="none" stroke="black" cx="504.5" cy="-11" rx="39.5" ry="11"/>
<text text-anchor="middle" x="504.5" y="-8.8" font-family="sans-serif" font-size="9.00">FireAlarm</text>
</g>
<!-- v2&#45;&gt;v11 -->
<g id="edge12" class="edge"><title>v2&#45;&gt;v11</title>
<path fill="none" stroke="black" d="M504.5,-173.756C504.5,-144.786 504.5,-62.1364 504.5,-27.5335"/>
<polygon fill="black" stroke="black" points="504.5,-22.4081 506.75,-27.408 504.5,-24.9081 504.5,-27.4081 504.5,-27.4081 504.5,-27.4081 504.5,-24.9081 502.25,-27.4081 504.5,-22.4081 504.5,-22.4081"/>
</g>
<!-- v4 -->
<g id="v4_Laptop" class="node"><title>v4</title>
<ellipse fill="none" stroke="black" cx="678.5" cy="-69" rx="29" ry="11"/>
<text text-anchor="middle" x="678.5" y="-66.8" font-family="sans-serif" font-size="9.00">Laptop</text>
</g>
<!-- v3&#45;&gt;v4 -->
<g id="edge13" class="edge"><title>v3&#45;&gt;v4</title>
<path fill="none" stroke="black" d="M638.035,-116.246C645.975,-107.172 657.877,-93.5697 666.719,-83.4636"/>
<polygon fill="black" stroke="black" points="670.063,-79.6427 668.463,-84.8872 668.416,-81.5241 666.77,-83.4056 666.77,-83.4056 666.77,-83.4056 668.416,-81.5241 665.077,-81.9239 670.063,-79.6427 670.063,-79.6427"/>
</g>
<!-- v4&#45;&gt;v6 -->
<g id="edge22" class="edge"><title>v4&#45;&gt;v6</title>
<path fill="none" stroke="green" d="M697.246,-60.4476C722.441,-50.297 767.204,-32.2633 794.435,-21.2924"/>
</g>
<!-- v9 -->
<g id="v9_Software" class="node"><title>v9</title>
<ellipse fill="none" stroke="black" cx="702.5" cy="-11" rx="36" ry="11"/>
<text text-anchor="middle" x="702.5" y="-8.8" font-family="sans-serif" font-size="9.00">Software</text>
</g>
<!-- v4&#45;&gt;v9 -->
<g id="edge14" class="edge"><title>v4&#45;&gt;v9</title>
<path fill="none" stroke="black" d="M682.791,-57.9883C686.511,-49.3083 691.945,-36.6286 696.165,-26.7806"/>
<polygon fill="black" stroke="black" points="698.246,-21.925 698.345,-27.4071 697.262,-24.2229 696.277,-26.5207 696.277,-26.5207 696.277,-26.5207 697.262,-24.2229 694.209,-25.6344 698.246,-21.925 698.246,-21.925"/>
</g>
<!-- v6&#45;&gt;v10 -->
<g id="edge24" class="edge"><title>v6&#45;&gt;v10</title>
<path fill="none" stroke="green" d="M795.609,-21.4084C780.067,-28.2018 758.495,-36.446 738.5,-40 678.551,-50.6557 522.304,-59.1359 464.5,-40 453.126,-36.2346 442.37,-27.7237 435.047,-20.8905"/>
</g>
<!-- v6&#45;&gt;v11 -->
<g id="edge25" class="edge"><title>v6&#45;&gt;v11</title>
<path fill="none" stroke="green" d="M795.609,-21.4084C780.067,-28.2018 758.495,-36.446 738.5,-40 661.485,-53.6891 638.63,-57.9718 562.5,-40 547.16,-36.3788 531.252,-28.0452 519.985,-21.2364"/>
</g>
<!-- v16 -->
<g id="v16_SmartLight" class="node"><title>v16</title>
<ellipse fill="none" stroke="black" cx="126.5" cy="-11" rx="43" ry="11"/>
<text text-anchor="middle" x="126.5" y="-8.8" font-family="sans-serif" font-size="9.00">SmartLight</text>
</g>
<!-- v6&#45;&gt;v16 -->
<g id="edge26" class="edge"><title>v6&#45;&gt;v16</title>
<path fill="none" stroke="green" d="M795.609,-21.4084C780.067,-28.2018 758.495,-36.446 738.5,-40 678.223,-50.714 247.221,-53.4735 187.5,-40 171.486,-36.3871 154.744,-28.0527 142.859,-21.2415"/>
</g>
<!-- v18 -->
<g id="v18_SmartLight" class="node"><title>v18</title>
<ellipse fill="none" stroke="black" cx="230.5" cy="-11" rx="43" ry="11"/>
<text text-anchor="middle" x="230.5" y="-8.8" font-family="sans-serif" font-size="9.00">SmartLight</text>
</g>
<!-- v6&#45;&gt;v18 -->
<g id="edge27" class="edge"><title>v6&#45;&gt;v18</title>
<path fill="none" stroke="green" d="M795.609,-21.4084C780.067,-28.2018 758.495,-36.446 738.5,-40 640.7,-57.3836 388.398,-61.8608 291.5,-40 275.486,-36.3871 258.744,-28.0527 246.859,-21.2415"/>
</g>
<!-- v19 -->
<g id="v19_Workstation" class="node"><title>v19</title>
<ellipse fill="none" stroke="black" cx="338.5" cy="-11" rx="47" ry="11"/>
<text text-anchor="middle" x="338.5" y="-8.8" font-family="sans-serif" font-size="9.00">Workstation</text>
</g>
<!-- v6&#45;&gt;v19 -->
<g id="edge28" class="edge"><title>v6&#45;&gt;v19</title>
<path fill="none" stroke="green" d="M795.609,-21.4084C780.067,-28.2018 758.495,-36.446 738.5,-40 665.204,-53.028 476.312,-55.506 403.5,-40 386.58,-36.3967 368.726,-28.0614 356.021,-21.2474"/>
</g>
<!-- v12 -->
<g id="v12_GenerateData" class="node"><title>v12</title>
<ellipse fill="none" stroke="black" cx="947.5" cy="-11" rx="50.5" ry="11"/>
<text text-anchor="middle" x="947.5" y="-8.8" font-family="sans-serif" font-size="9.00">GenerateData</text>
</g>
<!-- v7&#45;&gt;v12 -->
<g id="edge15" class="edge"><title>v7&#45;&gt;v12</title>
<path fill="none" stroke="black" d="M1044.08,-58.6269C1024.06,-48.9585 992.797,-33.8675 971.295,-23.4873"/>
<polygon fill="black" stroke="black" points="966.593,-21.2174 972.074,-21.3649 968.844,-22.3043 971.096,-23.3912 971.096,-23.3912 971.096,-23.3912 968.844,-22.3043 970.118,-25.4174 966.593,-21.2174 966.593,-21.2174"/>
</g>
<!-- v13 -->
<g id="v13_CollectData" class="node"><title>v13</title>
<ellipse fill="none" stroke="black" cx="1063.5" cy="-11" rx="47" ry="11"/>
<text text-anchor="middle" x="1063.5" y="-8.8" font-family="sans-serif" font-size="9.00">CollectData</text>
</g>
<!-- v7&#45;&gt;v13 -->
<g id="edge16" class="edge"><title>v7&#45;&gt;v13</title>
<path fill="none" stroke="black" d="M1063.5,-57.9883C1063.5,-49.4941 1063.5,-37.1697 1063.5,-27.4169"/>
<polygon fill="black" stroke="black" points="1063.5,-22.3039 1065.75,-27.3038 1063.5,-24.8039 1063.5,-27.3039 1063.5,-27.3039 1063.5,-27.3039 1063.5,-24.8039 1061.25,-27.3039 1063.5,-22.3039 1063.5,-22.3039"/>
</g>
<!-- v14 -->
<g id="v14_SendSoftware" class="node"><title>v14</title>
<ellipse fill="none" stroke="black" cx="1179.5" cy="-11" rx="50.5" ry="11"/>
<text text-anchor="middle" x="1179.5" y="-8.8" font-family="sans-serif" font-size="9.00">SendSoftware</text>
</g>
<!-- v7&#45;&gt;v14 -->
<g id="edge17" class="edge"><title>v7&#45;&gt;v14</title>
<path fill="none" stroke="black" d="M1082.92,-58.6269C1102.94,-48.9585 1134.2,-33.8675 1155.7,-23.4873"/>
<polygon fill="black" stroke="black" points="1160.41,-21.2174 1156.88,-25.4174 1158.16,-22.3043 1155.9,-23.3912 1155.9,-23.3912 1155.9,-23.3912 1158.16,-22.3043 1154.93,-21.3649 1160.41,-21.2174 1160.41,-21.2174"/>
</g>
<!-- v8&#45;&gt;v15 -->
<g id="edge29" class="edge"><title>v8&#45;&gt;v15</title>
<path fill="none" stroke="green" d="M49.1014,-20.6082C70.2633,-31.581 106.483,-50.3617 126.381,-60.679"/>
</g>
<!-- v8&#45;&gt;v17 -->
<g id="edge30" class="edge"><title>v8&#45;&gt;v17</title>
<path fill="none" stroke="green" d="M57.3258,-18.1357C62.96,-19.4655 68.926,-20.8245 74.5,-22 159.783,-39.9863 262.274,-57.5989 304.662,-64.7093"/>
</g>
<!-- v15&#45;&gt;v16 -->
<g id="edge18" class="edge"><title>v15&#45;&gt;v16</title>
<path fill="none" stroke="black" d="M137.997,-57.9883C135.874,-49.4941 132.792,-37.1697 130.354,-27.4169"/>
<polygon fill="black" stroke="black" points="129.076,-22.3039 132.472,-26.6089 129.682,-24.7292 130.289,-27.1546 130.289,-27.1546 130.289,-27.1546 129.682,-24.7292 128.106,-27.7003 129.076,-22.3039 129.076,-22.3039"/>
</g>
<!-- v17&#45;&gt;v18 -->
<g id="edge19" class="edge"><title>v17&#45;&gt;v18</title>
<path fill="none" stroke="black" d="M311.43,-60.2134C295.711,-50.849 269.15,-35.0258 250.766,-24.0734"/>
<polygon fill="black" stroke="black" points="246.28,-21.4008 251.727,-22.0268 248.428,-22.6803 250.575,-23.9598 250.575,-23.9598 250.575,-23.9598 248.428,-22.6803 249.424,-25.8928 246.28,-21.4008 246.28,-21.4008"/>
</g>
<!-- v17&#45;&gt;v19 -->
<g id="edge20" class="edge"><title>v17&#45;&gt;v19</title>
<path fill="none" stroke="black" d="M327.003,-57.9883C329.126,-49.4941 332.208,-37.1697 334.646,-27.4169"/>
<polygon fill="black" stroke="black" points="335.924,-22.3039 336.894,-27.7003 335.318,-24.7292 334.711,-27.1546 334.711,-27.1546 334.711,-27.1546 335.318,-24.7292 332.528,-26.6089 335.924,-22.3039 335.924,-22.3039"/>
</g>
</g>
</svg>
