<?xml version="1.0" encoding="UTF-8" standalone="no"?>
<?xml-stylesheet href="style.css" type="text/css"?>
<!DOCTYPE svg PUBLIC "-//W3C//DTD SVG 1.1//EN"
 "http://www.w3.org/Graphics/SVG/1.1/DTD/svg11.dtd">
<!-- Generated by graphviz version 2.38.0 (20140413.2041)
 -->
<!-- Title: 9.svg Pages: 1 -->
<svg width="1202pt" height="374pt"
 viewBox="0.00 0.00 1201.50 374.00" xmlns="http://www.w3.org/2000/svg" xmlns:xlink="http://www.w3.org/1999/xlink">
<g id="graph0" class="graph" transform="scale(1 1) rotate(0) translate(4 370)">
<title>9.svg</title>
<polygon fill="white" stroke="none" points="-4,4 -4,-370 1197.5,-370 1197.5,4 -4,4"/>
<!-- r0 -->
<g id="node1" class="node"><title>r0</title>
<polygon fill="none" stroke="black" stroke-dasharray="5,2" points="278.5,-366 255.5,-366 255.5,-348 278.5,-348 278.5,-366"/>
<text text-anchor="middle" x="267" y="-354.8" font-family="serif" font-size="9.00">0</text>
</g>
<!-- v0 -->
<g id="v0_Building" class="node"><title>v0</title>
<ellipse fill="none" stroke="black" cx="267" cy="-301" rx="36" ry="11"/>
<text text-anchor="middle" x="267" y="-298.8" font-family="sans-serif" font-size="9.00">Building</text>
</g>
<!-- r0&#45;&gt;v0 -->
<g id="edge1" class="edge"><title>r0&#45;&gt;v0</title>
<path fill="none" stroke="black" d="M267,-347.562C267,-339.453 267,-327.014 267,-317.181"/>
<polygon fill="black" stroke="black" points="267,-312.03 269.25,-317.03 267,-314.53 267,-317.03 267,-317.03 267,-317.03 267,-314.53 264.75,-317.03 267,-312.03 267,-312.03"/>
</g>
<!-- r1 -->
<g id="node2" class="node"><title>r1</title>
<polygon fill="none" stroke="black" stroke-dasharray="5,2" points="1038.5,-366 1015.5,-366 1015.5,-348 1038.5,-348 1038.5,-366"/>
<text text-anchor="middle" x="1027" y="-354.8" font-family="serif" font-size="9.00">1</text>
</g>
<!-- v3 -->
<g id="v3_RulesKeywords" class="node"><title>v3</title>
<ellipse fill="none" stroke="black" cx="1027" cy="-69" rx="54" ry="11"/>
<text text-anchor="middle" x="1027" y="-66.8" font-family="sans-serif" font-size="9.00">RulesKeywords</text>
</g>
<!-- r1&#45;&gt;v3 -->
<g id="edge2" class="edge"><title>r1&#45;&gt;v3</title>
<path fill="none" stroke="black" d="M1027,-347.849C1027,-329.373 1027,-282.889 1027,-244 1027,-244 1027,-244 1027,-184 1027,-148.604 1027,-107.026 1027,-85.1783"/>
<polygon fill="black" stroke="black" points="1027,-80.0648 1029.25,-85.0648 1027,-82.5648 1027,-85.0648 1027,-85.0648 1027,-85.0648 1027,-82.5648 1024.75,-85.0648 1027,-80.0648 1027,-80.0648"/>
</g>
<!-- e9 -->
<g id="node3" class="node"><title>e9</title>
</g>
<!-- v8 -->
<g id="v8_Laptop" class="node"><title>v8</title>
<ellipse fill="none" stroke="black" cx="320" cy="-69" rx="29" ry="11"/>
<text text-anchor="middle" x="320" y="-66.8" font-family="sans-serif" font-size="9.00">Laptop</text>
</g>
<!-- e9&#45;&gt;v8 -->
<g id="edge31" class="edge"><title>e9&#45;&gt;v8</title>
<path fill="none" stroke="green" d="M320,-122.167C320,-113.586 320,-92.5957 320,-80.0117"/>
<polygon fill="green" stroke="green" points="323.5,-125.3 316.5,-125.3 316.5,-123.9 323.5,-123.9 323.5,-125.3"/>
<polyline fill="none" stroke="green" points="320,-126 320,-122.5 "/>
</g>
<!-- v1 -->
<g id="v1_InstallationBus" class="node"><title>v1</title>
<ellipse fill="none" stroke="black" cx="61" cy="-69" rx="61" ry="11"/>
<text text-anchor="middle" x="61" y="-66.8" font-family="sans-serif" font-size="9.00">InstallationBus</text>
</g>
<!-- v0&#45;&gt;v1 -->
<g id="edge3" class="edge"><title>v0&#45;&gt;v1</title>
<path fill="none" stroke="black" d="M258.148,-290.117C225.472,-253.633 111.554,-126.443 73.4919,-83.9473"/>
<polygon fill="black" stroke="black" points="70.0506,-80.105 75.0625,-82.3284 71.7185,-81.9673 73.3865,-83.8296 73.3865,-83.8296 73.3865,-83.8296 71.7185,-81.9673 71.7104,-85.3307 70.0506,-80.105 70.0506,-80.105"/>
</g>
<!-- v4 -->
<g id="v4_Floor" class="node"><title>v4</title>
<ellipse fill="none" stroke="black" cx="446" cy="-243" rx="25" ry="11"/>
<text text-anchor="middle" x="446" y="-240.8" font-family="sans-serif" font-size="9.00">Floor</text>
</g>
<!-- v0&#45;&gt;v4 -->
<g id="edge4" class="edge"><title>v0&#45;&gt;v4</title>
<path fill="none" stroke="black" d="M290.77,-292.564C324.851,-281.901 387.274,-262.372 421.666,-251.613"/>
<polygon fill="black" stroke="black" points="426.53,-250.091 422.43,-253.732 424.144,-250.838 421.758,-251.584 421.758,-251.584 421.758,-251.584 424.144,-250.838 421.086,-249.437 426.53,-250.091 426.53,-250.091"/>
</g>
<!-- v2 -->
<g id="v2_Data" class="node"><title>v2</title>
<ellipse fill="none" stroke="black" cx="57" cy="-11" rx="21.5" ry="11"/>
<text text-anchor="middle" x="57" y="-8.8" font-family="sans-serif" font-size="9.00">Data</text>
</g>
<!-- v1&#45;&gt;v2 -->
<g id="edge5" class="edge"><title>v1&#45;&gt;v2</title>
<path fill="none" stroke="black" d="M60.2849,-57.9883C59.6781,-49.4941 58.7978,-37.1697 58.1012,-27.4169"/>
<polygon fill="black" stroke="black" points="57.736,-22.3039 60.3366,-27.1308 57.9142,-24.7975 58.0923,-27.2912 58.0923,-27.2912 58.0923,-27.2912 57.9142,-24.7975 55.848,-27.4515 57.736,-22.3039 57.736,-22.3039"/>
</g>
<!-- v10 -->
<g id="v10_SmartLight" class="node"><title>v10</title>
<ellipse fill="none" stroke="black" cx="140" cy="-11" rx="43" ry="11"/>
<text text-anchor="middle" x="140" y="-8.8" font-family="sans-serif" font-size="9.00">SmartLight</text>
</g>
<!-- v1&#45;&gt;v10 -->
<g id="edge22" class="edge"><title>v1&#45;&gt;v10</title>
<path fill="none" stroke="green" d="M74.7607,-58.2455C89.2607,-47.9671 111.957,-31.8787 126.397,-21.6427"/>
</g>
<!-- v11 -->
<g id="v11_Workstation" class="node"><title>v11</title>
<ellipse fill="none" stroke="black" cx="248" cy="-11" rx="47" ry="11"/>
<text text-anchor="middle" x="248" y="-8.8" font-family="sans-serif" font-size="9.00">Workstation</text>
</g>
<!-- v1&#45;&gt;v11 -->
<g id="edge23" class="edge"><title>v1&#45;&gt;v11</title>
<path fill="none" stroke="green" d="M90.2188,-59.25C126.069,-48.5142 186.356,-30.4603 221.108,-20.0532"/>
</g>
<!-- v16 -->
<g id="v16_SmartLight" class="node"><title>v16</title>
<ellipse fill="none" stroke="black" cx="446" cy="-11" rx="43" ry="11"/>
<text text-anchor="middle" x="446" y="-8.8" font-family="sans-serif" font-size="9.00">SmartLight</text>
</g>
<!-- v1&#45;&gt;v16 -->
<g id="edge24" class="edge"><title>v1&#45;&gt;v16</title>
<path fill="none" stroke="green" d="M109.096,-62.1645C173.944,-54.1121 292.944,-38.6849 394,-22 400.531,-20.9218 407.501,-19.659 414.147,-18.4008"/>
</g>
<!-- v18 -->
<g id="v18_SmartLight" class="node"><title>v18</title>
<ellipse fill="none" stroke="black" cx="648" cy="-11" rx="43" ry="11"/>
<text text-anchor="middle" x="648" y="-8.8" font-family="sans-serif" font-size="9.00">SmartLight</text>
</g>
<!-- v1&#45;&gt;v18 -->
<g id="edge25" class="edge"><title>v1&#45;&gt;v18</title>
<path fill="none" stroke="green" d="M114.637,-63.6884C240.608,-53.5179 548.271,-28.4045 595,-22 601.958,-21.0464 609.388,-19.7932 616.416,-18.4979"/>
</g>
<!-- v19 -->
<g id="v19_HVAC" class="node"><title>v19</title>
<ellipse fill="none" stroke="black" cx="731" cy="-11" rx="21.5" ry="11"/>
<text text-anchor="middle" x="731" y="-8.8" font-family="sans-serif" font-size="9.00">HVAC</text>
</g>
<!-- v1&#45;&gt;v19 -->
<g id="edge26" class="edge"><title>v1&#45;&gt;v19</title>
<path fill="none" stroke="green" d="M114.33,-63.659C136.765,-61.861 163.148,-59.7834 187,-58 414.925,-40.9584 475.598,-65.4017 700,-22 704.775,-21.0765 709.84,-19.6449 714.462,-18.1509"/>
</g>
<!-- v20 -->
<g id="v20_FireAlarm" class="node"><title>v20</title>
<ellipse fill="none" stroke="black" cx="547" cy="-11" rx="39.5" ry="11"/>
<text text-anchor="middle" x="547" y="-8.8" font-family="sans-serif" font-size="9.00">FireAlarm</text>
</g>
<!-- v1&#45;&gt;v20 -->
<g id="edge27" class="edge"><title>v1&#45;&gt;v20</title>
<path fill="none" stroke="green" d="M115.378,-63.9719C198.244,-57.4514 360.97,-43.1444 498,-22 504.436,-21.007 511.306,-19.7375 517.804,-18.4388"/>
</g>
<!-- v12 -->
<g id="v12_ConnectDevice" class="node"><title>v12</title>
<ellipse fill="none" stroke="black" cx="908" cy="-11" rx="54" ry="11"/>
<text text-anchor="middle" x="908" y="-8.8" font-family="sans-serif" font-size="9.00">ConnectDevice</text>
</g>
<!-- v3&#45;&gt;v12 -->
<g id="edge6" class="edge"><title>v3&#45;&gt;v12</title>
<path fill="none" stroke="black" d="M1007.35,-58.7527C986.765,-49.0659 954.404,-33.837 932.245,-23.4095"/>
<polygon fill="black" stroke="black" points="927.68,-21.261 933.162,-21.3542 929.942,-22.3255 932.204,-23.39 932.204,-23.39 932.204,-23.39 929.942,-22.3255 931.246,-25.4259 927.68,-21.261 927.68,-21.261"/>
</g>
<!-- v13 -->
<g id="v13_CollectData" class="node"><title>v13</title>
<ellipse fill="none" stroke="black" cx="1027" cy="-11" rx="47" ry="11"/>
<text text-anchor="middle" x="1027" y="-8.8" font-family="sans-serif" font-size="9.00">CollectData</text>
</g>
<!-- v3&#45;&gt;v13 -->
<g id="edge7" class="edge"><title>v3&#45;&gt;v13</title>
<path fill="none" stroke="black" d="M1027,-57.9883C1027,-49.4941 1027,-37.1697 1027,-27.4169"/>
<polygon fill="black" stroke="black" points="1027,-22.3039 1029.25,-27.3038 1027,-24.8039 1027,-27.3039 1027,-27.3039 1027,-27.3039 1027,-24.8039 1024.75,-27.3039 1027,-22.3039 1027,-22.3039"/>
</g>
<!-- v14 -->
<g id="v14_SendSoftware" class="node"><title>v14</title>
<ellipse fill="none" stroke="black" cx="1143" cy="-11" rx="50.5" ry="11"/>
<text text-anchor="middle" x="1143" y="-8.8" font-family="sans-serif" font-size="9.00">SendSoftware</text>
</g>
<!-- v3&#45;&gt;v14 -->
<g id="edge8" class="edge"><title>v3&#45;&gt;v14</title>
<path fill="none" stroke="black" d="M1046.42,-58.6269C1066.44,-48.9585 1097.7,-33.8675 1119.2,-23.4873"/>
<polygon fill="black" stroke="black" points="1123.91,-21.2174 1120.38,-25.4174 1121.66,-22.3043 1119.4,-23.3912 1119.4,-23.3912 1119.4,-23.3912 1121.66,-22.3043 1118.43,-21.3649 1123.91,-21.2174 1123.91,-21.2174"/>
</g>
<!-- v5 -->
<g id="v5_Hallway" class="node"><title>v5</title>
<ellipse fill="none" stroke="black" cx="803" cy="-11" rx="32.5" ry="11"/>
<text text-anchor="middle" x="803" y="-8.8" font-family="sans-serif" font-size="9.00">Hallway</text>
</g>
<!-- v4&#45;&gt;v5 -->
<g id="edge9" class="edge"><title>v4&#45;&gt;v5</title>
<path fill="none" stroke="black" d="M459.129,-233.541C513.551,-198.48 721.511,-64.4998 784.689,-23.7969"/>
<polygon fill="black" stroke="black" points="788.984,-21.0301 785.999,-25.6295 786.882,-22.3841 784.781,-23.7381 784.781,-23.7381 784.781,-23.7381 786.882,-22.3841 783.562,-21.8466 788.984,-21.0301 788.984,-21.0301"/>
</g>
<!-- v6 -->
<g id="v6_Room" class="node"><title>v6</title>
<ellipse fill="none" stroke="black" cx="314" cy="-185" rx="21.5" ry="11"/>
<text text-anchor="middle" x="314" y="-182.8" font-family="sans-serif" font-size="9.00">Room</text>
</g>
<!-- v4&#45;&gt;v6 -->
<g id="edge10" class="edge"><title>v4&#45;&gt;v6</title>
<path fill="none" stroke="black" d="M429.014,-234.794C404.76,-224.504 360.275,-205.632 334.311,-194.617"/>
<polygon fill="black" stroke="black" points="329.688,-192.656 335.17,-192.537 331.989,-193.632 334.291,-194.608 334.291,-194.608 334.291,-194.608 331.989,-193.632 333.412,-196.68 329.688,-192.656 329.688,-192.656"/>
</g>
<!-- v15 -->
<g id="v15_Room" class="node"><title>v15</title>
<ellipse fill="none" stroke="black" cx="446" cy="-69" rx="21.5" ry="11"/>
<text text-anchor="middle" x="446" y="-66.8" font-family="sans-serif" font-size="9.00">Room</text>
</g>
<!-- v4&#45;&gt;v15 -->
<g id="edge11" class="edge"><title>v4&#45;&gt;v15</title>
<path fill="none" stroke="black" d="M446,-231.756C446,-202.786 446,-120.136 446,-85.5335"/>
<polygon fill="black" stroke="black" points="446,-80.4081 448.25,-85.408 446,-82.9081 446,-85.4081 446,-85.4081 446,-85.4081 446,-82.9081 443.75,-85.4081 446,-80.4081 446,-80.4081"/>
</g>
<!-- v17 -->
<g id="v17_Room" class="node"><title>v17</title>
<ellipse fill="none" stroke="black" cx="597" cy="-69" rx="21.5" ry="11"/>
<text text-anchor="middle" x="597" y="-66.8" font-family="sans-serif" font-size="9.00">Room</text>
</g>
<!-- v4&#45;&gt;v17 -->
<g id="edge12" class="edge"><title>v4&#45;&gt;v17</title>
<path fill="none" stroke="black" d="M454.334,-232.508C479.762,-203.543 556.395,-116.251 585.562,-83.0291"/>
<polygon fill="black" stroke="black" points="588.877,-79.2532 587.269,-84.4951 587.227,-81.1319 585.578,-83.0107 585.578,-83.0107 585.578,-83.0107 587.227,-81.1319 583.887,-81.5262 588.877,-79.2532 588.877,-79.2532"/>
</g>
<!-- v5&#45;&gt;v6 -->
<g id="edge28" class="edge"><title>v5&#45;&gt;v6</title>
<path fill="none" stroke="green" d="M778.7,-18.4768C772.933,-19.8215 766.777,-21.101 761,-22 708.262,-30.2069 318.298,-18.8714 282,-58 250.841,-91.5888 289.22,-151.137 306.447,-174.353"/>
</g>
<!-- v5&#45;&gt;v15 -->
<g id="edge29" class="edge"><title>v5&#45;&gt;v15</title>
<path fill="none" stroke="green" d="M778.205,-18.2888C772.569,-19.6107 766.595,-20.9276 761,-22 650.813,-43.1198 517.304,-59.6697 466.746,-65.6171"/>
</g>
<!-- v5&#45;&gt;v17 -->
<g id="edge30" class="edge"><title>v5&#45;&gt;v17</title>
<path fill="none" stroke="green" d="M779.135,-18.4876C737.53,-29.7977 652.601,-52.8852 615.281,-63.0304"/>
</g>
<!-- v7 -->
<g id="v7_Visitor" class="node"><title>v7</title>
<ellipse fill="none" stroke="black" cx="371" cy="-127" rx="32.5" ry="11"/>
<text text-anchor="middle" x="371" y="-124.8" font-family="sans-serif" font-size="9.00">Visitor</text>
</g>
<!-- v6&#45;&gt;v7 -->
<g id="edge13" class="edge"><title>v6&#45;&gt;v7</title>
<path fill="none" stroke="black" d="M323.158,-175.003C332.463,-165.861 346.977,-151.601 357.58,-141.185"/>
<polygon fill="black" stroke="black" points="361.292,-137.537 359.303,-142.646 359.509,-139.289 357.726,-141.041 357.726,-141.041 357.726,-141.041 359.509,-139.289 356.149,-139.436 361.292,-137.537 361.292,-137.537"/>
</g>
<!-- v6&#45;&gt;v10 -->
<g id="edge14" class="edge"><title>v6&#45;&gt;v10</title>
<path fill="none" stroke="black" d="M293.367,-181.226C266.919,-176.653 221.129,-165.165 193,-138 160.807,-106.911 147.283,-53.2492 142.393,-27.1432"/>
<polygon fill="black" stroke="black" points="141.477,-22.0087 144.57,-26.5357 141.916,-24.4698 142.355,-26.931 142.355,-26.931 142.355,-26.931 141.916,-24.4698 140.14,-27.3262 141.477,-22.0087 141.477,-22.0087"/>
</g>
<!-- v6&#45;&gt;v11 -->
<g id="edge15" class="edge"><title>v6&#45;&gt;v11</title>
<path fill="none" stroke="black" d="M310.166,-174.009C299.094,-145.153 267.016,-61.5561 253.798,-27.1091"/>
<polygon fill="black" stroke="black" points="251.844,-22.0185 255.736,-25.8805 252.74,-24.3525 253.636,-26.6866 253.636,-26.6866 253.636,-26.6866 252.74,-24.3525 251.535,-27.4927 251.844,-22.0185 251.844,-22.0185"/>
</g>
<!-- v7&#45;&gt;v8 -->
<g id="edge16" class="edge"><title>v7&#45;&gt;v8</title>
<path fill="none" stroke="black" d="M362.116,-116.246C353.853,-107.172 341.465,-93.5697 332.262,-83.4636"/>
<polygon fill="black" stroke="black" points="328.782,-79.6427 333.812,-81.8244 330.465,-81.491 332.148,-83.3394 332.148,-83.3394 332.148,-83.3394 330.465,-81.491 330.485,-84.8544 328.782,-79.6427 328.782,-79.6427"/>
</g>
<!-- v9 -->
<g id="v9_Software" class="node"><title>v9</title>
<ellipse fill="none" stroke="black" cx="349" cy="-11" rx="36" ry="11"/>
<text text-anchor="middle" x="349" y="-8.8" font-family="sans-serif" font-size="9.00">Software</text>
</g>
<!-- v8&#45;&gt;v9 -->
<g id="edge17" class="edge"><title>v8&#45;&gt;v9</title>
<path fill="none" stroke="black" d="M325.185,-57.9883C329.721,-49.2286 336.367,-36.3956 341.486,-26.5103"/>
<polygon fill="black" stroke="black" points="343.86,-21.925 343.559,-27.3997 342.711,-24.145 341.561,-26.365 341.561,-26.365 341.561,-26.365 342.711,-24.145 339.563,-25.3303 343.86,-21.925 343.86,-21.925"/>
</g>
<!-- v15&#45;&gt;v16 -->
<g id="edge18" class="edge"><title>v15&#45;&gt;v16</title>
<path fill="none" stroke="black" d="M446,-57.9883C446,-49.4941 446,-37.1697 446,-27.4169"/>
<polygon fill="black" stroke="black" points="446,-22.3039 448.25,-27.3038 446,-24.8039 446,-27.3039 446,-27.3039 446,-27.3039 446,-24.8039 443.75,-27.3039 446,-22.3039 446,-22.3039"/>
</g>
<!-- v17&#45;&gt;v18 -->
<g id="edge19" class="edge"><title>v17&#45;&gt;v18</title>
<path fill="none" stroke="black" d="M605.422,-58.7527C613.614,-49.7573 626.158,-35.9828 635.512,-25.7121"/>
<polygon fill="black" stroke="black" points="639.051,-21.8266 637.348,-27.0383 637.367,-23.6749 635.684,-25.5233 635.684,-25.5233 635.684,-25.5233 637.367,-23.6749 634.021,-24.0083 639.051,-21.8266 639.051,-21.8266"/>
</g>
<!-- v17&#45;&gt;v19 -->
<g id="edge20" class="edge"><title>v17&#45;&gt;v19</title>
<path fill="none" stroke="black" d="M612.898,-61.3562C637.176,-51.21 683.495,-31.8526 710.346,-20.6317"/>
<polygon fill="black" stroke="black" points="715.123,-18.6352 711.377,-22.6392 712.816,-19.5992 710.51,-20.5632 710.51,-20.5632 710.51,-20.5632 712.816,-19.5992 709.642,-18.4872 715.123,-18.6352 715.123,-18.6352"/>
</g>
<!-- v17&#45;&gt;v20 -->
<g id="edge21" class="edge"><title>v17&#45;&gt;v20</title>
<path fill="none" stroke="black" d="M588.744,-58.7527C580.712,-49.7573 568.413,-35.9828 559.243,-25.7121"/>
<polygon fill="black" stroke="black" points="555.774,-21.8266 560.782,-24.0577 557.439,-23.6914 559.104,-25.5563 559.104,-25.5563 559.104,-25.5563 557.439,-23.6914 557.425,-27.0548 555.774,-21.8266 555.774,-21.8266"/>
</g>
</g>
</svg>
