<?xml version="1.0" encoding="UTF-8" standalone="no"?>
<?xml-stylesheet href="style_sbrs.css" type="text/css"?>
<!DOCTYPE svg PUBLIC "-//W3C//DTD SVG 1.1//EN"
 "http://www.w3.org/Graphics/SVG/1.1/DTD/svg11.dtd">
<!-- Generated by graphviz version 2.38.0 (20140413.2041)
 -->
<!-- Title: transitions.svg Pages: 1 -->
<svg width="122pt" height="262pt"
 viewBox="0.00 0.00 122.49 262.00" xmlns="http://www.w3.org/2000/svg" xmlns:xlink="http://www.w3.org/1999/xlink">
<g id="graph0" class="graph" transform="scale(1 1) rotate(0) translate(4 258)">
<title>transitions.svg</title>
<polygon fill="white" stroke="none" points="-4,4 -4,-258 118.487,-258 118.487,4 -4,4"/>
<!-- 0 -->
<g id="s0" class="node"><title>0</title>
<g id="a_s0"><a xlink:href="./0.svg" xlink:title="0">
<ellipse fill="none" stroke="black" stroke-width="2" cx="51.5" cy="-243" rx="21.5" ry="11"/>
<text text-anchor="middle" x="51.5" y="-240.8" font-family="monospace" font-size="9.00">0</text>
</a>
</g>
</g>
<!-- 2 -->
<g id="s2" class="node"><title>2</title>
<g id="a_s2"><a xlink:href="./2.svg" xlink:title="2">
<ellipse fill="none" stroke="black" cx="51.5" cy="-185" rx="21.5" ry="11"/>
<text text-anchor="middle" x="51.5" y="-182.8" font-family="monospace" font-size="9.00">2</text>
</a>
</g>
</g>
<!-- 0&#45;&gt;2 -->
<g id="edge5" class="edge"><title>0&#45;&gt;2</title>
<path fill="none" stroke="black" d="M46.2332,-232.246C44.5789,-223.679 44.3085,-211.076 45.4218,-201.19"/>
<polygon fill="black" stroke="black" points="46.1826,-196.02 47.6806,-201.294 45.8186,-198.493 45.4546,-200.966 45.4546,-200.966 45.4546,-200.966 45.8186,-198.493 43.2285,-200.639 46.1826,-196.02 46.1826,-196.02"/>
</g>
<!-- 1 -->
<g id="s1" class="node"><title>1</title>
<g id="a_s1"><a xlink:href="./1.svg" xlink:title="1">
<ellipse fill="none" stroke="black" cx="82.5" cy="-69" rx="21.5" ry="11"/>
<text text-anchor="middle" x="82.5" y="-66.8" font-family="monospace" font-size="9.00">1</text>
</a>
</g>
</g>
<!-- 0&#45;&gt;1 -->
<g id="edge4" class="edge"><title>0&#45;&gt;1</title>
<path fill="none" stroke="black" d="M59.6461,-232.519C73.916,-215.18 102.837,-176.579 112.5,-138 114.876,-128.515 115.286,-125.372 112.5,-116 108.904,-103.905 101.009,-92.0216 94.22,-83.3636"/>
<polygon fill="black" stroke="black" points="90.9999,-79.3856 95.8947,-81.8563 92.5729,-81.3288 94.1459,-83.2719 94.1459,-83.2719 94.1459,-83.2719 92.5729,-81.3288 92.397,-84.6876 90.9999,-79.3856 90.9999,-79.3856"/>
</g>
<!-- 5 -->
<g id="s5" class="node"><title>5</title>
<g id="a_s5"><a xlink:href="./5.svg" xlink:title="5">
<ellipse fill="none" stroke="black" cx="21.5" cy="-69" rx="21.5" ry="11"/>
<text text-anchor="middle" x="21.5" y="-66.8" font-family="monospace" font-size="9.00">5</text>
</a>
</g>
</g>
<!-- 6 -->
<g id="s6" class="node"><title>6</title>
<g id="a_s6"><a xlink:href="./6.svg" xlink:title="6">
<ellipse fill="none" stroke="black" cx="21.5" cy="-11" rx="21.5" ry="11"/>
<text text-anchor="middle" x="21.5" y="-8.8" font-family="monospace" font-size="9.00">6</text>
</a>
</g>
</g>
<!-- 5&#45;&gt;6 -->
<g id="edge9" class="edge"><title>5&#45;&gt;6</title>
<path fill="none" stroke="black" d="M21.5,-57.9883C21.5,-49.4941 21.5,-37.1697 21.5,-27.4169"/>
<polygon fill="black" stroke="black" points="21.5,-22.3039 23.7501,-27.3038 21.5,-24.8039 21.5001,-27.3039 21.5001,-27.3039 21.5001,-27.3039 21.5,-24.8039 19.2501,-27.3039 21.5,-22.3039 21.5,-22.3039"/>
</g>
<!-- 3 -->
<g id="s3" class="node"><title>3</title>
<g id="a_s3"><a xlink:href="./3.svg" xlink:title="3">
<ellipse fill="none" stroke="black" cx="82.5" cy="-127" rx="21.5" ry="11"/>
<text text-anchor="middle" x="82.5" y="-124.8" font-family="monospace" font-size="9.00">3</text>
</a>
</g>
</g>
<!-- 3&#45;&gt;1 -->
<g id="edge10" class="edge"><title>3&#45;&gt;1</title>
<path fill="none" stroke="black" d="M77.2332,-116.246C75.5789,-107.679 75.3085,-95.0763 76.4218,-85.1899"/>
<polygon fill="black" stroke="black" points="77.1826,-80.0198 78.6806,-85.2941 76.8186,-82.4931 76.4546,-84.9665 76.4546,-84.9665 76.4546,-84.9665 76.8186,-82.4931 74.2285,-84.6389 77.1826,-80.0198 77.1826,-80.0198"/>
</g>
<!-- 4 -->
<g id="s4" class="node"><title>4</title>
<g id="a_s4"><a xlink:href="./4.svg" xlink:title="4">
<ellipse fill="none" stroke="black" cx="21.5" cy="-127" rx="21.5" ry="11"/>
<text text-anchor="middle" x="21.5" y="-124.8" font-family="monospace" font-size="9.00">4</text>
</a>
</g>
</g>
<!-- 4&#45;&gt;5 -->
<g id="edge8" class="edge"><title>4&#45;&gt;5</title>
<path fill="none" stroke="black" d="M21.5,-115.988C21.5,-107.494 21.5,-95.1697 21.5,-85.4169"/>
<polygon fill="black" stroke="black" points="21.5,-80.3039 23.7501,-85.3038 21.5,-82.8039 21.5001,-85.3039 21.5001,-85.3039 21.5001,-85.3039 21.5,-82.8039 19.2501,-85.3039 21.5,-80.3039 21.5,-80.3039"/>
</g>
<!-- 4&#45;&gt;2 -->
<g id="edge7" class="edge"><title>4&#45;&gt;2</title>
<path fill="none" stroke="black" d="M31.3019,-136.819C37.7957,-145.496 45.2965,-158.903 49.6096,-169.211"/>
<polygon fill="black" stroke="black" points="51.4525,-173.988 47.5536,-170.133 50.5526,-171.656 49.6528,-169.323 49.6528,-169.323 49.6528,-169.323 50.5526,-171.656 51.752,-168.514 51.4525,-173.988 51.4525,-173.988"/>
</g>
<!-- 2&#45;&gt;0 -->
<g id="edge1" class="edge"><title>2&#45;&gt;0</title>
<path fill="none" stroke="black" d="M56.8174,-196.02C58.4432,-204.669 58.6852,-217.284 57.5435,-227.114"/>
<polygon fill="black" stroke="black" points="56.7668,-232.246 55.2905,-226.965 57.141,-229.774 57.5151,-227.302 57.5151,-227.302 57.5151,-227.302 57.141,-229.774 59.7398,-227.639 56.7668,-232.246 56.7668,-232.246"/>
</g>
<!-- 2&#45;&gt;3 -->
<g id="edge2" class="edge"><title>2&#45;&gt;3</title>
<path fill="none" stroke="black" d="M56.8998,-174.246C61.7299,-165.52 68.8776,-152.608 74.3938,-142.643"/>
<polygon fill="black" stroke="black" points="76.9534,-138.02 76.5002,-143.484 75.7425,-140.207 74.5317,-142.394 74.5317,-142.394 74.5317,-142.394 75.7425,-140.207 72.5632,-141.304 76.9534,-138.02 76.9534,-138.02"/>
</g>
<!-- 2&#45;&gt;4 -->
<g id="edge3" class="edge"><title>2&#45;&gt;4</title>
<path fill="none" stroke="black" d="M41.5652,-175.003C35.1561,-166.394 27.7978,-153.248 23.4981,-143.045"/>
<polygon fill="black" stroke="black" points="21.6506,-138.306 25.563,-142.147 22.5587,-140.635 23.4667,-142.964 23.4667,-142.964 23.4667,-142.964 22.5587,-140.635 21.3703,-143.782 21.6506,-138.306 21.6506,-138.306"/>
</g>
<!-- 1&#45;&gt;3 -->
<g id="edge6" class="edge"><title>1&#45;&gt;3</title>
<path fill="none" stroke="black" d="M87.8174,-80.0198C89.4432,-88.6686 89.6852,-101.284 88.5435,-111.114"/>
<polygon fill="black" stroke="black" points="87.7668,-116.246 86.2905,-110.965 88.141,-113.774 88.5151,-111.302 88.5151,-111.302 88.5151,-111.302 88.141,-113.774 90.7398,-111.639 87.7668,-116.246 87.7668,-116.246"/>
</g>
</g>
</svg>
