<?xml version="1.0" encoding="UTF-8" standalone="no"?>
<?xml-stylesheet href="style.css" type="text/css"?>
<!DOCTYPE svg PUBLIC "-//W3C//DTD SVG 1.1//EN"
 "http://www.w3.org/Graphics/SVG/1.1/DTD/svg11.dtd">
<!-- Generated by graphviz version 2.38.0 (20140413.2041)
 -->
<!-- Title: 13.svg Pages: 1 -->
<svg width="874pt" height="316pt"
 viewBox="0.00 0.00 874.00 316.00" xmlns="http://www.w3.org/2000/svg" xmlns:xlink="http://www.w3.org/1999/xlink">
<g id="graph0" class="graph" transform="scale(1 1) rotate(0) translate(4 312)">
<title>13.svg</title>
<polygon fill="white" stroke="none" points="-4,4 -4,-312 870,-312 870,4 -4,4"/>
<!-- r0 -->
<g id="node1" class="node"><title>r0</title>
<polygon fill="none" stroke="black" stroke-dasharray="5,2" points="297,-308 274,-308 274,-290 297,-290 297,-308"/>
<text text-anchor="middle" x="285.5" y="-296.8" font-family="serif" font-size="9.00">0</text>
</g>
<!-- v0 -->
<g id="v0_Building" class="node"><title>v0</title>
<ellipse fill="none" stroke="black" cx="285.5" cy="-243" rx="36" ry="11"/>
<text text-anchor="middle" x="285.5" y="-240.8" font-family="sans-serif" font-size="9.00">Building</text>
</g>
<!-- r0&#45;&gt;v0 -->
<g id="edge1" class="edge"><title>r0&#45;&gt;v0</title>
<path fill="none" stroke="black" d="M285.5,-289.562C285.5,-281.453 285.5,-269.014 285.5,-259.181"/>
<polygon fill="black" stroke="black" points="285.5,-254.03 287.75,-259.03 285.5,-256.53 285.5,-259.03 285.5,-259.03 285.5,-259.03 285.5,-256.53 283.25,-259.03 285.5,-254.03 285.5,-254.03"/>
</g>
<!-- oalarm -->
<g id="node2" class="node"><title>oalarm</title>
<text text-anchor="middle" x="79.5" y="-296.8" font-family="serif" font-size="9.00">alarm</text>
</g>
<!-- e1 -->
<g id="node12" class="node"><title>e1</title>
</g>
<!-- oalarm&#45;&gt;e1 -->
<g id="edge18" class="edge"><title>oalarm&#45;&gt;e1</title>
<path fill="none" stroke="green" d="M79.5,-289.801C79.5,-255.842 79.5,-128 79.5,-128"/>
</g>
<!-- ocntrlRm -->
<g id="node3" class="node"><title>ocntrlRm</title>
<text text-anchor="middle" x="827.5" y="-296.8" font-family="serif" font-size="9.00">cntrlRm</text>
</g>
<!-- e2 -->
<g id="node13" class="node"><title>e2</title>
</g>
<!-- ocntrlRm&#45;&gt;e2 -->
<g id="edge21" class="edge"><title>ocntrlRm&#45;&gt;e2</title>
<path fill="none" stroke="green" d="M827.5,-289.801C827.5,-255.842 827.5,-128 827.5,-128"/>
</g>
<!-- oserv -->
<g id="node4" class="node"><title>oserv</title>
<text text-anchor="middle" x="17.5" y="-296.8" font-family="serif" font-size="9.00">serv</text>
</g>
<!-- e3 -->
<g id="node14" class="node"><title>e3</title>
</g>
<!-- oserv&#45;&gt;e3 -->
<g id="edge24" class="edge"><title>oserv&#45;&gt;e3</title>
<path fill="none" stroke="green" d="M17.5,-289.801C17.5,-255.842 17.5,-128 17.5,-128"/>
</g>
<!-- oserverRm -->
<g id="node5" class="node"><title>oserverRm</title>
<text text-anchor="middle" x="614.5" y="-296.8" font-family="serif" font-size="9.00">serverRm</text>
</g>
<!-- e4 -->
<g id="node15" class="node"><title>e4</title>
</g>
<!-- oserverRm&#45;&gt;e4 -->
<g id="edge27" class="edge"><title>oserverRm&#45;&gt;e4</title>
<path fill="none" stroke="green" d="M614.5,-289.945C614.5,-264.265 614.5,-186 614.5,-186"/>
</g>
<!-- osl1 -->
<g id="node6" class="node"><title>osl1</title>
<text text-anchor="middle" x="220.5" y="-296.8" font-family="serif" font-size="9.00">sl1</text>
</g>
<!-- e5 -->
<g id="node16" class="node"><title>e5</title>
</g>
<!-- osl1&#45;&gt;e5 -->
<g id="edge30" class="edge"><title>osl1&#45;&gt;e5</title>
<path fill="none" stroke="green" d="M220.5,-289.801C220.5,-255.842 220.5,-128 220.5,-128"/>
</g>
<!-- osl2 -->
<g id="node7" class="node"><title>osl2</title>
<text text-anchor="middle" x="136.5" y="-296.8" font-family="serif" font-size="9.00">sl2</text>
</g>
<!-- e6 -->
<g id="node17" class="node"><title>e6</title>
</g>
<!-- osl2&#45;&gt;e6 -->
<g id="edge33" class="edge"><title>osl2&#45;&gt;e6</title>
<path fill="none" stroke="green" d="M136.5,-289.801C136.5,-255.842 136.5,-128 136.5,-128"/>
</g>
<!-- osl3 -->
<g id="node8" class="node"><title>osl3</title>
<text text-anchor="middle" x="361.5" y="-296.8" font-family="serif" font-size="9.00">sl3</text>
</g>
<!-- e7 -->
<g id="node18" class="node"><title>e7</title>
</g>
<!-- osl3&#45;&gt;e7 -->
<g id="edge36" class="edge"><title>osl3&#45;&gt;e7</title>
<path fill="none" stroke="green" d="M361.5,-289.801C361.5,-255.842 361.5,-128 361.5,-128"/>
</g>
<!-- ostation -->
<g id="node9" class="node"><title>ostation</title>
<text text-anchor="middle" x="418.5" y="-296.8" font-family="serif" font-size="9.00">station</text>
</g>
<!-- e8 -->
<g id="node19" class="node"><title>e8</title>
</g>
<!-- ostation&#45;&gt;e8 -->
<g id="edge39" class="edge"><title>ostation&#45;&gt;e8</title>
<path fill="none" stroke="green" d="M418.5,-289.801C418.5,-255.842 418.5,-128 418.5,-128"/>
</g>
<!-- otoiletRm -->
<g id="node10" class="node"><title>otoiletRm</title>
<text text-anchor="middle" x="751.5" y="-296.8" font-family="serif" font-size="9.00">toiletRm</text>
</g>
<!-- e9 -->
<g id="node20" class="node"><title>e9</title>
</g>
<!-- otoiletRm&#45;&gt;e9 -->
<g id="edge42" class="edge"><title>otoiletRm&#45;&gt;e9</title>
<path fill="none" stroke="green" d="M751.5,-289.801C751.5,-255.842 751.5,-128 751.5,-128"/>
</g>
<!-- e0 -->
<g id="node11" class="node"><title>e0</title>
</g>
<!-- v7 -->
<g id="v7_SmartLight" class="node"><title>v7</title>
<ellipse fill="none" stroke="black" cx="523.5" cy="-11" rx="43" ry="11"/>
<text text-anchor="middle" x="523.5" y="-8.8" font-family="sans-serif" font-size="9.00">SmartLight</text>
</g>
<!-- e0&#45;&gt;v7 -->
<g id="edge17" class="edge"><title>e0&#45;&gt;v7</title>
<path fill="none" stroke="green" d="M550.774,-64.6672C546.508,-56.4292 535.332,-34.8474 528.685,-22.0117"/>
<polygon fill="green" stroke="green" points="555.286,-65.7689 549.07,-68.9879 548.426,-67.7447 554.642,-64.5257 555.286,-65.7689"/>
<polyline fill="none" stroke="green" points="552.5,-68 550.89,-64.892 "/>
</g>
<!-- v1 -->
<g id="v1_InstallationBus" class="node"><title>v1</title>
<ellipse fill="none" stroke="black" cx="175.5" cy="-69" rx="61" ry="11"/>
<text text-anchor="middle" x="175.5" y="-66.8" font-family="sans-serif" font-size="9.00">InstallationBus</text>
</g>
<!-- e1&#45;&gt;v1 -->
<g id="edge19" class="edge"><title>e1&#45;&gt;v1</title>
<path fill="none" stroke="green" d="M79.5,-126C79.5,-126 131.273,-95.7988 158.778,-79.7545"/>
</g>
<!-- v10 -->
<g id="v10_FireAlarm" class="node"><title>v10</title>
<ellipse fill="none" stroke="black" cx="243.5" cy="-11" rx="39.5" ry="11"/>
<text text-anchor="middle" x="243.5" y="-8.8" font-family="sans-serif" font-size="9.00">FireAlarm</text>
</g>
<!-- e1&#45;&gt;v10 -->
<g id="edge20" class="edge"><title>e1&#45;&gt;v10</title>
<path fill="none" stroke="green" d="M79.5,-126C79.5,-126 54.0165,-82.1127 72.5,-58 76.9069,-52.2509 167.537,-30.028 215.023,-18.7086"/>
</g>
<!-- v8 -->
<g id="v8_Hallway" class="node"><title>v8</title>
<ellipse fill="none" stroke="black" cx="833.5" cy="-11" rx="32.5" ry="11"/>
<text text-anchor="middle" x="833.5" y="-8.8" font-family="sans-serif" font-size="9.00">Hallway</text>
</g>
<!-- e2&#45;&gt;v8 -->
<g id="edge22" class="edge"><title>e2&#45;&gt;v8</title>
<path fill="none" stroke="green" d="M827.5,-126C827.5,-126 831.499,-50.0168 832.968,-22.1167"/>
</g>
<!-- v13 -->
<g id="v13_Room" class="node"><title>v13</title>
<ellipse fill="none" stroke="black" cx="669.5" cy="-69" rx="21.5" ry="11"/>
<text text-anchor="middle" x="669.5" y="-66.8" font-family="sans-serif" font-size="9.00">Room</text>
</g>
<!-- e2&#45;&gt;v13 -->
<g id="edge23" class="edge"><title>e2&#45;&gt;v13</title>
<path fill="none" stroke="green" d="M827.5,-126C827.5,-126 727.168,-90.4395 686.409,-75.993"/>
</g>
<!-- e3&#45;&gt;v1 -->
<g id="edge25" class="edge"><title>e3&#45;&gt;v1</title>
<path fill="none" stroke="green" d="M17.5,-126C17.5,-126 104.992,-94.9903 149.763,-79.122"/>
</g>
<!-- v9 -->
<g id="v9_Server" class="node"><title>v9</title>
<ellipse fill="none" stroke="black" cx="157.5" cy="-11" rx="29" ry="11"/>
<text text-anchor="middle" x="157.5" y="-8.8" font-family="sans-serif" font-size="9.00">Server</text>
</g>
<!-- e3&#45;&gt;v9 -->
<g id="edge26" class="edge"><title>e3&#45;&gt;v9</title>
<path fill="none" stroke="green" d="M17.5,-126C17.5,-126 13.7499,-81.2358 34.5,-58 48.0913,-42.7806 102.812,-26.3548 134.5,-17.8506"/>
</g>
<!-- v4 -->
<g id="v4_Room" class="node"><title>v4</title>
<ellipse fill="none" stroke="black" cx="461.5" cy="-127" rx="21.5" ry="11"/>
<text text-anchor="middle" x="461.5" y="-124.8" font-family="sans-serif" font-size="9.00">Room</text>
</g>
<!-- e4&#45;&gt;v4 -->
<g id="edge28" class="edge"><title>e4&#45;&gt;v4</title>
<path fill="none" stroke="green" d="M614.5,-184C614.5,-184 517.819,-148.614 478.165,-134.1"/>
</g>
<!-- e4&#45;&gt;v8 -->
<g id="edge29" class="edge"><title>e4&#45;&gt;v8</title>
<path fill="none" stroke="green" d="M614.5,-184C614.5,-184 707.405,-180.538 760.5,-138 800.355,-106.07 822.765,-46.0793 830.446,-22.1916"/>
</g>
<!-- e5&#45;&gt;v1 -->
<g id="edge31" class="edge"><title>e5&#45;&gt;v1</title>
<path fill="none" stroke="green" d="M220.5,-126C220.5,-126 196.489,-96.1193 183.545,-80.0117"/>
</g>
<!-- v12 -->
<g id="v12_SmartLight" class="node"><title>v12</title>
<ellipse fill="none" stroke="black" cx="419.5" cy="-11" rx="43" ry="11"/>
<text text-anchor="middle" x="419.5" y="-8.8" font-family="sans-serif" font-size="9.00">SmartLight</text>
</g>
<!-- e5&#45;&gt;v12 -->
<g id="edge32" class="edge"><title>e5&#45;&gt;v12</title>
<path fill="none" stroke="green" d="M220.5,-126C220.5,-126 355.688,-48.5556 403.215,-21.3291"/>
</g>
<!-- e6&#45;&gt;v1 -->
<g id="edge34" class="edge"><title>e6&#45;&gt;v1</title>
<path fill="none" stroke="green" d="M136.5,-126C136.5,-126 157.31,-96.1193 168.528,-80.0117"/>
</g>
<!-- v6 -->
<g id="v6_Laptop" class="node"><title>v6</title>
<ellipse fill="none" stroke="black" cx="329.5" cy="-11" rx="29" ry="11"/>
<text text-anchor="middle" x="329.5" y="-8.8" font-family="sans-serif" font-size="9.00">Laptop</text>
</g>
<!-- e6&#45;&gt;v6 -->
<g id="edge35" class="edge"><title>e6&#45;&gt;v6</title>
<path fill="none" stroke="green" d="M136.5,-126C136.5,-126 84.3626,-83.6207 105.5,-58 159.084,6.94995 209.408,-40.7245 291.5,-22 296.555,-20.8471 301.957,-19.4973 307.056,-18.1693"/>
</g>
<!-- e7&#45;&gt;v1 -->
<g id="edge37" class="edge"><title>e7&#45;&gt;v1</title>
<path fill="none" stroke="green" d="M361.5,-126C361.5,-126 256.875,-94.5 204.562,-78.75"/>
</g>
<!-- v14 -->
<g id="v14_SmartLight" class="node"><title>v14</title>
<ellipse fill="none" stroke="black" cx="627.5" cy="-11" rx="43" ry="11"/>
<text text-anchor="middle" x="627.5" y="-8.8" font-family="sans-serif" font-size="9.00">SmartLight</text>
</g>
<!-- e7&#45;&gt;v14 -->
<g id="edge38" class="edge"><title>e7&#45;&gt;v14</title>
<path fill="none" stroke="green" d="M361.5,-126C361.5,-126 551.567,-85.5976 561.5,-80 587.585,-65.2994 609.939,-37.1318 620.683,-22.0758"/>
</g>
<!-- e8&#45;&gt;v1 -->
<g id="edge40" class="edge"><title>e8&#45;&gt;v1</title>
<path fill="none" stroke="green" d="M418.5,-126C418.5,-126 277.869,-93.5912 210.575,-78.0831"/>
</g>
<!-- v15 -->
<g id="v15_Workstation" class="node"><title>v15</title>
<ellipse fill="none" stroke="black" cx="735.5" cy="-11" rx="47" ry="11"/>
<text text-anchor="middle" x="735.5" y="-8.8" font-family="sans-serif" font-size="9.00">Workstation</text>
</g>
<!-- e8&#45;&gt;v15 -->
<g id="edge41" class="edge"><title>e8&#45;&gt;v15</title>
<path fill="none" stroke="green" d="M418.5,-126C418.5,-126 424.275,-119.074 430.5,-116 495.466,-83.918 520.937,-103.429 589.5,-80 595.983,-77.7848 678.121,-39.1013 716.268,-21.0901"/>
</g>
<!-- e9&#45;&gt;v8 -->
<g id="edge43" class="edge"><title>e9&#45;&gt;v8</title>
<path fill="none" stroke="green" d="M751.5,-126C751.5,-126 762.012,-84.6715 781.5,-58 792.309,-43.2073 808.614,-29.7641 820.078,-21.2829"/>
</g>
<!-- v11 -->
<g id="v11_Room" class="node"><title>v11</title>
<ellipse fill="none" stroke="black" cx="512.5" cy="-69" rx="21.5" ry="11"/>
<text text-anchor="middle" x="512.5" y="-66.8" font-family="sans-serif" font-size="9.00">Room</text>
</g>
<!-- e9&#45;&gt;v11 -->
<g id="edge44" class="edge"><title>e9&#45;&gt;v11</title>
<path fill="none" stroke="green" d="M751.5,-126C751.5,-126 634.187,-105.296 542.5,-80 538.16,-78.8027 533.523,-77.3464 529.223,-75.9199"/>
</g>
<!-- v0&#45;&gt;v1 -->
<g id="edge2" class="edge"><title>v0&#45;&gt;v1</title>
<path fill="none" stroke="black" d="M277.524,-232.016C263.213,-213.879 232.61,-174.057 210.5,-138 199.744,-120.459 189.185,-99.2366 182.525,-85.2176"/>
<polygon fill="black" stroke="black" points="180.255,-80.3988 184.422,-83.9631 181.321,-82.6604 182.386,-84.922 182.386,-84.922 182.386,-84.922 181.321,-82.6604 180.351,-85.8809 180.255,-80.3988 180.255,-80.3988"/>
</g>
<!-- v3 -->
<g id="v3_Floor" class="node"><title>v3</title>
<ellipse fill="none" stroke="black" cx="512.5" cy="-185" rx="25" ry="11"/>
<text text-anchor="middle" x="512.5" y="-182.8" font-family="sans-serif" font-size="9.00">Floor</text>
</g>
<!-- v0&#45;&gt;v3 -->
<g id="edge3" class="edge"><title>v0&#45;&gt;v3</title>
<path fill="none" stroke="black" d="M311.984,-235.466C355.814,-224.654 442.911,-203.167 486.452,-192.426"/>
<polygon fill="black" stroke="black" points="491.54,-191.171 487.225,-194.553 489.113,-191.77 486.686,-192.368 486.686,-192.368 486.686,-192.368 489.113,-191.77 486.147,-190.184 491.54,-191.171 491.54,-191.171"/>
</g>
<!-- v2 -->
<g id="v2_Data" class="node"><title>v2</title>
<ellipse fill="none" stroke="black" cx="88.5" cy="-11" rx="21.5" ry="11"/>
<text text-anchor="middle" x="88.5" y="-8.8" font-family="sans-serif" font-size="9.00">Data</text>
</g>
<!-- v1&#45;&gt;v2 -->
<g id="edge4" class="edge"><title>v1&#45;&gt;v2</title>
<path fill="none" stroke="black" d="M160.346,-58.2455C144.949,-48.3348 121.16,-33.0224 105.221,-22.7632"/>
<polygon fill="black" stroke="black" points="100.948,-20.0123 106.37,-20.8266 103.05,-21.3654 105.152,-22.7185 105.152,-22.7185 105.152,-22.7185 103.05,-21.3654 103.934,-24.6105 100.948,-20.0123 100.948,-20.0123"/>
</g>
<!-- v3&#45;&gt;v4 -->
<g id="edge5" class="edge"><title>v3&#45;&gt;v4</title>
<path fill="none" stroke="black" d="M503.849,-174.5C495.519,-165.354 482.849,-151.442 473.536,-141.217"/>
<polygon fill="black" stroke="black" points="470.024,-137.359 475.054,-139.541 471.707,-139.208 473.39,-141.056 473.39,-141.056 473.39,-141.056 471.707,-139.208 471.727,-142.571 470.024,-137.359 470.024,-137.359"/>
</g>
<!-- v3&#45;&gt;v8 -->
<g id="edge6" class="edge"><title>v3&#45;&gt;v8</title>
<path fill="none" stroke="black" d="M528.408,-176.404C547.015,-167.457 578.687,-152.031 605.5,-138 683.281,-97.2983 774.192,-45.879 813.604,-23.3957"/>
<polygon fill="black" stroke="black" points="818.15,-20.7999 814.924,-25.233 815.979,-22.0395 813.808,-23.279 813.808,-23.279 813.808,-23.279 815.979,-22.0395 812.692,-21.3251 818.15,-20.7999 818.15,-20.7999"/>
</g>
<!-- v3&#45;&gt;v11 -->
<g id="edge7" class="edge"><title>v3&#45;&gt;v11</title>
<path fill="none" stroke="black" d="M512.5,-173.883C512.5,-153.906 512.5,-109.276 512.5,-85.5402"/>
<polygon fill="black" stroke="black" points="512.5,-80.2579 514.75,-85.2579 512.5,-82.7579 512.5,-85.2579 512.5,-85.2579 512.5,-85.2579 512.5,-82.7579 510.25,-85.258 512.5,-80.2579 512.5,-80.2579"/>
</g>
<!-- v3&#45;&gt;v13 -->
<g id="edge8" class="edge"><title>v3&#45;&gt;v13</title>
<path fill="none" stroke="black" d="M524.559,-175.244C552.618,-154.869 622.28,-104.287 653.692,-81.4782"/>
<polygon fill="black" stroke="black" points="658.04,-78.3214 655.316,-83.0799 656.017,-79.7903 653.994,-81.2592 653.994,-81.2592 653.994,-81.2592 656.017,-79.7903 652.672,-79.4385 658.04,-78.3214 658.04,-78.3214"/>
</g>
<!-- v5 -->
<g id="v5_Visitor" class="node"><title>v5</title>
<ellipse fill="none" stroke="black" cx="401.5" cy="-69" rx="32.5" ry="11"/>
<text text-anchor="middle" x="401.5" y="-66.8" font-family="sans-serif" font-size="9.00">Visitor</text>
</g>
<!-- v4&#45;&gt;v5 -->
<g id="edge9" class="edge"><title>v4&#45;&gt;v5</title>
<path fill="none" stroke="black" d="M451.86,-117.003C442.065,-107.861 426.787,-93.6014 415.626,-83.1846"/>
<polygon fill="black" stroke="black" points="411.719,-79.5373 416.909,-81.304 413.546,-81.2431 415.374,-82.9489 415.374,-82.9489 415.374,-82.9489 413.546,-81.2431 413.839,-84.5938 411.719,-79.5373 411.719,-79.5373"/>
</g>
<!-- v4&#45;&gt;v7 -->
<g id="edge10" class="edge"><title>v4&#45;&gt;v7</title>
<path fill="none" stroke="black" d="M463.024,-115.757C465.403,-101.934 470.87,-76.8698 481.5,-58 488.466,-45.6335 499.329,-33.8561 508.262,-25.3144"/>
<polygon fill="black" stroke="black" points="511.956,-21.8594 509.841,-26.9184 510.13,-23.5673 508.304,-25.2752 508.304,-25.2752 508.304,-25.2752 510.13,-23.5673 506.767,-23.6321 511.956,-21.8594 511.956,-21.8594"/>
</g>
<!-- v4&#45;&gt;v9 -->
<g id="edge11" class="edge"><title>v4&#45;&gt;v9</title>
<path fill="none" stroke="black" d="M443.943,-120.615C411.032,-110.484 341.242,-88.8158 317.5,-80 267.544,-61.4507 210.392,-36.1436 179.73,-22.2227"/>
<polygon fill="black" stroke="black" points="175.042,-20.089 180.525,-20.1122 177.317,-21.1246 179.593,-22.1601 179.593,-22.1601 179.593,-22.1601 177.317,-21.1246 178.661,-24.208 175.042,-20.089 175.042,-20.089"/>
</g>
<!-- v4&#45;&gt;v10 -->
<g id="edge12" class="edge"><title>v4&#45;&gt;v10</title>
<path fill="none" stroke="black" d="M445.702,-119.494C425.441,-111.011 389.356,-95.4277 359.5,-80 324.503,-61.916 285.241,-38.126 262.543,-24.0104"/>
<polygon fill="black" stroke="black" points="258.23,-21.3208 263.664,-22.0576 260.352,-22.6438 262.473,-23.9668 262.473,-23.9668 262.473,-23.9668 260.352,-22.6438 261.282,-25.8759 258.23,-21.3208 258.23,-21.3208"/>
</g>
<!-- v5&#45;&gt;v6 -->
<g id="edge13" class="edge"><title>v5&#45;&gt;v6</title>
<path fill="none" stroke="black" d="M389.611,-58.7527C377.448,-49.2933 358.492,-34.549 345.124,-24.1517"/>
<polygon fill="black" stroke="black" points="341.168,-21.0752 346.496,-22.3689 343.141,-22.6101 345.115,-24.1449 345.115,-24.1449 345.115,-24.1449 343.141,-22.6101 343.734,-25.921 341.168,-21.0752 341.168,-21.0752"/>
</g>
<!-- v11&#45;&gt;v12 -->
<g id="edge14" class="edge"><title>v11&#45;&gt;v12</title>
<path fill="none" stroke="black" d="M499.175,-59.9766C483.525,-50.553 457.415,-34.8303 439.372,-23.9657"/>
<polygon fill="black" stroke="black" points="434.97,-21.315 440.414,-21.9668 437.111,-22.6047 439.253,-23.8943 439.253,-23.8943 439.253,-23.8943 437.111,-22.6047 438.092,-25.8219 434.97,-21.315 434.97,-21.315"/>
</g>
<!-- v13&#45;&gt;v14 -->
<g id="edge15" class="edge"><title>v13&#45;&gt;v14</title>
<path fill="none" stroke="black" d="M662.375,-58.5004C655.74,-49.6537 645.76,-36.3472 638.174,-26.2321"/>
<polygon fill="black" stroke="black" points="635.086,-22.1148 639.886,-24.7648 636.586,-24.1148 638.086,-26.1148 638.086,-26.1148 638.086,-26.1148 636.586,-24.1148 636.286,-27.4649 635.086,-22.1148 635.086,-22.1148"/>
</g>
<!-- v13&#45;&gt;v15 -->
<g id="edge16" class="edge"><title>v13&#45;&gt;v15</title>
<path fill="none" stroke="black" d="M679.812,-59.25C690.496,-50.1849 707.329,-35.9023 719.694,-25.4112"/>
<polygon fill="black" stroke="black" points="723.701,-22.0117 721.344,-26.9623 721.794,-23.6291 719.888,-25.2466 719.888,-25.2466 719.888,-25.2466 721.794,-23.6291 718.432,-23.5309 723.701,-22.0117 723.701,-22.0117"/>
</g>
</g>
</svg>
