<?xml version="1.0" encoding="UTF-8" standalone="no"?>
<?xml-stylesheet href="style.css" type="text/css"?>
<!DOCTYPE svg PUBLIC "-//W3C//DTD SVG 1.1//EN"
 "http://www.w3.org/Graphics/SVG/1.1/DTD/svg11.dtd">
<!-- Generated by graphviz version 2.38.0 (20140413.2041)
 -->
<!-- Title: 15.svg Pages: 1 -->
<svg width="834pt" height="374pt"
 viewBox="0.00 0.00 834.00 374.00" xmlns="http://www.w3.org/2000/svg" xmlns:xlink="http://www.w3.org/1999/xlink">
<g id="graph0" class="graph" transform="scale(1 1) rotate(0) translate(4 370)">
<title>15.svg</title>
<polygon fill="white" stroke="none" points="-4,4 -4,-370 830,-370 830,4 -4,4"/>
<!-- r0 -->
<g id="node1" class="node"><title>r0</title>
<polygon fill="none" stroke="black" stroke-dasharray="5,2" points="282,-366 259,-366 259,-348 282,-348 282,-366"/>
<text text-anchor="middle" x="270.5" y="-354.8" font-family="serif" font-size="9.00">0</text>
</g>
<!-- v0 -->
<g id="v0_Building" class="node"><title>v0</title>
<ellipse fill="none" stroke="black" cx="270.5" cy="-301" rx="36" ry="11"/>
<text text-anchor="middle" x="270.5" y="-298.8" font-family="sans-serif" font-size="9.00">Building</text>
</g>
<!-- r0&#45;&gt;v0 -->
<g id="edge1" class="edge"><title>r0&#45;&gt;v0</title>
<path fill="none" stroke="black" d="M270.5,-347.562C270.5,-339.453 270.5,-327.014 270.5,-317.181"/>
<polygon fill="black" stroke="black" points="270.5,-312.03 272.75,-317.03 270.5,-314.53 270.5,-317.03 270.5,-317.03 270.5,-317.03 270.5,-314.53 268.25,-317.03 270.5,-312.03 270.5,-312.03"/>
</g>
<!-- oalarm -->
<g id="node2" class="node"><title>oalarm</title>
<text text-anchor="middle" x="88.5" y="-354.8" font-family="serif" font-size="9.00">alarm</text>
</g>
<!-- e1 -->
<g id="node12" class="node"><title>e1</title>
</g>
<!-- oalarm&#45;&gt;e1 -->
<g id="edge19" class="edge"><title>oalarm&#45;&gt;e1</title>
<path fill="none" stroke="green" d="M88.5,-347.885C88.5,-307.27 88.5,-128 88.5,-128"/>
</g>
<!-- ocntrlRm -->
<g id="node3" class="node"><title>ocntrlRm</title>
<text text-anchor="middle" x="798.5" y="-354.8" font-family="serif" font-size="9.00">cntrlRm</text>
</g>
<!-- e2 -->
<g id="node13" class="node"><title>e2</title>
</g>
<!-- ocntrlRm&#45;&gt;e2 -->
<g id="edge22" class="edge"><title>ocntrlRm&#45;&gt;e2</title>
<path fill="none" stroke="green" d="M798.5,-347.885C798.5,-307.27 798.5,-128 798.5,-128"/>
</g>
<!-- oserv -->
<g id="node4" class="node"><title>oserv</title>
<text text-anchor="middle" x="151.5" y="-354.8" font-family="serif" font-size="9.00">serv</text>
</g>
<!-- e3 -->
<g id="node14" class="node"><title>e3</title>
</g>
<!-- oserv&#45;&gt;e3 -->
<g id="edge25" class="edge"><title>oserv&#45;&gt;e3</title>
<path fill="none" stroke="green" d="M151.5,-347.885C151.5,-307.27 151.5,-128 151.5,-128"/>
</g>
<!-- oserverRm -->
<g id="node5" class="node"><title>oserverRm</title>
<text text-anchor="middle" x="584.5" y="-354.8" font-family="serif" font-size="9.00">serverRm</text>
</g>
<!-- e4 -->
<g id="node15" class="node"><title>e4</title>
</g>
<!-- oserverRm&#45;&gt;e4 -->
<g id="edge28" class="edge"><title>oserverRm&#45;&gt;e4</title>
<path fill="none" stroke="green" d="M584.073,-347.885C581.935,-307.27 572.5,-128 572.5,-128"/>
</g>
<!-- osl1 -->
<g id="node6" class="node"><title>osl1</title>
<text text-anchor="middle" x="206.5" y="-354.8" font-family="serif" font-size="9.00">sl1</text>
</g>
<!-- e5 -->
<g id="node16" class="node"><title>e5</title>
</g>
<!-- osl1&#45;&gt;e5 -->
<g id="edge31" class="edge"><title>osl1&#45;&gt;e5</title>
<path fill="none" stroke="green" d="M207.963,-347.993C210.47,-335.281 216.229,-309.884 225.5,-290 262.171,-211.348 334.5,-128 334.5,-128"/>
</g>
<!-- osl2 -->
<g id="node7" class="node"><title>osl2</title>
<text text-anchor="middle" x="334.5" y="-354.8" font-family="serif" font-size="9.00">sl2</text>
</g>
<!-- e6 -->
<g id="node17" class="node"><title>e6</title>
</g>
<!-- osl2&#45;&gt;e6 -->
<g id="edge34" class="edge"><title>osl2&#45;&gt;e6</title>
<path fill="none" stroke="green" d="M333.148,-347.885C326.378,-307.27 296.5,-128 296.5,-128"/>
</g>
<!-- osl3 -->
<g id="node8" class="node"><title>osl3</title>
<text text-anchor="middle" x="384.5" y="-354.8" font-family="serif" font-size="9.00">sl3</text>
</g>
<!-- e7 -->
<g id="node18" class="node"><title>e7</title>
</g>
<!-- osl3&#45;&gt;e7 -->
<g id="edge37" class="edge"><title>osl3&#45;&gt;e7</title>
<path fill="none" stroke="green" d="M384.5,-347.885C384.5,-307.27 384.5,-128 384.5,-128"/>
</g>
<!-- ostation -->
<g id="node9" class="node"><title>ostation</title>
<text text-anchor="middle" x="442.5" y="-354.8" font-family="serif" font-size="9.00">station</text>
</g>
<!-- e8 -->
<g id="node19" class="node"><title>e8</title>
</g>
<!-- ostation&#45;&gt;e8 -->
<g id="edge40" class="edge"><title>ostation&#45;&gt;e8</title>
<path fill="none" stroke="green" d="M442.5,-347.885C442.5,-307.27 442.5,-128 442.5,-128"/>
</g>
<!-- otoiletRm -->
<g id="node10" class="node"><title>otoiletRm</title>
<text text-anchor="middle" x="693.5" y="-354.8" font-family="serif" font-size="9.00">toiletRm</text>
</g>
<!-- e9 -->
<g id="node20" class="node"><title>e9</title>
</g>
<!-- otoiletRm&#45;&gt;e9 -->
<g id="edge43" class="edge"><title>otoiletRm&#45;&gt;e9</title>
<path fill="none" stroke="green" d="M693.5,-347.945C693.5,-322.265 693.5,-244 693.5,-244"/>
</g>
<!-- e0 -->
<g id="node11" class="node"><title>e0</title>
</g>
<!-- v8 -->
<g id="v8_SmartLight" class="node"><title>v8</title>
<ellipse fill="none" stroke="black" cx="658.5" cy="-11" rx="43" ry="11"/>
<text text-anchor="middle" x="658.5" y="-8.8" font-family="sans-serif" font-size="9.00">SmartLight</text>
</g>
<!-- e0&#45;&gt;v8 -->
<g id="edge18" class="edge"><title>e0&#45;&gt;v8</title>
<path fill="none" stroke="green" d="M619.597,-65.1363C625.349,-57.2789 641.588,-35.0991 651.17,-22.0117"/>
<polygon fill="green" stroke="green" points="620.738,-69.5028 615.089,-65.3676 615.917,-64.238 621.565,-68.3732 620.738,-69.5028"/>
<polyline fill="none" stroke="green" points="617.5,-68 619.568,-65.176 "/>
</g>
<!-- v2 -->
<g id="v2_InstallationBus" class="node"><title>v2</title>
<ellipse fill="none" stroke="black" cx="182.5" cy="-69" rx="61" ry="11"/>
<text text-anchor="middle" x="182.5" y="-66.8" font-family="sans-serif" font-size="9.00">InstallationBus</text>
</g>
<!-- e1&#45;&gt;v2 -->
<g id="edge20" class="edge"><title>e1&#45;&gt;v2</title>
<path fill="none" stroke="green" d="M88.5,-126C88.5,-126 139.195,-95.7988 166.126,-79.7545"/>
</g>
<!-- v13 -->
<g id="v13_FireAlarm" class="node"><title>v13</title>
<ellipse fill="none" stroke="black" cx="100.5" cy="-11" rx="39.5" ry="11"/>
<text text-anchor="middle" x="100.5" y="-8.8" font-family="sans-serif" font-size="9.00">FireAlarm</text>
</g>
<!-- e1&#45;&gt;v13 -->
<g id="edge21" class="edge"><title>e1&#45;&gt;v13</title>
<path fill="none" stroke="green" d="M88.5,-126C88.5,-126 73.0218,-87.7895 79.5,-58 82.3356,-44.9607 89.2072,-31.1888 94.3225,-22.1511"/>
</g>
<!-- v9 -->
<g id="v9_Hallway" class="node"><title>v9</title>
<ellipse fill="none" stroke="black" cx="756.5" cy="-11" rx="32.5" ry="11"/>
<text text-anchor="middle" x="756.5" y="-8.8" font-family="sans-serif" font-size="9.00">Hallway</text>
</g>
<!-- e2&#45;&gt;v9 -->
<g id="edge23" class="edge"><title>e2&#45;&gt;v9</title>
<path fill="none" stroke="green" d="M798.5,-126C798.5,-126 785.674,-88.0382 774.5,-58 769.895,-45.6221 764.317,-31.49 760.603,-22.1935"/>
</g>
<!-- v14 -->
<g id="v14_Room" class="node"><title>v14</title>
<ellipse fill="none" stroke="black" cx="543.5" cy="-69" rx="21.5" ry="11"/>
<text text-anchor="middle" x="543.5" y="-66.8" font-family="sans-serif" font-size="9.00">Room</text>
</g>
<!-- e2&#45;&gt;v14 -->
<g id="edge24" class="edge"><title>e2&#45;&gt;v14</title>
<path fill="none" stroke="green" d="M798.5,-126C798.5,-126 621.97,-87.2325 562.666,-74.2091"/>
</g>
<!-- e3&#45;&gt;v2 -->
<g id="edge26" class="edge"><title>e3&#45;&gt;v2</title>
<path fill="none" stroke="green" d="M151.5,-126C151.5,-126 168.041,-96.1193 176.958,-80.0117"/>
</g>
<!-- v12 -->
<g id="v12_Server" class="node"><title>v12</title>
<ellipse fill="none" stroke="black" cx="186.5" cy="-11" rx="29" ry="11"/>
<text text-anchor="middle" x="186.5" y="-8.8" font-family="sans-serif" font-size="9.00">Server</text>
</g>
<!-- e3&#45;&gt;v12 -->
<g id="edge27" class="edge"><title>e3&#45;&gt;v12</title>
<path fill="none" stroke="green" d="M151.5,-126C151.5,-126 95.5736,-88.452 112.5,-58 123.671,-37.9028 147.664,-25.4542 165.315,-18.6566"/>
</g>
<!-- e4&#45;&gt;v9 -->
<g id="edge29" class="edge"><title>e4&#45;&gt;v9</title>
<path fill="none" stroke="green" d="M572.5,-126C572.5,-126 576.877,-119.793 581.5,-116 633.823,-73.0709 705.791,-36.1721 738.735,-20.3036"/>
</g>
<!-- v10 -->
<g id="v10_Room" class="node"><title>v10</title>
<ellipse fill="none" stroke="black" cx="283.5" cy="-69" rx="21.5" ry="11"/>
<text text-anchor="middle" x="283.5" y="-66.8" font-family="sans-serif" font-size="9.00">Room</text>
</g>
<!-- e4&#45;&gt;v10 -->
<g id="edge30" class="edge"><title>e4&#45;&gt;v10</title>
<path fill="none" stroke="green" d="M572.5,-126C572.5,-126 367.708,-86.3172 302.911,-73.7613"/>
</g>
<!-- e5&#45;&gt;v2 -->
<g id="edge32" class="edge"><title>e5&#45;&gt;v2</title>
<path fill="none" stroke="green" d="M334.5,-126C334.5,-126 250.331,-94.9903 207.26,-79.122"/>
</g>
<!-- v6 -->
<g id="v6_Laptop" class="node"><title>v6</title>
<ellipse fill="none" stroke="black" cx="390.5" cy="-69" rx="29" ry="11"/>
<text text-anchor="middle" x="390.5" y="-66.8" font-family="sans-serif" font-size="9.00">Laptop</text>
</g>
<!-- e5&#45;&gt;v6 -->
<g id="edge33" class="edge"><title>e5&#45;&gt;v6</title>
<path fill="none" stroke="green" d="M334.5,-126C334.5,-126 365.023,-95.4767 381,-79.4996"/>
</g>
<!-- e6&#45;&gt;v2 -->
<g id="edge35" class="edge"><title>e6&#45;&gt;v2</title>
<path fill="none" stroke="green" d="M296.5,-126C296.5,-126 234.363,-95.4767 201.839,-79.4996"/>
</g>
<!-- v11 -->
<g id="v11_SmartLight" class="node"><title>v11</title>
<ellipse fill="none" stroke="black" cx="276.5" cy="-11" rx="43" ry="11"/>
<text text-anchor="middle" x="276.5" y="-8.8" font-family="sans-serif" font-size="9.00">SmartLight</text>
</g>
<!-- e6&#45;&gt;v11 -->
<g id="edge36" class="edge"><title>e6&#45;&gt;v11</title>
<path fill="none" stroke="green" d="M296.5,-126C296.5,-126 323.851,-87.3826 313.5,-58 308.392,-43.5 296.567,-30.1993 287.65,-21.6707"/>
</g>
<!-- e7&#45;&gt;v2 -->
<g id="edge38" class="edge"><title>e7&#45;&gt;v2</title>
<path fill="none" stroke="green" d="M384.5,-126C384.5,-126 270.282,-94.3357 213.62,-78.6273"/>
</g>
<!-- v15 -->
<g id="v15_SmartLight" class="node"><title>v15</title>
<ellipse fill="none" stroke="black" cx="442.5" cy="-11" rx="43" ry="11"/>
<text text-anchor="middle" x="442.5" y="-8.8" font-family="sans-serif" font-size="9.00">SmartLight</text>
</g>
<!-- e7&#45;&gt;v15 -->
<g id="edge39" class="edge"><title>e7&#45;&gt;v15</title>
<path fill="none" stroke="green" d="M384.5,-126C384.5,-126 415.358,-105.053 428.5,-80 438.355,-61.2143 441.276,-36.1183 442.14,-22.2678"/>
</g>
<!-- e8&#45;&gt;v2 -->
<g id="edge41" class="edge"><title>e8&#45;&gt;v2</title>
<path fill="none" stroke="green" d="M442.5,-126C442.5,-126 290.481,-93.2575 218.926,-77.8455"/>
</g>
<!-- v16 -->
<g id="v16_Workstation" class="node"><title>v16</title>
<ellipse fill="none" stroke="black" cx="550.5" cy="-11" rx="47" ry="11"/>
<text text-anchor="middle" x="550.5" y="-8.8" font-family="sans-serif" font-size="9.00">Workstation</text>
</g>
<!-- e8&#45;&gt;v16 -->
<g id="edge42" class="edge"><title>e8&#45;&gt;v16</title>
<path fill="none" stroke="green" d="M442.5,-126C442.5,-126 514.484,-50.0168 540.916,-22.1167"/>
</g>
<!-- v4 -->
<g id="v4_Room" class="node"><title>v4</title>
<ellipse fill="none" stroke="black" cx="653.5" cy="-185" rx="21.5" ry="11"/>
<text text-anchor="middle" x="653.5" y="-182.8" font-family="sans-serif" font-size="9.00">Room</text>
</g>
<!-- e9&#45;&gt;v4 -->
<g id="edge44" class="edge"><title>e9&#45;&gt;v4</title>
<path fill="none" stroke="green" d="M693.5,-242C693.5,-242 671.698,-211.477 660.285,-195.5"/>
</g>
<!-- e9&#45;&gt;v9 -->
<g id="edge45" class="edge"><title>e9&#45;&gt;v9</title>
<path fill="none" stroke="green" d="M693.5,-242C693.5,-242 724.834,-221.438 736.5,-196 764.495,-134.956 760.11,-50.9459 757.556,-22.156"/>
</g>
<!-- v1 -->
<g id="v1_Floor" class="node"><title>v1</title>
<ellipse fill="none" stroke="black" cx="531.5" cy="-243" rx="25" ry="11"/>
<text text-anchor="middle" x="531.5" y="-240.8" font-family="sans-serif" font-size="9.00">Floor</text>
</g>
<!-- v0&#45;&gt;v1 -->
<g id="edge2" class="edge"><title>v0&#45;&gt;v1</title>
<path fill="none" stroke="black" d="M298.432,-294.007C349.033,-283.15 455.215,-260.368 504.856,-249.717"/>
<polygon fill="black" stroke="black" points="509.766,-248.663 505.349,-251.912 507.322,-249.188 504.877,-249.712 504.877,-249.712 504.877,-249.712 507.322,-249.188 504.405,-247.512 509.766,-248.663 509.766,-248.663"/>
</g>
<!-- v0&#45;&gt;v2 -->
<g id="edge3" class="edge"><title>v0&#45;&gt;v2</title>
<path fill="none" stroke="black" d="M266.605,-289.82C252.605,-253.229 204.787,-128.25 188.212,-84.9288"/>
<polygon fill="black" stroke="black" points="186.35,-80.062 190.238,-83.9278 187.243,-82.397 188.137,-84.7319 188.137,-84.7319 188.137,-84.7319 187.243,-82.397 186.035,-85.536 186.35,-80.062 186.35,-80.062"/>
</g>
<!-- v1&#45;&gt;v4 -->
<g id="edge4" class="edge"><title>v1&#45;&gt;v4</title>
<path fill="none" stroke="black" d="M547.701,-234.564C569.941,-224.355 609.889,-206.018 633.822,-195.033"/>
<polygon fill="black" stroke="black" points="638.385,-192.938 634.779,-197.069 636.112,-193.981 633.84,-195.024 633.84,-195.024 633.84,-195.024 636.112,-193.981 632.902,-192.979 638.385,-192.938 638.385,-192.938"/>
</g>
<!-- v1&#45;&gt;v9 -->
<g id="edge5" class="edge"><title>v1&#45;&gt;v9</title>
<path fill="none" stroke="black" d="M556.289,-240.953C589.331,-238.27 647.78,-228.844 683.5,-196 734.408,-149.19 750.389,-62.2769 754.896,-27.2327"/>
<polygon fill="black" stroke="black" points="755.525,-22.0678 757.154,-27.303 755.223,-24.5495 754.921,-27.0312 754.921,-27.0312 754.921,-27.0312 755.223,-24.5495 752.687,-26.7593 755.525,-22.0678 755.525,-22.0678"/>
</g>
<!-- v1&#45;&gt;v10 -->
<g id="edge6" class="edge"><title>v1&#45;&gt;v10</title>
<path fill="none" stroke="black" d="M528.073,-232.053C519.323,-208.169 493.811,-147.251 451.5,-116 428.698,-99.1581 349.19,-82.3131 308.262,-74.5024"/>
<polygon fill="black" stroke="black" points="303.23,-73.5505 308.561,-72.2691 305.686,-74.0152 308.143,-74.4799 308.143,-74.4799 308.143,-74.4799 305.686,-74.0152 307.725,-76.6907 303.23,-73.5505 303.23,-73.5505"/>
</g>
<!-- v1&#45;&gt;v14 -->
<g id="edge7" class="edge"><title>v1&#45;&gt;v14</title>
<path fill="none" stroke="black" d="M532.215,-231.756C534.236,-202.786 540.002,-120.136 542.416,-85.5335"/>
<polygon fill="black" stroke="black" points="542.774,-80.4081 544.67,-85.5526 542.6,-82.902 542.426,-85.396 542.426,-85.396 542.426,-85.396 542.6,-82.902 540.181,-85.2393 542.774,-80.4081 542.774,-80.4081"/>
</g>
<!-- v3 -->
<g id="v3_Data" class="node"><title>v3</title>
<ellipse fill="none" stroke="black" cx="21.5" cy="-11" rx="21.5" ry="11"/>
<text text-anchor="middle" x="21.5" y="-8.8" font-family="sans-serif" font-size="9.00">Data</text>
</g>
<!-- v2&#45;&gt;v3 -->
<g id="edge8" class="edge"><title>v2&#45;&gt;v3</title>
<path fill="none" stroke="black" d="M156.633,-59.0026C125.206,-48.0717 72.7472,-29.8251 43.2871,-19.5781"/>
<polygon fill="black" stroke="black" points="38.4137,-17.883 43.8754,-17.4006 40.7749,-18.7044 43.1362,-19.5257 43.1362,-19.5257 43.1362,-19.5257 40.7749,-18.7044 42.397,-21.6508 38.4137,-17.883 38.4137,-17.883"/>
</g>
<!-- v5 -->
<g id="v5_Visitor" class="node"><title>v5</title>
<ellipse fill="none" stroke="black" cx="623.5" cy="-127" rx="32.5" ry="11"/>
<text text-anchor="middle" x="623.5" y="-124.8" font-family="sans-serif" font-size="9.00">Visitor</text>
</g>
<!-- v4&#45;&gt;v5 -->
<g id="edge9" class="edge"><title>v4&#45;&gt;v5</title>
<path fill="none" stroke="black" d="M648.274,-174.246C643.6,-165.52 636.683,-152.608 631.345,-142.643"/>
<polygon fill="black" stroke="black" points="628.868,-138.02 633.212,-141.365 630.048,-140.223 631.229,-142.427 631.229,-142.427 631.229,-142.427 630.048,-140.223 629.246,-143.49 628.868,-138.02 628.868,-138.02"/>
</g>
<!-- v4&#45;&gt;v8 -->
<g id="edge10" class="edge"><title>v4&#45;&gt;v8</title>
<path fill="none" stroke="black" d="M656.642,-173.892C659.339,-164.654 663.019,-150.558 664.5,-138 669.196,-98.1668 664.102,-50.8381 660.822,-27.1267"/>
<polygon fill="black" stroke="black" points="660.114,-22.1655 663.048,-26.7975 660.467,-24.6405 660.821,-27.1154 660.821,-27.1154 660.821,-27.1154 660.467,-24.6405 658.593,-27.4333 660.114,-22.1655 660.114,-22.1655"/>
</g>
<!-- v5&#45;&gt;v6 -->
<g id="edge11" class="edge"><title>v5&#45;&gt;v6</title>
<path fill="none" stroke="black" d="M598.121,-119.9C554.284,-109.364 464.681,-87.8289 418.859,-76.8159"/>
<polygon fill="black" stroke="black" points="413.762,-75.5908 419.149,-74.5716 416.192,-76.175 418.623,-76.7593 418.623,-76.7593 418.623,-76.7593 416.192,-76.175 418.097,-78.947 413.762,-75.5908 413.762,-75.5908"/>
</g>
<!-- v7 -->
<g id="v7_Data" class="node"><title>v7</title>
<ellipse fill="none" stroke="black" cx="359.5" cy="-11" rx="21.5" ry="11"/>
<text text-anchor="middle" x="359.5" y="-8.8" font-family="sans-serif" font-size="9.00">Data</text>
</g>
<!-- v6&#45;&gt;v7 -->
<g id="edge12" class="edge"><title>v6&#45;&gt;v7</title>
<path fill="none" stroke="black" d="M384.958,-57.9883C380.109,-49.2286 373.005,-36.3956 367.532,-26.5103"/>
<polygon fill="black" stroke="black" points="364.994,-21.925 369.384,-25.2097 366.205,-24.1122 367.416,-26.2995 367.416,-26.2995 367.416,-26.2995 366.205,-24.1122 365.447,-27.3892 364.994,-21.925 364.994,-21.925"/>
</g>
<!-- v10&#45;&gt;v11 -->
<g id="edge13" class="edge"><title>v10&#45;&gt;v11</title>
<path fill="none" stroke="black" d="M282.249,-57.9883C281.187,-49.4941 279.646,-37.1697 278.427,-27.4169"/>
<polygon fill="black" stroke="black" points="277.788,-22.3039 280.641,-26.9861 278.098,-24.7846 278.408,-27.2653 278.408,-27.2653 278.408,-27.2653 278.098,-24.7846 276.176,-27.5444 277.788,-22.3039 277.788,-22.3039"/>
</g>
<!-- v10&#45;&gt;v12 -->
<g id="edge14" class="edge"><title>v10&#45;&gt;v12</title>
<path fill="none" stroke="black" d="M270.013,-60.2134C253.408,-50.6274 225.08,-34.2731 206.08,-23.3041"/>
<polygon fill="black" stroke="black" points="201.464,-20.6388 206.919,-21.1901 203.629,-21.8887 205.794,-23.1387 205.794,-23.1387 205.794,-23.1387 203.629,-21.8887 204.669,-25.0873 201.464,-20.6388 201.464,-20.6388"/>
</g>
<!-- v10&#45;&gt;v13 -->
<g id="edge15" class="edge"><title>v10&#45;&gt;v13</title>
<path fill="none" stroke="black" d="M266.138,-62.3381C261.697,-60.9066 256.926,-59.3835 252.5,-58 210.459,-44.859 161.695,-30.205 130.971,-21.0441"/>
<polygon fill="black" stroke="black" points="125.824,-19.5107 131.259,-18.7822 128.22,-20.2246 130.616,-20.9385 130.616,-20.9385 130.616,-20.9385 128.22,-20.2246 129.974,-23.0948 125.824,-19.5107 125.824,-19.5107"/>
</g>
<!-- v14&#45;&gt;v15 -->
<g id="edge16" class="edge"><title>v14&#45;&gt;v15</title>
<path fill="none" stroke="black" d="M529.879,-60.4476C512.93,-51.0504 483.796,-34.8967 463.865,-23.8458"/>
<polygon fill="black" stroke="black" points="459.26,-21.2924 464.723,-21.7492 461.446,-22.5047 463.632,-23.717 463.632,-23.717 463.632,-23.717 461.446,-22.5047 462.541,-25.6848 459.26,-21.2924 459.26,-21.2924"/>
</g>
<!-- v14&#45;&gt;v16 -->
<g id="edge17" class="edge"><title>v14&#45;&gt;v16</title>
<path fill="none" stroke="black" d="M544.751,-57.9883C545.813,-49.4941 547.354,-37.1697 548.573,-27.4169"/>
<polygon fill="black" stroke="black" points="549.212,-22.3039 550.824,-27.5444 548.902,-24.7846 548.592,-27.2653 548.592,-27.2653 548.592,-27.2653 548.902,-24.7846 546.359,-26.9861 549.212,-22.3039 549.212,-22.3039"/>
</g>
</g>
</svg>
