<?xml version="1.0" encoding="UTF-8" standalone="no"?>
<?xml-stylesheet href="style.css" type="text/css"?>
<!DOCTYPE svg PUBLIC "-//W3C//DTD SVG 1.1//EN"
 "http://www.w3.org/Graphics/SVG/1.1/DTD/svg11.dtd">
<!-- Generated by graphviz version 2.38.0 (20140413.2041)
 -->
<!-- Title: 20.svg Pages: 1 -->
<svg width="793pt" height="374pt"
 viewBox="0.00 0.00 793.00 374.00" xmlns="http://www.w3.org/2000/svg" xmlns:xlink="http://www.w3.org/1999/xlink">
<g id="graph0" class="graph" transform="scale(1 1) rotate(0) translate(4 370)">
<title>20.svg</title>
<polygon fill="white" stroke="none" points="-4,4 -4,-370 789,-370 789,4 -4,4"/>
<!-- r0 -->
<g id="node1" class="node"><title>r0</title>
<polygon fill="none" stroke="black" stroke-dasharray="5,2" points="324.5,-366 301.5,-366 301.5,-348 324.5,-348 324.5,-366"/>
<text text-anchor="middle" x="313" y="-354.8" font-family="serif" font-size="9.00">0</text>
</g>
<!-- v0 -->
<g id="v0_Building" class="node"><title>v0</title>
<ellipse fill="none" stroke="black" cx="313" cy="-301" rx="36" ry="11"/>
<text text-anchor="middle" x="313" y="-298.8" font-family="sans-serif" font-size="9.00">Building</text>
</g>
<!-- r0&#45;&gt;v0 -->
<g id="edge1" class="edge"><title>r0&#45;&gt;v0</title>
<path fill="none" stroke="black" d="M313,-347.562C313,-339.453 313,-327.014 313,-317.181"/>
<polygon fill="black" stroke="black" points="313,-312.03 315.25,-317.03 313,-314.53 313,-317.03 313,-317.03 313,-317.03 313,-314.53 310.75,-317.03 313,-312.03 313,-312.03"/>
</g>
<!-- oalarm -->
<g id="node2" class="node"><title>oalarm</title>
<text text-anchor="middle" x="204" y="-354.8" font-family="serif" font-size="9.00">alarm</text>
</g>
<!-- e1 -->
<g id="node12" class="node"><title>e1</title>
</g>
<!-- oalarm&#45;&gt;e1 -->
<g id="edge19" class="edge"><title>oalarm&#45;&gt;e1</title>
<path fill="none" stroke="green" d="M204.463,-347.885C206.778,-307.27 217,-128 217,-128"/>
</g>
<!-- ocntrlRm -->
<g id="node3" class="node"><title>ocntrlRm</title>
<text text-anchor="middle" x="540" y="-354.8" font-family="serif" font-size="9.00">cntrlRm</text>
</g>
<!-- e2 -->
<g id="node13" class="node"><title>e2</title>
</g>
<!-- ocntrlRm&#45;&gt;e2 -->
<g id="edge22" class="edge"><title>ocntrlRm&#45;&gt;e2</title>
<path fill="none" stroke="green" d="M540,-347.945C540,-322.265 540,-244 540,-244"/>
</g>
<!-- oserv -->
<g id="node4" class="node"><title>oserv</title>
<text text-anchor="middle" x="262" y="-354.8" font-family="serif" font-size="9.00">serv</text>
</g>
<!-- e3 -->
<g id="node14" class="node"><title>e3</title>
</g>
<!-- oserv&#45;&gt;e3 -->
<g id="edge25" class="edge"><title>oserv&#45;&gt;e3</title>
<path fill="none" stroke="green" d="M261.537,-347.885C259.222,-307.27 249,-128 249,-128"/>
</g>
<!-- oserverRm -->
<g id="node5" class="node"><title>oserverRm</title>
<text text-anchor="middle" x="635" y="-354.8" font-family="serif" font-size="9.00">serverRm</text>
</g>
<!-- e4 -->
<g id="node15" class="node"><title>e4</title>
</g>
<!-- oserverRm&#45;&gt;e4 -->
<g id="edge28" class="edge"><title>oserverRm&#45;&gt;e4</title>
<path fill="none" stroke="green" d="M635,-347.945C635,-322.265 635,-244 635,-244"/>
</g>
<!-- osl1 -->
<g id="node6" class="node"><title>osl1</title>
<text text-anchor="middle" x="420" y="-354.8" font-family="serif" font-size="9.00">sl1</text>
</g>
<!-- e5 -->
<g id="node16" class="node"><title>e5</title>
</g>
<!-- osl1&#45;&gt;e5 -->
<g id="edge31" class="edge"><title>osl1&#45;&gt;e5</title>
<path fill="none" stroke="green" d="M419.822,-347.885C418.931,-307.27 415,-128 415,-128"/>
</g>
<!-- osl2 -->
<g id="node7" class="node"><title>osl2</title>
<text text-anchor="middle" x="372" y="-354.8" font-family="serif" font-size="9.00">sl2</text>
</g>
<!-- e6 -->
<g id="node17" class="node"><title>e6</title>
</g>
<!-- osl2&#45;&gt;e6 -->
<g id="edge34" class="edge"><title>osl2&#45;&gt;e6</title>
<path fill="none" stroke="green" d="M372.178,-347.885C373.069,-307.27 377,-128 377,-128"/>
</g>
<!-- osl3 -->
<g id="node8" class="node"><title>osl3</title>
<text text-anchor="middle" x="60" y="-354.8" font-family="serif" font-size="9.00">sl3</text>
</g>
<!-- e7 -->
<g id="node18" class="node"><title>e7</title>
</g>
<!-- osl3&#45;&gt;e7 -->
<g id="edge37" class="edge"><title>osl3&#45;&gt;e7</title>
<path fill="none" stroke="green" d="M60,-347.885C60,-307.27 60,-128 60,-128"/>
</g>
<!-- ostation -->
<g id="node9" class="node"><title>ostation</title>
<text text-anchor="middle" x="130" y="-354.8" font-family="serif" font-size="9.00">station</text>
</g>
<!-- e8 -->
<g id="node19" class="node"><title>e8</title>
</g>
<!-- ostation&#45;&gt;e8 -->
<g id="edge40" class="edge"><title>ostation&#45;&gt;e8</title>
<path fill="none" stroke="green" d="M130,-347.885C130,-307.27 130,-128 130,-128"/>
</g>
<!-- otoiletRm -->
<g id="node10" class="node"><title>otoiletRm</title>
<text text-anchor="middle" x="722" y="-354.8" font-family="serif" font-size="9.00">toiletRm</text>
</g>
<!-- e9 -->
<g id="node20" class="node"><title>e9</title>
</g>
<!-- otoiletRm&#45;&gt;e9 -->
<g id="edge43" class="edge"><title>otoiletRm&#45;&gt;e9</title>
<path fill="none" stroke="green" d="M722,-347.945C722,-322.265 722,-244 722,-244"/>
</g>
<!-- e0 -->
<g id="node11" class="node"><title>e0</title>
</g>
<!-- v5 -->
<g id="v5_Laptop" class="node"><title>v5</title>
<ellipse fill="none" stroke="black" cx="756" cy="-69" rx="29" ry="11"/>
<text text-anchor="middle" x="756" y="-66.8" font-family="sans-serif" font-size="9.00">Laptop</text>
</g>
<!-- e0&#45;&gt;v5 -->
<g id="edge18" class="edge"><title>e0&#45;&gt;v5</title>
<path fill="none" stroke="green" d="M756,-122.167C756,-113.586 756,-92.5957 756,-80.0117"/>
<polygon fill="green" stroke="green" points="759.5,-125.3 752.5,-125.3 752.5,-123.9 759.5,-123.9 759.5,-125.3"/>
<polyline fill="none" stroke="green" points="756,-126 756,-122.5 "/>
</g>
<!-- v9 -->
<g id="v9_InstallationBus" class="node"><title>v9</title>
<ellipse fill="none" stroke="black" cx="217" cy="-69" rx="61" ry="11"/>
<text text-anchor="middle" x="217" y="-66.8" font-family="sans-serif" font-size="9.00">InstallationBus</text>
</g>
<!-- e1&#45;&gt;v9 -->
<g id="edge20" class="edge"><title>e1&#45;&gt;v9</title>
<path fill="none" stroke="green" d="M217,-126C217,-126 217,-96.1193 217,-80.0117"/>
</g>
<!-- v16 -->
<g id="v16_FireAlarm" class="node"><title>v16</title>
<ellipse fill="none" stroke="black" cx="317" cy="-11" rx="39.5" ry="11"/>
<text text-anchor="middle" x="317" y="-8.8" font-family="sans-serif" font-size="9.00">FireAlarm</text>
</g>
<!-- e1&#45;&gt;v16 -->
<g id="edge21" class="edge"><title>e1&#45;&gt;v16</title>
<path fill="none" stroke="green" d="M217,-126C217,-126 262.948,-108.414 287,-80 301.839,-62.4694 310.547,-36.4421 314.475,-22.2091"/>
</g>
<!-- v2 -->
<g id="v2_Room" class="node"><title>v2</title>
<ellipse fill="none" stroke="black" cx="394" cy="-69" rx="21.5" ry="11"/>
<text text-anchor="middle" x="394" y="-66.8" font-family="sans-serif" font-size="9.00">Room</text>
</g>
<!-- e2&#45;&gt;v2 -->
<g id="edge23" class="edge"><title>e2&#45;&gt;v2</title>
<path fill="none" stroke="green" d="M540,-242C540,-242 492.366,-167.722 445,-116 432.115,-101.93 415.415,-87.4791 404.701,-78.6191"/>
</g>
<!-- v3 -->
<g id="v3_Hallway" class="node"><title>v3</title>
<ellipse fill="none" stroke="black" cx="666" cy="-185" rx="32.5" ry="11"/>
<text text-anchor="middle" x="666" y="-182.8" font-family="sans-serif" font-size="9.00">Hallway</text>
</g>
<!-- e2&#45;&gt;v3 -->
<g id="edge24" class="edge"><title>e2&#45;&gt;v3</title>
<path fill="none" stroke="green" d="M540,-242C540,-242 612.733,-209.674 647.679,-194.143"/>
</g>
<!-- e3&#45;&gt;v9 -->
<g id="edge26" class="edge"><title>e3&#45;&gt;v9</title>
<path fill="none" stroke="green" d="M249,-126C249,-126 231.925,-96.1193 222.721,-80.0117"/>
</g>
<!-- v15 -->
<g id="v15_Server" class="node"><title>v15</title>
<ellipse fill="none" stroke="black" cx="403" cy="-11" rx="29" ry="11"/>
<text text-anchor="middle" x="403" y="-8.8" font-family="sans-serif" font-size="9.00">Server</text>
</g>
<!-- e3&#45;&gt;v15 -->
<g id="edge27" class="edge"><title>e3&#45;&gt;v15</title>
<path fill="none" stroke="green" d="M249,-126C249,-126 354.114,-48.1882 390.658,-21.1364"/>
</g>
<!-- e4&#45;&gt;v3 -->
<g id="edge29" class="edge"><title>e4&#45;&gt;v3</title>
<path fill="none" stroke="green" d="M635,-242C635,-242 651.541,-212.119 660.458,-196.012"/>
</g>
<!-- v13 -->
<g id="v13_Room" class="node"><title>v13</title>
<ellipse fill="none" stroke="black" cx="494" cy="-69" rx="21.5" ry="11"/>
<text text-anchor="middle" x="494" y="-66.8" font-family="sans-serif" font-size="9.00">Room</text>
</g>
<!-- e4&#45;&gt;v13 -->
<g id="edge30" class="edge"><title>e4&#45;&gt;v13</title>
<path fill="none" stroke="green" d="M635,-242C635,-242 588.92,-167.954 543,-116 530.791,-102.187 514.987,-87.9017 504.677,-78.9892"/>
</g>
<!-- e5&#45;&gt;v9 -->
<g id="edge32" class="edge"><title>e5&#45;&gt;v9</title>
<path fill="none" stroke="green" d="M415,-126C415,-126 399.029,-120.015 386,-116 339.069,-101.539 284.093,-87.0163 249.899,-78.2652"/>
</g>
<!-- v12 -->
<g id="v12_SmartLight" class="node"><title>v12</title>
<ellipse fill="none" stroke="black" cx="597" cy="-11" rx="43" ry="11"/>
<text text-anchor="middle" x="597" y="-8.8" font-family="sans-serif" font-size="9.00">SmartLight</text>
</g>
<!-- e5&#45;&gt;v12 -->
<g id="edge33" class="edge"><title>e5&#45;&gt;v12</title>
<path fill="none" stroke="green" d="M415,-126C415,-126 479.864,-108.58 524,-80 550.169,-63.0544 575.628,-36.3204 588.438,-21.9406"/>
</g>
<!-- e6&#45;&gt;v9 -->
<g id="edge35" class="edge"><title>e6&#45;&gt;v9</title>
<path fill="none" stroke="green" d="M377,-126C377,-126 287.935,-94.8273 242.707,-78.9974"/>
</g>
<!-- v14 -->
<g id="v14_SmartLight" class="node"><title>v14</title>
<ellipse fill="none" stroke="black" cx="493" cy="-11" rx="43" ry="11"/>
<text text-anchor="middle" x="493" y="-8.8" font-family="sans-serif" font-size="9.00">SmartLight</text>
</g>
<!-- e6&#45;&gt;v14 -->
<g id="edge36" class="edge"><title>e6&#45;&gt;v14</title>
<path fill="none" stroke="green" d="M377,-126C377,-126 403.146,-100.48 424,-80 444.879,-59.4944 469.252,-35.4493 482.724,-22.1493"/>
</g>
<!-- v6 -->
<g id="v6_SmartLight" class="node"><title>v6</title>
<ellipse fill="none" stroke="black" cx="43" cy="-11" rx="43" ry="11"/>
<text text-anchor="middle" x="43" y="-8.8" font-family="sans-serif" font-size="9.00">SmartLight</text>
</g>
<!-- e7&#45;&gt;v6 -->
<g id="edge38" class="edge"><title>e7&#45;&gt;v6</title>
<path fill="none" stroke="green" d="M60,-126C60,-126 48.6692,-50.0168 44.5086,-22.1167"/>
</g>
<!-- e7&#45;&gt;v9 -->
<g id="edge39" class="edge"><title>e7&#45;&gt;v9</title>
<path fill="none" stroke="green" d="M60,-126C60,-126 146.938,-94.9903 191.426,-79.122"/>
</g>
<!-- v7 -->
<g id="v7_Workstation" class="node"><title>v7</title>
<ellipse fill="none" stroke="black" cx="151" cy="-11" rx="47" ry="11"/>
<text text-anchor="middle" x="151" y="-8.8" font-family="sans-serif" font-size="9.00">Workstation</text>
</g>
<!-- e8&#45;&gt;v7 -->
<g id="edge41" class="edge"><title>e8&#45;&gt;v7</title>
<path fill="none" stroke="green" d="M130,-126C130,-126 143.997,-50.0168 149.136,-22.1167"/>
</g>
<!-- e8&#45;&gt;v9 -->
<g id="edge42" class="edge"><title>e8&#45;&gt;v9</title>
<path fill="none" stroke="green" d="M130,-126C130,-126 176.92,-95.7988 201.846,-79.7545"/>
</g>
<!-- e9&#45;&gt;v3 -->
<g id="edge44" class="edge"><title>e9&#45;&gt;v3</title>
<path fill="none" stroke="green" d="M722,-242C722,-242 691.799,-211.799 675.754,-195.754"/>
</g>
<!-- v11 -->
<g id="v11_Room" class="node"><title>v11</title>
<ellipse fill="none" stroke="black" cx="597" cy="-69" rx="21.5" ry="11"/>
<text text-anchor="middle" x="597" y="-66.8" font-family="sans-serif" font-size="9.00">Room</text>
</g>
<!-- e9&#45;&gt;v11 -->
<g id="edge45" class="edge"><title>e9&#45;&gt;v11</title>
<path fill="none" stroke="green" d="M722,-242C722,-242 741.842,-161.049 708,-116 686.324,-87.1468 643.253,-76.2832 617.603,-72.2718"/>
</g>
<!-- v1 -->
<g id="v1_Floor" class="node"><title>v1</title>
<ellipse fill="none" stroke="black" cx="491" cy="-243" rx="25" ry="11"/>
<text text-anchor="middle" x="491" y="-240.8" font-family="sans-serif" font-size="9.00">Floor</text>
</g>
<!-- v0&#45;&gt;v1 -->
<g id="edge2" class="edge"><title>v0&#45;&gt;v1</title>
<path fill="none" stroke="black" d="M336.637,-292.564C370.528,-281.901 432.602,-262.372 466.802,-251.613"/>
<polygon fill="black" stroke="black" points="471.639,-250.091 467.544,-253.738 469.254,-250.842 466.869,-251.592 466.869,-251.592 466.869,-251.592 469.254,-250.842 466.194,-249.446 471.639,-250.091 471.639,-250.091"/>
</g>
<!-- v0&#45;&gt;v9 -->
<g id="edge3" class="edge"><title>v0&#45;&gt;v9</title>
<path fill="none" stroke="black" d="M303.429,-290.102C281.18,-266.313 226.395,-203.064 207,-138 201.718,-120.279 206.495,-99.0944 211.089,-85.1334"/>
<polygon fill="black" stroke="black" points="212.754,-80.3365 213.24,-85.7979 211.934,-82.6982 211.114,-85.06 211.114,-85.06 211.114,-85.06 211.934,-82.6982 208.988,-84.3221 212.754,-80.3365 212.754,-80.3365"/>
</g>
<!-- v1&#45;&gt;v2 -->
<g id="edge4" class="edge"><title>v1&#45;&gt;v2</title>
<path fill="none" stroke="black" d="M486.081,-232.033C475.38,-210.515 448.939,-158.243 424,-116 417.502,-104.993 409.582,-92.8992 403.512,-83.8754"/>
<polygon fill="black" stroke="black" points="400.695,-79.7104 405.36,-82.5915 402.096,-81.7812 403.496,-83.8521 403.496,-83.8521 403.496,-83.8521 402.096,-81.7812 401.633,-85.1126 400.695,-79.7104 400.695,-79.7104"/>
</g>
<!-- v1&#45;&gt;v3 -->
<g id="edge5" class="edge"><title>v1&#45;&gt;v3</title>
<path fill="none" stroke="black" d="M510.397,-235.793C541.61,-225.805 603.083,-206.133 638.708,-194.734"/>
<polygon fill="black" stroke="black" points="643.77,-193.114 639.693,-196.781 641.388,-193.876 639.007,-194.638 639.007,-194.638 639.007,-194.638 641.388,-193.876 638.322,-192.495 643.77,-193.114 643.77,-193.114"/>
</g>
<!-- v1&#45;&gt;v11 -->
<g id="edge6" class="edge"><title>v1&#45;&gt;v11</title>
<path fill="none" stroke="black" d="M497.003,-232.26C514.785,-203.405 567.252,-118.271 588.208,-84.2667"/>
<polygon fill="black" stroke="black" points="591.063,-79.6335 590.355,-85.0705 589.751,-81.7618 588.44,-83.8901 588.44,-83.8901 588.44,-83.8901 589.751,-81.7618 586.524,-82.7096 591.063,-79.6335 591.063,-79.6335"/>
</g>
<!-- v1&#45;&gt;v13 -->
<g id="edge7" class="edge"><title>v1&#45;&gt;v13</title>
<path fill="none" stroke="black" d="M491.179,-231.756C491.684,-202.786 493.126,-120.136 493.729,-85.5335"/>
<polygon fill="black" stroke="black" points="493.818,-80.4081 495.981,-85.4466 493.775,-82.9077 493.731,-85.4073 493.731,-85.4073 493.731,-85.4073 493.775,-82.9077 491.482,-85.368 493.818,-80.4081 493.818,-80.4081"/>
</g>
<!-- v2&#45;&gt;v6 -->
<g id="edge8" class="edge"><title>v2&#45;&gt;v6</title>
<path fill="none" stroke="black" d="M373.655,-65.1375C325.265,-58.2708 199.538,-40.0867 95,-22 90.1763,-21.1654 85.1094,-20.2454 80.1093,-19.3115"/>
<polygon fill="black" stroke="black" points="75.1428,-18.3757 80.473,-17.0905 77.5996,-18.8387 80.0563,-19.3016 80.0563,-19.3016 80.0563,-19.3016 77.5996,-18.8387 79.6397,-21.5127 75.1428,-18.3757 75.1428,-18.3757"/>
</g>
<!-- v2&#45;&gt;v7 -->
<g id="edge9" class="edge"><title>v2&#45;&gt;v7</title>
<path fill="none" stroke="black" d="M374.932,-63.6058C334.503,-54.2888 239.603,-32.4188 187.255,-20.355"/>
<polygon fill="black" stroke="black" points="182.325,-19.2189 187.702,-18.1493 184.761,-19.7803 187.197,-20.3418 187.197,-20.3418 187.197,-20.3418 184.761,-19.7803 186.692,-22.5343 182.325,-19.2189 182.325,-19.2189"/>
</g>
<!-- v4 -->
<g id="v4_Visitor" class="node"><title>v4</title>
<ellipse fill="none" stroke="black" cx="666" cy="-127" rx="32.5" ry="11"/>
<text text-anchor="middle" x="666" y="-124.8" font-family="sans-serif" font-size="9.00">Visitor</text>
</g>
<!-- v3&#45;&gt;v4 -->
<g id="edge10" class="edge"><title>v3&#45;&gt;v4</title>
<path fill="none" stroke="black" d="M666,-173.988C666,-165.494 666,-153.17 666,-143.417"/>
<polygon fill="black" stroke="black" points="666,-138.304 668.25,-143.304 666,-140.804 666,-143.304 666,-143.304 666,-143.304 666,-140.804 663.75,-143.304 666,-138.304 666,-138.304"/>
</g>
<!-- v4&#45;&gt;v5 -->
<g id="edge11" class="edge"><title>v4&#45;&gt;v5</title>
<path fill="none" stroke="black" d="M680.46,-117.003C695.903,-107.394 720.43,-92.1324 737.324,-81.6206"/>
<polygon fill="black" stroke="black" points="741.873,-78.7904 738.816,-83.3423 739.75,-80.1112 737.627,-81.432 737.627,-81.432 737.627,-81.432 739.75,-80.1112 736.439,-79.5216 741.873,-78.7904 741.873,-78.7904"/>
</g>
<!-- v8 -->
<g id="v8_Data" class="node"><title>v8</title>
<ellipse fill="none" stroke="black" cx="756" cy="-11" rx="21.5" ry="11"/>
<text text-anchor="middle" x="756" y="-8.8" font-family="sans-serif" font-size="9.00">Data</text>
</g>
<!-- v5&#45;&gt;v8 -->
<g id="edge12" class="edge"><title>v5&#45;&gt;v8</title>
<path fill="none" stroke="black" d="M756,-57.9883C756,-49.4941 756,-37.1697 756,-27.4169"/>
<polygon fill="black" stroke="black" points="756,-22.3039 758.25,-27.3038 756,-24.8039 756,-27.3039 756,-27.3039 756,-27.3039 756,-24.8039 753.75,-27.3039 756,-22.3039 756,-22.3039"/>
</g>
<!-- v10 -->
<g id="v10_Data" class="node"><title>v10</title>
<ellipse fill="none" stroke="black" cx="238" cy="-11" rx="21.5" ry="11"/>
<text text-anchor="middle" x="238" y="-8.8" font-family="sans-serif" font-size="9.00">Data</text>
</g>
<!-- v9&#45;&gt;v10 -->
<g id="edge13" class="edge"><title>v9&#45;&gt;v10</title>
<path fill="none" stroke="black" d="M220.754,-57.9883C224.009,-49.3083 228.764,-36.6286 232.457,-26.7806"/>
<polygon fill="black" stroke="black" points="234.278,-21.925 234.629,-27.3967 233.4,-24.2658 232.522,-26.6067 232.522,-26.6067 232.522,-26.6067 233.4,-24.2658 230.416,-25.8166 234.278,-21.925 234.278,-21.925"/>
</g>
<!-- v11&#45;&gt;v12 -->
<g id="edge14" class="edge"><title>v11&#45;&gt;v12</title>
<path fill="none" stroke="black" d="M597,-57.9883C597,-49.4941 597,-37.1697 597,-27.4169"/>
<polygon fill="black" stroke="black" points="597,-22.3039 599.25,-27.3038 597,-24.8039 597,-27.3039 597,-27.3039 597,-27.3039 597,-24.8039 594.75,-27.3039 597,-22.3039 597,-22.3039"/>
</g>
<!-- v13&#45;&gt;v14 -->
<g id="edge15" class="edge"><title>v13&#45;&gt;v14</title>
<path fill="none" stroke="black" d="M493.821,-57.9883C493.67,-49.4941 493.449,-37.1697 493.275,-27.4169"/>
<polygon fill="black" stroke="black" points="493.184,-22.3039 495.523,-27.2629 493.229,-24.8035 493.273,-27.3031 493.273,-27.3031 493.273,-27.3031 493.229,-24.8035 491.024,-27.3433 493.184,-22.3039 493.184,-22.3039"/>
</g>
<!-- v13&#45;&gt;v15 -->
<g id="edge16" class="edge"><title>v13&#45;&gt;v15</title>
<path fill="none" stroke="black" d="M480.962,-59.9766C465.377,-50.3857 439.189,-34.2701 421.512,-23.3918"/>
<polygon fill="black" stroke="black" points="417.213,-20.7462 422.65,-21.4505 419.342,-22.0564 421.471,-23.3667 421.471,-23.3667 421.471,-23.3667 419.342,-22.0564 420.292,-25.2829 417.213,-20.7462 417.213,-20.7462"/>
</g>
<!-- v13&#45;&gt;v16 -->
<g id="edge17" class="edge"><title>v13&#45;&gt;v16</title>
<path fill="none" stroke="black" d="M476.381,-62.4258C445.92,-52.7884 383.128,-32.9217 346.101,-21.2071"/>
<polygon fill="black" stroke="black" points="341.275,-19.6801 346.721,-19.0432 343.658,-20.4343 346.042,-21.1884 346.042,-21.1884 346.042,-21.1884 343.658,-20.4343 345.363,-23.3336 341.275,-19.6801 341.275,-19.6801"/>
</g>
</g>
</svg>
