<?xml version="1.0" encoding="UTF-8" standalone="no"?>
<?xml-stylesheet href="style.css" type="text/css"?>
<!DOCTYPE svg PUBLIC "-//W3C//DTD SVG 1.1//EN"
 "http://www.w3.org/Graphics/SVG/1.1/DTD/svg11.dtd">
<!-- Generated by graphviz version 2.38.0 (20140413.2041)
 -->
<!-- Title: 5.svg Pages: 1 -->
<svg width="863pt" height="316pt"
 viewBox="0.00 0.00 863.00 316.00" xmlns="http://www.w3.org/2000/svg" xmlns:xlink="http://www.w3.org/1999/xlink">
<g id="graph0" class="graph" transform="scale(1 1) rotate(0) translate(4 312)">
<title>5.svg</title>
<polygon fill="white" stroke="none" points="-4,4 -4,-312 859,-312 859,4 -4,4"/>
<!-- r0 -->
<g id="node1" class="node"><title>r0</title>
<polygon fill="none" stroke="black" stroke-dasharray="5,2" points="295,-308 272,-308 272,-290 295,-290 295,-308"/>
<text text-anchor="middle" x="283.5" y="-296.8" font-family="serif" font-size="9.00">0</text>
</g>
<!-- v0 -->
<g id="v0_Building" class="node"><title>v0</title>
<ellipse fill="none" stroke="black" cx="283.5" cy="-243" rx="36" ry="11"/>
<text text-anchor="middle" x="283.5" y="-240.8" font-family="sans-serif" font-size="9.00">Building</text>
</g>
<!-- r0&#45;&gt;v0 -->
<g id="edge1" class="edge"><title>r0&#45;&gt;v0</title>
<path fill="none" stroke="black" d="M283.5,-289.562C283.5,-281.453 283.5,-269.014 283.5,-259.181"/>
<polygon fill="black" stroke="black" points="283.5,-254.03 285.75,-259.03 283.5,-256.53 283.5,-259.03 283.5,-259.03 283.5,-259.03 283.5,-256.53 281.25,-259.03 283.5,-254.03 283.5,-254.03"/>
</g>
<!-- oalarm -->
<g id="node2" class="node"><title>oalarm</title>
<text text-anchor="middle" x="39.5" y="-296.8" font-family="serif" font-size="9.00">alarm</text>
</g>
<!-- e1 -->
<g id="node12" class="node"><title>e1</title>
</g>
<!-- oalarm&#45;&gt;e1 -->
<g id="edge18" class="edge"><title>oalarm&#45;&gt;e1</title>
<path fill="none" stroke="green" d="M39.5,-289.801C39.5,-255.842 39.5,-128 39.5,-128"/>
</g>
<!-- ocntrlRm -->
<g id="node3" class="node"><title>ocntrlRm</title>
<text text-anchor="middle" x="734.5" y="-296.8" font-family="serif" font-size="9.00">cntrlRm</text>
</g>
<!-- e2 -->
<g id="node13" class="node"><title>e2</title>
</g>
<!-- ocntrlRm&#45;&gt;e2 -->
<g id="edge21" class="edge"><title>ocntrlRm&#45;&gt;e2</title>
<path fill="none" stroke="green" d="M734.5,-289.945C734.5,-264.265 734.5,-186 734.5,-186"/>
</g>
<!-- oserv -->
<g id="node4" class="node"><title>oserv</title>
<text text-anchor="middle" x="98.5" y="-296.8" font-family="serif" font-size="9.00">serv</text>
</g>
<!-- e3 -->
<g id="node14" class="node"><title>e3</title>
</g>
<!-- oserv&#45;&gt;e3 -->
<g id="edge24" class="edge"><title>oserv&#45;&gt;e3</title>
<path fill="none" stroke="green" d="M98.5,-289.801C98.5,-255.842 98.5,-128 98.5,-128"/>
</g>
<!-- oserverRm -->
<g id="node5" class="node"><title>oserverRm</title>
<text text-anchor="middle" x="482.5" y="-296.8" font-family="serif" font-size="9.00">serverRm</text>
</g>
<!-- e4 -->
<g id="node15" class="node"><title>e4</title>
</g>
<!-- oserverRm&#45;&gt;e4 -->
<g id="edge27" class="edge"><title>oserverRm&#45;&gt;e4</title>
<path fill="none" stroke="green" d="M482.5,-289.801C482.5,-255.842 482.5,-128 482.5,-128"/>
</g>
<!-- osl1 -->
<g id="node6" class="node"><title>osl1</title>
<text text-anchor="middle" x="218.5" y="-296.8" font-family="serif" font-size="9.00">sl1</text>
</g>
<!-- e5 -->
<g id="node16" class="node"><title>e5</title>
</g>
<!-- osl1&#45;&gt;e5 -->
<g id="edge30" class="edge"><title>osl1&#45;&gt;e5</title>
<path fill="none" stroke="green" d="M220.626,-289.757C223.961,-277.152 230.837,-252.399 238.5,-232 256.337,-184.517 285.5,-128 285.5,-128"/>
</g>
<!-- osl2 -->
<g id="node7" class="node"><title>osl2</title>
<text text-anchor="middle" x="163.5" y="-296.8" font-family="serif" font-size="9.00">sl2</text>
</g>
<!-- e6 -->
<g id="node17" class="node"><title>e6</title>
</g>
<!-- osl2&#45;&gt;e6 -->
<g id="edge33" class="edge"><title>osl2&#45;&gt;e6</title>
<path fill="none" stroke="green" d="M163.5,-289.801C163.5,-255.842 163.5,-128 163.5,-128"/>
</g>
<!-- osl3 -->
<g id="node8" class="node"><title>osl3</title>
<text text-anchor="middle" x="347.5" y="-296.8" font-family="serif" font-size="9.00">sl3</text>
</g>
<!-- e7 -->
<g id="node18" class="node"><title>e7</title>
</g>
<!-- osl3&#45;&gt;e7 -->
<g id="edge36" class="edge"><title>osl3&#45;&gt;e7</title>
<path fill="none" stroke="green" d="M347.5,-289.801C347.5,-255.842 347.5,-128 347.5,-128"/>
</g>
<!-- ostation -->
<g id="node9" class="node"><title>ostation</title>
<text text-anchor="middle" x="407.5" y="-296.8" font-family="serif" font-size="9.00">station</text>
</g>
<!-- e8 -->
<g id="node19" class="node"><title>e8</title>
</g>
<!-- ostation&#45;&gt;e8 -->
<g id="edge39" class="edge"><title>ostation&#45;&gt;e8</title>
<path fill="none" stroke="green" d="M407.5,-289.801C407.5,-255.842 407.5,-128 407.5,-128"/>
</g>
<!-- otoiletRm -->
<g id="node10" class="node"><title>otoiletRm</title>
<text text-anchor="middle" x="652.5" y="-296.8" font-family="serif" font-size="9.00">toiletRm</text>
</g>
<!-- e9 -->
<g id="node20" class="node"><title>e9</title>
</g>
<!-- otoiletRm&#45;&gt;e9 -->
<g id="edge42" class="edge"><title>otoiletRm&#45;&gt;e9</title>
<path fill="none" stroke="green" d="M652.5,-289.801C652.5,-255.842 652.5,-128 652.5,-128"/>
</g>
<!-- e0 -->
<g id="node11" class="node"><title>e0</title>
</g>
<!-- v7 -->
<g id="v7_Laptop" class="node"><title>v7</title>
<ellipse fill="none" stroke="black" cx="771.5" cy="-11" rx="29" ry="11"/>
<text text-anchor="middle" x="771.5" y="-8.8" font-family="sans-serif" font-size="9.00">Laptop</text>
</g>
<!-- e0&#45;&gt;v7 -->
<g id="edge17" class="edge"><title>e0&#45;&gt;v7</title>
<path fill="none" stroke="green" d="M771.5,-64.1674C771.5,-55.5862 771.5,-34.5957 771.5,-22.0117"/>
<polygon fill="green" stroke="green" points="775,-67.3001 768,-67.2999 768,-65.8999 775,-65.9001 775,-67.3001"/>
<polyline fill="none" stroke="green" points="771.5,-68 771.5,-64.5 "/>
</g>
<!-- v1 -->
<g id="v1_InstallationBus" class="node"><title>v1</title>
<ellipse fill="none" stroke="black" cx="220.5" cy="-69" rx="61" ry="11"/>
<text text-anchor="middle" x="220.5" y="-66.8" font-family="sans-serif" font-size="9.00">InstallationBus</text>
</g>
<!-- e1&#45;&gt;v1 -->
<g id="edge19" class="edge"><title>e1&#45;&gt;v1</title>
<path fill="none" stroke="green" d="M39.5,-126C39.5,-126 141.312,-94.5 192.219,-78.75"/>
</g>
<!-- v15 -->
<g id="v15_FireAlarm" class="node"><title>v15</title>
<ellipse fill="none" stroke="black" cx="39.5" cy="-11" rx="39.5" ry="11"/>
<text text-anchor="middle" x="39.5" y="-8.8" font-family="sans-serif" font-size="9.00">FireAlarm</text>
</g>
<!-- e1&#45;&gt;v15 -->
<g id="edge20" class="edge"><title>e1&#45;&gt;v15</title>
<path fill="none" stroke="green" d="M39.5,-126C39.5,-126 39.5,-50.0168 39.5,-22.1167"/>
</g>
<!-- v4 -->
<g id="v4_Hallway" class="node"><title>v4</title>
<ellipse fill="none" stroke="black" cx="691.5" cy="-11" rx="32.5" ry="11"/>
<text text-anchor="middle" x="691.5" y="-8.8" font-family="sans-serif" font-size="9.00">Hallway</text>
</g>
<!-- e2&#45;&gt;v4 -->
<g id="edge22" class="edge"><title>e2&#45;&gt;v4</title>
<path fill="none" stroke="green" d="M734.5,-184C734.5,-184 729.562,-145.866 722.5,-116 714.263,-81.1634 701.177,-40.7498 694.977,-22.227"/>
</g>
<!-- v5 -->
<g id="v5_Room" class="node"><title>v5</title>
<ellipse fill="none" stroke="black" cx="692.5" cy="-127" rx="21.5" ry="11"/>
<text text-anchor="middle" x="692.5" y="-124.8" font-family="sans-serif" font-size="9.00">Room</text>
</g>
<!-- e2&#45;&gt;v5 -->
<g id="edge23" class="edge"><title>e2&#45;&gt;v5</title>
<path fill="none" stroke="green" d="M734.5,-184C734.5,-184 711.608,-153.477 699.625,-137.5"/>
</g>
<!-- e3&#45;&gt;v1 -->
<g id="edge25" class="edge"><title>e3&#45;&gt;v1</title>
<path fill="none" stroke="green" d="M98.5,-126C98.5,-126 165.35,-95.315 200.08,-79.3731"/>
</g>
<!-- v14 -->
<g id="v14_Server" class="node"><title>v14</title>
<ellipse fill="none" stroke="black" cx="125.5" cy="-11" rx="29" ry="11"/>
<text text-anchor="middle" x="125.5" y="-8.8" font-family="sans-serif" font-size="9.00">Server</text>
</g>
<!-- e3&#45;&gt;v14 -->
<g id="edge26" class="edge"><title>e3&#45;&gt;v14</title>
<path fill="none" stroke="green" d="M98.5,-126C98.5,-126 116.496,-50.0168 123.104,-22.1167"/>
</g>
<!-- e4&#45;&gt;v4 -->
<g id="edge28" class="edge"><title>e4&#45;&gt;v4</title>
<path fill="none" stroke="green" d="M482.5,-126C482.5,-126 481.248,-79.6414 504.5,-58 506.003,-56.6013 615.375,-30.2477 666.134,-18.073"/>
</g>
<!-- v12 -->
<g id="v12_Room" class="node"><title>v12</title>
<ellipse fill="none" stroke="black" cx="321.5" cy="-69" rx="21.5" ry="11"/>
<text text-anchor="middle" x="321.5" y="-66.8" font-family="sans-serif" font-size="9.00">Room</text>
</g>
<!-- e4&#45;&gt;v12 -->
<g id="edge29" class="edge"><title>e4&#45;&gt;v12</title>
<path fill="none" stroke="green" d="M482.5,-126C482.5,-126 469.317,-120.064 458.5,-116 416.224,-100.118 365.668,-83.8282 339.376,-75.5561"/>
</g>
<!-- e5&#45;&gt;v1 -->
<g id="edge31" class="edge"><title>e5&#45;&gt;v1</title>
<path fill="none" stroke="green" d="M285.5,-126C285.5,-126 250.817,-96.1193 232.121,-80.0117"/>
</g>
<!-- v11 -->
<g id="v11_SmartLight" class="node"><title>v11</title>
<ellipse fill="none" stroke="black" cx="381.5" cy="-11" rx="43" ry="11"/>
<text text-anchor="middle" x="381.5" y="-8.8" font-family="sans-serif" font-size="9.00">SmartLight</text>
</g>
<!-- e5&#45;&gt;v11 -->
<g id="edge32" class="edge"><title>e5&#45;&gt;v11</title>
<path fill="none" stroke="green" d="M285.5,-126C285.5,-126 328.774,-107.603 351.5,-80 366.099,-62.2684 374.9,-36.3196 378.908,-22.1531"/>
</g>
<!-- e6&#45;&gt;v1 -->
<g id="edge34" class="edge"><title>e6&#45;&gt;v1</title>
<path fill="none" stroke="green" d="M163.5,-126C163.5,-126 193.914,-96.1193 210.31,-80.0117"/>
</g>
<!-- v13 -->
<g id="v13_SmartLight" class="node"><title>v13</title>
<ellipse fill="none" stroke="black" cx="277.5" cy="-11" rx="43" ry="11"/>
<text text-anchor="middle" x="277.5" y="-8.8" font-family="sans-serif" font-size="9.00">SmartLight</text>
</g>
<!-- e6&#45;&gt;v13 -->
<g id="edge35" class="edge"><title>e6&#45;&gt;v13</title>
<path fill="none" stroke="green" d="M163.5,-126C163.5,-126 132.832,-83.1912 150.5,-58 161.811,-41.8729 212.971,-27.1021 246.806,-18.8528"/>
</g>
<!-- e7&#45;&gt;v1 -->
<g id="edge37" class="edge"><title>e7&#45;&gt;v1</title>
<path fill="none" stroke="green" d="M347.5,-126C347.5,-126 277.911,-95.315 241.757,-79.3731"/>
</g>
<!-- v8 -->
<g id="v8_SmartLight" class="node"><title>v8</title>
<ellipse fill="none" stroke="black" cx="485.5" cy="-11" rx="43" ry="11"/>
<text text-anchor="middle" x="485.5" y="-8.8" font-family="sans-serif" font-size="9.00">SmartLight</text>
</g>
<!-- e7&#45;&gt;v8 -->
<g id="edge38" class="edge"><title>e7&#45;&gt;v8</title>
<path fill="none" stroke="green" d="M347.5,-126C347.5,-126 440.362,-49.288 473.734,-21.7196"/>
</g>
<!-- e8&#45;&gt;v1 -->
<g id="edge40" class="edge"><title>e8&#45;&gt;v1</title>
<path fill="none" stroke="green" d="M407.5,-126C407.5,-126 302.312,-94.5 249.719,-78.75"/>
</g>
<!-- v9 -->
<g id="v9_Workstation" class="node"><title>v9</title>
<ellipse fill="none" stroke="black" cx="593.5" cy="-11" rx="47" ry="11"/>
<text text-anchor="middle" x="593.5" y="-8.8" font-family="sans-serif" font-size="9.00">Workstation</text>
</g>
<!-- e8&#45;&gt;v9 -->
<g id="edge41" class="edge"><title>e8&#45;&gt;v9</title>
<path fill="none" stroke="green" d="M407.5,-126C407.5,-126 436.971,-81.0259 471.5,-58 499.843,-39.0992 537.026,-26.5233 562.859,-19.368"/>
</g>
<!-- e9&#45;&gt;v4 -->
<g id="edge43" class="edge"><title>e9&#45;&gt;v4</title>
<path fill="none" stroke="green" d="M652.5,-126C652.5,-126 678.494,-50.0168 688.039,-22.1167"/>
</g>
<!-- v10 -->
<g id="v10_Room" class="node"><title>v10</title>
<ellipse fill="none" stroke="black" cx="535.5" cy="-69" rx="21.5" ry="11"/>
<text text-anchor="middle" x="535.5" y="-66.8" font-family="sans-serif" font-size="9.00">Room</text>
</g>
<!-- e9&#45;&gt;v10 -->
<g id="edge44" class="edge"><title>e9&#45;&gt;v10</title>
<path fill="none" stroke="green" d="M652.5,-126C652.5,-126 581.801,-92.1613 550.318,-77.0924"/>
</g>
<!-- v0&#45;&gt;v1 -->
<g id="edge2" class="edge"><title>v0&#45;&gt;v1</title>
<path fill="none" stroke="black" d="M279.841,-232.009C269.271,-203.153 238.651,-119.556 226.034,-85.1091"/>
<polygon fill="black" stroke="black" points="224.17,-80.0185 228.002,-83.9396 225.029,-82.366 225.889,-84.7134 225.889,-84.7134 225.889,-84.7134 225.029,-82.366 223.777,-85.4873 224.17,-80.0185 224.17,-80.0185"/>
</g>
<!-- v3 -->
<g id="v3_Floor" class="node"><title>v3</title>
<ellipse fill="none" stroke="black" cx="535.5" cy="-185" rx="25" ry="11"/>
<text text-anchor="middle" x="535.5" y="-182.8" font-family="sans-serif" font-size="9.00">Floor</text>
</g>
<!-- v0&#45;&gt;v3 -->
<g id="edge3" class="edge"><title>v0&#45;&gt;v3</title>
<path fill="none" stroke="black" d="M311.431,-235.793C360.393,-224.913 461.06,-202.542 508.996,-191.89"/>
<polygon fill="black" stroke="black" points="514.021,-190.773 509.629,-194.054 511.581,-191.315 509.14,-191.858 509.14,-191.858 509.14,-191.858 511.581,-191.315 508.652,-189.661 514.021,-190.773 514.021,-190.773"/>
</g>
<!-- v2 -->
<g id="v2_Data" class="node"><title>v2</title>
<ellipse fill="none" stroke="black" cx="194.5" cy="-11" rx="21.5" ry="11"/>
<text text-anchor="middle" x="194.5" y="-8.8" font-family="sans-serif" font-size="9.00">Data</text>
</g>
<!-- v1&#45;&gt;v2 -->
<g id="edge4" class="edge"><title>v1&#45;&gt;v2</title>
<path fill="none" stroke="black" d="M215.852,-57.9883C211.785,-49.2286 205.827,-36.3956 201.237,-26.5103"/>
<polygon fill="black" stroke="black" points="199.108,-21.925 203.254,-25.5125 200.161,-24.1925 201.214,-26.4601 201.214,-26.4601 201.214,-26.4601 200.161,-24.1925 199.173,-27.4076 199.108,-21.925 199.108,-21.925"/>
</g>
<!-- v3&#45;&gt;v4 -->
<g id="edge5" class="edge"><title>v3&#45;&gt;v4</title>
<path fill="none" stroke="black" d="M544.109,-174.508C570.257,-145.678 648.812,-59.066 679.257,-25.4984"/>
<polygon fill="black" stroke="black" points="682.725,-21.6752 681.032,-26.8904 681.045,-23.527 679.366,-25.3788 679.366,-25.3788 679.366,-25.3788 681.045,-23.527 677.699,-23.8672 682.725,-21.6752 682.725,-21.6752"/>
</g>
<!-- v3&#45;&gt;v5 -->
<g id="edge6" class="edge"><title>v3&#45;&gt;v5</title>
<path fill="none" stroke="black" d="M553.817,-177.466C582.994,-167.06 639.891,-146.765 670.97,-135.679"/>
<polygon fill="black" stroke="black" points="675.728,-133.982 671.775,-137.781 673.374,-134.822 671.019,-135.662 671.019,-135.662 671.019,-135.662 673.374,-134.822 670.263,-133.543 675.728,-133.982 675.728,-133.982"/>
</g>
<!-- v3&#45;&gt;v10 -->
<g id="edge7" class="edge"><title>v3&#45;&gt;v10</title>
<path fill="none" stroke="black" d="M535.5,-173.883C535.5,-153.906 535.5,-109.276 535.5,-85.5402"/>
<polygon fill="black" stroke="black" points="535.5,-80.2579 537.75,-85.2579 535.5,-82.7579 535.5,-85.2579 535.5,-85.2579 535.5,-85.2579 535.5,-82.7579 533.25,-85.258 535.5,-80.2579 535.5,-80.2579"/>
</g>
<!-- v3&#45;&gt;v12 -->
<g id="edge8" class="edge"><title>v3&#45;&gt;v12</title>
<path fill="none" stroke="black" d="M521.747,-175.733C499.763,-162.611 455.232,-136.413 416.5,-116 390.945,-102.531 360.839,-88.2076 341.478,-79.1889"/>
<polygon fill="black" stroke="black" points="336.797,-77.0141 342.279,-77.0801 339.064,-78.0674 341.331,-79.1207 341.331,-79.1207 341.331,-79.1207 339.064,-78.0674 340.383,-81.1613 336.797,-77.0141 336.797,-77.0141"/>
</g>
<!-- v6 -->
<g id="v6_Visitor" class="node"><title>v6</title>
<ellipse fill="none" stroke="black" cx="822.5" cy="-69" rx="32.5" ry="11"/>
<text text-anchor="middle" x="822.5" y="-66.8" font-family="sans-serif" font-size="9.00">Visitor</text>
</g>
<!-- v5&#45;&gt;v6 -->
<g id="edge9" class="edge"><title>v5&#45;&gt;v6</title>
<path fill="none" stroke="black" d="M708.181,-119.245C730.814,-109.496 772.798,-91.4099 799.103,-80.0785"/>
<polygon fill="black" stroke="black" points="803.824,-78.0448 800.123,-82.0895 801.528,-79.0339 799.232,-80.023 799.232,-80.023 799.232,-80.023 801.528,-79.0339 798.342,-77.9566 803.824,-78.0448 803.824,-78.0448"/>
</g>
<!-- v5&#45;&gt;v8 -->
<g id="edge10" class="edge"><title>v5&#45;&gt;v8</title>
<path fill="none" stroke="black" d="M678.597,-118.343C643.087,-98.7872 548.882,-46.906 506.582,-23.6103"/>
<polygon fill="black" stroke="black" points="502.17,-21.1807 507.635,-21.6218 504.36,-22.3867 506.55,-23.5927 506.55,-23.5927 506.55,-23.5927 504.36,-22.3867 505.464,-25.5636 502.17,-21.1807 502.17,-21.1807"/>
</g>
<!-- v5&#45;&gt;v9 -->
<g id="edge11" class="edge"><title>v5&#45;&gt;v9</title>
<path fill="none" stroke="black" d="M684.398,-116.671C667.024,-96.664 626.101,-49.5404 605.62,-25.9559"/>
<polygon fill="black" stroke="black" points="602.279,-22.1089 607.256,-24.4088 603.918,-23.9965 605.557,-25.8841 605.557,-25.8841 605.557,-25.8841 603.918,-23.9965 603.858,-27.3594 602.279,-22.1089 602.279,-22.1089"/>
</g>
<!-- v6&#45;&gt;v7 -->
<g id="edge12" class="edge"><title>v6&#45;&gt;v7</title>
<path fill="none" stroke="black" d="M813.616,-58.2455C805.353,-49.1716 792.965,-35.5697 783.762,-25.4636"/>
<polygon fill="black" stroke="black" points="780.282,-21.6427 785.312,-23.8244 781.965,-23.491 783.648,-25.3394 783.648,-25.3394 783.648,-25.3394 781.965,-23.491 781.985,-26.8544 780.282,-21.6427 780.282,-21.6427"/>
</g>
<!-- v10&#45;&gt;v11 -->
<g id="edge13" class="edge"><title>v10&#45;&gt;v11</title>
<path fill="none" stroke="black" d="M518.726,-61.9004C492.457,-52.348 441.325,-33.7545 409.436,-22.1585"/>
<polygon fill="black" stroke="black" points="404.49,-20.3599 409.958,-19.9541 406.839,-21.2143 409.189,-22.0687 409.189,-22.0687 409.189,-22.0687 406.839,-21.2143 408.42,-24.1832 404.49,-20.3599 404.49,-20.3599"/>
</g>
<!-- v12&#45;&gt;v13 -->
<g id="edge14" class="edge"><title>v12&#45;&gt;v13</title>
<path fill="none" stroke="black" d="M314.036,-58.5004C307.085,-49.6537 296.63,-36.3472 288.682,-26.2321"/>
<polygon fill="black" stroke="black" points="285.447,-22.1148 290.306,-24.6563 286.992,-24.0806 288.537,-26.0464 288.537,-26.0464 288.537,-26.0464 286.992,-24.0806 286.767,-27.4366 285.447,-22.1148 285.447,-22.1148"/>
</g>
<!-- v12&#45;&gt;v14 -->
<g id="edge15" class="edge"><title>v12&#45;&gt;v14</title>
<path fill="none" stroke="black" d="M304.159,-62.2705C299.717,-60.8404 294.941,-59.3347 290.5,-58 242.38,-43.5376 185.904,-28.1278 153.063,-19.3211"/>
<polygon fill="black" stroke="black" points="148,-17.9656 153.412,-17.0854 150.415,-18.6122 152.83,-19.2588 152.83,-19.2588 152.83,-19.2588 150.415,-18.6122 152.248,-21.4323 148,-17.9656 148,-17.9656"/>
</g>
<!-- v12&#45;&gt;v15 -->
<g id="edge16" class="edge"><title>v12&#45;&gt;v15</title>
<path fill="none" stroke="black" d="M304.565,-62.0762C300.032,-60.6174 295.11,-59.1466 290.5,-58 201.579,-35.8832 177.473,-39.3461 87.5,-22 83.2346,-21.1777 78.7624,-20.2858 74.3353,-19.3848"/>
<polygon fill="black" stroke="black" points="69.1741,-18.3266 74.5242,-17.1268 71.6232,-18.8288 74.0722,-19.331 74.0722,-19.331 74.0722,-19.331 71.6232,-18.8288 73.6203,-21.5351 69.1741,-18.3266 69.1741,-18.3266"/>
</g>
</g>
</svg>
