<?xml version="1.0" encoding="UTF-8" standalone="no"?>
<?xml-stylesheet href="style.css" type="text/css"?>
<!DOCTYPE svg PUBLIC "-//W3C//DTD SVG 1.1//EN"
 "http://www.w3.org/Graphics/SVG/1.1/DTD/svg11.dtd">
<!-- Generated by graphviz version 2.38.0 (20140413.2041)
 -->
<!-- Title: 8.svg Pages: 1 -->
<svg width="926pt" height="316pt"
 viewBox="0.00 0.00 926.00 316.00" xmlns="http://www.w3.org/2000/svg" xmlns:xlink="http://www.w3.org/1999/xlink">
<g id="graph0" class="graph" transform="scale(1 1) rotate(0) translate(4 312)">
<title>8.svg</title>
<polygon fill="white" stroke="none" points="-4,4 -4,-312 922,-312 922,4 -4,4"/>
<!-- r0 -->
<g id="node1" class="node"><title>r0</title>
<polygon fill="none" stroke="black" stroke-dasharray="5,2" points="422.5,-308 399.5,-308 399.5,-290 422.5,-290 422.5,-308"/>
<text text-anchor="middle" x="411" y="-296.8" font-family="serif" font-size="9.00">0</text>
</g>
<!-- v0 -->
<g id="v0_Building" class="node"><title>v0</title>
<ellipse fill="none" stroke="black" cx="411" cy="-243" rx="36" ry="11"/>
<text text-anchor="middle" x="411" y="-240.8" font-family="sans-serif" font-size="9.00">Building</text>
</g>
<!-- r0&#45;&gt;v0 -->
<g id="edge1" class="edge"><title>r0&#45;&gt;v0</title>
<path fill="none" stroke="black" d="M411,-289.562C411,-281.453 411,-269.014 411,-259.181"/>
<polygon fill="black" stroke="black" points="411,-254.03 413.25,-259.03 411,-256.53 411,-259.03 411,-259.03 411,-259.03 411,-256.53 408.75,-259.03 411,-254.03 411,-254.03"/>
</g>
<!-- oalarm -->
<g id="node2" class="node"><title>oalarm</title>
<text text-anchor="middle" x="212" y="-296.8" font-family="serif" font-size="9.00">alarm</text>
</g>
<!-- e1 -->
<g id="node12" class="node"><title>e1</title>
</g>
<!-- oalarm&#45;&gt;e1 -->
<g id="edge17" class="edge"><title>oalarm&#45;&gt;e1</title>
<path fill="none" stroke="green" d="M212.249,-289.885C213.496,-249.27 219,-70 219,-70"/>
</g>
<!-- ocntrlRm -->
<g id="node3" class="node"><title>ocntrlRm</title>
<text text-anchor="middle" x="718" y="-296.8" font-family="serif" font-size="9.00">cntrlRm</text>
</g>
<!-- e2 -->
<g id="node13" class="node"><title>e2</title>
</g>
<!-- ocntrlRm&#45;&gt;e2 -->
<g id="edge20" class="edge"><title>ocntrlRm&#45;&gt;e2</title>
<path fill="none" stroke="green" d="M718,-289.801C718,-255.842 718,-128 718,-128"/>
</g>
<!-- oserv -->
<g id="node4" class="node"><title>oserv</title>
<text text-anchor="middle" x="154" y="-296.8" font-family="serif" font-size="9.00">serv</text>
</g>
<!-- e3 -->
<g id="node14" class="node"><title>e3</title>
</g>
<!-- oserv&#45;&gt;e3 -->
<g id="edge23" class="edge"><title>oserv&#45;&gt;e3</title>
<path fill="none" stroke="green" d="M155.459,-289.885C162.763,-249.27 195,-70 195,-70"/>
</g>
<!-- oserverRm -->
<g id="node5" class="node"><title>oserverRm</title>
<text text-anchor="middle" x="283" y="-296.8" font-family="serif" font-size="9.00">serverRm</text>
</g>
<!-- e4 -->
<g id="node15" class="node"><title>e4</title>
</g>
<!-- oserverRm&#45;&gt;e4 -->
<g id="edge26" class="edge"><title>oserverRm&#45;&gt;e4</title>
<path fill="none" stroke="green" d="M282.855,-289.801C282.256,-255.842 280,-128 280,-128"/>
</g>
<!-- osl1 -->
<g id="node6" class="node"><title>osl1</title>
<text text-anchor="middle" x="527" y="-296.8" font-family="serif" font-size="9.00">sl1</text>
</g>
<!-- e5 -->
<g id="node16" class="node"><title>e5</title>
</g>
<!-- osl1&#45;&gt;e5 -->
<g id="edge29" class="edge"><title>osl1&#45;&gt;e5</title>
<path fill="none" stroke="green" d="M526.003,-289.885C521.016,-249.27 499,-70 499,-70"/>
</g>
<!-- osl2 -->
<g id="node7" class="node"><title>osl2</title>
<text text-anchor="middle" x="73" y="-296.8" font-family="serif" font-size="9.00">sl2</text>
</g>
<!-- e6 -->
<g id="node17" class="node"><title>e6</title>
</g>
<!-- osl2&#45;&gt;e6 -->
<g id="edge32" class="edge"><title>osl2&#45;&gt;e6</title>
<path fill="none" stroke="green" d="M73,-289.885C73,-249.27 73,-70 73,-70"/>
</g>
<!-- osl3 -->
<g id="node8" class="node"><title>osl3</title>
<text text-anchor="middle" x="347" y="-296.8" font-family="serif" font-size="9.00">sl3</text>
</g>
<!-- e7 -->
<g id="node18" class="node"><title>e7</title>
</g>
<!-- osl3&#45;&gt;e7 -->
<g id="edge35" class="edge"><title>osl3&#45;&gt;e7</title>
<path fill="none" stroke="green" d="M349.32,-289.866C352.879,-277.401 359.916,-252.831 366,-232 387.054,-159.918 414,-70 414,-70"/>
</g>
<!-- ostation -->
<g id="node9" class="node"><title>ostation</title>
<text text-anchor="middle" x="470" y="-296.8" font-family="serif" font-size="9.00">station</text>
</g>
<!-- e8 -->
<g id="node19" class="node"><title>e8</title>
</g>
<!-- ostation&#45;&gt;e8 -->
<g id="edge38" class="edge"><title>ostation&#45;&gt;e8</title>
<path fill="none" stroke="green" d="M470.178,-289.885C471.069,-249.27 475,-70 475,-70"/>
</g>
<!-- otoiletRm -->
<g id="node10" class="node"><title>otoiletRm</title>
<text text-anchor="middle" x="800" y="-296.8" font-family="serif" font-size="9.00">toiletRm</text>
</g>
<!-- e9 -->
<g id="node20" class="node"><title>e9</title>
</g>
<!-- otoiletRm&#45;&gt;e9 -->
<g id="edge41" class="edge"><title>otoiletRm&#45;&gt;e9</title>
<path fill="none" stroke="green" d="M800,-289.945C800,-264.265 800,-186 800,-186"/>
</g>
<!-- e0 -->
<g id="node11" class="node"><title>e0</title>
</g>
<!-- v5 -->
<g id="v5_SmartLight" class="node"><title>v5</title>
<ellipse fill="none" stroke="black" cx="875" cy="-11" rx="43" ry="11"/>
<text text-anchor="middle" x="875" y="-8.8" font-family="sans-serif" font-size="9.00">SmartLight</text>
</g>
<!-- e0&#45;&gt;v5 -->
<g id="edge16" class="edge"><title>e0&#45;&gt;v5</title>
<path fill="none" stroke="green" d="M875,-64.1674C875,-55.5862 875,-34.5957 875,-22.0117"/>
<polygon fill="green" stroke="green" points="878.5,-67.3001 871.5,-67.2999 871.5,-65.8999 878.5,-65.9001 878.5,-67.3001"/>
<polyline fill="none" stroke="green" points="875,-68 875,-64.5 "/>
</g>
<!-- v10 -->
<g id="v10_FireAlarm" class="node"><title>v10</title>
<ellipse fill="none" stroke="black" cx="219" cy="-11" rx="39.5" ry="11"/>
<text text-anchor="middle" x="219" y="-8.8" font-family="sans-serif" font-size="9.00">FireAlarm</text>
</g>
<!-- e1&#45;&gt;v10 -->
<g id="edge18" class="edge"><title>e1&#45;&gt;v10</title>
<path fill="none" stroke="green" d="M219,-68C219,-68 219,-38.1193 219,-22.0117"/>
</g>
<!-- v14 -->
<g id="v14_InstallationBus" class="node"><title>v14</title>
<ellipse fill="none" stroke="black" cx="338" cy="-11" rx="61" ry="11"/>
<text text-anchor="middle" x="338" y="-8.8" font-family="sans-serif" font-size="9.00">InstallationBus</text>
</g>
<!-- e1&#45;&gt;v14 -->
<g id="edge19" class="edge"><title>e1&#45;&gt;v14</title>
<path fill="none" stroke="green" d="M219,-68C219,-68 283.862,-37.4767 317.813,-21.4996"/>
</g>
<!-- v6 -->
<g id="v6_Hallway" class="node"><title>v6</title>
<ellipse fill="none" stroke="black" cx="746" cy="-11" rx="32.5" ry="11"/>
<text text-anchor="middle" x="746" y="-8.8" font-family="sans-serif" font-size="9.00">Hallway</text>
</g>
<!-- e2&#45;&gt;v6 -->
<g id="edge21" class="edge"><title>e2&#45;&gt;v6</title>
<path fill="none" stroke="green" d="M718,-126C718,-126 736.663,-50.0168 743.515,-22.1167"/>
</g>
<!-- v11 -->
<g id="v11_Room" class="node"><title>v11</title>
<ellipse fill="none" stroke="black" cx="539" cy="-69" rx="21.5" ry="11"/>
<text text-anchor="middle" x="539" y="-66.8" font-family="sans-serif" font-size="9.00">Room</text>
</g>
<!-- e2&#45;&gt;v11 -->
<g id="edge22" class="edge"><title>e2&#45;&gt;v11</title>
<path fill="none" stroke="green" d="M718,-126C718,-126 601.53,-89.5625 556.489,-75.4715"/>
</g>
<!-- v9 -->
<g id="v9_Server" class="node"><title>v9</title>
<ellipse fill="none" stroke="black" cx="133" cy="-11" rx="29" ry="11"/>
<text text-anchor="middle" x="133" y="-8.8" font-family="sans-serif" font-size="9.00">Server</text>
</g>
<!-- e3&#45;&gt;v9 -->
<g id="edge24" class="edge"><title>e3&#45;&gt;v9</title>
<path fill="none" stroke="green" d="M195,-68C195,-68 189.578,-62.3065 185,-58 171.129,-44.9518 154.572,-30.4876 143.928,-21.3257"/>
</g>
<!-- e3&#45;&gt;v14 -->
<g id="edge25" class="edge"><title>e3&#45;&gt;v14</title>
<path fill="none" stroke="green" d="M195,-68C195,-68 202.223,-61.5404 209,-58 240.823,-41.3762 279.986,-28.3592 306.758,-20.4778"/>
</g>
<!-- e4&#45;&gt;v6 -->
<g id="edge27" class="edge"><title>e4&#45;&gt;v6</title>
<path fill="none" stroke="green" d="M280,-126C280,-126 446.2,-122.849 569,-80 587.79,-73.4435 589.81,-66.0726 608,-58 646.78,-40.7898 694.093,-26.3575 722.038,-18.4688"/>
</g>
<!-- v7 -->
<g id="v7_Room" class="node"><title>v7</title>
<ellipse fill="none" stroke="black" cx="155" cy="-69" rx="21.5" ry="11"/>
<text text-anchor="middle" x="155" y="-66.8" font-family="sans-serif" font-size="9.00">Room</text>
</g>
<!-- e4&#45;&gt;v7 -->
<g id="edge28" class="edge"><title>e4&#45;&gt;v7</title>
<path fill="none" stroke="green" d="M280,-126C280,-126 203.706,-91.8203 170.327,-76.8667"/>
</g>
<!-- v4 -->
<g id="v4_Laptop" class="node"><title>v4</title>
<ellipse fill="none" stroke="black" cx="662" cy="-11" rx="29" ry="11"/>
<text text-anchor="middle" x="662" y="-8.8" font-family="sans-serif" font-size="9.00">Laptop</text>
</g>
<!-- e5&#45;&gt;v4 -->
<g id="edge30" class="edge"><title>e5&#45;&gt;v4</title>
<path fill="none" stroke="green" d="M499,-68C499,-68 502.947,-61.197 508,-58 519.259,-50.8761 599.443,-28.7762 639.435,-18.0129"/>
</g>
<!-- e5&#45;&gt;v14 -->
<g id="edge31" class="edge"><title>e5&#45;&gt;v14</title>
<path fill="none" stroke="green" d="M499,-68C499,-68 491.226,-61.4606 484,-58 447.687,-40.6103 403.221,-27.6927 372.97,-20.0443"/>
</g>
<!-- v8 -->
<g id="v8_SmartLight" class="node"><title>v8</title>
<ellipse fill="none" stroke="black" cx="43" cy="-11" rx="43" ry="11"/>
<text text-anchor="middle" x="43" y="-8.8" font-family="sans-serif" font-size="9.00">SmartLight</text>
</g>
<!-- e6&#45;&gt;v8 -->
<g id="edge33" class="edge"><title>e6&#45;&gt;v8</title>
<path fill="none" stroke="green" d="M73,-68C73,-68 56.9925,-38.1193 48.3634,-22.0117"/>
</g>
<!-- e6&#45;&gt;v14 -->
<g id="edge34" class="edge"><title>e6&#45;&gt;v14</title>
<path fill="none" stroke="green" d="M73,-68C73,-68 228.338,-35.1738 301.153,-19.7866"/>
</g>
<!-- v12 -->
<g id="v12_SmartLight" class="node"><title>v12</title>
<ellipse fill="none" stroke="black" cx="460" cy="-11" rx="43" ry="11"/>
<text text-anchor="middle" x="460" y="-8.8" font-family="sans-serif" font-size="9.00">SmartLight</text>
</g>
<!-- e7&#45;&gt;v12 -->
<g id="edge36" class="edge"><title>e7&#45;&gt;v12</title>
<path fill="none" stroke="green" d="M414,-68C414,-68 438.545,-38.1193 451.776,-22.0117"/>
</g>
<!-- e7&#45;&gt;v14 -->
<g id="edge37" class="edge"><title>e7&#45;&gt;v14</title>
<path fill="none" stroke="green" d="M414,-68C414,-68 373.013,-37.7988 351.238,-21.7545"/>
</g>
<!-- v13 -->
<g id="v13_Workstation" class="node"><title>v13</title>
<ellipse fill="none" stroke="black" cx="568" cy="-11" rx="47" ry="11"/>
<text text-anchor="middle" x="568" y="-8.8" font-family="sans-serif" font-size="9.00">Workstation</text>
</g>
<!-- e8&#45;&gt;v13 -->
<g id="edge39" class="edge"><title>e8&#45;&gt;v13</title>
<path fill="none" stroke="green" d="M475,-68C475,-68 482.578,-62.1505 489,-58 509.794,-44.561 534.581,-30.4192 550.773,-21.4216"/>
</g>
<!-- e8&#45;&gt;v14 -->
<g id="edge40" class="edge"><title>e8&#45;&gt;v14</title>
<path fill="none" stroke="green" d="M475,-68C475,-68 399.535,-37.1528 360.623,-21.2473"/>
</g>
<!-- v2 -->
<g id="v2_Room" class="node"><title>v2</title>
<ellipse fill="none" stroke="black" cx="758" cy="-127" rx="21.5" ry="11"/>
<text text-anchor="middle" x="758" y="-124.8" font-family="sans-serif" font-size="9.00">Room</text>
</g>
<!-- e9&#45;&gt;v2 -->
<g id="edge42" class="edge"><title>e9&#45;&gt;v2</title>
<path fill="none" stroke="green" d="M800,-184C800,-184 777.108,-153.477 765.125,-137.5"/>
</g>
<!-- e9&#45;&gt;v6 -->
<g id="edge43" class="edge"><title>e9&#45;&gt;v6</title>
<path fill="none" stroke="green" d="M800,-184C800,-184 796.459,-145.5 788,-116 777.802,-80.4357 759.606,-40.3746 750.902,-22.0819"/>
</g>
<!-- v1 -->
<g id="v1_Floor" class="node"><title>v1</title>
<ellipse fill="none" stroke="black" cx="570" cy="-185" rx="25" ry="11"/>
<text text-anchor="middle" x="570" y="-182.8" font-family="sans-serif" font-size="9.00">Floor</text>
</g>
<!-- v0&#45;&gt;v1 -->
<g id="edge2" class="edge"><title>v0&#45;&gt;v1</title>
<path fill="none" stroke="black" d="M433.108,-234.213C462.954,-223.702 515.906,-205.052 546.467,-194.288"/>
<polygon fill="black" stroke="black" points="551.537,-192.503 547.569,-196.286 549.179,-193.333 546.821,-194.164 546.821,-194.164 546.821,-194.164 549.179,-193.333 546.074,-192.041 551.537,-192.503 551.537,-192.503"/>
</g>
<!-- v0&#45;&gt;v14 -->
<g id="edge3" class="edge"><title>v0&#45;&gt;v14</title>
<path fill="none" stroke="black" d="M407.769,-231.82C396.155,-195.229 356.488,-70.2499 342.738,-26.9288"/>
<polygon fill="black" stroke="black" points="341.194,-22.062 344.851,-26.147 341.95,-24.4449 342.706,-26.8277 342.706,-26.8277 342.706,-26.8277 341.95,-24.4449 340.562,-27.5084 341.194,-22.062 341.194,-22.062"/>
</g>
<!-- v1&#45;&gt;v2 -->
<g id="edge4" class="edge"><title>v1&#45;&gt;v2</title>
<path fill="none" stroke="black" d="M590.376,-178.22C620.369,-169.67 678.136,-153.037 727,-138 729.77,-137.148 732.673,-136.236 735.546,-135.322"/>
<polygon fill="black" stroke="black" points="740.647,-133.689 736.571,-137.357 738.266,-134.451 735.885,-135.214 735.885,-135.214 735.885,-135.214 738.266,-134.451 735.199,-133.071 740.647,-133.689 740.647,-133.689"/>
</g>
<!-- v1&#45;&gt;v6 -->
<g id="edge5" class="edge"><title>v1&#45;&gt;v6</title>
<path fill="none" stroke="black" d="M581.612,-175.175C603.901,-157.993 653.766,-118.363 691,-80 707.867,-62.6212 725.066,-40.5013 735.637,-26.2943"/>
<polygon fill="black" stroke="black" points="738.696,-22.1533 737.535,-27.5118 737.211,-24.164 735.725,-26.1747 735.725,-26.1747 735.725,-26.1747 737.211,-24.164 733.915,-24.8375 738.696,-22.1533 738.696,-22.1533"/>
</g>
<!-- v1&#45;&gt;v7 -->
<g id="edge6" class="edge"><title>v1&#45;&gt;v7</title>
<path fill="none" stroke="black" d="M549.012,-178.786C490.866,-164.243 322.882,-121.565 185,-80 182.372,-79.2077 179.626,-78.3434 176.908,-77.4655"/>
<polygon fill="black" stroke="black" points="172.079,-75.8832 177.531,-75.302 174.455,-76.6617 176.831,-77.4401 176.831,-77.4401 176.831,-77.4401 174.455,-76.6617 176.13,-79.5783 172.079,-75.8832 172.079,-75.8832"/>
</g>
<!-- v1&#45;&gt;v11 -->
<g id="edge7" class="edge"><title>v1&#45;&gt;v11</title>
<path fill="none" stroke="black" d="M567.249,-173.883C561.766,-153.72 549.454,-108.445 543.047,-84.8841"/>
<polygon fill="black" stroke="black" points="541.701,-79.9313 545.184,-84.1657 542.357,-82.3437 543.013,-84.7561 543.013,-84.7561 543.013,-84.7561 542.357,-82.3437 540.842,-85.3465 541.701,-79.9313 541.701,-79.9313"/>
</g>
<!-- v3 -->
<g id="v3_Visitor" class="node"><title>v3</title>
<ellipse fill="none" stroke="black" cx="650" cy="-69" rx="32.5" ry="11"/>
<text text-anchor="middle" x="650" y="-66.8" font-family="sans-serif" font-size="9.00">Visitor</text>
</g>
<!-- v2&#45;&gt;v3 -->
<g id="edge8" class="edge"><title>v2&#45;&gt;v3</title>
<path fill="none" stroke="black" d="M743.881,-118.679C725.382,-109.087 692.776,-92.1802 671.278,-81.0329"/>
<polygon fill="black" stroke="black" points="666.601,-78.6082 672.076,-78.9123 668.821,-79.759 671.04,-80.9098 671.04,-80.9098 671.04,-80.9098 668.821,-79.759 670.004,-82.9072 666.601,-78.6082 666.601,-78.6082"/>
</g>
<!-- v2&#45;&gt;v5 -->
<g id="edge9" class="edge"><title>v2&#45;&gt;v5</title>
<path fill="none" stroke="black" d="M767.575,-116.671C788.297,-96.4803 837.362,-48.6731 861.337,-25.3125"/>
<polygon fill="black" stroke="black" points="864.961,-21.7812 862.95,-26.8821 863.171,-23.5259 861.38,-25.2705 861.38,-25.2705 861.38,-25.2705 863.171,-23.5259 859.81,-23.659 864.961,-21.7812 864.961,-21.7812"/>
</g>
<!-- v3&#45;&gt;v4 -->
<g id="edge10" class="edge"><title>v3&#45;&gt;v4</title>
<path fill="none" stroke="black" d="M652.145,-57.9883C653.966,-49.4941 656.607,-37.1697 658.696,-27.4169"/>
<polygon fill="black" stroke="black" points="659.792,-22.3039 660.944,-27.6644 659.268,-24.7484 658.744,-27.1929 658.744,-27.1929 658.744,-27.1929 659.268,-24.7484 656.544,-26.7214 659.792,-22.3039 659.792,-22.3039"/>
</g>
<!-- v7&#45;&gt;v8 -->
<g id="edge11" class="edge"><title>v7&#45;&gt;v8</title>
<path fill="none" stroke="black" d="M140.358,-60.679C121.426,-51.2129 88.2446,-34.6223 65.9486,-23.4743"/>
<polygon fill="black" stroke="black" points="61.3652,-21.1826 66.8436,-21.4063 63.6013,-22.3007 65.8373,-23.4187 65.8373,-23.4187 65.8373,-23.4187 63.6013,-22.3007 64.8311,-25.4312 61.3652,-21.1826 61.3652,-21.1826"/>
</g>
<!-- v7&#45;&gt;v9 -->
<g id="edge12" class="edge"><title>v7&#45;&gt;v9</title>
<path fill="none" stroke="black" d="M151.067,-57.9883C147.657,-49.3083 142.676,-36.6286 138.807,-26.7806"/>
<polygon fill="black" stroke="black" points="136.899,-21.925 140.822,-25.756 137.813,-24.2519 138.727,-26.5788 138.727,-26.5788 138.727,-26.5788 137.813,-24.2519 136.633,-27.4015 136.899,-21.925 136.899,-21.925"/>
</g>
<!-- v7&#45;&gt;v10 -->
<g id="edge13" class="edge"><title>v7&#45;&gt;v10</title>
<path fill="none" stroke="black" d="M165,-59.25C175.486,-50.0744 192.082,-35.5532 204.11,-25.0291"/>
<polygon fill="black" stroke="black" points="207.998,-21.6267 205.717,-26.6126 206.117,-23.273 204.235,-24.9193 204.235,-24.9193 204.235,-24.9193 206.117,-23.273 202.753,-23.226 207.998,-21.6267 207.998,-21.6267"/>
</g>
<!-- v11&#45;&gt;v12 -->
<g id="edge14" class="edge"><title>v11&#45;&gt;v12</title>
<path fill="none" stroke="black" d="M527.343,-59.737C514.24,-50.4485 492.819,-35.2641 477.659,-24.5176"/>
<polygon fill="black" stroke="black" points="473.561,-21.6128 478.941,-22.6688 475.6,-23.0586 477.64,-24.5044 477.64,-24.5044 477.64,-24.5044 475.6,-23.0586 476.339,-26.34 473.561,-21.6128 473.561,-21.6128"/>
</g>
<!-- v11&#45;&gt;v13 -->
<g id="edge15" class="edge"><title>v11&#45;&gt;v13</title>
<path fill="none" stroke="black" d="M544.051,-58.2455C548.57,-49.5202 555.256,-36.6082 560.417,-26.6435"/>
<polygon fill="black" stroke="black" points="562.811,-22.0198 562.51,-27.4944 561.662,-24.2397 560.512,-26.4597 560.512,-26.4597 560.512,-26.4597 561.662,-24.2397 558.514,-25.425 562.811,-22.0198 562.811,-22.0198"/>
</g>
</g>
</svg>
