<?xml version="1.0" encoding="UTF-8" standalone="no"?>
<?xml-stylesheet href="style.css" type="text/css"?>
<!DOCTYPE svg PUBLIC "-//W3C//DTD SVG 1.1//EN"
 "http://www.w3.org/Graphics/SVG/1.1/DTD/svg11.dtd">
<!-- Generated by graphviz version 2.38.0 (20140413.2041)
 -->
<!-- Title: 10.svg Pages: 1 -->
<svg width="1441pt" height="374pt"
 viewBox="0.00 0.00 1440.50 374.00" xmlns="http://www.w3.org/2000/svg" xmlns:xlink="http://www.w3.org/1999/xlink">
<g id="graph0" class="graph" transform="scale(1 1) rotate(0) translate(4 370)">
<title>10.svg</title>
<polygon fill="white" stroke="none" points="-4,4 -4,-370 1436.5,-370 1436.5,4 -4,4"/>
<!-- r0 -->
<g id="node1" class="node"><title>r0</title>
<polygon fill="none" stroke="black" stroke-dasharray="5,2" points="277.5,-366 254.5,-366 254.5,-348 277.5,-348 277.5,-366"/>
<text text-anchor="middle" x="266" y="-354.8" font-family="serif" font-size="9.00">0</text>
</g>
<!-- v0 -->
<g id="v0_Building" class="node"><title>v0</title>
<ellipse fill="none" stroke="black" cx="266" cy="-301" rx="36" ry="11"/>
<text text-anchor="middle" x="266" y="-298.8" font-family="sans-serif" font-size="9.00">Building</text>
</g>
<!-- r0&#45;&gt;v0 -->
<g id="edge1" class="edge"><title>r0&#45;&gt;v0</title>
<path fill="none" stroke="black" d="M266,-347.562C266,-339.453 266,-327.014 266,-317.181"/>
<polygon fill="black" stroke="black" points="266,-312.03 268.25,-317.03 266,-314.53 266,-317.03 266,-317.03 266,-317.03 266,-314.53 263.75,-317.03 266,-312.03 266,-312.03"/>
</g>
<!-- r1 -->
<g id="node2" class="node"><title>r1</title>
<polygon fill="none" stroke="black" stroke-dasharray="5,2" points="1147.5,-366 1124.5,-366 1124.5,-348 1147.5,-348 1147.5,-366"/>
<text text-anchor="middle" x="1136" y="-354.8" font-family="serif" font-size="9.00">1</text>
</g>
<!-- v3 -->
<g id="v3_RulesKeywords" class="node"><title>v3</title>
<ellipse fill="none" stroke="black" cx="1136" cy="-69" rx="54" ry="11"/>
<text text-anchor="middle" x="1136" y="-66.8" font-family="sans-serif" font-size="9.00">RulesKeywords</text>
</g>
<!-- r1&#45;&gt;v3 -->
<g id="edge2" class="edge"><title>r1&#45;&gt;v3</title>
<path fill="none" stroke="black" d="M1136,-347.849C1136,-329.373 1136,-282.889 1136,-244 1136,-244 1136,-244 1136,-184 1136,-148.604 1136,-107.026 1136,-85.1783"/>
<polygon fill="black" stroke="black" points="1136,-80.0648 1138.25,-85.0648 1136,-82.5648 1136,-85.0648 1136,-85.0648 1136,-85.0648 1136,-82.5648 1133.75,-85.0648 1136,-80.0648 1136,-80.0648"/>
</g>
<!-- e9 -->
<g id="node3" class="node"><title>e9</title>
</g>
<!-- v8 -->
<g id="v8_Laptop" class="node"><title>v8</title>
<ellipse fill="none" stroke="black" cx="330" cy="-69" rx="29" ry="11"/>
<text text-anchor="middle" x="330" y="-66.8" font-family="sans-serif" font-size="9.00">Laptop</text>
</g>
<!-- e9&#45;&gt;v8 -->
<g id="edge33" class="edge"><title>e9&#45;&gt;v8</title>
<path fill="none" stroke="green" d="M330,-122.167C330,-113.586 330,-92.5957 330,-80.0117"/>
<polygon fill="green" stroke="green" points="333.5,-125.3 326.5,-125.3 326.5,-123.9 333.5,-123.9 333.5,-125.3"/>
<polyline fill="none" stroke="green" points="330,-126 330,-122.5 "/>
</g>
<!-- v1 -->
<g id="v1_InstallationBus" class="node"><title>v1</title>
<ellipse fill="none" stroke="black" cx="61" cy="-69" rx="61" ry="11"/>
<text text-anchor="middle" x="61" y="-66.8" font-family="sans-serif" font-size="9.00">InstallationBus</text>
</g>
<!-- v0&#45;&gt;v1 -->
<g id="edge3" class="edge"><title>v0&#45;&gt;v1</title>
<path fill="none" stroke="black" d="M257.191,-290.117C224.673,-253.633 111.308,-126.443 73.4313,-83.9473"/>
<polygon fill="black" stroke="black" points="70.0066,-80.105 75.0132,-82.3405 71.6701,-81.9713 73.3335,-83.8376 73.3335,-83.8376 73.3335,-83.8376 71.6701,-81.9713 71.6539,-85.3347 70.0066,-80.105 70.0066,-80.105"/>
</g>
<!-- v4 -->
<g id="v4_Floor" class="node"><title>v4</title>
<ellipse fill="none" stroke="black" cx="447" cy="-243" rx="25" ry="11"/>
<text text-anchor="middle" x="447" y="-240.8" font-family="sans-serif" font-size="9.00">Floor</text>
</g>
<!-- v0&#45;&gt;v4 -->
<g id="edge4" class="edge"><title>v0&#45;&gt;v4</title>
<path fill="none" stroke="black" d="M289.663,-292.679C324.095,-282.026 387.692,-262.349 422.559,-251.562"/>
<polygon fill="black" stroke="black" points="427.487,-250.037 423.376,-253.664 425.099,-250.776 422.711,-251.515 422.711,-251.515 422.711,-251.515 425.099,-250.776 422.046,-249.365 427.487,-250.037 427.487,-250.037"/>
</g>
<!-- v2 -->
<g id="v2_Data" class="node"><title>v2</title>
<ellipse fill="none" stroke="black" cx="58" cy="-11" rx="21.5" ry="11"/>
<text text-anchor="middle" x="58" y="-8.8" font-family="sans-serif" font-size="9.00">Data</text>
</g>
<!-- v1&#45;&gt;v2 -->
<g id="edge5" class="edge"><title>v1&#45;&gt;v2</title>
<path fill="none" stroke="black" d="M60.4637,-57.9883C60.0086,-49.4941 59.3484,-37.1697 58.8259,-27.4169"/>
<polygon fill="black" stroke="black" points="58.552,-22.3039 61.0663,-27.1763 58.6858,-24.8003 58.8196,-27.2967 58.8196,-27.2967 58.8196,-27.2967 58.6858,-24.8003 56.5728,-27.4171 58.552,-22.3039 58.552,-22.3039"/>
</g>
<!-- v10 -->
<g id="v10_SmartLight" class="node"><title>v10</title>
<ellipse fill="none" stroke="black" cx="141" cy="-11" rx="43" ry="11"/>
<text text-anchor="middle" x="141" y="-8.8" font-family="sans-serif" font-size="9.00">SmartLight</text>
</g>
<!-- v1&#45;&gt;v10 -->
<g id="edge24" class="edge"><title>v1&#45;&gt;v10</title>
<path fill="none" stroke="green" d="M74.9349,-58.2455C89.7079,-47.9044 112.882,-31.6823 127.491,-21.4561"/>
</g>
<!-- v11 -->
<g id="v11_Workstation" class="node"><title>v11</title>
<ellipse fill="none" stroke="black" cx="249" cy="-11" rx="47" ry="11"/>
<text text-anchor="middle" x="249" y="-8.8" font-family="sans-serif" font-size="9.00">Workstation</text>
</g>
<!-- v1&#45;&gt;v11 -->
<g id="edge25" class="edge"><title>v1&#45;&gt;v11</title>
<path fill="none" stroke="green" d="M90.375,-59.25C126.417,-48.5142 187.026,-30.4603 221.964,-20.0532"/>
</g>
<!-- v18 -->
<g id="v18_SmartLight" class="node"><title>v18</title>
<ellipse fill="none" stroke="black" cx="447" cy="-11" rx="43" ry="11"/>
<text text-anchor="middle" x="447" y="-8.8" font-family="sans-serif" font-size="9.00">SmartLight</text>
</g>
<!-- v1&#45;&gt;v18 -->
<g id="edge26" class="edge"><title>v1&#45;&gt;v18</title>
<path fill="none" stroke="green" d="M109.241,-62.173C174.284,-54.1301 293.643,-38.7135 395,-22 401.531,-20.9231 408.501,-19.6609 415.148,-18.4029"/>
</g>
<!-- v20 -->
<g id="v20_SmartLight" class="node"><title>v20</title>
<ellipse fill="none" stroke="black" cx="649" cy="-11" rx="43" ry="11"/>
<text text-anchor="middle" x="649" y="-8.8" font-family="sans-serif" font-size="9.00">SmartLight</text>
</g>
<!-- v1&#45;&gt;v20 -->
<g id="edge27" class="edge"><title>v1&#45;&gt;v20</title>
<path fill="none" stroke="green" d="M114.737,-63.6895C240.944,-53.5213 549.184,-28.4127 596,-22 602.958,-21.0469 610.388,-19.794 617.416,-18.4987"/>
</g>
<!-- v21 -->
<g id="v21_HVAC" class="node"><title>v21</title>
<ellipse fill="none" stroke="black" cx="732" cy="-11" rx="21.5" ry="11"/>
<text text-anchor="middle" x="732" y="-8.8" font-family="sans-serif" font-size="9.00">HVAC</text>
</g>
<!-- v1&#45;&gt;v21 -->
<g id="edge28" class="edge"><title>v1&#45;&gt;v21</title>
<path fill="none" stroke="green" d="M114.33,-63.6574C136.765,-61.8592 163.148,-59.7818 187,-58 415.368,-40.9408 476.16,-65.4706 701,-22 705.775,-21.0768 710.84,-19.6454 715.462,-18.1513"/>
</g>
<!-- v22 -->
<g id="v22_FireAlarm" class="node"><title>v22</title>
<ellipse fill="none" stroke="black" cx="548" cy="-11" rx="39.5" ry="11"/>
<text text-anchor="middle" x="548" y="-8.8" font-family="sans-serif" font-size="9.00">FireAlarm</text>
</g>
<!-- v1&#45;&gt;v22 -->
<g id="edge29" class="edge"><title>v1&#45;&gt;v22</title>
<path fill="none" stroke="green" d="M113.114,-63.1652C212.511,-53.838 425.795,-33.287 499,-22 505.436,-21.0077 512.306,-19.7386 518.804,-18.4399"/>
</g>
<!-- v12 -->
<g id="v12_ExitRoom" class="node"><title>v12</title>
<ellipse fill="none" stroke="black" cx="891" cy="-11" rx="36" ry="11"/>
<text text-anchor="middle" x="891" y="-8.8" font-family="sans-serif" font-size="9.00">ExitRoom</text>
</g>
<!-- v3&#45;&gt;v12 -->
<g id="edge6" class="edge"><title>v3&#45;&gt;v12</title>
<path fill="none" stroke="black" d="M1102.45,-60.3309C1055.28,-49.5504 969.952,-30.0462 923.412,-19.4085"/>
<polygon fill="black" stroke="black" points="918.483,-18.2818 923.859,-17.2026 920.92,-18.8389 923.357,-19.396 923.357,-19.396 923.357,-19.396 920.92,-18.8389 922.856,-21.5895 918.483,-18.2818 918.483,-18.2818"/>
</g>
<!-- v13 -->
<g id="v13_ConnectDevice" class="node"><title>v13</title>
<ellipse fill="none" stroke="black" cx="999" cy="-11" rx="54" ry="11"/>
<text text-anchor="middle" x="999" y="-8.8" font-family="sans-serif" font-size="9.00">ConnectDevice</text>
</g>
<!-- v3&#45;&gt;v13 -->
<g id="edge7" class="edge"><title>v3&#45;&gt;v13</title>
<path fill="none" stroke="black" d="M1113.68,-58.878C1089.7,-49.0746 1051.58,-33.4921 1025.94,-23.0129"/>
<polygon fill="black" stroke="black" points="1021.31,-21.1181 1026.79,-20.9273 1023.62,-22.0641 1025.94,-23.01 1025.94,-23.01 1025.94,-23.01 1023.62,-22.0641 1025.08,-25.0927 1021.31,-21.1181 1021.31,-21.1181"/>
</g>
<!-- v14 -->
<g id="v14_DisconnectDevice" class="node"><title>v14</title>
<ellipse fill="none" stroke="black" cx="1136" cy="-11" rx="65" ry="11"/>
<text text-anchor="middle" x="1136" y="-8.8" font-family="sans-serif" font-size="9.00">DisconnectDevice</text>
</g>
<!-- v3&#45;&gt;v14 -->
<g id="edge8" class="edge"><title>v3&#45;&gt;v14</title>
<path fill="none" stroke="black" d="M1136,-57.9883C1136,-49.4941 1136,-37.1697 1136,-27.4169"/>
<polygon fill="black" stroke="black" points="1136,-22.3039 1138.25,-27.3038 1136,-24.8039 1136,-27.3039 1136,-27.3039 1136,-27.3039 1136,-24.8039 1133.75,-27.3039 1136,-22.3039 1136,-22.3039"/>
</g>
<!-- v15 -->
<g id="v15_CollectData" class="node"><title>v15</title>
<ellipse fill="none" stroke="black" cx="1266" cy="-11" rx="47" ry="11"/>
<text text-anchor="middle" x="1266" y="-8.8" font-family="sans-serif" font-size="9.00">CollectData</text>
</g>
<!-- v3&#45;&gt;v15 -->
<g id="edge9" class="edge"><title>v3&#45;&gt;v15</title>
<path fill="none" stroke="black" d="M1157.18,-58.878C1179.97,-49.0572 1216.24,-33.4367 1240.56,-22.957"/>
<polygon fill="black" stroke="black" points="1245.26,-20.9329 1241.56,-24.9775 1242.97,-21.922 1240.67,-22.911 1240.67,-22.911 1240.67,-22.911 1242.97,-21.922 1239.78,-20.8446 1245.26,-20.9329 1245.26,-20.9329"/>
</g>
<!-- v16 -->
<g id="v16_SendSoftware" class="node"><title>v16</title>
<ellipse fill="none" stroke="black" cx="1382" cy="-11" rx="50.5" ry="11"/>
<text text-anchor="middle" x="1382" y="-8.8" font-family="sans-serif" font-size="9.00">SendSoftware</text>
</g>
<!-- v3&#45;&gt;v16 -->
<g id="edge10" class="edge"><title>v3&#45;&gt;v16</title>
<path fill="none" stroke="black" d="M1169.69,-60.3309C1215.27,-49.9551 1296.35,-31.498 1344.03,-20.6428"/>
<polygon fill="black" stroke="black" points="1349.11,-19.4873 1344.73,-22.791 1346.67,-20.0422 1344.23,-20.5972 1344.23,-20.5972 1344.23,-20.5972 1346.67,-20.0422 1343.73,-18.4033 1349.11,-19.4873 1349.11,-19.4873"/>
</g>
<!-- v5 -->
<g id="v5_Hallway" class="node"><title>v5</title>
<ellipse fill="none" stroke="black" cx="804" cy="-11" rx="32.5" ry="11"/>
<text text-anchor="middle" x="804" y="-8.8" font-family="sans-serif" font-size="9.00">Hallway</text>
</g>
<!-- v4&#45;&gt;v5 -->
<g id="edge11" class="edge"><title>v4&#45;&gt;v5</title>
<path fill="none" stroke="black" d="M460.129,-233.541C514.551,-198.48 722.511,-64.4998 785.689,-23.7969"/>
<polygon fill="black" stroke="black" points="789.984,-21.0301 786.999,-25.6295 787.882,-22.3841 785.781,-23.7381 785.781,-23.7381 785.781,-23.7381 787.882,-22.3841 784.562,-21.8466 789.984,-21.0301 789.984,-21.0301"/>
</g>
<!-- v6 -->
<g id="v6_Room" class="node"><title>v6</title>
<ellipse fill="none" stroke="black" cx="320" cy="-185" rx="21.5" ry="11"/>
<text text-anchor="middle" x="320" y="-182.8" font-family="sans-serif" font-size="9.00">Room</text>
</g>
<!-- v4&#45;&gt;v6 -->
<g id="edge12" class="edge"><title>v4&#45;&gt;v6</title>
<path fill="none" stroke="black" d="M430.397,-234.679C407.201,-224.451 365.14,-205.904 340.17,-194.894"/>
<polygon fill="black" stroke="black" points="335.414,-192.797 340.897,-192.755 337.702,-193.805 339.989,-194.814 339.989,-194.814 339.989,-194.814 337.702,-193.805 339.081,-196.873 335.414,-192.797 335.414,-192.797"/>
</g>
<!-- v17 -->
<g id="v17_Room" class="node"><title>v17</title>
<ellipse fill="none" stroke="black" cx="447" cy="-69" rx="21.5" ry="11"/>
<text text-anchor="middle" x="447" y="-66.8" font-family="sans-serif" font-size="9.00">Room</text>
</g>
<!-- v4&#45;&gt;v17 -->
<g id="edge13" class="edge"><title>v4&#45;&gt;v17</title>
<path fill="none" stroke="black" d="M447,-231.756C447,-202.786 447,-120.136 447,-85.5335"/>
<polygon fill="black" stroke="black" points="447,-80.4081 449.25,-85.408 447,-82.9081 447,-85.4081 447,-85.4081 447,-85.4081 447,-82.9081 444.75,-85.4081 447,-80.4081 447,-80.4081"/>
</g>
<!-- v19 -->
<g id="v19_Room" class="node"><title>v19</title>
<ellipse fill="none" stroke="black" cx="598" cy="-69" rx="21.5" ry="11"/>
<text text-anchor="middle" x="598" y="-66.8" font-family="sans-serif" font-size="9.00">Room</text>
</g>
<!-- v4&#45;&gt;v19 -->
<g id="edge14" class="edge"><title>v4&#45;&gt;v19</title>
<path fill="none" stroke="black" d="M455.334,-232.508C480.762,-203.543 557.395,-116.251 586.562,-83.0291"/>
<polygon fill="black" stroke="black" points="589.877,-79.2532 588.269,-84.4951 588.227,-81.1319 586.578,-83.0107 586.578,-83.0107 586.578,-83.0107 588.227,-81.1319 584.887,-81.5262 589.877,-79.2532 589.877,-79.2532"/>
</g>
<!-- v5&#45;&gt;v6 -->
<g id="edge30" class="edge"><title>v5&#45;&gt;v6</title>
<path fill="none" stroke="green" d="M779.699,-18.4708C773.932,-19.8157 767.776,-21.0969 762,-22 710.253,-30.0906 327.593,-19.577 292,-58 261.087,-91.3716 296.806,-151.047 312.922,-174.325"/>
</g>
<!-- v5&#45;&gt;v17 -->
<g id="edge31" class="edge"><title>v5&#45;&gt;v17</title>
<path fill="none" stroke="green" d="M779.205,-18.2888C773.569,-19.6107 767.595,-20.9276 762,-22 651.813,-43.1198 518.304,-59.6697 467.746,-65.6171"/>
</g>
<!-- v5&#45;&gt;v19 -->
<g id="edge32" class="edge"><title>v5&#45;&gt;v19</title>
<path fill="none" stroke="green" d="M780.135,-18.4876C738.53,-29.7977 653.601,-52.8852 616.281,-63.0304"/>
</g>
<!-- v7 -->
<g id="v7_Visitor" class="node"><title>v7</title>
<ellipse fill="none" stroke="black" cx="381" cy="-127" rx="32.5" ry="11"/>
<text text-anchor="middle" x="381" y="-124.8" font-family="sans-serif" font-size="9.00">Visitor</text>
</g>
<!-- v6&#45;&gt;v7 -->
<g id="edge15" class="edge"><title>v6&#45;&gt;v7</title>
<path fill="none" stroke="black" d="M329.801,-175.003C339.759,-165.861 355.291,-151.601 366.638,-141.185"/>
<polygon fill="black" stroke="black" points="370.611,-137.537 368.449,-142.576 368.77,-139.228 366.928,-140.919 366.928,-140.919 366.928,-140.919 368.77,-139.228 365.406,-139.261 370.611,-137.537 370.611,-137.537"/>
</g>
<!-- v6&#45;&gt;v10 -->
<g id="edge16" class="edge"><title>v6&#45;&gt;v10</title>
<path fill="none" stroke="black" d="M299.469,-181.615C272.098,-177.414 223.67,-166.275 194,-138 161.602,-107.125 148.175,-53.3619 143.35,-27.1877"/>
<polygon fill="black" stroke="black" points="142.448,-22.0393 145.527,-26.5755 142.879,-24.5017 143.311,-26.9641 143.311,-26.9641 143.311,-26.9641 142.879,-24.5017 141.095,-27.3528 142.448,-22.0393 142.448,-22.0393"/>
</g>
<!-- v6&#45;&gt;v11 -->
<g id="edge17" class="edge"><title>v6&#45;&gt;v11</title>
<path fill="none" stroke="black" d="M315.876,-174.009C303.915,-145.034 269.172,-60.8671 255.062,-26.6863"/>
<polygon fill="black" stroke="black" points="253.136,-22.0185 257.123,-25.7817 254.089,-24.3293 255.043,-26.6402 255.043,-26.6402 255.043,-26.6402 254.089,-24.3293 252.964,-27.4987 253.136,-22.0185 253.136,-22.0185"/>
</g>
<!-- v7&#45;&gt;v8 -->
<g id="edge18" class="edge"><title>v7&#45;&gt;v8</title>
<path fill="none" stroke="black" d="M372.116,-116.246C363.853,-107.172 351.465,-93.5697 342.262,-83.4636"/>
<polygon fill="black" stroke="black" points="338.782,-79.6427 343.812,-81.8244 340.465,-81.491 342.148,-83.3394 342.148,-83.3394 342.148,-83.3394 340.465,-81.491 340.485,-84.8544 338.782,-79.6427 338.782,-79.6427"/>
</g>
<!-- v9 -->
<g id="v9_Software" class="node"><title>v9</title>
<ellipse fill="none" stroke="black" cx="350" cy="-11" rx="36" ry="11"/>
<text text-anchor="middle" x="350" y="-8.8" font-family="sans-serif" font-size="9.00">Software</text>
</g>
<!-- v8&#45;&gt;v9 -->
<g id="edge19" class="edge"><title>v8&#45;&gt;v9</title>
<path fill="none" stroke="black" d="M333.576,-57.9883C336.637,-49.4154 341.092,-36.9411 344.59,-27.1466"/>
<polygon fill="black" stroke="black" points="346.32,-22.3039 346.757,-27.7694 345.479,-24.6582 344.638,-27.0126 344.638,-27.0126 344.638,-27.0126 345.479,-24.6582 342.519,-26.2558 346.32,-22.3039 346.32,-22.3039"/>
</g>
<!-- v17&#45;&gt;v18 -->
<g id="edge20" class="edge"><title>v17&#45;&gt;v18</title>
<path fill="none" stroke="black" d="M447,-57.9883C447,-49.4941 447,-37.1697 447,-27.4169"/>
<polygon fill="black" stroke="black" points="447,-22.3039 449.25,-27.3038 447,-24.8039 447,-27.3039 447,-27.3039 447,-27.3039 447,-24.8039 444.75,-27.3039 447,-22.3039 447,-22.3039"/>
</g>
<!-- v19&#45;&gt;v20 -->
<g id="edge21" class="edge"><title>v19&#45;&gt;v20</title>
<path fill="none" stroke="black" d="M606.422,-58.7527C614.614,-49.7573 627.158,-35.9828 636.512,-25.7121"/>
<polygon fill="black" stroke="black" points="640.051,-21.8266 638.348,-27.0383 638.367,-23.6749 636.684,-25.5233 636.684,-25.5233 636.684,-25.5233 638.367,-23.6749 635.021,-24.0083 640.051,-21.8266 640.051,-21.8266"/>
</g>
<!-- v19&#45;&gt;v21 -->
<g id="edge22" class="edge"><title>v19&#45;&gt;v21</title>
<path fill="none" stroke="black" d="M613.898,-61.3562C638.176,-51.21 684.495,-31.8526 711.346,-20.6317"/>
<polygon fill="black" stroke="black" points="716.123,-18.6352 712.377,-22.6392 713.816,-19.5992 711.51,-20.5632 711.51,-20.5632 711.51,-20.5632 713.816,-19.5992 710.642,-18.4872 716.123,-18.6352 716.123,-18.6352"/>
</g>
<!-- v19&#45;&gt;v22 -->
<g id="edge23" class="edge"><title>v19&#45;&gt;v22</title>
<path fill="none" stroke="black" d="M589.744,-58.7527C581.712,-49.7573 569.413,-35.9828 560.243,-25.7121"/>
<polygon fill="black" stroke="black" points="556.774,-21.8266 561.782,-24.0577 558.439,-23.6914 560.104,-25.5563 560.104,-25.5563 560.104,-25.5563 558.439,-23.6914 558.425,-27.0548 556.774,-21.8266 556.774,-21.8266"/>
</g>
</g>
</svg>
