<?xml version="1.0" encoding="UTF-8" standalone="no"?>
<?xml-stylesheet href="style.css" type="text/css"?>
<!DOCTYPE svg PUBLIC "-//W3C//DTD SVG 1.1//EN"
 "http://www.w3.org/Graphics/SVG/1.1/DTD/svg11.dtd">
<!-- Generated by graphviz version 2.38.0 (20140413.2041)
 -->
<!-- Title: 17.svg Pages: 1 -->
<svg width="1453pt" height="374pt"
 viewBox="0.00 0.00 1453.00 374.00" xmlns="http://www.w3.org/2000/svg" xmlns:xlink="http://www.w3.org/1999/xlink">
<g id="graph0" class="graph" transform="scale(1 1) rotate(0) translate(4 370)">
<title>17.svg</title>
<polygon fill="white" stroke="none" points="-4,4 -4,-370 1449,-370 1449,4 -4,4"/>
<!-- r0 -->
<g id="node1" class="node"><title>r0</title>
<polygon fill="none" stroke="black" stroke-dasharray="5,2" points="610,-366 587,-366 587,-348 610,-348 610,-366"/>
<text text-anchor="middle" x="598.5" y="-354.8" font-family="serif" font-size="9.00">0</text>
</g>
<!-- v0 -->
<g id="v0_Building" class="node"><title>v0</title>
<ellipse fill="none" stroke="black" cx="598.5" cy="-301" rx="36" ry="11"/>
<text text-anchor="middle" x="598.5" y="-298.8" font-family="sans-serif" font-size="9.00">Building</text>
</g>
<!-- r0&#45;&gt;v0 -->
<g id="edge1" class="edge"><title>r0&#45;&gt;v0</title>
<path fill="none" stroke="black" d="M598.5,-347.562C598.5,-339.453 598.5,-327.014 598.5,-317.181"/>
<polygon fill="black" stroke="black" points="598.5,-312.03 600.75,-317.03 598.5,-314.53 598.5,-317.03 598.5,-317.03 598.5,-317.03 598.5,-314.53 596.25,-317.03 598.5,-312.03 598.5,-312.03"/>
</g>
<!-- r1 -->
<g id="node2" class="node"><title>r1</title>
<polygon fill="none" stroke="black" stroke-dasharray="5,2" points="1174,-366 1151,-366 1151,-348 1174,-348 1174,-366"/>
<text text-anchor="middle" x="1162.5" y="-354.8" font-family="serif" font-size="9.00">1</text>
</g>
<!-- v7 -->
<g id="v7_RulesKeywords" class="node"><title>v7</title>
<ellipse fill="none" stroke="black" cx="1162.5" cy="-69" rx="54" ry="11"/>
<text text-anchor="middle" x="1162.5" y="-66.8" font-family="sans-serif" font-size="9.00">RulesKeywords</text>
</g>
<!-- r1&#45;&gt;v7 -->
<g id="edge2" class="edge"><title>r1&#45;&gt;v7</title>
<path fill="none" stroke="black" d="M1162.5,-347.849C1162.5,-329.373 1162.5,-282.889 1162.5,-244 1162.5,-244 1162.5,-244 1162.5,-184 1162.5,-148.604 1162.5,-107.026 1162.5,-85.1783"/>
<polygon fill="black" stroke="black" points="1162.5,-80.0648 1164.75,-85.0648 1162.5,-82.5648 1162.5,-85.0648 1162.5,-85.0648 1162.5,-85.0648 1162.5,-82.5648 1160.25,-85.0648 1162.5,-80.0648 1162.5,-80.0648"/>
</g>
<!-- e1 -->
<g id="node3" class="node"><title>e1</title>
</g>
<!-- v4 -->
<g id="v4_Laptop" class="node"><title>v4</title>
<ellipse fill="none" stroke="black" cx="397.5" cy="-69" rx="29" ry="11"/>
<text text-anchor="middle" x="397.5" y="-66.8" font-family="sans-serif" font-size="9.00">Laptop</text>
</g>
<!-- e1&#45;&gt;v4 -->
<g id="edge24" class="edge"><title>e1&#45;&gt;v4</title>
<path fill="none" stroke="green" d="M397.5,-122.167C397.5,-113.586 397.5,-92.5957 397.5,-80.0117"/>
<polygon fill="green" stroke="green" points="401,-125.3 394,-125.3 394,-123.9 401,-123.9 401,-125.3"/>
<polyline fill="none" stroke="green" points="397.5,-126 397.5,-122.5 "/>
</g>
<!-- v1 -->
<g id="v1_Floor" class="node"><title>v1</title>
<ellipse fill="none" stroke="black" cx="468.5" cy="-243" rx="25" ry="11"/>
<text text-anchor="middle" x="468.5" y="-240.8" font-family="sans-serif" font-size="9.00">Floor</text>
</g>
<!-- v0&#45;&gt;v1 -->
<g id="edge3" class="edge"><title>v0&#45;&gt;v1</title>
<path fill="none" stroke="black" d="M579.038,-291.616C555.132,-281.318 514.712,-263.907 489.937,-253.234"/>
<polygon fill="black" stroke="black" points="485.2,-251.194 490.682,-251.106 487.496,-252.183 489.792,-253.172 489.792,-253.172 489.792,-253.172 487.496,-252.183 488.902,-255.238 485.2,-251.194 485.2,-251.194"/>
</g>
<!-- v6 -->
<g id="v6_InstallationBus" class="node"><title>v6</title>
<ellipse fill="none" stroke="black" cx="816.5" cy="-11" rx="61" ry="11"/>
<text text-anchor="middle" x="816.5" y="-8.8" font-family="sans-serif" font-size="9.00">InstallationBus</text>
</g>
<!-- v0&#45;&gt;v6 -->
<g id="edge4" class="edge"><title>v0&#45;&gt;v6</title>
<path fill="none" stroke="black" d="M619.874,-292.118C655.823,-277.321 724.5,-241.754 724.5,-186 724.5,-186 724.5,-186 724.5,-126 724.5,-80.6146 769.205,-43.1086 796.289,-24.5507"/>
<polygon fill="black" stroke="black" points="800.475,-21.7366 797.581,-26.3935 798.4,-23.1314 796.325,-24.5262 796.325,-24.5262 796.325,-24.5262 798.4,-23.1314 795.07,-22.6589 800.475,-21.7366 800.475,-21.7366"/>
</g>
<!-- v2 -->
<g id="v2_Room" class="node"><title>v2</title>
<ellipse fill="none" stroke="black" cx="468.5" cy="-185" rx="21.5" ry="11"/>
<text text-anchor="middle" x="468.5" y="-182.8" font-family="sans-serif" font-size="9.00">Room</text>
</g>
<!-- v1&#45;&gt;v2 -->
<g id="edge5" class="edge"><title>v1&#45;&gt;v2</title>
<path fill="none" stroke="black" d="M468.5,-231.988C468.5,-223.494 468.5,-211.17 468.5,-201.417"/>
<polygon fill="black" stroke="black" points="468.5,-196.304 470.75,-201.304 468.5,-198.804 468.5,-201.304 468.5,-201.304 468.5,-201.304 468.5,-198.804 466.25,-201.304 468.5,-196.304 468.5,-196.304"/>
</g>
<!-- v9 -->
<g id="v9_Hallway" class="node"><title>v9</title>
<ellipse fill="none" stroke="black" cx="32.5" cy="-11" rx="32.5" ry="11"/>
<text text-anchor="middle" x="32.5" y="-8.8" font-family="sans-serif" font-size="9.00">Hallway</text>
</g>
<!-- v1&#45;&gt;v9 -->
<g id="edge6" class="edge"><title>v1&#45;&gt;v9</title>
<path fill="none" stroke="black" d="M446.402,-237.835C414.981,-231.423 356.039,-217.568 309.5,-196 201.85,-146.11 88.5243,-57.7417 48.0112,-24.826"/>
<polygon fill="black" stroke="black" points="43.8765,-21.4534 49.1732,-22.8702 45.8138,-23.0336 47.751,-24.6138 47.751,-24.6138 47.751,-24.6138 45.8138,-23.0336 46.3288,-26.3573 43.8765,-21.4534 43.8765,-21.4534"/>
</g>
<!-- v15 -->
<g id="v15_Room" class="node"><title>v15</title>
<ellipse fill="none" stroke="black" cx="191.5" cy="-69" rx="21.5" ry="11"/>
<text text-anchor="middle" x="191.5" y="-66.8" font-family="sans-serif" font-size="9.00">Room</text>
</g>
<!-- v1&#45;&gt;v15 -->
<g id="edge7" class="edge"><title>v1&#45;&gt;v15</title>
<path fill="none" stroke="black" d="M449.76,-235.591C410.894,-221.745 319.705,-186.341 254.5,-138 233.411,-122.365 213.618,-99.0453 202.032,-84.1827"/>
<polygon fill="black" stroke="black" points="198.708,-79.8595 203.539,-82.4515 200.232,-81.8413 201.756,-83.8231 201.756,-83.8231 201.756,-83.8231 200.232,-81.8413 199.972,-85.1947 198.708,-79.8595 198.708,-79.8595"/>
</g>
<!-- v19 -->
<g id="v19_Room" class="node"><title>v19</title>
<ellipse fill="none" stroke="black" cx="582.5" cy="-69" rx="21.5" ry="11"/>
<text text-anchor="middle" x="582.5" y="-66.8" font-family="sans-serif" font-size="9.00">Room</text>
</g>
<!-- v1&#45;&gt;v19 -->
<g id="edge8" class="edge"><title>v1&#45;&gt;v19</title>
<path fill="none" stroke="black" d="M474.956,-232.26C494.159,-203.287 550.97,-117.572 573.32,-83.8512"/>
<polygon fill="black" stroke="black" points="576.115,-79.6335 575.228,-85.0442 574.734,-81.7173 573.353,-83.8012 573.353,-83.8012 573.353,-83.8012 574.734,-81.7173 571.477,-82.5581 576.115,-79.6335 576.115,-79.6335"/>
</g>
<!-- v3 -->
<g id="v3_Visitor" class="node"><title>v3</title>
<ellipse fill="none" stroke="black" cx="346.5" cy="-127" rx="32.5" ry="11"/>
<text text-anchor="middle" x="346.5" y="-124.8" font-family="sans-serif" font-size="9.00">Visitor</text>
</g>
<!-- v2&#45;&gt;v3 -->
<g id="edge9" class="edge"><title>v2&#45;&gt;v3</title>
<path fill="none" stroke="black" d="M453.049,-176.908C431.89,-167.195 393.743,-149.686 369.297,-138.464"/>
<polygon fill="black" stroke="black" points="364.6,-136.308 370.083,-136.349 366.872,-137.351 369.144,-138.394 369.144,-138.394 369.144,-138.394 366.872,-137.351 368.206,-140.439 364.6,-136.308 364.6,-136.308"/>
</g>
<!-- v5 -->
<g id="v5_SmartLight" class="node"><title>v5</title>
<ellipse fill="none" stroke="black" cx="478.5" cy="-11" rx="43" ry="11"/>
<text text-anchor="middle" x="478.5" y="-8.8" font-family="sans-serif" font-size="9.00">SmartLight</text>
</g>
<!-- v2&#45;&gt;v5 -->
<g id="edge10" class="edge"><title>v2&#45;&gt;v5</title>
<path fill="none" stroke="black" d="M469.096,-173.756C470.78,-144.786 475.585,-62.1364 477.597,-27.5335"/>
<polygon fill="black" stroke="black" points="477.895,-22.4081 479.851,-27.5303 477.75,-24.9039 477.605,-27.3996 477.605,-27.3996 477.605,-27.3996 477.75,-24.9039 475.358,-27.269 477.895,-22.4081 477.895,-22.4081"/>
</g>
<!-- v2&#45;&gt;v9 -->
<g id="edge23" class="edge"><title>v2&#45;&gt;v9</title>
<path fill="none" stroke="green" d="M448.083,-181.549C415.78,-176.977 351.712,-165.046 304.5,-138 260.043,-112.532 266.394,-82.6891 221.5,-58 162.183,-25.3786 139.273,-38.0205 73.5,-22 68.3746,-20.7516 62.8891,-19.4144 57.6514,-18.1371"/>
</g>
<!-- v3&#45;&gt;v4 -->
<g id="edge11" class="edge"><title>v3&#45;&gt;v4</title>
<path fill="none" stroke="black" d="M355.384,-116.246C363.647,-107.172 376.035,-93.5697 385.238,-83.4636"/>
<polygon fill="black" stroke="black" points="388.718,-79.6427 387.015,-84.8544 387.035,-81.491 385.352,-83.3394 385.352,-83.3394 385.352,-83.3394 387.035,-81.491 383.688,-81.8244 388.718,-79.6427 388.718,-79.6427"/>
</g>
<!-- v10 -->
<g id="v10_Software" class="node"><title>v10</title>
<ellipse fill="none" stroke="black" cx="381.5" cy="-11" rx="36" ry="11"/>
<text text-anchor="middle" x="381.5" y="-8.8" font-family="sans-serif" font-size="9.00">Software</text>
</g>
<!-- v4&#45;&gt;v10 -->
<g id="edge12" class="edge"><title>v4&#45;&gt;v10</title>
<path fill="none" stroke="black" d="M394.64,-57.9883C392.19,-49.4154 388.626,-36.9411 385.828,-27.1466"/>
<polygon fill="black" stroke="black" points="384.444,-22.3039 387.981,-26.4933 385.131,-24.7077 385.818,-27.1115 385.818,-27.1115 385.818,-27.1115 385.131,-24.7077 383.654,-27.7297 384.444,-22.3039 384.444,-22.3039"/>
</g>
<!-- v5&#45;&gt;v6 -->
<g id="edge25" class="edge"><title>v5&#45;&gt;v6</title>
<path fill="none" stroke="green" d="M494.859,-21.2415C506.744,-28.0527 523.486,-36.3871 539.5,-40 625.343,-59.3666 650.858,-55.4002 737.5,-40 757.495,-36.446 779.067,-28.2018 794.609,-21.4084"/>
</g>
<!-- v16 -->
<g id="v16_SmartLight" class="node"><title>v16</title>
<ellipse fill="none" stroke="black" cx="284.5" cy="-11" rx="43" ry="11"/>
<text text-anchor="middle" x="284.5" y="-8.8" font-family="sans-serif" font-size="9.00">SmartLight</text>
</g>
<!-- v6&#45;&gt;v16 -->
<g id="edge26" class="edge"><title>v6&#45;&gt;v16</title>
<path fill="none" stroke="green" d="M794.609,-21.4084C779.067,-28.2018 757.495,-36.446 737.5,-40 651.733,-55.2447 430.475,-59.171 345.5,-40 329.486,-36.3871 312.744,-28.0527 300.859,-21.2415"/>
</g>
<!-- v17 -->
<g id="v17_HVAC" class="node"><title>v17</title>
<ellipse fill="none" stroke="black" cx="104.5" cy="-11" rx="21.5" ry="11"/>
<text text-anchor="middle" x="104.5" y="-8.8" font-family="sans-serif" font-size="9.00">HVAC</text>
</g>
<!-- v6&#45;&gt;v17 -->
<g id="edge27" class="edge"><title>v6&#45;&gt;v17</title>
<path fill="none" stroke="green" d="M794.609,-21.4084C779.067,-28.2018 757.495,-36.446 737.5,-40 672.519,-51.5502 206.156,-60.7422 143.5,-40 132.126,-36.2346 121.37,-27.7237 114.047,-20.8905"/>
</g>
<!-- v18 -->
<g id="v18_FireAlarm" class="node"><title>v18</title>
<ellipse fill="none" stroke="black" cx="183.5" cy="-11" rx="39.5" ry="11"/>
<text text-anchor="middle" x="183.5" y="-8.8" font-family="sans-serif" font-size="9.00">FireAlarm</text>
</g>
<!-- v6&#45;&gt;v18 -->
<g id="edge28" class="edge"><title>v6&#45;&gt;v18</title>
<path fill="none" stroke="green" d="M794.609,-21.4084C779.067,-28.2018 757.495,-36.446 737.5,-40 628.979,-59.2892 348.774,-65.3239 241.5,-40 226.16,-36.3788 210.252,-28.0452 198.985,-21.2364"/>
</g>
<!-- v20 -->
<g id="v20_SmartLight" class="node"><title>v20</title>
<ellipse fill="none" stroke="black" cx="582.5" cy="-11" rx="43" ry="11"/>
<text text-anchor="middle" x="582.5" y="-8.8" font-family="sans-serif" font-size="9.00">SmartLight</text>
</g>
<!-- v6&#45;&gt;v20 -->
<g id="edge29" class="edge"><title>v6&#45;&gt;v20</title>
<path fill="none" stroke="green" d="M794.609,-21.4084C779.067,-28.2018 757.495,-36.446 737.5,-40 696.367,-47.3112 684.254,-49.1942 643.5,-40 627.486,-36.3871 610.744,-28.0527 598.859,-21.2415"/>
</g>
<!-- v21 -->
<g id="v21_Workstation" class="node"><title>v21</title>
<ellipse fill="none" stroke="black" cx="690.5" cy="-11" rx="47" ry="11"/>
<text text-anchor="middle" x="690.5" y="-8.8" font-family="sans-serif" font-size="9.00">Workstation</text>
</g>
<!-- v6&#45;&gt;v21 -->
<g id="edge30" class="edge"><title>v6&#45;&gt;v21</title>
<path fill="none" stroke="green" d="M755.284,-11C749.439,-11 743.595,-11 737.75,-11"/>
</g>
<!-- v8 -->
<g id="v8_ConnectDevice" class="node"><title>v8</title>
<ellipse fill="none" stroke="black" cx="949.5" cy="-11" rx="54" ry="11"/>
<text text-anchor="middle" x="949.5" y="-8.8" font-family="sans-serif" font-size="9.00">ConnectDevice</text>
</g>
<!-- v7&#45;&gt;v8 -->
<g id="edge13" class="edge"><title>v7&#45;&gt;v8</title>
<path fill="none" stroke="black" d="M1131.53,-59.8571C1092.61,-49.6255 1025.97,-32.1056 985.026,-21.3403"/>
<polygon fill="black" stroke="black" points="980.164,-20.0619 985.572,-19.1572 982.582,-20.6976 985,-21.3333 985,-21.3333 985,-21.3333 982.582,-20.6976 984.427,-23.5093 980.164,-20.0619 980.164,-20.0619"/>
</g>
<!-- v11 -->
<g id="v11_ExitRoom" class="node"><title>v11</title>
<ellipse fill="none" stroke="black" cx="1057.5" cy="-11" rx="36" ry="11"/>
<text text-anchor="middle" x="1057.5" y="-8.8" font-family="sans-serif" font-size="9.00">ExitRoom</text>
</g>
<!-- v7&#45;&gt;v11 -->
<g id="edge14" class="edge"><title>v7&#45;&gt;v11</title>
<path fill="none" stroke="black" d="M1144.69,-58.5004C1126.46,-48.777 1098.12,-33.6662 1078.74,-23.3265"/>
<polygon fill="black" stroke="black" points="1074.01,-20.8068 1079.48,-21.1745 1076.22,-21.9833 1078.42,-23.1598 1078.42,-23.1598 1078.42,-23.1598 1076.22,-21.9833 1077.37,-25.1451 1074.01,-20.8068 1074.01,-20.8068"/>
</g>
<!-- v12 -->
<g id="v12_GenerateData" class="node"><title>v12</title>
<ellipse fill="none" stroke="black" cx="1162.5" cy="-11" rx="50.5" ry="11"/>
<text text-anchor="middle" x="1162.5" y="-8.8" font-family="sans-serif" font-size="9.00">GenerateData</text>
</g>
<!-- v7&#45;&gt;v12 -->
<g id="edge15" class="edge"><title>v7&#45;&gt;v12</title>
<path fill="none" stroke="black" d="M1162.5,-57.9883C1162.5,-49.4941 1162.5,-37.1697 1162.5,-27.4169"/>
<polygon fill="black" stroke="black" points="1162.5,-22.3039 1164.75,-27.3038 1162.5,-24.8039 1162.5,-27.3039 1162.5,-27.3039 1162.5,-27.3039 1162.5,-24.8039 1160.25,-27.3039 1162.5,-22.3039 1162.5,-22.3039"/>
</g>
<!-- v13 -->
<g id="v13_CollectData" class="node"><title>v13</title>
<ellipse fill="none" stroke="black" cx="1278.5" cy="-11" rx="47" ry="11"/>
<text text-anchor="middle" x="1278.5" y="-8.8" font-family="sans-serif" font-size="9.00">CollectData</text>
</g>
<!-- v7&#45;&gt;v13 -->
<g id="edge16" class="edge"><title>v7&#45;&gt;v13</title>
<path fill="none" stroke="black" d="M1181.92,-58.6269C1201.94,-48.9585 1233.2,-33.8675 1254.7,-23.4873"/>
<polygon fill="black" stroke="black" points="1259.41,-21.2174 1255.88,-25.4174 1257.16,-22.3043 1254.9,-23.3912 1254.9,-23.3912 1254.9,-23.3912 1257.16,-22.3043 1253.93,-21.3649 1259.41,-21.2174 1259.41,-21.2174"/>
</g>
<!-- v14 -->
<g id="v14_SendSoftware" class="node"><title>v14</title>
<ellipse fill="none" stroke="black" cx="1394.5" cy="-11" rx="50.5" ry="11"/>
<text text-anchor="middle" x="1394.5" y="-8.8" font-family="sans-serif" font-size="9.00">SendSoftware</text>
</g>
<!-- v7&#45;&gt;v14 -->
<g id="edge17" class="edge"><title>v7&#45;&gt;v14</title>
<path fill="none" stroke="black" d="M1195.25,-60.0953C1238.06,-49.7605 1312.86,-31.7058 1357.63,-20.9008"/>
<polygon fill="black" stroke="black" points="1362.66,-19.6847 1358.33,-23.0452 1360.23,-20.2713 1357.8,-20.858 1357.8,-20.858 1357.8,-20.858 1360.23,-20.2713 1357.28,-18.6708 1362.66,-19.6847 1362.66,-19.6847"/>
</g>
<!-- v9&#45;&gt;v15 -->
<g id="edge31" class="edge"><title>v9&#45;&gt;v15</title>
<path fill="none" stroke="green" d="M53.6602,-19.4526C85.5352,-30.6791 145.243,-51.7083 174.484,-62.007"/>
</g>
<!-- v9&#45;&gt;v19 -->
<g id="edge32" class="edge"><title>v9&#45;&gt;v19</title>
<path fill="none" stroke="green" d="M56.658,-18.5254C62.162,-19.835 68.007,-21.0872 73.5,-22 169.999,-38.0368 477.884,-60.5745 561.418,-66.5168"/>
</g>
<!-- v15&#45;&gt;v16 -->
<g id="edge18" class="edge"><title>v15&#45;&gt;v16</title>
<path fill="none" stroke="black" d="M204.825,-59.9766C220.475,-50.553 246.585,-34.8303 264.628,-23.9657"/>
<polygon fill="black" stroke="black" points="269.03,-21.315 265.908,-25.8219 266.889,-22.6047 264.747,-23.8943 264.747,-23.8943 264.747,-23.8943 266.889,-22.6047 263.586,-21.9668 269.03,-21.315 269.03,-21.315"/>
</g>
<!-- v15&#45;&gt;v17 -->
<g id="edge19" class="edge"><title>v15&#45;&gt;v17</title>
<path fill="none" stroke="black" d="M179.035,-59.9766C163.918,-50.2458 138.366,-33.7986 121.464,-22.9192"/>
<polygon fill="black" stroke="black" points="116.942,-20.0086 122.364,-20.8229 119.044,-21.3617 121.146,-22.7148 121.146,-22.7148 121.146,-22.7148 119.044,-21.3617 119.928,-24.6068 116.942,-20.0086 116.942,-20.0086"/>
</g>
<!-- v15&#45;&gt;v18 -->
<g id="edge20" class="edge"><title>v15&#45;&gt;v18</title>
<path fill="none" stroke="black" d="M190.07,-57.9883C188.856,-49.4941 187.096,-37.1697 185.702,-27.4169"/>
<polygon fill="black" stroke="black" points="184.972,-22.3039 187.907,-26.9354 185.326,-24.7787 185.679,-27.2536 185.679,-27.2536 185.679,-27.2536 185.326,-24.7787 183.452,-27.5719 184.972,-22.3039 184.972,-22.3039"/>
</g>
<!-- v19&#45;&gt;v20 -->
<g id="edge21" class="edge"><title>v19&#45;&gt;v20</title>
<path fill="none" stroke="black" d="M582.5,-57.9883C582.5,-49.4941 582.5,-37.1697 582.5,-27.4169"/>
<polygon fill="black" stroke="black" points="582.5,-22.3039 584.75,-27.3038 582.5,-24.8039 582.5,-27.3039 582.5,-27.3039 582.5,-27.3039 582.5,-24.8039 580.25,-27.3039 582.5,-22.3039 582.5,-22.3039"/>
</g>
<!-- v19&#45;&gt;v21 -->
<g id="edge22" class="edge"><title>v19&#45;&gt;v21</title>
<path fill="none" stroke="black" d="M596.619,-60.679C614.692,-51.3076 646.232,-34.9536 667.722,-23.8106"/>
<polygon fill="black" stroke="black" points="672.416,-21.3771 669.013,-25.6762 670.196,-22.5279 667.977,-23.6787 667.977,-23.6787 667.977,-23.6787 670.196,-22.5279 666.941,-21.6813 672.416,-21.3771 672.416,-21.3771"/>
</g>
</g>
</svg>
