<?xml version="1.0" encoding="UTF-8" standalone="no"?>
<?xml-stylesheet href="style.css" type="text/css"?>
<!DOCTYPE svg PUBLIC "-//W3C//DTD SVG 1.1//EN"
 "http://www.w3.org/Graphics/SVG/1.1/DTD/svg11.dtd">
<!-- Generated by graphviz version 2.38.0 (20140413.2041)
 -->
<!-- Title: 21.svg Pages: 1 -->
<svg width="1333pt" height="374pt"
 viewBox="0.00 0.00 1332.50 374.00" xmlns="http://www.w3.org/2000/svg" xmlns:xlink="http://www.w3.org/1999/xlink">
<g id="graph0" class="graph" transform="scale(1 1) rotate(0) translate(4 370)">
<title>21.svg</title>
<polygon fill="white" stroke="none" points="-4,4 -4,-370 1328.5,-370 1328.5,4 -4,4"/>
<!-- r0 -->
<g id="node1" class="node"><title>r0</title>
<polygon fill="none" stroke="black" stroke-dasharray="5,2" points="317.5,-366 294.5,-366 294.5,-348 317.5,-348 317.5,-366"/>
<text text-anchor="middle" x="306" y="-354.8" font-family="serif" font-size="9.00">0</text>
</g>
<!-- v0 -->
<g id="v0_Building" class="node"><title>v0</title>
<ellipse fill="none" stroke="black" cx="306" cy="-301" rx="36" ry="11"/>
<text text-anchor="middle" x="306" y="-298.8" font-family="sans-serif" font-size="9.00">Building</text>
</g>
<!-- r0&#45;&gt;v0 -->
<g id="edge1" class="edge"><title>r0&#45;&gt;v0</title>
<path fill="none" stroke="black" d="M306,-347.562C306,-339.453 306,-327.014 306,-317.181"/>
<polygon fill="black" stroke="black" points="306,-312.03 308.25,-317.03 306,-314.53 306,-317.03 306,-317.03 306,-317.03 306,-314.53 303.75,-317.03 306,-312.03 306,-312.03"/>
</g>
<!-- r1 -->
<g id="node2" class="node"><title>r1</title>
<polygon fill="none" stroke="black" stroke-dasharray="5,2" points="1118.5,-366 1095.5,-366 1095.5,-348 1118.5,-348 1118.5,-366"/>
<text text-anchor="middle" x="1107" y="-354.8" font-family="serif" font-size="9.00">1</text>
</g>
<!-- v3 -->
<g id="v3_RulesKeywords" class="node"><title>v3</title>
<ellipse fill="none" stroke="black" cx="1107" cy="-69" rx="54" ry="11"/>
<text text-anchor="middle" x="1107" y="-66.8" font-family="sans-serif" font-size="9.00">RulesKeywords</text>
</g>
<!-- r1&#45;&gt;v3 -->
<g id="edge2" class="edge"><title>r1&#45;&gt;v3</title>
<path fill="none" stroke="black" d="M1107,-347.849C1107,-329.373 1107,-282.889 1107,-244 1107,-244 1107,-244 1107,-184 1107,-148.604 1107,-107.026 1107,-85.1783"/>
<polygon fill="black" stroke="black" points="1107,-80.0648 1109.25,-85.0648 1107,-82.5648 1107,-85.0648 1107,-85.0648 1107,-85.0648 1107,-82.5648 1104.75,-85.0648 1107,-80.0648 1107,-80.0648"/>
</g>
<!-- e7 -->
<g id="node3" class="node"><title>e7</title>
</g>
<!-- v7 -->
<g id="v7_Laptop" class="node"><title>v7</title>
<ellipse fill="none" stroke="black" cx="301" cy="-69" rx="29" ry="11"/>
<text text-anchor="middle" x="301" y="-66.8" font-family="sans-serif" font-size="9.00">Laptop</text>
</g>
<!-- e7&#45;&gt;v7 -->
<g id="edge30" class="edge"><title>e7&#45;&gt;v7</title>
<path fill="none" stroke="green" d="M301,-122.167C301,-113.586 301,-92.5957 301,-80.0117"/>
<polygon fill="green" stroke="green" points="304.5,-125.3 297.5,-125.3 297.5,-123.9 304.5,-123.9 304.5,-125.3"/>
<polyline fill="none" stroke="green" points="301,-126 301,-122.5 "/>
</g>
<!-- v1 -->
<g id="v1_InstallationBus" class="node"><title>v1</title>
<ellipse fill="none" stroke="black" cx="61" cy="-69" rx="61" ry="11"/>
<text text-anchor="middle" x="61" y="-66.8" font-family="sans-serif" font-size="9.00">InstallationBus</text>
</g>
<!-- v0&#45;&gt;v1 -->
<g id="edge3" class="edge"><title>v0&#45;&gt;v1</title>
<path fill="none" stroke="black" d="M295.785,-290.41C257.192,-254.181 120.199,-125.575 75.3378,-83.4599"/>
<polygon fill="black" stroke="black" points="71.5329,-79.888 76.7182,-81.6698 73.3556,-81.5991 75.1783,-83.3102 75.1783,-83.3102 75.1783,-83.3102 73.3556,-81.5991 73.6383,-84.9506 71.5329,-79.888 71.5329,-79.888"/>
</g>
<!-- v4 -->
<g id="v4_Floor" class="node"><title>v4</title>
<ellipse fill="none" stroke="black" cx="524" cy="-243" rx="25" ry="11"/>
<text text-anchor="middle" x="524" y="-240.8" font-family="sans-serif" font-size="9.00">Floor</text>
</g>
<!-- v0&#45;&gt;v4 -->
<g id="edge4" class="edge"><title>v0&#45;&gt;v4</title>
<path fill="none" stroke="black" d="M332.296,-293.245C374.519,-282.399 456.906,-261.235 498.571,-250.532"/>
<polygon fill="black" stroke="black" points="503.445,-249.28 499.162,-252.703 501.024,-249.902 498.602,-250.524 498.602,-250.524 498.602,-250.524 501.024,-249.902 498.042,-248.345 503.445,-249.28 503.445,-249.28"/>
</g>
<!-- v2 -->
<g id="v2_Data" class="node"><title>v2</title>
<ellipse fill="none" stroke="black" cx="61" cy="-11" rx="21.5" ry="11"/>
<text text-anchor="middle" x="61" y="-8.8" font-family="sans-serif" font-size="9.00">Data</text>
</g>
<!-- v1&#45;&gt;v2 -->
<g id="edge5" class="edge"><title>v1&#45;&gt;v2</title>
<path fill="none" stroke="black" d="M61,-57.9883C61,-49.4941 61,-37.1697 61,-27.4169"/>
<polygon fill="black" stroke="black" points="61,-22.3039 63.2501,-27.3038 61,-24.8039 61.0001,-27.3039 61.0001,-27.3039 61.0001,-27.3039 61,-24.8039 58.7501,-27.3039 61,-22.3039 61,-22.3039"/>
</g>
<!-- v8 -->
<g id="v8_SmartLight" class="node"><title>v8</title>
<ellipse fill="none" stroke="black" cx="150" cy="-11" rx="43" ry="11"/>
<text text-anchor="middle" x="150" y="-8.8" font-family="sans-serif" font-size="9.00">SmartLight</text>
</g>
<!-- v1&#45;&gt;v8 -->
<g id="edge23" class="edge"><title>v1&#45;&gt;v8</title>
<path fill="none" stroke="green" d="M76.5026,-58.2455C92.9376,-47.9044 118.719,-31.6823 134.972,-21.4561"/>
</g>
<!-- v12 -->
<g id="v12_HVAC" class="node"><title>v12</title>
<ellipse fill="none" stroke="black" cx="355" cy="-11" rx="21.5" ry="11"/>
<text text-anchor="middle" x="355" y="-8.8" font-family="sans-serif" font-size="9.00">HVAC</text>
</g>
<!-- v1&#45;&gt;v12 -->
<g id="edge24" class="edge"><title>v1&#45;&gt;v12</title>
<path fill="none" stroke="green" d="M107.489,-61.8623C160.365,-54.4219 249.082,-40.54 324,-22 328.611,-20.8589 333.534,-19.39 338.067,-17.9312"/>
</g>
<!-- v13 -->
<g id="v13_FireAlarm" class="node"><title>v13</title>
<ellipse fill="none" stroke="black" cx="434" cy="-11" rx="39.5" ry="11"/>
<text text-anchor="middle" x="434" y="-8.8" font-family="sans-serif" font-size="9.00">FireAlarm</text>
</g>
<!-- v1&#45;&gt;v13 -->
<g id="edge25" class="edge"><title>v1&#45;&gt;v13</title>
<path fill="none" stroke="green" d="M108.902,-62.1167C172.256,-54.1258 287.308,-38.8876 385,-22 391.245,-20.9204 397.913,-19.6433 404.255,-18.3692"/>
</g>
<!-- v18 -->
<g id="v18_SmartLight" class="node"><title>v18</title>
<ellipse fill="none" stroke="black" cx="618" cy="-11" rx="43" ry="11"/>
<text text-anchor="middle" x="618" y="-8.8" font-family="sans-serif" font-size="9.00">SmartLight</text>
</g>
<!-- v1&#45;&gt;v18 -->
<g id="edge26" class="edge"><title>v1&#45;&gt;v18</title>
<path fill="none" stroke="green" d="M117.136,-64.6329C210.427,-58.6442 403.144,-44.6031 565,-22 571.955,-21.0287 579.384,-19.7682 586.412,-18.4713"/>
</g>
<!-- v20 -->
<g id="v20_SmartLight" class="node"><title>v20</title>
<ellipse fill="none" stroke="black" cx="722" cy="-11" rx="43" ry="11"/>
<text text-anchor="middle" x="722" y="-8.8" font-family="sans-serif" font-size="9.00">SmartLight</text>
</g>
<!-- v1&#45;&gt;v20 -->
<g id="edge27" class="edge"><title>v1&#45;&gt;v20</title>
<path fill="none" stroke="green" d="M117.172,-64.5847C246.829,-56.5671 563.982,-36.1506 670,-22 676.743,-21.1 683.933,-19.8847 690.748,-18.6116"/>
</g>
<!-- v21 -->
<g id="v21_Workstation" class="node"><title>v21</title>
<ellipse fill="none" stroke="black" cx="830" cy="-11" rx="47" ry="11"/>
<text text-anchor="middle" x="830" y="-8.8" font-family="sans-serif" font-size="9.00">Workstation</text>
</g>
<!-- v1&#45;&gt;v21 -->
<g id="edge28" class="edge"><title>v1&#45;&gt;v21</title>
<path fill="none" stroke="green" d="M118.253,-65.1393C264.17,-57.7144 647.395,-37.3389 774,-22 781.157,-21.1329 788.786,-19.9471 796.036,-18.695"/>
</g>
<!-- v9 -->
<g id="v9_ConnectDevice" class="node"><title>v9</title>
<ellipse fill="none" stroke="black" cx="949" cy="-11" rx="54" ry="11"/>
<text text-anchor="middle" x="949" y="-8.8" font-family="sans-serif" font-size="9.00">ConnectDevice</text>
</g>
<!-- v3&#45;&gt;v9 -->
<g id="edge6" class="edge"><title>v3&#45;&gt;v9</title>
<path fill="none" stroke="black" d="M1081.96,-59.1266C1054,-49.2142 1008.75,-33.1758 978.932,-22.6086"/>
<polygon fill="black" stroke="black" points="973.918,-20.8319 979.383,-20.3815 976.275,-21.6671 978.631,-22.5023 978.631,-22.5023 978.631,-22.5023 976.275,-21.6671 977.88,-24.623 973.918,-20.8319 973.918,-20.8319"/>
</g>
<!-- v14 -->
<g id="v14_ExitRoom" class="node"><title>v14</title>
<ellipse fill="none" stroke="black" cx="1057" cy="-11" rx="36" ry="11"/>
<text text-anchor="middle" x="1057" y="-8.8" font-family="sans-serif" font-size="9.00">ExitRoom</text>
</g>
<!-- v3&#45;&gt;v14 -->
<g id="edge7" class="edge"><title>v3&#45;&gt;v14</title>
<path fill="none" stroke="black" d="M1098.06,-57.9883C1090.03,-48.9897 1078.15,-35.6926 1069.24,-25.7082"/>
<polygon fill="black" stroke="black" points="1065.86,-21.925 1070.87,-24.1562 1067.53,-23.7899 1069.19,-25.6547 1069.19,-25.6547 1069.19,-25.6547 1067.53,-23.7899 1067.51,-27.1533 1065.86,-21.925 1065.86,-21.925"/>
</g>
<!-- v15 -->
<g id="v15_CollectData" class="node"><title>v15</title>
<ellipse fill="none" stroke="black" cx="1158" cy="-11" rx="47" ry="11"/>
<text text-anchor="middle" x="1158" y="-8.8" font-family="sans-serif" font-size="9.00">CollectData</text>
</g>
<!-- v3&#45;&gt;v15 -->
<g id="edge8" class="edge"><title>v3&#45;&gt;v15</title>
<path fill="none" stroke="black" d="M1116.12,-57.9883C1124.31,-48.9897 1136.42,-35.6926 1145.52,-25.7082"/>
<polygon fill="black" stroke="black" points="1148.96,-21.925 1147.26,-27.1367 1147.28,-23.7734 1145.59,-25.6217 1145.59,-25.6217 1145.59,-25.6217 1147.28,-23.7734 1143.93,-24.1067 1148.96,-21.925 1148.96,-21.925"/>
</g>
<!-- v16 -->
<g id="v16_SendSoftware" class="node"><title>v16</title>
<ellipse fill="none" stroke="black" cx="1274" cy="-11" rx="50.5" ry="11"/>
<text text-anchor="middle" x="1274" y="-8.8" font-family="sans-serif" font-size="9.00">SendSoftware</text>
</g>
<!-- v3&#45;&gt;v16 -->
<g id="edge9" class="edge"><title>v3&#45;&gt;v16</title>
<path fill="none" stroke="black" d="M1133.09,-59.25C1162.96,-49.2345 1211.82,-32.8502 1243.44,-22.247"/>
<polygon fill="black" stroke="black" points="1248.36,-20.5967 1244.34,-24.3197 1245.99,-21.3916 1243.62,-22.1864 1243.62,-22.1864 1243.62,-22.1864 1245.99,-21.3916 1242.91,-20.0532 1248.36,-20.5967 1248.36,-20.5967"/>
</g>
<!-- v5 -->
<g id="v5_Room" class="node"><title>v5</title>
<ellipse fill="none" stroke="black" cx="396" cy="-185" rx="21.5" ry="11"/>
<text text-anchor="middle" x="396" y="-182.8" font-family="sans-serif" font-size="9.00">Room</text>
</g>
<!-- v4&#45;&gt;v5 -->
<g id="edge10" class="edge"><title>v4&#45;&gt;v5</title>
<path fill="none" stroke="black" d="M507.266,-234.679C483.887,-224.451 441.495,-205.904 416.328,-194.894"/>
<polygon fill="black" stroke="black" points="411.535,-192.797 417.018,-192.74 413.826,-193.799 416.116,-194.801 416.116,-194.801 416.116,-194.801 413.826,-193.799 415.214,-196.862 411.535,-192.797 411.535,-192.797"/>
</g>
<!-- v10 -->
<g id="v10_Hallway" class="node"><title>v10</title>
<ellipse fill="none" stroke="black" cx="524" cy="-11" rx="32.5" ry="11"/>
<text text-anchor="middle" x="524" y="-8.8" font-family="sans-serif" font-size="9.00">Hallway</text>
</g>
<!-- v4&#45;&gt;v10 -->
<g id="edge11" class="edge"><title>v4&#45;&gt;v10</title>
<path fill="none" stroke="black" d="M524,-231.82C524,-195.304 524,-70.7575 524,-27.194"/>
<polygon fill="black" stroke="black" points="524,-22.062 526.25,-27.062 524,-24.562 524,-27.062 524,-27.062 524,-27.062 524,-24.562 521.75,-27.0621 524,-22.062 524,-22.062"/>
</g>
<!-- v17 -->
<g id="v17_Room" class="node"><title>v17</title>
<ellipse fill="none" stroke="black" cx="596" cy="-69" rx="21.5" ry="11"/>
<text text-anchor="middle" x="596" y="-66.8" font-family="sans-serif" font-size="9.00">Room</text>
</g>
<!-- v4&#45;&gt;v17 -->
<g id="edge12" class="edge"><title>v4&#45;&gt;v17</title>
<path fill="none" stroke="black" d="M528.182,-232.009C540.311,-203.034 575.544,-118.867 589.852,-84.6863"/>
<polygon fill="black" stroke="black" points="591.806,-80.0185 591.951,-85.4995 590.841,-82.3246 589.875,-84.6307 589.875,-84.6307 589.875,-84.6307 590.841,-82.3246 587.8,-83.7618 591.806,-80.0185 591.806,-80.0185"/>
</g>
<!-- v19 -->
<g id="v19_Room" class="node"><title>v19</title>
<ellipse fill="none" stroke="black" cx="722" cy="-69" rx="21.5" ry="11"/>
<text text-anchor="middle" x="722" y="-66.8" font-family="sans-serif" font-size="9.00">Room</text>
</g>
<!-- v4&#45;&gt;v19 -->
<g id="edge13" class="edge"><title>v4&#45;&gt;v19</title>
<path fill="none" stroke="black" d="M534.645,-232.753C567.971,-203.803 670.308,-114.904 707.932,-82.2209"/>
<polygon fill="black" stroke="black" points="711.78,-78.8778 709.481,-83.8555 709.893,-80.5173 708.006,-82.1568 708.006,-82.1568 708.006,-82.1568 709.893,-80.5173 706.53,-80.4582 711.78,-78.8778 711.78,-78.8778"/>
</g>
<!-- v6 -->
<g id="v6_Visitor" class="node"><title>v6</title>
<ellipse fill="none" stroke="black" cx="211" cy="-127" rx="32.5" ry="11"/>
<text text-anchor="middle" x="211" y="-124.8" font-family="sans-serif" font-size="9.00">Visitor</text>
</g>
<!-- v5&#45;&gt;v6 -->
<g id="edge14" class="edge"><title>v5&#45;&gt;v6</title>
<path fill="none" stroke="black" d="M378.261,-178.63C345.978,-168.858 277.405,-148.101 238.838,-136.427"/>
<polygon fill="black" stroke="black" points="233.831,-134.911 239.268,-134.206 236.224,-135.635 238.617,-136.36 238.617,-136.36 238.617,-136.36 236.224,-135.635 237.965,-138.513 233.831,-134.911 233.831,-134.911"/>
</g>
<!-- v5&#45;&gt;v8 -->
<g id="edge15" class="edge"><title>v5&#45;&gt;v8</title>
<path fill="none" stroke="black" d="M374.832,-182.73C324.006,-179.228 197.195,-167.649 169,-138 140.251,-107.768 143.548,-53.7006 147.278,-27.3215"/>
<polygon fill="black" stroke="black" points="148.069,-22.1312 149.54,-27.4132 147.692,-24.6027 147.315,-27.0741 147.315,-27.0741 147.315,-27.0741 147.692,-24.6027 145.091,-26.735 148.069,-22.1312 148.069,-22.1312"/>
</g>
<!-- v5&#45;&gt;v10 -->
<g id="edge29" class="edge"><title>v5&#45;&gt;v10</title>
<path fill="none" stroke="green" d="M376.472,-180.186C340.192,-172.172 268.069,-151.346 291,-116 315.41,-78.3727 446.992,-35.1996 500.923,-18.7979"/>
</g>
<!-- v5&#45;&gt;v12 -->
<g id="edge16" class="edge"><title>v5&#45;&gt;v12</title>
<path fill="none" stroke="black" d="M393.618,-174.009C386.74,-145.153 366.813,-61.5561 358.602,-27.1091"/>
<polygon fill="black" stroke="black" points="357.388,-22.0185 360.736,-26.3605 357.968,-24.4503 358.548,-26.8822 358.548,-26.8822 358.548,-26.8822 357.968,-24.4503 356.359,-27.404 357.388,-22.0185 357.388,-22.0185"/>
</g>
<!-- v5&#45;&gt;v13 -->
<g id="edge17" class="edge"><title>v5&#45;&gt;v13</title>
<path fill="none" stroke="black" d="M399.43,-173.856C402.48,-164.593 406.921,-150.482 410,-138 419.767,-98.4027 427.843,-50.9724 431.648,-27.184"/>
<polygon fill="black" stroke="black" points="432.437,-22.206 433.877,-27.4966 432.046,-24.6752 431.654,-27.1443 431.654,-27.1443 431.654,-27.1443 432.046,-24.6752 429.432,-26.7921 432.437,-22.206 432.437,-22.206"/>
</g>
<!-- v6&#45;&gt;v7 -->
<g id="edge18" class="edge"><title>v6&#45;&gt;v7</title>
<path fill="none" stroke="black" d="M225.46,-117.003C240.903,-107.394 265.43,-92.1324 282.324,-81.6206"/>
<polygon fill="black" stroke="black" points="286.873,-78.7904 283.816,-83.3423 284.75,-80.1112 282.627,-81.432 282.627,-81.432 282.627,-81.432 284.75,-80.1112 281.439,-79.5216 286.873,-78.7904 286.873,-78.7904"/>
</g>
<!-- v11 -->
<g id="v11_Software" class="node"><title>v11</title>
<ellipse fill="none" stroke="black" cx="279" cy="-11" rx="36" ry="11"/>
<text text-anchor="middle" x="279" y="-8.8" font-family="sans-serif" font-size="9.00">Software</text>
</g>
<!-- v7&#45;&gt;v11 -->
<g id="edge19" class="edge"><title>v7&#45;&gt;v11</title>
<path fill="none" stroke="black" d="M297.067,-57.9883C293.699,-49.4154 288.798,-36.9411 284.95,-27.1466"/>
<polygon fill="black" stroke="black" points="283.048,-22.3039 286.97,-26.1349 283.962,-24.6308 284.876,-26.9576 284.876,-26.9576 284.876,-26.9576 283.962,-24.6308 282.782,-27.7804 283.048,-22.3039 283.048,-22.3039"/>
</g>
<!-- v10&#45;&gt;v17 -->
<g id="edge31" class="edge"><title>v10&#45;&gt;v17</title>
<path fill="none" stroke="green" d="M536.001,-21.3337C549.679,-31.9725 571.847,-49.2141 585.065,-59.4948"/>
</g>
<!-- v10&#45;&gt;v19 -->
<g id="edge32" class="edge"><title>v10&#45;&gt;v19</title>
<path fill="none" stroke="green" d="M547.687,-18.6993C587.676,-30.0094 667.731,-52.6512 703.728,-62.832"/>
</g>
<!-- v17&#45;&gt;v18 -->
<g id="edge20" class="edge"><title>v17&#45;&gt;v18</title>
<path fill="none" stroke="black" d="M599.933,-57.9883C603.301,-49.4154 608.202,-36.9411 612.05,-27.1466"/>
<polygon fill="black" stroke="black" points="613.952,-22.3039 614.218,-27.7804 613.038,-24.6308 612.124,-26.9576 612.124,-26.9576 612.124,-26.9576 613.038,-24.6308 610.03,-26.1349 613.952,-22.3039 613.952,-22.3039"/>
</g>
<!-- v19&#45;&gt;v20 -->
<g id="edge21" class="edge"><title>v19&#45;&gt;v20</title>
<path fill="none" stroke="black" d="M722,-57.9883C722,-49.4941 722,-37.1697 722,-27.4169"/>
<polygon fill="black" stroke="black" points="722,-22.3039 724.25,-27.3038 722,-24.8039 722,-27.3039 722,-27.3039 722,-27.3039 722,-24.8039 719.75,-27.3039 722,-22.3039 722,-22.3039"/>
</g>
<!-- v19&#45;&gt;v21 -->
<g id="edge22" class="edge"><title>v19&#45;&gt;v21</title>
<path fill="none" stroke="black" d="M736.119,-60.679C754.192,-51.3076 785.732,-34.9536 807.222,-23.8106"/>
<polygon fill="black" stroke="black" points="811.916,-21.3771 808.513,-25.6762 809.696,-22.5279 807.477,-23.6787 807.477,-23.6787 807.477,-23.6787 809.696,-22.5279 806.441,-21.6813 811.916,-21.3771 811.916,-21.3771"/>
</g>
</g>
</svg>
