<?xml version="1.0" encoding="UTF-8" standalone="no"?>
<?xml-stylesheet href="style.css" type="text/css"?>
<!DOCTYPE svg PUBLIC "-//W3C//DTD SVG 1.1//EN"
 "http://www.w3.org/Graphics/SVG/1.1/DTD/svg11.dtd">
<!-- Generated by graphviz version 2.38.0 (20140413.2041)
 -->
<!-- Title: 25.svg Pages: 1 -->
<svg width="1280pt" height="374pt"
 viewBox="0.00 0.00 1279.50 374.00" xmlns="http://www.w3.org/2000/svg" xmlns:xlink="http://www.w3.org/1999/xlink">
<g id="graph0" class="graph" transform="scale(1 1) rotate(0) translate(4 370)">
<title>25.svg</title>
<polygon fill="white" stroke="none" points="-4,4 -4,-370 1275.5,-370 1275.5,4 -4,4"/>
<!-- r0 -->
<g id="node1" class="node"><title>r0</title>
<polygon fill="none" stroke="black" stroke-dasharray="5,2" points="186.5,-366 163.5,-366 163.5,-348 186.5,-348 186.5,-366"/>
<text text-anchor="middle" x="175" y="-354.8" font-family="serif" font-size="9.00">0</text>
</g>
<!-- v0 -->
<g id="v0_Building" class="node"><title>v0</title>
<ellipse fill="none" stroke="black" cx="175" cy="-301" rx="36" ry="11"/>
<text text-anchor="middle" x="175" y="-298.8" font-family="sans-serif" font-size="9.00">Building</text>
</g>
<!-- r0&#45;&gt;v0 -->
<g id="edge1" class="edge"><title>r0&#45;&gt;v0</title>
<path fill="none" stroke="black" d="M175,-347.562C175,-339.453 175,-327.014 175,-317.181"/>
<polygon fill="black" stroke="black" points="175,-312.03 177.25,-317.03 175,-314.53 175,-317.03 175,-317.03 175,-317.03 175,-314.53 172.75,-317.03 175,-312.03 175,-312.03"/>
</g>
<!-- r1 -->
<g id="node2" class="node"><title>r1</title>
<polygon fill="none" stroke="black" stroke-dasharray="5,2" points="1065.5,-366 1042.5,-366 1042.5,-348 1065.5,-348 1065.5,-366"/>
<text text-anchor="middle" x="1054" y="-354.8" font-family="serif" font-size="9.00">1</text>
</g>
<!-- v3 -->
<g id="v3_RulesKeywords" class="node"><title>v3</title>
<ellipse fill="none" stroke="black" cx="1054" cy="-69" rx="54" ry="11"/>
<text text-anchor="middle" x="1054" y="-66.8" font-family="sans-serif" font-size="9.00">RulesKeywords</text>
</g>
<!-- r1&#45;&gt;v3 -->
<g id="edge2" class="edge"><title>r1&#45;&gt;v3</title>
<path fill="none" stroke="black" d="M1054,-347.849C1054,-329.373 1054,-282.889 1054,-244 1054,-244 1054,-244 1054,-184 1054,-148.604 1054,-107.026 1054,-85.1783"/>
<polygon fill="black" stroke="black" points="1054,-80.0648 1056.25,-85.0648 1054,-82.5648 1054,-85.0648 1054,-85.0648 1054,-85.0648 1054,-82.5648 1051.75,-85.0648 1054,-80.0648 1054,-80.0648"/>
</g>
<!-- e7 -->
<g id="node3" class="node"><title>e7</title>
</g>
<!-- v7 -->
<g id="v7_Laptop" class="node"><title>v7</title>
<ellipse fill="none" stroke="black" cx="669" cy="-69" rx="29" ry="11"/>
<text text-anchor="middle" x="669" y="-66.8" font-family="sans-serif" font-size="9.00">Laptop</text>
</g>
<!-- e7&#45;&gt;v7 -->
<g id="edge30" class="edge"><title>e7&#45;&gt;v7</title>
<path fill="none" stroke="green" d="M669,-122.167C669,-113.586 669,-92.5957 669,-80.0117"/>
<polygon fill="green" stroke="green" points="672.5,-125.3 665.5,-125.3 665.5,-123.9 672.5,-123.9 672.5,-125.3"/>
<polyline fill="none" stroke="green" points="669,-126 669,-122.5 "/>
</g>
<!-- v1 -->
<g id="v1_InstallationBus" class="node"><title>v1</title>
<ellipse fill="none" stroke="black" cx="61" cy="-69" rx="61" ry="11"/>
<text text-anchor="middle" x="61" y="-66.8" font-family="sans-serif" font-size="9.00">InstallationBus</text>
</g>
<!-- v0&#45;&gt;v1 -->
<g id="edge3" class="edge"><title>v0&#45;&gt;v1</title>
<path fill="none" stroke="black" d="M169.954,-289.82C151.781,-253.155 89.6197,-127.741 68.2691,-84.6657"/>
<polygon fill="black" stroke="black" points="65.9873,-80.062 70.2238,-83.5427 67.0975,-82.302 68.2078,-84.5419 68.2078,-84.5419 68.2078,-84.5419 67.0975,-82.302 66.1918,-85.5412 65.9873,-80.062 65.9873,-80.062"/>
</g>
<!-- v4 -->
<g id="v4_Floor" class="node"><title>v4</title>
<ellipse fill="none" stroke="black" cx="263" cy="-243" rx="25" ry="11"/>
<text text-anchor="middle" x="263" y="-240.8" font-family="sans-serif" font-size="9.00">Floor</text>
</g>
<!-- v0&#45;&gt;v4 -->
<g id="edge4" class="edge"><title>v0&#45;&gt;v4</title>
<path fill="none" stroke="black" d="M189.531,-290.753C204.792,-281.041 228.806,-265.76 245.195,-255.33"/>
<polygon fill="black" stroke="black" points="249.602,-252.526 246.591,-257.109 247.493,-253.868 245.383,-255.211 245.383,-255.211 245.383,-255.211 247.493,-253.868 244.175,-253.312 249.602,-252.526 249.602,-252.526"/>
</g>
<!-- v2 -->
<g id="v2_Data" class="node"><title>v2</title>
<ellipse fill="none" stroke="black" cx="40" cy="-11" rx="21.5" ry="11"/>
<text text-anchor="middle" x="40" y="-8.8" font-family="sans-serif" font-size="9.00">Data</text>
</g>
<!-- v1&#45;&gt;v2 -->
<g id="edge5" class="edge"><title>v1&#45;&gt;v2</title>
<path fill="none" stroke="black" d="M57.2456,-57.9883C53.9906,-49.3083 49.2357,-36.6286 45.5427,-26.7806"/>
<polygon fill="black" stroke="black" points="43.7219,-21.925 47.5843,-25.8166 44.5997,-24.2658 45.4776,-26.6067 45.4776,-26.6067 45.4776,-26.6067 44.5997,-24.2658 43.3708,-27.3967 43.7219,-21.925 43.7219,-21.925"/>
</g>
<!-- v8 -->
<g id="v8_SmartLight" class="node"><title>v8</title>
<ellipse fill="none" stroke="black" cx="781" cy="-11" rx="43" ry="11"/>
<text text-anchor="middle" x="781" y="-8.8" font-family="sans-serif" font-size="9.00">SmartLight</text>
</g>
<!-- v1&#45;&gt;v8 -->
<g id="edge23" class="edge"><title>v1&#45;&gt;v8</title>
<path fill="none" stroke="green" d="M116.805,-64.4333C265.28,-54.8987 662.746,-29.066 722,-22 730.459,-20.9913 739.553,-19.6027 748.006,-18.1812"/>
</g>
<!-- v16 -->
<g id="v16_SmartLight" class="node"><title>v16</title>
<ellipse fill="none" stroke="black" cx="364" cy="-11" rx="43" ry="11"/>
<text text-anchor="middle" x="364" y="-8.8" font-family="sans-serif" font-size="9.00">SmartLight</text>
</g>
<!-- v1&#45;&gt;v16 -->
<g id="edge24" class="edge"><title>v1&#45;&gt;v16</title>
<path fill="none" stroke="green" d="M101.279,-60.6466C150.696,-51.6116 237.029,-35.7836 311,-22 317.536,-20.7821 324.523,-19.4706 331.208,-18.2111"/>
</g>
<!-- v17 -->
<g id="v17_HVAC" class="node"><title>v17</title>
<ellipse fill="none" stroke="black" cx="184" cy="-11" rx="21.5" ry="11"/>
<text text-anchor="middle" x="184" y="-8.8" font-family="sans-serif" font-size="9.00">HVAC</text>
</g>
<!-- v1&#45;&gt;v17 -->
<g id="edge25" class="edge"><title>v1&#45;&gt;v17</title>
<path fill="none" stroke="green" d="M81.5874,-58.6269C106.207,-47.4178 146.837,-28.9198 168.791,-18.9246"/>
</g>
<!-- v18 -->
<g id="v18_FireAlarm" class="node"><title>v18</title>
<ellipse fill="none" stroke="black" cx="263" cy="-11" rx="39.5" ry="11"/>
<text text-anchor="middle" x="263" y="-8.8" font-family="sans-serif" font-size="9.00">FireAlarm</text>
</g>
<!-- v1&#45;&gt;v18 -->
<g id="edge26" class="edge"><title>v1&#45;&gt;v18</title>
<path fill="none" stroke="green" d="M92.1198,-59.3727C131.739,-48.3891 199.498,-29.6045 236.675,-19.2981"/>
</g>
<!-- v20 -->
<g id="v20_SmartLight" class="node"><title>v20</title>
<ellipse fill="none" stroke="black" cx="580" cy="-11" rx="43" ry="11"/>
<text text-anchor="middle" x="580" y="-8.8" font-family="sans-serif" font-size="9.00">SmartLight</text>
</g>
<!-- v1&#45;&gt;v20 -->
<g id="edge27" class="edge"><title>v1&#45;&gt;v20</title>
<path fill="none" stroke="green" d="M116.195,-64.2125C203.78,-57.8321 379.852,-43.495 528,-22 534.641,-21.0364 541.724,-19.8092 548.455,-18.5471"/>
</g>
<!-- v21 -->
<g id="v21_Workstation" class="node"><title>v21</title>
<ellipse fill="none" stroke="black" cx="472" cy="-11" rx="47" ry="11"/>
<text text-anchor="middle" x="472" y="-8.8" font-family="sans-serif" font-size="9.00">Workstation</text>
</g>
<!-- v1&#45;&gt;v21 -->
<g id="edge28" class="edge"><title>v1&#45;&gt;v21</title>
<path fill="none" stroke="green" d="M109.914,-62.4124C178.471,-54.4103 306.974,-38.7883 416,-22 422.93,-20.9328 430.324,-19.6884 437.391,-18.4472"/>
</g>
<!-- v9 -->
<g id="v9_ConnectDevice" class="node"><title>v9</title>
<ellipse fill="none" stroke="black" cx="896" cy="-11" rx="54" ry="11"/>
<text text-anchor="middle" x="896" y="-8.8" font-family="sans-serif" font-size="9.00">ConnectDevice</text>
</g>
<!-- v3&#45;&gt;v9 -->
<g id="edge6" class="edge"><title>v3&#45;&gt;v9</title>
<path fill="none" stroke="black" d="M1028.96,-59.1266C1001,-49.2142 955.746,-33.1758 925.932,-22.6086"/>
<polygon fill="black" stroke="black" points="920.918,-20.8319 926.383,-20.3815 923.275,-21.6671 925.631,-22.5023 925.631,-22.5023 925.631,-22.5023 923.275,-21.6671 924.88,-24.623 920.918,-20.8319 920.918,-20.8319"/>
</g>
<!-- v12 -->
<g id="v12_ExitRoom" class="node"><title>v12</title>
<ellipse fill="none" stroke="black" cx="1004" cy="-11" rx="36" ry="11"/>
<text text-anchor="middle" x="1004" y="-8.8" font-family="sans-serif" font-size="9.00">ExitRoom</text>
</g>
<!-- v3&#45;&gt;v12 -->
<g id="edge7" class="edge"><title>v3&#45;&gt;v12</title>
<path fill="none" stroke="black" d="M1045.06,-57.9883C1037.03,-48.9897 1025.15,-35.6926 1016.24,-25.7082"/>
<polygon fill="black" stroke="black" points="1012.86,-21.925 1017.87,-24.1562 1014.53,-23.7899 1016.19,-25.6547 1016.19,-25.6547 1016.19,-25.6547 1014.53,-23.7899 1014.51,-27.1533 1012.86,-21.925 1012.86,-21.925"/>
</g>
<!-- v13 -->
<g id="v13_CollectData" class="node"><title>v13</title>
<ellipse fill="none" stroke="black" cx="1105" cy="-11" rx="47" ry="11"/>
<text text-anchor="middle" x="1105" y="-8.8" font-family="sans-serif" font-size="9.00">CollectData</text>
</g>
<!-- v3&#45;&gt;v13 -->
<g id="edge8" class="edge"><title>v3&#45;&gt;v13</title>
<path fill="none" stroke="black" d="M1063.12,-57.9883C1071.31,-48.9897 1083.42,-35.6926 1092.52,-25.7082"/>
<polygon fill="black" stroke="black" points="1095.96,-21.925 1094.26,-27.1367 1094.28,-23.7734 1092.59,-25.6217 1092.59,-25.6217 1092.59,-25.6217 1094.28,-23.7734 1090.93,-24.1067 1095.96,-21.925 1095.96,-21.925"/>
</g>
<!-- v14 -->
<g id="v14_SendSoftware" class="node"><title>v14</title>
<ellipse fill="none" stroke="black" cx="1221" cy="-11" rx="50.5" ry="11"/>
<text text-anchor="middle" x="1221" y="-8.8" font-family="sans-serif" font-size="9.00">SendSoftware</text>
</g>
<!-- v3&#45;&gt;v14 -->
<g id="edge9" class="edge"><title>v3&#45;&gt;v14</title>
<path fill="none" stroke="black" d="M1080.09,-59.25C1109.96,-49.2345 1158.82,-32.8502 1190.44,-22.247"/>
<polygon fill="black" stroke="black" points="1195.36,-20.5967 1191.34,-24.3197 1192.99,-21.3916 1190.62,-22.1864 1190.62,-22.1864 1190.62,-22.1864 1192.99,-21.3916 1189.91,-20.0532 1195.36,-20.5967 1195.36,-20.5967"/>
</g>
<!-- v5 -->
<g id="v5_Room" class="node"><title>v5</title>
<ellipse fill="none" stroke="black" cx="720" cy="-185" rx="21.5" ry="11"/>
<text text-anchor="middle" x="720" y="-182.8" font-family="sans-serif" font-size="9.00">Room</text>
</g>
<!-- v4&#45;&gt;v5 -->
<g id="edge10" class="edge"><title>v4&#45;&gt;v5</title>
<path fill="none" stroke="black" d="M286.608,-239.107C364.586,-229.552 613.53,-199.047 694.376,-189.14"/>
<polygon fill="black" stroke="black" points="699.455,-188.518 694.766,-191.359 696.973,-188.822 694.492,-189.126 694.492,-189.126 694.492,-189.126 696.973,-188.822 694.218,-186.893 699.455,-188.518 699.455,-188.518"/>
</g>
<!-- v10 -->
<g id="v10_Hallway" class="node"><title>v10</title>
<ellipse fill="none" stroke="black" cx="112" cy="-11" rx="32.5" ry="11"/>
<text text-anchor="middle" x="112" y="-8.8" font-family="sans-serif" font-size="9.00">Hallway</text>
</g>
<!-- v4&#45;&gt;v10 -->
<g id="edge11" class="edge"><title>v4&#45;&gt;v10</title>
<path fill="none" stroke="black" d="M256.512,-232.117C232.601,-195.698 149.35,-68.8904 121.304,-26.1722"/>
<polygon fill="black" stroke="black" points="118.464,-21.846 123.089,-24.7909 119.836,-23.9359 121.208,-26.0257 121.208,-26.0257 121.208,-26.0257 119.836,-23.9359 119.327,-27.2606 118.464,-21.846 118.464,-21.846"/>
</g>
<!-- v15 -->
<g id="v15_Room" class="node"><title>v15</title>
<ellipse fill="none" stroke="black" cx="263" cy="-69" rx="21.5" ry="11"/>
<text text-anchor="middle" x="263" y="-66.8" font-family="sans-serif" font-size="9.00">Room</text>
</g>
<!-- v4&#45;&gt;v15 -->
<g id="edge12" class="edge"><title>v4&#45;&gt;v15</title>
<path fill="none" stroke="black" d="M263,-231.756C263,-202.786 263,-120.136 263,-85.5335"/>
<polygon fill="black" stroke="black" points="263,-80.4081 265.25,-85.408 263,-82.9081 263,-85.4081 263,-85.4081 263,-85.4081 263,-82.9081 260.75,-85.4081 263,-80.4081 263,-80.4081"/>
</g>
<!-- v19 -->
<g id="v19_Room" class="node"><title>v19</title>
<ellipse fill="none" stroke="black" cx="472" cy="-69" rx="21.5" ry="11"/>
<text text-anchor="middle" x="472" y="-66.8" font-family="sans-serif" font-size="9.00">Room</text>
</g>
<!-- v4&#45;&gt;v19 -->
<g id="edge13" class="edge"><title>v4&#45;&gt;v19</title>
<path fill="none" stroke="black" d="M273.942,-232.995C308.87,-204.251 417.714,-114.675 457.364,-82.0451"/>
<polygon fill="black" stroke="black" points="461.415,-78.7108 458.984,-83.6254 459.485,-80.2994 457.555,-81.888 457.555,-81.888 457.555,-81.888 459.485,-80.2994 456.125,-80.1507 461.415,-78.7108 461.415,-78.7108"/>
</g>
<!-- v6 -->
<g id="v6_Visitor" class="node"><title>v6</title>
<ellipse fill="none" stroke="black" cx="720" cy="-127" rx="32.5" ry="11"/>
<text text-anchor="middle" x="720" y="-124.8" font-family="sans-serif" font-size="9.00">Visitor</text>
</g>
<!-- v5&#45;&gt;v6 -->
<g id="edge14" class="edge"><title>v5&#45;&gt;v6</title>
<path fill="none" stroke="black" d="M720,-173.988C720,-165.494 720,-153.17 720,-143.417"/>
<polygon fill="black" stroke="black" points="720,-138.304 722.25,-143.304 720,-140.804 720,-143.304 720,-143.304 720,-143.304 720,-140.804 717.75,-143.304 720,-138.304 720,-138.304"/>
</g>
<!-- v5&#45;&gt;v8 -->
<g id="edge15" class="edge"><title>v5&#45;&gt;v8</title>
<path fill="none" stroke="black" d="M730.608,-175.33C740.19,-166.863 753.851,-153.08 761,-138 778.554,-100.973 781.181,-51.6572 781.289,-27.1526"/>
<polygon fill="black" stroke="black" points="781.275,-22.0346 783.538,-27.0286 781.282,-24.5346 781.289,-27.0346 781.289,-27.0346 781.289,-27.0346 781.282,-24.5346 779.039,-27.0406 781.275,-22.0346 781.275,-22.0346"/>
</g>
<!-- v5&#45;&gt;v10 -->
<g id="edge29" class="edge"><title>v5&#45;&gt;v10</title>
<path fill="none" stroke="green" d="M702.171,-178.474C643.721,-160.415 452.505,-101.785 293,-58 263.532,-49.9108 179.326,-28.794 136.969,-18.2205"/>
</g>
<!-- v6&#45;&gt;v7 -->
<g id="edge16" class="edge"><title>v6&#45;&gt;v7</title>
<path fill="none" stroke="black" d="M711.116,-116.246C702.853,-107.172 690.465,-93.5697 681.262,-83.4636"/>
<polygon fill="black" stroke="black" points="677.782,-79.6427 682.812,-81.8244 679.465,-81.491 681.148,-83.3394 681.148,-83.3394 681.148,-83.3394 679.465,-81.491 679.485,-84.8544 677.782,-79.6427 677.782,-79.6427"/>
</g>
<!-- v11 -->
<g id="v11_Software" class="node"><title>v11</title>
<ellipse fill="none" stroke="black" cx="677" cy="-11" rx="36" ry="11"/>
<text text-anchor="middle" x="677" y="-8.8" font-family="sans-serif" font-size="9.00">Software</text>
</g>
<!-- v7&#45;&gt;v11 -->
<g id="edge17" class="edge"><title>v7&#45;&gt;v11</title>
<path fill="none" stroke="black" d="M670.43,-57.9883C671.644,-49.4941 673.404,-37.1697 674.798,-27.4169"/>
<polygon fill="black" stroke="black" points="675.528,-22.3039 677.048,-27.5719 675.174,-24.7787 674.821,-27.2536 674.821,-27.2536 674.821,-27.2536 675.174,-24.7787 672.593,-26.9354 675.528,-22.3039 675.528,-22.3039"/>
</g>
<!-- v10&#45;&gt;v15 -->
<g id="edge31" class="edge"><title>v10&#45;&gt;v15</title>
<path fill="none" stroke="green" d="M132.504,-19.6041C162.769,-30.8283 218.806,-51.6102 246.553,-61.9004"/>
</g>
<!-- v10&#45;&gt;v19 -->
<g id="edge32" class="edge"><title>v10&#45;&gt;v19</title>
<path fill="none" stroke="green" d="M136.632,-18.4139C142.006,-19.6992 147.677,-20.9695 153,-22 264.792,-43.6417 400.429,-59.9439 451.359,-65.7202"/>
</g>
<!-- v15&#45;&gt;v16 -->
<g id="edge18" class="edge"><title>v15&#45;&gt;v16</title>
<path fill="none" stroke="black" d="M276.621,-60.4476C293.57,-51.0504 322.704,-34.8967 342.635,-23.8458"/>
<polygon fill="black" stroke="black" points="347.24,-21.2924 343.959,-25.6848 345.054,-22.5047 342.868,-23.717 342.868,-23.717 342.868,-23.717 345.054,-22.5047 341.777,-21.7492 347.24,-21.2924 347.24,-21.2924"/>
</g>
<!-- v15&#45;&gt;v17 -->
<g id="edge19" class="edge"><title>v15&#45;&gt;v17</title>
<path fill="none" stroke="black" d="M251.343,-59.737C237.691,-50.0592 215.009,-33.9808 199.786,-23.1904"/>
<polygon fill="black" stroke="black" points="195.705,-20.2969 201.085,-21.3528 197.744,-21.7427 199.784,-23.1885 199.784,-23.1885 199.784,-23.1885 197.744,-21.7427 198.482,-25.0241 195.705,-20.2969 195.705,-20.2969"/>
</g>
<!-- v15&#45;&gt;v18 -->
<g id="edge20" class="edge"><title>v15&#45;&gt;v18</title>
<path fill="none" stroke="black" d="M263,-57.9883C263,-49.4941 263,-37.1697 263,-27.4169"/>
<polygon fill="black" stroke="black" points="263,-22.3039 265.25,-27.3038 263,-24.8039 263,-27.3039 263,-27.3039 263,-27.3039 263,-24.8039 260.75,-27.3039 263,-22.3039 263,-22.3039"/>
</g>
<!-- v19&#45;&gt;v20 -->
<g id="edge21" class="edge"><title>v19&#45;&gt;v20</title>
<path fill="none" stroke="black" d="M486.119,-60.679C504.299,-51.2525 536.104,-34.761 557.601,-23.6145"/>
<polygon fill="black" stroke="black" points="562.291,-21.1826 558.888,-25.4817 560.071,-22.3334 557.852,-23.4842 557.852,-23.4842 557.852,-23.4842 560.071,-22.3334 556.816,-21.4868 562.291,-21.1826 562.291,-21.1826"/>
</g>
<!-- v19&#45;&gt;v21 -->
<g id="edge22" class="edge"><title>v19&#45;&gt;v21</title>
<path fill="none" stroke="black" d="M472,-57.9883C472,-49.4941 472,-37.1697 472,-27.4169"/>
<polygon fill="black" stroke="black" points="472,-22.3039 474.25,-27.3038 472,-24.8039 472,-27.3039 472,-27.3039 472,-27.3039 472,-24.8039 469.75,-27.3039 472,-22.3039 472,-22.3039"/>
</g>
</g>
</svg>
