<?xml version="1.0" encoding="UTF-8" standalone="no"?>
<?xml-stylesheet href="style.css" type="text/css"?>
<!DOCTYPE svg PUBLIC "-//W3C//DTD SVG 1.1//EN"
 "http://www.w3.org/Graphics/SVG/1.1/DTD/svg11.dtd">
<!-- Generated by graphviz version 2.38.0 (20140413.2041)
 -->
<!-- Title: 29.svg Pages: 1 -->
<svg width="1373pt" height="374pt"
 viewBox="0.00 0.00 1372.50 374.00" xmlns="http://www.w3.org/2000/svg" xmlns:xlink="http://www.w3.org/1999/xlink">
<g id="graph0" class="graph" transform="scale(1 1) rotate(0) translate(4 370)">
<title>29.svg</title>
<polygon fill="white" stroke="none" points="-4,4 -4,-370 1368.5,-370 1368.5,4 -4,4"/>
<!-- r0 -->
<g id="node1" class="node"><title>r0</title>
<polygon fill="none" stroke="black" stroke-dasharray="5,2" points="634,-366 611,-366 611,-348 634,-348 634,-366"/>
<text text-anchor="middle" x="622.5" y="-354.8" font-family="serif" font-size="9.00">0</text>
</g>
<!-- v0 -->
<g id="v0_Building" class="node"><title>v0</title>
<ellipse fill="none" stroke="black" cx="622.5" cy="-301" rx="36" ry="11"/>
<text text-anchor="middle" x="622.5" y="-298.8" font-family="sans-serif" font-size="9.00">Building</text>
</g>
<!-- r0&#45;&gt;v0 -->
<g id="edge1" class="edge"><title>r0&#45;&gt;v0</title>
<path fill="none" stroke="black" d="M622.5,-347.562C622.5,-339.453 622.5,-327.014 622.5,-317.181"/>
<polygon fill="black" stroke="black" points="622.5,-312.03 624.75,-317.03 622.5,-314.53 622.5,-317.03 622.5,-317.03 622.5,-317.03 622.5,-314.53 620.25,-317.03 622.5,-312.03 622.5,-312.03"/>
</g>
<!-- r1 -->
<g id="node2" class="node"><title>r1</title>
<polygon fill="none" stroke="black" stroke-dasharray="5,2" points="1160,-366 1137,-366 1137,-348 1160,-348 1160,-366"/>
<text text-anchor="middle" x="1148.5" y="-354.8" font-family="serif" font-size="9.00">1</text>
</g>
<!-- v7 -->
<g id="v7_RulesKeywords" class="node"><title>v7</title>
<ellipse fill="none" stroke="black" cx="1148.5" cy="-69" rx="54" ry="11"/>
<text text-anchor="middle" x="1148.5" y="-66.8" font-family="sans-serif" font-size="9.00">RulesKeywords</text>
</g>
<!-- r1&#45;&gt;v7 -->
<g id="edge2" class="edge"><title>r1&#45;&gt;v7</title>
<path fill="none" stroke="black" d="M1148.5,-347.849C1148.5,-329.373 1148.5,-282.889 1148.5,-244 1148.5,-244 1148.5,-244 1148.5,-184 1148.5,-148.604 1148.5,-107.026 1148.5,-85.1783"/>
<polygon fill="black" stroke="black" points="1148.5,-80.0648 1150.75,-85.0648 1148.5,-82.5648 1148.5,-85.0648 1148.5,-85.0648 1148.5,-85.0648 1148.5,-82.5648 1146.25,-85.0648 1148.5,-80.0648 1148.5,-80.0648"/>
</g>
<!-- e1 -->
<g id="node3" class="node"><title>e1</title>
</g>
<!-- v4 -->
<g id="v4_Laptop" class="node"><title>v4</title>
<ellipse fill="none" stroke="black" cx="470.5" cy="-69" rx="29" ry="11"/>
<text text-anchor="middle" x="470.5" y="-66.8" font-family="sans-serif" font-size="9.00">Laptop</text>
</g>
<!-- e1&#45;&gt;v4 -->
<g id="edge24" class="edge"><title>e1&#45;&gt;v4</title>
<path fill="none" stroke="green" d="M470.5,-122.167C470.5,-113.586 470.5,-92.5957 470.5,-80.0117"/>
<polygon fill="green" stroke="green" points="474,-125.3 467,-125.3 467,-123.9 474,-123.9 474,-125.3"/>
<polyline fill="none" stroke="green" points="470.5,-126 470.5,-122.5 "/>
</g>
<!-- v1 -->
<g id="v1_Floor" class="node"><title>v1</title>
<ellipse fill="none" stroke="black" cx="470.5" cy="-243" rx="25" ry="11"/>
<text text-anchor="middle" x="470.5" y="-240.8" font-family="sans-serif" font-size="9.00">Floor</text>
</g>
<!-- v0&#45;&gt;v1 -->
<g id="edge3" class="edge"><title>v0&#45;&gt;v1</title>
<path fill="none" stroke="black" d="M601.044,-292.095C572.577,-281.607 522.528,-263.168 493.367,-252.425"/>
<polygon fill="black" stroke="black" points="488.524,-250.64 493.993,-250.258 490.87,-251.505 493.216,-252.369 493.216,-252.369 493.216,-252.369 490.87,-251.505 492.438,-254.48 488.524,-250.64 488.524,-250.64"/>
</g>
<!-- v6 -->
<g id="v6_InstallationBus" class="node"><title>v6</title>
<ellipse fill="none" stroke="black" cx="855.5" cy="-11" rx="61" ry="11"/>
<text text-anchor="middle" x="855.5" y="-8.8" font-family="sans-serif" font-size="9.00">InstallationBus</text>
</g>
<!-- v0&#45;&gt;v6 -->
<g id="edge4" class="edge"><title>v0&#45;&gt;v6</title>
<path fill="none" stroke="black" d="M647.083,-292.885C687.968,-279.369 765.5,-245.849 765.5,-186 765.5,-186 765.5,-186 765.5,-126 765.5,-81.1863 808.874,-43.6528 835.4,-24.8887"/>
<polygon fill="black" stroke="black" points="839.823,-21.8228 836.996,-26.5205 837.769,-23.2471 835.714,-24.6713 835.714,-24.6713 835.714,-24.6713 837.769,-23.2471 834.432,-22.8222 839.823,-21.8228 839.823,-21.8228"/>
</g>
<!-- v2 -->
<g id="v2_Room" class="node"><title>v2</title>
<ellipse fill="none" stroke="black" cx="470.5" cy="-185" rx="21.5" ry="11"/>
<text text-anchor="middle" x="470.5" y="-182.8" font-family="sans-serif" font-size="9.00">Room</text>
</g>
<!-- v1&#45;&gt;v2 -->
<g id="edge5" class="edge"><title>v1&#45;&gt;v2</title>
<path fill="none" stroke="black" d="M470.5,-231.988C470.5,-223.494 470.5,-211.17 470.5,-201.417"/>
<polygon fill="black" stroke="black" points="470.5,-196.304 472.75,-201.304 470.5,-198.804 470.5,-201.304 470.5,-201.304 470.5,-201.304 470.5,-198.804 468.25,-201.304 470.5,-196.304 470.5,-196.304"/>
</g>
<!-- v9 -->
<g id="v9_Room" class="node"><title>v9</title>
<ellipse fill="none" stroke="black" cx="171.5" cy="-127" rx="21.5" ry="11"/>
<text text-anchor="middle" x="171.5" y="-124.8" font-family="sans-serif" font-size="9.00">Room</text>
</g>
<!-- v1&#45;&gt;v9 -->
<g id="edge6" class="edge"><title>v1&#45;&gt;v9</title>
<path fill="none" stroke="black" d="M448.841,-237.334C417.044,-230.171 356.125,-215.25 306.5,-196 262.968,-179.114 214.735,-152.852 189.364,-138.405"/>
<polygon fill="black" stroke="black" points="184.899,-135.849 190.356,-136.38 187.068,-137.091 189.238,-138.333 189.238,-138.333 189.238,-138.333 187.068,-137.091 188.121,-140.286 184.899,-135.849 184.899,-135.849"/>
</g>
<!-- v13 -->
<g id="v13_Hallway" class="node"><title>v13</title>
<ellipse fill="none" stroke="black" cx="324.5" cy="-11" rx="32.5" ry="11"/>
<text text-anchor="middle" x="324.5" y="-8.8" font-family="sans-serif" font-size="9.00">Hallway</text>
</g>
<!-- v1&#45;&gt;v13 -->
<g id="edge7" class="edge"><title>v1&#45;&gt;v13</title>
<path fill="none" stroke="black" d="M460.34,-232.853C441.826,-215.748 402.227,-177.101 377.5,-138 353.935,-100.736 336.66,-51.198 328.956,-26.8267"/>
<polygon fill="black" stroke="black" points="327.458,-22.0217 331.094,-26.1258 328.202,-24.4084 328.946,-26.7952 328.946,-26.7952 328.946,-26.7952 328.202,-24.4084 326.798,-27.4647 327.458,-22.0217 327.458,-22.0217"/>
</g>
<!-- v19 -->
<g id="v19_Room" class="node"><title>v19</title>
<ellipse fill="none" stroke="black" cx="625.5" cy="-69" rx="21.5" ry="11"/>
<text text-anchor="middle" x="625.5" y="-66.8" font-family="sans-serif" font-size="9.00">Room</text>
</g>
<!-- v1&#45;&gt;v19 -->
<g id="edge8" class="edge"><title>v1&#45;&gt;v19</title>
<path fill="none" stroke="black" d="M479.054,-232.508C505.156,-203.543 583.82,-116.251 613.759,-83.0291"/>
<polygon fill="black" stroke="black" points="617.161,-79.2532 615.486,-84.4738 615.488,-81.1104 613.814,-82.9675 613.814,-82.9675 613.814,-82.9675 615.488,-81.1104 612.143,-81.4613 617.161,-79.2532 617.161,-79.2532"/>
</g>
<!-- v3 -->
<g id="v3_Visitor" class="node"><title>v3</title>
<ellipse fill="none" stroke="black" cx="419.5" cy="-127" rx="32.5" ry="11"/>
<text text-anchor="middle" x="419.5" y="-124.8" font-family="sans-serif" font-size="9.00">Visitor</text>
</g>
<!-- v2&#45;&gt;v3 -->
<g id="edge9" class="edge"><title>v2&#45;&gt;v3</title>
<path fill="none" stroke="black" d="M462.078,-174.753C453.886,-165.757 441.342,-151.983 431.988,-141.712"/>
<polygon fill="black" stroke="black" points="428.449,-137.827 433.479,-140.008 430.133,-139.675 431.816,-141.523 431.816,-141.523 431.816,-141.523 430.133,-139.675 430.152,-143.038 428.449,-137.827 428.449,-137.827"/>
</g>
<!-- v5 -->
<g id="v5_SmartLight" class="node"><title>v5</title>
<ellipse fill="none" stroke="black" cx="517.5" cy="-11" rx="43" ry="11"/>
<text text-anchor="middle" x="517.5" y="-8.8" font-family="sans-serif" font-size="9.00">SmartLight</text>
</g>
<!-- v2&#45;&gt;v5 -->
<g id="edge10" class="edge"><title>v2&#45;&gt;v5</title>
<path fill="none" stroke="black" d="M474.911,-174.187C482.898,-155.998 499.739,-115.655 508.5,-80 512.865,-62.2359 515.232,-41.307 516.427,-27.4072"/>
<polygon fill="black" stroke="black" points="516.843,-22.2673 518.683,-27.4325 516.642,-24.7591 516.44,-27.251 516.44,-27.251 516.44,-27.251 516.642,-24.7591 514.197,-27.0695 516.843,-22.2673 516.843,-22.2673"/>
</g>
<!-- v2&#45;&gt;v13 -->
<g id="edge23" class="edge"><title>v2&#45;&gt;v13</title>
<path fill="none" stroke="green" d="M452.068,-179.131C431.407,-172.811 398.11,-159.911 377.5,-138 344.818,-103.255 330.784,-45.3953 326.262,-22.1374"/>
</g>
<!-- v3&#45;&gt;v4 -->
<g id="edge11" class="edge"><title>v3&#45;&gt;v4</title>
<path fill="none" stroke="black" d="M428.384,-116.246C436.647,-107.172 449.035,-93.5697 458.238,-83.4636"/>
<polygon fill="black" stroke="black" points="461.718,-79.6427 460.015,-84.8544 460.035,-81.491 458.352,-83.3394 458.352,-83.3394 458.352,-83.3394 460.035,-81.491 456.688,-81.8244 461.718,-79.6427 461.718,-79.6427"/>
</g>
<!-- v10 -->
<g id="v10_Software" class="node"><title>v10</title>
<ellipse fill="none" stroke="black" cx="420.5" cy="-11" rx="36" ry="11"/>
<text text-anchor="middle" x="420.5" y="-8.8" font-family="sans-serif" font-size="9.00">Software</text>
</g>
<!-- v4&#45;&gt;v10 -->
<g id="edge12" class="edge"><title>v4&#45;&gt;v10</title>
<path fill="none" stroke="black" d="M461.791,-58.2455C453.788,-49.2823 441.84,-35.9007 432.853,-25.8349"/>
<polygon fill="black" stroke="black" points="429.446,-22.0198 434.455,-24.2509 431.111,-23.8846 432.776,-25.7495 432.776,-25.7495 432.776,-25.7495 431.111,-23.8846 431.098,-27.248 429.446,-22.0198 429.446,-22.0198"/>
</g>
<!-- v5&#45;&gt;v6 -->
<g id="edge25" class="edge"><title>v5&#45;&gt;v6</title>
<path fill="none" stroke="green" d="M533.859,-21.2415C545.744,-28.0527 562.486,-36.3871 578.5,-40 664.343,-59.3666 689.858,-55.4002 776.5,-40 796.495,-36.446 818.067,-28.2018 833.609,-21.4084"/>
</g>
<!-- v11 -->
<g id="v11_HVAC" class="node"><title>v11</title>
<ellipse fill="none" stroke="black" cx="134.5" cy="-69" rx="21.5" ry="11"/>
<text text-anchor="middle" x="134.5" y="-66.8" font-family="sans-serif" font-size="9.00">HVAC</text>
</g>
<!-- v6&#45;&gt;v11 -->
<g id="edge26" class="edge"><title>v6&#45;&gt;v11</title>
<path fill="none" stroke="green" d="M811.871,-18.723C803.151,-19.9284 794.045,-21.0889 785.5,-22 538.766,-48.3072 237.759,-63.2684 155.904,-67.0437"/>
</g>
<!-- v17 -->
<g id="v17_SmartLight" class="node"><title>v17</title>
<ellipse fill="none" stroke="black" cx="230.5" cy="-11" rx="43" ry="11"/>
<text text-anchor="middle" x="230.5" y="-8.8" font-family="sans-serif" font-size="9.00">SmartLight</text>
</g>
<!-- v6&#45;&gt;v17 -->
<g id="edge27" class="edge"><title>v6&#45;&gt;v17</title>
<path fill="none" stroke="green" d="M833.609,-21.4084C818.067,-28.2018 796.495,-36.446 776.5,-40 670.385,-58.8614 396.635,-63.7192 291.5,-40 275.486,-36.3871 258.744,-28.0527 246.859,-21.2415"/>
</g>
<!-- v18 -->
<g id="v18_FireAlarm" class="node"><title>v18</title>
<ellipse fill="none" stroke="black" cx="39.5" cy="-11" rx="39.5" ry="11"/>
<text text-anchor="middle" x="39.5" y="-8.8" font-family="sans-serif" font-size="9.00">FireAlarm</text>
</g>
<!-- v6&#45;&gt;v18 -->
<g id="edge28" class="edge"><title>v6&#45;&gt;v18</title>
<path fill="none" stroke="green" d="M833.609,-21.4084C818.067,-28.2018 796.495,-36.446 776.5,-40 702.22,-53.203 170.926,-57.3336 97.5,-40 82.1605,-36.3788 66.2523,-28.0452 54.9852,-21.2364"/>
</g>
<!-- v20 -->
<g id="v20_SmartLight" class="node"><title>v20</title>
<ellipse fill="none" stroke="black" cx="733.5" cy="-11" rx="43" ry="11"/>
<text text-anchor="middle" x="733.5" y="-8.8" font-family="sans-serif" font-size="9.00">SmartLight</text>
</g>
<!-- v6&#45;&gt;v20 -->
<g id="edge29" class="edge"><title>v6&#45;&gt;v20</title>
<path fill="none" stroke="green" d="M794.375,-11C788.539,-11 782.703,-11 776.867,-11"/>
</g>
<!-- v21 -->
<g id="v21_Workstation" class="node"><title>v21</title>
<ellipse fill="none" stroke="black" cx="625.5" cy="-11" rx="47" ry="11"/>
<text text-anchor="middle" x="625.5" y="-8.8" font-family="sans-serif" font-size="9.00">Workstation</text>
</g>
<!-- v6&#45;&gt;v21 -->
<g id="edge30" class="edge"><title>v6&#45;&gt;v21</title>
<path fill="none" stroke="green" d="M833.609,-21.4084C818.067,-28.2018 796.495,-36.446 776.5,-40 738.868,-46.689 727.884,-47.9613 690.5,-40 673.58,-36.3967 655.726,-28.0614 643.021,-21.2474"/>
</g>
<!-- v8 -->
<g id="v8_ConnectDevice" class="node"><title>v8</title>
<ellipse fill="none" stroke="black" cx="988.5" cy="-11" rx="54" ry="11"/>
<text text-anchor="middle" x="988.5" y="-8.8" font-family="sans-serif" font-size="9.00">ConnectDevice</text>
</g>
<!-- v7&#45;&gt;v8 -->
<g id="edge13" class="edge"><title>v7&#45;&gt;v8</title>
<path fill="none" stroke="black" d="M1123.15,-59.1266C1094.83,-49.2142 1049,-33.1758 1018.81,-22.6086"/>
<polygon fill="black" stroke="black" points="1013.73,-20.8319 1019.2,-20.36 1016.09,-21.6578 1018.45,-22.4837 1018.45,-22.4837 1018.45,-22.4837 1016.09,-21.6578 1017.71,-24.6073 1013.73,-20.8319 1013.73,-20.8319"/>
</g>
<!-- v14 -->
<g id="v14_ExitRoom" class="node"><title>v14</title>
<ellipse fill="none" stroke="black" cx="1096.5" cy="-11" rx="36" ry="11"/>
<text text-anchor="middle" x="1096.5" y="-8.8" font-family="sans-serif" font-size="9.00">ExitRoom</text>
</g>
<!-- v7&#45;&gt;v14 -->
<g id="edge14" class="edge"><title>v7&#45;&gt;v14</title>
<path fill="none" stroke="black" d="M1139.2,-57.9883C1130.85,-48.9897 1118.5,-35.6926 1109.23,-25.7082"/>
<polygon fill="black" stroke="black" points="1105.72,-21.925 1110.77,-24.058 1107.42,-23.757 1109.12,-25.589 1109.12,-25.589 1109.12,-25.589 1107.42,-23.757 1107.47,-27.12 1105.72,-21.925 1105.72,-21.925"/>
</g>
<!-- v15 -->
<g id="v15_GenerateData" class="node"><title>v15</title>
<ellipse fill="none" stroke="black" cx="1201.5" cy="-11" rx="50.5" ry="11"/>
<text text-anchor="middle" x="1201.5" y="-8.8" font-family="sans-serif" font-size="9.00">GenerateData</text>
</g>
<!-- v7&#45;&gt;v15 -->
<g id="edge15" class="edge"><title>v7&#45;&gt;v15</title>
<path fill="none" stroke="black" d="M1157.98,-57.9883C1166.49,-48.9897 1179.08,-35.6926 1188.53,-25.7082"/>
<polygon fill="black" stroke="black" points="1192.11,-21.925 1190.3,-27.1031 1190.39,-23.7407 1188.67,-25.5565 1188.67,-25.5565 1188.67,-25.5565 1190.39,-23.7407 1187.04,-24.0099 1192.11,-21.925 1192.11,-21.925"/>
</g>
<!-- v16 -->
<g id="v16_CollectData" class="node"><title>v16</title>
<ellipse fill="none" stroke="black" cx="1317.5" cy="-11" rx="47" ry="11"/>
<text text-anchor="middle" x="1317.5" y="-8.8" font-family="sans-serif" font-size="9.00">CollectData</text>
</g>
<!-- v7&#45;&gt;v16 -->
<g id="edge16" class="edge"><title>v7&#45;&gt;v16</title>
<path fill="none" stroke="black" d="M1174.91,-59.25C1205.4,-49.1469 1255.44,-32.5631 1287.41,-21.9701"/>
<polygon fill="black" stroke="black" points="1292.38,-20.3233 1288.34,-24.0319 1290.01,-21.1097 1287.64,-21.8961 1287.64,-21.8961 1287.64,-21.8961 1290.01,-21.1097 1286.93,-19.7603 1292.38,-20.3233 1292.38,-20.3233"/>
</g>
<!-- v9&#45;&gt;v11 -->
<g id="edge17" class="edge"><title>v9&#45;&gt;v11</title>
<path fill="none" stroke="black" d="M165.055,-116.246C159.166,-107.332 150.39,-94.0497 143.752,-84.0035"/>
<polygon fill="black" stroke="black" points="140.871,-79.6427 145.505,-82.574 142.249,-81.7285 143.627,-83.8144 143.627,-83.8144 143.627,-83.8144 142.249,-81.7285 141.75,-85.0547 140.871,-79.6427 140.871,-79.6427"/>
</g>
<!-- v9&#45;&gt;v13 -->
<g id="edge31" class="edge"><title>v9&#45;&gt;v13</title>
<path fill="none" stroke="green" d="M183,-117.431C211.076,-96.5118 282.945,-42.9623 312.016,-21.3019"/>
</g>
<!-- v9&#45;&gt;v17 -->
<g id="edge18" class="edge"><title>v9&#45;&gt;v17</title>
<path fill="none" stroke="black" d="M176.53,-116.28C186.885,-96.2734 210.635,-50.3837 222.884,-26.7158"/>
<polygon fill="black" stroke="black" points="225.314,-22.0199 225.014,-27.4947 224.165,-24.2402 223.016,-26.4605 223.016,-26.4605 223.016,-26.4605 224.165,-24.2402 221.018,-25.4263 225.314,-22.0199 225.314,-22.0199"/>
</g>
<!-- v9&#45;&gt;v18 -->
<g id="edge19" class="edge"><title>v9&#45;&gt;v18</title>
<path fill="none" stroke="black" d="M158.102,-118.161C143.921,-109.59 121.191,-95.0594 103.5,-80 83.5862,-63.0482 63.357,-40.4599 51.1169,-26.0694"/>
<polygon fill="black" stroke="black" points="47.5839,-21.8819 52.5279,-24.2525 49.196,-23.7927 50.8082,-25.7034 50.8082,-25.7034 50.8082,-25.7034 49.196,-23.7927 49.0884,-27.1544 47.5839,-21.8819 47.5839,-21.8819"/>
</g>
<!-- v12 -->
<g id="v12_Software" class="node"><title>v12</title>
<ellipse fill="none" stroke="black" cx="133.5" cy="-11" rx="36" ry="11"/>
<text text-anchor="middle" x="133.5" y="-8.8" font-family="sans-serif" font-size="9.00">Software</text>
</g>
<!-- v11&#45;&gt;v12 -->
<g id="edge20" class="edge"><title>v11&#45;&gt;v12</title>
<path fill="none" stroke="black" d="M134.321,-57.9883C134.17,-49.4941 133.949,-37.1697 133.775,-27.4169"/>
<polygon fill="black" stroke="black" points="133.684,-22.3039 136.023,-27.2629 133.729,-24.8035 133.773,-27.3031 133.773,-27.3031 133.773,-27.3031 133.729,-24.8035 131.524,-27.3433 133.684,-22.3039 133.684,-22.3039"/>
</g>
<!-- v13&#45;&gt;v19 -->
<g id="edge32" class="edge"><title>v13&#45;&gt;v19</title>
<path fill="none" stroke="green" d="M351.222,-17.3005C359.043,-18.8354 367.611,-20.5008 375.5,-22 461.127,-38.2719 563.431,-56.8154 605.716,-64.4407"/>
</g>
<!-- v19&#45;&gt;v20 -->
<g id="edge21" class="edge"><title>v19&#45;&gt;v20</title>
<path fill="none" stroke="black" d="M639.619,-60.679C657.799,-51.2525 689.604,-34.761 711.101,-23.6145"/>
<polygon fill="black" stroke="black" points="715.791,-21.1826 712.388,-25.4817 713.571,-22.3334 711.352,-23.4842 711.352,-23.4842 711.352,-23.4842 713.571,-22.3334 710.316,-21.4868 715.791,-21.1826 715.791,-21.1826"/>
</g>
<!-- v19&#45;&gt;v21 -->
<g id="edge22" class="edge"><title>v19&#45;&gt;v21</title>
<path fill="none" stroke="black" d="M625.5,-57.9883C625.5,-49.4941 625.5,-37.1697 625.5,-27.4169"/>
<polygon fill="black" stroke="black" points="625.5,-22.3039 627.75,-27.3038 625.5,-24.8039 625.5,-27.3039 625.5,-27.3039 625.5,-27.3039 625.5,-24.8039 623.25,-27.3039 625.5,-22.3039 625.5,-22.3039"/>
</g>
</g>
</svg>
