<?xml version="1.0" encoding="UTF-8" standalone="no"?>
<?xml-stylesheet href="style.css" type="text/css"?>
<!DOCTYPE svg PUBLIC "-//W3C//DTD SVG 1.1//EN"
 "http://www.w3.org/Graphics/SVG/1.1/DTD/svg11.dtd">
<!-- Generated by graphviz version 2.38.0 (20140413.2041)
 -->
<!-- Title: 30.svg Pages: 1 -->
<svg width="1326pt" height="374pt"
 viewBox="0.00 0.00 1325.50 374.00" xmlns="http://www.w3.org/2000/svg" xmlns:xlink="http://www.w3.org/1999/xlink">
<g id="graph0" class="graph" transform="scale(1 1) rotate(0) translate(4 370)">
<title>30.svg</title>
<polygon fill="white" stroke="none" points="-4,4 -4,-370 1321.5,-370 1321.5,4 -4,4"/>
<!-- r0 -->
<g id="node1" class="node"><title>r0</title>
<polygon fill="none" stroke="black" stroke-dasharray="5,2" points="302.5,-366 279.5,-366 279.5,-348 302.5,-348 302.5,-366"/>
<text text-anchor="middle" x="291" y="-354.8" font-family="serif" font-size="9.00">0</text>
</g>
<!-- v0 -->
<g id="v0_Building" class="node"><title>v0</title>
<ellipse fill="none" stroke="black" cx="291" cy="-301" rx="36" ry="11"/>
<text text-anchor="middle" x="291" y="-298.8" font-family="sans-serif" font-size="9.00">Building</text>
</g>
<!-- r0&#45;&gt;v0 -->
<g id="edge1" class="edge"><title>r0&#45;&gt;v0</title>
<path fill="none" stroke="black" d="M291,-347.562C291,-339.453 291,-327.014 291,-317.181"/>
<polygon fill="black" stroke="black" points="291,-312.03 293.25,-317.03 291,-314.53 291,-317.03 291,-317.03 291,-317.03 291,-314.53 288.75,-317.03 291,-312.03 291,-312.03"/>
</g>
<!-- r1 -->
<g id="node2" class="node"><title>r1</title>
<polygon fill="none" stroke="black" stroke-dasharray="5,2" points="1111.5,-366 1088.5,-366 1088.5,-348 1111.5,-348 1111.5,-366"/>
<text text-anchor="middle" x="1100" y="-354.8" font-family="serif" font-size="9.00">1</text>
</g>
<!-- v3 -->
<g id="v3_RulesKeywords" class="node"><title>v3</title>
<ellipse fill="none" stroke="black" cx="1100" cy="-69" rx="54" ry="11"/>
<text text-anchor="middle" x="1100" y="-66.8" font-family="sans-serif" font-size="9.00">RulesKeywords</text>
</g>
<!-- r1&#45;&gt;v3 -->
<g id="edge2" class="edge"><title>r1&#45;&gt;v3</title>
<path fill="none" stroke="black" d="M1100,-347.849C1100,-329.373 1100,-282.889 1100,-244 1100,-244 1100,-244 1100,-184 1100,-148.604 1100,-107.026 1100,-85.1783"/>
<polygon fill="black" stroke="black" points="1100,-80.0648 1102.25,-85.0648 1100,-82.5648 1100,-85.0648 1100,-85.0648 1100,-85.0648 1100,-82.5648 1097.75,-85.0648 1100,-80.0648 1100,-80.0648"/>
</g>
<!-- e7 -->
<g id="node3" class="node"><title>e7</title>
</g>
<!-- v7 -->
<g id="v7_Laptop" class="node"><title>v7</title>
<ellipse fill="none" stroke="black" cx="301" cy="-69" rx="29" ry="11"/>
<text text-anchor="middle" x="301" y="-66.8" font-family="sans-serif" font-size="9.00">Laptop</text>
</g>
<!-- e7&#45;&gt;v7 -->
<g id="edge30" class="edge"><title>e7&#45;&gt;v7</title>
<path fill="none" stroke="green" d="M301,-122.167C301,-113.586 301,-92.5957 301,-80.0117"/>
<polygon fill="green" stroke="green" points="304.5,-125.3 297.5,-125.3 297.5,-123.9 304.5,-123.9 304.5,-125.3"/>
<polyline fill="none" stroke="green" points="301,-126 301,-122.5 "/>
</g>
<!-- v1 -->
<g id="v1_InstallationBus" class="node"><title>v1</title>
<ellipse fill="none" stroke="black" cx="61" cy="-69" rx="61" ry="11"/>
<text text-anchor="middle" x="61" y="-66.8" font-family="sans-serif" font-size="9.00">InstallationBus</text>
</g>
<!-- v0&#45;&gt;v1 -->
<g id="edge3" class="edge"><title>v0&#45;&gt;v1</title>
<path fill="none" stroke="black" d="M281.117,-290.117C244.56,-253.56 116.93,-125.93 74.6913,-83.6913"/>
<polygon fill="black" stroke="black" points="71.105,-80.105 76.2316,-82.0496 72.8728,-81.8728 74.6406,-83.6406 74.6406,-83.6406 74.6406,-83.6406 72.8728,-81.8728 73.0496,-85.2316 71.105,-80.105 71.105,-80.105"/>
</g>
<!-- v4 -->
<g id="v4_Floor" class="node"><title>v4</title>
<ellipse fill="none" stroke="black" cx="470" cy="-243" rx="25" ry="11"/>
<text text-anchor="middle" x="470" y="-240.8" font-family="sans-serif" font-size="9.00">Floor</text>
</g>
<!-- v0&#45;&gt;v4 -->
<g id="edge4" class="edge"><title>v0&#45;&gt;v4</title>
<path fill="none" stroke="black" d="M314.77,-292.564C348.851,-281.901 411.274,-262.372 445.666,-251.613"/>
<polygon fill="black" stroke="black" points="450.53,-250.091 446.43,-253.732 448.144,-250.838 445.758,-251.584 445.758,-251.584 445.758,-251.584 448.144,-250.838 445.086,-249.437 450.53,-250.091 450.53,-250.091"/>
</g>
<!-- v2 -->
<g id="v2_Data" class="node"><title>v2</title>
<ellipse fill="none" stroke="black" cx="61" cy="-11" rx="21.5" ry="11"/>
<text text-anchor="middle" x="61" y="-8.8" font-family="sans-serif" font-size="9.00">Data</text>
</g>
<!-- v1&#45;&gt;v2 -->
<g id="edge5" class="edge"><title>v1&#45;&gt;v2</title>
<path fill="none" stroke="black" d="M61,-57.9883C61,-49.4941 61,-37.1697 61,-27.4169"/>
<polygon fill="black" stroke="black" points="61,-22.3039 63.2501,-27.3038 61,-24.8039 61.0001,-27.3039 61.0001,-27.3039 61.0001,-27.3039 61,-24.8039 58.7501,-27.3039 61,-22.3039 61,-22.3039"/>
</g>
<!-- v8 -->
<g id="v8_SmartLight" class="node"><title>v8</title>
<ellipse fill="none" stroke="black" cx="150" cy="-11" rx="43" ry="11"/>
<text text-anchor="middle" x="150" y="-8.8" font-family="sans-serif" font-size="9.00">SmartLight</text>
</g>
<!-- v1&#45;&gt;v8 -->
<g id="edge23" class="edge"><title>v1&#45;&gt;v8</title>
<path fill="none" stroke="green" d="M76.5026,-58.2455C92.9376,-47.9044 118.719,-31.6823 134.972,-21.4561"/>
</g>
<!-- v12 -->
<g id="v12_Workstation" class="node"><title>v12</title>
<ellipse fill="none" stroke="black" cx="372" cy="-11" rx="47" ry="11"/>
<text text-anchor="middle" x="372" y="-8.8" font-family="sans-serif" font-size="9.00">Workstation</text>
</g>
<!-- v1&#45;&gt;v12 -->
<g id="edge24" class="edge"><title>v1&#45;&gt;v12</title>
<path fill="none" stroke="green" d="M101.339,-60.7364C162.643,-49.6978 278.274,-28.8766 336.54,-18.385"/>
</g>
<!-- v17 -->
<g id="v17_SmartLight" class="node"><title>v17</title>
<ellipse fill="none" stroke="black" cx="564" cy="-11" rx="43" ry="11"/>
<text text-anchor="middle" x="564" y="-8.8" font-family="sans-serif" font-size="9.00">SmartLight</text>
</g>
<!-- v1&#45;&gt;v17 -->
<g id="edge25" class="edge"><title>v1&#45;&gt;v17</title>
<path fill="none" stroke="green" d="M115.211,-63.9489C199.938,-57.2822 368.777,-42.6486 511,-22 517.857,-21.0044 525.179,-19.7488 532.123,-18.4668"/>
</g>
<!-- v19 -->
<g id="v19_SmartLight" class="node"><title>v19</title>
<ellipse fill="none" stroke="black" cx="668" cy="-11" rx="43" ry="11"/>
<text text-anchor="middle" x="668" y="-8.8" font-family="sans-serif" font-size="9.00">SmartLight</text>
</g>
<!-- v1&#45;&gt;v19 -->
<g id="edge26" class="edge"><title>v1&#45;&gt;v19</title>
<path fill="none" stroke="green" d="M118.749,-65.2588C219.874,-60.0032 435.441,-46.7713 616,-22 622.74,-21.0753 629.928,-19.8497 636.743,-18.5743"/>
</g>
<!-- v20 -->
<g id="v20_HVAC" class="node"><title>v20</title>
<ellipse fill="none" stroke="black" cx="751" cy="-11" rx="21.5" ry="11"/>
<text text-anchor="middle" x="751" y="-8.8" font-family="sans-serif" font-size="9.00">HVAC</text>
</g>
<!-- v1&#45;&gt;v20 -->
<g id="edge27" class="edge"><title>v1&#45;&gt;v20</title>
<path fill="none" stroke="green" d="M117.513,-64.8421C266.345,-56.4141 661.692,-33.2662 720,-22 724.775,-21.0774 729.84,-19.6461 734.462,-18.1521"/>
</g>
<!-- v21 -->
<g id="v21_FireAlarm" class="node"><title>v21</title>
<ellipse fill="none" stroke="black" cx="830" cy="-11" rx="39.5" ry="11"/>
<text text-anchor="middle" x="830" y="-8.8" font-family="sans-serif" font-size="9.00">FireAlarm</text>
</g>
<!-- v1&#45;&gt;v21 -->
<g id="edge28" class="edge"><title>v1&#45;&gt;v21</title>
<path fill="none" stroke="green" d="M117.483,-64.8406C275.71,-55.9265 716.012,-30.6656 781,-22 787.541,-21.1279 794.516,-19.8922 801.092,-18.5857"/>
</g>
<!-- v9 -->
<g id="v9_ConnectDevice" class="node"><title>v9</title>
<ellipse fill="none" stroke="black" cx="942" cy="-11" rx="54" ry="11"/>
<text text-anchor="middle" x="942" y="-8.8" font-family="sans-serif" font-size="9.00">ConnectDevice</text>
</g>
<!-- v3&#45;&gt;v9 -->
<g id="edge6" class="edge"><title>v3&#45;&gt;v9</title>
<path fill="none" stroke="black" d="M1074.96,-59.1266C1047,-49.2142 1001.75,-33.1758 971.932,-22.6086"/>
<polygon fill="black" stroke="black" points="966.918,-20.8319 972.383,-20.3815 969.275,-21.6671 971.631,-22.5023 971.631,-22.5023 971.631,-22.5023 969.275,-21.6671 970.88,-24.623 966.918,-20.8319 966.918,-20.8319"/>
</g>
<!-- v13 -->
<g id="v13_ExitRoom" class="node"><title>v13</title>
<ellipse fill="none" stroke="black" cx="1050" cy="-11" rx="36" ry="11"/>
<text text-anchor="middle" x="1050" y="-8.8" font-family="sans-serif" font-size="9.00">ExitRoom</text>
</g>
<!-- v3&#45;&gt;v13 -->
<g id="edge7" class="edge"><title>v3&#45;&gt;v13</title>
<path fill="none" stroke="black" d="M1091.06,-57.9883C1083.03,-48.9897 1071.15,-35.6926 1062.24,-25.7082"/>
<polygon fill="black" stroke="black" points="1058.86,-21.925 1063.87,-24.1562 1060.53,-23.7899 1062.19,-25.6547 1062.19,-25.6547 1062.19,-25.6547 1060.53,-23.7899 1060.51,-27.1533 1058.86,-21.925 1058.86,-21.925"/>
</g>
<!-- v14 -->
<g id="v14_CollectData" class="node"><title>v14</title>
<ellipse fill="none" stroke="black" cx="1151" cy="-11" rx="47" ry="11"/>
<text text-anchor="middle" x="1151" y="-8.8" font-family="sans-serif" font-size="9.00">CollectData</text>
</g>
<!-- v3&#45;&gt;v14 -->
<g id="edge8" class="edge"><title>v3&#45;&gt;v14</title>
<path fill="none" stroke="black" d="M1109.12,-57.9883C1117.31,-48.9897 1129.42,-35.6926 1138.52,-25.7082"/>
<polygon fill="black" stroke="black" points="1141.96,-21.925 1140.26,-27.1367 1140.28,-23.7734 1138.59,-25.6217 1138.59,-25.6217 1138.59,-25.6217 1140.28,-23.7734 1136.93,-24.1067 1141.96,-21.925 1141.96,-21.925"/>
</g>
<!-- v15 -->
<g id="v15_SendSoftware" class="node"><title>v15</title>
<ellipse fill="none" stroke="black" cx="1267" cy="-11" rx="50.5" ry="11"/>
<text text-anchor="middle" x="1267" y="-8.8" font-family="sans-serif" font-size="9.00">SendSoftware</text>
</g>
<!-- v3&#45;&gt;v15 -->
<g id="edge9" class="edge"><title>v3&#45;&gt;v15</title>
<path fill="none" stroke="black" d="M1126.09,-59.25C1155.96,-49.2345 1204.82,-32.8502 1236.44,-22.247"/>
<polygon fill="black" stroke="black" points="1241.36,-20.5967 1237.34,-24.3197 1238.99,-21.3916 1236.62,-22.1864 1236.62,-22.1864 1236.62,-22.1864 1238.99,-21.3916 1235.91,-20.0532 1241.36,-20.5967 1241.36,-20.5967"/>
</g>
<!-- v5 -->
<g id="v5_Room" class="node"><title>v5</title>
<ellipse fill="none" stroke="black" cx="358" cy="-185" rx="21.5" ry="11"/>
<text text-anchor="middle" x="358" y="-182.8" font-family="sans-serif" font-size="9.00">Room</text>
</g>
<!-- v4&#45;&gt;v5 -->
<g id="edge10" class="edge"><title>v4&#45;&gt;v5</title>
<path fill="none" stroke="black" d="M454.427,-234.213C434.198,-224.099 398.9,-206.45 377.083,-195.542"/>
<polygon fill="black" stroke="black" points="372.377,-193.189 377.855,-193.412 374.613,-194.307 376.849,-195.425 376.849,-195.425 376.849,-195.425 374.613,-194.307 375.843,-197.437 372.377,-193.189 372.377,-193.189"/>
</g>
<!-- v10 -->
<g id="v10_Hallway" class="node"><title>v10</title>
<ellipse fill="none" stroke="black" cx="470" cy="-11" rx="32.5" ry="11"/>
<text text-anchor="middle" x="470" y="-8.8" font-family="sans-serif" font-size="9.00">Hallway</text>
</g>
<!-- v4&#45;&gt;v10 -->
<g id="edge11" class="edge"><title>v4&#45;&gt;v10</title>
<path fill="none" stroke="black" d="M470,-231.82C470,-195.304 470,-70.7575 470,-27.194"/>
<polygon fill="black" stroke="black" points="470,-22.062 472.25,-27.062 470,-24.562 470,-27.062 470,-27.062 470,-27.062 470,-24.562 467.75,-27.0621 470,-22.062 470,-22.062"/>
</g>
<!-- v16 -->
<g id="v16_Room" class="node"><title>v16</title>
<ellipse fill="none" stroke="black" cx="542" cy="-69" rx="21.5" ry="11"/>
<text text-anchor="middle" x="542" y="-66.8" font-family="sans-serif" font-size="9.00">Room</text>
</g>
<!-- v4&#45;&gt;v16 -->
<g id="edge12" class="edge"><title>v4&#45;&gt;v16</title>
<path fill="none" stroke="black" d="M474.182,-232.009C486.311,-203.034 521.544,-118.867 535.852,-84.6863"/>
<polygon fill="black" stroke="black" points="537.806,-80.0185 537.951,-85.4995 536.841,-82.3246 535.875,-84.6307 535.875,-84.6307 535.875,-84.6307 536.841,-82.3246 533.8,-83.7618 537.806,-80.0185 537.806,-80.0185"/>
</g>
<!-- v18 -->
<g id="v18_Room" class="node"><title>v18</title>
<ellipse fill="none" stroke="black" cx="709" cy="-69" rx="21.5" ry="11"/>
<text text-anchor="middle" x="709" y="-66.8" font-family="sans-serif" font-size="9.00">Room</text>
</g>
<!-- v4&#45;&gt;v18 -->
<g id="edge13" class="edge"><title>v4&#45;&gt;v18</title>
<path fill="none" stroke="black" d="M482.181,-233.234C522.002,-204.576 648.336,-113.658 693.092,-81.4482"/>
<polygon fill="black" stroke="black" points="697.408,-78.3422 694.664,-83.0891 695.379,-79.8026 693.35,-81.2629 693.35,-81.2629 693.35,-81.2629 695.379,-79.8026 692.036,-79.4366 697.408,-78.3422 697.408,-78.3422"/>
</g>
<!-- v6 -->
<g id="v6_Visitor" class="node"><title>v6</title>
<ellipse fill="none" stroke="black" cx="211" cy="-127" rx="32.5" ry="11"/>
<text text-anchor="middle" x="211" y="-124.8" font-family="sans-serif" font-size="9.00">Visitor</text>
</g>
<!-- v5&#45;&gt;v6 -->
<g id="edge14" class="edge"><title>v5&#45;&gt;v6</title>
<path fill="none" stroke="black" d="M341.707,-177.793C316.126,-168.048 266.352,-149.086 236.151,-137.581"/>
<polygon fill="black" stroke="black" points="231.115,-135.663 236.588,-135.34 233.451,-136.553 235.787,-137.443 235.787,-137.443 235.787,-137.443 233.451,-136.553 234.986,-139.545 231.115,-135.663 231.115,-135.663"/>
</g>
<!-- v5&#45;&gt;v8 -->
<g id="edge15" class="edge"><title>v5&#45;&gt;v8</title>
<path fill="none" stroke="black" d="M337.102,-181.824C292.795,-176.767 191.621,-162.732 169,-138 140.843,-107.216 143.859,-53.4098 147.401,-27.2066"/>
<polygon fill="black" stroke="black" points="148.154,-22.0523 149.657,-27.325 147.792,-24.5261 147.431,-26.9998 147.431,-26.9998 147.431,-26.9998 147.792,-24.5261 145.205,-26.6747 148.154,-22.0523 148.154,-22.0523"/>
</g>
<!-- v5&#45;&gt;v10 -->
<g id="edge29" class="edge"><title>v5&#45;&gt;v10</title>
<path fill="none" stroke="green" d="M341.869,-177.342C317.506,-166.252 275.706,-142.574 291,-116 300.233,-99.9576 410.513,-42.3912 453.239,-20.5162"/>
</g>
<!-- v5&#45;&gt;v12 -->
<g id="edge16" class="edge"><title>v5&#45;&gt;v12</title>
<path fill="none" stroke="black" d="M358.834,-173.756C361.192,-144.786 367.919,-62.1364 370.736,-27.5335"/>
<polygon fill="black" stroke="black" points="371.153,-22.4081 372.99,-27.5742 370.95,-24.8998 370.747,-27.3916 370.747,-27.3916 370.747,-27.3916 370.95,-24.8998 368.505,-27.209 371.153,-22.4081 371.153,-22.4081"/>
</g>
<!-- v6&#45;&gt;v7 -->
<g id="edge17" class="edge"><title>v6&#45;&gt;v7</title>
<path fill="none" stroke="black" d="M225.46,-117.003C240.903,-107.394 265.43,-92.1324 282.324,-81.6206"/>
<polygon fill="black" stroke="black" points="286.873,-78.7904 283.816,-83.3423 284.75,-80.1112 282.627,-81.432 282.627,-81.432 282.627,-81.432 284.75,-80.1112 281.439,-79.5216 286.873,-78.7904 286.873,-78.7904"/>
</g>
<!-- v11 -->
<g id="v11_Software" class="node"><title>v11</title>
<ellipse fill="none" stroke="black" cx="271" cy="-11" rx="36" ry="11"/>
<text text-anchor="middle" x="271" y="-8.8" font-family="sans-serif" font-size="9.00">Software</text>
</g>
<!-- v7&#45;&gt;v11 -->
<g id="edge18" class="edge"><title>v7&#45;&gt;v11</title>
<path fill="none" stroke="black" d="M295.637,-57.9883C290.944,-49.2286 284.069,-36.3956 278.773,-26.5103"/>
<polygon fill="black" stroke="black" points="276.317,-21.925 280.661,-25.2699 277.498,-24.1287 278.678,-26.3324 278.678,-26.3324 278.678,-26.3324 277.498,-24.1287 276.695,-27.3949 276.317,-21.925 276.317,-21.925"/>
</g>
<!-- v10&#45;&gt;v16 -->
<g id="edge31" class="edge"><title>v10&#45;&gt;v16</title>
<path fill="none" stroke="green" d="M482.001,-21.3337C495.679,-31.9725 517.847,-49.2141 531.065,-59.4948"/>
</g>
<!-- v10&#45;&gt;v18 -->
<g id="edge32" class="edge"><title>v10&#45;&gt;v18</title>
<path fill="none" stroke="green" d="M495.315,-18.0461C500.814,-19.3544 506.601,-20.727 512,-22 577.291,-37.3955 654.817,-55.4242 689.976,-63.5869"/>
</g>
<!-- v16&#45;&gt;v17 -->
<g id="edge19" class="edge"><title>v16&#45;&gt;v17</title>
<path fill="none" stroke="black" d="M545.933,-57.9883C549.301,-49.4154 554.202,-36.9411 558.05,-27.1466"/>
<polygon fill="black" stroke="black" points="559.952,-22.3039 560.218,-27.7804 559.038,-24.6308 558.124,-26.9576 558.124,-26.9576 558.124,-26.9576 559.038,-24.6308 556.03,-26.1349 559.952,-22.3039 559.952,-22.3039"/>
</g>
<!-- v18&#45;&gt;v19 -->
<g id="edge20" class="edge"><title>v18&#45;&gt;v19</title>
<path fill="none" stroke="black" d="M702.045,-58.5004C695.568,-49.6537 685.826,-36.3472 678.42,-26.2321"/>
<polygon fill="black" stroke="black" points="675.405,-22.1148 680.175,-24.82 676.882,-24.132 678.359,-26.1492 678.359,-26.1492 678.359,-26.1492 676.882,-24.132 676.544,-27.4783 675.405,-22.1148 675.405,-22.1148"/>
</g>
<!-- v18&#45;&gt;v20 -->
<g id="edge21" class="edge"><title>v18&#45;&gt;v20</title>
<path fill="none" stroke="black" d="M716.125,-58.5004C722.842,-49.5445 732.987,-36.018 740.606,-25.859"/>
<polygon fill="black" stroke="black" points="743.699,-21.7345 742.499,-27.0845 742.199,-23.7345 740.699,-25.7345 740.699,-25.7345 740.699,-25.7345 742.199,-23.7345 738.899,-24.3845 743.699,-21.7345 743.699,-21.7345"/>
</g>
<!-- v18&#45;&gt;v21 -->
<g id="edge22" class="edge"><title>v18&#45;&gt;v21</title>
<path fill="none" stroke="black" d="M724.325,-60.9076C745.072,-51.3056 782.286,-34.0824 806.558,-22.8494"/>
<polygon fill="black" stroke="black" points="811.231,-20.6866 807.638,-24.8287 808.962,-21.7367 806.693,-22.7867 806.693,-22.7867 806.693,-22.7867 808.962,-21.7367 805.748,-20.7448 811.231,-20.6866 811.231,-20.6866"/>
</g>
</g>
</svg>
