<?xml version="1.0" encoding="UTF-8" standalone="no"?>
<?xml-stylesheet href="style.css" type="text/css"?>
<!DOCTYPE svg PUBLIC "-//W3C//DTD SVG 1.1//EN"
 "http://www.w3.org/Graphics/SVG/1.1/DTD/svg11.dtd">
<!-- Generated by graphviz version 2.38.0 (20140413.2041)
 -->
<!-- Title: 5.svg Pages: 1 -->
<svg width="1432pt" height="374pt"
 viewBox="0.00 0.00 1431.50 374.00" xmlns="http://www.w3.org/2000/svg" xmlns:xlink="http://www.w3.org/1999/xlink">
<g id="graph0" class="graph" transform="scale(1 1) rotate(0) translate(4 370)">
<title>5.svg</title>
<polygon fill="white" stroke="none" points="-4,4 -4,-370 1427.5,-370 1427.5,4 -4,4"/>
<!-- r0 -->
<g id="node1" class="node"><title>r0</title>
<polygon fill="none" stroke="black" stroke-dasharray="5,2" points="191.5,-366 168.5,-366 168.5,-348 191.5,-348 191.5,-366"/>
<text text-anchor="middle" x="180" y="-354.8" font-family="serif" font-size="9.00">0</text>
</g>
<!-- v0 -->
<g id="v0_Building" class="node"><title>v0</title>
<ellipse fill="none" stroke="black" cx="180" cy="-301" rx="36" ry="11"/>
<text text-anchor="middle" x="180" y="-298.8" font-family="sans-serif" font-size="9.00">Building</text>
</g>
<!-- r0&#45;&gt;v0 -->
<g id="edge1" class="edge"><title>r0&#45;&gt;v0</title>
<path fill="none" stroke="black" d="M180,-347.562C180,-339.453 180,-327.014 180,-317.181"/>
<polygon fill="black" stroke="black" points="180,-312.03 182.25,-317.03 180,-314.53 180,-317.03 180,-317.03 180,-317.03 180,-314.53 177.75,-317.03 180,-312.03 180,-312.03"/>
</g>
<!-- r1 -->
<g id="node2" class="node"><title>r1</title>
<polygon fill="none" stroke="black" stroke-dasharray="5,2" points="1138.5,-366 1115.5,-366 1115.5,-348 1138.5,-348 1138.5,-366"/>
<text text-anchor="middle" x="1127" y="-354.8" font-family="serif" font-size="9.00">1</text>
</g>
<!-- v3 -->
<g id="v3_RulesKeywords" class="node"><title>v3</title>
<ellipse fill="none" stroke="black" cx="1127" cy="-69" rx="54" ry="11"/>
<text text-anchor="middle" x="1127" y="-66.8" font-family="sans-serif" font-size="9.00">RulesKeywords</text>
</g>
<!-- r1&#45;&gt;v3 -->
<g id="edge2" class="edge"><title>r1&#45;&gt;v3</title>
<path fill="none" stroke="black" d="M1127,-347.849C1127,-329.373 1127,-282.889 1127,-244 1127,-244 1127,-244 1127,-184 1127,-148.604 1127,-107.026 1127,-85.1783"/>
<polygon fill="black" stroke="black" points="1127,-80.0648 1129.25,-85.0648 1127,-82.5648 1127,-85.0648 1127,-85.0648 1127,-85.0648 1127,-82.5648 1124.75,-85.0648 1127,-80.0648 1127,-80.0648"/>
</g>
<!-- e9 -->
<g id="node3" class="node"><title>e9</title>
</g>
<!-- v8 -->
<g id="v8_Laptop" class="node"><title>v8</title>
<ellipse fill="none" stroke="black" cx="542" cy="-69" rx="29" ry="11"/>
<text text-anchor="middle" x="542" y="-66.8" font-family="sans-serif" font-size="9.00">Laptop</text>
</g>
<!-- e9&#45;&gt;v8 -->
<g id="edge33" class="edge"><title>e9&#45;&gt;v8</title>
<path fill="none" stroke="green" d="M542,-122.167C542,-113.586 542,-92.5957 542,-80.0117"/>
<polygon fill="green" stroke="green" points="545.5,-125.3 538.5,-125.3 538.5,-123.9 545.5,-123.9 545.5,-125.3"/>
<polyline fill="none" stroke="green" points="542,-126 542,-122.5 "/>
</g>
<!-- v1 -->
<g id="v1_InstallationBus" class="node"><title>v1</title>
<ellipse fill="none" stroke="black" cx="61" cy="-69" rx="61" ry="11"/>
<text text-anchor="middle" x="61" y="-66.8" font-family="sans-serif" font-size="9.00">InstallationBus</text>
</g>
<!-- v0&#45;&gt;v1 -->
<g id="edge3" class="edge"><title>v0&#45;&gt;v1</title>
<path fill="none" stroke="black" d="M174.733,-289.82C155.763,-253.155 90.8749,-127.741 68.5879,-84.6657"/>
<polygon fill="black" stroke="black" points="66.206,-80.062 70.5021,-83.4689 67.3549,-82.2824 68.5037,-84.5029 68.5037,-84.5029 68.5037,-84.5029 67.3549,-82.2824 66.5053,-85.5368 66.206,-80.062 66.206,-80.062"/>
</g>
<!-- v4 -->
<g id="v4_Floor" class="node"><title>v4</title>
<ellipse fill="none" stroke="black" cx="265" cy="-243" rx="25" ry="11"/>
<text text-anchor="middle" x="265" y="-240.8" font-family="sans-serif" font-size="9.00">Floor</text>
</g>
<!-- v0&#45;&gt;v4 -->
<g id="edge4" class="edge"><title>v0&#45;&gt;v4</title>
<path fill="none" stroke="black" d="M194.036,-290.753C208.777,-281.041 231.972,-265.76 247.802,-255.33"/>
<polygon fill="black" stroke="black" points="252.059,-252.526 249.121,-257.156 249.971,-253.902 247.883,-255.277 247.883,-255.277 247.883,-255.277 249.971,-253.902 246.645,-253.398 252.059,-252.526 252.059,-252.526"/>
</g>
<!-- v2 -->
<g id="v2_Data" class="node"><title>v2</title>
<ellipse fill="none" stroke="black" cx="48" cy="-11" rx="21.5" ry="11"/>
<text text-anchor="middle" x="48" y="-8.8" font-family="sans-serif" font-size="9.00">Data</text>
</g>
<!-- v1&#45;&gt;v2 -->
<g id="edge5" class="edge"><title>v1&#45;&gt;v2</title>
<path fill="none" stroke="black" d="M58.6759,-57.9883C56.704,-49.4941 53.843,-37.1697 51.5789,-27.4169"/>
<polygon fill="black" stroke="black" points="50.392,-22.3039 53.7144,-26.6655 50.9573,-24.7391 51.5227,-27.1744 51.5227,-27.1744 51.5227,-27.1744 50.9573,-24.7391 49.331,-27.6832 50.392,-22.3039 50.392,-22.3039"/>
</g>
<!-- v10 -->
<g id="v10_SmartLight" class="node"><title>v10</title>
<ellipse fill="none" stroke="black" cx="701" cy="-11" rx="43" ry="11"/>
<text text-anchor="middle" x="701" y="-8.8" font-family="sans-serif" font-size="9.00">SmartLight</text>
</g>
<!-- v1&#45;&gt;v10 -->
<g id="edge24" class="edge"><title>v1&#45;&gt;v10</title>
<path fill="none" stroke="green" d="M110.818,-62.5805C125.961,-61.0096 142.654,-59.3545 158,-58 375.519,-38.8014 431.475,-50.2885 648,-22 654.964,-21.0902 662.396,-19.8552 669.425,-18.5636"/>
</g>
<!-- v11 -->
<g id="v11_HVAC" class="node"><title>v11</title>
<ellipse fill="none" stroke="black" cx="430" cy="-11" rx="21.5" ry="11"/>
<text text-anchor="middle" x="430" y="-8.8" font-family="sans-serif" font-size="9.00">HVAC</text>
</g>
<!-- v1&#45;&gt;v11 -->
<g id="edge25" class="edge"><title>v1&#45;&gt;v11</title>
<path fill="none" stroke="green" d="M109.981,-62.4154C189.958,-53.1147 345.079,-34.2647 399,-22 403.632,-20.9464 408.562,-19.5076 413.095,-18.0498"/>
</g>
<!-- v12 -->
<g id="v12_FireAlarm" class="node"><title>v12</title>
<ellipse fill="none" stroke="black" cx="600" cy="-11" rx="39.5" ry="11"/>
<text text-anchor="middle" x="600" y="-8.8" font-family="sans-serif" font-size="9.00">FireAlarm</text>
</g>
<!-- v1&#45;&gt;v12 -->
<g id="edge26" class="edge"><title>v1&#45;&gt;v12</title>
<path fill="none" stroke="green" d="M111.334,-62.701C126.344,-61.1504 142.835,-59.4762 158,-58 332.573,-41.0063 377.477,-47.5749 551,-22 557.442,-21.0505 564.315,-19.7991 570.814,-18.5041"/>
</g>
<!-- v19 -->
<g id="v19_SmartLight" class="node"><title>v19</title>
<ellipse fill="none" stroke="black" cx="131" cy="-11" rx="43" ry="11"/>
<text text-anchor="middle" x="131" y="-8.8" font-family="sans-serif" font-size="9.00">SmartLight</text>
</g>
<!-- v1&#45;&gt;v19 -->
<g id="edge27" class="edge"><title>v1&#45;&gt;v19</title>
<path fill="none" stroke="green" d="M73.5146,-57.9883C86.2559,-47.7952 105.892,-32.0867 118.594,-21.925"/>
</g>
<!-- v21 -->
<g id="v21_SmartLight" class="node"><title>v21</title>
<ellipse fill="none" stroke="black" cx="347" cy="-11" rx="43" ry="11"/>
<text text-anchor="middle" x="347" y="-8.8" font-family="sans-serif" font-size="9.00">SmartLight</text>
</g>
<!-- v1&#45;&gt;v21 -->
<g id="edge28" class="edge"><title>v1&#45;&gt;v21</title>
<path fill="none" stroke="green" d="M99.5712,-60.4476C156.443,-49.3118 261.77,-28.6884 314.768,-18.3112"/>
</g>
<!-- v22 -->
<g id="v22_Workstation" class="node"><title>v22</title>
<ellipse fill="none" stroke="black" cx="239" cy="-11" rx="47" ry="11"/>
<text text-anchor="middle" x="239" y="-8.8" font-family="sans-serif" font-size="9.00">Workstation</text>
</g>
<!-- v1&#45;&gt;v22 -->
<g id="edge29" class="edge"><title>v1&#45;&gt;v22</title>
<path fill="none" stroke="green" d="M89.2046,-59.1266C123.221,-48.4249 179.934,-30.5826 212.954,-20.1942"/>
</g>
<!-- v13 -->
<g id="v13_ExitRoom" class="node"><title>v13</title>
<ellipse fill="none" stroke="black" cx="882" cy="-11" rx="36" ry="11"/>
<text text-anchor="middle" x="882" y="-8.8" font-family="sans-serif" font-size="9.00">ExitRoom</text>
</g>
<!-- v3&#45;&gt;v13 -->
<g id="edge6" class="edge"><title>v3&#45;&gt;v13</title>
<path fill="none" stroke="black" d="M1093.45,-60.3309C1046.28,-49.5504 960.952,-30.0462 914.412,-19.4085"/>
<polygon fill="black" stroke="black" points="909.483,-18.2818 914.859,-17.2026 911.92,-18.8389 914.357,-19.396 914.357,-19.396 914.357,-19.396 911.92,-18.8389 913.856,-21.5895 909.483,-18.2818 909.483,-18.2818"/>
</g>
<!-- v14 -->
<g id="v14_ConnectDevice" class="node"><title>v14</title>
<ellipse fill="none" stroke="black" cx="990" cy="-11" rx="54" ry="11"/>
<text text-anchor="middle" x="990" y="-8.8" font-family="sans-serif" font-size="9.00">ConnectDevice</text>
</g>
<!-- v3&#45;&gt;v14 -->
<g id="edge7" class="edge"><title>v3&#45;&gt;v14</title>
<path fill="none" stroke="black" d="M1104.68,-58.878C1080.7,-49.0746 1042.58,-33.4921 1016.94,-23.0129"/>
<polygon fill="black" stroke="black" points="1012.31,-21.1181 1017.79,-20.9273 1014.62,-22.0641 1016.94,-23.01 1016.94,-23.01 1016.94,-23.01 1014.62,-22.0641 1016.08,-25.0927 1012.31,-21.1181 1012.31,-21.1181"/>
</g>
<!-- v15 -->
<g id="v15_DisconnectDevice" class="node"><title>v15</title>
<ellipse fill="none" stroke="black" cx="1127" cy="-11" rx="65" ry="11"/>
<text text-anchor="middle" x="1127" y="-8.8" font-family="sans-serif" font-size="9.00">DisconnectDevice</text>
</g>
<!-- v3&#45;&gt;v15 -->
<g id="edge8" class="edge"><title>v3&#45;&gt;v15</title>
<path fill="none" stroke="black" d="M1127,-57.9883C1127,-49.4941 1127,-37.1697 1127,-27.4169"/>
<polygon fill="black" stroke="black" points="1127,-22.3039 1129.25,-27.3038 1127,-24.8039 1127,-27.3039 1127,-27.3039 1127,-27.3039 1127,-24.8039 1124.75,-27.3039 1127,-22.3039 1127,-22.3039"/>
</g>
<!-- v16 -->
<g id="v16_CollectData" class="node"><title>v16</title>
<ellipse fill="none" stroke="black" cx="1257" cy="-11" rx="47" ry="11"/>
<text text-anchor="middle" x="1257" y="-8.8" font-family="sans-serif" font-size="9.00">CollectData</text>
</g>
<!-- v3&#45;&gt;v16 -->
<g id="edge9" class="edge"><title>v3&#45;&gt;v16</title>
<path fill="none" stroke="black" d="M1148.18,-58.878C1170.97,-49.0572 1207.24,-33.4367 1231.56,-22.957"/>
<polygon fill="black" stroke="black" points="1236.26,-20.9329 1232.56,-24.9775 1233.97,-21.922 1231.67,-22.911 1231.67,-22.911 1231.67,-22.911 1233.97,-21.922 1230.78,-20.8446 1236.26,-20.9329 1236.26,-20.9329"/>
</g>
<!-- v17 -->
<g id="v17_SendSoftware" class="node"><title>v17</title>
<ellipse fill="none" stroke="black" cx="1373" cy="-11" rx="50.5" ry="11"/>
<text text-anchor="middle" x="1373" y="-8.8" font-family="sans-serif" font-size="9.00">SendSoftware</text>
</g>
<!-- v3&#45;&gt;v17 -->
<g id="edge10" class="edge"><title>v3&#45;&gt;v17</title>
<path fill="none" stroke="black" d="M1160.69,-60.3309C1206.27,-49.9551 1287.35,-31.498 1335.03,-20.6428"/>
<polygon fill="black" stroke="black" points="1340.11,-19.4873 1335.73,-22.791 1337.67,-20.0422 1335.23,-20.5972 1335.23,-20.5972 1335.23,-20.5972 1337.67,-20.0422 1334.73,-18.4033 1340.11,-19.4873 1340.11,-19.4873"/>
</g>
<!-- v5 -->
<g id="v5_Hallway" class="node"><title>v5</title>
<ellipse fill="none" stroke="black" cx="795" cy="-11" rx="32.5" ry="11"/>
<text text-anchor="middle" x="795" y="-8.8" font-family="sans-serif" font-size="9.00">Hallway</text>
</g>
<!-- v4&#45;&gt;v5 -->
<g id="edge11" class="edge"><title>v4&#45;&gt;v5</title>
<path fill="none" stroke="black" d="M289.566,-240.933C336.276,-238.188 440.424,-228.612 521,-196 630.669,-151.614 741.674,-59.1308 780.518,-25.0102"/>
<polygon fill="black" stroke="black" points="784.473,-21.518 782.214,-26.5141 782.599,-23.1727 780.725,-24.8274 780.725,-24.8274 780.725,-24.8274 782.599,-23.1727 779.236,-23.1408 784.473,-21.518 784.473,-21.518"/>
</g>
<!-- v6 -->
<g id="v6_Room" class="node"><title>v6</title>
<ellipse fill="none" stroke="black" cx="491" cy="-185" rx="21.5" ry="11"/>
<text text-anchor="middle" x="491" y="-182.8" font-family="sans-serif" font-size="9.00">Room</text>
</g>
<!-- v4&#45;&gt;v6 -->
<g id="edge12" class="edge"><title>v4&#45;&gt;v6</title>
<path fill="none" stroke="black" d="M285.856,-236.832C328.049,-226.377 423.274,-202.782 467.548,-191.811"/>
<polygon fill="black" stroke="black" points="472.433,-190.601 468.121,-193.987 470.007,-191.202 467.58,-191.803 467.58,-191.803 467.58,-191.803 470.007,-191.202 467.039,-189.619 472.433,-190.601 472.433,-190.601"/>
</g>
<!-- v18 -->
<g id="v18_Room" class="node"><title>v18</title>
<ellipse fill="none" stroke="black" cx="189" cy="-69" rx="21.5" ry="11"/>
<text text-anchor="middle" x="189" y="-66.8" font-family="sans-serif" font-size="9.00">Room</text>
</g>
<!-- v4&#45;&gt;v18 -->
<g id="edge13" class="edge"><title>v4&#45;&gt;v18</title>
<path fill="none" stroke="black" d="M260.585,-232.009C247.783,-203.034 210.592,-118.867 195.489,-84.6863"/>
<polygon fill="black" stroke="black" points="193.427,-80.0185 197.506,-83.6825 194.437,-82.3052 195.448,-84.5919 195.448,-84.5919 195.448,-84.5919 194.437,-82.3052 193.39,-85.5013 193.427,-80.0185 193.427,-80.0185"/>
</g>
<!-- v20 -->
<g id="v20_Room" class="node"><title>v20</title>
<ellipse fill="none" stroke="black" cx="265" cy="-69" rx="21.5" ry="11"/>
<text text-anchor="middle" x="265" y="-66.8" font-family="sans-serif" font-size="9.00">Room</text>
</g>
<!-- v4&#45;&gt;v20 -->
<g id="edge14" class="edge"><title>v4&#45;&gt;v20</title>
<path fill="none" stroke="black" d="M265,-231.756C265,-202.786 265,-120.136 265,-85.5335"/>
<polygon fill="black" stroke="black" points="265,-80.4081 267.25,-85.408 265,-82.9081 265,-85.4081 265,-85.4081 265,-85.4081 265,-82.9081 262.75,-85.4081 265,-80.4081 265,-80.4081"/>
</g>
<!-- v5&#45;&gt;v6 -->
<g id="edge30" class="edge"><title>v5&#45;&gt;v6</title>
<path fill="none" stroke="green" d="M770.206,-18.2947C764.57,-19.6163 758.595,-20.9316 753,-22 643.167,-42.9709 603.297,-6.58719 504,-58 472.453,-74.3341 462.158,-83.0017 449,-116 445.378,-125.082 445.464,-128.884 449,-138 455.1,-153.729 469.362,-167.369 479.573,-175.626"/>
</g>
<!-- v5&#45;&gt;v18 -->
<g id="edge31" class="edge"><title>v5&#45;&gt;v18</title>
<path fill="none" stroke="green" d="M770.704,-18.5009C764.936,-19.8446 758.78,-21.1177 753,-22 524.427,-56.8957 462.829,-24.828 234,-58 225.288,-59.263 215.754,-61.2869 207.714,-63.1846"/>
</g>
<!-- v5&#45;&gt;v20 -->
<g id="edge32" class="edge"><title>v5&#45;&gt;v20</title>
<path fill="none" stroke="green" d="M770.694,-18.4379C764.927,-19.7842 758.773,-21.0742 753,-22 565.389,-52.0888 515.593,-34.8557 327,-58 312.823,-59.7398 296.921,-62.3175 284.77,-64.4201"/>
</g>
<!-- v7 -->
<g id="v7_Visitor" class="node"><title>v7</title>
<ellipse fill="none" stroke="black" cx="491" cy="-127" rx="32.5" ry="11"/>
<text text-anchor="middle" x="491" y="-124.8" font-family="sans-serif" font-size="9.00">Visitor</text>
</g>
<!-- v6&#45;&gt;v7 -->
<g id="edge15" class="edge"><title>v6&#45;&gt;v7</title>
<path fill="none" stroke="black" d="M491,-173.988C491,-165.494 491,-153.17 491,-143.417"/>
<polygon fill="black" stroke="black" points="491,-138.304 493.25,-143.304 491,-140.804 491,-143.304 491,-143.304 491,-143.304 491,-140.804 488.75,-143.304 491,-138.304 491,-138.304"/>
</g>
<!-- v6&#45;&gt;v10 -->
<g id="edge16" class="edge"><title>v6&#45;&gt;v10</title>
<path fill="none" stroke="black" d="M506.246,-176.977C523.29,-168.786 551.337,-154.277 573,-138 620.132,-102.586 667.462,-50.7575 688.99,-26.0749"/>
<polygon fill="black" stroke="black" points="692.462,-22.0721 690.885,-27.3235 690.824,-23.9606 689.186,-25.8491 689.186,-25.8491 689.186,-25.8491 690.824,-23.9606 687.486,-24.3747 692.462,-22.0721 692.462,-22.0721"/>
</g>
<!-- v6&#45;&gt;v11 -->
<g id="edge17" class="edge"><title>v6&#45;&gt;v11</title>
<path fill="none" stroke="black" d="M480.104,-175.398C470.267,-166.979 456.259,-153.228 449,-138 431.389,-101.055 429.309,-51.7024 429.51,-27.1715"/>
<polygon fill="black" stroke="black" points="429.589,-22.0477 431.762,-27.0818 429.55,-24.5474 429.512,-27.0471 429.512,-27.0471 429.512,-27.0471 429.55,-24.5474 427.262,-27.0123 429.589,-22.0477 429.589,-22.0477"/>
</g>
<!-- v6&#45;&gt;v12 -->
<g id="edge18" class="edge"><title>v6&#45;&gt;v12</title>
<path fill="none" stroke="black" d="M504.344,-176.277C517.534,-168.115 537.629,-154.195 551,-138 578.902,-104.205 592.169,-52.6788 597.307,-27.2646"/>
<polygon fill="black" stroke="black" points="598.282,-22.2536 599.535,-27.5914 597.804,-24.7076 597.327,-27.1616 597.327,-27.1616 597.327,-27.1616 597.804,-24.7076 595.118,-26.7317 598.282,-22.2536 598.282,-22.2536"/>
</g>
<!-- v7&#45;&gt;v8 -->
<g id="edge19" class="edge"><title>v7&#45;&gt;v8</title>
<path fill="none" stroke="black" d="M499.884,-116.246C508.147,-107.172 520.535,-93.5697 529.738,-83.4636"/>
<polygon fill="black" stroke="black" points="533.218,-79.6427 531.515,-84.8544 531.535,-81.491 529.852,-83.3394 529.852,-83.3394 529.852,-83.3394 531.535,-81.491 528.188,-81.8244 533.218,-79.6427 533.218,-79.6427"/>
</g>
<!-- v9 -->
<g id="v9_Software" class="node"><title>v9</title>
<ellipse fill="none" stroke="black" cx="506" cy="-11" rx="36" ry="11"/>
<text text-anchor="middle" x="506" y="-8.8" font-family="sans-serif" font-size="9.00">Software</text>
</g>
<!-- v8&#45;&gt;v9 -->
<g id="edge20" class="edge"><title>v8&#45;&gt;v9</title>
<path fill="none" stroke="black" d="M535.729,-58.2455C530.069,-49.4409 521.668,-36.373 515.239,-26.3724"/>
<polygon fill="black" stroke="black" points="512.441,-22.0198 517.038,-25.0089 513.793,-24.1227 515.145,-26.2257 515.145,-26.2257 515.145,-26.2257 513.793,-24.1227 513.252,-27.4424 512.441,-22.0198 512.441,-22.0198"/>
</g>
<!-- v18&#45;&gt;v19 -->
<g id="edge21" class="edge"><title>v18&#45;&gt;v19</title>
<path fill="none" stroke="black" d="M179.681,-59.0026C170.327,-49.9708 155.799,-35.9443 145.047,-25.5628"/>
<polygon fill="black" stroke="black" points="141.273,-21.919 146.433,-23.7733 143.072,-23.6555 144.87,-25.392 144.87,-25.392 144.87,-25.392 143.072,-23.6555 143.307,-27.0106 141.273,-21.919 141.273,-21.919"/>
</g>
<!-- v20&#45;&gt;v21 -->
<g id="edge22" class="edge"><title>v20&#45;&gt;v21</title>
<path fill="none" stroke="black" d="M277.099,-59.737C290.782,-50.3929 313.201,-35.082 328.953,-24.325"/>
<polygon fill="black" stroke="black" points="333.206,-21.4205 330.346,-26.0984 331.141,-22.8304 329.077,-24.2404 329.077,-24.2404 329.077,-24.2404 331.141,-22.8304 327.808,-22.3823 333.206,-21.4205 333.206,-21.4205"/>
</g>
<!-- v20&#45;&gt;v22 -->
<g id="edge23" class="edge"><title>v20&#45;&gt;v22</title>
<path fill="none" stroke="black" d="M260.471,-58.2455C256.42,-49.5202 250.425,-36.6082 245.799,-26.6435"/>
<polygon fill="black" stroke="black" points="243.652,-22.0198 247.798,-25.6073 244.705,-24.2873 245.758,-26.5548 245.758,-26.5548 245.758,-26.5548 244.705,-24.2873 243.717,-27.5023 243.652,-22.0198 243.652,-22.0198"/>
</g>
</g>
</svg>
