<?xml version="1.0" encoding="UTF-8" standalone="no"?>
<?xml-stylesheet href="style.css" type="text/css"?>
<!DOCTYPE svg PUBLIC "-//W3C//DTD SVG 1.1//EN"
 "http://www.w3.org/Graphics/SVG/1.1/DTD/svg11.dtd">
<!-- Generated by graphviz version 2.38.0 (20140413.2041)
 -->
<!-- Title: 51.svg Pages: 1 -->
<svg width="1040pt" height="374pt"
 viewBox="0.00 0.00 1039.50 374.00" xmlns="http://www.w3.org/2000/svg" xmlns:xlink="http://www.w3.org/1999/xlink">
<g id="graph0" class="graph" transform="scale(1 1) rotate(0) translate(4 370)">
<title>51.svg</title>
<polygon fill="white" stroke="none" points="-4,4 -4,-370 1035.5,-370 1035.5,4 -4,4"/>
<!-- r0 -->
<g id="node1" class="node"><title>r0</title>
<polygon fill="none" stroke="black" stroke-dasharray="5,2" points="544,-366 521,-366 521,-348 544,-348 544,-366"/>
<text text-anchor="middle" x="532.5" y="-354.8" font-family="serif" font-size="9.00">0</text>
</g>
<!-- v0 -->
<g id="v0_Building" class="node"><title>v0</title>
<ellipse fill="none" stroke="black" cx="532.5" cy="-301" rx="36" ry="11"/>
<text text-anchor="middle" x="532.5" y="-298.8" font-family="sans-serif" font-size="9.00">Building</text>
</g>
<!-- r0&#45;&gt;v0 -->
<g id="edge1" class="edge"><title>r0&#45;&gt;v0</title>
<path fill="none" stroke="black" d="M532.5,-347.562C532.5,-339.453 532.5,-327.014 532.5,-317.181"/>
<polygon fill="black" stroke="black" points="532.5,-312.03 534.75,-317.03 532.5,-314.53 532.5,-317.03 532.5,-317.03 532.5,-317.03 532.5,-314.53 530.25,-317.03 532.5,-312.03 532.5,-312.03"/>
</g>
<!-- r1 -->
<g id="node2" class="node"><title>r1</title>
<polygon fill="none" stroke="black" stroke-dasharray="5,2" points="945,-366 922,-366 922,-348 945,-348 945,-366"/>
<text text-anchor="middle" x="933.5" y="-354.8" font-family="serif" font-size="9.00">1</text>
</g>
<!-- v11 -->
<g id="v11_RulesKeywords" class="node"><title>v11</title>
<ellipse fill="none" stroke="black" cx="933.5" cy="-69" rx="54" ry="11"/>
<text text-anchor="middle" x="933.5" y="-66.8" font-family="sans-serif" font-size="9.00">RulesKeywords</text>
</g>
<!-- r1&#45;&gt;v11 -->
<g id="edge2" class="edge"><title>r1&#45;&gt;v11</title>
<path fill="none" stroke="black" d="M933.5,-347.849C933.5,-329.373 933.5,-282.889 933.5,-244 933.5,-244 933.5,-244 933.5,-184 933.5,-148.604 933.5,-107.026 933.5,-85.1783"/>
<polygon fill="black" stroke="black" points="933.5,-80.0648 935.75,-85.0648 933.5,-82.5648 933.5,-85.0648 933.5,-85.0648 933.5,-85.0648 933.5,-82.5648 931.25,-85.0648 933.5,-80.0648 933.5,-80.0648"/>
</g>
<!-- e3 -->
<g id="node3" class="node"><title>e3</title>
</g>
<!-- v7 -->
<g id="v7_SmartLight" class="node"><title>v7</title>
<ellipse fill="none" stroke="black" cx="432.5" cy="-11" rx="43" ry="11"/>
<text text-anchor="middle" x="432.5" y="-8.8" font-family="sans-serif" font-size="9.00">SmartLight</text>
</g>
<!-- e3&#45;&gt;v7 -->
<g id="edge25" class="edge"><title>e3&#45;&gt;v7</title>
<path fill="none" stroke="green" d="M432.5,-64.1674C432.5,-55.5862 432.5,-34.5957 432.5,-22.0117"/>
<polygon fill="green" stroke="green" points="436,-67.3001 429,-67.2999 429,-65.8999 436,-65.9001 436,-67.3001"/>
<polyline fill="none" stroke="green" points="432.5,-68 432.5,-64.5 "/>
</g>
<!-- v1 -->
<g id="v1_Floor" class="node"><title>v1</title>
<ellipse fill="none" stroke="black" cx="384.5" cy="-243" rx="25" ry="11"/>
<text text-anchor="middle" x="384.5" y="-240.8" font-family="sans-serif" font-size="9.00">Floor</text>
</g>
<!-- v0&#45;&gt;v1 -->
<g id="edge3" class="edge"><title>v0&#45;&gt;v1</title>
<path fill="none" stroke="black" d="M511.295,-291.977C483.641,-281.513 435.462,-263.283 407.125,-252.561"/>
<polygon fill="black" stroke="black" points="402.414,-250.778 407.887,-250.444 404.753,-251.663 407.091,-252.548 407.091,-252.548 407.091,-252.548 404.753,-251.663 406.295,-254.652 402.414,-250.778 402.414,-250.778"/>
</g>
<!-- v10 -->
<g id="v10_InstallationBus" class="node"><title>v10</title>
<ellipse fill="none" stroke="black" cx="736.5" cy="-69" rx="61" ry="11"/>
<text text-anchor="middle" x="736.5" y="-66.8" font-family="sans-serif" font-size="9.00">InstallationBus</text>
</g>
<!-- v0&#45;&gt;v10 -->
<g id="edge4" class="edge"><title>v0&#45;&gt;v10</title>
<path fill="none" stroke="black" d="M541.266,-290.117C573.625,-253.633 686.437,-126.443 724.129,-83.9473"/>
<polygon fill="black" stroke="black" points="727.537,-80.105 725.903,-85.3387 725.878,-81.9754 724.219,-83.8457 724.219,-83.8457 724.219,-83.8457 725.878,-81.9754 722.536,-82.3527 727.537,-80.105 727.537,-80.105"/>
</g>
<!-- v2 -->
<g id="v2_Room" class="node"><title>v2</title>
<ellipse fill="none" stroke="black" cx="558.5" cy="-127" rx="21.5" ry="11"/>
<text text-anchor="middle" x="558.5" y="-124.8" font-family="sans-serif" font-size="9.00">Room</text>
</g>
<!-- v1&#45;&gt;v2 -->
<g id="edge5" class="edge"><title>v1&#45;&gt;v2</title>
<path fill="none" stroke="black" d="M397.578,-233.431C428.741,-213.014 507.344,-161.516 541.837,-138.917"/>
<polygon fill="black" stroke="black" points="546.208,-136.053 543.259,-140.675 544.117,-137.423 542.026,-138.793 542.026,-138.793 542.026,-138.793 544.117,-137.423 540.793,-136.911 546.208,-136.053 546.208,-136.053"/>
</g>
<!-- v3 -->
<g id="v3_Room" class="node"><title>v3</title>
<ellipse fill="none" stroke="black" cx="384.5" cy="-185" rx="21.5" ry="11"/>
<text text-anchor="middle" x="384.5" y="-182.8" font-family="sans-serif" font-size="9.00">Room</text>
</g>
<!-- v1&#45;&gt;v3 -->
<g id="edge6" class="edge"><title>v1&#45;&gt;v3</title>
<path fill="none" stroke="black" d="M384.5,-231.988C384.5,-223.494 384.5,-211.17 384.5,-201.417"/>
<polygon fill="black" stroke="black" points="384.5,-196.304 386.75,-201.304 384.5,-198.804 384.5,-201.304 384.5,-201.304 384.5,-201.304 384.5,-198.804 382.25,-201.304 384.5,-196.304 384.5,-196.304"/>
</g>
<!-- v13 -->
<g id="v13_Hallway" class="node"><title>v13</title>
<ellipse fill="none" stroke="black" cx="32.5" cy="-11" rx="32.5" ry="11"/>
<text text-anchor="middle" x="32.5" y="-8.8" font-family="sans-serif" font-size="9.00">Hallway</text>
</g>
<!-- v1&#45;&gt;v13 -->
<g id="edge7" class="edge"><title>v1&#45;&gt;v13</title>
<path fill="none" stroke="black" d="M367.617,-234.627C348.653,-226.124 317.17,-211.335 291.5,-196 194.873,-138.274 87.7227,-55.6624 48.2235,-24.5187"/>
<polygon fill="black" stroke="black" points="44.179,-21.323 49.4971,-22.6575 46.1406,-22.873 48.1022,-24.4229 48.1022,-24.4229 48.1022,-24.4229 46.1406,-22.873 46.7073,-26.1883 44.179,-21.323 44.179,-21.323"/>
</g>
<!-- v18 -->
<g id="v18_Room" class="node"><title>v18</title>
<ellipse fill="none" stroke="black" cx="238.5" cy="-69" rx="21.5" ry="11"/>
<text text-anchor="middle" x="238.5" y="-66.8" font-family="sans-serif" font-size="9.00">Room</text>
</g>
<!-- v1&#45;&gt;v18 -->
<g id="edge8" class="edge"><title>v1&#45;&gt;v18</title>
<path fill="none" stroke="black" d="M370.721,-233.764C345.701,-218.14 292.607,-181.811 262.5,-138 251.259,-121.643 244.737,-99.4675 241.4,-84.9525"/>
<polygon fill="black" stroke="black" points="240.311,-79.9765 243.578,-84.3803 240.846,-82.4188 241.38,-84.861 241.38,-84.861 241.38,-84.861 240.846,-82.4188 239.182,-85.3418 240.311,-79.9765 240.311,-79.9765"/>
</g>
<!-- v8 -->
<g id="v8_HVAC" class="node"><title>v8</title>
<ellipse fill="none" stroke="black" cx="583.5" cy="-69" rx="21.5" ry="11"/>
<text text-anchor="middle" x="583.5" y="-66.8" font-family="sans-serif" font-size="9.00">HVAC</text>
</g>
<!-- v2&#45;&gt;v8 -->
<g id="edge9" class="edge"><title>v2&#45;&gt;v8</title>
<path fill="none" stroke="black" d="M562.969,-115.988C566.88,-107.229 572.609,-94.3956 577.022,-84.5103"/>
<polygon fill="black" stroke="black" points="579.069,-79.925 579.085,-85.4079 578.05,-82.2079 577.031,-84.4907 577.031,-84.4907 577.031,-84.4907 578.05,-82.2079 574.976,-83.5735 579.069,-79.925 579.069,-79.925"/>
</g>
<!-- v2&#45;&gt;v13 -->
<g id="edge22" class="edge"><title>v2&#45;&gt;v13</title>
<path fill="none" stroke="green" d="M537.197,-124.99C481.952,-121.992 329.857,-111.303 207.5,-80 147.818,-64.7311 80.8747,-34.9437 49.9222,-20.3977"/>
</g>
<!-- v16 -->
<g id="v16_SmartLight" class="node"><title>v16</title>
<ellipse fill="none" stroke="black" cx="724.5" cy="-11" rx="43" ry="11"/>
<text text-anchor="middle" x="724.5" y="-8.8" font-family="sans-serif" font-size="9.00">SmartLight</text>
</g>
<!-- v2&#45;&gt;v16 -->
<g id="edge10" class="edge"><title>v2&#45;&gt;v16</title>
<path fill="none" stroke="black" d="M570.438,-117.801C599.039,-98.1599 671.645,-48.2977 705.975,-24.7218"/>
<polygon fill="black" stroke="black" points="710.36,-21.7103 707.512,-26.3957 708.3,-23.1256 706.239,-24.5409 706.239,-24.5409 706.239,-24.5409 708.3,-23.1256 704.965,-22.6862 710.36,-21.7103 710.36,-21.7103"/>
</g>
<!-- v17 -->
<g id="v17_FireAlarm" class="node"><title>v17</title>
<ellipse fill="none" stroke="black" cx="533.5" cy="-11" rx="39.5" ry="11"/>
<text text-anchor="middle" x="533.5" y="-8.8" font-family="sans-serif" font-size="9.00">FireAlarm</text>
</g>
<!-- v2&#45;&gt;v17 -->
<g id="edge11" class="edge"><title>v2&#45;&gt;v17</title>
<path fill="none" stroke="black" d="M556.281,-115.883C551.882,-95.8216 542.03,-50.899 536.842,-27.2409"/>
<polygon fill="black" stroke="black" points="535.75,-22.2579 539.018,-26.6599 536.285,-24.6999 536.821,-27.1419 536.821,-27.1419 536.821,-27.1419 536.285,-24.6999 534.623,-27.6239 535.75,-22.2579 535.75,-22.2579"/>
</g>
<!-- v4 -->
<g id="v4_Visitor" class="node"><title>v4</title>
<ellipse fill="none" stroke="black" cx="304.5" cy="-127" rx="32.5" ry="11"/>
<text text-anchor="middle" x="304.5" y="-124.8" font-family="sans-serif" font-size="9.00">Visitor</text>
</g>
<!-- v3&#45;&gt;v4 -->
<g id="edge12" class="edge"><title>v3&#45;&gt;v4</title>
<path fill="none" stroke="black" d="M372.696,-175.737C359.268,-166.337 337.214,-150.9 321.833,-140.133"/>
<polygon fill="black" stroke="black" points="317.685,-137.23 323.072,-138.254 319.733,-138.663 321.781,-140.097 321.781,-140.097 321.781,-140.097 319.733,-138.663 320.491,-141.94 317.685,-137.23 317.685,-137.23"/>
</g>
<!-- v3&#45;&gt;v7 -->
<g id="edge13" class="edge"><title>v3&#45;&gt;v7</title>
<path fill="none" stroke="black" d="M387.288,-174.009C395.341,-145.153 418.67,-61.5561 428.284,-27.1091"/>
<polygon fill="black" stroke="black" points="429.704,-22.0185 430.527,-27.4393 429.032,-24.4265 428.36,-26.8345 428.36,-26.8345 428.36,-26.8345 429.032,-24.4265 426.193,-26.2296 429.704,-22.0185 429.704,-22.0185"/>
</g>
<!-- v3&#45;&gt;v13 -->
<g id="edge23" class="edge"><title>v3&#45;&gt;v13</title>
<path fill="none" stroke="green" d="M394.672,-175.007C418.67,-152.752 474.399,-94.2844 441.5,-58 386.456,2.70784 155.324,-35.5215 74.5,-22 68.7336,-21.0353 62.5821,-19.7301 56.8154,-18.3815"/>
</g>
<!-- v5 -->
<g id="v5_Laptop" class="node"><title>v5</title>
<ellipse fill="none" stroke="black" cx="321.5" cy="-69" rx="29" ry="11"/>
<text text-anchor="middle" x="321.5" y="-66.8" font-family="sans-serif" font-size="9.00">Laptop</text>
</g>
<!-- v4&#45;&gt;v5 -->
<g id="edge14" class="edge"><title>v4&#45;&gt;v5</title>
<path fill="none" stroke="black" d="M307.539,-115.988C310.142,-107.415 313.929,-94.9411 316.902,-85.1466"/>
<polygon fill="black" stroke="black" points="318.372,-80.3039 319.073,-85.7419 317.646,-82.6961 316.92,-85.0883 316.92,-85.0883 316.92,-85.0883 317.646,-82.6961 314.767,-84.4347 318.372,-80.3039 318.372,-80.3039"/>
</g>
<!-- v6 -->
<g id="v6_Software" class="node"><title>v6</title>
<ellipse fill="none" stroke="black" cx="335.5" cy="-11" rx="36" ry="11"/>
<text text-anchor="middle" x="335.5" y="-8.8" font-family="sans-serif" font-size="9.00">Software</text>
</g>
<!-- v5&#45;&gt;v6 -->
<g id="edge15" class="edge"><title>v5&#45;&gt;v6</title>
<path fill="none" stroke="black" d="M324.003,-57.9883C326.126,-49.4941 329.208,-37.1697 331.646,-27.4169"/>
<polygon fill="black" stroke="black" points="332.924,-22.3039 333.894,-27.7003 332.318,-24.7292 331.711,-27.1546 331.711,-27.1546 331.711,-27.1546 332.318,-24.7292 329.528,-26.6089 332.924,-22.3039 332.924,-22.3039"/>
</g>
<!-- v5&#45;&gt;v10 -->
<g id="edge24" class="edge"><title>v5&#45;&gt;v10</title>
<path fill="none" stroke="green" d="M343.084,-76.4624C365.028,-83.6258 400.163,-93.9385 431.5,-98 522.737,-109.825 547.45,-111.189 638.5,-98 663.435,-94.388 690.86,-85.8604 710.341,-78.9818"/>
</g>
<!-- v9 -->
<g id="v9_Software" class="node"><title>v9</title>
<ellipse fill="none" stroke="black" cx="627.5" cy="-11" rx="36" ry="11"/>
<text text-anchor="middle" x="627.5" y="-8.8" font-family="sans-serif" font-size="9.00">Software</text>
</g>
<!-- v8&#45;&gt;v9 -->
<g id="edge16" class="edge"><title>v8&#45;&gt;v9</title>
<path fill="none" stroke="black" d="M590.964,-58.5004C597.915,-49.6537 608.37,-36.3472 616.318,-26.2321"/>
<polygon fill="black" stroke="black" points="619.553,-22.1148 618.233,-27.4366 618.008,-24.0806 616.463,-26.0464 616.463,-26.0464 616.463,-26.0464 618.008,-24.0806 614.694,-24.6563 619.553,-22.1148 619.553,-22.1148"/>
</g>
<!-- v8&#45;&gt;v10 -->
<g id="edge26" class="edge"><title>v8&#45;&gt;v10</title>
<path fill="none" stroke="green" d="M605.016,-69C628.471,-69 651.925,-69 675.38,-69"/>
</g>
<!-- v12 -->
<g id="v12_Data" class="node"><title>v12</title>
<ellipse fill="none" stroke="black" cx="807.5" cy="-11" rx="21.5" ry="11"/>
<text text-anchor="middle" x="807.5" y="-8.8" font-family="sans-serif" font-size="9.00">Data</text>
</g>
<!-- v10&#45;&gt;v12 -->
<g id="edge17" class="edge"><title>v10&#45;&gt;v12</title>
<path fill="none" stroke="black" d="M749.193,-57.9883C761.234,-48.4913 779.346,-34.2063 792.183,-24.0808"/>
<polygon fill="black" stroke="black" points="796.318,-20.8193 793.786,-25.6824 794.355,-22.3675 792.393,-23.9158 792.393,-23.9158 792.393,-23.9158 794.355,-22.3675 790.999,-22.1491 796.318,-20.8193 796.318,-20.8193"/>
</g>
<!-- v10&#45;&gt;v16 -->
<g id="edge27" class="edge"><title>v10&#45;&gt;v16</title>
<path fill="none" stroke="green" d="M734.355,-57.9883C732.197,-47.9211 728.887,-32.4737 726.708,-22.3039"/>
</g>
<!-- v10&#45;&gt;v17 -->
<g id="edge28" class="edge"><title>v10&#45;&gt;v17</title>
<path fill="none" stroke="green" d="M705.669,-59.4948C665.85,-48.5104 597.225,-29.5794 559.767,-19.2462"/>
</g>
<!-- v19 -->
<g id="v19_SmartLight" class="node"><title>v19</title>
<ellipse fill="none" stroke="black" cx="238.5" cy="-11" rx="43" ry="11"/>
<text text-anchor="middle" x="238.5" y="-8.8" font-family="sans-serif" font-size="9.00">SmartLight</text>
</g>
<!-- v10&#45;&gt;v19 -->
<g id="edge29" class="edge"><title>v10&#45;&gt;v19</title>
<path fill="none" stroke="green" d="M684.225,-63.1868C583.372,-53.8049 365.295,-33.0275 290.5,-22 283.861,-21.0211 276.78,-19.7874 270.048,-18.5237"/>
</g>
<!-- v20 -->
<g id="v20_Workstation" class="node"><title>v20</title>
<ellipse fill="none" stroke="black" cx="130.5" cy="-11" rx="47" ry="11"/>
<text text-anchor="middle" x="130.5" y="-8.8" font-family="sans-serif" font-size="9.00">Workstation</text>
</g>
<!-- v10&#45;&gt;v20 -->
<g id="edge30" class="edge"><title>v10&#45;&gt;v20</title>
<path fill="none" stroke="green" d="M683.153,-63.6043C547.415,-52.4111 198.733,-23.6002 186.5,-22 179.449,-21.0777 171.935,-19.8831 164.775,-18.6425"/>
</g>
<!-- v14 -->
<g id="v14_ExitRoom" class="node"><title>v14</title>
<ellipse fill="none" stroke="black" cx="883.5" cy="-11" rx="36" ry="11"/>
<text text-anchor="middle" x="883.5" y="-8.8" font-family="sans-serif" font-size="9.00">ExitRoom</text>
</g>
<!-- v11&#45;&gt;v14 -->
<g id="edge18" class="edge"><title>v11&#45;&gt;v14</title>
<path fill="none" stroke="black" d="M924.561,-57.9883C916.527,-48.9897 904.654,-35.6926 895.739,-25.7082"/>
<polygon fill="black" stroke="black" points="892.362,-21.925 897.37,-24.1562 894.027,-23.7899 895.692,-25.6547 895.692,-25.6547 895.692,-25.6547 894.027,-23.7899 894.013,-27.1533 892.362,-21.925 892.362,-21.925"/>
</g>
<!-- v15 -->
<g id="v15_CollectData" class="node"><title>v15</title>
<ellipse fill="none" stroke="black" cx="984.5" cy="-11" rx="47" ry="11"/>
<text text-anchor="middle" x="984.5" y="-8.8" font-family="sans-serif" font-size="9.00">CollectData</text>
</g>
<!-- v11&#45;&gt;v15 -->
<g id="edge19" class="edge"><title>v11&#45;&gt;v15</title>
<path fill="none" stroke="black" d="M942.618,-57.9883C950.813,-48.9897 962.923,-35.6926 972.016,-25.7082"/>
<polygon fill="black" stroke="black" points="975.461,-21.925 973.758,-27.1367 973.778,-23.7734 972.094,-25.6217 972.094,-25.6217 972.094,-25.6217 973.778,-23.7734 970.431,-24.1067 975.461,-21.925 975.461,-21.925"/>
</g>
<!-- v13&#45;&gt;v18 -->
<g id="edge31" class="edge"><title>v13&#45;&gt;v18</title>
<path fill="none" stroke="green" d="M56.3651,-18.4876C97.9702,-29.7977 182.899,-52.8852 220.219,-63.0304"/>
</g>
<!-- v18&#45;&gt;v19 -->
<g id="edge20" class="edge"><title>v18&#45;&gt;v19</title>
<path fill="none" stroke="black" d="M238.5,-57.9883C238.5,-49.4941 238.5,-37.1697 238.5,-27.4169"/>
<polygon fill="black" stroke="black" points="238.5,-22.3039 240.75,-27.3038 238.5,-24.8039 238.5,-27.3039 238.5,-27.3039 238.5,-27.3039 238.5,-24.8039 236.25,-27.3039 238.5,-22.3039 238.5,-22.3039"/>
</g>
<!-- v18&#45;&gt;v20 -->
<g id="edge21" class="edge"><title>v18&#45;&gt;v20</title>
<path fill="none" stroke="black" d="M224.381,-60.679C206.308,-51.3076 174.768,-34.9536 153.278,-23.8106"/>
<polygon fill="black" stroke="black" points="148.584,-21.3771 154.059,-21.6813 150.804,-22.5279 153.023,-23.6787 153.023,-23.6787 153.023,-23.6787 150.804,-22.5279 151.987,-25.6762 148.584,-21.3771 148.584,-21.3771"/>
</g>
</g>
</svg>
