<?xml version="1.0" encoding="UTF-8" standalone="no"?>
<?xml-stylesheet href="style.css" type="text/css"?>
<!DOCTYPE svg PUBLIC "-//W3C//DTD SVG 1.1//EN"
 "http://www.w3.org/Graphics/SVG/1.1/DTD/svg11.dtd">
<!-- Generated by graphviz version 2.38.0 (20140413.2041)
 -->
<!-- Title: 56.svg Pages: 1 -->
<svg width="1094pt" height="374pt"
 viewBox="0.00 0.00 1094.00 374.00" xmlns="http://www.w3.org/2000/svg" xmlns:xlink="http://www.w3.org/1999/xlink">
<g id="graph0" class="graph" transform="scale(1 1) rotate(0) translate(4 370)">
<title>56.svg</title>
<polygon fill="white" stroke="none" points="-4,4 -4,-370 1090,-370 1090,4 -4,4"/>
<!-- r0 -->
<g id="node1" class="node"><title>r0</title>
<polygon fill="none" stroke="black" stroke-dasharray="5,2" points="634,-366 611,-366 611,-348 634,-348 634,-366"/>
<text text-anchor="middle" x="622.5" y="-354.8" font-family="serif" font-size="9.00">0</text>
</g>
<!-- v0 -->
<g id="v0_Building" class="node"><title>v0</title>
<ellipse fill="none" stroke="black" cx="622.5" cy="-301" rx="36" ry="11"/>
<text text-anchor="middle" x="622.5" y="-298.8" font-family="sans-serif" font-size="9.00">Building</text>
</g>
<!-- r0&#45;&gt;v0 -->
<g id="edge1" class="edge"><title>r0&#45;&gt;v0</title>
<path fill="none" stroke="black" d="M622.5,-347.562C622.5,-339.453 622.5,-327.014 622.5,-317.181"/>
<polygon fill="black" stroke="black" points="622.5,-312.03 624.75,-317.03 622.5,-314.53 622.5,-317.03 622.5,-317.03 622.5,-317.03 622.5,-314.53 620.25,-317.03 622.5,-312.03 622.5,-312.03"/>
</g>
<!-- r1 -->
<g id="node2" class="node"><title>r1</title>
<polygon fill="none" stroke="black" stroke-dasharray="5,2" points="994,-366 971,-366 971,-348 994,-348 994,-366"/>
<text text-anchor="middle" x="982.5" y="-354.8" font-family="serif" font-size="9.00">1</text>
</g>
<!-- v9 -->
<g id="v9_RulesKeywords" class="node"><title>v9</title>
<ellipse fill="none" stroke="black" cx="982.5" cy="-69" rx="54" ry="11"/>
<text text-anchor="middle" x="982.5" y="-66.8" font-family="sans-serif" font-size="9.00">RulesKeywords</text>
</g>
<!-- r1&#45;&gt;v9 -->
<g id="edge2" class="edge"><title>r1&#45;&gt;v9</title>
<path fill="none" stroke="black" d="M982.5,-347.849C982.5,-329.373 982.5,-282.889 982.5,-244 982.5,-244 982.5,-244 982.5,-184 982.5,-148.604 982.5,-107.026 982.5,-85.1783"/>
<polygon fill="black" stroke="black" points="982.5,-80.0648 984.75,-85.0648 982.5,-82.5648 982.5,-85.0648 982.5,-85.0648 982.5,-85.0648 982.5,-82.5648 980.25,-85.0648 982.5,-80.0648 982.5,-80.0648"/>
</g>
<!-- e7 -->
<g id="node3" class="node"><title>e7</title>
</g>
<!-- v8 -->
<g id="v8_SmartLight" class="node"><title>v8</title>
<ellipse fill="none" stroke="black" cx="209.5" cy="-11" rx="43" ry="11"/>
<text text-anchor="middle" x="209.5" y="-8.8" font-family="sans-serif" font-size="9.00">SmartLight</text>
</g>
<!-- e7&#45;&gt;v8 -->
<g id="edge29" class="edge"><title>e7&#45;&gt;v8</title>
<path fill="none" stroke="green" d="M209.5,-64.1674C209.5,-55.5862 209.5,-34.5957 209.5,-22.0117"/>
<polygon fill="green" stroke="green" points="213,-67.3001 206,-67.2999 206,-65.8999 213,-65.9001 213,-67.3001"/>
<polyline fill="none" stroke="green" points="209.5,-68 209.5,-64.5 "/>
</g>
<!-- v1 -->
<g id="v1_Floor" class="node"><title>v1</title>
<ellipse fill="none" stroke="black" cx="509.5" cy="-243" rx="25" ry="11"/>
<text text-anchor="middle" x="509.5" y="-240.8" font-family="sans-serif" font-size="9.00">Floor</text>
</g>
<!-- v0&#45;&gt;v1 -->
<g id="edge3" class="edge"><title>v0&#45;&gt;v1</title>
<path fill="none" stroke="black" d="M604.844,-291.25C584.53,-281.183 551.234,-264.682 529.849,-254.084"/>
<polygon fill="black" stroke="black" points="525.212,-251.787 530.691,-251.991 527.452,-252.897 529.692,-254.007 529.692,-254.007 529.692,-254.007 527.452,-252.897 528.693,-256.023 525.212,-251.787 525.212,-251.787"/>
</g>
<!-- v2 -->
<g id="v2_InstallationBus" class="node"><title>v2</title>
<ellipse fill="none" stroke="black" cx="771.5" cy="-69" rx="61" ry="11"/>
<text text-anchor="middle" x="771.5" y="-66.8" font-family="sans-serif" font-size="9.00">InstallationBus</text>
</g>
<!-- v0&#45;&gt;v2 -->
<g id="edge4" class="edge"><title>v0&#45;&gt;v2</title>
<path fill="none" stroke="black" d="M628.902,-290.117C652.442,-253.781 734.271,-127.468 762.129,-84.4655"/>
<polygon fill="black" stroke="black" points="764.954,-80.105 764.124,-85.5248 763.594,-82.2032 762.235,-84.3014 762.235,-84.3014 762.235,-84.3014 763.594,-82.2032 760.347,-83.0781 764.954,-80.105 764.954,-80.105"/>
</g>
<!-- v4 -->
<g id="v4_Room" class="node"><title>v4</title>
<ellipse fill="none" stroke="black" cx="249.5" cy="-185" rx="21.5" ry="11"/>
<text text-anchor="middle" x="249.5" y="-182.8" font-family="sans-serif" font-size="9.00">Room</text>
</g>
<!-- v1&#45;&gt;v4 -->
<g id="edge5" class="edge"><title>v1&#45;&gt;v4</title>
<path fill="none" stroke="black" d="M487.78,-237.322C439.638,-226.953 324.246,-202.099 273.799,-191.234"/>
<polygon fill="black" stroke="black" points="268.836,-190.165 274.198,-189.018 271.28,-190.691 273.724,-191.218 273.724,-191.218 273.724,-191.218 271.28,-190.691 273.251,-193.417 268.836,-190.165 268.836,-190.165"/>
</g>
<!-- v10 -->
<g id="v10_Hallway" class="node"><title>v10</title>
<ellipse fill="none" stroke="black" cx="415.5" cy="-11" rx="32.5" ry="11"/>
<text text-anchor="middle" x="415.5" y="-8.8" font-family="sans-serif" font-size="9.00">Hallway</text>
</g>
<!-- v1&#45;&gt;v10 -->
<g id="edge6" class="edge"><title>v1&#45;&gt;v10</title>
<path fill="none" stroke="black" d="M505.461,-232.117C490.67,-195.928 439.404,-70.489 421.627,-26.9918"/>
<polygon fill="black" stroke="black" points="419.63,-22.105 423.604,-25.8822 420.576,-24.4192 421.522,-26.7334 421.522,-26.7334 421.522,-26.7334 420.576,-24.4192 419.439,-27.5846 419.63,-22.105 419.63,-22.105"/>
</g>
<!-- v15 -->
<g id="v15_Room" class="node"><title>v15</title>
<ellipse fill="none" stroke="black" cx="509.5" cy="-69" rx="21.5" ry="11"/>
<text text-anchor="middle" x="509.5" y="-66.8" font-family="sans-serif" font-size="9.00">Room</text>
</g>
<!-- v1&#45;&gt;v15 -->
<g id="edge7" class="edge"><title>v1&#45;&gt;v15</title>
<path fill="none" stroke="black" d="M509.5,-231.756C509.5,-202.786 509.5,-120.136 509.5,-85.5335"/>
<polygon fill="black" stroke="black" points="509.5,-80.4081 511.75,-85.408 509.5,-82.9081 509.5,-85.4081 509.5,-85.4081 509.5,-85.4081 509.5,-82.9081 507.25,-85.4081 509.5,-80.4081 509.5,-80.4081"/>
</g>
<!-- v17 -->
<g id="v17_Room" class="node"><title>v17</title>
<ellipse fill="none" stroke="black" cx="628.5" cy="-69" rx="21.5" ry="11"/>
<text text-anchor="middle" x="628.5" y="-66.8" font-family="sans-serif" font-size="9.00">Room</text>
</g>
<!-- v1&#45;&gt;v17 -->
<g id="edge8" class="edge"><title>v1&#45;&gt;v17</title>
<path fill="none" stroke="black" d="M516.239,-232.26C536.284,-203.287 595.587,-117.572 618.917,-83.8512"/>
<polygon fill="black" stroke="black" points="621.835,-79.6335 620.84,-85.0255 620.413,-81.6894 618.99,-83.7453 618.99,-83.7453 618.99,-83.7453 620.413,-81.6894 617.14,-82.4651 621.835,-79.6335 621.835,-79.6335"/>
</g>
<!-- v3 -->
<g id="v3_Data" class="node"><title>v3</title>
<ellipse fill="none" stroke="black" cx="854.5" cy="-11" rx="21.5" ry="11"/>
<text text-anchor="middle" x="854.5" y="-8.8" font-family="sans-serif" font-size="9.00">Data</text>
</g>
<!-- v2&#45;&gt;v3 -->
<g id="edge9" class="edge"><title>v2&#45;&gt;v3</title>
<path fill="none" stroke="black" d="M785.957,-58.2455C800.437,-48.4763 822.695,-33.4586 837.892,-23.2057"/>
<polygon fill="black" stroke="black" points="842.364,-20.1878 839.478,-24.8496 840.292,-21.5861 838.22,-22.9844 838.22,-22.9844 838.22,-22.9844 840.292,-21.5861 836.961,-21.1192 842.364,-20.1878 842.364,-20.1878"/>
</g>
<!-- v6 -->
<g id="v6_Laptop" class="node"><title>v6</title>
<ellipse fill="none" stroke="black" cx="81.5" cy="-69" rx="29" ry="11"/>
<text text-anchor="middle" x="81.5" y="-66.8" font-family="sans-serif" font-size="9.00">Laptop</text>
</g>
<!-- v2&#45;&gt;v6 -->
<g id="edge22" class="edge"><title>v2&#45;&gt;v6</title>
<path fill="none" stroke="green" d="M740.517,-78.4836C716.07,-85.4484 680.961,-94.3122 649.5,-98 454.833,-120.819 403.267,-119.955 208.5,-98 171.643,-93.8454 129.888,-83.1123 104.637,-75.9344"/>
</g>
<!-- v12 -->
<g id="v12_Workstation" class="node"><title>v12</title>
<ellipse fill="none" stroke="black" cx="317.5" cy="-11" rx="47" ry="11"/>
<text text-anchor="middle" x="317.5" y="-8.8" font-family="sans-serif" font-size="9.00">Workstation</text>
</g>
<!-- v2&#45;&gt;v12 -->
<g id="edge23" class="edge"><title>v2&#45;&gt;v12</title>
<path fill="none" stroke="green" d="M719.847,-63.057C643.815,-55.5485 497.373,-40.2009 373.5,-22 366.563,-20.9807 359.166,-19.7575 352.098,-18.5221"/>
</g>
<!-- v16 -->
<g id="v16_SmartLight" class="node"><title>v16</title>
<ellipse fill="none" stroke="black" cx="509.5" cy="-11" rx="43" ry="11"/>
<text text-anchor="middle" x="509.5" y="-8.8" font-family="sans-serif" font-size="9.00">SmartLight</text>
</g>
<!-- v2&#45;&gt;v16 -->
<g id="edge24" class="edge"><title>v2&#45;&gt;v16</title>
<path fill="none" stroke="green" d="M734.794,-60.1545C682.968,-49.0771 589.255,-29.0468 540.64,-18.656"/>
</g>
<!-- v18 -->
<g id="v18_SmartLight" class="node"><title>v18</title>
<ellipse fill="none" stroke="black" cx="613.5" cy="-11" rx="43" ry="11"/>
<text text-anchor="middle" x="613.5" y="-8.8" font-family="sans-serif" font-size="9.00">SmartLight</text>
</g>
<!-- v2&#45;&gt;v18 -->
<g id="edge25" class="edge"><title>v2&#45;&gt;v18</title>
<path fill="none" stroke="green" d="M745.763,-58.878C715.595,-48.1855 666.03,-30.6181 636.906,-20.2957"/>
</g>
<!-- v19 -->
<g id="v19_HVAC" class="node"><title>v19</title>
<ellipse fill="none" stroke="black" cx="696.5" cy="-11" rx="21.5" ry="11"/>
<text text-anchor="middle" x="696.5" y="-8.8" font-family="sans-serif" font-size="9.00">HVAC</text>
</g>
<!-- v2&#45;&gt;v19 -->
<g id="edge26" class="edge"><title>v2&#45;&gt;v19</title>
<path fill="none" stroke="green" d="M758.436,-58.2455C744.167,-47.5911 721.536,-30.6938 707.942,-20.5433"/>
</g>
<!-- v20 -->
<g id="v20_FireAlarm" class="node"><title>v20</title>
<ellipse fill="none" stroke="black" cx="775.5" cy="-11" rx="39.5" ry="11"/>
<text text-anchor="middle" x="775.5" y="-8.8" font-family="sans-serif" font-size="9.00">FireAlarm</text>
</g>
<!-- v2&#45;&gt;v20 -->
<g id="edge27" class="edge"><title>v2&#45;&gt;v20</title>
<path fill="none" stroke="green" d="M772.215,-57.9883C772.934,-47.9211 774.038,-32.4737 774.764,-22.3039"/>
</g>
<!-- v5 -->
<g id="v5_Visitor" class="node"><title>v5</title>
<ellipse fill="none" stroke="black" cx="81.5" cy="-127" rx="32.5" ry="11"/>
<text text-anchor="middle" x="81.5" y="-124.8" font-family="sans-serif" font-size="9.00">Visitor</text>
</g>
<!-- v4&#45;&gt;v5 -->
<g id="edge10" class="edge"><title>v4&#45;&gt;v5</title>
<path fill="none" stroke="black" d="M232.154,-178.218C202.749,-168.416 142.929,-148.476 108.167,-136.889"/>
<polygon fill="black" stroke="black" points="103.226,-135.242 108.681,-134.689 105.598,-136.033 107.97,-136.823 107.97,-136.823 107.97,-136.823 105.598,-136.033 107.258,-138.958 103.226,-135.242 103.226,-135.242"/>
</g>
<!-- v4&#45;&gt;v8 -->
<g id="edge11" class="edge"><title>v4&#45;&gt;v8</title>
<path fill="none" stroke="black" d="M235.937,-176.025C223.047,-167.865 203.847,-154.121 191.5,-138 174.431,-115.715 172.173,-107.491 166.5,-80 164.524,-70.424 162.911,-67.0952 166.5,-58 171.697,-44.8313 182.639,-33.2145 192.184,-24.9493"/>
<polygon fill="black" stroke="black" points="196.169,-21.6175 193.777,-26.551 194.251,-23.2212 192.333,-24.8249 192.333,-24.8249 192.333,-24.8249 194.251,-23.2212 190.89,-23.0988 196.169,-21.6175 196.169,-21.6175"/>
</g>
<!-- v4&#45;&gt;v10 -->
<g id="edge28" class="edge"><title>v4&#45;&gt;v10</title>
<path fill="none" stroke="green" d="M240.079,-174.798C218.449,-152.568 169.334,-95.0464 199.5,-58 249.364,3.23717 296.413,-39.1476 373.5,-22 378.914,-20.7956 384.708,-19.4519 390.209,-18.1501"/>
</g>
<!-- v4&#45;&gt;v12 -->
<g id="edge12" class="edge"><title>v4&#45;&gt;v12</title>
<path fill="none" stroke="black" d="M253.45,-174.009C264.905,-145.034 298.18,-60.8671 311.694,-26.6863"/>
<polygon fill="black" stroke="black" points="313.539,-22.0185 313.793,-27.4955 312.62,-24.3434 311.701,-26.6683 311.701,-26.6683 311.701,-26.6683 312.62,-24.3434 309.608,-25.841 313.539,-22.0185 313.539,-22.0185"/>
</g>
<!-- v5&#45;&gt;v6 -->
<g id="edge13" class="edge"><title>v5&#45;&gt;v6</title>
<path fill="none" stroke="black" d="M81.5,-115.988C81.5,-107.494 81.5,-95.1697 81.5,-85.4169"/>
<polygon fill="black" stroke="black" points="81.5,-80.3039 83.7501,-85.3038 81.5,-82.8039 81.5001,-85.3039 81.5001,-85.3039 81.5001,-85.3039 81.5,-82.8039 79.2501,-85.3039 81.5,-80.3039 81.5,-80.3039"/>
</g>
<!-- v7 -->
<g id="v7_Data" class="node"><title>v7</title>
<ellipse fill="none" stroke="black" cx="21.5" cy="-11" rx="21.5" ry="11"/>
<text text-anchor="middle" x="21.5" y="-8.8" font-family="sans-serif" font-size="9.00">Data</text>
</g>
<!-- v6&#45;&gt;v7 -->
<g id="edge14" class="edge"><title>v6&#45;&gt;v7</title>
<path fill="none" stroke="black" d="M71.3218,-58.5004C61.3167,-49.1622 45.9874,-34.8549 34.9755,-24.5772"/>
<polygon fill="black" stroke="black" points="31.1317,-20.9896 36.3222,-22.7563 32.9594,-22.6954 34.787,-24.4012 34.787,-24.4012 34.787,-24.4012 32.9594,-22.6954 33.2518,-26.0461 31.1317,-20.9896 31.1317,-20.9896"/>
</g>
<!-- v11 -->
<g id="v11_Software" class="node"><title>v11</title>
<ellipse fill="none" stroke="black" cx="97.5" cy="-11" rx="36" ry="11"/>
<text text-anchor="middle" x="97.5" y="-8.8" font-family="sans-serif" font-size="9.00">Software</text>
</g>
<!-- v6&#45;&gt;v11 -->
<g id="edge15" class="edge"><title>v6&#45;&gt;v11</title>
<path fill="none" stroke="black" d="M84.3605,-57.9883C86.8099,-49.4154 90.374,-36.9411 93.1724,-27.1466"/>
<polygon fill="black" stroke="black" points="94.556,-22.3039 95.3458,-27.7297 93.8692,-24.7077 93.1824,-27.1115 93.1824,-27.1115 93.1824,-27.1115 93.8692,-24.7077 91.0189,-26.4933 94.556,-22.3039 94.556,-22.3039"/>
</g>
<!-- v13 -->
<g id="v13_ExitRoom" class="node"><title>v13</title>
<ellipse fill="none" stroke="black" cx="930.5" cy="-11" rx="36" ry="11"/>
<text text-anchor="middle" x="930.5" y="-8.8" font-family="sans-serif" font-size="9.00">ExitRoom</text>
</g>
<!-- v9&#45;&gt;v13 -->
<g id="edge16" class="edge"><title>v9&#45;&gt;v13</title>
<path fill="none" stroke="black" d="M973.203,-57.9883C964.848,-48.9897 952.5,-35.6926 943.229,-25.7082"/>
<polygon fill="black" stroke="black" points="939.716,-21.925 944.767,-24.058 941.417,-23.757 943.118,-25.589 943.118,-25.589 943.118,-25.589 941.417,-23.757 941.47,-27.12 939.716,-21.925 939.716,-21.925"/>
</g>
<!-- v14 -->
<g id="v14_SendSoftware" class="node"><title>v14</title>
<ellipse fill="none" stroke="black" cx="1035.5" cy="-11" rx="50.5" ry="11"/>
<text text-anchor="middle" x="1035.5" y="-8.8" font-family="sans-serif" font-size="9.00">SendSoftware</text>
</g>
<!-- v9&#45;&gt;v14 -->
<g id="edge17" class="edge"><title>v9&#45;&gt;v14</title>
<path fill="none" stroke="black" d="M991.975,-57.9883C1000.49,-48.9897 1013.08,-35.6926 1022.53,-25.7082"/>
<polygon fill="black" stroke="black" points="1026.11,-21.925 1024.3,-27.1031 1024.39,-23.7407 1022.67,-25.5565 1022.67,-25.5565 1022.67,-25.5565 1024.39,-23.7407 1021.04,-24.0099 1026.11,-21.925 1026.11,-21.925"/>
</g>
<!-- v10&#45;&gt;v15 -->
<g id="edge30" class="edge"><title>v10&#45;&gt;v15</title>
<path fill="none" stroke="green" d="M430.317,-20.827C448.508,-31.6646 479.076,-49.8751 496.43,-60.2134"/>
</g>
<!-- v10&#45;&gt;v17 -->
<g id="edge31" class="edge"><title>v10&#45;&gt;v17</title>
<path fill="none" stroke="green" d="M439.944,-18.4265C483.016,-29.7507 571.509,-53.0164 609.97,-63.1283"/>
</g>
<!-- v15&#45;&gt;v16 -->
<g id="edge18" class="edge"><title>v15&#45;&gt;v16</title>
<path fill="none" stroke="black" d="M509.5,-57.9883C509.5,-49.4941 509.5,-37.1697 509.5,-27.4169"/>
<polygon fill="black" stroke="black" points="509.5,-22.3039 511.75,-27.3038 509.5,-24.8039 509.5,-27.3039 509.5,-27.3039 509.5,-27.3039 509.5,-24.8039 507.25,-27.3039 509.5,-22.3039 509.5,-22.3039"/>
</g>
<!-- v17&#45;&gt;v18 -->
<g id="edge19" class="edge"><title>v17&#45;&gt;v18</title>
<path fill="none" stroke="black" d="M625.818,-57.9883C623.522,-49.4154 620.181,-36.9411 617.557,-27.1466"/>
<polygon fill="black" stroke="black" points="616.26,-22.3039 619.727,-26.5514 616.907,-24.7187 617.554,-27.1336 617.554,-27.1336 617.554,-27.1336 616.907,-24.7187 615.38,-27.7158 616.26,-22.3039 616.26,-22.3039"/>
</g>
<!-- v17&#45;&gt;v19 -->
<g id="edge20" class="edge"><title>v17&#45;&gt;v19</title>
<path fill="none" stroke="black" d="M639.125,-59.25C650.535,-49.8533 668.753,-34.8502 681.594,-24.2754"/>
<polygon fill="black" stroke="black" points="685.725,-20.8734 683.296,-25.7888 683.795,-22.4627 681.866,-24.0519 681.866,-24.0519 681.866,-24.0519 683.795,-22.4627 680.435,-22.3151 685.725,-20.8734 685.725,-20.8734"/>
</g>
<!-- v17&#45;&gt;v20 -->
<g id="edge21" class="edge"><title>v17&#45;&gt;v20</title>
<path fill="none" stroke="black" d="M644.793,-61.7931C670.054,-52.17 718.907,-33.5594 749.206,-22.0167"/>
<polygon fill="black" stroke="black" points="753.903,-20.2273 750.032,-24.1099 751.567,-21.1173 749.231,-22.0073 749.231,-22.0073 749.231,-22.0073 751.567,-21.1173 748.43,-19.9047 753.903,-20.2273 753.903,-20.2273"/>
</g>
</g>
</svg>
