<?xml version="1.0" encoding="UTF-8" standalone="no"?>
<?xml-stylesheet href="style.css" type="text/css"?>
<!DOCTYPE svg PUBLIC "-//W3C//DTD SVG 1.1//EN"
 "http://www.w3.org/Graphics/SVG/1.1/DTD/svg11.dtd">
<!-- Generated by graphviz version 2.38.0 (20140413.2041)
 -->
<!-- Title: 57.svg Pages: 1 -->
<svg width="1142pt" height="374pt"
 viewBox="0.00 0.00 1141.50 374.00" xmlns="http://www.w3.org/2000/svg" xmlns:xlink="http://www.w3.org/1999/xlink">
<g id="graph0" class="graph" transform="scale(1 1) rotate(0) translate(4 370)">
<title>57.svg</title>
<polygon fill="white" stroke="none" points="-4,4 -4,-370 1137.5,-370 1137.5,4 -4,4"/>
<!-- r0 -->
<g id="node1" class="node"><title>r0</title>
<polygon fill="none" stroke="black" stroke-dasharray="5,2" points="654,-366 631,-366 631,-348 654,-348 654,-366"/>
<text text-anchor="middle" x="642.5" y="-354.8" font-family="serif" font-size="9.00">0</text>
</g>
<!-- v0 -->
<g id="v0_Building" class="node"><title>v0</title>
<ellipse fill="none" stroke="black" cx="642.5" cy="-301" rx="36" ry="11"/>
<text text-anchor="middle" x="642.5" y="-298.8" font-family="sans-serif" font-size="9.00">Building</text>
</g>
<!-- r0&#45;&gt;v0 -->
<g id="edge1" class="edge"><title>r0&#45;&gt;v0</title>
<path fill="none" stroke="black" d="M642.5,-347.562C642.5,-339.453 642.5,-327.014 642.5,-317.181"/>
<polygon fill="black" stroke="black" points="642.5,-312.03 644.75,-317.03 642.5,-314.53 642.5,-317.03 642.5,-317.03 642.5,-317.03 642.5,-314.53 640.25,-317.03 642.5,-312.03 642.5,-312.03"/>
</g>
<!-- r1 -->
<g id="node2" class="node"><title>r1</title>
<polygon fill="none" stroke="black" stroke-dasharray="5,2" points="1014,-366 991,-366 991,-348 1014,-348 1014,-366"/>
<text text-anchor="middle" x="1002.5" y="-354.8" font-family="serif" font-size="9.00">1</text>
</g>
<!-- v7 -->
<g id="v7_RulesKeywords" class="node"><title>v7</title>
<ellipse fill="none" stroke="black" cx="1002.5" cy="-69" rx="54" ry="11"/>
<text text-anchor="middle" x="1002.5" y="-66.8" font-family="sans-serif" font-size="9.00">RulesKeywords</text>
</g>
<!-- r1&#45;&gt;v7 -->
<g id="edge2" class="edge"><title>r1&#45;&gt;v7</title>
<path fill="none" stroke="black" d="M1002.5,-347.849C1002.5,-329.373 1002.5,-282.889 1002.5,-244 1002.5,-244 1002.5,-244 1002.5,-184 1002.5,-148.604 1002.5,-107.026 1002.5,-85.1783"/>
<polygon fill="black" stroke="black" points="1002.5,-80.0648 1004.75,-85.0648 1002.5,-82.5648 1002.5,-85.0648 1002.5,-85.0648 1002.5,-85.0648 1002.5,-82.5648 1000.25,-85.0648 1002.5,-80.0648 1002.5,-80.0648"/>
</g>
<!-- e1 -->
<g id="node3" class="node"><title>e1</title>
</g>
<!-- v4 -->
<g id="v4_Laptop" class="node"><title>v4</title>
<ellipse fill="none" stroke="black" cx="562.5" cy="-69" rx="29" ry="11"/>
<text text-anchor="middle" x="562.5" y="-66.8" font-family="sans-serif" font-size="9.00">Laptop</text>
</g>
<!-- e1&#45;&gt;v4 -->
<g id="edge24" class="edge"><title>e1&#45;&gt;v4</title>
<path fill="none" stroke="green" d="M562.5,-122.167C562.5,-113.586 562.5,-92.5957 562.5,-80.0117"/>
<polygon fill="green" stroke="green" points="566,-125.3 559,-125.3 559,-123.9 566,-123.9 566,-125.3"/>
<polyline fill="none" stroke="green" points="562.5,-126 562.5,-122.5 "/>
</g>
<!-- v1 -->
<g id="v1_Floor" class="node"><title>v1</title>
<ellipse fill="none" stroke="black" cx="418.5" cy="-243" rx="25" ry="11"/>
<text text-anchor="middle" x="418.5" y="-240.8" font-family="sans-serif" font-size="9.00">Floor</text>
</g>
<!-- v0&#45;&gt;v1 -->
<g id="edge3" class="edge"><title>v0&#45;&gt;v1</title>
<path fill="none" stroke="black" d="M615.925,-293.356C572.605,-282.526 487.307,-261.202 444.417,-250.479"/>
<polygon fill="black" stroke="black" points="439.402,-249.226 444.798,-248.255 441.827,-249.832 444.253,-250.438 444.253,-250.438 444.253,-250.438 441.827,-249.832 443.707,-252.621 439.402,-249.226 439.402,-249.226"/>
</g>
<!-- v6 -->
<g id="v6_InstallationBus" class="node"><title>v6</title>
<ellipse fill="none" stroke="black" cx="855.5" cy="-69" rx="61" ry="11"/>
<text text-anchor="middle" x="855.5" y="-66.8" font-family="sans-serif" font-size="9.00">InstallationBus</text>
</g>
<!-- v0&#45;&gt;v6 -->
<g id="edge4" class="edge"><title>v0&#45;&gt;v6</title>
<path fill="none" stroke="black" d="M651.652,-290.117C685.439,-253.633 803.228,-126.443 842.584,-83.9473"/>
<polygon fill="black" stroke="black" points="846.142,-80.105 844.395,-85.3024 844.443,-81.9393 842.744,-83.7736 842.744,-83.7736 842.744,-83.7736 844.443,-81.9393 841.094,-82.2447 846.142,-80.105 846.142,-80.105"/>
</g>
<!-- v2 -->
<g id="v2_Room" class="node"><title>v2</title>
<ellipse fill="none" stroke="black" cx="644.5" cy="-185" rx="21.5" ry="11"/>
<text text-anchor="middle" x="644.5" y="-182.8" font-family="sans-serif" font-size="9.00">Room</text>
</g>
<!-- v1&#45;&gt;v2 -->
<g id="edge5" class="edge"><title>v1&#45;&gt;v2</title>
<path fill="none" stroke="black" d="M439.356,-236.832C481.549,-226.377 576.774,-202.782 621.048,-191.811"/>
<polygon fill="black" stroke="black" points="625.933,-190.601 621.621,-193.987 623.507,-191.202 621.08,-191.803 621.08,-191.803 621.08,-191.803 623.507,-191.202 620.539,-189.619 625.933,-190.601 625.933,-190.601"/>
</g>
<!-- v9 -->
<g id="v9_Room" class="node"><title>v9</title>
<ellipse fill="none" stroke="black" cx="178.5" cy="-127" rx="21.5" ry="11"/>
<text text-anchor="middle" x="178.5" y="-124.8" font-family="sans-serif" font-size="9.00">Room</text>
</g>
<!-- v1&#45;&gt;v9 -->
<g id="edge6" class="edge"><title>v1&#45;&gt;v9</title>
<path fill="none" stroke="black" d="M401.099,-234.827C379.979,-226.035 343.362,-210.511 312.5,-196 270.717,-176.354 222.66,-151.371 196.975,-137.821"/>
<polygon fill="black" stroke="black" points="192.446,-135.427 197.918,-135.774 194.657,-136.595 196.867,-137.763 196.867,-137.763 196.867,-137.763 194.657,-136.595 195.816,-139.753 192.446,-135.427 192.446,-135.427"/>
</g>
<!-- v15 -->
<g id="v15_Hallway" class="node"><title>v15</title>
<ellipse fill="none" stroke="black" cx="324.5" cy="-11" rx="32.5" ry="11"/>
<text text-anchor="middle" x="324.5" y="-8.8" font-family="sans-serif" font-size="9.00">Hallway</text>
</g>
<!-- v1&#45;&gt;v15 -->
<g id="edge7" class="edge"><title>v1&#45;&gt;v15</title>
<path fill="none" stroke="black" d="M414.461,-232.117C399.67,-195.928 348.404,-70.489 330.627,-26.9918"/>
<polygon fill="black" stroke="black" points="328.63,-22.105 332.604,-25.8822 329.576,-24.4192 330.522,-26.7334 330.522,-26.7334 330.522,-26.7334 329.576,-24.4192 328.439,-27.5846 328.63,-22.105 328.63,-22.105"/>
</g>
<!-- v18 -->
<g id="v18_Room" class="node"><title>v18</title>
<ellipse fill="none" stroke="black" cx="418.5" cy="-69" rx="21.5" ry="11"/>
<text text-anchor="middle" x="418.5" y="-66.8" font-family="sans-serif" font-size="9.00">Room</text>
</g>
<!-- v1&#45;&gt;v18 -->
<g id="edge8" class="edge"><title>v1&#45;&gt;v18</title>
<path fill="none" stroke="black" d="M418.5,-231.756C418.5,-202.786 418.5,-120.136 418.5,-85.5335"/>
<polygon fill="black" stroke="black" points="418.5,-80.4081 420.75,-85.408 418.5,-82.9081 418.5,-85.4081 418.5,-85.4081 418.5,-85.4081 418.5,-82.9081 416.25,-85.4081 418.5,-80.4081 418.5,-80.4081"/>
</g>
<!-- v3 -->
<g id="v3_Visitor" class="node"><title>v3</title>
<ellipse fill="none" stroke="black" cx="613.5" cy="-127" rx="32.5" ry="11"/>
<text text-anchor="middle" x="613.5" y="-124.8" font-family="sans-serif" font-size="9.00">Visitor</text>
</g>
<!-- v2&#45;&gt;v3 -->
<g id="edge9" class="edge"><title>v2&#45;&gt;v3</title>
<path fill="none" stroke="black" d="M639.1,-174.246C634.27,-165.52 627.122,-152.608 621.606,-142.643"/>
<polygon fill="black" stroke="black" points="619.047,-138.02 623.437,-141.304 620.257,-140.207 621.468,-142.394 621.468,-142.394 621.468,-142.394 620.257,-140.207 619.5,-143.484 619.047,-138.02 619.047,-138.02"/>
</g>
<!-- v5 -->
<g id="v5_SmartLight" class="node"><title>v5</title>
<ellipse fill="none" stroke="black" cx="674.5" cy="-11" rx="43" ry="11"/>
<text text-anchor="middle" x="674.5" y="-8.8" font-family="sans-serif" font-size="9.00">SmartLight</text>
</g>
<!-- v2&#45;&gt;v5 -->
<g id="edge10" class="edge"><title>v2&#45;&gt;v5</title>
<path fill="none" stroke="black" d="M646.891,-173.802C649.029,-164.503 652.176,-150.369 654.5,-138 661.991,-98.1324 669,-50.8186 672.383,-27.1184"/>
<polygon fill="black" stroke="black" points="673.087,-22.1597 674.612,-27.4263 672.735,-24.6348 672.384,-27.11 672.384,-27.11 672.384,-27.11 672.735,-24.6348 670.156,-26.7938 673.087,-22.1597 673.087,-22.1597"/>
</g>
<!-- v2&#45;&gt;v15 -->
<g id="edge23" class="edge"><title>v2&#45;&gt;v15</title>
<path fill="none" stroke="green" d="M625.701,-179.441C581.273,-168.05 467.524,-135.223 387.5,-80 363.658,-63.5469 342.197,-36.6128 331.557,-22.0708"/>
</g>
<!-- v16 -->
<g id="v16_Workstation" class="node"><title>v16</title>
<ellipse fill="none" stroke="black" cx="782.5" cy="-11" rx="47" ry="11"/>
<text text-anchor="middle" x="782.5" y="-8.8" font-family="sans-serif" font-size="9.00">Workstation</text>
</g>
<!-- v2&#45;&gt;v16 -->
<g id="edge11" class="edge"><title>v2&#45;&gt;v16</title>
<path fill="none" stroke="black" d="M652.116,-174.508C675.044,-145.93 743.526,-60.5757 770.954,-26.3907"/>
<polygon fill="black" stroke="black" points="774.392,-22.1054 773.018,-27.4134 772.828,-24.0553 771.263,-26.0053 771.263,-26.0053 771.263,-26.0053 772.828,-24.0553 769.508,-24.5972 774.392,-22.1054 774.392,-22.1054"/>
</g>
<!-- v3&#45;&gt;v4 -->
<g id="edge12" class="edge"><title>v3&#45;&gt;v4</title>
<path fill="none" stroke="black" d="M604.616,-116.246C596.353,-107.172 583.965,-93.5697 574.762,-83.4636"/>
<polygon fill="black" stroke="black" points="571.282,-79.6427 576.312,-81.8244 572.965,-81.491 574.648,-83.3394 574.648,-83.3394 574.648,-83.3394 572.965,-81.491 572.985,-84.8544 571.282,-79.6427 571.282,-79.6427"/>
</g>
<!-- v10 -->
<g id="v10_Software" class="node"><title>v10</title>
<ellipse fill="none" stroke="black" cx="515.5" cy="-11" rx="36" ry="11"/>
<text text-anchor="middle" x="515.5" y="-8.8" font-family="sans-serif" font-size="9.00">Software</text>
</g>
<!-- v4&#45;&gt;v10 -->
<g id="edge13" class="edge"><title>v4&#45;&gt;v10</title>
<path fill="none" stroke="black" d="M554.313,-58.2455C546.857,-49.3616 535.758,-36.1372 527.336,-26.1029"/>
<polygon fill="black" stroke="black" points="523.909,-22.0198 528.847,-24.4032 525.517,-23.9347 527.124,-25.8496 527.124,-25.8496 527.124,-25.8496 525.517,-23.9347 525.4,-27.2961 523.909,-22.0198 523.909,-22.0198"/>
</g>
<!-- v14 -->
<g id="v14_Data" class="node"><title>v14</title>
<ellipse fill="none" stroke="black" cx="591.5" cy="-11" rx="21.5" ry="11"/>
<text text-anchor="middle" x="591.5" y="-8.8" font-family="sans-serif" font-size="9.00">Data</text>
</g>
<!-- v4&#45;&gt;v14 -->
<g id="edge14" class="edge"><title>v4&#45;&gt;v14</title>
<path fill="none" stroke="black" d="M567.685,-57.9883C572.221,-49.2286 578.867,-36.3956 583.986,-26.5103"/>
<polygon fill="black" stroke="black" points="586.36,-21.925 586.059,-27.3997 585.211,-24.145 584.061,-26.365 584.061,-26.365 584.061,-26.365 585.211,-24.145 582.063,-25.3303 586.36,-21.925 586.36,-21.925"/>
</g>
<!-- v5&#45;&gt;v6 -->
<g id="edge25" class="edge"><title>v5&#45;&gt;v6</title>
<path fill="none" stroke="green" d="M699.953,-19.8751C733.497,-30.2532 792.32,-48.4526 827.219,-59.25"/>
</g>
<!-- v11 -->
<g id="v11_HVAC" class="node"><title>v11</title>
<ellipse fill="none" stroke="black" cx="134.5" cy="-69" rx="21.5" ry="11"/>
<text text-anchor="middle" x="134.5" y="-66.8" font-family="sans-serif" font-size="9.00">HVAC</text>
</g>
<!-- v6&#45;&gt;v11 -->
<g id="edge26" class="edge"><title>v6&#45;&gt;v11</title>
<path fill="none" stroke="green" d="M830.894,-79.124C812.862,-85.9753 787.602,-94.4079 764.5,-98 527.021,-134.925 233.623,-87.2094 154.786,-72.8524"/>
</g>
<!-- v13 -->
<g id="v13_Data" class="node"><title>v13</title>
<ellipse fill="none" stroke="black" cx="869.5" cy="-11" rx="21.5" ry="11"/>
<text text-anchor="middle" x="869.5" y="-8.8" font-family="sans-serif" font-size="9.00">Data</text>
</g>
<!-- v6&#45;&gt;v13 -->
<g id="edge15" class="edge"><title>v6&#45;&gt;v13</title>
<path fill="none" stroke="black" d="M858.003,-57.9883C860.126,-49.4941 863.208,-37.1697 865.646,-27.4169"/>
<polygon fill="black" stroke="black" points="866.924,-22.3039 867.894,-27.7003 866.318,-24.7292 865.711,-27.1546 865.711,-27.1546 865.711,-27.1546 866.318,-24.7292 863.528,-26.6089 866.924,-22.3039 866.924,-22.3039"/>
</g>
<!-- v6&#45;&gt;v16 -->
<g id="edge27" class="edge"><title>v6&#45;&gt;v16</title>
<path fill="none" stroke="green" d="M842.449,-57.9883C829.162,-47.7952 808.684,-32.0867 795.438,-21.925"/>
</g>
<!-- v19 -->
<g id="v19_SmartLight" class="node"><title>v19</title>
<ellipse fill="none" stroke="black" cx="418.5" cy="-11" rx="43" ry="11"/>
<text text-anchor="middle" x="418.5" y="-8.8" font-family="sans-serif" font-size="9.00">SmartLight</text>
</g>
<!-- v6&#45;&gt;v19 -->
<g id="edge28" class="edge"><title>v6&#45;&gt;v19</title>
<path fill="none" stroke="green" d="M803.965,-63.0187C729.958,-55.5986 589.394,-40.511 470.5,-22 463.96,-20.9817 456.985,-19.7452 450.338,-18.4938"/>
</g>
<!-- v20 -->
<g id="v20_SmartLight" class="node"><title>v20</title>
<ellipse fill="none" stroke="black" cx="230.5" cy="-11" rx="43" ry="11"/>
<text text-anchor="middle" x="230.5" y="-8.8" font-family="sans-serif" font-size="9.00">SmartLight</text>
</g>
<!-- v6&#45;&gt;v20 -->
<g id="edge29" class="edge"><title>v6&#45;&gt;v20</title>
<path fill="none" stroke="green" d="M797.528,-65.4551C693.832,-60.4342 469.898,-47.4626 282.5,-22 275.759,-21.0841 268.57,-19.8621 261.756,-18.5875"/>
</g>
<!-- v21 -->
<g id="v21_FireAlarm" class="node"><title>v21</title>
<ellipse fill="none" stroke="black" cx="39.5" cy="-11" rx="39.5" ry="11"/>
<text text-anchor="middle" x="39.5" y="-8.8" font-family="sans-serif" font-size="9.00">FireAlarm</text>
</g>
<!-- v6&#45;&gt;v21 -->
<g id="edge30" class="edge"><title>v6&#45;&gt;v21</title>
<path fill="none" stroke="green" d="M797.282,-65.5776C642.891,-58.9825 225.475,-39.9926 88.5,-22 81.9577,-21.1406 74.9812,-19.9101 68.4051,-18.6047"/>
</g>
<!-- v8 -->
<g id="v8_ConnectDevice" class="node"><title>v8</title>
<ellipse fill="none" stroke="black" cx="989.5" cy="-11" rx="54" ry="11"/>
<text text-anchor="middle" x="989.5" y="-8.8" font-family="sans-serif" font-size="9.00">ConnectDevice</text>
</g>
<!-- v7&#45;&gt;v8 -->
<g id="edge16" class="edge"><title>v7&#45;&gt;v8</title>
<path fill="none" stroke="black" d="M1000.18,-57.9883C998.204,-49.4941 995.343,-37.1697 993.079,-27.4169"/>
<polygon fill="black" stroke="black" points="991.892,-22.3039 995.214,-26.6655 992.457,-24.7391 993.023,-27.1744 993.023,-27.1744 993.023,-27.1744 992.457,-24.7391 990.831,-27.6832 991.892,-22.3039 991.892,-22.3039"/>
</g>
<!-- v17 -->
<g id="v17_ExitRoom" class="node"><title>v17</title>
<ellipse fill="none" stroke="black" cx="1097.5" cy="-11" rx="36" ry="11"/>
<text text-anchor="middle" x="1097.5" y="-8.8" font-family="sans-serif" font-size="9.00">ExitRoom</text>
</g>
<!-- v7&#45;&gt;v17 -->
<g id="edge17" class="edge"><title>v7&#45;&gt;v17</title>
<path fill="none" stroke="black" d="M1018.62,-58.5004C1034.87,-48.9165 1060.01,-34.0985 1077.53,-23.7743"/>
<polygon fill="black" stroke="black" points="1082.25,-20.9896 1079.09,-25.467 1080.1,-22.2592 1077.94,-23.5287 1077.94,-23.5287 1077.94,-23.5287 1080.1,-22.2592 1076.8,-21.5904 1082.25,-20.9896 1082.25,-20.9896"/>
</g>
<!-- v9&#45;&gt;v11 -->
<g id="edge18" class="edge"><title>v9&#45;&gt;v11</title>
<path fill="none" stroke="black" d="M171.036,-116.5C163.913,-107.435 153.112,-93.6874 145.098,-83.4888"/>
<polygon fill="black" stroke="black" points="141.854,-79.3593 146.712,-81.9008 143.398,-81.3251 144.943,-83.291 144.943,-83.291 144.943,-83.291 143.398,-81.3251 143.174,-84.6811 141.854,-79.3593 141.854,-79.3593"/>
</g>
<!-- v9&#45;&gt;v15 -->
<g id="edge31" class="edge"><title>v9&#45;&gt;v15</title>
<path fill="none" stroke="green" d="M189.474,-117.431C216.266,-96.5118 284.847,-42.9623 312.587,-21.3019"/>
</g>
<!-- v9&#45;&gt;v20 -->
<g id="edge19" class="edge"><title>v9&#45;&gt;v20</title>
<path fill="none" stroke="black" d="M183.115,-115.883C192.304,-95.7373 212.929,-50.521 223.684,-26.9438"/>
<polygon fill="black" stroke="black" points="225.821,-22.2579 225.793,-27.7408 224.783,-24.5325 223.746,-26.807 223.746,-26.807 223.746,-26.807 224.783,-24.5325 221.699,-25.8733 225.821,-22.2579 225.821,-22.2579"/>
</g>
<!-- v9&#45;&gt;v21 -->
<g id="edge20" class="edge"><title>v9&#45;&gt;v21</title>
<path fill="none" stroke="black" d="M164.218,-118.724C148.556,-110.417 123.051,-95.9051 103.5,-80 83.0383,-63.3541 62.734,-40.3995 50.6522,-25.8792"/>
<polygon fill="black" stroke="black" points="47.4693,-22.0196 52.3864,-24.4455 49.0599,-23.9483 50.6505,-25.8771 50.6505,-25.8771 50.6505,-25.8771 49.0599,-23.9483 48.9146,-27.3086 47.4693,-22.0196 47.4693,-22.0196"/>
</g>
<!-- v12 -->
<g id="v12_Software" class="node"><title>v12</title>
<ellipse fill="none" stroke="black" cx="133.5" cy="-11" rx="36" ry="11"/>
<text text-anchor="middle" x="133.5" y="-8.8" font-family="sans-serif" font-size="9.00">Software</text>
</g>
<!-- v11&#45;&gt;v12 -->
<g id="edge21" class="edge"><title>v11&#45;&gt;v12</title>
<path fill="none" stroke="black" d="M134.321,-57.9883C134.17,-49.4941 133.949,-37.1697 133.775,-27.4169"/>
<polygon fill="black" stroke="black" points="133.684,-22.3039 136.023,-27.2629 133.729,-24.8035 133.773,-27.3031 133.773,-27.3031 133.773,-27.3031 133.729,-24.8035 131.524,-27.3433 133.684,-22.3039 133.684,-22.3039"/>
</g>
<!-- v15&#45;&gt;v18 -->
<g id="edge32" class="edge"><title>v15&#45;&gt;v18</title>
<path fill="none" stroke="green" d="M339.317,-20.827C357.508,-31.6646 388.076,-49.8751 405.43,-60.2134"/>
</g>
<!-- v18&#45;&gt;v19 -->
<g id="edge22" class="edge"><title>v18&#45;&gt;v19</title>
<path fill="none" stroke="black" d="M418.5,-57.9883C418.5,-49.4941 418.5,-37.1697 418.5,-27.4169"/>
<polygon fill="black" stroke="black" points="418.5,-22.3039 420.75,-27.3038 418.5,-24.8039 418.5,-27.3039 418.5,-27.3039 418.5,-27.3039 418.5,-24.8039 416.25,-27.3039 418.5,-22.3039 418.5,-22.3039"/>
</g>
</g>
</svg>
