<?xml version="1.0" encoding="UTF-8" standalone="no"?>
<?xml-stylesheet href="style.css" type="text/css"?>
<!DOCTYPE svg PUBLIC "-//W3C//DTD SVG 1.1//EN"
 "http://www.w3.org/Graphics/SVG/1.1/DTD/svg11.dtd">
<!-- Generated by graphviz version 2.38.0 (20140413.2041)
 -->
<!-- Title: 7.svg Pages: 1 -->
<svg width="1442pt" height="374pt"
 viewBox="0.00 0.00 1441.50 374.00" xmlns="http://www.w3.org/2000/svg" xmlns:xlink="http://www.w3.org/1999/xlink">
<g id="graph0" class="graph" transform="scale(1 1) rotate(0) translate(4 370)">
<title>7.svg</title>
<polygon fill="white" stroke="none" points="-4,4 -4,-370 1437.5,-370 1437.5,4 -4,4"/>
<!-- r0 -->
<g id="node1" class="node"><title>r0</title>
<polygon fill="none" stroke="black" stroke-dasharray="5,2" points="556.5,-366 533.5,-366 533.5,-348 556.5,-348 556.5,-366"/>
<text text-anchor="middle" x="545" y="-354.8" font-family="serif" font-size="9.00">0</text>
</g>
<!-- v0 -->
<g id="v0_Building" class="node"><title>v0</title>
<ellipse fill="none" stroke="black" cx="545" cy="-301" rx="36" ry="11"/>
<text text-anchor="middle" x="545" y="-298.8" font-family="sans-serif" font-size="9.00">Building</text>
</g>
<!-- r0&#45;&gt;v0 -->
<g id="edge1" class="edge"><title>r0&#45;&gt;v0</title>
<path fill="none" stroke="black" d="M545,-347.562C545,-339.453 545,-327.014 545,-317.181"/>
<polygon fill="black" stroke="black" points="545,-312.03 547.25,-317.03 545,-314.53 545,-317.03 545,-317.03 545,-317.03 545,-314.53 542.75,-317.03 545,-312.03 545,-312.03"/>
</g>
<!-- r1 -->
<g id="node2" class="node"><title>r1</title>
<polygon fill="none" stroke="black" stroke-dasharray="5,2" points="1162.5,-366 1139.5,-366 1139.5,-348 1162.5,-348 1162.5,-366"/>
<text text-anchor="middle" x="1151" y="-354.8" font-family="serif" font-size="9.00">1</text>
</g>
<!-- v6 -->
<g id="v6_RulesKeywords" class="node"><title>v6</title>
<ellipse fill="none" stroke="black" cx="1151" cy="-69" rx="54" ry="11"/>
<text text-anchor="middle" x="1151" y="-66.8" font-family="sans-serif" font-size="9.00">RulesKeywords</text>
</g>
<!-- r1&#45;&gt;v6 -->
<g id="edge2" class="edge"><title>r1&#45;&gt;v6</title>
<path fill="none" stroke="black" d="M1151,-347.849C1151,-329.373 1151,-282.889 1151,-244 1151,-244 1151,-244 1151,-184 1151,-148.604 1151,-107.026 1151,-85.1783"/>
<polygon fill="black" stroke="black" points="1151,-80.0648 1153.25,-85.0648 1151,-82.5648 1151,-85.0648 1151,-85.0648 1151,-85.0648 1151,-82.5648 1148.75,-85.0648 1151,-80.0648 1151,-80.0648"/>
</g>
<!-- e3 -->
<g id="node3" class="node"><title>e3</title>
</g>
<!-- v5 -->
<g id="v5_Laptop" class="node"><title>v5</title>
<ellipse fill="none" stroke="black" cx="353" cy="-69" rx="29" ry="11"/>
<text text-anchor="middle" x="353" y="-66.8" font-family="sans-serif" font-size="9.00">Laptop</text>
</g>
<!-- e3&#45;&gt;v5 -->
<g id="edge26" class="edge"><title>e3&#45;&gt;v5</title>
<path fill="none" stroke="green" d="M353,-122.167C353,-113.586 353,-92.5957 353,-80.0117"/>
<polygon fill="green" stroke="green" points="356.5,-125.3 349.5,-125.3 349.5,-123.9 356.5,-123.9 356.5,-125.3"/>
<polyline fill="none" stroke="green" points="353,-126 353,-122.5 "/>
</g>
<!-- v1 -->
<g id="v1_Floor" class="node"><title>v1</title>
<ellipse fill="none" stroke="black" cx="422" cy="-243" rx="25" ry="11"/>
<text text-anchor="middle" x="422" y="-240.8" font-family="sans-serif" font-size="9.00">Floor</text>
</g>
<!-- v0&#45;&gt;v1 -->
<g id="edge3" class="edge"><title>v0&#45;&gt;v1</title>
<path fill="none" stroke="black" d="M526.319,-291.495C503.983,-281.326 466.687,-264.345 443.266,-253.682"/>
<polygon fill="black" stroke="black" points="438.489,-251.507 443.971,-251.531 440.764,-252.543 443.039,-253.579 443.039,-253.579 443.039,-253.579 440.764,-252.543 442.107,-255.627 438.489,-251.507 438.489,-251.507"/>
</g>
<!-- v21 -->
<g id="v21_InstallationBus" class="node"><title>v21</title>
<ellipse fill="none" stroke="black" cx="747" cy="-11" rx="61" ry="11"/>
<text text-anchor="middle" x="747" y="-8.8" font-family="sans-serif" font-size="9.00">InstallationBus</text>
</g>
<!-- v0&#45;&gt;v21 -->
<g id="edge4" class="edge"><title>v0&#45;&gt;v21</title>
<path fill="none" stroke="black" d="M563.66,-291.343C595.043,-275.345 655,-237.981 655,-186 655,-186 655,-186 655,-126 655,-80.6146 699.705,-43.1086 726.789,-24.5507"/>
<polygon fill="black" stroke="black" points="730.975,-21.7366 728.081,-26.3935 728.9,-23.1314 726.825,-24.5262 726.825,-24.5262 726.825,-24.5262 728.9,-23.1314 725.57,-22.6589 730.975,-21.7366 730.975,-21.7366"/>
</g>
<!-- v2 -->
<g id="v2_Room" class="node"><title>v2</title>
<ellipse fill="none" stroke="black" cx="126" cy="-69" rx="21.5" ry="11"/>
<text text-anchor="middle" x="126" y="-66.8" font-family="sans-serif" font-size="9.00">Room</text>
</g>
<!-- v1&#45;&gt;v2 -->
<g id="edge5" class="edge"><title>v1&#45;&gt;v2</title>
<path fill="none" stroke="black" d="M398.354,-239.099C347.343,-231.64 225.934,-207.259 156,-138 141.302,-123.444 133.248,-100.452 129.28,-85.2981"/>
<polygon fill="black" stroke="black" points="127.999,-80.0998 131.38,-84.4158 128.597,-82.5271 129.196,-84.9544 129.196,-84.9544 129.196,-84.9544 128.597,-82.5271 127.011,-85.493 127.999,-80.0998 127.999,-80.0998"/>
</g>
<!-- v3 -->
<g id="v3_Hallway" class="node"><title>v3</title>
<ellipse fill="none" stroke="black" cx="333" cy="-185" rx="32.5" ry="11"/>
<text text-anchor="middle" x="333" y="-182.8" font-family="sans-serif" font-size="9.00">Hallway</text>
</g>
<!-- v1&#45;&gt;v3 -->
<g id="edge6" class="edge"><title>v1&#45;&gt;v3</title>
<path fill="none" stroke="black" d="M408.483,-233.495C393.37,-223.986 368.793,-208.521 351.809,-197.835"/>
<polygon fill="black" stroke="black" points="347.235,-194.957 352.665,-195.715 349.351,-196.288 351.467,-197.619 351.467,-197.619 351.467,-197.619 349.351,-196.288 350.268,-199.524 347.235,-194.957 347.235,-194.957"/>
</g>
<!-- v16 -->
<g id="v16_Room" class="node"><title>v16</title>
<ellipse fill="none" stroke="black" cx="422" cy="-69" rx="21.5" ry="11"/>
<text text-anchor="middle" x="422" y="-66.8" font-family="sans-serif" font-size="9.00">Room</text>
</g>
<!-- v1&#45;&gt;v16 -->
<g id="edge7" class="edge"><title>v1&#45;&gt;v16</title>
<path fill="none" stroke="black" d="M422,-231.756C422,-202.786 422,-120.136 422,-85.5335"/>
<polygon fill="black" stroke="black" points="422,-80.4081 424.25,-85.408 422,-82.9081 422,-85.4081 422,-85.4081 422,-85.4081 422,-82.9081 419.75,-85.4081 422,-80.4081 422,-80.4081"/>
</g>
<!-- v18 -->
<g id="v18_Room" class="node"><title>v18</title>
<ellipse fill="none" stroke="black" cx="513" cy="-69" rx="21.5" ry="11"/>
<text text-anchor="middle" x="513" y="-66.8" font-family="sans-serif" font-size="9.00">Room</text>
</g>
<!-- v1&#45;&gt;v18 -->
<g id="edge8" class="edge"><title>v1&#45;&gt;v18</title>
<path fill="none" stroke="black" d="M427.286,-232.009C442.615,-203.034 487.146,-118.867 505.23,-84.6863"/>
<polygon fill="black" stroke="black" points="507.7,-80.0185 507.35,-85.4903 506.53,-82.2283 505.361,-84.438 505.361,-84.438 505.361,-84.438 506.53,-82.2283 503.372,-83.3858 507.7,-80.0185 507.7,-80.0185"/>
</g>
<!-- v2&#45;&gt;v3 -->
<g id="edge23" class="edge"><title>v2&#45;&gt;v3</title>
<path fill="none" stroke="green" d="M131.677,-79.8779C140.68,-94.6754 159.632,-122.51 183,-138 220.461,-162.832 271.946,-174.763 303.814,-180.108"/>
</g>
<!-- v7 -->
<g id="v7_SmartLight" class="node"><title>v7</title>
<ellipse fill="none" stroke="black" cx="43" cy="-11" rx="43" ry="11"/>
<text text-anchor="middle" x="43" y="-8.8" font-family="sans-serif" font-size="9.00">SmartLight</text>
</g>
<!-- v2&#45;&gt;v7 -->
<g id="edge9" class="edge"><title>v2&#45;&gt;v7</title>
<path fill="none" stroke="black" d="M113.753,-59.737C99.9037,-50.3929 77.2109,-35.082 61.2675,-24.325"/>
<polygon fill="black" stroke="black" points="56.9625,-21.4205 62.3658,-22.3519 59.035,-22.8188 61.1074,-24.2171 61.1074,-24.2171 61.1074,-24.2171 59.035,-22.8188 59.8489,-26.0822 56.9625,-21.4205 56.9625,-21.4205"/>
</g>
<!-- v8 -->
<g id="v8_HVAC" class="node"><title>v8</title>
<ellipse fill="none" stroke="black" cx="126" cy="-11" rx="21.5" ry="11"/>
<text text-anchor="middle" x="126" y="-8.8" font-family="sans-serif" font-size="9.00">HVAC</text>
</g>
<!-- v2&#45;&gt;v8 -->
<g id="edge10" class="edge"><title>v2&#45;&gt;v8</title>
<path fill="none" stroke="black" d="M126,-57.9883C126,-49.4941 126,-37.1697 126,-27.4169"/>
<polygon fill="black" stroke="black" points="126,-22.3039 128.25,-27.3038 126,-24.8039 126,-27.3039 126,-27.3039 126,-27.3039 126,-24.8039 123.75,-27.3039 126,-22.3039 126,-22.3039"/>
</g>
<!-- v9 -->
<g id="v9_FireAlarm" class="node"><title>v9</title>
<ellipse fill="none" stroke="black" cx="205" cy="-11" rx="39.5" ry="11"/>
<text text-anchor="middle" x="205" y="-8.8" font-family="sans-serif" font-size="9.00">FireAlarm</text>
</g>
<!-- v2&#45;&gt;v9 -->
<g id="edge11" class="edge"><title>v2&#45;&gt;v9</title>
<path fill="none" stroke="black" d="M137.657,-59.737C150.839,-50.3929 172.438,-35.082 187.613,-24.325"/>
<polygon fill="black" stroke="black" points="191.71,-21.4205 188.932,-26.1477 189.671,-22.8663 187.631,-24.3121 187.631,-24.3121 187.631,-24.3121 189.671,-22.8663 186.33,-22.4765 191.71,-21.4205 191.71,-21.4205"/>
</g>
<!-- v4 -->
<g id="v4_Visitor" class="node"><title>v4</title>
<ellipse fill="none" stroke="black" cx="225" cy="-127" rx="32.5" ry="11"/>
<text text-anchor="middle" x="225" y="-124.8" font-family="sans-serif" font-size="9.00">Visitor</text>
</g>
<!-- v3&#45;&gt;v4 -->
<g id="edge12" class="edge"><title>v3&#45;&gt;v4</title>
<path fill="none" stroke="black" d="M316.597,-175.495C297.725,-165.709 266.691,-149.618 246.052,-138.916"/>
<polygon fill="black" stroke="black" points="241.557,-136.585 247.032,-136.889 243.777,-137.736 245.996,-138.887 245.996,-138.887 245.996,-138.887 243.777,-137.736 244.96,-140.884 241.557,-136.585 241.557,-136.585"/>
</g>
<!-- v3&#45;&gt;v16 -->
<g id="edge24" class="edge"><title>v3&#45;&gt;v16</title>
<path fill="none" stroke="green" d="M324.455,-174.04C313.593,-160.104 297.648,-134.426 310,-116 315.56,-107.706 374.561,-86.3848 404.614,-75.9422"/>
</g>
<!-- v3&#45;&gt;v18 -->
<g id="edge25" class="edge"><title>v3&#45;&gt;v18</title>
<path fill="none" stroke="green" d="M331.349,-173.825C329.587,-159.153 328.736,-132.059 343,-116 353.152,-104.57 451.201,-82.9233 493.612,-73.9997"/>
</g>
<!-- v4&#45;&gt;v5 -->
<g id="edge13" class="edge"><title>v4&#45;&gt;v5</title>
<path fill="none" stroke="black" d="M243.612,-117.857C266.623,-107.79 305.763,-90.6662 330.454,-79.8638"/>
<polygon fill="black" stroke="black" points="335.191,-77.7916 331.512,-81.8571 332.9,-78.7937 330.61,-79.7958 330.61,-79.7958 330.61,-79.7958 332.9,-78.7937 329.708,-77.7344 335.191,-77.7916 335.191,-77.7916"/>
</g>
<!-- v10 -->
<g id="v10_Software" class="node"><title>v10</title>
<ellipse fill="none" stroke="black" cx="312" cy="-11" rx="36" ry="11"/>
<text text-anchor="middle" x="312" y="-8.8" font-family="sans-serif" font-size="9.00">Software</text>
</g>
<!-- v5&#45;&gt;v10 -->
<g id="edge14" class="edge"><title>v5&#45;&gt;v10</title>
<path fill="none" stroke="black" d="M345.858,-58.2455C339.354,-49.3616 329.672,-36.1372 322.325,-26.1029"/>
<polygon fill="black" stroke="black" points="319.336,-22.0198 324.105,-24.7249 320.813,-24.0369 322.29,-26.0541 322.29,-26.0541 322.29,-26.0541 320.813,-24.0369 320.474,-27.3833 319.336,-22.0198 319.336,-22.0198"/>
</g>
<!-- v11 -->
<g id="v11_ConnectDevice" class="node"><title>v11</title>
<ellipse fill="none" stroke="black" cx="880" cy="-11" rx="54" ry="11"/>
<text text-anchor="middle" x="880" y="-8.8" font-family="sans-serif" font-size="9.00">ConnectDevice</text>
</g>
<!-- v6&#45;&gt;v11 -->
<g id="edge15" class="edge"><title>v6&#45;&gt;v11</title>
<path fill="none" stroke="black" d="M1115.57,-60.679C1065.26,-50.282 973.352,-31.2904 920.434,-20.3553"/>
<polygon fill="black" stroke="black" points="915.437,-19.3228 920.789,-18.1313 917.885,-19.8288 920.334,-20.3347 920.334,-20.3347 920.334,-20.3347 917.885,-19.8288 919.878,-22.5382 915.437,-19.3228 915.437,-19.3228"/>
</g>
<!-- v12 -->
<g id="v12_DisconnectDevice" class="node"><title>v12</title>
<ellipse fill="none" stroke="black" cx="1017" cy="-11" rx="65" ry="11"/>
<text text-anchor="middle" x="1017" y="-8.8" font-family="sans-serif" font-size="9.00">DisconnectDevice</text>
</g>
<!-- v6&#45;&gt;v12 -->
<g id="edge16" class="edge"><title>v6&#45;&gt;v12</title>
<path fill="none" stroke="black" d="M1129.17,-58.878C1106.09,-49.2315 1069.62,-33.9894 1044.57,-23.5199"/>
<polygon fill="black" stroke="black" points="1039.71,-21.4927 1045.2,-21.3447 1042.02,-22.4567 1044.33,-23.4207 1044.33,-23.4207 1044.33,-23.4207 1042.02,-22.4567 1043.46,-25.4967 1039.71,-21.4927 1039.71,-21.4927"/>
</g>
<!-- v13 -->
<g id="v13_GenerateData" class="node"><title>v13</title>
<ellipse fill="none" stroke="black" cx="1151" cy="-11" rx="50.5" ry="11"/>
<text text-anchor="middle" x="1151" y="-8.8" font-family="sans-serif" font-size="9.00">GenerateData</text>
</g>
<!-- v6&#45;&gt;v13 -->
<g id="edge17" class="edge"><title>v6&#45;&gt;v13</title>
<path fill="none" stroke="black" d="M1151,-57.9883C1151,-49.4941 1151,-37.1697 1151,-27.4169"/>
<polygon fill="black" stroke="black" points="1151,-22.3039 1153.25,-27.3038 1151,-24.8039 1151,-27.3039 1151,-27.3039 1151,-27.3039 1151,-24.8039 1148.75,-27.3039 1151,-22.3039 1151,-22.3039"/>
</g>
<!-- v14 -->
<g id="v14_CollectData" class="node"><title>v14</title>
<ellipse fill="none" stroke="black" cx="1267" cy="-11" rx="47" ry="11"/>
<text text-anchor="middle" x="1267" y="-8.8" font-family="sans-serif" font-size="9.00">CollectData</text>
</g>
<!-- v6&#45;&gt;v14 -->
<g id="edge18" class="edge"><title>v6&#45;&gt;v14</title>
<path fill="none" stroke="black" d="M1170.42,-58.6269C1190.44,-48.9585 1221.7,-33.8675 1243.2,-23.4873"/>
<polygon fill="black" stroke="black" points="1247.91,-21.2174 1244.38,-25.4174 1245.66,-22.3043 1243.4,-23.3912 1243.4,-23.3912 1243.4,-23.3912 1245.66,-22.3043 1242.43,-21.3649 1247.91,-21.2174 1247.91,-21.2174"/>
</g>
<!-- v15 -->
<g id="v15_SendSoftware" class="node"><title>v15</title>
<ellipse fill="none" stroke="black" cx="1383" cy="-11" rx="50.5" ry="11"/>
<text text-anchor="middle" x="1383" y="-8.8" font-family="sans-serif" font-size="9.00">SendSoftware</text>
</g>
<!-- v6&#45;&gt;v15 -->
<g id="edge19" class="edge"><title>v6&#45;&gt;v15</title>
<path fill="none" stroke="black" d="M1183.75,-60.0953C1226.56,-49.7605 1301.36,-31.7058 1346.13,-20.9008"/>
<polygon fill="black" stroke="black" points="1351.16,-19.6847 1346.83,-23.0452 1348.73,-20.2713 1346.3,-20.858 1346.3,-20.858 1346.3,-20.858 1348.73,-20.2713 1345.78,-18.6708 1351.16,-19.6847 1351.16,-19.6847"/>
</g>
<!-- v7&#45;&gt;v21 -->
<g id="edge27" class="edge"><title>v7&#45;&gt;v21</title>
<path fill="none" stroke="green" d="M59.3593,-21.2415C71.2438,-28.0527 87.9859,-36.3871 104,-40 165.13,-53.7914 606.3,-50.9668 668,-40 687.995,-36.446 709.567,-28.2018 725.109,-21.4084"/>
</g>
<!-- v8&#45;&gt;v21 -->
<g id="edge28" class="edge"><title>v8&#45;&gt;v21</title>
<path fill="none" stroke="green" d="M135.547,-20.8905C142.87,-27.7237 153.626,-36.2346 165,-40 218.057,-57.5645 612.974,-49.7807 668,-40 687.995,-36.446 709.567,-28.2018 725.109,-21.4084"/>
</g>
<!-- v9&#45;&gt;v21 -->
<g id="edge29" class="edge"><title>v9&#45;&gt;v21</title>
<path fill="none" stroke="green" d="M223.367,-20.8185C237.352,-27.7126 257.316,-36.3314 276,-40 361.479,-56.7839 582.233,-55.2447 668,-40 687.995,-36.446 709.567,-28.2018 725.109,-21.4084"/>
</g>
<!-- v17 -->
<g id="v17_SmartLight" class="node"><title>v17</title>
<ellipse fill="none" stroke="black" cx="409" cy="-11" rx="43" ry="11"/>
<text text-anchor="middle" x="409" y="-8.8" font-family="sans-serif" font-size="9.00">SmartLight</text>
</g>
<!-- v16&#45;&gt;v17 -->
<g id="edge20" class="edge"><title>v16&#45;&gt;v17</title>
<path fill="none" stroke="black" d="M419.676,-57.9883C417.704,-49.4941 414.843,-37.1697 412.579,-27.4169"/>
<polygon fill="black" stroke="black" points="411.392,-22.3039 414.714,-26.6655 411.957,-24.7391 412.523,-27.1744 412.523,-27.1744 412.523,-27.1744 411.957,-24.7391 410.331,-27.6832 411.392,-22.3039 411.392,-22.3039"/>
</g>
<!-- v17&#45;&gt;v21 -->
<g id="edge30" class="edge"><title>v17&#45;&gt;v21</title>
<path fill="none" stroke="green" d="M425.359,-21.2415C437.244,-28.0527 453.986,-36.3871 470,-40 555.843,-59.3666 581.358,-55.4002 668,-40 687.995,-36.446 709.567,-28.2018 725.109,-21.4084"/>
</g>
<!-- v19 -->
<g id="v19_SmartLight" class="node"><title>v19</title>
<ellipse fill="none" stroke="black" cx="513" cy="-11" rx="43" ry="11"/>
<text text-anchor="middle" x="513" y="-8.8" font-family="sans-serif" font-size="9.00">SmartLight</text>
</g>
<!-- v18&#45;&gt;v19 -->
<g id="edge21" class="edge"><title>v18&#45;&gt;v19</title>
<path fill="none" stroke="black" d="M513,-57.9883C513,-49.4941 513,-37.1697 513,-27.4169"/>
<polygon fill="black" stroke="black" points="513,-22.3039 515.25,-27.3038 513,-24.8039 513,-27.3039 513,-27.3039 513,-27.3039 513,-24.8039 510.75,-27.3039 513,-22.3039 513,-22.3039"/>
</g>
<!-- v20 -->
<g id="v20_Workstation" class="node"><title>v20</title>
<ellipse fill="none" stroke="black" cx="621" cy="-11" rx="47" ry="11"/>
<text text-anchor="middle" x="621" y="-8.8" font-family="sans-serif" font-size="9.00">Workstation</text>
</g>
<!-- v18&#45;&gt;v20 -->
<g id="edge22" class="edge"><title>v18&#45;&gt;v20</title>
<path fill="none" stroke="black" d="M527.119,-60.679C545.192,-51.3076 576.732,-34.9536 598.222,-23.8106"/>
<polygon fill="black" stroke="black" points="602.916,-21.3771 599.513,-25.6762 600.696,-22.5279 598.477,-23.6787 598.477,-23.6787 598.477,-23.6787 600.696,-22.5279 597.441,-21.6813 602.916,-21.3771 602.916,-21.3771"/>
</g>
<!-- v19&#45;&gt;v21 -->
<g id="edge31" class="edge"><title>v19&#45;&gt;v21</title>
<path fill="none" stroke="green" d="M529.359,-21.2415C541.244,-28.0527 557.986,-36.3871 574,-40 614.754,-49.1942 626.867,-47.3112 668,-40 687.995,-36.446 709.567,-28.2018 725.109,-21.4084"/>
</g>
<!-- v20&#45;&gt;v21 -->
<g id="edge32" class="edge"><title>v20&#45;&gt;v21</title>
<path fill="none" stroke="green" d="M668.25,-11C674.095,-11 679.939,-11 685.784,-11"/>
</g>
</g>
</svg>
