<?xml version="1.0" encoding="UTF-8" standalone="no"?>
<?xml-stylesheet href="style.css" type="text/css"?>
<!DOCTYPE svg PUBLIC "-//W3C//DTD SVG 1.1//EN"
 "http://www.w3.org/Graphics/SVG/1.1/DTD/svg11.dtd">
<!-- Generated by graphviz version 2.38.0 (20140413.2041)
 -->
<!-- Title: 10.svg Pages: 1 -->
<svg width="307pt" height="200pt"
 viewBox="0.00 0.00 307.00 200.00" xmlns="http://www.w3.org/2000/svg" xmlns:xlink="http://www.w3.org/1999/xlink">
<g id="graph0" class="graph" transform="scale(1 1) rotate(0) translate(4 196)">
<title>10.svg</title>
<polygon fill="white" stroke="none" points="-4,4 -4,-196 303,-196 303,4 -4,4"/>
<!-- r0 -->
<g id="node1" class="node"><title>r0</title>
<polygon fill="none" stroke="black" stroke-dasharray="5,2" points="105,-192 82,-192 82,-174 105,-174 105,-192"/>
<text text-anchor="middle" x="93.5" y="-180.8" font-family="serif" font-size="9.00">0</text>
</g>
<!-- v1 -->
<g id="v1_R" class="node"><title>v1</title>
<ellipse fill="none" stroke="black" cx="270.5" cy="-69" rx="11" ry="11"/>
<text text-anchor="middle" x="270.5" y="-66.8" font-family="sans-serif" font-size="9.00">R</text>
</g>
<!-- r0&#45;&gt;v1 -->
<g id="edge1" class="edge"><title>r0&#45;&gt;v1</title>
<path fill="none" stroke="black" d="M105.113,-174.651C136.634,-154.706 223.665,-99.6356 257.14,-78.4539"/>
<polygon fill="black" stroke="black" points="261.677,-75.5828 258.655,-80.1578 259.565,-76.9196 257.452,-78.2564 257.452,-78.2564 257.452,-78.2564 259.565,-76.9196 256.249,-76.3551 261.677,-75.5828 261.677,-75.5828"/>
</g>
<!-- v5 -->
<g id="v5_T" class="node"><title>v5</title>
<ellipse fill="none" stroke="black" cx="92.5" cy="-127" rx="11" ry="11"/>
<text text-anchor="middle" x="92.5" y="-124.8" font-family="sans-serif" font-size="9.00">T</text>
</g>
<!-- r0&#45;&gt;v5 -->
<g id="edge2" class="edge"><title>r0&#45;&gt;v5</title>
<path fill="none" stroke="black" d="M93.3438,-173.562C93.1936,-165.453 92.9632,-153.014 92.7811,-143.181"/>
<polygon fill="black" stroke="black" points="92.6857,-138.03 95.028,-142.988 92.7321,-140.53 92.7784,-143.03 92.7784,-143.03 92.7784,-143.03 92.7321,-140.53 90.5288,-143.071 92.6857,-138.03 92.6857,-138.03"/>
</g>
<!-- r1 -->
<g id="node2" class="node"><title>r1</title>
<polygon fill="none" stroke="black" stroke-dasharray="5,2" points="64,-192 41,-192 41,-174 64,-174 64,-192"/>
<text text-anchor="middle" x="52.5" y="-180.8" font-family="serif" font-size="9.00">1</text>
</g>
<!-- v0 -->
<g id="v0_R" class="node"><title>v0</title>
<ellipse fill="none" stroke="black" cx="95.5" cy="-69" rx="11" ry="11"/>
<text text-anchor="middle" x="95.5" y="-66.8" font-family="sans-serif" font-size="9.00">R</text>
</g>
<!-- r1&#45;&gt;v0 -->
<g id="edge3" class="edge"><title>r1&#45;&gt;v0</title>
<path fill="none" stroke="black" d="M54.5266,-173.719C57.731,-161.063 64.4388,-136.245 72.5,-116 76.9591,-104.801 83.1114,-92.6216 87.931,-83.6097"/>
<polygon fill="black" stroke="black" points="90.4522,-78.9554 90.049,-84.4235 89.2614,-81.1536 88.0707,-83.3518 88.0707,-83.3518 88.0707,-83.3518 89.2614,-81.1536 86.0923,-82.2801 90.4522,-78.9554 90.4522,-78.9554"/>
</g>
<!-- oa -->
<g id="node3" class="node"><title>oa</title>
<text text-anchor="middle" x="134.5" y="-180.8" font-family="serif" font-size="9.00">a</text>
</g>
<!-- ob -->
<g id="node4" class="node"><title>ob</title>
<text text-anchor="middle" x="11.5" y="-180.8" font-family="serif" font-size="9.00">b</text>
</g>
<!-- e1 -->
<g id="node8" class="node"><title>e1</title>
</g>
<!-- ob&#45;&gt;e1 -->
<g id="edge11" class="edge"><title>ob&#45;&gt;e1</title>
<path fill="none" stroke="green" d="M15.3835,-173.945C27.7653,-148.265 65.5,-70 65.5,-70"/>
</g>
<!-- oc -->
<g id="node5" class="node"><title>oc</title>
<text text-anchor="middle" x="174.5" y="-180.8" font-family="serif" font-size="9.00">c</text>
</g>
<!-- od -->
<g id="node6" class="node"><title>od</title>
<text text-anchor="middle" x="287.5" y="-180.8" font-family="serif" font-size="9.00">d</text>
</g>
<!-- e3 -->
<g id="node9" class="node"><title>e3</title>
</g>
<!-- od&#45;&gt;e3 -->
<g id="edge18" class="edge"><title>od&#45;&gt;e3</title>
<path fill="none" stroke="green" d="M284.12,-173.945C273.343,-148.265 240.5,-70 240.5,-70"/>
</g>
<!-- ox -->
<g id="node7" class="node"><title>ox</title>
<text text-anchor="middle" x="214.5" y="-180.8" font-family="serif" font-size="9.00">x</text>
</g>
<!-- v4 -->
<g id="v4_ND" class="node"><title>v4</title>
<ellipse fill="none" stroke="black" cx="153.5" cy="-11" rx="14.5" ry="11"/>
<text text-anchor="middle" x="153.5" y="-8.8" font-family="sans-serif" font-size="9.00">ND</text>
</g>
<!-- e1&#45;&gt;v4 -->
<g id="edge12" class="edge"><title>e1&#45;&gt;v4</title>
<path fill="none" stroke="green" d="M65.5,-68C65.5,-68 70.5312,-61.8493 75.5,-58 97.3734,-41.0547 126.038,-25.667 141.817,-17.7045"/>
</g>
<!-- v7 -->
<g id="v7_M" class="node"><title>v7</title>
<ellipse fill="none" stroke="black" cx="30.5" cy="-11" rx="11" ry="11"/>
<text text-anchor="middle" x="30.5" y="-8.8" font-family="sans-serif" font-size="9.00">M</text>
</g>
<!-- e1&#45;&gt;v7 -->
<g id="edge13" class="edge"><title>e1&#45;&gt;v7</title>
<path fill="none" stroke="green" d="M65.5,-68C58.9258,-68 38.4784,-38.1193 31.4414,-22.0117"/>
</g>
<!-- e1&#45;&gt;v7 -->
<g id="edge14" class="edge"><title>e1&#45;&gt;v7</title>
<path fill="none" stroke="green" d="M65.5,-68C72.6016,-68 52.3079,-33.1333 39.0089,-18.4239"/>
</g>
<!-- v8 -->
<g id="v8_M" class="node"><title>v8</title>
<ellipse fill="none" stroke="black" cx="70.5" cy="-11" rx="11" ry="11"/>
<text text-anchor="middle" x="70.5" y="-8.8" font-family="sans-serif" font-size="9.00">M</text>
</g>
<!-- e1&#45;&gt;v8 -->
<g id="edge15" class="edge"><title>e1&#45;&gt;v8</title>
<path fill="none" stroke="green" d="M65.5,-68C58.75,-68 59.875,-36.5 64.6562,-20.75"/>
</g>
<!-- e1&#45;&gt;v8 -->
<g id="edge16" class="edge"><title>e1&#45;&gt;v8</title>
<path fill="none" stroke="green" d="M65.5,-68C72.1797,-68 76.656,-37.1528 74.8407,-21.2473"/>
</g>
<!-- v2 -->
<g id="v2_M" class="node"><title>v2</title>
<ellipse fill="none" stroke="black" cx="235.5" cy="-11" rx="11" ry="11"/>
<text text-anchor="middle" x="235.5" y="-8.8" font-family="sans-serif" font-size="9.00">M</text>
</g>
<!-- e3&#45;&gt;v2 -->
<g id="edge19" class="edge"><title>e3&#45;&gt;v2</title>
<path fill="none" stroke="green" d="M240.5,-68C233.82,-68 229.344,-37.1528 231.159,-21.2473"/>
</g>
<!-- e3&#45;&gt;v2 -->
<g id="edge20" class="edge"><title>e3&#45;&gt;v2</title>
<path fill="none" stroke="green" d="M240.5,-68C247.25,-68 246.125,-36.5 241.344,-20.75"/>
</g>
<!-- v3 -->
<g id="v3_M" class="node"><title>v3</title>
<ellipse fill="none" stroke="black" cx="275.5" cy="-11" rx="11" ry="11"/>
<text text-anchor="middle" x="275.5" y="-8.8" font-family="sans-serif" font-size="9.00">M</text>
</g>
<!-- e3&#45;&gt;v3 -->
<g id="edge21" class="edge"><title>e3&#45;&gt;v3</title>
<path fill="none" stroke="green" d="M240.5,-68C233.398,-68 253.692,-33.1333 266.991,-18.4239"/>
</g>
<!-- e3&#45;&gt;v3 -->
<g id="edge22" class="edge"><title>e3&#45;&gt;v3</title>
<path fill="none" stroke="green" d="M240.5,-68C247.074,-68 267.522,-38.1193 274.559,-22.0117"/>
</g>
<!-- e3&#45;&gt;v4 -->
<g id="edge23" class="edge"><title>e3&#45;&gt;v4</title>
<path fill="none" stroke="green" d="M240.5,-68C240.5,-68 232.21,-62.3793 225.5,-58 203.886,-43.893 178.392,-27.7119 164.277,-18.7932"/>
</g>
<!-- v0&#45;&gt;v4 -->
<g id="edge4" class="edge"><title>v0&#45;&gt;v4</title>
<path fill="none" stroke="black" d="M103.082,-60.679C112.793,-51.303 129.743,-34.9375 141.285,-23.7941"/>
<polygon fill="black" stroke="black" points="144.973,-20.2329 142.939,-25.3246 143.175,-21.9694 141.376,-23.7059 141.376,-23.7059 141.376,-23.7059 143.175,-21.9694 139.813,-22.0872 144.973,-20.2329 144.973,-20.2329"/>
</g>
<!-- v1&#45;&gt;v2 -->
<g id="edge5" class="edge"><title>v1&#45;&gt;v2</title>
<path fill="none" stroke="black" d="M265.031,-59.25C259.363,-50.1801 250.429,-35.8871 243.872,-25.3945"/>
<polygon fill="black" stroke="black" points="241.046,-20.8734 245.604,-23.9209 242.371,-22.9934 243.696,-25.1134 243.696,-25.1134 243.696,-25.1134 242.371,-22.9934 241.788,-26.3059 241.046,-20.8734 241.046,-20.8734"/>
</g>
<!-- v1&#45;&gt;v3 -->
<g id="edge6" class="edge"><title>v1&#45;&gt;v3</title>
<path fill="none" stroke="black" d="M271.394,-57.9883C272.152,-49.4941 273.253,-37.1697 274.123,-27.4169"/>
<polygon fill="black" stroke="black" points="274.58,-22.3039 276.376,-27.4842 274.358,-24.794 274.135,-27.2841 274.135,-27.2841 274.135,-27.2841 274.358,-24.794 271.894,-27.0839 274.58,-22.3039 274.58,-22.3039"/>
</g>
<!-- v4&#45;&gt;oa -->
<g id="edge10" class="edge"><title>v4&#45;&gt;oa</title>
<path fill="none" stroke="green" d="M152.36,-22.204C148.898,-53.1724 138.559,-145.679 135.416,-173.801"/>
</g>
<!-- v4&#45;&gt;oc -->
<g id="edge17" class="edge"><title>v4&#45;&gt;oc</title>
<path fill="none" stroke="green" d="M154.862,-22.2278C156.096,-31.5473 157.953,-45.694 159.5,-58 164.99,-101.676 171.205,-154.056 173.543,-173.872"/>
</g>
<!-- v4&#45;&gt;ox -->
<g id="edge24" class="edge"><title>v4&#45;&gt;ox</title>
<path fill="none" stroke="green" d="M158.449,-21.3412C163.193,-30.5147 170.372,-44.9872 175.5,-58 192.297,-100.621 206.978,-153.619 212.337,-173.737"/>
</g>
<!-- v6 -->
<g id="v6_T" class="node"><title>v6</title>
<ellipse fill="none" stroke="black" cx="35.5" cy="-69" rx="11" ry="11"/>
<text text-anchor="middle" x="35.5" y="-66.8" font-family="sans-serif" font-size="9.00">T</text>
</g>
<!-- v5&#45;&gt;v6 -->
<g id="edge7" class="edge"><title>v5&#45;&gt;v6</title>
<path fill="none" stroke="black" d="M85.0482,-118.679C75.2879,-109.09 58.0862,-92.19 46.7398,-81.0426"/>
<polygon fill="black" stroke="black" points="43.1355,-77.5016 48.2791,-79.4007 44.9189,-79.2536 46.7022,-81.0057 46.7022,-81.0057 46.7022,-81.0057 44.9189,-79.2536 45.1254,-82.6107 43.1355,-77.5016 43.1355,-77.5016"/>
</g>
<!-- v6&#45;&gt;v7 -->
<g id="edge8" class="edge"><title>v6&#45;&gt;v7</title>
<path fill="none" stroke="black" d="M34.6061,-57.9883C33.8477,-49.4941 32.7473,-37.1697 31.8765,-27.4169"/>
<polygon fill="black" stroke="black" points="31.42,-22.3039 34.1058,-27.0839 31.6424,-24.794 31.8647,-27.2841 31.8647,-27.2841 31.8647,-27.2841 31.6424,-24.794 29.6237,-27.4842 31.42,-22.3039 31.42,-22.3039"/>
</g>
<!-- v6&#45;&gt;v8 -->
<g id="edge9" class="edge"><title>v6&#45;&gt;v8</title>
<path fill="none" stroke="black" d="M40.9688,-59.25C46.6374,-50.1801 55.5705,-35.8871 62.1284,-25.3945"/>
<polygon fill="black" stroke="black" points="64.9541,-20.8734 64.2121,-26.3059 63.6291,-22.9934 62.3041,-25.1134 62.3041,-25.1134 62.3041,-25.1134 63.6291,-22.9934 60.3961,-23.9209 64.9541,-20.8734 64.9541,-20.8734"/>
</g>
</g>
</svg>
