<?xml version="1.0" encoding="UTF-8" standalone="no"?>
<?xml-stylesheet href="style.css" type="text/css"?>
<!DOCTYPE svg PUBLIC "-//W3C//DTD SVG 1.1//EN"
 "http://www.w3.org/Graphics/SVG/1.1/DTD/svg11.dtd">
<!-- Generated by graphviz version 2.38.0 (20140413.2041)
 -->
<!-- Title: 13.svg Pages: 1 -->
<svg width="314pt" height="200pt"
 viewBox="0.00 0.00 313.50 200.00" xmlns="http://www.w3.org/2000/svg" xmlns:xlink="http://www.w3.org/1999/xlink">
<g id="graph0" class="graph" transform="scale(1 1) rotate(0) translate(4 196)">
<title>13.svg</title>
<polygon fill="white" stroke="none" points="-4,4 -4,-196 309.5,-196 309.5,4 -4,4"/>
<!-- r0 -->
<g id="node1" class="node"><title>r0</title>
<polygon fill="none" stroke="black" stroke-dasharray="5,2" points="85.5,-192 62.5,-192 62.5,-174 85.5,-174 85.5,-192"/>
<text text-anchor="middle" x="74" y="-180.8" font-family="serif" font-size="9.00">0</text>
</g>
<!-- v1 -->
<g id="v1_R" class="node"><title>v1</title>
<ellipse fill="none" stroke="black" cx="33" cy="-69" rx="11" ry="11"/>
<text text-anchor="middle" x="33" y="-66.8" font-family="sans-serif" font-size="9.00">R</text>
</g>
<!-- r0&#45;&gt;v1 -->
<g id="edge1" class="edge"><title>r0&#45;&gt;v1</title>
<path fill="none" stroke="black" d="M71.0514,-173.945C64.1603,-155.121 46.9263,-108.042 38.215,-84.246"/>
<polygon fill="black" stroke="black" points="36.4923,-79.54 40.3241,-83.4618 37.3518,-81.8876 38.2112,-84.2353 38.2112,-84.2353 38.2112,-84.2353 37.3518,-81.8876 36.0983,-85.0088 36.4923,-79.54 36.4923,-79.54"/>
</g>
<!-- v5 -->
<g id="v5_T" class="node"><title>v5</title>
<ellipse fill="none" stroke="black" cx="93" cy="-127" rx="11" ry="11"/>
<text text-anchor="middle" x="93" y="-124.8" font-family="sans-serif" font-size="9.00">T</text>
</g>
<!-- r0&#45;&gt;v5 -->
<g id="edge2" class="edge"><title>r0&#45;&gt;v5</title>
<path fill="none" stroke="black" d="M76.9688,-173.562C79.8839,-165.277 84.3895,-152.472 87.8826,-142.544"/>
<polygon fill="black" stroke="black" points="89.6032,-137.654 90.066,-143.118 88.7734,-140.012 87.9436,-142.371 87.9436,-142.371 87.9436,-142.371 88.7734,-140.012 85.8211,-141.624 89.6032,-137.654 89.6032,-137.654"/>
</g>
<!-- r1 -->
<g id="node2" class="node"><title>r1</title>
<polygon fill="none" stroke="black" stroke-dasharray="5,2" points="182.5,-192 159.5,-192 159.5,-174 182.5,-174 182.5,-192"/>
<text text-anchor="middle" x="171" y="-180.8" font-family="serif" font-size="9.00">1</text>
</g>
<!-- v0 -->
<g id="v0_R" class="node"><title>v0</title>
<ellipse fill="none" stroke="black" cx="172" cy="-69" rx="11" ry="11"/>
<text text-anchor="middle" x="172" y="-66.8" font-family="sans-serif" font-size="9.00">R</text>
</g>
<!-- r1&#45;&gt;v0 -->
<g id="edge3" class="edge"><title>r1&#45;&gt;v0</title>
<path fill="none" stroke="black" d="M171.072,-173.945C171.238,-155.386 171.649,-109.364 171.864,-85.2658"/>
<polygon fill="black" stroke="black" points="171.909,-80.1957 174.114,-85.2157 171.887,-82.6956 171.864,-85.1955 171.864,-85.1955 171.864,-85.1955 171.887,-82.6956 169.614,-85.1754 171.909,-80.1957 171.909,-80.1957"/>
</g>
<!-- oa -->
<g id="node3" class="node"><title>oa</title>
<text text-anchor="middle" x="16" y="-180.8" font-family="serif" font-size="9.00">a</text>
</g>
<!-- e0 -->
<g id="node8" class="node"><title>e0</title>
</g>
<!-- oa&#45;&gt;e0 -->
<g id="edge10" class="edge"><title>oa&#45;&gt;e0</title>
<path fill="none" stroke="green" d="M19.3801,-173.945C30.1568,-148.265 63,-70 63,-70"/>
</g>
<!-- ob -->
<g id="node4" class="node"><title>ob</title>
<text text-anchor="middle" x="212" y="-180.8" font-family="serif" font-size="9.00">b</text>
</g>
<!-- oc -->
<g id="node5" class="node"><title>oc</title>
<text text-anchor="middle" x="253" y="-180.8" font-family="serif" font-size="9.00">c</text>
</g>
<!-- od -->
<g id="node6" class="node"><title>od</title>
<text text-anchor="middle" x="294" y="-180.8" font-family="serif" font-size="9.00">d</text>
</g>
<!-- ox -->
<g id="node7" class="node"><title>ox</title>
<text text-anchor="middle" x="130" y="-180.8" font-family="serif" font-size="9.00">x</text>
</g>
<!-- v2 -->
<g id="v2_M" class="node"><title>v2</title>
<ellipse fill="none" stroke="black" cx="11" cy="-11" rx="11" ry="11"/>
<text text-anchor="middle" x="11" y="-8.8" font-family="sans-serif" font-size="9.00">M</text>
</g>
<!-- e0&#45;&gt;v2 -->
<g id="edge11" class="edge"><title>e0&#45;&gt;v2</title>
<path fill="none" stroke="green" d="M63,-68C56.3555,-68 26.2734,-37.4767 14.6041,-21.4996"/>
</g>
<!-- e0&#45;&gt;v2 -->
<g id="edge12" class="edge"><title>e0&#45;&gt;v2</title>
<path fill="none" stroke="green" d="M63,-68C70.2773,-68 37.6714,-31.3859 20.1648,-17.3695"/>
</g>
<!-- v3 -->
<g id="v3_M" class="node"><title>v3</title>
<ellipse fill="none" stroke="black" cx="51" cy="-11" rx="11" ry="11"/>
<text text-anchor="middle" x="51" y="-8.8" font-family="sans-serif" font-size="9.00">M</text>
</g>
<!-- e0&#45;&gt;v3 -->
<g id="edge13" class="edge"><title>e0&#45;&gt;v3</title>
<path fill="none" stroke="green" d="M63,-68C56.3906,-68 48.1633,-37.7988 47.8234,-21.7545"/>
</g>
<!-- e0&#45;&gt;v3 -->
<g id="edge14" class="edge"><title>e0&#45;&gt;v3</title>
<path fill="none" stroke="green" d="M63,-68C69.8203,-68 64.5807,-35.8403 57.726,-20.263"/>
</g>
<!-- v4 -->
<g id="v4_ND" class="node"><title>v4</title>
<ellipse fill="none" stroke="black" cx="193" cy="-11" rx="14.5" ry="11"/>
<text text-anchor="middle" x="193" y="-8.8" font-family="sans-serif" font-size="9.00">ND</text>
</g>
<!-- e0&#45;&gt;v4 -->
<g id="edge15" class="edge"><title>e0&#45;&gt;v4</title>
<path fill="none" stroke="green" d="M63,-68C63,-68 67.7278,-61.4221 73,-58 108.184,-35.1629 156.408,-21.0597 179.545,-15.1787"/>
</g>
<!-- v7 -->
<g id="v7_M" class="node"><title>v7</title>
<ellipse fill="none" stroke="black" cx="91" cy="-11" rx="11" ry="11"/>
<text text-anchor="middle" x="91" y="-8.8" font-family="sans-serif" font-size="9.00">M</text>
</g>
<!-- e0&#45;&gt;v7 -->
<g id="edge16" class="edge"><title>e0&#45;&gt;v7</title>
<path fill="none" stroke="green" d="M63,-68C55.9688,-68 71.5205,-33.8203 82.9524,-18.8667"/>
</g>
<!-- e0&#45;&gt;v7 -->
<g id="edge17" class="edge"><title>e0&#45;&gt;v7</title>
<path fill="none" stroke="green" d="M63,-68C69.5742,-68 86.2865,-38.1193 91.31,-22.0117"/>
</g>
<!-- v8 -->
<g id="v8_M" class="node"><title>v8</title>
<ellipse fill="none" stroke="black" cx="131" cy="-11" rx="11" ry="11"/>
<text text-anchor="middle" x="131" y="-8.8" font-family="sans-serif" font-size="9.00">M</text>
</g>
<!-- e0&#45;&gt;v8 -->
<g id="edge18" class="edge"><title>e0&#45;&gt;v8</title>
<path fill="none" stroke="green" d="M63,-68C54,-68 59.3077,-62.182 64,-58 82.6131,-41.4111 106.324,-23.5479 120.634,-15.8684"/>
</g>
<!-- e0&#45;&gt;v8 -->
<g id="edge19" class="edge"><title>e0&#45;&gt;v8</title>
<path fill="none" stroke="green" d="M63,-68C72,-68 77.3077,-62.182 82,-58 97.351,-44.3184 116.17,-29.7701 125.927,-20.7828"/>
</g>
<!-- v0&#45;&gt;v4 -->
<g id="edge4" class="edge"><title>v0&#45;&gt;v4</title>
<path fill="none" stroke="black" d="M175.562,-58.5004C178.831,-49.7844 183.723,-36.7393 187.494,-26.6824"/>
<polygon fill="black" stroke="black" points="189.35,-21.7345 189.701,-27.2062 188.472,-24.0753 187.594,-26.4161 187.594,-26.4161 187.594,-26.4161 188.472,-24.0753 185.487,-25.6261 189.35,-21.7345 189.35,-21.7345"/>
</g>
<!-- v1&#45;&gt;v2 -->
<g id="edge5" class="edge"><title>v1&#45;&gt;v2</title>
<path fill="none" stroke="black" d="M29.268,-58.5004C25.8124,-49.7044 20.6248,-36.4996 16.6597,-26.4064"/>
<polygon fill="black" stroke="black" points="14.8243,-21.7345 18.7468,-25.5655 15.7384,-24.0613 16.6526,-26.3882 16.6526,-26.3882 16.6526,-26.3882 15.7384,-24.0613 14.5584,-27.211 14.8243,-21.7345 14.8243,-21.7345"/>
</g>
<!-- v1&#45;&gt;v3 -->
<g id="edge6" class="edge"><title>v1&#45;&gt;v3</title>
<path fill="none" stroke="black" d="M36.1354,-58.2455C38.9487,-49.4928 43.1163,-36.527 46.3233,-26.5496"/>
<polygon fill="black" stroke="black" points="47.9006,-21.6427 48.5125,-27.0914 47.1355,-24.0227 46.3705,-26.4028 46.3705,-26.4028 46.3705,-26.4028 47.1355,-24.0227 44.2284,-25.7143 47.9006,-21.6427 47.9006,-21.6427"/>
</g>
<!-- v4&#45;&gt;ob -->
<g id="edge20" class="edge"><title>v4&#45;&gt;ob</title>
<path fill="none" stroke="green" d="M194.14,-22.204C197.602,-53.1724 207.941,-145.679 211.084,-173.801"/>
</g>
<!-- v4&#45;&gt;oc -->
<g id="edge21" class="edge"><title>v4&#45;&gt;oc</title>
<path fill="none" stroke="green" d="M197.863,-21.7207C202.368,-30.9296 209.092,-45.2143 214,-58 230.416,-100.77 245.321,-153.68 250.788,-173.756"/>
</g>
<!-- v4&#45;&gt;od -->
<g id="edge22" class="edge"><title>v4&#45;&gt;od</title>
<path fill="none" stroke="green" d="M201.134,-20.3258C209.52,-29.1837 222.656,-43.8444 232,-58 259.049,-98.9778 282.359,-153.388 290.713,-173.802"/>
</g>
<!-- v4&#45;&gt;ox -->
<g id="edge23" class="edge"><title>v4&#45;&gt;ox</title>
<path fill="none" stroke="green" d="M183.536,-19.7449C173.975,-28.129 159.566,-42.4083 152,-58 132.432,-98.3241 130.096,-153.582 129.942,-173.998"/>
</g>
<!-- v6 -->
<g id="v6_T" class="node"><title>v6</title>
<ellipse fill="none" stroke="black" cx="93" cy="-69" rx="11" ry="11"/>
<text text-anchor="middle" x="93" y="-66.8" font-family="sans-serif" font-size="9.00">T</text>
</g>
<!-- v5&#45;&gt;v6 -->
<g id="edge7" class="edge"><title>v5&#45;&gt;v6</title>
<path fill="none" stroke="black" d="M93,-115.988C93,-107.494 93,-95.1697 93,-85.4169"/>
<polygon fill="black" stroke="black" points="93,-80.3039 95.2501,-85.3038 93,-82.8039 93.0001,-85.3039 93.0001,-85.3039 93.0001,-85.3039 93,-82.8039 90.7501,-85.3039 93,-80.3039 93,-80.3039"/>
</g>
<!-- v6&#45;&gt;v7 -->
<g id="edge8" class="edge"><title>v6&#45;&gt;v7</title>
<path fill="none" stroke="black" d="M92.6424,-57.9883C92.3391,-49.4941 91.8989,-37.1697 91.5506,-27.4169"/>
<polygon fill="black" stroke="black" points="91.368,-22.3039 93.7951,-27.2203 91.4573,-24.8023 91.5465,-27.3007 91.5465,-27.3007 91.5465,-27.3007 91.4573,-24.8023 89.298,-27.381 91.368,-22.3039 91.368,-22.3039"/>
</g>
<!-- v6&#45;&gt;v8 -->
<g id="edge9" class="edge"><title>v6&#45;&gt;v8</title>
<path fill="none" stroke="black" d="M98.9375,-59.25C105.221,-49.9907 115.197,-35.288 122.353,-24.7423"/>
<polygon fill="black" stroke="black" points="125.229,-20.5052 124.283,-25.906 123.825,-22.5739 122.421,-24.6426 122.421,-24.6426 122.421,-24.6426 123.825,-22.5739 120.559,-23.3792 125.229,-20.5052 125.229,-20.5052"/>
</g>
</g>
</svg>
