<?xml version="1.0" encoding="UTF-8" standalone="no"?>
<?xml-stylesheet href="style.css" type="text/css"?>
<!DOCTYPE svg PUBLIC "-//W3C//DTD SVG 1.1//EN"
 "http://www.w3.org/Graphics/SVG/1.1/DTD/svg11.dtd">
<!-- Generated by graphviz version 2.38.0 (20140413.2041)
 -->
<!-- Title: 3.svg Pages: 1 -->
<svg width="308pt" height="200pt"
 viewBox="0.00 0.00 307.50 200.00" xmlns="http://www.w3.org/2000/svg" xmlns:xlink="http://www.w3.org/1999/xlink">
<g id="graph0" class="graph" transform="scale(1 1) rotate(0) translate(4 196)">
<title>3.svg</title>
<polygon fill="white" stroke="none" points="-4,4 -4,-196 303.5,-196 303.5,4 -4,4"/>
<!-- r0 -->
<g id="node1" class="node"><title>r0</title>
<polygon fill="none" stroke="black" stroke-dasharray="5,2" points="80,-192 57,-192 57,-174 80,-174 80,-192"/>
<text text-anchor="middle" x="68.5" y="-180.8" font-family="serif" font-size="9.00">0</text>
</g>
<!-- v0 -->
<g id="v0_R" class="node"><title>v0</title>
<ellipse fill="none" stroke="black" cx="49.5" cy="-69" rx="11" ry="11"/>
<text text-anchor="middle" x="49.5" y="-66.8" font-family="sans-serif" font-size="9.00">R</text>
</g>
<!-- r0&#45;&gt;v0 -->
<g id="edge1" class="edge"><title>r0&#45;&gt;v0</title>
<path fill="none" stroke="black" d="M67.1336,-173.945C63.9852,-155.386 56.1778,-109.364 52.0897,-85.2658"/>
<polygon fill="black" stroke="black" points="51.2296,-80.1957 54.2843,-84.749 51.6478,-82.6605 52.066,-85.1253 52.066,-85.1253 52.066,-85.1253 51.6478,-82.6605 49.8477,-85.5017 51.2296,-80.1957 51.2296,-80.1957"/>
</g>
<!-- v5 -->
<g id="v5_T" class="node"><title>v5</title>
<ellipse fill="none" stroke="black" cx="88.5" cy="-127" rx="11" ry="11"/>
<text text-anchor="middle" x="88.5" y="-124.8" font-family="sans-serif" font-size="9.00">T</text>
</g>
<!-- r0&#45;&gt;v5 -->
<g id="edge2" class="edge"><title>r0&#45;&gt;v5</title>
<path fill="none" stroke="black" d="M71.625,-173.562C74.6936,-165.277 79.4363,-152.472 83.1132,-142.544"/>
<polygon fill="black" stroke="black" points="84.9244,-137.654 85.2977,-143.124 84.0561,-139.998 83.1878,-142.343 83.1878,-142.343 83.1878,-142.343 84.0561,-139.998 81.0778,-141.561 84.9244,-137.654 84.9244,-137.654"/>
</g>
<!-- r1 -->
<g id="node2" class="node"><title>r1</title>
<polygon fill="none" stroke="black" stroke-dasharray="5,2" points="218,-192 195,-192 195,-174 218,-174 218,-192"/>
<text text-anchor="middle" x="206.5" y="-180.8" font-family="serif" font-size="9.00">1</text>
</g>
<!-- v1 -->
<g id="v1_R" class="node"><title>v1</title>
<ellipse fill="none" stroke="black" cx="205.5" cy="-69" rx="11" ry="11"/>
<text text-anchor="middle" x="205.5" y="-66.8" font-family="sans-serif" font-size="9.00">R</text>
</g>
<!-- r1&#45;&gt;v1 -->
<g id="edge3" class="edge"><title>r1&#45;&gt;v1</title>
<path fill="none" stroke="black" d="M206.428,-173.945C206.262,-155.386 205.851,-109.364 205.636,-85.2658"/>
<polygon fill="black" stroke="black" points="205.591,-80.1957 207.886,-85.1754 205.613,-82.6956 205.636,-85.1955 205.636,-85.1955 205.636,-85.1955 205.613,-82.6956 203.386,-85.2157 205.591,-80.1957 205.591,-80.1957"/>
</g>
<!-- oa -->
<g id="node3" class="node"><title>oa</title>
<text text-anchor="middle" x="125.5" y="-180.8" font-family="serif" font-size="9.00">a</text>
</g>
<!-- e0 -->
<g id="node8" class="node"><title>e0</title>
</g>
<!-- oa&#45;&gt;e0 -->
<g id="edge10" class="edge"><title>oa&#45;&gt;e0</title>
<path fill="none" stroke="green" d="M126.795,-173.945C130.922,-148.265 143.5,-70 143.5,-70"/>
</g>
<!-- ob -->
<g id="node4" class="node"><title>ob</title>
<text text-anchor="middle" x="247.5" y="-180.8" font-family="serif" font-size="9.00">b</text>
</g>
<!-- oc -->
<g id="node5" class="node"><title>oc</title>
<text text-anchor="middle" x="165.5" y="-180.8" font-family="serif" font-size="9.00">c</text>
</g>
<!-- e2 -->
<g id="node9" class="node"><title>e2</title>
</g>
<!-- oc&#45;&gt;e2 -->
<g id="edge14" class="edge"><title>oc&#45;&gt;e2</title>
<path fill="none" stroke="green" d="M165.5,-173.945C165.5,-148.265 165.5,-70 165.5,-70"/>
</g>
<!-- od -->
<g id="node6" class="node"><title>od</title>
<text text-anchor="middle" x="11.5" y="-180.8" font-family="serif" font-size="9.00">d</text>
</g>
<!-- e3 -->
<g id="node10" class="node"><title>e3</title>
</g>
<!-- od&#45;&gt;e3 -->
<g id="edge17" class="edge"><title>od&#45;&gt;e3</title>
<path fill="none" stroke="green" d="M16.4623,-173.945C32.2834,-148.265 80.5,-70 80.5,-70"/>
</g>
<!-- ox -->
<g id="node7" class="node"><title>ox</title>
<text text-anchor="middle" x="288.5" y="-180.8" font-family="serif" font-size="9.00">x</text>
</g>
<!-- v4 -->
<g id="v4_ND" class="node"><title>v4</title>
<ellipse fill="none" stroke="black" cx="204.5" cy="-11" rx="14.5" ry="11"/>
<text text-anchor="middle" x="204.5" y="-8.8" font-family="sans-serif" font-size="9.00">ND</text>
</g>
<!-- e0&#45;&gt;v4 -->
<g id="edge11" class="edge"><title>e0&#45;&gt;v4</title>
<path fill="none" stroke="green" d="M143.5,-68C143.5,-68 178.893,-35.5079 195.76,-20.0234"/>
</g>
<!-- v8 -->
<g id="v8_M" class="node"><title>v8</title>
<ellipse fill="none" stroke="black" cx="120.5" cy="-11" rx="11" ry="11"/>
<text text-anchor="middle" x="120.5" y="-8.8" font-family="sans-serif" font-size="9.00">M</text>
</g>
<!-- e0&#45;&gt;v8 -->
<g id="edge12" class="edge"><title>e0&#45;&gt;v8</title>
<path fill="none" stroke="green" d="M143.5,-68C143.5,-68 130.964,-37.4767 124.402,-21.4996"/>
</g>
<!-- e2&#45;&gt;v4 -->
<g id="edge15" class="edge"><title>e2&#45;&gt;v4</title>
<path fill="none" stroke="green" d="M165.5,-68C165.5,-68 187.21,-36.8273 198.234,-20.9974"/>
</g>
<!-- v7 -->
<g id="v7_M" class="node"><title>v7</title>
<ellipse fill="none" stroke="black" cx="160.5" cy="-11" rx="11" ry="11"/>
<text text-anchor="middle" x="160.5" y="-8.8" font-family="sans-serif" font-size="9.00">M</text>
</g>
<!-- e2&#45;&gt;v7 -->
<g id="edge16" class="edge"><title>e2&#45;&gt;v7</title>
<path fill="none" stroke="green" d="M165.5,-68C165.5,-68 162.832,-38.1193 161.394,-22.0117"/>
</g>
<!-- v2 -->
<g id="v2_M" class="node"><title>v2</title>
<ellipse fill="none" stroke="black" cx="40.5" cy="-11" rx="11" ry="11"/>
<text text-anchor="middle" x="40.5" y="-8.8" font-family="sans-serif" font-size="9.00">M</text>
</g>
<!-- e3&#45;&gt;v2 -->
<g id="edge18" class="edge"><title>e3&#45;&gt;v2</title>
<path fill="none" stroke="green" d="M80.5,-68C73.9258,-68 50.8104,-38.1193 42.3353,-22.0117"/>
</g>
<!-- e3&#45;&gt;v2 -->
<g id="edge19" class="edge"><title>e3&#45;&gt;v2</title>
<path fill="none" stroke="green" d="M80.5,-68C87.6719,-68 63.7283,-32.4395 49.1511,-17.993"/>
</g>
<!-- v3 -->
<g id="v3_M" class="node"><title>v3</title>
<ellipse fill="none" stroke="black" cx="80.5" cy="-11" rx="11" ry="11"/>
<text text-anchor="middle" x="80.5" y="-8.8" font-family="sans-serif" font-size="9.00">M</text>
</g>
<!-- e3&#45;&gt;v3 -->
<g id="edge20" class="edge"><title>e3&#45;&gt;v3</title>
<path fill="none" stroke="green" d="M80.5,-68C73.7852,-68 72.0802,-36.8273 75.3852,-20.9974"/>
</g>
<!-- e3&#45;&gt;v3 -->
<g id="edge21" class="edge"><title>e3&#45;&gt;v3</title>
<path fill="none" stroke="green" d="M80.5,-68C87.2148,-68 88.9198,-36.8273 85.6148,-20.9974"/>
</g>
<!-- e3&#45;&gt;v4 -->
<g id="edge22" class="edge"><title>e3&#45;&gt;v4</title>
<path fill="none" stroke="green" d="M80.5,-68C80.5,-68 87.1887,-61.6474 93.5,-58 129.731,-37.0617 141.853,-38.0474 180.5,-22 184.335,-20.4075 188.514,-18.6681 192.293,-17.093"/>
</g>
<!-- e3&#45;&gt;v7 -->
<g id="edge23" class="edge"><title>e3&#45;&gt;v7</title>
<path fill="none" stroke="green" d="M80.5,-68C80.5,-68 87.6043,-62.2867 93.5,-58 114.041,-43.0646 138.82,-26.3904 151.722,-17.8064"/>
</g>
<!-- e3&#45;&gt;v8 -->
<g id="edge24" class="edge"><title>e3&#45;&gt;v8</title>
<path fill="none" stroke="green" d="M80.5,-68C80.5,-68 103,-36.5 114.25,-20.75"/>
</g>
<!-- v0&#45;&gt;v2 -->
<g id="edge4" class="edge"><title>v0&#45;&gt;v2</title>
<path fill="none" stroke="black" d="M47.891,-57.9883C46.5088,-49.3879 44.4955,-36.8609 42.9191,-27.0524"/>
<polygon fill="black" stroke="black" points="42.0951,-21.925 45.1101,-26.5046 42.4918,-24.3933 42.8886,-26.8617 42.8886,-26.8617 42.8886,-26.8617 42.4918,-24.3933 40.6671,-27.2187 42.0951,-21.925 42.0951,-21.925"/>
</g>
<!-- v0&#45;&gt;v3 -->
<g id="edge5" class="edge"><title>v0&#45;&gt;v3</title>
<path fill="none" stroke="black" d="M54.4807,-59.0026C59.4676,-49.994 67.2053,-36.0163 72.9477,-25.6428"/>
<polygon fill="black" stroke="black" points="75.4287,-21.1611 74.9756,-26.6253 74.2179,-23.3483 73.0071,-25.5356 73.0071,-25.5356 73.0071,-25.5356 74.2179,-23.3483 71.0385,-24.4458 75.4287,-21.1611 75.4287,-21.1611"/>
</g>
<!-- v1&#45;&gt;v4 -->
<g id="edge6" class="edge"><title>v1&#45;&gt;v4</title>
<path fill="none" stroke="black" d="M205.321,-57.9883C205.17,-49.4941 204.949,-37.1697 204.775,-27.4169"/>
<polygon fill="black" stroke="black" points="204.684,-22.3039 207.023,-27.2629 204.729,-24.8035 204.773,-27.3031 204.773,-27.3031 204.773,-27.3031 204.729,-24.8035 202.524,-27.3433 204.684,-22.3039 204.684,-22.3039"/>
</g>
<!-- v4&#45;&gt;ob -->
<g id="edge13" class="edge"><title>v4&#45;&gt;ob</title>
<path fill="none" stroke="green" d="M209.745,-21.5879C214.52,-30.7031 221.428,-44.9243 225.5,-58 238.698,-100.376 244.798,-153.518 246.759,-173.705"/>
</g>
<!-- v4&#45;&gt;ox -->
<g id="edge25" class="edge"><title>v4&#45;&gt;ox</title>
<path fill="none" stroke="green" d="M212.718,-20.1707C221.129,-28.902 234.121,-43.4609 242.5,-58 265.89,-98.5834 281.213,-153.228 286.472,-173.753"/>
</g>
<!-- v6 -->
<g id="v6_T" class="node"><title>v6</title>
<ellipse fill="none" stroke="black" cx="113.5" cy="-69" rx="11" ry="11"/>
<text text-anchor="middle" x="113.5" y="-66.8" font-family="sans-serif" font-size="9.00">T</text>
</g>
<!-- v5&#45;&gt;v6 -->
<g id="edge7" class="edge"><title>v5&#45;&gt;v6</title>
<path fill="none" stroke="black" d="M92.6282,-116.753C96.5851,-107.889 102.613,-94.3862 107.176,-84.1666"/>
<polygon fill="black" stroke="black" points="109.282,-79.4482 109.298,-84.9311 108.263,-81.731 107.244,-84.0139 107.244,-84.0139 107.244,-84.0139 108.263,-81.731 105.189,-83.0966 109.282,-79.4482 109.282,-79.4482"/>
</g>
<!-- v6&#45;&gt;v7 -->
<g id="edge8" class="edge"><title>v6&#45;&gt;v7</title>
<path fill="none" stroke="black" d="M120.435,-59.737C128.37,-50.2826 141.432,-34.7198 150.474,-23.9461"/>
<polygon fill="black" stroke="black" points="153.841,-19.9343 152.35,-25.2107 152.234,-21.8492 150.626,-23.7642 150.626,-23.7642 150.626,-23.7642 152.234,-21.8492 148.903,-22.3177 153.841,-19.9343 153.841,-19.9343"/>
</g>
<!-- v6&#45;&gt;v8 -->
<g id="edge9" class="edge"><title>v6&#45;&gt;v8</title>
<path fill="none" stroke="black" d="M114.751,-57.9883C115.813,-49.4941 117.354,-37.1697 118.573,-27.4169"/>
<polygon fill="black" stroke="black" points="119.212,-22.3039 120.824,-27.5444 118.902,-24.7846 118.592,-27.2653 118.592,-27.2653 118.592,-27.2653 118.902,-24.7846 116.359,-26.9861 119.212,-22.3039 119.212,-22.3039"/>
</g>
</g>
</svg>
