<?xml version="1.0" encoding="UTF-8" standalone="no"?>
<?xml-stylesheet href="style.css" type="text/css"?>
<!DOCTYPE svg PUBLIC "-//W3C//DTD SVG 1.1//EN"
 "http://www.w3.org/Graphics/SVG/1.1/DTD/svg11.dtd">
<!-- Generated by graphviz version 2.38.0 (20140413.2041)
 -->
<!-- Title: 6.svg Pages: 1 -->
<svg width="310pt" height="200pt"
 viewBox="0.00 0.00 309.50 200.00" xmlns="http://www.w3.org/2000/svg" xmlns:xlink="http://www.w3.org/1999/xlink">
<g id="graph0" class="graph" transform="scale(1 1) rotate(0) translate(4 196)">
<title>6.svg</title>
<polygon fill="white" stroke="none" points="-4,4 -4,-196 305.5,-196 305.5,4 -4,4"/>
<!-- r0 -->
<g id="node1" class="node"><title>r0</title>
<polygon fill="none" stroke="black" stroke-dasharray="5,2" points="23,-192 0,-192 0,-174 23,-174 23,-192"/>
<text text-anchor="middle" x="11.5" y="-180.8" font-family="serif" font-size="9.00">0</text>
</g>
<!-- v0 -->
<g id="v0_R" class="node"><title>v0</title>
<ellipse fill="none" stroke="black" cx="41.5" cy="-69" rx="11" ry="11"/>
<text text-anchor="middle" x="41.5" y="-66.8" font-family="sans-serif" font-size="9.00">R</text>
</g>
<!-- r0&#45;&gt;v0 -->
<g id="edge1" class="edge"><title>r0&#45;&gt;v0</title>
<path fill="none" stroke="black" d="M13.6575,-173.945C18.6537,-155.293 31.0802,-108.901 37.5078,-84.9042"/>
<polygon fill="black" stroke="black" points="38.8574,-79.8656 39.7371,-85.2775 38.2106,-82.2805 37.5637,-84.6953 37.5637,-84.6953 37.5637,-84.6953 38.2106,-82.2805 35.3903,-84.1131 38.8574,-79.8656 38.8574,-79.8656"/>
</g>
<!-- v1 -->
<g id="v1_T" class="node"><title>v1</title>
<ellipse fill="none" stroke="black" cx="90.5" cy="-127" rx="11" ry="11"/>
<text text-anchor="middle" x="90.5" y="-124.8" font-family="sans-serif" font-size="9.00">T</text>
</g>
<!-- r0&#45;&gt;v1 -->
<g id="edge2" class="edge"><title>r0&#45;&gt;v1</title>
<path fill="none" stroke="black" d="M23.1567,-174.032C37.6262,-164.142 62.2378,-147.318 77.3621,-136.98"/>
<polygon fill="black" stroke="black" points="81.7295,-133.995 78.8714,-138.674 79.6656,-135.406 77.6017,-136.817 77.6017,-136.817 77.6017,-136.817 79.6656,-135.406 76.332,-134.959 81.7295,-133.995 81.7295,-133.995"/>
</g>
<!-- r1 -->
<g id="node2" class="node"><title>r1</title>
<polygon fill="none" stroke="black" stroke-dasharray="5,2" points="261,-192 238,-192 238,-174 261,-174 261,-192"/>
<text text-anchor="middle" x="249.5" y="-180.8" font-family="serif" font-size="9.00">1</text>
</g>
<!-- v3 -->
<g id="v3_R" class="node"><title>v3</title>
<ellipse fill="none" stroke="black" cx="241.5" cy="-69" rx="11" ry="11"/>
<text text-anchor="middle" x="241.5" y="-66.8" font-family="sans-serif" font-size="9.00">R</text>
</g>
<!-- r1&#45;&gt;v3 -->
<g id="edge3" class="edge"><title>r1&#45;&gt;v3</title>
<path fill="none" stroke="black" d="M248.925,-173.945C247.599,-155.386 244.312,-109.364 242.59,-85.2658"/>
<polygon fill="black" stroke="black" points="242.228,-80.1957 244.829,-85.0227 242.406,-82.6894 242.585,-85.183 242.585,-85.183 242.585,-85.183 242.406,-82.6894 240.34,-85.3434 242.228,-80.1957 242.228,-80.1957"/>
</g>
<!-- oa -->
<g id="node3" class="node"><title>oa</title>
<text text-anchor="middle" x="290.5" y="-180.8" font-family="serif" font-size="9.00">a</text>
</g>
<!-- ob -->
<g id="node4" class="node"><title>ob</title>
<text text-anchor="middle" x="52.5" y="-180.8" font-family="serif" font-size="9.00">b</text>
</g>
<!-- e1 -->
<g id="node8" class="node"><title>e1</title>
</g>
<!-- ob&#45;&gt;e1 -->
<g id="edge11" class="edge"><title>ob&#45;&gt;e1</title>
<path fill="none" stroke="green" d="M53.8664,-173.945C58.223,-148.265 71.5,-70 71.5,-70"/>
</g>
<!-- oc -->
<g id="node5" class="node"><title>oc</title>
<text text-anchor="middle" x="127.5" y="-180.8" font-family="serif" font-size="9.00">c</text>
</g>
<!-- e2 -->
<g id="node9" class="node"><title>e2</title>
</g>
<!-- oc&#45;&gt;e2 -->
<g id="edge15" class="edge"><title>oc&#45;&gt;e2</title>
<path fill="none" stroke="green" d="M127.788,-173.945C128.705,-148.265 131.5,-70 131.5,-70"/>
</g>
<!-- od -->
<g id="node6" class="node"><title>od</title>
<text text-anchor="middle" x="208.5" y="-180.8" font-family="serif" font-size="9.00">d</text>
</g>
<!-- e3 -->
<g id="node10" class="node"><title>e3</title>
</g>
<!-- od&#45;&gt;e3 -->
<g id="edge19" class="edge"><title>od&#45;&gt;e3</title>
<path fill="none" stroke="green" d="M207.493,-173.945C204.283,-148.265 194.5,-70 194.5,-70"/>
</g>
<!-- ox -->
<g id="node7" class="node"><title>ox</title>
<text text-anchor="middle" x="167.5" y="-180.8" font-family="serif" font-size="9.00">x</text>
</g>
<!-- e4 -->
<g id="node11" class="node"><title>e4</title>
</g>
<!-- ox&#45;&gt;e4 -->
<g id="edge23" class="edge"><title>ox&#45;&gt;e4</title>
<path fill="none" stroke="green" d="M167.428,-173.945C167.199,-148.265 166.5,-70 166.5,-70"/>
</g>
<!-- v4 -->
<g id="v4_M" class="node"><title>v4</title>
<ellipse fill="none" stroke="black" cx="42.5" cy="-11" rx="11" ry="11"/>
<text text-anchor="middle" x="42.5" y="-8.8" font-family="sans-serif" font-size="9.00">M</text>
</g>
<!-- e1&#45;&gt;v4 -->
<g id="edge12" class="edge"><title>e1&#45;&gt;v4</title>
<path fill="none" stroke="green" d="M71.5,-68C71.5,-68 55.357,-36.8273 47.1594,-20.9974"/>
</g>
<!-- v5 -->
<g id="v5_M" class="node"><title>v5</title>
<ellipse fill="none" stroke="black" cx="82.5" cy="-11" rx="11" ry="11"/>
<text text-anchor="middle" x="82.5" y="-8.8" font-family="sans-serif" font-size="9.00">M</text>
</g>
<!-- e1&#45;&gt;v5 -->
<g id="edge13" class="edge"><title>e1&#45;&gt;v5</title>
<path fill="none" stroke="green" d="M71.5,-68C71.5,-68 77.3694,-38.1193 80.5334,-22.0117"/>
</g>
<!-- v8 -->
<g id="v8_ND" class="node"><title>v8</title>
<ellipse fill="none" stroke="black" cx="206.5" cy="-11" rx="14.5" ry="11"/>
<text text-anchor="middle" x="206.5" y="-8.8" font-family="sans-serif" font-size="9.00">ND</text>
</g>
<!-- e1&#45;&gt;v8 -->
<g id="edge14" class="edge"><title>e1&#45;&gt;v8</title>
<path fill="none" stroke="green" d="M71.5,-68C71.5,-68 76.1877,-61.3594 81.5,-58 121.777,-32.5291 138.046,-39.1703 182.5,-22 186.374,-20.5037 190.563,-18.7914 194.34,-17.2116"/>
</g>
<!-- e2&#45;&gt;v4 -->
<g id="edge16" class="edge"><title>e2&#45;&gt;v4</title>
<path fill="none" stroke="green" d="M131.5,-68C131.5,-68 126.479,-61.8355 121.5,-58 109.304,-48.6057 70.2244,-27.0328 52.0106,-17.1344"/>
</g>
<!-- v7 -->
<g id="v7_M" class="node"><title>v7</title>
<ellipse fill="none" stroke="black" cx="122.5" cy="-11" rx="11" ry="11"/>
<text text-anchor="middle" x="122.5" y="-8.8" font-family="sans-serif" font-size="9.00">M</text>
</g>
<!-- e2&#45;&gt;v7 -->
<g id="edge17" class="edge"><title>e2&#45;&gt;v7</title>
<path fill="none" stroke="green" d="M131.5,-68C131.5,-68 126.698,-38.1193 124.109,-22.0117"/>
</g>
<!-- e2&#45;&gt;v8 -->
<g id="edge18" class="edge"><title>e2&#45;&gt;v8</title>
<path fill="none" stroke="green" d="M131.5,-68C131.5,-68 176.365,-34.5005 196.695,-19.321"/>
</g>
<!-- v6 -->
<g id="v6_M" class="node"><title>v6</title>
<ellipse fill="none" stroke="black" cx="162.5" cy="-11" rx="11" ry="11"/>
<text text-anchor="middle" x="162.5" y="-8.8" font-family="sans-serif" font-size="9.00">M</text>
</g>
<!-- e3&#45;&gt;v6 -->
<g id="edge20" class="edge"><title>e3&#45;&gt;v6</title>
<path fill="none" stroke="green" d="M194.5,-68C194.5,-68 176.687,-36.8273 167.641,-20.9974"/>
</g>
<!-- e3&#45;&gt;v7 -->
<g id="edge21" class="edge"><title>e3&#45;&gt;v7</title>
<path fill="none" stroke="green" d="M194.5,-68C194.5,-68 149.671,-33.1333 130.759,-18.4239"/>
</g>
<!-- e3&#45;&gt;v8 -->
<g id="edge22" class="edge"><title>e3&#45;&gt;v8</title>
<path fill="none" stroke="green" d="M194.5,-68C194.5,-68 200.903,-38.1193 204.355,-22.0117"/>
</g>
<!-- e4&#45;&gt;v5 -->
<g id="edge24" class="edge"><title>e4&#45;&gt;v5</title>
<path fill="none" stroke="green" d="M166.5,-68C166.5,-68 112.635,-32.09 91.1731,-17.7821"/>
</g>
<!-- e4&#45;&gt;v6 -->
<g id="edge25" class="edge"><title>e4&#45;&gt;v6</title>
<path fill="none" stroke="green" d="M166.5,-68C166.5,-68 164.366,-38.1193 163.215,-22.0117"/>
</g>
<!-- e4&#45;&gt;v8 -->
<g id="edge26" class="edge"><title>e4&#45;&gt;v8</title>
<path fill="none" stroke="green" d="M166.5,-68C166.5,-68 188.766,-36.8273 200.073,-20.9974"/>
</g>
<!-- v0&#45;&gt;v4 -->
<g id="edge4" class="edge"><title>v0&#45;&gt;v4</title>
<path fill="none" stroke="black" d="M41.6788,-57.9883C41.8305,-49.4941 42.0505,-37.1697 42.2247,-27.4169"/>
<polygon fill="black" stroke="black" points="42.316,-22.3039 44.4763,-27.3433 42.2713,-24.8035 42.2266,-27.3031 42.2266,-27.3031 42.2266,-27.3031 42.2713,-24.8035 39.977,-27.2629 42.316,-22.3039 42.316,-22.3039"/>
</g>
<!-- v0&#45;&gt;v5 -->
<g id="edge5" class="edge"><title>v0&#45;&gt;v5</title>
<path fill="none" stroke="black" d="M47.5497,-59.737C54.3325,-50.4727 65.4093,-35.3433 73.2736,-24.6018"/>
<polygon fill="black" stroke="black" points="76.4255,-20.2969 75.2872,-25.6604 74.9486,-22.3141 73.4718,-24.3312 73.4718,-24.3312 73.4718,-24.3312 74.9486,-22.3141 71.6563,-23.002 76.4255,-20.2969 76.4255,-20.2969"/>
</g>
<!-- v2 -->
<g id="v2_T" class="node"><title>v2</title>
<ellipse fill="none" stroke="black" cx="101.5" cy="-69" rx="11" ry="11"/>
<text text-anchor="middle" x="101.5" y="-66.8" font-family="sans-serif" font-size="9.00">T</text>
</g>
<!-- v1&#45;&gt;v2 -->
<g id="edge6" class="edge"><title>v1&#45;&gt;v2</title>
<path fill="none" stroke="black" d="M92.4666,-115.988C94.1559,-107.388 96.6166,-94.8609 98.5433,-85.0524"/>
<polygon fill="black" stroke="black" points="99.5504,-79.925 100.794,-85.265 99.0685,-82.3781 98.5866,-84.8312 98.5866,-84.8312 98.5866,-84.8312 99.0685,-82.3781 96.3788,-84.3975 99.5504,-79.925 99.5504,-79.925"/>
</g>
<!-- v2&#45;&gt;v6 -->
<g id="edge7" class="edge"><title>v2&#45;&gt;v6</title>
<path fill="none" stroke="black" d="M109.226,-60.9076C119.71,-51.2826 138.536,-33.9999 150.77,-22.7688"/>
<polygon fill="black" stroke="black" points="154.644,-19.2117 152.483,-24.2506 152.803,-20.9024 150.961,-22.5931 150.961,-22.5931 150.961,-22.5931 152.803,-20.9024 149.439,-20.9356 154.644,-19.2117 154.644,-19.2117"/>
</g>
<!-- v2&#45;&gt;v7 -->
<g id="edge8" class="edge"><title>v2&#45;&gt;v7</title>
<path fill="none" stroke="black" d="M105.062,-58.5004C108.331,-49.7844 113.223,-36.7393 116.994,-26.6824"/>
<polygon fill="black" stroke="black" points="118.85,-21.7345 119.201,-27.2062 117.972,-24.0753 117.094,-26.4161 117.094,-26.4161 117.094,-26.4161 117.972,-24.0753 114.987,-25.6261 118.85,-21.7345 118.85,-21.7345"/>
</g>
<!-- v3&#45;&gt;v8 -->
<g id="edge9" class="edge"><title>v3&#45;&gt;v8</title>
<path fill="none" stroke="black" d="M236.031,-59.25C230.429,-50.2868 221.639,-36.2227 215.104,-25.7664"/>
<polygon fill="black" stroke="black" points="212.28,-21.2473 216.838,-24.2947 213.605,-23.3673 214.93,-25.4873 214.93,-25.4873 214.93,-25.4873 213.605,-23.3673 213.022,-26.6798 212.28,-21.2473 212.28,-21.2473"/>
</g>
<!-- v8&#45;&gt;oa -->
<g id="edge10" class="edge"><title>v8&#45;&gt;oa</title>
<path fill="none" stroke="green" d="M217.641,-18.2574C230.274,-25.9474 250.533,-40.1934 261.5,-58 285.267,-96.5912 289.566,-152.891 290.336,-173.792"/>
</g>
</g>
</svg>
