<?xml version="1.0" encoding="UTF-8" standalone="no"?>
<?xml-stylesheet href="style.css" type="text/css"?>
<!DOCTYPE svg PUBLIC "-//W3C//DTD SVG 1.1//EN"
 "http://www.w3.org/Graphics/SVG/1.1/DTD/svg11.dtd">
<!-- Generated by graphviz version 2.38.0 (20140413.2041)
 -->
<!-- Title: phi.svg Pages: 1 -->
<svg width="74pt" height="121pt"
 viewBox="0.00 0.00 73.50 121.00" xmlns="http://www.w3.org/2000/svg" xmlns:xlink="http://www.w3.org/1999/xlink">
<g id="graph0" class="graph" transform="scale(1 1) rotate(0) translate(4 117)">
<title>phi.svg</title>
<polygon fill="white" stroke="none" points="-4,4 -4,-117 69.5,-117 69.5,4 -4,4"/>
<!-- r0 -->
<g id="node1" class="node"><title>r0</title>
<polygon fill="none" stroke="black" stroke-dasharray="5,2" points="23,-113 0,-113 0,-95 23,-95 23,-113"/>
<text text-anchor="middle" x="11.5" y="-101.8" font-family="serif" font-size="9.00">0</text>
</g>
<!-- v0 -->
<g id="v0_M" class="node"><title>v0</title>
<ellipse fill="none" stroke="black" cx="46.5" cy="-11" rx="11" ry="11"/>
<text text-anchor="middle" x="46.5" y="-8.8" font-family="sans-serif" font-size="9.00">M</text>
</g>
<!-- r0&#45;&gt;v0 -->
<g id="edge1" class="edge"><title>r0&#45;&gt;v0</title>
<path fill="none" stroke="black" d="M14.606,-94.9244C20.5089,-79.5769 33.4221,-46.0025 40.8806,-26.6104"/>
<polygon fill="black" stroke="black" points="42.8293,-21.5439 43.1344,-27.0183 41.9318,-23.8772 41.0343,-26.2106 41.0343,-26.2106 41.0343,-26.2106 41.9318,-23.8772 38.9343,-25.4029 42.8293,-21.5439 42.8293,-21.5439"/>
</g>
<!-- ow -->
<g id="node2" class="node"><title>ow</title>
<text text-anchor="middle" x="53.5" y="-101.8" font-family="serif" font-size="9.00">w</text>
</g>
<!-- e0 -->
<g id="node3" class="node"><title>e0</title>
</g>
<!-- ow&#45;&gt;e0 -->
<g id="edge2" class="edge"><title>ow&#45;&gt;e0</title>
<path fill="none" stroke="green" d="M52.2161,-94.9297C50.1953,-82.2273 46.5,-59 46.5,-59"/>
</g>
<!-- e0&#45;&gt;v0 -->
<g id="edge3" class="edge"><title>e0&#45;&gt;v0</title>
<path fill="none" stroke="green" d="M46.5,-58C40.0312,-58 38.2119,-34.2363 41.042,-20.8693"/>
</g>
<!-- e0&#45;&gt;v0 -->
<g id="edge4" class="edge"><title>e0&#45;&gt;v0</title>
<path fill="none" stroke="green" d="M46.5,-58C52.9688,-58 54.7881,-34.2363 51.958,-20.8693"/>
</g>
</g>
</svg>
