<?xml version="1.0" encoding="UTF-8" standalone="no"?>
<?xml-stylesheet href="style.css" type="text/css"?>
<!DOCTYPE svg PUBLIC "-//W3C//DTD SVG 1.1//EN"
 "http://www.w3.org/Graphics/SVG/1.1/DTD/svg11.dtd">
<!-- Generated by graphviz version 2.38.0 (20140413.2041)
 -->
<!-- Title: rx1_lhs.svg Pages: 1 -->
<svg width="276pt" height="121pt"
 viewBox="0.00 0.00 275.50 121.00" xmlns="http://www.w3.org/2000/svg" xmlns:xlink="http://www.w3.org/1999/xlink">
<g id="graph0" class="graph" transform="scale(1 1) rotate(0) translate(4 117)">
<title>rx1_lhs.svg</title>
<polygon fill="white" stroke="none" points="-4,4 -4,-117 271.5,-117 271.5,4 -4,4"/>
<!-- r0 -->
<g id="node1" class="node"><title>r0</title>
<polygon fill="none" stroke="black" stroke-dasharray="5,2" points="23,-113 0,-113 0,-95 23,-95 23,-113"/>
<text text-anchor="middle" x="11.5" y="-101.8" font-family="serif" font-size="9.00">0</text>
</g>
<!-- v0 -->
<g id="v0_M" class="node"><title>v0</title>
<ellipse fill="none" stroke="black" cx="93.5" cy="-11" rx="11" ry="11"/>
<text text-anchor="middle" x="93.5" y="-8.8" font-family="sans-serif" font-size="9.00">M</text>
</g>
<!-- r0&#45;&gt;v0 -->
<g id="edge1" class="edge"><title>r0&#45;&gt;v0</title>
<path fill="none" stroke="black" d="M18.777,-94.9244C33.3531,-78.7484 66.1746,-42.3245 83.0482,-23.5989"/>
<polygon fill="black" stroke="black" points="86.5882,-19.6704 84.9126,-24.8911 84.9147,-21.5276 83.2411,-23.3849 83.2411,-23.3849 83.2411,-23.3849 84.9147,-21.5276 81.5696,-21.8787 86.5882,-19.6704 86.5882,-19.6704"/>
</g>
<!-- v1 -->
<g id="v1_M" class="node"><title>v1</title>
<ellipse fill="none" stroke="black" cx="53.5" cy="-11" rx="11" ry="11"/>
<text text-anchor="middle" x="53.5" y="-8.8" font-family="sans-serif" font-size="9.00">M</text>
</g>
<!-- r0&#45;&gt;v1 -->
<g id="edge2" class="edge"><title>r0&#45;&gt;v1</title>
<path fill="none" stroke="black" d="M15.2272,-94.9244C22.4082,-79.3656 38.235,-45.0742 47.1228,-25.8173"/>
<polygon fill="black" stroke="black" points="49.2234,-21.266 49.171,-26.7487 48.1757,-23.5359 47.1281,-25.8058 47.1281,-25.8058 47.1281,-25.8058 48.1757,-23.5359 45.0851,-24.8629 49.2234,-21.266 49.2234,-21.266"/>
</g>
<!-- r1 -->
<g id="node2" class="node"><title>r1</title>
<polygon fill="none" stroke="black" stroke-dasharray="5,2" points="186,-113 163,-113 163,-95 186,-95 186,-113"/>
<text text-anchor="middle" x="174.5" y="-101.8" font-family="serif" font-size="9.00">1</text>
</g>
<!-- v2 -->
<g id="v2_ND" class="node"><title>v2</title>
<ellipse fill="none" stroke="black" cx="153.5" cy="-11" rx="14.5" ry="11"/>
<text text-anchor="middle" x="153.5" y="-8.8" font-family="sans-serif" font-size="9.00">ND</text>
</g>
<!-- r1&#45;&gt;v2 -->
<g id="edge3" class="edge"><title>r1&#45;&gt;v2</title>
<path fill="none" stroke="black" d="M172.636,-94.9244C169.131,-79.736 161.507,-46.6964 157.012,-27.2178"/>
<polygon fill="black" stroke="black" points="155.833,-22.1095 159.15,-26.4755 156.395,-24.5455 156.957,-26.9815 156.957,-26.9815 156.957,-26.9815 156.395,-24.5455 154.765,-27.4875 155.833,-22.1095 155.833,-22.1095"/>
</g>
<!-- oa -->
<g id="node3" class="node"><title>oa</title>
<text text-anchor="middle" x="133.5" y="-101.8" font-family="serif" font-size="9.00">a</text>
</g>
<!-- e0 -->
<g id="node8" class="node"><title>e0</title>
</g>
<!-- oa&#45;&gt;e0 -->
<g id="edge4" class="edge"><title>oa&#45;&gt;e0</title>
<path fill="none" stroke="green" d="M133.5,-94.9297C133.5,-82.2273 133.5,-59 133.5,-59"/>
</g>
<!-- ob -->
<g id="node4" class="node"><title>ob</title>
<text text-anchor="middle" x="52.5" y="-101.8" font-family="serif" font-size="9.00">b</text>
</g>
<!-- e1 -->
<g id="node9" class="node"><title>e1</title>
</g>
<!-- ob&#45;&gt;e1 -->
<g id="edge7" class="edge"><title>ob&#45;&gt;e1</title>
<path fill="none" stroke="green" d="M57.2688,-94.9297C64.7748,-82.2273 78.5,-59 78.5,-59"/>
</g>
<!-- oc -->
<g id="node5" class="node"><title>oc</title>
<text text-anchor="middle" x="93.5" y="-101.8" font-family="serif" font-size="9.00">c</text>
</g>
<!-- e2 -->
<g id="node10" class="node"><title>e2</title>
</g>
<!-- oc&#45;&gt;e2 -->
<g id="edge11" class="edge"><title>oc&#45;&gt;e2</title>
<path fill="none" stroke="green" d="M94.2337,-94.9297C95.3884,-82.2273 97.5,-59 97.5,-59"/>
</g>
<!-- od -->
<g id="node6" class="node"><title>od</title>
<text text-anchor="middle" x="215.5" y="-101.8" font-family="serif" font-size="9.00">d</text>
</g>
<!-- ox -->
<g id="node7" class="node"><title>ox</title>
<text text-anchor="middle" x="256.5" y="-101.8" font-family="serif" font-size="9.00">x</text>
</g>
<!-- e0&#45;&gt;v0 -->
<g id="edge5" class="edge"><title>e0&#45;&gt;v0</title>
<path fill="none" stroke="green" d="M133.5,-58C133.5,-58 111.928,-33.1919 100.467,-20.0126"/>
</g>
<!-- e0&#45;&gt;v2 -->
<g id="edge6" class="edge"><title>e0&#45;&gt;v2</title>
<path fill="none" stroke="green" d="M133.5,-58C133.5,-58 143.388,-35.2583 149.259,-21.7554"/>
</g>
<!-- e1&#45;&gt;v0 -->
<g id="edge8" class="edge"><title>e1&#45;&gt;v0</title>
<path fill="none" stroke="green" d="M78.5,-58C78.5,-58 85.9158,-35.2583 90.3189,-21.7554"/>
</g>
<!-- e1&#45;&gt;v1 -->
<g id="edge9" class="edge"><title>e1&#45;&gt;v1</title>
<path fill="none" stroke="green" d="M78.5,-58C78.5,-58 65.8642,-34.7501 58.5591,-21.3088"/>
</g>
<!-- e1&#45;&gt;v2 -->
<g id="edge10" class="edge"><title>e1&#45;&gt;v2</title>
<path fill="none" stroke="green" d="M78.5,-58C78.5,-58 122.016,-31.3101 142.754,-18.5907"/>
</g>
<!-- e2&#45;&gt;v1 -->
<g id="edge12" class="edge"><title>e2&#45;&gt;v1</title>
<path fill="none" stroke="green" d="M97.5,-58C97.5,-58 73.2629,-32.6613 60.7657,-19.596"/>
</g>
<!-- e2&#45;&gt;v2 -->
<g id="edge13" class="edge"><title>e2&#45;&gt;v2</title>
<path fill="none" stroke="green" d="M97.5,-58C97.5,-58 128.347,-32.6613 144.253,-19.596"/>
</g>
<!-- v2&#45;&gt;od -->
<g id="edge14" class="edge"><title>v2&#45;&gt;od</title>
<path fill="none" stroke="green" d="M159.626,-20.9914C171.709,-38.7258 198.44,-77.96 209.998,-94.9244"/>
</g>
<!-- v2&#45;&gt;ox -->
<g id="edge15" class="edge"><title>v2&#45;&gt;ox</title>
<path fill="none" stroke="green" d="M162.473,-19.9276C181.918,-37.1068 227.764,-77.612 247.359,-94.9244"/>
</g>
</g>
</svg>
