<?xml version="1.0" encoding="UTF-8" standalone="no"?>
<?xml-stylesheet href="style.css" type="text/css"?>
<!DOCTYPE svg PUBLIC "-//W3C//DTD SVG 1.1//EN"
 "http://www.w3.org/Graphics/SVG/1.1/DTD/svg11.dtd">
<!-- Generated by graphviz version 2.38.0 (20140413.2041)
 -->
<!-- Title: rx1_rhs.svg Pages: 1 -->
<svg width="282pt" height="121pt"
 viewBox="0.00 0.00 282.00 121.00" xmlns="http://www.w3.org/2000/svg" xmlns:xlink="http://www.w3.org/1999/xlink">
<g id="graph0" class="graph" transform="scale(1 1) rotate(0) translate(4 117)">
<title>rx1_rhs.svg</title>
<polygon fill="white" stroke="none" points="-4,4 -4,-117 278,-117 278,4 -4,4"/>
<!-- r0 -->
<g id="node1" class="node"><title>r0</title>
<polygon fill="none" stroke="black" stroke-dasharray="5,2" points="69.5,-113 46.5,-113 46.5,-95 69.5,-95 69.5,-113"/>
<text text-anchor="middle" x="58" y="-101.8" font-family="serif" font-size="9.00">0</text>
</g>
<!-- v0 -->
<g id="v0_M" class="node"><title>v0</title>
<ellipse fill="none" stroke="black" cx="51" cy="-11" rx="11" ry="11"/>
<text text-anchor="middle" x="51" y="-8.8" font-family="sans-serif" font-size="9.00">M</text>
</g>
<!-- r0&#45;&gt;v0 -->
<g id="edge1" class="edge"><title>r0&#45;&gt;v0</title>
<path fill="none" stroke="black" d="M57.3788,-94.9244C56.2105,-79.736 53.669,-46.6964 52.1706,-27.2178"/>
<polygon fill="black" stroke="black" points="51.7777,-22.1095 54.4046,-26.9222 51.9694,-24.6022 52.1612,-27.0948 52.1612,-27.0948 52.1612,-27.0948 51.9694,-24.6022 49.9179,-27.2674 51.7777,-22.1095 51.7777,-22.1095"/>
</g>
<!-- v1 -->
<g id="v1_M" class="node"><title>v1</title>
<ellipse fill="none" stroke="black" cx="11" cy="-11" rx="11" ry="11"/>
<text text-anchor="middle" x="11" y="-8.8" font-family="sans-serif" font-size="9.00">M</text>
</g>
<!-- r0&#45;&gt;v1 -->
<g id="edge2" class="edge"><title>r0&#45;&gt;v1</title>
<path fill="none" stroke="black" d="M48.9279,-94.8221C40.3936,-86.6088 27.9219,-73.1692 21,-59 16.1184,-49.0072 13.6092,-36.6764 12.3253,-27.1524"/>
<polygon fill="black" stroke="black" points="11.7308,-22.1828 14.5589,-26.8801 12.0278,-24.6651 12.3248,-27.1474 12.3248,-27.1474 12.3248,-27.1474 12.0278,-24.6651 10.0907,-27.4147 11.7308,-22.1828 11.7308,-22.1828"/>
</g>
<!-- r1 -->
<g id="node2" class="node"><title>r1</title>
<polygon fill="none" stroke="black" stroke-dasharray="5,2" points="151.5,-113 128.5,-113 128.5,-95 151.5,-95 151.5,-113"/>
<text text-anchor="middle" x="140" y="-101.8" font-family="serif" font-size="9.00">1</text>
</g>
<!-- v2 -->
<g id="v2_ND" class="node"><title>v2</title>
<ellipse fill="none" stroke="black" cx="160" cy="-11" rx="14.5" ry="11"/>
<text text-anchor="middle" x="160" y="-8.8" font-family="sans-serif" font-size="9.00">ND</text>
</g>
<!-- r1&#45;&gt;v2 -->
<g id="edge3" class="edge"><title>r1&#45;&gt;v2</title>
<path fill="none" stroke="black" d="M141.775,-94.9244C145.113,-79.736 152.374,-46.6964 156.655,-27.2178"/>
<polygon fill="black" stroke="black" points="157.778,-22.1095 158.902,-27.476 157.241,-24.5513 156.705,-26.993 156.705,-26.993 156.705,-26.993 157.241,-24.5513 154.507,-26.51 157.778,-22.1095 157.778,-22.1095"/>
</g>
<!-- oa -->
<g id="node3" class="node"><title>oa</title>
<text text-anchor="middle" x="181" y="-101.8" font-family="serif" font-size="9.00">a</text>
</g>
<!-- ob -->
<g id="node4" class="node"><title>ob</title>
<text text-anchor="middle" x="222" y="-101.8" font-family="serif" font-size="9.00">b</text>
</g>
<!-- oc -->
<g id="node5" class="node"><title>oc</title>
<text text-anchor="middle" x="263" y="-101.8" font-family="serif" font-size="9.00">c</text>
</g>
<!-- od -->
<g id="node6" class="node"><title>od</title>
<text text-anchor="middle" x="99" y="-101.8" font-family="serif" font-size="9.00">d</text>
</g>
<!-- ox -->
<g id="node7" class="node"><title>ox</title>
<text text-anchor="middle" x="17" y="-101.8" font-family="serif" font-size="9.00">x</text>
</g>
<!-- e4 -->
<g id="node8" class="node"><title>e4</title>
</g>
<!-- ox&#45;&gt;e4 -->
<g id="edge8" class="edge"><title>ox&#45;&gt;e4</title>
<path fill="none" stroke="green" d="M19.5678,-94.9297C23.6095,-82.2273 31,-59 31,-59"/>
</g>
<!-- e4&#45;&gt;v0 -->
<g id="edge9" class="edge"><title>e4&#45;&gt;v0</title>
<path fill="none" stroke="green" d="M31,-58C24.1797,-58 34.0135,-31.5831 43.0935,-18.7875"/>
</g>
<!-- e4&#45;&gt;v0 -->
<g id="edge10" class="edge"><title>e4&#45;&gt;v0</title>
<path fill="none" stroke="green" d="M31,-58C37.2578,-58 48.8337,-35.7609 52.2814,-22.2089"/>
</g>
<!-- e4&#45;&gt;v1 -->
<g id="edge11" class="edge"><title>e4&#45;&gt;v1</title>
<path fill="none" stroke="green" d="M31,-58C24.7422,-58 13.1663,-35.7609 9.71862,-22.2089"/>
</g>
<!-- e4&#45;&gt;v1 -->
<g id="edge12" class="edge"><title>e4&#45;&gt;v1</title>
<path fill="none" stroke="green" d="M31,-58C37.8203,-58 27.9865,-31.5831 18.9065,-18.7875"/>
</g>
<!-- e4&#45;&gt;v2 -->
<g id="edge13" class="edge"><title>e4&#45;&gt;v2</title>
<path fill="none" stroke="green" d="M31,-58C31,-58 114.53,-28.214 147.159,-16.5788"/>
</g>
<!-- v2&#45;&gt;oa -->
<g id="edge4" class="edge"><title>v2&#45;&gt;oa</title>
<path fill="none" stroke="green" d="M162.333,-22.1095C166.537,-40.326 175.302,-78.308 179.136,-94.9244"/>
</g>
<!-- v2&#45;&gt;ob -->
<g id="edge5" class="edge"><title>v2&#45;&gt;ob</title>
<path fill="none" stroke="green" d="M166.126,-20.9914C178.209,-38.7258 204.94,-77.96 216.498,-94.9244"/>
</g>
<!-- v2&#45;&gt;oc -->
<g id="edge6" class="edge"><title>v2&#45;&gt;oc</title>
<path fill="none" stroke="green" d="M168.973,-19.9276C188.418,-37.1068 234.264,-77.612 253.859,-94.9244"/>
</g>
<!-- v2&#45;&gt;od -->
<g id="edge7" class="edge"><title>v2&#45;&gt;od</title>
<path fill="none" stroke="green" d="M153.789,-21.266C141.816,-39.1276 115.727,-78.047 104.413,-94.9244"/>
</g>
</g>
</svg>
