<?xml version="1.0" encoding="UTF-8" standalone="no"?>
<?xml-stylesheet href="style_sbrs.css" type="text/css"?>
<!DOCTYPE svg PUBLIC "-//W3C//DTD SVG 1.1//EN"
 "http://www.w3.org/Graphics/SVG/1.1/DTD/svg11.dtd">
<!-- Generated by graphviz version 2.38.0 (20140413.2041)
 -->
<!-- Title: tra.svg Pages: 1 -->
<svg width="356pt" height="262pt"
 viewBox="0.00 0.00 356.00 262.00" xmlns="http://www.w3.org/2000/svg" xmlns:xlink="http://www.w3.org/1999/xlink">
<g id="graph0" class="graph" transform="scale(1 1) rotate(0) translate(4 258)">
<title>tra.svg</title>
<polygon fill="white" stroke="none" points="-4,4 -4,-258 352,-258 352,4 -4,4"/>
<!-- 0 -->
<g id="s0" class="node"><title>0</title>
<g id="a_s0"><a xlink:href="./0.svg" xlink:title="0">
<ellipse fill="none" stroke="black" stroke-width="2" cx="189.5" cy="-243" rx="21.5" ry="11"/>
<text text-anchor="middle" x="189.5" y="-240.8" font-family="monospace" font-size="9.00">0</text>
</a>
</g>
</g>
<!-- 1 -->
<g id="s1" class="node"><title>1</title>
<g id="a_s1"><a xlink:href="./1.svg" xlink:title="1">
<ellipse fill="none" stroke="black" cx="151.5" cy="-185" rx="21.5" ry="11"/>
<text text-anchor="middle" x="151.5" y="-182.8" font-family="monospace" font-size="9.00">1</text>
</a>
</g>
</g>
<!-- 0&#45;&gt;1 -->
<g id="edge3" class="edge"><title>0&#45;&gt;1</title>
<path fill="none" stroke="black" d="M183.054,-232.5C177.031,-223.624 167.962,-210.259 161.09,-200.132"/>
<polygon fill="black" stroke="black" points="158.106,-195.734 162.775,-198.608 159.509,-197.803 160.913,-199.872 160.913,-199.872 160.913,-199.872 159.509,-197.803 159.051,-201.135 158.106,-195.734 158.106,-195.734"/>
</g>
<!-- 2 -->
<g id="s2" class="node"><title>2</title>
<g id="a_s2"><a xlink:href="./2.svg" xlink:title="2">
<ellipse fill="none" stroke="black" cx="227.5" cy="-185" rx="21.5" ry="11"/>
<text text-anchor="middle" x="227.5" y="-182.8" font-family="monospace" font-size="9.00">2</text>
</a>
</g>
</g>
<!-- 0&#45;&gt;2 -->
<g id="edge4" class="edge"><title>0&#45;&gt;2</title>
<path fill="none" stroke="black" d="M195.946,-232.5C201.969,-223.624 211.038,-210.259 217.91,-200.132"/>
<polygon fill="black" stroke="black" points="220.894,-195.734 219.949,-201.135 219.491,-197.803 218.087,-199.872 218.087,-199.872 218.087,-199.872 219.491,-197.803 216.225,-198.608 220.894,-195.734 220.894,-195.734"/>
</g>
<!-- 3 -->
<g id="s3" class="node"><title>3</title>
<g id="a_s3"><a xlink:href="./3.svg" xlink:title="3">
<ellipse fill="none" stroke="black" cx="318.5" cy="-185" rx="21.5" ry="11"/>
<text text-anchor="middle" x="318.5" y="-182.8" font-family="monospace" font-size="9.00">3</text>
</a>
</g>
</g>
<!-- 0&#45;&gt;3 -->
<g id="edge5" class="edge"><title>0&#45;&gt;3</title>
<path fill="none" stroke="black" d="M205.06,-235.245C228.402,-225.112 272.487,-205.975 298.289,-194.774"/>
<polygon fill="black" stroke="black" points="302.884,-192.779 299.194,-196.834 300.591,-193.774 298.298,-194.77 298.298,-194.77 298.298,-194.77 300.591,-193.774 297.402,-192.706 302.884,-192.779 302.884,-192.779"/>
</g>
<!-- 14 -->
<g id="s14" class="node"><title>14</title>
<g id="a_s14"><a xlink:href="./14.svg" xlink:title="14">
<ellipse fill="none" stroke="black" cx="21.5" cy="-11" rx="21.5" ry="11"/>
<text text-anchor="middle" x="21.5" y="-8.8" font-family="monospace" font-size="9.00">14</text>
</a>
</g>
</g>
<!-- 13 -->
<g id="s13" class="node"><title>13</title>
<g id="a_s13"><a xlink:href="./13.svg" xlink:title="13">
<ellipse fill="none" stroke="black" cx="82.5" cy="-11" rx="21.5" ry="11"/>
<text text-anchor="middle" x="82.5" y="-8.8" font-family="monospace" font-size="9.00">13</text>
</a>
</g>
</g>
<!-- 11 -->
<g id="s11" class="node"><title>11</title>
<g id="a_s11"><a xlink:href="./11.svg" xlink:title="11">
<ellipse fill="none" stroke="black" cx="21.5" cy="-69" rx="21.5" ry="11"/>
<text text-anchor="middle" x="21.5" y="-66.8" font-family="monospace" font-size="9.00">11</text>
</a>
</g>
</g>
<!-- 11&#45;&gt;14 -->
<g id="edge9" class="edge"><title>11&#45;&gt;14</title>
<path fill="none" stroke="black" d="M21.5,-57.9883C21.5,-49.4941 21.5,-37.1697 21.5,-27.4169"/>
<polygon fill="black" stroke="black" points="21.5,-22.3039 23.7501,-27.3038 21.5,-24.8039 21.5001,-27.3039 21.5001,-27.3039 21.5001,-27.3039 21.5,-24.8039 19.2501,-27.3039 21.5,-22.3039 21.5,-22.3039"/>
</g>
<!-- 12 -->
<g id="s12" class="node"><title>12</title>
<g id="a_s12"><a xlink:href="./12.svg" xlink:title="12">
<ellipse fill="none" stroke="black" cx="82.5" cy="-69" rx="21.5" ry="11"/>
<text text-anchor="middle" x="82.5" y="-66.8" font-family="monospace" font-size="9.00">12</text>
</a>
</g>
</g>
<!-- 12&#45;&gt;13 -->
<g id="edge15" class="edge"><title>12&#45;&gt;13</title>
<path fill="none" stroke="black" d="M82.5,-57.9883C82.5,-49.4941 82.5,-37.1697 82.5,-27.4169"/>
<polygon fill="black" stroke="black" points="82.5,-22.3039 84.7501,-27.3038 82.5,-24.8039 82.5001,-27.3039 82.5001,-27.3039 82.5001,-27.3039 82.5,-24.8039 80.2501,-27.3039 82.5,-22.3039 82.5,-22.3039"/>
</g>
<!-- 10 -->
<g id="s10" class="node"><title>10</title>
<g id="a_s10"><a xlink:href="./10.svg" xlink:title="10">
<ellipse fill="none" stroke="black" cx="143.5" cy="-69" rx="21.5" ry="11"/>
<text text-anchor="middle" x="143.5" y="-66.8" font-family="monospace" font-size="9.00">10</text>
</a>
</g>
</g>
<!-- 9 -->
<g id="s9" class="node"><title>9</title>
<g id="a_s9"><a xlink:href="./9.svg" xlink:title="9">
<ellipse fill="none" stroke="black" cx="204.5" cy="-69" rx="21.5" ry="11"/>
<text text-anchor="middle" x="204.5" y="-66.8" font-family="monospace" font-size="9.00">9</text>
</a>
</g>
</g>
<!-- 6 -->
<g id="s6" class="node"><title>6</title>
<g id="a_s6"><a xlink:href="./6.svg" xlink:title="6">
<ellipse fill="none" stroke="black" cx="82.5" cy="-127" rx="21.5" ry="11"/>
<text text-anchor="middle" x="82.5" y="-124.8" font-family="monospace" font-size="9.00">6</text>
</a>
</g>
</g>
<!-- 6&#45;&gt;0 -->
<g id="edge6" class="edge"><title>6&#45;&gt;0</title>
<path fill="none" stroke="black" d="M86.3823,-138.169C92.1704,-152.354 104.158,-178.324 120.5,-196 134.849,-211.52 155.433,-224.368 170.382,-232.504"/>
<polygon fill="black" stroke="black" points="174.827,-234.876 169.356,-234.507 172.621,-233.699 170.415,-232.522 170.415,-232.522 170.415,-232.522 172.621,-233.699 171.475,-230.537 174.827,-234.876 174.827,-234.876"/>
</g>
<!-- 6&#45;&gt;11 -->
<g id="edge7" class="edge"><title>6&#45;&gt;11</title>
<path fill="none" stroke="black" d="M72.6993,-117.003C62.6211,-107.75 46.8336,-93.2571 35.4535,-82.8098"/>
<polygon fill="black" stroke="black" points="31.479,-79.1611 36.6839,-80.885 33.3207,-80.8518 35.1623,-82.5425 35.1623,-82.5425 35.1623,-82.5425 33.3207,-80.8518 33.6407,-84.1999 31.479,-79.1611 31.479,-79.1611"/>
</g>
<!-- 6&#45;&gt;12 -->
<g id="edge8" class="edge"><title>6&#45;&gt;12</title>
<path fill="none" stroke="black" d="M82.5,-115.988C82.5,-107.494 82.5,-95.1697 82.5,-85.4169"/>
<polygon fill="black" stroke="black" points="82.5,-80.3039 84.7501,-85.3038 82.5,-82.8039 82.5001,-85.3039 82.5001,-85.3039 82.5001,-85.3039 82.5,-82.8039 80.2501,-85.3039 82.5,-80.3039 82.5,-80.3039"/>
</g>
<!-- 7 -->
<g id="s7" class="node"><title>7</title>
<g id="a_s7"><a xlink:href="./7.svg" xlink:title="7">
<ellipse fill="none" stroke="black" cx="143.5" cy="-127" rx="21.5" ry="11"/>
<text text-anchor="middle" x="143.5" y="-124.8" font-family="monospace" font-size="9.00">7</text>
</a>
</g>
</g>
<!-- 7&#45;&gt;10 -->
<g id="edge2" class="edge"><title>7&#45;&gt;10</title>
<path fill="none" stroke="black" d="M143.5,-115.988C143.5,-107.494 143.5,-95.1697 143.5,-85.4169"/>
<polygon fill="black" stroke="black" points="143.5,-80.3039 145.75,-85.3038 143.5,-82.8039 143.5,-85.3039 143.5,-85.3039 143.5,-85.3039 143.5,-82.8039 141.25,-85.3039 143.5,-80.3039 143.5,-80.3039"/>
</g>
<!-- 8 -->
<g id="s8" class="node"><title>8</title>
<g id="a_s8"><a xlink:href="./8.svg" xlink:title="8">
<ellipse fill="none" stroke="black" cx="204.5" cy="-127" rx="21.5" ry="11"/>
<text text-anchor="middle" x="204.5" y="-124.8" font-family="monospace" font-size="9.00">8</text>
</a>
</g>
</g>
<!-- 8&#45;&gt;9 -->
<g id="edge14" class="edge"><title>8&#45;&gt;9</title>
<path fill="none" stroke="black" d="M204.5,-115.988C204.5,-107.494 204.5,-95.1697 204.5,-85.4169"/>
<polygon fill="black" stroke="black" points="204.5,-80.3039 206.75,-85.3038 204.5,-82.8039 204.5,-85.3039 204.5,-85.3039 204.5,-85.3039 204.5,-82.8039 202.25,-85.3039 204.5,-80.3039 204.5,-80.3039"/>
</g>
<!-- 5 -->
<g id="s5" class="node"><title>5</title>
<g id="a_s5"><a xlink:href="./5.svg" xlink:title="5">
<ellipse fill="none" stroke="black" cx="265.5" cy="-127" rx="21.5" ry="11"/>
<text text-anchor="middle" x="265.5" y="-124.8" font-family="monospace" font-size="9.00">5</text>
</a>
</g>
</g>
<!-- 4 -->
<g id="s4" class="node"><title>4</title>
<g id="a_s4"><a xlink:href="./4.svg" xlink:title="4">
<ellipse fill="none" stroke="black" cx="326.5" cy="-127" rx="21.5" ry="11"/>
<text text-anchor="middle" x="326.5" y="-124.8" font-family="monospace" font-size="9.00">4</text>
</a>
</g>
</g>
<!-- 1&#45;&gt;6 -->
<g id="edge11" class="edge"><title>1&#45;&gt;6</title>
<path fill="none" stroke="black" d="M140.719,-175.25C129.141,-165.853 110.655,-150.85 97.625,-140.275"/>
<polygon fill="black" stroke="black" points="93.4333,-136.873 98.7335,-138.277 95.3744,-138.449 97.3156,-140.024 97.3156,-140.024 97.3156,-140.024 95.3744,-138.449 95.8977,-141.771 93.4333,-136.873 93.4333,-136.873"/>
</g>
<!-- 1&#45;&gt;7 -->
<g id="edge12" class="edge"><title>1&#45;&gt;7</title>
<path fill="none" stroke="black" d="M150.07,-173.988C148.856,-165.494 147.096,-153.17 145.702,-143.417"/>
<polygon fill="black" stroke="black" points="144.972,-138.304 147.907,-142.935 145.326,-140.779 145.679,-143.254 145.679,-143.254 145.679,-143.254 145.326,-140.779 143.452,-143.572 144.972,-138.304 144.972,-138.304"/>
</g>
<!-- 1&#45;&gt;8 -->
<g id="edge13" class="edge"><title>1&#45;&gt;8</title>
<path fill="none" stroke="black" d="M160.252,-174.753C168.869,-165.648 182.121,-151.646 191.877,-141.338"/>
<polygon fill="black" stroke="black" points="195.558,-137.448 193.755,-142.626 193.84,-139.264 192.121,-141.08 192.121,-141.08 192.121,-141.08 193.84,-139.264 190.487,-139.533 195.558,-137.448 195.558,-137.448"/>
</g>
<!-- 2&#45;&gt;5 -->
<g id="edge1" class="edge"><title>2&#45;&gt;5</title>
<path fill="none" stroke="black" d="M233.946,-174.5C239.969,-165.624 249.038,-152.259 255.91,-142.132"/>
<polygon fill="black" stroke="black" points="258.894,-137.734 257.949,-143.135 257.491,-139.803 256.087,-141.872 256.087,-141.872 256.087,-141.872 257.491,-139.803 254.225,-140.608 258.894,-137.734 258.894,-137.734"/>
</g>
<!-- 3&#45;&gt;4 -->
<g id="edge10" class="edge"><title>3&#45;&gt;4</title>
<path fill="none" stroke="black" d="M319.93,-173.988C321.144,-165.494 322.904,-153.17 324.298,-143.417"/>
<polygon fill="black" stroke="black" points="325.028,-138.304 326.548,-143.572 324.674,-140.779 324.321,-143.254 324.321,-143.254 324.321,-143.254 324.674,-140.779 322.093,-142.935 325.028,-138.304 325.028,-138.304"/>
</g>
</g>
</svg>
