<?xml version="1.0" encoding="UTF-8" standalone="no"?>
<?xml-stylesheet href="style.css" type="text/css"?>
<!DOCTYPE svg PUBLIC "-//W3C//DTD SVG 1.1//EN"
 "http://www.w3.org/Graphics/SVG/1.1/DTD/svg11.dtd">
<!-- Generated by graphviz version 2.38.0 (20140413.2041)
 -->
<!-- Title: w1.svg Pages: 1 -->
<svg width="309pt" height="200pt"
 viewBox="0.00 0.00 309.00 200.00" xmlns="http://www.w3.org/2000/svg" xmlns:xlink="http://www.w3.org/1999/xlink">
<g id="graph0" class="graph" transform="scale(1 1) rotate(0) translate(4 196)">
<title>w1.svg</title>
<polygon fill="white" stroke="none" points="-4,4 -4,-196 305,-196 305,4 -4,4"/>
<!-- r0 -->
<g id="node1" class="node"><title>r0</title>
<polygon fill="none" stroke="black" stroke-dasharray="5,2" points="105,-192 82,-192 82,-174 105,-174 105,-192"/>
<text text-anchor="middle" x="93.5" y="-180.8" font-family="serif" font-size="9.00">0</text>
</g>
<!-- v0 -->
<g id="v0_R" class="node"><title>v0</title>
<ellipse fill="none" stroke="black" cx="36.5" cy="-69" rx="11" ry="11"/>
<text text-anchor="middle" x="36.5" y="-66.8" font-family="sans-serif" font-size="9.00">R</text>
</g>
<!-- r0&#45;&gt;v0 -->
<g id="edge1" class="edge"><title>r0&#45;&gt;v0</title>
<path fill="none" stroke="black" d="M89.4007,-173.945C79.7728,-155.027 55.6221,-107.573 43.5703,-83.8925"/>
<polygon fill="black" stroke="black" points="41.1918,-79.219 45.4649,-82.6545 42.3257,-81.447 43.4597,-83.6751 43.4597,-83.6751 43.4597,-83.6751 42.3257,-81.447 41.4544,-84.6956 41.1918,-79.219 41.1918,-79.219"/>
</g>
<!-- v3 -->
<g id="v3_T" class="node"><title>v3</title>
<ellipse fill="none" stroke="black" cx="250.5" cy="-127" rx="11" ry="11"/>
<text text-anchor="middle" x="250.5" y="-124.8" font-family="sans-serif" font-size="9.00">T</text>
</g>
<!-- r0&#45;&gt;v3 -->
<g id="edge2" class="edge"><title>r0&#45;&gt;v3</title>
<path fill="none" stroke="black" d="M105.024,-177.52C108.095,-176.351 111.416,-175.109 114.5,-174 158.078,-158.336 210.032,-141.181 235.254,-132.948"/>
<polygon fill="black" stroke="black" points="240.218,-131.331 236.161,-135.019 237.841,-132.105 235.464,-132.88 235.464,-132.88 235.464,-132.88 237.841,-132.105 234.767,-130.741 240.218,-131.331 240.218,-131.331"/>
</g>
<!-- r1 -->
<g id="node2" class="node"><title>r1</title>
<polygon fill="none" stroke="black" stroke-dasharray="5,2" points="64,-192 41,-192 41,-174 64,-174 64,-192"/>
<text text-anchor="middle" x="52.5" y="-180.8" font-family="serif" font-size="9.00">1</text>
</g>
<!-- v7 -->
<g id="v7_R" class="node"><title>v7</title>
<ellipse fill="none" stroke="black" cx="96.5" cy="-69" rx="11" ry="11"/>
<text text-anchor="middle" x="96.5" y="-66.8" font-family="sans-serif" font-size="9.00">R</text>
</g>
<!-- r1&#45;&gt;v7 -->
<g id="edge3" class="edge"><title>r1&#45;&gt;v7</title>
<path fill="none" stroke="black" d="M55.6644,-173.945C63.0596,-155.121 81.5547,-108.042 90.9034,-84.246"/>
<polygon fill="black" stroke="black" points="92.7521,-79.54 93.018,-85.0165 91.838,-81.8669 90.9238,-84.1938 90.9238,-84.1938 90.9238,-84.1938 91.838,-81.8669 88.8296,-83.371 92.7521,-79.54 92.7521,-79.54"/>
</g>
<!-- oa -->
<g id="node3" class="node"><title>oa</title>
<text text-anchor="middle" x="214.5" y="-180.8" font-family="serif" font-size="9.00">a</text>
</g>
<!-- e0 -->
<g id="node8" class="node"><title>e0</title>
</g>
<!-- oa&#45;&gt;e0 -->
<g id="edge10" class="edge"><title>oa&#45;&gt;e0</title>
<path fill="none" stroke="green" d="M212.271,-173.945C205.163,-148.265 183.5,-70 183.5,-70"/>
</g>
<!-- ob -->
<g id="node4" class="node"><title>ob</title>
<text text-anchor="middle" x="11.5" y="-180.8" font-family="serif" font-size="9.00">b</text>
</g>
<!-- e1 -->
<g id="node9" class="node"><title>e1</title>
</g>
<!-- ob&#45;&gt;e1 -->
<g id="edge14" class="edge"><title>ob&#45;&gt;e1</title>
<path fill="none" stroke="green" d="M15.4555,-173.945C28.0665,-148.265 66.5,-70 66.5,-70"/>
</g>
<!-- oc -->
<g id="node5" class="node"><title>oc</title>
<text text-anchor="middle" x="174.5" y="-180.8" font-family="serif" font-size="9.00">c</text>
</g>
<!-- e2 -->
<g id="node10" class="node"><title>e2</title>
</g>
<!-- oc&#45;&gt;e2 -->
<g id="edge18" class="edge"><title>oc&#45;&gt;e2</title>
<path fill="none" stroke="green" d="M173.781,-173.945C171.488,-148.265 164.5,-70 164.5,-70"/>
</g>
<!-- od -->
<g id="node6" class="node"><title>od</title>
<text text-anchor="middle" x="289.5" y="-180.8" font-family="serif" font-size="9.00">d</text>
</g>
<!-- e3 -->
<g id="node11" class="node"><title>e3</title>
</g>
<!-- od&#45;&gt;e3 -->
<g id="edge22" class="edge"><title>od&#45;&gt;e3</title>
<path fill="none" stroke="green" d="M289.017,-173.861C287.849,-160.512 283.883,-133.685 270.5,-116 252.192,-91.8068 236.272,-98.8511 212.5,-80 207.575,-76.0947 202.5,-70 202.5,-70"/>
</g>
<!-- ox -->
<g id="node7" class="node"><title>ox</title>
<text text-anchor="middle" x="134.5" y="-180.8" font-family="serif" font-size="9.00">x</text>
</g>
<!-- v1 -->
<g id="v1_M" class="node"><title>v1</title>
<ellipse fill="none" stroke="black" cx="83.5" cy="-11" rx="11" ry="11"/>
<text text-anchor="middle" x="83.5" y="-8.8" font-family="sans-serif" font-size="9.00">M</text>
</g>
<!-- e0&#45;&gt;v1 -->
<g id="edge11" class="edge"><title>e0&#45;&gt;v1</title>
<path fill="none" stroke="green" d="M183.5,-68C183.5,-68 178.583,-61.6977 173.5,-58 146.823,-38.5925 110.79,-22.8816 93.5301,-15.9046"/>
</g>
<!-- v6 -->
<g id="v6_M" class="node"><title>v6</title>
<ellipse fill="none" stroke="black" cx="228.5" cy="-11" rx="11" ry="11"/>
<text text-anchor="middle" x="228.5" y="-8.8" font-family="sans-serif" font-size="9.00">M</text>
</g>
<!-- e0&#45;&gt;v6 -->
<g id="edge12" class="edge"><title>e0&#45;&gt;v6</title>
<path fill="none" stroke="green" d="M183.5,-68C183.5,-68 209.343,-35.8403 221.86,-20.263"/>
</g>
<!-- v8 -->
<g id="v8_ND" class="node"><title>v8</title>
<ellipse fill="none" stroke="black" cx="138.5" cy="-11" rx="14.5" ry="11"/>
<text text-anchor="middle" x="138.5" y="-8.8" font-family="sans-serif" font-size="9.00">ND</text>
</g>
<!-- e0&#45;&gt;v8 -->
<g id="edge13" class="edge"><title>e0&#45;&gt;v8</title>
<path fill="none" stroke="green" d="M183.5,-68C183.5,-68 158.188,-36.5 145.531,-20.75"/>
</g>
<!-- e1&#45;&gt;v1 -->
<g id="edge15" class="edge"><title>e1&#45;&gt;v1</title>
<path fill="none" stroke="green" d="M66.5,-68C66.5,-68 75.6682,-37.7988 80.5388,-21.7545"/>
</g>
<!-- v2 -->
<g id="v2_M" class="node"><title>v2</title>
<ellipse fill="none" stroke="black" cx="43.5" cy="-11" rx="11" ry="11"/>
<text text-anchor="middle" x="43.5" y="-8.8" font-family="sans-serif" font-size="9.00">M</text>
</g>
<!-- e1&#45;&gt;v2 -->
<g id="edge16" class="edge"><title>e1&#45;&gt;v2</title>
<path fill="none" stroke="green" d="M66.5,-68C66.5,-68 53.9636,-37.4767 47.4016,-21.4996"/>
</g>
<!-- e1&#45;&gt;v8 -->
<g id="edge17" class="edge"><title>e1&#45;&gt;v8</title>
<path fill="none" stroke="green" d="M66.5,-68C66.5,-68 71.741,-62.1059 76.5,-58 93.7517,-43.1159 115.432,-27.7147 128.051,-19.0468"/>
</g>
<!-- e2&#45;&gt;v2 -->
<g id="edge19" class="edge"><title>e2&#45;&gt;v2</title>
<path fill="none" stroke="green" d="M164.5,-68C164.5,-68 108.011,-43.2552 63.5,-22 60.137,-20.3941 56.4837,-18.5863 53.2308,-16.954"/>
</g>
<!-- v5 -->
<g id="v5_M" class="node"><title>v5</title>
<ellipse fill="none" stroke="black" cx="188.5" cy="-11" rx="11" ry="11"/>
<text text-anchor="middle" x="188.5" y="-8.8" font-family="sans-serif" font-size="9.00">M</text>
</g>
<!-- e2&#45;&gt;v5 -->
<g id="edge20" class="edge"><title>e2&#45;&gt;v5</title>
<path fill="none" stroke="green" d="M164.5,-68C164.5,-68 177.581,-37.4767 184.429,-21.4996"/>
</g>
<!-- e2&#45;&gt;v8 -->
<g id="edge21" class="edge"><title>e2&#45;&gt;v8</title>
<path fill="none" stroke="green" d="M164.5,-68C164.5,-68 150.328,-37.4767 142.911,-21.4996"/>
</g>
<!-- e3&#45;&gt;v5 -->
<g id="edge23" class="edge"><title>e3&#45;&gt;v5</title>
<path fill="none" stroke="green" d="M202.5,-68C202.5,-68 194.95,-37.7988 190.939,-21.7545"/>
</g>
<!-- e3&#45;&gt;v6 -->
<g id="edge24" class="edge"><title>e3&#45;&gt;v6</title>
<path fill="none" stroke="green" d="M202.5,-68C202.5,-68 216.822,-37.1528 224.207,-21.2473"/>
</g>
<!-- e3&#45;&gt;v8 -->
<g id="edge25" class="edge"><title>e3&#45;&gt;v8</title>
<path fill="none" stroke="green" d="M202.5,-68C202.5,-68 197.118,-62.2636 192.5,-58 177.298,-43.9655 158.793,-28.5408 147.867,-19.5946"/>
</g>
<!-- v0&#45;&gt;v1 -->
<g id="edge4" class="edge"><title>v0&#45;&gt;v1</title>
<path fill="none" stroke="black" d="M43.435,-59.737C51.37,-50.2826 64.4316,-34.7198 73.4738,-23.9461"/>
<polygon fill="black" stroke="black" points="76.8409,-19.9343 75.3499,-25.2107 75.2337,-21.8492 73.6265,-23.7642 73.6265,-23.7642 73.6265,-23.7642 75.2337,-21.8492 71.903,-22.3177 76.8409,-19.9343 76.8409,-19.9343"/>
</g>
<!-- v0&#45;&gt;v2 -->
<g id="edge5" class="edge"><title>v0&#45;&gt;v2</title>
<path fill="none" stroke="black" d="M37.7515,-57.9883C38.8132,-49.4941 40.3538,-37.1697 41.5729,-27.4169"/>
<polygon fill="black" stroke="black" points="42.212,-22.3039 43.8244,-27.5444 41.9019,-24.7846 41.5918,-27.2653 41.5918,-27.2653 41.5918,-27.2653 41.9019,-24.7846 39.3591,-26.9861 42.212,-22.3039 42.212,-22.3039"/>
</g>
<!-- v4 -->
<g id="v4_T" class="node"><title>v4</title>
<ellipse fill="none" stroke="black" cx="232.5" cy="-69" rx="11" ry="11"/>
<text text-anchor="middle" x="232.5" y="-66.8" font-family="sans-serif" font-size="9.00">T</text>
</g>
<!-- v3&#45;&gt;v4 -->
<g id="edge6" class="edge"><title>v3&#45;&gt;v4</title>
<path fill="none" stroke="black" d="M247.365,-116.246C244.551,-107.493 240.384,-94.527 237.177,-84.5496"/>
<polygon fill="black" stroke="black" points="235.599,-79.6427 239.272,-83.7143 236.364,-82.0227 237.13,-84.4028 237.13,-84.4028 237.13,-84.4028 236.364,-82.0227 234.987,-85.0914 235.599,-79.6427 235.599,-79.6427"/>
</g>
<!-- v4&#45;&gt;v5 -->
<g id="edge7" class="edge"><title>v4&#45;&gt;v5</title>
<path fill="none" stroke="black" d="M226.008,-59.737C218.664,-50.39 206.629,-35.0727 198.176,-24.3152"/>
<polygon fill="black" stroke="black" points="195.019,-20.2969 199.877,-22.8384 196.564,-22.2627 198.108,-24.2285 198.108,-24.2285 198.108,-24.2285 196.564,-22.2627 196.339,-25.6186 195.019,-20.2969 195.019,-20.2969"/>
</g>
<!-- v4&#45;&gt;v6 -->
<g id="edge8" class="edge"><title>v4&#45;&gt;v6</title>
<path fill="none" stroke="black" d="M231.785,-57.9883C231.178,-49.4941 230.298,-37.1697 229.601,-27.4169"/>
<polygon fill="black" stroke="black" points="229.236,-22.3039 231.837,-27.1308 229.414,-24.7975 229.592,-27.2912 229.592,-27.2912 229.592,-27.2912 229.414,-24.7975 227.348,-27.4515 229.236,-22.3039 229.236,-22.3039"/>
</g>
<!-- v7&#45;&gt;v8 -->
<g id="edge9" class="edge"><title>v7&#45;&gt;v8</title>
<path fill="none" stroke="black" d="M102.697,-59.737C109.546,-50.6049 120.67,-35.7738 128.702,-25.0642"/>
<polygon fill="black" stroke="black" points="131.72,-21.0401 130.52,-26.3902 130.22,-23.0402 128.72,-25.0402 128.72,-25.0402 128.72,-25.0402 130.22,-23.0402 126.92,-23.6901 131.72,-21.0401 131.72,-21.0401"/>
</g>
<!-- v8&#45;&gt;ox -->
<g id="edge26" class="edge"><title>v8&#45;&gt;ox</title>
<path fill="none" stroke="green" d="M138.26,-22.204C137.531,-53.1724 135.355,-145.679 134.693,-173.801"/>
</g>
</g>
</svg>
