<?xml version="1.0" encoding="UTF-8" standalone="no"?>
<?xml-stylesheet href="style.css" type="text/css"?>
<!DOCTYPE svg PUBLIC "-//W3C//DTD SVG 1.1//EN"
 "http://www.w3.org/Graphics/SVG/1.1/DTD/svg11.dtd">
<!-- Generated by graphviz version 2.38.0 (20140413.2041)
 -->
<!-- Title: 2.svg Pages: 1 -->
<svg width="898pt" height="316pt"
 viewBox="0.00 0.00 897.50 316.00" xmlns="http://www.w3.org/2000/svg" xmlns:xlink="http://www.w3.org/1999/xlink">
<g id="graph0" class="graph" transform="scale(1 1) rotate(0) translate(4 312)">
<title>2.svg</title>
<polygon fill="white" stroke="none" points="-4,4 -4,-312 893.5,-312 893.5,4 -4,4"/>
<!-- r0 -->
<g id="node1" class="node"><title>r0</title>
<polygon fill="none" stroke="black" stroke-dasharray="5,2" points="524.5,-308 501.5,-308 501.5,-290 524.5,-290 524.5,-308"/>
<text text-anchor="middle" x="513" y="-296.8" font-family="serif" font-size="9.00">0</text>
</g>
<!-- v0 -->
<g id="v0_Building" class="node"><title>v0</title>
<ellipse fill="none" stroke="black" cx="507" cy="-243" rx="36" ry="11"/>
<text text-anchor="middle" x="507" y="-240.8" font-family="sans-serif" font-size="9.00">Building</text>
</g>
<!-- r0&#45;&gt;v0 -->
<g id="edge1" class="edge"><title>r0&#45;&gt;v0</title>
<path fill="none" stroke="black" d="M512.062,-289.562C511.161,-281.453 509.779,-269.014 508.687,-259.181"/>
<polygon fill="black" stroke="black" points="508.114,-254.03 510.903,-258.751 508.391,-256.515 508.667,-259 508.667,-259 508.667,-259 508.391,-256.515 506.43,-259.248 508.114,-254.03 508.114,-254.03"/>
</g>
<!-- oalarm -->
<g id="node2" class="node"><title>oalarm</title>
<text text-anchor="middle" x="280" y="-296.8" font-family="serif" font-size="9.00">alarm</text>
</g>
<!-- e1 -->
<g id="node12" class="node"><title>e1</title>
</g>
<!-- oalarm&#45;&gt;e1 -->
<g id="edge17" class="edge"><title>oalarm&#45;&gt;e1</title>
<path fill="none" stroke="green" d="M280.249,-289.885C281.496,-249.27 287,-70 287,-70"/>
</g>
<!-- ocntrlRm -->
<g id="node3" class="node"><title>ocntrlRm</title>
<text text-anchor="middle" x="862" y="-296.8" font-family="serif" font-size="9.00">cntrlRm</text>
</g>
<!-- e2 -->
<g id="node13" class="node"><title>e2</title>
</g>
<!-- ocntrlRm&#45;&gt;e2 -->
<g id="edge20" class="edge"><title>ocntrlRm&#45;&gt;e2</title>
<path fill="none" stroke="green" d="M861.373,-289.801C858.776,-255.842 849,-128 849,-128"/>
</g>
<!-- oserv -->
<g id="node4" class="node"><title>oserv</title>
<text text-anchor="middle" x="338" y="-296.8" font-family="serif" font-size="9.00">serv</text>
</g>
<!-- e3 -->
<g id="node14" class="node"><title>e3</title>
</g>
<!-- oserv&#45;&gt;e3 -->
<g id="edge23" class="edge"><title>oserv&#45;&gt;e3</title>
<path fill="none" stroke="green" d="M338,-289.885C338,-249.27 338,-70 338,-70"/>
</g>
<!-- oserverRm -->
<g id="node5" class="node"><title>oserverRm</title>
<text text-anchor="middle" x="453" y="-296.8" font-family="serif" font-size="9.00">serverRm</text>
</g>
<!-- e4 -->
<g id="node15" class="node"><title>e4</title>
</g>
<!-- oserverRm&#45;&gt;e4 -->
<g id="edge26" class="edge"><title>oserverRm&#45;&gt;e4</title>
<path fill="none" stroke="green" d="M451.202,-289.945C445.47,-264.265 428,-186 428,-186"/>
</g>
<!-- osl1 -->
<g id="node6" class="node"><title>osl1</title>
<text text-anchor="middle" x="389" y="-296.8" font-family="serif" font-size="9.00">sl1</text>
</g>
<!-- e5 -->
<g id="node16" class="node"><title>e5</title>
</g>
<!-- osl1&#45;&gt;e5 -->
<g id="edge29" class="edge"><title>osl1&#45;&gt;e5</title>
<path fill="none" stroke="green" d="M390.659,-289.814C394.757,-269.867 405.905,-217.22 418,-174 431.105,-127.169 452,-70 452,-70"/>
</g>
<!-- osl2 -->
<g id="node7" class="node"><title>osl2</title>
<text text-anchor="middle" x="139" y="-296.8" font-family="serif" font-size="9.00">sl2</text>
</g>
<!-- e6 -->
<g id="node17" class="node"><title>e6</title>
</g>
<!-- osl2&#45;&gt;e6 -->
<g id="edge32" class="edge"><title>osl2&#45;&gt;e6</title>
<path fill="none" stroke="green" d="M139,-289.885C139,-249.27 139,-70 139,-70"/>
</g>
<!-- osl3 -->
<g id="node8" class="node"><title>osl3</title>
<text text-anchor="middle" x="647" y="-296.8" font-family="serif" font-size="9.00">sl3</text>
</g>
<!-- e7 -->
<g id="node18" class="node"><title>e7</title>
</g>
<!-- osl3&#45;&gt;e7 -->
<g id="edge35" class="edge"><title>osl3&#45;&gt;e7</title>
<path fill="none" stroke="green" d="M644.615,-289.885C632.68,-249.27 580,-70 580,-70"/>
</g>
<!-- ostation -->
<g id="node9" class="node"><title>ostation</title>
<text text-anchor="middle" x="571" y="-296.8" font-family="serif" font-size="9.00">station</text>
</g>
<!-- e8 -->
<g id="node19" class="node"><title>e8</title>
</g>
<!-- ostation&#45;&gt;e8 -->
<g id="edge38" class="edge"><title>ostation&#45;&gt;e8</title>
<path fill="none" stroke="green" d="M570.644,-289.885C568.863,-249.27 561,-70 561,-70"/>
</g>
<!-- otoiletRm -->
<g id="node10" class="node"><title>otoiletRm</title>
<text text-anchor="middle" x="788" y="-296.8" font-family="serif" font-size="9.00">toiletRm</text>
</g>
<!-- e9 -->
<g id="node20" class="node"><title>e9</title>
</g>
<!-- otoiletRm&#45;&gt;e9 -->
<g id="edge41" class="edge"><title>otoiletRm&#45;&gt;e9</title>
<path fill="none" stroke="green" d="M788.675,-289.801C791.472,-255.842 802,-128 802,-128"/>
</g>
<!-- e0 -->
<g id="node11" class="node"><title>e0</title>
</g>
<!-- v5 -->
<g id="v5_Laptop" class="node"><title>v5</title>
<ellipse fill="none" stroke="black" cx="29" cy="-11" rx="29" ry="11"/>
<text text-anchor="middle" x="29" y="-8.8" font-family="sans-serif" font-size="9.00">Laptop</text>
</g>
<!-- e0&#45;&gt;v5 -->
<g id="edge16" class="edge"><title>e0&#45;&gt;v5</title>
<path fill="none" stroke="green" d="M29,-64.1674C29,-55.5862 29,-34.5957 29,-22.0117"/>
<polygon fill="green" stroke="green" points="32.5,-67.3001 25.5,-67.2999 25.5001,-65.8999 32.5001,-65.9001 32.5,-67.3001"/>
<polyline fill="none" stroke="green" points="29,-68 29.0001,-64.5 "/>
</g>
<!-- v8 -->
<g id="v8_FireAlarm" class="node"><title>v8</title>
<ellipse fill="none" stroke="black" cx="220" cy="-11" rx="39.5" ry="11"/>
<text text-anchor="middle" x="220" y="-8.8" font-family="sans-serif" font-size="9.00">FireAlarm</text>
</g>
<!-- e1&#45;&gt;v8 -->
<g id="edge18" class="edge"><title>e1&#45;&gt;v8</title>
<path fill="none" stroke="green" d="M287,-68C287,-68 250.866,-37.7988 231.671,-21.7545"/>
</g>
<!-- v14 -->
<g id="v14_InstallationBus" class="node"><title>v14</title>
<ellipse fill="none" stroke="black" cx="414" cy="-11" rx="61" ry="11"/>
<text text-anchor="middle" x="414" y="-8.8" font-family="sans-serif" font-size="9.00">InstallationBus</text>
</g>
<!-- e1&#45;&gt;v14 -->
<g id="edge19" class="edge"><title>e1&#45;&gt;v14</title>
<path fill="none" stroke="green" d="M287,-68C287,-68 356.589,-37.315 392.743,-21.3731"/>
</g>
<!-- v2 -->
<g id="v2_Hallway" class="node"><title>v2</title>
<ellipse fill="none" stroke="black" cx="846" cy="-11" rx="32.5" ry="11"/>
<text text-anchor="middle" x="846" y="-8.8" font-family="sans-serif" font-size="9.00">Hallway</text>
</g>
<!-- e2&#45;&gt;v2 -->
<g id="edge21" class="edge"><title>e2&#45;&gt;v2</title>
<path fill="none" stroke="green" d="M849,-126C849,-126 847,-50.0168 846.266,-22.1167"/>
</g>
<!-- v11 -->
<g id="v11_Room" class="node"><title>v11</title>
<ellipse fill="none" stroke="black" cx="723" cy="-69" rx="21.5" ry="11"/>
<text text-anchor="middle" x="723" y="-66.8" font-family="sans-serif" font-size="9.00">Room</text>
</g>
<!-- e2&#45;&gt;v11 -->
<g id="edge22" class="edge"><title>e2&#45;&gt;v11</title>
<path fill="none" stroke="green" d="M849,-126C849,-126 772.096,-91.8203 738.45,-76.8667"/>
</g>
<!-- v7 -->
<g id="v7_Server" class="node"><title>v7</title>
<ellipse fill="none" stroke="black" cx="306" cy="-11" rx="29" ry="11"/>
<text text-anchor="middle" x="306" y="-8.8" font-family="sans-serif" font-size="9.00">Server</text>
</g>
<!-- e3&#45;&gt;v7 -->
<g id="edge24" class="edge"><title>e3&#45;&gt;v7</title>
<path fill="none" stroke="green" d="M338,-68C338,-68 320.925,-38.1193 311.721,-22.0117"/>
</g>
<!-- e3&#45;&gt;v14 -->
<g id="edge25" class="edge"><title>e3&#45;&gt;v14</title>
<path fill="none" stroke="green" d="M338,-68C338,-68 378.987,-37.7988 400.762,-21.7545"/>
</g>
<!-- e4&#45;&gt;v2 -->
<g id="edge27" class="edge"><title>e4&#45;&gt;v2</title>
<path fill="none" stroke="green" d="M428,-184C428,-184 606.35,-67.855 631,-58 703.924,-28.8454 727.348,-39.097 804,-22 809.414,-20.7925 815.207,-19.4475 820.708,-18.1454"/>
</g>
<!-- v3 -->
<g id="v3_Room" class="node"><title>v3</title>
<ellipse fill="none" stroke="black" cx="225" cy="-127" rx="21.5" ry="11"/>
<text text-anchor="middle" x="225" y="-124.8" font-family="sans-serif" font-size="9.00">Room</text>
</g>
<!-- e4&#45;&gt;v3 -->
<g id="edge28" class="edge"><title>e4&#45;&gt;v3</title>
<path fill="none" stroke="green" d="M428,-184C428,-184 293.343,-146.853 243.373,-133.068"/>
</g>
<!-- v10 -->
<g id="v10_SmartLight" class="node"><title>v10</title>
<ellipse fill="none" stroke="black" cx="536" cy="-11" rx="43" ry="11"/>
<text text-anchor="middle" x="536" y="-8.8" font-family="sans-serif" font-size="9.00">SmartLight</text>
</g>
<!-- e5&#45;&gt;v10 -->
<g id="edge30" class="edge"><title>e5&#45;&gt;v10</title>
<path fill="none" stroke="green" d="M452,-68C452,-68 497.785,-37.4767 521.751,-21.4996"/>
</g>
<!-- e5&#45;&gt;v14 -->
<g id="edge31" class="edge"><title>e5&#45;&gt;v14</title>
<path fill="none" stroke="green" d="M452,-68C452,-68 431.724,-38.1193 420.794,-22.0117"/>
</g>
<!-- v6 -->
<g id="v6_SmartLight" class="node"><title>v6</title>
<ellipse fill="none" stroke="black" cx="119" cy="-11" rx="43" ry="11"/>
<text text-anchor="middle" x="119" y="-8.8" font-family="sans-serif" font-size="9.00">SmartLight</text>
</g>
<!-- e6&#45;&gt;v6 -->
<g id="edge33" class="edge"><title>e6&#45;&gt;v6</title>
<path fill="none" stroke="green" d="M139,-68C139,-68 128.328,-38.1193 122.576,-22.0117"/>
</g>
<!-- e6&#45;&gt;v14 -->
<g id="edge34" class="edge"><title>e6&#45;&gt;v14</title>
<path fill="none" stroke="green" d="M139,-68C139,-68 301.023,-35.0061 376.339,-19.6691"/>
</g>
<!-- v12 -->
<g id="v12_SmartLight" class="node"><title>v12</title>
<ellipse fill="none" stroke="black" cx="752" cy="-11" rx="43" ry="11"/>
<text text-anchor="middle" x="752" y="-8.8" font-family="sans-serif" font-size="9.00">SmartLight</text>
</g>
<!-- e7&#45;&gt;v12 -->
<g id="edge36" class="edge"><title>e7&#45;&gt;v12</title>
<path fill="none" stroke="green" d="M580,-68C580,-68 587.739,-61.3874 595,-58 636.312,-38.727 687.535,-25.5393 720.002,-18.3822"/>
</g>
<!-- e7&#45;&gt;v14 -->
<g id="edge37" class="edge"><title>e7&#45;&gt;v14</title>
<path fill="none" stroke="green" d="M580,-68C580,-68 575.404,-61.2103 570,-58 535.044,-37.2323 490.054,-25.2736 457.379,-18.7848"/>
</g>
<!-- v13 -->
<g id="v13_Workstation" class="node"><title>v13</title>
<ellipse fill="none" stroke="black" cx="644" cy="-11" rx="47" ry="11"/>
<text text-anchor="middle" x="644" y="-8.8" font-family="sans-serif" font-size="9.00">Workstation</text>
</g>
<!-- e8&#45;&gt;v13 -->
<g id="edge39" class="edge"><title>e8&#45;&gt;v13</title>
<path fill="none" stroke="green" d="M561,-68C561,-68 565.415,-61.8386 570,-58 587.629,-43.2389 610.412,-29.7898 626.013,-21.2986"/>
</g>
<!-- e8&#45;&gt;v14 -->
<g id="edge40" class="edge"><title>e8&#45;&gt;v14</title>
<path fill="none" stroke="green" d="M561,-68C561,-68 479.599,-36.9903 437.945,-21.122"/>
</g>
<!-- e9&#45;&gt;v2 -->
<g id="edge42" class="edge"><title>e9&#45;&gt;v2</title>
<path fill="none" stroke="green" d="M802,-126C802,-126 831.327,-50.0168 842.095,-22.1167"/>
</g>
<!-- v9 -->
<g id="v9_Room" class="node"><title>v9</title>
<ellipse fill="none" stroke="black" cx="662" cy="-69" rx="21.5" ry="11"/>
<text text-anchor="middle" x="662" y="-66.8" font-family="sans-serif" font-size="9.00">Room</text>
</g>
<!-- e9&#45;&gt;v9 -->
<g id="edge43" class="edge"><title>e9&#45;&gt;v9</title>
<path fill="none" stroke="green" d="M802,-126C802,-126 714.833,-91.1333 678.06,-76.4239"/>
</g>
<!-- v1 -->
<g id="v1_Floor" class="node"><title>v1</title>
<ellipse fill="none" stroke="black" cx="700" cy="-185" rx="25" ry="11"/>
<text text-anchor="middle" x="700" y="-182.8" font-family="sans-serif" font-size="9.00">Floor</text>
</g>
<!-- v0&#45;&gt;v1 -->
<g id="edge2" class="edge"><title>v0&#45;&gt;v1</title>
<path fill="none" stroke="black" d="M531.444,-234.908C568.278,-224.22 637.654,-204.09 674.882,-193.288"/>
<polygon fill="black" stroke="black" points="680.133,-191.764 675.958,-195.319 677.732,-192.461 675.331,-193.158 675.331,-193.158 675.331,-193.158 677.732,-192.461 674.704,-190.997 680.133,-191.764 680.133,-191.764"/>
</g>
<!-- v0&#45;&gt;v14 -->
<g id="edge3" class="edge"><title>v0&#45;&gt;v14</title>
<path fill="none" stroke="black" d="M502.884,-231.82C488.088,-195.229 437.553,-70.2499 420.036,-26.9288"/>
<polygon fill="black" stroke="black" points="418.069,-22.062 422.029,-25.854 419.006,-24.3797 419.943,-26.6974 419.943,-26.6974 419.943,-26.6974 419.006,-24.3797 417.857,-27.5409 418.069,-22.062 418.069,-22.062"/>
</g>
<!-- v1&#45;&gt;v2 -->
<g id="edge4" class="edge"><title>v1&#45;&gt;v2</title>
<path fill="none" stroke="black" d="M708.058,-174.508C732.529,-145.678 806.049,-59.066 834.542,-25.4984"/>
<polygon fill="black" stroke="black" points="837.787,-21.6752 836.267,-26.9431 836.17,-23.5811 834.552,-25.4871 834.552,-25.4871 834.552,-25.4871 836.17,-23.5811 832.836,-24.031 837.787,-21.6752 837.787,-21.6752"/>
</g>
<!-- v1&#45;&gt;v3 -->
<g id="edge5" class="edge"><title>v1&#45;&gt;v3</title>
<path fill="none" stroke="black" d="M676.445,-181.223C596.305,-171.775 334.566,-140.917 250.938,-131.058"/>
<polygon fill="black" stroke="black" points="245.691,-130.439 250.92,-128.79 248.174,-130.732 250.657,-131.025 250.657,-131.025 250.657,-131.025 248.174,-130.732 250.393,-133.259 245.691,-130.439 245.691,-130.439"/>
</g>
<!-- v1&#45;&gt;v9 -->
<g id="edge6" class="edge"><title>v1&#45;&gt;v9</title>
<path fill="none" stroke="black" d="M696.628,-173.883C689.907,-153.72 674.815,-108.445 666.961,-84.8841"/>
<polygon fill="black" stroke="black" points="665.31,-79.9313 669.026,-83.9632 666.101,-82.303 666.892,-84.6747 666.892,-84.6747 666.892,-84.6747 666.101,-82.303 664.757,-85.3863 665.31,-79.9313 665.31,-79.9313"/>
</g>
<!-- v1&#45;&gt;v11 -->
<g id="edge7" class="edge"><title>v1&#45;&gt;v11</title>
<path fill="none" stroke="black" d="M702.041,-173.883C706.089,-153.822 715.152,-108.899 719.925,-85.2409"/>
<polygon fill="black" stroke="black" points="720.93,-80.2579 722.147,-85.6042 720.436,-82.7086 719.941,-85.1592 719.941,-85.1592 719.941,-85.1592 720.436,-82.7086 717.736,-84.7142 720.93,-80.2579 720.93,-80.2579"/>
</g>
<!-- v4 -->
<g id="v4_Visitor" class="node"><title>v4</title>
<ellipse fill="none" stroke="black" cx="83" cy="-69" rx="32.5" ry="11"/>
<text text-anchor="middle" x="83" y="-66.8" font-family="sans-serif" font-size="9.00">Visitor</text>
</g>
<!-- v3&#45;&gt;v4 -->
<g id="edge8" class="edge"><title>v3&#45;&gt;v4</title>
<path fill="none" stroke="black" d="M208.711,-119.576C183.919,-109.799 136.546,-91.1169 107.563,-79.687"/>
<polygon fill="black" stroke="black" points="102.726,-77.7792 108.203,-77.5205 105.052,-78.6964 107.377,-79.6136 107.377,-79.6136 107.377,-79.6136 105.052,-78.6964 106.552,-81.7067 102.726,-77.7792 102.726,-77.7792"/>
</g>
<!-- v3&#45;&gt;v6 -->
<g id="edge9" class="edge"><title>v3&#45;&gt;v6</title>
<path fill="none" stroke="black" d="M216.326,-116.671C197.629,-96.5634 153.465,-49.0661 131.648,-25.6022"/>
<polygon fill="black" stroke="black" points="128.095,-21.7812 133.147,-23.9108 129.797,-23.612 131.5,-25.4429 131.5,-25.4429 131.5,-25.4429 129.797,-23.612 129.852,-26.975 128.095,-21.7812 128.095,-21.7812"/>
</g>
<!-- v3&#45;&gt;v7 -->
<g id="edge10" class="edge"><title>v3&#45;&gt;v7</title>
<path fill="none" stroke="black" d="M231.906,-116.28C246.313,-96.0046 279.607,-49.1459 296.213,-25.774"/>
<polygon fill="black" stroke="black" points="299.111,-21.695 298.05,-27.0741 297.663,-23.7329 296.215,-25.7709 296.215,-25.7709 296.215,-25.7709 297.663,-23.7329 294.381,-24.4677 299.111,-21.695 299.111,-21.695"/>
</g>
<!-- v3&#45;&gt;v8 -->
<g id="edge11" class="edge"><title>v3&#45;&gt;v8</title>
<path fill="none" stroke="black" d="M224.556,-115.883C223.68,-95.9059 221.723,-51.276 220.682,-27.5402"/>
<polygon fill="black" stroke="black" points="220.45,-22.2579 222.917,-27.1545 220.559,-24.7555 220.669,-27.2531 220.669,-27.2531 220.669,-27.2531 220.559,-24.7555 218.421,-27.3518 220.45,-22.2579 220.45,-22.2579"/>
</g>
<!-- v4&#45;&gt;v5 -->
<g id="edge12" class="edge"><title>v4&#45;&gt;v5</title>
<path fill="none" stroke="black" d="M73.5939,-58.2455C64.8441,-49.1716 51.7279,-35.5697 41.9828,-25.4636"/>
<polygon fill="black" stroke="black" points="38.2983,-21.6427 43.3887,-23.6801 40.0336,-23.4423 41.769,-25.2419 41.769,-25.2419 41.769,-25.2419 40.0336,-23.4423 40.1493,-26.8037 38.2983,-21.6427 38.2983,-21.6427"/>
</g>
<!-- v9&#45;&gt;v10 -->
<g id="edge13" class="edge"><title>v9&#45;&gt;v10</title>
<path fill="none" stroke="black" d="M646.55,-61.1333C625.145,-51.62 586.232,-34.3254 560.751,-23.0005"/>
<polygon fill="black" stroke="black" points="556.157,-20.9586 561.64,-20.9332 558.441,-21.9739 560.726,-22.9893 560.726,-22.9893 560.726,-22.9893 558.441,-21.9739 559.812,-25.0454 556.157,-20.9586 556.157,-20.9586"/>
</g>
<!-- v11&#45;&gt;v12 -->
<g id="edge14" class="edge"><title>v11&#45;&gt;v12</title>
<path fill="none" stroke="black" d="M728.051,-58.2455C732.57,-49.5202 739.256,-36.6082 744.417,-26.6435"/>
<polygon fill="black" stroke="black" points="746.811,-22.0198 746.51,-27.4944 745.662,-24.2397 744.512,-26.4597 744.512,-26.4597 744.512,-26.4597 745.662,-24.2397 742.514,-25.425 746.811,-22.0198 746.811,-22.0198"/>
</g>
<!-- v11&#45;&gt;v13 -->
<g id="edge15" class="edge"><title>v11&#45;&gt;v13</title>
<path fill="none" stroke="black" d="M711.343,-59.737C698.24,-50.4485 676.819,-35.2641 661.659,-24.5176"/>
<polygon fill="black" stroke="black" points="657.561,-21.6128 662.941,-22.6688 659.6,-23.0586 661.64,-24.5044 661.64,-24.5044 661.64,-24.5044 659.6,-23.0586 660.339,-26.34 657.561,-21.6128 657.561,-21.6128"/>
</g>
</g>
</svg>
