<?xml version="1.0" encoding="UTF-8" standalone="no"?>
<?xml-stylesheet href="style.css" type="text/css"?>
<!DOCTYPE svg PUBLIC "-//W3C//DTD SVG 1.1//EN"
 "http://www.w3.org/Graphics/SVG/1.1/DTD/svg11.dtd">
<!-- Generated by graphviz version 2.38.0 (20140413.2041)
 -->
<!-- Title: 114.svg Pages: 1 -->
<svg width="1207pt" height="179pt"
 viewBox="0.00 0.00 1206.50 179.00" xmlns="http://www.w3.org/2000/svg" xmlns:xlink="http://www.w3.org/1999/xlink">
<g id="graph0" class="graph" transform="scale(1 1) rotate(0) translate(4 175)">
<title>114.svg</title>
<polygon fill="white" stroke="none" points="-4,4 -4,-175 1202.5,-175 1202.5,4 -4,4"/>
<!-- r0 -->
<g id="node1" class="node"><title>r0</title>
<polygon fill="none" stroke="black" stroke-dasharray="5,2" points="379.5,-171 356.5,-171 356.5,-153 379.5,-153 379.5,-171"/>
<text text-anchor="middle" x="368" y="-159.8" font-family="serif" font-size="9.00">0</text>
</g>
<!-- v8 -->
<g id="v8_Field" class="node"><title>v8</title>
<ellipse fill="none" stroke="black" cx="25" cy="-11" rx="25" ry="11"/>
<text text-anchor="middle" x="25" y="-8.8" font-family="sans-serif" font-size="9.00">Field</text>
</g>
<!-- r0&#45;&gt;v8 -->
<g id="edge1" class="edge"><title>r0&#45;&gt;v8</title>
<path fill="none" stroke="black" d="M356.252,-159.738C303.675,-153.847 90.6362,-127.326 47,-80 33.5162,-65.3759 28.2927,-42.4013 26.2717,-27.2695"/>
<polygon fill="black" stroke="black" points="25.6626,-22.0795 28.4801,-26.7832 25.9541,-24.5625 26.2455,-27.0454 26.2455,-27.0454 26.2455,-27.0454 25.9541,-24.5625 24.0108,-27.3077 25.6626,-22.0795 25.6626,-22.0795"/>
</g>
<!-- v9 -->
<g id="v9_Aura" class="node"><title>v9</title>
<ellipse fill="none" stroke="black" cx="368" cy="-69" rx="21.5" ry="11"/>
<text text-anchor="middle" x="368" y="-66.8" font-family="sans-serif" font-size="9.00">Aura</text>
</g>
<!-- r0&#45;&gt;v9 -->
<g id="edge2" class="edge"><title>r0&#45;&gt;v9</title>
<path fill="none" stroke="black" d="M368,-152.924C368,-137.736 368,-104.696 368,-85.2178"/>
<polygon fill="black" stroke="black" points="368,-80.1095 370.25,-85.1095 368,-82.6095 368,-85.1095 368,-85.1095 368,-85.1095 368,-82.6095 365.75,-85.1096 368,-80.1095 368,-80.1095"/>
</g>
<!-- v10 -->
<g id="v10_Aura" class="node"><title>v10</title>
<ellipse fill="none" stroke="black" cx="429" cy="-69" rx="21.5" ry="11"/>
<text text-anchor="middle" x="429" y="-66.8" font-family="sans-serif" font-size="9.00">Aura</text>
</g>
<!-- r0&#45;&gt;v10 -->
<g id="edge3" class="edge"><title>r0&#45;&gt;v10</title>
<path fill="none" stroke="black" d="M373.413,-152.924C383.789,-137.446 406.593,-103.427 419.537,-84.1163"/>
<polygon fill="black" stroke="black" points="422.602,-79.5439 421.687,-84.9499 421.21,-81.6205 419.818,-83.6971 419.818,-83.6971 419.818,-83.6971 421.21,-81.6205 417.949,-82.4443 422.602,-79.5439 422.602,-79.5439"/>
</g>
<!-- v11 -->
<g id="v11_Aura" class="node"><title>v11</title>
<ellipse fill="none" stroke="black" cx="529" cy="-69" rx="21.5" ry="11"/>
<text text-anchor="middle" x="529" y="-66.8" font-family="sans-serif" font-size="9.00">Aura</text>
</g>
<!-- r0&#45;&gt;v11 -->
<g id="edge4" class="edge"><title>r0&#45;&gt;v11</title>
<path fill="none" stroke="black" d="M379.725,-159.184C403.17,-155.087 456.692,-143.351 493,-117 504.83,-108.414 514.627,-94.8623 520.998,-84.5121"/>
<polygon fill="black" stroke="black" points="523.679,-80.0112 523.053,-85.4583 522.4,-82.159 521.12,-84.3068 521.12,-84.3068 521.12,-84.3068 522.4,-82.159 519.187,-83.1552 523.679,-80.0112 523.679,-80.0112"/>
</g>
<!-- v15 -->
<g id="v15_Aura" class="node"><title>v15</title>
<ellipse fill="none" stroke="black" cx="78" cy="-69" rx="21.5" ry="11"/>
<text text-anchor="middle" x="78" y="-66.8" font-family="sans-serif" font-size="9.00">Aura</text>
</g>
<!-- r0&#45;&gt;v15 -->
<g id="edge5" class="edge"><title>r0&#45;&gt;v15</title>
<path fill="none" stroke="black" d="M356.115,-160.55C321.46,-158.856 218.104,-151.082 141,-117 121.937,-108.574 103.196,-93.4722 91.1778,-82.6599"/>
<polygon fill="black" stroke="black" points="87.3691,-79.1734 92.5764,-80.8898 89.2131,-80.8614 91.0572,-82.5495 91.0572,-82.5495 91.0572,-82.5495 89.2131,-80.8614 89.5379,-84.2092 87.3691,-79.1734 87.3691,-79.1734"/>
</g>
<!-- r1 -->
<g id="node2" class="node"><title>r1</title>
<polygon fill="none" stroke="black" stroke-dasharray="5,2" points="590.5,-171 567.5,-171 567.5,-153 590.5,-153 590.5,-171"/>
<text text-anchor="middle" x="579" y="-159.8" font-family="serif" font-size="9.00">1</text>
</g>
<!-- v3 -->
<g id="v3_Locale" class="node"><title>v3</title>
<ellipse fill="none" stroke="black" cx="579" cy="-11" rx="29" ry="11"/>
<text text-anchor="middle" x="579" y="-8.8" font-family="sans-serif" font-size="9.00">Locale</text>
</g>
<!-- r1&#45;&gt;v3 -->
<g id="edge6" class="edge"><title>r1&#45;&gt;v3</title>
<path fill="none" stroke="black" d="M579,-152.989C579,-129.218 579,-58.7895 579,-27.3986"/>
<polygon fill="black" stroke="black" points="579,-22.3591 581.25,-27.359 579,-24.8591 579,-27.3591 579,-27.3591 579,-27.3591 579,-24.8591 576.75,-27.3591 579,-22.3591 579,-22.3591"/>
</g>
<!-- v4 -->
<g id="v4_Locale" class="node"><title>v4</title>
<ellipse fill="none" stroke="black" cx="223" cy="-69" rx="29" ry="11"/>
<text text-anchor="middle" x="223" y="-66.8" font-family="sans-serif" font-size="9.00">Locale</text>
</g>
<!-- r1&#45;&gt;v4 -->
<g id="edge7" class="edge"><title>r1&#45;&gt;v4</title>
<path fill="none" stroke="black" d="M567.314,-160.222C530.174,-157.499 411.821,-146.883 319,-117 290.991,-107.983 260.85,-92.105 241.963,-81.3245"/>
<polygon fill="black" stroke="black" points="237.411,-78.7008 242.867,-79.2487 239.577,-79.9494 241.743,-81.198 241.743,-81.198 241.743,-81.198 239.577,-79.9494 240.619,-83.1473 237.411,-78.7008 237.411,-78.7008"/>
</g>
<!-- v18 -->
<g id="v18_Locale" class="node"><title>v18</title>
<ellipse fill="none" stroke="black" cx="750" cy="-69" rx="29" ry="11"/>
<text text-anchor="middle" x="750" y="-66.8" font-family="sans-serif" font-size="9.00">Locale</text>
</g>
<!-- r1&#45;&gt;v18 -->
<g id="edge8" class="edge"><title>r1&#45;&gt;v18</title>
<path fill="none" stroke="black" d="M590.754,-154.745C619.495,-139.45 693.607,-100.01 729.677,-80.8151"/>
<polygon fill="black" stroke="black" points="734.298,-78.3561 730.941,-82.6913 732.091,-79.5306 729.884,-80.7051 729.884,-80.7051 729.884,-80.7051 732.091,-79.5306 728.827,-78.7188 734.298,-78.3561 734.298,-78.3561"/>
</g>
<!-- r2 -->
<g id="node3" class="node"><title>r2</title>
<polygon fill="none" stroke="black" stroke-dasharray="5,2" points="1039.5,-171 1016.5,-171 1016.5,-153 1039.5,-153 1039.5,-171"/>
<text text-anchor="middle" x="1028" y="-159.8" font-family="serif" font-size="9.00">2</text>
</g>
<!-- v0 -->
<g id="v0_Area(2)" class="node"><title>v0</title>
<ellipse fill="none" stroke="black" cx="1166" cy="-11" rx="32.5" ry="11"/>
<text text-anchor="middle" x="1166" y="-8.8" font-family="sans-serif" font-size="9.00">Area(2)</text>
</g>
<!-- r2&#45;&gt;v0 -->
<g id="edge9" class="edge"><title>r2&#45;&gt;v0</title>
<path fill="none" stroke="black" d="M1035.42,-152.989C1057.82,-128.808 1124.93,-56.3438 1153.21,-25.8081"/>
<polygon fill="black" stroke="black" points="1156.78,-21.9569 1155.03,-27.1541 1155.08,-23.791 1153.38,-25.6252 1153.38,-25.6252 1153.38,-25.6252 1155.08,-23.791 1151.73,-24.0963 1156.78,-21.9569 1156.78,-21.9569"/>
</g>
<!-- v1 -->
<g id="v1_Area(0)" class="node"><title>v1</title>
<ellipse fill="none" stroke="black" cx="906" cy="-69" rx="32.5" ry="11"/>
<text text-anchor="middle" x="906" y="-66.8" font-family="sans-serif" font-size="9.00">Area(0)</text>
</g>
<!-- r2&#45;&gt;v1 -->
<g id="edge10" class="edge"><title>r2&#45;&gt;v1</title>
<path fill="none" stroke="black" d="M1017.17,-152.924C995.784,-136.97 947.987,-101.319 922.595,-82.3783"/>
<polygon fill="black" stroke="black" points="918.423,-79.266 923.776,-80.4519 920.426,-80.7607 922.43,-82.2555 922.43,-82.2555 922.43,-82.2555 920.426,-80.7607 921.085,-84.059 918.423,-79.266 918.423,-79.266"/>
</g>
<!-- v22 -->
<g id="v22_Area(1)" class="node"><title>v22</title>
<ellipse fill="none" stroke="black" cx="1028" cy="-69" rx="32.5" ry="11"/>
<text text-anchor="middle" x="1028" y="-66.8" font-family="sans-serif" font-size="9.00">Area(1)</text>
</g>
<!-- r2&#45;&gt;v22 -->
<g id="edge11" class="edge"><title>r2&#45;&gt;v22</title>
<path fill="none" stroke="black" d="M1028,-152.924C1028,-137.736 1028,-104.696 1028,-85.2178"/>
<polygon fill="black" stroke="black" points="1028,-80.1095 1030.25,-85.1095 1028,-82.6095 1028,-85.1095 1028,-85.1095 1028,-85.1095 1028,-82.6095 1025.75,-85.1096 1028,-80.1095 1028,-80.1095"/>
</g>
<!-- e2 -->
<g id="node4" class="node"><title>e2</title>
</g>
<!-- v2 -->
<g id="v2_GPS(8)" class="node"><title>v2</title>
<ellipse fill="none" stroke="black" cx="720" cy="-11" rx="29" ry="11"/>
<text text-anchor="middle" x="720" y="-8.8" font-family="sans-serif" font-size="9.00">GPS(8)</text>
</g>
<!-- e2&#45;&gt;v2 -->
<g id="edge34" class="edge"><title>e2&#45;&gt;v2</title>
<path fill="none" stroke="green" d="M151,-116C151,-116 470.673,-101.973 559,-80 614.945,-66.0826 676.532,-35.3666 704.57,-20.4537"/>
</g>
<!-- v5 -->
<g id="v5_Lion" class="node"><title>v5</title>
<ellipse fill="none" stroke="black" cx="158" cy="-11" rx="21.5" ry="11"/>
<text text-anchor="middle" x="158" y="-8.8" font-family="sans-serif" font-size="9.00">Lion</text>
</g>
<!-- e2&#45;&gt;v5 -->
<g id="edge35" class="edge"><title>e2&#45;&gt;v5</title>
<path fill="none" stroke="green" d="M151,-116C151,-116 155.533,-48.6577 157.303,-22.3521"/>
</g>
<!-- e2&#45;&gt;v15 -->
<g id="edge36" class="edge"><title>e2&#45;&gt;v15</title>
<path fill="none" stroke="green" d="M151,-116C151,-116 111.631,-91.1919 90.7156,-78.0126"/>
</g>
<!-- v16 -->
<g id="v16_Child" class="node"><title>v16</title>
<ellipse fill="none" stroke="black" cx="93" cy="-11" rx="25" ry="11"/>
<text text-anchor="middle" x="93" y="-8.8" font-family="sans-serif" font-size="9.00">Child</text>
</g>
<!-- e2&#45;&gt;v16 -->
<g id="edge37" class="edge"><title>e2&#45;&gt;v16</title>
<path fill="none" stroke="green" d="M151,-116C151,-116 113.078,-48.0023 98.5613,-21.972"/>
</g>
<!-- e3 -->
<g id="node5" class="node"><title>e3</title>
</g>
<!-- v6 -->
<g id="v6_GPS(6)" class="node"><title>v6</title>
<ellipse fill="none" stroke="black" cx="858" cy="-11" rx="29" ry="11"/>
<text text-anchor="middle" x="858" y="-8.8" font-family="sans-serif" font-size="9.00">GPS(6)</text>
</g>
<!-- e3&#45;&gt;v6 -->
<g id="edge38" class="edge"><title>e3&#45;&gt;v6</title>
<path fill="none" stroke="green" d="M329,-116C329,-116 694.771,-122.148 788,-80 816.407,-67.1576 840.141,-37.6473 851.244,-22.0635"/>
</g>
<!-- v7 -->
<g id="v7_Lion" class="node"><title>v7</title>
<ellipse fill="none" stroke="black" cx="296" cy="-11" rx="21.5" ry="11"/>
<text text-anchor="middle" x="296" y="-8.8" font-family="sans-serif" font-size="9.00">Lion</text>
</g>
<!-- e3&#45;&gt;v7 -->
<g id="edge39" class="edge"><title>e3&#45;&gt;v7</title>
<path fill="none" stroke="green" d="M329,-116C329,-116 310.9,-98.2168 304,-80 296.59,-60.4352 295.587,-35.6314 295.685,-22.0396"/>
</g>
<!-- e3&#45;&gt;v9 -->
<g id="edge40" class="edge"><title>e3&#45;&gt;v9</title>
<path fill="none" stroke="green" d="M329,-116C329,-116 348.712,-92.7501 360.108,-79.3088"/>
</g>
<!-- v12 -->
<g id="v12_Child" class="node"><title>v12</title>
<ellipse fill="none" stroke="black" cx="368" cy="-11" rx="25" ry="11"/>
<text text-anchor="middle" x="368" y="-8.8" font-family="sans-serif" font-size="9.00">Child</text>
</g>
<!-- e3&#45;&gt;v12 -->
<g id="edge41" class="edge"><title>e3&#45;&gt;v12</title>
<path fill="none" stroke="green" d="M329,-116C329,-116 327.711,-82.3073 337,-58 342.294,-44.1465 352.437,-30.3141 359.679,-21.4907"/>
</g>
<!-- e4 -->
<g id="node6" class="node"><title>e4</title>
</g>
<!-- e4&#45;&gt;v10 -->
<g id="edge42" class="edge"><title>e4&#45;&gt;v10</title>
<path fill="none" stroke="green" d="M484,-116C484,-116 455.277,-91.9773 439.345,-78.6522"/>
</g>
<!-- v13 -->
<g id="v13_Child" class="node"><title>v13</title>
<ellipse fill="none" stroke="black" cx="437" cy="-11" rx="25" ry="11"/>
<text text-anchor="middle" x="437" y="-8.8" font-family="sans-serif" font-size="9.00">Child</text>
</g>
<!-- e4&#45;&gt;v13 -->
<g id="edge43" class="edge"><title>e4&#45;&gt;v13</title>
<path fill="none" stroke="green" d="M484,-116C484,-116 470.613,-83.5554 459,-58 453.287,-45.4275 446.367,-31.0962 441.833,-21.8183"/>
</g>
<!-- v19 -->
<g id="v19_Lion" class="node"><title>v19</title>
<ellipse fill="none" stroke="black" cx="651" cy="-11" rx="21.5" ry="11"/>
<text text-anchor="middle" x="651" y="-8.8" font-family="sans-serif" font-size="9.00">Lion</text>
</g>
<!-- e4&#45;&gt;v19 -->
<g id="edge44" class="edge"><title>e4&#45;&gt;v19</title>
<path fill="none" stroke="green" d="M484,-116C484,-116 527.325,-99.0737 559,-80 590.137,-61.2501 623.77,-34.5586 640.419,-20.8607"/>
</g>
<!-- v23 -->
<g id="v23_GPS(2)" class="node"><title>v23</title>
<ellipse fill="none" stroke="black" cx="1010" cy="-11" rx="29" ry="11"/>
<text text-anchor="middle" x="1010" y="-8.8" font-family="sans-serif" font-size="9.00">GPS(2)</text>
</g>
<!-- e4&#45;&gt;v23 -->
<g id="edge45" class="edge"><title>e4&#45;&gt;v23</title>
<path fill="none" stroke="green" d="M484,-116C484,-116 900.55,-102.471 947,-80 973.657,-67.1045 994.54,-37.6174 1004.18,-22.0509"/>
</g>
<!-- e5 -->
<g id="node7" class="node"><title>e5</title>
</g>
<!-- e5&#45;&gt;v11 -->
<g id="edge46" class="edge"><title>e5&#45;&gt;v11</title>
<path fill="none" stroke="green" d="M643,-116C643,-116 576.855,-89.3101 545.333,-76.5907"/>
</g>
<!-- v14 -->
<g id="v14_Child" class="node"><title>v14</title>
<ellipse fill="none" stroke="black" cx="506" cy="-11" rx="25" ry="11"/>
<text text-anchor="middle" x="506" y="-8.8" font-family="sans-serif" font-size="9.00">Child</text>
</g>
<!-- e5&#45;&gt;v14 -->
<g id="edge47" class="edge"><title>e5&#45;&gt;v14</title>
<path fill="none" stroke="green" d="M643,-116C643,-116 550.811,-46.0171 517.681,-20.867"/>
</g>
<!-- v20 -->
<g id="v20_Lion" class="node"><title>v20</title>
<ellipse fill="none" stroke="black" cx="789" cy="-11" rx="21.5" ry="11"/>
<text text-anchor="middle" x="789" y="-8.8" font-family="sans-serif" font-size="9.00">Lion</text>
</g>
<!-- e5&#45;&gt;v20 -->
<g id="edge48" class="edge"><title>e5&#45;&gt;v20</title>
<path fill="none" stroke="green" d="M643,-116C643,-116 767.355,-106.001 788,-80 801.215,-63.3562 796.341,-36.4996 792.282,-22.0203"/>
</g>
<!-- v24 -->
<g id="v24_GPS(3)" class="node"><title>v24</title>
<ellipse fill="none" stroke="black" cx="1086" cy="-11" rx="29" ry="11"/>
<text text-anchor="middle" x="1086" y="-8.8" font-family="sans-serif" font-size="9.00">GPS(3)</text>
</g>
<!-- e5&#45;&gt;v24 -->
<g id="edge49" class="edge"><title>e5&#45;&gt;v24</title>
<path fill="none" stroke="green" d="M643,-116C643,-116 1032.82,-110.785 1069,-80 1085.87,-65.6467 1087.34,-37.3326 1086.79,-22.1629"/>
</g>
<!-- v0&#45;&gt;v3 -->
<g id="edge32" class="edge"><title>v0&#45;&gt;v3</title>
<path fill="none" stroke="green" d="M1152.57,-21.2214C1142.75,-28.0232 1128.79,-36.3546 1115,-40 1062.79,-53.8049 681.146,-54.028 629,-40 615.24,-36.2983 601.361,-27.7805 591.729,-20.9284"/>
</g>
<!-- v1&#45;&gt;v2 -->
<g id="edge12" class="edge"><title>v1&#45;&gt;v2</title>
<path fill="none" stroke="black" d="M883.193,-61.1333C848.705,-50.75 783.429,-31.097 746.75,-20.0536"/>
<polygon fill="black" stroke="black" points="741.552,-18.4889 746.989,-17.776 743.946,-19.2097 746.34,-19.9304 746.34,-19.9304 746.34,-19.9304 743.946,-19.2097 745.691,-22.0849 741.552,-18.4889 741.552,-18.4889"/>
</g>
<!-- v1&#45;&gt;v4 -->
<g id="edge33" class="edge"><title>v1&#45;&gt;v4</title>
<path fill="none" stroke="green" d="M891.562,-78.9418C880.683,-85.8006 865.105,-94.3208 850,-98 741.181,-124.505 457.25,-110.938 346,-98 310.478,-93.869 270.325,-83.2417 245.84,-76.0654"/>
</g>
<!-- v1&#45;&gt;v6 -->
<g id="edge13" class="edge"><title>v1&#45;&gt;v6</title>
<path fill="none" stroke="black" d="M897.639,-58.2455C889.861,-49.1716 878.203,-35.5697 869.54,-25.4636"/>
<polygon fill="black" stroke="black" points="866.265,-21.6427 871.227,-23.9747 867.892,-23.5408 869.519,-25.439 869.519,-25.439 869.519,-25.439 867.892,-23.5408 867.811,-26.9033 866.265,-21.6427 866.265,-21.6427"/>
</g>
<!-- v21 -->
<g id="v21_GPS(0)" class="node"><title>v21</title>
<ellipse fill="none" stroke="black" cx="934" cy="-11" rx="29" ry="11"/>
<text text-anchor="middle" x="934" y="-8.8" font-family="sans-serif" font-size="9.00">GPS(0)</text>
</g>
<!-- v1&#45;&gt;v21 -->
<g id="edge14" class="edge"><title>v1&#45;&gt;v21</title>
<path fill="none" stroke="black" d="M911.006,-57.9883C915.386,-49.2286 921.802,-36.3956 926.745,-26.5103"/>
<polygon fill="black" stroke="black" points="929.037,-21.925 928.814,-27.4034 927.919,-24.1611 926.801,-26.3971 926.801,-26.3971 926.801,-26.3971 927.919,-24.1611 924.789,-25.3909 929.037,-21.925 929.037,-21.925"/>
</g>
<!-- v4&#45;&gt;v5 -->
<g id="edge15" class="edge"><title>v4&#45;&gt;v5</title>
<path fill="none" stroke="black" d="M212.267,-58.7527C201.381,-49.3748 184.468,-34.8028 172.418,-24.4216"/>
<polygon fill="black" stroke="black" points="168.534,-21.0752 173.79,-22.6341 170.428,-22.707 172.322,-24.3388 172.322,-24.3388 172.322,-24.3388 170.428,-22.707 170.853,-26.0434 168.534,-21.0752 168.534,-21.0752"/>
</g>
<!-- v4&#45;&gt;v7 -->
<g id="edge16" class="edge"><title>v4&#45;&gt;v7</title>
<path fill="none" stroke="black" d="M235.054,-58.7527C247.532,-49.1807 267.064,-34.1972 280.641,-23.7822"/>
<polygon fill="black" stroke="black" points="284.649,-20.7077 282.051,-25.5363 282.665,-22.2294 280.682,-23.7511 280.682,-23.7511 280.682,-23.7511 282.665,-22.2294 279.312,-21.9658 284.649,-20.7077 284.649,-20.7077"/>
</g>
<!-- v17 -->
<g id="v17_Impala" class="node"><title>v17</title>
<ellipse fill="none" stroke="black" cx="227" cy="-11" rx="29" ry="11"/>
<text text-anchor="middle" x="227" y="-8.8" font-family="sans-serif" font-size="9.00">Impala</text>
</g>
<!-- v4&#45;&gt;v17 -->
<g id="edge17" class="edge"><title>v4&#45;&gt;v17</title>
<path fill="none" stroke="black" d="M223.715,-57.9883C224.322,-49.4941 225.202,-37.1697 225.899,-27.4169"/>
<polygon fill="black" stroke="black" points="226.264,-22.3039 228.152,-27.4515 226.086,-24.7975 225.908,-27.2912 225.908,-27.2912 225.908,-27.2912 226.086,-24.7975 223.663,-27.1308 226.264,-22.3039 226.264,-22.3039"/>
</g>
<!-- v9&#45;&gt;v12 -->
<g id="edge18" class="edge"><title>v9&#45;&gt;v12</title>
<path fill="none" stroke="black" d="M368,-57.9883C368,-49.4941 368,-37.1697 368,-27.4169"/>
<polygon fill="black" stroke="black" points="368,-22.3039 370.25,-27.3038 368,-24.8039 368,-27.3039 368,-27.3039 368,-27.3039 368,-24.8039 365.75,-27.3039 368,-22.3039 368,-22.3039"/>
</g>
<!-- v9&#45;&gt;v13 -->
<g id="edge19" class="edge"><title>v9&#45;&gt;v13</title>
<path fill="none" stroke="black" d="M378.781,-59.25C390.223,-49.9638 408.411,-35.2025 421.413,-24.6504"/>
<polygon fill="black" stroke="black" points="425.606,-21.2473 423.142,-26.1452 423.665,-22.8227 421.724,-24.3981 421.724,-24.3981 421.724,-24.3981 423.665,-22.8227 420.306,-22.6511 425.606,-21.2473 425.606,-21.2473"/>
</g>
<!-- v9&#45;&gt;v14 -->
<g id="edge20" class="edge"><title>v9&#45;&gt;v14</title>
<path fill="none" stroke="black" d="M384.1,-61.4665C408.732,-51.4711 455.84,-32.3547 483.731,-21.0367"/>
<polygon fill="black" stroke="black" points="488.706,-19.0181 484.919,-22.9831 486.389,-19.9581 484.072,-20.8982 484.072,-20.8982 484.072,-20.8982 486.389,-19.9581 483.226,-18.8133 488.706,-19.0181 488.706,-19.0181"/>
</g>
<!-- v10&#45;&gt;v12 -->
<g id="edge21" class="edge"><title>v10&#45;&gt;v12</title>
<path fill="none" stroke="black" d="M419.199,-59.0026C409.121,-49.7505 393.334,-35.2571 381.954,-24.8098"/>
<polygon fill="black" stroke="black" points="377.979,-21.1611 383.184,-22.885 379.821,-22.8518 381.662,-24.5425 381.662,-24.5425 381.662,-24.5425 379.821,-22.8518 380.141,-26.1999 377.979,-21.1611 377.979,-21.1611"/>
</g>
<!-- v10&#45;&gt;v13 -->
<g id="edge22" class="edge"><title>v10&#45;&gt;v13</title>
<path fill="none" stroke="black" d="M430.43,-57.9883C431.644,-49.4941 433.404,-37.1697 434.798,-27.4169"/>
<polygon fill="black" stroke="black" points="435.528,-22.3039 437.048,-27.5719 435.174,-24.7787 434.821,-27.2536 434.821,-27.2536 434.821,-27.2536 435.174,-24.7787 432.593,-26.9354 435.528,-22.3039 435.528,-22.3039"/>
</g>
<!-- v10&#45;&gt;v14 -->
<g id="edge23" class="edge"><title>v10&#45;&gt;v14</title>
<path fill="none" stroke="black" d="M440.695,-59.4948C453.734,-50.0115 474.918,-34.6054 489.607,-23.9222"/>
<polygon fill="black" stroke="black" points="493.941,-20.7702 491.221,-25.5308 491.919,-22.2406 489.897,-23.7111 489.897,-23.7111 489.897,-23.7111 491.919,-22.2406 488.574,-21.8914 493.941,-20.7702 493.941,-20.7702"/>
</g>
<!-- v11&#45;&gt;v12 -->
<g id="edge24" class="edge"><title>v11&#45;&gt;v12</title>
<path fill="none" stroke="black" d="M512.074,-62.1129C483.26,-52.0904 424.608,-31.6898 391.719,-20.2501"/>
<polygon fill="black" stroke="black" points="386.67,-18.494 392.132,-18.0116 389.032,-19.3154 391.393,-20.1367 391.393,-20.1367 391.393,-20.1367 389.032,-19.3154 390.654,-22.2618 386.67,-18.494 386.67,-18.494"/>
</g>
<!-- v11&#45;&gt;v13 -->
<g id="edge25" class="edge"><title>v11&#45;&gt;v13</title>
<path fill="none" stroke="black" d="M515.819,-59.9766C499.879,-50.2742 472.969,-33.8944 455.095,-23.0145"/>
<polygon fill="black" stroke="black" points="450.758,-20.3743 456.199,-21.0521 452.893,-21.6742 455.029,-22.9741 455.029,-22.9741 455.029,-22.9741 452.893,-21.6742 453.859,-24.896 450.758,-20.3743 450.758,-20.3743"/>
</g>
<!-- v11&#45;&gt;v14 -->
<g id="edge26" class="edge"><title>v11&#45;&gt;v14</title>
<path fill="none" stroke="black" d="M524.888,-57.9883C521.323,-49.3083 516.115,-36.6286 512.071,-26.7806"/>
<polygon fill="black" stroke="black" points="510.076,-21.925 514.057,-25.6953 511.026,-24.2376 511.976,-26.5501 511.976,-26.5501 511.976,-26.5501 511.026,-24.2376 509.895,-27.405 510.076,-21.925 510.076,-21.925"/>
</g>
<!-- v15&#45;&gt;v16 -->
<g id="edge27" class="edge"><title>v15&#45;&gt;v16</title>
<path fill="none" stroke="black" d="M80.6817,-57.9883C82.978,-49.4154 86.3193,-36.9411 88.9429,-27.1466"/>
<polygon fill="black" stroke="black" points="90.24,-22.3039 91.1197,-27.7158 89.5932,-24.7187 88.9463,-27.1336 88.9463,-27.1336 88.9463,-27.1336 89.5932,-24.7187 86.7729,-26.5514 90.24,-22.3039 90.24,-22.3039"/>
</g>
<!-- v17&#45;&gt;v21 -->
<g id="edge50" class="edge"><title>v17&#45;&gt;v21</title>
<path fill="none" stroke="green" d="M239.251,-21.2104C248.241,-28.007 261.086,-36.3366 274,-40 339.526,-58.5885 821.474,-58.5885 887,-40 899.914,-36.3366 912.759,-28.007 921.749,-21.2104"/>
</g>
<!-- v18&#45;&gt;v19 -->
<g id="edge28" class="edge"><title>v18&#45;&gt;v19</title>
<path fill="none" stroke="black" d="M734.964,-59.4948C717.312,-49.5096 688.05,-32.9578 669.151,-22.267"/>
<polygon fill="black" stroke="black" points="664.582,-19.6829 670.042,-20.1862 666.758,-20.9138 668.934,-22.1446 668.934,-22.1446 668.934,-22.1446 666.758,-20.9138 667.826,-24.1031 664.582,-19.6829 664.582,-19.6829"/>
</g>
<!-- v18&#45;&gt;v20 -->
<g id="edge29" class="edge"><title>v18&#45;&gt;v20</title>
<path fill="none" stroke="black" d="M756.793,-58.2455C763.001,-49.3322 772.251,-36.0497 779.248,-26.0035"/>
<polygon fill="black" stroke="black" points="782.285,-21.6427 781.273,-27.0316 780.856,-23.6942 779.427,-25.7457 779.427,-25.7457 779.427,-25.7457 780.856,-23.6942 777.581,-24.4598 782.285,-21.6427 782.285,-21.6427"/>
</g>
<!-- v18&#45;&gt;v22 -->
<g id="edge51" class="edge"><title>v18&#45;&gt;v22</title>
<path fill="none" stroke="green" d="M770.782,-76.736C810.409,-90.3867 899.302,-115.707 972,-98 987.105,-94.3208 1002.68,-85.8006 1013.56,-78.9418"/>
</g>
<!-- v22&#45;&gt;v23 -->
<g id="edge30" class="edge"><title>v22&#45;&gt;v23</title>
<path fill="none" stroke="black" d="M1024.78,-57.9883C1022.03,-49.4154 1018.02,-36.9411 1014.87,-27.1466"/>
<polygon fill="black" stroke="black" points="1013.31,-22.3039 1016.98,-26.3755 1014.08,-24.6839 1014.84,-27.064 1014.84,-27.064 1014.84,-27.064 1014.08,-24.6839 1012.7,-27.7526 1013.31,-22.3039 1013.31,-22.3039"/>
</g>
<!-- v22&#45;&gt;v24 -->
<g id="edge31" class="edge"><title>v22&#45;&gt;v24</title>
<path fill="none" stroke="black" d="M1037.84,-58.5004C1047.28,-49.3846 1061.63,-35.5334 1072.21,-25.318"/>
<polygon fill="black" stroke="black" points="1075.92,-21.7345 1073.88,-26.8261 1074.12,-23.471 1072.32,-25.2075 1072.32,-25.2075 1072.32,-25.2075 1074.12,-23.471 1070.76,-23.5888 1075.92,-21.7345 1075.92,-21.7345"/>
</g>
</g>
</svg>
