<?xml version="1.0" encoding="UTF-8" standalone="no"?>
<?xml-stylesheet href="style.css" type="text/css"?>
<!DOCTYPE svg PUBLIC "-//W3C//DTD SVG 1.1//EN"
 "http://www.w3.org/Graphics/SVG/1.1/DTD/svg11.dtd">
<!-- Generated by graphviz version 2.38.0 (20140413.2041)
 -->
<!-- Title: 21.svg Pages: 1 -->
<svg width="1225pt" height="179pt"
 viewBox="0.00 0.00 1225.00 179.00" xmlns="http://www.w3.org/2000/svg" xmlns:xlink="http://www.w3.org/1999/xlink">
<g id="graph0" class="graph" transform="scale(1 1) rotate(0) translate(4 175)">
<title>21.svg</title>
<polygon fill="white" stroke="none" points="-4,4 -4,-175 1221,-175 1221,4 -4,4"/>
<!-- r0 -->
<g id="node1" class="node"><title>r0</title>
<polygon fill="none" stroke="black" stroke-dasharray="5,2" points="185.5,-171 162.5,-171 162.5,-153 185.5,-153 185.5,-171"/>
<text text-anchor="middle" x="174" y="-159.8" font-family="serif" font-size="9.00">0</text>
</g>
<!-- v6 -->
<g id="v6_Field" class="node"><title>v6</title>
<ellipse fill="none" stroke="black" cx="25" cy="-11" rx="25" ry="11"/>
<text text-anchor="middle" x="25" y="-8.8" font-family="sans-serif" font-size="9.00">Field</text>
</g>
<!-- r0&#45;&gt;v6 -->
<g id="edge1" class="edge"><title>r0&#45;&gt;v6</title>
<path fill="none" stroke="black" d="M162.222,-152.862C142.816,-139.14 103.443,-109.953 75,-80 58.8635,-63.0068 43.3756,-40.7082 34.0231,-26.3641"/>
<polygon fill="black" stroke="black" points="31.0945,-21.8237 35.6956,-24.8059 32.4496,-23.9246 33.8047,-26.0255 33.8047,-26.0255 33.8047,-26.0255 32.4496,-23.9246 31.9139,-27.2451 31.0945,-21.8237 31.0945,-21.8237"/>
</g>
<!-- v7 -->
<g id="v7_Aura" class="node"><title>v7</title>
<ellipse fill="none" stroke="black" cx="113" cy="-69" rx="21.5" ry="11"/>
<text text-anchor="middle" x="113" y="-66.8" font-family="sans-serif" font-size="9.00">Aura</text>
</g>
<!-- r0&#45;&gt;v7 -->
<g id="edge2" class="edge"><title>r0&#45;&gt;v7</title>
<path fill="none" stroke="black" d="M165.157,-152.911C156.404,-144.557 143.038,-130.826 134,-117 127.42,-106.935 121.956,-94.4673 118.252,-84.9025"/>
<polygon fill="black" stroke="black" points="116.479,-80.1934 120.347,-84.08 117.36,-82.5331 118.241,-84.8728 118.241,-84.8728 118.241,-84.8728 117.36,-82.5331 116.135,-85.6656 116.479,-80.1934 116.479,-80.1934"/>
</g>
<!-- v8 -->
<g id="v8_Aura" class="node"><title>v8</title>
<ellipse fill="none" stroke="black" cx="235" cy="-69" rx="21.5" ry="11"/>
<text text-anchor="middle" x="235" y="-66.8" font-family="sans-serif" font-size="9.00">Aura</text>
</g>
<!-- r0&#45;&gt;v8 -->
<g id="edge3" class="edge"><title>r0&#45;&gt;v8</title>
<path fill="none" stroke="black" d="M179.413,-152.924C189.789,-137.446 212.593,-103.427 225.537,-84.1163"/>
<polygon fill="black" stroke="black" points="228.602,-79.5439 227.687,-84.9499 227.21,-81.6205 225.818,-83.6971 225.818,-83.6971 225.818,-83.6971 227.21,-81.6205 223.949,-82.4443 228.602,-79.5439 228.602,-79.5439"/>
</g>
<!-- v9 -->
<g id="v9_Aura" class="node"><title>v9</title>
<ellipse fill="none" stroke="black" cx="174" cy="-69" rx="21.5" ry="11"/>
<text text-anchor="middle" x="174" y="-66.8" font-family="sans-serif" font-size="9.00">Aura</text>
</g>
<!-- r0&#45;&gt;v9 -->
<g id="edge4" class="edge"><title>r0&#45;&gt;v9</title>
<path fill="none" stroke="black" d="M174,-152.924C174,-137.736 174,-104.696 174,-85.2178"/>
<polygon fill="black" stroke="black" points="174,-80.1095 176.25,-85.1095 174,-82.6095 174,-85.1095 174,-85.1095 174,-85.1095 174,-82.6095 171.75,-85.1096 174,-80.1095 174,-80.1095"/>
</g>
<!-- v13 -->
<g id="v13_Aura" class="node"><title>v13</title>
<ellipse fill="none" stroke="black" cx="1005" cy="-69" rx="21.5" ry="11"/>
<text text-anchor="middle" x="1005" y="-66.8" font-family="sans-serif" font-size="9.00">Aura</text>
</g>
<!-- r0&#45;&gt;v13 -->
<g id="edge5" class="edge"><title>r0&#45;&gt;v13</title>
<path fill="none" stroke="black" d="M185.778,-160.55C258.475,-157.621 653.382,-139.47 969,-80 973.398,-79.1712 978.041,-78.0628 982.477,-76.8855"/>
<polygon fill="black" stroke="black" points="987.562,-75.4847 983.339,-78.9819 985.152,-76.1487 982.741,-76.8127 982.741,-76.8127 982.741,-76.8127 985.152,-76.1487 982.144,-74.6435 987.562,-75.4847 987.562,-75.4847"/>
</g>
<!-- r1 -->
<g id="node2" class="node"><title>r1</title>
<polygon fill="none" stroke="black" stroke-dasharray="5,2" points="909.5,-171 886.5,-171 886.5,-153 909.5,-153 909.5,-171"/>
<text text-anchor="middle" x="898" y="-159.8" font-family="serif" font-size="9.00">1</text>
</g>
<!-- v3 -->
<g id="v3_Locale" class="node"><title>v3</title>
<ellipse fill="none" stroke="black" cx="738" cy="-69" rx="29" ry="11"/>
<text text-anchor="middle" x="738" y="-66.8" font-family="sans-serif" font-size="9.00">Locale</text>
</g>
<!-- r1&#45;&gt;v3 -->
<g id="edge6" class="edge"><title>r1&#45;&gt;v3</title>
<path fill="none" stroke="black" d="M886.493,-154.456C859.449,-139.074 791.581,-100.474 757.775,-81.2471"/>
<polygon fill="black" stroke="black" points="753.043,-78.5559 758.502,-79.0721 755.217,-79.7919 757.39,-81.0279 757.39,-81.0279 757.39,-81.0279 755.217,-79.7919 756.277,-82.9837 753.043,-78.5559 753.043,-78.5559"/>
</g>
<!-- v4 -->
<g id="v4_Locale" class="node"><title>v4</title>
<ellipse fill="none" stroke="black" cx="1188" cy="-69" rx="29" ry="11"/>
<text text-anchor="middle" x="1188" y="-66.8" font-family="sans-serif" font-size="9.00">Locale</text>
</g>
<!-- r1&#45;&gt;v4 -->
<g id="edge7" class="edge"><title>r1&#45;&gt;v4</title>
<path fill="none" stroke="black" d="M909.538,-159.069C939.072,-153.956 1019.61,-138.938 1084,-117 1113.99,-106.782 1147.09,-90.9912 1167.72,-80.5762"/>
<polygon fill="black" stroke="black" points="1172.18,-78.3101 1168.74,-82.5814 1169.95,-79.4428 1167.72,-80.5755 1167.72,-80.5755 1167.72,-80.5755 1169.95,-79.4428 1166.7,-78.5697 1172.18,-78.3101 1172.18,-78.3101"/>
</g>
<!-- v15 -->
<g id="v15_Locale" class="node"><title>v15</title>
<ellipse fill="none" stroke="black" cx="898" cy="-69" rx="29" ry="11"/>
<text text-anchor="middle" x="898" y="-66.8" font-family="sans-serif" font-size="9.00">Locale</text>
</g>
<!-- r1&#45;&gt;v15 -->
<g id="edge8" class="edge"><title>r1&#45;&gt;v15</title>
<path fill="none" stroke="black" d="M898,-152.924C898,-137.736 898,-104.696 898,-85.2178"/>
<polygon fill="black" stroke="black" points="898,-80.1095 900.25,-85.1095 898,-82.6095 898,-85.1095 898,-85.1095 898,-85.1095 898,-82.6095 895.75,-85.1096 898,-80.1095 898,-80.1095"/>
</g>
<!-- r2 -->
<g id="node3" class="node"><title>r2</title>
<polygon fill="none" stroke="black" stroke-dasharray="5,2" points="669.5,-171 646.5,-171 646.5,-153 669.5,-153 669.5,-171"/>
<text text-anchor="middle" x="658" y="-159.8" font-family="serif" font-size="9.00">2</text>
</g>
<!-- v0 -->
<g id="v0_Area(1)" class="node"><title>v0</title>
<ellipse fill="none" stroke="black" cx="658" cy="-69" rx="32.5" ry="11"/>
<text text-anchor="middle" x="658" y="-66.8" font-family="sans-serif" font-size="9.00">Area(1)</text>
</g>
<!-- r2&#45;&gt;v0 -->
<g id="edge9" class="edge"><title>r2&#45;&gt;v0</title>
<path fill="none" stroke="black" d="M658,-152.924C658,-137.736 658,-104.696 658,-85.2178"/>
<polygon fill="black" stroke="black" points="658,-80.1095 660.25,-85.1095 658,-82.6095 658,-85.1095 658,-85.1095 658,-85.1095 658,-82.6095 655.75,-85.1096 658,-80.1095 658,-80.1095"/>
</g>
<!-- v1 -->
<g id="v1_Area(2)" class="node"><title>v1</title>
<ellipse fill="none" stroke="black" cx="818" cy="-69" rx="32.5" ry="11"/>
<text text-anchor="middle" x="818" y="-66.8" font-family="sans-serif" font-size="9.00">Area(2)</text>
</g>
<!-- r2&#45;&gt;v1 -->
<g id="edge10" class="edge"><title>r2&#45;&gt;v1</title>
<path fill="none" stroke="black" d="M669.507,-154.456C696.415,-139.152 763.735,-100.863 797.71,-81.5399"/>
<polygon fill="black" stroke="black" points="802.472,-78.8315 799.238,-83.2592 800.299,-80.0674 798.126,-81.3034 798.126,-81.3034 798.126,-81.3034 800.299,-80.0674 797.014,-79.3476 802.472,-78.8315 802.472,-78.8315"/>
</g>
<!-- v20 -->
<g id="v20_Area(0)" class="node"><title>v20</title>
<ellipse fill="none" stroke="black" cx="422" cy="-69" rx="32.5" ry="11"/>
<text text-anchor="middle" x="422" y="-66.8" font-family="sans-serif" font-size="9.00">Area(0)</text>
</g>
<!-- r2&#45;&gt;v20 -->
<g id="edge11" class="edge"><title>r2&#45;&gt;v20</title>
<path fill="none" stroke="black" d="M646.297,-156.487C609.716,-142.382 496.976,-98.9104 446.674,-79.514"/>
<polygon fill="black" stroke="black" points="442.005,-77.7138 447.48,-77.4134 444.338,-78.6133 446.67,-79.5128 446.67,-79.5128 446.67,-79.5128 444.338,-78.6133 445.861,-81.6121 442.005,-77.7138 442.005,-77.7138"/>
</g>
<!-- e2 -->
<g id="node4" class="node"><title>e2</title>
</g>
<!-- v2 -->
<g id="v2_GPS(4)" class="node"><title>v2</title>
<ellipse fill="none" stroke="black" cx="739" cy="-11" rx="29" ry="11"/>
<text text-anchor="middle" x="739" y="-8.8" font-family="sans-serif" font-size="9.00">GPS(4)</text>
</g>
<!-- e2&#45;&gt;v2 -->
<g id="edge34" class="edge"><title>e2&#45;&gt;v2</title>
<path fill="none" stroke="green" d="M561,-116C561,-116 586.381,-77.6142 616,-58 647.364,-37.2303 689.395,-24.1247 715.313,-17.4319"/>
</g>
<!-- v5 -->
<g id="v5_Lion" class="node"><title>v5</title>
<ellipse fill="none" stroke="black" cx="1105" cy="-11" rx="21.5" ry="11"/>
<text text-anchor="middle" x="1105" y="-8.8" font-family="sans-serif" font-size="9.00">Lion</text>
</g>
<!-- e2&#45;&gt;v5 -->
<g id="edge35" class="edge"><title>e2&#45;&gt;v5</title>
<path fill="none" stroke="green" d="M561,-116C561,-116 856.28,-105.558 936,-80 954.583,-74.0421 956.272,-66.1574 974,-58 1012.98,-40.0652 1061.09,-24.8319 1086.78,-17.214"/>
</g>
<!-- e2&#45;&gt;v8 -->
<g id="edge36" class="edge"><title>e2&#45;&gt;v8</title>
<path fill="none" stroke="green" d="M561,-116C561,-116 326.762,-82.948 255.393,-72.8775"/>
</g>
<!-- v11 -->
<g id="v11_Child" class="node"><title>v11</title>
<ellipse fill="none" stroke="black" cx="246" cy="-11" rx="25" ry="11"/>
<text text-anchor="middle" x="246" y="-8.8" font-family="sans-serif" font-size="9.00">Child</text>
</g>
<!-- e2&#45;&gt;v11 -->
<g id="edge37" class="edge"><title>e2&#45;&gt;v11</title>
<path fill="none" stroke="green" d="M561,-116C561,-116 457.515,-106.808 380,-80 333.648,-63.9696 283.109,-34.811 259.53,-20.4516"/>
</g>
<!-- e3 -->
<g id="node5" class="node"><title>e3</title>
</g>
<!-- e3&#45;&gt;v7 -->
<g id="edge38" class="edge"><title>e3&#45;&gt;v7</title>
<path fill="none" stroke="green" d="M144,-116C144,-116 128.674,-93.2583 119.574,-79.7554"/>
</g>
<!-- v10 -->
<g id="v10_Child" class="node"><title>v10</title>
<ellipse fill="none" stroke="black" cx="110" cy="-11" rx="25" ry="11"/>
<text text-anchor="middle" x="110" y="-8.8" font-family="sans-serif" font-size="9.00">Child</text>
</g>
<!-- e3&#45;&gt;v10 -->
<g id="edge39" class="edge"><title>e3&#45;&gt;v10</title>
<path fill="none" stroke="green" d="M144,-116C144,-116 97.8979,-107.615 82,-80 70.6615,-60.305 88.6275,-35.1231 100.628,-21.6063"/>
</g>
<!-- v16 -->
<g id="v16_Lion" class="node"><title>v16</title>
<ellipse fill="none" stroke="black" cx="667" cy="-11" rx="21.5" ry="11"/>
<text text-anchor="middle" x="667" y="-8.8" font-family="sans-serif" font-size="9.00">Lion</text>
</g>
<!-- e3&#45;&gt;v16 -->
<g id="edge40" class="edge"><title>e3&#45;&gt;v16</title>
<path fill="none" stroke="green" d="M144,-116C144,-116 323.67,-110.728 463,-80 535.001,-64.1209 617.325,-32.27 651.19,-18.5423"/>
</g>
<!-- v21 -->
<g id="v21_GPS(1)" class="node"><title>v21</title>
<ellipse fill="none" stroke="black" cx="335" cy="-11" rx="29" ry="11"/>
<text text-anchor="middle" x="335" y="-8.8" font-family="sans-serif" font-size="9.00">GPS(1)</text>
</g>
<!-- e3&#45;&gt;v21 -->
<g id="edge41" class="edge"><title>e3&#45;&gt;v21</title>
<path fill="none" stroke="green" d="M144,-116C144,-116 216.591,-108.366 265,-80 291.605,-64.4102 315.761,-36.6178 327.504,-21.8529"/>
</g>
<!-- e4 -->
<g id="node6" class="node"><title>e4</title>
</g>
<!-- e4&#45;&gt;v9 -->
<g id="edge42" class="edge"><title>e4&#45;&gt;v9</title>
<path fill="none" stroke="green" d="M357,-116C357,-116 271.205,-99.0649 204,-80 199.775,-78.8013 195.26,-77.3753 191.051,-75.981"/>
</g>
<!-- v12 -->
<g id="v12_Child" class="node"><title>v12</title>
<ellipse fill="none" stroke="black" cx="178" cy="-11" rx="25" ry="11"/>
<text text-anchor="middle" x="178" y="-8.8" font-family="sans-serif" font-size="9.00">Child</text>
</g>
<!-- e4&#45;&gt;v12 -->
<g id="edge43" class="edge"><title>e4&#45;&gt;v12</title>
<path fill="none" stroke="green" d="M357,-116C357,-116 306.84,-82.2031 265,-58 240.45,-43.7985 211.157,-28.6729 193.595,-19.793"/>
</g>
<!-- v18 -->
<g id="v18_Lion" class="node"><title>v18</title>
<ellipse fill="none" stroke="black" cx="600" cy="-11" rx="21.5" ry="11"/>
<text text-anchor="middle" x="600" y="-8.8" font-family="sans-serif" font-size="9.00">Lion</text>
</g>
<!-- e4&#45;&gt;v18 -->
<g id="edge44" class="edge"><title>e4&#45;&gt;v18</title>
<path fill="none" stroke="green" d="M357,-116C357,-116 433.181,-104.125 489,-80 527.793,-63.234 569.14,-34.6783 588.61,-20.503"/>
</g>
<!-- v23 -->
<g id="v23_GPS(3)" class="node"><title>v23</title>
<ellipse fill="none" stroke="black" cx="520" cy="-11" rx="29" ry="11"/>
<text text-anchor="middle" x="520" y="-8.8" font-family="sans-serif" font-size="9.00">GPS(3)</text>
</g>
<!-- e4&#45;&gt;v23 -->
<g id="edge45" class="edge"><title>e4&#45;&gt;v23</title>
<path fill="none" stroke="green" d="M357,-116C357,-116 421.944,-108.105 463,-80 486.135,-64.163 505.184,-36.4748 514.264,-21.7909"/>
</g>
<!-- e5 -->
<g id="node7" class="node"><title>e5</title>
</g>
<!-- e5&#45;&gt;v13 -->
<g id="edge46" class="edge"><title>e5&#45;&gt;v13</title>
<path fill="none" stroke="green" d="M1074,-116C1074,-116 1037.18,-91.4551 1017.34,-78.2239"/>
</g>
<!-- v14 -->
<g id="v14_Child" class="node"><title>v14</title>
<ellipse fill="none" stroke="black" cx="1012" cy="-11" rx="25" ry="11"/>
<text text-anchor="middle" x="1012" y="-8.8" font-family="sans-serif" font-size="9.00">Child</text>
</g>
<!-- e5&#45;&gt;v14 -->
<g id="edge47" class="edge"><title>e5&#45;&gt;v14</title>
<path fill="none" stroke="green" d="M1074,-116C1074,-116 1081.15,-80.8424 1069,-58 1059.74,-40.5987 1040.8,-27.406 1027.29,-19.7048"/>
</g>
<!-- v19 -->
<g id="v19_Lion" class="node"><title>v19</title>
<ellipse fill="none" stroke="black" cx="1180" cy="-11" rx="21.5" ry="11"/>
<text text-anchor="middle" x="1180" y="-8.8" font-family="sans-serif" font-size="9.00">Lion</text>
</g>
<!-- e5&#45;&gt;v19 -->
<g id="edge48" class="edge"><title>e5&#45;&gt;v19</title>
<path fill="none" stroke="green" d="M1074,-116C1074,-116 1144.65,-46.682 1170.59,-21.2293"/>
</g>
<!-- v24 -->
<g id="v24_GPS(4)" class="node"><title>v24</title>
<ellipse fill="none" stroke="black" cx="820" cy="-11" rx="29" ry="11"/>
<text text-anchor="middle" x="820" y="-8.8" font-family="sans-serif" font-size="9.00">GPS(4)</text>
</g>
<!-- e5&#45;&gt;v24 -->
<g id="edge49" class="edge"><title>e5&#45;&gt;v24</title>
<path fill="none" stroke="green" d="M1074,-116C1074,-116 1060.8,-75.3046 1035,-58 969.056,-13.765 937.424,-39.6334 860,-22 854.416,-20.7283 848.416,-19.2749 842.805,-17.8775"/>
</g>
<!-- v0&#45;&gt;v3 -->
<g id="edge32" class="edge"><title>v0&#45;&gt;v3</title>
<path fill="none" stroke="green" d="M690.5,-69C696.561,-69 702.622,-69 708.684,-69"/>
</g>
<!-- v0&#45;&gt;v23 -->
<g id="edge12" class="edge"><title>v0&#45;&gt;v23</title>
<path fill="none" stroke="black" d="M638.521,-60.0953C613.481,-49.9343 570.052,-32.311 543.293,-21.4521"/>
<polygon fill="black" stroke="black" points="538.498,-19.5065 543.977,-19.3018 540.815,-20.4466 543.131,-21.3867 543.131,-21.3867 543.131,-21.3867 540.815,-20.4466 542.285,-23.4716 538.498,-19.5065 538.498,-19.5065"/>
</g>
<!-- v1&#45;&gt;v2 -->
<g id="edge13" class="edge"><title>v1&#45;&gt;v2</title>
<path fill="none" stroke="black" d="M804.955,-58.7527C791.61,-49.2933 770.81,-34.549 756.143,-24.1517"/>
<polygon fill="black" stroke="black" points="751.803,-21.0752 757.183,-22.1311 753.842,-22.521 755.882,-23.9667 755.882,-23.9667 755.882,-23.9667 753.842,-22.521 754.58,-25.8024 751.803,-21.0752 751.803,-21.0752"/>
</g>
<!-- v1&#45;&gt;v4 -->
<g id="edge33" class="edge"><title>v1&#45;&gt;v4</title>
<path fill="none" stroke="green" d="M831.433,-79.2214C841.254,-86.0232 855.214,-94.3546 869,-98 926.362,-113.168 1078.58,-112.93 1136,-98 1150.21,-94.3065 1164.65,-85.7878 1174.7,-78.9333"/>
</g>
<!-- v1&#45;&gt;v24 -->
<g id="edge14" class="edge"><title>v1&#45;&gt;v24</title>
<path fill="none" stroke="black" d="M818.358,-57.9883C818.661,-49.4941 819.101,-37.1697 819.449,-27.4169"/>
<polygon fill="black" stroke="black" points="819.632,-22.3039 821.702,-27.381 819.543,-24.8023 819.453,-27.3007 819.453,-27.3007 819.453,-27.3007 819.543,-24.8023 817.205,-27.2203 819.632,-22.3039 819.632,-22.3039"/>
</g>
<!-- v3&#45;&gt;v18 -->
<g id="edge15" class="edge"><title>v3&#45;&gt;v18</title>
<path fill="none" stroke="black" d="M719.389,-60.4476C693.763,-50.0486 647.748,-31.3759 620.946,-20.4999"/>
<polygon fill="black" stroke="black" points="616.175,-18.5636 621.654,-18.3589 618.491,-19.5037 620.808,-20.4438 620.808,-20.4438 620.808,-20.4438 618.491,-19.5037 619.962,-22.5286 616.175,-18.5636 616.175,-18.5636"/>
</g>
<!-- v4&#45;&gt;v5 -->
<g id="edge16" class="edge"><title>v4&#45;&gt;v5</title>
<path fill="none" stroke="black" d="M1174.66,-59.0026C1160.17,-49.2244 1137,-33.5919 1121.41,-23.0686"/>
<polygon fill="black" stroke="black" points="1117.22,-20.2451 1122.62,-21.1765 1119.29,-21.6434 1121.37,-23.0417 1121.37,-23.0417 1121.37,-23.0417 1119.29,-21.6434 1120.11,-24.9068 1117.22,-20.2451 1117.22,-20.2451"/>
</g>
<!-- v4&#45;&gt;v19 -->
<g id="edge17" class="edge"><title>v4&#45;&gt;v19</title>
<path fill="none" stroke="black" d="M1186.57,-57.9883C1185.36,-49.4941 1183.6,-37.1697 1182.2,-27.4169"/>
<polygon fill="black" stroke="black" points="1181.47,-22.3039 1184.41,-26.9354 1181.83,-24.7787 1182.18,-27.2536 1182.18,-27.2536 1182.18,-27.2536 1181.83,-24.7787 1179.95,-27.5719 1181.47,-22.3039 1181.47,-22.3039"/>
</g>
<!-- v7&#45;&gt;v10 -->
<g id="edge18" class="edge"><title>v7&#45;&gt;v10</title>
<path fill="none" stroke="black" d="M112.464,-57.9883C112.009,-49.4941 111.348,-37.1697 110.826,-27.4169"/>
<polygon fill="black" stroke="black" points="110.552,-22.3039 113.066,-27.1763 110.686,-24.8003 110.82,-27.2967 110.82,-27.2967 110.82,-27.2967 110.686,-24.8003 108.573,-27.4171 110.552,-22.3039 110.552,-22.3039"/>
</g>
<!-- v7&#45;&gt;v11 -->
<g id="edge19" class="edge"><title>v7&#45;&gt;v11</title>
<path fill="none" stroke="black" d="M128.779,-61.3562C152.488,-51.3736 197.373,-32.4747 224.195,-21.1809"/>
<polygon fill="black" stroke="black" points="228.984,-19.1645 225.249,-23.1785 226.68,-20.1346 224.376,-21.1048 224.376,-21.1048 224.376,-21.1048 226.68,-20.1346 223.503,-19.0311 228.984,-19.1645 228.984,-19.1645"/>
</g>
<!-- v7&#45;&gt;v12 -->
<g id="edge20" class="edge"><title>v7&#45;&gt;v12</title>
<path fill="none" stroke="black" d="M123.156,-59.25C133.935,-49.9638 151.069,-35.2025 163.316,-24.6504"/>
<polygon fill="black" stroke="black" points="167.267,-21.2473 164.947,-26.2155 165.373,-22.8791 163.479,-24.5108 163.479,-24.5108 163.479,-24.5108 165.373,-22.8791 162.01,-22.8062 167.267,-21.2473 167.267,-21.2473"/>
</g>
<!-- v8&#45;&gt;v10 -->
<g id="edge21" class="edge"><title>v8&#45;&gt;v10</title>
<path fill="none" stroke="black" d="M219.673,-61.1333C197.548,-51.2214 156.568,-32.8624 131.449,-21.6093"/>
<polygon fill="black" stroke="black" points="126.647,-19.4581 132.13,-19.449 128.929,-20.4802 131.211,-21.5024 131.211,-21.5024 131.211,-21.5024 128.929,-20.4802 130.291,-23.5557 126.647,-19.4581 126.647,-19.4581"/>
</g>
<!-- v8&#45;&gt;v11 -->
<g id="edge22" class="edge"><title>v8&#45;&gt;v11</title>
<path fill="none" stroke="black" d="M236.967,-57.9883C238.635,-49.4941 241.056,-37.1697 242.972,-27.4169"/>
<polygon fill="black" stroke="black" points="243.976,-22.3039 245.22,-27.6438 243.494,-24.757 243.012,-27.2101 243.012,-27.2101 243.012,-27.2101 243.494,-24.757 240.804,-26.7764 243.976,-22.3039 243.976,-22.3039"/>
</g>
<!-- v8&#45;&gt;v12 -->
<g id="edge23" class="edge"><title>v8&#45;&gt;v12</title>
<path fill="none" stroke="black" d="M225.842,-59.0026C216.537,-49.8606 202.023,-35.6014 191.42,-25.1846"/>
<polygon fill="black" stroke="black" points="187.708,-21.5373 192.851,-23.4364 189.491,-23.2894 191.274,-25.0414 191.274,-25.0414 191.274,-25.0414 189.491,-23.2894 189.697,-26.6465 187.708,-21.5373 187.708,-21.5373"/>
</g>
<!-- v9&#45;&gt;v10 -->
<g id="edge24" class="edge"><title>v9&#45;&gt;v10</title>
<path fill="none" stroke="black" d="M164,-59.25C153.387,-49.9638 136.517,-35.2025 124.458,-24.6504"/>
<polygon fill="black" stroke="black" points="120.568,-21.2473 125.813,-22.8465 122.45,-22.8935 124.331,-24.5398 124.331,-24.5398 124.331,-24.5398 122.45,-22.8935 122.85,-26.2331 120.568,-21.2473 120.568,-21.2473"/>
</g>
<!-- v9&#45;&gt;v11 -->
<g id="edge25" class="edge"><title>v9&#45;&gt;v11</title>
<path fill="none" stroke="black" d="M184.935,-59.4948C197.057,-50.067 216.705,-34.7854 230.43,-24.1101"/>
<polygon fill="black" stroke="black" points="234.484,-20.9566 231.919,-25.8024 232.511,-22.4915 230.538,-24.0264 230.538,-24.0264 230.538,-24.0264 232.511,-22.4915 229.156,-22.2503 234.484,-20.9566 234.484,-20.9566"/>
</g>
<!-- v9&#45;&gt;v12 -->
<g id="edge26" class="edge"><title>v9&#45;&gt;v12</title>
<path fill="none" stroke="black" d="M174.715,-57.9883C175.322,-49.4941 176.202,-37.1697 176.899,-27.4169"/>
<polygon fill="black" stroke="black" points="177.264,-22.3039 179.152,-27.4515 177.086,-24.7975 176.908,-27.2912 176.908,-27.2912 176.908,-27.2912 177.086,-24.7975 174.663,-27.1308 177.264,-22.3039 177.264,-22.3039"/>
</g>
<!-- v13&#45;&gt;v14 -->
<g id="edge27" class="edge"><title>v13&#45;&gt;v14</title>
<path fill="none" stroke="black" d="M1006.25,-57.9883C1007.31,-49.4941 1008.85,-37.1697 1010.07,-27.4169"/>
<polygon fill="black" stroke="black" points="1010.71,-22.3039 1012.32,-27.5444 1010.4,-24.7846 1010.09,-27.2653 1010.09,-27.2653 1010.09,-27.2653 1010.4,-24.7846 1007.86,-26.9861 1010.71,-22.3039 1010.71,-22.3039"/>
</g>
<!-- v15&#45;&gt;v16 -->
<g id="edge28" class="edge"><title>v15&#45;&gt;v16</title>
<path fill="none" stroke="black" d="M875.341,-62.0799C869.99,-60.7122 864.299,-59.2828 859,-58 789,-41.0542 770.692,-40.1698 701,-22 697.232,-21.0177 693.25,-19.91 689.389,-18.7989"/>
<polygon fill="black" stroke="black" points="684.589,-17.3989 690.019,-16.639 686.989,-18.099 689.389,-18.799 689.389,-18.799 689.389,-18.799 686.989,-18.099 688.759,-20.959 684.589,-17.3989 684.589,-17.3989"/>
</g>
<!-- v17 -->
<g id="v17_Impala" class="node"><title>v17</title>
<ellipse fill="none" stroke="black" cx="898" cy="-11" rx="29" ry="11"/>
<text text-anchor="middle" x="898" y="-8.8" font-family="sans-serif" font-size="9.00">Impala</text>
</g>
<!-- v15&#45;&gt;v17 -->
<g id="edge29" class="edge"><title>v15&#45;&gt;v17</title>
<path fill="none" stroke="black" d="M898,-57.9883C898,-49.4941 898,-37.1697 898,-27.4169"/>
<polygon fill="black" stroke="black" points="898,-22.3039 900.25,-27.3038 898,-24.8039 898,-27.3039 898,-27.3039 898,-27.3039 898,-24.8039 895.75,-27.3039 898,-22.3039 898,-22.3039"/>
</g>
<!-- v15&#45;&gt;v20 -->
<g id="edge50" class="edge"><title>v15&#45;&gt;v20</title>
<path fill="none" stroke="green" d="M885.453,-79.2134C876.255,-86.0113 863.13,-94.3414 850,-98 701.492,-139.379 513.313,-94.8795 446.716,-76.3286"/>
</g>
<!-- v22 -->
<g id="v22_GPS(0)" class="node"><title>v22</title>
<ellipse fill="none" stroke="black" cx="422" cy="-11" rx="29" ry="11"/>
<text text-anchor="middle" x="422" y="-8.8" font-family="sans-serif" font-size="9.00">GPS(0)</text>
</g>
<!-- v17&#45;&gt;v22 -->
<g id="edge51" class="edge"><title>v17&#45;&gt;v22</title>
<path fill="none" stroke="green" d="M885.157,-21.2162C875.751,-28.0155 862.348,-36.346 849,-40 772.268,-61.005 568.986,-55.7224 491,-40 472.148,-36.1993 452.032,-27.1006 438.414,-20.0999"/>
</g>
<!-- v20&#45;&gt;v21 -->
<g id="edge30" class="edge"><title>v20&#45;&gt;v21</title>
<path fill="none" stroke="black" d="M408.022,-59.0026C393.094,-49.394 369.384,-34.1324 353.054,-23.6206"/>
<polygon fill="black" stroke="black" points="348.657,-20.7904 354.079,-21.6047 350.759,-22.1435 352.861,-23.4967 352.861,-23.4967 352.861,-23.4967 350.759,-22.1435 351.643,-25.3886 348.657,-20.7904 348.657,-20.7904"/>
</g>
<!-- v20&#45;&gt;v22 -->
<g id="edge31" class="edge"><title>v20&#45;&gt;v22</title>
<path fill="none" stroke="black" d="M422,-57.9883C422,-49.4941 422,-37.1697 422,-27.4169"/>
<polygon fill="black" stroke="black" points="422,-22.3039 424.25,-27.3038 422,-24.8039 422,-27.3039 422,-27.3039 422,-27.3039 422,-24.8039 419.75,-27.3039 422,-22.3039 422,-22.3039"/>
</g>
</g>
</svg>
