<?xml version="1.0" encoding="UTF-8" standalone="no"?>
<?xml-stylesheet href="style.css" type="text/css"?>
<!DOCTYPE svg PUBLIC "-//W3C//DTD SVG 1.1//EN"
 "http://www.w3.org/Graphics/SVG/1.1/DTD/svg11.dtd">
<!-- Generated by graphviz version 2.38.0 (20140413.2041)
 -->
<!-- Title: 36.svg Pages: 1 -->
<svg width="1226pt" height="179pt"
 viewBox="0.00 0.00 1225.50 179.00" xmlns="http://www.w3.org/2000/svg" xmlns:xlink="http://www.w3.org/1999/xlink">
<g id="graph0" class="graph" transform="scale(1 1) rotate(0) translate(4 175)">
<title>36.svg</title>
<polygon fill="white" stroke="none" points="-4,4 -4,-175 1221.5,-175 1221.5,4 -4,4"/>
<!-- r0 -->
<g id="node1" class="node"><title>r0</title>
<polygon fill="none" stroke="black" stroke-dasharray="5,2" points="376.5,-171 353.5,-171 353.5,-153 376.5,-153 376.5,-171"/>
<text text-anchor="middle" x="365" y="-159.8" font-family="serif" font-size="9.00">0</text>
</g>
<!-- v6 -->
<g id="v6_Field" class="node"><title>v6</title>
<ellipse fill="none" stroke="black" cx="25" cy="-11" rx="25" ry="11"/>
<text text-anchor="middle" x="25" y="-8.8" font-family="sans-serif" font-size="9.00">Field</text>
</g>
<!-- r0&#45;&gt;v6 -->
<g id="edge1" class="edge"><title>r0&#45;&gt;v6</title>
<path fill="none" stroke="black" d="M353.188,-159.795C300.333,-154.153 86.2698,-128.551 44,-80 31.0966,-65.1793 26.9031,-42.2543 25.5709,-27.1871"/>
<polygon fill="black" stroke="black" points="25.1987,-22.0212 27.8023,-26.8465 25.3784,-24.5147 25.5581,-27.0082 25.5581,-27.0082 25.5581,-27.0082 25.3784,-24.5147 23.3139,-27.17 25.1987,-22.0212 25.1987,-22.0212"/>
</g>
<!-- v7 -->
<g id="v7_Aura" class="node"><title>v7</title>
<ellipse fill="none" stroke="black" cx="365" cy="-69" rx="21.5" ry="11"/>
<text text-anchor="middle" x="365" y="-66.8" font-family="sans-serif" font-size="9.00">Aura</text>
</g>
<!-- r0&#45;&gt;v7 -->
<g id="edge2" class="edge"><title>r0&#45;&gt;v7</title>
<path fill="none" stroke="black" d="M365,-152.924C365,-137.736 365,-104.696 365,-85.2178"/>
<polygon fill="black" stroke="black" points="365,-80.1095 367.25,-85.1095 365,-82.6095 365,-85.1095 365,-85.1095 365,-85.1095 365,-82.6095 362.75,-85.1096 365,-80.1095 365,-80.1095"/>
</g>
<!-- v8 -->
<g id="v8_Aura" class="node"><title>v8</title>
<ellipse fill="none" stroke="black" cx="426" cy="-69" rx="21.5" ry="11"/>
<text text-anchor="middle" x="426" y="-66.8" font-family="sans-serif" font-size="9.00">Aura</text>
</g>
<!-- r0&#45;&gt;v8 -->
<g id="edge3" class="edge"><title>r0&#45;&gt;v8</title>
<path fill="none" stroke="black" d="M370.413,-152.924C380.789,-137.446 403.593,-103.427 416.537,-84.1163"/>
<polygon fill="black" stroke="black" points="419.602,-79.5439 418.687,-84.9499 418.21,-81.6205 416.818,-83.6971 416.818,-83.6971 416.818,-83.6971 418.21,-81.6205 414.949,-82.4443 419.602,-79.5439 419.602,-79.5439"/>
</g>
<!-- v9 -->
<g id="v9_Aura" class="node"><title>v9</title>
<ellipse fill="none" stroke="black" cx="526" cy="-69" rx="21.5" ry="11"/>
<text text-anchor="middle" x="526" y="-66.8" font-family="sans-serif" font-size="9.00">Aura</text>
</g>
<!-- r0&#45;&gt;v9 -->
<g id="edge4" class="edge"><title>r0&#45;&gt;v9</title>
<path fill="none" stroke="black" d="M376.725,-159.184C400.17,-155.087 453.692,-143.351 490,-117 501.83,-108.414 511.627,-94.8623 517.998,-84.5121"/>
<polygon fill="black" stroke="black" points="520.679,-80.0112 520.053,-85.4583 519.4,-82.159 518.12,-84.3068 518.12,-84.3068 518.12,-84.3068 519.4,-82.159 516.187,-83.1552 520.679,-80.0112 520.679,-80.0112"/>
</g>
<!-- v13 -->
<g id="v13_Aura" class="node"><title>v13</title>
<ellipse fill="none" stroke="black" cx="75" cy="-69" rx="21.5" ry="11"/>
<text text-anchor="middle" x="75" y="-66.8" font-family="sans-serif" font-size="9.00">Aura</text>
</g>
<!-- r0&#45;&gt;v13 -->
<g id="edge5" class="edge"><title>r0&#45;&gt;v13</title>
<path fill="none" stroke="black" d="M353.353,-160.731C318.448,-159.528 212.283,-152.945 134,-117 115.981,-108.726 98.6382,-93.7991 87.4748,-82.9826"/>
<polygon fill="black" stroke="black" points="83.6517,-79.2035 88.7895,-81.1184 85.4297,-80.9611 87.2077,-82.7186 87.2077,-82.7186 87.2077,-82.7186 85.4297,-80.9611 85.6259,-84.3188 83.6517,-79.2035 83.6517,-79.2035"/>
</g>
<!-- r1 -->
<g id="node2" class="node"><title>r1</title>
<polygon fill="none" stroke="black" stroke-dasharray="5,2" points="842.5,-171 819.5,-171 819.5,-153 842.5,-153 842.5,-171"/>
<text text-anchor="middle" x="831" y="-159.8" font-family="serif" font-size="9.00">1</text>
</g>
<!-- v3 -->
<g id="v3_Locale" class="node"><title>v3</title>
<ellipse fill="none" stroke="black" cx="1105" cy="-69" rx="29" ry="11"/>
<text text-anchor="middle" x="1105" y="-66.8" font-family="sans-serif" font-size="9.00">Locale</text>
</g>
<!-- r1&#45;&gt;v3 -->
<g id="edge6" class="edge"><title>r1&#45;&gt;v3</title>
<path fill="none" stroke="black" d="M842.773,-157.09C883.938,-143.418 1022.03,-97.5546 1079.54,-78.457"/>
<polygon fill="black" stroke="black" points="1084.52,-76.8026 1080.48,-80.5139 1082.14,-77.5906 1079.77,-78.3786 1079.77,-78.3786 1079.77,-78.3786 1082.14,-77.5906 1079.06,-76.2433 1084.52,-76.8026 1084.52,-76.8026"/>
</g>
<!-- v4 -->
<g id="v4_Locale" class="node"><title>v4</title>
<ellipse fill="none" stroke="black" cx="220" cy="-69" rx="29" ry="11"/>
<text text-anchor="middle" x="220" y="-66.8" font-family="sans-serif" font-size="9.00">Locale</text>
</g>
<!-- r1&#45;&gt;v4 -->
<g id="edge7" class="edge"><title>r1&#45;&gt;v4</title>
<path fill="none" stroke="black" d="M819.22,-160.583C751.904,-158.113 415.45,-144.551 316,-117 287.314,-109.053 256.886,-92.6123 238.161,-81.442"/>
<polygon fill="black" stroke="black" points="233.661,-78.724 239.104,-79.3831 235.801,-80.0165 237.941,-81.309 237.941,-81.309 237.941,-81.309 235.801,-80.0165 236.778,-83.235 233.661,-78.724 233.661,-78.724"/>
</g>
<!-- v16 -->
<g id="v16_Locale" class="node"><title>v16</title>
<ellipse fill="none" stroke="black" cx="831" cy="-69" rx="29" ry="11"/>
<text text-anchor="middle" x="831" y="-66.8" font-family="sans-serif" font-size="9.00">Locale</text>
</g>
<!-- r1&#45;&gt;v16 -->
<g id="edge8" class="edge"><title>r1&#45;&gt;v16</title>
<path fill="none" stroke="black" d="M831,-152.924C831,-137.736 831,-104.696 831,-85.2178"/>
<polygon fill="black" stroke="black" points="831,-80.1095 833.25,-85.1095 831,-82.6095 831,-85.1095 831,-85.1095 831,-85.1095 831,-82.6095 828.75,-85.1096 831,-80.1095 831,-80.1095"/>
</g>
<!-- r2 -->
<g id="node3" class="node"><title>r2</title>
<polygon fill="none" stroke="black" stroke-dasharray="5,2" points="1036.5,-171 1013.5,-171 1013.5,-153 1036.5,-153 1036.5,-171"/>
<text text-anchor="middle" x="1025" y="-159.8" font-family="serif" font-size="9.00">2</text>
</g>
<!-- v0 -->
<g id="v0_Area(0)" class="node"><title>v0</title>
<ellipse fill="none" stroke="black" cx="1185" cy="-69" rx="32.5" ry="11"/>
<text text-anchor="middle" x="1185" y="-66.8" font-family="sans-serif" font-size="9.00">Area(0)</text>
</g>
<!-- r2&#45;&gt;v0 -->
<g id="edge9" class="edge"><title>r2&#45;&gt;v0</title>
<path fill="none" stroke="black" d="M1036.51,-154.456C1063.41,-139.152 1130.73,-100.863 1164.71,-81.5399"/>
<polygon fill="black" stroke="black" points="1169.47,-78.8315 1166.24,-83.2592 1167.3,-80.0674 1165.13,-81.3034 1165.13,-81.3034 1165.13,-81.3034 1167.3,-80.0674 1164.01,-79.3476 1169.47,-78.8315 1169.47,-78.8315"/>
</g>
<!-- v1 -->
<g id="v1_Area(2)" class="node"><title>v1</title>
<ellipse fill="none" stroke="black" cx="713" cy="-69" rx="32.5" ry="11"/>
<text text-anchor="middle" x="713" y="-66.8" font-family="sans-serif" font-size="9.00">Area(2)</text>
</g>
<!-- r2&#45;&gt;v1 -->
<g id="edge10" class="edge"><title>r2&#45;&gt;v1</title>
<path fill="none" stroke="black" d="M1013.15,-157.544C968.13,-144.413 806.931,-97.3964 741.202,-78.2257"/>
<polygon fill="black" stroke="black" points="736.263,-76.7852 741.693,-76.0252 738.663,-77.4852 741.063,-78.1852 741.063,-78.1852 741.063,-78.1852 738.663,-77.4852 740.433,-80.3452 736.263,-76.7852 736.263,-76.7852"/>
</g>
<!-- v21 -->
<g id="v21_Area(1)" class="node"><title>v21</title>
<ellipse fill="none" stroke="black" cx="1025" cy="-69" rx="32.5" ry="11"/>
<text text-anchor="middle" x="1025" y="-66.8" font-family="sans-serif" font-size="9.00">Area(1)</text>
</g>
<!-- r2&#45;&gt;v21 -->
<g id="edge11" class="edge"><title>r2&#45;&gt;v21</title>
<path fill="none" stroke="black" d="M1025,-152.924C1025,-137.736 1025,-104.696 1025,-85.2178"/>
<polygon fill="black" stroke="black" points="1025,-80.1095 1027.25,-85.1095 1025,-82.6095 1025,-85.1095 1025,-85.1095 1025,-85.1095 1025,-82.6095 1022.75,-85.1096 1025,-80.1095 1025,-80.1095"/>
</g>
<!-- e2 -->
<g id="node4" class="node"><title>e2</title>
</g>
<!-- v2 -->
<g id="v2_GPS(9)" class="node"><title>v2</title>
<ellipse fill="none" stroke="black" cx="703" cy="-11" rx="29" ry="11"/>
<text text-anchor="middle" x="703" y="-8.8" font-family="sans-serif" font-size="9.00">GPS(9)</text>
</g>
<!-- e2&#45;&gt;v2 -->
<g id="edge34" class="edge"><title>e2&#45;&gt;v2</title>
<path fill="none" stroke="green" d="M326,-116C326,-116 478.305,-119.338 590,-80 630.169,-65.853 671.619,-36.3666 691.284,-21.299"/>
</g>
<!-- v5 -->
<g id="v5_Lion" class="node"><title>v5</title>
<ellipse fill="none" stroke="black" cx="264" cy="-11" rx="21.5" ry="11"/>
<text text-anchor="middle" x="264" y="-8.8" font-family="sans-serif" font-size="9.00">Lion</text>
</g>
<!-- e2&#45;&gt;v5 -->
<g id="edge35" class="edge"><title>e2&#45;&gt;v5</title>
<path fill="none" stroke="green" d="M326,-116C326,-116 285.463,-48.0023 269.945,-21.972"/>
</g>
<!-- e2&#45;&gt;v7 -->
<g id="edge36" class="edge"><title>e2&#45;&gt;v7</title>
<path fill="none" stroke="green" d="M326,-116C326,-116 345.712,-92.7501 357.108,-79.3088"/>
</g>
<!-- v10 -->
<g id="v10_Child" class="node"><title>v10</title>
<ellipse fill="none" stroke="black" cx="369" cy="-11" rx="25" ry="11"/>
<text text-anchor="middle" x="369" y="-8.8" font-family="sans-serif" font-size="9.00">Child</text>
</g>
<!-- e2&#45;&gt;v10 -->
<g id="edge37" class="edge"><title>e2&#45;&gt;v10</title>
<path fill="none" stroke="green" d="M326,-116C326,-116 324.017,-82.0306 334,-58 339.929,-43.7287 351.39,-29.9812 359.582,-21.2918"/>
</g>
<!-- e3 -->
<g id="node5" class="node"><title>e3</title>
</g>
<!-- e3&#45;&gt;v8 -->
<g id="edge38" class="edge"><title>e3&#45;&gt;v8</title>
<path fill="none" stroke="green" d="M481,-116C481,-116 452.277,-91.9773 436.345,-78.6522"/>
</g>
<!-- v11 -->
<g id="v11_Child" class="node"><title>v11</title>
<ellipse fill="none" stroke="black" cx="449" cy="-11" rx="25" ry="11"/>
<text text-anchor="middle" x="449" y="-8.8" font-family="sans-serif" font-size="9.00">Child</text>
</g>
<!-- e3&#45;&gt;v11 -->
<g id="edge39" class="edge"><title>e3&#45;&gt;v11</title>
<path fill="none" stroke="green" d="M481,-116C481,-116 460.078,-48.0023 452.068,-21.972"/>
</g>
<!-- v17 -->
<g id="v17_Lion" class="node"><title>v17</title>
<ellipse fill="none" stroke="black" cx="785" cy="-11" rx="21.5" ry="11"/>
<text text-anchor="middle" x="785" y="-8.8" font-family="sans-serif" font-size="9.00">Lion</text>
</g>
<!-- e3&#45;&gt;v17 -->
<g id="edge40" class="edge"><title>e3&#45;&gt;v17</title>
<path fill="none" stroke="green" d="M481,-116C481,-116 704.812,-116.4 754,-80 773.086,-65.8762 780.726,-37.1969 783.531,-21.9892"/>
</g>
<!-- v22 -->
<g id="v22_GPS(2)" class="node"><title>v22</title>
<ellipse fill="none" stroke="black" cx="929" cy="-11" rx="29" ry="11"/>
<text text-anchor="middle" x="929" y="-8.8" font-family="sans-serif" font-size="9.00">GPS(2)</text>
</g>
<!-- e3&#45;&gt;v22 -->
<g id="edge41" class="edge"><title>e3&#45;&gt;v22</title>
<path fill="none" stroke="green" d="M481,-116C481,-116 791.803,-119.23 869,-80 894.826,-66.8759 914.523,-37.4888 923.56,-21.9967"/>
</g>
<!-- e4 -->
<g id="node6" class="node"><title>e4</title>
</g>
<!-- e4&#45;&gt;v9 -->
<g id="edge42" class="edge"><title>e4&#45;&gt;v9</title>
<path fill="none" stroke="green" d="M893,-116C893,-116 730.123,-96.7854 600,-80 581.871,-77.6614 561.264,-74.8653 546.407,-72.8251"/>
</g>
<!-- v12 -->
<g id="v12_Child" class="node"><title>v12</title>
<ellipse fill="none" stroke="black" cx="523" cy="-11" rx="25" ry="11"/>
<text text-anchor="middle" x="523" y="-8.8" font-family="sans-serif" font-size="9.00">Child</text>
</g>
<!-- e4&#45;&gt;v12 -->
<g id="edge43" class="edge"><title>e4&#45;&gt;v12</title>
<path fill="none" stroke="green" d="M893,-116C893,-116 766.617,-109.131 671,-80 619.606,-64.3424 562.975,-34.4692 537.191,-20.1067"/>
</g>
<!-- v18 -->
<g id="v18_Lion" class="node"><title>v18</title>
<ellipse fill="none" stroke="black" cx="855" cy="-11" rx="21.5" ry="11"/>
<text text-anchor="middle" x="855" y="-8.8" font-family="sans-serif" font-size="9.00">Lion</text>
</g>
<!-- e4&#45;&gt;v18 -->
<g id="edge44" class="edge"><title>e4&#45;&gt;v18</title>
<path fill="none" stroke="green" d="M893,-116C893,-116 868.155,-48.0023 858.644,-21.972"/>
</g>
<!-- v23 -->
<g id="v23_GPS(3)" class="node"><title>v23</title>
<ellipse fill="none" stroke="black" cx="1007" cy="-11" rx="29" ry="11"/>
<text text-anchor="middle" x="1007" y="-8.8" font-family="sans-serif" font-size="9.00">GPS(3)</text>
</g>
<!-- e4&#45;&gt;v23 -->
<g id="edge45" class="edge"><title>e4&#45;&gt;v23</title>
<path fill="none" stroke="green" d="M893,-116C893,-116 968.258,-47.3438 996.479,-21.5977"/>
</g>
<!-- e5 -->
<g id="node7" class="node"><title>e5</title>
</g>
<!-- e5&#45;&gt;v13 -->
<g id="edge46" class="edge"><title>e5&#45;&gt;v13</title>
<path fill="none" stroke="green" d="M144,-116C144,-116 107.183,-91.4551 87.3358,-78.2239"/>
</g>
<!-- v14 -->
<g id="v14_Child" class="node"><title>v14</title>
<ellipse fill="none" stroke="black" cx="109" cy="-11" rx="25" ry="11"/>
<text text-anchor="middle" x="109" y="-8.8" font-family="sans-serif" font-size="9.00">Child</text>
</g>
<!-- e5&#45;&gt;v14 -->
<g id="edge47" class="edge"><title>e5&#45;&gt;v14</title>
<path fill="none" stroke="green" d="M144,-116C144,-116 121.116,-48.0023 112.356,-21.972"/>
</g>
<!-- v19 -->
<g id="v19_Lion" class="node"><title>v19</title>
<ellipse fill="none" stroke="black" cx="197" cy="-11" rx="21.5" ry="11"/>
<text text-anchor="middle" x="197" y="-8.8" font-family="sans-serif" font-size="9.00">Lion</text>
</g>
<!-- e5&#45;&gt;v19 -->
<g id="edge48" class="edge"><title>e5&#45;&gt;v19</title>
<path fill="none" stroke="green" d="M144,-116C144,-116 178.653,-48.0023 191.918,-21.972"/>
</g>
<!-- v24 -->
<g id="v24_GPS(4)" class="node"><title>v24</title>
<ellipse fill="none" stroke="black" cx="608" cy="-11" rx="29" ry="11"/>
<text text-anchor="middle" x="608" y="-8.8" font-family="sans-serif" font-size="9.00">GPS(4)</text>
</g>
<!-- e5&#45;&gt;v24 -->
<g id="edge49" class="edge"><title>e5&#45;&gt;v24</title>
<path fill="none" stroke="green" d="M144,-116C144,-116 515.73,-102.134 556,-80 579.965,-66.8286 596.343,-37.4622 603.661,-21.9854"/>
</g>
<!-- v0&#45;&gt;v3 -->
<g id="edge32" class="edge"><title>v0&#45;&gt;v3</title>
<path fill="none" stroke="green" d="M1152.37,-69C1146.27,-69 1140.16,-69 1134.06,-69"/>
</g>
<!-- v20 -->
<g id="v20_GPS(0)" class="node"><title>v20</title>
<ellipse fill="none" stroke="black" cx="1185" cy="-11" rx="29" ry="11"/>
<text text-anchor="middle" x="1185" y="-8.8" font-family="sans-serif" font-size="9.00">GPS(0)</text>
</g>
<!-- v0&#45;&gt;v20 -->
<g id="edge12" class="edge"><title>v0&#45;&gt;v20</title>
<path fill="none" stroke="black" d="M1185,-57.9883C1185,-49.4941 1185,-37.1697 1185,-27.4169"/>
<polygon fill="black" stroke="black" points="1185,-22.3039 1187.25,-27.3038 1185,-24.8039 1185,-27.3039 1185,-27.3039 1185,-27.3039 1185,-24.8039 1182.75,-27.3039 1185,-22.3039 1185,-22.3039"/>
</g>
<!-- v1&#45;&gt;v2 -->
<g id="edge13" class="edge"><title>v1&#45;&gt;v2</title>
<path fill="none" stroke="black" d="M711.212,-57.9883C709.695,-49.4941 707.495,-37.1697 705.753,-27.4169"/>
<polygon fill="black" stroke="black" points="704.84,-22.3039 707.934,-26.8305 705.279,-24.7649 705.719,-27.226 705.719,-27.226 705.719,-27.226 705.279,-24.7649 703.504,-27.6216 704.84,-22.3039 704.84,-22.3039"/>
</g>
<!-- v1&#45;&gt;v4 -->
<g id="edge33" class="edge"><title>v1&#45;&gt;v4</title>
<path fill="none" stroke="green" d="M698.562,-78.9418C687.683,-85.8006 672.105,-94.3208 657,-98 589.204,-114.513 412.311,-106.06 343,-98 307.478,-93.869 267.325,-83.2417 242.84,-76.0654"/>
</g>
<!-- v1&#45;&gt;v24 -->
<g id="edge14" class="edge"><title>v1&#45;&gt;v24</title>
<path fill="none" stroke="black" d="M696.594,-59.25C678.118,-49.3964 648.084,-33.3781 628.185,-22.7655"/>
<polygon fill="black" stroke="black" points="623.606,-20.3233 629.077,-20.691 625.812,-21.4998 628.018,-22.6763 628.018,-22.6763 628.018,-22.6763 625.812,-21.4998 626.959,-24.6616 623.606,-20.3233 623.606,-20.3233"/>
</g>
<!-- v15 -->
<g id="v15_Impala" class="node"><title>v15</title>
<ellipse fill="none" stroke="black" cx="1105" cy="-11" rx="29" ry="11"/>
<text text-anchor="middle" x="1105" y="-8.8" font-family="sans-serif" font-size="9.00">Impala</text>
</g>
<!-- v3&#45;&gt;v15 -->
<g id="edge15" class="edge"><title>v3&#45;&gt;v15</title>
<path fill="none" stroke="black" d="M1105,-57.9883C1105,-49.4941 1105,-37.1697 1105,-27.4169"/>
<polygon fill="black" stroke="black" points="1105,-22.3039 1107.25,-27.3038 1105,-24.8039 1105,-27.3039 1105,-27.3039 1105,-27.3039 1105,-24.8039 1102.75,-27.3039 1105,-22.3039 1105,-22.3039"/>
</g>
<!-- v4&#45;&gt;v5 -->
<g id="edge16" class="edge"><title>v4&#45;&gt;v5</title>
<path fill="none" stroke="black" d="M227.664,-58.2455C234.731,-49.2519 245.292,-35.8101 253.21,-25.7327"/>
<polygon fill="black" stroke="black" points="256.424,-21.6427 255.104,-26.9644 254.879,-23.6085 253.334,-25.5743 253.334,-25.5743 253.334,-25.5743 254.879,-23.6085 251.565,-24.1842 256.424,-21.6427 256.424,-21.6427"/>
</g>
<!-- v4&#45;&gt;v19 -->
<g id="edge17" class="edge"><title>v4&#45;&gt;v19</title>
<path fill="none" stroke="black" d="M215.888,-57.9883C212.323,-49.3083 207.115,-36.6286 203.071,-26.7806"/>
<polygon fill="black" stroke="black" points="201.076,-21.925 205.057,-25.6953 202.026,-24.2376 202.976,-26.5501 202.976,-26.5501 202.976,-26.5501 202.026,-24.2376 200.895,-27.405 201.076,-21.925 201.076,-21.925"/>
</g>
<!-- v7&#45;&gt;v10 -->
<g id="edge18" class="edge"><title>v7&#45;&gt;v10</title>
<path fill="none" stroke="black" d="M365.715,-57.9883C366.322,-49.4941 367.202,-37.1697 367.899,-27.4169"/>
<polygon fill="black" stroke="black" points="368.264,-22.3039 370.152,-27.4515 368.086,-24.7975 367.908,-27.2912 367.908,-27.2912 367.908,-27.2912 368.086,-24.7975 365.663,-27.1308 368.264,-22.3039 368.264,-22.3039"/>
</g>
<!-- v7&#45;&gt;v11 -->
<g id="edge19" class="edge"><title>v7&#45;&gt;v11</title>
<path fill="none" stroke="black" d="M377.394,-59.737C391.828,-50.1148 415.752,-34.1654 431.935,-23.377"/>
<polygon fill="black" stroke="black" points="436.279,-20.4805 433.367,-25.1261 434.199,-21.8672 432.119,-23.254 432.119,-23.254 432.119,-23.254 434.199,-21.8672 430.871,-21.3819 436.279,-20.4805 436.279,-20.4805"/>
</g>
<!-- v7&#45;&gt;v12 -->
<g id="edge20" class="edge"><title>v7&#45;&gt;v12</title>
<path fill="none" stroke="black" d="M381.909,-62.007C410.246,-51.9634 467.377,-31.7145 499.569,-20.3048"/>
<polygon fill="black" stroke="black" points="504.513,-18.5524 500.552,-22.3436 502.156,-19.3876 499.8,-20.2228 499.8,-20.2228 499.8,-20.2228 502.156,-19.3876 499.048,-18.1021 504.513,-18.5524 504.513,-18.5524"/>
</g>
<!-- v8&#45;&gt;v10 -->
<g id="edge21" class="edge"><title>v8&#45;&gt;v10</title>
<path fill="none" stroke="black" d="M416.842,-59.0026C407.537,-49.8606 393.023,-35.6014 382.42,-25.1846"/>
<polygon fill="black" stroke="black" points="378.708,-21.5373 383.851,-23.4364 380.491,-23.2894 382.274,-25.0414 382.274,-25.0414 382.274,-25.0414 380.491,-23.2894 380.697,-26.6465 378.708,-21.5373 378.708,-21.5373"/>
</g>
<!-- v8&#45;&gt;v11 -->
<g id="edge22" class="edge"><title>v8&#45;&gt;v11</title>
<path fill="none" stroke="black" d="M430.112,-57.9883C433.677,-49.3083 438.885,-36.6286 442.929,-26.7806"/>
<polygon fill="black" stroke="black" points="444.924,-21.925 445.105,-27.405 443.974,-24.2376 443.024,-26.5501 443.024,-26.5501 443.024,-26.5501 443.974,-24.2376 440.943,-25.6953 444.924,-21.925 444.924,-21.925"/>
</g>
<!-- v8&#45;&gt;v12 -->
<g id="edge23" class="edge"><title>v8&#45;&gt;v12</title>
<path fill="none" stroke="black" d="M439.487,-60.2134C456.284,-50.5166 485.076,-33.8941 504.075,-22.9258"/>
<polygon fill="black" stroke="black" points="508.681,-20.2668 505.476,-24.7153 506.516,-21.5167 504.351,-22.7667 504.351,-22.7667 504.351,-22.7667 506.516,-21.5167 503.226,-20.8181 508.681,-20.2668 508.681,-20.2668"/>
</g>
<!-- v9&#45;&gt;v10 -->
<g id="edge24" class="edge"><title>v9&#45;&gt;v10</title>
<path fill="none" stroke="black" d="M509.198,-62.007C481.115,-51.9902 424.574,-31.8224 392.54,-20.3963"/>
<polygon fill="black" stroke="black" points="387.617,-18.6404 393.082,-18.201 389.971,-19.4803 392.326,-20.3202 392.326,-20.3202 392.326,-20.3202 389.971,-19.4803 391.57,-22.4395 387.617,-18.6404 387.617,-18.6404"/>
</g>
<!-- v9&#45;&gt;v11 -->
<g id="edge25" class="edge"><title>v9&#45;&gt;v11</title>
<path fill="none" stroke="black" d="M514.305,-59.4948C501.266,-50.0115 480.082,-34.6054 465.393,-23.9222"/>
<polygon fill="black" stroke="black" points="461.059,-20.7702 466.426,-21.8914 463.081,-22.2406 465.103,-23.7111 465.103,-23.7111 465.103,-23.7111 463.081,-22.2406 463.779,-25.5308 461.059,-20.7702 461.059,-20.7702"/>
</g>
<!-- v9&#45;&gt;v12 -->
<g id="edge26" class="edge"><title>v9&#45;&gt;v12</title>
<path fill="none" stroke="black" d="M525.464,-57.9883C525.009,-49.4941 524.348,-37.1697 523.826,-27.4169"/>
<polygon fill="black" stroke="black" points="523.552,-22.3039 526.066,-27.1763 523.686,-24.8003 523.82,-27.2967 523.82,-27.2967 523.82,-27.2967 523.686,-24.8003 521.573,-27.4171 523.552,-22.3039 523.552,-22.3039"/>
</g>
<!-- v13&#45;&gt;v14 -->
<g id="edge27" class="edge"><title>v13&#45;&gt;v14</title>
<path fill="none" stroke="black" d="M80.9223,-58.2455C86.268,-49.4409 94.2021,-36.373 100.274,-26.3724"/>
<polygon fill="black" stroke="black" points="102.917,-22.0198 102.245,-27.4614 101.619,-24.1567 100.322,-26.2937 100.322,-26.2937 100.322,-26.2937 101.619,-24.1567 98.3984,-25.126 102.917,-22.0198 102.917,-22.0198"/>
</g>
<!-- v15&#45;&gt;v20 -->
<g id="edge50" class="edge"><title>v15&#45;&gt;v20</title>
<path fill="none" stroke="green" d="M1134.06,-11C1141.36,-11 1148.65,-11 1155.95,-11"/>
</g>
<!-- v16&#45;&gt;v17 -->
<g id="edge28" class="edge"><title>v16&#45;&gt;v17</title>
<path fill="none" stroke="black" d="M822.987,-58.2455C815.6,-49.2519 804.558,-35.8101 796.28,-25.7327"/>
<polygon fill="black" stroke="black" points="792.921,-21.6427 797.833,-24.0781 794.508,-23.5745 796.094,-25.5063 796.094,-25.5063 796.094,-25.5063 794.508,-23.5745 794.356,-26.9345 792.921,-21.6427 792.921,-21.6427"/>
</g>
<!-- v16&#45;&gt;v18 -->
<g id="edge29" class="edge"><title>v16&#45;&gt;v18</title>
<path fill="none" stroke="black" d="M835.291,-57.9883C839.011,-49.3083 844.445,-36.6286 848.665,-26.7806"/>
<polygon fill="black" stroke="black" points="850.746,-21.925 850.845,-27.4071 849.762,-24.2229 848.777,-26.5207 848.777,-26.5207 848.777,-26.5207 849.762,-24.2229 846.709,-25.6344 850.746,-21.925 850.746,-21.925"/>
</g>
<!-- v16&#45;&gt;v21 -->
<g id="edge51" class="edge"><title>v16&#45;&gt;v21</title>
<path fill="none" stroke="green" d="M860.176,-69C904.279,-69 948.382,-69 992.486,-69"/>
</g>
<!-- v21&#45;&gt;v22 -->
<g id="edge30" class="edge"><title>v21&#45;&gt;v22</title>
<path fill="none" stroke="black" d="M1009.58,-59.0026C992.865,-49.2548 966.181,-33.6892 948.144,-23.167"/>
<polygon fill="black" stroke="black" points="943.755,-20.6072 949.208,-21.1831 945.915,-21.8669 948.074,-23.1266 948.074,-23.1266 948.074,-23.1266 945.915,-21.8669 946.94,-25.0701 943.755,-20.6072 943.755,-20.6072"/>
</g>
<!-- v21&#45;&gt;v23 -->
<g id="edge31" class="edge"><title>v21&#45;&gt;v23</title>
<path fill="none" stroke="black" d="M1021.78,-57.9883C1019.03,-49.4154 1015.02,-36.9411 1011.87,-27.1466"/>
<polygon fill="black" stroke="black" points="1010.31,-22.3039 1013.98,-26.3755 1011.08,-24.6839 1011.84,-27.064 1011.84,-27.064 1011.84,-27.064 1011.08,-24.6839 1009.7,-27.7526 1010.31,-22.3039 1010.31,-22.3039"/>
</g>
</g>
</svg>
