<?xml version="1.0" encoding="UTF-8" standalone="no"?>
<?xml-stylesheet href="style.css" type="text/css"?>
<!DOCTYPE svg PUBLIC "-//W3C//DTD SVG 1.1//EN"
 "http://www.w3.org/Graphics/SVG/1.1/DTD/svg11.dtd">
<!-- Generated by graphviz version 2.38.0 (20140413.2041)
 -->
<!-- Title: 41.svg Pages: 1 -->
<svg width="1225pt" height="179pt"
 viewBox="0.00 0.00 1225.00 179.00" xmlns="http://www.w3.org/2000/svg" xmlns:xlink="http://www.w3.org/1999/xlink">
<g id="graph0" class="graph" transform="scale(1 1) rotate(0) translate(4 175)">
<title>41.svg</title>
<polygon fill="white" stroke="none" points="-4,4 -4,-175 1221,-175 1221,4 -4,4"/>
<!-- r0 -->
<g id="node1" class="node"><title>r0</title>
<polygon fill="none" stroke="black" stroke-dasharray="5,2" points="185.5,-171 162.5,-171 162.5,-153 185.5,-153 185.5,-171"/>
<text text-anchor="middle" x="174" y="-159.8" font-family="serif" font-size="9.00">0</text>
</g>
<!-- v6 -->
<g id="v6_Field" class="node"><title>v6</title>
<ellipse fill="none" stroke="black" cx="25" cy="-11" rx="25" ry="11"/>
<text text-anchor="middle" x="25" y="-8.8" font-family="sans-serif" font-size="9.00">Field</text>
</g>
<!-- r0&#45;&gt;v6 -->
<g id="edge1" class="edge"><title>r0&#45;&gt;v6</title>
<path fill="none" stroke="black" d="M162.219,-153.192C142.415,-139.725 101.797,-110.618 73,-80 57.1675,-63.1662 42.3842,-40.8278 33.5179,-26.4315"/>
<polygon fill="black" stroke="black" points="30.7449,-21.8732 35.2658,-24.9754 32.0442,-24.009 33.3435,-26.1448 33.3435,-26.1448 33.3435,-26.1448 32.0442,-24.009 31.4213,-27.3142 30.7449,-21.8732 30.7449,-21.8732"/>
</g>
<!-- v7 -->
<g id="v7_Aura" class="node"><title>v7</title>
<ellipse fill="none" stroke="black" cx="113" cy="-69" rx="21.5" ry="11"/>
<text text-anchor="middle" x="113" y="-66.8" font-family="sans-serif" font-size="9.00">Aura</text>
</g>
<!-- r0&#45;&gt;v7 -->
<g id="edge2" class="edge"><title>r0&#45;&gt;v7</title>
<path fill="none" stroke="black" d="M168.587,-152.924C158.211,-137.446 135.407,-103.427 122.463,-84.1163"/>
<polygon fill="black" stroke="black" points="119.398,-79.5439 124.051,-82.4443 120.79,-81.6205 122.182,-83.6971 122.182,-83.6971 122.182,-83.6971 120.79,-81.6205 120.313,-84.9499 119.398,-79.5439 119.398,-79.5439"/>
</g>
<!-- v8 -->
<g id="v8_Aura" class="node"><title>v8</title>
<ellipse fill="none" stroke="black" cx="174" cy="-69" rx="21.5" ry="11"/>
<text text-anchor="middle" x="174" y="-66.8" font-family="sans-serif" font-size="9.00">Aura</text>
</g>
<!-- r0&#45;&gt;v8 -->
<g id="edge3" class="edge"><title>r0&#45;&gt;v8</title>
<path fill="none" stroke="black" d="M174,-152.924C174,-137.736 174,-104.696 174,-85.2178"/>
<polygon fill="black" stroke="black" points="174,-80.1095 176.25,-85.1095 174,-82.6095 174,-85.1095 174,-85.1095 174,-85.1095 174,-82.6095 171.75,-85.1096 174,-80.1095 174,-80.1095"/>
</g>
<!-- v9 -->
<g id="v9_Aura" class="node"><title>v9</title>
<ellipse fill="none" stroke="black" cx="274" cy="-69" rx="21.5" ry="11"/>
<text text-anchor="middle" x="274" y="-66.8" font-family="sans-serif" font-size="9.00">Aura</text>
</g>
<!-- r0&#45;&gt;v9 -->
<g id="edge4" class="edge"><title>r0&#45;&gt;v9</title>
<path fill="none" stroke="black" d="M182.874,-152.924C200.351,-137.02 239.337,-101.543 260.2,-82.5579"/>
<polygon fill="black" stroke="black" points="264.119,-78.9914 261.936,-84.0208 262.27,-80.6741 260.421,-82.3567 260.421,-82.3567 260.421,-82.3567 262.27,-80.6741 258.907,-80.6926 264.119,-78.9914 264.119,-78.9914"/>
</g>
<!-- v13 -->
<g id="v13_Aura" class="node"><title>v13</title>
<ellipse fill="none" stroke="black" cx="845" cy="-69" rx="21.5" ry="11"/>
<text text-anchor="middle" x="845" y="-66.8" font-family="sans-serif" font-size="9.00">Aura</text>
</g>
<!-- r0&#45;&gt;v13 -->
<g id="edge5" class="edge"><title>r0&#45;&gt;v13</title>
<path fill="none" stroke="black" d="M185.652,-159.947C234.099,-155.527 424.333,-137.73 580,-117 684.371,-103.101 711.588,-104.458 814,-80 817.032,-79.2759 820.196,-78.3999 823.294,-77.4711"/>
<polygon fill="black" stroke="black" points="828.08,-75.9823 823.974,-79.616 825.692,-76.7249 823.305,-77.4676 823.305,-77.4676 823.305,-77.4676 825.692,-76.7249 822.637,-75.3191 828.08,-75.9823 828.08,-75.9823"/>
</g>
<!-- r1 -->
<g id="node2" class="node"><title>r1</title>
<polygon fill="none" stroke="black" stroke-dasharray="5,2" points="1123.5,-171 1100.5,-171 1100.5,-153 1123.5,-153 1123.5,-171"/>
<text text-anchor="middle" x="1112" y="-159.8" font-family="serif" font-size="9.00">1</text>
</g>
<!-- v3 -->
<g id="v3_Locale" class="node"><title>v3</title>
<ellipse fill="none" stroke="black" cx="1188" cy="-69" rx="29" ry="11"/>
<text text-anchor="middle" x="1188" y="-66.8" font-family="sans-serif" font-size="9.00">Locale</text>
</g>
<!-- r1&#45;&gt;v3 -->
<g id="edge6" class="edge"><title>r1&#45;&gt;v3</title>
<path fill="none" stroke="black" d="M1118.74,-152.924C1131.71,-137.395 1160.27,-103.206 1176.37,-83.9285"/>
<polygon fill="black" stroke="black" points="1179.79,-79.8251 1178.32,-85.105 1178.19,-81.7439 1176.59,-83.6627 1176.59,-83.6627 1176.59,-83.6627 1178.19,-81.7439 1174.86,-82.2204 1179.79,-79.8251 1179.79,-79.8251"/>
</g>
<!-- v4 -->
<g id="v4_Locale" class="node"><title>v4</title>
<ellipse fill="none" stroke="black" cx="655" cy="-69" rx="29" ry="11"/>
<text text-anchor="middle" x="655" y="-66.8" font-family="sans-serif" font-size="9.00">Locale</text>
</g>
<!-- r1&#45;&gt;v4 -->
<g id="edge7" class="edge"><title>r1&#45;&gt;v4</title>
<path fill="none" stroke="black" d="M1100.24,-158.659C1041.01,-146.864 774.557,-93.8067 684.698,-75.9136"/>
<polygon fill="black" stroke="black" points="679.793,-74.9369 685.136,-73.7068 682.245,-75.4252 684.697,-75.9135 684.697,-75.9135 684.697,-75.9135 682.245,-75.4252 684.258,-78.1202 679.793,-74.9369 679.793,-74.9369"/>
</g>
<!-- v18 -->
<g id="v18_Locale" class="node"><title>v18</title>
<ellipse fill="none" stroke="black" cx="1112" cy="-69" rx="29" ry="11"/>
<text text-anchor="middle" x="1112" y="-66.8" font-family="sans-serif" font-size="9.00">Locale</text>
</g>
<!-- r1&#45;&gt;v18 -->
<g id="edge8" class="edge"><title>r1&#45;&gt;v18</title>
<path fill="none" stroke="black" d="M1112,-152.924C1112,-137.736 1112,-104.696 1112,-85.2178"/>
<polygon fill="black" stroke="black" points="1112,-80.1095 1114.25,-85.1095 1112,-82.6095 1112,-85.1095 1112,-85.1095 1112,-85.1095 1112,-82.6095 1109.75,-85.1096 1112,-80.1095 1112,-80.1095"/>
</g>
<!-- r2 -->
<g id="node3" class="node"><title>r2</title>
<polygon fill="none" stroke="black" stroke-dasharray="5,2" points="784.5,-171 761.5,-171 761.5,-153 784.5,-153 784.5,-171"/>
<text text-anchor="middle" x="773" y="-159.8" font-family="serif" font-size="9.00">2</text>
</g>
<!-- v0 -->
<g id="v0_Area(0)" class="node"><title>v0</title>
<ellipse fill="none" stroke="black" cx="773" cy="-69" rx="32.5" ry="11"/>
<text text-anchor="middle" x="773" y="-66.8" font-family="sans-serif" font-size="9.00">Area(0)</text>
</g>
<!-- r2&#45;&gt;v0 -->
<g id="edge9" class="edge"><title>r2&#45;&gt;v0</title>
<path fill="none" stroke="black" d="M773,-152.924C773,-137.736 773,-104.696 773,-85.2178"/>
<polygon fill="black" stroke="black" points="773,-80.1095 775.25,-85.1095 773,-82.6095 773,-85.1095 773,-85.1095 773,-85.1095 773,-82.6095 770.75,-85.1096 773,-80.1095 773,-80.1095"/>
</g>
<!-- v1 -->
<g id="v1_Area(1)" class="node"><title>v1</title>
<ellipse fill="none" stroke="black" cx="461" cy="-69" rx="32.5" ry="11"/>
<text text-anchor="middle" x="461" y="-66.8" font-family="sans-serif" font-size="9.00">Area(1)</text>
</g>
<!-- r2&#45;&gt;v1 -->
<g id="edge10" class="edge"><title>r2&#45;&gt;v1</title>
<path fill="none" stroke="black" d="M761.258,-159.549C728.766,-155.326 635.169,-141.744 561,-117 532.361,-107.446 501.14,-91.8752 481.336,-81.2969"/>
<polygon fill="black" stroke="black" points="476.8,-78.8546 482.269,-79.2441 479.002,-80.0399 481.203,-81.2252 481.203,-81.2252 481.203,-81.2252 479.002,-80.0399 480.136,-83.2062 476.8,-78.8546 476.8,-78.8546"/>
</g>
<!-- v23 -->
<g id="v23_Area(2)" class="node"><title>v23</title>
<ellipse fill="none" stroke="black" cx="1032" cy="-69" rx="32.5" ry="11"/>
<text text-anchor="middle" x="1032" y="-66.8" font-family="sans-serif" font-size="9.00">Area(2)</text>
</g>
<!-- r2&#45;&gt;v23 -->
<g id="edge11" class="edge"><title>r2&#45;&gt;v23</title>
<path fill="none" stroke="black" d="M784.78,-158.676C812.078,-153.112 881.561,-137.916 937,-117 963.823,-106.88 993.183,-91.6703 1012.06,-81.314"/>
<polygon fill="black" stroke="black" points="1016.62,-78.7916 1013.33,-83.1792 1014.43,-80.0007 1012.25,-81.2099 1012.25,-81.2099 1012.25,-81.2099 1014.43,-80.0007 1011.16,-79.2405 1016.62,-78.7916 1016.62,-78.7916"/>
</g>
<!-- e2 -->
<g id="node4" class="node"><title>e2</title>
</g>
<!-- v2 -->
<g id="v2_GPS(11)" class="node"><title>v2</title>
<ellipse fill="none" stroke="black" cx="340" cy="-11" rx="32.5" ry="11"/>
<text text-anchor="middle" x="340" y="-8.8" font-family="sans-serif" font-size="9.00">GPS(11)</text>
</g>
<!-- e2&#45;&gt;v2 -->
<g id="edge34" class="edge"><title>e2&#45;&gt;v2</title>
<path fill="none" stroke="green" d="M298,-116C298,-116 325.461,-48.0023 335.973,-21.972"/>
</g>
<!-- v5 -->
<g id="v5_Lion" class="node"><title>v5</title>
<ellipse fill="none" stroke="black" cx="576" cy="-11" rx="21.5" ry="11"/>
<text text-anchor="middle" x="576" y="-8.8" font-family="sans-serif" font-size="9.00">Lion</text>
</g>
<!-- e2&#45;&gt;v5 -->
<g id="edge35" class="edge"><title>e2&#45;&gt;v5</title>
<path fill="none" stroke="green" d="M298,-116C298,-116 419.459,-120.784 502,-80 530.782,-65.7786 556.418,-36.8716 568.562,-21.7363"/>
</g>
<!-- e2&#45;&gt;v7 -->
<g id="edge36" class="edge"><title>e2&#45;&gt;v7</title>
<path fill="none" stroke="green" d="M298,-116C298,-116 211.066,-99.2032 143,-80 138.773,-78.8074 134.258,-77.3837 130.048,-75.9896"/>
</g>
<!-- v10 -->
<g id="v10_Child" class="node"><title>v10</title>
<ellipse fill="none" stroke="black" cx="117" cy="-11" rx="25" ry="11"/>
<text text-anchor="middle" x="117" y="-8.8" font-family="sans-serif" font-size="9.00">Child</text>
</g>
<!-- e2&#45;&gt;v10 -->
<g id="edge37" class="edge"><title>e2&#45;&gt;v10</title>
<path fill="none" stroke="green" d="M298,-116C298,-116 113.454,-117.13 82,-80 66.3802,-61.5615 90.66,-34.9709 106.002,-21.1388"/>
</g>
<!-- e3 -->
<g id="node5" class="node"><title>e3</title>
</g>
<!-- e3&#45;&gt;v8 -->
<g id="edge38" class="edge"><title>e3&#45;&gt;v8</title>
<path fill="none" stroke="green" d="M353,-116C353,-116 273.356,-96.7717 210,-80 204.231,-78.4728 197.959,-76.7518 192.291,-75.1735"/>
</g>
<!-- v11 -->
<g id="v11_Child" class="node"><title>v11</title>
<ellipse fill="none" stroke="black" cx="188" cy="-11" rx="25" ry="11"/>
<text text-anchor="middle" x="188" y="-8.8" font-family="sans-serif" font-size="9.00">Child</text>
</g>
<!-- e3&#45;&gt;v11 -->
<g id="edge39" class="edge"><title>e3&#45;&gt;v11</title>
<path fill="none" stroke="green" d="M353,-116C353,-116 285.354,-109.194 243,-80 220.247,-64.3168 202.047,-36.5638 193.427,-21.8295"/>
</g>
<!-- v16 -->
<g id="v16_Lion" class="node"><title>v16</title>
<ellipse fill="none" stroke="black" cx="640" cy="-11" rx="21.5" ry="11"/>
<text text-anchor="middle" x="640" y="-8.8" font-family="sans-serif" font-size="9.00">Lion</text>
</g>
<!-- e3&#45;&gt;v16 -->
<g id="edge40" class="edge"><title>e3&#45;&gt;v16</title>
<path fill="none" stroke="green" d="M353,-116C353,-116 456.646,-110.114 532,-80 570.681,-64.5417 610.794,-35.1149 629.375,-20.5726"/>
</g>
<!-- v21 -->
<g id="v21_GPS(2)" class="node"><title>v21</title>
<ellipse fill="none" stroke="black" cx="423" cy="-11" rx="29" ry="11"/>
<text text-anchor="middle" x="423" y="-8.8" font-family="sans-serif" font-size="9.00">GPS(2)</text>
</g>
<!-- e3&#45;&gt;v21 -->
<g id="edge41" class="edge"><title>e3&#45;&gt;v21</title>
<path fill="none" stroke="green" d="M353,-116C353,-116 398.768,-48.0023 416.288,-21.972"/>
</g>
<!-- e4 -->
<g id="node6" class="node"><title>e4</title>
</g>
<!-- e4&#45;&gt;v9 -->
<g id="edge42" class="edge"><title>e4&#45;&gt;v9</title>
<path fill="none" stroke="green" d="M571,-116C571,-116 361.515,-83.5545 294.414,-73.1618"/>
</g>
<!-- v12 -->
<g id="v12_Child" class="node"><title>v12</title>
<ellipse fill="none" stroke="black" cx="262" cy="-11" rx="25" ry="11"/>
<text text-anchor="middle" x="262" y="-8.8" font-family="sans-serif" font-size="9.00">Child</text>
</g>
<!-- e4&#45;&gt;v12 -->
<g id="edge43" class="edge"><title>e4&#45;&gt;v12</title>
<path fill="none" stroke="green" d="M571,-116C571,-116 484.886,-101.881 419,-80 365.721,-62.3059 305.538,-33.6742 277.685,-19.8993"/>
</g>
<!-- v17 -->
<g id="v17_Lion" class="node"><title>v17</title>
<ellipse fill="none" stroke="black" cx="703" cy="-11" rx="21.5" ry="11"/>
<text text-anchor="middle" x="703" y="-8.8" font-family="sans-serif" font-size="9.00">Lion</text>
</g>
<!-- e4&#45;&gt;v17 -->
<g id="edge44" class="edge"><title>e4&#45;&gt;v17</title>
<path fill="none" stroke="green" d="M571,-116C571,-116 655.938,-122.691 693,-80 707.081,-63.7808 706.304,-36.7517 704.602,-22.1326"/>
</g>
<!-- v22 -->
<g id="v22_GPS(3)" class="node"><title>v22</title>
<ellipse fill="none" stroke="black" cx="505" cy="-11" rx="29" ry="11"/>
<text text-anchor="middle" x="505" y="-8.8" font-family="sans-serif" font-size="9.00">GPS(3)</text>
</g>
<!-- e4&#45;&gt;v22 -->
<g id="edge45" class="edge"><title>e4&#45;&gt;v22</title>
<path fill="none" stroke="green" d="M571,-116C571,-116 527.848,-48.0023 511.328,-21.972"/>
</g>
<!-- e5 -->
<g id="node7" class="node"><title>e5</title>
</g>
<!-- e5&#45;&gt;v13 -->
<g id="edge46" class="edge"><title>e5&#45;&gt;v13</title>
<path fill="none" stroke="green" d="M928,-116C928,-116 882.28,-90.6613 858.706,-77.596"/>
</g>
<!-- v14 -->
<g id="v14_Child" class="node"><title>v14</title>
<ellipse fill="none" stroke="black" cx="874" cy="-11" rx="25" ry="11"/>
<text text-anchor="middle" x="874" y="-8.8" font-family="sans-serif" font-size="9.00">Child</text>
</g>
<!-- e5&#45;&gt;v14 -->
<g id="edge47" class="edge"><title>e5&#45;&gt;v14</title>
<path fill="none" stroke="green" d="M928,-116C928,-116 892.694,-48.0023 879.178,-21.972"/>
</g>
<!-- v19 -->
<g id="v19_Lion" class="node"><title>v19</title>
<ellipse fill="none" stroke="black" cx="1057" cy="-11" rx="21.5" ry="11"/>
<text text-anchor="middle" x="1057" y="-8.8" font-family="sans-serif" font-size="9.00">Lion</text>
</g>
<!-- e5&#45;&gt;v19 -->
<g id="edge48" class="edge"><title>e5&#45;&gt;v19</title>
<path fill="none" stroke="green" d="M928,-116C928,-116 960.585,-81.6344 990,-58 1008.04,-43.5064 1030.46,-28.7043 1044.25,-19.9372"/>
</g>
<!-- v24 -->
<g id="v24_GPS(4)" class="node"><title>v24</title>
<ellipse fill="none" stroke="black" cx="954" cy="-11" rx="29" ry="11"/>
<text text-anchor="middle" x="954" y="-8.8" font-family="sans-serif" font-size="9.00">GPS(4)</text>
</g>
<!-- e5&#45;&gt;v24 -->
<g id="edge49" class="edge"><title>e5&#45;&gt;v24</title>
<path fill="none" stroke="green" d="M928,-116C928,-116 944.999,-48.0023 951.507,-21.972"/>
</g>
<!-- v0&#45;&gt;v3 -->
<g id="edge32" class="edge"><title>v0&#45;&gt;v3</title>
<path fill="none" stroke="green" d="M786.138,-79.2189C795.752,-86.0195 809.433,-94.3504 823,-98 891.241,-116.358 1073.02,-117.286 1141,-98 1153.91,-94.3366 1166.76,-86.007 1175.75,-79.2104"/>
</g>
<!-- v20 -->
<g id="v20_GPS(0)" class="node"><title>v20</title>
<ellipse fill="none" stroke="black" cx="773" cy="-11" rx="29" ry="11"/>
<text text-anchor="middle" x="773" y="-8.8" font-family="sans-serif" font-size="9.00">GPS(0)</text>
</g>
<!-- v0&#45;&gt;v20 -->
<g id="edge12" class="edge"><title>v0&#45;&gt;v20</title>
<path fill="none" stroke="black" d="M773,-57.9883C773,-49.4941 773,-37.1697 773,-27.4169"/>
<polygon fill="black" stroke="black" points="773,-22.3039 775.25,-27.3038 773,-24.8039 773,-27.3039 773,-27.3039 773,-27.3039 773,-24.8039 770.75,-27.3039 773,-22.3039 773,-22.3039"/>
</g>
<!-- v1&#45;&gt;v2 -->
<g id="edge13" class="edge"><title>v1&#45;&gt;v2</title>
<path fill="none" stroke="black" d="M443.146,-59.737C421.788,-49.8524 386.003,-33.2908 362.701,-22.5061"/>
<polygon fill="black" stroke="black" points="357.927,-20.2969 363.41,-20.3551 360.196,-21.3469 362.465,-22.397 362.465,-22.397 362.465,-22.397 360.196,-21.3469 361.52,-24.4389 357.927,-20.2969 357.927,-20.2969"/>
</g>
<!-- v1&#45;&gt;v4 -->
<g id="edge33" class="edge"><title>v1&#45;&gt;v4</title>
<path fill="none" stroke="green" d="M493.586,-69C537.723,-69 581.859,-69 625.996,-69"/>
</g>
<!-- v1&#45;&gt;v21 -->
<g id="edge14" class="edge"><title>v1&#45;&gt;v21</title>
<path fill="none" stroke="black" d="M454.206,-57.9883C448.208,-49.149 439.396,-36.162 432.664,-26.2414"/>
<polygon fill="black" stroke="black" points="429.735,-21.925 434.404,-24.799 431.139,-23.9937 432.542,-26.0624 432.542,-26.0624 432.542,-26.0624 431.139,-23.9937 430.681,-27.3258 429.735,-21.925 429.735,-21.925"/>
</g>
<!-- v1&#45;&gt;v22 -->
<g id="edge15" class="edge"><title>v1&#45;&gt;v22</title>
<path fill="none" stroke="black" d="M468.664,-58.2455C475.731,-49.2519 486.292,-35.8101 494.21,-25.7327"/>
<polygon fill="black" stroke="black" points="497.424,-21.6427 496.104,-26.9644 495.879,-23.6085 494.334,-25.5743 494.334,-25.5743 494.334,-25.5743 495.879,-23.6085 492.565,-24.1842 497.424,-21.6427 497.424,-21.6427"/>
</g>
<!-- v15 -->
<g id="v15_Impala" class="node"><title>v15</title>
<ellipse fill="none" stroke="black" cx="1188" cy="-11" rx="29" ry="11"/>
<text text-anchor="middle" x="1188" y="-8.8" font-family="sans-serif" font-size="9.00">Impala</text>
</g>
<!-- v3&#45;&gt;v15 -->
<g id="edge16" class="edge"><title>v3&#45;&gt;v15</title>
<path fill="none" stroke="black" d="M1188,-57.9883C1188,-49.4941 1188,-37.1697 1188,-27.4169"/>
<polygon fill="black" stroke="black" points="1188,-22.3039 1190.25,-27.3038 1188,-24.8039 1188,-27.3039 1188,-27.3039 1188,-27.3039 1188,-24.8039 1185.75,-27.3039 1188,-22.3039 1188,-22.3039"/>
</g>
<!-- v4&#45;&gt;v5 -->
<g id="edge17" class="edge"><title>v4&#45;&gt;v5</title>
<path fill="none" stroke="black" d="M642.307,-59.0026C628.71,-49.364 607.088,-34.0372 592.255,-23.5225"/>
<polygon fill="black" stroke="black" points="587.886,-20.4254 593.266,-21.4814 589.925,-21.8712 591.965,-23.317 591.965,-23.317 591.965,-23.317 589.925,-21.8712 590.664,-25.1526 587.886,-20.4254 587.886,-20.4254"/>
</g>
<!-- v4&#45;&gt;v16 -->
<g id="edge18" class="edge"><title>v4&#45;&gt;v16</title>
<path fill="none" stroke="black" d="M652.318,-57.9883C649.993,-49.3083 646.597,-36.6286 643.959,-26.7806"/>
<polygon fill="black" stroke="black" points="642.658,-21.925 646.126,-26.1726 643.305,-24.3399 643.952,-26.7547 643.952,-26.7547 643.952,-26.7547 643.305,-24.3399 641.779,-27.3369 642.658,-21.925 642.658,-21.925"/>
</g>
<!-- v4&#45;&gt;v17 -->
<g id="edge19" class="edge"><title>v4&#45;&gt;v17</title>
<path fill="none" stroke="black" d="M663.361,-58.2455C671.233,-49.061 683.082,-35.2372 691.775,-25.0955"/>
<polygon fill="black" stroke="black" points="695.054,-21.2708 693.508,-26.5314 693.427,-23.169 691.8,-25.0671 691.8,-25.0671 691.8,-25.0671 693.427,-23.169 690.091,-23.6028 695.054,-21.2708 695.054,-21.2708"/>
</g>
<!-- v7&#45;&gt;v10 -->
<g id="edge20" class="edge"><title>v7&#45;&gt;v10</title>
<path fill="none" stroke="black" d="M113.715,-57.9883C114.322,-49.4941 115.202,-37.1697 115.899,-27.4169"/>
<polygon fill="black" stroke="black" points="116.264,-22.3039 118.152,-27.4515 116.086,-24.7975 115.908,-27.2912 115.908,-27.2912 115.908,-27.2912 116.086,-24.7975 113.663,-27.1308 116.264,-22.3039 116.264,-22.3039"/>
</g>
<!-- v7&#45;&gt;v11 -->
<g id="edge21" class="edge"><title>v7&#45;&gt;v11</title>
<path fill="none" stroke="black" d="M124.391,-59.4948C137.017,-50.067 157.484,-34.7854 171.781,-24.1101"/>
<polygon fill="black" stroke="black" points="176.005,-20.9566 173.344,-25.751 174.001,-22.4524 171.998,-23.9481 171.998,-23.9481 171.998,-23.9481 174.001,-22.4524 170.652,-22.1452 176.005,-20.9566 176.005,-20.9566"/>
</g>
<!-- v7&#45;&gt;v12 -->
<g id="edge22" class="edge"><title>v7&#45;&gt;v12</title>
<path fill="none" stroke="black" d="M129.515,-61.7931C156.16,-51.7789 208.701,-32.0317 238.997,-20.6453"/>
<polygon fill="black" stroke="black" points="244.022,-18.7566 240.134,-22.6219 241.682,-19.6362 239.342,-20.5158 239.342,-20.5158 239.342,-20.5158 241.682,-19.6362 238.551,-18.4096 244.022,-18.7566 244.022,-18.7566"/>
</g>
<!-- v8&#45;&gt;v10 -->
<g id="edge23" class="edge"><title>v8&#45;&gt;v10</title>
<path fill="none" stroke="black" d="M164.842,-59.0026C155.537,-49.8606 141.023,-35.6014 130.42,-25.1846"/>
<polygon fill="black" stroke="black" points="126.708,-21.5373 131.851,-23.4364 128.491,-23.2894 130.274,-25.0414 130.274,-25.0414 130.274,-25.0414 128.491,-23.2894 128.697,-26.6465 126.708,-21.5373 126.708,-21.5373"/>
</g>
<!-- v8&#45;&gt;v11 -->
<g id="edge24" class="edge"><title>v8&#45;&gt;v11</title>
<path fill="none" stroke="black" d="M176.503,-57.9883C178.626,-49.4941 181.708,-37.1697 184.146,-27.4169"/>
<polygon fill="black" stroke="black" points="185.424,-22.3039 186.394,-27.7003 184.818,-24.7292 184.211,-27.1546 184.211,-27.1546 184.211,-27.1546 184.818,-24.7292 182.028,-26.6089 185.424,-22.3039 185.424,-22.3039"/>
</g>
<!-- v8&#45;&gt;v12 -->
<g id="edge25" class="edge"><title>v8&#45;&gt;v12</title>
<path fill="none" stroke="black" d="M186.608,-59.9766C201.726,-50.3564 227.159,-34.1716 244.255,-23.2923"/>
<polygon fill="black" stroke="black" points="248.84,-20.3743 245.83,-24.957 246.731,-21.7165 244.622,-23.0587 244.622,-23.0587 244.622,-23.0587 246.731,-21.7165 243.414,-21.1605 248.84,-20.3743 248.84,-20.3743"/>
</g>
<!-- v9&#45;&gt;v10 -->
<g id="edge26" class="edge"><title>v9&#45;&gt;v10</title>
<path fill="none" stroke="black" d="M257.198,-62.007C229.115,-51.9902 172.574,-31.8224 140.54,-20.3963"/>
<polygon fill="black" stroke="black" points="135.617,-18.6404 141.082,-18.201 137.971,-19.4803 140.326,-20.3202 140.326,-20.3202 140.326,-20.3202 137.971,-19.4803 139.57,-22.4395 135.617,-18.6404 135.617,-18.6404"/>
</g>
<!-- v9&#45;&gt;v11 -->
<g id="edge27" class="edge"><title>v9&#45;&gt;v11</title>
<path fill="none" stroke="black" d="M261.678,-59.9766C246.989,-50.4117 222.335,-34.3574 205.631,-23.4804"/>
<polygon fill="black" stroke="black" points="201.145,-20.5595 206.563,-21.4024 203.24,-21.9237 205.335,-23.2879 205.335,-23.2879 205.335,-23.2879 203.24,-21.9237 204.107,-25.1734 201.145,-20.5595 201.145,-20.5595"/>
</g>
<!-- v9&#45;&gt;v12 -->
<g id="edge28" class="edge"><title>v9&#45;&gt;v12</title>
<path fill="none" stroke="black" d="M271.855,-57.9883C270.034,-49.4941 267.393,-37.1697 265.304,-27.4169"/>
<polygon fill="black" stroke="black" points="264.208,-22.3039 267.456,-26.7214 264.732,-24.7484 265.256,-27.1929 265.256,-27.1929 265.256,-27.1929 264.732,-24.7484 263.056,-27.6644 264.208,-22.3039 264.208,-22.3039"/>
</g>
<!-- v13&#45;&gt;v14 -->
<g id="edge29" class="edge"><title>v13&#45;&gt;v14</title>
<path fill="none" stroke="black" d="M850.051,-58.2455C854.57,-49.5202 861.256,-36.6082 866.417,-26.6435"/>
<polygon fill="black" stroke="black" points="868.811,-22.0198 868.51,-27.4944 867.662,-24.2397 866.512,-26.4597 866.512,-26.4597 866.512,-26.4597 867.662,-24.2397 864.514,-25.425 868.811,-22.0198 868.811,-22.0198"/>
</g>
<!-- v15&#45;&gt;v20 -->
<g id="edge50" class="edge"><title>v15&#45;&gt;v20</title>
<path fill="none" stroke="green" d="M1166.62,-18.4621C1144.88,-25.6253 1110.07,-35.9379 1079,-40 977.641,-53.2531 949.529,-58.5283 849,-40 828.167,-36.1604 805.655,-26.8639 790.584,-19.8236"/>
</g>
<!-- v18&#45;&gt;v19 -->
<g id="edge30" class="edge"><title>v18&#45;&gt;v19</title>
<path fill="none" stroke="black" d="M1102.67,-58.5004C1093.61,-49.2734 1079.78,-35.1949 1069.71,-24.9459"/>
<polygon fill="black" stroke="black" points="1066.19,-21.3593 1071.3,-23.35 1067.94,-23.143 1069.7,-24.9266 1069.7,-24.9266 1069.7,-24.9266 1067.94,-23.143 1068.09,-26.5032 1066.19,-21.3593 1066.19,-21.3593"/>
</g>
<!-- v18&#45;&gt;v23 -->
<g id="edge51" class="edge"><title>v18&#45;&gt;v23</title>
<path fill="none" stroke="green" d="M1082.68,-69C1076.62,-69 1070.56,-69 1064.5,-69"/>
</g>
<!-- v23&#45;&gt;v24 -->
<g id="edge31" class="edge"><title>v23&#45;&gt;v24</title>
<path fill="none" stroke="black" d="M1019.12,-58.7527C1005.94,-49.2933 985.407,-34.549 970.926,-24.1517"/>
<polygon fill="black" stroke="black" points="966.64,-21.0752 972.014,-22.1635 968.671,-22.5332 970.702,-23.9913 970.702,-23.9913 970.702,-23.9913 968.671,-22.5332 969.39,-25.819 966.64,-21.0752 966.64,-21.0752"/>
</g>
</g>
</svg>
