<?xml version="1.0" encoding="UTF-8" standalone="no"?>
<?xml-stylesheet href="style.css" type="text/css"?>
<!DOCTYPE svg PUBLIC "-//W3C//DTD SVG 1.1//EN"
 "http://www.w3.org/Graphics/SVG/1.1/DTD/svg11.dtd">
<!-- Generated by graphviz version 2.38.0 (20140413.2041)
 -->
<!-- Title: 5.svg Pages: 1 -->
<svg width="1224pt" height="179pt"
 viewBox="0.00 0.00 1223.50 179.00" xmlns="http://www.w3.org/2000/svg" xmlns:xlink="http://www.w3.org/1999/xlink">
<g id="graph0" class="graph" transform="scale(1 1) rotate(0) translate(4 175)">
<title>5.svg</title>
<polygon fill="white" stroke="none" points="-4,4 -4,-175 1219.5,-175 1219.5,4 -4,4"/>
<!-- r0 -->
<g id="node1" class="node"><title>r0</title>
<polygon fill="none" stroke="black" stroke-dasharray="5,2" points="185.5,-171 162.5,-171 162.5,-153 185.5,-153 185.5,-171"/>
<text text-anchor="middle" x="174" y="-159.8" font-family="serif" font-size="9.00">0</text>
</g>
<!-- v4 -->
<g id="v4_Field" class="node"><title>v4</title>
<ellipse fill="none" stroke="black" cx="25" cy="-11" rx="25" ry="11"/>
<text text-anchor="middle" x="25" y="-8.8" font-family="sans-serif" font-size="9.00">Field</text>
</g>
<!-- r0&#45;&gt;v4 -->
<g id="edge1" class="edge"><title>r0&#45;&gt;v4</title>
<path fill="none" stroke="black" d="M162.222,-152.862C142.816,-139.14 103.443,-109.953 75,-80 58.8635,-63.0068 43.3756,-40.7082 34.0231,-26.3641"/>
<polygon fill="black" stroke="black" points="31.0945,-21.8237 35.6956,-24.8059 32.4496,-23.9246 33.8047,-26.0255 33.8047,-26.0255 33.8047,-26.0255 32.4496,-23.9246 31.9139,-27.2451 31.0945,-21.8237 31.0945,-21.8237"/>
</g>
<!-- v5 -->
<g id="v5_Aura" class="node"><title>v5</title>
<ellipse fill="none" stroke="black" cx="235" cy="-69" rx="21.5" ry="11"/>
<text text-anchor="middle" x="235" y="-66.8" font-family="sans-serif" font-size="9.00">Aura</text>
</g>
<!-- r0&#45;&gt;v5 -->
<g id="edge2" class="edge"><title>r0&#45;&gt;v5</title>
<path fill="none" stroke="black" d="M179.413,-152.924C189.789,-137.446 212.593,-103.427 225.537,-84.1163"/>
<polygon fill="black" stroke="black" points="228.602,-79.5439 227.687,-84.9499 227.21,-81.6205 225.818,-83.6971 225.818,-83.6971 225.818,-83.6971 227.21,-81.6205 223.949,-82.4443 228.602,-79.5439 228.602,-79.5439"/>
</g>
<!-- v6 -->
<g id="v6_Aura" class="node"><title>v6</title>
<ellipse fill="none" stroke="black" cx="174" cy="-69" rx="21.5" ry="11"/>
<text text-anchor="middle" x="174" y="-66.8" font-family="sans-serif" font-size="9.00">Aura</text>
</g>
<!-- r0&#45;&gt;v6 -->
<g id="edge3" class="edge"><title>r0&#45;&gt;v6</title>
<path fill="none" stroke="black" d="M174,-152.924C174,-137.736 174,-104.696 174,-85.2178"/>
<polygon fill="black" stroke="black" points="174,-80.1095 176.25,-85.1095 174,-82.6095 174,-85.1095 174,-85.1095 174,-85.1095 174,-82.6095 171.75,-85.1096 174,-80.1095 174,-80.1095"/>
</g>
<!-- v7 -->
<g id="v7_Aura" class="node"><title>v7</title>
<ellipse fill="none" stroke="black" cx="113" cy="-69" rx="21.5" ry="11"/>
<text text-anchor="middle" x="113" y="-66.8" font-family="sans-serif" font-size="9.00">Aura</text>
</g>
<!-- r0&#45;&gt;v7 -->
<g id="edge4" class="edge"><title>r0&#45;&gt;v7</title>
<path fill="none" stroke="black" d="M165.157,-152.911C156.404,-144.557 143.038,-130.826 134,-117 127.42,-106.935 121.956,-94.4673 118.252,-84.9025"/>
<polygon fill="black" stroke="black" points="116.479,-80.1934 120.347,-84.08 117.36,-82.5331 118.241,-84.8728 118.241,-84.8728 118.241,-84.8728 117.36,-82.5331 116.135,-85.6656 116.479,-80.1934 116.479,-80.1934"/>
</g>
<!-- v11 -->
<g id="v11_Aura" class="node"><title>v11</title>
<ellipse fill="none" stroke="black" cx="920" cy="-69" rx="21.5" ry="11"/>
<text text-anchor="middle" x="920" y="-66.8" font-family="sans-serif" font-size="9.00">Aura</text>
</g>
<!-- r0&#45;&gt;v11 -->
<g id="edge5" class="edge"><title>r0&#45;&gt;v11</title>
<path fill="none" stroke="black" d="M185.936,-160.538C254.807,-157.687 608.129,-140.578 889,-80 892.12,-79.3271 895.371,-78.4649 898.543,-77.5295"/>
<polygon fill="black" stroke="black" points="903.434,-76.0162 899.323,-79.6437 901.046,-76.7552 898.658,-77.4942 898.658,-77.4942 898.658,-77.4942 901.046,-76.7552 897.992,-75.3448 903.434,-76.0162 903.434,-76.0162"/>
</g>
<!-- r1 -->
<g id="node2" class="node"><title>r1</title>
<polygon fill="none" stroke="black" stroke-dasharray="5,2" points="581.5,-171 558.5,-171 558.5,-153 581.5,-153 581.5,-171"/>
<text text-anchor="middle" x="570" y="-159.8" font-family="serif" font-size="9.00">1</text>
</g>
<!-- v2 -->
<g id="v2_Locale" class="node"><title>v2</title>
<ellipse fill="none" stroke="black" cx="456" cy="-69" rx="29" ry="11"/>
<text text-anchor="middle" x="456" y="-66.8" font-family="sans-serif" font-size="9.00">Locale</text>
</g>
<!-- r1&#45;&gt;v2 -->
<g id="edge6" class="edge"><title>r1&#45;&gt;v2</title>
<path fill="none" stroke="black" d="M558.466,-155.64C543.229,-148.238 515.988,-133.872 496,-117 484.394,-107.203 473.377,-93.8456 465.855,-83.8741"/>
<polygon fill="black" stroke="black" points="462.854,-79.8282 467.64,-82.5035 464.343,-81.8361 465.832,-83.844 465.832,-83.844 465.832,-83.844 464.343,-81.8361 464.025,-85.1845 462.854,-79.8282 462.854,-79.8282"/>
</g>
<!-- v13 -->
<g id="v13_Locale" class="node"><title>v13</title>
<ellipse fill="none" stroke="black" cx="570" cy="-69" rx="29" ry="11"/>
<text text-anchor="middle" x="570" y="-66.8" font-family="sans-serif" font-size="9.00">Locale</text>
</g>
<!-- r1&#45;&gt;v13 -->
<g id="edge7" class="edge"><title>r1&#45;&gt;v13</title>
<path fill="none" stroke="black" d="M570,-152.924C570,-137.736 570,-104.696 570,-85.2178"/>
<polygon fill="black" stroke="black" points="570,-80.1095 572.25,-85.1095 570,-82.6095 570,-85.1095 570,-85.1095 570,-85.1095 570,-82.6095 567.75,-85.1096 570,-80.1095 570,-80.1095"/>
</g>
<!-- v17 -->
<g id="v17_Locale" class="node"><title>v17</title>
<ellipse fill="none" stroke="black" cx="1103" cy="-69" rx="29" ry="11"/>
<text text-anchor="middle" x="1103" y="-66.8" font-family="sans-serif" font-size="9.00">Locale</text>
</g>
<!-- r1&#45;&gt;v17 -->
<g id="edge8" class="edge"><title>r1&#45;&gt;v17</title>
<path fill="none" stroke="black" d="M581.79,-161.127C632.503,-161.395 836.757,-159.631 997,-117 1028.47,-108.628 1062.49,-92.0695 1083.28,-81.0137"/>
<polygon fill="black" stroke="black" points="1087.76,-78.6055 1084.42,-82.9542 1085.56,-79.7889 1083.35,-80.9722 1083.35,-80.9722 1083.35,-80.9722 1085.56,-79.7889 1082.29,-78.9902 1087.76,-78.6055 1087.76,-78.6055"/>
</g>
<!-- r2 -->
<g id="node3" class="node"><title>r2</title>
<polygon fill="none" stroke="black" stroke-dasharray="5,2" points="859.5,-171 836.5,-171 836.5,-153 859.5,-153 859.5,-171"/>
<text text-anchor="middle" x="848" y="-159.8" font-family="serif" font-size="9.00">2</text>
</g>
<!-- v0 -->
<g id="v0_Area(1)" class="node"><title>v0</title>
<ellipse fill="none" stroke="black" cx="726" cy="-69" rx="32.5" ry="11"/>
<text text-anchor="middle" x="726" y="-66.8" font-family="sans-serif" font-size="9.00">Area(1)</text>
</g>
<!-- r2&#45;&gt;v0 -->
<g id="edge9" class="edge"><title>r2&#45;&gt;v0</title>
<path fill="none" stroke="black" d="M837.173,-152.924C815.784,-136.97 767.987,-101.319 742.595,-82.3783"/>
<polygon fill="black" stroke="black" points="738.423,-79.266 743.776,-80.4519 740.426,-80.7607 742.43,-82.2555 742.43,-82.2555 742.43,-82.2555 740.426,-80.7607 741.085,-84.059 738.423,-79.266 738.423,-79.266"/>
</g>
<!-- v19 -->
<g id="v19_Area(0)" class="node"><title>v19</title>
<ellipse fill="none" stroke="black" cx="848" cy="-69" rx="32.5" ry="11"/>
<text text-anchor="middle" x="848" y="-66.8" font-family="sans-serif" font-size="9.00">Area(0)</text>
</g>
<!-- r2&#45;&gt;v19 -->
<g id="edge10" class="edge"><title>r2&#45;&gt;v19</title>
<path fill="none" stroke="black" d="M848,-152.924C848,-137.736 848,-104.696 848,-85.2178"/>
<polygon fill="black" stroke="black" points="848,-80.1095 850.25,-85.1095 848,-82.6095 848,-85.1095 848,-85.1095 848,-85.1095 848,-82.6095 845.75,-85.1096 848,-80.1095 848,-80.1095"/>
</g>
<!-- v23 -->
<g id="v23_Area(2)" class="node"><title>v23</title>
<ellipse fill="none" stroke="black" cx="1183" cy="-69" rx="32.5" ry="11"/>
<text text-anchor="middle" x="1183" y="-66.8" font-family="sans-serif" font-size="9.00">Area(2)</text>
</g>
<!-- r2&#45;&gt;v23 -->
<g id="edge11" class="edge"><title>r2&#45;&gt;v23</title>
<path fill="none" stroke="black" d="M859.585,-159.452C892.528,-154.883 989.37,-140.302 1067,-117 1100.42,-106.968 1137.55,-91.0294 1160.59,-80.5408"/>
<polygon fill="black" stroke="black" points="1165.29,-78.3895 1161.68,-82.5175 1163.02,-79.4307 1160.74,-80.4719 1160.74,-80.4719 1160.74,-80.4719 1163.02,-79.4307 1159.81,-78.4263 1165.29,-78.3895 1165.29,-78.3895"/>
</g>
<!-- e1 -->
<g id="node4" class="node"><title>e1</title>
</g>
<!-- v1 -->
<g id="v1_GPS(2)" class="node"><title>v1</title>
<ellipse fill="none" stroke="black" cx="648" cy="-11" rx="29" ry="11"/>
<text text-anchor="middle" x="648" y="-8.8" font-family="sans-serif" font-size="9.00">GPS(2)</text>
</g>
<!-- e1&#45;&gt;v1 -->
<g id="edge33" class="edge"><title>e1&#45;&gt;v1</title>
<path fill="none" stroke="green" d="M144,-116C144,-116 564.14,-107.391 608,-80 629.259,-66.7231 640.565,-37.6799 645.283,-22.1958"/>
</g>
<!-- v3 -->
<g id="v3_Lion" class="node"><title>v3</title>
<ellipse fill="none" stroke="black" cx="339" cy="-11" rx="21.5" ry="11"/>
<text text-anchor="middle" x="339" y="-8.8" font-family="sans-serif" font-size="9.00">Lion</text>
</g>
<!-- e1&#45;&gt;v3 -->
<g id="edge34" class="edge"><title>e1&#45;&gt;v3</title>
<path fill="none" stroke="green" d="M144,-116C144,-116 216.203,-107.692 265,-80 292.921,-64.155 318.934,-35.9583 331.358,-21.351"/>
</g>
<!-- e1&#45;&gt;v7 -->
<g id="edge35" class="edge"><title>e1&#45;&gt;v7</title>
<path fill="none" stroke="green" d="M144,-116C144,-116 128.674,-93.2583 119.574,-79.7554"/>
</g>
<!-- v10 -->
<g id="v10_Child" class="node"><title>v10</title>
<ellipse fill="none" stroke="black" cx="110" cy="-11" rx="25" ry="11"/>
<text text-anchor="middle" x="110" y="-8.8" font-family="sans-serif" font-size="9.00">Child</text>
</g>
<!-- e1&#45;&gt;v10 -->
<g id="edge36" class="edge"><title>e1&#45;&gt;v10</title>
<path fill="none" stroke="green" d="M144,-116C144,-116 97.8979,-107.615 82,-80 70.6615,-60.305 88.6275,-35.1231 100.628,-21.6063"/>
</g>
<!-- e2 -->
<g id="node5" class="node"><title>e2</title>
</g>
<!-- e2&#45;&gt;v5 -->
<g id="edge37" class="edge"><title>e2&#45;&gt;v5</title>
<path fill="none" stroke="green" d="M506,-116C506,-116 317.511,-84.0056 254.927,-73.3825"/>
</g>
<!-- v8 -->
<g id="v8_Child" class="node"><title>v8</title>
<ellipse fill="none" stroke="black" cx="246" cy="-11" rx="25" ry="11"/>
<text text-anchor="middle" x="246" y="-8.8" font-family="sans-serif" font-size="9.00">Child</text>
</g>
<!-- e2&#45;&gt;v8 -->
<g id="edge38" class="edge"><title>e2&#45;&gt;v8</title>
<path fill="none" stroke="green" d="M506,-116C506,-116 321.758,-42.3033 263.463,-18.9852"/>
</g>
<!-- v14 -->
<g id="v14_Lion" class="node"><title>v14</title>
<ellipse fill="none" stroke="black" cx="503" cy="-11" rx="21.5" ry="11"/>
<text text-anchor="middle" x="503" y="-8.8" font-family="sans-serif" font-size="9.00">Lion</text>
</g>
<!-- e2&#45;&gt;v14 -->
<g id="edge39" class="edge"><title>e2&#45;&gt;v14</title>
<path fill="none" stroke="green" d="M506,-116C506,-116 504.057,-48.6577 503.299,-22.3521"/>
</g>
<!-- v20 -->
<g id="v20_GPS(1)" class="node"><title>v20</title>
<ellipse fill="none" stroke="black" cx="800" cy="-11" rx="29" ry="11"/>
<text text-anchor="middle" x="800" y="-8.8" font-family="sans-serif" font-size="9.00">GPS(1)</text>
</g>
<!-- e2&#45;&gt;v20 -->
<g id="edge40" class="edge"><title>e2&#45;&gt;v20</title>
<path fill="none" stroke="green" d="M506,-116C506,-116 719.623,-114.4 767,-80 786.432,-65.8908 794.945,-37.2052 798.22,-21.9928"/>
</g>
<!-- e3 -->
<g id="node6" class="node"><title>e3</title>
</g>
<!-- e3&#45;&gt;v6 -->
<g id="edge41" class="edge"><title>e3&#45;&gt;v6</title>
<path fill="none" stroke="green" d="M342,-116C342,-116 264.767,-98.0322 204,-80 199.789,-78.7505 195.281,-77.3054 191.072,-75.909"/>
</g>
<!-- v9 -->
<g id="v9_Child" class="node"><title>v9</title>
<ellipse fill="none" stroke="black" cx="178" cy="-11" rx="25" ry="11"/>
<text text-anchor="middle" x="178" y="-8.8" font-family="sans-serif" font-size="9.00">Child</text>
</g>
<!-- e3&#45;&gt;v9 -->
<g id="edge42" class="edge"><title>e3&#45;&gt;v9</title>
<path fill="none" stroke="green" d="M342,-116C342,-116 301.164,-80.9749 265,-58 241.205,-42.8829 211.942,-28.1433 194.144,-19.5746"/>
</g>
<!-- v16 -->
<g id="v16_Lion" class="node"><title>v16</title>
<ellipse fill="none" stroke="black" cx="428" cy="-11" rx="21.5" ry="11"/>
<text text-anchor="middle" x="428" y="-8.8" font-family="sans-serif" font-size="9.00">Lion</text>
</g>
<!-- e3&#45;&gt;v16 -->
<g id="edge43" class="edge"><title>e3&#45;&gt;v16</title>
<path fill="none" stroke="green" d="M342,-116C342,-116 398.773,-47.3438 420.063,-21.5977"/>
</g>
<!-- v22 -->
<g id="v22_GPS(2)" class="node"><title>v22</title>
<ellipse fill="none" stroke="black" cx="724" cy="-11" rx="29" ry="11"/>
<text text-anchor="middle" x="724" y="-8.8" font-family="sans-serif" font-size="9.00">GPS(2)</text>
</g>
<!-- e3&#45;&gt;v22 -->
<g id="edge44" class="edge"><title>e3&#45;&gt;v22</title>
<path fill="none" stroke="green" d="M342,-116C342,-116 579.44,-106.253 641,-80 672.529,-66.5544 701.613,-37.3079 715.479,-21.9204"/>
</g>
<!-- e4 -->
<g id="node7" class="node"><title>e4</title>
</g>
<!-- e4&#45;&gt;v11 -->
<g id="edge45" class="edge"><title>e4&#45;&gt;v11</title>
<path fill="none" stroke="green" d="M988,-116C988,-116 951.716,-91.4551 932.157,-78.2239"/>
</g>
<!-- v12 -->
<g id="v12_Child" class="node"><title>v12</title>
<ellipse fill="none" stroke="black" cx="960" cy="-11" rx="25" ry="11"/>
<text text-anchor="middle" x="960" y="-8.8" font-family="sans-serif" font-size="9.00">Child</text>
</g>
<!-- e4&#45;&gt;v12 -->
<g id="edge46" class="edge"><title>e4&#45;&gt;v12</title>
<path fill="none" stroke="green" d="M988,-116C988,-116 969.693,-48.0023 962.685,-21.972"/>
</g>
<!-- v18 -->
<g id="v18_Lion" class="node"><title>v18</title>
<ellipse fill="none" stroke="black" cx="1065" cy="-11" rx="21.5" ry="11"/>
<text text-anchor="middle" x="1065" y="-8.8" font-family="sans-serif" font-size="9.00">Lion</text>
</g>
<!-- e4&#45;&gt;v18 -->
<g id="edge47" class="edge"><title>e4&#45;&gt;v18</title>
<path fill="none" stroke="green" d="M988,-116C988,-116 1038.83,-47.3438 1057.89,-21.5977"/>
</g>
<!-- v24 -->
<g id="v24_GPS(4)" class="node"><title>v24</title>
<ellipse fill="none" stroke="black" cx="1159" cy="-11" rx="29" ry="11"/>
<text text-anchor="middle" x="1159" y="-8.8" font-family="sans-serif" font-size="9.00">GPS(4)</text>
</g>
<!-- e4&#45;&gt;v24 -->
<g id="edge48" class="edge"><title>e4&#45;&gt;v24</title>
<path fill="none" stroke="green" d="M988,-116C988,-116 1028.48,-80.4066 1065,-58 1090.24,-42.5121 1121.45,-28.0982 1140.79,-19.6695"/>
</g>
<!-- v0&#45;&gt;v1 -->
<g id="edge12" class="edge"><title>v0&#45;&gt;v1</title>
<path fill="none" stroke="black" d="M713.12,-58.7527C699.944,-49.2933 679.407,-34.549 664.926,-24.1517"/>
<polygon fill="black" stroke="black" points="660.64,-21.0752 666.014,-22.1635 662.671,-22.5332 664.702,-23.9913 664.702,-23.9913 664.702,-23.9913 662.671,-22.5332 663.39,-25.819 660.64,-21.0752 660.64,-21.0752"/>
</g>
<!-- v0&#45;&gt;v2 -->
<g id="edge32" class="edge"><title>v0&#45;&gt;v2</title>
<path fill="none" stroke="green" d="M711.562,-78.9418C700.683,-85.8006 685.105,-94.3208 670,-98 614.295,-111.568 597.56,-107.383 541,-98 517.466,-94.0958 491.701,-84.4997 474.778,-77.4099"/>
</g>
<!-- v0&#45;&gt;v22 -->
<g id="edge13" class="edge"><title>v0&#45;&gt;v22</title>
<path fill="none" stroke="black" d="M725.642,-57.9883C725.339,-49.4941 724.899,-37.1697 724.551,-27.4169"/>
<polygon fill="black" stroke="black" points="724.368,-22.3039 726.795,-27.2203 724.457,-24.8023 724.547,-27.3007 724.547,-27.3007 724.547,-27.3007 724.457,-24.8023 722.298,-27.381 724.368,-22.3039 724.368,-22.3039"/>
</g>
<!-- v2&#45;&gt;v3 -->
<g id="edge14" class="edge"><title>v2&#45;&gt;v3</title>
<path fill="none" stroke="black" d="M439.237,-59.9766C417.882,-49.7556 381.045,-32.1243 358.47,-21.3188"/>
<polygon fill="black" stroke="black" points="353.879,-19.1217 359.361,-19.2509 356.134,-20.2011 358.389,-21.2804 358.389,-21.2804 358.389,-21.2804 356.134,-20.2011 357.418,-23.31 353.879,-19.1217 353.879,-19.1217"/>
</g>
<!-- v2&#45;&gt;v16 -->
<g id="edge15" class="edge"><title>v2&#45;&gt;v16</title>
<path fill="none" stroke="black" d="M450.994,-57.9883C446.614,-49.2286 440.198,-36.3956 435.255,-26.5103"/>
<polygon fill="black" stroke="black" points="432.963,-21.925 437.211,-25.3909 434.081,-24.1611 435.199,-26.3971 435.199,-26.3971 435.199,-26.3971 434.081,-24.1611 433.186,-27.4034 432.963,-21.925 432.963,-21.925"/>
</g>
<!-- v5&#45;&gt;v8 -->
<g id="edge16" class="edge"><title>v5&#45;&gt;v8</title>
<path fill="none" stroke="black" d="M236.967,-57.9883C238.635,-49.4941 241.056,-37.1697 242.972,-27.4169"/>
<polygon fill="black" stroke="black" points="243.976,-22.3039 245.22,-27.6438 243.494,-24.757 243.012,-27.2101 243.012,-27.2101 243.012,-27.2101 243.494,-24.757 240.804,-26.7764 243.976,-22.3039 243.976,-22.3039"/>
</g>
<!-- v5&#45;&gt;v9 -->
<g id="edge17" class="edge"><title>v5&#45;&gt;v9</title>
<path fill="none" stroke="black" d="M225.842,-59.0026C216.537,-49.8606 202.023,-35.6014 191.42,-25.1846"/>
<polygon fill="black" stroke="black" points="187.708,-21.5373 192.851,-23.4364 189.491,-23.2894 191.274,-25.0414 191.274,-25.0414 191.274,-25.0414 189.491,-23.2894 189.697,-26.6465 187.708,-21.5373 187.708,-21.5373"/>
</g>
<!-- v5&#45;&gt;v10 -->
<g id="edge18" class="edge"><title>v5&#45;&gt;v10</title>
<path fill="none" stroke="black" d="M219.673,-61.1333C197.548,-51.2214 156.568,-32.8624 131.449,-21.6093"/>
<polygon fill="black" stroke="black" points="126.647,-19.4581 132.13,-19.449 128.929,-20.4802 131.211,-21.5024 131.211,-21.5024 131.211,-21.5024 128.929,-20.4802 130.291,-23.5557 126.647,-19.4581 126.647,-19.4581"/>
</g>
<!-- v6&#45;&gt;v8 -->
<g id="edge19" class="edge"><title>v6&#45;&gt;v8</title>
<path fill="none" stroke="black" d="M184.935,-59.4948C197.057,-50.067 216.705,-34.7854 230.43,-24.1101"/>
<polygon fill="black" stroke="black" points="234.484,-20.9566 231.919,-25.8024 232.511,-22.4915 230.538,-24.0264 230.538,-24.0264 230.538,-24.0264 232.511,-22.4915 229.156,-22.2503 234.484,-20.9566 234.484,-20.9566"/>
</g>
<!-- v6&#45;&gt;v9 -->
<g id="edge20" class="edge"><title>v6&#45;&gt;v9</title>
<path fill="none" stroke="black" d="M174.715,-57.9883C175.322,-49.4941 176.202,-37.1697 176.899,-27.4169"/>
<polygon fill="black" stroke="black" points="177.264,-22.3039 179.152,-27.4515 177.086,-24.7975 176.908,-27.2912 176.908,-27.2912 176.908,-27.2912 177.086,-24.7975 174.663,-27.1308 177.264,-22.3039 177.264,-22.3039"/>
</g>
<!-- v6&#45;&gt;v10 -->
<g id="edge21" class="edge"><title>v6&#45;&gt;v10</title>
<path fill="none" stroke="black" d="M164,-59.25C153.387,-49.9638 136.517,-35.2025 124.458,-24.6504"/>
<polygon fill="black" stroke="black" points="120.568,-21.2473 125.813,-22.8465 122.45,-22.8935 124.331,-24.5398 124.331,-24.5398 124.331,-24.5398 122.45,-22.8935 122.85,-26.2331 120.568,-21.2473 120.568,-21.2473"/>
</g>
<!-- v7&#45;&gt;v8 -->
<g id="edge22" class="edge"><title>v7&#45;&gt;v8</title>
<path fill="none" stroke="black" d="M128.779,-61.3562C152.488,-51.3736 197.373,-32.4747 224.195,-21.1809"/>
<polygon fill="black" stroke="black" points="228.984,-19.1645 225.249,-23.1785 226.68,-20.1346 224.376,-21.1048 224.376,-21.1048 224.376,-21.1048 226.68,-20.1346 223.503,-19.0311 228.984,-19.1645 228.984,-19.1645"/>
</g>
<!-- v7&#45;&gt;v9 -->
<g id="edge23" class="edge"><title>v7&#45;&gt;v9</title>
<path fill="none" stroke="black" d="M123.156,-59.25C133.935,-49.9638 151.069,-35.2025 163.316,-24.6504"/>
<polygon fill="black" stroke="black" points="167.267,-21.2473 164.947,-26.2155 165.373,-22.8791 163.479,-24.5108 163.479,-24.5108 163.479,-24.5108 165.373,-22.8791 162.01,-22.8062 167.267,-21.2473 167.267,-21.2473"/>
</g>
<!-- v7&#45;&gt;v10 -->
<g id="edge24" class="edge"><title>v7&#45;&gt;v10</title>
<path fill="none" stroke="black" d="M112.464,-57.9883C112.009,-49.4941 111.348,-37.1697 110.826,-27.4169"/>
<polygon fill="black" stroke="black" points="110.552,-22.3039 113.066,-27.1763 110.686,-24.8003 110.82,-27.2967 110.82,-27.2967 110.82,-27.2967 110.686,-24.8003 108.573,-27.4171 110.552,-22.3039 110.552,-22.3039"/>
</g>
<!-- v11&#45;&gt;v12 -->
<g id="edge25" class="edge"><title>v11&#45;&gt;v12</title>
<path fill="none" stroke="black" d="M926.785,-58.5004C933.183,-49.5445 942.844,-36.018 950.101,-25.859"/>
<polygon fill="black" stroke="black" points="953.047,-21.7345 951.971,-27.111 951.594,-23.7688 950.141,-25.8031 950.141,-25.8031 950.141,-25.8031 951.594,-23.7688 948.31,-24.4953 953.047,-21.7345 953.047,-21.7345"/>
</g>
<!-- v13&#45;&gt;v14 -->
<g id="edge26" class="edge"><title>v13&#45;&gt;v14</title>
<path fill="none" stroke="black" d="M558.936,-58.7527C547.583,-49.2632 529.866,-34.4551 517.42,-24.0526"/>
<polygon fill="black" stroke="black" points="513.418,-20.7077 518.698,-22.1879 515.336,-22.311 517.255,-23.9143 517.255,-23.9143 517.255,-23.9143 515.336,-22.311 515.812,-25.6407 513.418,-20.7077 513.418,-20.7077"/>
</g>
<!-- v15 -->
<g id="v15_Impala" class="node"><title>v15</title>
<ellipse fill="none" stroke="black" cx="572" cy="-11" rx="29" ry="11"/>
<text text-anchor="middle" x="572" y="-8.8" font-family="sans-serif" font-size="9.00">Impala</text>
</g>
<!-- v13&#45;&gt;v15 -->
<g id="edge27" class="edge"><title>v13&#45;&gt;v15</title>
<path fill="none" stroke="black" d="M570.358,-57.9883C570.661,-49.4941 571.101,-37.1697 571.449,-27.4169"/>
<polygon fill="black" stroke="black" points="571.632,-22.3039 573.702,-27.381 571.543,-24.8023 571.453,-27.3007 571.453,-27.3007 571.453,-27.3007 571.543,-24.8023 569.205,-27.2203 571.632,-22.3039 571.632,-22.3039"/>
</g>
<!-- v13&#45;&gt;v19 -->
<g id="edge49" class="edge"><title>v13&#45;&gt;v19</title>
<path fill="none" stroke="green" d="M590.782,-76.736C630.409,-90.3867 719.302,-115.707 792,-98 807.105,-94.3208 822.683,-85.8006 833.562,-78.9418"/>
</g>
<!-- v21 -->
<g id="v21_GPS(0)" class="node"><title>v21</title>
<ellipse fill="none" stroke="black" cx="876" cy="-11" rx="29" ry="11"/>
<text text-anchor="middle" x="876" y="-8.8" font-family="sans-serif" font-size="9.00">GPS(0)</text>
</g>
<!-- v15&#45;&gt;v21 -->
<g id="edge50" class="edge"><title>v15&#45;&gt;v21</title>
<path fill="none" stroke="green" d="M584.251,-21.2104C593.241,-28.007 606.086,-36.3366 619,-40 663.895,-52.736 784.105,-52.736 829,-40 841.914,-36.3366 854.759,-28.007 863.749,-21.2104"/>
</g>
<!-- v17&#45;&gt;v18 -->
<g id="edge28" class="edge"><title>v17&#45;&gt;v18</title>
<path fill="none" stroke="black" d="M1096.38,-58.2455C1090.33,-49.3322 1081.32,-36.0497 1074.5,-26.0035"/>
<polygon fill="black" stroke="black" points="1071.54,-21.6427 1076.21,-24.5167 1072.95,-23.7114 1074.35,-25.7801 1074.35,-25.7801 1074.35,-25.7801 1072.95,-23.7114 1072.49,-27.0435 1071.54,-21.6427 1071.54,-21.6427"/>
</g>
<!-- v17&#45;&gt;v23 -->
<g id="edge51" class="edge"><title>v17&#45;&gt;v23</title>
<path fill="none" stroke="green" d="M1132.06,-69C1138.16,-69 1144.27,-69 1150.37,-69"/>
</g>
<!-- v19&#45;&gt;v20 -->
<g id="edge29" class="edge"><title>v19&#45;&gt;v20</title>
<path fill="none" stroke="black" d="M839.639,-58.2455C831.861,-49.1716 820.203,-35.5697 811.54,-25.4636"/>
<polygon fill="black" stroke="black" points="808.265,-21.6427 813.227,-23.9747 809.892,-23.5408 811.519,-25.439 811.519,-25.439 811.519,-25.439 809.892,-23.5408 809.811,-26.9033 808.265,-21.6427 808.265,-21.6427"/>
</g>
<!-- v19&#45;&gt;v21 -->
<g id="edge30" class="edge"><title>v19&#45;&gt;v21</title>
<path fill="none" stroke="black" d="M853.006,-57.9883C857.386,-49.2286 863.802,-36.3956 868.745,-26.5103"/>
<polygon fill="black" stroke="black" points="871.037,-21.925 870.814,-27.4034 869.919,-24.1611 868.801,-26.3971 868.801,-26.3971 868.801,-26.3971 869.919,-24.1611 866.789,-25.3909 871.037,-21.925 871.037,-21.925"/>
</g>
<!-- v23&#45;&gt;v24 -->
<g id="edge31" class="edge"><title>v23&#45;&gt;v24</title>
<path fill="none" stroke="black" d="M1178.71,-57.9883C1174.99,-49.3083 1169.56,-36.6286 1165.33,-26.7806"/>
<polygon fill="black" stroke="black" points="1163.25,-21.925 1167.29,-25.6344 1164.24,-24.2229 1165.22,-26.5207 1165.22,-26.5207 1165.22,-26.5207 1164.24,-24.2229 1163.16,-27.4071 1163.25,-21.925 1163.25,-21.925"/>
</g>
</g>
</svg>
