<?xml version="1.0" encoding="UTF-8" standalone="no"?>
<?xml-stylesheet href="style.css" type="text/css"?>
<!DOCTYPE svg PUBLIC "-//W3C//DTD SVG 1.1//EN"
 "http://www.w3.org/Graphics/SVG/1.1/DTD/svg11.dtd">
<!-- Generated by graphviz version 2.38.0 (20140413.2041)
 -->
<!-- Title: 51.svg Pages: 1 -->
<svg width="1268pt" height="179pt"
 viewBox="0.00 0.00 1268.00 179.00" xmlns="http://www.w3.org/2000/svg" xmlns:xlink="http://www.w3.org/1999/xlink">
<g id="graph0" class="graph" transform="scale(1 1) rotate(0) translate(4 175)">
<title>51.svg</title>
<polygon fill="white" stroke="none" points="-4,4 -4,-175 1264,-175 1264,4 -4,4"/>
<!-- r0 -->
<g id="node1" class="node"><title>r0</title>
<polygon fill="none" stroke="black" stroke-dasharray="5,2" points="185.5,-171 162.5,-171 162.5,-153 185.5,-153 185.5,-171"/>
<text text-anchor="middle" x="174" y="-159.8" font-family="serif" font-size="9.00">0</text>
</g>
<!-- v4 -->
<g id="v4_Aura" class="node"><title>v4</title>
<ellipse fill="none" stroke="black" cx="113" cy="-69" rx="21.5" ry="11"/>
<text text-anchor="middle" x="113" y="-66.8" font-family="sans-serif" font-size="9.00">Aura</text>
</g>
<!-- r0&#45;&gt;v4 -->
<g id="edge1" class="edge"><title>r0&#45;&gt;v4</title>
<path fill="none" stroke="black" d="M165.157,-152.911C156.404,-144.557 143.038,-130.826 134,-117 127.42,-106.935 121.956,-94.4673 118.252,-84.9025"/>
<polygon fill="black" stroke="black" points="116.479,-80.1934 120.347,-84.08 117.36,-82.5331 118.241,-84.8728 118.241,-84.8728 118.241,-84.8728 117.36,-82.5331 116.135,-85.6656 116.479,-80.1934 116.479,-80.1934"/>
</g>
<!-- v5 -->
<g id="v5_Aura" class="node"><title>v5</title>
<ellipse fill="none" stroke="black" cx="174" cy="-69" rx="21.5" ry="11"/>
<text text-anchor="middle" x="174" y="-66.8" font-family="sans-serif" font-size="9.00">Aura</text>
</g>
<!-- r0&#45;&gt;v5 -->
<g id="edge2" class="edge"><title>r0&#45;&gt;v5</title>
<path fill="none" stroke="black" d="M174,-152.924C174,-137.736 174,-104.696 174,-85.2178"/>
<polygon fill="black" stroke="black" points="174,-80.1095 176.25,-85.1095 174,-82.6095 174,-85.1095 174,-85.1095 174,-85.1095 174,-82.6095 171.75,-85.1096 174,-80.1095 174,-80.1095"/>
</g>
<!-- v6 -->
<g id="v6_Aura" class="node"><title>v6</title>
<ellipse fill="none" stroke="black" cx="274" cy="-69" rx="21.5" ry="11"/>
<text text-anchor="middle" x="274" y="-66.8" font-family="sans-serif" font-size="9.00">Aura</text>
</g>
<!-- r0&#45;&gt;v6 -->
<g id="edge3" class="edge"><title>r0&#45;&gt;v6</title>
<path fill="none" stroke="black" d="M182.874,-152.924C200.351,-137.02 239.337,-101.543 260.2,-82.5579"/>
<polygon fill="black" stroke="black" points="264.119,-78.9914 261.936,-84.0208 262.27,-80.6741 260.421,-82.3567 260.421,-82.3567 260.421,-82.3567 262.27,-80.6741 258.907,-80.6926 264.119,-78.9914 264.119,-78.9914"/>
</g>
<!-- v11 -->
<g id="v11_Field" class="node"><title>v11</title>
<ellipse fill="none" stroke="black" cx="25" cy="-11" rx="25" ry="11"/>
<text text-anchor="middle" x="25" y="-8.8" font-family="sans-serif" font-size="9.00">Field</text>
</g>
<!-- r0&#45;&gt;v11 -->
<g id="edge4" class="edge"><title>r0&#45;&gt;v11</title>
<path fill="none" stroke="black" d="M162.222,-152.862C142.816,-139.14 103.443,-109.953 75,-80 58.8635,-63.0068 43.3756,-40.7082 34.0231,-26.3641"/>
<polygon fill="black" stroke="black" points="31.0945,-21.8237 35.6956,-24.8059 32.4496,-23.9246 33.8047,-26.0255 33.8047,-26.0255 33.8047,-26.0255 32.4496,-23.9246 31.9139,-27.2451 31.0945,-21.8237 31.0945,-21.8237"/>
</g>
<!-- v14 -->
<g id="v14_Aura" class="node"><title>v14</title>
<ellipse fill="none" stroke="black" cx="1048" cy="-69" rx="21.5" ry="11"/>
<text text-anchor="middle" x="1048" y="-66.8" font-family="sans-serif" font-size="9.00">Aura</text>
</g>
<!-- r0&#45;&gt;v14 -->
<g id="edge5" class="edge"><title>r0&#45;&gt;v14</title>
<path fill="none" stroke="black" d="M185.545,-160.832C260.213,-159.552 682.277,-149.395 1017,-80 1020.13,-79.3521 1023.38,-78.5038 1026.55,-77.5751"/>
<polygon fill="black" stroke="black" points="1031.44,-76.0665 1027.33,-79.6901 1029.06,-76.8033 1026.67,-77.54 1026.67,-77.54 1026.67,-77.54 1029.06,-76.8033 1026,-75.3899 1031.44,-76.0665 1031.44,-76.0665"/>
</g>
<!-- r1 -->
<g id="node2" class="node"><title>r1</title>
<polygon fill="none" stroke="black" stroke-dasharray="5,2" points="907.5,-171 884.5,-171 884.5,-153 907.5,-153 907.5,-171"/>
<text text-anchor="middle" x="896" y="-159.8" font-family="serif" font-size="9.00">1</text>
</g>
<!-- v2 -->
<g id="v2_Locale" class="node"><title>v2</title>
<ellipse fill="none" stroke="black" cx="1231" cy="-69" rx="29" ry="11"/>
<text text-anchor="middle" x="1231" y="-66.8" font-family="sans-serif" font-size="9.00">Locale</text>
</g>
<!-- r1&#45;&gt;v2 -->
<g id="edge6" class="edge"><title>r1&#45;&gt;v2</title>
<path fill="none" stroke="black" d="M907.777,-159.753C942.181,-155.9 1045.26,-142.854 1127,-117 1157.26,-107.43 1190.36,-91.4384 1210.91,-80.8059"/>
<polygon fill="black" stroke="black" points="1215.6,-78.3581 1212.21,-82.6659 1213.38,-79.5146 1211.17,-80.6711 1211.17,-80.6711 1211.17,-80.6711 1213.38,-79.5146 1210.12,-78.6763 1215.6,-78.3581 1215.6,-78.3581"/>
</g>
<!-- v8 -->
<g id="v8_Localeattack" class="node"><title>v8</title>
<ellipse fill="none" stroke="black" cx="722" cy="-69" rx="50.5" ry="11"/>
<text text-anchor="middle" x="722" y="-66.8" font-family="sans-serif" font-size="9.00">Localeattack</text>
</g>
<!-- r1&#45;&gt;v8 -->
<g id="edge7" class="edge"><title>r1&#45;&gt;v8</title>
<path fill="none" stroke="black" d="M884.313,-154.888C855.8,-139.976 782.265,-101.518 744.748,-81.8967"/>
<polygon fill="black" stroke="black" points="739.919,-79.3716 745.393,-79.695 742.135,-80.5302 744.35,-81.6888 744.35,-81.6888 744.35,-81.6888 742.135,-80.5302 743.307,-83.6826 739.919,-79.3716 739.919,-79.3716"/>
</g>
<!-- v16 -->
<g id="v16_Locale" class="node"><title>v16</title>
<ellipse fill="none" stroke="black" cx="896" cy="-69" rx="29" ry="11"/>
<text text-anchor="middle" x="896" y="-66.8" font-family="sans-serif" font-size="9.00">Locale</text>
</g>
<!-- r1&#45;&gt;v16 -->
<g id="edge8" class="edge"><title>r1&#45;&gt;v16</title>
<path fill="none" stroke="black" d="M896,-152.924C896,-137.736 896,-104.696 896,-85.2178"/>
<polygon fill="black" stroke="black" points="896,-80.1095 898.25,-85.1095 896,-82.6095 896,-85.1095 896,-85.1095 896,-85.1095 896,-82.6095 893.75,-85.1096 896,-80.1095 896,-80.1095"/>
</g>
<!-- r2 -->
<g id="node3" class="node"><title>r2</title>
<polygon fill="none" stroke="black" stroke-dasharray="5,2" points="593.5,-171 570.5,-171 570.5,-153 593.5,-153 593.5,-171"/>
<text text-anchor="middle" x="582" y="-159.8" font-family="serif" font-size="9.00">2</text>
</g>
<!-- v0 -->
<g id="v0_Area(2)" class="node"><title>v0</title>
<ellipse fill="none" stroke="black" cx="976" cy="-69" rx="32.5" ry="11"/>
<text text-anchor="middle" x="976" y="-66.8" font-family="sans-serif" font-size="9.00">Area(2)</text>
</g>
<!-- r2&#45;&gt;v0 -->
<g id="edge9" class="edge"><title>r2&#45;&gt;v0</title>
<path fill="none" stroke="black" d="M593.554,-158.375C637.745,-148.326 800.284,-111.303 934,-80 937.797,-79.111 941.786,-78.1703 945.732,-77.2357"/>
<polygon fill="black" stroke="black" points="950.688,-76.0593 946.343,-79.4031 948.256,-76.6366 945.823,-77.2139 945.823,-77.2139 945.823,-77.2139 948.256,-76.6366 945.304,-75.0247 950.688,-76.0593 950.688,-76.0593"/>
</g>
<!-- v19 -->
<g id="v19_Area(0)" class="node"><title>v19</title>
<ellipse fill="none" stroke="black" cx="582" cy="-69" rx="32.5" ry="11"/>
<text text-anchor="middle" x="582" y="-66.8" font-family="sans-serif" font-size="9.00">Area(0)</text>
</g>
<!-- r2&#45;&gt;v19 -->
<g id="edge10" class="edge"><title>r2&#45;&gt;v19</title>
<path fill="none" stroke="black" d="M582,-152.924C582,-137.736 582,-104.696 582,-85.2178"/>
<polygon fill="black" stroke="black" points="582,-80.1095 584.25,-85.1095 582,-82.6095 582,-85.1095 582,-85.1095 582,-85.1095 582,-82.6095 579.75,-85.1096 582,-80.1095 582,-80.1095"/>
</g>
<!-- v22 -->
<g id="v22_Area(1)" class="node"><title>v22</title>
<ellipse fill="none" stroke="black" cx="499" cy="-69" rx="32.5" ry="11"/>
<text text-anchor="middle" x="499" y="-66.8" font-family="sans-serif" font-size="9.00">Area(1)</text>
</g>
<!-- r2&#45;&gt;v22 -->
<g id="edge11" class="edge"><title>r2&#45;&gt;v22</title>
<path fill="none" stroke="black" d="M574.634,-152.924C560.471,-137.395 529.287,-103.206 511.704,-83.9285"/>
<polygon fill="black" stroke="black" points="507.961,-79.8251 512.993,-82.003 509.646,-81.6722 511.331,-83.5193 511.331,-83.5193 511.331,-83.5193 509.646,-81.6722 509.668,-85.0355 507.961,-79.8251 507.961,-79.8251"/>
</g>
<!-- e1 -->
<g id="node4" class="node"><title>e1</title>
</g>
<!-- v1 -->
<g id="v1_GPS(9)" class="node"><title>v1</title>
<ellipse fill="none" stroke="black" cx="1016" cy="-11" rx="29" ry="11"/>
<text text-anchor="middle" x="1016" y="-8.8" font-family="sans-serif" font-size="9.00">GPS(9)</text>
</g>
<!-- e1&#45;&gt;v1 -->
<g id="edge33" class="edge"><title>e1&#45;&gt;v1</title>
<path fill="none" stroke="green" d="M1117,-116C1117,-116 1099.45,-80.4683 1078,-58 1063.56,-42.8768 1043.7,-29.1034 1030.38,-20.6506"/>
</g>
<!-- v3 -->
<g id="v3_Lion" class="node"><title>v3</title>
<ellipse fill="none" stroke="black" cx="1194" cy="-11" rx="21.5" ry="11"/>
<text text-anchor="middle" x="1194" y="-8.8" font-family="sans-serif" font-size="9.00">Lion</text>
</g>
<!-- e1&#45;&gt;v3 -->
<g id="edge34" class="edge"><title>e1&#45;&gt;v3</title>
<path fill="none" stroke="green" d="M1117,-116C1117,-116 1167.83,-47.3438 1186.89,-21.5977"/>
</g>
<!-- e1&#45;&gt;v14 -->
<g id="edge35" class="edge"><title>e1&#45;&gt;v14</title>
<path fill="none" stroke="green" d="M1117,-116C1117,-116 1080.18,-91.4551 1060.34,-78.2239"/>
</g>
<!-- v15 -->
<g id="v15_Child" class="node"><title>v15</title>
<ellipse fill="none" stroke="black" cx="1115" cy="-11" rx="25" ry="11"/>
<text text-anchor="middle" x="1115" y="-8.8" font-family="sans-serif" font-size="9.00">Child</text>
</g>
<!-- e1&#45;&gt;v15 -->
<g id="edge36" class="edge"><title>e1&#45;&gt;v15</title>
<path fill="none" stroke="green" d="M1117,-116C1117,-116 1115.7,-48.6577 1115.2,-22.3521"/>
</g>
<!-- e2 -->
<g id="node5" class="node"><title>e2</title>
</g>
<!-- e2&#45;&gt;v4 -->
<g id="edge37" class="edge"><title>e2&#45;&gt;v4</title>
<path fill="none" stroke="green" d="M144,-116C144,-116 128.674,-93.2583 119.574,-79.7554"/>
</g>
<!-- v7 -->
<g id="v7_Childattack" class="node"><title>v7</title>
<ellipse fill="none" stroke="black" cx="116" cy="-11" rx="47" ry="11"/>
<text text-anchor="middle" x="116" y="-8.8" font-family="sans-serif" font-size="9.00">Childattack</text>
</g>
<!-- e2&#45;&gt;v7 -->
<g id="edge38" class="edge"><title>e2&#45;&gt;v7</title>
<path fill="none" stroke="green" d="M144,-116C144,-116 97.8979,-107.615 82,-80 70.4097,-59.8677 90.8264,-35.2767 104.719,-21.8733"/>
</g>
<!-- v9 -->
<g id="v9_Lionattack" class="node"><title>v9</title>
<ellipse fill="none" stroke="black" cx="668" cy="-11" rx="43" ry="11"/>
<text text-anchor="middle" x="668" y="-8.8" font-family="sans-serif" font-size="9.00">Lionattack</text>
</g>
<!-- e2&#45;&gt;v9 -->
<g id="edge39" class="edge"><title>e2&#45;&gt;v9</title>
<path fill="none" stroke="green" d="M144,-116C144,-116 253.645,-97.0618 341,-80 449.983,-58.7139 578.898,-31.2228 636.941,-18.7211"/>
</g>
<!-- v20 -->
<g id="v20_GPS(1)" class="node"><title>v20</title>
<ellipse fill="none" stroke="black" cx="426" cy="-11" rx="29" ry="11"/>
<text text-anchor="middle" x="426" y="-8.8" font-family="sans-serif" font-size="9.00">GPS(1)</text>
</g>
<!-- e2&#45;&gt;v20 -->
<g id="edge40" class="edge"><title>e2&#45;&gt;v20</title>
<path fill="none" stroke="green" d="M144,-116C144,-116 235.91,-106.011 304,-80 346.133,-63.905 391.444,-35.3013 413.074,-20.8621"/>
</g>
<!-- e3 -->
<g id="node6" class="node"><title>e3</title>
</g>
<!-- e3&#45;&gt;v5 -->
<g id="edge41" class="edge"><title>e3&#45;&gt;v5</title>
<path fill="none" stroke="green" d="M333,-116C333,-116 233.513,-87.2175 191.93,-75.1874"/>
</g>
<!-- v12 -->
<g id="v12_Child" class="node"><title>v12</title>
<ellipse fill="none" stroke="black" cx="206" cy="-11" rx="25" ry="11"/>
<text text-anchor="middle" x="206" y="-8.8" font-family="sans-serif" font-size="9.00">Child</text>
</g>
<!-- e3&#45;&gt;v12 -->
<g id="edge42" class="edge"><title>e3&#45;&gt;v12</title>
<path fill="none" stroke="green" d="M333,-116C333,-116 275.204,-108.617 243,-80 224.916,-63.9304 213.971,-36.8405 209.065,-22.1722"/>
</g>
<!-- v17 -->
<g id="v17_Lion" class="node"><title>v17</title>
<ellipse fill="none" stroke="black" cx="855" cy="-11" rx="21.5" ry="11"/>
<text text-anchor="middle" x="855" y="-8.8" font-family="sans-serif" font-size="9.00">Lion</text>
</g>
<!-- e3&#45;&gt;v17 -->
<g id="edge43" class="edge"><title>e3&#45;&gt;v17</title>
<path fill="none" stroke="green" d="M333,-116C333,-116 689.468,-119.965 781,-80 810.741,-67.0141 836.329,-37.0016 848.098,-21.5595"/>
</g>
<!-- v23 -->
<g id="v23_GPS(2)" class="node"><title>v23</title>
<ellipse fill="none" stroke="black" cx="350" cy="-11" rx="29" ry="11"/>
<text text-anchor="middle" x="350" y="-8.8" font-family="sans-serif" font-size="9.00">GPS(2)</text>
</g>
<!-- e3&#45;&gt;v23 -->
<g id="edge44" class="edge"><title>e3&#45;&gt;v23</title>
<path fill="none" stroke="green" d="M333,-116C333,-116 344.008,-48.6577 348.308,-22.3521"/>
</g>
<!-- e4 -->
<g id="node7" class="node"><title>e4</title>
</g>
<!-- e4&#45;&gt;v6 -->
<g id="edge45" class="edge"><title>e4&#45;&gt;v6</title>
<path fill="none" stroke="green" d="M627,-116C627,-116 369.843,-82.4895 294.505,-72.672"/>
</g>
<!-- v13 -->
<g id="v13_Child" class="node"><title>v13</title>
<ellipse fill="none" stroke="black" cx="274" cy="-11" rx="25" ry="11"/>
<text text-anchor="middle" x="274" y="-8.8" font-family="sans-serif" font-size="9.00">Child</text>
</g>
<!-- e4&#45;&gt;v13 -->
<g id="edge46" class="edge"><title>e4&#45;&gt;v13</title>
<path fill="none" stroke="green" d="M627,-116C627,-116 531.176,-101.509 457,-80 394.499,-61.8768 322.812,-32.6884 290.875,-19.2269"/>
</g>
<!-- v18 -->
<g id="v18_Lion" class="node"><title>v18</title>
<ellipse fill="none" stroke="black" cx="916" cy="-11" rx="21.5" ry="11"/>
<text text-anchor="middle" x="916" y="-8.8" font-family="sans-serif" font-size="9.00">Lion</text>
</g>
<!-- e4&#45;&gt;v18 -->
<g id="edge47" class="edge"><title>e4&#45;&gt;v18</title>
<path fill="none" stroke="green" d="M627,-116C627,-116 736.343,-112.413 815,-80 851.548,-64.9394 888.593,-35.5976 905.908,-20.8747"/>
</g>
<!-- v24 -->
<g id="v24_GPS(3)" class="node"><title>v24</title>
<ellipse fill="none" stroke="black" cx="502" cy="-11" rx="29" ry="11"/>
<text text-anchor="middle" x="502" y="-8.8" font-family="sans-serif" font-size="9.00">GPS(3)</text>
</g>
<!-- e4&#45;&gt;v24 -->
<g id="edge48" class="edge"><title>e4&#45;&gt;v24</title>
<path fill="none" stroke="green" d="M627,-116C627,-116 638.393,-78.7534 623,-58 616.791,-49.6291 556.048,-29.2368 523.063,-18.6399"/>
</g>
<!-- v0&#45;&gt;v1 -->
<g id="edge12" class="edge"><title>v0&#45;&gt;v1</title>
<path fill="none" stroke="black" d="M982.967,-58.2455C989.313,-49.3616 998.759,-36.1372 1005.93,-26.1029"/>
<polygon fill="black" stroke="black" points="1008.84,-22.0198 1007.77,-27.3962 1007.39,-24.0541 1005.94,-26.0884 1005.94,-26.0884 1005.94,-26.0884 1007.39,-24.0541 1004.11,-24.7806 1008.84,-22.0198 1008.84,-22.0198"/>
</g>
<!-- v0&#45;&gt;v2 -->
<g id="edge32" class="edge"><title>v0&#45;&gt;v2</title>
<path fill="none" stroke="green" d="M989.138,-79.2189C998.752,-86.0195 1012.43,-94.3504 1026,-98 1091.67,-115.665 1113.19,-115.111 1179,-98 1193.21,-94.3065 1207.65,-85.7878 1217.7,-78.9333"/>
</g>
<!-- v2&#45;&gt;v3 -->
<g id="edge13" class="edge"><title>v2&#45;&gt;v3</title>
<path fill="none" stroke="black" d="M1224.56,-58.2455C1218.67,-49.3322 1209.89,-36.0497 1203.25,-26.0035"/>
<polygon fill="black" stroke="black" points="1200.37,-21.6427 1205,-24.574 1201.75,-23.7285 1203.13,-25.8144 1203.13,-25.8144 1203.13,-25.8144 1201.75,-23.7285 1201.25,-27.0547 1200.37,-21.6427 1200.37,-21.6427"/>
</g>
<!-- v4&#45;&gt;v7 -->
<g id="edge14" class="edge"><title>v4&#45;&gt;v7</title>
<path fill="none" stroke="black" d="M113.536,-57.9883C113.991,-49.4941 114.652,-37.1697 115.174,-27.4169"/>
<polygon fill="black" stroke="black" points="115.448,-22.3039 117.427,-27.4171 115.314,-24.8003 115.18,-27.2967 115.18,-27.2967 115.18,-27.2967 115.314,-24.8003 112.934,-27.1763 115.448,-22.3039 115.448,-22.3039"/>
</g>
<!-- v4&#45;&gt;v12 -->
<g id="edge15" class="edge"><title>v4&#45;&gt;v12</title>
<path fill="none" stroke="black" d="M126.325,-59.9766C142.438,-50.2742 169.64,-33.8944 187.708,-23.0145"/>
<polygon fill="black" stroke="black" points="192.093,-20.3743 188.97,-24.8811 189.951,-21.664 187.809,-22.9536 187.809,-22.9536 187.809,-22.9536 189.951,-21.664 186.649,-21.0261 192.093,-20.3743 192.093,-20.3743"/>
</g>
<!-- v4&#45;&gt;v13 -->
<g id="edge16" class="edge"><title>v4&#45;&gt;v13</title>
<path fill="none" stroke="black" d="M129.926,-62.1129C158.74,-52.0904 217.392,-31.6898 250.281,-20.2501"/>
<polygon fill="black" stroke="black" points="255.33,-18.494 251.346,-22.2618 252.968,-19.3154 250.607,-20.1367 250.607,-20.1367 250.607,-20.1367 252.968,-19.3154 249.868,-18.0116 255.33,-18.494 255.33,-18.494"/>
</g>
<!-- v5&#45;&gt;v7 -->
<g id="edge17" class="edge"><title>v5&#45;&gt;v7</title>
<path fill="none" stroke="black" d="M164.681,-59.0026C155.327,-49.9708 140.799,-35.9443 130.047,-25.5628"/>
<polygon fill="black" stroke="black" points="126.273,-21.919 131.433,-23.7733 128.072,-23.6555 129.87,-25.392 129.87,-25.392 129.87,-25.392 128.072,-23.6555 128.307,-27.0106 126.273,-21.919 126.273,-21.919"/>
</g>
<!-- v5&#45;&gt;v12 -->
<g id="edge18" class="edge"><title>v5&#45;&gt;v12</title>
<path fill="none" stroke="black" d="M179.574,-58.2455C184.605,-49.4409 192.073,-36.373 197.787,-26.3724"/>
<polygon fill="black" stroke="black" points="200.274,-22.0198 199.747,-27.4773 199.034,-24.1904 197.794,-26.361 197.794,-26.361 197.794,-26.361 199.034,-24.1904 195.84,-25.2446 200.274,-22.0198 200.274,-22.0198"/>
</g>
<!-- v5&#45;&gt;v13 -->
<g id="edge19" class="edge"><title>v5&#45;&gt;v13</title>
<path fill="none" stroke="black" d="M187.905,-60.2134C205.319,-50.4612 235.243,-33.7039 254.824,-22.7383"/>
<polygon fill="black" stroke="black" points="259.566,-20.0831 256.303,-24.4893 257.385,-21.3046 255.203,-22.5261 255.203,-22.5261 255.203,-22.5261 257.385,-21.3046 254.104,-20.563 259.566,-20.0831 259.566,-20.0831"/>
</g>
<!-- v6&#45;&gt;v7 -->
<g id="edge20" class="edge"><title>v6&#45;&gt;v7</title>
<path fill="none" stroke="black" d="M257.091,-62.007C230.341,-52.5259 177.931,-33.9504 145.065,-22.3014"/>
<polygon fill="black" stroke="black" points="139.965,-20.4938 145.429,-20.0434 142.321,-21.329 144.677,-22.1642 144.677,-22.1642 144.677,-22.1642 142.321,-21.329 143.926,-24.2849 139.965,-20.4938 139.965,-20.4938"/>
</g>
<!-- v6&#45;&gt;v12 -->
<g id="edge21" class="edge"><title>v6&#45;&gt;v12</title>
<path fill="none" stroke="black" d="M263.375,-59.25C252.099,-49.9638 234.174,-35.2025 221.361,-24.6504"/>
<polygon fill="black" stroke="black" points="217.229,-21.2473 222.519,-22.689 219.159,-22.8365 221.088,-24.4258 221.088,-24.4258 221.088,-24.4258 219.159,-22.8365 219.658,-26.1627 217.229,-21.2473 217.229,-21.2473"/>
</g>
<!-- v6&#45;&gt;v13 -->
<g id="edge22" class="edge"><title>v6&#45;&gt;v13</title>
<path fill="none" stroke="black" d="M274,-57.9883C274,-49.4941 274,-37.1697 274,-27.4169"/>
<polygon fill="black" stroke="black" points="274,-22.3039 276.25,-27.3038 274,-24.8039 274,-27.3039 274,-27.3039 274,-27.3039 274,-24.8039 271.75,-27.3039 274,-22.3039 274,-22.3039"/>
</g>
<!-- v8&#45;&gt;v9 -->
<g id="edge23" class="edge"><title>v8&#45;&gt;v9</title>
<path fill="none" stroke="black" d="M712.346,-57.9883C703.669,-48.9897 690.846,-35.6926 681.219,-25.7082"/>
<polygon fill="black" stroke="black" points="677.571,-21.925 682.661,-23.9624 679.306,-23.7246 681.041,-25.5242 681.041,-25.5242 681.041,-25.5242 679.306,-23.7246 679.422,-27.0861 677.571,-21.925 677.571,-21.925"/>
</g>
<!-- v10 -->
<g id="v10_Impalaseen" class="node"><title>v10</title>
<ellipse fill="none" stroke="black" cx="772" cy="-11" rx="43" ry="11"/>
<text text-anchor="middle" x="772" y="-8.8" font-family="sans-serif" font-size="9.00">Impalaseen</text>
</g>
<!-- v8&#45;&gt;v10 -->
<g id="edge24" class="edge"><title>v8&#45;&gt;v10</title>
<path fill="none" stroke="black" d="M730.939,-57.9883C738.973,-48.9897 750.846,-35.6926 759.761,-25.7082"/>
<polygon fill="black" stroke="black" points="763.138,-21.925 761.487,-27.1533 761.473,-23.7899 759.808,-25.6547 759.808,-25.6547 759.808,-25.6547 761.473,-23.7899 758.13,-24.1562 763.138,-21.925 763.138,-21.925"/>
</g>
<!-- v8&#45;&gt;v19 -->
<g id="edge49" class="edge"><title>v8&#45;&gt;v19</title>
<path fill="none" stroke="green" d="M671.208,-69C652.318,-69 633.429,-69 614.539,-69"/>
</g>
<!-- v9&#45;&gt;v10 -->
<g id="edge50" class="edge"><title>v9&#45;&gt;v10</title>
<path fill="none" stroke="green" d="M711.062,-11C716.934,-11 722.806,-11 728.677,-11"/>
</g>
<!-- v21 -->
<g id="v21_GPS(0)" class="node"><title>v21</title>
<ellipse fill="none" stroke="black" cx="578" cy="-11" rx="29" ry="11"/>
<text text-anchor="middle" x="578" y="-8.8" font-family="sans-serif" font-size="9.00">GPS(0)</text>
</g>
<!-- v10&#45;&gt;v21 -->
<g id="edge51" class="edge"><title>v10&#45;&gt;v21</title>
<path fill="none" stroke="green" d="M755.641,-21.2415C743.756,-28.0527 727.014,-36.3871 711,-40 673.715,-48.4118 661.771,-50.4314 625,-40 612.086,-36.3366 599.241,-28.007 590.251,-21.2104"/>
</g>
<!-- v14&#45;&gt;v15 -->
<g id="edge25" class="edge"><title>v14&#45;&gt;v15</title>
<path fill="none" stroke="black" d="M1058.47,-59.25C1069.58,-49.9638 1087.24,-35.2025 1099.86,-24.6504"/>
<polygon fill="black" stroke="black" points="1103.94,-21.2473 1101.54,-26.1802 1102.02,-22.8506 1100.1,-24.4538 1100.1,-24.4538 1100.1,-24.4538 1102.02,-22.8506 1098.66,-22.7275 1103.94,-21.2473 1103.94,-21.2473"/>
</g>
<!-- v16&#45;&gt;v17 -->
<g id="edge26" class="edge"><title>v16&#45;&gt;v17</title>
<path fill="none" stroke="black" d="M888.858,-58.2455C882.274,-49.2519 872.432,-35.8101 865.054,-25.7327"/>
<polygon fill="black" stroke="black" points="862.06,-21.6427 866.829,-24.3478 863.537,-23.6598 865.014,-25.677 865.014,-25.677 865.014,-25.677 863.537,-23.6598 863.198,-27.0062 862.06,-21.6427 862.06,-21.6427"/>
</g>
<!-- v16&#45;&gt;v18 -->
<g id="edge27" class="edge"><title>v16&#45;&gt;v18</title>
<path fill="none" stroke="black" d="M899.576,-57.9883C902.676,-49.3083 907.204,-36.6286 910.721,-26.7806"/>
<polygon fill="black" stroke="black" points="912.455,-21.925 912.893,-27.3905 911.614,-24.2794 910.774,-26.6337 910.774,-26.6337 910.774,-26.6337 911.614,-24.2794 908.655,-25.8769 912.455,-21.925 912.455,-21.925"/>
</g>
<!-- v16&#45;&gt;v22 -->
<g id="edge52" class="edge"><title>v16&#45;&gt;v22</title>
<path fill="none" stroke="green" d="M882.7,-78.9333C872.651,-85.7878 858.206,-94.3065 844,-98 780.554,-114.496 612.305,-115.03 549,-98 535.433,-94.3504 521.752,-86.0195 512.138,-79.2189"/>
</g>
<!-- v19&#45;&gt;v20 -->
<g id="edge28" class="edge"><title>v19&#45;&gt;v20</title>
<path fill="none" stroke="black" d="M560.961,-60.4476C532.344,-50.1748 481.235,-31.8279 450.791,-20.8992"/>
<polygon fill="black" stroke="black" points="445.723,-19.08 451.189,-18.6517 448.076,-19.9247 450.429,-20.7694 450.429,-20.7694 450.429,-20.7694 448.076,-19.9247 449.669,-22.8871 445.723,-19.08 445.723,-19.08"/>
</g>
<!-- v19&#45;&gt;v21 -->
<g id="edge29" class="edge"><title>v19&#45;&gt;v21</title>
<path fill="none" stroke="black" d="M581.285,-57.9883C580.678,-49.4941 579.798,-37.1697 579.101,-27.4169"/>
<polygon fill="black" stroke="black" points="578.736,-22.3039 581.337,-27.1308 578.914,-24.7975 579.092,-27.2912 579.092,-27.2912 579.092,-27.2912 578.914,-24.7975 576.848,-27.4515 578.736,-22.3039 578.736,-22.3039"/>
</g>
<!-- v22&#45;&gt;v23 -->
<g id="edge30" class="edge"><title>v22&#45;&gt;v23</title>
<path fill="none" stroke="black" d="M478.595,-60.3309C451.471,-50.1368 403.592,-32.1421 374.532,-21.2201"/>
<polygon fill="black" stroke="black" points="369.685,-19.3984 375.157,-19.0514 372.025,-20.278 374.366,-21.1576 374.366,-21.1576 374.366,-21.1576 372.025,-20.278 373.574,-23.2637 369.685,-19.3984 369.685,-19.3984"/>
</g>
<!-- v22&#45;&gt;v24 -->
<g id="edge31" class="edge"><title>v22&#45;&gt;v24</title>
<path fill="none" stroke="black" d="M499.536,-57.9883C499.991,-49.4941 500.652,-37.1697 501.174,-27.4169"/>
<polygon fill="black" stroke="black" points="501.448,-22.3039 503.427,-27.4171 501.314,-24.8003 501.18,-27.2967 501.18,-27.2967 501.18,-27.2967 501.314,-24.8003 498.934,-27.1763 501.448,-22.3039 501.448,-22.3039"/>
</g>
</g>
</svg>
