<?xml version="1.0" encoding="UTF-8" standalone="no"?>
<?xml-stylesheet href="style.css" type="text/css"?>
<!DOCTYPE svg PUBLIC "-//W3C//DTD SVG 1.1//EN"
 "http://www.w3.org/Graphics/SVG/1.1/DTD/svg11.dtd">
<!-- Generated by graphviz version 2.38.0 (20140413.2041)
 -->
<!-- Title: 92.svg Pages: 1 -->
<svg width="1225pt" height="179pt"
 viewBox="0.00 0.00 1224.50 179.00" xmlns="http://www.w3.org/2000/svg" xmlns:xlink="http://www.w3.org/1999/xlink">
<g id="graph0" class="graph" transform="scale(1 1) rotate(0) translate(4 175)">
<title>92.svg</title>
<polygon fill="white" stroke="none" points="-4,4 -4,-175 1220.5,-175 1220.5,4 -4,4"/>
<!-- r0 -->
<g id="node1" class="node"><title>r0</title>
<polygon fill="none" stroke="black" stroke-dasharray="5,2" points="185.5,-171 162.5,-171 162.5,-153 185.5,-153 185.5,-171"/>
<text text-anchor="middle" x="174" y="-159.8" font-family="serif" font-size="9.00">0</text>
</g>
<!-- v8 -->
<g id="v8_Field" class="node"><title>v8</title>
<ellipse fill="none" stroke="black" cx="25" cy="-11" rx="25" ry="11"/>
<text text-anchor="middle" x="25" y="-8.8" font-family="sans-serif" font-size="9.00">Field</text>
</g>
<!-- r0&#45;&gt;v8 -->
<g id="edge1" class="edge"><title>r0&#45;&gt;v8</title>
<path fill="none" stroke="black" d="M162.222,-152.862C142.816,-139.14 103.443,-109.953 75,-80 58.8635,-63.0068 43.3756,-40.7082 34.0231,-26.3641"/>
<polygon fill="black" stroke="black" points="31.0945,-21.8237 35.6956,-24.8059 32.4496,-23.9246 33.8047,-26.0255 33.8047,-26.0255 33.8047,-26.0255 32.4496,-23.9246 31.9139,-27.2451 31.0945,-21.8237 31.0945,-21.8237"/>
</g>
<!-- v9 -->
<g id="v9_Aura" class="node"><title>v9</title>
<ellipse fill="none" stroke="black" cx="113" cy="-69" rx="21.5" ry="11"/>
<text text-anchor="middle" x="113" y="-66.8" font-family="sans-serif" font-size="9.00">Aura</text>
</g>
<!-- r0&#45;&gt;v9 -->
<g id="edge2" class="edge"><title>r0&#45;&gt;v9</title>
<path fill="none" stroke="black" d="M165.157,-152.911C156.404,-144.557 143.038,-130.826 134,-117 127.42,-106.935 121.956,-94.4673 118.252,-84.9025"/>
<polygon fill="black" stroke="black" points="116.479,-80.1934 120.347,-84.08 117.36,-82.5331 118.241,-84.8728 118.241,-84.8728 118.241,-84.8728 117.36,-82.5331 116.135,-85.6656 116.479,-80.1934 116.479,-80.1934"/>
</g>
<!-- v10 -->
<g id="v10_Aura" class="node"><title>v10</title>
<ellipse fill="none" stroke="black" cx="274" cy="-69" rx="21.5" ry="11"/>
<text text-anchor="middle" x="274" y="-66.8" font-family="sans-serif" font-size="9.00">Aura</text>
</g>
<!-- r0&#45;&gt;v10 -->
<g id="edge3" class="edge"><title>r0&#45;&gt;v10</title>
<path fill="none" stroke="black" d="M185.666,-154.507C199.146,-146.675 221.576,-132.601 238,-117 248.469,-107.055 258.289,-93.8714 265.02,-83.9982"/>
<polygon fill="black" stroke="black" points="267.886,-79.7184 266.973,-85.1249 266.495,-81.7956 265.104,-83.8728 265.104,-83.8728 265.104,-83.8728 266.495,-81.7956 263.234,-82.6207 267.886,-79.7184 267.886,-79.7184"/>
</g>
<!-- v11 -->
<g id="v11_Aura" class="node"><title>v11</title>
<ellipse fill="none" stroke="black" cx="174" cy="-69" rx="21.5" ry="11"/>
<text text-anchor="middle" x="174" y="-66.8" font-family="sans-serif" font-size="9.00">Aura</text>
</g>
<!-- r0&#45;&gt;v11 -->
<g id="edge4" class="edge"><title>r0&#45;&gt;v11</title>
<path fill="none" stroke="black" d="M174,-152.924C174,-137.736 174,-104.696 174,-85.2178"/>
<polygon fill="black" stroke="black" points="174,-80.1095 176.25,-85.1095 174,-82.6095 174,-85.1095 174,-85.1095 174,-85.1095 174,-82.6095 171.75,-85.1096 174,-80.1095 174,-80.1095"/>
</g>
<!-- v15 -->
<g id="v15_Aura" class="node"><title>v15</title>
<ellipse fill="none" stroke="black" cx="997" cy="-69" rx="21.5" ry="11"/>
<text text-anchor="middle" x="997" y="-66.8" font-family="sans-serif" font-size="9.00">Aura</text>
</g>
<!-- r0&#45;&gt;v15 -->
<g id="edge5" class="edge"><title>r0&#45;&gt;v15</title>
<path fill="none" stroke="black" d="M185.667,-160.144C240.682,-156.072 479.668,-137.987 675,-117 804.628,-103.072 838.747,-108.357 966,-80 969.043,-79.322 972.212,-78.4723 975.313,-77.5563"/>
<polygon fill="black" stroke="black" points="980.102,-76.0774 975.988,-79.7028 977.713,-76.8152 975.324,-77.553 975.324,-77.553 975.324,-77.553 977.713,-76.8152 974.66,-75.4032 980.102,-76.0774 980.102,-76.0774"/>
</g>
<!-- r1 -->
<g id="node2" class="node"><title>r1</title>
<polygon fill="none" stroke="black" stroke-dasharray="5,2" points="780.5,-171 757.5,-171 757.5,-153 780.5,-153 780.5,-171"/>
<text text-anchor="middle" x="769" y="-159.8" font-family="serif" font-size="9.00">1</text>
</g>
<!-- v3 -->
<g id="v3_Locale" class="node"><title>v3</title>
<ellipse fill="none" stroke="black" cx="769" cy="-69" rx="29" ry="11"/>
<text text-anchor="middle" x="769" y="-66.8" font-family="sans-serif" font-size="9.00">Locale</text>
</g>
<!-- r1&#45;&gt;v3 -->
<g id="edge6" class="edge"><title>r1&#45;&gt;v3</title>
<path fill="none" stroke="black" d="M769,-152.924C769,-137.736 769,-104.696 769,-85.2178"/>
<polygon fill="black" stroke="black" points="769,-80.1095 771.25,-85.1095 769,-82.6095 769,-85.1095 769,-85.1095 769,-85.1095 769,-82.6095 766.75,-85.1096 769,-80.1095 769,-80.1095"/>
</g>
<!-- v4 -->
<g id="v4_Locale" class="node"><title>v4</title>
<ellipse fill="none" stroke="black" cx="457" cy="-69" rx="29" ry="11"/>
<text text-anchor="middle" x="457" y="-66.8" font-family="sans-serif" font-size="9.00">Locale</text>
</g>
<!-- r1&#45;&gt;v4 -->
<g id="edge7" class="edge"><title>r1&#45;&gt;v4</title>
<path fill="none" stroke="black" d="M757.167,-157.953C730.353,-151.011 662.946,-133.356 607,-117 563.173,-104.187 512.558,-88.0453 482.751,-78.3996"/>
<polygon fill="black" stroke="black" points="477.792,-76.7927 483.242,-76.1937 480.17,-77.5634 482.548,-78.3341 482.548,-78.3341 482.548,-78.3341 480.17,-77.5634 481.855,-80.4745 477.792,-76.7927 477.792,-76.7927"/>
</g>
<!-- v19 -->
<g id="v19_Locale" class="node"><title>v19</title>
<ellipse fill="none" stroke="black" cx="845" cy="-69" rx="29" ry="11"/>
<text text-anchor="middle" x="845" y="-66.8" font-family="sans-serif" font-size="9.00">Locale</text>
</g>
<!-- r1&#45;&gt;v19 -->
<g id="edge8" class="edge"><title>r1&#45;&gt;v19</title>
<path fill="none" stroke="black" d="M775.744,-152.924C788.714,-137.395 817.268,-103.206 833.367,-83.9285"/>
<polygon fill="black" stroke="black" points="836.794,-79.8251 835.316,-85.105 835.192,-81.7439 833.589,-83.6627 833.589,-83.6627 833.589,-83.6627 835.192,-81.7439 831.862,-82.2204 836.794,-79.8251 836.794,-79.8251"/>
</g>
<!-- r2 -->
<g id="node3" class="node"><title>r2</title>
<polygon fill="none" stroke="black" stroke-dasharray="5,2" points="936.5,-171 913.5,-171 913.5,-153 936.5,-153 936.5,-171"/>
<text text-anchor="middle" x="925" y="-159.8" font-family="serif" font-size="9.00">2</text>
</g>
<!-- v0 -->
<g id="v0_Area(1)" class="node"><title>v0</title>
<ellipse fill="none" stroke="black" cx="925" cy="-69" rx="32.5" ry="11"/>
<text text-anchor="middle" x="925" y="-66.8" font-family="sans-serif" font-size="9.00">Area(1)</text>
</g>
<!-- r2&#45;&gt;v0 -->
<g id="edge9" class="edge"><title>r2&#45;&gt;v0</title>
<path fill="none" stroke="black" d="M925,-152.924C925,-137.736 925,-104.696 925,-85.2178"/>
<polygon fill="black" stroke="black" points="925,-80.1095 927.25,-85.1095 925,-82.6095 925,-85.1095 925,-85.1095 925,-85.1095 925,-82.6095 922.75,-85.1096 925,-80.1095 925,-80.1095"/>
</g>
<!-- v1 -->
<g id="v1_Area(0)" class="node"><title>v1</title>
<ellipse fill="none" stroke="black" cx="613" cy="-69" rx="32.5" ry="11"/>
<text text-anchor="middle" x="613" y="-66.8" font-family="sans-serif" font-size="9.00">Area(0)</text>
</g>
<!-- r2&#45;&gt;v1 -->
<g id="edge10" class="edge"><title>r2&#45;&gt;v1</title>
<path fill="none" stroke="black" d="M913.253,-160.104C867.54,-156.462 701.782,-141.772 656,-117 641.872,-109.355 629.933,-95.2552 622.247,-84.486"/>
<polygon fill="black" stroke="black" points="619.22,-80.1031 623.913,-82.9384 620.641,-82.1601 622.062,-84.2172 622.062,-84.2172 622.062,-84.2172 620.641,-82.1601 620.21,-85.4959 619.22,-80.1031 619.22,-80.1031"/>
</g>
<!-- v23 -->
<g id="v23_Area(2)" class="node"><title>v23</title>
<ellipse fill="none" stroke="black" cx="1184" cy="-69" rx="32.5" ry="11"/>
<text text-anchor="middle" x="1184" y="-66.8" font-family="sans-serif" font-size="9.00">Area(2)</text>
</g>
<!-- r2&#45;&gt;v23 -->
<g id="edge11" class="edge"><title>r2&#45;&gt;v23</title>
<path fill="none" stroke="black" d="M936.826,-158.056C962.365,-151.584 1024.45,-135.235 1075,-117 1105.64,-105.948 1139.99,-90.6282 1161.79,-80.523"/>
<polygon fill="black" stroke="black" points="1166.52,-78.3238 1162.94,-82.4737 1164.25,-79.3788 1161.99,-80.4338 1161.99,-80.4338 1161.99,-80.4338 1164.25,-79.3788 1161.04,-78.394 1166.52,-78.3238 1166.52,-78.3238"/>
</g>
<!-- e2 -->
<g id="node4" class="node"><title>e2</title>
</g>
<!-- v2 -->
<g id="v2_GPS(6)" class="node"><title>v2</title>
<ellipse fill="none" stroke="black" cx="608" cy="-11" rx="29" ry="11"/>
<text text-anchor="middle" x="608" y="-8.8" font-family="sans-serif" font-size="9.00">GPS(6)</text>
</g>
<!-- e2&#45;&gt;v2 -->
<g id="edge34" class="edge"><title>e2&#45;&gt;v2</title>
<path fill="none" stroke="green" d="M229,-116C229,-116 466.68,-106.809 528,-80 558.731,-66.5642 586.615,-37.3135 599.868,-21.9227"/>
</g>
<!-- v5 -->
<g id="v5_Lion" class="node"><title>v5</title>
<ellipse fill="none" stroke="black" cx="386" cy="-11" rx="21.5" ry="11"/>
<text text-anchor="middle" x="386" y="-8.8" font-family="sans-serif" font-size="9.00">Lion</text>
</g>
<!-- e2&#45;&gt;v5 -->
<g id="edge35" class="edge"><title>e2&#45;&gt;v5</title>
<path fill="none" stroke="green" d="M229,-116C229,-116 297.004,-110.368 338,-80 359.133,-64.3453 374.478,-36.5802 381.584,-21.8366"/>
</g>
<!-- e2&#45;&gt;v11 -->
<g id="edge36" class="edge"><title>e2&#45;&gt;v11</title>
<path fill="none" stroke="green" d="M229,-116C229,-116 200.277,-91.9773 184.345,-78.6522"/>
</g>
<!-- v14 -->
<g id="v14_Child" class="node"><title>v14</title>
<ellipse fill="none" stroke="black" cx="188" cy="-11" rx="25" ry="11"/>
<text text-anchor="middle" x="188" y="-8.8" font-family="sans-serif" font-size="9.00">Child</text>
</g>
<!-- e2&#45;&gt;v14 -->
<g id="edge37" class="edge"><title>e2&#45;&gt;v14</title>
<path fill="none" stroke="green" d="M229,-116C229,-116 202.193,-48.0023 191.931,-21.972"/>
</g>
<!-- e3 -->
<g id="node5" class="node"><title>e3</title>
</g>
<!-- v6 -->
<g id="v6_GPS(8)" class="node"><title>v6</title>
<ellipse fill="none" stroke="black" cx="532" cy="-11" rx="29" ry="11"/>
<text text-anchor="middle" x="532" y="-8.8" font-family="sans-serif" font-size="9.00">GPS(8)</text>
</g>
<!-- e3&#45;&gt;v6 -->
<g id="edge38" class="edge"><title>e3&#45;&gt;v6</title>
<path fill="none" stroke="green" d="M144,-116C144,-116 462.365,-101.725 495,-80 515.473,-66.3705 525.583,-37.4788 529.684,-22.1098"/>
</g>
<!-- v7 -->
<g id="v7_Lion" class="node"><title>v7</title>
<ellipse fill="none" stroke="black" cx="324" cy="-11" rx="21.5" ry="11"/>
<text text-anchor="middle" x="324" y="-8.8" font-family="sans-serif" font-size="9.00">Lion</text>
</g>
<!-- e3&#45;&gt;v7 -->
<g id="edge39" class="edge"><title>e3&#45;&gt;v7</title>
<path fill="none" stroke="green" d="M144,-116C144,-116 277.409,-104.923 304,-80 320.161,-64.8526 323.483,-37.3881 324.032,-22.416"/>
</g>
<!-- e3&#45;&gt;v9 -->
<g id="edge40" class="edge"><title>e3&#45;&gt;v9</title>
<path fill="none" stroke="green" d="M144,-116C144,-116 128.674,-93.2583 119.574,-79.7554"/>
</g>
<!-- v12 -->
<g id="v12_Child" class="node"><title>v12</title>
<ellipse fill="none" stroke="black" cx="115" cy="-11" rx="25" ry="11"/>
<text text-anchor="middle" x="115" y="-8.8" font-family="sans-serif" font-size="9.00">Child</text>
</g>
<!-- e3&#45;&gt;v12 -->
<g id="edge41" class="edge"><title>e3&#45;&gt;v12</title>
<path fill="none" stroke="green" d="M144,-116C144,-116 97.8979,-107.615 82,-80 70.3461,-59.7573 90.8526,-34.7893 104.431,-21.4537"/>
</g>
<!-- e4 -->
<g id="node6" class="node"><title>e4</title>
</g>
<!-- e4&#45;&gt;v10 -->
<g id="edge42" class="edge"><title>e4&#45;&gt;v10</title>
<path fill="none" stroke="green" d="M666,-116C666,-116 375.181,-81.8732 294.524,-72.4084"/>
</g>
<!-- v13 -->
<g id="v13_Child" class="node"><title>v13</title>
<ellipse fill="none" stroke="black" cx="258" cy="-11" rx="25" ry="11"/>
<text text-anchor="middle" x="258" y="-8.8" font-family="sans-serif" font-size="9.00">Child</text>
</g>
<!-- e4&#45;&gt;v13 -->
<g id="edge43" class="edge"><title>e4&#45;&gt;v13</title>
<path fill="none" stroke="green" d="M666,-116C666,-116 525.854,-109.824 419,-80 363.18,-64.4201 301.032,-34.2358 273.072,-19.9122"/>
</g>
<!-- v18 -->
<g id="v18_Lion" class="node"><title>v18</title>
<ellipse fill="none" stroke="black" cx="761" cy="-11" rx="21.5" ry="11"/>
<text text-anchor="middle" x="761" y="-8.8" font-family="sans-serif" font-size="9.00">Lion</text>
</g>
<!-- e4&#45;&gt;v18 -->
<g id="edge44" class="edge"><title>e4&#45;&gt;v18</title>
<path fill="none" stroke="green" d="M666,-116C666,-116 678.54,-80.0922 698,-58 712.412,-41.6385 733.615,-27.6627 747.366,-19.5431"/>
</g>
<!-- v22 -->
<g id="v22_GPS(2)" class="node"><title>v22</title>
<ellipse fill="none" stroke="black" cx="881" cy="-11" rx="29" ry="11"/>
<text text-anchor="middle" x="881" y="-8.8" font-family="sans-serif" font-size="9.00">GPS(2)</text>
</g>
<!-- e4&#45;&gt;v22 -->
<g id="edge45" class="edge"><title>e4&#45;&gt;v22</title>
<path fill="none" stroke="green" d="M666,-116C666,-116 697.267,-77.0043 731,-58 771.463,-35.2044 824.564,-22.3687 855.521,-16.3376"/>
</g>
<!-- e5 -->
<g id="node7" class="node"><title>e5</title>
</g>
<!-- e5&#45;&gt;v15 -->
<g id="edge46" class="edge"><title>e5&#45;&gt;v15</title>
<path fill="none" stroke="green" d="M1066,-116C1066,-116 1029.18,-91.4551 1009.34,-78.2239"/>
</g>
<!-- v16 -->
<g id="v16_Child" class="node"><title>v16</title>
<ellipse fill="none" stroke="black" cx="1039" cy="-11" rx="25" ry="11"/>
<text text-anchor="middle" x="1039" y="-8.8" font-family="sans-serif" font-size="9.00">Child</text>
</g>
<!-- e5&#45;&gt;v16 -->
<g id="edge47" class="edge"><title>e5&#45;&gt;v16</title>
<path fill="none" stroke="green" d="M1066,-116C1066,-116 1067.8,-82.9631 1061,-58 1057.42,-44.8468 1050.18,-30.8722 1044.99,-21.8243"/>
</g>
<!-- v20 -->
<g id="v20_Lion" class="node"><title>v20</title>
<ellipse fill="none" stroke="black" cx="966" cy="-11" rx="21.5" ry="11"/>
<text text-anchor="middle" x="966" y="-8.8" font-family="sans-serif" font-size="9.00">Lion</text>
</g>
<!-- e5&#45;&gt;v20 -->
<g id="edge48" class="edge"><title>e5&#45;&gt;v20</title>
<path fill="none" stroke="green" d="M1066,-116C1066,-116 1048.36,-80.5517 1027,-58 1012.41,-42.5928 992.226,-28.4759 979.144,-20.0548"/>
</g>
<!-- v24 -->
<g id="v24_GPS(4)" class="node"><title>v24</title>
<ellipse fill="none" stroke="black" cx="1153" cy="-11" rx="29" ry="11"/>
<text text-anchor="middle" x="1153" y="-8.8" font-family="sans-serif" font-size="9.00">GPS(4)</text>
</g>
<!-- e5&#45;&gt;v24 -->
<g id="edge49" class="edge"><title>e5&#45;&gt;v24</title>
<path fill="none" stroke="green" d="M1066,-116C1066,-116 1123.43,-47.3438 1144.97,-21.5977"/>
</g>
<!-- v0&#45;&gt;v3 -->
<g id="edge32" class="edge"><title>v0&#45;&gt;v3</title>
<path fill="none" stroke="green" d="M911.567,-79.2214C901.746,-86.0232 887.786,-94.3546 874,-98 849.079,-104.59 840.799,-105.035 816,-98 803.086,-94.3366 790.241,-86.007 781.251,-79.2104"/>
</g>
<!-- v0&#45;&gt;v22 -->
<g id="edge12" class="edge"><title>v0&#45;&gt;v22</title>
<path fill="none" stroke="black" d="M917.336,-58.2455C910.269,-49.2519 899.708,-35.8101 891.79,-25.7327"/>
<polygon fill="black" stroke="black" points="888.576,-21.6427 893.435,-24.1842 890.121,-23.6085 891.666,-25.5743 891.666,-25.5743 891.666,-25.5743 890.121,-23.6085 889.896,-26.9644 888.576,-21.6427 888.576,-21.6427"/>
</g>
<!-- v1&#45;&gt;v2 -->
<g id="edge13" class="edge"><title>v1&#45;&gt;v2</title>
<path fill="none" stroke="black" d="M612.106,-57.9883C611.348,-49.4941 610.247,-37.1697 609.377,-27.4169"/>
<polygon fill="black" stroke="black" points="608.92,-22.3039 611.606,-27.0839 609.142,-24.794 609.365,-27.2841 609.365,-27.2841 609.365,-27.2841 609.142,-24.794 607.124,-27.4842 608.92,-22.3039 608.92,-22.3039"/>
</g>
<!-- v1&#45;&gt;v4 -->
<g id="edge33" class="edge"><title>v1&#45;&gt;v4</title>
<path fill="none" stroke="green" d="M580.322,-69C548.965,-69 517.607,-69 486.25,-69"/>
</g>
<!-- v1&#45;&gt;v6 -->
<g id="edge14" class="edge"><title>v1&#45;&gt;v6</title>
<path fill="none" stroke="black" d="M599.624,-58.7527C585.861,-49.237 564.361,-34.3733 549.309,-23.9665"/>
<polygon fill="black" stroke="black" points="544.86,-20.8908 550.252,-21.8835 546.916,-22.3125 548.973,-23.7342 548.973,-23.7342 548.973,-23.7342 546.916,-22.3125 547.693,-25.585 544.86,-20.8908 544.86,-20.8908"/>
</g>
<!-- v21 -->
<g id="v21_GPS(0)" class="node"><title>v21</title>
<ellipse fill="none" stroke="black" cx="684" cy="-11" rx="29" ry="11"/>
<text text-anchor="middle" x="684" y="-8.8" font-family="sans-serif" font-size="9.00">GPS(0)</text>
</g>
<!-- v1&#45;&gt;v21 -->
<g id="edge15" class="edge"><title>v1&#45;&gt;v21</title>
<path fill="none" stroke="black" d="M625.044,-58.5004C636.845,-49.1924 654.906,-34.9475 667.927,-24.6771"/>
<polygon fill="black" stroke="black" points="672.134,-21.3593 669.601,-26.2224 670.171,-22.9076 668.208,-24.4558 668.208,-24.4558 668.208,-24.4558 670.171,-22.9076 666.814,-22.6892 672.134,-21.3593 672.134,-21.3593"/>
</g>
<!-- v3&#45;&gt;v18 -->
<g id="edge16" class="edge"><title>v3&#45;&gt;v18</title>
<path fill="none" stroke="black" d="M767.57,-57.9883C766.356,-49.4941 764.596,-37.1697 763.202,-27.4169"/>
<polygon fill="black" stroke="black" points="762.472,-22.3039 765.407,-26.9354 762.826,-24.7787 763.179,-27.2536 763.179,-27.2536 763.179,-27.2536 762.826,-24.7787 760.952,-27.5719 762.472,-22.3039 762.472,-22.3039"/>
</g>
<!-- v4&#45;&gt;v5 -->
<g id="edge17" class="edge"><title>v4&#45;&gt;v5</title>
<path fill="none" stroke="black" d="M445.276,-58.7527C433.244,-49.2632 414.47,-34.4551 401.281,-24.0526"/>
<polygon fill="black" stroke="black" points="397.04,-20.7077 402.359,-22.0376 399.003,-22.256 400.966,-23.8042 400.966,-23.8042 400.966,-23.8042 399.003,-22.256 399.573,-25.5708 397.04,-20.7077 397.04,-20.7077"/>
</g>
<!-- v4&#45;&gt;v7 -->
<g id="edge18" class="edge"><title>v4&#45;&gt;v7</title>
<path fill="none" stroke="black" d="M438.786,-60.3309C414.241,-49.9964 370.657,-31.6449 344.835,-20.7728"/>
<polygon fill="black" stroke="black" points="339.919,-18.7028 345.4,-18.5694 342.223,-19.6729 344.527,-20.6431 344.527,-20.6431 344.527,-20.6431 342.223,-19.6729 343.654,-22.7168 339.919,-18.7028 339.919,-18.7028"/>
</g>
<!-- v17 -->
<g id="v17_Impala" class="node"><title>v17</title>
<ellipse fill="none" stroke="black" cx="456" cy="-11" rx="29" ry="11"/>
<text text-anchor="middle" x="456" y="-8.8" font-family="sans-serif" font-size="9.00">Impala</text>
</g>
<!-- v4&#45;&gt;v17 -->
<g id="edge19" class="edge"><title>v4&#45;&gt;v17</title>
<path fill="none" stroke="black" d="M456.821,-57.9883C456.67,-49.4941 456.449,-37.1697 456.275,-27.4169"/>
<polygon fill="black" stroke="black" points="456.184,-22.3039 458.523,-27.2629 456.229,-24.8035 456.273,-27.3031 456.273,-27.3031 456.273,-27.3031 456.229,-24.8035 454.024,-27.3433 456.184,-22.3039 456.184,-22.3039"/>
</g>
<!-- v9&#45;&gt;v12 -->
<g id="edge20" class="edge"><title>v9&#45;&gt;v12</title>
<path fill="none" stroke="black" d="M113.358,-57.9883C113.661,-49.4941 114.101,-37.1697 114.449,-27.4169"/>
<polygon fill="black" stroke="black" points="114.632,-22.3039 116.702,-27.381 114.543,-24.8023 114.453,-27.3007 114.453,-27.3007 114.453,-27.3007 114.543,-24.8023 112.205,-27.2203 114.632,-22.3039 114.632,-22.3039"/>
</g>
<!-- v9&#45;&gt;v13 -->
<g id="edge21" class="edge"><title>v9&#45;&gt;v13</title>
<path fill="none" stroke="black" d="M129.351,-61.6849C155.257,-51.6801 205.805,-32.1579 235.239,-20.7906"/>
<polygon fill="black" stroke="black" points="240.126,-18.9031 236.272,-22.8034 237.794,-19.8038 235.462,-20.7045 235.462,-20.7045 235.462,-20.7045 237.794,-19.8038 234.651,-18.6056 240.126,-18.9031 240.126,-18.9031"/>
</g>
<!-- v9&#45;&gt;v14 -->
<g id="edge22" class="edge"><title>v9&#45;&gt;v14</title>
<path fill="none" stroke="black" d="M124.391,-59.4948C137.017,-50.067 157.484,-34.7854 171.781,-24.1101"/>
<polygon fill="black" stroke="black" points="176.005,-20.9566 173.344,-25.751 174.001,-22.4524 171.998,-23.9481 171.998,-23.9481 171.998,-23.9481 174.001,-22.4524 170.652,-22.1452 176.005,-20.9566 176.005,-20.9566"/>
</g>
<!-- v10&#45;&gt;v12 -->
<g id="edge23" class="edge"><title>v10&#45;&gt;v12</title>
<path fill="none" stroke="black" d="M256.984,-62.007C228.468,-51.9634 170.975,-31.7145 138.58,-20.3048"/>
<polygon fill="black" stroke="black" points="133.604,-18.5524 139.068,-18.0913 135.962,-19.383 138.32,-20.2135 138.32,-20.2135 138.32,-20.2135 135.962,-19.383 137.573,-22.3357 133.604,-18.5524 133.604,-18.5524"/>
</g>
<!-- v10&#45;&gt;v13 -->
<g id="edge24" class="edge"><title>v10&#45;&gt;v13</title>
<path fill="none" stroke="black" d="M271.14,-57.9883C268.69,-49.4154 265.126,-36.9411 262.328,-27.1466"/>
<polygon fill="black" stroke="black" points="260.944,-22.3039 264.481,-26.4933 261.631,-24.7077 262.318,-27.1115 262.318,-27.1115 262.318,-27.1115 261.631,-24.7077 260.154,-27.7297 260.944,-22.3039 260.944,-22.3039"/>
</g>
<!-- v10&#45;&gt;v14 -->
<g id="edge25" class="edge"><title>v10&#45;&gt;v14</title>
<path fill="none" stroke="black" d="M261.678,-59.9766C246.989,-50.4117 222.335,-34.3574 205.631,-23.4804"/>
<polygon fill="black" stroke="black" points="201.145,-20.5595 206.563,-21.4024 203.24,-21.9237 205.335,-23.2879 205.335,-23.2879 205.335,-23.2879 203.24,-21.9237 204.107,-25.1734 201.145,-20.5595 201.145,-20.5595"/>
</g>
<!-- v11&#45;&gt;v12 -->
<g id="edge26" class="edge"><title>v11&#45;&gt;v12</title>
<path fill="none" stroke="black" d="M164.521,-59.0026C154.773,-49.7505 139.503,-35.2571 128.496,-24.8098"/>
<polygon fill="black" stroke="black" points="124.652,-21.1611 129.827,-22.9713 126.465,-22.8822 128.278,-24.6032 128.278,-24.6032 128.278,-24.6032 126.465,-22.8822 126.729,-26.2352 124.652,-21.1611 124.652,-21.1611"/>
</g>
<!-- v11&#45;&gt;v13 -->
<g id="edge27" class="edge"><title>v11&#45;&gt;v13</title>
<path fill="none" stroke="black" d="M186.394,-59.737C200.828,-50.1148 224.752,-34.1654 240.935,-23.377"/>
<polygon fill="black" stroke="black" points="245.279,-20.4805 242.367,-25.1261 243.199,-21.8672 241.119,-23.254 241.119,-23.254 241.119,-23.254 243.199,-21.8672 239.871,-21.3819 245.279,-20.4805 245.279,-20.4805"/>
</g>
<!-- v11&#45;&gt;v14 -->
<g id="edge28" class="edge"><title>v11&#45;&gt;v14</title>
<path fill="none" stroke="black" d="M176.503,-57.9883C178.626,-49.4941 181.708,-37.1697 184.146,-27.4169"/>
<polygon fill="black" stroke="black" points="185.424,-22.3039 186.394,-27.7003 184.818,-24.7292 184.211,-27.1546 184.211,-27.1546 184.211,-27.1546 184.818,-24.7292 182.028,-26.6089 185.424,-22.3039 185.424,-22.3039"/>
</g>
<!-- v15&#45;&gt;v16 -->
<g id="edge29" class="edge"><title>v15&#45;&gt;v16</title>
<path fill="none" stroke="black" d="M1004.12,-58.5004C1010.84,-49.5445 1020.99,-36.018 1028.61,-25.859"/>
<polygon fill="black" stroke="black" points="1031.7,-21.7345 1030.5,-27.0845 1030.2,-23.7345 1028.7,-25.7345 1028.7,-25.7345 1028.7,-25.7345 1030.2,-23.7345 1026.9,-24.3845 1031.7,-21.7345 1031.7,-21.7345"/>
</g>
<!-- v17&#45;&gt;v21 -->
<g id="edge50" class="edge"><title>v17&#45;&gt;v21</title>
<path fill="none" stroke="green" d="M468.251,-21.2104C477.241,-28.007 490.086,-36.3366 503,-40 560.295,-56.2535 579.705,-56.2535 637,-40 649.914,-36.3366 662.759,-28.007 671.749,-21.2104"/>
</g>
<!-- v19&#45;&gt;v20 -->
<g id="edge30" class="edge"><title>v19&#45;&gt;v20</title>
<path fill="none" stroke="black" d="M862.08,-60.0953C884.217,-49.8498 922.749,-32.0171 946.159,-21.1824"/>
<polygon fill="black" stroke="black" points="950.914,-18.9819 947.322,-23.1239 948.645,-20.0319 946.377,-21.082 946.377,-21.082 946.377,-21.082 948.645,-20.0319 945.432,-19.04 950.914,-18.9819 950.914,-18.9819"/>
</g>
<!-- v19&#45;&gt;v23 -->
<g id="edge51" class="edge"><title>v19&#45;&gt;v23</title>
<path fill="none" stroke="green" d="M857.251,-79.2104C866.241,-86.007 879.086,-94.3366 892,-98 942.454,-112.313 1077.05,-110.411 1128,-98 1143.11,-94.3208 1158.68,-85.8006 1169.56,-78.9418"/>
</g>
<!-- v23&#45;&gt;v24 -->
<g id="edge31" class="edge"><title>v23&#45;&gt;v24</title>
<path fill="none" stroke="black" d="M1178.46,-57.9883C1173.61,-49.2286 1166.5,-36.3956 1161.03,-26.5103"/>
<polygon fill="black" stroke="black" points="1158.49,-21.925 1162.88,-25.2097 1159.71,-24.1122 1160.92,-26.2995 1160.92,-26.2995 1160.92,-26.2995 1159.71,-24.1122 1158.95,-27.3892 1158.49,-21.925 1158.49,-21.925"/>
</g>
</g>
</svg>
