<?xml version="1.0" encoding="UTF-8" standalone="no"?>
<?xml-stylesheet href="style.css" type="text/css"?>
<!DOCTYPE svg PUBLIC "-//W3C//DTD SVG 1.1//EN"
 "http://www.w3.org/Graphics/SVG/1.1/DTD/svg11.dtd">
<!-- Generated by graphviz version 2.38.0 (20140413.2041)
 -->
<!-- Title: 16.svg Pages: 1 -->
<svg width="892pt" height="374pt"
 viewBox="0.00 0.00 891.50 374.00" xmlns="http://www.w3.org/2000/svg" xmlns:xlink="http://www.w3.org/1999/xlink">
<g id="graph0" class="graph" transform="scale(1 1) rotate(0) translate(4 370)">
<title>16.svg</title>
<polygon fill="white" stroke="none" points="-4,4 -4,-370 887.5,-370 887.5,4 -4,4"/>
<!-- r0 -->
<g id="node1" class="node"><title>r0</title>
<polygon fill="none" stroke="black" stroke-dasharray="5,2" points="421,-366 398,-366 398,-348 421,-348 421,-366"/>
<text text-anchor="middle" x="409.5" y="-354.8" font-family="serif" font-size="9.00">0</text>
</g>
<!-- v0 -->
<g id="v0_Building" class="node"><title>v0</title>
<ellipse fill="none" stroke="black" cx="409.5" cy="-301" rx="36" ry="11"/>
<text text-anchor="middle" x="409.5" y="-298.8" font-family="sans-serif" font-size="9.00">Building</text>
</g>
<!-- r0&#45;&gt;v0 -->
<g id="edge1" class="edge"><title>r0&#45;&gt;v0</title>
<path fill="none" stroke="black" d="M409.5,-347.562C409.5,-339.453 409.5,-327.014 409.5,-317.181"/>
<polygon fill="black" stroke="black" points="409.5,-312.03 411.75,-317.03 409.5,-314.53 409.5,-317.03 409.5,-317.03 409.5,-317.03 409.5,-314.53 407.25,-317.03 409.5,-312.03 409.5,-312.03"/>
</g>
<!-- oalarm -->
<g id="node2" class="node"><title>oalarm</title>
<text text-anchor="middle" x="47.5" y="-354.8" font-family="serif" font-size="9.00">alarm</text>
</g>
<!-- e1 -->
<g id="node12" class="node"><title>e1</title>
</g>
<!-- oalarm&#45;&gt;e1 -->
<g id="edge19" class="edge"><title>oalarm&#45;&gt;e1</title>
<path fill="none" stroke="green" d="M47.5,-347.885C47.5,-307.27 47.5,-128 47.5,-128"/>
</g>
<!-- ocntrlRm -->
<g id="node3" class="node"><title>ocntrlRm</title>
<text text-anchor="middle" x="781.5" y="-354.8" font-family="serif" font-size="9.00">cntrlRm</text>
</g>
<!-- e2 -->
<g id="node13" class="node"><title>e2</title>
</g>
<!-- ocntrlRm&#45;&gt;e2 -->
<g id="edge22" class="edge"><title>ocntrlRm&#45;&gt;e2</title>
<path fill="none" stroke="green" d="M781.5,-347.885C781.5,-307.27 781.5,-128 781.5,-128"/>
</g>
<!-- oserv -->
<g id="node4" class="node"><title>oserv</title>
<text text-anchor="middle" x="105.5" y="-354.8" font-family="serif" font-size="9.00">serv</text>
</g>
<!-- e3 -->
<g id="node14" class="node"><title>e3</title>
</g>
<!-- oserv&#45;&gt;e3 -->
<g id="edge25" class="edge"><title>oserv&#45;&gt;e3</title>
<path fill="none" stroke="green" d="M105.963,-347.885C108.278,-307.27 118.5,-128 118.5,-128"/>
</g>
<!-- oserverRm -->
<g id="node5" class="node"><title>oserverRm</title>
<text text-anchor="middle" x="688.5" y="-354.8" font-family="serif" font-size="9.00">serverRm</text>
</g>
<!-- e4 -->
<g id="node15" class="node"><title>e4</title>
</g>
<!-- oserverRm&#45;&gt;e4 -->
<g id="edge28" class="edge"><title>oserverRm&#45;&gt;e4</title>
<path fill="none" stroke="green" d="M688.5,-347.945C688.5,-322.265 688.5,-244 688.5,-244"/>
</g>
<!-- osl1 -->
<g id="node6" class="node"><title>osl1</title>
<text text-anchor="middle" x="473.5" y="-354.8" font-family="serif" font-size="9.00">sl1</text>
</g>
<!-- e5 -->
<g id="node16" class="node"><title>e5</title>
</g>
<!-- osl1&#45;&gt;e5 -->
<g id="edge31" class="edge"><title>osl1&#45;&gt;e5</title>
<path fill="none" stroke="green" d="M473.5,-347.885C473.5,-307.27 473.5,-128 473.5,-128"/>
</g>
<!-- osl2 -->
<g id="node7" class="node"><title>osl2</title>
<text text-anchor="middle" x="287.5" y="-354.8" font-family="serif" font-size="9.00">sl2</text>
</g>
<!-- e6 -->
<g id="node17" class="node"><title>e6</title>
</g>
<!-- osl2&#45;&gt;e6 -->
<g id="edge34" class="edge"><title>osl2&#45;&gt;e6</title>
<path fill="none" stroke="green" d="M287.5,-347.885C287.5,-307.27 287.5,-128 287.5,-128"/>
</g>
<!-- osl3 -->
<g id="node8" class="node"><title>osl3</title>
<text text-anchor="middle" x="156.5" y="-354.8" font-family="serif" font-size="9.00">sl3</text>
</g>
<!-- e7 -->
<g id="node18" class="node"><title>e7</title>
</g>
<!-- osl3&#45;&gt;e7 -->
<g id="edge37" class="edge"><title>osl3&#45;&gt;e7</title>
<path fill="none" stroke="green" d="M160.237,-347.885C178.942,-307.27 261.5,-128 261.5,-128"/>
</g>
<!-- ostation -->
<g id="node9" class="node"><title>ostation</title>
<text text-anchor="middle" x="345.5" y="-354.8" font-family="serif" font-size="9.00">station</text>
</g>
<!-- e8 -->
<g id="node19" class="node"><title>e8</title>
</g>
<!-- ostation&#45;&gt;e8 -->
<g id="edge40" class="edge"><title>ostation&#45;&gt;e8</title>
<path fill="none" stroke="green" d="M345.5,-347.885C345.5,-307.27 345.5,-128 345.5,-128"/>
</g>
<!-- otoiletRm -->
<g id="node10" class="node"><title>otoiletRm</title>
<text text-anchor="middle" x="855.5" y="-354.8" font-family="serif" font-size="9.00">toiletRm</text>
</g>
<!-- e9 -->
<g id="node20" class="node"><title>e9</title>
</g>
<!-- otoiletRm&#45;&gt;e9 -->
<g id="edge43" class="edge"><title>otoiletRm&#45;&gt;e9</title>
<path fill="none" stroke="green" d="M854.219,-347.885C847.806,-307.27 819.5,-128 819.5,-128"/>
</g>
<!-- e0 -->
<g id="node11" class="node"><title>e0</title>
</g>
<!-- v8 -->
<g id="v8_SmartLight" class="node"><title>v8</title>
<ellipse fill="none" stroke="black" cx="554.5" cy="-11" rx="43" ry="11"/>
<text text-anchor="middle" x="554.5" y="-8.8" font-family="sans-serif" font-size="9.00">SmartLight</text>
</g>
<!-- e0&#45;&gt;v8 -->
<g id="edge18" class="edge"><title>e0&#45;&gt;v8</title>
<path fill="none" stroke="green" d="M539.595,-64.1674C542.047,-55.5862 548.044,-34.5957 551.64,-22.0117"/>
<polygon fill="green" stroke="green" points="542.058,-68.2885 535.327,-66.3653 535.712,-65.0192 542.442,-66.9424 542.058,-68.2885"/>
<polyline fill="none" stroke="green" points="538.5,-68 539.462,-64.6347 "/>
</g>
<!-- v2 -->
<g id="v2_InstallationBus" class="node"><title>v2</title>
<ellipse fill="none" stroke="black" cx="245.5" cy="-69" rx="61" ry="11"/>
<text text-anchor="middle" x="245.5" y="-66.8" font-family="sans-serif" font-size="9.00">InstallationBus</text>
</g>
<!-- e1&#45;&gt;v2 -->
<g id="edge20" class="edge"><title>e1&#45;&gt;v2</title>
<path fill="none" stroke="green" d="M47.5,-126C47.5,-126 159.456,-94.3357 214.996,-78.6273"/>
</g>
<!-- v10 -->
<g id="v10_FireAlarm" class="node"><title>v10</title>
<ellipse fill="none" stroke="black" cx="39.5" cy="-11" rx="39.5" ry="11"/>
<text text-anchor="middle" x="39.5" y="-8.8" font-family="sans-serif" font-size="9.00">FireAlarm</text>
</g>
<!-- e1&#45;&gt;v10 -->
<g id="edge21" class="edge"><title>e1&#45;&gt;v10</title>
<path fill="none" stroke="green" d="M47.5,-126C47.5,-126 42.1678,-50.0168 40.2099,-22.1167"/>
</g>
<!-- v11 -->
<g id="v11_Hallway" class="node"><title>v11</title>
<ellipse fill="none" stroke="black" cx="765.5" cy="-11" rx="32.5" ry="11"/>
<text text-anchor="middle" x="765.5" y="-8.8" font-family="sans-serif" font-size="9.00">Hallway</text>
</g>
<!-- e2&#45;&gt;v11 -->
<g id="edge23" class="edge"><title>e2&#45;&gt;v11</title>
<path fill="none" stroke="green" d="M781.5,-126C781.5,-126 770.836,-50.0168 766.92,-22.1167"/>
</g>
<!-- v14 -->
<g id="v14_Room" class="node"><title>v14</title>
<ellipse fill="none" stroke="black" cx="498.5" cy="-69" rx="21.5" ry="11"/>
<text text-anchor="middle" x="498.5" y="-66.8" font-family="sans-serif" font-size="9.00">Room</text>
</g>
<!-- e2&#45;&gt;v14 -->
<g id="edge24" class="edge"><title>e2&#45;&gt;v14</title>
<path fill="none" stroke="green" d="M781.5,-126C781.5,-126 639.212,-108.364 528.5,-80 524.139,-78.8827 519.494,-77.4552 515.194,-76.0308"/>
</g>
<!-- e3&#45;&gt;v2 -->
<g id="edge26" class="edge"><title>e3&#45;&gt;v2</title>
<path fill="none" stroke="green" d="M118.5,-126C118.5,-126 188.089,-95.315 224.243,-79.3731"/>
</g>
<!-- v9 -->
<g id="v9_Server" class="node"><title>v9</title>
<ellipse fill="none" stroke="black" cx="125.5" cy="-11" rx="29" ry="11"/>
<text text-anchor="middle" x="125.5" y="-8.8" font-family="sans-serif" font-size="9.00">Server</text>
</g>
<!-- e3&#45;&gt;v9 -->
<g id="edge27" class="edge"><title>e3&#45;&gt;v9</title>
<path fill="none" stroke="green" d="M118.5,-126C118.5,-126 123.166,-50.0168 124.879,-22.1167"/>
</g>
<!-- v4 -->
<g id="v4_Room" class="node"><title>v4</title>
<ellipse fill="none" stroke="black" cx="553.5" cy="-185" rx="21.5" ry="11"/>
<text text-anchor="middle" x="553.5" y="-182.8" font-family="sans-serif" font-size="9.00">Room</text>
</g>
<!-- e4&#45;&gt;v4 -->
<g id="edge29" class="edge"><title>e4&#45;&gt;v4</title>
<path fill="none" stroke="green" d="M688.5,-242C688.5,-242 604.862,-207.306 569.25,-192.534"/>
</g>
<!-- e4&#45;&gt;v11 -->
<g id="edge30" class="edge"><title>e4&#45;&gt;v11</title>
<path fill="none" stroke="green" d="M688.5,-242C688.5,-242 709.47,-218.521 719.5,-196 747.364,-133.435 760.316,-51.0694 764.194,-22.3818"/>
</g>
<!-- e5&#45;&gt;v2 -->
<g id="edge32" class="edge"><title>e5&#45;&gt;v2</title>
<path fill="none" stroke="green" d="M473.5,-126C473.5,-126 342.564,-93.8403 279.142,-78.263"/>
</g>
<!-- v13 -->
<g id="v13_SmartLight" class="node"><title>v13</title>
<ellipse fill="none" stroke="black" cx="658.5" cy="-11" rx="43" ry="11"/>
<text text-anchor="middle" x="658.5" y="-8.8" font-family="sans-serif" font-size="9.00">SmartLight</text>
</g>
<!-- e5&#45;&gt;v13 -->
<g id="edge33" class="edge"><title>e5&#45;&gt;v13</title>
<path fill="none" stroke="green" d="M473.5,-126C473.5,-126 479.811,-119.979 485.5,-116 511.61,-97.7357 520.135,-96.3237 547.5,-80 582.047,-59.3919 622.216,-34.5667 643.487,-21.352"/>
</g>
<!-- e6&#45;&gt;v2 -->
<g id="edge35" class="edge"><title>e6&#45;&gt;v2</title>
<path fill="none" stroke="green" d="M287.5,-126C287.5,-126 265.089,-96.1193 253.009,-80.0117"/>
</g>
<!-- v6 -->
<g id="v6_Laptop" class="node"><title>v6</title>
<ellipse fill="none" stroke="black" cx="391.5" cy="-69" rx="29" ry="11"/>
<text text-anchor="middle" x="391.5" y="-66.8" font-family="sans-serif" font-size="9.00">Laptop</text>
</g>
<!-- e6&#45;&gt;v6 -->
<g id="edge36" class="edge"><title>e6&#45;&gt;v6</title>
<path fill="none" stroke="green" d="M287.5,-126C287.5,-126 346.611,-94.171 375.705,-78.5052"/>
</g>
<!-- e7&#45;&gt;v2 -->
<g id="edge38" class="edge"><title>e7&#45;&gt;v2</title>
<path fill="none" stroke="green" d="M261.5,-126C261.5,-126 252.963,-96.1193 248.36,-80.0117"/>
</g>
<!-- v15 -->
<g id="v15_SmartLight" class="node"><title>v15</title>
<ellipse fill="none" stroke="black" cx="338.5" cy="-11" rx="43" ry="11"/>
<text text-anchor="middle" x="338.5" y="-8.8" font-family="sans-serif" font-size="9.00">SmartLight</text>
</g>
<!-- e7&#45;&gt;v15 -->
<g id="edge39" class="edge"><title>e7&#45;&gt;v15</title>
<path fill="none" stroke="green" d="M261.5,-126C261.5,-126 297.811,-106.097 315.5,-80 327.807,-61.8438 334.063,-36.5118 336.771,-22.4523"/>
</g>
<!-- e8&#45;&gt;v2 -->
<g id="edge41" class="edge"><title>e8&#45;&gt;v2</title>
<path fill="none" stroke="green" d="M345.5,-126C345.5,-126 291.569,-95.7988 262.919,-79.7545"/>
</g>
<!-- v16 -->
<g id="v16_Workstation" class="node"><title>v16</title>
<ellipse fill="none" stroke="black" cx="446.5" cy="-11" rx="47" ry="11"/>
<text text-anchor="middle" x="446.5" y="-8.8" font-family="sans-serif" font-size="9.00">Workstation</text>
</g>
<!-- e8&#45;&gt;v16 -->
<g id="edge42" class="edge"><title>e8&#45;&gt;v16</title>
<path fill="none" stroke="green" d="M345.5,-126C345.5,-126 403.491,-113.694 429.5,-80 442.736,-62.8536 445.784,-36.6761 446.413,-22.3161"/>
</g>
<!-- e9&#45;&gt;v11 -->
<g id="edge44" class="edge"><title>e9&#45;&gt;v11</title>
<path fill="none" stroke="green" d="M819.5,-126C819.5,-126 801.817,-88.1775 787.5,-58 781.657,-45.683 774.882,-31.5386 770.412,-22.2225"/>
</g>
<!-- v12 -->
<g id="v12_Room" class="node"><title>v12</title>
<ellipse fill="none" stroke="black" cx="655.5" cy="-69" rx="21.5" ry="11"/>
<text text-anchor="middle" x="655.5" y="-66.8" font-family="sans-serif" font-size="9.00">Room</text>
</g>
<!-- e9&#45;&gt;v12 -->
<g id="edge45" class="edge"><title>e9&#45;&gt;v12</title>
<path fill="none" stroke="green" d="M819.5,-126C819.5,-126 803.981,-120.339 791.5,-116 748.887,-101.185 698.546,-84.3244 672.707,-75.7165"/>
</g>
<!-- v1 -->
<g id="v1_Floor" class="node"><title>v1</title>
<ellipse fill="none" stroke="black" cx="628.5" cy="-243" rx="25" ry="11"/>
<text text-anchor="middle" x="628.5" y="-240.8" font-family="sans-serif" font-size="9.00">Floor</text>
</g>
<!-- v0&#45;&gt;v1 -->
<g id="edge2" class="edge"><title>v0&#45;&gt;v1</title>
<path fill="none" stroke="black" d="M435.482,-293.356C477.726,-282.554 560.801,-261.311 602.838,-250.562"/>
<polygon fill="black" stroke="black" points="607.755,-249.305 603.468,-252.723 605.333,-249.924 602.911,-250.543 602.911,-250.543 602.911,-250.543 605.333,-249.924 602.354,-248.364 607.755,-249.305 607.755,-249.305"/>
</g>
<!-- v0&#45;&gt;v2 -->
<g id="edge3" class="edge"><title>v0&#45;&gt;v2</title>
<path fill="none" stroke="black" d="M395.318,-290.718C363.061,-268.704 284.451,-209.763 251.5,-138 243.816,-121.266 243.249,-99.7955 243.991,-85.5026"/>
<polygon fill="black" stroke="black" points="244.342,-80.218 246.255,-85.3562 244.176,-82.7126 244.01,-85.2071 244.01,-85.2071 244.01,-85.2071 244.176,-82.7126 241.765,-85.058 244.342,-80.218 244.342,-80.218"/>
</g>
<!-- v1&#45;&gt;v4 -->
<g id="edge4" class="edge"><title>v1&#45;&gt;v4</title>
<path fill="none" stroke="black" d="M616.781,-233.25C603.938,-223.66 583.273,-208.231 569.074,-197.629"/>
<polygon fill="black" stroke="black" points="564.891,-194.505 570.243,-195.694 566.894,-196.001 568.897,-197.497 568.897,-197.497 568.897,-197.497 566.894,-196.001 567.551,-199.3 564.891,-194.505 564.891,-194.505"/>
</g>
<!-- v1&#45;&gt;v11 -->
<g id="edge5" class="edge"><title>v1&#45;&gt;v11</title>
<path fill="none" stroke="black" d="M635.084,-232.223C641.263,-222.974 650.696,-208.662 658.5,-196 696.779,-133.889 739.658,-58.1376 757.273,-26.7303"/>
<polygon fill="black" stroke="black" points="759.879,-22.0792 759.398,-27.5411 758.657,-24.2603 757.435,-26.4414 757.435,-26.4414 757.435,-26.4414 758.657,-24.2603 755.472,-25.3417 759.879,-22.0792 759.879,-22.0792"/>
</g>
<!-- v1&#45;&gt;v12 -->
<g id="edge6" class="edge"><title>v1&#45;&gt;v12</title>
<path fill="none" stroke="black" d="M632.185,-231.913C635.407,-222.688 639.957,-208.602 642.5,-196 650.434,-156.685 653.661,-109.438 654.861,-85.514"/>
<polygon fill="black" stroke="black" points="655.112,-80.226 657.123,-85.3271 654.994,-82.7232 654.875,-85.2204 654.875,-85.2204 654.875,-85.2204 654.994,-82.7232 652.628,-85.1137 655.112,-80.226 655.112,-80.226"/>
</g>
<!-- v1&#45;&gt;v14 -->
<g id="edge7" class="edge"><title>v1&#45;&gt;v14</title>
<path fill="none" stroke="black" d="M625.714,-231.794C619.051,-208.886 600.339,-152.529 568.5,-116 554.472,-99.9061 533.512,-87.1427 518.184,-79.1828"/>
<polygon fill="black" stroke="black" points="513.622,-76.8684 519.099,-77.124 515.851,-77.9995 518.081,-79.1306 518.081,-79.1306 518.081,-79.1306 515.851,-77.9995 517.063,-81.1371 513.622,-76.8684 513.622,-76.8684"/>
</g>
<!-- v3 -->
<g id="v3_Data" class="node"><title>v3</title>
<ellipse fill="none" stroke="black" cx="194.5" cy="-11" rx="21.5" ry="11"/>
<text text-anchor="middle" x="194.5" y="-8.8" font-family="sans-serif" font-size="9.00">Data</text>
</g>
<!-- v2&#45;&gt;v3 -->
<g id="edge8" class="edge"><title>v2&#45;&gt;v3</title>
<path fill="none" stroke="black" d="M236.382,-57.9883C227.985,-48.7676 215.477,-35.0334 206.316,-24.9748"/>
<polygon fill="black" stroke="black" points="202.863,-21.1826 207.893,-23.3643 204.546,-23.031 206.229,-24.8793 206.229,-24.8793 206.229,-24.8793 204.546,-23.031 204.566,-26.3943 202.863,-21.1826 202.863,-21.1826"/>
</g>
<!-- v5 -->
<g id="v5_Visitor" class="node"><title>v5</title>
<ellipse fill="none" stroke="black" cx="527.5" cy="-127" rx="32.5" ry="11"/>
<text text-anchor="middle" x="527.5" y="-124.8" font-family="sans-serif" font-size="9.00">Visitor</text>
</g>
<!-- v4&#45;&gt;v5 -->
<g id="edge9" class="edge"><title>v4&#45;&gt;v5</title>
<path fill="none" stroke="black" d="M548.971,-174.246C544.92,-165.52 538.925,-152.608 534.299,-142.643"/>
<polygon fill="black" stroke="black" points="532.152,-138.02 536.298,-141.607 533.205,-140.287 534.258,-142.555 534.258,-142.555 534.258,-142.555 533.205,-140.287 532.217,-143.502 532.152,-138.02 532.152,-138.02"/>
</g>
<!-- v4&#45;&gt;v8 -->
<g id="edge10" class="edge"><title>v4&#45;&gt;v8</title>
<path fill="none" stroke="black" d="M557.779,-173.996C561.454,-164.827 566.47,-150.776 568.5,-138 574.827,-98.1894 564.935,-50.851 558.793,-27.1322"/>
<polygon fill="black" stroke="black" points="557.473,-22.1694 560.933,-26.4226 558.115,-24.5853 558.758,-27.0013 558.758,-27.0013 558.758,-27.0013 558.115,-24.5853 556.584,-27.5799 557.473,-22.1694 557.473,-22.1694"/>
</g>
<!-- v4&#45;&gt;v9 -->
<g id="edge11" class="edge"><title>v4&#45;&gt;v9</title>
<path fill="none" stroke="black" d="M532.02,-184.312C481.133,-184.304 350.111,-179.868 251.5,-138 196.317,-114.571 152.478,-54.4108 134.43,-26.5554"/>
<polygon fill="black" stroke="black" points="131.559,-22.0587 136.146,-25.0624 132.904,-24.1659 134.25,-26.2731 134.25,-26.2731 134.25,-26.2731 132.904,-24.1659 132.353,-27.4838 131.559,-22.0587 131.559,-22.0587"/>
</g>
<!-- v4&#45;&gt;v10 -->
<g id="edge12" class="edge"><title>v4&#45;&gt;v10</title>
<path fill="none" stroke="black" d="M531.93,-184.354C452.757,-185.266 179.097,-184.901 108.5,-138 88.0768,-124.432 58.3214,-57.3755 45.6176,-27.0002"/>
<polygon fill="black" stroke="black" points="43.5891,-22.1141 47.5843,-25.8692 44.5477,-24.4231 45.5063,-26.732 45.5063,-26.732 45.5063,-26.732 44.5477,-24.4231 43.4282,-27.5947 43.5891,-22.1141 43.5891,-22.1141"/>
</g>
<!-- v5&#45;&gt;v6 -->
<g id="edge13" class="edge"><title>v5&#45;&gt;v6</title>
<path fill="none" stroke="black" d="M508.303,-118.095C483.764,-107.991 441.304,-90.5076 414.899,-79.6347"/>
<polygon fill="black" stroke="black" points="410.163,-77.6847 415.643,-77.508 412.475,-78.6366 414.786,-79.5885 414.786,-79.5885 414.786,-79.5885 412.475,-78.6366 413.93,-81.669 410.163,-77.6847 410.163,-77.6847"/>
</g>
<!-- v7 -->
<g id="v7_Data" class="node"><title>v7</title>
<ellipse fill="none" stroke="black" cx="255.5" cy="-11" rx="21.5" ry="11"/>
<text text-anchor="middle" x="255.5" y="-8.8" font-family="sans-serif" font-size="9.00">Data</text>
</g>
<!-- v6&#45;&gt;v7 -->
<g id="edge14" class="edge"><title>v6&#45;&gt;v7</title>
<path fill="none" stroke="black" d="M373.158,-60.4476C347.904,-50.0486 302.556,-31.3759 276.143,-20.4999"/>
<polygon fill="black" stroke="black" points="271.44,-18.5636 276.92,-18.3869 273.752,-19.5155 276.064,-20.4674 276.064,-20.4674 276.064,-20.4674 273.752,-19.5155 275.207,-22.5479 271.44,-18.5636 271.44,-18.5636"/>
</g>
<!-- v12&#45;&gt;v13 -->
<g id="edge15" class="edge"><title>v12&#45;&gt;v13</title>
<path fill="none" stroke="black" d="M656.036,-57.9883C656.491,-49.4941 657.152,-37.1697 657.674,-27.4169"/>
<polygon fill="black" stroke="black" points="657.948,-22.3039 659.927,-27.4171 657.814,-24.8003 657.68,-27.2967 657.68,-27.2967 657.68,-27.2967 657.814,-24.8003 655.434,-27.1763 657.948,-22.3039 657.948,-22.3039"/>
</g>
<!-- v14&#45;&gt;v15 -->
<g id="edge16" class="edge"><title>v14&#45;&gt;v15</title>
<path fill="none" stroke="black" d="M481.68,-62.1129C454.379,-52.5577 400.127,-33.5696 366.805,-21.9067"/>
<polygon fill="black" stroke="black" points="362.046,-20.2411 367.509,-19.7693 364.406,-21.067 366.765,-21.8929 366.765,-21.8929 366.765,-21.8929 364.406,-21.067 366.022,-24.0166 362.046,-20.2411 362.046,-20.2411"/>
</g>
<!-- v14&#45;&gt;v16 -->
<g id="edge17" class="edge"><title>v14&#45;&gt;v16</title>
<path fill="none" stroke="black" d="M489.913,-58.7527C481.56,-49.7573 468.77,-35.9828 459.233,-25.7121"/>
<polygon fill="black" stroke="black" points="455.625,-21.8266 460.676,-23.9595 457.326,-23.6586 459.027,-25.4906 459.027,-25.4906 459.027,-25.4906 457.326,-23.6586 457.378,-27.0216 455.625,-21.8266 455.625,-21.8266"/>
</g>
</g>
</svg>
