<?xml version="1.0" encoding="UTF-8" standalone="no"?>
<?xml-stylesheet href="style_sbrs.css" type="text/css"?>
<!DOCTYPE svg PUBLIC "-//W3C//DTD SVG 1.1//EN"
 "http://www.w3.org/Graphics/SVG/1.1/DTD/svg11.dtd">
<!-- Generated by graphviz version 2.38.0 (20140413.2041)
 -->
<!-- Title: transitions.svg Pages: 1 -->
<svg width="356pt" height="494pt"
 viewBox="0.00 0.00 356.00 494.33" xmlns="http://www.w3.org/2000/svg" xmlns:xlink="http://www.w3.org/1999/xlink">
<g id="graph0" class="graph" transform="scale(1 1) rotate(0) translate(4 490.328)">
<title>transitions.svg</title>
<polygon fill="white" stroke="none" points="-4,4 -4,-490.328 352,-490.328 352,4 -4,4"/>
<!-- 0 -->
<g id="s0" class="node"><title>0</title>
<g id="a_s0"><a xlink:href="./0.svg" xlink:title="0">
<ellipse fill="none" stroke="black" stroke-width="2" cx="143.5" cy="-475.328" rx="21.5" ry="11"/>
<text text-anchor="middle" x="143.5" y="-473.128" font-family="monospace" font-size="9.00">0</text>
</a>
</g>
</g>
<!-- 1 -->
<g id="s1" class="node"><title>1</title>
<g id="a_s1"><a xlink:href="./1.svg" xlink:title="1">
<ellipse fill="none" stroke="black" cx="204.5" cy="-417.328" rx="21.5" ry="11"/>
<text text-anchor="middle" x="204.5" y="-415.128" font-family="monospace" font-size="9.00">1</text>
</a>
</g>
</g>
<!-- 0&#45;&gt;1 -->
<g id="edge9" class="edge"><title>0&#45;&gt;1</title>
<path fill="none" stroke="black" d="M153.301,-465.331C163.379,-456.079 179.166,-441.585 190.546,-431.138"/>
<polygon fill="black" stroke="black" points="194.521,-427.489 192.359,-432.528 192.679,-429.18 190.838,-430.871 190.838,-430.871 190.838,-430.871 192.679,-429.18 189.316,-429.213 194.521,-427.489 194.521,-427.489"/>
</g>
<!-- 2 -->
<g id="s2" class="node"><title>2</title>
<g id="a_s2"><a xlink:href="./2.svg" xlink:title="2">
<ellipse fill="none" stroke="black" cx="143.5" cy="-417.328" rx="21.5" ry="11"/>
<text text-anchor="middle" x="143.5" y="-415.128" font-family="monospace" font-size="9.00">2</text>
</a>
</g>
</g>
<!-- 0&#45;&gt;2 -->
<g id="edge10" class="edge"><title>0&#45;&gt;2</title>
<path fill="none" stroke="black" d="M138.233,-464.574C136.579,-456.007 136.308,-443.404 137.422,-433.518"/>
<polygon fill="black" stroke="black" points="138.183,-428.348 139.681,-433.622 137.819,-430.821 137.455,-433.295 137.455,-433.295 137.455,-433.295 137.819,-430.821 135.229,-432.967 138.183,-428.348 138.183,-428.348"/>
</g>
<!-- 3 -->
<g id="s3" class="node"><title>3</title>
<g id="a_s3"><a xlink:href="./3.svg" xlink:title="3">
<ellipse fill="none" stroke="black" cx="82.5" cy="-417.328" rx="21.5" ry="11"/>
<text text-anchor="middle" x="82.5" y="-415.128" font-family="monospace" font-size="9.00">3</text>
</a>
</g>
</g>
<!-- 0&#45;&gt;3 -->
<g id="edge11" class="edge"><title>0&#45;&gt;3</title>
<path fill="none" stroke="black" d="M130.173,-466.541C118.379,-457.655 102.009,-442.952 91.6097,-432.115"/>
<polygon fill="black" stroke="black" points="88.0679,-428.316 93.123,-430.439 89.7725,-430.144 91.4771,-431.973 91.4771,-431.973 91.4771,-431.973 89.7725,-430.144 89.8312,-433.507 88.0679,-428.316 88.0679,-428.316"/>
</g>
<!-- 4 -->
<g id="s4" class="node"><title>4</title>
<g id="a_s4"><a xlink:href="./4.svg" xlink:title="4">
<ellipse fill="none" stroke="black" cx="265.5" cy="-417.328" rx="21.5" ry="11"/>
<text text-anchor="middle" x="265.5" y="-415.128" font-family="monospace" font-size="9.00">4</text>
</a>
</g>
</g>
<!-- 0&#45;&gt;4 -->
<g id="edge12" class="edge"><title>0&#45;&gt;4</title>
<path fill="none" stroke="black" d="M156.079,-466.305C176.944,-455.587 218.061,-436.722 243.673,-426.122"/>
<polygon fill="black" stroke="black" points="248.578,-424.117 244.801,-428.092 246.264,-425.063 243.949,-426.009 243.949,-426.009 243.949,-426.009 246.264,-425.063 243.098,-423.927 248.578,-424.117 248.578,-424.117"/>
</g>
<!-- 19 -->
<g id="s19" class="node"><title>19</title>
<g id="a_s19"><a xlink:href="./19.svg" xlink:title="19">
<ellipse fill="none" stroke="black" cx="204.5" cy="-185.328" rx="21.5" ry="11"/>
<text text-anchor="middle" x="204.5" y="-183.128" font-family="monospace" font-size="9.00">19</text>
</a>
</g>
</g>
<!-- 16 -->
<g id="s16" class="node"><title>16</title>
<g id="a_s16"><a xlink:href="./16.svg" xlink:title="16">
<ellipse fill="none" stroke="black" cx="204.5" cy="-243.328" rx="21.5" ry="11"/>
<text text-anchor="middle" x="204.5" y="-241.128" font-family="monospace" font-size="9.00">16</text>
</a>
</g>
</g>
<!-- 19&#45;&gt;16 -->
<g id="edge21" class="edge"><title>19&#45;&gt;16</title>
<path fill="none" stroke="black" d="M209.817,-196.348C211.443,-204.997 211.685,-217.612 210.543,-227.442"/>
<polygon fill="black" stroke="black" points="209.767,-232.574 208.29,-227.293 210.141,-230.102 210.515,-227.63 210.515,-227.63 210.515,-227.63 210.141,-230.102 212.74,-227.967 209.767,-232.574 209.767,-232.574"/>
</g>
<!-- 20 -->
<g id="s20" class="node"><title>20</title>
<g id="a_s20"><a xlink:href="./20.svg" xlink:title="20">
<ellipse fill="none" stroke="black" cx="204.5" cy="-127.328" rx="21.5" ry="11"/>
<text text-anchor="middle" x="204.5" y="-125.128" font-family="monospace" font-size="9.00">20</text>
</a>
</g>
</g>
<!-- 19&#45;&gt;20 -->
<g id="edge22" class="edge"><title>19&#45;&gt;20</title>
<path fill="none" stroke="black" d="M199.233,-174.574C197.579,-166.007 197.308,-153.404 198.422,-143.518"/>
<polygon fill="black" stroke="black" points="199.183,-138.348 200.681,-143.622 198.819,-140.821 198.455,-143.295 198.455,-143.295 198.455,-143.295 198.819,-140.821 196.229,-142.967 199.183,-138.348 199.183,-138.348"/>
</g>
<!-- 18 -->
<g id="s18" class="node"><title>18</title>
<g id="a_s18"><a xlink:href="./18.svg" xlink:title="18">
<ellipse fill="none" stroke="black" cx="177.5" cy="-69.328" rx="21.5" ry="11"/>
<text text-anchor="middle" x="177.5" y="-67.128" font-family="monospace" font-size="9.00">18</text>
</a>
</g>
</g>
<!-- 15 -->
<g id="s15" class="node"><title>15</title>
<g id="a_s15"><a xlink:href="./15.svg" xlink:title="15">
<ellipse fill="none" stroke="black" cx="168.5" cy="-11.328" rx="21.5" ry="11"/>
<text text-anchor="middle" x="168.5" y="-9.12804" font-family="monospace" font-size="9.00">15</text>
</a>
</g>
</g>
<!-- 18&#45;&gt;15 -->
<g id="edge48" class="edge"><title>18&#45;&gt;15</title>
<path fill="none" stroke="black" d="M170.756,-58.8284C167.695,-50.2977 165.365,-37.62 164.87,-27.6558"/>
<polygon fill="black" stroke="black" points="164.79,-22.4429 167.116,-27.408 164.828,-24.9426 164.867,-27.4423 164.867,-27.4423 164.867,-27.4423 164.828,-24.9426 162.617,-27.4766 164.79,-22.4429 164.79,-22.4429"/>
</g>
<!-- 18&#45;&gt;20 -->
<g id="edge49" class="edge"><title>18&#45;&gt;20</title>
<path fill="none" stroke="black" d="M187.08,-79.5106C193.003,-88.1327 199.598,-101.186 203.322,-111.321"/>
<polygon fill="black" stroke="black" points="204.989,-116.316 201.272,-112.286 204.197,-113.945 203.406,-111.573 203.406,-111.573 203.406,-111.573 204.197,-113.945 205.54,-110.861 204.989,-116.316 204.989,-116.316"/>
</g>
<!-- 17 -->
<g id="s17" class="node"><title>17</title>
<g id="a_s17"><a xlink:href="./17.svg" xlink:title="17">
<ellipse fill="none" stroke="black" cx="238.5" cy="-69.328" rx="21.5" ry="11"/>
<text text-anchor="middle" x="238.5" y="-67.128" font-family="monospace" font-size="9.00">17</text>
</a>
</g>
</g>
<!-- 14 -->
<g id="s14" class="node"><title>14</title>
<g id="a_s14"><a xlink:href="./14.svg" xlink:title="14">
<ellipse fill="none" stroke="black" cx="247.5" cy="-11.328" rx="21.5" ry="11"/>
<text text-anchor="middle" x="247.5" y="-9.12804" font-family="monospace" font-size="9.00">14</text>
</a>
</g>
</g>
<!-- 17&#45;&gt;14 -->
<g id="edge19" class="edge"><title>17&#45;&gt;14</title>
<path fill="none" stroke="black" d="M234.793,-58.3164C234.552,-49.5292 236.399,-36.643 239.195,-26.7452"/>
<polygon fill="black" stroke="black" points="240.738,-21.8792 241.372,-27.3254 239.982,-24.2624 239.227,-26.6455 239.227,-26.6455 239.227,-26.6455 239.982,-24.2624 237.082,-25.9655 240.738,-21.8792 240.738,-21.8792"/>
</g>
<!-- 17&#45;&gt;20 -->
<g id="edge20" class="edge"><title>17&#45;&gt;20</title>
<path fill="none" stroke="black" d="M237.737,-80.3397C233.853,-89.6102 225.608,-103.443 218.055,-113.516"/>
<polygon fill="black" stroke="black" points="214.875,-117.578 216.185,-112.254 216.416,-115.609 217.957,-113.641 217.957,-113.641 217.957,-113.641 216.416,-115.609 219.729,-115.028 214.875,-117.578 214.875,-117.578"/>
</g>
<!-- 16&#45;&gt;19 -->
<g id="edge30" class="edge"><title>16&#45;&gt;19</title>
<path fill="none" stroke="black" d="M199.233,-232.574C197.579,-224.007 197.308,-211.404 198.422,-201.518"/>
<polygon fill="black" stroke="black" points="199.183,-196.348 200.681,-201.622 198.819,-198.821 198.455,-201.295 198.455,-201.295 198.455,-201.295 198.819,-198.821 196.229,-200.967 199.183,-196.348 199.183,-196.348"/>
</g>
<!-- 16&#45;&gt;16 -->
<g id="edge29" class="edge"><title>16&#45;&gt;16</title>
<path fill="none" stroke="black" d="M217.855,-252.121C230.396,-256.681 244,-253.75 244,-243.328 244,-234.29 233.77,-230.886 222.874,-233.114"/>
<polygon fill="black" stroke="black" points="217.855,-234.535 222.053,-231.008 220.261,-233.854 222.666,-233.173 222.666,-233.173 222.666,-233.173 220.261,-233.854 223.279,-235.338 217.855,-234.535 217.855,-234.535"/>
</g>
<!-- 15&#45;&gt;18 -->
<g id="edge42" class="edge"><title>15&#45;&gt;18</title>
<path fill="none" stroke="black" d="M175.262,-21.8792C178.326,-30.4406 180.653,-43.1486 181.136,-53.1091"/>
<polygon fill="black" stroke="black" points="181.207,-58.3164 178.889,-53.3477 181.173,-55.8166 181.138,-53.3168 181.138,-53.3168 181.138,-53.3168 181.173,-55.8166 183.388,-53.286 181.207,-58.3164 181.207,-58.3164"/>
</g>
<!-- 15&#45;&gt;15 -->
<g id="edge41" class="edge"><title>15&#45;&gt;15</title>
<path fill="none" stroke="black" d="M181.855,-20.1215C194.396,-24.6811 208,-21.7499 208,-11.328 208,-2.29032 197.77,1.11427 186.874,-1.11427"/>
<polygon fill="black" stroke="black" points="181.855,-2.53458 186.053,0.992007 184.261,-1.85377 186.666,-1.17297 186.666,-1.17297 186.666,-1.17297 184.261,-1.85377 187.279,-3.33794 181.855,-2.53458 181.855,-2.53458"/>
</g>
<!-- 14&#45;&gt;17 -->
<g id="edge44" class="edge"><title>14&#45;&gt;17</title>
<path fill="none" stroke="black" d="M251.21,-22.4429C251.434,-31.2476 249.581,-44.1104 246.786,-53.9784"/>
<polygon fill="black" stroke="black" points="245.244,-58.8284 244.614,-53.3817 246.001,-56.4459 246.759,-54.0634 246.759,-54.0634 246.759,-54.0634 246.001,-56.4459 248.903,-54.7452 245.244,-58.8284 245.244,-58.8284"/>
</g>
<!-- 14&#45;&gt;14 -->
<g id="edge43" class="edge"><title>14&#45;&gt;14</title>
<path fill="none" stroke="black" d="M260.855,-20.1215C273.396,-24.6811 287,-21.7499 287,-11.328 287,-2.29032 276.77,1.11427 265.874,-1.11427"/>
<polygon fill="black" stroke="black" points="260.855,-2.53458 265.053,0.992007 263.261,-1.85377 265.666,-1.17297 265.666,-1.17297 265.666,-1.17297 263.261,-1.85377 266.279,-3.33794 260.855,-2.53458 260.855,-2.53458"/>
</g>
<!-- 9 -->
<g id="s9" class="node"><title>9</title>
<g id="a_s9"><a xlink:href="./9.svg" xlink:title="9">
<ellipse fill="none" stroke="black" cx="204.5" cy="-359.328" rx="21.5" ry="11"/>
<text text-anchor="middle" x="204.5" y="-357.128" font-family="monospace" font-size="9.00">9</text>
</a>
</g>
</g>
<!-- 1&#45;&gt;9 -->
<g id="edge34" class="edge"><title>1&#45;&gt;9</title>
<path fill="none" stroke="black" d="M199.233,-406.574C197.579,-398.007 197.308,-385.404 198.422,-375.518"/>
<polygon fill="black" stroke="black" points="199.183,-370.348 200.681,-375.622 198.819,-372.821 198.455,-375.295 198.455,-375.295 198.455,-375.295 198.819,-372.821 196.229,-374.967 199.183,-370.348 199.183,-370.348"/>
</g>
<!-- 7 -->
<g id="s7" class="node"><title>7</title>
<g id="a_s7"><a xlink:href="./7.svg" xlink:title="7">
<ellipse fill="none" stroke="black" cx="143.5" cy="-359.328" rx="21.5" ry="11"/>
<text text-anchor="middle" x="143.5" y="-357.128" font-family="monospace" font-size="9.00">7</text>
</a>
</g>
</g>
<!-- 1&#45;&gt;7 -->
<g id="edge35" class="edge"><title>1&#45;&gt;7</title>
<path fill="none" stroke="black" d="M191.173,-408.541C179.379,-399.655 163.009,-384.952 152.61,-374.115"/>
<polygon fill="black" stroke="black" points="149.068,-370.316 154.123,-372.439 150.773,-372.144 152.477,-373.973 152.477,-373.973 152.477,-373.973 150.773,-372.144 150.831,-375.507 149.068,-370.316 149.068,-370.316"/>
</g>
<!-- 5 -->
<g id="s5" class="node"><title>5</title>
<g id="a_s5"><a xlink:href="./5.svg" xlink:title="5">
<ellipse fill="none" stroke="black" cx="265.5" cy="-359.328" rx="21.5" ry="11"/>
<text text-anchor="middle" x="265.5" y="-357.128" font-family="monospace" font-size="9.00">5</text>
</a>
</g>
</g>
<!-- 1&#45;&gt;5 -->
<g id="edge36" class="edge"><title>1&#45;&gt;5</title>
<path fill="none" stroke="black" d="M209.859,-406.574C218.639,-396.776 234.98,-381.699 247.878,-371.444"/>
<polygon fill="black" stroke="black" points="252.105,-368.166 249.533,-373.009 250.129,-369.698 248.154,-371.231 248.154,-371.231 248.154,-371.231 250.129,-369.698 246.775,-369.453 252.105,-368.166 252.105,-368.166"/>
</g>
<!-- 10 -->
<g id="s10" class="node"><title>10</title>
<g id="a_s10"><a xlink:href="./10.svg" xlink:title="10">
<ellipse fill="none" stroke="black" cx="82.5" cy="-359.328" rx="21.5" ry="11"/>
<text text-anchor="middle" x="82.5" y="-357.128" font-family="monospace" font-size="9.00">10</text>
</a>
</g>
</g>
<!-- 10&#45;&gt;2 -->
<g id="edge13" class="edge"><title>10&#45;&gt;2</title>
<path fill="none" stroke="black" d="M95.8952,-368.166C107.771,-377.123 124.251,-391.941 134.618,-402.779"/>
<polygon fill="black" stroke="black" points="138.141,-406.574 133.091,-404.44 136.44,-404.741 134.739,-402.909 134.739,-402.909 134.739,-402.909 136.44,-404.741 136.388,-401.378 138.141,-406.574 138.141,-406.574"/>
</g>
<!-- 13 -->
<g id="s13" class="node"><title>13</title>
<g id="a_s13"><a xlink:href="./13.svg" xlink:title="13">
<ellipse fill="none" stroke="black" cx="204.5" cy="-301.328" rx="21.5" ry="11"/>
<text text-anchor="middle" x="204.5" y="-299.128" font-family="monospace" font-size="9.00">13</text>
</a>
</g>
</g>
<!-- 10&#45;&gt;13 -->
<g id="edge14" class="edge"><title>10&#45;&gt;13</title>
<path fill="none" stroke="black" d="M97.9514,-351.236C119.952,-341.137 160.318,-322.608 184.552,-311.484"/>
<polygon fill="black" stroke="black" points="189.174,-309.363 185.569,-313.494 186.902,-310.406 184.63,-311.449 184.63,-311.449 184.63,-311.449 186.902,-310.406 183.691,-309.404 189.174,-309.363 189.174,-309.363"/>
</g>
<!-- 8 -->
<g id="s8" class="node"><title>8</title>
<g id="a_s8"><a xlink:href="./8.svg" xlink:title="8">
<ellipse fill="none" stroke="black" cx="21.5" cy="-359.328" rx="21.5" ry="11"/>
<text text-anchor="middle" x="21.5" y="-357.128" font-family="monospace" font-size="9.00">8</text>
</a>
</g>
</g>
<!-- 8&#45;&gt;3 -->
<g id="edge37" class="edge"><title>8&#45;&gt;3</title>
<path fill="none" stroke="black" d="M34.8952,-368.166C46.7706,-377.123 63.2511,-391.941 73.6184,-402.779"/>
<polygon fill="black" stroke="black" points="77.1415,-406.574 72.0906,-404.44 75.4405,-404.741 73.7395,-402.909 73.7395,-402.909 73.7395,-402.909 75.4405,-404.741 75.3884,-401.378 77.1415,-406.574 77.1415,-406.574"/>
</g>
<!-- 12 -->
<g id="s12" class="node"><title>12</title>
<g id="a_s12"><a xlink:href="./12.svg" xlink:title="12">
<ellipse fill="none" stroke="black" cx="135.5" cy="-301.328" rx="21.5" ry="11"/>
<text text-anchor="middle" x="135.5" y="-299.128" font-family="monospace" font-size="9.00">12</text>
</a>
</g>
</g>
<!-- 8&#45;&gt;12 -->
<g id="edge38" class="edge"><title>8&#45;&gt;12</title>
<path fill="none" stroke="black" d="M36.4035,-351.007C56.9134,-340.932 93.8526,-322.786 116.377,-311.722"/>
<polygon fill="black" stroke="black" points="120.953,-309.474 117.458,-313.698 118.709,-310.576 116.465,-311.678 116.465,-311.678 116.465,-311.678 118.709,-310.576 115.473,-309.659 120.953,-309.474 120.953,-309.474"/>
</g>
<!-- 6 -->
<g id="s6" class="node"><title>6</title>
<g id="a_s6"><a xlink:href="./6.svg" xlink:title="6">
<ellipse fill="none" stroke="black" cx="326.5" cy="-359.328" rx="21.5" ry="11"/>
<text text-anchor="middle" x="326.5" y="-357.128" font-family="monospace" font-size="9.00">6</text>
</a>
</g>
</g>
<!-- 6&#45;&gt;4 -->
<g id="edge17" class="edge"><title>6&#45;&gt;4</title>
<path fill="none" stroke="black" d="M320.932,-370.316C312.081,-380.143 295.836,-395.113 283.024,-405.289"/>
<polygon fill="black" stroke="black" points="278.827,-408.541 281.401,-403.7 280.803,-407.01 282.779,-405.479 282.779,-405.479 282.779,-405.479 280.803,-407.01 284.157,-407.257 278.827,-408.541 278.827,-408.541"/>
</g>
<!-- 11 -->
<g id="s11" class="node"><title>11</title>
<g id="a_s11"><a xlink:href="./11.svg" xlink:title="11">
<ellipse fill="none" stroke="black" cx="277.5" cy="-301.328" rx="21.5" ry="11"/>
<text text-anchor="middle" x="277.5" y="-299.128" font-family="monospace" font-size="9.00">11</text>
</a>
</g>
</g>
<!-- 6&#45;&gt;11 -->
<g id="edge18" class="edge"><title>6&#45;&gt;11</title>
<path fill="none" stroke="black" d="M318.409,-349.081C310.442,-339.976 298.19,-325.974 289.171,-315.666"/>
<polygon fill="black" stroke="black" points="285.767,-311.776 290.753,-314.057 287.413,-313.658 289.06,-315.539 289.06,-315.539 289.06,-315.539 287.413,-313.658 287.366,-317.021 285.767,-311.776 285.767,-311.776"/>
</g>
<!-- 2&#45;&gt;0 -->
<g id="edge4" class="edge"><title>2&#45;&gt;0</title>
<path fill="none" stroke="black" d="M148.817,-428.348C150.443,-436.997 150.685,-449.612 149.543,-459.442"/>
<polygon fill="black" stroke="black" points="148.767,-464.574 147.29,-459.293 149.141,-462.102 149.515,-459.63 149.515,-459.63 149.515,-459.63 149.141,-462.102 151.74,-459.967 148.767,-464.574 148.767,-464.574"/>
</g>
<!-- 2&#45;&gt;10 -->
<g id="edge6" class="edge"><title>2&#45;&gt;10</title>
<path fill="none" stroke="black" d="M130.173,-408.541C118.379,-399.655 102.009,-384.952 91.6097,-374.115"/>
<polygon fill="black" stroke="black" points="88.0679,-370.316 93.123,-372.439 89.7725,-372.144 91.4771,-373.973 91.4771,-373.973 91.4771,-373.973 89.7725,-372.144 89.8312,-375.507 88.0679,-370.316 88.0679,-370.316"/>
</g>
<!-- 2&#45;&gt;9 -->
<g id="edge5" class="edge"><title>2&#45;&gt;9</title>
<path fill="none" stroke="black" d="M153.301,-407.331C163.379,-398.079 179.166,-383.585 190.546,-373.138"/>
<polygon fill="black" stroke="black" points="194.521,-369.489 192.359,-374.528 192.679,-371.18 190.838,-372.871 190.838,-372.871 190.838,-372.871 192.679,-371.18 189.316,-371.213 194.521,-369.489 194.521,-369.489"/>
</g>
<!-- 3&#45;&gt;0 -->
<g id="edge31" class="edge"><title>3&#45;&gt;0</title>
<path fill="none" stroke="black" d="M95.8952,-426.166C107.771,-435.123 124.251,-449.941 134.618,-460.779"/>
<polygon fill="black" stroke="black" points="138.141,-464.574 133.091,-462.44 136.44,-462.741 134.739,-460.909 134.739,-460.909 134.739,-460.909 136.44,-462.741 136.388,-459.378 138.141,-464.574 138.141,-464.574"/>
</g>
<!-- 3&#45;&gt;8 -->
<g id="edge33" class="edge"><title>3&#45;&gt;8</title>
<path fill="none" stroke="black" d="M69.1732,-408.541C57.3794,-399.655 41.0094,-384.952 30.6097,-374.115"/>
<polygon fill="black" stroke="black" points="27.0679,-370.316 32.123,-372.439 28.7725,-372.144 30.4771,-373.973 30.4771,-373.973 30.4771,-373.973 28.7725,-372.144 28.8312,-375.507 27.0679,-370.316 27.0679,-370.316"/>
</g>
<!-- 3&#45;&gt;7 -->
<g id="edge32" class="edge"><title>3&#45;&gt;7</title>
<path fill="none" stroke="black" d="M92.3007,-407.331C102.379,-398.079 118.166,-383.585 129.546,-373.138"/>
<polygon fill="black" stroke="black" points="133.521,-369.489 131.359,-374.528 131.679,-371.18 129.838,-372.871 129.838,-372.871 129.838,-372.871 131.679,-371.18 128.316,-371.213 133.521,-369.489 133.521,-369.489"/>
</g>
<!-- 4&#45;&gt;0 -->
<g id="edge45" class="edge"><title>4&#45;&gt;0</title>
<path fill="none" stroke="black" d="M252.684,-426.473C231.809,-437.179 191.088,-455.861 165.558,-466.438"/>
<polygon fill="black" stroke="black" points="160.664,-468.441 164.44,-464.465 162.978,-467.494 165.292,-466.547 165.292,-466.547 165.292,-466.547 162.978,-467.494 166.144,-468.629 160.664,-468.441 160.664,-468.441"/>
</g>
<!-- 4&#45;&gt;6 -->
<g id="edge47" class="edge"><title>4&#45;&gt;6</title>
<path fill="none" stroke="black" d="M270.859,-406.574C279.639,-396.776 295.98,-381.699 308.878,-371.444"/>
<polygon fill="black" stroke="black" points="313.105,-368.166 310.533,-373.009 311.129,-369.698 309.154,-371.231 309.154,-371.231 309.154,-371.231 311.129,-369.698 307.775,-369.453 313.105,-368.166 313.105,-368.166"/>
</g>
<!-- 4&#45;&gt;5 -->
<g id="edge46" class="edge"><title>4&#45;&gt;5</title>
<path fill="none" stroke="black" d="M265.5,-406.316C265.5,-397.822 265.5,-385.498 265.5,-375.745"/>
<polygon fill="black" stroke="black" points="265.5,-370.632 267.75,-375.632 265.5,-373.132 265.5,-375.632 265.5,-375.632 265.5,-375.632 265.5,-373.132 263.25,-375.632 265.5,-370.632 265.5,-370.632"/>
</g>
<!-- 13&#45;&gt;16 -->
<g id="edge24" class="edge"><title>13&#45;&gt;16</title>
<path fill="none" stroke="black" d="M204.5,-290.316C204.5,-281.822 204.5,-269.498 204.5,-259.745"/>
<polygon fill="black" stroke="black" points="204.5,-254.632 206.75,-259.632 204.5,-257.132 204.5,-259.632 204.5,-259.632 204.5,-259.632 204.5,-257.132 202.25,-259.632 204.5,-254.632 204.5,-254.632"/>
</g>
<!-- 13&#45;&gt;9 -->
<g id="edge23" class="edge"><title>13&#45;&gt;9</title>
<path fill="none" stroke="black" d="M209.817,-312.348C211.443,-320.997 211.685,-333.612 210.543,-343.442"/>
<polygon fill="black" stroke="black" points="209.767,-348.574 208.29,-343.293 210.141,-346.102 210.515,-343.63 210.515,-343.63 210.515,-343.63 210.141,-346.102 212.74,-343.967 209.767,-348.574 209.767,-348.574"/>
</g>
<!-- 12&#45;&gt;15 -->
<g id="edge40" class="edge"><title>12&#45;&gt;15</title>
<path fill="none" stroke="black" d="M134.32,-290.28C132.094,-270.44 127.5,-224.818 127.5,-186.328 127.5,-186.328 127.5,-186.328 127.5,-126.328 127.5,-88.3935 147.851,-47.3258 159.877,-26.3689"/>
<polygon fill="black" stroke="black" points="162.45,-21.9692 161.868,-27.4211 161.188,-24.1272 159.926,-26.2851 159.926,-26.2851 159.926,-26.2851 161.188,-24.1272 157.984,-25.1492 162.45,-21.9692 162.45,-21.9692"/>
</g>
<!-- 12&#45;&gt;7 -->
<g id="edge39" class="edge"><title>12&#45;&gt;7</title>
<path fill="none" stroke="black" d="M142.092,-311.879C145.003,-320.441 147.103,-333.149 147.407,-343.109"/>
<polygon fill="black" stroke="black" points="147.386,-348.316 145.157,-343.307 147.396,-345.816 147.407,-343.316 147.407,-343.316 147.407,-343.316 147.396,-345.816 149.657,-343.326 147.386,-348.316 147.386,-348.316"/>
</g>
<!-- 11&#45;&gt;14 -->
<g id="edge28" class="edge"><title>11&#45;&gt;14</title>
<path fill="none" stroke="black" d="M279.123,-290.295C282.183,-270.48 288.5,-224.902 288.5,-186.328 288.5,-186.328 288.5,-186.328 288.5,-126.328 288.5,-88.3935 268.149,-47.3258 256.123,-26.3689"/>
<polygon fill="black" stroke="black" points="253.55,-21.9692 258.016,-25.1492 254.812,-24.1272 256.074,-26.2851 256.074,-26.2851 256.074,-26.2851 254.812,-24.1272 254.132,-27.4211 253.55,-21.9692 253.55,-21.9692"/>
</g>
<!-- 11&#45;&gt;5 -->
<g id="edge27" class="edge"><title>11&#45;&gt;5</title>
<path fill="none" stroke="black" d="M280.668,-312.443C280.42,-321.248 277.879,-334.11 274.554,-343.978"/>
<polygon fill="black" stroke="black" points="272.753,-348.828 272.385,-343.358 273.623,-346.485 274.494,-344.141 274.494,-344.141 274.494,-344.141 273.623,-346.485 276.603,-344.925 272.753,-348.828 272.753,-348.828"/>
</g>
<!-- 9&#45;&gt;1 -->
<g id="edge26" class="edge"><title>9&#45;&gt;1</title>
<path fill="none" stroke="black" d="M209.817,-370.348C211.443,-378.997 211.685,-391.612 210.543,-401.442"/>
<polygon fill="black" stroke="black" points="209.767,-406.574 208.29,-401.293 210.141,-404.102 210.515,-401.63 210.515,-401.63 210.515,-401.63 210.141,-404.102 212.74,-401.967 209.767,-406.574 209.767,-406.574"/>
</g>
<!-- 9&#45;&gt;13 -->
<g id="edge25" class="edge"><title>9&#45;&gt;13</title>
<path fill="none" stroke="black" d="M199.233,-348.574C197.579,-340.007 197.308,-327.404 198.422,-317.518"/>
<polygon fill="black" stroke="black" points="199.183,-312.348 200.681,-317.622 198.819,-314.821 198.455,-317.295 198.455,-317.295 198.455,-317.295 198.819,-314.821 196.229,-316.967 199.183,-312.348 199.183,-312.348"/>
</g>
<!-- 7&#45;&gt;1 -->
<g id="edge8" class="edge"><title>7&#45;&gt;1</title>
<path fill="none" stroke="black" d="M156.895,-368.166C168.771,-377.123 185.251,-391.941 195.618,-402.779"/>
<polygon fill="black" stroke="black" points="199.141,-406.574 194.091,-404.44 197.44,-404.741 195.739,-402.909 195.739,-402.909 195.739,-402.909 197.44,-404.741 197.388,-401.378 199.141,-406.574 199.141,-406.574"/>
</g>
<!-- 7&#45;&gt;12 -->
<g id="edge7" class="edge"><title>7&#45;&gt;12</title>
<path fill="none" stroke="black" d="M136.926,-348.828C134.017,-340.298 131.913,-327.62 131.596,-317.656"/>
<polygon fill="black" stroke="black" points="131.61,-312.443 133.846,-317.449 131.603,-314.943 131.596,-317.443 131.596,-317.443 131.596,-317.443 131.603,-314.943 129.346,-317.437 131.61,-312.443 131.61,-312.443"/>
</g>
<!-- 5&#45;&gt;1 -->
<g id="edge16" class="edge"><title>5&#45;&gt;1</title>
<path fill="none" stroke="black" d="M259.932,-370.316C251.081,-380.143 234.836,-395.113 222.024,-405.289"/>
<polygon fill="black" stroke="black" points="217.827,-408.541 220.401,-403.7 219.803,-407.01 221.779,-405.479 221.779,-405.479 221.779,-405.479 219.803,-407.01 223.157,-407.257 217.827,-408.541 217.827,-408.541"/>
</g>
<!-- 5&#45;&gt;11 -->
<g id="edge15" class="edge"><title>5&#45;&gt;11</title>
<path fill="none" stroke="black" d="M262.329,-348.316C262.559,-339.529 265.097,-326.643 268.423,-316.745"/>
<polygon fill="black" stroke="black" points="270.226,-311.879 270.598,-317.35 269.357,-314.223 268.489,-316.568 268.489,-316.568 268.489,-316.568 269.357,-314.223 266.379,-315.786 270.226,-311.879 270.226,-311.879"/>
</g>
<!-- 20&#45;&gt;19 -->
<g id="edge3" class="edge"><title>20&#45;&gt;19</title>
<path fill="none" stroke="black" d="M209.817,-138.348C211.443,-146.997 211.685,-159.612 210.543,-169.442"/>
<polygon fill="black" stroke="black" points="209.767,-174.574 208.29,-169.293 210.141,-172.102 210.515,-169.63 210.515,-169.63 210.515,-169.63 210.141,-172.102 212.74,-169.967 209.767,-174.574 209.767,-174.574"/>
</g>
<!-- 20&#45;&gt;18 -->
<g id="edge2" class="edge"><title>20&#45;&gt;18</title>
<path fill="none" stroke="black" d="M195.047,-117.331C189.099,-108.722 182.445,-95.5758 178.692,-85.3732"/>
<polygon fill="black" stroke="black" points="177.099,-80.634 180.825,-84.6561 177.895,-83.0036 178.692,-85.3732 178.692,-85.3732 178.692,-85.3732 177.895,-83.0036 176.56,-86.0904 177.099,-80.634 177.099,-80.634"/>
</g>
<!-- 20&#45;&gt;17 -->
<g id="edge1" class="edge"><title>20&#45;&gt;17</title>
<path fill="none" stroke="black" d="M205.263,-116.316C209.138,-107.067 217.355,-93.2764 224.893,-83.2096"/>
<polygon fill="black" stroke="black" points="228.068,-79.1474 226.762,-84.4725 226.529,-81.1172 224.989,-83.0869 224.989,-83.0869 224.989,-83.0869 226.529,-81.1172 223.216,-81.7014 228.068,-79.1474 228.068,-79.1474"/>
</g>
</g>
</svg>
