<?xml version="1.0" encoding="UTF-8" standalone="no"?>
<?xml-stylesheet href="style.css" type="text/css"?>
<!DOCTYPE svg PUBLIC "-//W3C//DTD SVG 1.1//EN"
 "http://www.w3.org/Graphics/SVG/1.1/DTD/svg11.dtd">
<!-- Generated by graphviz version 2.38.0 (20140413.2041)
 -->
<!-- Title: 0.svg Pages: 1 -->
<svg width="617pt" height="316pt"
 viewBox="0.00 0.00 616.50 316.00" xmlns="http://www.w3.org/2000/svg" xmlns:xlink="http://www.w3.org/1999/xlink">
<g id="graph0" class="graph" transform="scale(1 1) rotate(0) translate(4 312)">
<title>0.svg</title>
<polygon fill="white" stroke="none" points="-4,4 -4,-312 612.5,-312 612.5,4 -4,4"/>
<!-- r0 -->
<g id="node1" class="node"><title>r0</title>
<polygon fill="none" stroke="black" stroke-dasharray="5,2" points="307.5,-308 284.5,-308 284.5,-290 307.5,-290 307.5,-308"/>
<text text-anchor="middle" x="296" y="-296.8" font-family="serif" font-size="9.00">0</text>
</g>
<!-- v0 -->
<g id="v0_Building" class="node"><title>v0</title>
<ellipse fill="none" stroke="black" cx="296" cy="-243" rx="36" ry="11"/>
<text text-anchor="middle" x="296" y="-240.8" font-family="sans-serif" font-size="9.00">Building</text>
</g>
<!-- r0&#45;&gt;v0 -->
<g id="edge1" class="edge"><title>r0&#45;&gt;v0</title>
<path fill="none" stroke="black" d="M296,-289.562C296,-281.453 296,-269.014 296,-259.181"/>
<polygon fill="black" stroke="black" points="296,-254.03 298.25,-259.03 296,-256.53 296,-259.03 296,-259.03 296,-259.03 296,-256.53 293.75,-259.03 296,-254.03 296,-254.03"/>
</g>
<!-- oalarm -->
<g id="node2" class="node"><title>oalarm</title>
<text text-anchor="middle" x="136" y="-296.8" font-family="serif" font-size="9.00">alarm</text>
</g>
<!-- ocntrlRm -->
<g id="node3" class="node"><title>ocntrlRm</title>
<text text-anchor="middle" x="581" y="-296.8" font-family="serif" font-size="9.00">cntrlRm</text>
</g>
<!-- oserv -->
<g id="node4" class="node"><title>oserv</title>
<text text-anchor="middle" x="194" y="-296.8" font-family="serif" font-size="9.00">serv</text>
</g>
<!-- oserverRm -->
<g id="node5" class="node"><title>oserverRm</title>
<text text-anchor="middle" x="505" y="-296.8" font-family="serif" font-size="9.00">serverRm</text>
</g>
<!-- osl1 -->
<g id="node6" class="node"><title>osl1</title>
<text text-anchor="middle" x="360" y="-296.8" font-family="serif" font-size="9.00">sl1</text>
</g>
<!-- e5 -->
<g id="node12" class="node"><title>e5</title>
</g>
<!-- osl1&#45;&gt;e5 -->
<g id="edge14" class="edge"><title>osl1&#45;&gt;e5</title>
<path fill="none" stroke="green" d="M360,-289.885C360,-249.27 360,-70 360,-70"/>
</g>
<!-- osl2 -->
<g id="node7" class="node"><title>osl2</title>
<text text-anchor="middle" x="245" y="-296.8" font-family="serif" font-size="9.00">sl2</text>
</g>
<!-- osl3 -->
<g id="node8" class="node"><title>osl3</title>
<text text-anchor="middle" x="15" y="-296.8" font-family="serif" font-size="9.00">sl3</text>
</g>
<!-- ostation -->
<g id="node9" class="node"><title>ostation</title>
<text text-anchor="middle" x="72" y="-296.8" font-family="serif" font-size="9.00">station</text>
</g>
<!-- otoiletRm -->
<g id="node10" class="node"><title>otoiletRm</title>
<text text-anchor="middle" x="428" y="-296.8" font-family="serif" font-size="9.00">toiletRm</text>
</g>
<!-- e9 -->
<g id="node13" class="node"><title>e9</title>
</g>
<!-- otoiletRm&#45;&gt;e9 -->
<g id="edge20" class="edge"><title>otoiletRm&#45;&gt;e9</title>
<path fill="none" stroke="green" d="M430.086,-289.945C436.735,-264.265 457,-186 457,-186"/>
</g>
<!-- e0 -->
<g id="node11" class="node"><title>e0</title>
</g>
<!-- v6 -->
<g id="v6_Laptop" class="node"><title>v6</title>
<ellipse fill="none" stroke="black" cx="556" cy="-11" rx="29" ry="11"/>
<text text-anchor="middle" x="556" y="-8.8" font-family="sans-serif" font-size="9.00">Laptop</text>
</g>
<!-- e0&#45;&gt;v6 -->
<g id="edge9" class="edge"><title>e0&#45;&gt;v6</title>
<path fill="none" stroke="green" d="M556,-64.1674C556,-55.5862 556,-34.5957 556,-22.0117"/>
<polygon fill="green" stroke="green" points="559.5,-67.3001 552.5,-67.2999 552.5,-65.8999 559.5,-65.9001 559.5,-67.3001"/>
<polyline fill="none" stroke="green" points="556,-68 556,-64.5 "/>
</g>
<!-- v3 -->
<g id="v3_SmartLight" class="node"><title>v3</title>
<ellipse fill="none" stroke="black" cx="383" cy="-11" rx="43" ry="11"/>
<text text-anchor="middle" x="383" y="-8.8" font-family="sans-serif" font-size="9.00">SmartLight</text>
</g>
<!-- e5&#45;&gt;v3 -->
<g id="edge15" class="edge"><title>e5&#45;&gt;v3</title>
<path fill="none" stroke="green" d="M360,-68C360,-68 372.272,-38.1193 378.888,-22.0117"/>
</g>
<!-- v7 -->
<g id="v7_InstallationBus" class="node"><title>v7</title>
<ellipse fill="none" stroke="black" cx="194" cy="-11" rx="61" ry="11"/>
<text text-anchor="middle" x="194" y="-8.8" font-family="sans-serif" font-size="9.00">InstallationBus</text>
</g>
<!-- e5&#45;&gt;v7 -->
<g id="edge16" class="edge"><title>e5&#45;&gt;v7</title>
<path fill="none" stroke="green" d="M360,-68C360,-68 267.595,-36.8273 220.671,-20.9974"/>
</g>
<!-- v2 -->
<g id="v2_Room" class="node"><title>v2</title>
<ellipse fill="none" stroke="black" cx="406" cy="-69" rx="21.5" ry="11"/>
<text text-anchor="middle" x="406" y="-66.8" font-family="sans-serif" font-size="9.00">Room</text>
</g>
<!-- e9&#45;&gt;v2 -->
<g id="edge21" class="edge"><title>e9&#45;&gt;v2</title>
<path fill="none" stroke="green" d="M457,-184C457,-184 423.008,-108.017 410.526,-80.1167"/>
</g>
<!-- v4 -->
<g id="v4_Hallway" class="node"><title>v4</title>
<ellipse fill="none" stroke="black" cx="505" cy="-127" rx="32.5" ry="11"/>
<text text-anchor="middle" x="505" y="-124.8" font-family="sans-serif" font-size="9.00">Hallway</text>
</g>
<!-- e9&#45;&gt;v4 -->
<g id="edge22" class="edge"><title>e9&#45;&gt;v4</title>
<path fill="none" stroke="green" d="M457,-184C457,-184 482.887,-153.799 496.639,-137.754"/>
</g>
<!-- v1 -->
<g id="v1_Floor" class="node"><title>v1</title>
<ellipse fill="none" stroke="black" cx="413" cy="-185" rx="25" ry="11"/>
<text text-anchor="middle" x="413" y="-182.8" font-family="sans-serif" font-size="9.00">Floor</text>
</g>
<!-- v0&#45;&gt;v1 -->
<g id="edge2" class="edge"><title>v0&#45;&gt;v1</title>
<path fill="none" stroke="black" d="M314.025,-233.373C335.21,-223.233 370.284,-206.445 392.49,-195.817"/>
<polygon fill="black" stroke="black" points="397.024,-193.647 393.485,-197.835 394.769,-194.726 392.514,-195.805 392.514,-195.805 392.514,-195.805 394.769,-194.726 391.542,-193.776 397.024,-193.647 397.024,-193.647"/>
</g>
<!-- v0&#45;&gt;v7 -->
<g id="edge3" class="edge"><title>v0&#45;&gt;v7</title>
<path fill="none" stroke="black" d="M295.255,-231.614C292.733,-202.218 282.512,-116.766 246,-58 237.801,-44.8042 224.677,-33.2354 213.665,-25.0003"/>
<polygon fill="black" stroke="black" points="209.408,-21.9011 214.774,-23.0249 211.429,-23.3725 213.45,-24.8439 213.45,-24.8439 213.45,-24.8439 211.429,-23.3725 212.126,-26.663 209.408,-21.9011 209.408,-21.9011"/>
</g>
<!-- v1&#45;&gt;v2 -->
<g id="edge4" class="edge"><title>v1&#45;&gt;v2</title>
<path fill="none" stroke="black" d="M412.379,-173.883C411.152,-153.906 408.412,-109.276 406.954,-85.5402"/>
<polygon fill="black" stroke="black" points="406.63,-80.2579 409.182,-85.1106 406.783,-82.7532 406.936,-85.2485 406.936,-85.2485 406.936,-85.2485 406.783,-82.7532 404.691,-85.3865 406.63,-80.2579 406.63,-80.2579"/>
</g>
<!-- v1&#45;&gt;v4 -->
<g id="edge5" class="edge"><title>v1&#45;&gt;v4</title>
<path fill="none" stroke="black" d="M426.575,-175.737C442.334,-166.145 468.422,-150.265 486.144,-139.478"/>
<polygon fill="black" stroke="black" points="490.457,-136.852 487.356,-141.374 488.322,-138.152 486.186,-139.452 486.186,-139.452 486.186,-139.452 488.322,-138.152 485.016,-137.53 490.457,-136.852 490.457,-136.852"/>
</g>
<!-- v2&#45;&gt;v3 -->
<g id="edge6" class="edge"><title>v2&#45;&gt;v3</title>
<path fill="none" stroke="black" d="M401.888,-57.9883C398.367,-49.4154 393.244,-36.9411 389.221,-27.1466"/>
<polygon fill="black" stroke="black" points="387.232,-22.3039 391.213,-26.0741 388.182,-24.6164 389.132,-26.929 389.132,-26.929 389.132,-26.929 388.182,-24.6164 387.05,-27.7838 387.232,-22.3039 387.232,-22.3039"/>
</g>
<!-- v4&#45;&gt;ocntrlRm -->
<g id="edge11" class="edge"><title>v4&#45;&gt;ocntrlRm</title>
<path fill="none" stroke="green" d="M509.562,-138.204C523.406,-169.172 564.762,-261.679 577.334,-289.801"/>
</g>
<!-- v4&#45;&gt;oserverRm -->
<g id="edge13" class="edge"><title>v4&#45;&gt;oserverRm</title>
<path fill="none" stroke="green" d="M505,-138.204C505,-169.172 505,-261.679 505,-289.801"/>
</g>
<!-- v5 -->
<g id="v5_Visitor" class="node"><title>v5</title>
<ellipse fill="none" stroke="black" cx="505" cy="-69" rx="32.5" ry="11"/>
<text text-anchor="middle" x="505" y="-66.8" font-family="sans-serif" font-size="9.00">Visitor</text>
</g>
<!-- v4&#45;&gt;v5 -->
<g id="edge7" class="edge"><title>v4&#45;&gt;v5</title>
<path fill="none" stroke="black" d="M505,-115.988C505,-107.494 505,-95.1697 505,-85.4169"/>
<polygon fill="black" stroke="black" points="505,-80.3039 507.25,-85.3038 505,-82.8039 505,-85.3039 505,-85.3039 505,-85.3039 505,-82.8039 502.75,-85.3039 505,-80.3039 505,-80.3039"/>
</g>
<!-- v5&#45;&gt;v6 -->
<g id="edge8" class="edge"><title>v5&#45;&gt;v6</title>
<path fill="none" stroke="black" d="M513.884,-58.2455C522.147,-49.1716 534.535,-35.5697 543.738,-25.4636"/>
<polygon fill="black" stroke="black" points="547.218,-21.6427 545.515,-26.8544 545.535,-23.491 543.852,-25.3394 543.852,-25.3394 543.852,-25.3394 545.535,-23.491 542.188,-23.8244 547.218,-21.6427 547.218,-21.6427"/>
</g>
<!-- v7&#45;&gt;oalarm -->
<g id="edge10" class="edge"><title>v7&#45;&gt;oalarm</title>
<path fill="none" stroke="green" d="M184.681,-22.1131C168.286,-41.0032 136,-83.5867 136,-126 136,-186 136,-186 136,-186 136,-224.889 136,-271.373 136,-289.849"/>
</g>
<!-- v7&#45;&gt;oserv -->
<g id="edge12" class="edge"><title>v7&#45;&gt;oserv</title>
<path fill="none" stroke="green" d="M194,-22.0648C194,-41.9341 194,-87.6042 194,-126 194,-186 194,-186 194,-186 194,-224.889 194,-271.373 194,-289.849"/>
</g>
<!-- v7&#45;&gt;osl2 -->
<g id="edge17" class="edge"><title>v7&#45;&gt;osl2</title>
<path fill="none" stroke="green" d="M199.771,-21.9987C210.402,-41.3878 232,-85.7359 232,-126 232,-186 232,-186 232,-186 232,-225.15 239.935,-271.487 243.406,-289.887"/>
</g>
<!-- v7&#45;&gt;osl3 -->
<g id="edge18" class="edge"><title>v7&#45;&gt;osl3</title>
<path fill="none" stroke="green" d="M153.382,-19.2376C100.57,-31.2544 15,-60.7868 15,-126 15,-186 15,-186 15,-186 15,-224.889 15,-271.373 15,-289.849"/>
</g>
<!-- v7&#45;&gt;ostation -->
<g id="edge19" class="edge"><title>v7&#45;&gt;ostation</title>
<path fill="none" stroke="green" d="M170.766,-21.1946C135.368,-36.9113 72,-72.5164 72,-126 72,-186 72,-186 72,-186 72,-224.889 72,-271.373 72,-289.849"/>
</g>
</g>
</svg>
