<?xml version="1.0" encoding="UTF-8" standalone="no"?>
<?xml-stylesheet href="style.css" type="text/css"?>
<!DOCTYPE svg PUBLIC "-//W3C//DTD SVG 1.1//EN"
 "http://www.w3.org/Graphics/SVG/1.1/DTD/svg11.dtd">
<!-- Generated by graphviz version 2.38.0 (20140413.2041)
 -->
<!-- Title: 1.svg Pages: 1 -->
<svg width="616pt" height="316pt"
 viewBox="0.00 0.00 615.50 316.00" xmlns="http://www.w3.org/2000/svg" xmlns:xlink="http://www.w3.org/1999/xlink">
<g id="graph0" class="graph" transform="scale(1 1) rotate(0) translate(4 312)">
<title>1.svg</title>
<polygon fill="white" stroke="none" points="-4,4 -4,-312 611.5,-312 611.5,4 -4,4"/>
<!-- r0 -->
<g id="node1" class="node"><title>r0</title>
<polygon fill="none" stroke="black" stroke-dasharray="5,2" points="329,-308 306,-308 306,-290 329,-290 329,-308"/>
<text text-anchor="middle" x="317.5" y="-296.8" font-family="serif" font-size="9.00">0</text>
</g>
<!-- v0 -->
<g id="v0_Building" class="node"><title>v0</title>
<ellipse fill="none" stroke="black" cx="321.5" cy="-243" rx="36" ry="11"/>
<text text-anchor="middle" x="321.5" y="-240.8" font-family="sans-serif" font-size="9.00">Building</text>
</g>
<!-- r0&#45;&gt;v0 -->
<g id="edge1" class="edge"><title>r0&#45;&gt;v0</title>
<path fill="none" stroke="black" d="M318.125,-289.562C318.726,-281.453 319.647,-269.014 320.375,-259.181"/>
<polygon fill="black" stroke="black" points="320.757,-254.03 322.631,-259.183 320.572,-256.524 320.388,-259.017 320.388,-259.017 320.388,-259.017 320.572,-256.524 318.144,-258.851 320.757,-254.03 320.757,-254.03"/>
</g>
<!-- oalarm -->
<g id="node2" class="node"><title>oalarm</title>
<text text-anchor="middle" x="369.5" y="-296.8" font-family="serif" font-size="9.00">alarm</text>
</g>
<!-- ocntrlRm -->
<g id="node3" class="node"><title>ocntrlRm</title>
<text text-anchor="middle" x="106.5" y="-296.8" font-family="serif" font-size="9.00">cntrlRm</text>
</g>
<!-- oserv -->
<g id="node4" class="node"><title>oserv</title>
<text text-anchor="middle" x="427.5" y="-296.8" font-family="serif" font-size="9.00">serv</text>
</g>
<!-- oserverRm -->
<g id="node5" class="node"><title>oserverRm</title>
<text text-anchor="middle" x="30.5" y="-296.8" font-family="serif" font-size="9.00">serverRm</text>
</g>
<!-- osl1 -->
<g id="node6" class="node"><title>osl1</title>
<text text-anchor="middle" x="257.5" y="-296.8" font-family="serif" font-size="9.00">sl1</text>
</g>
<!-- e5 -->
<g id="node12" class="node"><title>e5</title>
</g>
<!-- osl1&#45;&gt;e5 -->
<g id="edge15" class="edge"><title>osl1&#45;&gt;e5</title>
<path fill="none" stroke="green" d="M257.5,-289.801C257.5,-255.842 257.5,-128 257.5,-128"/>
</g>
<!-- osl2 -->
<g id="node7" class="node"><title>osl2</title>
<text text-anchor="middle" x="478.5" y="-296.8" font-family="serif" font-size="9.00">sl2</text>
</g>
<!-- osl3 -->
<g id="node8" class="node"><title>osl3</title>
<text text-anchor="middle" x="526.5" y="-296.8" font-family="serif" font-size="9.00">sl3</text>
</g>
<!-- ostation -->
<g id="node9" class="node"><title>ostation</title>
<text text-anchor="middle" x="583.5" y="-296.8" font-family="serif" font-size="9.00">station</text>
</g>
<!-- otoiletRm -->
<g id="node10" class="node"><title>otoiletRm</title>
<text text-anchor="middle" x="180.5" y="-296.8" font-family="serif" font-size="9.00">toiletRm</text>
</g>
<!-- e9 -->
<g id="node13" class="node"><title>e9</title>
</g>
<!-- otoiletRm&#45;&gt;e9 -->
<g id="edge21" class="edge"><title>otoiletRm&#45;&gt;e9</title>
<path fill="none" stroke="green" d="M179.062,-289.945C174.476,-264.265 160.5,-186 160.5,-186"/>
</g>
<!-- e0 -->
<g id="node11" class="node"><title>e0</title>
</g>
<!-- v8 -->
<g id="v8_Laptop" class="node"><title>v8</title>
<ellipse fill="none" stroke="black" cx="55.5" cy="-11" rx="29" ry="11"/>
<text text-anchor="middle" x="55.5" y="-8.8" font-family="sans-serif" font-size="9.00">Laptop</text>
</g>
<!-- e0&#45;&gt;v8 -->
<g id="edge10" class="edge"><title>e0&#45;&gt;v8</title>
<path fill="none" stroke="green" d="M55.5,-64.1674C55.5,-55.5862 55.5,-34.5957 55.5,-22.0117"/>
<polygon fill="green" stroke="green" points="59,-67.3001 52,-67.2999 52.0001,-65.8999 59.0001,-65.9001 59,-67.3001"/>
<polyline fill="none" stroke="green" points="55.5,-68 55.5001,-64.5 "/>
</g>
<!-- v1 -->
<g id="v1_InstallationBus" class="node"><title>v1</title>
<ellipse fill="none" stroke="black" cx="427.5" cy="-69" rx="61" ry="11"/>
<text text-anchor="middle" x="427.5" y="-66.8" font-family="sans-serif" font-size="9.00">InstallationBus</text>
</g>
<!-- e5&#45;&gt;v1 -->
<g id="edge16" class="edge"><title>e5&#45;&gt;v1</title>
<path fill="none" stroke="green" d="M257.5,-126C257.5,-126 352.628,-94.6638 400.563,-78.8734"/>
</g>
<!-- v5 -->
<g id="v5_SmartLight" class="node"><title>v5</title>
<ellipse fill="none" stroke="black" cx="230.5" cy="-11" rx="43" ry="11"/>
<text text-anchor="middle" x="230.5" y="-8.8" font-family="sans-serif" font-size="9.00">SmartLight</text>
</g>
<!-- e5&#45;&gt;v5 -->
<g id="edge17" class="edge"><title>e5&#45;&gt;v5</title>
<path fill="none" stroke="green" d="M257.5,-126C257.5,-126 239.504,-50.0168 232.896,-22.1167"/>
</g>
<!-- v4 -->
<g id="v4_Room" class="node"><title>v4</title>
<ellipse fill="none" stroke="black" cx="205.5" cy="-69" rx="21.5" ry="11"/>
<text text-anchor="middle" x="205.5" y="-66.8" font-family="sans-serif" font-size="9.00">Room</text>
</g>
<!-- e9&#45;&gt;v4 -->
<g id="edge22" class="edge"><title>e9&#45;&gt;v4</title>
<path fill="none" stroke="green" d="M160.5,-184C160.5,-184 190.493,-108.017 201.507,-80.1167"/>
</g>
<!-- v6 -->
<g id="v6_Hallway" class="node"><title>v6</title>
<ellipse fill="none" stroke="black" cx="106.5" cy="-127" rx="32.5" ry="11"/>
<text text-anchor="middle" x="106.5" y="-124.8" font-family="sans-serif" font-size="9.00">Hallway</text>
</g>
<!-- e9&#45;&gt;v6 -->
<g id="edge23" class="edge"><title>e9&#45;&gt;v6</title>
<path fill="none" stroke="green" d="M160.5,-184C160.5,-184 131.377,-153.799 115.906,-137.754"/>
</g>
<!-- v0&#45;&gt;v1 -->
<g id="edge2" class="edge"><title>v0&#45;&gt;v1</title>
<path fill="none" stroke="black" d="M323.648,-232.008C328.843,-209.538 343.753,-154.021 371.5,-116 381.21,-102.694 395.635,-90.967 407.413,-82.6837"/>
<polygon fill="black" stroke="black" points="411.618,-79.7913 408.774,-84.4786 409.559,-81.208 407.499,-82.6247 407.499,-82.6247 407.499,-82.6247 409.559,-81.208 406.224,-80.7708 411.618,-79.7913 411.618,-79.7913"/>
</g>
<!-- v3 -->
<g id="v3_Floor" class="node"><title>v3</title>
<ellipse fill="none" stroke="black" cx="204.5" cy="-185" rx="25" ry="11"/>
<text text-anchor="middle" x="204.5" y="-182.8" font-family="sans-serif" font-size="9.00">Floor</text>
</g>
<!-- v0&#45;&gt;v3 -->
<g id="edge3" class="edge"><title>v0&#45;&gt;v3</title>
<path fill="none" stroke="black" d="M303.475,-233.373C282.29,-223.233 247.216,-206.445 225.01,-195.817"/>
<polygon fill="black" stroke="black" points="220.476,-193.647 225.958,-193.776 222.731,-194.726 224.986,-195.805 224.986,-195.805 224.986,-195.805 222.731,-194.726 224.015,-197.835 220.476,-193.647 220.476,-193.647"/>
</g>
<!-- v1&#45;&gt;oalarm -->
<g id="edge11" class="edge"><title>v1&#45;&gt;oalarm</title>
<path fill="none" stroke="green" d="M424.953,-80.0114C415.213,-118.301 380.423,-255.061 371.564,-289.885"/>
</g>
<!-- v1&#45;&gt;oserv -->
<g id="edge13" class="edge"><title>v1&#45;&gt;oserv</title>
<path fill="none" stroke="green" d="M427.5,-80.0114C427.5,-118.301 427.5,-255.061 427.5,-289.885"/>
</g>
<!-- v1&#45;&gt;osl2 -->
<g id="edge18" class="edge"><title>v1&#45;&gt;osl2</title>
<path fill="none" stroke="green" d="M430.894,-80.1533C433.919,-89.4228 438.344,-103.538 441.5,-116 458.358,-182.578 472.778,-264.36 477.146,-289.956"/>
</g>
<!-- v1&#45;&gt;osl3 -->
<g id="edge19" class="edge"><title>v1&#45;&gt;osl3</title>
<path fill="none" stroke="green" d="M435.375,-80.1628C442.129,-89.208 451.802,-102.984 458.5,-116 491.376,-179.883 516.619,-263.455 524.172,-289.728"/>
</g>
<!-- v1&#45;&gt;ostation -->
<g id="edge20" class="edge"><title>v1&#45;&gt;ostation</title>
<path fill="none" stroke="green" d="M440.416,-80.0367C451.153,-88.7885 466.413,-102.211 477.5,-116 526.534,-176.982 567.661,-263.19 579.836,-289.835"/>
</g>
<!-- v2 -->
<g id="v2_Data" class="node"><title>v2</title>
<ellipse fill="none" stroke="black" cx="427.5" cy="-11" rx="21.5" ry="11"/>
<text text-anchor="middle" x="427.5" y="-8.8" font-family="sans-serif" font-size="9.00">Data</text>
</g>
<!-- v1&#45;&gt;v2 -->
<g id="edge4" class="edge"><title>v1&#45;&gt;v2</title>
<path fill="none" stroke="black" d="M427.5,-57.9883C427.5,-49.4941 427.5,-37.1697 427.5,-27.4169"/>
<polygon fill="black" stroke="black" points="427.5,-22.3039 429.75,-27.3038 427.5,-24.8039 427.5,-27.3039 427.5,-27.3039 427.5,-27.3039 427.5,-24.8039 425.25,-27.3039 427.5,-22.3039 427.5,-22.3039"/>
</g>
<!-- v3&#45;&gt;v4 -->
<g id="edge5" class="edge"><title>v3&#45;&gt;v4</title>
<path fill="none" stroke="black" d="M204.589,-173.883C204.764,-153.906 205.155,-109.276 205.364,-85.5402"/>
<polygon fill="black" stroke="black" points="205.41,-80.2579 207.616,-85.2775 205.388,-82.7578 205.366,-85.2577 205.366,-85.2577 205.366,-85.2577 205.388,-82.7578 203.116,-85.238 205.41,-80.2579 205.41,-80.2579"/>
</g>
<!-- v3&#45;&gt;v6 -->
<g id="edge6" class="edge"><title>v3&#45;&gt;v6</title>
<path fill="none" stroke="black" d="M190.04,-175.737C173.253,-166.145 145.463,-150.265 126.586,-139.478"/>
<polygon fill="black" stroke="black" points="121.991,-136.852 127.449,-137.379 124.162,-138.092 126.332,-139.333 126.332,-139.333 126.332,-139.333 124.162,-138.092 125.216,-141.286 121.991,-136.852 121.991,-136.852"/>
</g>
<!-- v4&#45;&gt;v5 -->
<g id="edge7" class="edge"><title>v4&#45;&gt;v5</title>
<path fill="none" stroke="black" d="M209.969,-57.9883C213.832,-49.3368 219.468,-36.7119 223.858,-26.8777"/>
<polygon fill="black" stroke="black" points="225.9,-22.3039 225.916,-27.7868 224.881,-24.5867 223.862,-26.8696 223.862,-26.8696 223.862,-26.8696 224.881,-24.5867 221.807,-25.9523 225.9,-22.3039 225.9,-22.3039"/>
</g>
<!-- v6&#45;&gt;ocntrlRm -->
<g id="edge12" class="edge"><title>v6&#45;&gt;ocntrlRm</title>
<path fill="none" stroke="green" d="M106.5,-138.204C106.5,-169.172 106.5,-261.679 106.5,-289.801"/>
</g>
<!-- v6&#45;&gt;oserverRm -->
<g id="edge14" class="edge"><title>v6&#45;&gt;oserverRm</title>
<path fill="none" stroke="green" d="M101.938,-138.204C88.0935,-169.172 46.7376,-261.679 34.1656,-289.801"/>
</g>
<!-- v7 -->
<g id="v7_Visitor" class="node"><title>v7</title>
<ellipse fill="none" stroke="black" cx="106.5" cy="-69" rx="32.5" ry="11"/>
<text text-anchor="middle" x="106.5" y="-66.8" font-family="sans-serif" font-size="9.00">Visitor</text>
</g>
<!-- v6&#45;&gt;v7 -->
<g id="edge8" class="edge"><title>v6&#45;&gt;v7</title>
<path fill="none" stroke="black" d="M106.5,-115.988C106.5,-107.494 106.5,-95.1697 106.5,-85.4169"/>
<polygon fill="black" stroke="black" points="106.5,-80.3039 108.75,-85.3038 106.5,-82.8039 106.5,-85.3039 106.5,-85.3039 106.5,-85.3039 106.5,-82.8039 104.25,-85.3039 106.5,-80.3039 106.5,-80.3039"/>
</g>
<!-- v7&#45;&gt;v8 -->
<g id="edge9" class="edge"><title>v7&#45;&gt;v8</title>
<path fill="none" stroke="black" d="M97.6165,-58.2455C89.3527,-49.1716 76.9652,-35.5697 67.7615,-25.4636"/>
<polygon fill="black" stroke="black" points="64.2817,-21.6427 69.3119,-23.8244 65.9651,-23.491 67.6484,-25.3394 67.6484,-25.3394 67.6484,-25.3394 65.9651,-23.491 65.9849,-26.8544 64.2817,-21.6427 64.2817,-21.6427"/>
</g>
</g>
</svg>
