<?xml version="1.0" encoding="UTF-8" standalone="no"?>
<?xml-stylesheet href="style.css" type="text/css"?>
<!DOCTYPE svg PUBLIC "-//W3C//DTD SVG 1.1//EN"
 "http://www.w3.org/Graphics/SVG/1.1/DTD/svg11.dtd">
<!-- Generated by graphviz version 2.38.0 (20140413.2041)
 -->
<!-- Title: 5.svg Pages: 1 -->
<svg width="648pt" height="316pt"
 viewBox="0.00 0.00 647.50 316.00" xmlns="http://www.w3.org/2000/svg" xmlns:xlink="http://www.w3.org/1999/xlink">
<g id="graph0" class="graph" transform="scale(1 1) rotate(0) translate(4 312)">
<title>5.svg</title>
<polygon fill="white" stroke="none" points="-4,4 -4,-312 643.5,-312 643.5,4 -4,4"/>
<!-- r0 -->
<g id="node1" class="node"><title>r0</title>
<polygon fill="none" stroke="black" stroke-dasharray="5,2" points="385.5,-308 362.5,-308 362.5,-290 385.5,-290 385.5,-308"/>
<text text-anchor="middle" x="374" y="-296.8" font-family="serif" font-size="9.00">0</text>
</g>
<!-- v0 -->
<g id="v0_Building" class="node"><title>v0</title>
<ellipse fill="none" stroke="black" cx="374" cy="-243" rx="36" ry="11"/>
<text text-anchor="middle" x="374" y="-240.8" font-family="sans-serif" font-size="9.00">Building</text>
</g>
<!-- r0&#45;&gt;v0 -->
<g id="edge1" class="edge"><title>r0&#45;&gt;v0</title>
<path fill="none" stroke="black" d="M374,-289.562C374,-281.453 374,-269.014 374,-259.181"/>
<polygon fill="black" stroke="black" points="374,-254.03 376.25,-259.03 374,-256.53 374,-259.03 374,-259.03 374,-259.03 374,-256.53 371.75,-259.03 374,-254.03 374,-254.03"/>
</g>
<!-- oalarm -->
<g id="node2" class="node"><title>oalarm</title>
<text text-anchor="middle" x="136" y="-296.8" font-family="serif" font-size="9.00">alarm</text>
</g>
<!-- ocntrlRm -->
<g id="node3" class="node"><title>ocntrlRm</title>
<text text-anchor="middle" x="533" y="-296.8" font-family="serif" font-size="9.00">cntrlRm</text>
</g>
<!-- oserv -->
<g id="node4" class="node"><title>oserv</title>
<text text-anchor="middle" x="194" y="-296.8" font-family="serif" font-size="9.00">serv</text>
</g>
<!-- oserverRm -->
<g id="node5" class="node"><title>oserverRm</title>
<text text-anchor="middle" x="609" y="-296.8" font-family="serif" font-size="9.00">serverRm</text>
</g>
<!-- osl1 -->
<g id="node6" class="node"><title>osl1</title>
<text text-anchor="middle" x="293" y="-296.8" font-family="serif" font-size="9.00">sl1</text>
</g>
<!-- e5 -->
<g id="node12" class="node"><title>e5</title>
</g>
<!-- osl1&#45;&gt;e5 -->
<g id="edge15" class="edge"><title>osl1&#45;&gt;e5</title>
<path fill="none" stroke="green" d="M292.277,-289.801C289.28,-255.842 278,-128 278,-128"/>
</g>
<!-- osl2 -->
<g id="node7" class="node"><title>osl2</title>
<text text-anchor="middle" x="245" y="-296.8" font-family="serif" font-size="9.00">sl2</text>
</g>
<!-- osl3 -->
<g id="node8" class="node"><title>osl3</title>
<text text-anchor="middle" x="15" y="-296.8" font-family="serif" font-size="9.00">sl3</text>
</g>
<!-- ostation -->
<g id="node9" class="node"><title>ostation</title>
<text text-anchor="middle" x="72" y="-296.8" font-family="serif" font-size="9.00">station</text>
</g>
<!-- otoiletRm -->
<g id="node10" class="node"><title>otoiletRm</title>
<text text-anchor="middle" x="455" y="-296.8" font-family="serif" font-size="9.00">toiletRm</text>
</g>
<!-- e9 -->
<g id="node13" class="node"><title>e9</title>
</g>
<!-- otoiletRm&#45;&gt;e9 -->
<g id="edge21" class="edge"><title>otoiletRm&#45;&gt;e9</title>
<path fill="none" stroke="green" d="M455,-289.945C455,-264.265 455,-186 455,-186"/>
</g>
<!-- e0 -->
<g id="node11" class="node"><title>e0</title>
</g>
<!-- v7 -->
<g id="v7_SmartLight" class="node"><title>v7</title>
<ellipse fill="none" stroke="black" cx="390" cy="-11" rx="43" ry="11"/>
<text text-anchor="middle" x="390" y="-8.8" font-family="sans-serif" font-size="9.00">SmartLight</text>
</g>
<!-- e0&#45;&gt;v7 -->
<g id="edge10" class="edge"><title>e0&#45;&gt;v7</title>
<path fill="none" stroke="green" d="M390,-64.1674C390,-55.5862 390,-34.5957 390,-22.0117"/>
<polygon fill="green" stroke="green" points="393.5,-67.3001 386.5,-67.2999 386.5,-65.8999 393.5,-65.9001 393.5,-67.3001"/>
<polyline fill="none" stroke="green" points="390,-68 390,-64.5 "/>
</g>
<!-- v1 -->
<g id="v1_InstallationBus" class="node"><title>v1</title>
<ellipse fill="none" stroke="black" cx="189" cy="-69" rx="61" ry="11"/>
<text text-anchor="middle" x="189" y="-66.8" font-family="sans-serif" font-size="9.00">InstallationBus</text>
</g>
<!-- e5&#45;&gt;v1 -->
<g id="edge16" class="edge"><title>e5&#45;&gt;v1</title>
<path fill="none" stroke="green" d="M278,-126C278,-126 230.002,-95.7988 204.503,-79.7545"/>
</g>
<!-- v6 -->
<g id="v6_Laptop" class="node"><title>v6</title>
<ellipse fill="none" stroke="black" cx="289" cy="-11" rx="29" ry="11"/>
<text text-anchor="middle" x="289" y="-8.8" font-family="sans-serif" font-size="9.00">Laptop</text>
</g>
<!-- e5&#45;&gt;v6 -->
<g id="edge17" class="edge"><title>e5&#45;&gt;v6</title>
<path fill="none" stroke="green" d="M278,-126C278,-126 285.332,-50.0168 288.024,-22.1167"/>
</g>
<!-- v4 -->
<g id="v4_Room" class="node"><title>v4</title>
<ellipse fill="none" stroke="black" cx="407" cy="-127" rx="21.5" ry="11"/>
<text text-anchor="middle" x="407" y="-124.8" font-family="sans-serif" font-size="9.00">Room</text>
</g>
<!-- e9&#45;&gt;v4 -->
<g id="edge22" class="edge"><title>e9&#45;&gt;v4</title>
<path fill="none" stroke="green" d="M455,-184C455,-184 428.56,-153.153 414.926,-137.247"/>
</g>
<!-- v8 -->
<g id="v8_Hallway" class="node"><title>v8</title>
<ellipse fill="none" stroke="black" cx="514" cy="-11" rx="32.5" ry="11"/>
<text text-anchor="middle" x="514" y="-8.8" font-family="sans-serif" font-size="9.00">Hallway</text>
</g>
<!-- e9&#45;&gt;v8 -->
<g id="edge23" class="edge"><title>e9&#45;&gt;v8</title>
<path fill="none" stroke="green" d="M455,-184C455,-184 463.949,-158.465 471,-138 485.833,-94.9495 503.301,-43.542 510.564,-22.1329"/>
</g>
<!-- v0&#45;&gt;v1 -->
<g id="edge2" class="edge"><title>v0&#45;&gt;v1</title>
<path fill="none" stroke="black" d="M369.325,-231.833C358.153,-208.513 327.775,-150.531 287,-116 268.012,-99.9197 242.455,-88.1691 222.201,-80.5704"/>
<polygon fill="black" stroke="black" points="217.438,-78.8228 222.907,-78.4328 219.785,-79.684 222.132,-80.5451 222.132,-80.5451 222.132,-80.5451 219.785,-79.684 221.357,-82.6574 217.438,-78.8228 217.438,-78.8228"/>
</g>
<!-- v3 -->
<g id="v3_Floor" class="node"><title>v3</title>
<ellipse fill="none" stroke="black" cx="407" cy="-185" rx="25" ry="11"/>
<text text-anchor="middle" x="407" y="-182.8" font-family="sans-serif" font-size="9.00">Floor</text>
</g>
<!-- v0&#45;&gt;v3 -->
<g id="edge3" class="edge"><title>v0&#45;&gt;v3</title>
<path fill="none" stroke="black" d="M379.9,-231.988C385.109,-223.149 392.762,-210.162 398.608,-200.241"/>
<polygon fill="black" stroke="black" points="401.151,-195.925 400.551,-201.375 399.882,-198.079 398.613,-200.233 398.613,-200.233 398.613,-200.233 399.882,-198.079 396.674,-199.09 401.151,-195.925 401.151,-195.925"/>
</g>
<!-- v1&#45;&gt;oalarm -->
<g id="edge11" class="edge"><title>v1&#45;&gt;oalarm</title>
<path fill="none" stroke="green" d="M186.673,-80.0114C177.772,-118.301 145.982,-255.061 137.886,-289.885"/>
</g>
<!-- v1&#45;&gt;oserv -->
<g id="edge13" class="edge"><title>v1&#45;&gt;oserv</title>
<path fill="none" stroke="green" d="M189.22,-80.0114C190.059,-118.301 193.058,-255.061 193.822,-289.885"/>
</g>
<!-- v1&#45;&gt;osl2 -->
<g id="edge18" class="edge"><title>v1&#45;&gt;osl2</title>
<path fill="none" stroke="green" d="M192.909,-80.121C196.387,-89.3687 201.457,-103.47 205,-116 223.748,-182.309 238.989,-264.27 243.58,-289.933"/>
</g>
<!-- v1&#45;&gt;osl3 -->
<g id="edge19" class="edge"><title>v1&#45;&gt;osl3</title>
<path fill="none" stroke="green" d="M180.676,-80.1563C173.114,-89.4278 161.694,-103.544 152,-116 100.264,-182.48 39.7781,-264.327 20.9183,-289.947"/>
</g>
<!-- v1&#45;&gt;ostation -->
<g id="edge20" class="edge"><title>v1&#45;&gt;ostation</title>
<path fill="none" stroke="green" d="M183.863,-80.0114C164.214,-118.301 94.0347,-255.061 76.1641,-289.885"/>
</g>
<!-- v2 -->
<g id="v2_Data" class="node"><title>v2</title>
<ellipse fill="none" stroke="black" cx="189" cy="-11" rx="21.5" ry="11"/>
<text text-anchor="middle" x="189" y="-8.8" font-family="sans-serif" font-size="9.00">Data</text>
</g>
<!-- v1&#45;&gt;v2 -->
<g id="edge4" class="edge"><title>v1&#45;&gt;v2</title>
<path fill="none" stroke="black" d="M189,-57.9883C189,-49.4941 189,-37.1697 189,-27.4169"/>
<polygon fill="black" stroke="black" points="189,-22.3039 191.25,-27.3038 189,-24.8039 189,-27.3039 189,-27.3039 189,-27.3039 189,-24.8039 186.75,-27.3039 189,-22.3039 189,-22.3039"/>
</g>
<!-- v3&#45;&gt;v4 -->
<g id="edge5" class="edge"><title>v3&#45;&gt;v4</title>
<path fill="none" stroke="black" d="M407,-173.988C407,-165.494 407,-153.17 407,-143.417"/>
<polygon fill="black" stroke="black" points="407,-138.304 409.25,-143.304 407,-140.804 407,-143.304 407,-143.304 407,-143.304 407,-140.804 404.75,-143.304 407,-138.304 407,-138.304"/>
</g>
<!-- v3&#45;&gt;v8 -->
<g id="edge6" class="edge"><title>v3&#45;&gt;v8</title>
<path fill="none" stroke="black" d="M413.796,-174.224C420.176,-164.976 429.92,-150.665 438,-138 463.505,-98.0227 491.981,-49.7737 505.71,-26.2673"/>
<polygon fill="black" stroke="black" points="508.254,-21.9057 507.678,-27.3584 506.994,-24.0652 505.735,-26.2248 505.735,-26.2248 505.735,-26.2248 506.994,-24.0652 503.791,-25.0912 508.254,-21.9057 508.254,-21.9057"/>
</g>
<!-- v5 -->
<g id="v5_Visitor" class="node"><title>v5</title>
<ellipse fill="none" stroke="black" cx="339" cy="-69" rx="32.5" ry="11"/>
<text text-anchor="middle" x="339" y="-66.8" font-family="sans-serif" font-size="9.00">Visitor</text>
</g>
<!-- v4&#45;&gt;v5 -->
<g id="edge7" class="edge"><title>v4&#45;&gt;v5</title>
<path fill="none" stroke="black" d="M396.375,-117.25C385.233,-108.074 367.6,-93.5532 354.821,-83.0291"/>
<polygon fill="black" stroke="black" points="350.69,-79.6267 355.98,-81.0685 352.619,-81.216 354.549,-82.8053 354.549,-82.8053 354.549,-82.8053 352.619,-81.216 353.119,-84.5422 350.69,-79.6267 350.69,-79.6267"/>
</g>
<!-- v4&#45;&gt;v7 -->
<g id="edge8" class="edge"><title>v4&#45;&gt;v7</title>
<path fill="none" stroke="black" d="M406.047,-115.829C404.743,-102.505 402.196,-78.4349 399,-58 397.381,-47.6501 395.114,-36.0771 393.261,-27.1284"/>
<polygon fill="black" stroke="black" points="392.225,-22.1919 395.454,-26.6234 392.739,-24.6387 393.252,-27.0854 393.252,-27.0854 393.252,-27.0854 392.739,-24.6387 391.05,-27.5474 392.225,-22.1919 392.225,-22.1919"/>
</g>
<!-- v5&#45;&gt;v6 -->
<g id="edge9" class="edge"><title>v5&#45;&gt;v6</title>
<path fill="none" stroke="black" d="M330.291,-58.2455C322.189,-49.1716 310.044,-35.5697 301.021,-25.4636"/>
<polygon fill="black" stroke="black" points="297.61,-21.6427 302.618,-23.8738 299.275,-23.5075 300.94,-25.3724 300.94,-25.3724 300.94,-25.3724 299.275,-23.5075 299.261,-26.8709 297.61,-21.6427 297.61,-21.6427"/>
</g>
<!-- v8&#45;&gt;ocntrlRm -->
<g id="edge12" class="edge"><title>v8&#45;&gt;ocntrlRm</title>
<path fill="none" stroke="green" d="M516.804,-21.9716C522.089,-41.6776 533,-87.0745 533,-126 533,-186 533,-186 533,-186 533,-224.889 533,-271.373 533,-289.849"/>
</g>
<!-- v8&#45;&gt;oserverRm -->
<g id="edge14" class="edge"><title>v8&#45;&gt;oserverRm</title>
<path fill="none" stroke="green" d="M529.263,-20.7991C556.118,-37.5532 609,-76.7927 609,-126 609,-186 609,-186 609,-186 609,-224.889 609,-271.373 609,-289.849"/>
</g>
</g>
</svg>
