<?xml version="1.0" encoding="UTF-8" standalone="no"?>
<?xml-stylesheet href="style.css" type="text/css"?>
<!DOCTYPE svg PUBLIC "-//W3C//DTD SVG 1.1//EN"
 "http://www.w3.org/Graphics/SVG/1.1/DTD/svg11.dtd">
<!-- Generated by graphviz version 2.38.0 (20140413.2041)
 -->
<!-- Title: 17.svg Pages: 1 -->
<svg width="828pt" height="374pt"
 viewBox="0.00 0.00 827.50 374.00" xmlns="http://www.w3.org/2000/svg" xmlns:xlink="http://www.w3.org/1999/xlink">
<g id="graph0" class="graph" transform="scale(1 1) rotate(0) translate(4 370)">
<title>17.svg</title>
<polygon fill="white" stroke="none" points="-4,4 -4,-370 823.5,-370 823.5,4 -4,4"/>
<!-- r0 -->
<g id="node1" class="node"><title>r0</title>
<polygon fill="none" stroke="black" stroke-dasharray="5,2" points="527,-366 504,-366 504,-348 527,-348 527,-366"/>
<text text-anchor="middle" x="515.5" y="-354.8" font-family="serif" font-size="9.00">0</text>
</g>
<!-- v0 -->
<g id="v0_Building" class="node"><title>v0</title>
<ellipse fill="none" stroke="black" cx="515.5" cy="-301" rx="36" ry="11"/>
<text text-anchor="middle" x="515.5" y="-298.8" font-family="sans-serif" font-size="9.00">Building</text>
</g>
<!-- r0&#45;&gt;v0 -->
<g id="edge1" class="edge"><title>r0&#45;&gt;v0</title>
<path fill="none" stroke="black" d="M515.5,-347.562C515.5,-339.453 515.5,-327.014 515.5,-317.181"/>
<polygon fill="black" stroke="black" points="515.5,-312.03 517.75,-317.03 515.5,-314.53 515.5,-317.03 515.5,-317.03 515.5,-317.03 515.5,-314.53 513.25,-317.03 515.5,-312.03 515.5,-312.03"/>
</g>
<!-- e1 -->
<g id="node2" class="node"><title>e1</title>
</g>
<!-- v4 -->
<g id="v4_Laptop" class="node"><title>v4</title>
<ellipse fill="none" stroke="black" cx="501.5" cy="-69" rx="29" ry="11"/>
<text text-anchor="middle" x="501.5" y="-66.8" font-family="sans-serif" font-size="9.00">Laptop</text>
</g>
<!-- e1&#45;&gt;v4 -->
<g id="edge19" class="edge"><title>e1&#45;&gt;v4</title>
<path fill="none" stroke="green" d="M501.5,-122.167C501.5,-113.586 501.5,-92.5957 501.5,-80.0117"/>
<polygon fill="green" stroke="green" points="505,-125.3 498,-125.3 498,-123.9 505,-123.9 505,-125.3"/>
<polyline fill="none" stroke="green" points="501.5,-126 501.5,-122.5 "/>
</g>
<!-- v1 -->
<g id="v1_Floor" class="node"><title>v1</title>
<ellipse fill="none" stroke="black" cx="288.5" cy="-243" rx="25" ry="11"/>
<text text-anchor="middle" x="288.5" y="-240.8" font-family="sans-serif" font-size="9.00">Floor</text>
</g>
<!-- v0&#45;&gt;v1 -->
<g id="edge2" class="edge"><title>v0&#45;&gt;v1</title>
<path fill="none" stroke="black" d="M489.016,-293.466C445.186,-282.654 358.089,-261.167 314.548,-250.426"/>
<polygon fill="black" stroke="black" points="309.46,-249.171 314.853,-248.184 311.887,-249.77 314.314,-250.368 314.314,-250.368 314.314,-250.368 311.887,-249.77 313.775,-252.553 309.46,-249.171 309.46,-249.171"/>
</g>
<!-- v6 -->
<g id="v6_InstallationBus" class="node"><title>v6</title>
<ellipse fill="none" stroke="black" cx="758.5" cy="-69" rx="61" ry="11"/>
<text text-anchor="middle" x="758.5" y="-66.8" font-family="sans-serif" font-size="9.00">InstallationBus</text>
</g>
<!-- v0&#45;&gt;v6 -->
<g id="edge3" class="edge"><title>v0&#45;&gt;v6</title>
<path fill="none" stroke="black" d="M525.632,-290.41C563.909,-254.181 699.784,-125.575 744.279,-83.4599"/>
<polygon fill="black" stroke="black" points="748.053,-79.888 745.968,-84.9592 746.237,-81.6065 744.422,-83.3251 744.422,-83.3251 744.422,-83.3251 746.237,-81.6065 742.875,-81.691 748.053,-79.888 748.053,-79.888"/>
</g>
<!-- v2 -->
<g id="v2_Room" class="node"><title>v2</title>
<ellipse fill="none" stroke="black" cx="552.5" cy="-185" rx="21.5" ry="11"/>
<text text-anchor="middle" x="552.5" y="-182.8" font-family="sans-serif" font-size="9.00">Room</text>
</g>
<!-- v1&#45;&gt;v2 -->
<g id="edge4" class="edge"><title>v1&#45;&gt;v2</title>
<path fill="none" stroke="black" d="M310.104,-237.417C358.799,-227.088 476.857,-202.045 528.095,-191.177"/>
<polygon fill="black" stroke="black" points="533.133,-190.108 528.708,-193.347 530.687,-190.627 528.241,-191.146 528.241,-191.146 528.241,-191.146 530.687,-190.627 527.775,-188.945 533.133,-190.108 533.133,-190.108"/>
</g>
<!-- v11 -->
<g id="v11_Hallway" class="node"><title>v11</title>
<ellipse fill="none" stroke="black" cx="32.5" cy="-11" rx="32.5" ry="11"/>
<text text-anchor="middle" x="32.5" y="-8.8" font-family="sans-serif" font-size="9.00">Hallway</text>
</g>
<!-- v1&#45;&gt;v11 -->
<g id="edge5" class="edge"><title>v1&#45;&gt;v11</title>
<path fill="none" stroke="black" d="M278.147,-232.699C238.104,-196.722 93.3001,-66.6251 46.9074,-24.9442"/>
<polygon fill="black" stroke="black" points="42.9814,-21.4169 48.2045,-23.0848 44.8411,-23.0877 46.7008,-24.7585 46.7008,-24.7585 46.7008,-24.7585 44.8411,-23.0877 45.197,-26.4322 42.9814,-21.4169 42.9814,-21.4169"/>
</g>
<!-- v12 -->
<g id="v12_Room" class="node"><title>v12</title>
<ellipse fill="none" stroke="black" cx="204.5" cy="-69" rx="21.5" ry="11"/>
<text text-anchor="middle" x="204.5" y="-66.8" font-family="sans-serif" font-size="9.00">Room</text>
</g>
<!-- v1&#45;&gt;v12 -->
<g id="edge6" class="edge"><title>v1&#45;&gt;v12</title>
<path fill="none" stroke="black" d="M283.621,-232.009C269.47,-203.034 228.365,-118.867 211.672,-84.6863"/>
<polygon fill="black" stroke="black" points="209.393,-80.0185 213.609,-83.5239 210.49,-82.2649 211.587,-84.5113 211.587,-84.5113 211.587,-84.5113 210.49,-82.2649 209.565,-85.4987 209.393,-80.0185 209.393,-80.0185"/>
</g>
<!-- v14 -->
<g id="v14_Room" class="node"><title>v14</title>
<ellipse fill="none" stroke="black" cx="288.5" cy="-69" rx="21.5" ry="11"/>
<text text-anchor="middle" x="288.5" y="-66.8" font-family="sans-serif" font-size="9.00">Room</text>
</g>
<!-- v1&#45;&gt;v14 -->
<g id="edge7" class="edge"><title>v1&#45;&gt;v14</title>
<path fill="none" stroke="black" d="M288.5,-231.756C288.5,-202.786 288.5,-120.136 288.5,-85.5335"/>
<polygon fill="black" stroke="black" points="288.5,-80.4081 290.75,-85.408 288.5,-82.9081 288.5,-85.4081 288.5,-85.4081 288.5,-85.4081 288.5,-82.9081 286.25,-85.4081 288.5,-80.4081 288.5,-80.4081"/>
</g>
<!-- v3 -->
<g id="v3_Visitor" class="node"><title>v3</title>
<ellipse fill="none" stroke="black" cx="552.5" cy="-127" rx="32.5" ry="11"/>
<text text-anchor="middle" x="552.5" y="-124.8" font-family="sans-serif" font-size="9.00">Visitor</text>
</g>
<!-- v2&#45;&gt;v3 -->
<g id="edge8" class="edge"><title>v2&#45;&gt;v3</title>
<path fill="none" stroke="black" d="M552.5,-173.988C552.5,-165.494 552.5,-153.17 552.5,-143.417"/>
<polygon fill="black" stroke="black" points="552.5,-138.304 554.75,-143.304 552.5,-140.804 552.5,-143.304 552.5,-143.304 552.5,-143.304 552.5,-140.804 550.25,-143.304 552.5,-138.304 552.5,-138.304"/>
</g>
<!-- v5 -->
<g id="v5_SmartLight" class="node"><title>v5</title>
<ellipse fill="none" stroke="black" cx="681.5" cy="-11" rx="43" ry="11"/>
<text text-anchor="middle" x="681.5" y="-8.8" font-family="sans-serif" font-size="9.00">SmartLight</text>
</g>
<!-- v2&#45;&gt;v5 -->
<g id="edge9" class="edge"><title>v2&#45;&gt;v5</title>
<path fill="none" stroke="black" d="M565.219,-176.043C577.83,-167.697 597.148,-153.638 610.5,-138 640.943,-102.345 664.748,-51.672 675.403,-26.8559"/>
<polygon fill="black" stroke="black" points="677.475,-21.9676 677.596,-27.4492 676.499,-24.2694 675.524,-26.5712 675.524,-26.5712 675.524,-26.5712 676.499,-24.2694 673.452,-25.6932 677.475,-21.9676 677.475,-21.9676"/>
</g>
<!-- v9 -->
<g id="v9_Server" class="node"><title>v9</title>
<ellipse fill="none" stroke="black" cx="432.5" cy="-11" rx="29" ry="11"/>
<text text-anchor="middle" x="432.5" y="-8.8" font-family="sans-serif" font-size="9.00">Server</text>
</g>
<!-- v2&#45;&gt;v9 -->
<g id="edge10" class="edge"><title>v2&#45;&gt;v9</title>
<path fill="none" stroke="black" d="M538.879,-176.366C525.426,-168.273 504.963,-154.405 491.5,-138 462.889,-103.136 444.627,-52.1002 436.838,-27.0297"/>
<polygon fill="black" stroke="black" points="435.335,-22.0893 438.943,-26.2179 436.063,-24.481 436.79,-26.8728 436.79,-26.8728 436.79,-26.8728 436.063,-24.481 434.638,-27.5277 435.335,-22.0893 435.335,-22.0893"/>
</g>
<!-- v10 -->
<g id="v10_FireAlarm" class="node"><title>v10</title>
<ellipse fill="none" stroke="black" cx="580.5" cy="-11" rx="39.5" ry="11"/>
<text text-anchor="middle" x="580.5" y="-8.8" font-family="sans-serif" font-size="9.00">FireAlarm</text>
</g>
<!-- v2&#45;&gt;v10 -->
<g id="edge11" class="edge"><title>v2&#45;&gt;v10</title>
<path fill="none" stroke="black" d="M563.661,-175.565C573.633,-167.265 587.559,-153.595 593.5,-138 607.972,-100.012 594.766,-51.189 586.308,-26.9849"/>
<polygon fill="black" stroke="black" points="584.587,-22.2064 588.398,-26.1481 585.434,-24.5585 586.281,-26.9106 586.281,-26.9106 586.281,-26.9106 585.434,-24.5585 584.164,-27.6731 584.587,-22.2064 584.587,-22.2064"/>
</g>
<!-- v2&#45;&gt;v11 -->
<g id="edge18" class="edge"><title>v2&#45;&gt;v11</title>
<path fill="none" stroke="green" d="M540.513,-175.558C507.136,-152.508 409.593,-88.2088 318.5,-58 214.454,-23.4956 182.143,-42.7147 74.5,-22 68.9061,-20.9235 62.9319,-19.6048 57.2962,-18.2827"/>
</g>
<!-- v3&#45;&gt;v4 -->
<g id="edge12" class="edge"><title>v3&#45;&gt;v4</title>
<path fill="none" stroke="black" d="M543.616,-116.246C535.353,-107.172 522.965,-93.5697 513.762,-83.4636"/>
<polygon fill="black" stroke="black" points="510.282,-79.6427 515.312,-81.8244 511.965,-81.491 513.648,-83.3394 513.648,-83.3394 513.648,-83.3394 511.965,-81.491 511.985,-84.8544 510.282,-79.6427 510.282,-79.6427"/>
</g>
<!-- v8 -->
<g id="v8_Data" class="node"><title>v8</title>
<ellipse fill="none" stroke="black" cx="501.5" cy="-11" rx="21.5" ry="11"/>
<text text-anchor="middle" x="501.5" y="-8.8" font-family="sans-serif" font-size="9.00">Data</text>
</g>
<!-- v4&#45;&gt;v8 -->
<g id="edge13" class="edge"><title>v4&#45;&gt;v8</title>
<path fill="none" stroke="black" d="M501.5,-57.9883C501.5,-49.4941 501.5,-37.1697 501.5,-27.4169"/>
<polygon fill="black" stroke="black" points="501.5,-22.3039 503.75,-27.3038 501.5,-24.8039 501.5,-27.3039 501.5,-27.3039 501.5,-27.3039 501.5,-24.8039 499.25,-27.3039 501.5,-22.3039 501.5,-22.3039"/>
</g>
<!-- v5&#45;&gt;v6 -->
<g id="edge20" class="edge"><title>v5&#45;&gt;v6</title>
<path fill="none" stroke="green" d="M694.759,-21.6427C708.833,-31.8787 730.955,-47.9671 745.088,-58.2455"/>
</g>
<!-- v7 -->
<g id="v7_Data" class="node"><title>v7</title>
<ellipse fill="none" stroke="black" cx="764.5" cy="-11" rx="21.5" ry="11"/>
<text text-anchor="middle" x="764.5" y="-8.8" font-family="sans-serif" font-size="9.00">Data</text>
</g>
<!-- v6&#45;&gt;v7 -->
<g id="edge14" class="edge"><title>v6&#45;&gt;v7</title>
<path fill="none" stroke="black" d="M759.573,-57.9883C760.483,-49.4941 761.803,-37.1697 762.848,-27.4169"/>
<polygon fill="black" stroke="black" points="763.396,-22.3039 765.1,-27.5152 763.13,-24.7896 762.863,-27.2754 762.863,-27.2754 762.863,-27.2754 763.13,-24.7896 760.626,-27.0357 763.396,-22.3039 763.396,-22.3039"/>
</g>
<!-- v6&#45;&gt;v9 -->
<g id="edge21" class="edge"><title>v6&#45;&gt;v9</title>
<path fill="none" stroke="green" d="M711.599,-61.9619C654.383,-54.2621 554.849,-39.7891 470.5,-22 465.293,-20.9019 459.732,-19.5447 454.515,-18.1881"/>
</g>
<!-- v6&#45;&gt;v10 -->
<g id="edge22" class="edge"><title>v6&#45;&gt;v10</title>
<path fill="none" stroke="green" d="M730.295,-59.1266C695.691,-48.2398 637.598,-29.9635 604.854,-19.6621"/>
</g>
<!-- v13 -->
<g id="v13_SmartLight" class="node"><title>v13</title>
<ellipse fill="none" stroke="black" cx="126.5" cy="-11" rx="43" ry="11"/>
<text text-anchor="middle" x="126.5" y="-8.8" font-family="sans-serif" font-size="9.00">SmartLight</text>
</g>
<!-- v6&#45;&gt;v13 -->
<g id="edge23" class="edge"><title>v6&#45;&gt;v13</title>
<path fill="none" stroke="green" d="M700.235,-65.5188C595.454,-60.5813 368.435,-47.7143 178.5,-22 171.759,-21.0873 164.57,-19.8667 157.755,-18.5924"/>
</g>
<!-- v15 -->
<g id="v15_SmartLight" class="node"><title>v15</title>
<ellipse fill="none" stroke="black" cx="342.5" cy="-11" rx="43" ry="11"/>
<text text-anchor="middle" x="342.5" y="-8.8" font-family="sans-serif" font-size="9.00">SmartLight</text>
</g>
<!-- v6&#45;&gt;v15 -->
<g id="edge24" class="edge"><title>v6&#45;&gt;v15</title>
<path fill="none" stroke="green" d="M708.308,-62.6901C637.969,-55.014 506.157,-39.7726 394.5,-22 387.963,-20.9595 380.99,-19.7133 374.343,-18.4594"/>
</g>
<!-- v16 -->
<g id="v16_Workstation" class="node"><title>v16</title>
<ellipse fill="none" stroke="black" cx="234.5" cy="-11" rx="47" ry="11"/>
<text text-anchor="middle" x="234.5" y="-8.8" font-family="sans-serif" font-size="9.00">Workstation</text>
</g>
<!-- v6&#45;&gt;v16 -->
<g id="edge25" class="edge"><title>v6&#45;&gt;v16</title>
<path fill="none" stroke="green" d="M703.934,-64.0385C616.453,-57.3726 439.508,-42.5948 290.5,-22 283.456,-21.0265 275.945,-19.8095 268.786,-18.5631"/>
</g>
<!-- v11&#45;&gt;v12 -->
<g id="edge26" class="edge"><title>v11&#45;&gt;v12</title>
<path fill="none" stroke="green" d="M54.5606,-19.1825C89.1763,-30.4528 155.547,-52.0617 187.061,-62.3222"/>
</g>
<!-- v11&#45;&gt;v14 -->
<g id="edge27" class="edge"><title>v11&#45;&gt;v14</title>
<path fill="none" stroke="green" d="M57.798,-18.1185C63.2988,-19.4223 69.0904,-20.7747 74.5,-22 146.216,-38.2434 231.781,-56.2122 269.286,-64.0179"/>
</g>
<!-- v12&#45;&gt;v13 -->
<g id="edge15" class="edge"><title>v12&#45;&gt;v13</title>
<path fill="none" stroke="black" d="M192.653,-59.4948C179.754,-50.2334 158.985,-35.3229 144.161,-24.6796"/>
<polygon fill="black" stroke="black" points="139.766,-21.5244 145.14,-22.6128 141.797,-22.9825 143.828,-24.4405 143.828,-24.4405 143.828,-24.4405 141.797,-22.9825 142.516,-26.2682 139.766,-21.5244 139.766,-21.5244"/>
</g>
<!-- v14&#45;&gt;v15 -->
<g id="edge16" class="edge"><title>v14&#45;&gt;v15</title>
<path fill="none" stroke="black" d="M297.417,-58.7527C306.168,-49.6777 319.609,-35.7387 329.54,-25.4402"/>
<polygon fill="black" stroke="black" points="333.024,-21.8266 331.173,-26.9876 331.289,-23.6262 329.554,-25.4258 329.554,-25.4258 329.554,-25.4258 331.289,-23.6262 327.934,-23.864 333.024,-21.8266 333.024,-21.8266"/>
</g>
<!-- v14&#45;&gt;v16 -->
<g id="edge17" class="edge"><title>v14&#45;&gt;v16</title>
<path fill="none" stroke="black" d="M279.583,-58.7527C270.832,-49.6777 257.391,-35.7387 247.46,-25.4402"/>
<polygon fill="black" stroke="black" points="243.976,-21.8266 249.066,-23.864 245.711,-23.6262 247.446,-25.4258 247.446,-25.4258 247.446,-25.4258 245.711,-23.6262 245.827,-26.9876 243.976,-21.8266 243.976,-21.8266"/>
</g>
</g>
</svg>
