<?xml version="1.0" encoding="UTF-8" standalone="no"?>
<?xml-stylesheet href="style.css" type="text/css"?>
<!DOCTYPE svg PUBLIC "-//W3C//DTD SVG 1.1//EN"
 "http://www.w3.org/Graphics/SVG/1.1/DTD/svg11.dtd">
<!-- Generated by graphviz version 2.38.0 (20140413.2041)
 -->
<!-- Title: 9.svg Pages: 1 -->
<svg width="809pt" height="316pt"
 viewBox="0.00 0.00 809.00 316.00" xmlns="http://www.w3.org/2000/svg" xmlns:xlink="http://www.w3.org/1999/xlink">
<g id="graph0" class="graph" transform="scale(1 1) rotate(0) translate(4 312)">
<title>9.svg</title>
<polygon fill="white" stroke="none" points="-4,4 -4,-312 805,-312 805,4 -4,4"/>
<!-- r0 -->
<g id="node1" class="node"><title>r0</title>
<polygon fill="none" stroke="black" stroke-dasharray="5,2" points="298,-308 275,-308 275,-290 298,-290 298,-308"/>
<text text-anchor="middle" x="286.5" y="-296.8" font-family="serif" font-size="9.00">0</text>
</g>
<!-- v0 -->
<g id="v0_Building" class="node"><title>v0</title>
<ellipse fill="none" stroke="black" cx="286.5" cy="-243" rx="36" ry="11"/>
<text text-anchor="middle" x="286.5" y="-240.8" font-family="sans-serif" font-size="9.00">Building</text>
</g>
<!-- r0&#45;&gt;v0 -->
<g id="edge1" class="edge"><title>r0&#45;&gt;v0</title>
<path fill="none" stroke="black" d="M286.5,-289.562C286.5,-281.453 286.5,-269.014 286.5,-259.181"/>
<polygon fill="black" stroke="black" points="286.5,-254.03 288.75,-259.03 286.5,-256.53 286.5,-259.03 286.5,-259.03 286.5,-259.03 286.5,-256.53 284.25,-259.03 286.5,-254.03 286.5,-254.03"/>
</g>
<!-- e9 -->
<g id="node2" class="node"><title>e9</title>
</g>
<!-- v7 -->
<g id="v7_Laptop" class="node"><title>v7</title>
<ellipse fill="none" stroke="black" cx="306.5" cy="-11" rx="29" ry="11"/>
<text text-anchor="middle" x="306.5" y="-8.8" font-family="sans-serif" font-size="9.00">Laptop</text>
</g>
<!-- e9&#45;&gt;v7 -->
<g id="edge26" class="edge"><title>e9&#45;&gt;v7</title>
<path fill="none" stroke="green" d="M306.5,-64.1674C306.5,-55.5862 306.5,-34.5957 306.5,-22.0117"/>
<polygon fill="green" stroke="green" points="310,-67.3001 303,-67.2999 303,-65.8999 310,-65.9001 310,-67.3001"/>
<polyline fill="none" stroke="green" points="306.5,-68 306.5,-64.5 "/>
</g>
<!-- v1 -->
<g id="v1_InstallationBus" class="node"><title>v1</title>
<ellipse fill="none" stroke="black" cx="69.5" cy="-69" rx="61" ry="11"/>
<text text-anchor="middle" x="69.5" y="-66.8" font-family="sans-serif" font-size="9.00">InstallationBus</text>
</g>
<!-- v0&#45;&gt;v1 -->
<g id="edge2" class="edge"><title>v0&#45;&gt;v1</title>
<path fill="none" stroke="black" d="M274.524,-232.508C238.016,-203.57 128.062,-116.418 86.0581,-83.1244"/>
<polygon fill="black" stroke="black" points="81.9765,-79.8892 87.2926,-81.2318 83.9357,-81.4422 85.895,-82.9951 85.895,-82.9951 85.895,-82.9951 83.9357,-81.4422 84.4973,-84.7584 81.9765,-79.8892 81.9765,-79.8892"/>
</g>
<!-- v3 -->
<g id="v3_Floor" class="node"><title>v3</title>
<ellipse fill="none" stroke="black" cx="429.5" cy="-185" rx="25" ry="11"/>
<text text-anchor="middle" x="429.5" y="-182.8" font-family="sans-serif" font-size="9.00">Floor</text>
</g>
<!-- v0&#45;&gt;v3 -->
<g id="edge3" class="edge"><title>v0&#45;&gt;v3</title>
<path fill="none" stroke="black" d="M307.293,-233.857C333.838,-223.462 379.592,-205.545 406.952,-194.83"/>
<polygon fill="black" stroke="black" points="411.838,-192.917 408.002,-196.835 409.51,-193.828 407.182,-194.74 407.182,-194.74 407.182,-194.74 409.51,-193.828 406.361,-192.645 411.838,-192.917 411.838,-192.917"/>
</g>
<!-- v2 -->
<g id="v2_Data" class="node"><title>v2</title>
<ellipse fill="none" stroke="black" cx="21.5" cy="-11" rx="21.5" ry="11"/>
<text text-anchor="middle" x="21.5" y="-8.8" font-family="sans-serif" font-size="9.00">Data</text>
</g>
<!-- v1&#45;&gt;v2 -->
<g id="edge4" class="edge"><title>v1&#45;&gt;v2</title>
<path fill="none" stroke="black" d="M60.9186,-57.9883C53.1794,-48.9593 41.7307,-35.6025 33.163,-25.6069"/>
<polygon fill="black" stroke="black" points="29.6867,-21.5512 34.6491,-23.8832 31.3137,-23.4494 32.9407,-25.3475 32.9407,-25.3475 32.9407,-25.3475 31.3137,-23.4494 31.2324,-26.8118 29.6867,-21.5512 29.6867,-21.5512"/>
</g>
<!-- v8 -->
<g id="v8_SmartLight" class="node"><title>v8</title>
<ellipse fill="none" stroke="black" cx="104.5" cy="-11" rx="43" ry="11"/>
<text text-anchor="middle" x="104.5" y="-8.8" font-family="sans-serif" font-size="9.00">SmartLight</text>
</g>
<!-- v1&#45;&gt;v8 -->
<g id="edge17" class="edge"><title>v1&#45;&gt;v8</title>
<path fill="none" stroke="green" d="M75.7573,-57.9883C82.128,-47.7952 91.9458,-32.0867 98.2969,-21.925"/>
</g>
<!-- v9 -->
<g id="v9_Workstation" class="node"><title>v9</title>
<ellipse fill="none" stroke="black" cx="212.5" cy="-11" rx="47" ry="11"/>
<text text-anchor="middle" x="212.5" y="-8.8" font-family="sans-serif" font-size="9.00">Workstation</text>
</g>
<!-- v1&#45;&gt;v9 -->
<g id="edge18" class="edge"><title>v1&#45;&gt;v9</title>
<path fill="none" stroke="green" d="M93.1135,-58.7527C120.085,-48.1904 163.882,-31.0392 190.264,-20.7077"/>
</g>
<!-- v11 -->
<g id="v11_SmartLight" class="node"><title>v11</title>
<ellipse fill="none" stroke="black" cx="396.5" cy="-11" rx="43" ry="11"/>
<text text-anchor="middle" x="396.5" y="-8.8" font-family="sans-serif" font-size="9.00">SmartLight</text>
</g>
<!-- v1&#45;&gt;v11 -->
<g id="edge19" class="edge"><title>v1&#45;&gt;v11</title>
<path fill="none" stroke="green" d="M112.426,-61.1503C166.584,-52.4322 262.555,-36.7308 344.5,-22 350.924,-20.8452 357.785,-19.5617 364.346,-18.3098"/>
</g>
<!-- v13 -->
<g id="v13_SmartLight" class="node"><title>v13</title>
<ellipse fill="none" stroke="black" cx="598.5" cy="-11" rx="43" ry="11"/>
<text text-anchor="middle" x="598.5" y="-8.8" font-family="sans-serif" font-size="9.00">SmartLight</text>
</g>
<!-- v1&#45;&gt;v13 -->
<g id="edge20" class="edge"><title>v1&#45;&gt;v13</title>
<path fill="none" stroke="green" d="M125.151,-64.3356C214.363,-58.0793 394.776,-43.8555 546.5,-22 553.142,-21.0432 560.225,-19.8189 566.956,-18.5575"/>
</g>
<!-- v14 -->
<g id="v14_Server" class="node"><title>v14</title>
<ellipse fill="none" stroke="black" cx="688.5" cy="-11" rx="29" ry="11"/>
<text text-anchor="middle" x="688.5" y="-8.8" font-family="sans-serif" font-size="9.00">Server</text>
</g>
<!-- v1&#45;&gt;v14 -->
<g id="edge21" class="edge"><title>v1&#45;&gt;v14</title>
<path fill="none" stroke="green" d="M124.883,-64.1809C260.06,-54.7783 599.562,-30.6477 650.5,-22 655.88,-21.0866 661.609,-19.7675 666.943,-18.3854"/>
</g>
<!-- v15 -->
<g id="v15_FireAlarm" class="node"><title>v15</title>
<ellipse fill="none" stroke="black" cx="497.5" cy="-11" rx="39.5" ry="11"/>
<text text-anchor="middle" x="497.5" y="-8.8" font-family="sans-serif" font-size="9.00">FireAlarm</text>
</g>
<!-- v1&#45;&gt;v15 -->
<g id="edge22" class="edge"><title>v1&#45;&gt;v15</title>
<path fill="none" stroke="green" d="M121.179,-63.06C194.305,-55.7677 332.046,-40.9187 448.5,-22 454.842,-20.9697 461.611,-19.6995 468.032,-18.4142"/>
</g>
<!-- v4 -->
<g id="v4_Hallway" class="node"><title>v4</title>
<ellipse fill="none" stroke="black" cx="768.5" cy="-11" rx="32.5" ry="11"/>
<text text-anchor="middle" x="768.5" y="-8.8" font-family="sans-serif" font-size="9.00">Hallway</text>
</g>
<!-- v3&#45;&gt;v4 -->
<g id="edge5" class="edge"><title>v3&#45;&gt;v4</title>
<path fill="none" stroke="black" d="M444.947,-176.163C499.609,-148.429 683.97,-54.8883 747.092,-22.862"/>
<polygon fill="black" stroke="black" points="751.774,-20.4864 748.333,-24.7553 749.544,-21.6176 747.315,-22.7488 747.315,-22.7488 747.315,-22.7488 749.544,-21.6176 746.297,-20.7423 751.774,-20.4864 751.774,-20.4864"/>
</g>
<!-- v5 -->
<g id="v5_Room" class="node"><title>v5</title>
<ellipse fill="none" stroke="black" cx="315.5" cy="-127" rx="21.5" ry="11"/>
<text text-anchor="middle" x="315.5" y="-124.8" font-family="sans-serif" font-size="9.00">Room</text>
</g>
<!-- v3&#45;&gt;v5 -->
<g id="edge6" class="edge"><title>v3&#45;&gt;v5</title>
<path fill="none" stroke="black" d="M413.649,-176.213C392.972,-166.057 356.828,-148.302 334.645,-137.405"/>
<polygon fill="black" stroke="black" points="330.134,-135.189 335.614,-135.374 332.378,-136.291 334.622,-137.393 334.622,-137.393 334.622,-137.393 332.378,-136.291 333.63,-139.413 330.134,-135.189 330.134,-135.189"/>
</g>
<!-- v10 -->
<g id="v10_Room" class="node"><title>v10</title>
<ellipse fill="none" stroke="black" cx="429.5" cy="-69" rx="21.5" ry="11"/>
<text text-anchor="middle" x="429.5" y="-66.8" font-family="sans-serif" font-size="9.00">Room</text>
</g>
<!-- v3&#45;&gt;v10 -->
<g id="edge7" class="edge"><title>v3&#45;&gt;v10</title>
<path fill="none" stroke="black" d="M429.5,-173.883C429.5,-153.906 429.5,-109.276 429.5,-85.5402"/>
<polygon fill="black" stroke="black" points="429.5,-80.2579 431.75,-85.2579 429.5,-82.7579 429.5,-85.2579 429.5,-85.2579 429.5,-85.2579 429.5,-82.7579 427.25,-85.258 429.5,-80.2579 429.5,-80.2579"/>
</g>
<!-- v12 -->
<g id="v12_Room" class="node"><title>v12</title>
<ellipse fill="none" stroke="black" cx="547.5" cy="-69" rx="21.5" ry="11"/>
<text text-anchor="middle" x="547.5" y="-66.8" font-family="sans-serif" font-size="9.00">Room</text>
</g>
<!-- v3&#45;&gt;v12 -->
<g id="edge8" class="edge"><title>v3&#45;&gt;v12</title>
<path fill="none" stroke="black" d="M439.156,-174.671C460.264,-154.278 510.533,-105.714 534.438,-82.6191"/>
<polygon fill="black" stroke="black" points="538.04,-79.1394 536.007,-84.2317 536.242,-80.8764 534.444,-82.6135 534.444,-82.6135 534.444,-82.6135 536.242,-80.8764 532.881,-80.9953 538.04,-79.1394 538.04,-79.1394"/>
</g>
<!-- v4&#45;&gt;v5 -->
<g id="edge23" class="edge"><title>v4&#45;&gt;v5</title>
<path fill="none" stroke="green" d="M744.194,-18.4411C738.427,-19.7873 732.273,-21.0764 726.5,-22 679.157,-29.5739 328.957,-22.7119 296.5,-58 281.397,-74.4198 297.372,-101.862 307.869,-116.355"/>
</g>
<!-- v4&#45;&gt;v10 -->
<g id="edge24" class="edge"><title>v4&#45;&gt;v10</title>
<path fill="none" stroke="green" d="M743.698,-18.2529C738.063,-19.5766 732.09,-20.9034 726.5,-22 623.329,-42.2382 498.568,-59.1159 450.123,-65.3849"/>
</g>
<!-- v4&#45;&gt;v12 -->
<g id="edge25" class="edge"><title>v4&#45;&gt;v12</title>
<path fill="none" stroke="green" d="M743.623,-18.3036C698.83,-29.6539 605.591,-53.2801 565.962,-63.3218"/>
</g>
<!-- v6 -->
<g id="v6_Visitor" class="node"><title>v6</title>
<ellipse fill="none" stroke="black" cx="357.5" cy="-69" rx="32.5" ry="11"/>
<text text-anchor="middle" x="357.5" y="-66.8" font-family="sans-serif" font-size="9.00">Visitor</text>
</g>
<!-- v5&#45;&gt;v6 -->
<g id="edge9" class="edge"><title>v5&#45;&gt;v6</title>
<path fill="none" stroke="black" d="M322.625,-116.5C329.342,-107.544 339.487,-94.018 347.106,-83.859"/>
<polygon fill="black" stroke="black" points="350.199,-79.7345 348.999,-85.0845 348.699,-81.7345 347.199,-83.7345 347.199,-83.7345 347.199,-83.7345 348.699,-81.7345 345.399,-82.3845 350.199,-79.7345 350.199,-79.7345"/>
</g>
<!-- v5&#45;&gt;v8 -->
<g id="edge10" class="edge"><title>v5&#45;&gt;v8</title>
<path fill="none" stroke="black" d="M299.631,-119.392C279.67,-110.924 244.495,-95.4803 215.5,-80 182.184,-62.213 145.064,-38.6714 123.303,-24.4678"/>
<polygon fill="black" stroke="black" points="118.9,-21.5841 124.316,-22.4411 120.991,-22.9537 123.083,-24.3234 123.083,-24.3234 123.083,-24.3234 120.991,-22.9537 121.85,-26.2057 118.9,-21.5841 118.9,-21.5841"/>
</g>
<!-- v5&#45;&gt;v9 -->
<g id="edge11" class="edge"><title>v5&#45;&gt;v9</title>
<path fill="none" stroke="black" d="M307.071,-116.671C288.995,-96.664 246.418,-49.5404 225.109,-25.9559"/>
<polygon fill="black" stroke="black" points="221.633,-22.1089 226.655,-24.3105 223.31,-23.9639 224.986,-25.8189 224.986,-25.8189 224.986,-25.8189 223.31,-23.9639 223.316,-27.3274 221.633,-22.1089 221.633,-22.1089"/>
</g>
<!-- v6&#45;&gt;v7 -->
<g id="edge12" class="edge"><title>v6&#45;&gt;v7</title>
<path fill="none" stroke="black" d="M348.616,-58.2455C340.353,-49.1716 327.965,-35.5697 318.762,-25.4636"/>
<polygon fill="black" stroke="black" points="315.282,-21.6427 320.312,-23.8244 316.965,-23.491 318.648,-25.3394 318.648,-25.3394 318.648,-25.3394 316.965,-23.491 316.985,-26.8544 315.282,-21.6427 315.282,-21.6427"/>
</g>
<!-- v10&#45;&gt;v11 -->
<g id="edge13" class="edge"><title>v10&#45;&gt;v11</title>
<path fill="none" stroke="black" d="M423.752,-58.2455C418.563,-49.4409 410.863,-36.373 404.969,-26.3724"/>
<polygon fill="black" stroke="black" points="402.404,-22.0198 406.881,-25.1851 403.674,-24.1736 404.943,-26.3275 404.943,-26.3275 404.943,-26.3275 403.674,-24.1736 403.005,-27.4698 402.404,-22.0198 402.404,-22.0198"/>
</g>
<!-- v12&#45;&gt;v13 -->
<g id="edge14" class="edge"><title>v12&#45;&gt;v13</title>
<path fill="none" stroke="black" d="M555.922,-58.7527C564.114,-49.7573 576.658,-35.9828 586.012,-25.7121"/>
<polygon fill="black" stroke="black" points="589.551,-21.8266 587.848,-27.0383 587.867,-23.6749 586.184,-25.5233 586.184,-25.5233 586.184,-25.5233 587.867,-23.6749 584.521,-24.0083 589.551,-21.8266 589.551,-21.8266"/>
</g>
<!-- v12&#45;&gt;v14 -->
<g id="edge15" class="edge"><title>v12&#45;&gt;v14</title>
<path fill="none" stroke="black" d="M563.674,-61.5761C588.428,-51.7448 635.854,-32.9091 664.588,-21.4971"/>
<polygon fill="black" stroke="black" points="669.379,-19.5943 665.562,-23.531 667.055,-20.5171 664.732,-21.4399 664.732,-21.4399 664.732,-21.4399 667.055,-20.5171 663.901,-19.3488 669.379,-19.5943 669.379,-19.5943"/>
</g>
<!-- v12&#45;&gt;v15 -->
<g id="edge16" class="edge"><title>v12&#45;&gt;v15</title>
<path fill="none" stroke="black" d="M539.244,-58.7527C531.212,-49.7573 518.913,-35.9828 509.743,-25.7121"/>
<polygon fill="black" stroke="black" points="506.274,-21.8266 511.282,-24.0577 507.939,-23.6914 509.604,-25.5563 509.604,-25.5563 509.604,-25.5563 507.939,-23.6914 507.925,-27.0548 506.274,-21.8266 506.274,-21.8266"/>
</g>
</g>
</svg>
