<?xml version="1.0" encoding="UTF-8" standalone="no"?>
<?xml-stylesheet href="style_sbrs.css" type="text/css"?>
<!DOCTYPE svg PUBLIC "-//W3C//DTD SVG 1.1//EN"
 "http://www.w3.org/Graphics/SVG/1.1/DTD/svg11.dtd">
<!-- Generated by graphviz version 2.38.0 (20140413.2041)
 -->
<!-- Title: tra.svg Pages: 1 -->
<svg width="412pt" height="262pt"
 viewBox="0.00 0.00 412.00 262.00" xmlns="http://www.w3.org/2000/svg" xmlns:xlink="http://www.w3.org/1999/xlink">
<g id="graph0" class="graph" transform="scale(1 1) rotate(0) translate(4 258)">
<title>tra.svg</title>
<polygon fill="white" stroke="none" points="-4,4 -4,-258 408,-258 408,4 -4,4"/>
<!-- 0 -->
<g id="s0" class="node"><title>0</title>
<g id="a_s0"><a xlink:href="./0.svg" xlink:title="0">
<ellipse fill="none" stroke="black" stroke-width="2" cx="221.5" cy="-243" rx="21.5" ry="11"/>
<text text-anchor="middle" x="221.5" y="-240.8" font-family="monospace" font-size="9.00">0</text>
</a>
</g>
</g>
<!-- 2 -->
<g id="s2" class="node"><title>2</title>
<g id="a_s2"><a xlink:href="./2.svg" xlink:title="2">
<ellipse fill="none" stroke="black" cx="121.5" cy="-185" rx="21.5" ry="11"/>
<text text-anchor="middle" x="121.5" y="-182.8" font-family="monospace" font-size="9.00">2</text>
</a>
</g>
</g>
<!-- 0&#45;&gt;2 -->
<g id="edge6" class="edge"><title>0&#45;&gt;2</title>
<path fill="none" stroke="black" d="M205.535,-235.576C186.394,-226.306 155.185,-209.032 136.496,-197.522"/>
<polygon fill="black" stroke="black" points="132.029,-194.729 137.462,-195.472 134.149,-196.055 136.269,-197.38 136.269,-197.38 136.269,-197.38 134.149,-196.055 135.075,-199.288 132.029,-194.729 132.029,-194.729"/>
</g>
<!-- 3 -->
<g id="s3" class="node"><title>3</title>
<g id="a_s3"><a xlink:href="./3.svg" xlink:title="3">
<ellipse fill="none" stroke="black" cx="221.5" cy="-185" rx="21.5" ry="11"/>
<text text-anchor="middle" x="221.5" y="-182.8" font-family="monospace" font-size="9.00">3</text>
</a>
</g>
</g>
<!-- 0&#45;&gt;3 -->
<g id="edge7" class="edge"><title>0&#45;&gt;3</title>
<path fill="none" stroke="black" d="M216.233,-232.246C214.579,-223.679 214.308,-211.076 215.422,-201.19"/>
<polygon fill="black" stroke="black" points="216.183,-196.02 217.681,-201.294 215.819,-198.493 215.455,-200.966 215.455,-200.966 215.455,-200.966 215.819,-198.493 213.229,-200.639 216.183,-196.02 216.183,-196.02"/>
</g>
<!-- 4 -->
<g id="s4" class="node"><title>4</title>
<g id="a_s4"><a xlink:href="./4.svg" xlink:title="4">
<ellipse fill="none" stroke="black" cx="282.5" cy="-185" rx="21.5" ry="11"/>
<text text-anchor="middle" x="282.5" y="-182.8" font-family="monospace" font-size="9.00">4</text>
</a>
</g>
</g>
<!-- 0&#45;&gt;4 -->
<g id="edge8" class="edge"><title>0&#45;&gt;4</title>
<path fill="none" stroke="black" d="M226.859,-232.246C235.639,-222.448 251.98,-207.371 264.878,-197.116"/>
<polygon fill="black" stroke="black" points="269.105,-193.838 266.533,-198.681 267.129,-195.37 265.154,-196.903 265.154,-196.903 265.154,-196.903 267.129,-195.37 263.775,-195.125 269.105,-193.838 269.105,-193.838"/>
</g>
<!-- 1 -->
<g id="s1" class="node"><title>1</title>
<g id="a_s1"><a xlink:href="./1.svg" xlink:title="1">
<ellipse fill="none" stroke="black" cx="121.5" cy="-69" rx="21.5" ry="11"/>
<text text-anchor="middle" x="121.5" y="-66.8" font-family="monospace" font-size="9.00">1</text>
</a>
</g>
</g>
<!-- 0&#45;&gt;1 -->
<g id="edge5" class="edge"><title>0&#45;&gt;1</title>
<path fill="none" stroke="black" d="M214.442,-232.383C207.877,-223.248 198.008,-209.013 190.5,-196 170.732,-161.738 171.008,-150.41 151.5,-116 145.196,-104.881 137.267,-92.7921 131.144,-83.7989"/>
<polygon fill="black" stroke="black" points="128.299,-79.6505 132.983,-82.5009 129.713,-81.7121 131.127,-83.7737 131.127,-83.7737 131.127,-83.7737 129.713,-81.7121 129.272,-85.0465 128.299,-79.6505 128.299,-79.6505"/>
</g>
<!-- 10 -->
<g id="s10" class="node"><title>10</title>
<g id="a_s10"><a xlink:href="./10.svg" xlink:title="10">
<ellipse fill="none" stroke="black" cx="21.5" cy="-127" rx="21.5" ry="11"/>
<text text-anchor="middle" x="21.5" y="-124.8" font-family="monospace" font-size="9.00">10</text>
</a>
</g>
</g>
<!-- 10&#45;&gt;2 -->
<g id="edge23" class="edge"><title>10&#45;&gt;2</title>
<path fill="none" stroke="black" d="M37.4652,-134.424C56.5936,-143.688 87.7766,-160.947 106.469,-172.456"/>
<polygon fill="black" stroke="black" points="110.938,-175.25 105.505,-174.507 108.818,-173.925 106.698,-172.599 106.698,-172.599 106.698,-172.599 108.818,-173.925 107.891,-170.691 110.938,-175.25 110.938,-175.25"/>
</g>
<!-- 13 -->
<g id="s13" class="node"><title>13</title>
<g id="a_s13"><a xlink:href="./13.svg" xlink:title="13">
<ellipse fill="none" stroke="black" cx="21.5" cy="-69" rx="21.5" ry="11"/>
<text text-anchor="middle" x="21.5" y="-66.8" font-family="monospace" font-size="9.00">13</text>
</a>
</g>
</g>
<!-- 10&#45;&gt;13 -->
<g id="edge24" class="edge"><title>10&#45;&gt;13</title>
<path fill="none" stroke="black" d="M21.5,-115.988C21.5,-107.494 21.5,-95.1697 21.5,-85.4169"/>
<polygon fill="black" stroke="black" points="21.5,-80.3039 23.7501,-85.3038 21.5,-82.8039 21.5001,-85.3039 21.5001,-85.3039 21.5001,-85.3039 21.5,-82.8039 19.2501,-85.3039 21.5,-80.3039 21.5,-80.3039"/>
</g>
<!-- 8 -->
<g id="s8" class="node"><title>8</title>
<g id="a_s8"><a xlink:href="./8.svg" xlink:title="8">
<ellipse fill="none" stroke="black" cx="221.5" cy="-127" rx="21.5" ry="11"/>
<text text-anchor="middle" x="221.5" y="-124.8" font-family="monospace" font-size="9.00">8</text>
</a>
</g>
</g>
<!-- 8&#45;&gt;3 -->
<g id="edge19" class="edge"><title>8&#45;&gt;3</title>
<path fill="none" stroke="black" d="M226.817,-138.02C228.443,-146.669 228.685,-159.284 227.543,-169.114"/>
<polygon fill="black" stroke="black" points="226.767,-174.246 225.29,-168.965 227.141,-171.774 227.515,-169.302 227.515,-169.302 227.515,-169.302 227.141,-171.774 229.74,-169.639 226.767,-174.246 226.767,-174.246"/>
</g>
<!-- 12 -->
<g id="s12" class="node"><title>12</title>
<g id="a_s12"><a xlink:href="./12.svg" xlink:title="12">
<ellipse fill="none" stroke="black" cx="321.5" cy="-69" rx="21.5" ry="11"/>
<text text-anchor="middle" x="321.5" y="-66.8" font-family="monospace" font-size="9.00">12</text>
</a>
</g>
</g>
<!-- 8&#45;&gt;12 -->
<g id="edge20" class="edge"><title>8&#45;&gt;12</title>
<path fill="none" stroke="black" d="M235.405,-118.213C253.017,-108.35 283.425,-91.3221 302.988,-80.3668"/>
<polygon fill="black" stroke="black" points="307.714,-77.7204 304.45,-82.1266 305.532,-78.942 303.351,-80.1635 303.351,-80.1635 303.351,-80.1635 305.532,-78.942 302.252,-78.2003 307.714,-77.7204 307.714,-77.7204"/>
</g>
<!-- 6 -->
<g id="s6" class="node"><title>6</title>
<g id="a_s6"><a xlink:href="./6.svg" xlink:title="6">
<ellipse fill="none" stroke="black" cx="321.5" cy="-127" rx="21.5" ry="11"/>
<text text-anchor="middle" x="321.5" y="-124.8" font-family="monospace" font-size="9.00">6</text>
</a>
</g>
</g>
<!-- 6&#45;&gt;4 -->
<g id="edge15" class="edge"><title>6&#45;&gt;4</title>
<path fill="none" stroke="black" d="M319.843,-138.012C315.089,-147.365 305.481,-161.362 296.973,-171.456"/>
<polygon fill="black" stroke="black" points="293.656,-175.25 295.253,-170.005 295.302,-173.368 296.947,-171.486 296.947,-171.486 296.947,-171.486 295.302,-173.368 298.641,-172.967 293.656,-175.25 293.656,-175.25"/>
</g>
<!-- 11 -->
<g id="s11" class="node"><title>11</title>
<g id="a_s11"><a xlink:href="./11.svg" xlink:title="11">
<ellipse fill="none" stroke="black" cx="382.5" cy="-69" rx="21.5" ry="11"/>
<text text-anchor="middle" x="382.5" y="-66.8" font-family="monospace" font-size="9.00">11</text>
</a>
</g>
</g>
<!-- 6&#45;&gt;11 -->
<g id="edge16" class="edge"><title>6&#45;&gt;11</title>
<path fill="none" stroke="black" d="M331.301,-117.003C341.379,-107.75 357.166,-93.2571 368.546,-82.8098"/>
<polygon fill="black" stroke="black" points="372.521,-79.1611 370.359,-84.1999 370.679,-80.8518 368.838,-82.5425 368.838,-82.5425 368.838,-82.5425 370.679,-80.8518 367.316,-80.885 372.521,-79.1611 372.521,-79.1611"/>
</g>
<!-- 2&#45;&gt;0 -->
<g id="edge1" class="edge"><title>2&#45;&gt;0</title>
<path fill="none" stroke="black" d="M137.465,-192.424C156.594,-201.688 187.777,-218.947 206.469,-230.456"/>
<polygon fill="black" stroke="black" points="210.938,-233.25 205.505,-232.507 208.818,-231.925 206.698,-230.599 206.698,-230.599 206.698,-230.599 208.818,-231.925 207.891,-228.691 210.938,-233.25 210.938,-233.25"/>
</g>
<!-- 2&#45;&gt;10 -->
<g id="edge3" class="edge"><title>2&#45;&gt;10</title>
<path fill="none" stroke="black" d="M105.535,-177.576C86.3945,-168.306 55.1845,-151.032 36.4959,-139.522"/>
<polygon fill="black" stroke="black" points="32.0293,-136.729 37.4616,-137.472 34.1489,-138.055 36.2685,-139.38 36.2685,-139.38 36.2685,-139.38 34.1489,-138.055 35.0754,-141.288 32.0293,-136.729 32.0293,-136.729"/>
</g>
<!-- 9 -->
<g id="s9" class="node"><title>9</title>
<g id="a_s9"><a xlink:href="./9.svg" xlink:title="9">
<ellipse fill="none" stroke="black" cx="121.5" cy="-127" rx="21.5" ry="11"/>
<text text-anchor="middle" x="121.5" y="-124.8" font-family="monospace" font-size="9.00">9</text>
</a>
</g>
</g>
<!-- 2&#45;&gt;9 -->
<g id="edge2" class="edge"><title>2&#45;&gt;9</title>
<path fill="none" stroke="black" d="M121.5,-173.988C121.5,-165.494 121.5,-153.17 121.5,-143.417"/>
<polygon fill="black" stroke="black" points="121.5,-138.304 123.75,-143.304 121.5,-140.804 121.5,-143.304 121.5,-143.304 121.5,-143.304 121.5,-140.804 119.25,-143.304 121.5,-138.304 121.5,-138.304"/>
</g>
<!-- 3&#45;&gt;0 -->
<g id="edge26" class="edge"><title>3&#45;&gt;0</title>
<path fill="none" stroke="black" d="M226.817,-196.02C228.443,-204.669 228.685,-217.284 227.543,-227.114"/>
<polygon fill="black" stroke="black" points="226.767,-232.246 225.29,-226.965 227.141,-229.774 227.515,-227.302 227.515,-227.302 227.515,-227.302 227.141,-229.774 229.74,-227.639 226.767,-232.246 226.767,-232.246"/>
</g>
<!-- 3&#45;&gt;8 -->
<g id="edge28" class="edge"><title>3&#45;&gt;8</title>
<path fill="none" stroke="black" d="M216.233,-174.246C214.579,-165.679 214.308,-153.076 215.422,-143.19"/>
<polygon fill="black" stroke="black" points="216.183,-138.02 217.681,-143.294 215.819,-140.493 215.455,-142.966 215.455,-142.966 215.455,-142.966 215.819,-140.493 213.229,-142.639 216.183,-138.02 216.183,-138.02"/>
</g>
<!-- 7 -->
<g id="s7" class="node"><title>7</title>
<g id="a_s7"><a xlink:href="./7.svg" xlink:title="7">
<ellipse fill="none" stroke="black" cx="102.5" cy="-11" rx="21.5" ry="11"/>
<text text-anchor="middle" x="102.5" y="-8.8" font-family="monospace" font-size="9.00">7</text>
</a>
</g>
</g>
<!-- 3&#45;&gt;7 -->
<g id="edge27" class="edge"><title>3&#45;&gt;7</title>
<path fill="none" stroke="black" d="M202.247,-180.073C169.142,-172.886 103.706,-156.634 90.5,-138 66.5573,-104.217 84.3641,-51.8989 95.4308,-26.6368"/>
<polygon fill="black" stroke="black" points="97.5399,-21.9587 97.536,-27.4417 96.5123,-24.2378 95.4848,-26.5169 95.4848,-26.5169 95.4848,-26.5169 96.5123,-24.2378 93.4336,-25.5921 97.5399,-21.9587 97.5399,-21.9587"/>
</g>
<!-- 4&#45;&gt;0 -->
<g id="edge12" class="edge"><title>4&#45;&gt;0</title>
<path fill="none" stroke="black" d="M276.932,-195.987C268.081,-205.815 251.836,-220.785 239.024,-230.961"/>
<polygon fill="black" stroke="black" points="234.827,-234.213 237.401,-229.372 236.803,-232.682 238.779,-231.151 238.779,-231.151 238.779,-231.151 236.803,-232.682 240.157,-232.929 234.827,-234.213 234.827,-234.213"/>
</g>
<!-- 4&#45;&gt;6 -->
<g id="edge14" class="edge"><title>4&#45;&gt;6</title>
<path fill="none" stroke="black" d="M284.157,-173.988C288.9,-164.656 298.475,-150.702 306.969,-140.613"/>
<polygon fill="black" stroke="black" points="310.281,-136.819 308.687,-142.066 308.637,-138.703 306.992,-140.586 306.992,-140.586 306.992,-140.586 308.637,-138.703 305.297,-139.106 310.281,-136.819 310.281,-136.819"/>
</g>
<!-- 5 -->
<g id="s5" class="node"><title>5</title>
<g id="a_s5"><a xlink:href="./5.svg" xlink:title="5">
<ellipse fill="none" stroke="black" cx="163.5" cy="-11" rx="21.5" ry="11"/>
<text text-anchor="middle" x="163.5" y="-8.8" font-family="monospace" font-size="9.00">5</text>
</a>
</g>
</g>
<!-- 4&#45;&gt;5 -->
<g id="edge13" class="edge"><title>4&#45;&gt;5</title>
<path fill="none" stroke="black" d="M278.892,-173.879C273.794,-160.195 263.726,-135.286 251.5,-116 228.896,-80.3425 195.03,-43.8478 176.597,-25.0194"/>
<polygon fill="black" stroke="black" points="172.691,-21.0586 177.804,-23.0389 174.447,-22.8387 176.202,-24.6187 176.202,-24.6187 176.202,-24.6187 174.447,-22.8387 174.6,-26.1986 172.691,-21.0586 172.691,-21.0586"/>
</g>
<!-- 1&#45;&gt;9 -->
<g id="edge9" class="edge"><title>1&#45;&gt;9</title>
<path fill="none" stroke="black" d="M126.817,-80.0198C128.443,-88.6686 128.685,-101.284 127.543,-111.114"/>
<polygon fill="black" stroke="black" points="126.767,-116.246 125.29,-110.965 127.141,-113.774 127.515,-111.302 127.515,-111.302 127.515,-111.302 127.141,-113.774 129.74,-111.639 126.767,-116.246 126.767,-116.246"/>
</g>
<!-- 1&#45;&gt;7 -->
<g id="edge10" class="edge"><title>1&#45;&gt;7</title>
<path fill="none" stroke="black" d="M113.196,-58.7527C108.545,-50.1816 103.861,-37.2715 101.575,-27.1878"/>
<polygon fill="black" stroke="black" points="100.611,-22.2102 103.771,-26.6914 101.087,-24.6646 101.562,-27.1191 101.562,-27.1191 101.562,-27.1191 101.087,-24.6646 99.3528,-27.5468 100.611,-22.2102 100.611,-22.2102"/>
</g>
<!-- 1&#45;&gt;5 -->
<g id="edge11" class="edge"><title>1&#45;&gt;5</title>
<path fill="none" stroke="black" d="M123.693,-57.9883C128.999,-48.5454 139.505,-34.3689 148.615,-24.2542"/>
<polygon fill="black" stroke="black" points="152.154,-20.4615 150.388,-25.6523 150.449,-22.2894 148.743,-24.1173 148.743,-24.1173 148.743,-24.1173 150.449,-22.2894 147.098,-22.5823 152.154,-20.4615 152.154,-20.4615"/>
</g>
<!-- 16 -->
<g id="s16" class="node"><title>16</title>
<g id="a_s16"><a xlink:href="./16.svg" xlink:title="16">
<ellipse fill="none" stroke="black" cx="21.5" cy="-11" rx="21.5" ry="11"/>
<text text-anchor="middle" x="21.5" y="-8.8" font-family="monospace" font-size="9.00">16</text>
</a>
</g>
</g>
<!-- 15 -->
<g id="s15" class="node"><title>15</title>
<g id="a_s15"><a xlink:href="./15.svg" xlink:title="15">
<ellipse fill="none" stroke="black" cx="321.5" cy="-11" rx="21.5" ry="11"/>
<text text-anchor="middle" x="321.5" y="-8.8" font-family="monospace" font-size="9.00">15</text>
</a>
</g>
</g>
<!-- 14 -->
<g id="s14" class="node"><title>14</title>
<g id="a_s14"><a xlink:href="./14.svg" xlink:title="14">
<ellipse fill="none" stroke="black" cx="382.5" cy="-11" rx="21.5" ry="11"/>
<text text-anchor="middle" x="382.5" y="-8.8" font-family="monospace" font-size="9.00">14</text>
</a>
</g>
</g>
<!-- 13&#45;&gt;16 -->
<g id="edge4" class="edge"><title>13&#45;&gt;16</title>
<path fill="none" stroke="black" d="M21.5,-57.9883C21.5,-49.4941 21.5,-37.1697 21.5,-27.4169"/>
<polygon fill="black" stroke="black" points="21.5,-22.3039 23.7501,-27.3038 21.5,-24.8039 21.5001,-27.3039 21.5001,-27.3039 21.5001,-27.3039 21.5,-24.8039 19.2501,-27.3039 21.5,-22.3039 21.5,-22.3039"/>
</g>
<!-- 12&#45;&gt;15 -->
<g id="edge22" class="edge"><title>12&#45;&gt;15</title>
<path fill="none" stroke="black" d="M321.5,-57.9883C321.5,-49.4941 321.5,-37.1697 321.5,-27.4169"/>
<polygon fill="black" stroke="black" points="321.5,-22.3039 323.75,-27.3038 321.5,-24.8039 321.5,-27.3039 321.5,-27.3039 321.5,-27.3039 321.5,-24.8039 319.25,-27.3039 321.5,-22.3039 321.5,-22.3039"/>
</g>
<!-- 11&#45;&gt;14 -->
<g id="edge21" class="edge"><title>11&#45;&gt;14</title>
<path fill="none" stroke="black" d="M382.5,-57.9883C382.5,-49.4941 382.5,-37.1697 382.5,-27.4169"/>
<polygon fill="black" stroke="black" points="382.5,-22.3039 384.75,-27.3038 382.5,-24.8039 382.5,-27.3039 382.5,-27.3039 382.5,-27.3039 382.5,-24.8039 380.25,-27.3039 382.5,-22.3039 382.5,-22.3039"/>
</g>
<!-- 9&#45;&gt;1 -->
<g id="edge17" class="edge"><title>9&#45;&gt;1</title>
<path fill="none" stroke="black" d="M116.233,-116.246C114.579,-107.679 114.308,-95.0763 115.422,-85.1899"/>
<polygon fill="black" stroke="black" points="116.183,-80.0198 117.681,-85.2941 115.819,-82.4931 115.455,-84.9665 115.455,-84.9665 115.455,-84.9665 115.819,-82.4931 113.229,-84.6389 116.183,-80.0198 116.183,-80.0198"/>
</g>
<!-- 7&#45;&gt;1 -->
<g id="edge18" class="edge"><title>7&#45;&gt;1</title>
<path fill="none" stroke="black" d="M110.769,-21.1826C115.46,-29.8047 120.19,-42.8582 122.466,-52.9933"/>
<polygon fill="black" stroke="black" points="123.419,-57.9883 120.272,-53.4987 122.95,-55.5326 122.482,-53.0769 122.482,-53.0769 122.482,-53.0769 122.95,-55.5326 124.692,-52.6552 123.419,-57.9883 123.419,-57.9883"/>
</g>
<!-- 5&#45;&gt;1 -->
<g id="edge25" class="edge"><title>5&#45;&gt;1</title>
<path fill="none" stroke="black" d="M161.307,-22.0117C156.052,-31.3649 145.694,-45.3622 136.645,-55.4565"/>
<polygon fill="black" stroke="black" points="133.125,-59.25 134.876,-54.0543 134.825,-57.4173 136.526,-55.5846 136.526,-55.5846 136.526,-55.5846 134.825,-57.4173 138.175,-57.115 133.125,-59.25 133.125,-59.25"/>
</g>
</g>
</svg>
