<?xml version="1.0" encoding="UTF-8" standalone="no"?>
<?xml-stylesheet href="style.css" type="text/css"?>
<!DOCTYPE svg PUBLIC "-//W3C//DTD SVG 1.1//EN"
 "http://www.w3.org/Graphics/SVG/1.1/DTD/svg11.dtd">
<!-- Generated by graphviz version 2.38.0 (20140413.2041)
 -->
<!-- Title: collect_data_lhs.svg Pages: 1 -->
<svg width="506pt" height="254pt"
 viewBox="0.00 0.00 506.00 254.00" xmlns="http://www.w3.org/2000/svg" xmlns:xlink="http://www.w3.org/1999/xlink">
<g id="graph0" class="graph" transform="scale(1 1) rotate(0) translate(4 250)">
<title>collect_data_lhs.svg</title>
<polygon fill="white" stroke="none" points="-4,4 -4,-250 502,-250 502,4 -4,4"/>
<!-- r0 -->
<g id="node1" class="node"><title>r0</title>
<polygon fill="none" stroke="black" stroke-dasharray="5,2" points="23,-246 0,-246 0,-228 23,-228 23,-246"/>
<text text-anchor="middle" x="11.5" y="-234.8" font-family="serif" font-size="9.00">0</text>
</g>
<!-- v0 -->
<g id="v0_InstallationBus" class="node"><title>v0</title>
<ellipse fill="none" stroke="black" cx="172.5" cy="-123" rx="61" ry="11"/>
<text text-anchor="middle" x="172.5" y="-120.8" font-family="sans-serif" font-size="9.00">InstallationBus</text>
</g>
<!-- r0&#45;&gt;v0 -->
<g id="edge1" class="edge"><title>r0&#45;&gt;v0</title>
<path fill="none" stroke="black" d="M22.3099,-227.912C39.239,-215.302 73.1129,-190.297 102.5,-170 119.416,-158.317 138.997,-145.509 153.14,-136.381"/>
<polygon fill="black" stroke="black" points="157.346,-133.672 154.361,-138.271 155.244,-135.026 153.142,-136.38 153.142,-136.38 153.142,-136.38 155.244,-135.026 151.924,-134.488 157.346,-133.672 157.346,-133.672"/>
</g>
<!-- r1 -->
<g id="node2" class="node"><title>r1</title>
<polygon fill="none" stroke="black" stroke-dasharray="5,2" points="396,-246 373,-246 373,-228 396,-228 396,-246"/>
<text text-anchor="middle" x="384.5" y="-234.8" font-family="serif" font-size="9.00">1</text>
</g>
<!-- v2 -->
<g id="v2_Room" class="node"><title>v2</title>
<ellipse fill="none" stroke="black" cx="386.5" cy="-181" rx="21.5" ry="11"/>
<text text-anchor="middle" x="386.5" y="-178.8" font-family="sans-serif" font-size="9.00">Room</text>
</g>
<!-- r1&#45;&gt;v2 -->
<g id="edge2" class="edge"><title>r1&#45;&gt;v2</title>
<path fill="none" stroke="black" d="M384.812,-227.562C385.113,-219.453 385.574,-207.014 385.938,-197.181"/>
<polygon fill="black" stroke="black" points="386.129,-192.03 388.192,-197.11 386.036,-194.529 385.943,-197.027 385.943,-197.027 385.943,-197.027 386.036,-194.529 383.695,-196.944 386.129,-192.03 386.129,-192.03"/>
</g>
<!-- oa -->
<g id="node3" class="node"><title>oa</title>
<text text-anchor="middle" x="425.5" y="-234.8" font-family="serif" font-size="9.00">a</text>
</g>
<!-- onet2 -->
<g id="node4" class="node"><title>onet2</title>
<text text-anchor="middle" x="60.5" y="-234.8" font-family="serif" font-size="9.00">net2</text>
</g>
<!-- onet3 -->
<g id="node5" class="node"><title>onet3</title>
<text text-anchor="middle" x="116.5" y="-234.8" font-family="serif" font-size="9.00">net3</text>
</g>
<!-- onet4 -->
<g id="node6" class="node"><title>onet4</title>
<text text-anchor="middle" x="172.5" y="-234.8" font-family="serif" font-size="9.00">net4</text>
</g>
<!-- onet5 -->
<g id="node7" class="node"><title>onet5</title>
<text text-anchor="middle" x="228.5" y="-234.8" font-family="serif" font-size="9.00">net5</text>
</g>
<!-- onet6 -->
<g id="node8" class="node"><title>onet6</title>
<text text-anchor="middle" x="284.5" y="-234.8" font-family="serif" font-size="9.00">net6</text>
</g>
<!-- osl1 -->
<g id="node9" class="node"><title>osl1</title>
<text text-anchor="middle" x="336.5" y="-234.8" font-family="serif" font-size="9.00">sl1</text>
</g>
<!-- e0 -->
<g id="node10" class="node"><title>e0</title>
</g>
<!-- v4 -->
<g id="v4_Laptop" class="node"><title>v4</title>
<ellipse fill="none" stroke="black" cx="271.5" cy="-65" rx="29" ry="11"/>
<text text-anchor="middle" x="271.5" y="-62.8" font-family="sans-serif" font-size="9.00">Laptop</text>
</g>
<!-- e0&#45;&gt;v4 -->
<g id="edge10" class="edge"><title>e0&#45;&gt;v4</title>
<path fill="none" stroke="green" d="M271.5,-118.167C271.5,-109.586 271.5,-88.5957 271.5,-76.0117"/>
<polygon fill="green" stroke="green" points="275,-121.3 268,-121.3 268,-119.9 275,-119.9 275,-121.3"/>
<polyline fill="none" stroke="green" points="271.5,-122 271.5,-118.5 "/>
</g>
<!-- e1 -->
<g id="node11" class="node"><title>e1</title>
</g>
<!-- v5 -->
<g id="v5_SmartLight" class="node"><title>v5</title>
<ellipse fill="none" stroke="black" cx="415.5" cy="-65" rx="43" ry="11"/>
<text text-anchor="middle" x="415.5" y="-62.8" font-family="sans-serif" font-size="9.00">SmartLight</text>
</g>
<!-- e1&#45;&gt;v5 -->
<g id="edge11" class="edge"><title>e1&#45;&gt;v5</title>
<path fill="none" stroke="green" d="M415.5,-118.167C415.5,-109.586 415.5,-88.5957 415.5,-76.0117"/>
<polygon fill="green" stroke="green" points="419,-121.3 412,-121.3 412,-119.9 419,-119.9 419,-121.3"/>
<polyline fill="none" stroke="green" points="415.5,-122 415.5,-118.5 "/>
</g>
<!-- v0&#45;&gt;onet2 -->
<g id="edge13" class="edge"><title>v0&#45;&gt;onet2</title>
<path fill="none" stroke="green" d="M162.634,-133.866C140.775,-155.725 88.6177,-207.882 68.5548,-227.945"/>
</g>
<!-- v0&#45;&gt;onet3 -->
<g id="edge14" class="edge"><title>v0&#45;&gt;onet3</title>
<path fill="none" stroke="green" d="M167.402,-134.196C156.377,-156.245 130.509,-207.983 120.527,-227.945"/>
</g>
<!-- v0&#45;&gt;onet4 -->
<g id="edge15" class="edge"><title>v0&#45;&gt;onet4</title>
<path fill="none" stroke="green" d="M172.5,-134.196C172.5,-156.245 172.5,-207.983 172.5,-227.945"/>
</g>
<!-- v0&#45;&gt;onet5 -->
<g id="edge16" class="edge"><title>v0&#45;&gt;onet5</title>
<path fill="none" stroke="green" d="M177.598,-134.196C188.623,-156.245 214.491,-207.983 224.473,-227.945"/>
</g>
<!-- v0&#45;&gt;onet6 -->
<g id="edge17" class="edge"><title>v0&#45;&gt;onet6</title>
<path fill="none" stroke="green" d="M182.366,-133.866C204.225,-155.725 256.382,-207.882 276.445,-227.945"/>
</g>
<!-- v0&#45;&gt;osl1 -->
<g id="edge18" class="edge"><title>v0&#45;&gt;osl1</title>
<path fill="none" stroke="green" d="M188.39,-133.809C203.085,-142.962 225.465,-157.105 244.5,-170 274.282,-190.175 308.497,-215.232 325.589,-227.882"/>
</g>
<!-- v1 -->
<g id="v1_Data" class="node"><title>v1</title>
<ellipse fill="none" stroke="black" cx="172.5" cy="-65" rx="21.5" ry="11"/>
<text text-anchor="middle" x="172.5" y="-62.8" font-family="sans-serif" font-size="9.00">Data</text>
</g>
<!-- v0&#45;&gt;v1 -->
<g id="edge3" class="edge"><title>v0&#45;&gt;v1</title>
<path fill="none" stroke="black" d="M172.5,-111.988C172.5,-103.494 172.5,-91.1697 172.5,-81.4169"/>
<polygon fill="black" stroke="black" points="172.5,-76.3039 174.75,-81.3038 172.5,-78.8039 172.5,-81.3039 172.5,-81.3039 172.5,-81.3039 172.5,-78.8039 170.25,-81.3039 172.5,-76.3039 172.5,-76.3039"/>
</g>
<!-- v2&#45;&gt;oa -->
<g id="edge12" class="edge"><title>v2&#45;&gt;oa</title>
<path fill="none" stroke="green" d="M393.472,-191.654C400.851,-201.871 412.379,-217.833 419.406,-227.562"/>
</g>
<!-- v3 -->
<g id="v3_Visitor" class="node"><title>v3</title>
<ellipse fill="none" stroke="black" cx="325.5" cy="-123" rx="32.5" ry="11"/>
<text text-anchor="middle" x="325.5" y="-120.8" font-family="sans-serif" font-size="9.00">Visitor</text>
</g>
<!-- v2&#45;&gt;v3 -->
<g id="edge4" class="edge"><title>v2&#45;&gt;v3</title>
<path fill="none" stroke="black" d="M376.699,-171.003C366.741,-161.861 351.209,-147.601 339.862,-137.185"/>
<polygon fill="black" stroke="black" points="335.889,-133.537 341.094,-135.261 337.73,-135.228 339.572,-136.919 339.572,-136.919 339.572,-136.919 337.73,-135.228 338.051,-138.576 335.889,-133.537 335.889,-133.537"/>
</g>
<!-- v2&#45;&gt;v5 -->
<g id="edge5" class="edge"><title>v2&#45;&gt;v5</title>
<path fill="none" stroke="black" d="M389.074,-169.883C394.177,-149.822 405.605,-104.899 411.623,-81.2409"/>
<polygon fill="black" stroke="black" points="412.891,-76.2579 413.838,-81.6583 412.274,-78.6808 411.658,-81.1036 411.658,-81.1036 411.658,-81.1036 412.274,-78.6808 409.477,-80.5489 412.891,-76.2579 412.891,-76.2579"/>
</g>
<!-- s2 -->
<g id="node20" class="node"><title>s2</title>
<polygon fill="gray" stroke="black" stroke-dasharray="5,2" points="498,-18 475,-18 475,-0 498,-0 498,-18"/>
<text text-anchor="middle" x="486.5" y="-6.8" font-family="serif" font-size="9.00">2</text>
</g>
<!-- v2&#45;&gt;s2 -->
<g id="edge7" class="edge"><title>v2&#45;&gt;s2</title>
<path fill="none" stroke="black" d="M395.81,-170.89C412.685,-153.846 448.348,-115.293 467.5,-76 475.986,-58.5894 481.353,-36.7009 484.142,-23.0269"/>
<polygon fill="black" stroke="black" points="485.118,-18.0454 486.364,-23.3847 484.637,-20.4988 484.156,-22.9522 484.156,-22.9522 484.156,-22.9522 484.637,-20.4988 481.948,-22.5196 485.118,-18.0454 485.118,-18.0454"/>
</g>
<!-- v3&#45;&gt;v4 -->
<g id="edge6" class="edge"><title>v3&#45;&gt;v4</title>
<path fill="none" stroke="black" d="M316.094,-112.246C307.344,-103.172 294.228,-89.5697 284.483,-79.4636"/>
<polygon fill="black" stroke="black" points="280.798,-75.6427 285.889,-77.6801 282.534,-77.4423 284.269,-79.2419 284.269,-79.2419 284.269,-79.2419 282.534,-77.4423 282.649,-80.8037 280.798,-75.6427 280.798,-75.6427"/>
</g>
<!-- s1 -->
<g id="node19" class="node"><title>s1</title>
<polygon fill="gray" stroke="black" stroke-dasharray="5,2" points="340,-18 317,-18 317,-0 340,-0 340,-18"/>
<text text-anchor="middle" x="328.5" y="-6.8" font-family="serif" font-size="9.00">1</text>
</g>
<!-- v3&#45;&gt;s1 -->
<g id="edge8" class="edge"><title>v3&#45;&gt;s1</title>
<path fill="none" stroke="black" d="M325.777,-111.664C326.322,-91.2956 327.536,-45.9887 328.142,-23.376"/>
<polygon fill="black" stroke="black" points="328.282,-18.145 330.397,-23.2035 328.215,-20.6441 328.148,-23.1432 328.148,-23.1432 328.148,-23.1432 328.215,-20.6441 325.899,-23.0829 328.282,-18.145 328.282,-18.145"/>
</g>
<!-- s0 -->
<g id="node18" class="node"><title>s0</title>
<polygon fill="gray" stroke="black" stroke-dasharray="5,2" points="283,-18 260,-18 260,-0 283,-0 283,-18"/>
<text text-anchor="middle" x="271.5" y="-6.8" font-family="serif" font-size="9.00">0</text>
</g>
<!-- v4&#45;&gt;s0 -->
<g id="edge9" class="edge"><title>v4&#45;&gt;s0</title>
<path fill="none" stroke="black" d="M271.5,-53.5883C271.5,-44.98 271.5,-32.6988 271.5,-23.3651"/>
<polygon fill="black" stroke="black" points="271.5,-18.2602 273.75,-23.2602 271.5,-20.7602 271.5,-23.2602 271.5,-23.2602 271.5,-23.2602 271.5,-20.7602 269.25,-23.2603 271.5,-18.2602 271.5,-18.2602"/>
</g>
</g>
</svg>
