<?xml version="1.0" encoding="UTF-8" standalone="no"?>
<?xml-stylesheet href="style.css" type="text/css"?>
<!DOCTYPE svg PUBLIC "-//W3C//DTD SVG 1.1//EN"
 "http://www.w3.org/Graphics/SVG/1.1/DTD/svg11.dtd">
<!-- Generated by graphviz version 2.38.0 (20140413.2041)
 -->
<!-- Title: 14.svg Pages: 1 -->
<svg width="912pt" height="374pt"
 viewBox="0.00 0.00 911.50 374.00" xmlns="http://www.w3.org/2000/svg" xmlns:xlink="http://www.w3.org/1999/xlink">
<g id="graph0" class="graph" transform="scale(1 1) rotate(0) translate(4 370)">
<title>14.svg</title>
<polygon fill="white" stroke="none" points="-4,4 -4,-370 907.5,-370 907.5,4 -4,4"/>
<!-- r0 -->
<g id="node1" class="node"><title>r0</title>
<polygon fill="none" stroke="black" stroke-dasharray="5,2" points="270,-366 247,-366 247,-348 270,-348 270,-366"/>
<text text-anchor="middle" x="258.5" y="-354.8" font-family="serif" font-size="9.00">0</text>
</g>
<!-- v0 -->
<g id="v0_Building" class="node"><title>v0</title>
<ellipse fill="none" stroke="black" cx="258.5" cy="-301" rx="36" ry="11"/>
<text text-anchor="middle" x="258.5" y="-298.8" font-family="sans-serif" font-size="9.00">Building</text>
</g>
<!-- r0&#45;&gt;v0 -->
<g id="edge1" class="edge"><title>r0&#45;&gt;v0</title>
<path fill="none" stroke="black" d="M258.5,-347.562C258.5,-339.453 258.5,-327.014 258.5,-317.181"/>
<polygon fill="black" stroke="black" points="258.5,-312.03 260.75,-317.03 258.5,-314.53 258.5,-317.03 258.5,-317.03 258.5,-317.03 258.5,-314.53 256.25,-317.03 258.5,-312.03 258.5,-312.03"/>
</g>
<!-- oalarm -->
<g id="node2" class="node"><title>oalarm</title>
<text text-anchor="middle" x="37.5" y="-354.8" font-family="serif" font-size="9.00">alarm</text>
</g>
<!-- e1 -->
<g id="node12" class="node"><title>e1</title>
</g>
<!-- oalarm&#45;&gt;e1 -->
<g id="edge19" class="edge"><title>oalarm&#45;&gt;e1</title>
<path fill="none" stroke="green" d="M37.5712,-347.885C37.9275,-307.27 39.5,-128 39.5,-128"/>
</g>
<!-- ocntrlRm -->
<g id="node3" class="node"><title>ocntrlRm</title>
<text text-anchor="middle" x="801.5" y="-354.8" font-family="serif" font-size="9.00">cntrlRm</text>
</g>
<!-- e2 -->
<g id="node13" class="node"><title>e2</title>
</g>
<!-- ocntrlRm&#45;&gt;e2 -->
<g id="edge22" class="edge"><title>ocntrlRm&#45;&gt;e2</title>
<path fill="none" stroke="green" d="M800.997,-347.945C799.392,-322.265 794.5,-244 794.5,-244"/>
</g>
<!-- oserv -->
<g id="node4" class="node"><title>oserv</title>
<text text-anchor="middle" x="95.5" y="-354.8" font-family="serif" font-size="9.00">serv</text>
</g>
<!-- e3 -->
<g id="node14" class="node"><title>e3</title>
</g>
<!-- oserv&#45;&gt;e3 -->
<g id="edge25" class="edge"><title>oserv&#45;&gt;e3</title>
<path fill="none" stroke="green" d="M95.5,-347.885C95.5,-307.27 95.5,-128 95.5,-128"/>
</g>
<!-- oserverRm -->
<g id="node5" class="node"><title>oserverRm</title>
<text text-anchor="middle" x="725.5" y="-354.8" font-family="serif" font-size="9.00">serverRm</text>
</g>
<!-- e4 -->
<g id="node15" class="node"><title>e4</title>
</g>
<!-- oserverRm&#45;&gt;e4 -->
<g id="edge28" class="edge"><title>oserverRm&#45;&gt;e4</title>
<path fill="none" stroke="green" d="M725.749,-347.885C726.996,-307.27 732.5,-128 732.5,-128"/>
</g>
<!-- osl1 -->
<g id="node6" class="node"><title>osl1</title>
<text text-anchor="middle" x="374.5" y="-354.8" font-family="serif" font-size="9.00">sl1</text>
</g>
<!-- e5 -->
<g id="node16" class="node"><title>e5</title>
</g>
<!-- osl1&#45;&gt;e5 -->
<g id="edge31" class="edge"><title>osl1&#45;&gt;e5</title>
<path fill="none" stroke="green" d="M374.073,-347.885C371.935,-307.27 362.5,-128 362.5,-128"/>
</g>
<!-- osl2 -->
<g id="node7" class="node"><title>osl2</title>
<text text-anchor="middle" x="146.5" y="-354.8" font-family="serif" font-size="9.00">sl2</text>
</g>
<!-- e6 -->
<g id="node17" class="node"><title>e6</title>
</g>
<!-- osl2&#45;&gt;e6 -->
<g id="edge34" class="edge"><title>osl2&#45;&gt;e6</title>
<path fill="none" stroke="green" d="M146.5,-347.885C146.5,-307.27 146.5,-128 146.5,-128"/>
</g>
<!-- osl3 -->
<g id="node8" class="node"><title>osl3</title>
<text text-anchor="middle" x="194.5" y="-354.8" font-family="serif" font-size="9.00">sl3</text>
</g>
<!-- e7 -->
<g id="node18" class="node"><title>e7</title>
</g>
<!-- osl3&#45;&gt;e7 -->
<g id="edge37" class="edge"><title>osl3&#45;&gt;e7</title>
<path fill="none" stroke="green" d="M196.778,-347.885C208.179,-307.27 258.5,-128 258.5,-128"/>
</g>
<!-- ostation -->
<g id="node9" class="node"><title>ostation</title>
<text text-anchor="middle" x="317.5" y="-354.8" font-family="serif" font-size="9.00">station</text>
</g>
<!-- e8 -->
<g id="node19" class="node"><title>e8</title>
</g>
<!-- ostation&#45;&gt;e8 -->
<g id="edge40" class="edge"><title>ostation&#45;&gt;e8</title>
<path fill="none" stroke="green" d="M317.678,-347.885C318.569,-307.27 322.5,-128 322.5,-128"/>
</g>
<!-- otoiletRm -->
<g id="node10" class="node"><title>otoiletRm</title>
<text text-anchor="middle" x="875.5" y="-354.8" font-family="serif" font-size="9.00">toiletRm</text>
</g>
<!-- e9 -->
<g id="node20" class="node"><title>e9</title>
</g>
<!-- otoiletRm&#45;&gt;e9 -->
<g id="edge43" class="edge"><title>otoiletRm&#45;&gt;e9</title>
<path fill="none" stroke="green" d="M873.97,-347.885C866.31,-307.27 832.5,-128 832.5,-128"/>
</g>
<!-- e0 -->
<g id="node11" class="node"><title>e0</title>
</g>
<!-- v8 -->
<g id="v8_SmartLight" class="node"><title>v8</title>
<ellipse fill="none" stroke="black" cx="555.5" cy="-11" rx="43" ry="11"/>
<text text-anchor="middle" x="555.5" y="-8.8" font-family="sans-serif" font-size="9.00">SmartLight</text>
</g>
<!-- e0&#45;&gt;v8 -->
<g id="edge18" class="edge"><title>e0&#45;&gt;v8</title>
<path fill="none" stroke="green" d="M551.774,-64.1674C552.387,-55.5862 553.886,-34.5957 554.785,-22.0117"/>
<polygon fill="green" stroke="green" points="555.041,-67.5512 548.059,-67.0523 548.159,-65.6559 555.141,-66.1548 555.041,-67.5512"/>
<polyline fill="none" stroke="green" points="551.5,-68 551.749,-64.5089 "/>
</g>
<!-- v2 -->
<g id="v2_InstallationBus" class="node"><title>v2</title>
<ellipse fill="none" stroke="black" cx="220.5" cy="-69" rx="61" ry="11"/>
<text text-anchor="middle" x="220.5" y="-66.8" font-family="sans-serif" font-size="9.00">InstallationBus</text>
</g>
<!-- e1&#45;&gt;v2 -->
<g id="edge20" class="edge"><title>e1&#45;&gt;v2</title>
<path fill="none" stroke="green" d="M39.5,-126C39.5,-126 141.312,-94.5 192.219,-78.75"/>
</g>
<!-- v16 -->
<g id="v16_FireAlarm" class="node"><title>v16</title>
<ellipse fill="none" stroke="black" cx="39.5" cy="-11" rx="39.5" ry="11"/>
<text text-anchor="middle" x="39.5" y="-8.8" font-family="sans-serif" font-size="9.00">FireAlarm</text>
</g>
<!-- e1&#45;&gt;v16 -->
<g id="edge21" class="edge"><title>e1&#45;&gt;v16</title>
<path fill="none" stroke="green" d="M39.5,-126C39.5,-126 39.5,-50.0168 39.5,-22.1167"/>
</g>
<!-- v4 -->
<g id="v4_Room" class="node"><title>v4</title>
<ellipse fill="none" stroke="black" cx="564.5" cy="-185" rx="21.5" ry="11"/>
<text text-anchor="middle" x="564.5" y="-182.8" font-family="sans-serif" font-size="9.00">Room</text>
</g>
<!-- e2&#45;&gt;v4 -->
<g id="edge23" class="edge"><title>e2&#45;&gt;v4</title>
<path fill="none" stroke="green" d="M794.5,-242C794.5,-242 638.253,-203.957 583.322,-190.583"/>
</g>
<!-- v10 -->
<g id="v10_Hallway" class="node"><title>v10</title>
<ellipse fill="none" stroke="black" cx="775.5" cy="-11" rx="32.5" ry="11"/>
<text text-anchor="middle" x="775.5" y="-8.8" font-family="sans-serif" font-size="9.00">Hallway</text>
</g>
<!-- e2&#45;&gt;v10 -->
<g id="edge24" class="edge"><title>e2&#45;&gt;v10</title>
<path fill="none" stroke="green" d="M794.5,-242C794.5,-242 780.018,-66.6915 776.341,-22.1796"/>
</g>
<!-- e3&#45;&gt;v2 -->
<g id="edge26" class="edge"><title>e3&#45;&gt;v2</title>
<path fill="none" stroke="green" d="M95.5,-126C95.5,-126 163.993,-95.315 199.578,-79.3731"/>
</g>
<!-- v15 -->
<g id="v15_Server" class="node"><title>v15</title>
<ellipse fill="none" stroke="black" cx="125.5" cy="-11" rx="29" ry="11"/>
<text text-anchor="middle" x="125.5" y="-8.8" font-family="sans-serif" font-size="9.00">Server</text>
</g>
<!-- e3&#45;&gt;v15 -->
<g id="edge27" class="edge"><title>e3&#45;&gt;v15</title>
<path fill="none" stroke="green" d="M95.5,-126C95.5,-126 115.496,-50.0168 122.838,-22.1167"/>
</g>
<!-- e4&#45;&gt;v10 -->
<g id="edge29" class="edge"><title>e4&#45;&gt;v10</title>
<path fill="none" stroke="green" d="M732.5,-126C732.5,-126 761.16,-50.0168 771.684,-22.1167"/>
</g>
<!-- v13 -->
<g id="v13_Room" class="node"><title>v13</title>
<ellipse fill="none" stroke="black" cx="321.5" cy="-69" rx="21.5" ry="11"/>
<text text-anchor="middle" x="321.5" y="-66.8" font-family="sans-serif" font-size="9.00">Room</text>
</g>
<!-- e4&#45;&gt;v13 -->
<g id="edge30" class="edge"><title>e4&#45;&gt;v13</title>
<path fill="none" stroke="green" d="M732.5,-126C732.5,-126 518.659,-116.503 352.5,-80 347.86,-78.9807 342.928,-77.5537 338.394,-76.0962"/>
</g>
<!-- e5&#45;&gt;v2 -->
<g id="edge32" class="edge"><title>e5&#45;&gt;v2</title>
<path fill="none" stroke="green" d="M362.5,-126C362.5,-126 284.28,-95.1528 243.948,-79.2473"/>
</g>
<!-- v12 -->
<g id="v12_SmartLight" class="node"><title>v12</title>
<ellipse fill="none" stroke="black" cx="670.5" cy="-11" rx="43" ry="11"/>
<text text-anchor="middle" x="670.5" y="-8.8" font-family="sans-serif" font-size="9.00">SmartLight</text>
</g>
<!-- e5&#45;&gt;v12 -->
<g id="edge33" class="edge"><title>e5&#45;&gt;v12</title>
<path fill="none" stroke="green" d="M362.5,-126C362.5,-126 518.737,-97.2146 560.5,-80 598.486,-64.3423 638.374,-36.3221 658.034,-21.615"/>
</g>
<!-- e6&#45;&gt;v2 -->
<g id="edge35" class="edge"><title>e6&#45;&gt;v2</title>
<path fill="none" stroke="green" d="M146.5,-126C146.5,-126 186.409,-95.7988 207.61,-79.7545"/>
</g>
<!-- v14 -->
<g id="v14_SmartLight" class="node"><title>v14</title>
<ellipse fill="none" stroke="black" cx="277.5" cy="-11" rx="43" ry="11"/>
<text text-anchor="middle" x="277.5" y="-8.8" font-family="sans-serif" font-size="9.00">SmartLight</text>
</g>
<!-- e6&#45;&gt;v14 -->
<g id="edge36" class="edge"><title>e6&#45;&gt;v14</title>
<path fill="none" stroke="green" d="M146.5,-126C146.5,-126 132.395,-82.2645 150.5,-58 162.315,-42.1651 213.597,-27.2467 247.273,-18.8985"/>
</g>
<!-- e7&#45;&gt;v2 -->
<g id="edge38" class="edge"><title>e7&#45;&gt;v2</title>
<path fill="none" stroke="green" d="M258.5,-126C258.5,-126 238.224,-96.1193 227.294,-80.0117"/>
</g>
<!-- v6 -->
<g id="v6_Laptop" class="node"><title>v6</title>
<ellipse fill="none" stroke="black" cx="390.5" cy="-69" rx="29" ry="11"/>
<text text-anchor="middle" x="390.5" y="-66.8" font-family="sans-serif" font-size="9.00">Laptop</text>
</g>
<!-- e7&#45;&gt;v6 -->
<g id="edge39" class="edge"><title>e7&#45;&gt;v6</title>
<path fill="none" stroke="green" d="M258.5,-126C258.5,-126 336.271,-93.0061 372.423,-77.6691"/>
</g>
<!-- e8&#45;&gt;v2 -->
<g id="edge41" class="edge"><title>e8&#45;&gt;v2</title>
<path fill="none" stroke="green" d="M322.5,-126C322.5,-126 267.491,-95.7988 238.267,-79.7545"/>
</g>
<!-- v9 -->
<g id="v9_Workstation" class="node"><title>v9</title>
<ellipse fill="none" stroke="black" cx="447.5" cy="-11" rx="47" ry="11"/>
<text text-anchor="middle" x="447.5" y="-8.8" font-family="sans-serif" font-size="9.00">Workstation</text>
</g>
<!-- e8&#45;&gt;v9 -->
<g id="edge42" class="edge"><title>e8&#45;&gt;v9</title>
<path fill="none" stroke="green" d="M322.5,-126C322.5,-126 420.064,-89.6785 428.5,-80 442.997,-63.3674 446.501,-36.5062 447.304,-22.0233"/>
</g>
<!-- e9&#45;&gt;v10 -->
<g id="edge44" class="edge"><title>e9&#45;&gt;v10</title>
<path fill="none" stroke="green" d="M832.5,-126C832.5,-126 823.322,-86.4158 808.5,-58 801.5,-44.58 790.98,-30.6596 783.708,-21.6972"/>
</g>
<!-- v11 -->
<g id="v11_Room" class="node"><title>v11</title>
<ellipse fill="none" stroke="black" cx="706.5" cy="-69" rx="21.5" ry="11"/>
<text text-anchor="middle" x="706.5" y="-66.8" font-family="sans-serif" font-size="9.00">Room</text>
</g>
<!-- e9&#45;&gt;v11 -->
<g id="edge45" class="edge"><title>e9&#45;&gt;v11</title>
<path fill="none" stroke="green" d="M832.5,-126C832.5,-126 755.596,-91.8203 721.95,-76.8667"/>
</g>
<!-- v1 -->
<g id="v1_Floor" class="node"><title>v1</title>
<ellipse fill="none" stroke="black" cx="564.5" cy="-243" rx="25" ry="11"/>
<text text-anchor="middle" x="564.5" y="-240.8" font-family="sans-serif" font-size="9.00">Floor</text>
</g>
<!-- v0&#45;&gt;v1 -->
<g id="edge2" class="edge"><title>v0&#45;&gt;v1</title>
<path fill="none" stroke="black" d="M288.119,-294.58C347.376,-283.735 479.746,-259.511 537.113,-249.012"/>
<polygon fill="black" stroke="black" points="542.098,-248.1 537.585,-251.213 539.639,-248.55 537.18,-249 537.18,-249 537.18,-249 539.639,-248.55 536.775,-246.787 542.098,-248.1 542.098,-248.1"/>
</g>
<!-- v0&#45;&gt;v2 -->
<g id="edge3" class="edge"><title>v0&#45;&gt;v2</title>
<path fill="none" stroke="black" d="M256.818,-289.82C250.785,-253.304 230.208,-128.758 223.01,-85.194"/>
<polygon fill="black" stroke="black" points="222.162,-80.062 225.197,-84.6283 222.57,-82.5286 222.978,-84.9952 222.978,-84.9952 222.978,-84.9952 222.57,-82.5286 220.758,-85.362 222.162,-80.062 222.162,-80.062"/>
</g>
<!-- v1&#45;&gt;v4 -->
<g id="edge4" class="edge"><title>v1&#45;&gt;v4</title>
<path fill="none" stroke="black" d="M564.5,-231.988C564.5,-223.494 564.5,-211.17 564.5,-201.417"/>
<polygon fill="black" stroke="black" points="564.5,-196.304 566.75,-201.304 564.5,-198.804 564.5,-201.304 564.5,-201.304 564.5,-201.304 564.5,-198.804 562.25,-201.304 564.5,-196.304 564.5,-196.304"/>
</g>
<!-- v1&#45;&gt;v10 -->
<g id="edge5" class="edge"><title>v1&#45;&gt;v10</title>
<path fill="none" stroke="black" d="M571.073,-232.216C577.243,-222.961 586.671,-208.646 594.5,-196 631.935,-135.532 622.77,-105.721 675.5,-58 695.832,-39.5994 724.79,-27.3741 746.316,-20.1825"/>
<polygon fill="black" stroke="black" points="751.341,-18.5493 747.281,-22.2346 748.963,-19.322 746.586,-20.0947 746.586,-20.0947 746.586,-20.0947 748.963,-19.322 745.89,-17.9549 751.341,-18.5493 751.341,-18.5493"/>
</g>
<!-- v1&#45;&gt;v11 -->
<g id="edge6" class="edge"><title>v1&#45;&gt;v11</title>
<path fill="none" stroke="black" d="M587.327,-238.032C611.408,-232.659 648.811,-220.738 670.5,-196 698.645,-163.899 704.872,-111.158 706.19,-85.2837"/>
<polygon fill="black" stroke="black" points="706.403,-80.1874 708.443,-85.277 706.299,-82.6852 706.195,-85.183 706.195,-85.183 706.195,-85.183 706.299,-82.6852 703.946,-85.089 706.403,-80.1874 706.403,-80.1874"/>
</g>
<!-- v1&#45;&gt;v13 -->
<g id="edge7" class="edge"><title>v1&#45;&gt;v13</title>
<path fill="none" stroke="black" d="M552.116,-233.234C511.546,-204.518 382.66,-113.29 337.399,-81.2537"/>
<polygon fill="black" stroke="black" points="333.286,-78.3422 338.667,-79.3944 335.326,-79.7866 337.367,-81.231 337.367,-81.231 337.367,-81.231 335.326,-79.7866 336.067,-83.0675 333.286,-78.3422 333.286,-78.3422"/>
</g>
<!-- v3 -->
<g id="v3_Data" class="node"><title>v3</title>
<ellipse fill="none" stroke="black" cx="194.5" cy="-11" rx="21.5" ry="11"/>
<text text-anchor="middle" x="194.5" y="-8.8" font-family="sans-serif" font-size="9.00">Data</text>
</g>
<!-- v2&#45;&gt;v3 -->
<g id="edge8" class="edge"><title>v2&#45;&gt;v3</title>
<path fill="none" stroke="black" d="M215.852,-57.9883C211.785,-49.2286 205.827,-36.3956 201.237,-26.5103"/>
<polygon fill="black" stroke="black" points="199.108,-21.925 203.254,-25.5125 200.161,-24.1925 201.214,-26.4601 201.214,-26.4601 201.214,-26.4601 200.161,-24.1925 199.173,-27.4076 199.108,-21.925 199.108,-21.925"/>
</g>
<!-- v5 -->
<g id="v5_Visitor" class="node"><title>v5</title>
<ellipse fill="none" stroke="black" cx="461.5" cy="-127" rx="32.5" ry="11"/>
<text text-anchor="middle" x="461.5" y="-124.8" font-family="sans-serif" font-size="9.00">Visitor</text>
</g>
<!-- v4&#45;&gt;v5 -->
<g id="edge9" class="edge"><title>v4&#45;&gt;v5</title>
<path fill="none" stroke="black" d="M550.609,-176.448C532.946,-166.844 502.304,-150.185 481.964,-139.126"/>
<polygon fill="black" stroke="black" points="477.535,-136.718 483.003,-137.13 479.732,-137.912 481.928,-139.107 481.928,-139.107 481.928,-139.107 479.732,-137.912 480.853,-141.083 477.535,-136.718 477.535,-136.718"/>
</g>
<!-- v4&#45;&gt;v8 -->
<g id="edge10" class="edge"><title>v4&#45;&gt;v8</title>
<path fill="none" stroke="black" d="M564.441,-173.861C564.259,-152.439 563.516,-101.01 560.5,-58 559.783,-47.7803 558.54,-36.327 557.472,-27.4053"/>
<polygon fill="black" stroke="black" points="556.837,-22.2112 559.677,-26.9008 557.14,-24.6927 557.444,-27.1742 557.444,-27.1742 557.444,-27.1742 557.14,-24.6927 555.211,-27.4475 556.837,-22.2112 556.837,-22.2112"/>
</g>
<!-- v4&#45;&gt;v9 -->
<g id="edge11" class="edge"><title>v4&#45;&gt;v9</title>
<path fill="none" stroke="black" d="M558.043,-174.508C538.604,-145.93 480.543,-60.5757 457.289,-26.3907"/>
<polygon fill="black" stroke="black" points="454.374,-22.1054 459.047,-24.9741 455.78,-24.1725 457.186,-26.2396 457.186,-26.2396 457.186,-26.2396 455.78,-24.1725 455.326,-27.5051 454.374,-22.1054 454.374,-22.1054"/>
</g>
<!-- v5&#45;&gt;v6 -->
<g id="edge12" class="edge"><title>v5&#45;&gt;v6</title>
<path fill="none" stroke="black" d="M449.456,-116.5C437.655,-107.192 419.594,-92.9475 406.573,-82.6771"/>
<polygon fill="black" stroke="black" points="402.366,-79.3593 407.686,-80.6892 404.329,-80.9076 406.292,-82.4558 406.292,-82.4558 406.292,-82.4558 404.329,-80.9076 404.899,-84.2224 402.366,-79.3593 402.366,-79.3593"/>
</g>
<!-- v7 -->
<g id="v7_Data" class="node"><title>v7</title>
<ellipse fill="none" stroke="black" cx="360.5" cy="-11" rx="21.5" ry="11"/>
<text text-anchor="middle" x="360.5" y="-8.8" font-family="sans-serif" font-size="9.00">Data</text>
</g>
<!-- v6&#45;&gt;v7 -->
<g id="edge13" class="edge"><title>v6&#45;&gt;v7</title>
<path fill="none" stroke="black" d="M385.137,-57.9883C380.444,-49.2286 373.569,-36.3956 368.273,-26.5103"/>
<polygon fill="black" stroke="black" points="365.817,-21.925 370.161,-25.2699 366.998,-24.1287 368.178,-26.3324 368.178,-26.3324 368.178,-26.3324 366.998,-24.1287 366.195,-27.3949 365.817,-21.925 365.817,-21.925"/>
</g>
<!-- v11&#45;&gt;v12 -->
<g id="edge14" class="edge"><title>v11&#45;&gt;v12</title>
<path fill="none" stroke="black" d="M700.229,-58.2455C694.569,-49.4409 686.168,-36.373 679.739,-26.3724"/>
<polygon fill="black" stroke="black" points="676.941,-22.0198 681.538,-25.0089 678.293,-24.1227 679.645,-26.2257 679.645,-26.2257 679.645,-26.2257 678.293,-24.1227 677.752,-27.4424 676.941,-22.0198 676.941,-22.0198"/>
</g>
<!-- v13&#45;&gt;v14 -->
<g id="edge15" class="edge"><title>v13&#45;&gt;v14</title>
<path fill="none" stroke="black" d="M314.036,-58.5004C307.085,-49.6537 296.63,-36.3472 288.682,-26.2321"/>
<polygon fill="black" stroke="black" points="285.447,-22.1148 290.306,-24.6563 286.992,-24.0806 288.537,-26.0464 288.537,-26.0464 288.537,-26.0464 286.992,-24.0806 286.767,-27.4366 285.447,-22.1148 285.447,-22.1148"/>
</g>
<!-- v13&#45;&gt;v15 -->
<g id="edge16" class="edge"><title>v13&#45;&gt;v15</title>
<path fill="none" stroke="black" d="M304.159,-62.2705C299.717,-60.8404 294.941,-59.3347 290.5,-58 242.38,-43.5376 185.904,-28.1278 153.063,-19.3211"/>
<polygon fill="black" stroke="black" points="148,-17.9656 153.412,-17.0854 150.415,-18.6122 152.83,-19.2588 152.83,-19.2588 152.83,-19.2588 150.415,-18.6122 152.248,-21.4323 148,-17.9656 148,-17.9656"/>
</g>
<!-- v13&#45;&gt;v16 -->
<g id="edge17" class="edge"><title>v13&#45;&gt;v16</title>
<path fill="none" stroke="black" d="M304.565,-62.0762C300.032,-60.6174 295.11,-59.1466 290.5,-58 201.579,-35.8832 177.473,-39.3461 87.5,-22 83.2346,-21.1777 78.7624,-20.2858 74.3353,-19.3848"/>
<polygon fill="black" stroke="black" points="69.1741,-18.3266 74.5242,-17.1268 71.6232,-18.8288 74.0722,-19.331 74.0722,-19.331 74.0722,-19.331 71.6232,-18.8288 73.6203,-21.5351 69.1741,-18.3266 69.1741,-18.3266"/>
</g>
</g>
</svg>
