<?xml version="1.0" encoding="UTF-8" standalone="no"?>
<?xml-stylesheet href="style.css" type="text/css"?>
<!DOCTYPE svg PUBLIC "-//W3C//DTD SVG 1.1//EN"
 "http://www.w3.org/Graphics/SVG/1.1/DTD/svg11.dtd">
<!-- Generated by graphviz version 2.38.0 (20140413.2041)
 -->
<!-- Title: 18.svg Pages: 1 -->
<svg width="831pt" height="374pt"
 viewBox="0.00 0.00 831.00 374.00" xmlns="http://www.w3.org/2000/svg" xmlns:xlink="http://www.w3.org/1999/xlink">
<g id="graph0" class="graph" transform="scale(1 1) rotate(0) translate(4 370)">
<title>18.svg</title>
<polygon fill="white" stroke="none" points="-4,4 -4,-370 827,-370 827,4 -4,4"/>
<!-- r0 -->
<g id="node1" class="node"><title>r0</title>
<polygon fill="none" stroke="black" stroke-dasharray="5,2" points="294,-366 271,-366 271,-348 294,-348 294,-366"/>
<text text-anchor="middle" x="282.5" y="-354.8" font-family="serif" font-size="9.00">0</text>
</g>
<!-- v0 -->
<g id="v0_Building" class="node"><title>v0</title>
<ellipse fill="none" stroke="black" cx="282.5" cy="-301" rx="36" ry="11"/>
<text text-anchor="middle" x="282.5" y="-298.8" font-family="sans-serif" font-size="9.00">Building</text>
</g>
<!-- r0&#45;&gt;v0 -->
<g id="edge1" class="edge"><title>r0&#45;&gt;v0</title>
<path fill="none" stroke="black" d="M282.5,-347.562C282.5,-339.453 282.5,-327.014 282.5,-317.181"/>
<polygon fill="black" stroke="black" points="282.5,-312.03 284.75,-317.03 282.5,-314.53 282.5,-317.03 282.5,-317.03 282.5,-317.03 282.5,-314.53 280.25,-317.03 282.5,-312.03 282.5,-312.03"/>
</g>
<!-- oalarm -->
<g id="node2" class="node"><title>oalarm</title>
<text text-anchor="middle" x="61.5" y="-354.8" font-family="serif" font-size="9.00">alarm</text>
</g>
<!-- e1 -->
<g id="node12" class="node"><title>e1</title>
</g>
<!-- oalarm&#45;&gt;e1 -->
<g id="edge19" class="edge"><title>oalarm&#45;&gt;e1</title>
<path fill="none" stroke="green" d="M61.8559,-347.885C63.6373,-307.27 71.5,-128 71.5,-128"/>
</g>
<!-- ocntrlRm -->
<g id="node3" class="node"><title>ocntrlRm</title>
<text text-anchor="middle" x="795.5" y="-354.8" font-family="serif" font-size="9.00">cntrlRm</text>
</g>
<!-- e2 -->
<g id="node13" class="node"><title>e2</title>
</g>
<!-- ocntrlRm&#45;&gt;e2 -->
<g id="edge22" class="edge"><title>ocntrlRm&#45;&gt;e2</title>
<path fill="none" stroke="green" d="M795.5,-347.885C795.5,-307.27 795.5,-128 795.5,-128"/>
</g>
<!-- oserv -->
<g id="node4" class="node"><title>oserv</title>
<text text-anchor="middle" x="119.5" y="-354.8" font-family="serif" font-size="9.00">serv</text>
</g>
<!-- e3 -->
<g id="node14" class="node"><title>e3</title>
</g>
<!-- oserv&#45;&gt;e3 -->
<g id="edge25" class="edge"><title>oserv&#45;&gt;e3</title>
<path fill="none" stroke="green" d="M119.5,-347.885C119.5,-307.27 119.5,-128 119.5,-128"/>
</g>
<!-- oserverRm -->
<g id="node5" class="node"><title>oserverRm</title>
<text text-anchor="middle" x="465.5" y="-354.8" font-family="serif" font-size="9.00">serverRm</text>
</g>
<!-- e4 -->
<g id="node15" class="node"><title>e4</title>
</g>
<!-- oserverRm&#45;&gt;e4 -->
<g id="edge28" class="edge"><title>oserverRm&#45;&gt;e4</title>
<path fill="none" stroke="green" d="M464.895,-347.885C461.867,-307.27 448.5,-128 448.5,-128"/>
</g>
<!-- osl1 -->
<g id="node6" class="node"><title>osl1</title>
<text text-anchor="middle" x="218.5" y="-354.8" font-family="serif" font-size="9.00">sl1</text>
</g>
<!-- e5 -->
<g id="node16" class="node"><title>e5</title>
</g>
<!-- osl1&#45;&gt;e5 -->
<g id="edge31" class="edge"><title>osl1&#45;&gt;e5</title>
<path fill="none" stroke="green" d="M220.493,-347.885C230.469,-307.27 274.5,-128 274.5,-128"/>
</g>
<!-- osl2 -->
<g id="node7" class="node"><title>osl2</title>
<text text-anchor="middle" x="170.5" y="-354.8" font-family="serif" font-size="9.00">sl2</text>
</g>
<!-- e6 -->
<g id="node17" class="node"><title>e6</title>
</g>
<!-- osl2&#45;&gt;e6 -->
<g id="edge34" class="edge"><title>osl2&#45;&gt;e6</title>
<path fill="none" stroke="green" d="M170.5,-347.885C170.5,-307.27 170.5,-128 170.5,-128"/>
</g>
<!-- osl3 -->
<g id="node8" class="node"><title>osl3</title>
<text text-anchor="middle" x="335.5" y="-354.8" font-family="serif" font-size="9.00">sl3</text>
</g>
<!-- e7 -->
<g id="node18" class="node"><title>e7</title>
</g>
<!-- osl3&#45;&gt;e7 -->
<g id="edge37" class="edge"><title>osl3&#45;&gt;e7</title>
<path fill="none" stroke="green" d="M335.891,-347.885C337.851,-307.27 346.5,-128 346.5,-128"/>
</g>
<!-- ostation -->
<g id="node9" class="node"><title>ostation</title>
<text text-anchor="middle" x="392.5" y="-354.8" font-family="serif" font-size="9.00">station</text>
</g>
<!-- e8 -->
<g id="node19" class="node"><title>e8</title>
</g>
<!-- ostation&#45;&gt;e8 -->
<g id="edge40" class="edge"><title>ostation&#45;&gt;e8</title>
<path fill="none" stroke="green" d="M392.5,-347.885C392.5,-307.27 392.5,-128 392.5,-128"/>
</g>
<!-- otoiletRm -->
<g id="node10" class="node"><title>otoiletRm</title>
<text text-anchor="middle" x="667.5" y="-354.8" font-family="serif" font-size="9.00">toiletRm</text>
</g>
<!-- e9 -->
<g id="node20" class="node"><title>e9</title>
</g>
<!-- otoiletRm&#45;&gt;e9 -->
<g id="edge43" class="edge"><title>otoiletRm&#45;&gt;e9</title>
<path fill="none" stroke="green" d="M667.5,-347.945C667.5,-322.265 667.5,-244 667.5,-244"/>
</g>
<!-- e0 -->
<g id="node11" class="node"><title>e0</title>
</g>
<!-- v4 -->
<g id="v4_Laptop" class="node"><title>v4</title>
<ellipse fill="none" stroke="black" cx="658.5" cy="-69" rx="29" ry="11"/>
<text text-anchor="middle" x="658.5" y="-66.8" font-family="sans-serif" font-size="9.00">Laptop</text>
</g>
<!-- e0&#45;&gt;v4 -->
<g id="edge18" class="edge"><title>e0&#45;&gt;v4</title>
<path fill="none" stroke="green" d="M609.864,-123.364C611.676,-121.345 614.241,-118.492 616.5,-116 627.976,-103.341 641.285,-88.7854 649.793,-79.4967"/>
<polygon fill="green" stroke="green" points="610.573,-127.815 605.361,-123.142 606.296,-122.1 611.508,-126.773 610.573,-127.815"/>
<polyline fill="none" stroke="green" points="607.5,-126 609.836,-123.394 "/>
</g>
<!-- v6 -->
<g id="v6_InstallationBus" class="node"><title>v6</title>
<ellipse fill="none" stroke="black" cx="236.5" cy="-69" rx="61" ry="11"/>
<text text-anchor="middle" x="236.5" y="-66.8" font-family="sans-serif" font-size="9.00">InstallationBus</text>
</g>
<!-- e1&#45;&gt;v6 -->
<g id="edge20" class="edge"><title>e1&#45;&gt;v6</title>
<path fill="none" stroke="green" d="M71.5,-126C71.5,-126 163.348,-94.8273 209.99,-78.9974"/>
</g>
<!-- v13 -->
<g id="v13_FireAlarm" class="node"><title>v13</title>
<ellipse fill="none" stroke="black" cx="100.5" cy="-11" rx="39.5" ry="11"/>
<text text-anchor="middle" x="100.5" y="-8.8" font-family="sans-serif" font-size="9.00">FireAlarm</text>
</g>
<!-- e1&#45;&gt;v13 -->
<g id="edge21" class="edge"><title>e1&#45;&gt;v13</title>
<path fill="none" stroke="green" d="M71.5,-126C71.5,-126 90.8291,-50.0168 97.9264,-22.1167"/>
</g>
<!-- v9 -->
<g id="v9_Hallway" class="node"><title>v9</title>
<ellipse fill="none" stroke="black" cx="753.5" cy="-11" rx="32.5" ry="11"/>
<text text-anchor="middle" x="753.5" y="-8.8" font-family="sans-serif" font-size="9.00">Hallway</text>
</g>
<!-- e2&#45;&gt;v9 -->
<g id="edge23" class="edge"><title>e2&#45;&gt;v9</title>
<path fill="none" stroke="green" d="M795.5,-126C795.5,-126 782.674,-88.0382 771.5,-58 766.895,-45.6221 761.317,-31.49 757.603,-22.1935"/>
</g>
<!-- v14 -->
<g id="v14_Room" class="node"><title>v14</title>
<ellipse fill="none" stroke="black" cx="589.5" cy="-69" rx="21.5" ry="11"/>
<text text-anchor="middle" x="589.5" y="-66.8" font-family="sans-serif" font-size="9.00">Room</text>
</g>
<!-- e2&#45;&gt;v14 -->
<g id="edge24" class="edge"><title>e2&#45;&gt;v14</title>
<path fill="none" stroke="green" d="M795.5,-126C795.5,-126 697.686,-102.575 620.5,-80 616.049,-78.6983 611.269,-77.2045 606.827,-75.7752"/>
</g>
<!-- e3&#45;&gt;v6 -->
<g id="edge26" class="edge"><title>e3&#45;&gt;v6</title>
<path fill="none" stroke="green" d="M119.5,-126C119.5,-126 183.272,-95.4767 216.653,-79.4996"/>
</g>
<!-- v12 -->
<g id="v12_Server" class="node"><title>v12</title>
<ellipse fill="none" stroke="black" cx="186.5" cy="-11" rx="29" ry="11"/>
<text text-anchor="middle" x="186.5" y="-8.8" font-family="sans-serif" font-size="9.00">Server</text>
</g>
<!-- e3&#45;&gt;v12 -->
<g id="edge27" class="edge"><title>e3&#45;&gt;v12</title>
<path fill="none" stroke="green" d="M119.5,-126C119.5,-126 117.914,-84.6304 133.5,-58 142.854,-42.0169 159.785,-28.7969 171.997,-20.6936"/>
</g>
<!-- e4&#45;&gt;v9 -->
<g id="edge29" class="edge"><title>e4&#45;&gt;v9</title>
<path fill="none" stroke="green" d="M448.5,-126C448.5,-126 505.398,-79.9937 558.5,-58 566.373,-54.739 676.496,-29.5071 727.684,-17.8587"/>
</g>
<!-- v10 -->
<g id="v10_Room" class="node"><title>v10</title>
<ellipse fill="none" stroke="black" cx="337.5" cy="-69" rx="21.5" ry="11"/>
<text text-anchor="middle" x="337.5" y="-66.8" font-family="sans-serif" font-size="9.00">Room</text>
</g>
<!-- e4&#45;&gt;v10 -->
<g id="edge30" class="edge"><title>e4&#45;&gt;v10</title>
<path fill="none" stroke="green" d="M448.5,-126C448.5,-126 382.099,-92.5005 352.011,-77.321"/>
</g>
<!-- v5 -->
<g id="v5_SmartLight" class="node"><title>v5</title>
<ellipse fill="none" stroke="black" cx="380.5" cy="-11" rx="43" ry="11"/>
<text text-anchor="middle" x="380.5" y="-8.8" font-family="sans-serif" font-size="9.00">SmartLight</text>
</g>
<!-- e5&#45;&gt;v5 -->
<g id="edge32" class="edge"><title>e5&#45;&gt;v5</title>
<path fill="none" stroke="green" d="M274.5,-126C274.5,-126 339.586,-116.705 367.5,-80 380.451,-62.9705 381.677,-36.7474 381.222,-22.3486"/>
</g>
<!-- e5&#45;&gt;v6 -->
<g id="edge33" class="edge"><title>e5&#45;&gt;v6</title>
<path fill="none" stroke="green" d="M274.5,-126C274.5,-126 254.224,-96.1193 243.294,-80.0117"/>
</g>
<!-- e6&#45;&gt;v6 -->
<g id="edge35" class="edge"><title>e6&#45;&gt;v6</title>
<path fill="none" stroke="green" d="M170.5,-126C170.5,-126 205.717,-96.1193 224.701,-80.0117"/>
</g>
<!-- v11 -->
<g id="v11_SmartLight" class="node"><title>v11</title>
<ellipse fill="none" stroke="black" cx="276.5" cy="-11" rx="43" ry="11"/>
<text text-anchor="middle" x="276.5" y="-8.8" font-family="sans-serif" font-size="9.00">SmartLight</text>
</g>
<!-- e6&#45;&gt;v11 -->
<g id="edge36" class="edge"><title>e6&#45;&gt;v11</title>
<path fill="none" stroke="green" d="M170.5,-126C170.5,-126 149.723,-83.2007 166.5,-58 176.078,-43.6124 219.971,-28.4207 249.332,-19.5967"/>
</g>
<!-- e7&#45;&gt;v6 -->
<g id="edge38" class="edge"><title>e7&#45;&gt;v6</title>
<path fill="none" stroke="green" d="M346.5,-126C346.5,-126 286.543,-95.4767 255.16,-79.4996"/>
</g>
<!-- v15 -->
<g id="v15_SmartLight" class="node"><title>v15</title>
<ellipse fill="none" stroke="black" cx="484.5" cy="-11" rx="43" ry="11"/>
<text text-anchor="middle" x="484.5" y="-8.8" font-family="sans-serif" font-size="9.00">SmartLight</text>
</g>
<!-- e7&#45;&gt;v15 -->
<g id="edge39" class="edge"><title>e7&#45;&gt;v15</title>
<path fill="none" stroke="green" d="M346.5,-126C346.5,-126 439.362,-49.288 472.734,-21.7196"/>
</g>
<!-- e8&#45;&gt;v6 -->
<g id="edge41" class="edge"><title>e8&#45;&gt;v6</title>
<path fill="none" stroke="green" d="M392.5,-126C392.5,-126 306.116,-94.9903 261.911,-79.122"/>
</g>
<!-- v16 -->
<g id="v16_Workstation" class="node"><title>v16</title>
<ellipse fill="none" stroke="black" cx="592.5" cy="-11" rx="47" ry="11"/>
<text text-anchor="middle" x="592.5" y="-8.8" font-family="sans-serif" font-size="9.00">Workstation</text>
</g>
<!-- e8&#45;&gt;v16 -->
<g id="edge42" class="edge"><title>e8&#45;&gt;v16</title>
<path fill="none" stroke="green" d="M392.5,-126C392.5,-126 528.367,-48.5556 576.133,-21.3291"/>
</g>
<!-- v2 -->
<g id="v2_Room" class="node"><title>v2</title>
<ellipse fill="none" stroke="black" cx="612.5" cy="-185" rx="21.5" ry="11"/>
<text text-anchor="middle" x="612.5" y="-182.8" font-family="sans-serif" font-size="9.00">Room</text>
</g>
<!-- e9&#45;&gt;v2 -->
<g id="edge44" class="edge"><title>e9&#45;&gt;v2</title>
<path fill="none" stroke="green" d="M667.5,-242C667.5,-242 637.204,-211.153 621.582,-195.247"/>
</g>
<!-- e9&#45;&gt;v9 -->
<g id="edge45" class="edge"><title>e9&#45;&gt;v9</title>
<path fill="none" stroke="green" d="M667.5,-242C667.5,-242 715.265,-226.755 733.5,-196 767.914,-137.957 759.326,-51.3248 755.128,-22.0655"/>
</g>
<!-- v1 -->
<g id="v1_Floor" class="node"><title>v1</title>
<ellipse fill="none" stroke="black" cx="524.5" cy="-243" rx="25" ry="11"/>
<text text-anchor="middle" x="524.5" y="-240.8" font-family="sans-serif" font-size="9.00">Floor</text>
</g>
<!-- v0&#45;&gt;v1 -->
<g id="edge2" class="edge"><title>v0&#45;&gt;v1</title>
<path fill="none" stroke="black" d="M309.79,-293.685C356.686,-282.833 451.969,-260.784 498.185,-250.089"/>
<polygon fill="black" stroke="black" points="503.304,-248.905 498.94,-252.224 500.868,-249.469 498.433,-250.032 498.433,-250.032 498.433,-250.032 500.868,-249.469 497.925,-247.84 503.304,-248.905 503.304,-248.905"/>
</g>
<!-- v0&#45;&gt;v6 -->
<g id="edge3" class="edge"><title>v0&#45;&gt;v6</title>
<path fill="none" stroke="black" d="M280.464,-289.82C273.161,-253.304 248.252,-128.758 239.539,-85.194"/>
<polygon fill="black" stroke="black" points="238.512,-80.062 241.699,-84.5236 239.003,-82.5135 239.493,-84.9649 239.493,-84.9649 239.493,-84.9649 239.003,-82.5135 237.287,-85.4062 238.512,-80.062 238.512,-80.062"/>
</g>
<!-- v1&#45;&gt;v2 -->
<g id="edge4" class="edge"><title>v1&#45;&gt;v2</title>
<path fill="none" stroke="black" d="M537.865,-233.495C553.248,-223.706 578.547,-207.607 595.364,-196.905"/>
<polygon fill="black" stroke="black" points="599.867,-194.039 596.857,-198.622 597.758,-195.381 595.649,-196.724 595.649,-196.724 595.649,-196.724 597.758,-195.381 594.441,-194.825 599.867,-194.039 599.867,-194.039"/>
</g>
<!-- v1&#45;&gt;v9 -->
<g id="edge5" class="edge"><title>v1&#45;&gt;v9</title>
<path fill="none" stroke="black" d="M545.373,-236.76C569.989,-229.95 611.477,-216.454 642.5,-196 672.674,-176.105 679.368,-168.016 699.5,-138 724.129,-101.279 741.451,-51.4957 749.1,-26.9492"/>
<polygon fill="black" stroke="black" points="750.584,-22.1081 751.27,-27.5481 749.851,-24.4983 749.118,-26.8884 749.118,-26.8884 749.118,-26.8884 749.851,-24.4983 746.967,-26.2287 750.584,-22.1081 750.584,-22.1081"/>
</g>
<!-- v1&#45;&gt;v10 -->
<g id="edge6" class="edge"><title>v1&#45;&gt;v10</title>
<path fill="none" stroke="black" d="M521.819,-231.972C515.032,-208.436 494.991,-149.152 457.5,-116 430.235,-91.8902 388.993,-79.8287 362.657,-74.2504"/>
<polygon fill="black" stroke="black" points="357.597,-73.2196 362.946,-72.0131 360.047,-73.7187 362.496,-74.2178 362.496,-74.2178 362.496,-74.2178 360.047,-73.7187 362.047,-76.4225 357.597,-73.2196 357.597,-73.2196"/>
</g>
<!-- v1&#45;&gt;v14 -->
<g id="edge7" class="edge"><title>v1&#45;&gt;v14</title>
<path fill="none" stroke="black" d="M528.276,-232.009C539.18,-203.153 570.772,-119.556 583.79,-85.1091"/>
<polygon fill="black" stroke="black" points="585.714,-80.0185 586.051,-85.4911 584.83,-82.3571 583.946,-84.6956 583.946,-84.6956 583.946,-84.6956 584.83,-82.3571 581.842,-83.9002 585.714,-80.0185 585.714,-80.0185"/>
</g>
<!-- v3 -->
<g id="v3_Visitor" class="node"><title>v3</title>
<ellipse fill="none" stroke="black" cx="658.5" cy="-127" rx="32.5" ry="11"/>
<text text-anchor="middle" x="658.5" y="-124.8" font-family="sans-serif" font-size="9.00">Visitor</text>
</g>
<!-- v2&#45;&gt;v3 -->
<g id="edge8" class="edge"><title>v2&#45;&gt;v3</title>
<path fill="none" stroke="black" d="M620.303,-174.5C627.66,-165.544 638.771,-152.018 647.116,-141.859"/>
<polygon fill="black" stroke="black" points="650.504,-137.734 649.069,-143.026 648.917,-139.666 647.33,-141.598 647.33,-141.598 647.33,-141.598 648.917,-139.666 645.591,-140.17 650.504,-137.734 650.504,-137.734"/>
</g>
<!-- v2&#45;&gt;v5 -->
<g id="edge9" class="edge"><title>v2&#45;&gt;v5</title>
<path fill="none" stroke="black" d="M600.995,-175.47C563.174,-147.431 442.54,-57.9954 397.594,-24.6728"/>
<polygon fill="black" stroke="black" points="393.485,-21.6272 398.842,-22.7975 395.494,-23.1161 397.502,-24.605 397.502,-24.605 397.502,-24.605 395.494,-23.1161 396.162,-26.4125 393.485,-21.6272 393.485,-21.6272"/>
</g>
<!-- v3&#45;&gt;v4 -->
<g id="edge10" class="edge"><title>v3&#45;&gt;v4</title>
<path fill="none" stroke="black" d="M658.5,-115.988C658.5,-107.494 658.5,-95.1697 658.5,-85.4169"/>
<polygon fill="black" stroke="black" points="658.5,-80.3039 660.75,-85.3038 658.5,-82.8039 658.5,-85.3039 658.5,-85.3039 658.5,-85.3039 658.5,-82.8039 656.25,-85.3039 658.5,-80.3039 658.5,-80.3039"/>
</g>
<!-- v8 -->
<g id="v8_Data" class="node"><title>v8</title>
<ellipse fill="none" stroke="black" cx="679.5" cy="-11" rx="21.5" ry="11"/>
<text text-anchor="middle" x="679.5" y="-8.8" font-family="sans-serif" font-size="9.00">Data</text>
</g>
<!-- v4&#45;&gt;v8 -->
<g id="edge11" class="edge"><title>v4&#45;&gt;v8</title>
<path fill="none" stroke="black" d="M662.254,-57.9883C665.509,-49.3083 670.264,-36.6286 673.957,-26.7806"/>
<polygon fill="black" stroke="black" points="675.778,-21.925 676.129,-27.3967 674.9,-24.2658 674.022,-26.6067 674.022,-26.6067 674.022,-26.6067 674.9,-24.2658 671.916,-25.8166 675.778,-21.925 675.778,-21.925"/>
</g>
<!-- v7 -->
<g id="v7_Data" class="node"><title>v7</title>
<ellipse fill="none" stroke="black" cx="21.5" cy="-11" rx="21.5" ry="11"/>
<text text-anchor="middle" x="21.5" y="-8.8" font-family="sans-serif" font-size="9.00">Data</text>
</g>
<!-- v6&#45;&gt;v7 -->
<g id="edge12" class="edge"><title>v6&#45;&gt;v7</title>
<path fill="none" stroke="black" d="M200.814,-59.9985C163.394,-51.4052 102.987,-36.9575 51.5,-22 48.864,-21.2342 46.1132,-20.3861 43.3931,-19.517"/>
<polygon fill="black" stroke="black" points="38.5615,-17.9433 44.0125,-17.3524 40.9385,-18.7175 43.3156,-19.4918 43.3156,-19.4918 43.3156,-19.4918 40.9385,-18.7175 42.6188,-21.6312 38.5615,-17.9433 38.5615,-17.9433"/>
</g>
<!-- v10&#45;&gt;v11 -->
<g id="edge13" class="edge"><title>v10&#45;&gt;v11</title>
<path fill="none" stroke="black" d="M327.699,-59.0026C317.861,-49.9708 302.582,-35.9443 291.274,-25.5628"/>
<polygon fill="black" stroke="black" points="287.305,-21.919 292.509,-23.6429 289.146,-23.6097 290.988,-25.3004 290.988,-25.3004 290.988,-25.3004 289.146,-23.6097 289.466,-26.9578 287.305,-21.919 287.305,-21.919"/>
</g>
<!-- v10&#45;&gt;v12 -->
<g id="edge14" class="edge"><title>v10&#45;&gt;v12</title>
<path fill="none" stroke="black" d="M321.053,-61.9004C294.498,-52.0521 242.029,-32.5936 211.041,-21.1011"/>
<polygon fill="black" stroke="black" points="206.259,-19.3278 211.729,-18.9568 208.603,-20.1971 210.947,-21.0664 210.947,-21.0664 210.947,-21.0664 208.603,-20.1971 210.164,-23.176 206.259,-19.3278 206.259,-19.3278"/>
</g>
<!-- v10&#45;&gt;v13 -->
<g id="edge15" class="edge"><title>v10&#45;&gt;v13</title>
<path fill="none" stroke="black" d="M320.53,-62.2137C315.996,-60.7538 311.083,-59.2481 306.5,-58 274.624,-49.3197 185.459,-30.0474 135.518,-19.4097"/>
<polygon fill="black" stroke="black" points="130.515,-18.345 135.874,-17.1852 132.96,-18.8655 135.405,-19.3859 135.405,-19.3859 135.405,-19.3859 132.96,-18.8655 134.937,-21.5866 130.515,-18.345 130.515,-18.345"/>
</g>
<!-- v14&#45;&gt;v15 -->
<g id="edge16" class="edge"><title>v14&#45;&gt;v15</title>
<path fill="none" stroke="black" d="M575.339,-60.4476C557.541,-50.9552 526.817,-34.5689 506.084,-23.5116"/>
<polygon fill="black" stroke="black" points="501.562,-21.0996 507.032,-21.4673 503.768,-22.2761 505.973,-23.4526 505.973,-23.4526 505.973,-23.4526 503.768,-22.2761 504.915,-25.4379 501.562,-21.0996 501.562,-21.0996"/>
</g>
<!-- v14&#45;&gt;v16 -->
<g id="edge17" class="edge"><title>v14&#45;&gt;v16</title>
<path fill="none" stroke="black" d="M590.036,-57.9883C590.491,-49.4941 591.152,-37.1697 591.674,-27.4169"/>
<polygon fill="black" stroke="black" points="591.948,-22.3039 593.927,-27.4171 591.814,-24.8003 591.68,-27.2967 591.68,-27.2967 591.68,-27.2967 591.814,-24.8003 589.434,-27.1763 591.948,-22.3039 591.948,-22.3039"/>
</g>
</g>
</svg>
