<?xml version="1.0" encoding="UTF-8" standalone="no"?>
<?xml-stylesheet href="style.css" type="text/css"?>
<!DOCTYPE svg PUBLIC "-//W3C//DTD SVG 1.1//EN"
 "http://www.w3.org/Graphics/SVG/1.1/DTD/svg11.dtd">
<!-- Generated by graphviz version 2.38.0 (20140413.2041)
 -->
<!-- Title: 19.svg Pages: 1 -->
<svg width="875pt" height="374pt"
 viewBox="0.00 0.00 874.79 374.00" xmlns="http://www.w3.org/2000/svg" xmlns:xlink="http://www.w3.org/1999/xlink">
<g id="graph0" class="graph" transform="scale(1 1) rotate(0) translate(4 370)">
<title>19.svg</title>
<polygon fill="white" stroke="none" points="-4,4 -4,-370 870.785,-370 870.785,4 -4,4"/>
<!-- r0 -->
<g id="node1" class="node"><title>r0</title>
<polygon fill="none" stroke="black" stroke-dasharray="5,2" points="554,-366 531,-366 531,-348 554,-348 554,-366"/>
<text text-anchor="middle" x="542.5" y="-354.8" font-family="serif" font-size="9.00">0</text>
</g>
<!-- v0 -->
<g id="v0_Building" class="node"><title>v0</title>
<ellipse fill="none" stroke="black" cx="561.5" cy="-301" rx="36" ry="11"/>
<text text-anchor="middle" x="561.5" y="-298.8" font-family="sans-serif" font-size="9.00">Building</text>
</g>
<!-- r0&#45;&gt;v0 -->
<g id="edge1" class="edge"><title>r0&#45;&gt;v0</title>
<path fill="none" stroke="black" d="M545.469,-347.562C548.348,-339.378 552.78,-326.784 556.254,-316.909"/>
<polygon fill="black" stroke="black" points="557.971,-312.03 558.434,-317.494 557.141,-314.389 556.311,-316.747 556.311,-316.747 556.311,-316.747 557.141,-314.389 554.189,-316 557.971,-312.03 557.971,-312.03"/>
</g>
<!-- oalarm -->
<g id="node2" class="node"><title>oalarm</title>
<text text-anchor="middle" x="156.5" y="-354.8" font-family="serif" font-size="9.00">alarm</text>
</g>
<!-- e1 -->
<g id="node12" class="node"><title>e1</title>
</g>
<!-- oalarm&#45;&gt;e1 -->
<g id="edge19" class="edge"><title>oalarm&#45;&gt;e1</title>
<path fill="none" stroke="green" d="M156.5,-347.885C156.5,-307.27 156.5,-128 156.5,-128"/>
</g>
<!-- ocntrlRm -->
<g id="node3" class="node"><title>ocntrlRm</title>
<text text-anchor="middle" x="819.5" y="-354.8" font-family="serif" font-size="9.00">cntrlRm</text>
</g>
<!-- e2 -->
<g id="node13" class="node"><title>e2</title>
</g>
<!-- ocntrlRm&#45;&gt;e2 -->
<g id="edge22" class="edge"><title>ocntrlRm&#45;&gt;e2</title>
<path fill="none" stroke="green" d="M818.646,-347.885C814.37,-307.27 795.5,-128 795.5,-128"/>
</g>
<!-- oserv -->
<g id="node4" class="node"><title>oserv</title>
<text text-anchor="middle" x="383.5" y="-354.8" font-family="serif" font-size="9.00">serv</text>
</g>
<!-- e3 -->
<g id="node14" class="node"><title>e3</title>
</g>
<!-- oserv&#45;&gt;e3 -->
<g id="edge25" class="edge"><title>oserv&#45;&gt;e3</title>
<path fill="none" stroke="green" d="M383.5,-347.885C383.5,-307.27 383.5,-128 383.5,-128"/>
</g>
<!-- oserverRm -->
<g id="node5" class="node"><title>oserverRm</title>
<text text-anchor="middle" x="602.5" y="-354.8" font-family="serif" font-size="9.00">serverRm</text>
</g>
<!-- e4 -->
<g id="node15" class="node"><title>e4</title>
</g>
<!-- oserverRm&#45;&gt;e4 -->
<g id="edge28" class="edge"><title>oserverRm&#45;&gt;e4</title>
<path fill="none" stroke="green" d="M604.729,-347.945C611.837,-322.265 633.5,-244 633.5,-244"/>
</g>
<!-- osl1 -->
<g id="node6" class="node"><title>osl1</title>
<text text-anchor="middle" x="449.5" y="-354.8" font-family="serif" font-size="9.00">sl1</text>
</g>
<!-- e5 -->
<g id="node16" class="node"><title>e5</title>
</g>
<!-- osl1&#45;&gt;e5 -->
<g id="edge31" class="edge"><title>osl1&#45;&gt;e5</title>
<path fill="none" stroke="green" d="M449.856,-347.885C451.637,-307.27 459.5,-128 459.5,-128"/>
</g>
<!-- osl2 -->
<g id="node7" class="node"><title>osl2</title>
<text text-anchor="middle" x="332.5" y="-354.8" font-family="serif" font-size="9.00">sl2</text>
</g>
<!-- e6 -->
<g id="node17" class="node"><title>e6</title>
</g>
<!-- osl2&#45;&gt;e6 -->
<g id="edge34" class="edge"><title>osl2&#45;&gt;e6</title>
<path fill="none" stroke="green" d="M332.5,-347.885C332.5,-307.27 332.5,-128 332.5,-128"/>
</g>
<!-- osl3 -->
<g id="node8" class="node"><title>osl3</title>
<text text-anchor="middle" x="497.5" y="-354.8" font-family="serif" font-size="9.00">sl3</text>
</g>
<!-- e7 -->
<g id="node18" class="node"><title>e7</title>
</g>
<!-- osl3&#45;&gt;e7 -->
<g id="edge37" class="edge"><title>osl3&#45;&gt;e7</title>
<path fill="none" stroke="green" d="M497.5,-347.885C497.5,-307.27 497.5,-128 497.5,-128"/>
</g>
<!-- ostation -->
<g id="node9" class="node"><title>ostation</title>
<text text-anchor="middle" x="675.5" y="-354.8" font-family="serif" font-size="9.00">station</text>
</g>
<!-- e8 -->
<g id="node19" class="node"><title>e8</title>
</g>
<!-- ostation&#45;&gt;e8 -->
<g id="edge40" class="edge"><title>ostation&#45;&gt;e8</title>
<path fill="none" stroke="green" d="M674.859,-347.885C671.653,-307.27 657.5,-128 657.5,-128"/>
</g>
<!-- otoiletRm -->
<g id="node10" class="node"><title>otoiletRm</title>
<text text-anchor="middle" x="745.5" y="-354.8" font-family="serif" font-size="9.00">toiletRm</text>
</g>
<!-- e9 -->
<g id="node20" class="node"><title>e9</title>
</g>
<!-- otoiletRm&#45;&gt;e9 -->
<g id="edge43" class="edge"><title>otoiletRm&#45;&gt;e9</title>
<path fill="none" stroke="green" d="M745.5,-347.885C745.5,-307.27 745.5,-128 745.5,-128"/>
</g>
<!-- e0 -->
<g id="node11" class="node"><title>e0</title>
</g>
<!-- v4 -->
<g id="v4_Laptop" class="node"><title>v4</title>
<ellipse fill="none" stroke="black" cx="83.5" cy="-69" rx="29" ry="11"/>
<text text-anchor="middle" x="83.5" y="-66.8" font-family="sans-serif" font-size="9.00">Laptop</text>
</g>
<!-- e0&#45;&gt;v4 -->
<g id="edge18" class="edge"><title>e0&#45;&gt;v4</title>
<path fill="none" stroke="green" d="M83.5,-122.167C83.5,-113.586 83.5,-92.5957 83.5,-80.0117"/>
<polygon fill="green" stroke="green" points="87,-125.3 80,-125.3 80.0001,-123.9 87.0001,-123.9 87,-125.3"/>
<polyline fill="none" stroke="green" points="83.5,-126 83.5001,-122.5 "/>
</g>
<!-- v6 -->
<g id="v6_InstallationBus" class="node"><title>v6</title>
<ellipse fill="none" stroke="black" cx="430.5" cy="-69" rx="61" ry="11"/>
<text text-anchor="middle" x="430.5" y="-66.8" font-family="sans-serif" font-size="9.00">InstallationBus</text>
</g>
<!-- e1&#45;&gt;v6 -->
<g id="edge20" class="edge"><title>e1&#45;&gt;v6</title>
<path fill="none" stroke="green" d="M156.5,-126C156.5,-126 317.524,-93.09 392.689,-77.7278"/>
</g>
<!-- v10 -->
<g id="v10_FireAlarm" class="node"><title>v10</title>
<ellipse fill="none" stroke="black" cx="151.5" cy="-11" rx="39.5" ry="11"/>
<text text-anchor="middle" x="151.5" y="-8.8" font-family="sans-serif" font-size="9.00">FireAlarm</text>
</g>
<!-- e1&#45;&gt;v10 -->
<g id="edge21" class="edge"><title>e1&#45;&gt;v10</title>
<path fill="none" stroke="green" d="M156.5,-126C156.5,-126 153.167,-50.0168 151.944,-22.1167"/>
</g>
<!-- v11 -->
<g id="v11_Hallway" class="node"><title>v11</title>
<ellipse fill="none" stroke="black" cx="829.5" cy="-11" rx="32.5" ry="11"/>
<text text-anchor="middle" x="829.5" y="-8.8" font-family="sans-serif" font-size="9.00">Hallway</text>
</g>
<!-- e2&#45;&gt;v11 -->
<g id="edge23" class="edge"><title>e2&#45;&gt;v11</title>
<path fill="none" stroke="green" d="M795.5,-126C795.5,-126 818.162,-50.0168 826.483,-22.1167"/>
</g>
<!-- v14 -->
<g id="v14_Room" class="node"><title>v14</title>
<ellipse fill="none" stroke="black" cx="707.5" cy="-69" rx="21.5" ry="11"/>
<text text-anchor="middle" x="707.5" y="-66.8" font-family="sans-serif" font-size="9.00">Room</text>
</g>
<!-- e2&#45;&gt;v14 -->
<g id="edge24" class="edge"><title>e2&#45;&gt;v14</title>
<path fill="none" stroke="green" d="M795.5,-126C795.5,-126 744.441,-93.5079 720.108,-78.0234"/>
</g>
<!-- e3&#45;&gt;v6 -->
<g id="edge26" class="edge"><title>e3&#45;&gt;v6</title>
<path fill="none" stroke="green" d="M383.5,-126C383.5,-126 408.578,-96.1193 422.097,-80.0117"/>
</g>
<!-- v9 -->
<g id="v9_Server" class="node"><title>v9</title>
<ellipse fill="none" stroke="black" cx="342.5" cy="-11" rx="29" ry="11"/>
<text text-anchor="middle" x="342.5" y="-8.8" font-family="sans-serif" font-size="9.00">Server</text>
</g>
<!-- e3&#45;&gt;v9 -->
<g id="edge27" class="edge"><title>e3&#45;&gt;v9</title>
<path fill="none" stroke="green" d="M383.5,-126C383.5,-126 368.578,-101.383 360.5,-80 352.99,-60.1221 347.374,-35.8514 344.546,-22.3425"/>
</g>
<!-- v2 -->
<g id="v2_Room" class="node"><title>v2</title>
<ellipse fill="none" stroke="black" cx="254.5" cy="-185" rx="21.5" ry="11"/>
<text text-anchor="middle" x="254.5" y="-182.8" font-family="sans-serif" font-size="9.00">Room</text>
</g>
<!-- e4&#45;&gt;v2 -->
<g id="edge29" class="edge"><title>e4&#45;&gt;v2</title>
<path fill="none" stroke="green" d="M633.5,-242C633.5,-242 629.147,-234.761 623.5,-232 561.442,-201.661 345.283,-189.901 276.026,-186.858"/>
</g>
<!-- e4&#45;&gt;v11 -->
<g id="edge30" class="edge"><title>e4&#45;&gt;v11</title>
<path fill="none" stroke="green" d="M633.5,-242C633.5,-242 816.932,-233.837 847.5,-196 890.06,-143.319 850.234,-52.4815 834.918,-22.1741"/>
</g>
<!-- e5&#45;&gt;v6 -->
<g id="edge32" class="edge"><title>e5&#45;&gt;v6</title>
<path fill="none" stroke="green" d="M459.5,-126C459.5,-126 444.026,-96.1193 435.685,-80.0117"/>
</g>
<!-- v13 -->
<g id="v13_SmartLight" class="node"><title>v13</title>
<ellipse fill="none" stroke="black" cx="516.5" cy="-11" rx="43" ry="11"/>
<text text-anchor="middle" x="516.5" y="-8.8" font-family="sans-serif" font-size="9.00">SmartLight</text>
</g>
<!-- e5&#45;&gt;v13 -->
<g id="edge33" class="edge"><title>e5&#45;&gt;v13</title>
<path fill="none" stroke="green" d="M459.5,-126C459.5,-126 487.865,-104.298 500.5,-80 510.348,-61.0624 514.218,-36.0234 515.674,-22.2234"/>
</g>
<!-- v5 -->
<g id="v5_SmartLight" class="node"><title>v5</title>
<ellipse fill="none" stroke="black" cx="252.5" cy="-11" rx="43" ry="11"/>
<text text-anchor="middle" x="252.5" y="-8.8" font-family="sans-serif" font-size="9.00">SmartLight</text>
</g>
<!-- e6&#45;&gt;v5 -->
<g id="edge35" class="edge"><title>e6&#45;&gt;v5</title>
<path fill="none" stroke="green" d="M332.5,-126C332.5,-126 279.178,-50.0168 259.599,-22.1167"/>
</g>
<!-- e6&#45;&gt;v6 -->
<g id="edge36" class="edge"><title>e6&#45;&gt;v6</title>
<path fill="none" stroke="green" d="M332.5,-126C332.5,-126 385.352,-95.7988 413.43,-79.7545"/>
</g>
<!-- e7&#45;&gt;v6 -->
<g id="edge38" class="edge"><title>e7&#45;&gt;v6</title>
<path fill="none" stroke="green" d="M497.5,-126C497.5,-126 461.75,-96.1193 442.478,-80.0117"/>
</g>
<!-- v15 -->
<g id="v15_SmartLight" class="node"><title>v15</title>
<ellipse fill="none" stroke="black" cx="620.5" cy="-11" rx="43" ry="11"/>
<text text-anchor="middle" x="620.5" y="-8.8" font-family="sans-serif" font-size="9.00">SmartLight</text>
</g>
<!-- e7&#45;&gt;v15 -->
<g id="edge39" class="edge"><title>e7&#45;&gt;v15</title>
<path fill="none" stroke="green" d="M497.5,-126C497.5,-126 580.268,-49.288 610.013,-21.7196"/>
</g>
<!-- e8&#45;&gt;v6 -->
<g id="edge41" class="edge"><title>e8&#45;&gt;v6</title>
<path fill="none" stroke="green" d="M657.5,-126C657.5,-126 527.138,-93.8403 463.995,-78.263"/>
</g>
<!-- v16 -->
<g id="v16_Workstation" class="node"><title>v16</title>
<ellipse fill="none" stroke="black" cx="728.5" cy="-11" rx="47" ry="11"/>
<text text-anchor="middle" x="728.5" y="-8.8" font-family="sans-serif" font-size="9.00">Workstation</text>
</g>
<!-- e8&#45;&gt;v16 -->
<g id="edge42" class="edge"><title>e8&#45;&gt;v16</title>
<path fill="none" stroke="green" d="M657.5,-126C657.5,-126 659.845,-84.5949 676.5,-58 685.968,-42.8814 701.869,-29.8692 713.6,-21.5809"/>
</g>
<!-- e9&#45;&gt;v11 -->
<g id="edge44" class="edge"><title>e9&#45;&gt;v11</title>
<path fill="none" stroke="green" d="M745.5,-126C745.5,-126 801.488,-50.0168 822.046,-22.1167"/>
</g>
<!-- v12 -->
<g id="v12_Room" class="node"><title>v12</title>
<ellipse fill="none" stroke="black" cx="607.5" cy="-69" rx="21.5" ry="11"/>
<text text-anchor="middle" x="607.5" y="-66.8" font-family="sans-serif" font-size="9.00">Room</text>
</g>
<!-- e9&#45;&gt;v12 -->
<g id="edge45" class="edge"><title>e9&#45;&gt;v12</title>
<path fill="none" stroke="green" d="M745.5,-126C745.5,-126 660.003,-91.3057 623.6,-76.5335"/>
</g>
<!-- v1 -->
<g id="v1_Floor" class="node"><title>v1</title>
<ellipse fill="none" stroke="black" cx="589.5" cy="-243" rx="25" ry="11"/>
<text text-anchor="middle" x="589.5" y="-240.8" font-family="sans-serif" font-size="9.00">Floor</text>
</g>
<!-- v0&#45;&gt;v1 -->
<g id="edge2" class="edge"><title>v0&#45;&gt;v1</title>
<path fill="none" stroke="black" d="M566.506,-289.988C570.886,-281.229 577.302,-268.396 582.245,-258.51"/>
<polygon fill="black" stroke="black" points="584.537,-253.925 584.314,-259.403 583.419,-256.161 582.301,-258.397 582.301,-258.397 582.301,-258.397 583.419,-256.161 580.289,-257.391 584.537,-253.925 584.537,-253.925"/>
</g>
<!-- v0&#45;&gt;v6 -->
<g id="edge3" class="edge"><title>v0&#45;&gt;v6</title>
<path fill="none" stroke="black" d="M552.877,-290.124C532.133,-265.884 478.982,-200.838 449.5,-138 441.41,-120.758 436.142,-99.3964 433.249,-85.2673"/>
<polygon fill="black" stroke="black" points="432.222,-80.0496 435.396,-84.5208 432.705,-82.5025 433.188,-84.9554 433.188,-84.9554 433.188,-84.9554 432.705,-82.5025 430.98,-85.39 432.222,-80.0496 432.222,-80.0496"/>
</g>
<!-- v1&#45;&gt;v2 -->
<g id="edge4" class="edge"><title>v1&#45;&gt;v2</title>
<path fill="none" stroke="black" d="M566.737,-238.195C506.291,-228.09 342.089,-200.642 279.338,-190.152"/>
<polygon fill="black" stroke="black" points="274.291,-189.308 279.594,-187.914 276.757,-189.721 279.223,-190.133 279.223,-190.133 279.223,-190.133 276.757,-189.721 278.852,-192.352 274.291,-189.308 274.291,-189.308"/>
</g>
<!-- v1&#45;&gt;v11 -->
<g id="edge5" class="edge"><title>v1&#45;&gt;v11</title>
<path fill="none" stroke="black" d="M607.803,-235.428C654.707,-218.244 777.425,-171.029 804.5,-138 831.031,-105.635 832.099,-53.0168 830.779,-27.2273"/>
<polygon fill="black" stroke="black" points="830.469,-22.1482 833.019,-27.002 830.621,-24.6436 830.774,-27.139 830.774,-27.139 830.774,-27.139 830.621,-24.6436 828.528,-27.276 830.469,-22.1482 830.469,-22.1482"/>
</g>
<!-- v1&#45;&gt;v12 -->
<g id="edge6" class="edge"><title>v1&#45;&gt;v12</title>
<path fill="none" stroke="black" d="M590.546,-232.009C593.565,-203.153 602.314,-119.556 605.919,-85.1091"/>
<polygon fill="black" stroke="black" points="606.452,-80.0185 608.169,-85.2255 606.191,-82.5049 605.931,-84.9913 605.931,-84.9913 605.931,-84.9913 606.191,-82.5049 603.693,-84.7571 606.452,-80.0185 606.452,-80.0185"/>
</g>
<!-- v1&#45;&gt;v14 -->
<g id="edge7" class="edge"><title>v1&#45;&gt;v14</title>
<path fill="none" stroke="black" d="M597.032,-232.471C611.189,-214.422 642.504,-173.843 666.5,-138 678.627,-119.886 691.415,-98.2059 699.421,-84.2756"/>
<polygon fill="black" stroke="black" points="701.945,-79.8649 701.415,-85.3221 700.703,-82.0347 699.462,-84.2046 699.462,-84.2046 699.462,-84.2046 700.703,-82.0347 697.509,-83.0871 701.945,-79.8649 701.945,-79.8649"/>
</g>
<!-- v3 -->
<g id="v3_Visitor" class="node"><title>v3</title>
<ellipse fill="none" stroke="black" cx="32.5" cy="-127" rx="32.5" ry="11"/>
<text text-anchor="middle" x="32.5" y="-124.8" font-family="sans-serif" font-size="9.00">Visitor</text>
</g>
<!-- v2&#45;&gt;v3 -->
<g id="edge8" class="edge"><title>v2&#45;&gt;v3</title>
<path fill="none" stroke="black" d="M235.954,-179.322C197.445,-169.608 108.54,-147.181 62.0459,-135.453"/>
<polygon fill="black" stroke="black" points="57.137,-134.215 62.5355,-133.256 59.561,-134.826 61.9851,-135.438 61.9851,-135.438 61.9851,-135.438 59.561,-134.826 61.4347,-137.619 57.137,-134.215 57.137,-134.215"/>
</g>
<!-- v2&#45;&gt;v5 -->
<g id="edge9" class="edge"><title>v2&#45;&gt;v5</title>
<path fill="none" stroke="black" d="M254.381,-173.756C254.044,-144.786 253.083,-62.1364 252.681,-27.5335"/>
<polygon fill="black" stroke="black" points="252.621,-22.4081 254.929,-27.3815 252.65,-24.9079 252.679,-27.4077 252.679,-27.4077 252.679,-27.4077 252.65,-24.9079 250.429,-27.4339 252.621,-22.4081 252.621,-22.4081"/>
</g>
<!-- v2&#45;&gt;v9 -->
<g id="edge10" class="edge"><title>v2&#45;&gt;v9</title>
<path fill="none" stroke="black" d="M259.483,-174.26C274.177,-145.54 317.395,-61.0692 334.954,-26.749"/>
<polygon fill="black" stroke="black" points="337.352,-22.0619 337.078,-27.538 336.213,-24.2875 335.075,-26.5131 335.075,-26.5131 335.075,-26.5131 336.213,-24.2875 333.072,-25.4883 337.352,-22.0619 337.352,-22.0619"/>
</g>
<!-- v2&#45;&gt;v10 -->
<g id="edge11" class="edge"><title>v2&#45;&gt;v10</title>
<path fill="none" stroke="black" d="M248.667,-174.26C231.469,-145.54 180.884,-61.0692 160.332,-26.749"/>
<polygon fill="black" stroke="black" points="157.525,-22.0619 162.025,-25.1956 158.81,-24.2067 160.094,-26.3516 160.094,-26.3516 160.094,-26.3516 158.81,-24.2067 158.164,-27.5075 157.525,-22.0619 157.525,-22.0619"/>
</g>
<!-- v3&#45;&gt;v4 -->
<g id="edge12" class="edge"><title>v3&#45;&gt;v4</title>
<path fill="none" stroke="black" d="M41.3835,-116.246C49.6473,-107.172 62.0348,-93.5697 71.2385,-83.4636"/>
<polygon fill="black" stroke="black" points="74.7183,-79.6427 73.0151,-84.8544 73.0349,-81.491 71.3516,-83.3394 71.3516,-83.3394 71.3516,-83.3394 73.0349,-81.491 69.6881,-81.8244 74.7183,-79.6427 74.7183,-79.6427"/>
</g>
<!-- v8 -->
<g id="v8_Data" class="node"><title>v8</title>
<ellipse fill="none" stroke="black" cx="72.5" cy="-11" rx="21.5" ry="11"/>
<text text-anchor="middle" x="72.5" y="-8.8" font-family="sans-serif" font-size="9.00">Data</text>
</g>
<!-- v4&#45;&gt;v8 -->
<g id="edge13" class="edge"><title>v4&#45;&gt;v8</title>
<path fill="none" stroke="black" d="M81.5334,-57.9883C79.8649,-49.4941 77.444,-37.1697 75.5283,-27.4169"/>
<polygon fill="black" stroke="black" points="74.524,-22.3039 77.6956,-26.7764 75.0059,-24.757 75.4878,-27.2101 75.4878,-27.2101 75.4878,-27.2101 75.0059,-24.757 73.28,-27.6438 74.524,-22.3039 74.524,-22.3039"/>
</g>
<!-- v7 -->
<g id="v7_Data" class="node"><title>v7</title>
<ellipse fill="none" stroke="black" cx="430.5" cy="-11" rx="21.5" ry="11"/>
<text text-anchor="middle" x="430.5" y="-8.8" font-family="sans-serif" font-size="9.00">Data</text>
</g>
<!-- v6&#45;&gt;v7 -->
<g id="edge14" class="edge"><title>v6&#45;&gt;v7</title>
<path fill="none" stroke="black" d="M430.5,-57.9883C430.5,-49.4941 430.5,-37.1697 430.5,-27.4169"/>
<polygon fill="black" stroke="black" points="430.5,-22.3039 432.75,-27.3038 430.5,-24.8039 430.5,-27.3039 430.5,-27.3039 430.5,-27.3039 430.5,-24.8039 428.25,-27.3039 430.5,-22.3039 430.5,-22.3039"/>
</g>
<!-- v12&#45;&gt;v13 -->
<g id="edge15" class="edge"><title>v12&#45;&gt;v13</title>
<path fill="none" stroke="black" d="M594.462,-59.9766C579.149,-50.553 553.599,-34.8303 535.944,-23.9657"/>
<polygon fill="black" stroke="black" points="531.637,-21.315 537.074,-22.0193 533.766,-22.6253 535.895,-23.9356 535.895,-23.9356 535.895,-23.9356 533.766,-22.6253 534.716,-25.8518 531.637,-21.315 531.637,-21.315"/>
</g>
<!-- v14&#45;&gt;v15 -->
<g id="edge16" class="edge"><title>v14&#45;&gt;v15</title>
<path fill="none" stroke="black" d="M695.035,-59.9766C680.605,-50.6881 656.667,-35.28 639.82,-24.4362"/>
<polygon fill="black" stroke="black" points="635.271,-21.5076 640.693,-22.3219 637.373,-22.8607 639.475,-24.2138 639.475,-24.2138 639.475,-24.2138 637.373,-22.8607 638.257,-26.1058 635.271,-21.5076 635.271,-21.5076"/>
</g>
<!-- v14&#45;&gt;v16 -->
<g id="edge17" class="edge"><title>v14&#45;&gt;v16</title>
<path fill="none" stroke="black" d="M711.254,-57.9883C714.469,-49.4154 719.147,-36.9411 722.82,-27.1466"/>
<polygon fill="black" stroke="black" points="724.636,-22.3039 724.987,-27.7756 723.758,-24.6447 722.88,-26.9855 722.88,-26.9855 722.88,-26.9855 723.758,-24.6447 720.774,-26.1955 724.636,-22.3039 724.636,-22.3039"/>
</g>
</g>
</svg>
