<?xml version="1.0" encoding="UTF-8" standalone="no"?>
<?xml-stylesheet href="style.css" type="text/css"?>
<!DOCTYPE svg PUBLIC "-//W3C//DTD SVG 1.1//EN"
 "http://www.w3.org/Graphics/SVG/1.1/DTD/svg11.dtd">
<!-- Generated by graphviz version 2.38.0 (20140413.2041)
 -->
<!-- Title: 3.svg Pages: 1 -->
<svg width="1031pt" height="316pt"
 viewBox="0.00 0.00 1030.50 316.00" xmlns="http://www.w3.org/2000/svg" xmlns:xlink="http://www.w3.org/1999/xlink">
<g id="graph0" class="graph" transform="scale(1 1) rotate(0) translate(4 312)">
<title>3.svg</title>
<polygon fill="white" stroke="none" points="-4,4 -4,-312 1026.5,-312 1026.5,4 -4,4"/>
<!-- r0 -->
<g id="node1" class="node"><title>r0</title>
<polygon fill="none" stroke="black" stroke-dasharray="5,2" points="567,-308 544,-308 544,-290 567,-290 567,-308"/>
<text text-anchor="middle" x="555.5" y="-296.8" font-family="serif" font-size="9.00">0</text>
</g>
<!-- v0 -->
<g id="v0_Building" class="node"><title>v0</title>
<ellipse fill="none" stroke="black" cx="555.5" cy="-243" rx="36" ry="11"/>
<text text-anchor="middle" x="555.5" y="-240.8" font-family="sans-serif" font-size="9.00">Building</text>
</g>
<!-- r0&#45;&gt;v0 -->
<g id="edge1" class="edge"><title>r0&#45;&gt;v0</title>
<path fill="none" stroke="black" d="M555.5,-289.562C555.5,-281.453 555.5,-269.014 555.5,-259.181"/>
<polygon fill="black" stroke="black" points="555.5,-254.03 557.75,-259.03 555.5,-256.53 555.5,-259.03 555.5,-259.03 555.5,-259.03 555.5,-256.53 553.25,-259.03 555.5,-254.03 555.5,-254.03"/>
</g>
<!-- oalarm -->
<g id="node2" class="node"><title>oalarm</title>
<text text-anchor="middle" x="742.5" y="-296.8" font-family="serif" font-size="9.00">alarm</text>
</g>
<!-- e1 -->
<g id="node12" class="node"><title>e1</title>
</g>
<!-- oalarm&#45;&gt;e1 -->
<g id="edge17" class="edge"><title>oalarm&#45;&gt;e1</title>
<path fill="none" stroke="green" d="M742.5,-289.885C742.5,-249.27 742.5,-70 742.5,-70"/>
</g>
<!-- ocntrlRm -->
<g id="node3" class="node"><title>ocntrlRm</title>
<text text-anchor="middle" x="27.5" y="-296.8" font-family="serif" font-size="9.00">cntrlRm</text>
</g>
<!-- e2 -->
<g id="node13" class="node"><title>e2</title>
</g>
<!-- ocntrlRm&#45;&gt;e2 -->
<g id="edge20" class="edge"><title>ocntrlRm&#45;&gt;e2</title>
<path fill="none" stroke="green" d="M27.5,-289.801C27.5,-255.842 27.5,-128 27.5,-128"/>
</g>
<!-- oserv -->
<g id="node4" class="node"><title>oserv</title>
<text text-anchor="middle" x="800.5" y="-296.8" font-family="serif" font-size="9.00">serv</text>
</g>
<!-- e3 -->
<g id="node14" class="node"><title>e3</title>
</g>
<!-- oserv&#45;&gt;e3 -->
<g id="edge23" class="edge"><title>oserv&#45;&gt;e3</title>
<path fill="none" stroke="green" d="M799.824,-289.885C796.439,-249.27 781.5,-70 781.5,-70"/>
</g>
<!-- oserverRm -->
<g id="node5" class="node"><title>oserverRm</title>
<text text-anchor="middle" x="473.5" y="-296.8" font-family="serif" font-size="9.00">serverRm</text>
</g>
<!-- e4 -->
<g id="node15" class="node"><title>e4</title>
</g>
<!-- oserverRm&#45;&gt;e4 -->
<g id="edge26" class="edge"><title>oserverRm&#45;&gt;e4</title>
<path fill="none" stroke="green" d="M473.5,-289.801C473.5,-255.842 473.5,-128 473.5,-128"/>
</g>
<!-- osl1 -->
<g id="node6" class="node"><title>osl1</title>
<text text-anchor="middle" x="680.5" y="-296.8" font-family="serif" font-size="9.00">sl1</text>
</g>
<!-- e5 -->
<g id="node16" class="node"><title>e5</title>
</g>
<!-- osl1&#45;&gt;e5 -->
<g id="edge29" class="edge"><title>osl1&#45;&gt;e5</title>
<path fill="none" stroke="green" d="M676.3,-289.885C655.28,-249.27 562.5,-70 562.5,-70"/>
</g>
<!-- osl2 -->
<g id="node7" class="node"><title>osl2</title>
<text text-anchor="middle" x="914.5" y="-296.8" font-family="serif" font-size="9.00">sl2</text>
</g>
<!-- e6 -->
<g id="node17" class="node"><title>e6</title>
</g>
<!-- osl2&#45;&gt;e6 -->
<g id="edge32" class="edge"><title>osl2&#45;&gt;e6</title>
<path fill="none" stroke="green" d="M914.5,-289.885C914.5,-249.27 914.5,-70 914.5,-70"/>
</g>
<!-- osl3 -->
<g id="node8" class="node"><title>osl3</title>
<text text-anchor="middle" x="373.5" y="-296.8" font-family="serif" font-size="9.00">sl3</text>
</g>
<!-- e7 -->
<g id="node18" class="node"><title>e7</title>
</g>
<!-- osl3&#45;&gt;e7 -->
<g id="edge35" class="edge"><title>osl3&#45;&gt;e7</title>
<path fill="none" stroke="green" d="M373.5,-289.885C373.5,-249.27 373.5,-70 373.5,-70"/>
</g>
<!-- ostation -->
<g id="node9" class="node"><title>ostation</title>
<text text-anchor="middle" x="623.5" y="-296.8" font-family="serif" font-size="9.00">station</text>
</g>
<!-- e8 -->
<g id="node19" class="node"><title>e8</title>
</g>
<!-- ostation&#45;&gt;e8 -->
<g id="edge38" class="edge"><title>ostation&#45;&gt;e8</title>
<path fill="none" stroke="green" d="M620.675,-289.869C616.344,-277.409 607.799,-252.843 600.5,-232 575.275,-159.962 543.5,-70 543.5,-70"/>
</g>
<!-- otoiletRm -->
<g id="node10" class="node"><title>otoiletRm</title>
<text text-anchor="middle" x="155.5" y="-296.8" font-family="serif" font-size="9.00">toiletRm</text>
</g>
<!-- e9 -->
<g id="node20" class="node"><title>e9</title>
</g>
<!-- otoiletRm&#45;&gt;e9 -->
<g id="edge41" class="edge"><title>otoiletRm&#45;&gt;e9</title>
<path fill="none" stroke="green" d="M155.5,-289.945C155.5,-264.265 155.5,-186 155.5,-186"/>
</g>
<!-- e0 -->
<g id="node11" class="node"><title>e0</title>
</g>
<!-- v5 -->
<g id="v5_Laptop" class="node"><title>v5</title>
<ellipse fill="none" stroke="black" cx="256.5" cy="-11" rx="29" ry="11"/>
<text text-anchor="middle" x="256.5" y="-8.8" font-family="sans-serif" font-size="9.00">Laptop</text>
</g>
<!-- e0&#45;&gt;v5 -->
<g id="edge16" class="edge"><title>e0&#45;&gt;v5</title>
<path fill="none" stroke="green" d="M306.734,-65.0778C299.151,-57.0651 277.777,-34.481 265.491,-21.4996"/>
<polygon fill="green" stroke="green" points="311.561,-65.0857 306.477,-69.8975 305.514,-68.8806 310.599,-64.0689 311.561,-65.0857"/>
<polyline fill="none" stroke="green" points="309.5,-68 307.094,-65.4579 "/>
</g>
<!-- v10 -->
<g id="v10_FireAlarm" class="node"><title>v10</title>
<ellipse fill="none" stroke="black" cx="803.5" cy="-11" rx="39.5" ry="11"/>
<text text-anchor="middle" x="803.5" y="-8.8" font-family="sans-serif" font-size="9.00">FireAlarm</text>
</g>
<!-- e1&#45;&gt;v10 -->
<g id="edge18" class="edge"><title>e1&#45;&gt;v10</title>
<path fill="none" stroke="green" d="M742.5,-68C742.5,-68 775.398,-37.7988 792.875,-21.7545"/>
</g>
<!-- v14 -->
<g id="v14_InstallationBus" class="node"><title>v14</title>
<ellipse fill="none" stroke="black" cx="684.5" cy="-11" rx="61" ry="11"/>
<text text-anchor="middle" x="684.5" y="-8.8" font-family="sans-serif" font-size="9.00">InstallationBus</text>
</g>
<!-- e1&#45;&gt;v14 -->
<g id="edge19" class="edge"><title>e1&#45;&gt;v14</title>
<path fill="none" stroke="green" d="M742.5,-68C742.5,-68 711.552,-38.1193 694.869,-22.0117"/>
</g>
<!-- v2 -->
<g id="v2_Hallway" class="node"><title>v2</title>
<ellipse fill="none" stroke="black" cx="79.5" cy="-11" rx="32.5" ry="11"/>
<text text-anchor="middle" x="79.5" y="-8.8" font-family="sans-serif" font-size="9.00">Hallway</text>
</g>
<!-- e2&#45;&gt;v2 -->
<g id="edge21" class="edge"><title>e2&#45;&gt;v2</title>
<path fill="none" stroke="green" d="M27.5,-126C27.5,-126 32.9249,-86.2915 46.5,-58 52.9629,-44.5308 63.3849,-30.8395 70.7861,-21.9382"/>
</g>
<!-- v11 -->
<g id="v11_Room" class="node"><title>v11</title>
<ellipse fill="none" stroke="black" cx="186.5" cy="-69" rx="21.5" ry="11"/>
<text text-anchor="middle" x="186.5" y="-66.8" font-family="sans-serif" font-size="9.00">Room</text>
</g>
<!-- e2&#45;&gt;v11 -->
<g id="edge22" class="edge"><title>e2&#45;&gt;v11</title>
<path fill="none" stroke="green" d="M27.5,-126C27.5,-126 128.467,-90.4395 169.484,-75.993"/>
</g>
<!-- v9 -->
<g id="v9_Server" class="node"><title>v9</title>
<ellipse fill="none" stroke="black" cx="889.5" cy="-11" rx="29" ry="11"/>
<text text-anchor="middle" x="889.5" y="-8.8" font-family="sans-serif" font-size="9.00">Server</text>
</g>
<!-- e3&#45;&gt;v9 -->
<g id="edge24" class="edge"><title>e3&#45;&gt;v9</title>
<path fill="none" stroke="green" d="M781.5,-68C781.5,-68 786.356,-61.6117 791.5,-58 816.265,-40.6123 848.642,-26.901 869.261,-19.1191"/>
</g>
<!-- e3&#45;&gt;v14 -->
<g id="edge25" class="edge"><title>e3&#45;&gt;v14</title>
<path fill="none" stroke="green" d="M781.5,-68C781.5,-68 729.187,-37.7988 701.396,-21.7545"/>
</g>
<!-- e4&#45;&gt;v2 -->
<g id="edge27" class="edge"><title>e4&#45;&gt;v2</title>
<path fill="none" stroke="green" d="M473.5,-126C473.5,-126 220.199,-110.205 155.5,-80 125.981,-66.2192 99.634,-37.1194 87.1486,-21.8408"/>
</g>
<!-- v7 -->
<g id="v7_Room" class="node"><title>v7</title>
<ellipse fill="none" stroke="black" cx="821.5" cy="-69" rx="21.5" ry="11"/>
<text text-anchor="middle" x="821.5" y="-66.8" font-family="sans-serif" font-size="9.00">Room</text>
</g>
<!-- e4&#45;&gt;v7 -->
<g id="edge28" class="edge"><title>e4&#45;&gt;v7</title>
<path fill="none" stroke="green" d="M473.5,-126C473.5,-126 652.545,-112.932 791.5,-80 795.881,-78.9618 800.533,-77.5627 804.833,-76.1405"/>
</g>
<!-- v6 -->
<g id="v6_SmartLight" class="node"><title>v6</title>
<ellipse fill="none" stroke="black" cx="562.5" cy="-11" rx="43" ry="11"/>
<text text-anchor="middle" x="562.5" y="-8.8" font-family="sans-serif" font-size="9.00">SmartLight</text>
</g>
<!-- e5&#45;&gt;v6 -->
<g id="edge30" class="edge"><title>e5&#45;&gt;v6</title>
<path fill="none" stroke="green" d="M562.5,-68C562.5,-68 562.5,-38.1193 562.5,-22.0117"/>
</g>
<!-- e5&#45;&gt;v14 -->
<g id="edge31" class="edge"><title>e5&#45;&gt;v14</title>
<path fill="none" stroke="green" d="M562.5,-68C562.5,-68 570.457,-61.8203 577.5,-58 604.694,-43.2492 637.602,-29.6993 659.681,-21.1838"/>
</g>
<!-- v8 -->
<g id="v8_SmartLight" class="node"><title>v8</title>
<ellipse fill="none" stroke="black" cx="979.5" cy="-11" rx="43" ry="11"/>
<text text-anchor="middle" x="979.5" y="-8.8" font-family="sans-serif" font-size="9.00">SmartLight</text>
</g>
<!-- e6&#45;&gt;v8 -->
<g id="edge33" class="edge"><title>e6&#45;&gt;v8</title>
<path fill="none" stroke="green" d="M914.5,-68C914.5,-68 949.555,-37.7988 968.178,-21.7545"/>
</g>
<!-- e6&#45;&gt;v14 -->
<g id="edge34" class="edge"><title>e6&#45;&gt;v14</title>
<path fill="none" stroke="green" d="M914.5,-68C914.5,-68 782.416,-35.8403 718.437,-20.263"/>
</g>
<!-- v12 -->
<g id="v12_SmartLight" class="node"><title>v12</title>
<ellipse fill="none" stroke="black" cx="346.5" cy="-11" rx="43" ry="11"/>
<text text-anchor="middle" x="346.5" y="-8.8" font-family="sans-serif" font-size="9.00">SmartLight</text>
</g>
<!-- e7&#45;&gt;v12 -->
<g id="edge36" class="edge"><title>e7&#45;&gt;v12</title>
<path fill="none" stroke="green" d="M373.5,-68C373.5,-68 359.093,-38.1193 351.327,-22.0117"/>
</g>
<!-- e7&#45;&gt;v14 -->
<g id="edge37" class="edge"><title>e7&#45;&gt;v14</title>
<path fill="none" stroke="green" d="M373.5,-68C373.5,-68 560.012,-34.4158 644.161,-19.2636"/>
</g>
<!-- v13 -->
<g id="v13_Workstation" class="node"><title>v13</title>
<ellipse fill="none" stroke="black" cx="454.5" cy="-11" rx="47" ry="11"/>
<text text-anchor="middle" x="454.5" y="-8.8" font-family="sans-serif" font-size="9.00">Workstation</text>
</g>
<!-- e8&#45;&gt;v13 -->
<g id="edge39" class="edge"><title>e8&#45;&gt;v13</title>
<path fill="none" stroke="green" d="M543.5,-68C543.5,-68 494.99,-37.4767 469.598,-21.4996"/>
</g>
<!-- e8&#45;&gt;v14 -->
<g id="edge40" class="edge"><title>e8&#45;&gt;v14</title>
<path fill="none" stroke="green" d="M543.5,-68C543.5,-68 547.52,-61.31 552.5,-58 581.401,-38.7888 619.202,-26.6869 646.942,-19.7463"/>
</g>
<!-- e9&#45;&gt;v2 -->
<g id="edge42" class="edge"><title>e9&#45;&gt;v2</title>
<path fill="none" stroke="green" d="M155.5,-184C155.5,-184 103.11,-170.671 84.5,-138 62.8286,-99.9549 71.967,-44.451 77.0021,-21.9885"/>
</g>
<!-- v3 -->
<g id="v3_Room" class="node"><title>v3</title>
<ellipse fill="none" stroke="black" cx="258.5" cy="-127" rx="21.5" ry="11"/>
<text text-anchor="middle" x="258.5" y="-124.8" font-family="sans-serif" font-size="9.00">Room</text>
</g>
<!-- e9&#45;&gt;v3 -->
<g id="edge43" class="edge"><title>e9&#45;&gt;v3</title>
<path fill="none" stroke="green" d="M155.5,-184C155.5,-184 216.494,-150.838 244.609,-135.552"/>
</g>
<!-- v1 -->
<g id="v1_Floor" class="node"><title>v1</title>
<ellipse fill="none" stroke="black" cx="258.5" cy="-185" rx="25" ry="11"/>
<text text-anchor="middle" x="258.5" y="-182.8" font-family="sans-serif" font-size="9.00">Floor</text>
</g>
<!-- v0&#45;&gt;v1 -->
<g id="edge2" class="edge"><title>v0&#45;&gt;v1</title>
<path fill="none" stroke="black" d="M526.21,-236.477C468.792,-225.651 342.17,-201.776 286.123,-191.208"/>
<polygon fill="black" stroke="black" points="280.924,-190.228 286.254,-188.943 283.38,-190.691 285.837,-191.155 285.837,-191.155 285.837,-191.155 283.38,-190.691 285.42,-193.366 280.924,-190.228 280.924,-190.228"/>
</g>
<!-- v0&#45;&gt;v14 -->
<g id="edge3" class="edge"><title>v0&#45;&gt;v14</title>
<path fill="none" stroke="black" d="M561.043,-232.117C581.382,-195.854 651.982,-69.9787 676.24,-26.7276"/>
<polygon fill="black" stroke="black" points="678.832,-22.105 678.349,-27.5666 677.609,-24.2855 676.386,-26.4659 676.386,-26.4659 676.386,-26.4659 677.609,-24.2855 674.424,-25.3653 678.832,-22.105 678.832,-22.105"/>
</g>
<!-- v1&#45;&gt;v2 -->
<g id="edge4" class="edge"><title>v1&#45;&gt;v2</title>
<path fill="none" stroke="black" d="M244.017,-175.835C216.984,-160.059 158.093,-123.117 119.5,-80 104.892,-63.6791 92.925,-41.2128 86.0005,-26.6482"/>
<polygon fill="black" stroke="black" points="83.8489,-22.0321 88.0006,-25.6135 84.9051,-24.2981 85.9613,-26.564 85.9613,-26.564 85.9613,-26.564 84.9051,-24.2981 83.9219,-27.5146 83.8489,-22.0321 83.8489,-22.0321"/>
</g>
<!-- v1&#45;&gt;v3 -->
<g id="edge5" class="edge"><title>v1&#45;&gt;v3</title>
<path fill="none" stroke="black" d="M258.5,-173.988C258.5,-165.494 258.5,-153.17 258.5,-143.417"/>
<polygon fill="black" stroke="black" points="258.5,-138.304 260.75,-143.304 258.5,-140.804 258.5,-143.304 258.5,-143.304 258.5,-143.304 258.5,-140.804 256.25,-143.304 258.5,-138.304 258.5,-138.304"/>
</g>
<!-- v1&#45;&gt;v7 -->
<g id="edge6" class="edge"><title>v1&#45;&gt;v7</title>
<path fill="none" stroke="black" d="M281.597,-180.587C356.148,-169.338 596.835,-131.207 791.5,-80 794.221,-79.2842 797.055,-78.4542 799.848,-77.5845"/>
<polygon fill="black" stroke="black" points="804.796,-75.992 800.726,-79.6656 802.416,-76.7579 800.036,-77.5237 800.036,-77.5237 800.036,-77.5237 802.416,-76.7579 799.347,-75.3819 804.796,-75.992 804.796,-75.992"/>
</g>
<!-- v1&#45;&gt;v11 -->
<g id="edge7" class="edge"><title>v1&#45;&gt;v11</title>
<path fill="none" stroke="black" d="M251.703,-174.225C245.323,-164.977 235.579,-150.666 227.5,-138 215.778,-119.622 202.894,-98.0038 194.756,-84.1597"/>
<polygon fill="black" stroke="black" points="192.187,-79.7787 196.657,-82.9534 193.451,-81.9352 194.716,-84.0917 194.716,-84.0917 194.716,-84.0917 193.451,-81.9352 192.775,-85.23 192.187,-79.7787 192.187,-79.7787"/>
</g>
<!-- v4 -->
<g id="v4_Visitor" class="node"><title>v4</title>
<ellipse fill="none" stroke="black" cx="258.5" cy="-69" rx="32.5" ry="11"/>
<text text-anchor="middle" x="258.5" y="-66.8" font-family="sans-serif" font-size="9.00">Visitor</text>
</g>
<!-- v3&#45;&gt;v4 -->
<g id="edge8" class="edge"><title>v3&#45;&gt;v4</title>
<path fill="none" stroke="black" d="M258.5,-115.988C258.5,-107.494 258.5,-95.1697 258.5,-85.4169"/>
<polygon fill="black" stroke="black" points="258.5,-80.3039 260.75,-85.3038 258.5,-82.8039 258.5,-85.3039 258.5,-85.3039 258.5,-85.3039 258.5,-82.8039 256.25,-85.3039 258.5,-80.3039 258.5,-80.3039"/>
</g>
<!-- v3&#45;&gt;v6 -->
<g id="edge9" class="edge"><title>v3&#45;&gt;v6</title>
<path fill="none" stroke="black" d="M269.123,-117.297C287.317,-102.828 326.108,-73.8502 363.5,-58 378.365,-51.6989 472.798,-31.0815 526.063,-19.7069"/>
<polygon fill="black" stroke="black" points="531.085,-18.6358 526.664,-21.8794 528.64,-19.1573 526.195,-19.6788 526.195,-19.6788 526.195,-19.6788 528.64,-19.1573 525.725,-17.4783 531.085,-18.6358 531.085,-18.6358"/>
</g>
<!-- v4&#45;&gt;v5 -->
<g id="edge10" class="edge"><title>v4&#45;&gt;v5</title>
<path fill="none" stroke="black" d="M258.142,-57.9883C257.839,-49.4941 257.399,-37.1697 257.051,-27.4169"/>
<polygon fill="black" stroke="black" points="256.868,-22.3039 259.295,-27.2203 256.957,-24.8023 257.047,-27.3007 257.047,-27.3007 257.047,-27.3007 256.957,-24.8023 254.798,-27.381 256.868,-22.3039 256.868,-22.3039"/>
</g>
<!-- v7&#45;&gt;v8 -->
<g id="edge11" class="edge"><title>v7&#45;&gt;v8</title>
<path fill="none" stroke="black" d="M838.409,-62.007C865.31,-52.4723 918.162,-33.7402 950.99,-22.1047"/>
<polygon fill="black" stroke="black" points="956.08,-20.3007 952.119,-24.0918 953.724,-21.1359 951.368,-21.9711 951.368,-21.9711 951.368,-21.9711 953.724,-21.1359 950.616,-19.8503 956.08,-20.3007 956.08,-20.3007"/>
</g>
<!-- v7&#45;&gt;v9 -->
<g id="edge12" class="edge"><title>v7&#45;&gt;v9</title>
<path fill="none" stroke="black" d="M832.125,-59.25C843.401,-49.9638 861.326,-35.2025 874.139,-24.6504"/>
<polygon fill="black" stroke="black" points="878.271,-21.2473 875.842,-26.1627 876.341,-22.8365 874.412,-24.4258 874.412,-24.4258 874.412,-24.4258 876.341,-22.8365 872.981,-22.689 878.271,-21.2473 878.271,-21.2473"/>
</g>
<!-- v7&#45;&gt;v10 -->
<g id="edge13" class="edge"><title>v7&#45;&gt;v10</title>
<path fill="none" stroke="black" d="M818.282,-57.9883C815.526,-49.4154 811.517,-36.9411 808.369,-27.1466"/>
<polygon fill="black" stroke="black" points="806.812,-22.3039 810.484,-26.3755 807.577,-24.6839 808.342,-27.064 808.342,-27.064 808.342,-27.064 807.577,-24.6839 806.2,-27.7526 806.812,-22.3039 806.812,-22.3039"/>
</g>
<!-- v11&#45;&gt;v12 -->
<g id="edge14" class="edge"><title>v11&#45;&gt;v12</title>
<path fill="none" stroke="black" d="M203.32,-62.1129C230.621,-52.5577 284.873,-33.5696 318.195,-21.9067"/>
<polygon fill="black" stroke="black" points="322.954,-20.2411 318.978,-24.0166 320.594,-21.067 318.235,-21.8929 318.235,-21.8929 318.235,-21.8929 320.594,-21.067 317.491,-19.7693 322.954,-20.2411 322.954,-20.2411"/>
</g>
<!-- v11&#45;&gt;v13 -->
<g id="edge15" class="edge"><title>v11&#45;&gt;v13</title>
<path fill="none" stroke="black" d="M203.202,-62.0026C207.502,-60.5776 212.145,-59.1414 216.5,-58 235.358,-53.0574 351.6,-31.1713 414.375,-19.4582"/>
<polygon fill="black" stroke="black" points="419.539,-18.4951 415.036,-21.6237 417.081,-18.9535 414.624,-19.4119 414.624,-19.4119 414.624,-19.4119 417.081,-18.9535 414.211,-17.2 419.539,-18.4951 419.539,-18.4951"/>
</g>
</g>
</svg>
