<?xml version="1.0" encoding="UTF-8" standalone="no"?>
<?xml-stylesheet href="style.css" type="text/css"?>
<!DOCTYPE svg PUBLIC "-//W3C//DTD SVG 1.1//EN"
 "http://www.w3.org/Graphics/SVG/1.1/DTD/svg11.dtd">
<!-- Generated by graphviz version 2.38.0 (20140413.2041)
 -->
<!-- Title: 4.svg Pages: 1 -->
<svg width="942pt" height="316pt"
 viewBox="0.00 0.00 941.50 316.00" xmlns="http://www.w3.org/2000/svg" xmlns:xlink="http://www.w3.org/1999/xlink">
<g id="graph0" class="graph" transform="scale(1 1) rotate(0) translate(4 312)">
<title>4.svg</title>
<polygon fill="white" stroke="none" points="-4,4 -4,-312 937.5,-312 937.5,4 -4,4"/>
<!-- r0 -->
<g id="node1" class="node"><title>r0</title>
<polygon fill="none" stroke="black" stroke-dasharray="5,2" points="406.5,-308 383.5,-308 383.5,-290 406.5,-290 406.5,-308"/>
<text text-anchor="middle" x="395" y="-296.8" font-family="serif" font-size="9.00">0</text>
</g>
<!-- v0 -->
<g id="v0_Building" class="node"><title>v0</title>
<ellipse fill="none" stroke="black" cx="394" cy="-243" rx="36" ry="11"/>
<text text-anchor="middle" x="394" y="-240.8" font-family="sans-serif" font-size="9.00">Building</text>
</g>
<!-- r0&#45;&gt;v0 -->
<g id="edge1" class="edge"><title>r0&#45;&gt;v0</title>
<path fill="none" stroke="black" d="M394.844,-289.562C394.694,-281.453 394.463,-269.014 394.281,-259.181"/>
<polygon fill="black" stroke="black" points="394.186,-254.03 396.528,-258.988 394.232,-256.53 394.278,-259.03 394.278,-259.03 394.278,-259.03 394.232,-256.53 392.029,-259.071 394.186,-254.03 394.186,-254.03"/>
</g>
<!-- oalarm -->
<g id="node2" class="node"><title>oalarm</title>
<text text-anchor="middle" x="216" y="-296.8" font-family="serif" font-size="9.00">alarm</text>
</g>
<!-- e1 -->
<g id="node12" class="node"><title>e1</title>
</g>
<!-- oalarm&#45;&gt;e1 -->
<g id="edge17" class="edge"><title>oalarm&#45;&gt;e1</title>
<path fill="none" stroke="green" d="M216.107,-289.885C216.641,-249.27 219,-70 219,-70"/>
</g>
<!-- ocntrlRm -->
<g id="node3" class="node"><title>ocntrlRm</title>
<text text-anchor="middle" x="760" y="-296.8" font-family="serif" font-size="9.00">cntrlRm</text>
</g>
<!-- e2 -->
<g id="node13" class="node"><title>e2</title>
</g>
<!-- ocntrlRm&#45;&gt;e2 -->
<g id="edge20" class="edge"><title>ocntrlRm&#45;&gt;e2</title>
<path fill="none" stroke="green" d="M760,-289.945C760,-264.265 760,-186 760,-186"/>
</g>
<!-- oserv -->
<g id="node4" class="node"><title>oserv</title>
<text text-anchor="middle" x="158" y="-296.8" font-family="serif" font-size="9.00">serv</text>
</g>
<!-- e3 -->
<g id="node14" class="node"><title>e3</title>
</g>
<!-- oserv&#45;&gt;e3 -->
<g id="edge23" class="edge"><title>oserv&#45;&gt;e3</title>
<path fill="none" stroke="green" d="M159.281,-289.885C165.694,-249.27 194,-70 194,-70"/>
</g>
<!-- oserverRm -->
<g id="node5" class="node"><title>oserverRm</title>
<text text-anchor="middle" x="335" y="-296.8" font-family="serif" font-size="9.00">serverRm</text>
</g>
<!-- e4 -->
<g id="node15" class="node"><title>e4</title>
</g>
<!-- oserverRm&#45;&gt;e4 -->
<g id="edge26" class="edge"><title>oserverRm&#45;&gt;e4</title>
<path fill="none" stroke="green" d="M334.759,-289.801C333.76,-255.842 330,-128 330,-128"/>
</g>
<!-- osl1 -->
<g id="node6" class="node"><title>osl1</title>
<text text-anchor="middle" x="271" y="-296.8" font-family="serif" font-size="9.00">sl1</text>
</g>
<!-- e5 -->
<g id="node16" class="node"><title>e5</title>
</g>
<!-- osl1&#45;&gt;e5 -->
<g id="edge29" class="edge"><title>osl1&#45;&gt;e5</title>
<path fill="none" stroke="green" d="M271.102,-289.808C271.843,-262.343 277.555,-172.107 320,-116 344.05,-84.2081 397,-70 397,-70"/>
</g>
<!-- osl2 -->
<g id="node7" class="node"><title>osl2</title>
<text text-anchor="middle" x="75" y="-296.8" font-family="serif" font-size="9.00">sl2</text>
</g>
<!-- e6 -->
<g id="node17" class="node"><title>e6</title>
</g>
<!-- osl2&#45;&gt;e6 -->
<g id="edge32" class="edge"><title>osl2&#45;&gt;e6</title>
<path fill="none" stroke="green" d="M75,-289.885C75,-249.27 75,-70 75,-70"/>
</g>
<!-- osl3 -->
<g id="node8" class="node"><title>osl3</title>
<text text-anchor="middle" x="514" y="-296.8" font-family="serif" font-size="9.00">sl3</text>
</g>
<!-- e7 -->
<g id="node18" class="node"><title>e7</title>
</g>
<!-- osl3&#45;&gt;e7 -->
<g id="edge35" class="edge"><title>osl3&#45;&gt;e7</title>
<path fill="none" stroke="green" d="M512.719,-289.885C506.306,-249.27 478,-70 478,-70"/>
</g>
<!-- ostation -->
<g id="node9" class="node"><title>ostation</title>
<text text-anchor="middle" x="457" y="-296.8" font-family="serif" font-size="9.00">station</text>
</g>
<!-- e8 -->
<g id="node19" class="node"><title>e8</title>
</g>
<!-- ostation&#45;&gt;e8 -->
<g id="edge38" class="edge"><title>ostation&#45;&gt;e8</title>
<path fill="none" stroke="green" d="M457.036,-289.885C457.214,-249.27 458,-70 458,-70"/>
</g>
<!-- otoiletRm -->
<g id="node10" class="node"><title>otoiletRm</title>
<text text-anchor="middle" x="677" y="-296.8" font-family="serif" font-size="9.00">toiletRm</text>
</g>
<!-- e9 -->
<g id="node20" class="node"><title>e9</title>
</g>
<!-- otoiletRm&#45;&gt;e9 -->
<g id="edge41" class="edge"><title>otoiletRm&#45;&gt;e9</title>
<path fill="none" stroke="green" d="M677,-289.801C677,-255.842 677,-128 677,-128"/>
</g>
<!-- e0 -->
<g id="node11" class="node"><title>e0</title>
</g>
<!-- v5 -->
<g id="v5_Laptop" class="node"><title>v5</title>
<ellipse fill="none" stroke="black" cx="850" cy="-11" rx="29" ry="11"/>
<text text-anchor="middle" x="850" y="-8.8" font-family="sans-serif" font-size="9.00">Laptop</text>
</g>
<!-- e0&#45;&gt;v5 -->
<g id="edge16" class="edge"><title>e0&#45;&gt;v5</title>
<path fill="none" stroke="green" d="M850,-64.1674C850,-55.5862 850,-34.5957 850,-22.0117"/>
<polygon fill="green" stroke="green" points="853.5,-67.3001 846.5,-67.2999 846.5,-65.8999 853.5,-65.9001 853.5,-67.3001"/>
<polyline fill="none" stroke="green" points="850,-68 850,-64.5 "/>
</g>
<!-- v13 -->
<g id="v13_FireAlarm" class="node"><title>v13</title>
<ellipse fill="none" stroke="black" cx="219" cy="-11" rx="39.5" ry="11"/>
<text text-anchor="middle" x="219" y="-8.8" font-family="sans-serif" font-size="9.00">FireAlarm</text>
</g>
<!-- e1&#45;&gt;v13 -->
<g id="edge18" class="edge"><title>e1&#45;&gt;v13</title>
<path fill="none" stroke="green" d="M219,-68C219,-68 219,-38.1193 219,-22.0117"/>
</g>
<!-- v14 -->
<g id="v14_InstallationBus" class="node"><title>v14</title>
<ellipse fill="none" stroke="black" cx="338" cy="-11" rx="61" ry="11"/>
<text text-anchor="middle" x="338" y="-8.8" font-family="sans-serif" font-size="9.00">InstallationBus</text>
</g>
<!-- e1&#45;&gt;v14 -->
<g id="edge19" class="edge"><title>e1&#45;&gt;v14</title>
<path fill="none" stroke="green" d="M219,-68C219,-68 283.862,-37.4767 317.813,-21.4996"/>
</g>
<!-- v2 -->
<g id="v2_Hallway" class="node"><title>v2</title>
<ellipse fill="none" stroke="black" cx="770" cy="-11" rx="32.5" ry="11"/>
<text text-anchor="middle" x="770" y="-8.8" font-family="sans-serif" font-size="9.00">Hallway</text>
</g>
<!-- e2&#45;&gt;v2 -->
<g id="edge21" class="edge"><title>e2&#45;&gt;v2</title>
<path fill="none" stroke="green" d="M760,-184C760,-184 767.252,-59.2727 769.404,-22.2443"/>
</g>
<!-- v3 -->
<g id="v3_Room" class="node"><title>v3</title>
<ellipse fill="none" stroke="black" cx="720" cy="-127" rx="21.5" ry="11"/>
<text text-anchor="middle" x="720" y="-124.8" font-family="sans-serif" font-size="9.00">Room</text>
</g>
<!-- e2&#45;&gt;v3 -->
<g id="edge22" class="edge"><title>e2&#45;&gt;v3</title>
<path fill="none" stroke="green" d="M760,-184C760,-184 738.198,-153.477 726.785,-137.5"/>
</g>
<!-- v12 -->
<g id="v12_Server" class="node"><title>v12</title>
<ellipse fill="none" stroke="black" cx="133" cy="-11" rx="29" ry="11"/>
<text text-anchor="middle" x="133" y="-8.8" font-family="sans-serif" font-size="9.00">Server</text>
</g>
<!-- e3&#45;&gt;v12 -->
<g id="edge24" class="edge"><title>e3&#45;&gt;v12</title>
<path fill="none" stroke="green" d="M194,-68C194,-68 188.557,-62.3285 184,-58 170.34,-45.0259 154.115,-30.5444 143.694,-21.3582"/>
</g>
<!-- e3&#45;&gt;v14 -->
<g id="edge25" class="edge"><title>e3&#45;&gt;v14</title>
<path fill="none" stroke="green" d="M194,-68C194,-68 201.839,-61.5948 209,-58 241.299,-41.7848 280.721,-28.6084 307.42,-20.5786"/>
</g>
<!-- e4&#45;&gt;v2 -->
<g id="edge27" class="edge"><title>e4&#45;&gt;v2</title>
<path fill="none" stroke="green" d="M330,-126C330,-126 420.009,-108.269 487,-80 505.335,-72.2628 507.272,-64.7302 526,-58 611.819,-27.1602 638.718,-40.5687 728,-22 733.577,-20.8401 739.545,-19.4875 745.179,-18.1589"/>
</g>
<!-- v10 -->
<g id="v10_Room" class="node"><title>v10</title>
<ellipse fill="none" stroke="black" cx="154" cy="-69" rx="21.5" ry="11"/>
<text text-anchor="middle" x="154" y="-66.8" font-family="sans-serif" font-size="9.00">Room</text>
</g>
<!-- e4&#45;&gt;v10 -->
<g id="edge28" class="edge"><title>e4&#45;&gt;v10</title>
<path fill="none" stroke="green" d="M330,-126C330,-126 248.718,-100.98 184,-80 179.822,-78.6456 175.326,-77.1611 171.118,-75.7602"/>
</g>
<!-- v9 -->
<g id="v9_SmartLight" class="node"><title>v9</title>
<ellipse fill="none" stroke="black" cx="460" cy="-11" rx="43" ry="11"/>
<text text-anchor="middle" x="460" y="-8.8" font-family="sans-serif" font-size="9.00">SmartLight</text>
</g>
<!-- e5&#45;&gt;v9 -->
<g id="edge30" class="edge"><title>e5&#45;&gt;v9</title>
<path fill="none" stroke="green" d="M397,-68C397,-68 430.976,-37.7988 449.026,-21.7545"/>
</g>
<!-- e5&#45;&gt;v14 -->
<g id="edge31" class="edge"><title>e5&#45;&gt;v14</title>
<path fill="none" stroke="green" d="M397,-68C397,-68 365.519,-38.1193 348.548,-22.0117"/>
</g>
<!-- v11 -->
<g id="v11_SmartLight" class="node"><title>v11</title>
<ellipse fill="none" stroke="black" cx="43" cy="-11" rx="43" ry="11"/>
<text text-anchor="middle" x="43" y="-8.8" font-family="sans-serif" font-size="9.00">SmartLight</text>
</g>
<!-- e6&#45;&gt;v11 -->
<g id="edge33" class="edge"><title>e6&#45;&gt;v11</title>
<path fill="none" stroke="green" d="M75,-68C75,-68 57.9253,-38.1193 48.721,-22.0117"/>
</g>
<!-- e6&#45;&gt;v14 -->
<g id="edge34" class="edge"><title>e6&#45;&gt;v14</title>
<path fill="none" stroke="green" d="M75,-68C75,-68 228.773,-35.2575 301.154,-19.8455"/>
</g>
<!-- v6 -->
<g id="v6_SmartLight" class="node"><title>v6</title>
<ellipse fill="none" stroke="black" cx="676" cy="-11" rx="43" ry="11"/>
<text text-anchor="middle" x="676" y="-8.8" font-family="sans-serif" font-size="9.00">SmartLight</text>
</g>
<!-- e7&#45;&gt;v6 -->
<g id="edge36" class="edge"><title>e7&#45;&gt;v6</title>
<path fill="none" stroke="green" d="M478,-68C478,-68 485.675,-61.2461 493,-58 519.955,-46.0551 599.477,-28.166 644.317,-18.5971"/>
</g>
<!-- e7&#45;&gt;v14 -->
<g id="edge37" class="edge"><title>e7&#45;&gt;v14</title>
<path fill="none" stroke="green" d="M478,-68C478,-68 472.666,-61.398 467,-58 437.024,-40.0245 398.939,-27.5253 371.941,-20.1402"/>
</g>
<!-- v7 -->
<g id="v7_Workstation" class="node"><title>v7</title>
<ellipse fill="none" stroke="black" cx="568" cy="-11" rx="47" ry="11"/>
<text text-anchor="middle" x="568" y="-8.8" font-family="sans-serif" font-size="9.00">Workstation</text>
</g>
<!-- e8&#45;&gt;v7 -->
<g id="edge39" class="edge"><title>e8&#45;&gt;v7</title>
<path fill="none" stroke="green" d="M458,-68C458,-68 462.842,-61.5918 468,-58 491.68,-41.5104 522.217,-28.4692 543.283,-20.5455"/>
</g>
<!-- e8&#45;&gt;v14 -->
<g id="edge40" class="edge"><title>e8&#45;&gt;v14</title>
<path fill="none" stroke="green" d="M458,-68C458,-68 392.593,-37.4767 358.356,-21.4996"/>
</g>
<!-- e9&#45;&gt;v2 -->
<g id="edge42" class="edge"><title>e9&#45;&gt;v2</title>
<path fill="none" stroke="green" d="M677,-126C677,-126 739.581,-49.288 762.071,-21.7196"/>
</g>
<!-- v8 -->
<g id="v8_Room" class="node"><title>v8</title>
<ellipse fill="none" stroke="black" cx="557" cy="-69" rx="21.5" ry="11"/>
<text text-anchor="middle" x="557" y="-66.8" font-family="sans-serif" font-size="9.00">Room</text>
</g>
<!-- e9&#45;&gt;v8 -->
<g id="edge43" class="edge"><title>e9&#45;&gt;v8</title>
<path fill="none" stroke="green" d="M677,-126C677,-126 604.488,-92.1613 572.198,-77.0924"/>
</g>
<!-- v1 -->
<g id="v1_Floor" class="node"><title>v1</title>
<ellipse fill="none" stroke="black" cx="564" cy="-185" rx="25" ry="11"/>
<text text-anchor="middle" x="564" y="-182.8" font-family="sans-serif" font-size="9.00">Floor</text>
</g>
<!-- v0&#45;&gt;v1 -->
<g id="edge2" class="edge"><title>v0&#45;&gt;v1</title>
<path fill="none" stroke="black" d="M416.927,-234.448C449.101,-223.849 507.366,-204.656 540.072,-193.882"/>
<polygon fill="black" stroke="black" points="545.094,-192.228 541.049,-195.929 542.719,-193.01 540.345,-193.792 540.345,-193.792 540.345,-193.792 542.719,-193.01 539.641,-191.655 545.094,-192.228 545.094,-192.228"/>
</g>
<!-- v0&#45;&gt;v14 -->
<g id="edge3" class="edge"><title>v0&#45;&gt;v14</title>
<path fill="none" stroke="black" d="M391.521,-231.82C382.612,-195.229 352.183,-70.2499 341.635,-26.9288"/>
<polygon fill="black" stroke="black" points="340.45,-22.062 343.819,-26.3878 341.041,-24.4911 341.633,-26.9201 341.633,-26.9201 341.633,-26.9201 341.041,-24.4911 339.447,-27.4524 340.45,-22.062 340.45,-22.062"/>
</g>
<!-- v1&#45;&gt;v2 -->
<g id="edge4" class="edge"><title>v1&#45;&gt;v2</title>
<path fill="none" stroke="black" d="M574.663,-174.701C598.856,-153.651 659.859,-100.85 712,-58 725.972,-46.5175 742.109,-33.7595 753.808,-24.5977"/>
<polygon fill="black" stroke="black" points="757.906,-21.3941 755.353,-26.2464 755.936,-22.9339 753.967,-24.4738 753.967,-24.4738 753.967,-24.4738 755.936,-22.9339 752.581,-22.7013 757.906,-21.3941 757.906,-21.3941"/>
</g>
<!-- v1&#45;&gt;v3 -->
<g id="edge5" class="edge"><title>v1&#45;&gt;v3</title>
<path fill="none" stroke="black" d="M582.508,-177.356C611.466,-166.961 667.361,-146.896 698.216,-135.82"/>
<polygon fill="black" stroke="black" points="702.945,-134.122 699,-137.929 700.592,-134.967 698.239,-135.812 698.239,-135.812 698.239,-135.812 700.592,-134.967 697.479,-133.694 702.945,-134.122 702.945,-134.122"/>
</g>
<!-- v1&#45;&gt;v8 -->
<g id="edge6" class="edge"><title>v1&#45;&gt;v8</title>
<path fill="none" stroke="black" d="M563.379,-173.883C562.152,-153.906 559.412,-109.276 557.954,-85.5402"/>
<polygon fill="black" stroke="black" points="557.63,-80.2579 560.182,-85.1106 557.783,-82.7532 557.936,-85.2485 557.936,-85.2485 557.936,-85.2485 557.783,-82.7532 555.691,-85.3865 557.63,-80.2579 557.63,-80.2579"/>
</g>
<!-- v1&#45;&gt;v10 -->
<g id="edge7" class="edge"><title>v1&#45;&gt;v10</title>
<path fill="none" stroke="black" d="M540.413,-181.17C496.426,-175.538 399.161,-161.413 320,-138 265.288,-121.818 203.871,-93.9727 173.365,-79.4441"/>
<polygon fill="black" stroke="black" points="168.74,-77.2305 174.221,-77.3596 170.995,-78.3098 173.25,-79.3891 173.25,-79.3891 173.25,-79.3891 170.995,-78.3098 172.278,-81.4186 168.74,-77.2305 168.74,-77.2305"/>
</g>
<!-- v4 -->
<g id="v4_Visitor" class="node"><title>v4</title>
<ellipse fill="none" stroke="black" cx="901" cy="-69" rx="32.5" ry="11"/>
<text text-anchor="middle" x="901" y="-66.8" font-family="sans-serif" font-size="9.00">Visitor</text>
</g>
<!-- v3&#45;&gt;v4 -->
<g id="edge8" class="edge"><title>v3&#45;&gt;v4</title>
<path fill="none" stroke="black" d="M737.685,-120.529C769.354,-110.73 835.944,-90.1278 873.579,-78.4837"/>
<polygon fill="black" stroke="black" points="878.468,-76.9713 874.356,-80.5987 876.08,-77.7102 873.691,-78.4492 873.691,-78.4492 873.691,-78.4492 876.08,-77.7102 873.026,-76.2997 878.468,-76.9713 878.468,-76.9713"/>
</g>
<!-- v3&#45;&gt;v6 -->
<g id="edge9" class="edge"><title>v3&#45;&gt;v6</title>
<path fill="none" stroke="black" d="M716.095,-115.883C708.32,-95.7373 690.868,-50.521 681.768,-26.9438"/>
<polygon fill="black" stroke="black" points="679.959,-22.2579 683.859,-26.1124 680.859,-24.5903 681.76,-26.9226 681.76,-26.9226 681.76,-26.9226 680.859,-24.5903 679.661,-27.7328 679.959,-22.2579 679.959,-22.2579"/>
</g>
<!-- v3&#45;&gt;v7 -->
<g id="edge10" class="edge"><title>v3&#45;&gt;v7</title>
<path fill="none" stroke="black" d="M708.575,-117.431C682.122,-97.5912 616.535,-48.4011 585.2,-24.9003"/>
<polygon fill="black" stroke="black" points="580.835,-21.6259 586.185,-22.826 582.835,-23.1259 584.835,-24.626 584.835,-24.626 584.835,-24.626 582.835,-23.1259 583.485,-26.426 580.835,-21.6259 580.835,-21.6259"/>
</g>
<!-- v4&#45;&gt;v5 -->
<g id="edge11" class="edge"><title>v4&#45;&gt;v5</title>
<path fill="none" stroke="black" d="M892.116,-58.2455C883.853,-49.1716 871.465,-35.5697 862.262,-25.4636"/>
<polygon fill="black" stroke="black" points="858.782,-21.6427 863.812,-23.8244 860.465,-23.491 862.148,-25.3394 862.148,-25.3394 862.148,-25.3394 860.465,-23.491 860.485,-26.8544 858.782,-21.6427 858.782,-21.6427"/>
</g>
<!-- v8&#45;&gt;v9 -->
<g id="edge12" class="edge"><title>v8&#45;&gt;v9</title>
<path fill="none" stroke="black" d="M543.513,-60.2134C527.292,-50.849 499.884,-35.0258 480.913,-24.0734"/>
<polygon fill="black" stroke="black" points="476.283,-21.4008 481.739,-21.9521 478.449,-22.6507 480.614,-23.9007 480.614,-23.9007 480.614,-23.9007 478.449,-22.6507 479.489,-25.8493 476.283,-21.4008 476.283,-21.4008"/>
</g>
<!-- v10&#45;&gt;v11 -->
<g id="edge13" class="edge"><title>v10&#45;&gt;v11</title>
<path fill="none" stroke="black" d="M139.489,-60.679C120.726,-51.2129 87.8406,-34.6223 65.7437,-23.4743"/>
<polygon fill="black" stroke="black" points="61.2012,-21.1826 66.6788,-21.426 63.4333,-22.3087 65.6653,-23.4348 65.6653,-23.4348 65.6653,-23.4348 63.4333,-22.3087 64.6518,-25.4436 61.2012,-21.1826 61.2012,-21.1826"/>
</g>
<!-- v10&#45;&gt;v12 -->
<g id="edge14" class="edge"><title>v10&#45;&gt;v12</title>
<path fill="none" stroke="black" d="M150.246,-57.9883C146.991,-49.3083 142.236,-36.6286 138.543,-26.7806"/>
<polygon fill="black" stroke="black" points="136.722,-21.925 140.584,-25.8166 137.6,-24.2658 138.478,-26.6067 138.478,-26.6067 138.478,-26.6067 137.6,-24.2658 136.371,-27.3967 136.722,-21.925 136.722,-21.925"/>
</g>
<!-- v10&#45;&gt;v13 -->
<g id="edge15" class="edge"><title>v10&#45;&gt;v13</title>
<path fill="none" stroke="black" d="M164.156,-59.25C174.807,-50.0744 191.662,-35.5532 203.877,-25.0291"/>
<polygon fill="black" stroke="black" points="207.826,-21.6267 205.507,-26.595 205.932,-23.2585 204.038,-24.8903 204.038,-24.8903 204.038,-24.8903 205.932,-23.2585 202.569,-23.1857 207.826,-21.6267 207.826,-21.6267"/>
</g>
</g>
</svg>
