<?xml version="1.0" encoding="UTF-8" standalone="no"?>
<?xml-stylesheet href="style.css" type="text/css"?>
<!DOCTYPE svg PUBLIC "-//W3C//DTD SVG 1.1//EN"
 "http://www.w3.org/Graphics/SVG/1.1/DTD/svg11.dtd">
<!-- Generated by graphviz version 2.38.0 (20140413.2041)
 -->
<!-- Title: 6.svg Pages: 1 -->
<svg width="898pt" height="316pt"
 viewBox="0.00 0.00 898.00 316.00" xmlns="http://www.w3.org/2000/svg" xmlns:xlink="http://www.w3.org/1999/xlink">
<g id="graph0" class="graph" transform="scale(1 1) rotate(0) translate(4 312)">
<title>6.svg</title>
<polygon fill="white" stroke="none" points="-4,4 -4,-312 894,-312 894,4 -4,4"/>
<!-- r0 -->
<g id="node1" class="node"><title>r0</title>
<polygon fill="none" stroke="black" stroke-dasharray="5,2" points="406.5,-308 383.5,-308 383.5,-290 406.5,-290 406.5,-308"/>
<text text-anchor="middle" x="395" y="-296.8" font-family="serif" font-size="9.00">0</text>
</g>
<!-- v0 -->
<g id="v0_Building" class="node"><title>v0</title>
<ellipse fill="none" stroke="black" cx="395" cy="-243" rx="36" ry="11"/>
<text text-anchor="middle" x="395" y="-240.8" font-family="sans-serif" font-size="9.00">Building</text>
</g>
<!-- r0&#45;&gt;v0 -->
<g id="edge1" class="edge"><title>r0&#45;&gt;v0</title>
<path fill="none" stroke="black" d="M395,-289.562C395,-281.453 395,-269.014 395,-259.181"/>
<polygon fill="black" stroke="black" points="395,-254.03 397.25,-259.03 395,-256.53 395,-259.03 395,-259.03 395,-259.03 395,-256.53 392.75,-259.03 395,-254.03 395,-254.03"/>
</g>
<!-- oalarm -->
<g id="node2" class="node"><title>oalarm</title>
<text text-anchor="middle" x="214" y="-296.8" font-family="serif" font-size="9.00">alarm</text>
</g>
<!-- e1 -->
<g id="node12" class="node"><title>e1</title>
</g>
<!-- oalarm&#45;&gt;e1 -->
<g id="edge17" class="edge"><title>oalarm&#45;&gt;e1</title>
<path fill="none" stroke="green" d="M214.178,-289.885C215.069,-249.27 219,-70 219,-70"/>
</g>
<!-- ocntrlRm -->
<g id="node3" class="node"><title>ocntrlRm</title>
<text text-anchor="middle" x="772" y="-296.8" font-family="serif" font-size="9.00">cntrlRm</text>
</g>
<!-- e2 -->
<g id="node13" class="node"><title>e2</title>
</g>
<!-- ocntrlRm&#45;&gt;e2 -->
<g id="edge20" class="edge"><title>ocntrlRm&#45;&gt;e2</title>
<path fill="none" stroke="green" d="M772,-289.945C772,-264.265 772,-186 772,-186"/>
</g>
<!-- oserv -->
<g id="node4" class="node"><title>oserv</title>
<text text-anchor="middle" x="156" y="-296.8" font-family="serif" font-size="9.00">serv</text>
</g>
<!-- e3 -->
<g id="node14" class="node"><title>e3</title>
</g>
<!-- oserv&#45;&gt;e3 -->
<g id="edge23" class="edge"><title>oserv&#45;&gt;e3</title>
<path fill="none" stroke="green" d="M156.819,-289.885C160.916,-249.27 179,-70 179,-70"/>
</g>
<!-- oserverRm -->
<g id="node5" class="node"><title>oserverRm</title>
<text text-anchor="middle" x="333" y="-296.8" font-family="serif" font-size="9.00">serverRm</text>
</g>
<!-- e4 -->
<g id="node15" class="node"><title>e4</title>
</g>
<!-- oserverRm&#45;&gt;e4 -->
<g id="edge26" class="edge"><title>oserverRm&#45;&gt;e4</title>
<path fill="none" stroke="green" d="M333.145,-289.801C333.744,-255.842 336,-128 336,-128"/>
</g>
<!-- osl1 -->
<g id="node6" class="node"><title>osl1</title>
<text text-anchor="middle" x="269" y="-296.8" font-family="serif" font-size="9.00">sl1</text>
</g>
<!-- e5 -->
<g id="node16" class="node"><title>e5</title>
</g>
<!-- osl1&#45;&gt;e5 -->
<g id="edge29" class="edge"><title>osl1&#45;&gt;e5</title>
<path fill="none" stroke="green" d="M271.456,-289.885C283.747,-249.27 338,-70 338,-70"/>
</g>
<!-- osl2 -->
<g id="node7" class="node"><title>osl2</title>
<text text-anchor="middle" x="94" y="-296.8" font-family="serif" font-size="9.00">sl2</text>
</g>
<!-- e6 -->
<g id="node17" class="node"><title>e6</title>
</g>
<!-- osl2&#45;&gt;e6 -->
<g id="edge32" class="edge"><title>osl2&#45;&gt;e6</title>
<path fill="none" stroke="green" d="M94,-289.885C94,-249.27 94,-70 94,-70"/>
</g>
<!-- osl3 -->
<g id="node8" class="node"><title>osl3</title>
<text text-anchor="middle" x="511" y="-296.8" font-family="serif" font-size="9.00">sl3</text>
</g>
<!-- e7 -->
<g id="node18" class="node"><title>e7</title>
</g>
<!-- osl3&#45;&gt;e7 -->
<g id="edge35" class="edge"><title>osl3&#45;&gt;e7</title>
<path fill="none" stroke="green" d="M508.936,-289.885C498.604,-249.27 453,-70 453,-70"/>
</g>
<!-- ostation -->
<g id="node9" class="node"><title>ostation</title>
<text text-anchor="middle" x="454" y="-296.8" font-family="serif" font-size="9.00">station</text>
</g>
<!-- e8 -->
<g id="node19" class="node"><title>e8</title>
</g>
<!-- ostation&#45;&gt;e8 -->
<g id="edge38" class="edge"><title>ostation&#45;&gt;e8</title>
<path fill="none" stroke="green" d="M453.288,-289.885C449.725,-249.27 434,-70 434,-70"/>
</g>
<!-- otoiletRm -->
<g id="node10" class="node"><title>otoiletRm</title>
<text text-anchor="middle" x="690" y="-296.8" font-family="serif" font-size="9.00">toiletRm</text>
</g>
<!-- e9 -->
<g id="node20" class="node"><title>e9</title>
</g>
<!-- otoiletRm&#45;&gt;e9 -->
<g id="edge41" class="edge"><title>otoiletRm&#45;&gt;e9</title>
<path fill="none" stroke="green" d="M690,-289.801C690,-255.842 690,-128 690,-128"/>
</g>
<!-- e0 -->
<g id="node11" class="node"><title>e0</title>
</g>
<!-- v5 -->
<g id="v5_SmartLight" class="node"><title>v5</title>
<ellipse fill="none" stroke="black" cx="847" cy="-11" rx="43" ry="11"/>
<text text-anchor="middle" x="847" y="-8.8" font-family="sans-serif" font-size="9.00">SmartLight</text>
</g>
<!-- e0&#45;&gt;v5 -->
<g id="edge16" class="edge"><title>e0&#45;&gt;v5</title>
<path fill="none" stroke="green" d="M847,-64.1674C847,-55.5862 847,-34.5957 847,-22.0117"/>
<polygon fill="green" stroke="green" points="850.5,-67.3001 843.5,-67.2999 843.5,-65.8999 850.5,-65.9001 850.5,-67.3001"/>
<polyline fill="none" stroke="green" points="847,-68 847,-64.5 "/>
</g>
<!-- v13 -->
<g id="v13_FireAlarm" class="node"><title>v13</title>
<ellipse fill="none" stroke="black" cx="219" cy="-11" rx="39.5" ry="11"/>
<text text-anchor="middle" x="219" y="-8.8" font-family="sans-serif" font-size="9.00">FireAlarm</text>
</g>
<!-- e1&#45;&gt;v13 -->
<g id="edge18" class="edge"><title>e1&#45;&gt;v13</title>
<path fill="none" stroke="green" d="M219,-68C219,-68 219,-38.1193 219,-22.0117"/>
</g>
<!-- v14 -->
<g id="v14_InstallationBus" class="node"><title>v14</title>
<ellipse fill="none" stroke="black" cx="338" cy="-11" rx="61" ry="11"/>
<text text-anchor="middle" x="338" y="-8.8" font-family="sans-serif" font-size="9.00">InstallationBus</text>
</g>
<!-- e1&#45;&gt;v14 -->
<g id="edge19" class="edge"><title>e1&#45;&gt;v14</title>
<path fill="none" stroke="green" d="M219,-68C219,-68 283.862,-37.4767 317.813,-21.4996"/>
</g>
<!-- v2 -->
<g id="v2_Room" class="node"><title>v2</title>
<ellipse fill="none" stroke="black" cx="730" cy="-127" rx="21.5" ry="11"/>
<text text-anchor="middle" x="730" y="-124.8" font-family="sans-serif" font-size="9.00">Room</text>
</g>
<!-- e2&#45;&gt;v2 -->
<g id="edge21" class="edge"><title>e2&#45;&gt;v2</title>
<path fill="none" stroke="green" d="M772,-184C772,-184 749.108,-153.477 737.125,-137.5"/>
</g>
<!-- v6 -->
<g id="v6_Hallway" class="node"><title>v6</title>
<ellipse fill="none" stroke="black" cx="742" cy="-11" rx="32.5" ry="11"/>
<text text-anchor="middle" x="742" y="-8.8" font-family="sans-serif" font-size="9.00">Hallway</text>
</g>
<!-- e2&#45;&gt;v6 -->
<g id="edge22" class="edge"><title>e2&#45;&gt;v6</title>
<path fill="none" stroke="green" d="M772,-184C772,-184 750.145,-58.6999 743.743,-21.9909"/>
</g>
<!-- v12 -->
<g id="v12_Server" class="node"><title>v12</title>
<ellipse fill="none" stroke="black" cx="133" cy="-11" rx="29" ry="11"/>
<text text-anchor="middle" x="133" y="-8.8" font-family="sans-serif" font-size="9.00">Server</text>
</g>
<!-- e3&#45;&gt;v12 -->
<g id="edge24" class="edge"><title>e3&#45;&gt;v12</title>
<path fill="none" stroke="green" d="M179,-68C179,-68 154.192,-37.7988 141.013,-21.7545"/>
</g>
<!-- e3&#45;&gt;v14 -->
<g id="edge25" class="edge"><title>e3&#45;&gt;v14</title>
<path fill="none" stroke="green" d="M179,-68C179,-68 267.508,-36.8273 312.454,-20.9974"/>
</g>
<!-- e4&#45;&gt;v6 -->
<g id="edge27" class="edge"><title>e4&#45;&gt;v6</title>
<path fill="none" stroke="green" d="M336,-126C336,-126 407.857,-104.951 462,-80 480.074,-71.6709 482.28,-64.7546 501,-58 585.545,-27.494 612.027,-40.4159 700,-22 705.576,-20.8328 711.543,-19.4773 717.177,-18.1481"/>
</g>
<!-- v10 -->
<g id="v10_Room" class="node"><title>v10</title>
<ellipse fill="none" stroke="black" cx="139" cy="-69" rx="21.5" ry="11"/>
<text text-anchor="middle" x="139" y="-66.8" font-family="sans-serif" font-size="9.00">Room</text>
</g>
<!-- e4&#45;&gt;v10 -->
<g id="edge28" class="edge"><title>e4&#45;&gt;v10</title>
<path fill="none" stroke="green" d="M336,-126C336,-126 328.347,-119.196 321,-116 257.337,-88.309 235.775,-98.9959 169,-80 164.776,-78.7983 160.262,-77.371 156.052,-75.9766"/>
</g>
<!-- v9 -->
<g id="v9_SmartLight" class="node"><title>v9</title>
<ellipse fill="none" stroke="black" cx="460" cy="-11" rx="43" ry="11"/>
<text text-anchor="middle" x="460" y="-8.8" font-family="sans-serif" font-size="9.00">SmartLight</text>
</g>
<!-- e5&#45;&gt;v9 -->
<g id="edge30" class="edge"><title>e5&#45;&gt;v9</title>
<path fill="none" stroke="green" d="M338,-68C338,-68 406.268,-36.6638 440.669,-20.8734"/>
</g>
<!-- e5&#45;&gt;v14 -->
<g id="edge31" class="edge"><title>e5&#45;&gt;v14</title>
<path fill="none" stroke="green" d="M338,-68C338,-68 338,-38.1193 338,-22.0117"/>
</g>
<!-- v11 -->
<g id="v11_SmartLight" class="node"><title>v11</title>
<ellipse fill="none" stroke="black" cx="43" cy="-11" rx="43" ry="11"/>
<text text-anchor="middle" x="43" y="-8.8" font-family="sans-serif" font-size="9.00">SmartLight</text>
</g>
<!-- e6&#45;&gt;v11 -->
<g id="edge33" class="edge"><title>e6&#45;&gt;v11</title>
<path fill="none" stroke="green" d="M94,-68C94,-68 66.7872,-38.1193 52.1178,-22.0117"/>
</g>
<!-- e6&#45;&gt;v14 -->
<g id="edge34" class="edge"><title>e6&#45;&gt;v14</title>
<path fill="none" stroke="green" d="M94,-68C94,-68 100.984,-61.0397 108,-58 140.695,-43.8356 236.169,-27.5408 293.313,-18.6472"/>
</g>
<!-- v4 -->
<g id="v4_Laptop" class="node"><title>v4</title>
<ellipse fill="none" stroke="black" cx="662" cy="-11" rx="29" ry="11"/>
<text text-anchor="middle" x="662" y="-8.8" font-family="sans-serif" font-size="9.00">Laptop</text>
</g>
<!-- e7&#45;&gt;v4 -->
<g id="edge36" class="edge"><title>e7&#45;&gt;v4</title>
<path fill="none" stroke="green" d="M453,-68C453,-68 460.643,-61.1747 468,-58 533.332,-29.8065 554.919,-39.0563 624,-22 629.033,-20.7572 634.427,-19.371 639.524,-18.036"/>
</g>
<!-- e7&#45;&gt;v14 -->
<g id="edge37" class="edge"><title>e7&#45;&gt;v14</title>
<path fill="none" stroke="green" d="M453,-68C453,-68 448.191,-61.5446 443,-58 418.84,-41.5015 387.805,-28.783 365.757,-20.9435"/>
</g>
<!-- v7 -->
<g id="v7_Workstation" class="node"><title>v7</title>
<ellipse fill="none" stroke="black" cx="568" cy="-11" rx="47" ry="11"/>
<text text-anchor="middle" x="568" y="-8.8" font-family="sans-serif" font-size="9.00">Workstation</text>
</g>
<!-- e8&#45;&gt;v7 -->
<g id="edge39" class="edge"><title>e8&#45;&gt;v7</title>
<path fill="none" stroke="green" d="M434,-68C434,-68 438.049,-61.353 443,-58 471.72,-38.5494 509.699,-26.0996 536.226,-19.1244"/>
</g>
<!-- e8&#45;&gt;v14 -->
<g id="edge40" class="edge"><title>e8&#45;&gt;v14</title>
<path fill="none" stroke="green" d="M434,-68C434,-68 382.227,-37.7988 354.722,-21.7545"/>
</g>
<!-- e9&#45;&gt;v6 -->
<g id="edge42" class="edge"><title>e9&#45;&gt;v6</title>
<path fill="none" stroke="green" d="M690,-126C690,-126 707.74,-101.623 718,-80 727.338,-60.3196 735.07,-35.9779 739.065,-22.4033"/>
</g>
<!-- v8 -->
<g id="v8_Room" class="node"><title>v8</title>
<ellipse fill="none" stroke="black" cx="532" cy="-69" rx="21.5" ry="11"/>
<text text-anchor="middle" x="532" y="-66.8" font-family="sans-serif" font-size="9.00">Room</text>
</g>
<!-- e9&#45;&gt;v8 -->
<g id="edge43" class="edge"><title>e9&#45;&gt;v8</title>
<path fill="none" stroke="green" d="M690,-126C690,-126 589.668,-90.4395 548.909,-75.993"/>
</g>
<!-- v1 -->
<g id="v1_Floor" class="node"><title>v1</title>
<ellipse fill="none" stroke="black" cx="557" cy="-185" rx="25" ry="11"/>
<text text-anchor="middle" x="557" y="-182.8" font-family="sans-serif" font-size="9.00">Floor</text>
</g>
<!-- v0&#45;&gt;v1 -->
<g id="edge2" class="edge"><title>v0&#45;&gt;v1</title>
<path fill="none" stroke="black" d="M417.186,-234.331C447.62,-223.81 502.089,-204.982 533.299,-194.193"/>
<polygon fill="black" stroke="black" points="538.101,-192.533 534.11,-196.293 535.738,-193.35 533.375,-194.167 533.375,-194.167 533.375,-194.167 535.738,-193.35 532.64,-192.04 538.101,-192.533 538.101,-192.533"/>
</g>
<!-- v0&#45;&gt;v14 -->
<g id="edge3" class="edge"><title>v0&#45;&gt;v14</title>
<path fill="none" stroke="black" d="M392.477,-231.82C383.409,-195.229 352.436,-70.2499 341.7,-26.9288"/>
<polygon fill="black" stroke="black" points="340.494,-22.062 343.88,-26.3739 341.095,-24.4886 341.696,-26.9152 341.696,-26.9152 341.696,-26.9152 341.095,-24.4886 339.513,-27.4565 340.494,-22.062 340.494,-22.062"/>
</g>
<!-- v1&#45;&gt;v2 -->
<g id="edge4" class="edge"><title>v1&#45;&gt;v2</title>
<path fill="none" stroke="black" d="M576.175,-177.793C608.457,-167.343 673.481,-146.295 707.731,-135.208"/>
<polygon fill="black" stroke="black" points="712.554,-133.647 708.49,-137.328 710.175,-134.417 707.797,-135.187 707.797,-135.187 707.797,-135.187 710.175,-134.417 707.104,-133.047 712.554,-133.647 712.554,-133.647"/>
</g>
<!-- v1&#45;&gt;v6 -->
<g id="edge5" class="edge"><title>v1&#45;&gt;v6</title>
<path fill="none" stroke="black" d="M569.152,-175.2C592.483,-158.06 644.72,-118.5 684,-80 701.675,-62.6761 719.84,-40.5426 731.023,-26.3177"/>
<polygon fill="black" stroke="black" points="734.262,-22.1711 732.957,-27.4967 732.723,-24.1414 731.184,-26.1118 731.184,-26.1118 731.184,-26.1118 732.723,-24.1414 729.411,-24.7269 734.262,-22.1711 734.262,-22.1711"/>
</g>
<!-- v1&#45;&gt;v8 -->
<g id="edge6" class="edge"><title>v1&#45;&gt;v8</title>
<path fill="none" stroke="black" d="M554.781,-173.883C550.382,-153.822 540.53,-108.899 535.342,-85.2409"/>
<polygon fill="black" stroke="black" points="534.25,-80.2579 537.518,-84.6599 534.785,-82.6999 535.321,-85.1419 535.321,-85.1419 535.321,-85.1419 534.785,-82.6999 533.123,-85.6239 534.25,-80.2579 534.25,-80.2579"/>
</g>
<!-- v1&#45;&gt;v10 -->
<g id="edge7" class="edge"><title>v1&#45;&gt;v10</title>
<path fill="none" stroke="black" d="M533.775,-180.576C491.826,-174.127 400.824,-158.923 326,-138 264.167,-120.709 193.55,-92.6828 159.496,-78.6229"/>
<polygon fill="black" stroke="black" points="154.742,-76.6527 160.223,-76.4885 157.052,-77.6099 159.361,-78.5671 159.361,-78.5671 159.361,-78.5671 157.052,-77.6099 158.5,-80.6457 154.742,-76.6527 154.742,-76.6527"/>
</g>
<!-- v3 -->
<g id="v3_Visitor" class="node"><title>v3</title>
<ellipse fill="none" stroke="black" cx="643" cy="-69" rx="32.5" ry="11"/>
<text text-anchor="middle" x="643" y="-66.8" font-family="sans-serif" font-size="9.00">Visitor</text>
</g>
<!-- v2&#45;&gt;v3 -->
<g id="edge8" class="edge"><title>v2&#45;&gt;v3</title>
<path fill="none" stroke="black" d="M717.535,-117.977C702.933,-108.578 678.596,-92.9122 661.722,-82.0508"/>
<polygon fill="black" stroke="black" points="657.175,-79.124 662.597,-79.9383 659.277,-80.4771 661.379,-81.8302 661.379,-81.8302 661.379,-81.8302 659.277,-80.4771 660.161,-83.7222 657.175,-79.124 657.175,-79.124"/>
</g>
<!-- v2&#45;&gt;v5 -->
<g id="edge9" class="edge"><title>v2&#45;&gt;v5</title>
<path fill="none" stroke="black" d="M739.575,-116.671C760.297,-96.4803 809.362,-48.6731 833.337,-25.3125"/>
<polygon fill="black" stroke="black" points="836.961,-21.7812 834.95,-26.8821 835.171,-23.5259 833.38,-25.2705 833.38,-25.2705 833.38,-25.2705 835.171,-23.5259 831.81,-23.659 836.961,-21.7812 836.961,-21.7812"/>
</g>
<!-- v2&#45;&gt;v7 -->
<g id="edge10" class="edge"><title>v2&#45;&gt;v7</title>
<path fill="none" stroke="black" d="M712.778,-120.245C678.651,-108.787 605.338,-83.8881 601,-80 585.197,-65.8362 576.191,-42.4311 571.701,-27.1127"/>
<polygon fill="black" stroke="black" points="570.348,-22.2528 573.856,-26.4661 571.018,-24.6612 571.689,-27.0696 571.689,-27.0696 571.689,-27.0696 571.018,-24.6612 569.521,-27.673 570.348,-22.2528 570.348,-22.2528"/>
</g>
<!-- v3&#45;&gt;v4 -->
<g id="edge11" class="edge"><title>v3&#45;&gt;v4</title>
<path fill="none" stroke="black" d="M646.397,-57.9883C649.305,-49.4154 653.538,-36.9411 656.861,-27.1466"/>
<polygon fill="black" stroke="black" points="658.504,-22.3039 659.028,-27.7617 657.701,-24.6713 656.897,-27.0388 656.897,-27.0388 656.897,-27.0388 657.701,-24.6713 654.767,-26.3158 658.504,-22.3039 658.504,-22.3039"/>
</g>
<!-- v8&#45;&gt;v9 -->
<g id="edge12" class="edge"><title>v8&#45;&gt;v9</title>
<path fill="none" stroke="black" d="M521.065,-59.4948C509.229,-50.2888 490.216,-35.5013 476.549,-24.8712"/>
<polygon fill="black" stroke="black" points="472.493,-21.7165 477.821,-23.0102 474.466,-23.2513 476.439,-24.7862 476.439,-24.7862 476.439,-24.7862 474.466,-23.2513 475.058,-26.5623 472.493,-21.7165 472.493,-21.7165"/>
</g>
<!-- v10&#45;&gt;v11 -->
<g id="edge13" class="edge"><title>v10&#45;&gt;v11</title>
<path fill="none" stroke="black" d="M125.652,-60.2134C109.598,-50.849 82.4727,-35.0258 63.6973,-24.0734"/>
<polygon fill="black" stroke="black" points="59.1156,-21.4008 64.5682,-21.9767 61.275,-22.6605 63.4345,-23.9202 63.4345,-23.9202 63.4345,-23.9202 61.275,-22.6605 62.3008,-25.8637 59.1156,-21.4008 59.1156,-21.4008"/>
</g>
<!-- v10&#45;&gt;v12 -->
<g id="edge14" class="edge"><title>v10&#45;&gt;v12</title>
<path fill="none" stroke="black" d="M137.927,-57.9883C137.017,-49.4941 135.697,-37.1697 134.652,-27.4169"/>
<polygon fill="black" stroke="black" points="134.104,-22.3039 136.874,-27.0357 134.37,-24.7896 134.637,-27.2754 134.637,-27.2754 134.637,-27.2754 134.37,-24.7896 132.4,-27.5152 134.104,-22.3039 134.104,-22.3039"/>
</g>
<!-- v10&#45;&gt;v13 -->
<g id="edge15" class="edge"><title>v10&#45;&gt;v13</title>
<path fill="none" stroke="black" d="M150.804,-59.737C164.153,-50.3929 186.026,-35.082 201.393,-24.325"/>
<polygon fill="black" stroke="black" points="205.542,-21.4205 202.736,-26.1311 203.494,-22.8542 201.446,-24.2879 201.446,-24.2879 201.446,-24.2879 203.494,-22.8542 200.156,-22.4446 205.542,-21.4205 205.542,-21.4205"/>
</g>
</g>
</svg>
