<?xml version="1.0" encoding="UTF-8" standalone="no"?>
<?xml-stylesheet href="style.css" type="text/css"?>
<!DOCTYPE svg PUBLIC "-//W3C//DTD SVG 1.1//EN"
 "http://www.w3.org/Graphics/SVG/1.1/DTD/svg11.dtd">
<!-- Generated by graphviz version 2.38.0 (20140413.2041)
 -->
<!-- Title: 6.svg Pages: 1 -->
<svg width="912pt" height="316pt"
 viewBox="0.00 0.00 911.50 316.00" xmlns="http://www.w3.org/2000/svg" xmlns:xlink="http://www.w3.org/1999/xlink">
<g id="graph0" class="graph" transform="scale(1 1) rotate(0) translate(4 312)">
<title>6.svg</title>
<polygon fill="white" stroke="none" points="-4,4 -4,-312 907.5,-312 907.5,4 -4,4"/>
<!-- r0 -->
<g id="node1" class="node"><title>r0</title>
<polygon fill="none" stroke="black" stroke-dasharray="5,2" points="355,-308 332,-308 332,-290 355,-290 355,-308"/>
<text text-anchor="middle" x="343.5" y="-296.8" font-family="serif" font-size="9.00">0</text>
</g>
<!-- v0 -->
<g id="v0_Building" class="node"><title>v0</title>
<ellipse fill="none" stroke="black" cx="343.5" cy="-243" rx="36" ry="11"/>
<text text-anchor="middle" x="343.5" y="-240.8" font-family="sans-serif" font-size="9.00">Building</text>
</g>
<!-- r0&#45;&gt;v0 -->
<g id="edge1" class="edge"><title>r0&#45;&gt;v0</title>
<path fill="none" stroke="black" d="M343.5,-289.562C343.5,-281.453 343.5,-269.014 343.5,-259.181"/>
<polygon fill="black" stroke="black" points="343.5,-254.03 345.75,-259.03 343.5,-256.53 343.5,-259.03 343.5,-259.03 343.5,-259.03 343.5,-256.53 341.25,-259.03 343.5,-254.03 343.5,-254.03"/>
</g>
<!-- oalarm -->
<g id="node2" class="node"><title>oalarm</title>
<text text-anchor="middle" x="56.5" y="-296.8" font-family="serif" font-size="9.00">alarm</text>
</g>
<!-- e1 -->
<g id="node12" class="node"><title>e1</title>
</g>
<!-- oalarm&#45;&gt;e1 -->
<g id="edge18" class="edge"><title>oalarm&#45;&gt;e1</title>
<path fill="none" stroke="green" d="M56.5,-289.801C56.5,-255.842 56.5,-128 56.5,-128"/>
</g>
<!-- ocntrlRm -->
<g id="node3" class="node"><title>ocntrlRm</title>
<text text-anchor="middle" x="801.5" y="-296.8" font-family="serif" font-size="9.00">cntrlRm</text>
</g>
<!-- e2 -->
<g id="node13" class="node"><title>e2</title>
</g>
<!-- ocntrlRm&#45;&gt;e2 -->
<g id="edge21" class="edge"><title>ocntrlRm&#45;&gt;e2</title>
<path fill="none" stroke="green" d="M802.175,-289.801C804.972,-255.842 815.5,-128 815.5,-128"/>
</g>
<!-- oserv -->
<g id="node4" class="node"><title>oserv</title>
<text text-anchor="middle" x="124.5" y="-296.8" font-family="serif" font-size="9.00">serv</text>
</g>
<!-- e3 -->
<g id="node14" class="node"><title>e3</title>
</g>
<!-- oserv&#45;&gt;e3 -->
<g id="edge24" class="edge"><title>oserv&#45;&gt;e3</title>
<path fill="none" stroke="green" d="M124.5,-289.801C124.5,-255.842 124.5,-128 124.5,-128"/>
</g>
<!-- oserverRm -->
<g id="node5" class="node"><title>oserverRm</title>
<text text-anchor="middle" x="592.5" y="-296.8" font-family="serif" font-size="9.00">serverRm</text>
</g>
<!-- e4 -->
<g id="node15" class="node"><title>e4</title>
</g>
<!-- oserverRm&#45;&gt;e4 -->
<g id="edge27" class="edge"><title>oserverRm&#45;&gt;e4</title>
<path fill="none" stroke="green" d="M592.5,-289.801C592.5,-255.842 592.5,-128 592.5,-128"/>
</g>
<!-- osl1 -->
<g id="node6" class="node"><title>osl1</title>
<text text-anchor="middle" x="464.5" y="-296.8" font-family="serif" font-size="9.00">sl1</text>
</g>
<!-- e5 -->
<g id="node16" class="node"><title>e5</title>
</g>
<!-- osl1&#45;&gt;e5 -->
<g id="edge30" class="edge"><title>osl1&#45;&gt;e5</title>
<path fill="none" stroke="green" d="M464.355,-289.801C463.756,-255.842 461.5,-128 461.5,-128"/>
</g>
<!-- osl2 -->
<g id="node7" class="node"><title>osl2</title>
<text text-anchor="middle" x="194.5" y="-296.8" font-family="serif" font-size="9.00">sl2</text>
</g>
<!-- e6 -->
<g id="node17" class="node"><title>e6</title>
</g>
<!-- osl2&#45;&gt;e6 -->
<g id="edge33" class="edge"><title>osl2&#45;&gt;e6</title>
<path fill="none" stroke="green" d="M194.5,-289.801C194.5,-255.842 194.5,-128 194.5,-128"/>
</g>
<!-- osl3 -->
<g id="node8" class="node"><title>osl3</title>
<text text-anchor="middle" x="279.5" y="-296.8" font-family="serif" font-size="9.00">sl3</text>
</g>
<!-- e7 -->
<g id="node18" class="node"><title>e7</title>
</g>
<!-- osl3&#45;&gt;e7 -->
<g id="edge36" class="edge"><title>osl3&#45;&gt;e7</title>
<path fill="none" stroke="green" d="M279.5,-289.801C279.5,-255.842 279.5,-128 279.5,-128"/>
</g>
<!-- ostation -->
<g id="node9" class="node"><title>ostation</title>
<text text-anchor="middle" x="407.5" y="-296.8" font-family="serif" font-size="9.00">station</text>
</g>
<!-- e8 -->
<g id="node19" class="node"><title>e8</title>
</g>
<!-- ostation&#45;&gt;e8 -->
<g id="edge39" class="edge"><title>ostation&#45;&gt;e8</title>
<path fill="none" stroke="green" d="M407.5,-289.801C407.5,-255.842 407.5,-128 407.5,-128"/>
</g>
<!-- otoiletRm -->
<g id="node10" class="node"><title>otoiletRm</title>
<text text-anchor="middle" x="875.5" y="-296.8" font-family="serif" font-size="9.00">toiletRm</text>
</g>
<!-- e9 -->
<g id="node20" class="node"><title>e9</title>
</g>
<!-- otoiletRm&#45;&gt;e9 -->
<g id="edge42" class="edge"><title>otoiletRm&#45;&gt;e9</title>
<path fill="none" stroke="green" d="M874.565,-289.945C871.584,-264.265 862.5,-186 862.5,-186"/>
</g>
<!-- e0 -->
<g id="node11" class="node"><title>e0</title>
</g>
<!-- v7 -->
<g id="v7_Laptop" class="node"><title>v7</title>
<ellipse fill="none" stroke="black" cx="687.5" cy="-11" rx="29" ry="11"/>
<text text-anchor="middle" x="687.5" y="-8.8" font-family="sans-serif" font-size="9.00">Laptop</text>
</g>
<!-- e0&#45;&gt;v7 -->
<g id="edge17" class="edge"><title>e0&#45;&gt;v7</title>
<path fill="none" stroke="green" d="M638.864,-65.3635C640.676,-63.3445 643.241,-60.4919 645.5,-58 656.976,-45.3408 670.285,-30.7854 678.793,-21.4967"/>
<polygon fill="green" stroke="green" points="639.573,-69.8151 634.361,-65.1425 635.296,-64.1 640.508,-68.7727 639.573,-69.8151"/>
<polyline fill="none" stroke="green" points="636.5,-68 638.836,-65.3939 "/>
</g>
<!-- v1 -->
<g id="v1_InstallationBus" class="node"><title>v1</title>
<ellipse fill="none" stroke="black" cx="241.5" cy="-69" rx="61" ry="11"/>
<text text-anchor="middle" x="241.5" y="-66.8" font-family="sans-serif" font-size="9.00">InstallationBus</text>
</g>
<!-- e1&#45;&gt;v1 -->
<g id="edge19" class="edge"><title>e1&#45;&gt;v1</title>
<path fill="none" stroke="green" d="M56.5,-126C56.5,-126 160.562,-94.5 212.594,-78.75"/>
</g>
<!-- v12 -->
<g id="v12_FireAlarm" class="node"><title>v12</title>
<ellipse fill="none" stroke="black" cx="39.5" cy="-11" rx="39.5" ry="11"/>
<text text-anchor="middle" x="39.5" y="-8.8" font-family="sans-serif" font-size="9.00">FireAlarm</text>
</g>
<!-- e1&#45;&gt;v12 -->
<g id="edge20" class="edge"><title>e1&#45;&gt;v12</title>
<path fill="none" stroke="green" d="M56.5,-126C56.5,-126 45.1692,-50.0168 41.0086,-22.1167"/>
</g>
<!-- v4 -->
<g id="v4_Hallway" class="node"><title>v4</title>
<ellipse fill="none" stroke="black" cx="805.5" cy="-11" rx="32.5" ry="11"/>
<text text-anchor="middle" x="805.5" y="-8.8" font-family="sans-serif" font-size="9.00">Hallway</text>
</g>
<!-- e2&#45;&gt;v4 -->
<g id="edge22" class="edge"><title>e2&#45;&gt;v4</title>
<path fill="none" stroke="green" d="M815.5,-126C815.5,-126 808.835,-50.0168 806.387,-22.1167"/>
</g>
<!-- v13 -->
<g id="v13_Room" class="node"><title>v13</title>
<ellipse fill="none" stroke="black" cx="522.5" cy="-69" rx="21.5" ry="11"/>
<text text-anchor="middle" x="522.5" y="-66.8" font-family="sans-serif" font-size="9.00">Room</text>
</g>
<!-- e2&#45;&gt;v13 -->
<g id="edge23" class="edge"><title>e2&#45;&gt;v13</title>
<path fill="none" stroke="green" d="M815.5,-126C815.5,-126 607.874,-86.3172 542.18,-73.7613"/>
</g>
<!-- e3&#45;&gt;v1 -->
<g id="edge25" class="edge"><title>e3&#45;&gt;v1</title>
<path fill="none" stroke="green" d="M124.5,-126C124.5,-126 188.272,-95.4767 221.653,-79.4996"/>
</g>
<!-- v11 -->
<g id="v11_Server" class="node"><title>v11</title>
<ellipse fill="none" stroke="black" cx="125.5" cy="-11" rx="29" ry="11"/>
<text text-anchor="middle" x="125.5" y="-8.8" font-family="sans-serif" font-size="9.00">Server</text>
</g>
<!-- e3&#45;&gt;v11 -->
<g id="edge26" class="edge"><title>e3&#45;&gt;v11</title>
<path fill="none" stroke="green" d="M124.5,-126C124.5,-126 125.167,-50.0168 125.411,-22.1167"/>
</g>
<!-- e4&#45;&gt;v4 -->
<g id="edge28" class="edge"><title>e4&#45;&gt;v4</title>
<path fill="none" stroke="green" d="M592.5,-126C592.5,-126 607.423,-120.229 619.5,-116 667.651,-99.1376 684.256,-105.403 728.5,-80 756.649,-63.8378 783.692,-36.2869 796.974,-21.7094"/>
</g>
<!-- v9 -->
<g id="v9_Room" class="node"><title>v9</title>
<ellipse fill="none" stroke="black" cx="342.5" cy="-69" rx="21.5" ry="11"/>
<text text-anchor="middle" x="342.5" y="-66.8" font-family="sans-serif" font-size="9.00">Room</text>
</g>
<!-- e4&#45;&gt;v9 -->
<g id="edge29" class="edge"><title>e4&#45;&gt;v9</title>
<path fill="none" stroke="green" d="M592.5,-126C592.5,-126 420.243,-87.4143 361.702,-74.3012"/>
</g>
<!-- e5&#45;&gt;v1 -->
<g id="edge31" class="edge"><title>e5&#45;&gt;v1</title>
<path fill="none" stroke="green" d="M461.5,-126C461.5,-126 335.809,-94.0059 274.436,-78.3838"/>
</g>
<!-- v8 -->
<g id="v8_SmartLight" class="node"><title>v8</title>
<ellipse fill="none" stroke="black" cx="597.5" cy="-11" rx="43" ry="11"/>
<text text-anchor="middle" x="597.5" y="-8.8" font-family="sans-serif" font-size="9.00">SmartLight</text>
</g>
<!-- e5&#45;&gt;v8 -->
<g id="edge32" class="edge"><title>e5&#45;&gt;v8</title>
<path fill="none" stroke="green" d="M461.5,-126C461.5,-126 468.072,-81.2868 491.5,-58 512.131,-37.4938 543.397,-25.4598 566.632,-18.8792"/>
</g>
<!-- e6&#45;&gt;v1 -->
<g id="edge34" class="edge"><title>e6&#45;&gt;v1</title>
<path fill="none" stroke="green" d="M194.5,-126C194.5,-126 219.578,-96.1193 233.097,-80.0117"/>
</g>
<!-- v10 -->
<g id="v10_SmartLight" class="node"><title>v10</title>
<ellipse fill="none" stroke="black" cx="277.5" cy="-11" rx="43" ry="11"/>
<text text-anchor="middle" x="277.5" y="-8.8" font-family="sans-serif" font-size="9.00">SmartLight</text>
</g>
<!-- e6&#45;&gt;v10 -->
<g id="edge35" class="edge"><title>e6&#45;&gt;v10</title>
<path fill="none" stroke="green" d="M194.5,-126C194.5,-126 153.998,-84.6748 171.5,-58 187.017,-34.3505 217.598,-22.7978 241.941,-17.1909"/>
</g>
<!-- e7&#45;&gt;v1 -->
<g id="edge37" class="edge"><title>e7&#45;&gt;v1</title>
<path fill="none" stroke="green" d="M279.5,-126C279.5,-126 259.224,-96.1193 248.294,-80.0117"/>
</g>
<!-- v14 -->
<g id="v14_SmartLight" class="node"><title>v14</title>
<ellipse fill="none" stroke="black" cx="381.5" cy="-11" rx="43" ry="11"/>
<text text-anchor="middle" x="381.5" y="-8.8" font-family="sans-serif" font-size="9.00">SmartLight</text>
</g>
<!-- e7&#45;&gt;v14 -->
<g id="edge38" class="edge"><title>e7&#45;&gt;v14</title>
<path fill="none" stroke="green" d="M279.5,-126C279.5,-126 345.65,-117.49 372.5,-80 384.843,-62.7669 384.372,-36.6233 382.94,-22.2919"/>
</g>
<!-- e8&#45;&gt;v1 -->
<g id="edge40" class="edge"><title>e8&#45;&gt;v1</title>
<path fill="none" stroke="green" d="M407.5,-126C407.5,-126 315.095,-94.8273 268.171,-78.9974"/>
</g>
<!-- v15 -->
<g id="v15_Workstation" class="node"><title>v15</title>
<ellipse fill="none" stroke="black" cx="489.5" cy="-11" rx="47" ry="11"/>
<text text-anchor="middle" x="489.5" y="-8.8" font-family="sans-serif" font-size="9.00">Workstation</text>
</g>
<!-- e8&#45;&gt;v15 -->
<g id="edge41" class="edge"><title>e8&#45;&gt;v15</title>
<path fill="none" stroke="green" d="M407.5,-126C407.5,-126 462.155,-50.0168 482.223,-22.1167"/>
</g>
<!-- e9&#45;&gt;v4 -->
<g id="edge43" class="edge"><title>e9&#45;&gt;v4</title>
<path fill="none" stroke="green" d="M862.5,-184C862.5,-184 844.133,-113.098 824.5,-58 820.034,-45.4656 814.065,-31.3653 810.018,-22.119"/>
</g>
<!-- v5 -->
<g id="v5_Room" class="node"><title>v5</title>
<ellipse fill="none" stroke="black" cx="650.5" cy="-127" rx="21.5" ry="11"/>
<text text-anchor="middle" x="650.5" y="-124.8" font-family="sans-serif" font-size="9.00">Room</text>
</g>
<!-- e9&#45;&gt;v5 -->
<g id="edge44" class="edge"><title>e9&#45;&gt;v5</title>
<path fill="none" stroke="green" d="M862.5,-184C862.5,-184 720.521,-146.496 668.943,-132.872"/>
</g>
<!-- v0&#45;&gt;v1 -->
<g id="edge2" class="edge"><title>v0&#45;&gt;v1</title>
<path fill="none" stroke="black" d="M335.339,-232.176C320.756,-214.292 289.852,-174.858 269.5,-138 259.826,-120.481 251.501,-98.9214 246.5,-84.8378"/>
<polygon fill="black" stroke="black" points="244.812,-80.0086 248.586,-83.9858 245.637,-82.3685 246.462,-84.7284 246.462,-84.7284 246.462,-84.7284 245.637,-82.3685 244.338,-85.4711 244.812,-80.0086 244.812,-80.0086"/>
</g>
<!-- v3 -->
<g id="v3_Floor" class="node"><title>v3</title>
<ellipse fill="none" stroke="black" cx="528.5" cy="-185" rx="25" ry="11"/>
<text text-anchor="middle" x="528.5" y="-182.8" font-family="sans-serif" font-size="9.00">Floor</text>
</g>
<!-- v0&#45;&gt;v3 -->
<g id="edge3" class="edge"><title>v0&#45;&gt;v3</title>
<path fill="none" stroke="black" d="M367.686,-234.679C402.972,-223.998 468.227,-204.245 503.801,-193.476"/>
<polygon fill="black" stroke="black" points="508.828,-191.955 504.694,-195.557 506.435,-192.679 504.042,-193.404 504.042,-193.404 504.042,-193.404 506.435,-192.679 503.39,-191.25 508.828,-191.955 508.828,-191.955"/>
</g>
<!-- v2 -->
<g id="v2_Data" class="node"><title>v2</title>
<ellipse fill="none" stroke="black" cx="194.5" cy="-11" rx="21.5" ry="11"/>
<text text-anchor="middle" x="194.5" y="-8.8" font-family="sans-serif" font-size="9.00">Data</text>
</g>
<!-- v1&#45;&gt;v2 -->
<g id="edge4" class="edge"><title>v1&#45;&gt;v2</title>
<path fill="none" stroke="black" d="M233.097,-57.9883C225.519,-48.9593 214.309,-35.6025 205.92,-25.6069"/>
<polygon fill="black" stroke="black" points="202.516,-21.5512 207.454,-23.9346 204.123,-23.4661 205.731,-25.3811 205.731,-25.3811 205.731,-25.3811 204.123,-23.4661 204.007,-26.8276 202.516,-21.5512 202.516,-21.5512"/>
</g>
<!-- v3&#45;&gt;v4 -->
<g id="edge5" class="edge"><title>v3&#45;&gt;v4</title>
<path fill="none" stroke="black" d="M550.818,-179.819C581.297,-173.546 637.108,-160.027 680.5,-138 718.704,-118.607 727.676,-110.76 757.5,-80 773.586,-63.4086 788.306,-41.0097 797.089,-26.5339"/>
<polygon fill="black" stroke="black" points="799.834,-21.9483 799.197,-27.3941 798.55,-24.0935 797.266,-26.2386 797.266,-26.2386 797.266,-26.2386 798.55,-24.0935 795.335,-25.0831 799.834,-21.9483 799.834,-21.9483"/>
</g>
<!-- v3&#45;&gt;v5 -->
<g id="edge6" class="edge"><title>v3&#45;&gt;v5</title>
<path fill="none" stroke="black" d="M544.701,-176.564C566.941,-166.355 606.889,-148.018 630.822,-137.033"/>
<polygon fill="black" stroke="black" points="635.385,-134.938 631.779,-139.069 633.112,-135.981 630.84,-137.024 630.84,-137.024 630.84,-137.024 633.112,-135.981 629.902,-134.979 635.385,-134.938 635.385,-134.938"/>
</g>
<!-- v3&#45;&gt;v9 -->
<g id="edge7" class="edge"><title>v3&#45;&gt;v9</title>
<path fill="none" stroke="black" d="M522.586,-174.264C513.245,-159.653 493.731,-132.057 470.5,-116 438.449,-93.846 394.54,-81.1405 367.373,-74.9071"/>
<polygon fill="black" stroke="black" points="362.171,-73.7458 367.542,-72.6394 364.611,-74.2906 367.051,-74.8353 367.051,-74.8353 367.051,-74.8353 364.611,-74.2906 366.561,-77.0313 362.171,-73.7458 362.171,-73.7458"/>
</g>
<!-- v3&#45;&gt;v13 -->
<g id="edge8" class="edge"><title>v3&#45;&gt;v13</title>
<path fill="none" stroke="black" d="M527.968,-173.883C526.916,-153.906 524.567,-109.276 523.318,-85.5402"/>
<polygon fill="black" stroke="black" points="523.04,-80.2579 525.55,-85.1327 523.171,-82.7545 523.303,-85.251 523.303,-85.251 523.303,-85.251 523.171,-82.7545 521.056,-85.3693 523.04,-80.2579 523.04,-80.2579"/>
</g>
<!-- v6 -->
<g id="v6_Visitor" class="node"><title>v6</title>
<ellipse fill="none" stroke="black" cx="687.5" cy="-69" rx="32.5" ry="11"/>
<text text-anchor="middle" x="687.5" y="-66.8" font-family="sans-serif" font-size="9.00">Visitor</text>
</g>
<!-- v5&#45;&gt;v6 -->
<g id="edge9" class="edge"><title>v5&#45;&gt;v6</title>
<path fill="none" stroke="black" d="M656.945,-116.246C662.762,-107.441 671.396,-94.373 678.004,-84.3724"/>
<polygon fill="black" stroke="black" points="680.88,-80.0198 680.001,-85.4318 679.502,-82.1056 678.123,-84.1914 678.123,-84.1914 678.123,-84.1914 679.502,-82.1056 676.246,-82.9511 680.88,-80.0198 680.88,-80.0198"/>
</g>
<!-- v5&#45;&gt;v8 -->
<g id="edge10" class="edge"><title>v5&#45;&gt;v8</title>
<path fill="none" stroke="black" d="M645.126,-116.241C640.108,-107.005 632.511,-92.7016 626.5,-80 617.992,-62.0222 609.158,-40.8918 603.51,-27.0135"/>
<polygon fill="black" stroke="black" points="601.58,-22.2478 605.542,-26.0375 602.518,-24.5649 603.457,-26.8821 603.457,-26.8821 603.457,-26.8821 602.518,-24.5649 601.371,-27.7268 601.58,-22.2478 601.58,-22.2478"/>
</g>
<!-- v6&#45;&gt;v7 -->
<g id="edge11" class="edge"><title>v6&#45;&gt;v7</title>
<path fill="none" stroke="black" d="M687.5,-57.9883C687.5,-49.4941 687.5,-37.1697 687.5,-27.4169"/>
<polygon fill="black" stroke="black" points="687.5,-22.3039 689.75,-27.3038 687.5,-24.8039 687.5,-27.3039 687.5,-27.3039 687.5,-27.3039 687.5,-24.8039 685.25,-27.3039 687.5,-22.3039 687.5,-22.3039"/>
</g>
<!-- v9&#45;&gt;v10 -->
<g id="edge12" class="edge"><title>v9&#45;&gt;v10</title>
<path fill="none" stroke="black" d="M332.344,-59.25C321.693,-50.0744 304.838,-35.5532 292.623,-25.0291"/>
<polygon fill="black" stroke="black" points="288.674,-21.6267 293.931,-23.1857 290.568,-23.2585 292.462,-24.8903 292.462,-24.8903 292.462,-24.8903 290.568,-23.2585 290.993,-26.595 288.674,-21.6267 288.674,-21.6267"/>
</g>
<!-- v9&#45;&gt;v11 -->
<g id="edge13" class="edge"><title>v9&#45;&gt;v11</title>
<path fill="none" stroke="black" d="M325.189,-62.1679C320.747,-60.7397 315.962,-59.2607 311.5,-58 246.354,-39.5962 229.125,-38.6148 163.5,-22 160.045,-21.1252 156.417,-20.1909 152.831,-19.2578"/>
<polygon fill="black" stroke="black" points="147.987,-17.992 153.393,-17.0794 150.406,-18.6241 152.824,-19.2562 152.824,-19.2562 152.824,-19.2562 150.406,-18.6241 152.255,-21.4331 147.987,-17.992 147.987,-17.992"/>
</g>
<!-- v9&#45;&gt;v12 -->
<g id="edge14" class="edge"><title>v9&#45;&gt;v12</title>
<path fill="none" stroke="black" d="M325.578,-62.0257C321.044,-60.5673 316.119,-59.1093 311.5,-58 213.455,-34.4534 186.661,-40.2875 87.5,-22 83.0738,-21.1837 78.4283,-20.278 73.8429,-19.3547"/>
<polygon fill="black" stroke="black" points="68.9042,-18.3492 74.2525,-17.142 71.3539,-18.848 73.8037,-19.3468 73.8037,-19.3468 73.8037,-19.3468 71.3539,-18.848 73.3548,-21.5515 68.9042,-18.3492 68.9042,-18.3492"/>
</g>
<!-- v13&#45;&gt;v14 -->
<g id="edge15" class="edge"><title>v13&#45;&gt;v14</title>
<path fill="none" stroke="black" d="M506.326,-61.5761C482.256,-52.0164 436.749,-33.9429 407.836,-22.4595"/>
<polygon fill="black" stroke="black" points="402.992,-20.5357 408.469,-20.2902 405.315,-21.4585 407.638,-22.3813 407.638,-22.3813 407.638,-22.3813 405.315,-21.4585 406.808,-24.4724 402.992,-20.5357 402.992,-20.5357"/>
</g>
<!-- v13&#45;&gt;v15 -->
<g id="edge16" class="edge"><title>v13&#45;&gt;v15</title>
<path fill="none" stroke="black" d="M516.752,-58.2455C511.563,-49.4409 503.863,-36.373 497.969,-26.3724"/>
<polygon fill="black" stroke="black" points="495.404,-22.0198 499.881,-25.1851 496.674,-24.1736 497.943,-26.3275 497.943,-26.3275 497.943,-26.3275 496.674,-24.1736 496.005,-27.4698 495.404,-22.0198 495.404,-22.0198"/>
</g>
</g>
</svg>
