<?xml version="1.0" encoding="UTF-8" standalone="no"?>
<?xml-stylesheet href="style.css" type="text/css"?>
<!DOCTYPE svg PUBLIC "-//W3C//DTD SVG 1.1//EN"
 "http://www.w3.org/Graphics/SVG/1.1/DTD/svg11.dtd">
<!-- Generated by graphviz version 2.38.0 (20140413.2041)
 -->
<!-- Title: 0.svg Pages: 1 -->
<svg width="981pt" height="316pt"
 viewBox="0.00 0.00 981.17 316.00" xmlns="http://www.w3.org/2000/svg" xmlns:xlink="http://www.w3.org/1999/xlink">
<g id="graph0" class="graph" transform="scale(1 1) rotate(0) translate(4 312)">
<title>0.svg</title>
<polygon fill="white" stroke="none" points="-4,4 -4,-312 977.168,-312 977.168,4 -4,4"/>
<!-- r0 -->
<g id="node1" class="node"><title>r0</title>
<polygon fill="none" stroke="black" stroke-dasharray="5,2" points="770.5,-308 747.5,-308 747.5,-290 770.5,-290 770.5,-308"/>
<text text-anchor="middle" x="759" y="-296.8" font-family="serif" font-size="9.00">0</text>
</g>
<!-- v0 -->
<g id="v0_H" class="node"><title>v0</title>
<ellipse fill="none" stroke="black" cx="759" cy="-243" rx="11" ry="11"/>
<text text-anchor="middle" x="759" y="-240.8" font-family="sans-serif" font-size="9.00">H</text>
</g>
<!-- r0&#45;&gt;v0 -->
<g id="edge1" class="edge"><title>r0&#45;&gt;v0</title>
<path fill="none" stroke="black" d="M759,-289.562C759,-281.453 759,-269.014 759,-259.181"/>
<polygon fill="black" stroke="black" points="759,-254.03 761.25,-259.03 759,-256.53 759,-259.03 759,-259.03 759,-259.03 759,-256.53 756.75,-259.03 759,-254.03 759,-254.03"/>
</g>
<!-- odb -->
<g id="node2" class="node"><title>odb</title>
<text text-anchor="middle" x="670" y="-296.8" font-family="serif" font-size="9.00">db</text>
</g>
<!-- e8 -->
<g id="node11" class="node"><title>e8</title>
</g>
<!-- odb&#45;&gt;e8 -->
<g id="edge32" class="edge"><title>odb&#45;&gt;e8</title>
<path fill="none" stroke="green" d="M670,-289.562C670,-274.375 670,-244 670,-244"/>
</g>
<!-- e0 -->
<g id="node3" class="node"><title>e0</title>
</g>
<!-- v2 -->
<g id="v2_Record" class="node"><title>v2</title>
<ellipse fill="none" stroke="black" cx="90" cy="-127" rx="29" ry="11"/>
<text text-anchor="middle" x="90" y="-124.8" font-family="sans-serif" font-size="9.00">Record</text>
</g>
<!-- e0&#45;&gt;v2 -->
<g id="edge24" class="edge"><title>e0&#45;&gt;v2</title>
<path fill="none" stroke="green" d="M90,-180.167C90,-171.586 90,-150.596 90,-138.012"/>
<polygon fill="green" stroke="green" points="93.5,-183.3 86.5,-183.3 86.5001,-181.9 93.5001,-181.9 93.5,-183.3"/>
<polyline fill="none" stroke="green" points="90,-184 90.0001,-180.5 "/>
</g>
<!-- e1 -->
<g id="node4" class="node"><title>e1</title>
</g>
<!-- v6 -->
<g id="v6_Record" class="node"><title>v6</title>
<ellipse fill="none" stroke="black" cx="220" cy="-127" rx="29" ry="11"/>
<text text-anchor="middle" x="220" y="-124.8" font-family="sans-serif" font-size="9.00">Record</text>
</g>
<!-- e1&#45;&gt;v6 -->
<g id="edge25" class="edge"><title>e1&#45;&gt;v6</title>
<path fill="none" stroke="green" d="M220,-180.167C220,-171.586 220,-150.596 220,-138.012"/>
<polygon fill="green" stroke="green" points="223.5,-183.3 216.5,-183.3 216.5,-181.9 223.5,-181.9 223.5,-183.3"/>
<polyline fill="none" stroke="green" points="220,-184 220,-180.5 "/>
</g>
<!-- e2 -->
<g id="node5" class="node"><title>e2</title>
</g>
<!-- v10 -->
<g id="v10_Record" class="node"><title>v10</title>
<ellipse fill="none" stroke="black" cx="343" cy="-127" rx="29" ry="11"/>
<text text-anchor="middle" x="343" y="-124.8" font-family="sans-serif" font-size="9.00">Record</text>
</g>
<!-- e2&#45;&gt;v10 -->
<g id="edge26" class="edge"><title>e2&#45;&gt;v10</title>
<path fill="none" stroke="green" d="M343,-180.167C343,-171.586 343,-150.596 343,-138.012"/>
<polygon fill="green" stroke="green" points="346.5,-183.3 339.5,-183.3 339.5,-181.9 346.5,-181.9 346.5,-183.3"/>
<polyline fill="none" stroke="green" points="343,-184 343,-180.5 "/>
</g>
<!-- e3 -->
<g id="node6" class="node"><title>e3</title>
</g>
<!-- v14 -->
<g id="v14_Record" class="node"><title>v14</title>
<ellipse fill="none" stroke="black" cx="419" cy="-127" rx="29" ry="11"/>
<text text-anchor="middle" x="419" y="-124.8" font-family="sans-serif" font-size="9.00">Record</text>
</g>
<!-- e3&#45;&gt;v14 -->
<g id="edge27" class="edge"><title>e3&#45;&gt;v14</title>
<path fill="none" stroke="green" d="M419,-180.167C419,-171.586 419,-150.596 419,-138.012"/>
<polygon fill="green" stroke="green" points="422.5,-183.3 415.5,-183.3 415.5,-181.9 422.5,-181.9 422.5,-183.3"/>
<polyline fill="none" stroke="green" points="419,-184 419,-180.5 "/>
</g>
<!-- e4 -->
<g id="node7" class="node"><title>e4</title>
</g>
<!-- v19 -->
<g id="v19_Nurse" class="node"><title>v19</title>
<ellipse fill="none" stroke="black" cx="628" cy="-11" rx="25" ry="11"/>
<text text-anchor="middle" x="628" y="-8.8" font-family="sans-serif" font-size="9.00">Nurse</text>
</g>
<!-- e4&#45;&gt;v19 -->
<g id="edge28" class="edge"><title>e4&#45;&gt;v19</title>
<path fill="none" stroke="green" d="M619.616,-64.1674C620.995,-55.5862 624.369,-34.5957 626.391,-22.0117"/>
<polygon fill="green" stroke="green" points="622.567,-67.8643 615.655,-66.7534 615.878,-65.3712 622.789,-66.4821 622.567,-67.8643"/>
<polyline fill="none" stroke="green" points="619,-68 619.555,-64.5443 "/>
</g>
<!-- e5 -->
<g id="node8" class="node"><title>e5</title>
</g>
<!-- v20 -->
<g id="v20_Nurse" class="node"><title>v20</title>
<ellipse fill="none" stroke="black" cx="715" cy="-11" rx="25" ry="11"/>
<text text-anchor="middle" x="715" y="-8.8" font-family="sans-serif" font-size="9.00">Nurse</text>
</g>
<!-- e5&#45;&gt;v20 -->
<g id="edge29" class="edge"><title>e5&#45;&gt;v20</title>
<path fill="none" stroke="green" d="M715,-64.1674C715,-55.5862 715,-34.5957 715,-22.0117"/>
<polygon fill="green" stroke="green" points="718.5,-67.3001 711.5,-67.2999 711.5,-65.8999 718.5,-65.9001 718.5,-67.3001"/>
<polyline fill="none" stroke="green" points="715,-68 715,-64.5 "/>
</g>
<!-- e6 -->
<g id="node9" class="node"><title>e6</title>
</g>
<!-- v21 -->
<g id="v21_Nurse" class="node"><title>v21</title>
<ellipse fill="none" stroke="black" cx="811" cy="-11" rx="25" ry="11"/>
<text text-anchor="middle" x="811" y="-8.8" font-family="sans-serif" font-size="9.00">Nurse</text>
</g>
<!-- e6&#45;&gt;v21 -->
<g id="edge30" class="edge"><title>e6&#45;&gt;v21</title>
<path fill="none" stroke="green" d="M811,-64.1674C811,-55.5862 811,-34.5957 811,-22.0117"/>
<polygon fill="green" stroke="green" points="814.5,-67.3001 807.5,-67.2999 807.5,-65.8999 814.5,-65.9001 814.5,-67.3001"/>
<polyline fill="none" stroke="green" points="811,-68 811,-64.5 "/>
</g>
<!-- e7 -->
<g id="node10" class="node"><title>e7</title>
</g>
<!-- v22 -->
<g id="v22_Doc" class="node"><title>v22</title>
<ellipse fill="none" stroke="black" cx="907" cy="-11" rx="18" ry="11"/>
<text text-anchor="middle" x="907" y="-8.8" font-family="sans-serif" font-size="9.00">Doc</text>
</g>
<!-- e7&#45;&gt;v22 -->
<g id="edge31" class="edge"><title>e7&#45;&gt;v22</title>
<path fill="none" stroke="green" d="M907,-64.1674C907,-55.5862 907,-34.5957 907,-22.0117"/>
<polygon fill="green" stroke="green" points="910.5,-67.3001 903.5,-67.2999 903.5,-65.8999 910.5,-65.9001 910.5,-67.3001"/>
<polyline fill="none" stroke="green" points="907,-68 907,-64.5 "/>
</g>
<!-- v1 -->
<g id="v1_DB" class="node"><title>v1</title>
<ellipse fill="none" stroke="black" cx="310" cy="-185" rx="14.5" ry="11"/>
<text text-anchor="middle" x="310" y="-182.8" font-family="sans-serif" font-size="9.00">DB</text>
</g>
<!-- e8&#45;&gt;v1 -->
<g id="edge33" class="edge"><title>e8&#45;&gt;v1</title>
<path fill="none" stroke="green" d="M670,-242C670,-242 478.573,-236.742 333,-196 329.31,-194.967 325.439,-193.463 321.948,-191.933"/>
</g>
<!-- v18 -->
<g id="v18_DBadmin" class="node"><title>v18</title>
<ellipse fill="none" stroke="black" cx="552" cy="-11" rx="32.5" ry="11"/>
<text text-anchor="middle" x="552" y="-8.8" font-family="sans-serif" font-size="9.00">DBadmin</text>
</g>
<!-- e8&#45;&gt;v18 -->
<g id="edge34" class="edge"><title>e8&#45;&gt;v18</title>
<path fill="none" stroke="green" d="M670,-242C670,-242 603.127,-233.782 576,-196 536.544,-141.046 545.67,-52.435 550.224,-22.3648"/>
</g>
<!-- e8&#45;&gt;v19 -->
<g id="edge35" class="edge"><title>e8&#45;&gt;v19</title>
<path fill="none" stroke="green" d="M670,-242C670,-242 637.987,-66.6915 629.859,-22.1796"/>
</g>
<!-- e8&#45;&gt;v20 -->
<g id="edge36" class="edge"><title>e8&#45;&gt;v20</title>
<path fill="none" stroke="green" d="M670,-242C670,-242 711.843,-154.915 724,-80 727.319,-59.5468 721.969,-35.4828 718.2,-22.1654"/>
</g>
<!-- e8&#45;&gt;v21 -->
<g id="edge37" class="edge"><title>e8&#45;&gt;v21</title>
<path fill="none" stroke="green" d="M670,-242C670,-242 784.199,-171.36 820,-80 827.647,-60.4859 820.525,-35.663 815.328,-22.0544"/>
</g>
<!-- e8&#45;&gt;v22 -->
<g id="edge38" class="edge"><title>e8&#45;&gt;v22</title>
<path fill="none" stroke="green" d="M670,-242C670,-242 856.683,-196.701 916,-80 925.605,-61.1037 917.502,-35.6098 911.672,-21.8287"/>
</g>
<!-- v0&#45;&gt;v1 -->
<g id="edge2" class="edge"><title>v0&#45;&gt;v1</title>
<path fill="none" stroke="black" d="M748.139,-240.57C732.761,-238.562 703.753,-234.834 679,-232 525.396,-214.411 482.534,-235.283 333,-196 330.821,-195.427 328.583,-194.678 326.399,-193.846"/>
<polygon fill="black" stroke="black" points="321.454,-191.801 326.934,-191.633 323.764,-192.756 326.074,-193.712 326.074,-193.712 326.074,-193.712 323.764,-192.756 325.214,-195.791 321.454,-191.801 321.454,-191.801"/>
</g>
<!-- v0&#45;&gt;v18 -->
<g id="edge3" class="edge"><title>v0&#45;&gt;v18</title>
<path fill="none" stroke="black" d="M751.681,-234.368C729.698,-211.386 662.468,-140.681 609,-80 592.757,-61.5651 574.627,-39.7051 563.268,-25.8442"/>
<polygon fill="black" stroke="black" points="559.969,-21.8119 564.877,-24.2574 561.552,-23.747 563.135,-25.682 563.135,-25.682 563.135,-25.682 561.552,-23.747 561.393,-27.1067 559.969,-21.8119 559.969,-21.8119"/>
</g>
<!-- v0&#45;&gt;v19 -->
<g id="edge4" class="edge"><title>v0&#45;&gt;v19</title>
<path fill="none" stroke="black" d="M753.865,-232.984C733.828,-197.805 660.803,-69.5925 636.174,-26.3519"/>
<polygon fill="black" stroke="black" points="633.68,-21.9722 638.11,-25.2034 634.917,-24.1446 636.154,-26.317 636.154,-26.317 636.154,-26.317 634.917,-24.1446 634.199,-27.4305 633.68,-21.9722 633.68,-21.9722"/>
</g>
<!-- v0&#45;&gt;v20 -->
<g id="edge5" class="edge"><title>v0&#45;&gt;v20</title>
<path fill="none" stroke="black" d="M761.406,-231.944C767.727,-203.419 782.676,-120.038 758,-58 752.556,-44.3122 740.929,-32.2891 731.137,-23.9707"/>
<polygon fill="black" stroke="black" points="727.076,-20.6384 732.369,-22.0707 729.009,-22.2242 730.941,-23.8101 730.941,-23.8101 730.941,-23.8101 729.009,-22.2242 729.514,-25.5495 727.076,-20.6384 727.076,-20.6384"/>
</g>
<!-- v0&#45;&gt;v21 -->
<g id="edge6" class="edge"><title>v0&#45;&gt;v21</title>
<path fill="none" stroke="black" d="M770.016,-240.458C790.759,-236.894 835.216,-225.966 854,-196 886.576,-144.033 876.513,-115.052 854,-58 848.593,-44.2974 836.964,-32.2752 827.162,-23.9607"/>
<polygon fill="black" stroke="black" points="823.096,-20.6303 828.39,-22.0582 825.03,-22.2146 826.964,-23.7988 826.964,-23.7988 826.964,-23.7988 825.03,-22.2146 825.538,-25.5394 823.096,-20.6303 823.096,-20.6303"/>
</g>
<!-- v0&#45;&gt;v22 -->
<g id="edge7" class="edge"><title>v0&#45;&gt;v22</title>
<path fill="none" stroke="black" d="M769.862,-241.101C806.901,-237.791 927.205,-224.936 950,-196 987.954,-147.82 972.513,-115.052 950,-58 944.452,-43.9415 932.356,-31.6518 922.402,-23.3204"/>
<polygon fill="black" stroke="black" points="918.292,-19.9986 923.595,-21.3919 920.237,-21.5702 922.181,-23.1418 922.181,-23.1418 922.181,-23.1418 920.237,-21.5702 920.767,-24.8916 918.292,-19.9986 918.292,-19.9986"/>
</g>
<!-- v1&#45;&gt;v2 -->
<g id="edge8" class="edge"><title>v1&#45;&gt;v2</title>
<path fill="none" stroke="black" d="M296.569,-180.581C261.375,-171.623 165.896,-147.319 118.078,-135.147"/>
<polygon fill="black" stroke="black" points="113.046,-133.866 118.447,-132.919 115.469,-134.483 117.892,-135.1 117.892,-135.1 117.892,-135.1 115.469,-134.483 117.337,-137.28 113.046,-133.866 113.046,-133.866"/>
</g>
<!-- v1&#45;&gt;v6 -->
<g id="edge9" class="edge"><title>v1&#45;&gt;v6</title>
<path fill="none" stroke="black" d="M299.322,-177.356C284.385,-168.061 257.024,-151.037 238.673,-139.618"/>
<polygon fill="black" stroke="black" points="234.214,-136.844 239.648,-137.576 236.337,-138.165 238.46,-139.486 238.46,-139.486 238.46,-139.486 236.337,-138.165 237.271,-141.396 234.214,-136.844 234.214,-136.844"/>
</g>
<!-- v1&#45;&gt;v10 -->
<g id="edge10" class="edge"><title>v1&#45;&gt;v10</title>
<path fill="none" stroke="black" d="M315.449,-174.753C320.656,-165.917 328.581,-152.469 334.596,-142.261"/>
<polygon fill="black" stroke="black" points="337.209,-137.827 336.609,-143.277 335.94,-139.98 334.671,-142.134 334.671,-142.134 334.671,-142.134 335.94,-139.98 332.732,-140.992 337.209,-137.827 337.209,-137.827"/>
</g>
<!-- v1&#45;&gt;v14 -->
<g id="edge11" class="edge"><title>v1&#45;&gt;v14</title>
<path fill="none" stroke="black" d="M321.665,-178.007C339.918,-168.629 375.489,-150.354 398.203,-138.685"/>
<polygon fill="black" stroke="black" points="402.843,-136.301 399.424,-140.587 400.62,-137.443 398.396,-138.586 398.396,-138.586 398.396,-138.586 400.62,-137.443 397.368,-136.584 402.843,-136.301 402.843,-136.301"/>
</g>
<!-- v3 -->
<g id="v3_Id(0)" class="node"><title>v3</title>
<ellipse fill="none" stroke="black" cx="25" cy="-11" rx="25" ry="11"/>
<text text-anchor="middle" x="25" y="-8.8" font-family="sans-serif" font-size="9.00">Id(0)</text>
</g>
<!-- v2&#45;&gt;v3 -->
<g id="edge12" class="edge"><title>v2&#45;&gt;v3</title>
<path fill="none" stroke="black" d="M79.341,-116.742C69.9429,-108.076 56.4631,-94.3432 48,-80 38.0727,-63.1753 31.6794,-41.46 28.2142,-27.1509"/>
<polygon fill="black" stroke="black" points="27.0689,-22.2371 30.3952,-26.5958 27.6364,-24.6718 28.2039,-27.1065 28.2039,-27.1065 28.2039,-27.1065 27.6364,-24.6718 26.0127,-27.6173 27.0689,-22.2371 27.0689,-22.2371"/>
</g>
<!-- v4 -->
<g id="v4_Private" class="node"><title>v4</title>
<ellipse fill="none" stroke="black" cx="90" cy="-69" rx="32.5" ry="11"/>
<text text-anchor="middle" x="90" y="-66.8" font-family="sans-serif" font-size="9.00">Private</text>
</g>
<!-- v2&#45;&gt;v4 -->
<g id="edge13" class="edge"><title>v2&#45;&gt;v4</title>
<path fill="none" stroke="black" d="M90,-115.988C90,-107.494 90,-95.1697 90,-85.4169"/>
<polygon fill="black" stroke="black" points="90,-80.3039 92.2501,-85.3038 90,-82.8039 90.0001,-85.3039 90.0001,-85.3039 90.0001,-85.3039 90,-82.8039 87.7501,-85.3039 90,-80.3039 90,-80.3039"/>
</g>
<!-- v5 -->
<g id="v5_Data" class="node"><title>v5</title>
<ellipse fill="none" stroke="black" cx="90" cy="-11" rx="21.5" ry="11"/>
<text text-anchor="middle" x="90" y="-8.8" font-family="sans-serif" font-size="9.00">Data</text>
</g>
<!-- v4&#45;&gt;v5 -->
<g id="edge14" class="edge"><title>v4&#45;&gt;v5</title>
<path fill="none" stroke="black" d="M90,-57.9883C90,-49.4941 90,-37.1697 90,-27.4169"/>
<polygon fill="black" stroke="black" points="90,-22.3039 92.2501,-27.3038 90,-24.8039 90.0001,-27.3039 90.0001,-27.3039 90.0001,-27.3039 90,-24.8039 87.7501,-27.3039 90,-22.3039 90,-22.3039"/>
</g>
<!-- v7 -->
<g id="v7_Id(1)" class="node"><title>v7</title>
<ellipse fill="none" stroke="black" cx="155" cy="-11" rx="25" ry="11"/>
<text text-anchor="middle" x="155" y="-8.8" font-family="sans-serif" font-size="9.00">Id(1)</text>
</g>
<!-- v6&#45;&gt;v7 -->
<g id="edge15" class="edge"><title>v6&#45;&gt;v7</title>
<path fill="none" stroke="black" d="M209.341,-116.742C199.943,-108.076 186.463,-94.3432 178,-80 168.073,-63.1753 161.679,-41.46 158.214,-27.1509"/>
<polygon fill="black" stroke="black" points="157.069,-22.2371 160.395,-26.5958 157.636,-24.6718 158.204,-27.1065 158.204,-27.1065 158.204,-27.1065 157.636,-24.6718 156.013,-27.6173 157.069,-22.2371 157.069,-22.2371"/>
</g>
<!-- v8 -->
<g id="v8_Private" class="node"><title>v8</title>
<ellipse fill="none" stroke="black" cx="220" cy="-69" rx="32.5" ry="11"/>
<text text-anchor="middle" x="220" y="-66.8" font-family="sans-serif" font-size="9.00">Private</text>
</g>
<!-- v6&#45;&gt;v8 -->
<g id="edge16" class="edge"><title>v6&#45;&gt;v8</title>
<path fill="none" stroke="black" d="M220,-115.988C220,-107.494 220,-95.1697 220,-85.4169"/>
<polygon fill="black" stroke="black" points="220,-80.3039 222.25,-85.3038 220,-82.8039 220,-85.3039 220,-85.3039 220,-85.3039 220,-82.8039 217.75,-85.3039 220,-80.3039 220,-80.3039"/>
</g>
<!-- v9 -->
<g id="v9_Data" class="node"><title>v9</title>
<ellipse fill="none" stroke="black" cx="220" cy="-11" rx="21.5" ry="11"/>
<text text-anchor="middle" x="220" y="-8.8" font-family="sans-serif" font-size="9.00">Data</text>
</g>
<!-- v8&#45;&gt;v9 -->
<g id="edge17" class="edge"><title>v8&#45;&gt;v9</title>
<path fill="none" stroke="black" d="M220,-57.9883C220,-49.4941 220,-37.1697 220,-27.4169"/>
<polygon fill="black" stroke="black" points="220,-22.3039 222.25,-27.3038 220,-24.8039 220,-27.3039 220,-27.3039 220,-27.3039 220,-24.8039 217.75,-27.3039 220,-22.3039 220,-22.3039"/>
</g>
<!-- v11 -->
<g id="v11_Id(2)" class="node"><title>v11</title>
<ellipse fill="none" stroke="black" cx="285" cy="-11" rx="25" ry="11"/>
<text text-anchor="middle" x="285" y="-8.8" font-family="sans-serif" font-size="9.00">Id(2)</text>
</g>
<!-- v10&#45;&gt;v11 -->
<g id="edge18" class="edge"><title>v10&#45;&gt;v11</title>
<path fill="none" stroke="black" d="M333.587,-116.549C325.292,-107.753 313.407,-93.9376 306,-80 296.991,-63.0474 291.182,-41.6239 288.007,-27.4015"/>
<polygon fill="black" stroke="black" points="286.881,-22.1456 290.129,-26.5631 287.405,-24.5901 287.929,-27.0346 287.929,-27.0346 287.929,-27.0346 287.405,-24.5901 285.729,-27.5061 286.881,-22.1456 286.881,-22.1456"/>
</g>
<!-- v12 -->
<g id="v12_Private" class="node"><title>v12</title>
<ellipse fill="none" stroke="black" cx="348" cy="-69" rx="32.5" ry="11"/>
<text text-anchor="middle" x="348" y="-66.8" font-family="sans-serif" font-size="9.00">Private</text>
</g>
<!-- v10&#45;&gt;v12 -->
<g id="edge19" class="edge"><title>v10&#45;&gt;v12</title>
<path fill="none" stroke="black" d="M343.894,-115.988C344.652,-107.494 345.753,-95.1697 346.623,-85.4169"/>
<polygon fill="black" stroke="black" points="347.08,-80.3039 348.876,-85.4842 346.858,-82.794 346.635,-85.2841 346.635,-85.2841 346.635,-85.2841 346.858,-82.794 344.394,-85.0839 347.08,-80.3039 347.08,-80.3039"/>
</g>
<!-- v13 -->
<g id="v13_Data" class="node"><title>v13</title>
<ellipse fill="none" stroke="black" cx="350" cy="-11" rx="21.5" ry="11"/>
<text text-anchor="middle" x="350" y="-8.8" font-family="sans-serif" font-size="9.00">Data</text>
</g>
<!-- v12&#45;&gt;v13 -->
<g id="edge20" class="edge"><title>v12&#45;&gt;v13</title>
<path fill="none" stroke="black" d="M348.358,-57.9883C348.661,-49.4941 349.101,-37.1697 349.449,-27.4169"/>
<polygon fill="black" stroke="black" points="349.632,-22.3039 351.702,-27.381 349.543,-24.8023 349.453,-27.3007 349.453,-27.3007 349.453,-27.3007 349.543,-24.8023 347.205,-27.2203 349.632,-22.3039 349.632,-22.3039"/>
</g>
<!-- v15 -->
<g id="v15_Id(3)" class="node"><title>v15</title>
<ellipse fill="none" stroke="black" cx="415" cy="-11" rx="25" ry="11"/>
<text text-anchor="middle" x="415" y="-8.8" font-family="sans-serif" font-size="9.00">Id(3)</text>
</g>
<!-- v14&#45;&gt;v15 -->
<g id="edge21" class="edge"><title>v14&#45;&gt;v15</title>
<path fill="none" stroke="black" d="M418.645,-115.883C417.944,-95.9059 416.378,-51.276 415.545,-27.5402"/>
<polygon fill="black" stroke="black" points="415.36,-22.2579 417.784,-27.1759 415.448,-24.7564 415.535,-27.2549 415.535,-27.2549 415.535,-27.2549 415.448,-24.7564 413.287,-27.3338 415.36,-22.2579 415.36,-22.2579"/>
</g>
<!-- v16 -->
<g id="v16_Private" class="node"><title>v16</title>
<ellipse fill="none" stroke="black" cx="478" cy="-69" rx="32.5" ry="11"/>
<text text-anchor="middle" x="478" y="-66.8" font-family="sans-serif" font-size="9.00">Private</text>
</g>
<!-- v14&#45;&gt;v16 -->
<g id="edge22" class="edge"><title>v14&#45;&gt;v16</title>
<path fill="none" stroke="black" d="M429.009,-116.5C438.613,-107.385 453.206,-93.5334 463.969,-83.318"/>
<polygon fill="black" stroke="black" points="467.744,-79.7345 465.666,-84.8086 465.931,-81.4555 464.117,-83.1766 464.117,-83.1766 464.117,-83.1766 465.931,-81.4555 462.569,-81.5447 467.744,-79.7345 467.744,-79.7345"/>
</g>
<!-- v17 -->
<g id="v17_Data" class="node"><title>v17</title>
<ellipse fill="none" stroke="black" cx="480" cy="-11" rx="21.5" ry="11"/>
<text text-anchor="middle" x="480" y="-8.8" font-family="sans-serif" font-size="9.00">Data</text>
</g>
<!-- v16&#45;&gt;v17 -->
<g id="edge23" class="edge"><title>v16&#45;&gt;v17</title>
<path fill="none" stroke="black" d="M478.358,-57.9883C478.661,-49.4941 479.101,-37.1697 479.449,-27.4169"/>
<polygon fill="black" stroke="black" points="479.632,-22.3039 481.702,-27.381 479.543,-24.8023 479.453,-27.3007 479.453,-27.3007 479.453,-27.3007 479.543,-24.8023 477.205,-27.2203 479.632,-22.3039 479.632,-22.3039"/>
</g>
</g>
</svg>
