<?xml version="1.0" encoding="UTF-8" standalone="no"?>
<?xml-stylesheet href="style.css" type="text/css"?>
<!DOCTYPE svg PUBLIC "-//W3C//DTD SVG 1.1//EN"
 "http://www.w3.org/Graphics/SVG/1.1/DTD/svg11.dtd">
<!-- Generated by graphviz version 2.38.0 (20140413.2041)
 -->
<!-- Title: 100.svg Pages: 1 -->
<svg width="999pt" height="316pt"
 viewBox="0.00 0.00 999.45 316.00" xmlns="http://www.w3.org/2000/svg" xmlns:xlink="http://www.w3.org/1999/xlink">
<g id="graph0" class="graph" transform="scale(1 1) rotate(0) translate(4 312)">
<title>100.svg</title>
<polygon fill="white" stroke="none" points="-4,4 -4,-312 995.45,-312 995.45,4 -4,4"/>
<!-- r0 -->
<g id="node1" class="node"><title>r0</title>
<polygon fill="none" stroke="black" stroke-dasharray="5,2" points="305.95,-308 282.95,-308 282.95,-290 305.95,-290 305.95,-308"/>
<text text-anchor="middle" x="294.45" y="-296.8" font-family="serif" font-size="9.00">0</text>
</g>
<!-- v0 -->
<g id="v0_H" class="node"><title>v0</title>
<ellipse fill="none" stroke="black" cx="294.45" cy="-243" rx="11" ry="11"/>
<text text-anchor="middle" x="294.45" y="-240.8" font-family="sans-serif" font-size="9.00">H</text>
</g>
<!-- r0&#45;&gt;v0 -->
<g id="edge1" class="edge"><title>r0&#45;&gt;v0</title>
<path fill="none" stroke="black" d="M294.45,-289.562C294.45,-281.453 294.45,-269.014 294.45,-259.181"/>
<polygon fill="black" stroke="black" points="294.45,-254.03 296.7,-259.03 294.45,-256.53 294.45,-259.03 294.45,-259.03 294.45,-259.03 294.45,-256.53 292.2,-259.03 294.45,-254.03 294.45,-254.03"/>
</g>
<!-- odb -->
<g id="node2" class="node"><title>odb</title>
<text text-anchor="middle" x="404.45" y="-296.8" font-family="serif" font-size="9.00">db</text>
</g>
<!-- e8 -->
<g id="node8" class="node"><title>e8</title>
</g>
<!-- odb&#45;&gt;e8 -->
<g id="edge35" class="edge"><title>odb&#45;&gt;e8</title>
<path fill="none" stroke="green" d="M404.45,-289.562C404.45,-274.375 404.45,-244 404.45,-244"/>
</g>
<!-- e1 -->
<g id="node3" class="node"><title>e1</title>
</g>
<!-- v4 -->
<g id="v4_Nurse" class="node"><title>v4</title>
<ellipse fill="none" stroke="black" cx="176.45" cy="-69" rx="25" ry="11"/>
<text text-anchor="middle" x="176.45" y="-66.8" font-family="sans-serif" font-size="9.00">Nurse</text>
</g>
<!-- e1&#45;&gt;v4 -->
<g id="edge28" class="edge"><title>e1&#45;&gt;v4</title>
<path fill="none" stroke="green" d="M176.45,-122.167C176.45,-113.586 176.45,-92.5957 176.45,-80.0117"/>
<polygon fill="green" stroke="green" points="179.95,-125.3 172.95,-125.3 172.95,-123.9 179.95,-123.9 179.95,-125.3"/>
<polyline fill="none" stroke="green" points="176.45,-126 176.45,-122.5 "/>
</g>
<!-- e3 -->
<g id="node4" class="node"><title>e3</title>
</g>
<!-- v7 -->
<g id="v7_Nurse" class="node"><title>v7</title>
<ellipse fill="none" stroke="black" cx="42.4503" cy="-69" rx="25" ry="11"/>
<text text-anchor="middle" x="42.4503" y="-66.8" font-family="sans-serif" font-size="9.00">Nurse</text>
</g>
<!-- e3&#45;&gt;v7 -->
<g id="edge30" class="edge"><title>e3&#45;&gt;v7</title>
<path fill="none" stroke="green" d="M42.4503,-122.167C42.4503,-113.586 42.4503,-92.5957 42.4503,-80.0117"/>
<polygon fill="green" stroke="green" points="45.9503,-125.3 38.9503,-125.3 38.9504,-123.9 45.9504,-123.9 45.9503,-125.3"/>
<polyline fill="none" stroke="green" points="42.4503,-126 42.4504,-122.5 "/>
</g>
<!-- e5 -->
<g id="node5" class="node"><title>e5</title>
</g>
<!-- v10 -->
<g id="v10_Doc" class="node"><title>v10</title>
<ellipse fill="none" stroke="black" cx="973.45" cy="-69" rx="18" ry="11"/>
<text text-anchor="middle" x="973.45" y="-66.8" font-family="sans-serif" font-size="9.00">Doc</text>
</g>
<!-- e5&#45;&gt;v10 -->
<g id="edge32" class="edge"><title>e5&#45;&gt;v10</title>
<path fill="none" stroke="green" d="M973.45,-122.167C973.45,-113.586 973.45,-92.5957 973.45,-80.0117"/>
<polygon fill="green" stroke="green" points="976.95,-125.3 969.95,-125.3 969.95,-123.9 976.95,-123.9 976.95,-125.3"/>
<polyline fill="none" stroke="green" points="973.45,-126 973.45,-122.5 "/>
</g>
<!-- e6 -->
<g id="node6" class="node"><title>e6</title>
</g>
<!-- v21 -->
<g id="v21_Record" class="node"><title>v21</title>
<ellipse fill="none" stroke="black" cx="769.45" cy="-127" rx="29" ry="11"/>
<text text-anchor="middle" x="769.45" y="-124.8" font-family="sans-serif" font-size="9.00">Record</text>
</g>
<!-- e6&#45;&gt;v21 -->
<g id="edge33" class="edge"><title>e6&#45;&gt;v21</title>
<path fill="none" stroke="green" d="M769.45,-180.167C769.45,-171.586 769.45,-150.596 769.45,-138.012"/>
<polygon fill="green" stroke="green" points="772.95,-183.3 765.95,-183.3 765.95,-181.9 772.95,-181.9 772.95,-183.3"/>
<polyline fill="none" stroke="green" points="769.45,-184 769.45,-180.5 "/>
</g>
<!-- e7 -->
<g id="node7" class="node"><title>e7</title>
</g>
<!-- v25 -->
<g id="v25_Nurse" class="node"><title>v25</title>
<ellipse fill="none" stroke="black" cx="898.45" cy="-11" rx="25" ry="11"/>
<text text-anchor="middle" x="898.45" y="-8.8" font-family="sans-serif" font-size="9.00">Nurse</text>
</g>
<!-- e7&#45;&gt;v25 -->
<g id="edge34" class="edge"><title>e7&#45;&gt;v25</title>
<path fill="none" stroke="green" d="M898.45,-64.1674C898.45,-55.5862 898.45,-34.5957 898.45,-22.0117"/>
<polygon fill="green" stroke="green" points="901.95,-67.3001 894.95,-67.2999 894.95,-65.8999 901.95,-65.9001 901.95,-67.3001"/>
<polyline fill="none" stroke="green" points="898.45,-68 898.45,-64.5 "/>
</g>
<!-- v1 -->
<g id="v1_DB" class="node"><title>v1</title>
<ellipse fill="none" stroke="black" cx="454.45" cy="-185" rx="14.5" ry="11"/>
<text text-anchor="middle" x="454.45" y="-182.8" font-family="sans-serif" font-size="9.00">DB</text>
</g>
<!-- e8&#45;&gt;v1 -->
<g id="edge36" class="edge"><title>e8&#45;&gt;v1</title>
<path fill="none" stroke="green" d="M404.45,-242C404.45,-242 432.575,-210.5 446.638,-194.75"/>
</g>
<!-- v3 -->
<g id="v3_DBadmin" class="node"><title>v3</title>
<ellipse fill="none" stroke="black" cx="256.45" cy="-11" rx="32.5" ry="11"/>
<text text-anchor="middle" x="256.45" y="-8.8" font-family="sans-serif" font-size="9.00">DBadmin</text>
</g>
<!-- e8&#45;&gt;v3 -->
<g id="edge37" class="edge"><title>e8&#45;&gt;v3</title>
<path fill="none" stroke="green" d="M404.45,-242C404.45,-242 291.138,-65.9062 262.81,-21.8828"/>
</g>
<!-- e8&#45;&gt;v4 -->
<g id="edge38" class="edge"><title>e8&#45;&gt;v4</title>
<path fill="none" stroke="green" d="M404.45,-242C404.45,-242 335.932,-227.01 291.45,-196 242.374,-161.787 199.145,-103.116 183.091,-79.8869"/>
</g>
<!-- e8&#45;&gt;v7 -->
<g id="edge39" class="edge"><title>e8&#45;&gt;v7</title>
<path fill="none" stroke="green" d="M404.45,-242C404.45,-242 323.113,-222.851 262.45,-196 179.94,-159.479 88.5001,-100.651 55.3416,-78.6613"/>
</g>
<!-- e8&#45;&gt;v10 -->
<g id="edge40" class="edge"><title>e8&#45;&gt;v10</title>
<path fill="none" stroke="green" d="M404.45,-242C404.45,-242 889.494,-225.779 941.45,-196 968.839,-180.302 972.89,-168.086 982.45,-138 988.797,-118.025 982.163,-93.3751 977.397,-79.9195"/>
</g>
<!-- e8&#45;&gt;v25 -->
<g id="edge41" class="edge"><title>e8&#45;&gt;v25</title>
<path fill="none" stroke="green" d="M404.45,-242C404.45,-242 824.829,-227.619 865.45,-196 916.041,-156.62 913.634,-121.812 907.45,-58 906.242,-45.5266 903.23,-31.4139 901.022,-22.148"/>
</g>
<!-- v0&#45;&gt;v1 -->
<g id="edge2" class="edge"><title>v0&#45;&gt;v1</title>
<path fill="none" stroke="black" d="M304.948,-238.326C331.741,-228.948 402.902,-204.042 436.459,-192.297"/>
<polygon fill="black" stroke="black" points="441.509,-190.529 437.533,-194.305 439.15,-191.355 436.79,-192.181 436.79,-192.181 436.79,-192.181 439.15,-191.355 436.047,-190.057 441.509,-190.529 441.509,-190.529"/>
</g>
<!-- v0&#45;&gt;v3 -->
<g id="edge3" class="edge"><title>v0&#45;&gt;v3</title>
<path fill="none" stroke="black" d="M292.817,-232.117C286.85,-196.001 266.198,-70.9985 258.971,-27.2581"/>
<polygon fill="black" stroke="black" points="258.12,-22.105 261.155,-26.6713 258.527,-24.5716 258.935,-27.0381 258.935,-27.0381 258.935,-27.0381 258.527,-24.5716 256.715,-27.4049 258.12,-22.105 258.12,-22.105"/>
</g>
<!-- v0&#45;&gt;v4 -->
<g id="edge4" class="edge"><title>v0&#45;&gt;v4</title>
<path fill="none" stroke="black" d="M284.415,-238.146C257.936,-227.305 186.815,-193.661 166.45,-138 160.024,-120.435 165.216,-98.8855 170.209,-84.8169"/>
<polygon fill="black" stroke="black" points="172.017,-79.9934 172.368,-85.465 171.139,-82.3343 170.262,-84.6752 170.262,-84.6752 170.262,-84.6752 171.139,-82.3343 168.155,-83.8853 172.017,-79.9934 172.017,-79.9934"/>
</g>
<!-- v0&#45;&gt;v7 -->
<g id="edge5" class="edge"><title>v0&#45;&gt;v7</title>
<path fill="none" stroke="black" d="M283.995,-238.844C263.926,-232.523 219.02,-217.084 185.45,-196 131.458,-162.088 77.7277,-107.841 54.455,-83.0842"/>
<polygon fill="black" stroke="black" points="50.9861,-79.3717 56.0438,-81.4889 52.6929,-81.1984 54.3998,-83.0251 54.3998,-83.0251 54.3998,-83.0251 52.6929,-81.1984 52.7558,-84.5613 50.9861,-79.3717 50.9861,-79.3717"/>
</g>
<!-- v0&#45;&gt;v10 -->
<g id="edge6" class="edge"><title>v0&#45;&gt;v10</title>
<path fill="none" stroke="black" d="M305.245,-240.837C323.572,-238.881 361.949,-234.867 394.45,-232 499.016,-222.777 771.824,-243.468 865.45,-196 915.043,-170.857 951.241,-112.016 966.056,-84.5733"/>
<polygon fill="black" stroke="black" points="968.571,-79.8297 968.216,-85.3011 967.4,-82.0383 966.229,-84.2469 966.229,-84.2469 966.229,-84.2469 967.4,-82.0383 964.241,-83.1926 968.571,-79.8297 968.571,-79.8297"/>
</g>
<!-- v0&#45;&gt;v25 -->
<g id="edge7" class="edge"><title>v0&#45;&gt;v25</title>
<path fill="none" stroke="black" d="M305.251,-240.898C323.586,-239.032 361.975,-235.146 394.45,-232 479.758,-223.736 705.079,-240.299 778.45,-196 844.731,-155.982 881.354,-63.7178 893.675,-27.2404"/>
<polygon fill="black" stroke="black" points="895.317,-22.2761 895.883,-27.7298 894.532,-24.6497 893.746,-27.0232 893.746,-27.0232 893.746,-27.0232 894.532,-24.6497 891.61,-26.3166 895.317,-22.2761 895.317,-22.2761"/>
</g>
<!-- v2 -->
<g id="v2_Record" class="node"><title>v2</title>
<ellipse fill="none" stroke="black" cx="404.45" cy="-127" rx="29" ry="11"/>
<text text-anchor="middle" x="404.45" y="-124.8" font-family="sans-serif" font-size="9.00">Record</text>
</g>
<!-- v1&#45;&gt;v2 -->
<g id="edge8" class="edge"><title>v1&#45;&gt;v2</title>
<path fill="none" stroke="black" d="M446.638,-175.25C438.588,-166.234 425.929,-152.057 416.577,-141.582"/>
<polygon fill="black" stroke="black" points="413.046,-137.627 418.054,-139.858 414.711,-139.492 416.376,-141.356 416.376,-141.356 416.376,-141.356 414.711,-139.492 414.697,-142.855 413.046,-137.627 413.046,-137.627"/>
</g>
<!-- v6 -->
<g id="v6_Record" class="node"><title>v6</title>
<ellipse fill="none" stroke="black" cx="503.45" cy="-127" rx="29" ry="11"/>
<text text-anchor="middle" x="503.45" y="-124.8" font-family="sans-serif" font-size="9.00">Record</text>
</g>
<!-- v1&#45;&gt;v6 -->
<g id="edge9" class="edge"><title>v1&#45;&gt;v6</title>
<path fill="none" stroke="black" d="M462.107,-175.25C469.996,-166.234 482.401,-152.057 491.566,-141.582"/>
<polygon fill="black" stroke="black" points="495.027,-137.627 493.428,-142.871 493.381,-139.508 491.734,-141.39 491.734,-141.39 491.734,-141.39 493.381,-139.508 490.041,-139.908 495.027,-137.627 495.027,-137.627"/>
</g>
<!-- v9 -->
<g id="v9_Record" class="node"><title>v9</title>
<ellipse fill="none" stroke="black" cx="625.45" cy="-127" rx="29" ry="11"/>
<text text-anchor="middle" x="625.45" y="-124.8" font-family="sans-serif" font-size="9.00">Record</text>
</g>
<!-- v1&#45;&gt;v9 -->
<g id="edge10" class="edge"><title>v1&#45;&gt;v9</title>
<path fill="none" stroke="black" d="M467.303,-179.791C495.402,-170.589 562.745,-148.535 599.848,-136.385"/>
<polygon fill="black" stroke="black" points="604.656,-134.81 600.605,-138.504 602.28,-135.588 599.904,-136.366 599.904,-136.366 599.904,-136.366 602.28,-135.588 599.204,-134.228 604.656,-134.81 604.656,-134.81"/>
</g>
<!-- v1&#45;&gt;v21 -->
<g id="edge11" class="edge"><title>v1&#45;&gt;v21</title>
<path fill="none" stroke="black" d="M468.392,-181.521C515.97,-173.063 672.658,-145.207 739.167,-133.384"/>
<polygon fill="black" stroke="black" points="744.178,-132.493 739.649,-135.583 741.717,-132.93 739.255,-133.368 739.255,-133.368 739.255,-133.368 741.717,-132.93 738.861,-131.153 744.178,-132.493 744.178,-132.493"/>
</g>
<!-- v5 -->
<g id="v5_Ref" class="node"><title>v5</title>
<ellipse fill="none" stroke="black" cx="176.45" cy="-11" rx="18" ry="11"/>
<text text-anchor="middle" x="176.45" y="-8.8" font-family="sans-serif" font-size="9.00">Ref</text>
</g>
<!-- v2&#45;&gt;v5 -->
<g id="edge27" class="edge"><title>v2&#45;&gt;v5</title>
<path fill="none" stroke="green" d="M375.846,-124.832C289.013,-120.995 32.8752,-107.426 8.4503,-80 -35.7043,-30.4194 107.056,-16.3744 158.609,-12.9687"/>
</g>
<!-- v15 -->
<g id="v15_Id(1)" class="node"><title>v15</title>
<ellipse fill="none" stroke="black" cx="343.45" cy="-11" rx="25" ry="11"/>
<text text-anchor="middle" x="343.45" y="-8.8" font-family="sans-serif" font-size="9.00">Id(1)</text>
</g>
<!-- v2&#45;&gt;v15 -->
<g id="edge12" class="edge"><title>v2&#45;&gt;v15</title>
<path fill="none" stroke="black" d="M393.233,-116.511C383.733,-107.897 370.42,-94.376 362.45,-80 353.216,-63.3432 348.192,-41.8565 345.669,-27.5386"/>
<polygon fill="black" stroke="black" points="344.792,-22.2438 347.829,-26.8092 345.201,-24.7102 345.609,-27.1767 345.609,-27.1767 345.609,-27.1767 345.201,-24.7102 343.389,-27.5441 344.792,-22.2438 344.792,-22.2438"/>
</g>
<!-- v16 -->
<g id="v16_Private" class="node"><title>v16</title>
<ellipse fill="none" stroke="black" cx="404.45" cy="-69" rx="32.5" ry="11"/>
<text text-anchor="middle" x="404.45" y="-66.8" font-family="sans-serif" font-size="9.00">Private</text>
</g>
<!-- v2&#45;&gt;v16 -->
<g id="edge13" class="edge"><title>v2&#45;&gt;v16</title>
<path fill="none" stroke="black" d="M404.45,-115.988C404.45,-107.494 404.45,-95.1697 404.45,-85.4169"/>
<polygon fill="black" stroke="black" points="404.45,-80.3039 406.7,-85.3038 404.45,-82.8039 404.45,-85.3039 404.45,-85.3039 404.45,-85.3039 404.45,-82.8039 402.2,-85.3039 404.45,-80.3039 404.45,-80.3039"/>
</g>
<!-- v4&#45;&gt;v5 -->
<g id="edge14" class="edge"><title>v4&#45;&gt;v5</title>
<path fill="none" stroke="black" d="M176.45,-57.9883C176.45,-49.4941 176.45,-37.1697 176.45,-27.4169"/>
<polygon fill="black" stroke="black" points="176.45,-22.3039 178.7,-27.3038 176.45,-24.8039 176.45,-27.3039 176.45,-27.3039 176.45,-27.3039 176.45,-24.8039 174.2,-27.3039 176.45,-22.3039 176.45,-22.3039"/>
</g>
<!-- v8 -->
<g id="v8_Ref" class="node"><title>v8</title>
<ellipse fill="none" stroke="black" cx="42.4503" cy="-11" rx="18" ry="11"/>
<text text-anchor="middle" x="42.4503" y="-8.8" font-family="sans-serif" font-size="9.00">Ref</text>
</g>
<!-- v6&#45;&gt;v8 -->
<g id="edge29" class="edge"><title>v6&#45;&gt;v8</title>
<path fill="none" stroke="green" d="M480.273,-120.269C399.023,-100.176 128.275,-33.2234 58.8062,-16.0446"/>
</g>
<!-- v12 -->
<g id="v12_Id(0)" class="node"><title>v12</title>
<ellipse fill="none" stroke="black" cx="497.45" cy="-11" rx="25" ry="11"/>
<text text-anchor="middle" x="497.45" y="-8.8" font-family="sans-serif" font-size="9.00">Id(0)</text>
</g>
<!-- v6&#45;&gt;v12 -->
<g id="edge15" class="edge"><title>v6&#45;&gt;v12</title>
<path fill="none" stroke="black" d="M502.918,-115.883C501.866,-95.9059 499.517,-51.276 498.268,-27.5402"/>
<polygon fill="black" stroke="black" points="497.99,-22.2579 500.5,-27.1327 498.122,-24.7545 498.253,-27.251 498.253,-27.251 498.253,-27.251 498.122,-24.7545 496.006,-27.3693 497.99,-22.2579 497.99,-22.2579"/>
</g>
<!-- v13 -->
<g id="v13_Private" class="node"><title>v13</title>
<ellipse fill="none" stroke="black" cx="564.45" cy="-69" rx="32.5" ry="11"/>
<text text-anchor="middle" x="564.45" y="-66.8" font-family="sans-serif" font-size="9.00">Private</text>
</g>
<!-- v6&#45;&gt;v13 -->
<g id="edge16" class="edge"><title>v6&#45;&gt;v13</title>
<path fill="none" stroke="black" d="M513.798,-116.5C523.728,-107.385 538.816,-93.5334 549.943,-83.318"/>
<polygon fill="black" stroke="black" points="553.847,-79.7345 551.685,-84.7733 552.005,-81.4252 550.163,-83.1158 550.163,-83.1158 550.163,-83.1158 552.005,-81.4252 548.642,-81.4584 553.847,-79.7345 553.847,-79.7345"/>
</g>
<!-- v7&#45;&gt;v8 -->
<g id="edge17" class="edge"><title>v7&#45;&gt;v8</title>
<path fill="none" stroke="black" d="M42.4503,-57.9883C42.4503,-49.4941 42.4503,-37.1697 42.4503,-27.4169"/>
<polygon fill="black" stroke="black" points="42.4503,-22.3039 44.7004,-27.3038 42.4503,-24.8039 42.4504,-27.3039 42.4504,-27.3039 42.4504,-27.3039 42.4503,-24.8039 40.2004,-27.3039 42.4503,-22.3039 42.4503,-22.3039"/>
</g>
<!-- v11 -->
<g id="v11_Ref" class="node"><title>v11</title>
<ellipse fill="none" stroke="black" cx="973.45" cy="-11" rx="18" ry="11"/>
<text text-anchor="middle" x="973.45" y="-8.8" font-family="sans-serif" font-size="9.00">Ref</text>
</g>
<!-- v9&#45;&gt;v11 -->
<g id="edge31" class="edge"><title>v9&#45;&gt;v11</title>
<path fill="none" stroke="green" d="M601.749,-120.443C563.543,-110.453 495.24,-87.7044 522.45,-58 553.34,-24.2788 887.329,-29.4395 932.45,-22 940.836,-20.6174 950.04,-18.4345 957.6,-16.4606"/>
</g>
<!-- v18 -->
<g id="v18_Id(2)" class="node"><title>v18</title>
<ellipse fill="none" stroke="black" cx="627.45" cy="-11" rx="25" ry="11"/>
<text text-anchor="middle" x="627.45" y="-8.8" font-family="sans-serif" font-size="9.00">Id(2)</text>
</g>
<!-- v9&#45;&gt;v18 -->
<g id="edge18" class="edge"><title>v9&#45;&gt;v18</title>
<path fill="none" stroke="black" d="M625.628,-115.883C625.978,-95.9059 626.761,-51.276 627.178,-27.5402"/>
<polygon fill="black" stroke="black" points="627.27,-22.2579 629.432,-27.2967 627.226,-24.7576 627.183,-27.2572 627.183,-27.2572 627.183,-27.2572 627.226,-24.7576 624.933,-27.2177 627.27,-22.2579 627.27,-22.2579"/>
</g>
<!-- v19 -->
<g id="v19_Private" class="node"><title>v19</title>
<ellipse fill="none" stroke="black" cx="686.45" cy="-69" rx="32.5" ry="11"/>
<text text-anchor="middle" x="686.45" y="-66.8" font-family="sans-serif" font-size="9.00">Private</text>
</g>
<!-- v9&#45;&gt;v19 -->
<g id="edge19" class="edge"><title>v9&#45;&gt;v19</title>
<path fill="none" stroke="black" d="M635.798,-116.5C645.728,-107.385 660.816,-93.5334 671.943,-83.318"/>
<polygon fill="black" stroke="black" points="675.847,-79.7345 673.685,-84.7733 674.005,-81.4252 672.163,-83.1158 672.163,-83.1158 672.163,-83.1158 674.005,-81.4252 670.642,-81.4584 675.847,-79.7345 675.847,-79.7345"/>
</g>
<!-- v10&#45;&gt;v11 -->
<g id="edge20" class="edge"><title>v10&#45;&gt;v11</title>
<path fill="none" stroke="black" d="M973.45,-57.9883C973.45,-49.4941 973.45,-37.1697 973.45,-27.4169"/>
<polygon fill="black" stroke="black" points="973.45,-22.3039 975.7,-27.3038 973.45,-24.8039 973.45,-27.3039 973.45,-27.3039 973.45,-27.3039 973.45,-24.8039 971.2,-27.3039 973.45,-22.3039 973.45,-22.3039"/>
</g>
<!-- v14 -->
<g id="v14_Data" class="node"><title>v14</title>
<ellipse fill="none" stroke="black" cx="562.45" cy="-11" rx="21.5" ry="11"/>
<text text-anchor="middle" x="562.45" y="-8.8" font-family="sans-serif" font-size="9.00">Data</text>
</g>
<!-- v13&#45;&gt;v14 -->
<g id="edge21" class="edge"><title>v13&#45;&gt;v14</title>
<path fill="none" stroke="black" d="M564.093,-57.9883C563.789,-49.4941 563.349,-37.1697 563.001,-27.4169"/>
<polygon fill="black" stroke="black" points="562.818,-22.3039 565.245,-27.2203 562.908,-24.8023 562.997,-27.3007 562.997,-27.3007 562.997,-27.3007 562.908,-24.8023 560.748,-27.381 562.818,-22.3039 562.818,-22.3039"/>
</g>
<!-- v17 -->
<g id="v17_Data" class="node"><title>v17</title>
<ellipse fill="none" stroke="black" cx="408.45" cy="-11" rx="21.5" ry="11"/>
<text text-anchor="middle" x="408.45" y="-8.8" font-family="sans-serif" font-size="9.00">Data</text>
</g>
<!-- v16&#45;&gt;v17 -->
<g id="edge22" class="edge"><title>v16&#45;&gt;v17</title>
<path fill="none" stroke="black" d="M405.165,-57.9883C405.772,-49.4941 406.652,-37.1697 407.349,-27.4169"/>
<polygon fill="black" stroke="black" points="407.714,-22.3039 409.602,-27.4515 407.536,-24.7975 407.358,-27.2912 407.358,-27.2912 407.358,-27.2912 407.536,-24.7975 405.114,-27.1308 407.714,-22.3039 407.714,-22.3039"/>
</g>
<!-- v20 -->
<g id="v20_Data" class="node"><title>v20</title>
<ellipse fill="none" stroke="black" cx="692.45" cy="-11" rx="21.5" ry="11"/>
<text text-anchor="middle" x="692.45" y="-8.8" font-family="sans-serif" font-size="9.00">Data</text>
</g>
<!-- v19&#45;&gt;v20 -->
<g id="edge23" class="edge"><title>v19&#45;&gt;v20</title>
<path fill="none" stroke="black" d="M687.523,-57.9883C688.433,-49.4941 689.754,-37.1697 690.798,-27.4169"/>
<polygon fill="black" stroke="black" points="691.346,-22.3039 693.051,-27.5152 691.08,-24.7896 690.814,-27.2754 690.814,-27.2754 690.814,-27.2754 691.08,-24.7896 688.576,-27.0357 691.346,-22.3039 691.346,-22.3039"/>
</g>
<!-- v22 -->
<g id="v22_Id(3)" class="node"><title>v22</title>
<ellipse fill="none" stroke="black" cx="830.45" cy="-11" rx="25" ry="11"/>
<text text-anchor="middle" x="830.45" y="-8.8" font-family="sans-serif" font-size="9.00">Id(3)</text>
</g>
<!-- v21&#45;&gt;v22 -->
<g id="edge24" class="edge"><title>v21&#45;&gt;v22</title>
<path fill="none" stroke="black" d="M780.343,-116.431C789.581,-107.767 802.554,-94.2151 810.45,-80 819.734,-63.2856 825.116,-41.8112 827.913,-27.5119"/>
<polygon fill="black" stroke="black" points="828.893,-22.2247 830.194,-27.551 828.437,-24.6828 827.981,-27.1409 827.981,-27.1409 827.981,-27.1409 828.437,-24.6828 825.769,-26.7308 828.893,-22.2247 828.893,-22.2247"/>
</g>
<!-- v23 -->
<g id="v23_Private" class="node"><title>v23</title>
<ellipse fill="none" stroke="black" cx="769.45" cy="-69" rx="32.5" ry="11"/>
<text text-anchor="middle" x="769.45" y="-66.8" font-family="sans-serif" font-size="9.00">Private</text>
</g>
<!-- v21&#45;&gt;v23 -->
<g id="edge25" class="edge"><title>v21&#45;&gt;v23</title>
<path fill="none" stroke="black" d="M769.45,-115.988C769.45,-107.494 769.45,-95.1697 769.45,-85.4169"/>
<polygon fill="black" stroke="black" points="769.45,-80.3039 771.7,-85.3038 769.45,-82.8039 769.45,-85.3039 769.45,-85.3039 769.45,-85.3039 769.45,-82.8039 767.2,-85.3039 769.45,-80.3039 769.45,-80.3039"/>
</g>
<!-- v24 -->
<g id="v24_Data" class="node"><title>v24</title>
<ellipse fill="none" stroke="black" cx="765.45" cy="-11" rx="21.5" ry="11"/>
<text text-anchor="middle" x="765.45" y="-8.8" font-family="sans-serif" font-size="9.00">Data</text>
</g>
<!-- v23&#45;&gt;v24 -->
<g id="edge26" class="edge"><title>v23&#45;&gt;v24</title>
<path fill="none" stroke="black" d="M768.735,-57.9883C768.128,-49.4941 767.248,-37.1697 766.552,-27.4169"/>
<polygon fill="black" stroke="black" points="766.186,-22.3039 768.787,-27.1308 766.364,-24.7975 766.543,-27.2912 766.543,-27.2912 766.543,-27.2912 766.364,-24.7975 764.298,-27.4515 766.186,-22.3039 766.186,-22.3039"/>
</g>
</g>
</svg>
