<?xml version="1.0" encoding="UTF-8" standalone="no"?>
<?xml-stylesheet href="style.css" type="text/css"?>
<!DOCTYPE svg PUBLIC "-//W3C//DTD SVG 1.1//EN"
 "http://www.w3.org/Graphics/SVG/1.1/DTD/svg11.dtd">
<!-- Generated by graphviz version 2.38.0 (20140413.2041)
 -->
<!-- Title: 13.svg Pages: 1 -->
<svg width="955pt" height="316pt"
 viewBox="0.00 0.00 955.00 316.00" xmlns="http://www.w3.org/2000/svg" xmlns:xlink="http://www.w3.org/1999/xlink">
<g id="graph0" class="graph" transform="scale(1 1) rotate(0) translate(4 312)">
<title>13.svg</title>
<polygon fill="white" stroke="none" points="-4,4 -4,-312 951,-312 951,4 -4,4"/>
<!-- r0 -->
<g id="node1" class="node"><title>r0</title>
<polygon fill="none" stroke="black" stroke-dasharray="5,2" points="635.5,-308 612.5,-308 612.5,-290 635.5,-290 635.5,-308"/>
<text text-anchor="middle" x="624" y="-296.8" font-family="serif" font-size="9.00">0</text>
</g>
<!-- v0 -->
<g id="v0_H" class="node"><title>v0</title>
<ellipse fill="none" stroke="black" cx="624" cy="-243" rx="11" ry="11"/>
<text text-anchor="middle" x="624" y="-240.8" font-family="sans-serif" font-size="9.00">H</text>
</g>
<!-- r0&#45;&gt;v0 -->
<g id="edge1" class="edge"><title>r0&#45;&gt;v0</title>
<path fill="none" stroke="black" d="M624,-289.562C624,-281.453 624,-269.014 624,-259.181"/>
<polygon fill="black" stroke="black" points="624,-254.03 626.25,-259.03 624,-256.53 624,-259.03 624,-259.03 624,-259.03 624,-256.53 621.75,-259.03 624,-254.03 624,-254.03"/>
</g>
<!-- odb -->
<g id="node2" class="node"><title>odb</title>
<text text-anchor="middle" x="752" y="-296.8" font-family="serif" font-size="9.00">db</text>
</g>
<!-- e8 -->
<g id="node9" class="node"><title>e8</title>
</g>
<!-- odb&#45;&gt;e8 -->
<g id="edge34" class="edge"><title>odb&#45;&gt;e8</title>
<path fill="none" stroke="green" d="M752,-289.562C752,-274.375 752,-244 752,-244"/>
</g>
<!-- e1 -->
<g id="node3" class="node"><title>e1</title>
</g>
<!-- v4 -->
<g id="v4_Doc" class="node"><title>v4</title>
<ellipse fill="none" stroke="black" cx="42" cy="-69" rx="18" ry="11"/>
<text text-anchor="middle" x="42" y="-66.8" font-family="sans-serif" font-size="9.00">Doc</text>
</g>
<!-- e1&#45;&gt;v4 -->
<g id="edge27" class="edge"><title>e1&#45;&gt;v4</title>
<path fill="none" stroke="green" d="M42,-122.167C42,-113.586 42,-92.5957 42,-80.0117"/>
<polygon fill="green" stroke="green" points="45.5,-125.3 38.5,-125.3 38.5001,-123.9 45.5001,-123.9 45.5,-125.3"/>
<polyline fill="none" stroke="green" points="42,-126 42.0001,-122.5 "/>
</g>
<!-- e3 -->
<g id="node4" class="node"><title>e3</title>
</g>
<!-- v11 -->
<g id="v11_Record" class="node"><title>v11</title>
<ellipse fill="none" stroke="black" cx="286" cy="-127" rx="29" ry="11"/>
<text text-anchor="middle" x="286" y="-124.8" font-family="sans-serif" font-size="9.00">Record</text>
</g>
<!-- e3&#45;&gt;v11 -->
<g id="edge29" class="edge"><title>e3&#45;&gt;v11</title>
<path fill="none" stroke="green" d="M286,-180.167C286,-171.586 286,-150.596 286,-138.012"/>
<polygon fill="green" stroke="green" points="289.5,-183.3 282.5,-183.3 282.5,-181.9 289.5,-181.9 289.5,-183.3"/>
<polyline fill="none" stroke="green" points="286,-184 286,-180.5 "/>
</g>
<!-- e4 -->
<g id="node5" class="node"><title>e4</title>
</g>
<!-- v15 -->
<g id="v15_Record" class="node"><title>v15</title>
<ellipse fill="none" stroke="black" cx="408" cy="-127" rx="29" ry="11"/>
<text text-anchor="middle" x="408" y="-124.8" font-family="sans-serif" font-size="9.00">Record</text>
</g>
<!-- e4&#45;&gt;v15 -->
<g id="edge30" class="edge"><title>e4&#45;&gt;v15</title>
<path fill="none" stroke="green" d="M408,-180.167C408,-171.586 408,-150.596 408,-138.012"/>
<polygon fill="green" stroke="green" points="411.5,-183.3 404.5,-183.3 404.5,-181.9 411.5,-181.9 411.5,-183.3"/>
<polyline fill="none" stroke="green" points="408,-184 408,-180.5 "/>
</g>
<!-- e5 -->
<g id="node6" class="node"><title>e5</title>
</g>
<!-- v22 -->
<g id="v22_Nurse" class="node"><title>v22</title>
<ellipse fill="none" stroke="black" cx="155" cy="-11" rx="25" ry="11"/>
<text text-anchor="middle" x="155" y="-8.8" font-family="sans-serif" font-size="9.00">Nurse</text>
</g>
<!-- e5&#45;&gt;v22 -->
<g id="edge31" class="edge"><title>e5&#45;&gt;v22</title>
<path fill="none" stroke="green" d="M155,-64.1674C155,-55.5862 155,-34.5957 155,-22.0117"/>
<polygon fill="green" stroke="green" points="158.5,-67.3001 151.5,-67.2999 151.5,-65.8999 158.5,-65.9001 158.5,-67.3001"/>
<polyline fill="none" stroke="green" points="155,-68 155,-64.5 "/>
</g>
<!-- e6 -->
<g id="node7" class="node"><title>e6</title>
</g>
<!-- v23 -->
<g id="v23_Nurse" class="node"><title>v23</title>
<ellipse fill="none" stroke="black" cx="826" cy="-11" rx="25" ry="11"/>
<text text-anchor="middle" x="826" y="-8.8" font-family="sans-serif" font-size="9.00">Nurse</text>
</g>
<!-- e6&#45;&gt;v23 -->
<g id="edge32" class="edge"><title>e6&#45;&gt;v23</title>
<path fill="none" stroke="green" d="M826,-64.1674C826,-55.5862 826,-34.5957 826,-22.0117"/>
<polygon fill="green" stroke="green" points="829.5,-67.3001 822.5,-67.2999 822.5,-65.8999 829.5,-65.9001 829.5,-67.3001"/>
<polyline fill="none" stroke="green" points="826,-68 826,-64.5 "/>
</g>
<!-- e7 -->
<g id="node8" class="node"><title>e7</title>
</g>
<!-- v24 -->
<g id="v24_Nurse" class="node"><title>v24</title>
<ellipse fill="none" stroke="black" cx="922" cy="-11" rx="25" ry="11"/>
<text text-anchor="middle" x="922" y="-8.8" font-family="sans-serif" font-size="9.00">Nurse</text>
</g>
<!-- e7&#45;&gt;v24 -->
<g id="edge33" class="edge"><title>e7&#45;&gt;v24</title>
<path fill="none" stroke="green" d="M922,-64.1674C922,-55.5862 922,-34.5957 922,-22.0117"/>
<polygon fill="green" stroke="green" points="925.5,-67.3001 918.5,-67.2999 918.5,-65.8999 925.5,-65.9001 925.5,-67.3001"/>
<polyline fill="none" stroke="green" points="922,-68 922,-64.5 "/>
</g>
<!-- v1 -->
<g id="v1_DB" class="node"><title>v1</title>
<ellipse fill="none" stroke="black" cx="582" cy="-185" rx="14.5" ry="11"/>
<text text-anchor="middle" x="582" y="-182.8" font-family="sans-serif" font-size="9.00">DB</text>
</g>
<!-- e8&#45;&gt;v1 -->
<g id="edge35" class="edge"><title>e8&#45;&gt;v1</title>
<path fill="none" stroke="green" d="M752,-242C752,-242 634.313,-203.233 594.778,-190.209"/>
</g>
<!-- v3 -->
<g id="v3_DBadmin" class="node"><title>v3</title>
<ellipse fill="none" stroke="black" cx="750" cy="-11" rx="32.5" ry="11"/>
<text text-anchor="middle" x="750" y="-8.8" font-family="sans-serif" font-size="9.00">DBadmin</text>
</g>
<!-- e8&#45;&gt;v3 -->
<g id="edge36" class="edge"><title>e8&#45;&gt;v3</title>
<path fill="none" stroke="green" d="M752,-242C752,-242 761.311,-216.957 764,-196 772.479,-129.905 757.938,-49.7457 752.186,-22.0095"/>
</g>
<!-- e8&#45;&gt;v4 -->
<g id="edge37" class="edge"><title>e8&#45;&gt;v4</title>
<path fill="none" stroke="green" d="M752,-242C752,-242 692.035,-236.052 644,-232 538.958,-223.14 267.046,-239.446 171,-196 112.241,-169.421 64.5168,-104.03 48.1162,-79.5003"/>
</g>
<!-- e8&#45;&gt;v22 -->
<g id="edge38" class="edge"><title>e8&#45;&gt;v22</title>
<path fill="none" stroke="green" d="M752,-242C752,-242 278.844,-197.715 276,-196 206.266,-153.942 168.808,-54.4922 158.192,-22.2701"/>
</g>
<!-- e8&#45;&gt;v23 -->
<g id="edge39" class="edge"><title>e8&#45;&gt;v23</title>
<path fill="none" stroke="green" d="M752,-242C752,-242 837.539,-242.175 869,-196 907.975,-138.797 853.491,-50.8917 833.132,-21.7549"/>
</g>
<!-- e8&#45;&gt;v24 -->
<g id="edge40" class="edge"><title>e8&#45;&gt;v24</title>
<path fill="none" stroke="green" d="M752,-242C752,-242 842.235,-240.464 888,-196 934.076,-151.234 937.196,-121.942 931,-58 929.791,-45.5266 926.78,-31.4139 924.572,-22.148"/>
</g>
<!-- v0&#45;&gt;v1 -->
<g id="edge2" class="edge"><title>v0&#45;&gt;v1</title>
<path fill="none" stroke="black" d="M617.803,-233.737C610.954,-224.605 599.83,-209.774 591.798,-199.064"/>
<polygon fill="black" stroke="black" points="588.78,-195.04 593.58,-197.69 590.28,-197.04 591.78,-199.04 591.78,-199.04 591.78,-199.04 590.28,-197.04 589.98,-200.39 588.78,-195.04 588.78,-195.04"/>
</g>
<!-- v0&#45;&gt;v3 -->
<g id="edge3" class="edge"><title>v0&#45;&gt;v3</title>
<path fill="none" stroke="black" d="M628.939,-232.984C648.172,-197.876 718.165,-70.1112 741.993,-26.6155"/>
<polygon fill="black" stroke="black" points="744.537,-21.9722 744.108,-27.4384 743.336,-24.1648 742.135,-26.3573 742.135,-26.3573 742.135,-26.3573 743.336,-24.1648 740.161,-25.2763 744.537,-21.9722 744.537,-21.9722"/>
</g>
<!-- v0&#45;&gt;v4 -->
<g id="edge4" class="edge"><title>v0&#45;&gt;v4</title>
<path fill="none" stroke="black" d="M612.656,-241.617C538.346,-239.034 122.61,-223.43 74,-196 46.2819,-180.359 41.8111,-168.277 32,-138 26.2341,-120.207 31.2783,-98.7089 36.0563,-84.7141"/>
<polygon fill="black" stroke="black" points="37.784,-79.9184 38.206,-85.3851 36.9366,-82.2704 36.0892,-84.6225 36.0892,-84.6225 36.0892,-84.6225 36.9366,-82.2704 33.9724,-83.8598 37.784,-79.9184 37.784,-79.9184"/>
</g>
<!-- v0&#45;&gt;v22 -->
<g id="edge5" class="edge"><title>v0&#45;&gt;v22</title>
<path fill="none" stroke="black" d="M612.86,-241.636C546.513,-239.372 205.147,-226.299 171,-196 122.307,-152.795 140.782,-62.3989 150.515,-26.831"/>
<polygon fill="black" stroke="black" points="151.879,-21.9932 152.688,-27.4161 151.2,-24.3994 150.522,-26.8057 150.522,-26.8057 150.522,-26.8057 151.2,-24.3994 148.356,-26.1952 151.879,-21.9932 151.879,-21.9932"/>
</g>
<!-- v0&#45;&gt;v23 -->
<g id="edge6" class="edge"><title>v0&#45;&gt;v23</title>
<path fill="none" stroke="black" d="M631.486,-234.661C640.548,-225.705 656.188,-210.02 669,-196 725.661,-133.996 789.624,-56.556 814.889,-25.6528"/>
<polygon fill="black" stroke="black" points="818.054,-21.7774 816.634,-27.0733 816.473,-23.7138 814.891,-25.6501 814.891,-25.6501 814.891,-25.6501 816.473,-23.7138 813.149,-24.2269 818.054,-21.7774 818.054,-21.7774"/>
</g>
<!-- v0&#45;&gt;v24 -->
<g id="edge7" class="edge"><title>v0&#45;&gt;v24</title>
<path fill="none" stroke="black" d="M633.106,-236.295C646.476,-227.837 672.097,-211.319 693,-196 776.408,-134.875 871.346,-55.1514 907.228,-24.6341"/>
<polygon fill="black" stroke="black" points="911.306,-21.161 908.958,-26.1158 909.403,-22.7819 907.499,-24.4028 907.499,-24.4028 907.499,-24.4028 909.403,-22.7819 906.04,-22.6898 911.306,-21.161 911.306,-21.161"/>
</g>
<!-- v2 -->
<g id="v2_Record" class="node"><title>v2</title>
<ellipse fill="none" stroke="black" cx="544" cy="-127" rx="29" ry="11"/>
<text text-anchor="middle" x="544" y="-124.8" font-family="sans-serif" font-size="9.00">Record</text>
</g>
<!-- v1&#45;&gt;v2 -->
<g id="edge8" class="edge"><title>v1&#45;&gt;v2</title>
<path fill="none" stroke="black" d="M575.895,-175.003C569.873,-166.129 560.581,-152.435 553.576,-142.113"/>
<polygon fill="black" stroke="black" points="550.731,-137.919 555.4,-140.793 552.135,-139.988 553.538,-142.056 553.538,-142.056 553.538,-142.056 552.135,-139.988 551.676,-143.32 550.731,-137.919 550.731,-137.919"/>
</g>
<!-- v6 -->
<g id="v6_Record" class="node"><title>v6</title>
<ellipse fill="none" stroke="black" cx="620" cy="-127" rx="29" ry="11"/>
<text text-anchor="middle" x="620" y="-124.8" font-family="sans-serif" font-size="9.00">Record</text>
</g>
<!-- v1&#45;&gt;v6 -->
<g id="edge9" class="edge"><title>v1&#45;&gt;v6</title>
<path fill="none" stroke="black" d="M588.105,-175.003C594.127,-166.129 603.419,-152.435 610.424,-142.113"/>
<polygon fill="black" stroke="black" points="613.269,-137.919 612.324,-143.32 611.865,-139.988 610.462,-142.056 610.462,-142.056 610.462,-142.056 611.865,-139.988 608.6,-140.793 613.269,-137.919 613.269,-137.919"/>
</g>
<!-- v1&#45;&gt;v11 -->
<g id="edge10" class="edge"><title>v1&#45;&gt;v11</title>
<path fill="none" stroke="black" d="M568.12,-181.374C522.873,-172.814 378.939,-145.583 315.974,-133.671"/>
<polygon fill="black" stroke="black" points="310.86,-132.703 316.191,-131.422 313.316,-133.168 315.772,-133.633 315.772,-133.633 315.772,-133.633 313.316,-133.168 315.354,-135.843 310.86,-132.703 310.86,-132.703"/>
</g>
<!-- v1&#45;&gt;v15 -->
<g id="edge11" class="edge"><title>v1&#45;&gt;v15</title>
<path fill="none" stroke="black" d="M568.922,-179.791C540.255,-170.565 471.443,-148.418 433.753,-136.288"/>
<polygon fill="black" stroke="black" points="428.871,-134.717 434.32,-134.107 431.251,-135.483 433.631,-136.249 433.631,-136.249 433.631,-136.249 431.251,-135.483 432.941,-138.391 428.871,-134.717 428.871,-134.717"/>
</g>
<!-- v5 -->
<g id="v5_Ref" class="node"><title>v5</title>
<ellipse fill="none" stroke="black" cx="18" cy="-11" rx="18" ry="11"/>
<text text-anchor="middle" x="18" y="-8.8" font-family="sans-serif" font-size="9.00">Ref</text>
</g>
<!-- v2&#45;&gt;v5 -->
<g id="edge26" class="edge"><title>v2&#45;&gt;v5</title>
<path fill="none" stroke="green" d="M516.556,-123.063C496.915,-120.995 469.841,-118.212 446,-116 398.15,-111.561 47.5355,-115.366 15,-80 0.438918,-64.172 8.09817,-36.48 13.7429,-21.7932"/>
</g>
<!-- v8 -->
<g id="v8_Id(0)" class="node"><title>v8</title>
<ellipse fill="none" stroke="black" cx="544" cy="-11" rx="25" ry="11"/>
<text text-anchor="middle" x="544" y="-8.8" font-family="sans-serif" font-size="9.00">Id(0)</text>
</g>
<!-- v2&#45;&gt;v8 -->
<g id="edge12" class="edge"><title>v2&#45;&gt;v8</title>
<path fill="none" stroke="black" d="M544,-115.883C544,-95.9059 544,-51.276 544,-27.5402"/>
<polygon fill="black" stroke="black" points="544,-22.2579 546.25,-27.2579 544,-24.7579 544,-27.2579 544,-27.2579 544,-27.2579 544,-24.7579 541.75,-27.258 544,-22.2579 544,-22.2579"/>
</g>
<!-- v9 -->
<g id="v9_Private" class="node"><title>v9</title>
<ellipse fill="none" stroke="black" cx="491" cy="-69" rx="32.5" ry="11"/>
<text text-anchor="middle" x="491" y="-66.8" font-family="sans-serif" font-size="9.00">Private</text>
</g>
<!-- v2&#45;&gt;v9 -->
<g id="edge13" class="edge"><title>v2&#45;&gt;v9</title>
<path fill="none" stroke="black" d="M535.009,-116.5C526.457,-107.465 513.502,-93.7761 503.86,-83.5877"/>
<polygon fill="black" stroke="black" points="500.213,-79.7345 505.284,-81.8193 501.931,-81.5502 503.65,-83.366 503.65,-83.366 503.65,-83.366 501.931,-81.5502 502.016,-84.9126 500.213,-79.7345 500.213,-79.7345"/>
</g>
<!-- v4&#45;&gt;v5 -->
<g id="edge14" class="edge"><title>v4&#45;&gt;v5</title>
<path fill="none" stroke="black" d="M37.8195,-58.2455C34.0801,-49.5202 28.5464,-36.6082 24.2758,-26.6435"/>
<polygon fill="black" stroke="black" points="22.2942,-22.0198 26.3319,-25.7291 23.279,-24.3176 24.2638,-26.6155 24.2638,-26.6155 24.2638,-26.6155 23.279,-24.3176 22.1958,-27.5018 22.2942,-22.0198 22.2942,-22.0198"/>
</g>
<!-- v7 -->
<g id="v7_Ref" class="node"><title>v7</title>
<ellipse fill="none" stroke="black" cx="72" cy="-11" rx="18" ry="11"/>
<text text-anchor="middle" x="72" y="-8.8" font-family="sans-serif" font-size="9.00">Ref</text>
</g>
<!-- v4&#45;&gt;v7 -->
<g id="edge15" class="edge"><title>v4&#45;&gt;v7</title>
<path fill="none" stroke="black" d="M47.2256,-58.2455C51.9576,-49.4125 58.9882,-36.2887 64.3523,-26.2758"/>
<polygon fill="black" stroke="black" points="66.8343,-21.6427 66.4565,-27.1126 65.6537,-23.8464 64.4731,-26.0501 64.4731,-26.0501 64.4731,-26.0501 65.6537,-23.8464 62.4898,-24.9876 66.8343,-21.6427 66.8343,-21.6427"/>
</g>
<!-- v6&#45;&gt;v7 -->
<g id="edge28" class="edge"><title>v6&#45;&gt;v7</title>
<path fill="none" stroke="green" d="M598.441,-119.627C593.107,-118.244 587.379,-116.922 582,-116 485.961,-99.538 234.127,-119.383 145,-80 115.533,-66.9793 90.349,-36.9826 78.7797,-21.5517"/>
</g>
<!-- v19 -->
<g id="v19_Id(3)" class="node"><title>v19</title>
<ellipse fill="none" stroke="black" cx="674" cy="-11" rx="25" ry="11"/>
<text text-anchor="middle" x="674" y="-8.8" font-family="sans-serif" font-size="9.00">Id(3)</text>
</g>
<!-- v6&#45;&gt;v19 -->
<g id="edge16" class="edge"><title>v6&#45;&gt;v19</title>
<path fill="none" stroke="black" d="M628.65,-116.434C636.272,-107.56 647.193,-93.695 654,-80 662.51,-62.8785 668.057,-41.4912 671.104,-27.3232"/>
<polygon fill="black" stroke="black" points="672.185,-22.0896 673.377,-27.4416 671.679,-24.5378 671.173,-26.9861 671.173,-26.9861 671.173,-26.9861 671.679,-24.5378 668.97,-26.5305 672.185,-22.0896 672.185,-22.0896"/>
</g>
<!-- v20 -->
<g id="v20_Private" class="node"><title>v20</title>
<ellipse fill="none" stroke="black" cx="613" cy="-69" rx="32.5" ry="11"/>
<text text-anchor="middle" x="613" y="-66.8" font-family="sans-serif" font-size="9.00">Private</text>
</g>
<!-- v6&#45;&gt;v20 -->
<g id="edge17" class="edge"><title>v6&#45;&gt;v20</title>
<path fill="none" stroke="black" d="M618.749,-115.988C617.687,-107.494 616.146,-95.1697 614.927,-85.4169"/>
<polygon fill="black" stroke="black" points="614.288,-80.3039 617.141,-84.9861 614.598,-82.7846 614.908,-85.2653 614.908,-85.2653 614.908,-85.2653 614.598,-82.7846 612.676,-85.5444 614.288,-80.3039 614.288,-80.3039"/>
</g>
<!-- v10 -->
<g id="v10_Data" class="node"><title>v10</title>
<ellipse fill="none" stroke="black" cx="479" cy="-11" rx="21.5" ry="11"/>
<text text-anchor="middle" x="479" y="-8.8" font-family="sans-serif" font-size="9.00">Data</text>
</g>
<!-- v9&#45;&gt;v10 -->
<g id="edge18" class="edge"><title>v9&#45;&gt;v10</title>
<path fill="none" stroke="black" d="M488.855,-57.9883C487.034,-49.4941 484.393,-37.1697 482.304,-27.4169"/>
<polygon fill="black" stroke="black" points="481.208,-22.3039 484.456,-26.7214 481.732,-24.7484 482.256,-27.1929 482.256,-27.1929 482.256,-27.1929 481.732,-24.7484 480.056,-27.6644 481.208,-22.3039 481.208,-22.3039"/>
</g>
<!-- v12 -->
<g id="v12_Id(1)" class="node"><title>v12</title>
<ellipse fill="none" stroke="black" cx="223" cy="-11" rx="25" ry="11"/>
<text text-anchor="middle" x="223" y="-8.8" font-family="sans-serif" font-size="9.00">Id(1)</text>
</g>
<!-- v11&#45;&gt;v12 -->
<g id="edge19" class="edge"><title>v11&#45;&gt;v12</title>
<path fill="none" stroke="black" d="M274.879,-116.457C265.44,-107.809 252.164,-94.2668 244,-80 234.381,-63.1901 228.668,-41.4714 225.684,-27.1576"/>
<polygon fill="black" stroke="black" points="224.706,-22.2419 227.889,-26.7067 225.194,-24.6939 225.682,-27.1458 225.682,-27.1458 225.682,-27.1458 225.194,-24.6939 223.475,-27.5849 224.706,-22.2419 224.706,-22.2419"/>
</g>
<!-- v13 -->
<g id="v13_Private" class="node"><title>v13</title>
<ellipse fill="none" stroke="black" cx="286" cy="-69" rx="32.5" ry="11"/>
<text text-anchor="middle" x="286" y="-66.8" font-family="sans-serif" font-size="9.00">Private</text>
</g>
<!-- v11&#45;&gt;v13 -->
<g id="edge20" class="edge"><title>v11&#45;&gt;v13</title>
<path fill="none" stroke="black" d="M286,-115.988C286,-107.494 286,-95.1697 286,-85.4169"/>
<polygon fill="black" stroke="black" points="286,-80.3039 288.25,-85.3038 286,-82.8039 286,-85.3039 286,-85.3039 286,-85.3039 286,-82.8039 283.75,-85.3039 286,-80.3039 286,-80.3039"/>
</g>
<!-- v14 -->
<g id="v14_Data" class="node"><title>v14</title>
<ellipse fill="none" stroke="black" cx="288" cy="-11" rx="21.5" ry="11"/>
<text text-anchor="middle" x="288" y="-8.8" font-family="sans-serif" font-size="9.00">Data</text>
</g>
<!-- v13&#45;&gt;v14 -->
<g id="edge21" class="edge"><title>v13&#45;&gt;v14</title>
<path fill="none" stroke="black" d="M286.358,-57.9883C286.661,-49.4941 287.101,-37.1697 287.449,-27.4169"/>
<polygon fill="black" stroke="black" points="287.632,-22.3039 289.702,-27.381 287.543,-24.8023 287.453,-27.3007 287.453,-27.3007 287.453,-27.3007 287.543,-24.8023 285.205,-27.2203 287.632,-22.3039 287.632,-22.3039"/>
</g>
<!-- v16 -->
<g id="v16_Id(2)" class="node"><title>v16</title>
<ellipse fill="none" stroke="black" cx="353" cy="-11" rx="25" ry="11"/>
<text text-anchor="middle" x="353" y="-8.8" font-family="sans-serif" font-size="9.00">Id(2)</text>
</g>
<!-- v15&#45;&gt;v16 -->
<g id="edge22" class="edge"><title>v15&#45;&gt;v16</title>
<path fill="none" stroke="black" d="M396.482,-116.669C386.789,-108.158 373.363,-94.6964 366,-80 357.635,-63.3031 354.635,-41.825 353.569,-27.52"/>
<polygon fill="black" stroke="black" points="353.239,-22.2305 355.796,-27.0805 353.395,-24.7256 353.551,-27.2208 353.551,-27.2208 353.551,-27.2208 353.395,-24.7256 351.305,-27.361 353.239,-22.2305 353.239,-22.2305"/>
</g>
<!-- v17 -->
<g id="v17_Private" class="node"><title>v17</title>
<ellipse fill="none" stroke="black" cx="408" cy="-69" rx="32.5" ry="11"/>
<text text-anchor="middle" x="408" y="-66.8" font-family="sans-serif" font-size="9.00">Private</text>
</g>
<!-- v15&#45;&gt;v17 -->
<g id="edge23" class="edge"><title>v15&#45;&gt;v17</title>
<path fill="none" stroke="black" d="M408,-115.988C408,-107.494 408,-95.1697 408,-85.4169"/>
<polygon fill="black" stroke="black" points="408,-80.3039 410.25,-85.3038 408,-82.8039 408,-85.3039 408,-85.3039 408,-85.3039 408,-82.8039 405.75,-85.3039 408,-80.3039 408,-80.3039"/>
</g>
<!-- v18 -->
<g id="v18_Data" class="node"><title>v18</title>
<ellipse fill="none" stroke="black" cx="418" cy="-11" rx="21.5" ry="11"/>
<text text-anchor="middle" x="418" y="-8.8" font-family="sans-serif" font-size="9.00">Data</text>
</g>
<!-- v17&#45;&gt;v18 -->
<g id="edge24" class="edge"><title>v17&#45;&gt;v18</title>
<path fill="none" stroke="black" d="M409.788,-57.9883C411.305,-49.4941 413.505,-37.1697 415.247,-27.4169"/>
<polygon fill="black" stroke="black" points="416.16,-22.3039 417.496,-27.6216 415.721,-24.7649 415.281,-27.226 415.281,-27.226 415.281,-27.226 415.721,-24.7649 413.066,-26.8305 416.16,-22.3039 416.16,-22.3039"/>
</g>
<!-- v21 -->
<g id="v21_Data" class="node"><title>v21</title>
<ellipse fill="none" stroke="black" cx="609" cy="-11" rx="21.5" ry="11"/>
<text text-anchor="middle" x="609" y="-8.8" font-family="sans-serif" font-size="9.00">Data</text>
</g>
<!-- v20&#45;&gt;v21 -->
<g id="edge25" class="edge"><title>v20&#45;&gt;v21</title>
<path fill="none" stroke="black" d="M612.285,-57.9883C611.678,-49.4941 610.798,-37.1697 610.101,-27.4169"/>
<polygon fill="black" stroke="black" points="609.736,-22.3039 612.337,-27.1308 609.914,-24.7975 610.092,-27.2912 610.092,-27.2912 610.092,-27.2912 609.914,-24.7975 607.848,-27.4515 609.736,-22.3039 609.736,-22.3039"/>
</g>
</g>
</svg>
