<?xml version="1.0" encoding="UTF-8" standalone="no"?>
<?xml-stylesheet href="style.css" type="text/css"?>
<!DOCTYPE svg PUBLIC "-//W3C//DTD SVG 1.1//EN"
 "http://www.w3.org/Graphics/SVG/1.1/DTD/svg11.dtd">
<!-- Generated by graphviz version 2.38.0 (20140413.2041)
 -->
<!-- Title: 3.svg Pages: 1 -->
<svg width="998pt" height="316pt"
 viewBox="0.00 0.00 998.04 316.00" xmlns="http://www.w3.org/2000/svg" xmlns:xlink="http://www.w3.org/1999/xlink">
<g id="graph0" class="graph" transform="scale(1 1) rotate(0) translate(4 312)">
<title>3.svg</title>
<polygon fill="white" stroke="none" points="-4,4 -4,-312 994.04,-312 994.04,4 -4,4"/>
<!-- r0 -->
<g id="node1" class="node"><title>r0</title>
<polygon fill="none" stroke="black" stroke-dasharray="5,2" points="363.04,-308 340.04,-308 340.04,-290 363.04,-290 363.04,-308"/>
<text text-anchor="middle" x="351.54" y="-296.8" font-family="serif" font-size="9.00">0</text>
</g>
<!-- v0 -->
<g id="v0_H" class="node"><title>v0</title>
<ellipse fill="none" stroke="black" cx="351.54" cy="-243" rx="11" ry="11"/>
<text text-anchor="middle" x="351.54" y="-240.8" font-family="sans-serif" font-size="9.00">H</text>
</g>
<!-- r0&#45;&gt;v0 -->
<g id="edge1" class="edge"><title>r0&#45;&gt;v0</title>
<path fill="none" stroke="black" d="M351.54,-289.562C351.54,-281.453 351.54,-269.014 351.54,-259.181"/>
<polygon fill="black" stroke="black" points="351.54,-254.03 353.79,-259.03 351.54,-256.53 351.54,-259.03 351.54,-259.03 351.54,-259.03 351.54,-256.53 349.29,-259.03 351.54,-254.03 351.54,-254.03"/>
</g>
<!-- odb -->
<g id="node2" class="node"><title>odb</title>
<text text-anchor="middle" x="285.54" y="-296.8" font-family="serif" font-size="9.00">db</text>
</g>
<!-- e8 -->
<g id="node10" class="node"><title>e8</title>
</g>
<!-- odb&#45;&gt;e8 -->
<g id="edge33" class="edge"><title>odb&#45;&gt;e8</title>
<path fill="none" stroke="green" d="M285.54,-289.562C285.54,-274.375 285.54,-244 285.54,-244"/>
</g>
<!-- e1 -->
<g id="node3" class="node"><title>e1</title>
</g>
<!-- v4 -->
<g id="v4_Nurse" class="node"><title>v4</title>
<ellipse fill="none" stroke="black" cx="39.5396" cy="-69" rx="25" ry="11"/>
<text text-anchor="middle" x="39.5396" y="-66.8" font-family="sans-serif" font-size="9.00">Nurse</text>
</g>
<!-- e1&#45;&gt;v4 -->
<g id="edge26" class="edge"><title>e1&#45;&gt;v4</title>
<path fill="none" stroke="green" d="M39.5396,-122.167C39.5396,-113.586 39.5396,-92.5957 39.5396,-80.0117"/>
<polygon fill="green" stroke="green" points="43.0396,-125.3 36.0396,-125.3 36.0396,-123.9 43.0396,-123.9 43.0396,-125.3"/>
<polyline fill="none" stroke="green" points="39.5396,-126 39.5397,-122.5 "/>
</g>
<!-- e2 -->
<g id="node4" class="node"><title>e2</title>
</g>
<!-- v9 -->
<g id="v9_Record" class="node"><title>v9</title>
<ellipse fill="none" stroke="black" cx="639.54" cy="-127" rx="29" ry="11"/>
<text text-anchor="middle" x="639.54" y="-124.8" font-family="sans-serif" font-size="9.00">Record</text>
</g>
<!-- e2&#45;&gt;v9 -->
<g id="edge27" class="edge"><title>e2&#45;&gt;v9</title>
<path fill="none" stroke="green" d="M639.54,-180.167C639.54,-171.586 639.54,-150.596 639.54,-138.012"/>
<polygon fill="green" stroke="green" points="643.04,-183.3 636.04,-183.3 636.04,-181.9 643.04,-181.9 643.04,-183.3"/>
<polyline fill="none" stroke="green" points="639.54,-184 639.54,-180.5 "/>
</g>
<!-- e3 -->
<g id="node5" class="node"><title>e3</title>
</g>
<!-- v13 -->
<g id="v13_Record" class="node"><title>v13</title>
<ellipse fill="none" stroke="black" cx="764.54" cy="-127" rx="29" ry="11"/>
<text text-anchor="middle" x="764.54" y="-124.8" font-family="sans-serif" font-size="9.00">Record</text>
</g>
<!-- e3&#45;&gt;v13 -->
<g id="edge28" class="edge"><title>e3&#45;&gt;v13</title>
<path fill="none" stroke="green" d="M764.54,-180.167C764.54,-171.586 764.54,-150.596 764.54,-138.012"/>
<polygon fill="green" stroke="green" points="768.04,-183.3 761.04,-183.3 761.04,-181.9 768.04,-181.9 768.04,-183.3"/>
<polyline fill="none" stroke="green" points="764.54,-184 764.54,-180.5 "/>
</g>
<!-- e4 -->
<g id="node6" class="node"><title>e4</title>
</g>
<!-- v17 -->
<g id="v17_Record" class="node"><title>v17</title>
<ellipse fill="none" stroke="black" cx="894.54" cy="-127" rx="29" ry="11"/>
<text text-anchor="middle" x="894.54" y="-124.8" font-family="sans-serif" font-size="9.00">Record</text>
</g>
<!-- e4&#45;&gt;v17 -->
<g id="edge29" class="edge"><title>e4&#45;&gt;v17</title>
<path fill="none" stroke="green" d="M894.54,-180.167C894.54,-171.586 894.54,-150.596 894.54,-138.012"/>
<polygon fill="green" stroke="green" points="898.04,-183.3 891.04,-183.3 891.04,-181.9 898.04,-181.9 898.04,-183.3"/>
<polyline fill="none" stroke="green" points="894.54,-184 894.54,-180.5 "/>
</g>
<!-- e5 -->
<g id="node7" class="node"><title>e5</title>
</g>
<!-- v21 -->
<g id="v21_Nurse" class="node"><title>v21</title>
<ellipse fill="none" stroke="black" cx="211.54" cy="-11" rx="25" ry="11"/>
<text text-anchor="middle" x="211.54" y="-8.8" font-family="sans-serif" font-size="9.00">Nurse</text>
</g>
<!-- e5&#45;&gt;v21 -->
<g id="edge30" class="edge"><title>e5&#45;&gt;v21</title>
<path fill="none" stroke="green" d="M211.54,-64.1674C211.54,-55.5862 211.54,-34.5957 211.54,-22.0117"/>
<polygon fill="green" stroke="green" points="215.04,-67.3001 208.04,-67.2999 208.04,-65.8999 215.04,-65.9001 215.04,-67.3001"/>
<polyline fill="none" stroke="green" points="211.54,-68 211.54,-64.5 "/>
</g>
<!-- e6 -->
<g id="node8" class="node"><title>e6</title>
</g>
<!-- v22 -->
<g id="v22_Nurse" class="node"><title>v22</title>
<ellipse fill="none" stroke="black" cx="307.54" cy="-11" rx="25" ry="11"/>
<text text-anchor="middle" x="307.54" y="-8.8" font-family="sans-serif" font-size="9.00">Nurse</text>
</g>
<!-- e6&#45;&gt;v22 -->
<g id="edge31" class="edge"><title>e6&#45;&gt;v22</title>
<path fill="none" stroke="green" d="M307.54,-64.1674C307.54,-55.5862 307.54,-34.5957 307.54,-22.0117"/>
<polygon fill="green" stroke="green" points="311.04,-67.3001 304.04,-67.2999 304.04,-65.8999 311.04,-65.9001 311.04,-67.3001"/>
<polyline fill="none" stroke="green" points="307.54,-68 307.54,-64.5 "/>
</g>
<!-- e7 -->
<g id="node9" class="node"><title>e7</title>
</g>
<!-- v23 -->
<g id="v23_Doc" class="node"><title>v23</title>
<ellipse fill="none" stroke="black" cx="403.54" cy="-11" rx="18" ry="11"/>
<text text-anchor="middle" x="403.54" y="-8.8" font-family="sans-serif" font-size="9.00">Doc</text>
</g>
<!-- e7&#45;&gt;v23 -->
<g id="edge32" class="edge"><title>e7&#45;&gt;v23</title>
<path fill="none" stroke="green" d="M403.54,-64.1674C403.54,-55.5862 403.54,-34.5957 403.54,-22.0117"/>
<polygon fill="green" stroke="green" points="407.04,-67.3001 400.04,-67.2999 400.04,-65.8999 407.04,-65.9001 407.04,-67.3001"/>
<polyline fill="none" stroke="green" points="403.54,-68 403.54,-64.5 "/>
</g>
<!-- v1 -->
<g id="v1_DB" class="node"><title>v1</title>
<ellipse fill="none" stroke="black" cx="672.54" cy="-185" rx="14.5" ry="11"/>
<text text-anchor="middle" x="672.54" y="-182.8" font-family="sans-serif" font-size="9.00">DB</text>
</g>
<!-- e8&#45;&gt;v1 -->
<g id="edge34" class="edge"><title>e8&#45;&gt;v1</title>
<path fill="none" stroke="green" d="M285.54,-242C285.54,-242 310.897,-235.407 331.54,-232 471.441,-208.91 511.292,-231.621 648.54,-196 652.559,-194.957 656.789,-193.372 660.559,-191.769"/>
</g>
<!-- v3 -->
<g id="v3_DBadmin" class="node"><title>v3</title>
<ellipse fill="none" stroke="black" cx="135.54" cy="-11" rx="32.5" ry="11"/>
<text text-anchor="middle" x="135.54" y="-8.8" font-family="sans-serif" font-size="9.00">DBadmin</text>
</g>
<!-- e8&#45;&gt;v3 -->
<g id="edge35" class="edge"><title>e8&#45;&gt;v3</title>
<path fill="none" stroke="green" d="M285.54,-242C285.54,-242 203.969,-239.206 168.54,-196 125.118,-143.049 130.856,-52.3863 134.215,-22.149"/>
</g>
<!-- e8&#45;&gt;v4 -->
<g id="edge36" class="edge"><title>e8&#45;&gt;v4</title>
<path fill="none" stroke="green" d="M285.54,-242C285.54,-242 159.796,-253.03 92.5396,-196 73.7154,-180.038 50.4922,-106.835 42.4453,-79.9444"/>
</g>
<!-- e8&#45;&gt;v21 -->
<g id="edge37" class="edge"><title>e8&#45;&gt;v21</title>
<path fill="none" stroke="green" d="M285.54,-242C285.54,-242 272.338,-217.078 264.54,-196 240.547,-131.15 220.554,-50.2125 213.9,-22.1408"/>
</g>
<!-- e8&#45;&gt;v22 -->
<g id="edge38" class="edge"><title>e8&#45;&gt;v22</title>
<path fill="none" stroke="green" d="M285.54,-242C285.54,-242 324.539,-140.544 316.54,-58 315.331,-45.5266 312.319,-31.4139 310.112,-22.148"/>
</g>
<!-- e8&#45;&gt;v23 -->
<g id="edge39" class="edge"><title>e8&#45;&gt;v23</title>
<path fill="none" stroke="green" d="M285.54,-242C285.54,-242 382.683,-166.479 412.54,-80 419.38,-60.1885 412.561,-35.4772 407.631,-21.9673"/>
</g>
<!-- v0&#45;&gt;v1 -->
<g id="edge2" class="edge"><title>v0&#45;&gt;v1</title>
<path fill="none" stroke="black" d="M362.529,-241.257C401.93,-238.394 539.545,-226.661 648.54,-196 650.913,-195.332 653.367,-194.494 655.758,-193.589"/>
<polygon fill="black" stroke="black" points="660.532,-191.669 656.733,-195.622 658.213,-192.602 655.893,-193.534 655.893,-193.534 655.893,-193.534 658.213,-192.602 655.054,-191.447 660.532,-191.669 660.532,-191.669"/>
</g>
<!-- v0&#45;&gt;v3 -->
<g id="edge3" class="edge"><title>v0&#45;&gt;v3</title>
<path fill="none" stroke="black" d="M344.349,-234.536C335.615,-225.457 320.448,-209.651 307.54,-196 247.446,-132.449 176.257,-55.8794 147.996,-25.4309"/>
<polygon fill="black" stroke="black" points="144.454,-21.6139 149.504,-23.7485 146.154,-23.4465 147.855,-25.279 147.855,-25.279 147.855,-25.279 146.154,-23.4465 146.206,-26.8095 144.454,-21.6139 144.454,-21.6139"/>
</g>
<!-- v0&#45;&gt;v4 -->
<g id="edge4" class="edge"><title>v0&#45;&gt;v4</title>
<path fill="none" stroke="black" d="M340.849,-240.073C306.457,-233.759 199.132,-213.11 168.54,-196 115.848,-166.53 69.3397,-109.96 49.5988,-83.8415"/>
<polygon fill="black" stroke="black" points="46.4454,-79.6254 51.242,-82.2818 47.9428,-81.6274 49.4402,-83.6294 49.4402,-83.6294 49.4402,-83.6294 47.9428,-81.6274 47.6384,-84.9771 46.4454,-79.6254 46.4454,-79.6254"/>
</g>
<!-- v0&#45;&gt;v21 -->
<g id="edge5" class="edge"><title>v0&#45;&gt;v21</title>
<path fill="none" stroke="black" d="M346.222,-233.265C325.018,-198.43 246.382,-69.2406 220.132,-26.1166"/>
<polygon fill="black" stroke="black" points="217.477,-21.7542 221.999,-24.8553 218.777,-23.8897 220.077,-26.0252 220.077,-26.0252 220.077,-26.0252 218.777,-23.8897 218.155,-27.1951 217.477,-21.7542 217.477,-21.7542"/>
</g>
<!-- v0&#45;&gt;v22 -->
<g id="edge6" class="edge"><title>v0&#45;&gt;v22</title>
<path fill="none" stroke="black" d="M351.74,-231.765C352.02,-203.453 350.944,-121.957 331.54,-58 328.141,-46.7998 322.01,-35.1185 316.795,-26.33"/>
<polygon fill="black" stroke="black" points="314.015,-21.7666 318.538,-24.8664 315.316,-23.9017 316.616,-26.0368 316.616,-26.0368 316.616,-26.0368 315.316,-23.9017 314.695,-27.2073 314.015,-21.7666 314.015,-21.7666"/>
</g>
<!-- v0&#45;&gt;v23 -->
<g id="edge7" class="edge"><title>v0&#45;&gt;v23</title>
<path fill="none" stroke="black" d="M362.555,-240.458C383.299,-236.894 427.755,-225.966 446.54,-196 479.115,-144.033 469.053,-115.052 446.54,-58 440.992,-43.9415 428.896,-31.6518 418.942,-23.3204"/>
<polygon fill="black" stroke="black" points="414.832,-19.9986 420.135,-21.3919 416.776,-21.5702 418.721,-23.1418 418.721,-23.1418 418.721,-23.1418 416.776,-21.5702 417.306,-24.8916 414.832,-19.9986 414.832,-19.9986"/>
</g>
<!-- v2 -->
<g id="v2_Record" class="node"><title>v2</title>
<ellipse fill="none" stroke="black" cx="563.54" cy="-127" rx="29" ry="11"/>
<text text-anchor="middle" x="563.54" y="-124.8" font-family="sans-serif" font-size="9.00">Record</text>
</g>
<!-- v1&#45;&gt;v2 -->
<g id="edge8" class="edge"><title>v1&#45;&gt;v2</title>
<path fill="none" stroke="black" d="M660.875,-178.007C642.621,-168.629 607.051,-150.354 584.337,-138.685"/>
<polygon fill="black" stroke="black" points="579.696,-136.301 585.172,-136.584 581.92,-137.443 584.144,-138.586 584.144,-138.586 584.144,-138.586 581.92,-137.443 583.115,-140.587 579.696,-136.301 579.696,-136.301"/>
</g>
<!-- v1&#45;&gt;v9 -->
<g id="edge9" class="edge"><title>v1&#45;&gt;v9</title>
<path fill="none" stroke="black" d="M667.09,-174.753C661.883,-165.917 653.959,-152.469 647.943,-142.261"/>
<polygon fill="black" stroke="black" points="645.33,-137.827 649.807,-140.992 646.599,-139.98 647.869,-142.134 647.869,-142.134 647.869,-142.134 646.599,-139.98 645.93,-143.277 645.33,-137.827 645.33,-137.827"/>
</g>
<!-- v1&#45;&gt;v13 -->
<g id="edge10" class="edge"><title>v1&#45;&gt;v13</title>
<path fill="none" stroke="black" d="M683.454,-177.356C698.812,-168.008 727.015,-150.841 745.775,-139.422"/>
<polygon fill="black" stroke="black" points="750.327,-136.651 747.226,-141.173 748.191,-137.951 746.056,-139.251 746.056,-139.251 746.056,-139.251 748.191,-137.951 744.886,-137.329 750.327,-136.651 750.327,-136.651"/>
</g>
<!-- v1&#45;&gt;v17 -->
<g id="edge11" class="edge"><title>v1&#45;&gt;v17</title>
<path fill="none" stroke="black" d="M686.092,-180.581C721.698,-171.6 818.447,-147.195 866.575,-135.054"/>
<polygon fill="black" stroke="black" points="871.637,-133.777 867.34,-137.182 869.213,-134.389 866.789,-135 866.789,-135 866.789,-135 869.213,-134.389 866.239,-132.819 871.637,-133.777 871.637,-133.777"/>
</g>
<!-- v5 -->
<g id="v5_Ref" class="node"><title>v5</title>
<ellipse fill="none" stroke="black" cx="39.5396" cy="-11" rx="18" ry="11"/>
<text text-anchor="middle" x="39.5396" y="-8.8" font-family="sans-serif" font-size="9.00">Ref</text>
</g>
<!-- v2&#45;&gt;v5 -->
<g id="edge25" class="edge"><title>v2&#45;&gt;v5</title>
<path fill="none" stroke="green" d="M534.575,-125.851C425.195,-124.993 41.6332,-119.192 5.53958,-80 -11.0916,-61.9414 14.3928,-34.2275 29.573,-20.4216"/>
</g>
<!-- v6 -->
<g id="v6_Id(0)" class="node"><title>v6</title>
<ellipse fill="none" stroke="black" cx="504.54" cy="-11" rx="25" ry="11"/>
<text text-anchor="middle" x="504.54" y="-8.8" font-family="sans-serif" font-size="9.00">Id(0)</text>
</g>
<!-- v2&#45;&gt;v6 -->
<g id="edge12" class="edge"><title>v2&#45;&gt;v6</title>
<path fill="none" stroke="black" d="M554.482,-116.456C546.48,-107.597 534.96,-93.7419 527.54,-80 518.258,-62.8107 511.72,-41.1772 508.045,-26.9865"/>
<polygon fill="black" stroke="black" points="506.821,-22.1171 510.222,-26.4177 507.43,-24.5417 508.04,-26.9662 508.04,-26.9662 508.04,-26.9662 507.43,-24.5417 505.858,-27.5148 506.821,-22.1171 506.821,-22.1171"/>
</g>
<!-- v7 -->
<g id="v7_Private" class="node"><title>v7</title>
<ellipse fill="none" stroke="black" cx="569.54" cy="-69" rx="32.5" ry="11"/>
<text text-anchor="middle" x="569.54" y="-66.8" font-family="sans-serif" font-size="9.00">Private</text>
</g>
<!-- v2&#45;&gt;v7 -->
<g id="edge13" class="edge"><title>v2&#45;&gt;v7</title>
<path fill="none" stroke="black" d="M564.612,-115.988C565.522,-107.494 566.843,-95.1697 567.888,-85.4169"/>
<polygon fill="black" stroke="black" points="568.436,-80.3039 570.14,-85.5152 568.169,-82.7896 567.903,-85.2754 567.903,-85.2754 567.903,-85.2754 568.169,-82.7896 565.666,-85.0357 568.436,-80.3039 568.436,-80.3039"/>
</g>
<!-- v4&#45;&gt;v5 -->
<g id="edge14" class="edge"><title>v4&#45;&gt;v5</title>
<path fill="none" stroke="black" d="M39.5396,-57.9883C39.5396,-49.4941 39.5396,-37.1697 39.5396,-27.4169"/>
<polygon fill="black" stroke="black" points="39.5396,-22.3039 41.7897,-27.3038 39.5396,-24.8039 39.5397,-27.3039 39.5397,-27.3039 39.5397,-27.3039 39.5396,-24.8039 37.2897,-27.3039 39.5396,-22.3039 39.5396,-22.3039"/>
</g>
<!-- v8 -->
<g id="v8_Data" class="node"><title>v8</title>
<ellipse fill="none" stroke="black" cx="569.54" cy="-11" rx="21.5" ry="11"/>
<text text-anchor="middle" x="569.54" y="-8.8" font-family="sans-serif" font-size="9.00">Data</text>
</g>
<!-- v7&#45;&gt;v8 -->
<g id="edge15" class="edge"><title>v7&#45;&gt;v8</title>
<path fill="none" stroke="black" d="M569.54,-57.9883C569.54,-49.4941 569.54,-37.1697 569.54,-27.4169"/>
<polygon fill="black" stroke="black" points="569.54,-22.3039 571.79,-27.3038 569.54,-24.8039 569.54,-27.3039 569.54,-27.3039 569.54,-27.3039 569.54,-24.8039 567.29,-27.3039 569.54,-22.3039 569.54,-22.3039"/>
</g>
<!-- v10 -->
<g id="v10_Id(1)" class="node"><title>v10</title>
<ellipse fill="none" stroke="black" cx="634.54" cy="-11" rx="25" ry="11"/>
<text text-anchor="middle" x="634.54" y="-8.8" font-family="sans-serif" font-size="9.00">Id(1)</text>
</g>
<!-- v9&#45;&gt;v10 -->
<g id="edge16" class="edge"><title>v9&#45;&gt;v10</title>
<path fill="none" stroke="black" d="M639.096,-115.883C638.22,-95.9059 636.262,-51.276 635.221,-27.5402"/>
<polygon fill="black" stroke="black" points="634.989,-22.2579 637.457,-27.1545 635.099,-24.7555 635.209,-27.2531 635.209,-27.2531 635.209,-27.2531 635.099,-24.7555 632.961,-27.3518 634.989,-22.2579 634.989,-22.2579"/>
</g>
<!-- v11 -->
<g id="v11_Private" class="node"><title>v11</title>
<ellipse fill="none" stroke="black" cx="697.54" cy="-69" rx="32.5" ry="11"/>
<text text-anchor="middle" x="697.54" y="-66.8" font-family="sans-serif" font-size="9.00">Private</text>
</g>
<!-- v9&#45;&gt;v11 -->
<g id="edge17" class="edge"><title>v9&#45;&gt;v11</title>
<path fill="none" stroke="black" d="M649.378,-116.5C658.82,-107.385 673.166,-93.5334 683.746,-83.318"/>
<polygon fill="black" stroke="black" points="687.457,-79.7345 685.423,-84.8261 685.659,-81.471 683.86,-83.2075 683.86,-83.2075 683.86,-83.2075 685.659,-81.471 682.298,-81.5888 687.457,-79.7345 687.457,-79.7345"/>
</g>
<!-- v12 -->
<g id="v12_Data" class="node"><title>v12</title>
<ellipse fill="none" stroke="black" cx="699.54" cy="-11" rx="21.5" ry="11"/>
<text text-anchor="middle" x="699.54" y="-8.8" font-family="sans-serif" font-size="9.00">Data</text>
</g>
<!-- v11&#45;&gt;v12 -->
<g id="edge18" class="edge"><title>v11&#45;&gt;v12</title>
<path fill="none" stroke="black" d="M697.897,-57.9883C698.201,-49.4941 698.641,-37.1697 698.989,-27.4169"/>
<polygon fill="black" stroke="black" points="699.172,-22.3039 701.242,-27.381 699.082,-24.8023 698.993,-27.3007 698.993,-27.3007 698.993,-27.3007 699.082,-24.8023 696.744,-27.2203 699.172,-22.3039 699.172,-22.3039"/>
</g>
<!-- v14 -->
<g id="v14_Id(2)" class="node"><title>v14</title>
<ellipse fill="none" stroke="black" cx="764.54" cy="-11" rx="25" ry="11"/>
<text text-anchor="middle" x="764.54" y="-8.8" font-family="sans-serif" font-size="9.00">Id(2)</text>
</g>
<!-- v13&#45;&gt;v14 -->
<g id="edge19" class="edge"><title>v13&#45;&gt;v14</title>
<path fill="none" stroke="black" d="M764.54,-115.883C764.54,-95.9059 764.54,-51.276 764.54,-27.5402"/>
<polygon fill="black" stroke="black" points="764.54,-22.2579 766.79,-27.2579 764.54,-24.7579 764.54,-27.2579 764.54,-27.2579 764.54,-27.2579 764.54,-24.7579 762.29,-27.258 764.54,-22.2579 764.54,-22.2579"/>
</g>
<!-- v15 -->
<g id="v15_Private" class="node"><title>v15</title>
<ellipse fill="none" stroke="black" cx="827.54" cy="-69" rx="32.5" ry="11"/>
<text text-anchor="middle" x="827.54" y="-66.8" font-family="sans-serif" font-size="9.00">Private</text>
</g>
<!-- v13&#45;&gt;v15 -->
<g id="edge20" class="edge"><title>v13&#45;&gt;v15</title>
<path fill="none" stroke="black" d="M775.227,-116.5C785.482,-107.385 801.064,-93.5334 812.557,-83.318"/>
<polygon fill="black" stroke="black" points="816.588,-79.7345 814.346,-84.738 814.72,-81.3954 812.851,-83.0563 812.851,-83.0563 812.851,-83.0563 814.72,-81.3954 811.356,-81.3746 816.588,-79.7345 816.588,-79.7345"/>
</g>
<!-- v16 -->
<g id="v16_Data" class="node"><title>v16</title>
<ellipse fill="none" stroke="black" cx="829.54" cy="-11" rx="21.5" ry="11"/>
<text text-anchor="middle" x="829.54" y="-8.8" font-family="sans-serif" font-size="9.00">Data</text>
</g>
<!-- v15&#45;&gt;v16 -->
<g id="edge21" class="edge"><title>v15&#45;&gt;v16</title>
<path fill="none" stroke="black" d="M827.897,-57.9883C828.201,-49.4941 828.641,-37.1697 828.989,-27.4169"/>
<polygon fill="black" stroke="black" points="829.172,-22.3039 831.242,-27.381 829.082,-24.8023 828.993,-27.3007 828.993,-27.3007 828.993,-27.3007 829.082,-24.8023 826.744,-27.2203 829.172,-22.3039 829.172,-22.3039"/>
</g>
<!-- v18 -->
<g id="v18_Id(3)" class="node"><title>v18</title>
<ellipse fill="none" stroke="black" cx="894.54" cy="-11" rx="25" ry="11"/>
<text text-anchor="middle" x="894.54" y="-8.8" font-family="sans-serif" font-size="9.00">Id(3)</text>
</g>
<!-- v17&#45;&gt;v18 -->
<g id="edge22" class="edge"><title>v17&#45;&gt;v18</title>
<path fill="none" stroke="black" d="M894.54,-115.883C894.54,-95.9059 894.54,-51.276 894.54,-27.5402"/>
<polygon fill="black" stroke="black" points="894.54,-22.2579 896.79,-27.2579 894.54,-24.7579 894.54,-27.2579 894.54,-27.2579 894.54,-27.2579 894.54,-24.7579 892.29,-27.258 894.54,-22.2579 894.54,-22.2579"/>
</g>
<!-- v19 -->
<g id="v19_Private" class="node"><title>v19</title>
<ellipse fill="none" stroke="black" cx="957.54" cy="-69" rx="32.5" ry="11"/>
<text text-anchor="middle" x="957.54" y="-66.8" font-family="sans-serif" font-size="9.00">Private</text>
</g>
<!-- v17&#45;&gt;v19 -->
<g id="edge23" class="edge"><title>v17&#45;&gt;v19</title>
<path fill="none" stroke="black" d="M905.227,-116.5C915.482,-107.385 931.064,-93.5334 942.557,-83.318"/>
<polygon fill="black" stroke="black" points="946.588,-79.7345 944.346,-84.738 944.72,-81.3954 942.851,-83.0563 942.851,-83.0563 942.851,-83.0563 944.72,-81.3954 941.356,-81.3746 946.588,-79.7345 946.588,-79.7345"/>
</g>
<!-- v20 -->
<g id="v20_Data" class="node"><title>v20</title>
<ellipse fill="none" stroke="black" cx="959.54" cy="-11" rx="21.5" ry="11"/>
<text text-anchor="middle" x="959.54" y="-8.8" font-family="sans-serif" font-size="9.00">Data</text>
</g>
<!-- v19&#45;&gt;v20 -->
<g id="edge24" class="edge"><title>v19&#45;&gt;v20</title>
<path fill="none" stroke="black" d="M957.897,-57.9883C958.201,-49.4941 958.641,-37.1697 958.989,-27.4169"/>
<polygon fill="black" stroke="black" points="959.172,-22.3039 961.242,-27.381 959.082,-24.8023 958.993,-27.3007 958.993,-27.3007 958.993,-27.3007 959.082,-24.8023 956.744,-27.2203 959.172,-22.3039 959.172,-22.3039"/>
</g>
</g>
</svg>
