<?xml version="1.0" encoding="UTF-8" standalone="no"?>
<?xml-stylesheet href="style.css" type="text/css"?>
<!DOCTYPE svg PUBLIC "-//W3C//DTD SVG 1.1//EN"
 "http://www.w3.org/Graphics/SVG/1.1/DTD/svg11.dtd">
<!-- Generated by graphviz version 2.38.0 (20140413.2041)
 -->
<!-- Title: 42.svg Pages: 1 -->
<svg width="957pt" height="316pt"
 viewBox="0.00 0.00 957.00 316.00" xmlns="http://www.w3.org/2000/svg" xmlns:xlink="http://www.w3.org/1999/xlink">
<g id="graph0" class="graph" transform="scale(1 1) rotate(0) translate(4 312)">
<title>42.svg</title>
<polygon fill="white" stroke="none" points="-4,4 -4,-312 953,-312 953,4 -4,4"/>
<!-- r0 -->
<g id="node1" class="node"><title>r0</title>
<polygon fill="none" stroke="black" stroke-dasharray="5,2" points="644.5,-308 621.5,-308 621.5,-290 644.5,-290 644.5,-308"/>
<text text-anchor="middle" x="633" y="-296.8" font-family="serif" font-size="9.00">0</text>
</g>
<!-- v0 -->
<g id="v0_H" class="node"><title>v0</title>
<ellipse fill="none" stroke="black" cx="633" cy="-243" rx="11" ry="11"/>
<text text-anchor="middle" x="633" y="-240.8" font-family="sans-serif" font-size="9.00">H</text>
</g>
<!-- r0&#45;&gt;v0 -->
<g id="edge1" class="edge"><title>r0&#45;&gt;v0</title>
<path fill="none" stroke="black" d="M633,-289.562C633,-281.453 633,-269.014 633,-259.181"/>
<polygon fill="black" stroke="black" points="633,-254.03 635.25,-259.03 633,-256.53 633,-259.03 633,-259.03 633,-259.03 633,-256.53 630.75,-259.03 633,-254.03 633,-254.03"/>
</g>
<!-- odb -->
<g id="node2" class="node"><title>odb</title>
<text text-anchor="middle" x="761" y="-296.8" font-family="serif" font-size="9.00">db</text>
</g>
<!-- e8 -->
<g id="node9" class="node"><title>e8</title>
</g>
<!-- odb&#45;&gt;e8 -->
<g id="edge34" class="edge"><title>odb&#45;&gt;e8</title>
<path fill="none" stroke="green" d="M761,-289.562C761,-274.375 761,-244 761,-244"/>
</g>
<!-- e1 -->
<g id="node3" class="node"><title>e1</title>
</g>
<!-- v4 -->
<g id="v4_Nurse" class="node"><title>v4</title>
<ellipse fill="none" stroke="black" cx="44" cy="-69" rx="25" ry="11"/>
<text text-anchor="middle" x="44" y="-66.8" font-family="sans-serif" font-size="9.00">Nurse</text>
</g>
<!-- e1&#45;&gt;v4 -->
<g id="edge27" class="edge"><title>e1&#45;&gt;v4</title>
<path fill="none" stroke="green" d="M44,-122.167C44,-113.586 44,-92.5957 44,-80.0117"/>
<polygon fill="green" stroke="green" points="47.5,-125.3 40.5,-125.3 40.5001,-123.9 47.5001,-123.9 47.5,-125.3"/>
<polyline fill="none" stroke="green" points="44,-126 44.0001,-122.5 "/>
</g>
<!-- e3 -->
<g id="node4" class="node"><title>e3</title>
</g>
<!-- v11 -->
<g id="v11_Record" class="node"><title>v11</title>
<ellipse fill="none" stroke="black" cx="295" cy="-127" rx="29" ry="11"/>
<text text-anchor="middle" x="295" y="-124.8" font-family="sans-serif" font-size="9.00">Record</text>
</g>
<!-- e3&#45;&gt;v11 -->
<g id="edge29" class="edge"><title>e3&#45;&gt;v11</title>
<path fill="none" stroke="green" d="M295,-180.167C295,-171.586 295,-150.596 295,-138.012"/>
<polygon fill="green" stroke="green" points="298.5,-183.3 291.5,-183.3 291.5,-181.9 298.5,-181.9 298.5,-183.3"/>
<polyline fill="none" stroke="green" points="295,-184 295,-180.5 "/>
</g>
<!-- e4 -->
<g id="node5" class="node"><title>e4</title>
</g>
<!-- v18 -->
<g id="v18_Record" class="node"><title>v18</title>
<ellipse fill="none" stroke="black" cx="417" cy="-127" rx="29" ry="11"/>
<text text-anchor="middle" x="417" y="-124.8" font-family="sans-serif" font-size="9.00">Record</text>
</g>
<!-- e4&#45;&gt;v18 -->
<g id="edge30" class="edge"><title>e4&#45;&gt;v18</title>
<path fill="none" stroke="green" d="M417,-180.167C417,-171.586 417,-150.596 417,-138.012"/>
<polygon fill="green" stroke="green" points="420.5,-183.3 413.5,-183.3 413.5,-181.9 420.5,-181.9 420.5,-183.3"/>
<polyline fill="none" stroke="green" points="417,-184 417,-180.5 "/>
</g>
<!-- e5 -->
<g id="node6" class="node"><title>e5</title>
</g>
<!-- v22 -->
<g id="v22_Nurse" class="node"><title>v22</title>
<ellipse fill="none" stroke="black" cx="164" cy="-11" rx="25" ry="11"/>
<text text-anchor="middle" x="164" y="-8.8" font-family="sans-serif" font-size="9.00">Nurse</text>
</g>
<!-- e5&#45;&gt;v22 -->
<g id="edge31" class="edge"><title>e5&#45;&gt;v22</title>
<path fill="none" stroke="green" d="M164,-64.1674C164,-55.5862 164,-34.5957 164,-22.0117"/>
<polygon fill="green" stroke="green" points="167.5,-67.3001 160.5,-67.2999 160.5,-65.8999 167.5,-65.9001 167.5,-67.3001"/>
<polyline fill="none" stroke="green" points="164,-68 164,-64.5 "/>
</g>
<!-- e6 -->
<g id="node7" class="node"><title>e6</title>
</g>
<!-- v23 -->
<g id="v23_Nurse" class="node"><title>v23</title>
<ellipse fill="none" stroke="black" cx="835" cy="-11" rx="25" ry="11"/>
<text text-anchor="middle" x="835" y="-8.8" font-family="sans-serif" font-size="9.00">Nurse</text>
</g>
<!-- e6&#45;&gt;v23 -->
<g id="edge32" class="edge"><title>e6&#45;&gt;v23</title>
<path fill="none" stroke="green" d="M835,-64.1674C835,-55.5862 835,-34.5957 835,-22.0117"/>
<polygon fill="green" stroke="green" points="838.5,-67.3001 831.5,-67.2999 831.5,-65.8999 838.5,-65.9001 838.5,-67.3001"/>
<polyline fill="none" stroke="green" points="835,-68 835,-64.5 "/>
</g>
<!-- e7 -->
<g id="node8" class="node"><title>e7</title>
</g>
<!-- v24 -->
<g id="v24_Doc" class="node"><title>v24</title>
<ellipse fill="none" stroke="black" cx="931" cy="-11" rx="18" ry="11"/>
<text text-anchor="middle" x="931" y="-8.8" font-family="sans-serif" font-size="9.00">Doc</text>
</g>
<!-- e7&#45;&gt;v24 -->
<g id="edge33" class="edge"><title>e7&#45;&gt;v24</title>
<path fill="none" stroke="green" d="M931,-64.1674C931,-55.5862 931,-34.5957 931,-22.0117"/>
<polygon fill="green" stroke="green" points="934.5,-67.3001 927.5,-67.2999 927.5,-65.8999 934.5,-65.9001 934.5,-67.3001"/>
<polyline fill="none" stroke="green" points="931,-68 931,-64.5 "/>
</g>
<!-- v1 -->
<g id="v1_DB" class="node"><title>v1</title>
<ellipse fill="none" stroke="black" cx="591" cy="-185" rx="14.5" ry="11"/>
<text text-anchor="middle" x="591" y="-182.8" font-family="sans-serif" font-size="9.00">DB</text>
</g>
<!-- e8&#45;&gt;v1 -->
<g id="edge35" class="edge"><title>e8&#45;&gt;v1</title>
<path fill="none" stroke="green" d="M761,-242C761,-242 643.313,-203.233 603.778,-190.209"/>
</g>
<!-- v3 -->
<g id="v3_DBadmin" class="node"><title>v3</title>
<ellipse fill="none" stroke="black" cx="759" cy="-11" rx="32.5" ry="11"/>
<text text-anchor="middle" x="759" y="-8.8" font-family="sans-serif" font-size="9.00">DBadmin</text>
</g>
<!-- e8&#45;&gt;v3 -->
<g id="edge36" class="edge"><title>e8&#45;&gt;v3</title>
<path fill="none" stroke="green" d="M761,-242C761,-242 770.311,-216.957 773,-196 781.479,-129.905 766.938,-49.7457 761.186,-22.0095"/>
</g>
<!-- e8&#45;&gt;v4 -->
<g id="edge37" class="edge"><title>e8&#45;&gt;v4</title>
<path fill="none" stroke="green" d="M761,-242C761,-242 701.035,-236.052 653,-232 547.958,-223.14 276.611,-238.175 180,-196 119.528,-169.601 68.6955,-104.684 50.8421,-79.8665"/>
</g>
<!-- e8&#45;&gt;v22 -->
<g id="edge38" class="edge"><title>e8&#45;&gt;v22</title>
<path fill="none" stroke="green" d="M761,-242C761,-242 287.844,-197.715 285,-196 215.266,-153.942 177.808,-54.4922 167.192,-22.2701"/>
</g>
<!-- e8&#45;&gt;v23 -->
<g id="edge39" class="edge"><title>e8&#45;&gt;v23</title>
<path fill="none" stroke="green" d="M761,-242C761,-242 846.539,-242.175 878,-196 916.975,-138.797 862.491,-50.8917 842.132,-21.7549"/>
</g>
<!-- e8&#45;&gt;v24 -->
<g id="edge40" class="edge"><title>e8&#45;&gt;v24</title>
<path fill="none" stroke="green" d="M761,-242C761,-242 851.235,-240.464 897,-196 943.076,-151.234 946.196,-121.942 940,-58 938.791,-45.5266 935.78,-31.4139 933.572,-22.148"/>
</g>
<!-- v0&#45;&gt;v1 -->
<g id="edge2" class="edge"><title>v0&#45;&gt;v1</title>
<path fill="none" stroke="black" d="M626.803,-233.737C619.954,-224.605 608.83,-209.774 600.798,-199.064"/>
<polygon fill="black" stroke="black" points="597.78,-195.04 602.58,-197.69 599.28,-197.04 600.78,-199.04 600.78,-199.04 600.78,-199.04 599.28,-197.04 598.98,-200.39 597.78,-195.04 597.78,-195.04"/>
</g>
<!-- v0&#45;&gt;v3 -->
<g id="edge3" class="edge"><title>v0&#45;&gt;v3</title>
<path fill="none" stroke="black" d="M637.939,-232.984C657.172,-197.876 727.165,-70.1112 750.993,-26.6155"/>
<polygon fill="black" stroke="black" points="753.537,-21.9722 753.108,-27.4384 752.336,-24.1648 751.135,-26.3573 751.135,-26.3573 751.135,-26.3573 752.336,-24.1648 749.161,-25.2763 753.537,-21.9722 753.537,-21.9722"/>
</g>
<!-- v0&#45;&gt;v4 -->
<g id="edge4" class="edge"><title>v0&#45;&gt;v4</title>
<path fill="none" stroke="black" d="M622.009,-242.207C553.229,-243.336 181.775,-246.97 83,-196 53.0116,-180.526 45.5948,-169.691 34,-138 27.5733,-120.435 32.766,-98.8855 37.7583,-84.8169"/>
<polygon fill="black" stroke="black" points="39.5666,-79.9934 39.9182,-85.465 38.689,-82.3343 37.8114,-84.6752 37.8114,-84.6752 37.8114,-84.6752 38.689,-82.3343 35.7046,-83.8853 39.5666,-79.9934 39.5666,-79.9934"/>
</g>
<!-- v0&#45;&gt;v22 -->
<g id="edge5" class="edge"><title>v0&#45;&gt;v22</title>
<path fill="none" stroke="black" d="M621.86,-241.636C555.513,-239.372 214.147,-226.299 180,-196 131.307,-152.795 149.782,-62.3989 159.515,-26.831"/>
<polygon fill="black" stroke="black" points="160.879,-21.9932 161.688,-27.4161 160.2,-24.3994 159.522,-26.8057 159.522,-26.8057 159.522,-26.8057 160.2,-24.3994 157.356,-26.1952 160.879,-21.9932 160.879,-21.9932"/>
</g>
<!-- v0&#45;&gt;v23 -->
<g id="edge6" class="edge"><title>v0&#45;&gt;v23</title>
<path fill="none" stroke="black" d="M640.486,-234.661C649.548,-225.705 665.188,-210.02 678,-196 734.661,-133.996 798.624,-56.556 823.889,-25.6528"/>
<polygon fill="black" stroke="black" points="827.054,-21.7774 825.634,-27.0733 825.473,-23.7138 823.891,-25.6501 823.891,-25.6501 823.891,-25.6501 825.473,-23.7138 822.149,-24.2269 827.054,-21.7774 827.054,-21.7774"/>
</g>
<!-- v0&#45;&gt;v24 -->
<g id="edge7" class="edge"><title>v0&#45;&gt;v24</title>
<path fill="none" stroke="black" d="M642.106,-236.295C655.476,-227.837 681.097,-211.319 702,-196 786.198,-134.295 882.146,-53.6384 917.232,-23.7797"/>
<polygon fill="black" stroke="black" points="921.204,-20.3949 918.858,-25.3504 919.301,-22.0164 917.398,-23.6379 917.398,-23.6379 917.398,-23.6379 919.301,-22.0164 915.939,-21.9253 921.204,-20.3949 921.204,-20.3949"/>
</g>
<!-- v2 -->
<g id="v2_Record" class="node"><title>v2</title>
<ellipse fill="none" stroke="black" cx="553" cy="-127" rx="29" ry="11"/>
<text text-anchor="middle" x="553" y="-124.8" font-family="sans-serif" font-size="9.00">Record</text>
</g>
<!-- v1&#45;&gt;v2 -->
<g id="edge8" class="edge"><title>v1&#45;&gt;v2</title>
<path fill="none" stroke="black" d="M584.895,-175.003C578.873,-166.129 569.581,-152.435 562.576,-142.113"/>
<polygon fill="black" stroke="black" points="559.731,-137.919 564.4,-140.793 561.135,-139.988 562.538,-142.056 562.538,-142.056 562.538,-142.056 561.135,-139.988 560.676,-143.32 559.731,-137.919 559.731,-137.919"/>
</g>
<!-- v6 -->
<g id="v6_Record" class="node"><title>v6</title>
<ellipse fill="none" stroke="black" cx="629" cy="-127" rx="29" ry="11"/>
<text text-anchor="middle" x="629" y="-124.8" font-family="sans-serif" font-size="9.00">Record</text>
</g>
<!-- v1&#45;&gt;v6 -->
<g id="edge9" class="edge"><title>v1&#45;&gt;v6</title>
<path fill="none" stroke="black" d="M597.105,-175.003C603.127,-166.129 612.419,-152.435 619.424,-142.113"/>
<polygon fill="black" stroke="black" points="622.269,-137.919 621.324,-143.32 620.865,-139.988 619.462,-142.056 619.462,-142.056 619.462,-142.056 620.865,-139.988 617.6,-140.793 622.269,-137.919 622.269,-137.919"/>
</g>
<!-- v1&#45;&gt;v11 -->
<g id="edge10" class="edge"><title>v1&#45;&gt;v11</title>
<path fill="none" stroke="black" d="M577.12,-181.374C531.873,-172.814 387.939,-145.583 324.974,-133.671"/>
<polygon fill="black" stroke="black" points="319.86,-132.703 325.191,-131.422 322.316,-133.168 324.772,-133.633 324.772,-133.633 324.772,-133.633 322.316,-133.168 324.354,-135.843 319.86,-132.703 319.86,-132.703"/>
</g>
<!-- v1&#45;&gt;v18 -->
<g id="edge11" class="edge"><title>v1&#45;&gt;v18</title>
<path fill="none" stroke="black" d="M577.922,-179.791C549.255,-170.565 480.443,-148.418 442.753,-136.288"/>
<polygon fill="black" stroke="black" points="437.871,-134.717 443.32,-134.107 440.251,-135.483 442.631,-136.249 442.631,-136.249 442.631,-136.249 440.251,-135.483 441.941,-138.391 437.871,-134.717 437.871,-134.717"/>
</g>
<!-- v5 -->
<g id="v5_Ref" class="node"><title>v5</title>
<ellipse fill="none" stroke="black" cx="18" cy="-11" rx="18" ry="11"/>
<text text-anchor="middle" x="18" y="-8.8" font-family="sans-serif" font-size="9.00">Ref</text>
</g>
<!-- v2&#45;&gt;v5 -->
<g id="edge26" class="edge"><title>v2&#45;&gt;v5</title>
<path fill="none" stroke="green" d="M525.557,-123.044C505.917,-120.967 478.844,-118.181 455,-116 405.6,-111.482 43.6328,-116.464 10,-80 -4.66802,-64.0974 5.56351,-36.4369 12.7042,-21.7745"/>
</g>
<!-- v15 -->
<g id="v15_Id(2)" class="node"><title>v15</title>
<ellipse fill="none" stroke="black" cx="553" cy="-11" rx="25" ry="11"/>
<text text-anchor="middle" x="553" y="-8.8" font-family="sans-serif" font-size="9.00">Id(2)</text>
</g>
<!-- v2&#45;&gt;v15 -->
<g id="edge12" class="edge"><title>v2&#45;&gt;v15</title>
<path fill="none" stroke="black" d="M553,-115.883C553,-95.9059 553,-51.276 553,-27.5402"/>
<polygon fill="black" stroke="black" points="553,-22.2579 555.25,-27.2579 553,-24.7579 553,-27.2579 553,-27.2579 553,-27.2579 553,-24.7579 550.75,-27.258 553,-22.2579 553,-22.2579"/>
</g>
<!-- v16 -->
<g id="v16_Private" class="node"><title>v16</title>
<ellipse fill="none" stroke="black" cx="500" cy="-69" rx="32.5" ry="11"/>
<text text-anchor="middle" x="500" y="-66.8" font-family="sans-serif" font-size="9.00">Private</text>
</g>
<!-- v2&#45;&gt;v16 -->
<g id="edge13" class="edge"><title>v2&#45;&gt;v16</title>
<path fill="none" stroke="black" d="M544.009,-116.5C535.457,-107.465 522.502,-93.7761 512.86,-83.5877"/>
<polygon fill="black" stroke="black" points="509.213,-79.7345 514.284,-81.8193 510.931,-81.5502 512.65,-83.366 512.65,-83.366 512.65,-83.366 510.931,-81.5502 511.016,-84.9126 509.213,-79.7345 509.213,-79.7345"/>
</g>
<!-- v4&#45;&gt;v5 -->
<g id="edge14" class="edge"><title>v4&#45;&gt;v5</title>
<path fill="none" stroke="black" d="M39.3517,-57.9883C35.2847,-49.2286 29.3265,-36.3956 24.7369,-26.5103"/>
<polygon fill="black" stroke="black" points="22.608,-21.925 26.7544,-25.5125 23.6608,-24.1925 24.7137,-26.4601 24.7137,-26.4601 24.7137,-26.4601 23.6608,-24.1925 22.6729,-27.4076 22.608,-21.925 22.608,-21.925"/>
</g>
<!-- v7 -->
<g id="v7_Ref" class="node"><title>v7</title>
<ellipse fill="none" stroke="black" cx="72" cy="-11" rx="18" ry="11"/>
<text text-anchor="middle" x="72" y="-8.8" font-family="sans-serif" font-size="9.00">Ref</text>
</g>
<!-- v4&#45;&gt;v7 -->
<g id="edge15" class="edge"><title>v4&#45;&gt;v7</title>
<path fill="none" stroke="black" d="M49.0058,-57.9883C53.3857,-49.2286 59.8022,-36.3956 64.7449,-26.5103"/>
<polygon fill="black" stroke="black" points="67.0375,-21.925 66.8138,-27.4034 65.9194,-24.1611 64.8014,-26.3971 64.8014,-26.3971 64.8014,-26.3971 65.9194,-24.1611 62.7889,-25.3909 67.0375,-21.925 67.0375,-21.925"/>
</g>
<!-- v6&#45;&gt;v7 -->
<g id="edge28" class="edge"><title>v6&#45;&gt;v7</title>
<path fill="none" stroke="green" d="M607.441,-119.627C602.107,-118.244 596.379,-116.922 591,-116 398.921,-83.076 334.448,-153.598 154,-80 121.806,-66.8692 92.6736,-36.3514 79.4687,-21.0653"/>
</g>
<!-- v8 -->
<g id="v8_Id(0)" class="node"><title>v8</title>
<ellipse fill="none" stroke="black" cx="683" cy="-11" rx="25" ry="11"/>
<text text-anchor="middle" x="683" y="-8.8" font-family="sans-serif" font-size="9.00">Id(0)</text>
</g>
<!-- v6&#45;&gt;v8 -->
<g id="edge16" class="edge"><title>v6&#45;&gt;v8</title>
<path fill="none" stroke="black" d="M637.65,-116.434C645.272,-107.56 656.193,-93.695 663,-80 671.51,-62.8785 677.057,-41.4912 680.104,-27.3232"/>
<polygon fill="black" stroke="black" points="681.185,-22.0896 682.377,-27.4416 680.679,-24.5378 680.173,-26.9861 680.173,-26.9861 680.173,-26.9861 680.679,-24.5378 677.97,-26.5305 681.185,-22.0896 681.185,-22.0896"/>
</g>
<!-- v9 -->
<g id="v9_Private" class="node"><title>v9</title>
<ellipse fill="none" stroke="black" cx="622" cy="-69" rx="32.5" ry="11"/>
<text text-anchor="middle" x="622" y="-66.8" font-family="sans-serif" font-size="9.00">Private</text>
</g>
<!-- v6&#45;&gt;v9 -->
<g id="edge17" class="edge"><title>v6&#45;&gt;v9</title>
<path fill="none" stroke="black" d="M627.749,-115.988C626.687,-107.494 625.146,-95.1697 623.927,-85.4169"/>
<polygon fill="black" stroke="black" points="623.288,-80.3039 626.141,-84.9861 623.598,-82.7846 623.908,-85.2653 623.908,-85.2653 623.908,-85.2653 623.598,-82.7846 621.676,-85.5444 623.288,-80.3039 623.288,-80.3039"/>
</g>
<!-- v10 -->
<g id="v10_Data" class="node"><title>v10</title>
<ellipse fill="none" stroke="black" cx="618" cy="-11" rx="21.5" ry="11"/>
<text text-anchor="middle" x="618" y="-8.8" font-family="sans-serif" font-size="9.00">Data</text>
</g>
<!-- v9&#45;&gt;v10 -->
<g id="edge18" class="edge"><title>v9&#45;&gt;v10</title>
<path fill="none" stroke="black" d="M621.285,-57.9883C620.678,-49.4941 619.798,-37.1697 619.101,-27.4169"/>
<polygon fill="black" stroke="black" points="618.736,-22.3039 621.337,-27.1308 618.914,-24.7975 619.092,-27.2912 619.092,-27.2912 619.092,-27.2912 618.914,-24.7975 616.848,-27.4515 618.736,-22.3039 618.736,-22.3039"/>
</g>
<!-- v12 -->
<g id="v12_Id(1)" class="node"><title>v12</title>
<ellipse fill="none" stroke="black" cx="232" cy="-11" rx="25" ry="11"/>
<text text-anchor="middle" x="232" y="-8.8" font-family="sans-serif" font-size="9.00">Id(1)</text>
</g>
<!-- v11&#45;&gt;v12 -->
<g id="edge19" class="edge"><title>v11&#45;&gt;v12</title>
<path fill="none" stroke="black" d="M283.879,-116.457C274.44,-107.809 261.164,-94.2668 253,-80 243.381,-63.1901 237.668,-41.4714 234.684,-27.1576"/>
<polygon fill="black" stroke="black" points="233.706,-22.2419 236.889,-26.7067 234.194,-24.6939 234.682,-27.1458 234.682,-27.1458 234.682,-27.1458 234.194,-24.6939 232.475,-27.5849 233.706,-22.2419 233.706,-22.2419"/>
</g>
<!-- v13 -->
<g id="v13_Private" class="node"><title>v13</title>
<ellipse fill="none" stroke="black" cx="295" cy="-69" rx="32.5" ry="11"/>
<text text-anchor="middle" x="295" y="-66.8" font-family="sans-serif" font-size="9.00">Private</text>
</g>
<!-- v11&#45;&gt;v13 -->
<g id="edge20" class="edge"><title>v11&#45;&gt;v13</title>
<path fill="none" stroke="black" d="M295,-115.988C295,-107.494 295,-95.1697 295,-85.4169"/>
<polygon fill="black" stroke="black" points="295,-80.3039 297.25,-85.3038 295,-82.8039 295,-85.3039 295,-85.3039 295,-85.3039 295,-82.8039 292.75,-85.3039 295,-80.3039 295,-80.3039"/>
</g>
<!-- v14 -->
<g id="v14_Data" class="node"><title>v14</title>
<ellipse fill="none" stroke="black" cx="297" cy="-11" rx="21.5" ry="11"/>
<text text-anchor="middle" x="297" y="-8.8" font-family="sans-serif" font-size="9.00">Data</text>
</g>
<!-- v13&#45;&gt;v14 -->
<g id="edge21" class="edge"><title>v13&#45;&gt;v14</title>
<path fill="none" stroke="black" d="M295.358,-57.9883C295.661,-49.4941 296.101,-37.1697 296.449,-27.4169"/>
<polygon fill="black" stroke="black" points="296.632,-22.3039 298.702,-27.381 296.543,-24.8023 296.453,-27.3007 296.453,-27.3007 296.453,-27.3007 296.543,-24.8023 294.205,-27.2203 296.632,-22.3039 296.632,-22.3039"/>
</g>
<!-- v17 -->
<g id="v17_Data" class="node"><title>v17</title>
<ellipse fill="none" stroke="black" cx="488" cy="-11" rx="21.5" ry="11"/>
<text text-anchor="middle" x="488" y="-8.8" font-family="sans-serif" font-size="9.00">Data</text>
</g>
<!-- v16&#45;&gt;v17 -->
<g id="edge22" class="edge"><title>v16&#45;&gt;v17</title>
<path fill="none" stroke="black" d="M497.855,-57.9883C496.034,-49.4941 493.393,-37.1697 491.304,-27.4169"/>
<polygon fill="black" stroke="black" points="490.208,-22.3039 493.456,-26.7214 490.732,-24.7484 491.256,-27.1929 491.256,-27.1929 491.256,-27.1929 490.732,-24.7484 489.056,-27.6644 490.208,-22.3039 490.208,-22.3039"/>
</g>
<!-- v19 -->
<g id="v19_Id(3)" class="node"><title>v19</title>
<ellipse fill="none" stroke="black" cx="362" cy="-11" rx="25" ry="11"/>
<text text-anchor="middle" x="362" y="-8.8" font-family="sans-serif" font-size="9.00">Id(3)</text>
</g>
<!-- v18&#45;&gt;v19 -->
<g id="edge23" class="edge"><title>v18&#45;&gt;v19</title>
<path fill="none" stroke="black" d="M405.482,-116.669C395.789,-108.158 382.363,-94.6964 375,-80 366.635,-63.3031 363.635,-41.825 362.569,-27.52"/>
<polygon fill="black" stroke="black" points="362.239,-22.2305 364.796,-27.0805 362.395,-24.7256 362.551,-27.2208 362.551,-27.2208 362.551,-27.2208 362.395,-24.7256 360.305,-27.361 362.239,-22.2305 362.239,-22.2305"/>
</g>
<!-- v20 -->
<g id="v20_Private" class="node"><title>v20</title>
<ellipse fill="none" stroke="black" cx="417" cy="-69" rx="32.5" ry="11"/>
<text text-anchor="middle" x="417" y="-66.8" font-family="sans-serif" font-size="9.00">Private</text>
</g>
<!-- v18&#45;&gt;v20 -->
<g id="edge24" class="edge"><title>v18&#45;&gt;v20</title>
<path fill="none" stroke="black" d="M417,-115.988C417,-107.494 417,-95.1697 417,-85.4169"/>
<polygon fill="black" stroke="black" points="417,-80.3039 419.25,-85.3038 417,-82.8039 417,-85.3039 417,-85.3039 417,-85.3039 417,-82.8039 414.75,-85.3039 417,-80.3039 417,-80.3039"/>
</g>
<!-- v21 -->
<g id="v21_Data" class="node"><title>v21</title>
<ellipse fill="none" stroke="black" cx="427" cy="-11" rx="21.5" ry="11"/>
<text text-anchor="middle" x="427" y="-8.8" font-family="sans-serif" font-size="9.00">Data</text>
</g>
<!-- v20&#45;&gt;v21 -->
<g id="edge25" class="edge"><title>v20&#45;&gt;v21</title>
<path fill="none" stroke="black" d="M418.788,-57.9883C420.305,-49.4941 422.505,-37.1697 424.247,-27.4169"/>
<polygon fill="black" stroke="black" points="425.16,-22.3039 426.496,-27.6216 424.721,-24.7649 424.281,-27.226 424.281,-27.226 424.281,-27.226 424.721,-24.7649 422.066,-26.8305 425.16,-22.3039 425.16,-22.3039"/>
</g>
</g>
</svg>
