<?xml version="1.0" encoding="UTF-8" standalone="no"?>
<?xml-stylesheet href="style.css" type="text/css"?>
<!DOCTYPE svg PUBLIC "-//W3C//DTD SVG 1.1//EN"
 "http://www.w3.org/Graphics/SVG/1.1/DTD/svg11.dtd">
<!-- Generated by graphviz version 2.38.0 (20140413.2041)
 -->
<!-- Title: 54.svg Pages: 1 -->
<svg width="1083pt" height="316pt"
 viewBox="0.00 0.00 1083.00 316.00" xmlns="http://www.w3.org/2000/svg" xmlns:xlink="http://www.w3.org/1999/xlink">
<g id="graph0" class="graph" transform="scale(1 1) rotate(0) translate(4 312)">
<title>54.svg</title>
<polygon fill="white" stroke="none" points="-4,4 -4,-312 1079,-312 1079,4 -4,4"/>
<!-- r0 -->
<g id="node1" class="node"><title>r0</title>
<polygon fill="none" stroke="black" stroke-dasharray="5,2" points="341.5,-308 318.5,-308 318.5,-290 341.5,-290 341.5,-308"/>
<text text-anchor="middle" x="330" y="-296.8" font-family="serif" font-size="9.00">0</text>
</g>
<!-- v0 -->
<g id="v0_H" class="node"><title>v0</title>
<ellipse fill="none" stroke="black" cx="330" cy="-243" rx="11" ry="11"/>
<text text-anchor="middle" x="330" y="-240.8" font-family="sans-serif" font-size="9.00">H</text>
</g>
<!-- r0&#45;&gt;v0 -->
<g id="edge1" class="edge"><title>r0&#45;&gt;v0</title>
<path fill="none" stroke="black" d="M330,-289.562C330,-281.453 330,-269.014 330,-259.181"/>
<polygon fill="black" stroke="black" points="330,-254.03 332.25,-259.03 330,-256.53 330,-259.03 330,-259.03 330,-259.03 330,-256.53 327.75,-259.03 330,-254.03 330,-254.03"/>
</g>
<!-- odb -->
<g id="node2" class="node"><title>odb</title>
<text text-anchor="middle" x="434" y="-296.8" font-family="serif" font-size="9.00">db</text>
</g>
<!-- e8 -->
<g id="node8" class="node"><title>e8</title>
</g>
<!-- odb&#45;&gt;e8 -->
<g id="edge35" class="edge"><title>odb&#45;&gt;e8</title>
<path fill="none" stroke="green" d="M434,-289.562C434,-274.375 434,-244 434,-244"/>
</g>
<!-- e1 -->
<g id="node3" class="node"><title>e1</title>
</g>
<!-- v4 -->
<g id="v4_Nurse" class="node"><title>v4</title>
<ellipse fill="none" stroke="black" cx="179" cy="-69" rx="25" ry="11"/>
<text text-anchor="middle" x="179" y="-66.8" font-family="sans-serif" font-size="9.00">Nurse</text>
</g>
<!-- e1&#45;&gt;v4 -->
<g id="edge28" class="edge"><title>e1&#45;&gt;v4</title>
<path fill="none" stroke="green" d="M179,-122.167C179,-113.586 179,-92.5957 179,-80.0117"/>
<polygon fill="green" stroke="green" points="182.5,-125.3 175.5,-125.3 175.5,-123.9 182.5,-123.9 182.5,-125.3"/>
<polyline fill="none" stroke="green" points="179,-126 179,-122.5 "/>
</g>
<!-- e3 -->
<g id="node4" class="node"><title>e3</title>
</g>
<!-- v7 -->
<g id="v7_Doc" class="node"><title>v7</title>
<ellipse fill="none" stroke="black" cx="45" cy="-69" rx="18" ry="11"/>
<text text-anchor="middle" x="45" y="-66.8" font-family="sans-serif" font-size="9.00">Doc</text>
</g>
<!-- e3&#45;&gt;v7 -->
<g id="edge30" class="edge"><title>e3&#45;&gt;v7</title>
<path fill="none" stroke="green" d="M45,-122.167C45,-113.586 45,-92.5957 45,-80.0117"/>
<polygon fill="green" stroke="green" points="48.5,-125.3 41.5,-125.3 41.5001,-123.9 48.5001,-123.9 48.5,-125.3"/>
<polyline fill="none" stroke="green" points="45,-126 45.0001,-122.5 "/>
</g>
<!-- e5 -->
<g id="node5" class="node"><title>e5</title>
</g>
<!-- v11 -->
<g id="v11_Record" class="node"><title>v11</title>
<ellipse fill="none" stroke="black" cx="461" cy="-127" rx="29" ry="11"/>
<text text-anchor="middle" x="461" y="-124.8" font-family="sans-serif" font-size="9.00">Record</text>
</g>
<!-- e5&#45;&gt;v11 -->
<g id="edge32" class="edge"><title>e5&#45;&gt;v11</title>
<path fill="none" stroke="green" d="M461,-180.167C461,-171.586 461,-150.596 461,-138.012"/>
<polygon fill="green" stroke="green" points="464.5,-183.3 457.5,-183.3 457.5,-181.9 464.5,-181.9 464.5,-183.3"/>
<polyline fill="none" stroke="green" points="461,-184 461,-180.5 "/>
</g>
<!-- e6 -->
<g id="node6" class="node"><title>e6</title>
</g>
<!-- v24 -->
<g id="v24_Nurse" class="node"><title>v24</title>
<ellipse fill="none" stroke="black" cx="916" cy="-11" rx="25" ry="11"/>
<text text-anchor="middle" x="916" y="-8.8" font-family="sans-serif" font-size="9.00">Nurse</text>
</g>
<!-- e6&#45;&gt;v24 -->
<g id="edge33" class="edge"><title>e6&#45;&gt;v24</title>
<path fill="none" stroke="green" d="M916,-64.1674C916,-55.5862 916,-34.5957 916,-22.0117"/>
<polygon fill="green" stroke="green" points="919.5,-67.3001 912.5,-67.2999 912.5,-65.8999 919.5,-65.9001 919.5,-67.3001"/>
<polyline fill="none" stroke="green" points="916,-68 916,-64.5 "/>
</g>
<!-- e7 -->
<g id="node7" class="node"><title>e7</title>
</g>
<!-- v25 -->
<g id="v25_Nurse" class="node"><title>v25</title>
<ellipse fill="none" stroke="black" cx="1050" cy="-11" rx="25" ry="11"/>
<text text-anchor="middle" x="1050" y="-8.8" font-family="sans-serif" font-size="9.00">Nurse</text>
</g>
<!-- e7&#45;&gt;v25 -->
<g id="edge34" class="edge"><title>e7&#45;&gt;v25</title>
<path fill="none" stroke="green" d="M1050,-64.1674C1050,-55.5862 1050,-34.5957 1050,-22.0117"/>
<polygon fill="green" stroke="green" points="1053.5,-67.3001 1046.5,-67.2999 1046.5,-65.8999 1053.5,-65.9001 1053.5,-67.3001"/>
<polyline fill="none" stroke="green" points="1050,-68 1050,-64.5 "/>
</g>
<!-- v1 -->
<g id="v1_DB" class="node"><title>v1</title>
<ellipse fill="none" stroke="black" cx="516" cy="-185" rx="14.5" ry="11"/>
<text text-anchor="middle" x="516" y="-182.8" font-family="sans-serif" font-size="9.00">DB</text>
</g>
<!-- e8&#45;&gt;v1 -->
<g id="edge36" class="edge"><title>e8&#45;&gt;v1</title>
<path fill="none" stroke="green" d="M434,-242C434,-242 483.55,-208.161 505.615,-193.092"/>
</g>
<!-- v3 -->
<g id="v3_DBadmin" class="node"><title>v3</title>
<ellipse fill="none" stroke="black" cx="289" cy="-11" rx="32.5" ry="11"/>
<text text-anchor="middle" x="289" y="-8.8" font-family="sans-serif" font-size="9.00">DBadmin</text>
</g>
<!-- e8&#45;&gt;v3 -->
<g id="edge37" class="edge"><title>e8&#45;&gt;v3</title>
<path fill="none" stroke="green" d="M434,-242C434,-242 322.984,-65.9062 295.23,-21.8828"/>
</g>
<!-- e8&#45;&gt;v4 -->
<g id="edge38" class="edge"><title>e8&#45;&gt;v4</title>
<path fill="none" stroke="green" d="M434,-242C434,-242 374.232,-222.26 332,-196 272.679,-159.114 211.231,-101.498 188.33,-79.2227"/>
</g>
<!-- e8&#45;&gt;v7 -->
<g id="edge39" class="edge"><title>e8&#45;&gt;v7</title>
<path fill="none" stroke="green" d="M434,-242C434,-242 356.156,-219.685 296,-196 238.262,-173.267 224.463,-165.826 169,-138 127.523,-117.191 79.7022,-90.0439 57.5119,-77.2593"/>
</g>
<!-- e8&#45;&gt;v24 -->
<g id="edge40" class="edge"><title>e8&#45;&gt;v24</title>
<path fill="none" stroke="green" d="M434,-242C434,-242 919.442,-239.175 959,-196 1005.98,-144.722 945.661,-52.1875 923.538,-21.8937"/>
</g>
<!-- e8&#45;&gt;v25 -->
<g id="edge41" class="edge"><title>e8&#45;&gt;v25</title>
<path fill="none" stroke="green" d="M434,-242C434,-242 931.374,-232.634 980,-196 1009.62,-173.686 1039.32,-56.9934 1047.68,-21.9564"/>
</g>
<!-- v0&#45;&gt;v1 -->
<g id="edge2" class="edge"><title>v0&#45;&gt;v1</title>
<path fill="none" stroke="black" d="M340.265,-238.909C370.513,-229.803 459.58,-202.987 498.01,-191.416"/>
<polygon fill="black" stroke="black" points="502.87,-189.953 498.731,-193.549 500.477,-190.674 498.083,-191.395 498.083,-191.395 498.083,-191.395 500.477,-190.674 497.434,-189.24 502.87,-189.953 502.87,-189.953"/>
</g>
<!-- v0&#45;&gt;v3 -->
<g id="edge3" class="edge"><title>v0&#45;&gt;v3</title>
<path fill="none" stroke="black" d="M327.306,-232.231C320.509,-207.165 302.594,-138.434 294,-80 291.354,-62.0101 290.083,-41.1264 289.49,-27.2989"/>
<polygon fill="black" stroke="black" points="289.288,-22.1886 291.734,-27.0957 289.387,-24.6866 289.485,-27.1847 289.485,-27.1847 289.485,-27.1847 289.387,-24.6866 287.237,-27.2736 289.288,-22.1886 289.288,-22.1886"/>
</g>
<!-- v0&#45;&gt;v4 -->
<g id="edge4" class="edge"><title>v0&#45;&gt;v4</title>
<path fill="none" stroke="black" d="M319.467,-239.101C289.189,-230.124 201.973,-199.611 169,-138 160.074,-121.322 166.038,-99.2227 171.873,-84.8127"/>
<polygon fill="black" stroke="black" points="173.989,-79.876 174.087,-85.358 173.004,-82.1737 172.019,-84.4715 172.019,-84.4715 172.019,-84.4715 173.004,-82.1737 169.951,-83.585 173.989,-79.876 173.989,-79.876"/>
</g>
<!-- v0&#45;&gt;v7 -->
<g id="edge5" class="edge"><title>v0&#45;&gt;v7</title>
<path fill="none" stroke="black" d="M319.285,-239.774C295.688,-234.575 237.918,-220.206 195,-196 137.356,-163.489 80.6778,-107.602 56.8025,-82.6606"/>
<polygon fill="black" stroke="black" points="53.2572,-78.9316 58.333,-81.0049 54.9798,-80.7434 56.7024,-82.5553 56.7024,-82.5553 56.7024,-82.5553 54.9798,-80.7434 55.0717,-84.1056 53.2572,-78.9316 53.2572,-78.9316"/>
</g>
<!-- v0&#45;&gt;v24 -->
<g id="edge6" class="edge"><title>v0&#45;&gt;v24</title>
<path fill="none" stroke="black" d="M341.123,-240.715C406.067,-233.054 736.278,-191.915 821,-138 865.17,-109.891 896.334,-53.533 909.296,-26.7663"/>
<polygon fill="black" stroke="black" points="911.503,-22.1263 911.387,-27.608 910.429,-24.3838 909.355,-26.6414 909.355,-26.6414 909.355,-26.6414 910.429,-24.3838 907.324,-25.6748 911.503,-22.1263 911.503,-22.1263"/>
</g>
<!-- v0&#45;&gt;v25 -->
<g id="edge7" class="edge"><title>v0&#45;&gt;v25</title>
<path fill="none" stroke="black" d="M340.846,-240.783C397.562,-234.398 658.759,-204.734 694,-196 764.99,-178.405 782.431,-170.401 848,-138 920.345,-102.251 999.83,-47.746 1033.49,-23.8848"/>
<polygon fill="black" stroke="black" points="1037.74,-20.8606 1034.97,-25.5923 1035.7,-22.3097 1033.66,-23.7588 1033.66,-23.7588 1033.66,-23.7588 1035.7,-22.3097 1032.36,-21.9253 1037.74,-20.8606 1037.74,-20.8606"/>
</g>
<!-- v2 -->
<g id="v2_Record" class="node"><title>v2</title>
<ellipse fill="none" stroke="black" cx="783" cy="-127" rx="29" ry="11"/>
<text text-anchor="middle" x="783" y="-124.8" font-family="sans-serif" font-size="9.00">Record</text>
</g>
<!-- v1&#45;&gt;v2 -->
<g id="edge8" class="edge"><title>v1&#45;&gt;v2</title>
<path fill="none" stroke="black" d="M529.608,-181.146C570.973,-172.47 695.9,-146.268 753.424,-134.203"/>
<polygon fill="black" stroke="black" points="758.444,-133.15 754.012,-136.379 755.997,-133.664 753.55,-134.177 753.55,-134.177 753.55,-134.177 755.997,-133.664 753.088,-131.975 758.444,-133.15 758.444,-133.15"/>
</g>
<!-- v6 -->
<g id="v6_Record" class="node"><title>v6</title>
<ellipse fill="none" stroke="black" cx="537" cy="-127" rx="29" ry="11"/>
<text text-anchor="middle" x="537" y="-124.8" font-family="sans-serif" font-size="9.00">Record</text>
</g>
<!-- v1&#45;&gt;v6 -->
<g id="edge9" class="edge"><title>v1&#45;&gt;v6</title>
<path fill="none" stroke="black" d="M519.658,-174.246C522.9,-165.6 527.684,-152.843 531.407,-142.916"/>
<polygon fill="black" stroke="black" points="533.243,-138.02 533.594,-143.491 532.365,-140.361 531.487,-142.701 531.487,-142.701 531.487,-142.701 532.365,-140.361 529.38,-141.911 533.243,-138.02 533.243,-138.02"/>
</g>
<!-- v9 -->
<g id="v9_Record" class="node"><title>v9</title>
<ellipse fill="none" stroke="black" cx="653" cy="-127" rx="29" ry="11"/>
<text text-anchor="middle" x="653" y="-124.8" font-family="sans-serif" font-size="9.00">Record</text>
</g>
<!-- v1&#45;&gt;v9 -->
<g id="edge10" class="edge"><title>v1&#45;&gt;v9</title>
<path fill="none" stroke="black" d="M528.643,-178.832C551.562,-169.464 600.292,-149.545 629.484,-137.612"/>
<polygon fill="black" stroke="black" points="634.345,-135.625 630.568,-139.6 632.031,-136.571 629.717,-137.517 629.717,-137.517 629.717,-137.517 632.031,-136.571 628.866,-135.434 634.345,-135.625 634.345,-135.625"/>
</g>
<!-- v1&#45;&gt;v11 -->
<g id="edge11" class="edge"><title>v1&#45;&gt;v11</title>
<path fill="none" stroke="black" d="M507.885,-175.737C499.049,-166.741 484.782,-152.214 474.303,-141.545"/>
<polygon fill="black" stroke="black" points="470.631,-137.807 475.74,-139.797 472.383,-139.59 474.135,-141.374 474.135,-141.374 474.135,-141.374 472.383,-139.59 472.53,-142.95 470.631,-137.807 470.631,-137.807"/>
</g>
<!-- v5 -->
<g id="v5_Ref" class="node"><title>v5</title>
<ellipse fill="none" stroke="black" cx="179" cy="-11" rx="18" ry="11"/>
<text text-anchor="middle" x="179" y="-8.8" font-family="sans-serif" font-size="9.00">Ref</text>
</g>
<!-- v2&#45;&gt;v5 -->
<g id="edge27" class="edge"><title>v2&#45;&gt;v5</title>
<path fill="none" stroke="green" d="M756.065,-122.679C737.744,-120.517 712.939,-117.778 691,-116 653.68,-112.976 43.7589,-107.174 18,-80 11.2733,-72.9038 12.1119,-65.8061 18,-58 35.5058,-34.7921 123.925,-19.7704 161.771,-14.3089"/>
</g>
<!-- v15 -->
<g id="v15_Id(1)" class="node"><title>v15</title>
<ellipse fill="none" stroke="black" cx="848" cy="-11" rx="25" ry="11"/>
<text text-anchor="middle" x="848" y="-8.8" font-family="sans-serif" font-size="9.00">Id(1)</text>
</g>
<!-- v2&#45;&gt;v15 -->
<g id="edge12" class="edge"><title>v2&#45;&gt;v15</title>
<path fill="none" stroke="black" d="M793.349,-116.667C802.485,-107.949 815.62,-94.1841 824,-80 833.982,-63.1045 840.738,-41.4051 844.476,-27.119"/>
<polygon fill="black" stroke="black" points="845.717,-22.2138 846.672,-27.6129 845.104,-24.6374 844.491,-27.061 844.491,-27.061 844.491,-27.061 845.104,-24.6374 842.309,-26.5091 845.717,-22.2138 845.717,-22.2138"/>
</g>
<!-- v16 -->
<g id="v16_Private" class="node"><title>v16</title>
<ellipse fill="none" stroke="black" cx="783" cy="-69" rx="32.5" ry="11"/>
<text text-anchor="middle" x="783" y="-66.8" font-family="sans-serif" font-size="9.00">Private</text>
</g>
<!-- v2&#45;&gt;v16 -->
<g id="edge13" class="edge"><title>v2&#45;&gt;v16</title>
<path fill="none" stroke="black" d="M783,-115.988C783,-107.494 783,-95.1697 783,-85.4169"/>
<polygon fill="black" stroke="black" points="783,-80.3039 785.25,-85.3038 783,-82.8039 783,-85.3039 783,-85.3039 783,-85.3039 783,-82.8039 780.75,-85.3039 783,-80.3039 783,-80.3039"/>
</g>
<!-- v4&#45;&gt;v5 -->
<g id="edge14" class="edge"><title>v4&#45;&gt;v5</title>
<path fill="none" stroke="black" d="M179,-57.9883C179,-49.4941 179,-37.1697 179,-27.4169"/>
<polygon fill="black" stroke="black" points="179,-22.3039 181.25,-27.3038 179,-24.8039 179,-27.3039 179,-27.3039 179,-27.3039 179,-24.8039 176.75,-27.3039 179,-22.3039 179,-22.3039"/>
</g>
<!-- v8 -->
<g id="v8_Ref" class="node"><title>v8</title>
<ellipse fill="none" stroke="black" cx="72" cy="-11" rx="18" ry="11"/>
<text text-anchor="middle" x="72" y="-8.8" font-family="sans-serif" font-size="9.00">Ref</text>
</g>
<!-- v6&#45;&gt;v8 -->
<g id="edge29" class="edge"><title>v6&#45;&gt;v8</title>
<path fill="none" stroke="green" d="M514.513,-120.009C509.417,-118.672 504.026,-117.273 499,-116 339.241,-75.5273 145.088,-29.3132 88.3156,-15.8594"/>
</g>
<!-- v18 -->
<g id="v18_Id(2)" class="node"><title>v18</title>
<ellipse fill="none" stroke="black" cx="588" cy="-11" rx="25" ry="11"/>
<text text-anchor="middle" x="588" y="-8.8" font-family="sans-serif" font-size="9.00">Id(2)</text>
</g>
<!-- v6&#45;&gt;v18 -->
<g id="edge15" class="edge"><title>v6&#45;&gt;v18</title>
<path fill="none" stroke="black" d="M545.468,-116.432C552.915,-107.556 563.546,-93.6909 570,-80 578.091,-62.837 582.991,-41.4586 585.594,-27.304"/>
<polygon fill="black" stroke="black" points="586.51,-22.0758 587.863,-27.3893 586.078,-24.5382 585.647,-27.0006 585.647,-27.0006 585.647,-27.0006 586.078,-24.5382 583.43,-26.612 586.51,-22.0758 586.51,-22.0758"/>
</g>
<!-- v19 -->
<g id="v19_Private" class="node"><title>v19</title>
<ellipse fill="none" stroke="black" cx="529" cy="-69" rx="32.5" ry="11"/>
<text text-anchor="middle" x="529" y="-66.8" font-family="sans-serif" font-size="9.00">Private</text>
</g>
<!-- v6&#45;&gt;v19 -->
<g id="edge16" class="edge"><title>v6&#45;&gt;v19</title>
<path fill="none" stroke="black" d="M535.57,-115.988C534.356,-107.494 532.596,-95.1697 531.202,-85.4169"/>
<polygon fill="black" stroke="black" points="530.472,-80.3039 533.407,-84.9354 530.826,-82.7787 531.179,-85.2536 531.179,-85.2536 531.179,-85.2536 530.826,-82.7787 528.952,-85.5719 530.472,-80.3039 530.472,-80.3039"/>
</g>
<!-- v7&#45;&gt;v8 -->
<g id="edge17" class="edge"><title>v7&#45;&gt;v8</title>
<path fill="none" stroke="black" d="M49.703,-58.2455C53.9618,-49.4125 60.2894,-36.2887 65.117,-26.2758"/>
<polygon fill="black" stroke="black" points="67.3509,-21.6427 67.206,-27.1237 66.2651,-23.8946 65.1793,-26.1465 65.1793,-26.1465 65.1793,-26.1465 66.2651,-23.8946 63.1526,-25.1693 67.3509,-21.6427 67.3509,-21.6427"/>
</g>
<!-- v10 -->
<g id="v10_Ref" class="node"><title>v10</title>
<ellipse fill="none" stroke="black" cx="18" cy="-11" rx="18" ry="11"/>
<text text-anchor="middle" x="18" y="-8.8" font-family="sans-serif" font-size="9.00">Ref</text>
</g>
<!-- v7&#45;&gt;v10 -->
<g id="edge18" class="edge"><title>v7&#45;&gt;v10</title>
<path fill="none" stroke="black" d="M40.297,-58.2455C36.0382,-49.4125 29.7106,-36.2887 24.883,-26.2758"/>
<polygon fill="black" stroke="black" points="22.6491,-21.6427 26.8474,-25.1693 23.7349,-23.8946 24.8207,-26.1465 24.8207,-26.1465 24.8207,-26.1465 23.7349,-23.8946 22.794,-27.1237 22.6491,-21.6427 22.6491,-21.6427"/>
</g>
<!-- v9&#45;&gt;v10 -->
<g id="edge31" class="edge"><title>v9&#45;&gt;v10</title>
<path fill="none" stroke="green" d="M626.707,-122.202C525.145,-107.424 158.494,-53.0448 45,-22 40.8535,-20.8658 36.4458,-19.3651 32.4205,-17.8721"/>
</g>
<!-- v21 -->
<g id="v21_Id(3)" class="node"><title>v21</title>
<ellipse fill="none" stroke="black" cx="718" cy="-11" rx="25" ry="11"/>
<text text-anchor="middle" x="718" y="-8.8" font-family="sans-serif" font-size="9.00">Id(3)</text>
</g>
<!-- v9&#45;&gt;v21 -->
<g id="edge19" class="edge"><title>v9&#45;&gt;v21</title>
<path fill="none" stroke="black" d="M663.349,-116.667C672.485,-107.949 685.62,-94.1841 694,-80 703.982,-63.1045 710.738,-41.4051 714.476,-27.119"/>
<polygon fill="black" stroke="black" points="715.717,-22.2138 716.672,-27.6129 715.104,-24.6374 714.491,-27.061 714.491,-27.061 714.491,-27.061 715.104,-24.6374 712.309,-26.5091 715.717,-22.2138 715.717,-22.2138"/>
</g>
<!-- v22 -->
<g id="v22_Private" class="node"><title>v22</title>
<ellipse fill="none" stroke="black" cx="653" cy="-69" rx="32.5" ry="11"/>
<text text-anchor="middle" x="653" y="-66.8" font-family="sans-serif" font-size="9.00">Private</text>
</g>
<!-- v9&#45;&gt;v22 -->
<g id="edge20" class="edge"><title>v9&#45;&gt;v22</title>
<path fill="none" stroke="black" d="M653,-115.988C653,-107.494 653,-95.1697 653,-85.4169"/>
<polygon fill="black" stroke="black" points="653,-80.3039 655.25,-85.3038 653,-82.8039 653,-85.3039 653,-85.3039 653,-85.3039 653,-82.8039 650.75,-85.3039 653,-80.3039 653,-80.3039"/>
</g>
<!-- v12 -->
<g id="v12_Id(0)" class="node"><title>v12</title>
<ellipse fill="none" stroke="black" cx="458" cy="-11" rx="25" ry="11"/>
<text text-anchor="middle" x="458" y="-8.8" font-family="sans-serif" font-size="9.00">Id(0)</text>
</g>
<!-- v11&#45;&gt;v12 -->
<g id="edge21" class="edge"><title>v11&#45;&gt;v12</title>
<path fill="none" stroke="black" d="M460.734,-115.883C460.208,-95.9059 459.034,-51.276 458.409,-27.5402"/>
<polygon fill="black" stroke="black" points="458.27,-22.2579 460.651,-27.197 458.336,-24.7571 458.402,-27.2562 458.402,-27.2562 458.402,-27.2562 458.336,-24.7571 456.152,-27.3154 458.27,-22.2579 458.27,-22.2579"/>
</g>
<!-- v13 -->
<g id="v13_Private" class="node"><title>v13</title>
<ellipse fill="none" stroke="black" cx="407" cy="-69" rx="32.5" ry="11"/>
<text text-anchor="middle" x="407" y="-66.8" font-family="sans-serif" font-size="9.00">Private</text>
</g>
<!-- v11&#45;&gt;v13 -->
<g id="edge22" class="edge"><title>v11&#45;&gt;v13</title>
<path fill="none" stroke="black" d="M451.84,-116.5C443.126,-107.465 429.927,-93.7761 420.102,-83.5877"/>
<polygon fill="black" stroke="black" points="416.387,-79.7345 421.477,-81.7719 418.122,-81.5341 419.858,-83.3337 419.858,-83.3337 419.858,-83.3337 418.122,-81.5341 418.238,-84.8955 416.387,-79.7345 416.387,-79.7345"/>
</g>
<!-- v14 -->
<g id="v14_Data" class="node"><title>v14</title>
<ellipse fill="none" stroke="black" cx="393" cy="-11" rx="21.5" ry="11"/>
<text text-anchor="middle" x="393" y="-8.8" font-family="sans-serif" font-size="9.00">Data</text>
</g>
<!-- v13&#45;&gt;v14 -->
<g id="edge23" class="edge"><title>v13&#45;&gt;v14</title>
<path fill="none" stroke="black" d="M404.497,-57.9883C402.374,-49.4941 399.292,-37.1697 396.854,-27.4169"/>
<polygon fill="black" stroke="black" points="395.576,-22.3039 398.972,-26.6089 396.182,-24.7292 396.789,-27.1546 396.789,-27.1546 396.789,-27.1546 396.182,-24.7292 394.606,-27.7003 395.576,-22.3039 395.576,-22.3039"/>
</g>
<!-- v17 -->
<g id="v17_Data" class="node"><title>v17</title>
<ellipse fill="none" stroke="black" cx="783" cy="-11" rx="21.5" ry="11"/>
<text text-anchor="middle" x="783" y="-8.8" font-family="sans-serif" font-size="9.00">Data</text>
</g>
<!-- v16&#45;&gt;v17 -->
<g id="edge24" class="edge"><title>v16&#45;&gt;v17</title>
<path fill="none" stroke="black" d="M783,-57.9883C783,-49.4941 783,-37.1697 783,-27.4169"/>
<polygon fill="black" stroke="black" points="783,-22.3039 785.25,-27.3038 783,-24.8039 783,-27.3039 783,-27.3039 783,-27.3039 783,-24.8039 780.75,-27.3039 783,-22.3039 783,-22.3039"/>
</g>
<!-- v20 -->
<g id="v20_Data" class="node"><title>v20</title>
<ellipse fill="none" stroke="black" cx="523" cy="-11" rx="21.5" ry="11"/>
<text text-anchor="middle" x="523" y="-8.8" font-family="sans-serif" font-size="9.00">Data</text>
</g>
<!-- v19&#45;&gt;v20 -->
<g id="edge25" class="edge"><title>v19&#45;&gt;v20</title>
<path fill="none" stroke="black" d="M527.927,-57.9883C527.017,-49.4941 525.697,-37.1697 524.652,-27.4169"/>
<polygon fill="black" stroke="black" points="524.104,-22.3039 526.874,-27.0357 524.37,-24.7896 524.637,-27.2754 524.637,-27.2754 524.637,-27.2754 524.37,-24.7896 522.4,-27.5152 524.104,-22.3039 524.104,-22.3039"/>
</g>
<!-- v23 -->
<g id="v23_Data" class="node"><title>v23</title>
<ellipse fill="none" stroke="black" cx="653" cy="-11" rx="21.5" ry="11"/>
<text text-anchor="middle" x="653" y="-8.8" font-family="sans-serif" font-size="9.00">Data</text>
</g>
<!-- v22&#45;&gt;v23 -->
<g id="edge26" class="edge"><title>v22&#45;&gt;v23</title>
<path fill="none" stroke="black" d="M653,-57.9883C653,-49.4941 653,-37.1697 653,-27.4169"/>
<polygon fill="black" stroke="black" points="653,-22.3039 655.25,-27.3038 653,-24.8039 653,-27.3039 653,-27.3039 653,-27.3039 653,-24.8039 650.75,-27.3039 653,-22.3039 653,-22.3039"/>
</g>
</g>
</svg>
