<?xml version="1.0" encoding="UTF-8" standalone="no"?>
<?xml-stylesheet href="style.css" type="text/css"?>
<!DOCTYPE svg PUBLIC "-//W3C//DTD SVG 1.1//EN"
 "http://www.w3.org/Graphics/SVG/1.1/DTD/svg11.dtd">
<!-- Generated by graphviz version 2.38.0 (20140413.2041)
 -->
<!-- Title: 67.svg Pages: 1 -->
<svg width="1067pt" height="316pt"
 viewBox="0.00 0.00 1067.00 316.00" xmlns="http://www.w3.org/2000/svg" xmlns:xlink="http://www.w3.org/1999/xlink">
<g id="graph0" class="graph" transform="scale(1 1) rotate(0) translate(4 312)">
<title>67.svg</title>
<polygon fill="white" stroke="none" points="-4,4 -4,-312 1063,-312 1063,4 -4,4"/>
<!-- r0 -->
<g id="node1" class="node"><title>r0</title>
<polygon fill="none" stroke="black" stroke-dasharray="5,2" points="700.5,-308 677.5,-308 677.5,-290 700.5,-290 700.5,-308"/>
<text text-anchor="middle" x="689" y="-296.8" font-family="serif" font-size="9.00">0</text>
</g>
<!-- v0 -->
<g id="v0_H" class="node"><title>v0</title>
<ellipse fill="none" stroke="black" cx="689" cy="-243" rx="11" ry="11"/>
<text text-anchor="middle" x="689" y="-240.8" font-family="sans-serif" font-size="9.00">H</text>
</g>
<!-- r0&#45;&gt;v0 -->
<g id="edge1" class="edge"><title>r0&#45;&gt;v0</title>
<path fill="none" stroke="black" d="M689,-289.562C689,-281.453 689,-269.014 689,-259.181"/>
<polygon fill="black" stroke="black" points="689,-254.03 691.25,-259.03 689,-256.53 689,-259.03 689,-259.03 689,-259.03 689,-256.53 686.75,-259.03 689,-254.03 689,-254.03"/>
</g>
<!-- odb -->
<g id="node2" class="node"><title>odb</title>
<text text-anchor="middle" x="948" y="-296.8" font-family="serif" font-size="9.00">db</text>
</g>
<!-- e8 -->
<g id="node8" class="node"><title>e8</title>
</g>
<!-- odb&#45;&gt;e8 -->
<g id="edge35" class="edge"><title>odb&#45;&gt;e8</title>
<path fill="none" stroke="green" d="M948,-289.562C948,-274.375 948,-244 948,-244"/>
</g>
<!-- e1 -->
<g id="node3" class="node"><title>e1</title>
</g>
<!-- v4 -->
<g id="v4_Nurse" class="node"><title>v4</title>
<ellipse fill="none" stroke="black" cx="688" cy="-69" rx="25" ry="11"/>
<text text-anchor="middle" x="688" y="-66.8" font-family="sans-serif" font-size="9.00">Nurse</text>
</g>
<!-- e1&#45;&gt;v4 -->
<g id="edge28" class="edge"><title>e1&#45;&gt;v4</title>
<path fill="none" stroke="green" d="M688,-122.167C688,-113.586 688,-92.5957 688,-80.0117"/>
<polygon fill="green" stroke="green" points="691.5,-125.3 684.5,-125.3 684.5,-123.9 691.5,-123.9 691.5,-125.3"/>
<polyline fill="none" stroke="green" points="688,-126 688,-122.5 "/>
</g>
<!-- e4 -->
<g id="node4" class="node"><title>e4</title>
</g>
<!-- v9 -->
<g id="v9_Doc" class="node"><title>v9</title>
<ellipse fill="none" stroke="black" cx="749" cy="-69" rx="18" ry="11"/>
<text text-anchor="middle" x="749" y="-66.8" font-family="sans-serif" font-size="9.00">Doc</text>
</g>
<!-- e4&#45;&gt;v9 -->
<g id="edge31" class="edge"><title>e4&#45;&gt;v9</title>
<path fill="none" stroke="green" d="M749,-122.167C749,-113.586 749,-92.5957 749,-80.0117"/>
<polygon fill="green" stroke="green" points="752.5,-125.3 745.5,-125.3 745.5,-123.9 752.5,-123.9 752.5,-125.3"/>
<polyline fill="none" stroke="green" points="749,-126 749,-122.5 "/>
</g>
<!-- e5 -->
<g id="node5" class="node"><title>e5</title>
</g>
<!-- v14 -->
<g id="v14_Record" class="node"><title>v14</title>
<ellipse fill="none" stroke="black" cx="479" cy="-127" rx="29" ry="11"/>
<text text-anchor="middle" x="479" y="-124.8" font-family="sans-serif" font-size="9.00">Record</text>
</g>
<!-- e5&#45;&gt;v14 -->
<g id="edge32" class="edge"><title>e5&#45;&gt;v14</title>
<path fill="none" stroke="green" d="M479,-180.167C479,-171.586 479,-150.596 479,-138.012"/>
<polygon fill="green" stroke="green" points="482.5,-183.3 475.5,-183.3 475.5,-181.9 482.5,-181.9 482.5,-183.3"/>
<polyline fill="none" stroke="green" points="479,-184 479,-180.5 "/>
</g>
<!-- e6 -->
<g id="node6" class="node"><title>e6</title>
</g>
<!-- v24 -->
<g id="v24_Nurse" class="node"><title>v24</title>
<ellipse fill="none" stroke="black" cx="849" cy="-11" rx="25" ry="11"/>
<text text-anchor="middle" x="849" y="-8.8" font-family="sans-serif" font-size="9.00">Nurse</text>
</g>
<!-- e6&#45;&gt;v24 -->
<g id="edge33" class="edge"><title>e6&#45;&gt;v24</title>
<path fill="none" stroke="green" d="M825.488,-64.6672C829.166,-56.4292 838.8,-34.8474 844.531,-22.0117"/>
<polygon fill="green" stroke="green" points="827.481,-68.7876 821.089,-65.934 821.66,-64.6556 828.052,-67.5092 827.481,-68.7876"/>
<polyline fill="none" stroke="green" points="824,-68 825.427,-64.804 "/>
</g>
<!-- e7 -->
<g id="node7" class="node"><title>e7</title>
</g>
<!-- v25 -->
<g id="v25_Nurse" class="node"><title>v25</title>
<ellipse fill="none" stroke="black" cx="1034" cy="-11" rx="25" ry="11"/>
<text text-anchor="middle" x="1034" y="-8.8" font-family="sans-serif" font-size="9.00">Nurse</text>
</g>
<!-- e7&#45;&gt;v25 -->
<g id="edge34" class="edge"><title>e7&#45;&gt;v25</title>
<path fill="none" stroke="green" d="M1034,-64.1674C1034,-55.5862 1034,-34.5957 1034,-22.0117"/>
<polygon fill="green" stroke="green" points="1037.5,-67.3001 1030.5,-67.2999 1030.5,-65.8999 1037.5,-65.9001 1037.5,-67.3001"/>
<polyline fill="none" stroke="green" points="1034,-68 1034,-64.5 "/>
</g>
<!-- v1 -->
<g id="v1_DB" class="node"><title>v1</title>
<ellipse fill="none" stroke="black" cx="425" cy="-185" rx="14.5" ry="11"/>
<text text-anchor="middle" x="425" y="-182.8" font-family="sans-serif" font-size="9.00">DB</text>
</g>
<!-- e8&#45;&gt;v1 -->
<g id="edge36" class="edge"><title>e8&#45;&gt;v1</title>
<path fill="none" stroke="green" d="M948,-242C948,-242 680.15,-229.99 469,-196 458.636,-194.332 447.067,-191.67 438.393,-189.512"/>
</g>
<!-- v3 -->
<g id="v3_DBadmin" class="node"><title>v3</title>
<ellipse fill="none" stroke="black" cx="773" cy="-11" rx="32.5" ry="11"/>
<text text-anchor="middle" x="773" y="-8.8" font-family="sans-serif" font-size="9.00">DBadmin</text>
</g>
<!-- e8&#45;&gt;v3 -->
<g id="edge37" class="edge"><title>e8&#45;&gt;v3</title>
<path fill="none" stroke="green" d="M948,-242C948,-242 897.859,-129.367 833,-58 819.405,-43.041 800.454,-29.4332 787.51,-20.9642"/>
</g>
<!-- e8&#45;&gt;v4 -->
<g id="edge38" class="edge"><title>e8&#45;&gt;v4</title>
<path fill="none" stroke="green" d="M948,-242C948,-242 842.562,-171.823 758,-116 738.097,-102.861 714.967,-87.678 700.912,-78.462"/>
</g>
<!-- e8&#45;&gt;v9 -->
<g id="edge39" class="edge"><title>e8&#45;&gt;v9</title>
<path fill="none" stroke="green" d="M948,-242C948,-242 978.623,-159.266 943,-116 931.587,-102.138 811.22,-80.5262 766.022,-72.8349"/>
</g>
<!-- e8&#45;&gt;v24 -->
<g id="edge40" class="edge"><title>e8&#45;&gt;v24</title>
<path fill="none" stroke="green" d="M948,-242C948,-242 968.026,-218.712 974,-196 983.13,-161.291 979.777,-147.727 963,-116 939.206,-71.0025 887.935,-35.5105 863.08,-20.2009"/>
</g>
<!-- e8&#45;&gt;v25 -->
<g id="edge41" class="edge"><title>e8&#45;&gt;v25</title>
<path fill="none" stroke="green" d="M948,-242C948,-242 997.771,-227.033 1019,-196 1054.15,-144.618 1049,-119.964 1043,-58 1041.79,-45.5266 1038.78,-31.4139 1036.57,-22.148"/>
</g>
<!-- v0&#45;&gt;v1 -->
<g id="edge2" class="edge"><title>v0&#45;&gt;v1</title>
<path fill="none" stroke="black" d="M678.453,-239.862C646.734,-233.419 549.441,-213.549 469,-196 460.667,-194.182 451.464,-192.102 443.637,-190.311"/>
<polygon fill="black" stroke="black" points="438.467,-189.124 443.843,-188.05 440.903,-189.683 443.34,-190.243 443.34,-190.243 443.34,-190.243 440.903,-189.683 442.837,-192.436 438.467,-189.124 438.467,-189.124"/>
</g>
<!-- v0&#45;&gt;v3 -->
<g id="edge3" class="edge"><title>v0&#45;&gt;v3</title>
<path fill="none" stroke="black" d="M683.306,-233.402C665.547,-205.41 614.653,-115.394 654,-58 664.402,-42.8266 711.409,-27.9766 743.137,-19.4189"/>
<polygon fill="black" stroke="black" points="748.09,-18.1004 743.837,-21.561 745.674,-18.7436 743.258,-19.3867 743.258,-19.3867 743.258,-19.3867 745.674,-18.7436 742.679,-17.2124 748.09,-18.1004 748.09,-18.1004"/>
</g>
<!-- v0&#45;&gt;v4 -->
<g id="edge4" class="edge"><title>v0&#45;&gt;v4</title>
<path fill="none" stroke="black" d="M686.847,-232.185C682.476,-210.962 673.355,-159.228 678,-116 679.124,-105.539 681.646,-93.9669 683.876,-85.0462"/>
<polygon fill="black" stroke="black" points="685.143,-80.1288 686.075,-85.532 684.519,-82.5498 683.896,-84.9708 683.896,-84.9708 683.896,-84.9708 684.519,-82.5498 681.717,-84.4095 685.143,-80.1288 685.143,-80.1288"/>
</g>
<!-- v0&#45;&gt;v9 -->
<g id="edge5" class="edge"><title>v0&#45;&gt;v9</title>
<path fill="none" stroke="black" d="M692.311,-232.508C702.199,-204.163 731.57,-119.965 743.684,-85.238"/>
<polygon fill="black" stroke="black" points="745.475,-80.1054 745.952,-85.5675 744.651,-82.4659 743.828,-84.8264 743.828,-84.8264 743.828,-84.8264 744.651,-82.4659 741.703,-84.0853 745.475,-80.1054 745.475,-80.1054"/>
</g>
<!-- v0&#45;&gt;v24 -->
<g id="edge6" class="edge"><title>v0&#45;&gt;v24</title>
<path fill="none" stroke="black" d="M695.404,-233.62C702.343,-224.475 713.673,-209.352 723,-196 765.072,-135.771 771.51,-117.935 814,-58 821.781,-47.025 831.01,-34.9297 838.038,-25.8972"/>
<polygon fill="black" stroke="black" points="841.295,-21.7275 839.99,-27.0529 839.756,-23.6977 838.217,-25.6679 838.217,-25.6679 838.217,-25.6679 839.756,-23.6977 836.444,-24.2828 841.295,-21.7275 841.295,-21.7275"/>
</g>
<!-- v0&#45;&gt;v25 -->
<g id="edge7" class="edge"><title>v0&#45;&gt;v25</title>
<path fill="none" stroke="black" d="M697.875,-236.083C743.812,-205.459 954.831,-64.7791 1016.83,-23.4486"/>
<polygon fill="black" stroke="black" points="1021.03,-20.6474 1018.12,-25.2931 1018.95,-22.0342 1016.87,-23.4209 1016.87,-23.4209 1016.87,-23.4209 1018.95,-22.0342 1015.62,-21.5488 1021.03,-20.6474 1021.03,-20.6474"/>
</g>
<!-- v2 -->
<g id="v2_Record" class="node"><title>v2</title>
<ellipse fill="none" stroke="black" cx="88" cy="-127" rx="29" ry="11"/>
<text text-anchor="middle" x="88" y="-124.8" font-family="sans-serif" font-size="9.00">Record</text>
</g>
<!-- v1&#45;&gt;v2 -->
<g id="edge8" class="edge"><title>v1&#45;&gt;v2</title>
<path fill="none" stroke="black" d="M410.949,-181.665C360.807,-173.333 189.907,-144.934 119.109,-133.169"/>
<polygon fill="black" stroke="black" points="113.783,-132.284 119.084,-130.885 116.249,-132.694 118.716,-133.104 118.716,-133.104 118.716,-133.104 116.249,-132.694 118.347,-135.324 113.783,-132.284 113.783,-132.284"/>
</g>
<!-- v6 -->
<g id="v6_Record" class="node"><title>v6</title>
<ellipse fill="none" stroke="black" cx="248" cy="-127" rx="29" ry="11"/>
<text text-anchor="middle" x="248" y="-124.8" font-family="sans-serif" font-size="9.00">Record</text>
</g>
<!-- v1&#45;&gt;v6 -->
<g id="edge9" class="edge"><title>v1&#45;&gt;v6</title>
<path fill="none" stroke="black" d="M411.985,-179.882C382.951,-170.696 312.428,-148.384 274.004,-136.227"/>
<polygon fill="black" stroke="black" points="269.029,-134.653 274.475,-134.016 271.413,-135.408 273.796,-136.162 273.796,-136.162 273.796,-136.162 271.413,-135.408 273.118,-138.307 269.029,-134.653 269.029,-134.653"/>
</g>
<!-- v8 -->
<g id="v8_Record" class="node"><title>v8</title>
<ellipse fill="none" stroke="black" cx="403" cy="-127" rx="29" ry="11"/>
<text text-anchor="middle" x="403" y="-124.8" font-family="sans-serif" font-size="9.00">Record</text>
</g>
<!-- v1&#45;&gt;v8 -->
<g id="edge10" class="edge"><title>v1&#45;&gt;v8</title>
<path fill="none" stroke="black" d="M421.168,-174.246C417.771,-165.6 412.76,-152.843 408.86,-142.916"/>
<polygon fill="black" stroke="black" points="406.936,-138.02 410.859,-141.851 407.85,-140.347 408.765,-142.674 408.765,-142.674 408.765,-142.674 407.85,-140.347 406.67,-143.496 406.936,-138.02 406.936,-138.02"/>
</g>
<!-- v1&#45;&gt;v14 -->
<g id="edge11" class="edge"><title>v1&#45;&gt;v14</title>
<path fill="none" stroke="black" d="M432.968,-175.737C441.643,-166.741 455.651,-152.214 465.939,-141.545"/>
<polygon fill="black" stroke="black" points="469.544,-137.807 467.693,-142.968 467.808,-139.606 466.073,-141.406 466.073,-141.406 466.073,-141.406 467.808,-139.606 464.453,-139.844 469.544,-137.807 469.544,-137.807"/>
</g>
<!-- v5 -->
<g id="v5_Ref" class="node"><title>v5</title>
<ellipse fill="none" stroke="black" cx="596" cy="-11" rx="18" ry="11"/>
<text text-anchor="middle" x="596" y="-8.8" font-family="sans-serif" font-size="9.00">Ref</text>
</g>
<!-- v2&#45;&gt;v5 -->
<g id="edge27" class="edge"><title>v2&#45;&gt;v5</title>
<path fill="none" stroke="green" d="M75.1811,-116.867C57.2659,-103.042 28.7679,-76.4614 46,-58 85.6702,-15.4997 511.091,-33.8885 568,-22 572.547,-21.05 577.358,-19.532 581.685,-17.9628"/>
</g>
<!-- v11 -->
<g id="v11_Id(0)" class="node"><title>v11</title>
<ellipse fill="none" stroke="black" cx="25" cy="-11" rx="25" ry="11"/>
<text text-anchor="middle" x="25" y="-8.8" font-family="sans-serif" font-size="9.00">Id(0)</text>
</g>
<!-- v2&#45;&gt;v11 -->
<g id="edge12" class="edge"><title>v2&#45;&gt;v11</title>
<path fill="none" stroke="black" d="M76.8792,-116.457C67.4399,-107.809 54.164,-94.2668 46,-80 36.3808,-63.1901 30.6681,-41.4714 27.6844,-27.1576"/>
<polygon fill="black" stroke="black" points="26.7064,-22.2419 29.8889,-26.7067 27.1942,-24.6939 27.6821,-27.1458 27.6821,-27.1458 27.6821,-27.1458 27.1942,-24.6939 25.4754,-27.5849 26.7064,-22.2419 26.7064,-22.2419"/>
</g>
<!-- v12 -->
<g id="v12_Private" class="node"><title>v12</title>
<ellipse fill="none" stroke="black" cx="88" cy="-69" rx="32.5" ry="11"/>
<text text-anchor="middle" x="88" y="-66.8" font-family="sans-serif" font-size="9.00">Private</text>
</g>
<!-- v2&#45;&gt;v12 -->
<g id="edge13" class="edge"><title>v2&#45;&gt;v12</title>
<path fill="none" stroke="black" d="M88,-115.988C88,-107.494 88,-95.1697 88,-85.4169"/>
<polygon fill="black" stroke="black" points="88,-80.3039 90.2501,-85.3038 88,-82.8039 88.0001,-85.3039 88.0001,-85.3039 88.0001,-85.3039 88,-82.8039 85.7501,-85.3039 88,-80.3039 88,-80.3039"/>
</g>
<!-- v4&#45;&gt;v5 -->
<g id="edge14" class="edge"><title>v4&#45;&gt;v5</title>
<path fill="none" stroke="black" d="M674.425,-59.737C658.069,-49.7811 630.585,-33.0515 612.878,-22.2736"/>
<polygon fill="black" stroke="black" points="608.161,-19.4021 613.601,-20.0799 610.296,-20.7019 612.432,-22.0018 612.432,-22.0018 612.432,-22.0018 610.296,-20.7019 611.262,-23.9238 608.161,-19.4021 608.161,-19.4021"/>
</g>
<!-- v7 -->
<g id="v7_Ref" class="node"><title>v7</title>
<ellipse fill="none" stroke="black" cx="650" cy="-11" rx="18" ry="11"/>
<text text-anchor="middle" x="650" y="-8.8" font-family="sans-serif" font-size="9.00">Ref</text>
</g>
<!-- v4&#45;&gt;v7 -->
<g id="edge15" class="edge"><title>v4&#45;&gt;v7</title>
<path fill="none" stroke="black" d="M681.381,-58.2455C675.333,-49.3322 666.319,-36.0497 659.502,-26.0035"/>
<polygon fill="black" stroke="black" points="656.543,-21.6427 661.213,-24.5167 657.947,-23.7114 659.351,-25.7801 659.351,-25.7801 659.351,-25.7801 657.947,-23.7114 657.489,-27.0435 656.543,-21.6427 656.543,-21.6427"/>
</g>
<!-- v6&#45;&gt;v7 -->
<g id="edge29" class="edge"><title>v6&#45;&gt;v7</title>
<path fill="none" stroke="green" d="M235.221,-116.904C217.358,-103.128 188.928,-76.6094 206,-58 237.438,-23.7305 577.619,-32.1676 623,-22 627.292,-21.0383 631.824,-19.5561 635.924,-18.0249"/>
</g>
<!-- v18 -->
<g id="v18_Id(2)" class="node"><title>v18</title>
<ellipse fill="none" stroke="black" cx="187" cy="-11" rx="25" ry="11"/>
<text text-anchor="middle" x="187" y="-8.8" font-family="sans-serif" font-size="9.00">Id(2)</text>
</g>
<!-- v6&#45;&gt;v18 -->
<g id="edge16" class="edge"><title>v6&#45;&gt;v18</title>
<path fill="none" stroke="black" d="M236.783,-116.511C227.282,-107.897 213.97,-94.376 206,-80 196.765,-63.3432 191.741,-41.8565 189.219,-27.5386"/>
<polygon fill="black" stroke="black" points="188.342,-22.2438 191.379,-26.8092 188.75,-24.7102 189.159,-27.1767 189.159,-27.1767 189.159,-27.1767 188.75,-24.7102 186.939,-27.5441 188.342,-22.2438 188.342,-22.2438"/>
</g>
<!-- v19 -->
<g id="v19_Private" class="node"><title>v19</title>
<ellipse fill="none" stroke="black" cx="248" cy="-69" rx="32.5" ry="11"/>
<text text-anchor="middle" x="248" y="-66.8" font-family="sans-serif" font-size="9.00">Private</text>
</g>
<!-- v6&#45;&gt;v19 -->
<g id="edge17" class="edge"><title>v6&#45;&gt;v19</title>
<path fill="none" stroke="black" d="M248,-115.988C248,-107.494 248,-95.1697 248,-85.4169"/>
<polygon fill="black" stroke="black" points="248,-80.3039 250.25,-85.3038 248,-82.8039 248,-85.3039 248,-85.3039 248,-85.3039 248,-82.8039 245.75,-85.3039 248,-80.3039 248,-80.3039"/>
</g>
<!-- v10 -->
<g id="v10_Ref" class="node"><title>v10</title>
<ellipse fill="none" stroke="black" cx="704" cy="-11" rx="18" ry="11"/>
<text text-anchor="middle" x="704" y="-8.8" font-family="sans-serif" font-size="9.00">Ref</text>
</g>
<!-- v8&#45;&gt;v10 -->
<g id="edge30" class="edge"><title>v8&#45;&gt;v10</title>
<path fill="none" stroke="green" d="M391.434,-116.817C375.294,-102.928 349.728,-76.2638 366,-58 412.28,-6.05327 609.339,-38.1977 677,-22 681.278,-20.9759 685.805,-19.4742 689.905,-17.9443"/>
</g>
<!-- v21 -->
<g id="v21_Id(3)" class="node"><title>v21</title>
<ellipse fill="none" stroke="black" cx="343" cy="-11" rx="25" ry="11"/>
<text text-anchor="middle" x="343" y="-8.8" font-family="sans-serif" font-size="9.00">Id(3)</text>
</g>
<!-- v8&#45;&gt;v21 -->
<g id="edge18" class="edge"><title>v8&#45;&gt;v21</title>
<path fill="none" stroke="black" d="M393.675,-116.502C385.439,-107.673 373.591,-93.8378 366,-80 356.604,-62.873 350.091,-41.2255 346.454,-27.0146"/>
<polygon fill="black" stroke="black" points="345.244,-22.1376 348.632,-26.4486 345.846,-24.564 346.448,-26.9904 346.448,-26.9904 346.448,-26.9904 345.846,-24.564 344.264,-27.5323 345.244,-22.1376 345.244,-22.1376"/>
</g>
<!-- v22 -->
<g id="v22_Private" class="node"><title>v22</title>
<ellipse fill="none" stroke="black" cx="408" cy="-69" rx="32.5" ry="11"/>
<text text-anchor="middle" x="408" y="-66.8" font-family="sans-serif" font-size="9.00">Private</text>
</g>
<!-- v8&#45;&gt;v22 -->
<g id="edge19" class="edge"><title>v8&#45;&gt;v22</title>
<path fill="none" stroke="black" d="M403.894,-115.988C404.652,-107.494 405.753,-95.1697 406.623,-85.4169"/>
<polygon fill="black" stroke="black" points="407.08,-80.3039 408.876,-85.4842 406.858,-82.794 406.635,-85.2841 406.635,-85.2841 406.635,-85.2841 406.858,-82.794 404.394,-85.0839 407.08,-80.3039 407.08,-80.3039"/>
</g>
<!-- v9&#45;&gt;v10 -->
<g id="edge20" class="edge"><title>v9&#45;&gt;v10</title>
<path fill="none" stroke="black" d="M741.569,-58.7527C734.23,-49.6195 722.932,-35.5595 714.641,-25.2424"/>
<polygon fill="black" stroke="black" points="711.293,-21.0752 716.178,-23.5634 712.859,-23.024 714.425,-24.9728 714.425,-24.9728 714.425,-24.9728 712.859,-23.024 712.671,-26.3822 711.293,-21.0752 711.293,-21.0752"/>
</g>
<!-- v13 -->
<g id="v13_Data" class="node"><title>v13</title>
<ellipse fill="none" stroke="black" cx="90" cy="-11" rx="21.5" ry="11"/>
<text text-anchor="middle" x="90" y="-8.8" font-family="sans-serif" font-size="9.00">Data</text>
</g>
<!-- v12&#45;&gt;v13 -->
<g id="edge21" class="edge"><title>v12&#45;&gt;v13</title>
<path fill="none" stroke="black" d="M88.3576,-57.9883C88.6609,-49.4941 89.1011,-37.1697 89.4494,-27.4169"/>
<polygon fill="black" stroke="black" points="89.632,-22.3039 91.702,-27.381 89.5427,-24.8023 89.4535,-27.3007 89.4535,-27.3007 89.4535,-27.3007 89.5427,-24.8023 87.2049,-27.2203 89.632,-22.3039 89.632,-22.3039"/>
</g>
<!-- v15 -->
<g id="v15_Id(1)" class="node"><title>v15</title>
<ellipse fill="none" stroke="black" cx="473" cy="-11" rx="25" ry="11"/>
<text text-anchor="middle" x="473" y="-8.8" font-family="sans-serif" font-size="9.00">Id(1)</text>
</g>
<!-- v14&#45;&gt;v15 -->
<g id="edge22" class="edge"><title>v14&#45;&gt;v15</title>
<path fill="none" stroke="black" d="M478.468,-115.883C477.416,-95.9059 475.067,-51.276 473.818,-27.5402"/>
<polygon fill="black" stroke="black" points="473.54,-22.2579 476.05,-27.1327 473.671,-24.7545 473.803,-27.251 473.803,-27.251 473.803,-27.251 473.671,-24.7545 471.556,-27.3693 473.54,-22.2579 473.54,-22.2579"/>
</g>
<!-- v16 -->
<g id="v16_Private" class="node"><title>v16</title>
<ellipse fill="none" stroke="black" cx="536" cy="-69" rx="32.5" ry="11"/>
<text text-anchor="middle" x="536" y="-66.8" font-family="sans-serif" font-size="9.00">Private</text>
</g>
<!-- v14&#45;&gt;v16 -->
<g id="edge23" class="edge"><title>v14&#45;&gt;v16</title>
<path fill="none" stroke="black" d="M488.669,-116.5C497.948,-107.385 512.046,-93.5334 522.444,-83.318"/>
<polygon fill="black" stroke="black" points="526.092,-79.7345 524.102,-84.8436 524.308,-81.4865 522.525,-83.2386 522.525,-83.2386 522.525,-83.2386 524.308,-81.4865 520.948,-81.6336 526.092,-79.7345 526.092,-79.7345"/>
</g>
<!-- v17 -->
<g id="v17_Data" class="node"><title>v17</title>
<ellipse fill="none" stroke="black" cx="538" cy="-11" rx="21.5" ry="11"/>
<text text-anchor="middle" x="538" y="-8.8" font-family="sans-serif" font-size="9.00">Data</text>
</g>
<!-- v16&#45;&gt;v17 -->
<g id="edge24" class="edge"><title>v16&#45;&gt;v17</title>
<path fill="none" stroke="black" d="M536.358,-57.9883C536.661,-49.4941 537.101,-37.1697 537.449,-27.4169"/>
<polygon fill="black" stroke="black" points="537.632,-22.3039 539.702,-27.381 537.543,-24.8023 537.453,-27.3007 537.453,-27.3007 537.453,-27.3007 537.543,-24.8023 535.205,-27.2203 537.632,-22.3039 537.632,-22.3039"/>
</g>
<!-- v20 -->
<g id="v20_Data" class="node"><title>v20</title>
<ellipse fill="none" stroke="black" cx="252" cy="-11" rx="21.5" ry="11"/>
<text text-anchor="middle" x="252" y="-8.8" font-family="sans-serif" font-size="9.00">Data</text>
</g>
<!-- v19&#45;&gt;v20 -->
<g id="edge25" class="edge"><title>v19&#45;&gt;v20</title>
<path fill="none" stroke="black" d="M248.715,-57.9883C249.322,-49.4941 250.202,-37.1697 250.899,-27.4169"/>
<polygon fill="black" stroke="black" points="251.264,-22.3039 253.152,-27.4515 251.086,-24.7975 250.908,-27.2912 250.908,-27.2912 250.908,-27.2912 251.086,-24.7975 248.663,-27.1308 251.264,-22.3039 251.264,-22.3039"/>
</g>
<!-- v23 -->
<g id="v23_Data" class="node"><title>v23</title>
<ellipse fill="none" stroke="black" cx="408" cy="-11" rx="21.5" ry="11"/>
<text text-anchor="middle" x="408" y="-8.8" font-family="sans-serif" font-size="9.00">Data</text>
</g>
<!-- v22&#45;&gt;v23 -->
<g id="edge26" class="edge"><title>v22&#45;&gt;v23</title>
<path fill="none" stroke="black" d="M408,-57.9883C408,-49.4941 408,-37.1697 408,-27.4169"/>
<polygon fill="black" stroke="black" points="408,-22.3039 410.25,-27.3038 408,-24.8039 408,-27.3039 408,-27.3039 408,-27.3039 408,-24.8039 405.75,-27.3039 408,-22.3039 408,-22.3039"/>
</g>
</g>
</svg>
