<?xml version="1.0" encoding="UTF-8" standalone="no"?>
<?xml-stylesheet href="style.css" type="text/css"?>
<!DOCTYPE svg PUBLIC "-//W3C//DTD SVG 1.1//EN"
 "http://www.w3.org/Graphics/SVG/1.1/DTD/svg11.dtd">
<!-- Generated by graphviz version 2.38.0 (20140413.2041)
 -->
<!-- Title: 82.svg Pages: 1 -->
<svg width="1120pt" height="316pt"
 viewBox="0.00 0.00 1120.00 316.00" xmlns="http://www.w3.org/2000/svg" xmlns:xlink="http://www.w3.org/1999/xlink">
<g id="graph0" class="graph" transform="scale(1 1) rotate(0) translate(4 312)">
<title>82.svg</title>
<polygon fill="white" stroke="none" points="-4,4 -4,-312 1116,-312 1116,4 -4,4"/>
<!-- r0 -->
<g id="node1" class="node"><title>r0</title>
<polygon fill="none" stroke="black" stroke-dasharray="5,2" points="574.5,-308 551.5,-308 551.5,-290 574.5,-290 574.5,-308"/>
<text text-anchor="middle" x="563" y="-296.8" font-family="serif" font-size="9.00">0</text>
</g>
<!-- v0 -->
<g id="v0_H" class="node"><title>v0</title>
<ellipse fill="none" stroke="black" cx="563" cy="-243" rx="11" ry="11"/>
<text text-anchor="middle" x="563" y="-240.8" font-family="sans-serif" font-size="9.00">H</text>
</g>
<!-- r0&#45;&gt;v0 -->
<g id="edge1" class="edge"><title>r0&#45;&gt;v0</title>
<path fill="none" stroke="black" d="M563,-289.562C563,-281.453 563,-269.014 563,-259.181"/>
<polygon fill="black" stroke="black" points="563,-254.03 565.25,-259.03 563,-256.53 563,-259.03 563,-259.03 563,-259.03 563,-256.53 560.75,-259.03 563,-254.03 563,-254.03"/>
</g>
<!-- odb -->
<g id="node2" class="node"><title>odb</title>
<text text-anchor="middle" x="647" y="-296.8" font-family="serif" font-size="9.00">db</text>
</g>
<!-- e8 -->
<g id="node10" class="node"><title>e8</title>
</g>
<!-- odb&#45;&gt;e8 -->
<g id="edge37" class="edge"><title>odb&#45;&gt;e8</title>
<path fill="none" stroke="green" d="M647,-289.562C647,-274.375 647,-244 647,-244"/>
</g>
<!-- e0 -->
<g id="node3" class="node"><title>e0</title>
</g>
<!-- v2 -->
<g id="v2_Record" class="node"><title>v2</title>
<ellipse fill="none" stroke="black" cx="447" cy="-127" rx="29" ry="11"/>
<text text-anchor="middle" x="447" y="-124.8" font-family="sans-serif" font-size="9.00">Record</text>
</g>
<!-- e0&#45;&gt;v2 -->
<g id="edge27" class="edge"><title>e0&#45;&gt;v2</title>
<path fill="none" stroke="green" d="M447,-180.167C447,-171.586 447,-150.596 447,-138.012"/>
<polygon fill="green" stroke="green" points="450.5,-183.3 443.5,-183.3 443.5,-181.9 450.5,-181.9 450.5,-183.3"/>
<polyline fill="none" stroke="green" points="447,-184 447,-180.5 "/>
</g>
<!-- e1 -->
<g id="node4" class="node"><title>e1</title>
</g>
<!-- v5 -->
<g id="v5_Doc" class="node"><title>v5</title>
<ellipse fill="none" stroke="black" cx="76" cy="-69" rx="18" ry="11"/>
<text text-anchor="middle" x="76" y="-66.8" font-family="sans-serif" font-size="9.00">Doc</text>
</g>
<!-- e1&#45;&gt;v5 -->
<g id="edge28" class="edge"><title>e1&#45;&gt;v5</title>
<path fill="none" stroke="green" d="M76,-122.167C76,-113.586 76,-92.5957 76,-80.0117"/>
<polygon fill="green" stroke="green" points="79.5,-125.3 72.5,-125.3 72.5001,-123.9 79.5001,-123.9 79.5,-125.3"/>
<polyline fill="none" stroke="green" points="76,-126 76.0001,-122.5 "/>
</g>
<!-- e2 -->
<g id="node5" class="node"><title>e2</title>
</g>
<!-- v6 -->
<g id="v6_Ref&#39;" class="node"><title>v6</title>
<ellipse fill="none" stroke="black" cx="76" cy="-11" rx="21.5" ry="11"/>
<text text-anchor="middle" x="76" y="-8.8" font-family="sans-serif" font-size="9.00">Ref&#39;</text>
</g>
<!-- e2&#45;&gt;v6 -->
<g id="edge29" class="edge"><title>e2&#45;&gt;v6</title>
<path fill="none" stroke="green" d="M181,-184C181,-184 104.158,-58.1258 81.9461,-21.7403"/>
</g>
<!-- v7 -->
<g id="v7_Data_local" class="node"><title>v7</title>
<ellipse fill="none" stroke="black" cx="159" cy="-11" rx="43" ry="11"/>
<text text-anchor="middle" x="159" y="-8.8" font-family="sans-serif" font-size="9.00">Data_local</text>
</g>
<!-- e2&#45;&gt;v7 -->
<g id="edge30" class="edge"><title>e2&#45;&gt;v7</title>
<path fill="none" stroke="green" d="M181,-184C181,-184 165.047,-59.2727 160.31,-22.2443"/>
</g>
<!-- v8 -->
<g id="v8_Record" class="node"><title>v8</title>
<ellipse fill="none" stroke="black" cx="278" cy="-127" rx="29" ry="11"/>
<text text-anchor="middle" x="278" y="-124.8" font-family="sans-serif" font-size="9.00">Record</text>
</g>
<!-- e2&#45;&gt;v8 -->
<g id="edge31" class="edge"><title>e2&#45;&gt;v8</title>
<path fill="none" stroke="green" d="M181,-184C181,-184 236.132,-152.171 263.268,-136.505"/>
</g>
<!-- e4 -->
<g id="node6" class="node"><title>e4</title>
</g>
<!-- v12 -->
<g id="v12_Record" class="node"><title>v12</title>
<ellipse fill="none" stroke="black" cx="802" cy="-127" rx="29" ry="11"/>
<text text-anchor="middle" x="802" y="-124.8" font-family="sans-serif" font-size="9.00">Record</text>
</g>
<!-- e4&#45;&gt;v12 -->
<g id="edge33" class="edge"><title>e4&#45;&gt;v12</title>
<path fill="none" stroke="green" d="M802,-180.167C802,-171.586 802,-150.596 802,-138.012"/>
<polygon fill="green" stroke="green" points="805.5,-183.3 798.5,-183.3 798.5,-181.9 805.5,-181.9 805.5,-183.3"/>
<polyline fill="none" stroke="green" points="802,-184 802,-180.5 "/>
</g>
<!-- e5 -->
<g id="node7" class="node"><title>e5</title>
</g>
<!-- v23 -->
<g id="v23_Nurse" class="node"><title>v23</title>
<ellipse fill="none" stroke="black" cx="953" cy="-11" rx="25" ry="11"/>
<text text-anchor="middle" x="953" y="-8.8" font-family="sans-serif" font-size="9.00">Nurse</text>
</g>
<!-- e5&#45;&gt;v23 -->
<g id="edge34" class="edge"><title>e5&#45;&gt;v23</title>
<path fill="none" stroke="green" d="M953,-64.1674C953,-55.5862 953,-34.5957 953,-22.0117"/>
<polygon fill="green" stroke="green" points="956.5,-67.3001 949.5,-67.2999 949.5,-65.8999 956.5,-65.9001 956.5,-67.3001"/>
<polyline fill="none" stroke="green" points="953,-68 953,-64.5 "/>
</g>
<!-- e6 -->
<g id="node8" class="node"><title>e6</title>
</g>
<!-- v24 -->
<g id="v24_Nurse" class="node"><title>v24</title>
<ellipse fill="none" stroke="black" cx="1087" cy="-11" rx="25" ry="11"/>
<text text-anchor="middle" x="1087" y="-8.8" font-family="sans-serif" font-size="9.00">Nurse</text>
</g>
<!-- e6&#45;&gt;v24 -->
<g id="edge35" class="edge"><title>e6&#45;&gt;v24</title>
<path fill="none" stroke="green" d="M1087,-64.1674C1087,-55.5862 1087,-34.5957 1087,-22.0117"/>
<polygon fill="green" stroke="green" points="1090.5,-67.3001 1083.5,-67.2999 1083.5,-65.8999 1090.5,-65.9001 1090.5,-67.3001"/>
<polyline fill="none" stroke="green" points="1087,-68 1087,-64.5 "/>
</g>
<!-- e7 -->
<g id="node9" class="node"><title>e7</title>
</g>
<!-- v25 -->
<g id="v25_Nurse" class="node"><title>v25</title>
<ellipse fill="none" stroke="black" cx="612" cy="-11" rx="25" ry="11"/>
<text text-anchor="middle" x="612" y="-8.8" font-family="sans-serif" font-size="9.00">Nurse</text>
</g>
<!-- e7&#45;&gt;v25 -->
<g id="edge36" class="edge"><title>e7&#45;&gt;v25</title>
<path fill="none" stroke="green" d="M612,-64.1674C612,-55.5862 612,-34.5957 612,-22.0117"/>
<polygon fill="green" stroke="green" points="615.5,-67.3001 608.5,-67.2999 608.5,-65.8999 615.5,-65.9001 615.5,-67.3001"/>
<polyline fill="none" stroke="green" points="612,-68 612,-64.5 "/>
</g>
<!-- v1 -->
<g id="v1_DB" class="node"><title>v1</title>
<ellipse fill="none" stroke="black" cx="585" cy="-185" rx="14.5" ry="11"/>
<text text-anchor="middle" x="585" y="-182.8" font-family="sans-serif" font-size="9.00">DB</text>
</g>
<!-- e8&#45;&gt;v1 -->
<g id="edge38" class="edge"><title>e8&#45;&gt;v1</title>
<path fill="none" stroke="green" d="M647,-242C647,-242 611.027,-209.508 593.883,-194.023"/>
</g>
<!-- e8&#45;&gt;v5 -->
<g id="edge39" class="edge"><title>e8&#45;&gt;v5</title>
<path fill="none" stroke="green" d="M647,-242C647,-242 611.579,-235.477 583,-232 491.768,-220.9 251.39,-240.541 171,-196 121.875,-168.781 90.5079,-104.358 79.9598,-79.7689"/>
</g>
<!-- v9 -->
<g id="v9_DBadmin" class="node"><title>v9</title>
<ellipse fill="none" stroke="black" cx="536" cy="-11" rx="32.5" ry="11"/>
<text text-anchor="middle" x="536" y="-8.8" font-family="sans-serif" font-size="9.00">DBadmin</text>
</g>
<!-- e8&#45;&gt;v9 -->
<g id="edge40" class="edge"><title>e8&#45;&gt;v9</title>
<path fill="none" stroke="green" d="M647,-242C647,-242 562.016,-65.9062 540.77,-21.8828"/>
</g>
<!-- e8&#45;&gt;v23 -->
<g id="edge41" class="edge"><title>e8&#45;&gt;v23</title>
<path fill="none" stroke="green" d="M647,-242C647,-242 890.626,-241.188 938,-196 987.167,-149.102 965.188,-53.6934 956.18,-22.282"/>
</g>
<!-- e8&#45;&gt;v24 -->
<g id="edge42" class="edge"><title>e8&#45;&gt;v24</title>
<path fill="none" stroke="green" d="M647,-242C647,-242 831.556,-252.018 961,-196 999.03,-179.542 1008.96,-171.019 1034,-138 1062.68,-100.181 1078.9,-44.5498 1084.62,-22.0209"/>
</g>
<!-- e8&#45;&gt;v25 -->
<g id="edge43" class="edge"><title>e8&#45;&gt;v25</title>
<path fill="none" stroke="green" d="M647,-242C647,-242 645.816,-204.063 642,-174 635.403,-122.023 630.697,-109.488 621,-58 618.681,-45.6847 615.895,-31.5399 614.043,-22.2233"/>
</g>
<!-- v0&#45;&gt;v1 -->
<g id="edge2" class="edge"><title>v0&#45;&gt;v1</title>
<path fill="none" stroke="black" d="M566.732,-232.5C570.188,-223.704 575.375,-210.5 579.34,-200.406"/>
<polygon fill="black" stroke="black" points="581.176,-195.734 581.442,-201.211 580.262,-198.061 579.347,-200.388 579.347,-200.388 579.347,-200.388 580.262,-198.061 577.253,-199.565 581.176,-195.734 581.176,-195.734"/>
</g>
<!-- v0&#45;&gt;v5 -->
<g id="edge3" class="edge"><title>v0&#45;&gt;v5</title>
<path fill="none" stroke="black" d="M551.916,-241.589C484.346,-238.994 129.489,-224.092 91,-196 60.9107,-174.039 62.0206,-153.038 66,-116 67.1239,-105.539 69.6462,-93.9669 71.8763,-85.0462"/>
<polygon fill="black" stroke="black" points="73.1428,-80.1288 74.0746,-85.532 72.5193,-82.5498 71.8957,-84.9708 71.8957,-84.9708 71.8957,-84.9708 72.5193,-82.5498 69.7168,-84.4095 73.1428,-80.1288 73.1428,-80.1288"/>
</g>
<!-- v0&#45;&gt;v9 -->
<g id="edge4" class="edge"><title>v0&#45;&gt;v9</title>
<path fill="none" stroke="black" d="M555.346,-235.093C546.776,-226.793 533.387,-211.975 528,-196 507.912,-136.425 523.401,-59.8189 531.667,-27.4884"/>
<polygon fill="black" stroke="black" points="533.021,-22.3337 533.927,-27.7413 532.386,-24.7517 531.75,-27.1697 531.75,-27.1697 531.75,-27.1697 532.386,-24.7517 529.574,-26.5982 533.021,-22.3337 533.021,-22.3337"/>
</g>
<!-- v0&#45;&gt;v23 -->
<g id="edge5" class="edge"><title>v0&#45;&gt;v23</title>
<path fill="none" stroke="black" d="M573.858,-240.442C618.961,-233.907 790.145,-208.479 811,-196 881.296,-153.939 929.402,-62.8722 946.303,-26.9779"/>
<polygon fill="black" stroke="black" points="948.569,-22.0947 948.506,-27.5773 947.517,-24.3624 946.465,-26.6301 946.465,-26.6301 946.465,-26.6301 947.517,-24.3624 944.424,-25.6829 948.569,-22.0947 948.569,-22.0947"/>
</g>
<!-- v0&#45;&gt;v24 -->
<g id="edge6" class="edge"><title>v0&#45;&gt;v24</title>
<path fill="none" stroke="black" d="M573.725,-240.525C621.642,-233.892 814.881,-206.691 840,-196 941.178,-152.935 1039.19,-60.3282 1073.83,-25.5601"/>
<polygon fill="black" stroke="black" points="1077.74,-21.614 1075.82,-26.7502 1075.98,-23.3906 1074.22,-25.1672 1074.22,-25.1672 1074.22,-25.1672 1075.98,-23.3906 1072.62,-23.5842 1077.74,-21.614 1077.74,-21.614"/>
</g>
<!-- v0&#45;&gt;v25 -->
<g id="edge7" class="edge"><title>v0&#45;&gt;v25</title>
<path fill="none" stroke="black" d="M561.555,-231.791C559.924,-218.427 557.878,-194.312 561,-174 569.602,-118.031 593.999,-54.8663 605.652,-26.8002"/>
<polygon fill="black" stroke="black" points="607.673,-21.9778 607.816,-27.4589 606.707,-24.2835 605.741,-26.5893 605.741,-26.5893 605.741,-26.5893 606.707,-24.2835 603.665,-25.7196 607.673,-21.9778 607.673,-21.9778"/>
</g>
<!-- v1&#45;&gt;v2 -->
<g id="edge8" class="edge"><title>v1&#45;&gt;v2</title>
<path fill="none" stroke="black" d="M572.753,-179.03C549.806,-169.718 499.988,-149.503 470.408,-137.499"/>
<polygon fill="black" stroke="black" points="465.486,-135.502 470.965,-135.297 467.803,-136.442 470.119,-137.382 470.119,-137.382 470.119,-137.382 467.803,-136.442 469.273,-139.467 465.486,-135.502 465.486,-135.502"/>
</g>
<!-- v1&#45;&gt;v8 -->
<g id="edge9" class="edge"><title>v1&#45;&gt;v8</title>
<path fill="none" stroke="black" d="M571.011,-181.448C524.461,-172.957 374.043,-145.519 308.735,-133.606"/>
<polygon fill="black" stroke="black" points="303.433,-132.639 308.756,-131.323 305.893,-133.088 308.352,-133.537 308.352,-133.537 308.352,-133.537 305.893,-133.088 307.948,-135.75 303.433,-132.639 303.433,-132.639"/>
</g>
<!-- v10 -->
<g id="v10_Record" class="node"><title>v10</title>
<ellipse fill="none" stroke="black" cx="699" cy="-127" rx="29" ry="11"/>
<text text-anchor="middle" x="699" y="-124.8" font-family="sans-serif" font-size="9.00">Record</text>
</g>
<!-- v1&#45;&gt;v10 -->
<g id="edge10" class="edge"><title>v1&#45;&gt;v10</title>
<path fill="none" stroke="black" d="M596.771,-178.218C615.864,-168.839 653.853,-150.177 677.761,-138.433"/>
<polygon fill="black" stroke="black" points="682.345,-136.181 678.85,-140.405 680.101,-137.284 677.857,-138.386 677.857,-138.386 677.857,-138.386 680.101,-137.284 676.865,-136.366 682.345,-136.181 682.345,-136.181"/>
</g>
<!-- v1&#45;&gt;v12 -->
<g id="edge11" class="edge"><title>v1&#45;&gt;v12</title>
<path fill="none" stroke="black" d="M598.574,-180.497C633.489,-171.487 726.961,-147.365 774.059,-135.211"/>
<polygon fill="black" stroke="black" points="779.018,-133.931 774.739,-137.359 776.597,-134.556 774.176,-135.18 774.176,-135.18 774.176,-135.18 776.597,-134.556 773.614,-133.002 779.018,-133.931 779.018,-133.931"/>
</g>
<!-- v3 -->
<g id="v3_Private" class="node"><title>v3</title>
<ellipse fill="none" stroke="black" cx="401" cy="-69" rx="32.5" ry="11"/>
<text text-anchor="middle" x="401" y="-66.8" font-family="sans-serif" font-size="9.00">Private</text>
</g>
<!-- v2&#45;&gt;v3 -->
<g id="edge12" class="edge"><title>v2&#45;&gt;v3</title>
<path fill="none" stroke="black" d="M438.987,-116.246C431.69,-107.362 420.827,-94.1372 412.585,-84.1029"/>
<polygon fill="black" stroke="black" points="409.231,-80.0198 414.143,-82.4552 410.817,-81.9516 412.404,-83.8834 412.404,-83.8834 412.404,-83.8834 410.817,-81.9516 410.666,-85.3116 409.231,-80.0198 409.231,-80.0198"/>
</g>
<!-- v22 -->
<g id="v22_Id(3)" class="node"><title>v22</title>
<ellipse fill="none" stroke="black" cx="460" cy="-11" rx="25" ry="11"/>
<text text-anchor="middle" x="460" y="-8.8" font-family="sans-serif" font-size="9.00">Id(3)</text>
</g>
<!-- v2&#45;&gt;v22 -->
<g id="edge13" class="edge"><title>v2&#45;&gt;v22</title>
<path fill="none" stroke="black" d="M448.154,-115.883C450.441,-95.8216 455.564,-50.899 458.262,-27.2409"/>
<polygon fill="black" stroke="black" points="458.83,-22.2579 460.499,-27.4807 458.547,-24.7418 458.264,-27.2257 458.264,-27.2257 458.264,-27.2257 458.547,-24.7418 456.028,-26.9708 458.83,-22.2579 458.83,-22.2579"/>
</g>
<!-- v4 -->
<g id="v4_Data" class="node"><title>v4</title>
<ellipse fill="none" stroke="black" cx="395" cy="-11" rx="21.5" ry="11"/>
<text text-anchor="middle" x="395" y="-8.8" font-family="sans-serif" font-size="9.00">Data</text>
</g>
<!-- v3&#45;&gt;v4 -->
<g id="edge14" class="edge"><title>v3&#45;&gt;v4</title>
<path fill="none" stroke="black" d="M399.927,-57.9883C399.017,-49.4941 397.697,-37.1697 396.652,-27.4169"/>
<polygon fill="black" stroke="black" points="396.104,-22.3039 398.874,-27.0357 396.37,-24.7896 396.637,-27.2754 396.637,-27.2754 396.637,-27.2754 396.37,-24.7896 394.4,-27.5152 396.104,-22.3039 396.104,-22.3039"/>
</g>
<!-- v5&#45;&gt;v6 -->
<g id="edge15" class="edge"><title>v5&#45;&gt;v6</title>
<path fill="none" stroke="black" d="M76,-57.9883C76,-49.4941 76,-37.1697 76,-27.4169"/>
<polygon fill="black" stroke="black" points="76,-22.3039 78.2501,-27.3038 76,-24.8039 76.0001,-27.3039 76.0001,-27.3039 76.0001,-27.3039 76,-24.8039 73.7501,-27.3039 76,-22.3039 76,-22.3039"/>
</g>
<!-- v5&#45;&gt;v7 -->
<g id="edge16" class="edge"><title>v5&#45;&gt;v7</title>
<path fill="none" stroke="black" d="M87.5408,-60.2134C101.221,-50.9833 124.202,-35.4783 140.403,-24.5476"/>
<polygon fill="black" stroke="black" points="144.779,-21.5949 141.893,-26.2566 142.707,-22.9932 140.634,-24.3915 140.634,-24.3915 140.634,-24.3915 142.707,-22.9932 139.376,-22.5263 144.779,-21.5949 144.779,-21.5949"/>
</g>
<!-- v11 -->
<g id="v11_Ref" class="node"><title>v11</title>
<ellipse fill="none" stroke="black" cx="18" cy="-11" rx="18" ry="11"/>
<text text-anchor="middle" x="18" y="-8.8" font-family="sans-serif" font-size="9.00">Ref</text>
</g>
<!-- v5&#45;&gt;v11 -->
<g id="edge17" class="edge"><title>v5&#45;&gt;v11</title>
<path fill="none" stroke="black" d="M66.9375,-59.25C57.2898,-49.935 41.9361,-35.1107 31.0005,-24.5522"/>
<polygon fill="black" stroke="black" points="27.1903,-20.8734 32.3502,-22.7277 28.9888,-22.6099 30.7873,-24.3464 30.7873,-24.3464 30.7873,-24.3464 28.9888,-22.6099 29.2245,-25.965 27.1903,-20.8734 27.1903,-20.8734"/>
</g>
<!-- v16 -->
<g id="v16_Id(1)" class="node"><title>v16</title>
<ellipse fill="none" stroke="black" cx="245" cy="-11" rx="25" ry="11"/>
<text text-anchor="middle" x="245" y="-8.8" font-family="sans-serif" font-size="9.00">Id(1)</text>
</g>
<!-- v8&#45;&gt;v16 -->
<g id="edge18" class="edge"><title>v8&#45;&gt;v16</title>
<path fill="none" stroke="black" d="M275.071,-115.883C269.235,-95.7202 256.129,-50.4446 249.309,-26.8841"/>
<polygon fill="black" stroke="black" points="247.875,-21.9313 251.426,-26.1085 248.57,-24.3327 249.265,-26.7341 249.265,-26.7341 249.265,-26.7341 248.57,-24.3327 247.104,-27.3598 247.875,-21.9313 247.875,-21.9313"/>
</g>
<!-- v17 -->
<g id="v17_Private" class="node"><title>v17</title>
<ellipse fill="none" stroke="black" cx="318" cy="-69" rx="32.5" ry="11"/>
<text text-anchor="middle" x="318" y="-66.8" font-family="sans-serif" font-size="9.00">Private</text>
</g>
<!-- v8&#45;&gt;v17 -->
<g id="edge19" class="edge"><title>v8&#45;&gt;v17</title>
<path fill="none" stroke="black" d="M284.967,-116.246C291.313,-107.362 300.759,-94.1372 307.926,-84.1029"/>
<polygon fill="black" stroke="black" points="310.843,-80.0198 309.768,-85.3962 309.39,-82.0541 307.937,-84.0884 307.937,-84.0884 307.937,-84.0884 309.39,-82.0541 306.106,-82.7806 310.843,-80.0198 310.843,-80.0198"/>
</g>
<!-- v10&#45;&gt;v11 -->
<g id="edge32" class="edge"><title>v10&#45;&gt;v11</title>
<path fill="none" stroke="green" d="M670.844,-124.283C602.66,-119.834 423.428,-106.395 276,-80 171.803,-61.345 146.115,-53.3173 45,-22 40.8936,-20.7282 36.4991,-19.1823 32.4735,-17.6901"/>
</g>
<!-- v19 -->
<g id="v19_Id(2)" class="node"><title>v19</title>
<ellipse fill="none" stroke="black" cx="680" cy="-11" rx="25" ry="11"/>
<text text-anchor="middle" x="680" y="-8.8" font-family="sans-serif" font-size="9.00">Id(2)</text>
</g>
<!-- v10&#45;&gt;v19 -->
<g id="edge20" class="edge"><title>v10&#45;&gt;v19</title>
<path fill="none" stroke="black" d="M697.314,-115.883C693.97,-95.8216 686.483,-50.899 682.54,-27.2409"/>
<polygon fill="black" stroke="black" points="681.71,-22.2579 684.751,-26.82 682.121,-24.7239 682.532,-27.1899 682.532,-27.1899 682.532,-27.1899 682.121,-24.7239 680.312,-27.5598 681.71,-22.2579 681.71,-22.2579"/>
</g>
<!-- v20 -->
<g id="v20_Private" class="node"><title>v20</title>
<ellipse fill="none" stroke="black" cx="741" cy="-69" rx="32.5" ry="11"/>
<text text-anchor="middle" x="741" y="-66.8" font-family="sans-serif" font-size="9.00">Private</text>
</g>
<!-- v10&#45;&gt;v20 -->
<g id="edge21" class="edge"><title>v10&#45;&gt;v20</title>
<path fill="none" stroke="black" d="M706.316,-116.246C712.979,-107.362 722.897,-94.1372 730.423,-84.1029"/>
<polygon fill="black" stroke="black" points="733.485,-80.0198 732.285,-85.3698 731.985,-82.0198 730.485,-84.0198 730.485,-84.0198 730.485,-84.0198 731.985,-82.0198 728.685,-82.6698 733.485,-80.0198 733.485,-80.0198"/>
</g>
<!-- v13 -->
<g id="v13_Id(0)" class="node"><title>v13</title>
<ellipse fill="none" stroke="black" cx="810" cy="-11" rx="25" ry="11"/>
<text text-anchor="middle" x="810" y="-8.8" font-family="sans-serif" font-size="9.00">Id(0)</text>
</g>
<!-- v12&#45;&gt;v13 -->
<g id="edge22" class="edge"><title>v12&#45;&gt;v13</title>
<path fill="none" stroke="black" d="M802.71,-115.883C804.112,-95.9059 807.244,-51.276 808.909,-27.5402"/>
<polygon fill="black" stroke="black" points="809.28,-22.2579 811.175,-27.4032 809.105,-24.7518 808.93,-27.2457 808.93,-27.2457 808.93,-27.2457 809.105,-24.7518 806.686,-27.0881 809.28,-22.2579 809.28,-22.2579"/>
</g>
<!-- v14 -->
<g id="v14_Private" class="node"><title>v14</title>
<ellipse fill="none" stroke="black" cx="863" cy="-69" rx="32.5" ry="11"/>
<text text-anchor="middle" x="863" y="-66.8" font-family="sans-serif" font-size="9.00">Private</text>
</g>
<!-- v12&#45;&gt;v14 -->
<g id="edge23" class="edge"><title>v12&#45;&gt;v14</title>
<path fill="none" stroke="black" d="M812.348,-116.5C822.278,-107.385 837.365,-93.5334 848.493,-83.318"/>
<polygon fill="black" stroke="black" points="852.396,-79.7345 850.235,-84.7733 850.555,-81.4252 848.713,-83.1158 848.713,-83.1158 848.713,-83.1158 850.555,-81.4252 847.191,-81.4584 852.396,-79.7345 852.396,-79.7345"/>
</g>
<!-- v15 -->
<g id="v15_Data" class="node"><title>v15</title>
<ellipse fill="none" stroke="black" cx="875" cy="-11" rx="21.5" ry="11"/>
<text text-anchor="middle" x="875" y="-8.8" font-family="sans-serif" font-size="9.00">Data</text>
</g>
<!-- v14&#45;&gt;v15 -->
<g id="edge24" class="edge"><title>v14&#45;&gt;v15</title>
<path fill="none" stroke="black" d="M865.145,-57.9883C866.966,-49.4941 869.607,-37.1697 871.696,-27.4169"/>
<polygon fill="black" stroke="black" points="872.792,-22.3039 873.944,-27.6644 872.268,-24.7484 871.744,-27.1929 871.744,-27.1929 871.744,-27.1929 872.268,-24.7484 869.544,-26.7214 872.792,-22.3039 872.792,-22.3039"/>
</g>
<!-- v18 -->
<g id="v18_Data" class="node"><title>v18</title>
<ellipse fill="none" stroke="black" cx="318" cy="-11" rx="21.5" ry="11"/>
<text text-anchor="middle" x="318" y="-8.8" font-family="sans-serif" font-size="9.00">Data</text>
</g>
<!-- v17&#45;&gt;v18 -->
<g id="edge25" class="edge"><title>v17&#45;&gt;v18</title>
<path fill="none" stroke="black" d="M318,-57.9883C318,-49.4941 318,-37.1697 318,-27.4169"/>
<polygon fill="black" stroke="black" points="318,-22.3039 320.25,-27.3038 318,-24.8039 318,-27.3039 318,-27.3039 318,-27.3039 318,-24.8039 315.75,-27.3039 318,-22.3039 318,-22.3039"/>
</g>
<!-- v21 -->
<g id="v21_Data" class="node"><title>v21</title>
<ellipse fill="none" stroke="black" cx="745" cy="-11" rx="21.5" ry="11"/>
<text text-anchor="middle" x="745" y="-8.8" font-family="sans-serif" font-size="9.00">Data</text>
</g>
<!-- v20&#45;&gt;v21 -->
<g id="edge26" class="edge"><title>v20&#45;&gt;v21</title>
<path fill="none" stroke="black" d="M741.715,-57.9883C742.322,-49.4941 743.202,-37.1697 743.899,-27.4169"/>
<polygon fill="black" stroke="black" points="744.264,-22.3039 746.152,-27.4515 744.086,-24.7975 743.908,-27.2912 743.908,-27.2912 743.908,-27.2912 744.086,-24.7975 741.663,-27.1308 744.264,-22.3039 744.264,-22.3039"/>
</g>
</g>
</svg>
