<?xml version="1.0" encoding="UTF-8" standalone="no"?>
<?xml-stylesheet href="style.css" type="text/css"?>
<!DOCTYPE svg PUBLIC "-//W3C//DTD SVG 1.1//EN"
 "http://www.w3.org/Graphics/SVG/1.1/DTD/svg11.dtd">
<!-- Generated by graphviz version 2.38.0 (20140413.2041)
 -->
<!-- Title: 12.svg Pages: 1 -->
<svg width="809pt" height="316pt"
 viewBox="0.00 0.00 808.50 316.00" xmlns="http://www.w3.org/2000/svg" xmlns:xlink="http://www.w3.org/1999/xlink">
<g id="graph0" class="graph" transform="scale(1 1) rotate(0) translate(4 312)">
<title>12.svg</title>
<polygon fill="white" stroke="none" points="-4,4 -4,-312 804.5,-312 804.5,4 -4,4"/>
<!-- r0 -->
<g id="node1" class="node"><title>r0</title>
<polygon fill="none" stroke="black" stroke-dasharray="5,2" points="317,-308 294,-308 294,-290 317,-290 317,-308"/>
<text text-anchor="middle" x="305.5" y="-296.8" font-family="serif" font-size="9.00">0</text>
</g>
<!-- v0 -->
<g id="v0_Building" class="node"><title>v0</title>
<ellipse fill="none" stroke="black" cx="305.5" cy="-243" rx="36" ry="11"/>
<text text-anchor="middle" x="305.5" y="-240.8" font-family="sans-serif" font-size="9.00">Building</text>
</g>
<!-- r0&#45;&gt;v0 -->
<g id="edge1" class="edge"><title>r0&#45;&gt;v0</title>
<path fill="none" stroke="black" d="M305.5,-289.562C305.5,-281.453 305.5,-269.014 305.5,-259.181"/>
<polygon fill="black" stroke="black" points="305.5,-254.03 307.75,-259.03 305.5,-256.53 305.5,-259.03 305.5,-259.03 305.5,-259.03 305.5,-256.53 303.25,-259.03 305.5,-254.03 305.5,-254.03"/>
</g>
<!-- e7 -->
<g id="node2" class="node"><title>e7</title>
</g>
<!-- v7 -->
<g id="v7_SmartLight" class="node"><title>v7</title>
<ellipse fill="none" stroke="black" cx="757.5" cy="-11" rx="43" ry="11"/>
<text text-anchor="middle" x="757.5" y="-8.8" font-family="sans-serif" font-size="9.00">SmartLight</text>
</g>
<!-- e7&#45;&gt;v7 -->
<g id="edge24" class="edge"><title>e7&#45;&gt;v7</title>
<path fill="none" stroke="green" d="M757.5,-64.1674C757.5,-55.5862 757.5,-34.5957 757.5,-22.0117"/>
<polygon fill="green" stroke="green" points="761,-67.3001 754,-67.2999 754,-65.8999 761,-65.9001 761,-67.3001"/>
<polyline fill="none" stroke="green" points="757.5,-68 757.5,-64.5 "/>
</g>
<!-- v1 -->
<g id="v1_InstallationBus" class="node"><title>v1</title>
<ellipse fill="none" stroke="black" cx="123.5" cy="-69" rx="61" ry="11"/>
<text text-anchor="middle" x="123.5" y="-66.8" font-family="sans-serif" font-size="9.00">InstallationBus</text>
</g>
<!-- v0&#45;&gt;v1 -->
<g id="edge2" class="edge"><title>v0&#45;&gt;v1</title>
<path fill="none" stroke="black" d="M295.193,-232.26C264.431,-203.187 173.215,-116.984 137.791,-83.506"/>
<polygon fill="black" stroke="black" points="134.147,-80.0619 139.326,-81.8609 135.964,-81.779 137.781,-83.4962 137.781,-83.4962 137.781,-83.4962 135.964,-81.779 136.235,-85.1315 134.147,-80.0619 134.147,-80.0619"/>
</g>
<!-- v3 -->
<g id="v3_Floor" class="node"><title>v3</title>
<ellipse fill="none" stroke="black" cx="396.5" cy="-185" rx="25" ry="11"/>
<text text-anchor="middle" x="396.5" y="-182.8" font-family="sans-serif" font-size="9.00">Floor</text>
</g>
<!-- v0&#45;&gt;v3 -->
<g id="edge3" class="edge"><title>v0&#45;&gt;v3</title>
<path fill="none" stroke="black" d="M320.527,-232.753C336.4,-222.985 361.431,-207.581 378.385,-197.148"/>
<polygon fill="black" stroke="black" points="382.938,-194.346 379.859,-198.883 380.809,-195.656 378.68,-196.966 378.68,-196.966 378.68,-196.966 380.809,-195.656 377.5,-195.05 382.938,-194.346 382.938,-194.346"/>
</g>
<!-- v2 -->
<g id="v2_Data" class="node"><title>v2</title>
<ellipse fill="none" stroke="black" cx="21.5" cy="-11" rx="21.5" ry="11"/>
<text text-anchor="middle" x="21.5" y="-8.8" font-family="sans-serif" font-size="9.00">Data</text>
</g>
<!-- v1&#45;&gt;v2 -->
<g id="edge4" class="edge"><title>v1&#45;&gt;v2</title>
<path fill="none" stroke="black" d="M105.733,-58.2455C87.3165,-48.1346 58.6597,-32.4014 39.9831,-22.1476"/>
<polygon fill="black" stroke="black" points="35.4621,-19.6655 40.9279,-20.0995 37.6536,-20.8687 39.845,-22.0718 39.845,-22.0718 39.845,-22.0718 37.6536,-20.8687 38.7622,-24.0441 35.4621,-19.6655 35.4621,-19.6655"/>
</g>
<!-- v6 -->
<g id="v6_Laptop" class="node"><title>v6</title>
<ellipse fill="none" stroke="black" cx="667.5" cy="-11" rx="29" ry="11"/>
<text text-anchor="middle" x="667.5" y="-8.8" font-family="sans-serif" font-size="9.00">Laptop</text>
</g>
<!-- v1&#45;&gt;v6 -->
<g id="edge17" class="edge"><title>v1&#45;&gt;v6</title>
<path fill="none" stroke="green" d="M176.28,-63.3182C303.685,-52.0014 618.423,-23.947 629.5,-22 634.741,-21.0788 640.316,-19.7907 645.534,-18.4447"/>
</g>
<!-- v10 -->
<g id="v10_SmartLight" class="node"><title>v10</title>
<ellipse fill="none" stroke="black" cx="201.5" cy="-11" rx="43" ry="11"/>
<text text-anchor="middle" x="201.5" y="-8.8" font-family="sans-serif" font-size="9.00">SmartLight</text>
</g>
<!-- v1&#45;&gt;v10 -->
<g id="edge18" class="edge"><title>v1&#45;&gt;v10</title>
<path fill="none" stroke="green" d="M137.087,-58.2455C151.403,-47.9671 173.812,-31.8787 188.069,-21.6427"/>
</g>
<!-- v11 -->
<g id="v11_Server" class="node"><title>v11</title>
<ellipse fill="none" stroke="black" cx="291.5" cy="-11" rx="29" ry="11"/>
<text text-anchor="middle" x="291.5" y="-8.8" font-family="sans-serif" font-size="9.00">Server</text>
</g>
<!-- v1&#45;&gt;v11 -->
<g id="edge19" class="edge"><title>v1&#45;&gt;v11</title>
<path fill="none" stroke="green" d="M150.492,-59.0026C184.069,-47.8104 240.655,-28.9484 270.929,-18.8571"/>
</g>
<!-- v12 -->
<g id="v12_FireAlarm" class="node"><title>v12</title>
<ellipse fill="none" stroke="black" cx="100.5" cy="-11" rx="39.5" ry="11"/>
<text text-anchor="middle" x="100.5" y="-8.8" font-family="sans-serif" font-size="9.00">FireAlarm</text>
</g>
<!-- v1&#45;&gt;v12 -->
<g id="edge20" class="edge"><title>v1&#45;&gt;v12</title>
<path fill="none" stroke="green" d="M119.388,-57.9883C115.253,-47.9211 108.909,-32.4737 104.732,-22.3039"/>
</g>
<!-- v14 -->
<g id="v14_SmartLight" class="node"><title>v14</title>
<ellipse fill="none" stroke="black" cx="381.5" cy="-11" rx="43" ry="11"/>
<text text-anchor="middle" x="381.5" y="-8.8" font-family="sans-serif" font-size="9.00">SmartLight</text>
</g>
<!-- v1&#45;&gt;v14 -->
<g id="edge21" class="edge"><title>v1&#45;&gt;v14</title>
<path fill="none" stroke="green" d="M159.918,-60.0953C210.895,-49.0306 302.64,-29.1169 350.516,-18.7251"/>
</g>
<!-- v15 -->
<g id="v15_Workstation" class="node"><title>v15</title>
<ellipse fill="none" stroke="black" cx="489.5" cy="-11" rx="47" ry="11"/>
<text text-anchor="middle" x="489.5" y="-8.8" font-family="sans-serif" font-size="9.00">Workstation</text>
</g>
<!-- v1&#45;&gt;v15 -->
<g id="edge22" class="edge"><title>v1&#45;&gt;v15</title>
<path fill="none" stroke="green" d="M169.262,-61.6384C229.803,-53.1243 339.8,-37.3146 433.5,-22 440.323,-20.8849 447.601,-19.6319 454.576,-18.3999"/>
</g>
<!-- v4 -->
<g id="v4_Room" class="node"><title>v4</title>
<ellipse fill="none" stroke="black" cx="667.5" cy="-127" rx="21.5" ry="11"/>
<text text-anchor="middle" x="667.5" y="-124.8" font-family="sans-serif" font-size="9.00">Room</text>
</g>
<!-- v3&#45;&gt;v4 -->
<g id="edge5" class="edge"><title>v3&#45;&gt;v4</title>
<path fill="none" stroke="black" d="M418.219,-179.512C468.127,-169.199 590.712,-143.868 643.108,-133.04"/>
<polygon fill="black" stroke="black" points="648.252,-131.977 643.811,-135.193 645.804,-132.483 643.356,-132.989 643.356,-132.989 643.356,-132.989 645.804,-132.483 642.9,-130.786 648.252,-131.977 648.252,-131.977"/>
</g>
<!-- v8 -->
<g id="v8_Hallway" class="node"><title>v8</title>
<ellipse fill="none" stroke="black" cx="587.5" cy="-11" rx="32.5" ry="11"/>
<text text-anchor="middle" x="587.5" y="-8.8" font-family="sans-serif" font-size="9.00">Hallway</text>
</g>
<!-- v3&#45;&gt;v8 -->
<g id="edge6" class="edge"><title>v3&#45;&gt;v8</title>
<path fill="none" stroke="black" d="M406.769,-174.753C438.617,-146.072 535.804,-58.5531 572.9,-25.1475"/>
<polygon fill="black" stroke="black" points="576.71,-21.7169 574.5,-26.7348 574.852,-23.3899 572.994,-25.0629 572.994,-25.0629 572.994,-25.0629 574.852,-23.3899 571.488,-23.3909 576.71,-21.7169 576.71,-21.7169"/>
</g>
<!-- v9 -->
<g id="v9_Room" class="node"><title>v9</title>
<ellipse fill="none" stroke="black" cx="269.5" cy="-69" rx="21.5" ry="11"/>
<text text-anchor="middle" x="269.5" y="-66.8" font-family="sans-serif" font-size="9.00">Room</text>
</g>
<!-- v3&#45;&gt;v9 -->
<g id="edge7" class="edge"><title>v3&#45;&gt;v9</title>
<path fill="none" stroke="black" d="M386.107,-174.671C363.277,-154.177 308.75,-105.233 283.178,-82.278"/>
<polygon fill="black" stroke="black" points="279.332,-78.8254 284.556,-80.491 281.192,-80.4954 283.053,-82.1654 283.053,-82.1654 283.053,-82.1654 281.192,-80.4954 281.55,-83.8398 279.332,-78.8254 279.332,-78.8254"/>
</g>
<!-- v13 -->
<g id="v13_Room" class="node"><title>v13</title>
<ellipse fill="none" stroke="black" cx="396.5" cy="-69" rx="21.5" ry="11"/>
<text text-anchor="middle" x="396.5" y="-66.8" font-family="sans-serif" font-size="9.00">Room</text>
</g>
<!-- v3&#45;&gt;v13 -->
<g id="edge8" class="edge"><title>v3&#45;&gt;v13</title>
<path fill="none" stroke="black" d="M396.5,-173.883C396.5,-153.906 396.5,-109.276 396.5,-85.5402"/>
<polygon fill="black" stroke="black" points="396.5,-80.2579 398.75,-85.2579 396.5,-82.7579 396.5,-85.2579 396.5,-85.2579 396.5,-85.2579 396.5,-82.7579 394.25,-85.258 396.5,-80.2579 396.5,-80.2579"/>
</g>
<!-- v5 -->
<g id="v5_Visitor" class="node"><title>v5</title>
<ellipse fill="none" stroke="black" cx="667.5" cy="-69" rx="32.5" ry="11"/>
<text text-anchor="middle" x="667.5" y="-66.8" font-family="sans-serif" font-size="9.00">Visitor</text>
</g>
<!-- v4&#45;&gt;v5 -->
<g id="edge9" class="edge"><title>v4&#45;&gt;v5</title>
<path fill="none" stroke="black" d="M667.5,-115.988C667.5,-107.494 667.5,-95.1697 667.5,-85.4169"/>
<polygon fill="black" stroke="black" points="667.5,-80.3039 669.75,-85.3038 667.5,-82.8039 667.5,-85.3039 667.5,-85.3039 667.5,-85.3039 667.5,-82.8039 665.25,-85.3039 667.5,-80.3039 667.5,-80.3039"/>
</g>
<!-- v4&#45;&gt;v7 -->
<g id="edge10" class="edge"><title>v4&#45;&gt;v7</title>
<path fill="none" stroke="black" d="M687.84,-123.175C711.627,-118.663 749.974,-107.354 767.5,-80 777.795,-63.9325 771.325,-41.403 765.019,-26.7553"/>
<polygon fill="black" stroke="black" points="762.911,-22.1107 767.026,-25.7338 763.944,-24.3872 764.977,-26.6637 764.977,-26.6637 764.977,-26.6637 763.944,-24.3872 762.928,-27.5936 762.911,-22.1107 762.911,-22.1107"/>
</g>
<!-- v4&#45;&gt;v8 -->
<g id="edge23" class="edge"><title>v4&#45;&gt;v8</title>
<path fill="none" stroke="green" d="M658.419,-116.967C649.683,-108.022 636.381,-93.7138 626.5,-80 612.498,-60.5664 599.315,-35.7134 592.443,-22.0781"/>
</g>
<!-- v5&#45;&gt;v6 -->
<g id="edge11" class="edge"><title>v5&#45;&gt;v6</title>
<path fill="none" stroke="black" d="M667.5,-57.9883C667.5,-49.4941 667.5,-37.1697 667.5,-27.4169"/>
<polygon fill="black" stroke="black" points="667.5,-22.3039 669.75,-27.3038 667.5,-24.8039 667.5,-27.3039 667.5,-27.3039 667.5,-27.3039 667.5,-24.8039 665.25,-27.3039 667.5,-22.3039 667.5,-22.3039"/>
</g>
<!-- v8&#45;&gt;v9 -->
<g id="edge25" class="edge"><title>v8&#45;&gt;v9</title>
<path fill="none" stroke="green" d="M562.689,-18.2053C557.054,-19.5315 551.084,-20.8714 545.5,-22 450.271,-41.249 335.38,-58.4976 289.672,-65.1228"/>
</g>
<!-- v8&#45;&gt;v13 -->
<g id="edge26" class="edge"><title>v8&#45;&gt;v13</title>
<path fill="none" stroke="green" d="M564.444,-18.7599C525.926,-30.053 449.293,-52.5214 414.469,-62.7317"/>
</g>
<!-- v9&#45;&gt;v10 -->
<g id="edge12" class="edge"><title>v9&#45;&gt;v10</title>
<path fill="none" stroke="black" d="M258.875,-59.25C247.733,-50.0744 230.1,-35.5532 217.321,-25.0291"/>
<polygon fill="black" stroke="black" points="213.19,-21.6267 218.48,-23.0685 215.119,-23.216 217.049,-24.8053 217.049,-24.8053 217.049,-24.8053 215.119,-23.216 215.619,-26.5422 213.19,-21.6267 213.19,-21.6267"/>
</g>
<!-- v9&#45;&gt;v11 -->
<g id="edge13" class="edge"><title>v9&#45;&gt;v11</title>
<path fill="none" stroke="black" d="M273.433,-57.9883C276.843,-49.3083 281.824,-36.6286 285.693,-26.7806"/>
<polygon fill="black" stroke="black" points="287.601,-21.925 287.867,-27.4015 286.687,-24.2519 285.773,-26.5788 285.773,-26.5788 285.773,-26.5788 286.687,-24.2519 283.678,-25.756 287.601,-21.925 287.601,-21.925"/>
</g>
<!-- v9&#45;&gt;v12 -->
<g id="edge14" class="edge"><title>v9&#45;&gt;v12</title>
<path fill="none" stroke="black" d="M252.365,-62.3222C223.412,-52.7282 164.515,-33.2121 129.181,-21.5036"/>
<polygon fill="black" stroke="black" points="124.145,-19.8349 129.599,-19.2719 126.518,-20.6213 128.891,-21.4077 128.891,-21.4077 128.891,-21.4077 126.518,-20.6213 128.183,-23.5435 124.145,-19.8349 124.145,-19.8349"/>
</g>
<!-- v13&#45;&gt;v14 -->
<g id="edge15" class="edge"><title>v13&#45;&gt;v14</title>
<path fill="none" stroke="black" d="M393.818,-57.9883C391.522,-49.4154 388.181,-36.9411 385.557,-27.1466"/>
<polygon fill="black" stroke="black" points="384.26,-22.3039 387.727,-26.5514 384.907,-24.7187 385.554,-27.1336 385.554,-27.1336 385.554,-27.1336 384.907,-24.7187 383.38,-27.7158 384.26,-22.3039 384.26,-22.3039"/>
</g>
<!-- v13&#45;&gt;v15 -->
<g id="edge16" class="edge"><title>v13&#45;&gt;v15</title>
<path fill="none" stroke="black" d="M409.825,-59.9766C425.382,-50.6087 451.277,-35.0161 469.307,-24.1591"/>
<polygon fill="black" stroke="black" points="473.711,-21.5076 470.588,-26.0144 471.569,-22.7972 469.427,-24.0869 469.427,-24.0869 469.427,-24.0869 471.569,-22.7972 468.267,-22.1593 473.711,-21.5076 473.711,-21.5076"/>
</g>
</g>
</svg>
