<?xml version="1.0" encoding="UTF-8" standalone="no"?>
<?xml-stylesheet href="style.css" type="text/css"?>
<!DOCTYPE svg PUBLIC "-//W3C//DTD SVG 1.1//EN"
 "http://www.w3.org/Graphics/SVG/1.1/DTD/svg11.dtd">
<!-- Generated by graphviz version 2.38.0 (20140413.2041)
 -->
<!-- Title: 14.svg Pages: 1 -->
<svg width="849pt" height="374pt"
 viewBox="0.00 0.00 849.00 374.00" xmlns="http://www.w3.org/2000/svg" xmlns:xlink="http://www.w3.org/1999/xlink">
<g id="graph0" class="graph" transform="scale(1 1) rotate(0) translate(4 370)">
<title>14.svg</title>
<polygon fill="white" stroke="none" points="-4,4 -4,-370 845,-370 845,4 -4,4"/>
<!-- r0 -->
<g id="node1" class="node"><title>r0</title>
<polygon fill="none" stroke="black" stroke-dasharray="5,2" points="611,-366 588,-366 588,-348 611,-348 611,-366"/>
<text text-anchor="middle" x="599.5" y="-354.8" font-family="serif" font-size="9.00">0</text>
</g>
<!-- v0 -->
<g id="v0_Building" class="node"><title>v0</title>
<ellipse fill="none" stroke="black" cx="599.5" cy="-301" rx="36" ry="11"/>
<text text-anchor="middle" x="599.5" y="-298.8" font-family="sans-serif" font-size="9.00">Building</text>
</g>
<!-- r0&#45;&gt;v0 -->
<g id="edge1" class="edge"><title>r0&#45;&gt;v0</title>
<path fill="none" stroke="black" d="M599.5,-347.562C599.5,-339.453 599.5,-327.014 599.5,-317.181"/>
<polygon fill="black" stroke="black" points="599.5,-312.03 601.75,-317.03 599.5,-314.53 599.5,-317.03 599.5,-317.03 599.5,-317.03 599.5,-314.53 597.25,-317.03 599.5,-312.03 599.5,-312.03"/>
</g>
<!-- e7 -->
<g id="node2" class="node"><title>e7</title>
</g>
<!-- v8 -->
<g id="v8_SmartLight" class="node"><title>v8</title>
<ellipse fill="none" stroke="black" cx="160.5" cy="-11" rx="43" ry="11"/>
<text text-anchor="middle" x="160.5" y="-8.8" font-family="sans-serif" font-size="9.00">SmartLight</text>
</g>
<!-- e7&#45;&gt;v8 -->
<g id="edge25" class="edge"><title>e7&#45;&gt;v8</title>
<path fill="none" stroke="green" d="M160.5,-64.1674C160.5,-55.5862 160.5,-34.5957 160.5,-22.0117"/>
<polygon fill="green" stroke="green" points="164,-67.3001 157,-67.2999 157,-65.8999 164,-65.9001 164,-67.3001"/>
<polyline fill="none" stroke="green" points="160.5,-68 160.5,-64.5 "/>
</g>
<!-- v1 -->
<g id="v1_Floor" class="node"><title>v1</title>
<ellipse fill="none" stroke="black" cx="520.5" cy="-243" rx="25" ry="11"/>
<text text-anchor="middle" x="520.5" y="-240.8" font-family="sans-serif" font-size="9.00">Floor</text>
</g>
<!-- v0&#45;&gt;v1 -->
<g id="edge2" class="edge"><title>v0&#45;&gt;v1</title>
<path fill="none" stroke="black" d="M586.099,-290.5C572.535,-280.885 551.538,-266.002 536.968,-255.674"/>
<polygon fill="black" stroke="black" points="532.668,-252.625 538.048,-253.681 534.707,-254.071 536.747,-255.517 536.747,-255.517 536.747,-255.517 534.707,-254.071 535.446,-257.353 532.668,-252.625 532.668,-252.625"/>
</g>
<!-- v2 -->
<g id="v2_InstallationBus" class="node"><title>v2</title>
<ellipse fill="none" stroke="black" cx="728.5" cy="-69" rx="61" ry="11"/>
<text text-anchor="middle" x="728.5" y="-66.8" font-family="sans-serif" font-size="9.00">InstallationBus</text>
</g>
<!-- v0&#45;&gt;v2 -->
<g id="edge3" class="edge"><title>v0&#45;&gt;v2</title>
<path fill="none" stroke="black" d="M605.043,-290.117C625.382,-253.854 695.982,-127.979 720.24,-84.7276"/>
<polygon fill="black" stroke="black" points="722.832,-80.105 722.349,-85.5666 721.609,-82.2855 720.386,-84.4659 720.386,-84.4659 720.386,-84.4659 721.609,-82.2855 718.424,-83.3653 722.832,-80.105 722.832,-80.105"/>
</g>
<!-- v4 -->
<g id="v4_Room" class="node"><title>v4</title>
<ellipse fill="none" stroke="black" cx="250.5" cy="-185" rx="21.5" ry="11"/>
<text text-anchor="middle" x="250.5" y="-182.8" font-family="sans-serif" font-size="9.00">Room</text>
</g>
<!-- v1&#45;&gt;v4 -->
<g id="edge4" class="edge"><title>v1&#45;&gt;v4</title>
<path fill="none" stroke="black" d="M498.405,-237.417C448.482,-227.063 327.271,-201.923 275.076,-191.097"/>
<polygon fill="black" stroke="black" points="269.948,-190.034 275.301,-188.846 272.396,-190.541 274.844,-191.049 274.844,-191.049 274.844,-191.049 272.396,-190.541 274.387,-193.252 269.948,-190.034 269.948,-190.034"/>
</g>
<!-- v9 -->
<g id="v9_Hallway" class="node"><title>v9</title>
<ellipse fill="none" stroke="black" cx="426.5" cy="-11" rx="32.5" ry="11"/>
<text text-anchor="middle" x="426.5" y="-8.8" font-family="sans-serif" font-size="9.00">Hallway</text>
</g>
<!-- v1&#45;&gt;v9 -->
<g id="edge5" class="edge"><title>v1&#45;&gt;v9</title>
<path fill="none" stroke="black" d="M516.461,-232.117C501.67,-195.928 450.404,-70.489 432.627,-26.9918"/>
<polygon fill="black" stroke="black" points="430.63,-22.105 434.604,-25.8822 431.576,-24.4192 432.522,-26.7334 432.522,-26.7334 432.522,-26.7334 431.576,-24.4192 430.439,-27.5846 430.63,-22.105 430.63,-22.105"/>
</g>
<!-- v12 -->
<g id="v12_Room" class="node"><title>v12</title>
<ellipse fill="none" stroke="black" cx="520.5" cy="-69" rx="21.5" ry="11"/>
<text text-anchor="middle" x="520.5" y="-66.8" font-family="sans-serif" font-size="9.00">Room</text>
</g>
<!-- v1&#45;&gt;v12 -->
<g id="edge6" class="edge"><title>v1&#45;&gt;v12</title>
<path fill="none" stroke="black" d="M520.5,-231.756C520.5,-202.786 520.5,-120.136 520.5,-85.5335"/>
<polygon fill="black" stroke="black" points="520.5,-80.4081 522.75,-85.408 520.5,-82.9081 520.5,-85.4081 520.5,-85.4081 520.5,-85.4081 520.5,-82.9081 518.25,-85.4081 520.5,-80.4081 520.5,-80.4081"/>
</g>
<!-- v14 -->
<g id="v14_Room" class="node"><title>v14</title>
<ellipse fill="none" stroke="black" cx="624.5" cy="-69" rx="21.5" ry="11"/>
<text text-anchor="middle" x="624.5" y="-66.8" font-family="sans-serif" font-size="9.00">Room</text>
</g>
<!-- v1&#45;&gt;v14 -->
<g id="edge7" class="edge"><title>v1&#45;&gt;v14</title>
<path fill="none" stroke="black" d="M526.389,-232.26C543.837,-203.405 595.313,-118.271 615.874,-84.2667"/>
<polygon fill="black" stroke="black" points="618.675,-79.6335 618.013,-85.0763 617.382,-81.7728 616.088,-83.9121 616.088,-83.9121 616.088,-83.9121 617.382,-81.7728 614.163,-82.7479 618.675,-79.6335 618.675,-79.6335"/>
</g>
<!-- v3 -->
<g id="v3_Data" class="node"><title>v3</title>
<ellipse fill="none" stroke="black" cx="819.5" cy="-11" rx="21.5" ry="11"/>
<text text-anchor="middle" x="819.5" y="-8.8" font-family="sans-serif" font-size="9.00">Data</text>
</g>
<!-- v2&#45;&gt;v3 -->
<g id="edge8" class="edge"><title>v2&#45;&gt;v3</title>
<path fill="none" stroke="black" d="M744.351,-58.2455C760.456,-48.3348 785.339,-33.0224 802.01,-22.7632"/>
<polygon fill="black" stroke="black" points="806.48,-20.0123 803.401,-24.549 804.351,-21.3225 802.222,-22.6328 802.222,-22.6328 802.222,-22.6328 804.351,-21.3225 801.043,-20.7166 806.48,-20.0123 806.48,-20.0123"/>
</g>
<!-- v6 -->
<g id="v6_Laptop" class="node"><title>v6</title>
<ellipse fill="none" stroke="black" cx="32.5" cy="-69" rx="29" ry="11"/>
<text text-anchor="middle" x="32.5" y="-66.8" font-family="sans-serif" font-size="9.00">Laptop</text>
</g>
<!-- v2&#45;&gt;v6 -->
<g id="edge18" class="edge"><title>v2&#45;&gt;v6</title>
<path fill="none" stroke="green" d="M706.083,-79.2643C689.906,-86.0863 667.336,-94.4242 646.5,-98 539.837,-116.306 267.041,-110.122 159.5,-98 122.643,-93.8454 80.8881,-83.1123 55.637,-75.9344"/>
</g>
<!-- v10 -->
<g id="v10_Server" class="node"><title>v10</title>
<ellipse fill="none" stroke="black" cx="250.5" cy="-11" rx="29" ry="11"/>
<text text-anchor="middle" x="250.5" y="-8.8" font-family="sans-serif" font-size="9.00">Server</text>
</g>
<!-- v2&#45;&gt;v10 -->
<g id="edge19" class="edge"><title>v2&#45;&gt;v10</title>
<path fill="none" stroke="green" d="M683.363,-61.5395C674.152,-60.2993 664.52,-59.0586 655.5,-58 492.284,-38.8447 449.159,-51.5407 287.5,-22 282.525,-21.0909 277.243,-19.8403 272.275,-18.531"/>
</g>
<!-- v11 -->
<g id="v11_FireAlarm" class="node"><title>v11</title>
<ellipse fill="none" stroke="black" cx="336.5" cy="-11" rx="39.5" ry="11"/>
<text text-anchor="middle" x="336.5" y="-8.8" font-family="sans-serif" font-size="9.00">FireAlarm</text>
</g>
<!-- v2&#45;&gt;v11 -->
<g id="edge20" class="edge"><title>v2&#45;&gt;v11</title>
<path fill="none" stroke="green" d="M682.553,-61.6769C673.582,-60.4505 664.247,-59.1801 655.5,-58 535.088,-41.7549 504.277,-42.4042 384.5,-22 378.458,-20.9708 372.018,-19.7295 365.882,-18.4768"/>
</g>
<!-- v13 -->
<g id="v13_SmartLight" class="node"><title>v13</title>
<ellipse fill="none" stroke="black" cx="520.5" cy="-11" rx="43" ry="11"/>
<text text-anchor="middle" x="520.5" y="-8.8" font-family="sans-serif" font-size="9.00">SmartLight</text>
</g>
<!-- v2&#45;&gt;v13 -->
<g id="edge21" class="edge"><title>v2&#45;&gt;v13</title>
<path fill="none" stroke="green" d="M696.909,-59.4948C656.451,-48.6022 586.968,-29.8953 548.383,-19.507"/>
</g>
<!-- v15 -->
<g id="v15_SmartLight" class="node"><title>v15</title>
<ellipse fill="none" stroke="black" cx="624.5" cy="-11" rx="43" ry="11"/>
<text text-anchor="middle" x="624.5" y="-8.8" font-family="sans-serif" font-size="9.00">SmartLight</text>
</g>
<!-- v2&#45;&gt;v15 -->
<g id="edge22" class="edge"><title>v2&#45;&gt;v15</title>
<path fill="none" stroke="green" d="M710.385,-58.2455C691.063,-47.8418 660.687,-31.4855 641.717,-21.2708"/>
</g>
<!-- v16 -->
<g id="v16_Workstation" class="node"><title>v16</title>
<ellipse fill="none" stroke="black" cx="732.5" cy="-11" rx="47" ry="11"/>
<text text-anchor="middle" x="732.5" y="-8.8" font-family="sans-serif" font-size="9.00">Workstation</text>
</g>
<!-- v2&#45;&gt;v16 -->
<g id="edge23" class="edge"><title>v2&#45;&gt;v16</title>
<path fill="none" stroke="green" d="M729.215,-57.9883C729.934,-47.9211 731.038,-32.4737 731.764,-22.3039"/>
</g>
<!-- v5 -->
<g id="v5_Visitor" class="node"><title>v5</title>
<ellipse fill="none" stroke="black" cx="32.5" cy="-127" rx="32.5" ry="11"/>
<text text-anchor="middle" x="32.5" y="-124.8" font-family="sans-serif" font-size="9.00">Visitor</text>
</g>
<!-- v4&#45;&gt;v5 -->
<g id="edge9" class="edge"><title>v4&#45;&gt;v5</title>
<path fill="none" stroke="black" d="M231.913,-179.225C194.04,-169.497 107.665,-147.308 62.0225,-135.584"/>
<polygon fill="black" stroke="black" points="56.932,-134.276 62.3346,-133.341 59.3534,-134.898 61.7748,-135.52 61.7748,-135.52 61.7748,-135.52 59.3534,-134.898 61.215,-137.699 56.932,-134.276 56.932,-134.276"/>
</g>
<!-- v4&#45;&gt;v8 -->
<g id="edge10" class="edge"><title>v4&#45;&gt;v8</title>
<path fill="none" stroke="black" d="M233.076,-178.231C213.382,-171.085 181.125,-157.429 158.5,-138 134.551,-117.434 127.06,-110.086 117.5,-80 114.539,-70.6814 113.911,-67.0952 117.5,-58 122.697,-44.8313 133.639,-33.2145 143.184,-24.9493"/>
<polygon fill="black" stroke="black" points="147.169,-21.6175 144.777,-26.551 145.251,-23.2212 143.333,-24.8249 143.333,-24.8249 143.333,-24.8249 145.251,-23.2212 141.89,-23.0988 147.169,-21.6175 147.169,-21.6175"/>
</g>
<!-- v4&#45;&gt;v9 -->
<g id="edge24" class="edge"><title>v4&#45;&gt;v9</title>
<path fill="none" stroke="green" d="M237.89,-175.873C215.242,-160.428 168.374,-124.378 150.5,-80 146.847,-70.9303 144.133,-65.421 150.5,-58 184.757,-18.0695 332.867,-32.1013 384.5,-22 390.091,-20.9063 396.063,-19.5806 401.699,-18.2571"/>
</g>
<!-- v4&#45;&gt;v10 -->
<g id="edge11" class="edge"><title>v4&#45;&gt;v10</title>
<path fill="none" stroke="black" d="M250.5,-173.756C250.5,-144.786 250.5,-62.1364 250.5,-27.5335"/>
<polygon fill="black" stroke="black" points="250.5,-22.4081 252.75,-27.408 250.5,-24.9081 250.5,-27.4081 250.5,-27.4081 250.5,-27.4081 250.5,-24.9081 248.25,-27.4081 250.5,-22.4081 250.5,-22.4081"/>
</g>
<!-- v4&#45;&gt;v11 -->
<g id="edge12" class="edge"><title>v4&#45;&gt;v11</title>
<path fill="none" stroke="black" d="M255.37,-174.26C269.73,-145.54 311.965,-61.0692 329.125,-26.749"/>
<polygon fill="black" stroke="black" points="331.469,-22.0619 331.245,-27.5403 330.351,-24.298 329.233,-26.534 329.233,-26.534 329.233,-26.534 330.351,-24.298 327.22,-25.5278 331.469,-22.0619 331.469,-22.0619"/>
</g>
<!-- v5&#45;&gt;v6 -->
<g id="edge13" class="edge"><title>v5&#45;&gt;v6</title>
<path fill="none" stroke="black" d="M32.5,-115.988C32.5,-107.494 32.5,-95.1697 32.5,-85.4169"/>
<polygon fill="black" stroke="black" points="32.5,-80.3039 34.7501,-85.3038 32.5,-82.8039 32.5001,-85.3039 32.5001,-85.3039 32.5001,-85.3039 32.5,-82.8039 30.2501,-85.3039 32.5,-80.3039 32.5,-80.3039"/>
</g>
<!-- v7 -->
<g id="v7_Data" class="node"><title>v7</title>
<ellipse fill="none" stroke="black" cx="32.5" cy="-11" rx="21.5" ry="11"/>
<text text-anchor="middle" x="32.5" y="-8.8" font-family="sans-serif" font-size="9.00">Data</text>
</g>
<!-- v6&#45;&gt;v7 -->
<g id="edge14" class="edge"><title>v6&#45;&gt;v7</title>
<path fill="none" stroke="black" d="M32.5,-57.9883C32.5,-49.4941 32.5,-37.1697 32.5,-27.4169"/>
<polygon fill="black" stroke="black" points="32.5,-22.3039 34.7501,-27.3038 32.5,-24.8039 32.5001,-27.3039 32.5001,-27.3039 32.5001,-27.3039 32.5,-24.8039 30.2501,-27.3039 32.5,-22.3039 32.5,-22.3039"/>
</g>
<!-- v9&#45;&gt;v12 -->
<g id="edge26" class="edge"><title>v9&#45;&gt;v12</title>
<path fill="none" stroke="green" d="M441.317,-20.827C459.508,-31.6646 490.076,-49.8751 507.43,-60.2134"/>
</g>
<!-- v9&#45;&gt;v14 -->
<g id="edge27" class="edge"><title>v9&#45;&gt;v14</title>
<path fill="none" stroke="green" d="M450.187,-18.6993C490.176,-30.0094 570.231,-52.6512 606.228,-62.832"/>
</g>
<!-- v12&#45;&gt;v13 -->
<g id="edge15" class="edge"><title>v12&#45;&gt;v13</title>
<path fill="none" stroke="black" d="M520.5,-57.9883C520.5,-49.4941 520.5,-37.1697 520.5,-27.4169"/>
<polygon fill="black" stroke="black" points="520.5,-22.3039 522.75,-27.3038 520.5,-24.8039 520.5,-27.3039 520.5,-27.3039 520.5,-27.3039 520.5,-24.8039 518.25,-27.3039 520.5,-22.3039 520.5,-22.3039"/>
</g>
<!-- v14&#45;&gt;v15 -->
<g id="edge16" class="edge"><title>v14&#45;&gt;v15</title>
<path fill="none" stroke="black" d="M624.5,-57.9883C624.5,-49.4941 624.5,-37.1697 624.5,-27.4169"/>
<polygon fill="black" stroke="black" points="624.5,-22.3039 626.75,-27.3038 624.5,-24.8039 624.5,-27.3039 624.5,-27.3039 624.5,-27.3039 624.5,-24.8039 622.25,-27.3039 624.5,-22.3039 624.5,-22.3039"/>
</g>
<!-- v14&#45;&gt;v16 -->
<g id="edge17" class="edge"><title>v14&#45;&gt;v16</title>
<path fill="none" stroke="black" d="M638.619,-60.679C656.692,-51.3076 688.232,-34.9536 709.722,-23.8106"/>
<polygon fill="black" stroke="black" points="714.416,-21.3771 711.013,-25.6762 712.196,-22.5279 709.977,-23.6787 709.977,-23.6787 709.977,-23.6787 712.196,-22.5279 708.941,-21.6813 714.416,-21.3771 714.416,-21.3771"/>
</g>
</g>
</svg>
