<?xml version="1.0" encoding="UTF-8" standalone="no"?>
<?xml-stylesheet href="style.css" type="text/css"?>
<!DOCTYPE svg PUBLIC "-//W3C//DTD SVG 1.1//EN"
 "http://www.w3.org/Graphics/SVG/1.1/DTD/svg11.dtd">
<!-- Generated by graphviz version 2.38.0 (20140413.2041)
 -->
<!-- Title: 2.svg Pages: 1 -->
<svg width="957pt" height="316pt"
 viewBox="0.00 0.00 956.50 316.00" xmlns="http://www.w3.org/2000/svg" xmlns:xlink="http://www.w3.org/1999/xlink">
<g id="graph0" class="graph" transform="scale(1 1) rotate(0) translate(4 312)">
<title>2.svg</title>
<polygon fill="white" stroke="none" points="-4,4 -4,-312 952.5,-312 952.5,4 -4,4"/>
<!-- r0 -->
<g id="node1" class="node"><title>r0</title>
<polygon fill="none" stroke="black" stroke-dasharray="5,2" points="577,-308 554,-308 554,-290 577,-290 577,-308"/>
<text text-anchor="middle" x="565.5" y="-296.8" font-family="serif" font-size="9.00">0</text>
</g>
<!-- v0 -->
<g id="v0_Building" class="node"><title>v0</title>
<ellipse fill="none" stroke="black" cx="565.5" cy="-243" rx="36" ry="11"/>
<text text-anchor="middle" x="565.5" y="-240.8" font-family="sans-serif" font-size="9.00">Building</text>
</g>
<!-- r0&#45;&gt;v0 -->
<g id="edge1" class="edge"><title>r0&#45;&gt;v0</title>
<path fill="none" stroke="black" d="M565.5,-289.562C565.5,-281.453 565.5,-269.014 565.5,-259.181"/>
<polygon fill="black" stroke="black" points="565.5,-254.03 567.75,-259.03 565.5,-256.53 565.5,-259.03 565.5,-259.03 565.5,-259.03 565.5,-256.53 563.25,-259.03 565.5,-254.03 565.5,-254.03"/>
</g>
<!-- e3 -->
<g id="node2" class="node"><title>e3</title>
</g>
<!-- v5 -->
<g id="v5_Laptop" class="node"><title>v5</title>
<ellipse fill="none" stroke="black" cx="182.5" cy="-11" rx="29" ry="11"/>
<text text-anchor="middle" x="182.5" y="-8.8" font-family="sans-serif" font-size="9.00">Laptop</text>
</g>
<!-- e3&#45;&gt;v5 -->
<g id="edge19" class="edge"><title>e3&#45;&gt;v5</title>
<path fill="none" stroke="green" d="M182.5,-64.1674C182.5,-55.5862 182.5,-34.5957 182.5,-22.0117"/>
<polygon fill="green" stroke="green" points="186,-67.3001 179,-67.2999 179,-65.8999 186,-65.9001 186,-67.3001"/>
<polyline fill="none" stroke="green" points="182.5,-68 182.5,-64.5 "/>
</g>
<!-- v1 -->
<g id="v1_Floor" class="node"><title>v1</title>
<ellipse fill="none" stroke="black" cx="488.5" cy="-185" rx="25" ry="11"/>
<text text-anchor="middle" x="488.5" y="-182.8" font-family="sans-serif" font-size="9.00">Floor</text>
</g>
<!-- v0&#45;&gt;v1 -->
<g id="edge2" class="edge"><title>v0&#45;&gt;v1</title>
<path fill="none" stroke="black" d="M552.438,-232.5C539.373,-222.998 519.233,-208.351 505.055,-198.04"/>
<polygon fill="black" stroke="black" points="500.861,-194.99 506.228,-196.111 502.883,-196.46 504.904,-197.93 504.904,-197.93 504.904,-197.93 502.883,-196.46 503.581,-199.75 500.861,-194.99 500.861,-194.99"/>
</g>
<!-- v14 -->
<g id="v14_InstallationBus" class="node"><title>v14</title>
<ellipse fill="none" stroke="black" cx="887.5" cy="-11" rx="61" ry="11"/>
<text text-anchor="middle" x="887.5" y="-8.8" font-family="sans-serif" font-size="9.00">InstallationBus</text>
</g>
<!-- v0&#45;&gt;v14 -->
<g id="edge3" class="edge"><title>v0&#45;&gt;v14</title>
<path fill="none" stroke="black" d="M578.522,-232.699C628.862,-196.741 810.832,-66.7628 869.285,-25.0104"/>
<polygon fill="black" stroke="black" points="873.598,-21.9301 870.837,-26.6672 871.564,-23.3832 869.529,-24.8363 869.529,-24.8363 869.529,-24.8363 871.564,-23.3832 868.221,-23.0054 873.598,-21.9301 873.598,-21.9301"/>
</g>
<!-- v2 -->
<g id="v2_Hallway" class="node"><title>v2</title>
<ellipse fill="none" stroke="black" cx="32.5" cy="-11" rx="32.5" ry="11"/>
<text text-anchor="middle" x="32.5" y="-8.8" font-family="sans-serif" font-size="9.00">Hallway</text>
</g>
<!-- v1&#45;&gt;v2 -->
<g id="edge4" class="edge"><title>v1&#45;&gt;v2</title>
<path fill="none" stroke="black" d="M464.982,-181.145C384.675,-170.973 122.821,-134.188 60.5,-80 44.9191,-66.4525 37.8498,-42.8851 34.7561,-27.3634"/>
<polygon fill="black" stroke="black" points="33.8527,-22.4341 36.9672,-26.9466 34.3034,-24.8932 34.7541,-27.3522 34.7541,-27.3522 34.7541,-27.3522 34.3034,-24.8932 32.5409,-27.7578 33.8527,-22.4341 33.8527,-22.4341"/>
</g>
<!-- v3 -->
<g id="v3_Room" class="node"><title>v3</title>
<ellipse fill="none" stroke="black" cx="317.5" cy="-127" rx="21.5" ry="11"/>
<text text-anchor="middle" x="317.5" y="-124.8" font-family="sans-serif" font-size="9.00">Room</text>
</g>
<!-- v1&#45;&gt;v3 -->
<g id="edge5" class="edge"><title>v1&#45;&gt;v3</title>
<path fill="none" stroke="black" d="M469.547,-177.793C437.72,-167.37 373.7,-146.405 339.776,-135.295"/>
<polygon fill="black" stroke="black" points="334.996,-133.73 340.448,-133.148 337.372,-134.508 339.748,-135.286 339.748,-135.286 339.748,-135.286 337.372,-134.508 339.048,-137.424 334.996,-133.73 334.996,-133.73"/>
</g>
<!-- v8 -->
<g id="v8_Room" class="node"><title>v8</title>
<ellipse fill="none" stroke="black" cx="488.5" cy="-69" rx="21.5" ry="11"/>
<text text-anchor="middle" x="488.5" y="-66.8" font-family="sans-serif" font-size="9.00">Room</text>
</g>
<!-- v1&#45;&gt;v8 -->
<g id="edge6" class="edge"><title>v1&#45;&gt;v8</title>
<path fill="none" stroke="black" d="M488.5,-173.883C488.5,-153.906 488.5,-109.276 488.5,-85.5402"/>
<polygon fill="black" stroke="black" points="488.5,-80.2579 490.75,-85.2579 488.5,-82.7579 488.5,-85.2579 488.5,-85.2579 488.5,-85.2579 488.5,-82.7579 486.25,-85.258 488.5,-80.2579 488.5,-80.2579"/>
</g>
<!-- v10 -->
<g id="v10_Room" class="node"><title>v10</title>
<ellipse fill="none" stroke="black" cx="637.5" cy="-69" rx="21.5" ry="11"/>
<text text-anchor="middle" x="637.5" y="-66.8" font-family="sans-serif" font-size="9.00">Room</text>
</g>
<!-- v1&#45;&gt;v10 -->
<g id="edge7" class="edge"><title>v1&#45;&gt;v10</title>
<path fill="none" stroke="black" d="M500.192,-175.055C526.87,-154.643 592.232,-104.634 622.126,-81.7627"/>
<polygon fill="black" stroke="black" points="626.27,-78.5919 623.666,-83.4171 624.285,-80.111 622.299,-81.6302 622.299,-81.6302 622.299,-81.6302 624.285,-80.111 620.932,-79.8432 626.27,-78.5919 626.27,-78.5919"/>
</g>
<!-- v2&#45;&gt;v3 -->
<g id="edge16" class="edge"><title>v2&#45;&gt;v3</title>
<path fill="none" stroke="green" d="M37.8494,-21.9219C46.5514,-37.0395 65.265,-65.6001 89.5,-80 157.021,-120.119 253.553,-125.829 296.037,-126.257"/>
</g>
<!-- v2&#45;&gt;v8 -->
<g id="edge17" class="edge"><title>v2&#45;&gt;v8</title>
<path fill="none" stroke="green" d="M62.2748,-15.6565C148.209,-26.2099 395.148,-56.5357 468.021,-65.485"/>
</g>
<!-- v2&#45;&gt;v10 -->
<g id="edge18" class="edge"><title>v2&#45;&gt;v10</title>
<path fill="none" stroke="green" d="M63.1339,-14.8355C170.279,-24.7531 526.602,-57.7351 616.675,-66.0724"/>
</g>
<!-- v4 -->
<g id="v4_Visitor" class="node"><title>v4</title>
<ellipse fill="none" stroke="black" cx="131.5" cy="-69" rx="32.5" ry="11"/>
<text text-anchor="middle" x="131.5" y="-66.8" font-family="sans-serif" font-size="9.00">Visitor</text>
</g>
<!-- v3&#45;&gt;v4 -->
<g id="edge8" class="edge"><title>v3&#45;&gt;v4</title>
<path fill="none" stroke="black" d="M299.666,-120.63C267.207,-110.858 198.264,-90.1009 159.489,-78.4267"/>
<polygon fill="black" stroke="black" points="154.454,-76.911 159.891,-76.1981 156.848,-77.6318 159.242,-78.3525 159.242,-78.3525 159.242,-78.3525 156.848,-77.6318 158.593,-80.507 154.454,-76.911 154.454,-76.911"/>
</g>
<!-- v6 -->
<g id="v6_SmartLight" class="node"><title>v6</title>
<ellipse fill="none" stroke="black" cx="272.5" cy="-11" rx="43" ry="11"/>
<text text-anchor="middle" x="272.5" y="-8.8" font-family="sans-serif" font-size="9.00">SmartLight</text>
</g>
<!-- v3&#45;&gt;v6 -->
<g id="edge9" class="edge"><title>v3&#45;&gt;v6</title>
<path fill="none" stroke="black" d="M313.507,-115.883C305.554,-95.7373 287.706,-50.521 278.399,-26.9438"/>
<polygon fill="black" stroke="black" points="276.549,-22.2579 280.478,-26.0826 277.467,-24.5833 278.385,-26.9087 278.385,-26.9087 278.385,-26.9087 277.467,-24.5833 276.292,-27.7349 276.549,-22.2579 276.549,-22.2579"/>
</g>
<!-- v7 -->
<g id="v7_Workstation" class="node"><title>v7</title>
<ellipse fill="none" stroke="black" cx="380.5" cy="-11" rx="47" ry="11"/>
<text text-anchor="middle" x="380.5" y="-8.8" font-family="sans-serif" font-size="9.00">Workstation</text>
</g>
<!-- v3&#45;&gt;v7 -->
<g id="edge10" class="edge"><title>v3&#45;&gt;v7</title>
<path fill="none" stroke="black" d="M322.871,-116.28C333.974,-96.1897 359.5,-49.9992 372.531,-26.4199"/>
<polygon fill="black" stroke="black" points="374.963,-22.0199 374.513,-27.4845 373.753,-24.2081 372.544,-26.3962 372.544,-26.3962 372.544,-26.3962 373.753,-24.2081 370.575,-25.3078 374.963,-22.0199 374.963,-22.0199"/>
</g>
<!-- v4&#45;&gt;v5 -->
<g id="edge11" class="edge"><title>v4&#45;&gt;v5</title>
<path fill="none" stroke="black" d="M140.384,-58.2455C148.647,-49.1716 161.035,-35.5697 170.238,-25.4636"/>
<polygon fill="black" stroke="black" points="173.718,-21.6427 172.015,-26.8544 172.035,-23.491 170.352,-25.3394 170.352,-25.3394 170.352,-25.3394 172.035,-23.491 168.688,-23.8244 173.718,-21.6427 173.718,-21.6427"/>
</g>
<!-- v6&#45;&gt;v14 -->
<g id="edge20" class="edge"><title>v6&#45;&gt;v14</title>
<path fill="none" stroke="green" d="M288.859,-21.2415C300.744,-28.0527 317.486,-36.3871 333.5,-40 436.251,-63.1812 703.755,-58.2236 807.5,-40 827.725,-36.4473 849.572,-28.203 865.317,-21.4092"/>
</g>
<!-- v7&#45;&gt;v14 -->
<g id="edge21" class="edge"><title>v7&#45;&gt;v14</title>
<path fill="none" stroke="green" d="M398.021,-21.2474C410.726,-28.0614 428.58,-36.3967 445.5,-40 524.18,-56.7557 728.269,-53.9176 807.5,-40 827.725,-36.4473 849.572,-28.203 865.317,-21.4092"/>
</g>
<!-- v9 -->
<g id="v9_SmartLight" class="node"><title>v9</title>
<ellipse fill="none" stroke="black" cx="488.5" cy="-11" rx="43" ry="11"/>
<text text-anchor="middle" x="488.5" y="-8.8" font-family="sans-serif" font-size="9.00">SmartLight</text>
</g>
<!-- v8&#45;&gt;v9 -->
<g id="edge12" class="edge"><title>v8&#45;&gt;v9</title>
<path fill="none" stroke="black" d="M488.5,-57.9883C488.5,-49.4941 488.5,-37.1697 488.5,-27.4169"/>
<polygon fill="black" stroke="black" points="488.5,-22.3039 490.75,-27.3038 488.5,-24.8039 488.5,-27.3039 488.5,-27.3039 488.5,-27.3039 488.5,-24.8039 486.25,-27.3039 488.5,-22.3039 488.5,-22.3039"/>
</g>
<!-- v9&#45;&gt;v14 -->
<g id="edge22" class="edge"><title>v9&#45;&gt;v14</title>
<path fill="none" stroke="green" d="M504.859,-21.2415C516.744,-28.0527 533.486,-36.3871 549.5,-40 661.355,-65.2353 694.562,-59.8383 807.5,-40 827.725,-36.4473 849.572,-28.203 865.317,-21.4092"/>
</g>
<!-- v11 -->
<g id="v11_SmartLight" class="node"><title>v11</title>
<ellipse fill="none" stroke="black" cx="592.5" cy="-11" rx="43" ry="11"/>
<text text-anchor="middle" x="592.5" y="-8.8" font-family="sans-serif" font-size="9.00">SmartLight</text>
</g>
<!-- v10&#45;&gt;v11 -->
<g id="edge13" class="edge"><title>v10&#45;&gt;v11</title>
<path fill="none" stroke="black" d="M629.866,-58.5004C622.757,-49.6537 612.065,-36.3472 603.937,-26.2321"/>
<polygon fill="black" stroke="black" points="600.628,-22.1148 605.514,-24.603 602.194,-24.0636 603.76,-26.0124 603.76,-26.0124 603.76,-26.0124 602.194,-24.0636 602.006,-27.4218 600.628,-22.1148 600.628,-22.1148"/>
</g>
<!-- v12 -->
<g id="v12_Server" class="node"><title>v12</title>
<ellipse fill="none" stroke="black" cx="682.5" cy="-11" rx="29" ry="11"/>
<text text-anchor="middle" x="682.5" y="-8.8" font-family="sans-serif" font-size="9.00">Server</text>
</g>
<!-- v10&#45;&gt;v12 -->
<g id="edge14" class="edge"><title>v10&#45;&gt;v12</title>
<path fill="none" stroke="black" d="M645.134,-58.5004C652.33,-49.5445 663.2,-36.018 671.363,-25.859"/>
<polygon fill="black" stroke="black" points="674.678,-21.7345 673.3,-27.0414 673.112,-23.6832 671.546,-25.632 671.546,-25.632 671.546,-25.632 673.112,-23.6832 669.792,-24.2226 674.678,-21.7345 674.678,-21.7345"/>
</g>
<!-- v13 -->
<g id="v13_FireAlarm" class="node"><title>v13</title>
<ellipse fill="none" stroke="black" cx="768.5" cy="-11" rx="39.5" ry="11"/>
<text text-anchor="middle" x="768.5" y="-8.8" font-family="sans-serif" font-size="9.00">FireAlarm</text>
</g>
<!-- v10&#45;&gt;v13 -->
<g id="edge15" class="edge"><title>v10&#45;&gt;v13</title>
<path fill="none" stroke="black" d="M653.042,-61.3562C675.373,-51.81 716.778,-34.11 743.46,-22.7043"/>
<polygon fill="black" stroke="black" points="748.262,-20.6512 744.549,-24.6855 745.964,-21.6339 743.665,-22.6166 743.665,-22.6166 743.665,-22.6166 745.964,-21.6339 742.78,-20.5477 748.262,-20.6512 748.262,-20.6512"/>
</g>
<!-- v11&#45;&gt;v14 -->
<g id="edge23" class="edge"><title>v11&#45;&gt;v14</title>
<path fill="none" stroke="green" d="M608.859,-21.2415C620.744,-28.0527 637.486,-36.3871 653.5,-40 720.266,-55.0629 740.088,-51.8415 807.5,-40 827.725,-36.4473 849.572,-28.203 865.317,-21.4092"/>
</g>
<!-- v12&#45;&gt;v14 -->
<g id="edge24" class="edge"><title>v12&#45;&gt;v14</title>
<path fill="none" stroke="green" d="M694.454,-21.2073C703.235,-28.0024 715.802,-36.3316 728.5,-40 762.232,-49.7453 772.918,-46.0745 807.5,-40 827.725,-36.4473 849.572,-28.203 865.317,-21.4092"/>
</g>
<!-- v13&#45;&gt;v14 -->
<g id="edge25" class="edge"><title>v13&#45;&gt;v14</title>
<path fill="none" stroke="green" d="M808.012,-11C814.118,-11 820.225,-11 826.331,-11"/>
</g>
</g>
</svg>
