<?xml version="1.0" encoding="UTF-8" standalone="no"?>
<?xml-stylesheet href="style.css" type="text/css"?>
<!DOCTYPE svg PUBLIC "-//W3C//DTD SVG 1.1//EN"
 "http://www.w3.org/Graphics/SVG/1.1/DTD/svg11.dtd">
<!-- Generated by graphviz version 2.38.0 (20140413.2041)
 -->
<!-- Title: 0.svg Pages: 1 -->
<svg width="1617pt" height="374pt"
 viewBox="0.00 0.00 1616.50 374.00" xmlns="http://www.w3.org/2000/svg" xmlns:xlink="http://www.w3.org/1999/xlink">
<g id="graph0" class="graph" transform="scale(1 1) rotate(0) translate(4 370)">
<title>0.svg</title>
<polygon fill="white" stroke="none" points="-4,4 -4,-370 1612.5,-370 1612.5,4 -4,4"/>
<!-- r0 -->
<g id="node1" class="node"><title>r0</title>
<polygon fill="none" stroke="black" stroke-dasharray="5,2" points="560.5,-366 537.5,-366 537.5,-348 560.5,-348 560.5,-366"/>
<text text-anchor="middle" x="549" y="-354.8" font-family="serif" font-size="9.00">0</text>
</g>
<!-- v0 -->
<g id="v0_Building" class="node"><title>v0</title>
<ellipse fill="none" stroke="black" cx="549" cy="-301" rx="36" ry="11"/>
<text text-anchor="middle" x="549" y="-298.8" font-family="sans-serif" font-size="9.00">Building</text>
</g>
<!-- r0&#45;&gt;v0 -->
<g id="edge1" class="edge"><title>r0&#45;&gt;v0</title>
<path fill="none" stroke="black" d="M549,-347.562C549,-339.453 549,-327.014 549,-317.181"/>
<polygon fill="black" stroke="black" points="549,-312.03 551.25,-317.03 549,-314.53 549,-317.03 549,-317.03 549,-317.03 549,-314.53 546.75,-317.03 549,-312.03 549,-312.03"/>
</g>
<!-- r1 -->
<g id="node2" class="node"><title>r1</title>
<polygon fill="none" stroke="black" stroke-dasharray="5,2" points="1203.5,-366 1180.5,-366 1180.5,-348 1203.5,-348 1203.5,-366"/>
<text text-anchor="middle" x="1192" y="-354.8" font-family="serif" font-size="9.00">1</text>
</g>
<!-- v16 -->
<g id="v16_RulesKeywords" class="node"><title>v16</title>
<ellipse fill="none" stroke="black" cx="1192" cy="-69" rx="54" ry="11"/>
<text text-anchor="middle" x="1192" y="-66.8" font-family="sans-serif" font-size="9.00">RulesKeywords</text>
</g>
<!-- r1&#45;&gt;v16 -->
<g id="edge2" class="edge"><title>r1&#45;&gt;v16</title>
<path fill="none" stroke="black" d="M1192,-347.849C1192,-329.373 1192,-282.889 1192,-244 1192,-244 1192,-244 1192,-184 1192,-148.604 1192,-107.026 1192,-85.1783"/>
<polygon fill="black" stroke="black" points="1192,-80.0648 1194.25,-85.0648 1192,-82.5648 1192,-85.0648 1192,-85.0648 1192,-85.0648 1192,-82.5648 1189.75,-85.0648 1192,-80.0648 1192,-80.0648"/>
</g>
<!-- e9 -->
<g id="node3" class="node"><title>e9</title>
</g>
<!-- v13 -->
<g id="v13_Laptop" class="node"><title>v13</title>
<ellipse fill="none" stroke="black" cx="619" cy="-69" rx="29" ry="11"/>
<text text-anchor="middle" x="619" y="-66.8" font-family="sans-serif" font-size="9.00">Laptop</text>
</g>
<!-- e9&#45;&gt;v13 -->
<g id="edge34" class="edge"><title>e9&#45;&gt;v13</title>
<path fill="none" stroke="green" d="M619,-122.167C619,-113.586 619,-92.5957 619,-80.0117"/>
<polygon fill="green" stroke="green" points="622.5,-125.3 615.5,-125.3 615.5,-123.9 622.5,-123.9 622.5,-125.3"/>
<polyline fill="none" stroke="green" points="619,-126 619,-122.5 "/>
</g>
<!-- v1 -->
<g id="v1_Floor" class="node"><title>v1</title>
<ellipse fill="none" stroke="black" cx="393" cy="-243" rx="25" ry="11"/>
<text text-anchor="middle" x="393" y="-240.8" font-family="sans-serif" font-size="9.00">Floor</text>
</g>
<!-- v0&#45;&gt;v1 -->
<g id="edge3" class="edge"><title>v0&#45;&gt;v1</title>
<path fill="none" stroke="black" d="M527.309,-292.213C498.185,-281.759 446.634,-263.253 416.577,-252.464"/>
<polygon fill="black" stroke="black" points="411.585,-250.672 417.051,-250.243 413.938,-251.516 416.291,-252.361 416.291,-252.361 416.291,-252.361 413.938,-251.516 415.531,-254.479 411.585,-250.672 411.585,-250.672"/>
</g>
<!-- v15 -->
<g id="v15_InstallationBus" class="node"><title>v15</title>
<ellipse fill="none" stroke="black" cx="734" cy="-11" rx="61" ry="11"/>
<text text-anchor="middle" x="734" y="-8.8" font-family="sans-serif" font-size="9.00">InstallationBus</text>
</g>
<!-- v0&#45;&gt;v15 -->
<g id="edge4" class="edge"><title>v0&#45;&gt;v15</title>
<path fill="none" stroke="black" d="M575.817,-293.591C620.42,-281.153 705,-249.231 705,-186 705,-186 705,-186 705,-126 705,-89.5108 719.127,-48.4234 727.661,-26.9317"/>
<polygon fill="black" stroke="black" points="729.596,-22.1531 729.805,-27.632 728.657,-24.4704 727.719,-26.7877 727.719,-26.7877 727.719,-26.7877 728.657,-24.4704 725.634,-25.9434 729.596,-22.1531 729.596,-22.1531"/>
</g>
<!-- v2 -->
<g id="v2_Room" class="node"><title>v2</title>
<ellipse fill="none" stroke="black" cx="80" cy="-69" rx="21.5" ry="11"/>
<text text-anchor="middle" x="80" y="-66.8" font-family="sans-serif" font-size="9.00">Room</text>
</g>
<!-- v1&#45;&gt;v2 -->
<g id="edge5" class="edge"><title>v1&#45;&gt;v2</title>
<path fill="none" stroke="black" d="M378.323,-233.935C326.951,-205.705 155.272,-111.364 98.4438,-80.1353"/>
<polygon fill="black" stroke="black" points="93.9286,-77.6541 99.3942,-78.0902 96.1196,-78.8581 98.3106,-80.0621 98.3106,-80.0621 98.3106,-80.0621 96.1196,-78.8581 97.227,-82.034 93.9286,-77.6541 93.9286,-77.6541"/>
</g>
<!-- v4 -->
<g id="v4_Room" class="node"><title>v4</title>
<ellipse fill="none" stroke="black" cx="261" cy="-69" rx="21.5" ry="11"/>
<text text-anchor="middle" x="261" y="-66.8" font-family="sans-serif" font-size="9.00">Room</text>
</g>
<!-- v1&#45;&gt;v4 -->
<g id="edge6" class="edge"><title>v1&#45;&gt;v4</title>
<path fill="none" stroke="black" d="M385.525,-232.26C363.29,-203.287 297.509,-117.572 271.63,-83.8512"/>
<polygon fill="black" stroke="black" points="268.393,-79.6335 273.222,-82.2302 269.915,-81.6167 271.437,-83.6 271.437,-83.6 271.437,-83.6 269.915,-81.6167 269.652,-84.9699 268.393,-79.6335 268.393,-79.6335"/>
</g>
<!-- v8 -->
<g id="v8_Room" class="node"><title>v8</title>
<ellipse fill="none" stroke="black" cx="410" cy="-69" rx="21.5" ry="11"/>
<text text-anchor="middle" x="410" y="-66.8" font-family="sans-serif" font-size="9.00">Room</text>
</g>
<!-- v1&#45;&gt;v8 -->
<g id="edge7" class="edge"><title>v1&#45;&gt;v8</title>
<path fill="none" stroke="black" d="M394.013,-231.756C396.876,-202.786 405.045,-120.136 408.465,-85.5335"/>
<polygon fill="black" stroke="black" points="408.971,-80.4081 410.719,-85.6052 408.725,-82.896 408.479,-85.3838 408.479,-85.3838 408.479,-85.3838 408.725,-82.896 406.24,-85.1625 408.971,-80.4081 408.971,-80.4081"/>
</g>
<!-- v11 -->
<g id="v11_Hallway" class="node"><title>v11</title>
<ellipse fill="none" stroke="black" cx="461" cy="-185" rx="32.5" ry="11"/>
<text text-anchor="middle" x="461" y="-182.8" font-family="sans-serif" font-size="9.00">Hallway</text>
</g>
<!-- v1&#45;&gt;v11 -->
<g id="edge8" class="edge"><title>v1&#45;&gt;v11</title>
<path fill="none" stroke="black" d="M403.925,-233.003C415.124,-223.78 432.645,-209.351 445.322,-198.911"/>
<polygon fill="black" stroke="black" points="449.419,-195.537 446.99,-200.453 447.489,-197.127 445.559,-198.716 445.559,-198.716 445.559,-198.716 447.489,-197.127 444.129,-196.979 449.419,-195.537 449.419,-195.537"/>
</g>
<!-- v3 -->
<g id="v3_SmartLight" class="node"><title>v3</title>
<ellipse fill="none" stroke="black" cx="43" cy="-11" rx="43" ry="11"/>
<text text-anchor="middle" x="43" y="-8.8" font-family="sans-serif" font-size="9.00">SmartLight</text>
</g>
<!-- v2&#45;&gt;v3 -->
<g id="edge9" class="edge"><title>v2&#45;&gt;v3</title>
<path fill="none" stroke="black" d="M73.5551,-58.2455C67.7378,-49.4409 59.1036,-36.373 52.4961,-26.3724"/>
<polygon fill="black" stroke="black" points="49.6202,-22.0198 54.2538,-24.9511 50.9984,-24.1056 52.3765,-26.1914 52.3765,-26.1914 52.3765,-26.1914 50.9984,-24.1056 50.4993,-27.4318 49.6202,-22.0198 49.6202,-22.0198"/>
</g>
<!-- v2&#45;&gt;v11 -->
<g id="edge25" class="edge"><title>v2&#45;&gt;v11</title>
<path fill="none" stroke="green" d="M97.9652,-75.3754C160.463,-94.0755 368.362,-156.282 438.025,-177.126"/>
</g>
<!-- v3&#45;&gt;v15 -->
<g id="edge26" class="edge"><title>v3&#45;&gt;v15</title>
<path fill="none" stroke="green" d="M59.3593,-21.2415C71.2438,-28.0527 87.9859,-36.3871 104,-40 163.721,-53.4735 594.723,-50.714 655,-40 674.995,-36.446 696.567,-28.2018 712.109,-21.4084"/>
</g>
<!-- v5 -->
<g id="v5_SmartLight" class="node"><title>v5</title>
<ellipse fill="none" stroke="black" cx="147" cy="-11" rx="43" ry="11"/>
<text text-anchor="middle" x="147" y="-8.8" font-family="sans-serif" font-size="9.00">SmartLight</text>
</g>
<!-- v4&#45;&gt;v5 -->
<g id="edge10" class="edge"><title>v4&#45;&gt;v5</title>
<path fill="none" stroke="black" d="M246.096,-60.679C226.714,-51.1575 192.657,-34.428 169.961,-23.2793"/>
<polygon fill="black" stroke="black" points="165.3,-20.9896 170.78,-21.1747 167.544,-22.0919 169.788,-23.1942 169.788,-23.1942 169.788,-23.1942 167.544,-22.0919 168.796,-25.2137 165.3,-20.9896 165.3,-20.9896"/>
</g>
<!-- v6 -->
<g id="v6_HVAC" class="node"><title>v6</title>
<ellipse fill="none" stroke="black" cx="230" cy="-11" rx="21.5" ry="11"/>
<text text-anchor="middle" x="230" y="-8.8" font-family="sans-serif" font-size="9.00">HVAC</text>
</g>
<!-- v4&#45;&gt;v6 -->
<g id="edge11" class="edge"><title>v4&#45;&gt;v6</title>
<path fill="none" stroke="black" d="M255.6,-58.2455C250.77,-49.5202 243.622,-36.6082 238.106,-26.6435"/>
<polygon fill="black" stroke="black" points="235.547,-22.0198 239.937,-25.3045 236.757,-24.207 237.968,-26.3942 237.968,-26.3942 237.968,-26.3942 236.757,-24.207 236,-27.484 235.547,-22.0198 235.547,-22.0198"/>
</g>
<!-- v7 -->
<g id="v7_FireAlarm" class="node"><title>v7</title>
<ellipse fill="none" stroke="black" cx="309" cy="-11" rx="39.5" ry="11"/>
<text text-anchor="middle" x="309" y="-8.8" font-family="sans-serif" font-size="9.00">FireAlarm</text>
</g>
<!-- v4&#45;&gt;v7 -->
<g id="edge12" class="edge"><title>v4&#45;&gt;v7</title>
<path fill="none" stroke="black" d="M268.926,-58.7527C276.637,-49.7573 288.443,-35.9828 297.247,-25.7121"/>
<polygon fill="black" stroke="black" points="300.577,-21.8266 299.032,-27.0872 298.95,-23.7247 297.323,-25.6229 297.323,-25.6229 297.323,-25.6229 298.95,-23.7247 295.615,-24.1586 300.577,-21.8266 300.577,-21.8266"/>
</g>
<!-- v4&#45;&gt;v11 -->
<g id="edge27" class="edge"><title>v4&#45;&gt;v11</title>
<path fill="none" stroke="green" d="M281.53,-72.4396C324.558,-77.9655 422.11,-92.79 445,-116 460.329,-131.543 462.012,-158.847 461.66,-173.689"/>
</g>
<!-- v5&#45;&gt;v15 -->
<g id="edge28" class="edge"><title>v5&#45;&gt;v15</title>
<path fill="none" stroke="green" d="M163.359,-21.2415C175.244,-28.0527 191.986,-36.3871 208,-40 304.898,-61.8608 557.2,-57.3836 655,-40 674.995,-36.446 696.567,-28.2018 712.109,-21.4084"/>
</g>
<!-- v6&#45;&gt;v15 -->
<g id="edge29" class="edge"><title>v6&#45;&gt;v15</title>
<path fill="none" stroke="green" d="M239.547,-20.8905C246.87,-27.7237 257.626,-36.2346 269,-40 350.432,-66.9578 570.546,-55.0113 655,-40 674.995,-36.446 696.567,-28.2018 712.109,-21.4084"/>
</g>
<!-- v7&#45;&gt;v15 -->
<g id="edge30" class="edge"><title>v7&#45;&gt;v15</title>
<path fill="none" stroke="green" d="M324.485,-21.2364C335.752,-28.0452 351.66,-36.3788 367,-40 429.288,-54.7042 591.988,-51.2002 655,-40 674.995,-36.446 696.567,-28.2018 712.109,-21.4084"/>
</g>
<!-- v9 -->
<g id="v9_SmartLight" class="node"><title>v9</title>
<ellipse fill="none" stroke="black" cx="410" cy="-11" rx="43" ry="11"/>
<text text-anchor="middle" x="410" y="-8.8" font-family="sans-serif" font-size="9.00">SmartLight</text>
</g>
<!-- v8&#45;&gt;v9 -->
<g id="edge13" class="edge"><title>v8&#45;&gt;v9</title>
<path fill="none" stroke="black" d="M410,-57.9883C410,-49.4941 410,-37.1697 410,-27.4169"/>
<polygon fill="black" stroke="black" points="410,-22.3039 412.25,-27.3038 410,-24.8039 410,-27.3039 410,-27.3039 410,-27.3039 410,-24.8039 407.75,-27.3039 410,-22.3039 410,-22.3039"/>
</g>
<!-- v10 -->
<g id="v10_Workstation" class="node"><title>v10</title>
<ellipse fill="none" stroke="black" cx="518" cy="-11" rx="47" ry="11"/>
<text text-anchor="middle" x="518" y="-8.8" font-family="sans-serif" font-size="9.00">Workstation</text>
</g>
<!-- v8&#45;&gt;v10 -->
<g id="edge14" class="edge"><title>v8&#45;&gt;v10</title>
<path fill="none" stroke="black" d="M424.119,-60.679C442.192,-51.3076 473.732,-34.9536 495.222,-23.8106"/>
<polygon fill="black" stroke="black" points="499.916,-21.3771 496.513,-25.6762 497.696,-22.5279 495.477,-23.6787 495.477,-23.6787 495.477,-23.6787 497.696,-22.5279 494.441,-21.6813 499.916,-21.3771 499.916,-21.3771"/>
</g>
<!-- v8&#45;&gt;v11 -->
<g id="edge31" class="edge"><title>v8&#45;&gt;v11</title>
<path fill="none" stroke="green" d="M427.557,-75.4575C445.156,-81.9759 471.275,-94.753 483,-116 493.671,-135.337 478.867,-160.659 468.854,-174.294"/>
</g>
<!-- v9&#45;&gt;v15 -->
<g id="edge32" class="edge"><title>v9&#45;&gt;v15</title>
<path fill="none" stroke="green" d="M426.359,-21.2415C438.244,-28.0527 454.986,-36.3871 471,-40 550.773,-57.9972 574.484,-54.3113 655,-40 674.995,-36.446 696.567,-28.2018 712.109,-21.4084"/>
</g>
<!-- v10&#45;&gt;v15 -->
<g id="edge33" class="edge"><title>v10&#45;&gt;v15</title>
<path fill="none" stroke="green" d="M535.521,-21.2474C548.226,-28.0614 566.08,-36.3967 583,-40 614.298,-46.6653 623.494,-45.6001 655,-40 674.995,-36.446 696.567,-28.2018 712.109,-21.4084"/>
</g>
<!-- v12 -->
<g id="v12_Visitor" class="node"><title>v12</title>
<ellipse fill="none" stroke="black" cx="568" cy="-127" rx="32.5" ry="11"/>
<text text-anchor="middle" x="568" y="-124.8" font-family="sans-serif" font-size="9.00">Visitor</text>
</g>
<!-- v11&#45;&gt;v12 -->
<g id="edge15" class="edge"><title>v11&#45;&gt;v12</title>
<path fill="none" stroke="black" d="M477.719,-175.25C496.329,-165.51 526.446,-149.748 546.723,-139.136"/>
<polygon fill="black" stroke="black" points="551.399,-136.689 548.012,-141.001 549.184,-137.848 546.969,-139.007 546.969,-139.007 546.969,-139.007 549.184,-137.848 545.925,-137.014 551.399,-136.689 551.399,-136.689"/>
</g>
<!-- v12&#45;&gt;v13 -->
<g id="edge16" class="edge"><title>v12&#45;&gt;v13</title>
<path fill="none" stroke="black" d="M576.884,-116.246C585.147,-107.172 597.535,-93.5697 606.738,-83.4636"/>
<polygon fill="black" stroke="black" points="610.218,-79.6427 608.515,-84.8544 608.535,-81.491 606.852,-83.3394 606.852,-83.3394 606.852,-83.3394 608.535,-81.491 605.188,-81.8244 610.218,-79.6427 610.218,-79.6427"/>
</g>
<!-- v14 -->
<g id="v14_Software" class="node"><title>v14</title>
<ellipse fill="none" stroke="black" cx="619" cy="-11" rx="36" ry="11"/>
<text text-anchor="middle" x="619" y="-8.8" font-family="sans-serif" font-size="9.00">Software</text>
</g>
<!-- v13&#45;&gt;v14 -->
<g id="edge17" class="edge"><title>v13&#45;&gt;v14</title>
<path fill="none" stroke="black" d="M619,-57.9883C619,-49.4941 619,-37.1697 619,-27.4169"/>
<polygon fill="black" stroke="black" points="619,-22.3039 621.25,-27.3038 619,-24.8039 619,-27.3039 619,-27.3039 619,-27.3039 619,-24.8039 616.75,-27.3039 619,-22.3039 619,-22.3039"/>
</g>
<!-- v17 -->
<g id="v17_EnterRoom" class="node"><title>v17</title>
<ellipse fill="none" stroke="black" cx="853" cy="-11" rx="39.5" ry="11"/>
<text text-anchor="middle" x="853" y="-8.8" font-family="sans-serif" font-size="9.00">EnterRoom</text>
</g>
<!-- v16&#45;&gt;v17 -->
<g id="edge18" class="edge"><title>v16&#45;&gt;v17</title>
<path fill="none" stroke="black" d="M1150.12,-61.9484C1093.65,-53.6538 990.03,-37.9563 902,-22 897.42,-21.1698 892.61,-20.2488 887.866,-19.3115"/>
<polygon fill="black" stroke="black" points="882.759,-18.2914 888.103,-17.0644 885.21,-18.7811 887.662,-19.2708 887.662,-19.2708 887.662,-19.2708 885.21,-18.7811 887.221,-21.4772 882.759,-18.2914 882.759,-18.2914"/>
</g>
<!-- v18 -->
<g id="v18_ExitRoom" class="node"><title>v18</title>
<ellipse fill="none" stroke="black" cx="947" cy="-11" rx="36" ry="11"/>
<text text-anchor="middle" x="947" y="-8.8" font-family="sans-serif" font-size="9.00">ExitRoom</text>
</g>
<!-- v16&#45;&gt;v18 -->
<g id="edge19" class="edge"><title>v16&#45;&gt;v18</title>
<path fill="none" stroke="black" d="M1158.45,-60.3309C1111.28,-49.5504 1025.95,-30.0462 979.412,-19.4085"/>
<polygon fill="black" stroke="black" points="974.483,-18.2818 979.859,-17.2026 976.92,-18.8389 979.357,-19.396 979.357,-19.396 979.357,-19.396 976.92,-18.8389 978.856,-21.5895 974.483,-18.2818 974.483,-18.2818"/>
</g>
<!-- v19 -->
<g id="v19_ConnectDevice" class="node"><title>v19</title>
<ellipse fill="none" stroke="black" cx="1055" cy="-11" rx="54" ry="11"/>
<text text-anchor="middle" x="1055" y="-8.8" font-family="sans-serif" font-size="9.00">ConnectDevice</text>
</g>
<!-- v16&#45;&gt;v19 -->
<g id="edge20" class="edge"><title>v16&#45;&gt;v19</title>
<path fill="none" stroke="black" d="M1169.68,-58.878C1145.7,-49.0746 1107.58,-33.4921 1081.94,-23.0129"/>
<polygon fill="black" stroke="black" points="1077.31,-21.1181 1082.79,-20.9273 1079.62,-22.0641 1081.94,-23.01 1081.94,-23.01 1081.94,-23.01 1079.62,-22.0641 1081.08,-25.0927 1077.31,-21.1181 1077.31,-21.1181"/>
</g>
<!-- v20 -->
<g id="v20_DisconnectDevice" class="node"><title>v20</title>
<ellipse fill="none" stroke="black" cx="1192" cy="-11" rx="65" ry="11"/>
<text text-anchor="middle" x="1192" y="-8.8" font-family="sans-serif" font-size="9.00">DisconnectDevice</text>
</g>
<!-- v16&#45;&gt;v20 -->
<g id="edge21" class="edge"><title>v16&#45;&gt;v20</title>
<path fill="none" stroke="black" d="M1192,-57.9883C1192,-49.4941 1192,-37.1697 1192,-27.4169"/>
<polygon fill="black" stroke="black" points="1192,-22.3039 1194.25,-27.3038 1192,-24.8039 1192,-27.3039 1192,-27.3039 1192,-27.3039 1192,-24.8039 1189.75,-27.3039 1192,-22.3039 1192,-22.3039"/>
</g>
<!-- v21 -->
<g id="v21_GenerateData" class="node"><title>v21</title>
<ellipse fill="none" stroke="black" cx="1326" cy="-11" rx="50.5" ry="11"/>
<text text-anchor="middle" x="1326" y="-8.8" font-family="sans-serif" font-size="9.00">GenerateData</text>
</g>
<!-- v16&#45;&gt;v21 -->
<g id="edge22" class="edge"><title>v16&#45;&gt;v21</title>
<path fill="none" stroke="black" d="M1213.83,-58.878C1237.19,-49.1153 1274.26,-33.6213 1299.33,-23.1436"/>
<polygon fill="black" stroke="black" points="1304.18,-21.1181 1300.44,-25.1221 1301.88,-22.0821 1299.57,-23.0461 1299.57,-23.0461 1299.57,-23.0461 1301.88,-22.0821 1298.7,-20.9701 1304.18,-21.1181 1304.18,-21.1181"/>
</g>
<!-- v22 -->
<g id="v22_CollectData" class="node"><title>v22</title>
<ellipse fill="none" stroke="black" cx="1442" cy="-11" rx="47" ry="11"/>
<text text-anchor="middle" x="1442" y="-8.8" font-family="sans-serif" font-size="9.00">CollectData</text>
</g>
<!-- v16&#45;&gt;v22 -->
<g id="edge23" class="edge"><title>v16&#45;&gt;v22</title>
<path fill="none" stroke="black" d="M1225.98,-60.3893C1272.73,-49.9154 1356.61,-31.1279 1404.94,-20.3019"/>
<polygon fill="black" stroke="black" points="1410.08,-19.151 1405.69,-22.4396 1407.64,-19.6975 1405.2,-20.244 1405.2,-20.244 1405.2,-20.244 1407.64,-19.6975 1404.71,-18.0484 1410.08,-19.151 1410.08,-19.151"/>
</g>
<!-- v23 -->
<g id="v23_SendSoftware" class="node"><title>v23</title>
<ellipse fill="none" stroke="black" cx="1558" cy="-11" rx="50.5" ry="11"/>
<text text-anchor="middle" x="1558" y="-8.8" font-family="sans-serif" font-size="9.00">SendSoftware</text>
</g>
<!-- v16&#45;&gt;v23 -->
<g id="edge24" class="edge"><title>v16&#45;&gt;v23</title>
<path fill="none" stroke="black" d="M1233.61,-61.9599C1292.51,-53.3605 1403.55,-36.9684 1498,-22 1503.51,-21.1267 1509.3,-20.188 1515.02,-19.2481"/>
<polygon fill="black" stroke="black" points="1520.25,-18.3864 1515.68,-21.4201 1517.78,-18.7933 1515.31,-19.2001 1515.31,-19.2001 1515.31,-19.2001 1517.78,-18.7933 1514.95,-16.9801 1520.25,-18.3864 1520.25,-18.3864"/>
</g>
</g>
</svg>
