<?xml version="1.0" encoding="UTF-8" standalone="no"?>
<?xml-stylesheet href="style.css" type="text/css"?>
<!DOCTYPE svg PUBLIC "-//W3C//DTD SVG 1.1//EN"
 "http://www.w3.org/Graphics/SVG/1.1/DTD/svg11.dtd">
<!-- Generated by graphviz version 2.38.0 (20140413.2041)
 -->
<!-- Title: 24.svg Pages: 1 -->
<svg width="1242pt" height="374pt"
 viewBox="0.00 0.00 1242.00 374.00" xmlns="http://www.w3.org/2000/svg" xmlns:xlink="http://www.w3.org/1999/xlink">
<g id="graph0" class="graph" transform="scale(1 1) rotate(0) translate(4 370)">
<title>24.svg</title>
<polygon fill="white" stroke="none" points="-4,4 -4,-370 1238,-370 1238,4 -4,4"/>
<!-- r0 -->
<g id="node1" class="node"><title>r0</title>
<polygon fill="none" stroke="black" stroke-dasharray="5,2" points="692,-366 669,-366 669,-348 692,-348 692,-366"/>
<text text-anchor="middle" x="680.5" y="-354.8" font-family="serif" font-size="9.00">0</text>
</g>
<!-- v0 -->
<g id="v0_Building" class="node"><title>v0</title>
<ellipse fill="none" stroke="black" cx="680.5" cy="-301" rx="36" ry="11"/>
<text text-anchor="middle" x="680.5" y="-298.8" font-family="sans-serif" font-size="9.00">Building</text>
</g>
<!-- r0&#45;&gt;v0 -->
<g id="edge1" class="edge"><title>r0&#45;&gt;v0</title>
<path fill="none" stroke="black" d="M680.5,-347.562C680.5,-339.453 680.5,-327.014 680.5,-317.181"/>
<polygon fill="black" stroke="black" points="680.5,-312.03 682.75,-317.03 680.5,-314.53 680.5,-317.03 680.5,-317.03 680.5,-317.03 680.5,-314.53 678.25,-317.03 680.5,-312.03 680.5,-312.03"/>
</g>
<!-- r1 -->
<g id="node2" class="node"><title>r1</title>
<polygon fill="none" stroke="black" stroke-dasharray="5,2" points="1061,-366 1038,-366 1038,-348 1061,-348 1061,-366"/>
<text text-anchor="middle" x="1049.5" y="-354.8" font-family="serif" font-size="9.00">1</text>
</g>
<!-- v9 -->
<g id="v9_RulesKeywords" class="node"><title>v9</title>
<ellipse fill="none" stroke="black" cx="1049.5" cy="-69" rx="54" ry="11"/>
<text text-anchor="middle" x="1049.5" y="-66.8" font-family="sans-serif" font-size="9.00">RulesKeywords</text>
</g>
<!-- r1&#45;&gt;v9 -->
<g id="edge2" class="edge"><title>r1&#45;&gt;v9</title>
<path fill="none" stroke="black" d="M1049.5,-347.849C1049.5,-329.373 1049.5,-282.889 1049.5,-244 1049.5,-244 1049.5,-244 1049.5,-184 1049.5,-148.604 1049.5,-107.026 1049.5,-85.1783"/>
<polygon fill="black" stroke="black" points="1049.5,-80.0648 1051.75,-85.0648 1049.5,-82.5648 1049.5,-85.0648 1049.5,-85.0648 1049.5,-85.0648 1049.5,-82.5648 1047.25,-85.0648 1049.5,-80.0648 1049.5,-80.0648"/>
</g>
<!-- e7 -->
<g id="node3" class="node"><title>e7</title>
</g>
<!-- v8 -->
<g id="v8_SmartLight" class="node"><title>v8</title>
<ellipse fill="none" stroke="black" cx="209.5" cy="-11" rx="43" ry="11"/>
<text text-anchor="middle" x="209.5" y="-8.8" font-family="sans-serif" font-size="9.00">SmartLight</text>
</g>
<!-- e7&#45;&gt;v8 -->
<g id="edge30" class="edge"><title>e7&#45;&gt;v8</title>
<path fill="none" stroke="green" d="M209.5,-64.1674C209.5,-55.5862 209.5,-34.5957 209.5,-22.0117"/>
<polygon fill="green" stroke="green" points="213,-67.3001 206,-67.2999 206,-65.8999 213,-65.9001 213,-67.3001"/>
<polyline fill="none" stroke="green" points="209.5,-68 209.5,-64.5 "/>
</g>
<!-- v1 -->
<g id="v1_Floor" class="node"><title>v1</title>
<ellipse fill="none" stroke="black" cx="555.5" cy="-243" rx="25" ry="11"/>
<text text-anchor="middle" x="555.5" y="-240.8" font-family="sans-serif" font-size="9.00">Floor</text>
</g>
<!-- v0&#45;&gt;v1 -->
<g id="edge3" class="edge"><title>v0&#45;&gt;v1</title>
<path fill="none" stroke="black" d="M661.515,-291.495C638.688,-281.268 600.487,-264.154 576.711,-253.503"/>
<polygon fill="black" stroke="black" points="571.868,-251.333 577.351,-251.324 574.149,-252.355 576.431,-253.377 576.431,-253.377 576.431,-253.377 574.149,-252.355 575.511,-255.43 571.868,-251.333 571.868,-251.333"/>
</g>
<!-- v2 -->
<g id="v2_InstallationBus" class="node"><title>v2</title>
<ellipse fill="none" stroke="black" cx="809.5" cy="-69" rx="61" ry="11"/>
<text text-anchor="middle" x="809.5" y="-66.8" font-family="sans-serif" font-size="9.00">InstallationBus</text>
</g>
<!-- v0&#45;&gt;v2 -->
<g id="edge4" class="edge"><title>v0&#45;&gt;v2</title>
<path fill="none" stroke="black" d="M686.043,-290.117C706.382,-253.854 776.982,-127.979 801.24,-84.7276"/>
<polygon fill="black" stroke="black" points="803.832,-80.105 803.349,-85.5666 802.609,-82.2855 801.386,-84.4659 801.386,-84.4659 801.386,-84.4659 802.609,-82.2855 799.424,-83.3653 803.832,-80.105 803.832,-80.105"/>
</g>
<!-- v4 -->
<g id="v4_Room" class="node"><title>v4</title>
<ellipse fill="none" stroke="black" cx="292.5" cy="-185" rx="21.5" ry="11"/>
<text text-anchor="middle" x="292.5" y="-182.8" font-family="sans-serif" font-size="9.00">Room</text>
</g>
<!-- v1&#45;&gt;v4 -->
<g id="edge5" class="edge"><title>v1&#45;&gt;v4</title>
<path fill="none" stroke="black" d="M533.529,-237.322C484.712,-226.927 367.536,-201.977 316.705,-191.154"/>
<polygon fill="black" stroke="black" points="311.708,-190.09 317.067,-188.931 314.154,-190.611 316.599,-191.131 316.599,-191.131 316.599,-191.131 314.154,-190.611 316.13,-193.332 311.708,-190.09 311.708,-190.09"/>
</g>
<!-- v10 -->
<g id="v10_Hallway" class="node"><title>v10</title>
<ellipse fill="none" stroke="black" cx="461.5" cy="-11" rx="32.5" ry="11"/>
<text text-anchor="middle" x="461.5" y="-8.8" font-family="sans-serif" font-size="9.00">Hallway</text>
</g>
<!-- v1&#45;&gt;v10 -->
<g id="edge6" class="edge"><title>v1&#45;&gt;v10</title>
<path fill="none" stroke="black" d="M551.461,-232.117C536.67,-195.928 485.404,-70.489 467.627,-26.9918"/>
<polygon fill="black" stroke="black" points="465.63,-22.105 469.604,-25.8822 466.576,-24.4192 467.522,-26.7334 467.522,-26.7334 467.522,-26.7334 466.576,-24.4192 465.439,-27.5846 465.63,-22.105 465.63,-22.105"/>
</g>
<!-- v17 -->
<g id="v17_Room" class="node"><title>v17</title>
<ellipse fill="none" stroke="black" cx="555.5" cy="-69" rx="21.5" ry="11"/>
<text text-anchor="middle" x="555.5" y="-66.8" font-family="sans-serif" font-size="9.00">Room</text>
</g>
<!-- v1&#45;&gt;v17 -->
<g id="edge7" class="edge"><title>v1&#45;&gt;v17</title>
<path fill="none" stroke="black" d="M555.5,-231.756C555.5,-202.786 555.5,-120.136 555.5,-85.5335"/>
<polygon fill="black" stroke="black" points="555.5,-80.4081 557.75,-85.408 555.5,-82.9081 555.5,-85.4081 555.5,-85.4081 555.5,-85.4081 555.5,-82.9081 553.25,-85.4081 555.5,-80.4081 555.5,-80.4081"/>
</g>
<!-- v19 -->
<g id="v19_Room" class="node"><title>v19</title>
<ellipse fill="none" stroke="black" cx="659.5" cy="-69" rx="21.5" ry="11"/>
<text text-anchor="middle" x="659.5" y="-66.8" font-family="sans-serif" font-size="9.00">Room</text>
</g>
<!-- v1&#45;&gt;v19 -->
<g id="edge8" class="edge"><title>v1&#45;&gt;v19</title>
<path fill="none" stroke="black" d="M561.389,-232.26C578.837,-203.405 630.313,-118.271 650.874,-84.2667"/>
<polygon fill="black" stroke="black" points="653.675,-79.6335 653.013,-85.0763 652.382,-81.7728 651.088,-83.9121 651.088,-83.9121 651.088,-83.9121 652.382,-81.7728 649.163,-82.7479 653.675,-79.6335 653.675,-79.6335"/>
</g>
<!-- v3 -->
<g id="v3_Data" class="node"><title>v3</title>
<ellipse fill="none" stroke="black" cx="854.5" cy="-11" rx="21.5" ry="11"/>
<text text-anchor="middle" x="854.5" y="-8.8" font-family="sans-serif" font-size="9.00">Data</text>
</g>
<!-- v2&#45;&gt;v3 -->
<g id="edge9" class="edge"><title>v2&#45;&gt;v3</title>
<path fill="none" stroke="black" d="M817.545,-57.9883C824.801,-48.9593 835.534,-35.6025 843.566,-25.6069"/>
<polygon fill="black" stroke="black" points="846.825,-21.5512 845.447,-26.8582 845.259,-23.5 843.693,-25.4488 843.693,-25.4488 843.693,-25.4488 845.259,-23.5 841.939,-24.0394 846.825,-21.5512 846.825,-21.5512"/>
</g>
<!-- v6 -->
<g id="v6_Laptop" class="node"><title>v6</title>
<ellipse fill="none" stroke="black" cx="81.5" cy="-69" rx="29" ry="11"/>
<text text-anchor="middle" x="81.5" y="-66.8" font-family="sans-serif" font-size="9.00">Laptop</text>
</g>
<!-- v2&#45;&gt;v6 -->
<g id="edge23" class="edge"><title>v2&#45;&gt;v6</title>
<path fill="none" stroke="green" d="M777.231,-78.3417C751.339,-85.3286 713.923,-94.2894 680.5,-98 472.003,-121.147 416.958,-121.498 208.5,-98 171.643,-93.8454 129.888,-83.1123 104.637,-75.9344"/>
</g>
<!-- v12 -->
<g id="v12_HVAC" class="node"><title>v12</title>
<ellipse fill="none" stroke="black" cx="292.5" cy="-11" rx="21.5" ry="11"/>
<text text-anchor="middle" x="292.5" y="-8.8" font-family="sans-serif" font-size="9.00">HVAC</text>
</g>
<!-- v2&#45;&gt;v12 -->
<g id="edge24" class="edge"><title>v2&#45;&gt;v12</title>
<path fill="none" stroke="green" d="M756.887,-63.3543C635.288,-52.5729 343.507,-26.4329 322.5,-22 317.988,-21.0478 313.207,-19.6439 308.819,-18.1871"/>
</g>
<!-- v13 -->
<g id="v13_FireAlarm" class="node"><title>v13</title>
<ellipse fill="none" stroke="black" cx="371.5" cy="-11" rx="39.5" ry="11"/>
<text text-anchor="middle" x="371.5" y="-8.8" font-family="sans-serif" font-size="9.00">FireAlarm</text>
</g>
<!-- v2&#45;&gt;v13 -->
<g id="edge25" class="edge"><title>v2&#45;&gt;v13</title>
<path fill="none" stroke="green" d="M757.253,-63.3118C682.235,-56.2463 539.784,-41.5842 419.5,-22 413.367,-21.0014 406.828,-19.7592 400.615,-18.4935"/>
</g>
<!-- v18 -->
<g id="v18_SmartLight" class="node"><title>v18</title>
<ellipse fill="none" stroke="black" cx="555.5" cy="-11" rx="43" ry="11"/>
<text text-anchor="middle" x="555.5" y="-8.8" font-family="sans-serif" font-size="9.00">SmartLight</text>
</g>
<!-- v2&#45;&gt;v18 -->
<g id="edge26" class="edge"><title>v2&#45;&gt;v18</title>
<path fill="none" stroke="green" d="M773.647,-60.0953C723.597,-49.0607 633.629,-29.2254 586.389,-18.8103"/>
</g>
<!-- v20 -->
<g id="v20_SmartLight" class="node"><title>v20</title>
<ellipse fill="none" stroke="black" cx="659.5" cy="-11" rx="43" ry="11"/>
<text text-anchor="middle" x="659.5" y="-8.8" font-family="sans-serif" font-size="9.00">SmartLight</text>
</g>
<!-- v2&#45;&gt;v20 -->
<g id="edge27" class="edge"><title>v2&#45;&gt;v20</title>
<path fill="none" stroke="green" d="M785.066,-58.878C756.509,-48.2165 709.643,-30.7199 681.962,-20.3857"/>
</g>
<!-- v21 -->
<g id="v21_Workstation" class="node"><title>v21</title>
<ellipse fill="none" stroke="black" cx="767.5" cy="-11" rx="47" ry="11"/>
<text text-anchor="middle" x="767.5" y="-8.8" font-family="sans-serif" font-size="9.00">Workstation</text>
</g>
<!-- v2&#45;&gt;v21 -->
<g id="edge28" class="edge"><title>v2&#45;&gt;v21</title>
<path fill="none" stroke="green" d="M801.991,-57.9883C794.346,-47.7952 782.565,-32.0867 774.944,-21.925"/>
</g>
<!-- v5 -->
<g id="v5_Visitor" class="node"><title>v5</title>
<ellipse fill="none" stroke="black" cx="81.5" cy="-127" rx="32.5" ry="11"/>
<text text-anchor="middle" x="81.5" y="-124.8" font-family="sans-serif" font-size="9.00">Visitor</text>
</g>
<!-- v4&#45;&gt;v5 -->
<g id="edge10" class="edge"><title>v4&#45;&gt;v5</title>
<path fill="none" stroke="black" d="M274.144,-179.128C237.458,-169.392 154.82,-147.459 110.645,-135.735"/>
<polygon fill="black" stroke="black" points="105.714,-134.426 111.124,-133.534 108.13,-135.068 110.547,-135.709 110.547,-135.709 110.547,-135.709 108.13,-135.068 109.97,-137.884 105.714,-134.426 105.714,-134.426"/>
</g>
<!-- v4&#45;&gt;v8 -->
<g id="edge11" class="edge"><title>v4&#45;&gt;v8</title>
<path fill="none" stroke="black" d="M275.14,-178.16C255.914,-171.03 224.822,-157.468 203.5,-138 180.92,-117.383 175.065,-109.352 166.5,-80 163.761,-70.6137 162.911,-67.0952 166.5,-58 171.697,-44.8313 182.639,-33.2145 192.184,-24.9493"/>
<polygon fill="black" stroke="black" points="196.169,-21.6175 193.777,-26.551 194.251,-23.2212 192.333,-24.8249 192.333,-24.8249 192.333,-24.8249 194.251,-23.2212 190.89,-23.0988 196.169,-21.6175 196.169,-21.6175"/>
</g>
<!-- v4&#45;&gt;v10 -->
<g id="edge29" class="edge"><title>v4&#45;&gt;v10</title>
<path fill="none" stroke="green" d="M279.093,-176.343C245.553,-156.26 163.235,-100.682 199.5,-58 231.577,-20.2479 370.929,-31.7434 419.5,-22 425.085,-20.8796 431.056,-19.5431 436.691,-18.2175"/>
</g>
<!-- v4&#45;&gt;v12 -->
<g id="edge12" class="edge"><title>v4&#45;&gt;v12</title>
<path fill="none" stroke="black" d="M292.5,-173.756C292.5,-144.786 292.5,-62.1364 292.5,-27.5335"/>
<polygon fill="black" stroke="black" points="292.5,-22.4081 294.75,-27.408 292.5,-24.9081 292.5,-27.4081 292.5,-27.4081 292.5,-27.4081 292.5,-24.9081 290.25,-27.4081 292.5,-22.4081 292.5,-22.4081"/>
</g>
<!-- v4&#45;&gt;v13 -->
<g id="edge13" class="edge"><title>v4&#45;&gt;v13</title>
<path fill="none" stroke="black" d="M297.089,-174.009C310.397,-145.034 349.055,-60.8671 364.755,-26.6863"/>
<polygon fill="black" stroke="black" points="366.898,-22.0185 366.856,-27.5013 365.855,-24.2903 364.812,-26.5621 364.812,-26.5621 364.812,-26.5621 365.855,-24.2903 362.767,-25.623 366.898,-22.0185 366.898,-22.0185"/>
</g>
<!-- v5&#45;&gt;v6 -->
<g id="edge14" class="edge"><title>v5&#45;&gt;v6</title>
<path fill="none" stroke="black" d="M81.5,-115.988C81.5,-107.494 81.5,-95.1697 81.5,-85.4169"/>
<polygon fill="black" stroke="black" points="81.5,-80.3039 83.7501,-85.3038 81.5,-82.8039 81.5001,-85.3039 81.5001,-85.3039 81.5001,-85.3039 81.5,-82.8039 79.2501,-85.3039 81.5,-80.3039 81.5,-80.3039"/>
</g>
<!-- v7 -->
<g id="v7_Data" class="node"><title>v7</title>
<ellipse fill="none" stroke="black" cx="21.5" cy="-11" rx="21.5" ry="11"/>
<text text-anchor="middle" x="21.5" y="-8.8" font-family="sans-serif" font-size="9.00">Data</text>
</g>
<!-- v6&#45;&gt;v7 -->
<g id="edge15" class="edge"><title>v6&#45;&gt;v7</title>
<path fill="none" stroke="black" d="M71.3218,-58.5004C61.3167,-49.1622 45.9874,-34.8549 34.9755,-24.5772"/>
<polygon fill="black" stroke="black" points="31.1317,-20.9896 36.3222,-22.7563 32.9594,-22.6954 34.787,-24.4012 34.787,-24.4012 34.787,-24.4012 32.9594,-22.6954 33.2518,-26.0461 31.1317,-20.9896 31.1317,-20.9896"/>
</g>
<!-- v11 -->
<g id="v11_Software" class="node"><title>v11</title>
<ellipse fill="none" stroke="black" cx="97.5" cy="-11" rx="36" ry="11"/>
<text text-anchor="middle" x="97.5" y="-8.8" font-family="sans-serif" font-size="9.00">Software</text>
</g>
<!-- v6&#45;&gt;v11 -->
<g id="edge16" class="edge"><title>v6&#45;&gt;v11</title>
<path fill="none" stroke="black" d="M84.3605,-57.9883C86.8099,-49.4154 90.374,-36.9411 93.1724,-27.1466"/>
<polygon fill="black" stroke="black" points="94.556,-22.3039 95.3458,-27.7297 93.8692,-24.7077 93.1824,-27.1115 93.1824,-27.1115 93.1824,-27.1115 93.8692,-24.7077 91.0189,-26.4933 94.556,-22.3039 94.556,-22.3039"/>
</g>
<!-- v14 -->
<g id="v14_ExitRoom" class="node"><title>v14</title>
<ellipse fill="none" stroke="black" cx="930.5" cy="-11" rx="36" ry="11"/>
<text text-anchor="middle" x="930.5" y="-8.8" font-family="sans-serif" font-size="9.00">ExitRoom</text>
</g>
<!-- v9&#45;&gt;v14 -->
<g id="edge17" class="edge"><title>v9&#45;&gt;v14</title>
<path fill="none" stroke="black" d="M1029.85,-58.7527C1008.77,-48.8338 975.347,-33.1043 953.171,-22.6686"/>
<polygon fill="black" stroke="black" points="948.618,-20.5261 954.1,-20.6193 950.88,-21.5907 953.142,-22.6552 953.142,-22.6552 953.142,-22.6552 950.88,-21.5907 952.184,-24.691 948.618,-20.5261 948.618,-20.5261"/>
</g>
<!-- v15 -->
<g id="v15_DisconnectDevice" class="node"><title>v15</title>
<ellipse fill="none" stroke="black" cx="1049.5" cy="-11" rx="65" ry="11"/>
<text text-anchor="middle" x="1049.5" y="-8.8" font-family="sans-serif" font-size="9.00">DisconnectDevice</text>
</g>
<!-- v9&#45;&gt;v15 -->
<g id="edge18" class="edge"><title>v9&#45;&gt;v15</title>
<path fill="none" stroke="black" d="M1049.5,-57.9883C1049.5,-49.4941 1049.5,-37.1697 1049.5,-27.4169"/>
<polygon fill="black" stroke="black" points="1049.5,-22.3039 1051.75,-27.3038 1049.5,-24.8039 1049.5,-27.3039 1049.5,-27.3039 1049.5,-27.3039 1049.5,-24.8039 1047.25,-27.3039 1049.5,-22.3039 1049.5,-22.3039"/>
</g>
<!-- v16 -->
<g id="v16_SendSoftware" class="node"><title>v16</title>
<ellipse fill="none" stroke="black" cx="1183.5" cy="-11" rx="50.5" ry="11"/>
<text text-anchor="middle" x="1183.5" y="-8.8" font-family="sans-serif" font-size="9.00">SendSoftware</text>
</g>
<!-- v9&#45;&gt;v16 -->
<g id="edge19" class="edge"><title>v9&#45;&gt;v16</title>
<path fill="none" stroke="black" d="M1071.33,-58.878C1094.69,-49.1153 1131.76,-33.6213 1156.83,-23.1436"/>
<polygon fill="black" stroke="black" points="1161.68,-21.1181 1157.94,-25.1221 1159.38,-22.0821 1157.07,-23.0461 1157.07,-23.0461 1157.07,-23.0461 1159.38,-22.0821 1156.2,-20.9701 1161.68,-21.1181 1161.68,-21.1181"/>
</g>
<!-- v10&#45;&gt;v17 -->
<g id="edge31" class="edge"><title>v10&#45;&gt;v17</title>
<path fill="none" stroke="green" d="M476.317,-20.827C494.508,-31.6646 525.076,-49.8751 542.43,-60.2134"/>
</g>
<!-- v10&#45;&gt;v19 -->
<g id="edge32" class="edge"><title>v10&#45;&gt;v19</title>
<path fill="none" stroke="green" d="M485.187,-18.6993C525.176,-30.0094 605.231,-52.6512 641.228,-62.832"/>
</g>
<!-- v17&#45;&gt;v18 -->
<g id="edge20" class="edge"><title>v17&#45;&gt;v18</title>
<path fill="none" stroke="black" d="M555.5,-57.9883C555.5,-49.4941 555.5,-37.1697 555.5,-27.4169"/>
<polygon fill="black" stroke="black" points="555.5,-22.3039 557.75,-27.3038 555.5,-24.8039 555.5,-27.3039 555.5,-27.3039 555.5,-27.3039 555.5,-24.8039 553.25,-27.3039 555.5,-22.3039 555.5,-22.3039"/>
</g>
<!-- v19&#45;&gt;v20 -->
<g id="edge21" class="edge"><title>v19&#45;&gt;v20</title>
<path fill="none" stroke="black" d="M659.5,-57.9883C659.5,-49.4941 659.5,-37.1697 659.5,-27.4169"/>
<polygon fill="black" stroke="black" points="659.5,-22.3039 661.75,-27.3038 659.5,-24.8039 659.5,-27.3039 659.5,-27.3039 659.5,-27.3039 659.5,-24.8039 657.25,-27.3039 659.5,-22.3039 659.5,-22.3039"/>
</g>
<!-- v19&#45;&gt;v21 -->
<g id="edge22" class="edge"><title>v19&#45;&gt;v21</title>
<path fill="none" stroke="black" d="M673.619,-60.679C691.692,-51.3076 723.232,-34.9536 744.722,-23.8106"/>
<polygon fill="black" stroke="black" points="749.416,-21.3771 746.013,-25.6762 747.196,-22.5279 744.977,-23.6787 744.977,-23.6787 744.977,-23.6787 747.196,-22.5279 743.941,-21.6813 749.416,-21.3771 749.416,-21.3771"/>
</g>
</g>
</svg>
