<?xml version="1.0" encoding="UTF-8" standalone="no"?>
<?xml-stylesheet href="style.css" type="text/css"?>
<!DOCTYPE svg PUBLIC "-//W3C//DTD SVG 1.1//EN"
 "http://www.w3.org/Graphics/SVG/1.1/DTD/svg11.dtd">
<!-- Generated by graphviz version 2.38.0 (20140413.2041)
 -->
<!-- Title: 35.svg Pages: 1 -->
<svg width="1122pt" height="374pt"
 viewBox="0.00 0.00 1121.50 374.00" xmlns="http://www.w3.org/2000/svg" xmlns:xlink="http://www.w3.org/1999/xlink">
<g id="graph0" class="graph" transform="scale(1 1) rotate(0) translate(4 370)">
<title>35.svg</title>
<polygon fill="white" stroke="none" points="-4,4 -4,-370 1117.5,-370 1117.5,4 -4,4"/>
<!-- r0 -->
<g id="node1" class="node"><title>r0</title>
<polygon fill="none" stroke="black" stroke-dasharray="5,2" points="240.5,-366 217.5,-366 217.5,-348 240.5,-348 240.5,-366"/>
<text text-anchor="middle" x="229" y="-354.8" font-family="serif" font-size="9.00">0</text>
</g>
<!-- v0 -->
<g id="v0_Building" class="node"><title>v0</title>
<ellipse fill="none" stroke="black" cx="229" cy="-301" rx="36" ry="11"/>
<text text-anchor="middle" x="229" y="-298.8" font-family="sans-serif" font-size="9.00">Building</text>
</g>
<!-- r0&#45;&gt;v0 -->
<g id="edge1" class="edge"><title>r0&#45;&gt;v0</title>
<path fill="none" stroke="black" d="M229,-347.562C229,-339.453 229,-327.014 229,-317.181"/>
<polygon fill="black" stroke="black" points="229,-312.03 231.25,-317.03 229,-314.53 229,-317.03 229,-317.03 229,-317.03 229,-314.53 226.75,-317.03 229,-312.03 229,-312.03"/>
</g>
<!-- r1 -->
<g id="node2" class="node"><title>r1</title>
<polygon fill="none" stroke="black" stroke-dasharray="5,2" points="958.5,-366 935.5,-366 935.5,-348 958.5,-348 958.5,-366"/>
<text text-anchor="middle" x="947" y="-354.8" font-family="serif" font-size="9.00">1</text>
</g>
<!-- v3 -->
<g id="v3_RulesKeywords" class="node"><title>v3</title>
<ellipse fill="none" stroke="black" cx="947" cy="-69" rx="54" ry="11"/>
<text text-anchor="middle" x="947" y="-66.8" font-family="sans-serif" font-size="9.00">RulesKeywords</text>
</g>
<!-- r1&#45;&gt;v3 -->
<g id="edge2" class="edge"><title>r1&#45;&gt;v3</title>
<path fill="none" stroke="black" d="M947,-347.849C947,-329.373 947,-282.889 947,-244 947,-244 947,-244 947,-184 947,-148.604 947,-107.026 947,-85.1783"/>
<polygon fill="black" stroke="black" points="947,-80.0648 949.25,-85.0648 947,-82.5648 947,-85.0648 947,-85.0648 947,-85.0648 947,-82.5648 944.75,-85.0648 947,-80.0648 947,-80.0648"/>
</g>
<!-- e9 -->
<g id="node3" class="node"><title>e9</title>
</g>
<!-- v8 -->
<g id="v8_Laptop" class="node"><title>v8</title>
<ellipse fill="none" stroke="black" cx="235" cy="-69" rx="29" ry="11"/>
<text text-anchor="middle" x="235" y="-66.8" font-family="sans-serif" font-size="9.00">Laptop</text>
</g>
<!-- e9&#45;&gt;v8 -->
<g id="edge31" class="edge"><title>e9&#45;&gt;v8</title>
<path fill="none" stroke="green" d="M235,-122.167C235,-113.586 235,-92.5957 235,-80.0117"/>
<polygon fill="green" stroke="green" points="238.5,-125.3 231.5,-125.3 231.5,-123.9 238.5,-123.9 238.5,-125.3"/>
<polyline fill="none" stroke="green" points="235,-126 235,-122.5 "/>
</g>
<!-- v1 -->
<g id="v1_InstallationBus" class="node"><title>v1</title>
<ellipse fill="none" stroke="black" cx="61" cy="-69" rx="61" ry="11"/>
<text text-anchor="middle" x="61" y="-66.8" font-family="sans-serif" font-size="9.00">InstallationBus</text>
</g>
<!-- v0&#45;&gt;v1 -->
<g id="edge3" class="edge"><title>v0&#45;&gt;v1</title>
<path fill="none" stroke="black" d="M221.781,-290.117C195.186,-253.707 102.603,-126.956 71.3761,-84.2053"/>
<polygon fill="black" stroke="black" points="68.3811,-80.105 73.1472,-82.8155 69.8557,-82.1238 71.3303,-84.1426 71.3303,-84.1426 71.3303,-84.1426 69.8557,-82.1238 69.5134,-85.4698 68.3811,-80.105 68.3811,-80.105"/>
</g>
<!-- v4 -->
<g id="v4_Floor" class="node"><title>v4</title>
<ellipse fill="none" stroke="black" cx="363" cy="-243" rx="25" ry="11"/>
<text text-anchor="middle" x="363" y="-240.8" font-family="sans-serif" font-size="9.00">Floor</text>
</g>
<!-- v0&#45;&gt;v4 -->
<g id="edge4" class="edge"><title>v0&#45;&gt;v4</title>
<path fill="none" stroke="black" d="M248.772,-291.737C273.343,-281.469 315.154,-263.995 340.801,-253.277"/>
<polygon fill="black" stroke="black" points="345.705,-251.228 341.959,-255.232 343.398,-252.192 341.092,-253.156 341.092,-253.156 341.092,-253.156 343.398,-252.192 340.224,-251.08 345.705,-251.228 345.705,-251.228"/>
</g>
<!-- v2 -->
<g id="v2_Data" class="node"><title>v2</title>
<ellipse fill="none" stroke="black" cx="60" cy="-11" rx="21.5" ry="11"/>
<text text-anchor="middle" x="60" y="-8.8" font-family="sans-serif" font-size="9.00">Data</text>
</g>
<!-- v1&#45;&gt;v2 -->
<g id="edge5" class="edge"><title>v1&#45;&gt;v2</title>
<path fill="none" stroke="black" d="M60.8212,-57.9883C60.6695,-49.4941 60.4495,-37.1697 60.2753,-27.4169"/>
<polygon fill="black" stroke="black" points="60.184,-22.3039 62.523,-27.2629 60.2287,-24.8035 60.2734,-27.3031 60.2734,-27.3031 60.2734,-27.3031 60.2287,-24.8035 58.0237,-27.3433 60.184,-22.3039 60.184,-22.3039"/>
</g>
<!-- v9 -->
<g id="v9_SmartLight" class="node"><title>v9</title>
<ellipse fill="none" stroke="black" cx="651" cy="-11" rx="43" ry="11"/>
<text text-anchor="middle" x="651" y="-8.8" font-family="sans-serif" font-size="9.00">SmartLight</text>
</g>
<!-- v1&#45;&gt;v9 -->
<g id="edge22" class="edge"><title>v1&#45;&gt;v9</title>
<path fill="none" stroke="green" d="M105.501,-61.389C114.586,-60.1604 124.092,-58.9626 133,-58 339.086,-35.7318 392.515,-49.2568 598,-22 604.962,-21.0765 612.393,-19.8359 619.422,-18.5431"/>
</g>
<!-- v10 -->
<g id="v10_HVAC" class="node"><title>v10</title>
<ellipse fill="none" stroke="black" cx="734" cy="-11" rx="21.5" ry="11"/>
<text text-anchor="middle" x="734" y="-8.8" font-family="sans-serif" font-size="9.00">HVAC</text>
</g>
<!-- v1&#45;&gt;v10 -->
<g id="edge23" class="edge"><title>v1&#45;&gt;v10</title>
<path fill="none" stroke="green" d="M105.107,-61.3415C114.309,-60.102 123.959,-58.912 133,-58 385.556,-32.5221 453.614,-69.3308 703,-22 707.778,-21.0932 712.844,-19.6671 717.466,-18.173"/>
</g>
<!-- v11 -->
<g id="v11_FireAlarm" class="node"><title>v11</title>
<ellipse fill="none" stroke="black" cx="550" cy="-11" rx="39.5" ry="11"/>
<text text-anchor="middle" x="550" y="-8.8" font-family="sans-serif" font-size="9.00">FireAlarm</text>
</g>
<!-- v1&#45;&gt;v11 -->
<g id="edge24" class="edge"><title>v1&#45;&gt;v11</title>
<path fill="none" stroke="green" d="M105.901,-61.4778C114.869,-60.2559 124.227,-59.0379 133,-58 296.198,-38.6923 338.495,-46.4633 501,-22 507.439,-21.0307 514.311,-19.771 520.81,-18.4743"/>
</g>
<!-- v17 -->
<g id="v17_SmartLight" class="node"><title>v17</title>
<ellipse fill="none" stroke="black" cx="143" cy="-11" rx="43" ry="11"/>
<text text-anchor="middle" x="143" y="-8.8" font-family="sans-serif" font-size="9.00">SmartLight</text>
</g>
<!-- v1&#45;&gt;v17 -->
<g id="edge25" class="edge"><title>v1&#45;&gt;v17</title>
<path fill="none" stroke="green" d="M75.2833,-58.2455C90.4256,-47.9044 114.179,-31.6823 129.154,-21.4561"/>
</g>
<!-- v19 -->
<g id="v19_SmartLight" class="node"><title>v19</title>
<ellipse fill="none" stroke="black" cx="449" cy="-11" rx="43" ry="11"/>
<text text-anchor="middle" x="449" y="-8.8" font-family="sans-serif" font-size="9.00">SmartLight</text>
</g>
<!-- v1&#45;&gt;v19 -->
<g id="edge26" class="edge"><title>v1&#45;&gt;v19</title>
<path fill="none" stroke="green" d="M106.704,-61.6349C115.433,-60.424 124.499,-59.17 133,-58 250.313,-41.8546 280.146,-41.1887 397,-22 403.532,-20.9274 410.502,-19.6672 417.149,-18.4096"/>
</g>
<!-- v20 -->
<g id="v20_Workstation" class="node"><title>v20</title>
<ellipse fill="none" stroke="black" cx="341" cy="-11" rx="47" ry="11"/>
<text text-anchor="middle" x="341" y="-8.8" font-family="sans-serif" font-size="9.00">Workstation</text>
</g>
<!-- v1&#45;&gt;v20 -->
<g id="edge27" class="edge"><title>v1&#45;&gt;v20</title>
<path fill="none" stroke="green" d="M99.0534,-60.3893C154.079,-49.3842 254.995,-29.201 307.408,-18.7184"/>
</g>
<!-- v13 -->
<g id="v13_ConnectDevice" class="node"><title>v13</title>
<ellipse fill="none" stroke="black" cx="828" cy="-11" rx="54" ry="11"/>
<text text-anchor="middle" x="828" y="-8.8" font-family="sans-serif" font-size="9.00">ConnectDevice</text>
</g>
<!-- v3&#45;&gt;v13 -->
<g id="edge6" class="edge"><title>v3&#45;&gt;v13</title>
<path fill="none" stroke="black" d="M927.35,-58.7527C906.765,-49.0659 874.404,-33.837 852.245,-23.4095"/>
<polygon fill="black" stroke="black" points="847.68,-21.261 853.162,-21.3542 849.942,-22.3255 852.204,-23.39 852.204,-23.39 852.204,-23.39 849.942,-22.3255 851.246,-25.4259 847.68,-21.261 847.68,-21.261"/>
</g>
<!-- v14 -->
<g id="v14_CollectData" class="node"><title>v14</title>
<ellipse fill="none" stroke="black" cx="947" cy="-11" rx="47" ry="11"/>
<text text-anchor="middle" x="947" y="-8.8" font-family="sans-serif" font-size="9.00">CollectData</text>
</g>
<!-- v3&#45;&gt;v14 -->
<g id="edge7" class="edge"><title>v3&#45;&gt;v14</title>
<path fill="none" stroke="black" d="M947,-57.9883C947,-49.4941 947,-37.1697 947,-27.4169"/>
<polygon fill="black" stroke="black" points="947,-22.3039 949.25,-27.3038 947,-24.8039 947,-27.3039 947,-27.3039 947,-27.3039 947,-24.8039 944.75,-27.3039 947,-22.3039 947,-22.3039"/>
</g>
<!-- v15 -->
<g id="v15_SendSoftware" class="node"><title>v15</title>
<ellipse fill="none" stroke="black" cx="1063" cy="-11" rx="50.5" ry="11"/>
<text text-anchor="middle" x="1063" y="-8.8" font-family="sans-serif" font-size="9.00">SendSoftware</text>
</g>
<!-- v3&#45;&gt;v15 -->
<g id="edge8" class="edge"><title>v3&#45;&gt;v15</title>
<path fill="none" stroke="black" d="M966.416,-58.6269C986.443,-48.9585 1017.7,-33.8675 1039.2,-23.4873"/>
<polygon fill="black" stroke="black" points="1043.91,-21.2174 1040.38,-25.4174 1041.66,-22.3043 1039.4,-23.3912 1039.4,-23.3912 1039.4,-23.3912 1041.66,-22.3043 1038.43,-21.3649 1043.91,-21.2174 1043.91,-21.2174"/>
</g>
<!-- v5 -->
<g id="v5_Room" class="node"><title>v5</title>
<ellipse fill="none" stroke="black" cx="600" cy="-69" rx="21.5" ry="11"/>
<text text-anchor="middle" x="600" y="-66.8" font-family="sans-serif" font-size="9.00">Room</text>
</g>
<!-- v4&#45;&gt;v5 -->
<g id="edge9" class="edge"><title>v4&#45;&gt;v5</title>
<path fill="none" stroke="black" d="M375.079,-233.234C414.567,-204.576 539.844,-113.658 584.226,-81.4482"/>
<polygon fill="black" stroke="black" points="588.505,-78.3422 585.78,-83.1001 586.482,-79.8106 584.459,-81.2791 584.459,-81.2791 584.459,-81.2791 586.482,-79.8106 583.137,-79.4581 588.505,-78.3422 588.505,-78.3422"/>
</g>
<!-- v6 -->
<g id="v6_Hallway" class="node"><title>v6</title>
<ellipse fill="none" stroke="black" cx="363" cy="-185" rx="32.5" ry="11"/>
<text text-anchor="middle" x="363" y="-182.8" font-family="sans-serif" font-size="9.00">Hallway</text>
</g>
<!-- v4&#45;&gt;v6 -->
<g id="edge10" class="edge"><title>v4&#45;&gt;v6</title>
<path fill="none" stroke="black" d="M363,-231.988C363,-223.494 363,-211.17 363,-201.417"/>
<polygon fill="black" stroke="black" points="363,-196.304 365.25,-201.304 363,-198.804 363,-201.304 363,-201.304 363,-201.304 363,-198.804 360.75,-201.304 363,-196.304 363,-196.304"/>
</g>
<!-- v16 -->
<g id="v16_Room" class="node"><title>v16</title>
<ellipse fill="none" stroke="black" cx="164" cy="-69" rx="21.5" ry="11"/>
<text text-anchor="middle" x="164" y="-66.8" font-family="sans-serif" font-size="9.00">Room</text>
</g>
<!-- v4&#45;&gt;v16 -->
<g id="edge11" class="edge"><title>v4&#45;&gt;v16</title>
<path fill="none" stroke="black" d="M348.288,-233.93C320.137,-218.038 257.579,-180.518 214,-138 197.227,-121.635 181.898,-99.1798 172.754,-84.6296"/>
<polygon fill="black" stroke="black" points="169.897,-80.0185 174.443,-83.0838 171.214,-82.1437 172.531,-84.2689 172.531,-84.2689 172.531,-84.2689 171.214,-82.1437 170.618,-85.4539 169.897,-80.0185 169.897,-80.0185"/>
</g>
<!-- v18 -->
<g id="v18_Room" class="node"><title>v18</title>
<ellipse fill="none" stroke="black" cx="424" cy="-69" rx="21.5" ry="11"/>
<text text-anchor="middle" x="424" y="-66.8" font-family="sans-serif" font-size="9.00">Room</text>
</g>
<!-- v4&#45;&gt;v18 -->
<g id="edge12" class="edge"><title>v4&#45;&gt;v18</title>
<path fill="none" stroke="black" d="M373.979,-233.001C383.539,-224.509 396.942,-210.887 404,-196 421.554,-158.973 424.181,-109.657 424.289,-85.1526"/>
<polygon fill="black" stroke="black" points="424.275,-80.0346 426.538,-85.0286 424.282,-82.5346 424.289,-85.0346 424.289,-85.0346 424.289,-85.0346 424.282,-82.5346 422.039,-85.0406 424.275,-80.0346 424.275,-80.0346"/>
</g>
<!-- v5&#45;&gt;v6 -->
<g id="edge28" class="edge"><title>v5&#45;&gt;v6</title>
<path fill="none" stroke="green" d="M578.982,-71.8083C501.661,-78.5588 236.872,-102.583 225,-116 191.372,-154.005 283.677,-173.054 333.507,-180.35"/>
</g>
<!-- v5&#45;&gt;v9 -->
<g id="edge13" class="edge"><title>v5&#45;&gt;v9</title>
<path fill="none" stroke="black" d="M608.422,-58.7527C616.614,-49.7573 629.158,-35.9828 638.512,-25.7121"/>
<polygon fill="black" stroke="black" points="642.051,-21.8266 640.348,-27.0383 640.367,-23.6749 638.684,-25.5233 638.684,-25.5233 638.684,-25.5233 640.367,-23.6749 637.021,-24.0083 642.051,-21.8266 642.051,-21.8266"/>
</g>
<!-- v5&#45;&gt;v10 -->
<g id="edge14" class="edge"><title>v5&#45;&gt;v10</title>
<path fill="none" stroke="black" d="M615.898,-61.3562C640.176,-51.21 686.495,-31.8526 713.346,-20.6317"/>
<polygon fill="black" stroke="black" points="718.123,-18.6352 714.377,-22.6392 715.816,-19.5992 713.51,-20.5632 713.51,-20.5632 713.51,-20.5632 715.816,-19.5992 712.642,-18.4872 718.123,-18.6352 718.123,-18.6352"/>
</g>
<!-- v5&#45;&gt;v11 -->
<g id="edge15" class="edge"><title>v5&#45;&gt;v11</title>
<path fill="none" stroke="black" d="M591.744,-58.7527C583.712,-49.7573 571.413,-35.9828 562.243,-25.7121"/>
<polygon fill="black" stroke="black" points="558.774,-21.8266 563.782,-24.0577 560.439,-23.6914 562.104,-25.5563 562.104,-25.5563 562.104,-25.5563 560.439,-23.6914 560.425,-27.0548 558.774,-21.8266 558.774,-21.8266"/>
</g>
<!-- v7 -->
<g id="v7_Visitor" class="node"><title>v7</title>
<ellipse fill="none" stroke="black" cx="363" cy="-127" rx="32.5" ry="11"/>
<text text-anchor="middle" x="363" y="-124.8" font-family="sans-serif" font-size="9.00">Visitor</text>
</g>
<!-- v6&#45;&gt;v7 -->
<g id="edge16" class="edge"><title>v6&#45;&gt;v7</title>
<path fill="none" stroke="black" d="M363,-173.988C363,-165.494 363,-153.17 363,-143.417"/>
<polygon fill="black" stroke="black" points="363,-138.304 365.25,-143.304 363,-140.804 363,-143.304 363,-143.304 363,-143.304 363,-140.804 360.75,-143.304 363,-138.304 363,-138.304"/>
</g>
<!-- v6&#45;&gt;v16 -->
<g id="edge29" class="edge"><title>v6&#45;&gt;v16</title>
<path fill="none" stroke="green" d="M347.715,-175.244C310.036,-153.659 213.174,-98.1699 177.474,-77.7188"/>
</g>
<!-- v6&#45;&gt;v18 -->
<g id="edge30" class="edge"><title>v6&#45;&gt;v18</title>
<path fill="none" stroke="green" d="M349.936,-174.68C333.115,-161.503 307.56,-136.722 321,-116 339.223,-87.9033 379.058,-76.8176 403.502,-72.5536"/>
</g>
<!-- v7&#45;&gt;v8 -->
<g id="edge17" class="edge"><title>v7&#45;&gt;v8</title>
<path fill="none" stroke="black" d="M344.388,-117.857C321.377,-107.79 282.237,-90.6662 257.546,-79.8638"/>
<polygon fill="black" stroke="black" points="252.809,-77.7916 258.292,-77.7344 255.1,-78.7937 257.39,-79.7958 257.39,-79.7958 257.39,-79.7958 255.1,-78.7937 256.488,-81.8571 252.809,-77.7916 252.809,-77.7916"/>
</g>
<!-- v12 -->
<g id="v12_Software" class="node"><title>v12</title>
<ellipse fill="none" stroke="black" cx="240" cy="-11" rx="36" ry="11"/>
<text text-anchor="middle" x="240" y="-8.8" font-family="sans-serif" font-size="9.00">Software</text>
</g>
<!-- v8&#45;&gt;v12 -->
<g id="edge18" class="edge"><title>v8&#45;&gt;v12</title>
<path fill="none" stroke="black" d="M235.894,-57.9883C236.652,-49.4941 237.753,-37.1697 238.623,-27.4169"/>
<polygon fill="black" stroke="black" points="239.08,-22.3039 240.876,-27.4842 238.858,-24.794 238.635,-27.2841 238.635,-27.2841 238.635,-27.2841 238.858,-24.794 236.394,-27.0839 239.08,-22.3039 239.08,-22.3039"/>
</g>
<!-- v16&#45;&gt;v17 -->
<g id="edge19" class="edge"><title>v16&#45;&gt;v17</title>
<path fill="none" stroke="black" d="M160.246,-57.9883C157.031,-49.4154 152.353,-36.9411 148.68,-27.1466"/>
<polygon fill="black" stroke="black" points="146.864,-22.3039 150.726,-26.1955 147.742,-24.6447 148.62,-26.9855 148.62,-26.9855 148.62,-26.9855 147.742,-24.6447 146.513,-27.7756 146.864,-22.3039 146.864,-22.3039"/>
</g>
<!-- v18&#45;&gt;v19 -->
<g id="edge20" class="edge"><title>v18&#45;&gt;v19</title>
<path fill="none" stroke="black" d="M428.469,-57.9883C432.332,-49.3368 437.968,-36.7119 442.358,-26.8777"/>
<polygon fill="black" stroke="black" points="444.4,-22.3039 444.416,-27.7868 443.381,-24.5867 442.362,-26.8696 442.362,-26.8696 442.362,-26.8696 443.381,-24.5867 440.307,-25.9523 444.4,-22.3039 444.4,-22.3039"/>
</g>
<!-- v18&#45;&gt;v20 -->
<g id="edge21" class="edge"><title>v18&#45;&gt;v20</title>
<path fill="none" stroke="black" d="M411.753,-59.737C397.986,-50.4485 375.481,-35.2641 359.553,-24.5176"/>
<polygon fill="black" stroke="black" points="355.248,-21.6128 360.651,-22.5442 357.32,-23.0111 359.392,-24.4094 359.392,-24.4094 359.392,-24.4094 357.32,-23.0111 358.134,-26.2745 355.248,-21.6128 355.248,-21.6128"/>
</g>
</g>
</svg>
