<?xml version="1.0" encoding="UTF-8" standalone="no"?>
<?xml-stylesheet href="style.css" type="text/css"?>
<!DOCTYPE svg PUBLIC "-//W3C//DTD SVG 1.1//EN"
 "http://www.w3.org/Graphics/SVG/1.1/DTD/svg11.dtd">
<!-- Generated by graphviz version 2.38.0 (20140413.2041)
 -->
<!-- Title: 38.svg Pages: 1 -->
<svg width="1238pt" height="374pt"
 viewBox="0.00 0.00 1237.50 374.00" xmlns="http://www.w3.org/2000/svg" xmlns:xlink="http://www.w3.org/1999/xlink">
<g id="graph0" class="graph" transform="scale(1 1) rotate(0) translate(4 370)">
<title>38.svg</title>
<polygon fill="white" stroke="none" points="-4,4 -4,-370 1233.5,-370 1233.5,4 -4,4"/>
<!-- r0 -->
<g id="node1" class="node"><title>r0</title>
<polygon fill="none" stroke="black" stroke-dasharray="5,2" points="584,-366 561,-366 561,-348 584,-348 584,-366"/>
<text text-anchor="middle" x="572.5" y="-354.8" font-family="serif" font-size="9.00">0</text>
</g>
<!-- v0 -->
<g id="v0_Building" class="node"><title>v0</title>
<ellipse fill="none" stroke="black" cx="572.5" cy="-301" rx="36" ry="11"/>
<text text-anchor="middle" x="572.5" y="-298.8" font-family="sans-serif" font-size="9.00">Building</text>
</g>
<!-- r0&#45;&gt;v0 -->
<g id="edge1" class="edge"><title>r0&#45;&gt;v0</title>
<path fill="none" stroke="black" d="M572.5,-347.562C572.5,-339.453 572.5,-327.014 572.5,-317.181"/>
<polygon fill="black" stroke="black" points="572.5,-312.03 574.75,-317.03 572.5,-314.53 572.5,-317.03 572.5,-317.03 572.5,-317.03 572.5,-314.53 570.25,-317.03 572.5,-312.03 572.5,-312.03"/>
</g>
<!-- r1 -->
<g id="node2" class="node"><title>r1</title>
<polygon fill="none" stroke="black" stroke-dasharray="5,2" points="1078,-366 1055,-366 1055,-348 1078,-348 1078,-366"/>
<text text-anchor="middle" x="1066.5" y="-354.8" font-family="serif" font-size="9.00">1</text>
</g>
<!-- v11 -->
<g id="v11_RulesKeywords" class="node"><title>v11</title>
<ellipse fill="none" stroke="black" cx="1066.5" cy="-69" rx="54" ry="11"/>
<text text-anchor="middle" x="1066.5" y="-66.8" font-family="sans-serif" font-size="9.00">RulesKeywords</text>
</g>
<!-- r1&#45;&gt;v11 -->
<g id="edge2" class="edge"><title>r1&#45;&gt;v11</title>
<path fill="none" stroke="black" d="M1066.5,-347.849C1066.5,-329.373 1066.5,-282.889 1066.5,-244 1066.5,-244 1066.5,-244 1066.5,-184 1066.5,-148.604 1066.5,-107.026 1066.5,-85.1783"/>
<polygon fill="black" stroke="black" points="1066.5,-80.0648 1068.75,-85.0648 1066.5,-82.5648 1066.5,-85.0648 1066.5,-85.0648 1066.5,-85.0648 1066.5,-82.5648 1064.25,-85.0648 1066.5,-80.0648 1066.5,-80.0648"/>
</g>
<!-- e3 -->
<g id="node3" class="node"><title>e3</title>
</g>
<!-- v7 -->
<g id="v7_SmartLight" class="node"><title>v7</title>
<ellipse fill="none" stroke="black" cx="432.5" cy="-11" rx="43" ry="11"/>
<text text-anchor="middle" x="432.5" y="-8.8" font-family="sans-serif" font-size="9.00">SmartLight</text>
</g>
<!-- e3&#45;&gt;v7 -->
<g id="edge25" class="edge"><title>e3&#45;&gt;v7</title>
<path fill="none" stroke="green" d="M432.5,-64.1674C432.5,-55.5862 432.5,-34.5957 432.5,-22.0117"/>
<polygon fill="green" stroke="green" points="436,-67.3001 429,-67.2999 429,-65.8999 436,-65.9001 436,-67.3001"/>
<polyline fill="none" stroke="green" points="432.5,-68 432.5,-64.5 "/>
</g>
<!-- v1 -->
<g id="v1_Floor" class="node"><title>v1</title>
<ellipse fill="none" stroke="black" cx="384.5" cy="-243" rx="25" ry="11"/>
<text text-anchor="middle" x="384.5" y="-240.8" font-family="sans-serif" font-size="9.00">Floor</text>
</g>
<!-- v0&#45;&gt;v1 -->
<g id="edge3" class="edge"><title>v0&#45;&gt;v1</title>
<path fill="none" stroke="black" d="M548.307,-292.794C512.483,-282.123 445.669,-262.221 409.427,-251.425"/>
<polygon fill="black" stroke="black" points="404.309,-249.901 409.743,-249.172 406.705,-250.614 409.101,-251.328 409.101,-251.328 409.101,-251.328 406.705,-250.614 408.459,-253.484 404.309,-249.901 404.309,-249.901"/>
</g>
<!-- v10 -->
<g id="v10_InstallationBus" class="node"><title>v10</title>
<ellipse fill="none" stroke="black" cx="846.5" cy="-11" rx="61" ry="11"/>
<text text-anchor="middle" x="846.5" y="-8.8" font-family="sans-serif" font-size="9.00">InstallationBus</text>
</g>
<!-- v0&#45;&gt;v10 -->
<g id="edge4" class="edge"><title>v0&#45;&gt;v10</title>
<path fill="none" stroke="black" d="M603.8,-295.505C657.034,-285.899 759.5,-258.052 759.5,-186 759.5,-186 759.5,-186 759.5,-126 759.5,-81.7539 801.428,-44 827.07,-25.0479"/>
<polygon fill="black" stroke="black" points="831.346,-21.9499 828.617,-26.7057 829.321,-23.4168 827.297,-24.8837 827.297,-24.8837 827.297,-24.8837 829.321,-23.4168 825.977,-23.0617 831.346,-21.9499 831.346,-21.9499"/>
</g>
<!-- v2 -->
<g id="v2_Room" class="node"><title>v2</title>
<ellipse fill="none" stroke="black" cx="580.5" cy="-127" rx="21.5" ry="11"/>
<text text-anchor="middle" x="580.5" y="-124.8" font-family="sans-serif" font-size="9.00">Room</text>
</g>
<!-- v1&#45;&gt;v2 -->
<g id="edge5" class="edge"><title>v1&#45;&gt;v2</title>
<path fill="none" stroke="black" d="M398.596,-233.801C433.515,-213.491 523.992,-160.867 562.607,-138.407"/>
<polygon fill="black" stroke="black" points="567.052,-135.822 563.861,-140.281 564.891,-137.079 562.73,-138.336 562.73,-138.336 562.73,-138.336 564.891,-137.079 561.599,-136.391 567.052,-135.822 567.052,-135.822"/>
</g>
<!-- v3 -->
<g id="v3_Room" class="node"><title>v3</title>
<ellipse fill="none" stroke="black" cx="384.5" cy="-185" rx="21.5" ry="11"/>
<text text-anchor="middle" x="384.5" y="-182.8" font-family="sans-serif" font-size="9.00">Room</text>
</g>
<!-- v1&#45;&gt;v3 -->
<g id="edge6" class="edge"><title>v1&#45;&gt;v3</title>
<path fill="none" stroke="black" d="M384.5,-231.988C384.5,-223.494 384.5,-211.17 384.5,-201.417"/>
<polygon fill="black" stroke="black" points="384.5,-196.304 386.75,-201.304 384.5,-198.804 384.5,-201.304 384.5,-201.304 384.5,-201.304 384.5,-198.804 382.25,-201.304 384.5,-196.304 384.5,-196.304"/>
</g>
<!-- v12 -->
<g id="v12_Hallway" class="node"><title>v12</title>
<ellipse fill="none" stroke="black" cx="32.5" cy="-11" rx="32.5" ry="11"/>
<text text-anchor="middle" x="32.5" y="-8.8" font-family="sans-serif" font-size="9.00">Hallway</text>
</g>
<!-- v1&#45;&gt;v12 -->
<g id="edge7" class="edge"><title>v1&#45;&gt;v12</title>
<path fill="none" stroke="black" d="M367.811,-234.59C349.063,-226.054 317.929,-211.235 292.5,-196 195.698,-138.005 88.0159,-55.5533 48.3086,-24.4855"/>
<polygon fill="black" stroke="black" points="44.2426,-21.2978 49.5658,-22.6121 46.2101,-22.8403 48.1775,-24.3828 48.1775,-24.3828 48.1775,-24.3828 46.2101,-22.8403 46.7892,-26.1535 44.2426,-21.2978 44.2426,-21.2978"/>
</g>
<!-- v18 -->
<g id="v18_Room" class="node"><title>v18</title>
<ellipse fill="none" stroke="black" cx="234.5" cy="-69" rx="21.5" ry="11"/>
<text text-anchor="middle" x="234.5" y="-66.8" font-family="sans-serif" font-size="9.00">Room</text>
</g>
<!-- v1&#45;&gt;v18 -->
<g id="edge8" class="edge"><title>v1&#45;&gt;v18</title>
<path fill="none" stroke="black" d="M370.937,-233.612C346.267,-217.741 293.721,-181.025 262.5,-138 250.613,-121.619 242.71,-99.4489 238.416,-84.9419"/>
<polygon fill="black" stroke="black" points="236.997,-79.9689 240.533,-84.1592 237.683,-82.3728 238.369,-84.7768 238.369,-84.7768 238.369,-84.7768 237.683,-82.3728 236.206,-85.3944 236.997,-79.9689 236.997,-79.9689"/>
</g>
<!-- v8 -->
<g id="v8_HVAC" class="node"><title>v8</title>
<ellipse fill="none" stroke="black" cx="616.5" cy="-69" rx="21.5" ry="11"/>
<text text-anchor="middle" x="616.5" y="-66.8" font-family="sans-serif" font-size="9.00">HVAC</text>
</g>
<!-- v2&#45;&gt;v8 -->
<g id="edge9" class="edge"><title>v2&#45;&gt;v8</title>
<path fill="none" stroke="black" d="M586.771,-116.246C592.501,-107.332 601.039,-94.0497 607.498,-84.0035"/>
<polygon fill="black" stroke="black" points="610.301,-79.6427 609.49,-85.0653 608.949,-81.7456 607.597,-83.8486 607.597,-83.8486 607.597,-83.8486 608.949,-81.7456 605.705,-82.6319 610.301,-79.6427 610.301,-79.6427"/>
</g>
<!-- v2&#45;&gt;v12 -->
<g id="edge22" class="edge"><title>v2&#45;&gt;v12</title>
<path fill="none" stroke="green" d="M558.887,-125.3C500.618,-123 335.748,-113.762 203.5,-80 144.993,-65.0638 79.6703,-35.1178 49.4853,-20.466"/>
</g>
<!-- v16 -->
<g id="v16_SmartLight" class="node"><title>v16</title>
<ellipse fill="none" stroke="black" cx="724.5" cy="-11" rx="43" ry="11"/>
<text text-anchor="middle" x="724.5" y="-8.8" font-family="sans-serif" font-size="9.00">SmartLight</text>
</g>
<!-- v2&#45;&gt;v16 -->
<g id="edge10" class="edge"><title>v2&#45;&gt;v16</title>
<path fill="none" stroke="black" d="M592.95,-117.909C606.436,-109.009 628.445,-94.0953 646.5,-80 669.476,-62.063 694.66,-39.5477 710.024,-25.4626"/>
<polygon fill="black" stroke="black" points="713.711,-22.0712 711.554,-27.1121 711.871,-23.7636 710.031,-25.4561 710.031,-25.4561 710.031,-25.4561 711.871,-23.7636 708.508,-23.8 713.711,-22.0712 713.711,-22.0712"/>
</g>
<!-- v17 -->
<g id="v17_FireAlarm" class="node"><title>v17</title>
<ellipse fill="none" stroke="black" cx="533.5" cy="-11" rx="39.5" ry="11"/>
<text text-anchor="middle" x="533.5" y="-8.8" font-family="sans-serif" font-size="9.00">FireAlarm</text>
</g>
<!-- v2&#45;&gt;v17 -->
<g id="edge11" class="edge"><title>v2&#45;&gt;v17</title>
<path fill="none" stroke="black" d="M576.329,-115.883C568.023,-95.7373 549.381,-50.521 539.661,-26.9438"/>
<polygon fill="black" stroke="black" points="537.729,-22.2579 541.715,-26.0229 538.682,-24.5692 539.635,-26.8805 539.635,-26.8805 539.635,-26.8805 538.682,-24.5692 537.555,-27.7381 537.729,-22.2579 537.729,-22.2579"/>
</g>
<!-- v4 -->
<g id="v4_Visitor" class="node"><title>v4</title>
<ellipse fill="none" stroke="black" cx="304.5" cy="-127" rx="32.5" ry="11"/>
<text text-anchor="middle" x="304.5" y="-124.8" font-family="sans-serif" font-size="9.00">Visitor</text>
</g>
<!-- v3&#45;&gt;v4 -->
<g id="edge12" class="edge"><title>v3&#45;&gt;v4</title>
<path fill="none" stroke="black" d="M372.696,-175.737C359.268,-166.337 337.214,-150.9 321.833,-140.133"/>
<polygon fill="black" stroke="black" points="317.685,-137.23 323.072,-138.254 319.733,-138.663 321.781,-140.097 321.781,-140.097 321.781,-140.097 319.733,-138.663 320.491,-141.94 317.685,-137.23 317.685,-137.23"/>
</g>
<!-- v3&#45;&gt;v7 -->
<g id="edge13" class="edge"><title>v3&#45;&gt;v7</title>
<path fill="none" stroke="black" d="M387.288,-174.009C395.341,-145.153 418.67,-61.5561 428.284,-27.1091"/>
<polygon fill="black" stroke="black" points="429.704,-22.0185 430.527,-27.4393 429.032,-24.4265 428.36,-26.8345 428.36,-26.8345 428.36,-26.8345 429.032,-24.4265 426.193,-26.2296 429.704,-22.0185 429.704,-22.0185"/>
</g>
<!-- v3&#45;&gt;v12 -->
<g id="edge23" class="edge"><title>v3&#45;&gt;v12</title>
<path fill="none" stroke="green" d="M394.672,-175.007C418.67,-152.752 474.399,-94.2844 441.5,-58 386.456,2.70784 155.324,-35.5215 74.5,-22 68.7336,-21.0353 62.5821,-19.7301 56.8154,-18.3815"/>
</g>
<!-- v5 -->
<g id="v5_Laptop" class="node"><title>v5</title>
<ellipse fill="none" stroke="black" cx="320.5" cy="-69" rx="29" ry="11"/>
<text text-anchor="middle" x="320.5" y="-66.8" font-family="sans-serif" font-size="9.00">Laptop</text>
</g>
<!-- v4&#45;&gt;v5 -->
<g id="edge14" class="edge"><title>v4&#45;&gt;v5</title>
<path fill="none" stroke="black" d="M307.36,-115.988C309.81,-107.415 313.374,-94.9411 316.172,-85.1466"/>
<polygon fill="black" stroke="black" points="317.556,-80.3039 318.346,-85.7297 316.869,-82.7077 316.182,-85.1115 316.182,-85.1115 316.182,-85.1115 316.869,-82.7077 314.019,-84.4933 317.556,-80.3039 317.556,-80.3039"/>
</g>
<!-- v6 -->
<g id="v6_Software" class="node"><title>v6</title>
<ellipse fill="none" stroke="black" cx="335.5" cy="-11" rx="36" ry="11"/>
<text text-anchor="middle" x="335.5" y="-8.8" font-family="sans-serif" font-size="9.00">Software</text>
</g>
<!-- v5&#45;&gt;v6 -->
<g id="edge15" class="edge"><title>v5&#45;&gt;v6</title>
<path fill="none" stroke="black" d="M323.182,-57.9883C325.478,-49.4154 328.819,-36.9411 331.443,-27.1466"/>
<polygon fill="black" stroke="black" points="332.74,-22.3039 333.62,-27.7158 332.093,-24.7187 331.446,-27.1336 331.446,-27.1336 331.446,-27.1336 332.093,-24.7187 329.273,-26.5514 332.74,-22.3039 332.74,-22.3039"/>
</g>
<!-- v5&#45;&gt;v10 -->
<g id="edge24" class="edge"><title>v5&#45;&gt;v10</title>
<path fill="none" stroke="green" d="M347.932,-65.2996C439.904,-56.2367 733.947,-27.1836 776.5,-22 784.787,-20.9906 793.61,-19.8119 802.1,-18.625"/>
</g>
<!-- v9 -->
<g id="v9_Software" class="node"><title>v9</title>
<ellipse fill="none" stroke="black" cx="627.5" cy="-11" rx="36" ry="11"/>
<text text-anchor="middle" x="627.5" y="-8.8" font-family="sans-serif" font-size="9.00">Software</text>
</g>
<!-- v8&#45;&gt;v9 -->
<g id="edge16" class="edge"><title>v8&#45;&gt;v9</title>
<path fill="none" stroke="black" d="M618.467,-57.9883C620.135,-49.4941 622.556,-37.1697 624.472,-27.4169"/>
<polygon fill="black" stroke="black" points="625.476,-22.3039 626.72,-27.6438 624.994,-24.757 624.512,-27.2101 624.512,-27.2101 624.512,-27.2101 624.994,-24.757 622.304,-26.7764 625.476,-22.3039 625.476,-22.3039"/>
</g>
<!-- v8&#45;&gt;v10 -->
<g id="edge26" class="edge"><title>v8&#45;&gt;v10</title>
<path fill="none" stroke="green" d="M635.322,-63.4173C674.16,-53.9611 763.645,-32.1734 812.744,-20.2188"/>
</g>
<!-- v10&#45;&gt;v16 -->
<g id="edge27" class="edge"><title>v10&#45;&gt;v16</title>
<path fill="none" stroke="green" d="M785.375,-11C779.539,-11 773.703,-11 767.867,-11"/>
</g>
<!-- v10&#45;&gt;v17 -->
<g id="edge28" class="edge"><title>v10&#45;&gt;v17</title>
<path fill="none" stroke="green" d="M824.609,-21.4084C809.067,-28.2018 787.495,-36.446 767.5,-40 690.485,-53.6891 667.63,-57.9718 591.5,-40 576.16,-36.3788 560.252,-28.0452 548.985,-21.2364"/>
</g>
<!-- v19 -->
<g id="v19_SmartLight" class="node"><title>v19</title>
<ellipse fill="none" stroke="black" cx="126.5" cy="-11" rx="43" ry="11"/>
<text text-anchor="middle" x="126.5" y="-8.8" font-family="sans-serif" font-size="9.00">SmartLight</text>
</g>
<!-- v10&#45;&gt;v19 -->
<g id="edge29" class="edge"><title>v10&#45;&gt;v19</title>
<path fill="none" stroke="green" d="M824.609,-21.4084C809.067,-28.2018 787.495,-36.446 767.5,-40 704.05,-51.2779 250.364,-54.1826 187.5,-40 171.486,-36.3871 154.744,-28.0527 142.859,-21.2415"/>
</g>
<!-- v20 -->
<g id="v20_Workstation" class="node"><title>v20</title>
<ellipse fill="none" stroke="black" cx="234.5" cy="-11" rx="47" ry="11"/>
<text text-anchor="middle" x="234.5" y="-8.8" font-family="sans-serif" font-size="9.00">Workstation</text>
</g>
<!-- v10&#45;&gt;v20 -->
<g id="edge30" class="edge"><title>v10&#45;&gt;v20</title>
<path fill="none" stroke="green" d="M824.609,-21.4084C809.067,-28.2018 787.495,-36.446 767.5,-40 665.105,-58.2003 401.219,-61.6621 299.5,-40 282.58,-36.3967 264.726,-28.0614 252.021,-21.2474"/>
</g>
<!-- v13 -->
<g id="v13_ExitRoom" class="node"><title>v13</title>
<ellipse fill="none" stroke="black" cx="961.5" cy="-11" rx="36" ry="11"/>
<text text-anchor="middle" x="961.5" y="-8.8" font-family="sans-serif" font-size="9.00">ExitRoom</text>
</g>
<!-- v11&#45;&gt;v13 -->
<g id="edge17" class="edge"><title>v11&#45;&gt;v13</title>
<path fill="none" stroke="black" d="M1048.69,-58.5004C1030.46,-48.777 1002.12,-33.6662 982.737,-23.3265"/>
<polygon fill="black" stroke="black" points="978.013,-20.8068 983.483,-21.1745 980.219,-21.9833 982.424,-23.1598 982.424,-23.1598 982.424,-23.1598 980.219,-21.9833 981.366,-25.1451 978.013,-20.8068 978.013,-20.8068"/>
</g>
<!-- v14 -->
<g id="v14_GenerateData" class="node"><title>v14</title>
<ellipse fill="none" stroke="black" cx="1066.5" cy="-11" rx="50.5" ry="11"/>
<text text-anchor="middle" x="1066.5" y="-8.8" font-family="sans-serif" font-size="9.00">GenerateData</text>
</g>
<!-- v11&#45;&gt;v14 -->
<g id="edge18" class="edge"><title>v11&#45;&gt;v14</title>
<path fill="none" stroke="black" d="M1066.5,-57.9883C1066.5,-49.4941 1066.5,-37.1697 1066.5,-27.4169"/>
<polygon fill="black" stroke="black" points="1066.5,-22.3039 1068.75,-27.3038 1066.5,-24.8039 1066.5,-27.3039 1066.5,-27.3039 1066.5,-27.3039 1066.5,-24.8039 1064.25,-27.3039 1066.5,-22.3039 1066.5,-22.3039"/>
</g>
<!-- v15 -->
<g id="v15_CollectData" class="node"><title>v15</title>
<ellipse fill="none" stroke="black" cx="1182.5" cy="-11" rx="47" ry="11"/>
<text text-anchor="middle" x="1182.5" y="-8.8" font-family="sans-serif" font-size="9.00">CollectData</text>
</g>
<!-- v11&#45;&gt;v15 -->
<g id="edge19" class="edge"><title>v11&#45;&gt;v15</title>
<path fill="none" stroke="black" d="M1085.92,-58.6269C1105.94,-48.9585 1137.2,-33.8675 1158.7,-23.4873"/>
<polygon fill="black" stroke="black" points="1163.41,-21.2174 1159.88,-25.4174 1161.16,-22.3043 1158.9,-23.3912 1158.9,-23.3912 1158.9,-23.3912 1161.16,-22.3043 1157.93,-21.3649 1163.41,-21.2174 1163.41,-21.2174"/>
</g>
<!-- v12&#45;&gt;v18 -->
<g id="edge31" class="edge"><title>v12&#45;&gt;v18</title>
<path fill="none" stroke="green" d="M56.4458,-18.6384C97.302,-29.9649 179.604,-52.7814 216.218,-62.9316"/>
</g>
<!-- v18&#45;&gt;v19 -->
<g id="edge20" class="edge"><title>v18&#45;&gt;v19</title>
<path fill="none" stroke="black" d="M220.381,-60.679C202.201,-51.2525 170.396,-34.761 148.899,-23.6145"/>
<polygon fill="black" stroke="black" points="144.209,-21.1826 149.684,-21.4868 146.429,-22.3334 148.648,-23.4842 148.648,-23.4842 148.648,-23.4842 146.429,-22.3334 147.612,-25.4817 144.209,-21.1826 144.209,-21.1826"/>
</g>
<!-- v18&#45;&gt;v20 -->
<g id="edge21" class="edge"><title>v18&#45;&gt;v20</title>
<path fill="none" stroke="black" d="M234.5,-57.9883C234.5,-49.4941 234.5,-37.1697 234.5,-27.4169"/>
<polygon fill="black" stroke="black" points="234.5,-22.3039 236.75,-27.3038 234.5,-24.8039 234.5,-27.3039 234.5,-27.3039 234.5,-27.3039 234.5,-24.8039 232.25,-27.3039 234.5,-22.3039 234.5,-22.3039"/>
</g>
</g>
</svg>
