<?xml version="1.0" encoding="UTF-8" standalone="no"?>
<?xml-stylesheet href="style.css" type="text/css"?>
<!DOCTYPE svg PUBLIC "-//W3C//DTD SVG 1.1//EN"
 "http://www.w3.org/Graphics/SVG/1.1/DTD/svg11.dtd">
<!-- Generated by graphviz version 2.38.0 (20140413.2041)
 -->
<!-- Title: 48.svg Pages: 1 -->
<svg width="1166pt" height="374pt"
 viewBox="0.00 0.00 1165.50 374.00" xmlns="http://www.w3.org/2000/svg" xmlns:xlink="http://www.w3.org/1999/xlink">
<g id="graph0" class="graph" transform="scale(1 1) rotate(0) translate(4 370)">
<title>48.svg</title>
<polygon fill="white" stroke="none" points="-4,4 -4,-370 1161.5,-370 1161.5,4 -4,4"/>
<!-- r0 -->
<g id="node1" class="node"><title>r0</title>
<polygon fill="none" stroke="black" stroke-dasharray="5,2" points="591,-366 568,-366 568,-348 591,-348 591,-366"/>
<text text-anchor="middle" x="579.5" y="-354.8" font-family="serif" font-size="9.00">0</text>
</g>
<!-- v0 -->
<g id="v0_Building" class="node"><title>v0</title>
<ellipse fill="none" stroke="black" cx="579.5" cy="-301" rx="36" ry="11"/>
<text text-anchor="middle" x="579.5" y="-298.8" font-family="sans-serif" font-size="9.00">Building</text>
</g>
<!-- r0&#45;&gt;v0 -->
<g id="edge1" class="edge"><title>r0&#45;&gt;v0</title>
<path fill="none" stroke="black" d="M579.5,-347.562C579.5,-339.453 579.5,-327.014 579.5,-317.181"/>
<polygon fill="black" stroke="black" points="579.5,-312.03 581.75,-317.03 579.5,-314.53 579.5,-317.03 579.5,-317.03 579.5,-317.03 579.5,-314.53 577.25,-317.03 579.5,-312.03 579.5,-312.03"/>
</g>
<!-- r1 -->
<g id="node2" class="node"><title>r1</title>
<polygon fill="none" stroke="black" stroke-dasharray="5,2" points="1021,-366 998,-366 998,-348 1021,-348 1021,-366"/>
<text text-anchor="middle" x="1009.5" y="-354.8" font-family="serif" font-size="9.00">1</text>
</g>
<!-- v7 -->
<g id="v7_RulesKeywords" class="node"><title>v7</title>
<ellipse fill="none" stroke="black" cx="1009.5" cy="-69" rx="54" ry="11"/>
<text text-anchor="middle" x="1009.5" y="-66.8" font-family="sans-serif" font-size="9.00">RulesKeywords</text>
</g>
<!-- r1&#45;&gt;v7 -->
<g id="edge2" class="edge"><title>r1&#45;&gt;v7</title>
<path fill="none" stroke="black" d="M1009.5,-347.849C1009.5,-329.373 1009.5,-282.889 1009.5,-244 1009.5,-244 1009.5,-244 1009.5,-184 1009.5,-148.604 1009.5,-107.026 1009.5,-85.1783"/>
<polygon fill="black" stroke="black" points="1009.5,-80.0648 1011.75,-85.0648 1009.5,-82.5648 1009.5,-85.0648 1009.5,-85.0648 1009.5,-85.0648 1009.5,-82.5648 1007.25,-85.0648 1009.5,-80.0648 1009.5,-80.0648"/>
</g>
<!-- e1 -->
<g id="node3" class="node"><title>e1</title>
</g>
<!-- v4 -->
<g id="v4_Laptop" class="node"><title>v4</title>
<ellipse fill="none" stroke="black" cx="507.5" cy="-69" rx="29" ry="11"/>
<text text-anchor="middle" x="507.5" y="-66.8" font-family="sans-serif" font-size="9.00">Laptop</text>
</g>
<!-- e1&#45;&gt;v4 -->
<g id="edge24" class="edge"><title>e1&#45;&gt;v4</title>
<path fill="none" stroke="green" d="M507.5,-122.167C507.5,-113.586 507.5,-92.5957 507.5,-80.0117"/>
<polygon fill="green" stroke="green" points="511,-125.3 504,-125.3 504,-123.9 511,-123.9 511,-125.3"/>
<polyline fill="none" stroke="green" points="507.5,-126 507.5,-122.5 "/>
</g>
<!-- v1 -->
<g id="v1_Floor" class="node"><title>v1</title>
<ellipse fill="none" stroke="black" cx="418.5" cy="-243" rx="25" ry="11"/>
<text text-anchor="middle" x="418.5" y="-240.8" font-family="sans-serif" font-size="9.00">Floor</text>
</g>
<!-- v0&#45;&gt;v1 -->
<g id="edge3" class="edge"><title>v0&#45;&gt;v1</title>
<path fill="none" stroke="black" d="M557.114,-292.213C526.768,-281.658 472.831,-262.898 441.947,-252.155"/>
<polygon fill="black" stroke="black" points="437.195,-250.503 442.657,-250.02 439.556,-251.324 441.917,-252.145 441.917,-252.145 441.917,-252.145 439.556,-251.324 441.178,-254.27 437.195,-250.503 437.195,-250.503"/>
</g>
<!-- v6 -->
<g id="v6_InstallationBus" class="node"><title>v6</title>
<ellipse fill="none" stroke="black" cx="794.5" cy="-69" rx="61" ry="11"/>
<text text-anchor="middle" x="794.5" y="-66.8" font-family="sans-serif" font-size="9.00">InstallationBus</text>
</g>
<!-- v0&#45;&gt;v6 -->
<g id="edge4" class="edge"><title>v0&#45;&gt;v6</title>
<path fill="none" stroke="black" d="M588.738,-290.117C622.843,-253.633 741.738,-126.443 781.462,-83.9473"/>
<polygon fill="black" stroke="black" points="785.054,-80.105 783.283,-85.2942 783.347,-81.9314 781.64,-83.7577 781.64,-83.7577 781.64,-83.7577 783.347,-81.9314 779.996,-82.2212 785.054,-80.105 785.054,-80.105"/>
</g>
<!-- v2 -->
<g id="v2_Room" class="node"><title>v2</title>
<ellipse fill="none" stroke="black" cx="589.5" cy="-185" rx="21.5" ry="11"/>
<text text-anchor="middle" x="589.5" y="-182.8" font-family="sans-serif" font-size="9.00">Room</text>
</g>
<!-- v1&#45;&gt;v2 -->
<g id="edge5" class="edge"><title>v1&#45;&gt;v2</title>
<path fill="none" stroke="black" d="M437.453,-235.793C469.28,-225.37 533.3,-204.405 567.224,-193.295"/>
<polygon fill="black" stroke="black" points="572.004,-191.73 567.952,-195.424 569.628,-192.508 567.252,-193.286 567.252,-193.286 567.252,-193.286 569.628,-192.508 566.552,-191.148 572.004,-191.73 572.004,-191.73"/>
</g>
<!-- v9 -->
<g id="v9_Room" class="node"><title>v9</title>
<ellipse fill="none" stroke="black" cx="180.5" cy="-127" rx="21.5" ry="11"/>
<text text-anchor="middle" x="180.5" y="-124.8" font-family="sans-serif" font-size="9.00">Room</text>
</g>
<!-- v1&#45;&gt;v9 -->
<g id="edge6" class="edge"><title>v1&#45;&gt;v9</title>
<path fill="none" stroke="black" d="M401.084,-234.859C379.95,-226.098 343.318,-210.605 312.5,-196 271.491,-176.565 224.462,-151.703 199.085,-138.069"/>
<polygon fill="black" stroke="black" points="194.605,-135.658 200.074,-136.046 196.806,-136.843 199.008,-138.027 199.008,-138.027 199.008,-138.027 196.806,-136.843 197.941,-140.009 194.605,-135.658 194.605,-135.658"/>
</g>
<!-- v14 -->
<g id="v14_Hallway" class="node"><title>v14</title>
<ellipse fill="none" stroke="black" cx="324.5" cy="-11" rx="32.5" ry="11"/>
<text text-anchor="middle" x="324.5" y="-8.8" font-family="sans-serif" font-size="9.00">Hallway</text>
</g>
<!-- v1&#45;&gt;v14 -->
<g id="edge7" class="edge"><title>v1&#45;&gt;v14</title>
<path fill="none" stroke="black" d="M414.461,-232.117C399.67,-195.928 348.404,-70.489 330.627,-26.9918"/>
<polygon fill="black" stroke="black" points="328.63,-22.105 332.604,-25.8822 329.576,-24.4192 330.522,-26.7334 330.522,-26.7334 330.522,-26.7334 329.576,-24.4192 328.439,-27.5846 328.63,-22.105 328.63,-22.105"/>
</g>
<!-- v18 -->
<g id="v18_Room" class="node"><title>v18</title>
<ellipse fill="none" stroke="black" cx="418.5" cy="-69" rx="21.5" ry="11"/>
<text text-anchor="middle" x="418.5" y="-66.8" font-family="sans-serif" font-size="9.00">Room</text>
</g>
<!-- v1&#45;&gt;v18 -->
<g id="edge8" class="edge"><title>v1&#45;&gt;v18</title>
<path fill="none" stroke="black" d="M418.5,-231.756C418.5,-202.786 418.5,-120.136 418.5,-85.5335"/>
<polygon fill="black" stroke="black" points="418.5,-80.4081 420.75,-85.408 418.5,-82.9081 418.5,-85.4081 418.5,-85.4081 418.5,-85.4081 418.5,-82.9081 416.25,-85.4081 418.5,-80.4081 418.5,-80.4081"/>
</g>
<!-- v3 -->
<g id="v3_Visitor" class="node"><title>v3</title>
<ellipse fill="none" stroke="black" cx="558.5" cy="-127" rx="32.5" ry="11"/>
<text text-anchor="middle" x="558.5" y="-124.8" font-family="sans-serif" font-size="9.00">Visitor</text>
</g>
<!-- v2&#45;&gt;v3 -->
<g id="edge9" class="edge"><title>v2&#45;&gt;v3</title>
<path fill="none" stroke="black" d="M584.1,-174.246C579.27,-165.52 572.122,-152.608 566.606,-142.643"/>
<polygon fill="black" stroke="black" points="564.047,-138.02 568.437,-141.304 565.257,-140.207 566.468,-142.394 566.468,-142.394 566.468,-142.394 565.257,-140.207 564.5,-143.484 564.047,-138.02 564.047,-138.02"/>
</g>
<!-- v5 -->
<g id="v5_SmartLight" class="node"><title>v5</title>
<ellipse fill="none" stroke="black" cx="612.5" cy="-11" rx="43" ry="11"/>
<text text-anchor="middle" x="612.5" y="-8.8" font-family="sans-serif" font-size="9.00">SmartLight</text>
</g>
<!-- v2&#45;&gt;v5 -->
<g id="edge10" class="edge"><title>v2&#45;&gt;v5</title>
<path fill="none" stroke="black" d="M592.052,-173.83C594.299,-164.55 597.514,-150.428 599.5,-138 605.828,-98.3952 609.738,-51.2708 611.463,-27.442"/>
<polygon fill="black" stroke="black" points="611.836,-22.176 613.727,-27.3226 611.659,-24.6698 611.483,-27.1636 611.483,-27.1636 611.483,-27.1636 611.659,-24.6698 609.238,-27.0046 611.836,-22.176 611.836,-22.176"/>
</g>
<!-- v2&#45;&gt;v14 -->
<g id="edge23" class="edge"><title>v2&#45;&gt;v14</title>
<path fill="none" stroke="green" d="M572.908,-177.83C536.855,-163.937 449.623,-127.657 387.5,-80 364.516,-62.3678 342.707,-35.9127 331.784,-21.759"/>
</g>
<!-- v15 -->
<g id="v15_Workstation" class="node"><title>v15</title>
<ellipse fill="none" stroke="black" cx="720.5" cy="-11" rx="47" ry="11"/>
<text text-anchor="middle" x="720.5" y="-8.8" font-family="sans-serif" font-size="9.00">Workstation</text>
</g>
<!-- v2&#45;&gt;v15 -->
<g id="edge11" class="edge"><title>v2&#45;&gt;v15</title>
<path fill="none" stroke="black" d="M596.73,-174.508C618.495,-145.93 683.503,-60.5757 709.54,-26.3907"/>
<polygon fill="black" stroke="black" points="712.803,-22.1054 711.564,-27.4464 711.289,-24.0942 709.774,-26.0831 709.774,-26.0831 709.774,-26.0831 711.289,-24.0942 707.984,-24.7198 712.803,-22.1054 712.803,-22.1054"/>
</g>
<!-- v3&#45;&gt;v4 -->
<g id="edge12" class="edge"><title>v3&#45;&gt;v4</title>
<path fill="none" stroke="black" d="M549.616,-116.246C541.353,-107.172 528.965,-93.5697 519.762,-83.4636"/>
<polygon fill="black" stroke="black" points="516.282,-79.6427 521.312,-81.8244 517.965,-81.491 519.648,-83.3394 519.648,-83.3394 519.648,-83.3394 517.965,-81.491 517.985,-84.8544 516.282,-79.6427 516.282,-79.6427"/>
</g>
<!-- v10 -->
<g id="v10_Software" class="node"><title>v10</title>
<ellipse fill="none" stroke="black" cx="515.5" cy="-11" rx="36" ry="11"/>
<text text-anchor="middle" x="515.5" y="-8.8" font-family="sans-serif" font-size="9.00">Software</text>
</g>
<!-- v4&#45;&gt;v10 -->
<g id="edge13" class="edge"><title>v4&#45;&gt;v10</title>
<path fill="none" stroke="black" d="M508.93,-57.9883C510.144,-49.4941 511.904,-37.1697 513.298,-27.4169"/>
<polygon fill="black" stroke="black" points="514.028,-22.3039 515.548,-27.5719 513.674,-24.7787 513.321,-27.2536 513.321,-27.2536 513.321,-27.2536 513.674,-24.7787 511.093,-26.9354 514.028,-22.3039 514.028,-22.3039"/>
</g>
<!-- v5&#45;&gt;v6 -->
<g id="edge25" class="edge"><title>v5&#45;&gt;v6</title>
<path fill="none" stroke="green" d="M638.094,-19.8751C671.823,-30.2532 730.971,-48.4526 766.062,-59.25"/>
</g>
<!-- v11 -->
<g id="v11_HVAC" class="node"><title>v11</title>
<ellipse fill="none" stroke="black" cx="134.5" cy="-69" rx="21.5" ry="11"/>
<text text-anchor="middle" x="134.5" y="-66.8" font-family="sans-serif" font-size="9.00">HVAC</text>
</g>
<!-- v6&#45;&gt;v11 -->
<g id="edge26" class="edge"><title>v6&#45;&gt;v11</title>
<path fill="none" stroke="green" d="M763.822,-78.6987C740.224,-85.6292 706.658,-94.3485 676.5,-98 474.435,-122.466 227.497,-85.0001 155.262,-72.6947"/>
</g>
<!-- v13 -->
<g id="v13_Data" class="node"><title>v13</title>
<ellipse fill="none" stroke="black" cx="807.5" cy="-11" rx="21.5" ry="11"/>
<text text-anchor="middle" x="807.5" y="-8.8" font-family="sans-serif" font-size="9.00">Data</text>
</g>
<!-- v6&#45;&gt;v13 -->
<g id="edge14" class="edge"><title>v6&#45;&gt;v13</title>
<path fill="none" stroke="black" d="M796.824,-57.9883C798.796,-49.4941 801.657,-37.1697 803.921,-27.4169"/>
<polygon fill="black" stroke="black" points="805.108,-22.3039 806.169,-27.6832 804.543,-24.7391 803.977,-27.1744 803.977,-27.1744 803.977,-27.1744 804.543,-24.7391 801.786,-26.6655 805.108,-22.3039 805.108,-22.3039"/>
</g>
<!-- v6&#45;&gt;v15 -->
<g id="edge27" class="edge"><title>v6&#45;&gt;v15</title>
<path fill="none" stroke="green" d="M781.61,-58.2455C768.028,-47.9671 746.768,-31.8787 733.242,-21.6427"/>
</g>
<!-- v19 -->
<g id="v19_SmartLight" class="node"><title>v19</title>
<ellipse fill="none" stroke="black" cx="418.5" cy="-11" rx="43" ry="11"/>
<text text-anchor="middle" x="418.5" y="-8.8" font-family="sans-serif" font-size="9.00">SmartLight</text>
</g>
<!-- v6&#45;&gt;v19 -->
<g id="edge28" class="edge"><title>v6&#45;&gt;v19</title>
<path fill="none" stroke="green" d="M747.17,-62.0184C683.963,-53.8618 568.566,-38.3808 470.5,-22 464.062,-20.9246 457.195,-19.6765 450.633,-18.4343"/>
</g>
<!-- v20 -->
<g id="v20_SmartLight" class="node"><title>v20</title>
<ellipse fill="none" stroke="black" cx="230.5" cy="-11" rx="43" ry="11"/>
<text text-anchor="middle" x="230.5" y="-8.8" font-family="sans-serif" font-size="9.00">SmartLight</text>
</g>
<!-- v6&#45;&gt;v20 -->
<g id="edge29" class="edge"><title>v6&#45;&gt;v20</title>
<path fill="none" stroke="green" d="M737.844,-64.7746C643.203,-58.9696 447.101,-45.1616 282.5,-22 275.854,-21.0649 268.771,-19.8499 262.039,-18.5908"/>
</g>
<!-- v21 -->
<g id="v21_FireAlarm" class="node"><title>v21</title>
<ellipse fill="none" stroke="black" cx="39.5" cy="-11" rx="39.5" ry="11"/>
<text text-anchor="middle" x="39.5" y="-8.8" font-family="sans-serif" font-size="9.00">FireAlarm</text>
</g>
<!-- v6&#45;&gt;v21 -->
<g id="edge30" class="edge"><title>v6&#45;&gt;v21</title>
<path fill="none" stroke="green" d="M736.994,-65.267C591.863,-58.2065 213.437,-38.7395 88.5,-22 81.9599,-21.1237 74.9844,-19.8864 68.4084,-18.5796"/>
</g>
<!-- v8 -->
<g id="v8_ConnectDevice" class="node"><title>v8</title>
<ellipse fill="none" stroke="black" cx="901.5" cy="-11" rx="54" ry="11"/>
<text text-anchor="middle" x="901.5" y="-8.8" font-family="sans-serif" font-size="9.00">ConnectDevice</text>
</g>
<!-- v7&#45;&gt;v8 -->
<g id="edge15" class="edge"><title>v7&#45;&gt;v8</title>
<path fill="none" stroke="black" d="M991.179,-58.5004C972.793,-48.9669 944.419,-34.2544 924.523,-23.9378"/>
<polygon fill="black" stroke="black" points="919.911,-21.5462 925.385,-21.8504 922.13,-22.6971 924.349,-23.8479 924.349,-23.8479 924.349,-23.8479 922.13,-22.6971 923.314,-25.8453 919.911,-21.5462 919.911,-21.5462"/>
</g>
<!-- v16 -->
<g id="v16_ExitRoom" class="node"><title>v16</title>
<ellipse fill="none" stroke="black" cx="1009.5" cy="-11" rx="36" ry="11"/>
<text text-anchor="middle" x="1009.5" y="-8.8" font-family="sans-serif" font-size="9.00">ExitRoom</text>
</g>
<!-- v7&#45;&gt;v16 -->
<g id="edge16" class="edge"><title>v7&#45;&gt;v16</title>
<path fill="none" stroke="black" d="M1009.5,-57.9883C1009.5,-49.4941 1009.5,-37.1697 1009.5,-27.4169"/>
<polygon fill="black" stroke="black" points="1009.5,-22.3039 1011.75,-27.3038 1009.5,-24.8039 1009.5,-27.3039 1009.5,-27.3039 1009.5,-27.3039 1009.5,-24.8039 1007.25,-27.3039 1009.5,-22.3039 1009.5,-22.3039"/>
</g>
<!-- v17 -->
<g id="v17_CollectData" class="node"><title>v17</title>
<ellipse fill="none" stroke="black" cx="1110.5" cy="-11" rx="47" ry="11"/>
<text text-anchor="middle" x="1110.5" y="-8.8" font-family="sans-serif" font-size="9.00">CollectData</text>
</g>
<!-- v7&#45;&gt;v17 -->
<g id="edge17" class="edge"><title>v7&#45;&gt;v17</title>
<path fill="none" stroke="black" d="M1026.63,-58.5004C1043.86,-48.9496 1070.46,-34.201 1089.07,-23.8816"/>
<polygon fill="black" stroke="black" points="1093.62,-21.3593 1090.34,-25.7517 1091.43,-22.5716 1089.25,-23.7839 1089.25,-23.7839 1089.25,-23.7839 1091.43,-22.5716 1088.16,-21.8162 1093.62,-21.3593 1093.62,-21.3593"/>
</g>
<!-- v9&#45;&gt;v11 -->
<g id="edge18" class="edge"><title>v9&#45;&gt;v11</title>
<path fill="none" stroke="black" d="M172.697,-116.5C165.25,-107.435 153.957,-93.6874 145.58,-83.4888"/>
<polygon fill="black" stroke="black" points="142.188,-79.3593 147.1,-81.7948 143.775,-81.2912 145.362,-83.223 145.362,-83.223 145.362,-83.223 143.775,-81.2912 143.623,-84.6512 142.188,-79.3593 142.188,-79.3593"/>
</g>
<!-- v9&#45;&gt;v14 -->
<g id="edge31" class="edge"><title>v9&#45;&gt;v14</title>
<path fill="none" stroke="green" d="M191.323,-117.431C217.748,-96.5118 285.39,-42.9623 312.75,-21.3019"/>
</g>
<!-- v9&#45;&gt;v20 -->
<g id="edge19" class="edge"><title>v9&#45;&gt;v20</title>
<path fill="none" stroke="black" d="M184.937,-115.883C193.773,-95.7373 213.605,-50.521 223.946,-26.9438"/>
<polygon fill="black" stroke="black" points="226.001,-22.2579 226.053,-27.7407 224.997,-24.5474 223.993,-26.8369 223.993,-26.8369 223.993,-26.8369 224.997,-24.5474 221.932,-25.9331 226.001,-22.2579 226.001,-22.2579"/>
</g>
<!-- v9&#45;&gt;v21 -->
<g id="edge20" class="edge"><title>v9&#45;&gt;v21</title>
<path fill="none" stroke="black" d="M165.82,-118.797C149.724,-110.554 123.525,-96.0979 103.5,-80 82.9417,-63.4736 62.6635,-40.4866 50.6137,-25.9268"/>
<polygon fill="black" stroke="black" points="47.4398,-22.056 52.35,-24.4958 49.025,-23.9892 50.6101,-25.9225 50.6101,-25.9225 50.6101,-25.9225 49.025,-23.9892 48.8702,-27.3491 47.4398,-22.056 47.4398,-22.056"/>
</g>
<!-- v12 -->
<g id="v12_Software" class="node"><title>v12</title>
<ellipse fill="none" stroke="black" cx="133.5" cy="-11" rx="36" ry="11"/>
<text text-anchor="middle" x="133.5" y="-8.8" font-family="sans-serif" font-size="9.00">Software</text>
</g>
<!-- v11&#45;&gt;v12 -->
<g id="edge21" class="edge"><title>v11&#45;&gt;v12</title>
<path fill="none" stroke="black" d="M134.321,-57.9883C134.17,-49.4941 133.949,-37.1697 133.775,-27.4169"/>
<polygon fill="black" stroke="black" points="133.684,-22.3039 136.023,-27.2629 133.729,-24.8035 133.773,-27.3031 133.773,-27.3031 133.773,-27.3031 133.729,-24.8035 131.524,-27.3433 133.684,-22.3039 133.684,-22.3039"/>
</g>
<!-- v14&#45;&gt;v18 -->
<g id="edge32" class="edge"><title>v14&#45;&gt;v18</title>
<path fill="none" stroke="green" d="M339.317,-20.827C357.508,-31.6646 388.076,-49.8751 405.43,-60.2134"/>
</g>
<!-- v18&#45;&gt;v19 -->
<g id="edge22" class="edge"><title>v18&#45;&gt;v19</title>
<path fill="none" stroke="black" d="M418.5,-57.9883C418.5,-49.4941 418.5,-37.1697 418.5,-27.4169"/>
<polygon fill="black" stroke="black" points="418.5,-22.3039 420.75,-27.3038 418.5,-24.8039 418.5,-27.3039 418.5,-27.3039 418.5,-27.3039 418.5,-24.8039 416.25,-27.3039 418.5,-22.3039 418.5,-22.3039"/>
</g>
</g>
</svg>
