<?xml version="1.0" encoding="UTF-8" standalone="no"?>
<?xml-stylesheet href="style.css" type="text/css"?>
<!DOCTYPE svg PUBLIC "-//W3C//DTD SVG 1.1//EN"
 "http://www.w3.org/Graphics/SVG/1.1/DTD/svg11.dtd">
<!-- Generated by graphviz version 2.38.0 (20140413.2041)
 -->
<!-- Title: 49.svg Pages: 1 -->
<svg width="1094pt" height="374pt"
 viewBox="0.00 0.00 1094.00 374.00" xmlns="http://www.w3.org/2000/svg" xmlns:xlink="http://www.w3.org/1999/xlink">
<g id="graph0" class="graph" transform="scale(1 1) rotate(0) translate(4 370)">
<title>49.svg</title>
<polygon fill="white" stroke="none" points="-4,4 -4,-370 1090,-370 1090,4 -4,4"/>
<!-- r0 -->
<g id="node1" class="node"><title>r0</title>
<polygon fill="none" stroke="black" stroke-dasharray="5,2" points="663,-366 640,-366 640,-348 663,-348 663,-366"/>
<text text-anchor="middle" x="651.5" y="-354.8" font-family="serif" font-size="9.00">0</text>
</g>
<!-- v0 -->
<g id="v0_Building" class="node"><title>v0</title>
<ellipse fill="none" stroke="black" cx="651.5" cy="-301" rx="36" ry="11"/>
<text text-anchor="middle" x="651.5" y="-298.8" font-family="sans-serif" font-size="9.00">Building</text>
</g>
<!-- r0&#45;&gt;v0 -->
<g id="edge1" class="edge"><title>r0&#45;&gt;v0</title>
<path fill="none" stroke="black" d="M651.5,-347.562C651.5,-339.453 651.5,-327.014 651.5,-317.181"/>
<polygon fill="black" stroke="black" points="651.5,-312.03 653.75,-317.03 651.5,-314.53 651.5,-317.03 651.5,-317.03 651.5,-317.03 651.5,-314.53 649.25,-317.03 651.5,-312.03 651.5,-312.03"/>
</g>
<!-- r1 -->
<g id="node2" class="node"><title>r1</title>
<polygon fill="none" stroke="black" stroke-dasharray="5,2" points="994,-366 971,-366 971,-348 994,-348 994,-366"/>
<text text-anchor="middle" x="982.5" y="-354.8" font-family="serif" font-size="9.00">1</text>
</g>
<!-- v9 -->
<g id="v9_RulesKeywords" class="node"><title>v9</title>
<ellipse fill="none" stroke="black" cx="982.5" cy="-69" rx="54" ry="11"/>
<text text-anchor="middle" x="982.5" y="-66.8" font-family="sans-serif" font-size="9.00">RulesKeywords</text>
</g>
<!-- r1&#45;&gt;v9 -->
<g id="edge2" class="edge"><title>r1&#45;&gt;v9</title>
<path fill="none" stroke="black" d="M982.5,-347.849C982.5,-329.373 982.5,-282.889 982.5,-244 982.5,-244 982.5,-244 982.5,-184 982.5,-148.604 982.5,-107.026 982.5,-85.1783"/>
<polygon fill="black" stroke="black" points="982.5,-80.0648 984.75,-85.0648 982.5,-82.5648 982.5,-85.0648 982.5,-85.0648 982.5,-85.0648 982.5,-82.5648 980.25,-85.0648 982.5,-80.0648 982.5,-80.0648"/>
</g>
<!-- e7 -->
<g id="node3" class="node"><title>e7</title>
</g>
<!-- v8 -->
<g id="v8_SmartLight" class="node"><title>v8</title>
<ellipse fill="none" stroke="black" cx="209.5" cy="-11" rx="43" ry="11"/>
<text text-anchor="middle" x="209.5" y="-8.8" font-family="sans-serif" font-size="9.00">SmartLight</text>
</g>
<!-- e7&#45;&gt;v8 -->
<g id="edge29" class="edge"><title>e7&#45;&gt;v8</title>
<path fill="none" stroke="green" d="M209.5,-64.1674C209.5,-55.5862 209.5,-34.5957 209.5,-22.0117"/>
<polygon fill="green" stroke="green" points="213,-67.3001 206,-67.2999 206,-65.8999 213,-65.9001 213,-67.3001"/>
<polyline fill="none" stroke="green" points="209.5,-68 209.5,-64.5 "/>
</g>
<!-- v1 -->
<g id="v1_Floor" class="node"><title>v1</title>
<ellipse fill="none" stroke="black" cx="555.5" cy="-243" rx="25" ry="11"/>
<text text-anchor="middle" x="555.5" y="-240.8" font-family="sans-serif" font-size="9.00">Floor</text>
</g>
<!-- v0&#45;&gt;v1 -->
<g id="edge3" class="edge"><title>v0&#45;&gt;v1</title>
<path fill="none" stroke="black" d="M636.076,-291.003C619.17,-281.141 592.056,-265.324 574.014,-254.8"/>
<polygon fill="black" stroke="black" points="569.634,-252.245 575.087,-252.821 571.794,-253.505 573.953,-254.765 573.953,-254.765 573.953,-254.765 571.794,-253.505 572.82,-256.708 569.634,-252.245 569.634,-252.245"/>
</g>
<!-- v2 -->
<g id="v2_InstallationBus" class="node"><title>v2</title>
<ellipse fill="none" stroke="black" cx="780.5" cy="-69" rx="61" ry="11"/>
<text text-anchor="middle" x="780.5" y="-66.8" font-family="sans-serif" font-size="9.00">InstallationBus</text>
</g>
<!-- v0&#45;&gt;v2 -->
<g id="edge4" class="edge"><title>v0&#45;&gt;v2</title>
<path fill="none" stroke="black" d="M657.043,-290.117C677.382,-253.854 747.982,-127.979 772.24,-84.7276"/>
<polygon fill="black" stroke="black" points="774.832,-80.105 774.349,-85.5666 773.609,-82.2855 772.386,-84.4659 772.386,-84.4659 772.386,-84.4659 773.609,-82.2855 770.424,-83.3653 774.832,-80.105 774.832,-80.105"/>
</g>
<!-- v4 -->
<g id="v4_Room" class="node"><title>v4</title>
<ellipse fill="none" stroke="black" cx="292.5" cy="-185" rx="21.5" ry="11"/>
<text text-anchor="middle" x="292.5" y="-182.8" font-family="sans-serif" font-size="9.00">Room</text>
</g>
<!-- v1&#45;&gt;v4 -->
<g id="edge5" class="edge"><title>v1&#45;&gt;v4</title>
<path fill="none" stroke="black" d="M533.529,-237.322C484.712,-226.927 367.536,-201.977 316.705,-191.154"/>
<polygon fill="black" stroke="black" points="311.708,-190.09 317.067,-188.931 314.154,-190.611 316.599,-191.131 316.599,-191.131 316.599,-191.131 314.154,-190.611 316.13,-193.332 311.708,-190.09 311.708,-190.09"/>
</g>
<!-- v10 -->
<g id="v10_Hallway" class="node"><title>v10</title>
<ellipse fill="none" stroke="black" cx="461.5" cy="-11" rx="32.5" ry="11"/>
<text text-anchor="middle" x="461.5" y="-8.8" font-family="sans-serif" font-size="9.00">Hallway</text>
</g>
<!-- v1&#45;&gt;v10 -->
<g id="edge6" class="edge"><title>v1&#45;&gt;v10</title>
<path fill="none" stroke="black" d="M551.461,-232.117C536.67,-195.928 485.404,-70.489 467.627,-26.9918"/>
<polygon fill="black" stroke="black" points="465.63,-22.105 469.604,-25.8822 466.576,-24.4192 467.522,-26.7334 467.522,-26.7334 467.522,-26.7334 466.576,-24.4192 465.439,-27.5846 465.63,-22.105 465.63,-22.105"/>
</g>
<!-- v16 -->
<g id="v16_Room" class="node"><title>v16</title>
<ellipse fill="none" stroke="black" cx="555.5" cy="-69" rx="21.5" ry="11"/>
<text text-anchor="middle" x="555.5" y="-66.8" font-family="sans-serif" font-size="9.00">Room</text>
</g>
<!-- v1&#45;&gt;v16 -->
<g id="edge7" class="edge"><title>v1&#45;&gt;v16</title>
<path fill="none" stroke="black" d="M555.5,-231.756C555.5,-202.786 555.5,-120.136 555.5,-85.5335"/>
<polygon fill="black" stroke="black" points="555.5,-80.4081 557.75,-85.408 555.5,-82.9081 555.5,-85.4081 555.5,-85.4081 555.5,-85.4081 555.5,-82.9081 553.25,-85.4081 555.5,-80.4081 555.5,-80.4081"/>
</g>
<!-- v18 -->
<g id="v18_Room" class="node"><title>v18</title>
<ellipse fill="none" stroke="black" cx="659.5" cy="-69" rx="21.5" ry="11"/>
<text text-anchor="middle" x="659.5" y="-66.8" font-family="sans-serif" font-size="9.00">Room</text>
</g>
<!-- v1&#45;&gt;v18 -->
<g id="edge8" class="edge"><title>v1&#45;&gt;v18</title>
<path fill="none" stroke="black" d="M561.389,-232.26C578.837,-203.405 630.313,-118.271 650.874,-84.2667"/>
<polygon fill="black" stroke="black" points="653.675,-79.6335 653.013,-85.0763 652.382,-81.7728 651.088,-83.9121 651.088,-83.9121 651.088,-83.9121 652.382,-81.7728 649.163,-82.7479 653.675,-79.6335 653.675,-79.6335"/>
</g>
<!-- v3 -->
<g id="v3_Data" class="node"><title>v3</title>
<ellipse fill="none" stroke="black" cx="854.5" cy="-11" rx="21.5" ry="11"/>
<text text-anchor="middle" x="854.5" y="-8.8" font-family="sans-serif" font-size="9.00">Data</text>
</g>
<!-- v2&#45;&gt;v3 -->
<g id="edge9" class="edge"><title>v2&#45;&gt;v3</title>
<path fill="none" stroke="black" d="M793.39,-58.2455C806.149,-48.5899 825.683,-33.8071 839.217,-23.5653"/>
<polygon fill="black" stroke="black" points="843.211,-20.5433 840.581,-25.3547 841.217,-22.0519 839.224,-23.5605 839.224,-23.5605 839.224,-23.5605 841.217,-22.0519 837.866,-21.7664 843.211,-20.5433 843.211,-20.5433"/>
</g>
<!-- v6 -->
<g id="v6_Laptop" class="node"><title>v6</title>
<ellipse fill="none" stroke="black" cx="81.5" cy="-69" rx="29" ry="11"/>
<text text-anchor="middle" x="81.5" y="-66.8" font-family="sans-serif" font-size="9.00">Laptop</text>
</g>
<!-- v2&#45;&gt;v6 -->
<g id="edge22" class="edge"><title>v2&#45;&gt;v6</title>
<path fill="none" stroke="green" d="M753.789,-78.9826C733.902,-85.8617 705.913,-94.3895 680.5,-98 576.654,-112.754 312.729,-109.749 208.5,-98 171.643,-93.8454 129.888,-83.1123 104.637,-75.9344"/>
</g>
<!-- v12 -->
<g id="v12_HVAC" class="node"><title>v12</title>
<ellipse fill="none" stroke="black" cx="292.5" cy="-11" rx="21.5" ry="11"/>
<text text-anchor="middle" x="292.5" y="-8.8" font-family="sans-serif" font-size="9.00">HVAC</text>
</g>
<!-- v2&#45;&gt;v12 -->
<g id="edge23" class="edge"><title>v2&#45;&gt;v12</title>
<path fill="none" stroke="green" d="M730.921,-62.4456C717.484,-60.9692 702.937,-59.3973 689.5,-58 526.485,-41.0484 482.801,-56.1277 322.5,-22 317.989,-21.0397 313.209,-19.633 308.821,-18.1761"/>
</g>
<!-- v13 -->
<g id="v13_FireAlarm" class="node"><title>v13</title>
<ellipse fill="none" stroke="black" cx="371.5" cy="-11" rx="39.5" ry="11"/>
<text text-anchor="middle" x="371.5" y="-8.8" font-family="sans-serif" font-size="9.00">FireAlarm</text>
</g>
<!-- v2&#45;&gt;v13 -->
<g id="edge24" class="edge"><title>v2&#45;&gt;v13</title>
<path fill="none" stroke="green" d="M732.028,-62.3039C647.982,-52.3467 478.54,-31.8958 419.5,-22 413.372,-20.9728 406.835,-19.7183 400.622,-18.4496"/>
</g>
<!-- v17 -->
<g id="v17_SmartLight" class="node"><title>v17</title>
<ellipse fill="none" stroke="black" cx="555.5" cy="-11" rx="43" ry="11"/>
<text text-anchor="middle" x="555.5" y="-8.8" font-family="sans-serif" font-size="9.00">SmartLight</text>
</g>
<!-- v2&#45;&gt;v17 -->
<g id="edge25" class="edge"><title>v2&#45;&gt;v17</title>
<path fill="none" stroke="green" d="M747.3,-59.737C703.294,-48.7842 626.348,-29.6333 584.54,-19.2278"/>
</g>
<!-- v19 -->
<g id="v19_SmartLight" class="node"><title>v19</title>
<ellipse fill="none" stroke="black" cx="659.5" cy="-11" rx="43" ry="11"/>
<text text-anchor="middle" x="659.5" y="-8.8" font-family="sans-serif" font-size="9.00">SmartLight</text>
</g>
<!-- v2&#45;&gt;v19 -->
<g id="edge26" class="edge"><title>v2&#45;&gt;v19</title>
<path fill="none" stroke="green" d="M759.974,-58.5004C737.319,-48.0154 701.128,-31.2659 678.924,-20.9896"/>
</g>
<!-- v20 -->
<g id="v20_Workstation" class="node"><title>v20</title>
<ellipse fill="none" stroke="black" cx="767.5" cy="-11" rx="47" ry="11"/>
<text text-anchor="middle" x="767.5" y="-8.8" font-family="sans-serif" font-size="9.00">Workstation</text>
</g>
<!-- v2&#45;&gt;v20 -->
<g id="edge27" class="edge"><title>v2&#45;&gt;v20</title>
<path fill="none" stroke="green" d="M778.176,-57.9883C775.839,-47.9211 772.253,-32.4737 769.892,-22.3039"/>
</g>
<!-- v5 -->
<g id="v5_Visitor" class="node"><title>v5</title>
<ellipse fill="none" stroke="black" cx="81.5" cy="-127" rx="32.5" ry="11"/>
<text text-anchor="middle" x="81.5" y="-124.8" font-family="sans-serif" font-size="9.00">Visitor</text>
</g>
<!-- v4&#45;&gt;v5 -->
<g id="edge10" class="edge"><title>v4&#45;&gt;v5</title>
<path fill="none" stroke="black" d="M274.144,-179.128C237.458,-169.392 154.82,-147.459 110.645,-135.735"/>
<polygon fill="black" stroke="black" points="105.714,-134.426 111.124,-133.534 108.13,-135.068 110.547,-135.709 110.547,-135.709 110.547,-135.709 108.13,-135.068 109.97,-137.884 105.714,-134.426 105.714,-134.426"/>
</g>
<!-- v4&#45;&gt;v8 -->
<g id="edge11" class="edge"><title>v4&#45;&gt;v8</title>
<path fill="none" stroke="black" d="M275.14,-178.16C255.914,-171.03 224.822,-157.468 203.5,-138 180.92,-117.383 175.065,-109.352 166.5,-80 163.761,-70.6137 162.911,-67.0952 166.5,-58 171.697,-44.8313 182.639,-33.2145 192.184,-24.9493"/>
<polygon fill="black" stroke="black" points="196.169,-21.6175 193.777,-26.551 194.251,-23.2212 192.333,-24.8249 192.333,-24.8249 192.333,-24.8249 194.251,-23.2212 190.89,-23.0988 196.169,-21.6175 196.169,-21.6175"/>
</g>
<!-- v4&#45;&gt;v10 -->
<g id="edge28" class="edge"><title>v4&#45;&gt;v10</title>
<path fill="none" stroke="green" d="M279.093,-176.343C245.553,-156.26 163.235,-100.682 199.5,-58 231.577,-20.2479 370.929,-31.7434 419.5,-22 425.085,-20.8796 431.056,-19.5431 436.691,-18.2175"/>
</g>
<!-- v4&#45;&gt;v12 -->
<g id="edge12" class="edge"><title>v4&#45;&gt;v12</title>
<path fill="none" stroke="black" d="M292.5,-173.756C292.5,-144.786 292.5,-62.1364 292.5,-27.5335"/>
<polygon fill="black" stroke="black" points="292.5,-22.4081 294.75,-27.408 292.5,-24.9081 292.5,-27.4081 292.5,-27.4081 292.5,-27.4081 292.5,-24.9081 290.25,-27.4081 292.5,-22.4081 292.5,-22.4081"/>
</g>
<!-- v4&#45;&gt;v13 -->
<g id="edge13" class="edge"><title>v4&#45;&gt;v13</title>
<path fill="none" stroke="black" d="M297.089,-174.009C310.397,-145.034 349.055,-60.8671 364.755,-26.6863"/>
<polygon fill="black" stroke="black" points="366.898,-22.0185 366.856,-27.5013 365.855,-24.2903 364.812,-26.5621 364.812,-26.5621 364.812,-26.5621 365.855,-24.2903 362.767,-25.623 366.898,-22.0185 366.898,-22.0185"/>
</g>
<!-- v5&#45;&gt;v6 -->
<g id="edge14" class="edge"><title>v5&#45;&gt;v6</title>
<path fill="none" stroke="black" d="M81.5,-115.988C81.5,-107.494 81.5,-95.1697 81.5,-85.4169"/>
<polygon fill="black" stroke="black" points="81.5,-80.3039 83.7501,-85.3038 81.5,-82.8039 81.5001,-85.3039 81.5001,-85.3039 81.5001,-85.3039 81.5,-82.8039 79.2501,-85.3039 81.5,-80.3039 81.5,-80.3039"/>
</g>
<!-- v7 -->
<g id="v7_Data" class="node"><title>v7</title>
<ellipse fill="none" stroke="black" cx="21.5" cy="-11" rx="21.5" ry="11"/>
<text text-anchor="middle" x="21.5" y="-8.8" font-family="sans-serif" font-size="9.00">Data</text>
</g>
<!-- v6&#45;&gt;v7 -->
<g id="edge15" class="edge"><title>v6&#45;&gt;v7</title>
<path fill="none" stroke="black" d="M71.3218,-58.5004C61.3167,-49.1622 45.9874,-34.8549 34.9755,-24.5772"/>
<polygon fill="black" stroke="black" points="31.1317,-20.9896 36.3222,-22.7563 32.9594,-22.6954 34.787,-24.4012 34.787,-24.4012 34.787,-24.4012 32.9594,-22.6954 33.2518,-26.0461 31.1317,-20.9896 31.1317,-20.9896"/>
</g>
<!-- v11 -->
<g id="v11_Software" class="node"><title>v11</title>
<ellipse fill="none" stroke="black" cx="97.5" cy="-11" rx="36" ry="11"/>
<text text-anchor="middle" x="97.5" y="-8.8" font-family="sans-serif" font-size="9.00">Software</text>
</g>
<!-- v6&#45;&gt;v11 -->
<g id="edge16" class="edge"><title>v6&#45;&gt;v11</title>
<path fill="none" stroke="black" d="M84.3605,-57.9883C86.8099,-49.4154 90.374,-36.9411 93.1724,-27.1466"/>
<polygon fill="black" stroke="black" points="94.556,-22.3039 95.3458,-27.7297 93.8692,-24.7077 93.1824,-27.1115 93.1824,-27.1115 93.1824,-27.1115 93.8692,-24.7077 91.0189,-26.4933 94.556,-22.3039 94.556,-22.3039"/>
</g>
<!-- v14 -->
<g id="v14_ExitRoom" class="node"><title>v14</title>
<ellipse fill="none" stroke="black" cx="930.5" cy="-11" rx="36" ry="11"/>
<text text-anchor="middle" x="930.5" y="-8.8" font-family="sans-serif" font-size="9.00">ExitRoom</text>
</g>
<!-- v9&#45;&gt;v14 -->
<g id="edge17" class="edge"><title>v9&#45;&gt;v14</title>
<path fill="none" stroke="black" d="M973.203,-57.9883C964.848,-48.9897 952.5,-35.6926 943.229,-25.7082"/>
<polygon fill="black" stroke="black" points="939.716,-21.925 944.767,-24.058 941.417,-23.757 943.118,-25.589 943.118,-25.589 943.118,-25.589 941.417,-23.757 941.47,-27.12 939.716,-21.925 939.716,-21.925"/>
</g>
<!-- v15 -->
<g id="v15_SendSoftware" class="node"><title>v15</title>
<ellipse fill="none" stroke="black" cx="1035.5" cy="-11" rx="50.5" ry="11"/>
<text text-anchor="middle" x="1035.5" y="-8.8" font-family="sans-serif" font-size="9.00">SendSoftware</text>
</g>
<!-- v9&#45;&gt;v15 -->
<g id="edge18" class="edge"><title>v9&#45;&gt;v15</title>
<path fill="none" stroke="black" d="M991.975,-57.9883C1000.49,-48.9897 1013.08,-35.6926 1022.53,-25.7082"/>
<polygon fill="black" stroke="black" points="1026.11,-21.925 1024.3,-27.1031 1024.39,-23.7407 1022.67,-25.5565 1022.67,-25.5565 1022.67,-25.5565 1024.39,-23.7407 1021.04,-24.0099 1026.11,-21.925 1026.11,-21.925"/>
</g>
<!-- v10&#45;&gt;v16 -->
<g id="edge30" class="edge"><title>v10&#45;&gt;v16</title>
<path fill="none" stroke="green" d="M476.317,-20.827C494.508,-31.6646 525.076,-49.8751 542.43,-60.2134"/>
</g>
<!-- v10&#45;&gt;v18 -->
<g id="edge31" class="edge"><title>v10&#45;&gt;v18</title>
<path fill="none" stroke="green" d="M485.187,-18.6993C525.176,-30.0094 605.231,-52.6512 641.228,-62.832"/>
</g>
<!-- v16&#45;&gt;v17 -->
<g id="edge19" class="edge"><title>v16&#45;&gt;v17</title>
<path fill="none" stroke="black" d="M555.5,-57.9883C555.5,-49.4941 555.5,-37.1697 555.5,-27.4169"/>
<polygon fill="black" stroke="black" points="555.5,-22.3039 557.75,-27.3038 555.5,-24.8039 555.5,-27.3039 555.5,-27.3039 555.5,-27.3039 555.5,-24.8039 553.25,-27.3039 555.5,-22.3039 555.5,-22.3039"/>
</g>
<!-- v18&#45;&gt;v19 -->
<g id="edge20" class="edge"><title>v18&#45;&gt;v19</title>
<path fill="none" stroke="black" d="M659.5,-57.9883C659.5,-49.4941 659.5,-37.1697 659.5,-27.4169"/>
<polygon fill="black" stroke="black" points="659.5,-22.3039 661.75,-27.3038 659.5,-24.8039 659.5,-27.3039 659.5,-27.3039 659.5,-27.3039 659.5,-24.8039 657.25,-27.3039 659.5,-22.3039 659.5,-22.3039"/>
</g>
<!-- v18&#45;&gt;v20 -->
<g id="edge21" class="edge"><title>v18&#45;&gt;v20</title>
<path fill="none" stroke="black" d="M673.619,-60.679C691.692,-51.3076 723.232,-34.9536 744.722,-23.8106"/>
<polygon fill="black" stroke="black" points="749.416,-21.3771 746.013,-25.6762 747.196,-22.5279 744.977,-23.6787 744.977,-23.6787 744.977,-23.6787 747.196,-22.5279 743.941,-21.6813 749.416,-21.3771 749.416,-21.3771"/>
</g>
</g>
</svg>
