<?xml version="1.0" encoding="UTF-8" standalone="no"?>
<?xml-stylesheet href="style.css" type="text/css"?>
<!DOCTYPE svg PUBLIC "-//W3C//DTD SVG 1.1//EN"
 "http://www.w3.org/Graphics/SVG/1.1/DTD/svg11.dtd">
<!-- Generated by graphviz version 2.38.0 (20140413.2041)
 -->
<!-- Title: 53.svg Pages: 1 -->
<svg width="1136pt" height="374pt"
 viewBox="0.00 0.00 1135.50 374.00" xmlns="http://www.w3.org/2000/svg" xmlns:xlink="http://www.w3.org/1999/xlink">
<g id="graph0" class="graph" transform="scale(1 1) rotate(0) translate(4 370)">
<title>53.svg</title>
<polygon fill="white" stroke="none" points="-4,4 -4,-370 1131.5,-370 1131.5,4 -4,4"/>
<!-- r0 -->
<g id="node1" class="node"><title>r0</title>
<polygon fill="none" stroke="black" stroke-dasharray="5,2" points="709,-366 686,-366 686,-348 709,-348 709,-366"/>
<text text-anchor="middle" x="697.5" y="-354.8" font-family="serif" font-size="9.00">0</text>
</g>
<!-- v0 -->
<g id="v0_Building" class="node"><title>v0</title>
<ellipse fill="none" stroke="black" cx="697.5" cy="-301" rx="36" ry="11"/>
<text text-anchor="middle" x="697.5" y="-298.8" font-family="sans-serif" font-size="9.00">Building</text>
</g>
<!-- r0&#45;&gt;v0 -->
<g id="edge1" class="edge"><title>r0&#45;&gt;v0</title>
<path fill="none" stroke="black" d="M697.5,-347.562C697.5,-339.453 697.5,-327.014 697.5,-317.181"/>
<polygon fill="black" stroke="black" points="697.5,-312.03 699.75,-317.03 697.5,-314.53 697.5,-317.03 697.5,-317.03 697.5,-317.03 697.5,-314.53 695.25,-317.03 697.5,-312.03 697.5,-312.03"/>
</g>
<!-- r1 -->
<g id="node2" class="node"><title>r1</title>
<polygon fill="none" stroke="black" stroke-dasharray="5,2" points="1005,-366 982,-366 982,-348 1005,-348 1005,-366"/>
<text text-anchor="middle" x="993.5" y="-354.8" font-family="serif" font-size="9.00">1</text>
</g>
<!-- v7 -->
<g id="v7_RulesKeywords" class="node"><title>v7</title>
<ellipse fill="none" stroke="black" cx="993.5" cy="-69" rx="54" ry="11"/>
<text text-anchor="middle" x="993.5" y="-66.8" font-family="sans-serif" font-size="9.00">RulesKeywords</text>
</g>
<!-- r1&#45;&gt;v7 -->
<g id="edge2" class="edge"><title>r1&#45;&gt;v7</title>
<path fill="none" stroke="black" d="M993.5,-347.849C993.5,-329.373 993.5,-282.889 993.5,-244 993.5,-244 993.5,-244 993.5,-184 993.5,-148.604 993.5,-107.026 993.5,-85.1783"/>
<polygon fill="black" stroke="black" points="993.5,-80.0648 995.75,-85.0648 993.5,-82.5648 993.5,-85.0648 993.5,-85.0648 993.5,-85.0648 993.5,-82.5648 991.25,-85.0648 993.5,-80.0648 993.5,-80.0648"/>
</g>
<!-- e1 -->
<g id="node3" class="node"><title>e1</title>
</g>
<!-- v4 -->
<g id="v4_Laptop" class="node"><title>v4</title>
<ellipse fill="none" stroke="black" cx="637.5" cy="-69" rx="29" ry="11"/>
<text text-anchor="middle" x="637.5" y="-66.8" font-family="sans-serif" font-size="9.00">Laptop</text>
</g>
<!-- e1&#45;&gt;v4 -->
<g id="edge24" class="edge"><title>e1&#45;&gt;v4</title>
<path fill="none" stroke="green" d="M637.5,-122.167C637.5,-113.586 637.5,-92.5957 637.5,-80.0117"/>
<polygon fill="green" stroke="green" points="641,-125.3 634,-125.3 634,-123.9 641,-123.9 641,-125.3"/>
<polyline fill="none" stroke="green" points="637.5,-126 637.5,-122.5 "/>
</g>
<!-- v1 -->
<g id="v1_Floor" class="node"><title>v1</title>
<ellipse fill="none" stroke="black" cx="516.5" cy="-243" rx="25" ry="11"/>
<text text-anchor="middle" x="516.5" y="-240.8" font-family="sans-serif" font-size="9.00">Floor</text>
</g>
<!-- v0&#45;&gt;v1 -->
<g id="edge3" class="edge"><title>v0&#45;&gt;v1</title>
<path fill="none" stroke="black" d="M673.837,-292.679C639.405,-282.026 575.808,-262.349 540.941,-251.562"/>
<polygon fill="black" stroke="black" points="536.013,-250.037 541.454,-249.365 538.401,-250.776 540.789,-251.515 540.789,-251.515 540.789,-251.515 538.401,-250.776 540.124,-253.664 536.013,-250.037 536.013,-250.037"/>
</g>
<!-- v6 -->
<g id="v6_InstallationBus" class="node"><title>v6</title>
<ellipse fill="none" stroke="black" cx="859.5" cy="-69" rx="61" ry="11"/>
<text text-anchor="middle" x="859.5" y="-66.8" font-family="sans-serif" font-size="9.00">InstallationBus</text>
</g>
<!-- v0&#45;&gt;v6 -->
<g id="edge4" class="edge"><title>v0&#45;&gt;v6</title>
<path fill="none" stroke="black" d="M704.461,-290.117C730.106,-253.707 819.383,-126.956 849.495,-84.2053"/>
<polygon fill="black" stroke="black" points="852.383,-80.105 851.343,-85.4885 850.943,-82.1489 849.503,-84.1928 849.503,-84.1928 849.503,-84.1928 850.943,-82.1489 847.664,-82.8972 852.383,-80.105 852.383,-80.105"/>
</g>
<!-- v2 -->
<g id="v2_Room" class="node"><title>v2</title>
<ellipse fill="none" stroke="black" cx="688.5" cy="-185" rx="21.5" ry="11"/>
<text text-anchor="middle" x="688.5" y="-182.8" font-family="sans-serif" font-size="9.00">Room</text>
</g>
<!-- v1&#45;&gt;v2 -->
<g id="edge5" class="edge"><title>v1&#45;&gt;v2</title>
<path fill="none" stroke="black" d="M535.564,-235.793C567.577,-225.37 631.972,-204.405 666.094,-193.295"/>
<polygon fill="black" stroke="black" points="670.901,-191.73 666.844,-195.417 668.524,-192.504 666.147,-193.278 666.147,-193.278 666.147,-193.278 668.524,-192.504 665.45,-191.138 670.901,-191.73 670.901,-191.73"/>
</g>
<!-- v9 -->
<g id="v9_Room" class="node"><title>v9</title>
<ellipse fill="none" stroke="black" cx="181.5" cy="-127" rx="21.5" ry="11"/>
<text text-anchor="middle" x="181.5" y="-124.8" font-family="sans-serif" font-size="9.00">Room</text>
</g>
<!-- v1&#45;&gt;v9 -->
<g id="edge6" class="edge"><title>v1&#45;&gt;v9</title>
<path fill="none" stroke="black" d="M494.68,-237.571C460.636,-230.399 393.025,-215.099 337.5,-196 287.057,-178.649 230.168,-151.947 201.018,-137.716"/>
<polygon fill="black" stroke="black" points="196.244,-135.375 201.724,-135.556 198.489,-136.476 200.733,-137.576 200.733,-137.576 200.733,-137.576 198.489,-136.476 199.743,-139.597 196.244,-135.375 196.244,-135.375"/>
</g>
<!-- v15 -->
<g id="v15_Hallway" class="node"><title>v15</title>
<ellipse fill="none" stroke="black" cx="324.5" cy="-11" rx="32.5" ry="11"/>
<text text-anchor="middle" x="324.5" y="-8.8" font-family="sans-serif" font-size="9.00">Hallway</text>
</g>
<!-- v1&#45;&gt;v15 -->
<g id="edge7" class="edge"><title>v1&#45;&gt;v15</title>
<path fill="none" stroke="black" d="M508.494,-232.41C478.372,-196.326 371.756,-68.6084 336.164,-25.9726"/>
<polygon fill="black" stroke="black" points="332.754,-21.888 337.686,-24.2845 334.356,-23.8072 335.959,-25.7264 335.959,-25.7264 335.959,-25.7264 334.356,-23.8072 334.231,-27.1683 332.754,-21.888 332.754,-21.888"/>
</g>
<!-- v19 -->
<g id="v19_Room" class="node"><title>v19</title>
<ellipse fill="none" stroke="black" cx="516.5" cy="-69" rx="21.5" ry="11"/>
<text text-anchor="middle" x="516.5" y="-66.8" font-family="sans-serif" font-size="9.00">Room</text>
</g>
<!-- v1&#45;&gt;v19 -->
<g id="edge8" class="edge"><title>v1&#45;&gt;v19</title>
<path fill="none" stroke="black" d="M516.5,-231.756C516.5,-202.786 516.5,-120.136 516.5,-85.5335"/>
<polygon fill="black" stroke="black" points="516.5,-80.4081 518.75,-85.408 516.5,-82.9081 516.5,-85.4081 516.5,-85.4081 516.5,-85.4081 516.5,-82.9081 514.25,-85.4081 516.5,-80.4081 516.5,-80.4081"/>
</g>
<!-- v3 -->
<g id="v3_Visitor" class="node"><title>v3</title>
<ellipse fill="none" stroke="black" cx="688.5" cy="-127" rx="32.5" ry="11"/>
<text text-anchor="middle" x="688.5" y="-124.8" font-family="sans-serif" font-size="9.00">Visitor</text>
</g>
<!-- v2&#45;&gt;v3 -->
<g id="edge9" class="edge"><title>v2&#45;&gt;v3</title>
<path fill="none" stroke="black" d="M688.5,-173.988C688.5,-165.494 688.5,-153.17 688.5,-143.417"/>
<polygon fill="black" stroke="black" points="688.5,-138.304 690.75,-143.304 688.5,-140.804 688.5,-143.304 688.5,-143.304 688.5,-143.304 688.5,-140.804 686.25,-143.304 688.5,-138.304 688.5,-138.304"/>
</g>
<!-- v5 -->
<g id="v5_SmartLight" class="node"><title>v5</title>
<ellipse fill="none" stroke="black" cx="786.5" cy="-11" rx="43" ry="11"/>
<text text-anchor="middle" x="786.5" y="-8.8" font-family="sans-serif" font-size="9.00">SmartLight</text>
</g>
<!-- v2&#45;&gt;v5 -->
<g id="edge10" class="edge"><title>v2&#45;&gt;v5</title>
<path fill="none" stroke="black" d="M698.217,-174.832C707.169,-166.013 720.404,-151.992 729.5,-138 753.811,-100.602 772.856,-51.124 781.475,-26.7963"/>
<polygon fill="black" stroke="black" points="783.154,-22.0002 783.625,-27.4628 782.328,-24.3598 781.502,-26.7194 781.502,-26.7194 781.502,-26.7194 782.328,-24.3598 779.378,-25.9759 783.154,-22.0002 783.154,-22.0002"/>
</g>
<!-- v2&#45;&gt;v15 -->
<g id="edge23" class="edge"><title>v2&#45;&gt;v15</title>
<path fill="none" stroke="green" d="M673.323,-176.828C614.928,-149.235 404.894,-49.9884 342.255,-20.3896"/>
</g>
<!-- v3&#45;&gt;v4 -->
<g id="edge11" class="edge"><title>v3&#45;&gt;v4</title>
<path fill="none" stroke="black" d="M679.616,-116.246C671.353,-107.172 658.965,-93.5697 649.762,-83.4636"/>
<polygon fill="black" stroke="black" points="646.282,-79.6427 651.312,-81.8244 647.965,-81.491 649.648,-83.3394 649.648,-83.3394 649.648,-83.3394 647.965,-81.491 647.985,-84.8544 646.282,-79.6427 646.282,-79.6427"/>
</g>
<!-- v10 -->
<g id="v10_Software" class="node"><title>v10</title>
<ellipse fill="none" stroke="black" cx="627.5" cy="-11" rx="36" ry="11"/>
<text text-anchor="middle" x="627.5" y="-8.8" font-family="sans-serif" font-size="9.00">Software</text>
</g>
<!-- v4&#45;&gt;v10 -->
<g id="edge12" class="edge"><title>v4&#45;&gt;v10</title>
<path fill="none" stroke="black" d="M635.712,-57.9883C634.195,-49.4941 631.995,-37.1697 630.253,-27.4169"/>
<polygon fill="black" stroke="black" points="629.34,-22.3039 632.434,-26.8305 629.779,-24.7649 630.219,-27.226 630.219,-27.226 630.219,-27.226 629.779,-24.7649 628.004,-27.6216 629.34,-22.3039 629.34,-22.3039"/>
</g>
<!-- v14 -->
<g id="v14_Data" class="node"><title>v14</title>
<ellipse fill="none" stroke="black" cx="703.5" cy="-11" rx="21.5" ry="11"/>
<text text-anchor="middle" x="703.5" y="-8.8" font-family="sans-serif" font-size="9.00">Data</text>
</g>
<!-- v4&#45;&gt;v14 -->
<g id="edge13" class="edge"><title>v4&#45;&gt;v14</title>
<path fill="none" stroke="black" d="M648.399,-58.7527C659.583,-49.2632 677.035,-34.4551 689.295,-24.0526"/>
<polygon fill="black" stroke="black" points="693.237,-20.7077 690.88,-25.6583 691.331,-22.3252 689.425,-23.9427 689.425,-23.9427 689.425,-23.9427 691.331,-22.3252 687.969,-22.227 693.237,-20.7077 693.237,-20.7077"/>
</g>
<!-- v5&#45;&gt;v6 -->
<g id="edge25" class="edge"><title>v5&#45;&gt;v6</title>
<path fill="none" stroke="green" d="M798.951,-21.5512C812.178,-31.698 832.998,-47.6694 846.449,-57.9883"/>
</g>
<!-- v11 -->
<g id="v11_HVAC" class="node"><title>v11</title>
<ellipse fill="none" stroke="black" cx="134.5" cy="-69" rx="21.5" ry="11"/>
<text text-anchor="middle" x="134.5" y="-66.8" font-family="sans-serif" font-size="9.00">HVAC</text>
</g>
<!-- v6&#45;&gt;v11 -->
<g id="edge26" class="edge"><title>v6&#45;&gt;v11</title>
<path fill="none" stroke="green" d="M836.51,-79.2657C819.927,-86.0884 796.801,-94.4264 775.5,-98 533.801,-138.548 234.127,-87.9868 154.624,-72.9647"/>
</g>
<!-- v13 -->
<g id="v13_Data" class="node"><title>v13</title>
<ellipse fill="none" stroke="black" cx="869.5" cy="-11" rx="21.5" ry="11"/>
<text text-anchor="middle" x="869.5" y="-8.8" font-family="sans-serif" font-size="9.00">Data</text>
</g>
<!-- v6&#45;&gt;v13 -->
<g id="edge14" class="edge"><title>v6&#45;&gt;v13</title>
<path fill="none" stroke="black" d="M861.288,-57.9883C862.805,-49.4941 865.005,-37.1697 866.747,-27.4169"/>
<polygon fill="black" stroke="black" points="867.66,-22.3039 868.996,-27.6216 867.221,-24.7649 866.781,-27.226 866.781,-27.226 866.781,-27.226 867.221,-24.7649 864.566,-26.8305 867.66,-22.3039 867.66,-22.3039"/>
</g>
<!-- v17 -->
<g id="v17_SmartLight" class="node"><title>v17</title>
<ellipse fill="none" stroke="black" cx="230.5" cy="-11" rx="43" ry="11"/>
<text text-anchor="middle" x="230.5" y="-8.8" font-family="sans-serif" font-size="9.00">SmartLight</text>
</g>
<!-- v6&#45;&gt;v17 -->
<g id="edge27" class="edge"><title>v6&#45;&gt;v17</title>
<path fill="none" stroke="green" d="M803.976,-64.36C679.721,-56.0859 382.329,-35.5362 282.5,-22 275.759,-21.0859 268.57,-19.8647 261.755,-18.5903"/>
</g>
<!-- v18 -->
<g id="v18_FireAlarm" class="node"><title>v18</title>
<ellipse fill="none" stroke="black" cx="39.5" cy="-11" rx="39.5" ry="11"/>
<text text-anchor="middle" x="39.5" y="-8.8" font-family="sans-serif" font-size="9.00">FireAlarm</text>
</g>
<!-- v6&#45;&gt;v18 -->
<g id="edge28" class="edge"><title>v6&#45;&gt;v18</title>
<path fill="none" stroke="green" d="M802.733,-64.8342C630.549,-55.2026 123.774,-26.6279 88.5,-22 81.9575,-21.1416 74.981,-19.9116 68.4049,-18.6062"/>
</g>
<!-- v20 -->
<g id="v20_SmartLight" class="node"><title>v20</title>
<ellipse fill="none" stroke="black" cx="530.5" cy="-11" rx="43" ry="11"/>
<text text-anchor="middle" x="530.5" y="-8.8" font-family="sans-serif" font-size="9.00">SmartLight</text>
</g>
<!-- v6&#45;&gt;v20 -->
<g id="edge29" class="edge"><title>v6&#45;&gt;v20</title>
<path fill="none" stroke="green" d="M816.26,-61.1683C761.705,-52.4688 665.034,-36.7865 582.5,-22 576.075,-20.8489 569.214,-19.5672 562.653,-18.3157"/>
</g>
<!-- v21 -->
<g id="v21_Workstation" class="node"><title>v21</title>
<ellipse fill="none" stroke="black" cx="422.5" cy="-11" rx="47" ry="11"/>
<text text-anchor="middle" x="422.5" y="-8.8" font-family="sans-serif" font-size="9.00">Workstation</text>
</g>
<!-- v6&#45;&gt;v21 -->
<g id="edge30" class="edge"><title>v6&#45;&gt;v21</title>
<path fill="none" stroke="green" d="M808.841,-62.8055C735.728,-55.0995 596.45,-39.6371 478.5,-22 471.565,-20.963 464.169,-19.732 457.102,-18.4944"/>
</g>
<!-- v8 -->
<g id="v8_ConnectDevice" class="node"><title>v8</title>
<ellipse fill="none" stroke="black" cx="983.5" cy="-11" rx="54" ry="11"/>
<text text-anchor="middle" x="983.5" y="-8.8" font-family="sans-serif" font-size="9.00">ConnectDevice</text>
</g>
<!-- v7&#45;&gt;v8 -->
<g id="edge15" class="edge"><title>v7&#45;&gt;v8</title>
<path fill="none" stroke="black" d="M991.712,-57.9883C990.195,-49.4941 987.995,-37.1697 986.253,-27.4169"/>
<polygon fill="black" stroke="black" points="985.34,-22.3039 988.434,-26.8305 985.779,-24.7649 986.219,-27.226 986.219,-27.226 986.219,-27.226 985.779,-24.7649 984.004,-27.6216 985.34,-22.3039 985.34,-22.3039"/>
</g>
<!-- v16 -->
<g id="v16_ExitRoom" class="node"><title>v16</title>
<ellipse fill="none" stroke="black" cx="1091.5" cy="-11" rx="36" ry="11"/>
<text text-anchor="middle" x="1091.5" y="-8.8" font-family="sans-serif" font-size="9.00">ExitRoom</text>
</g>
<!-- v7&#45;&gt;v16 -->
<g id="edge16" class="edge"><title>v7&#45;&gt;v16</title>
<path fill="none" stroke="black" d="M1010.12,-58.5004C1027.04,-48.8346 1053.27,-33.8448 1071.36,-23.5106"/>
<polygon fill="black" stroke="black" points="1075.77,-20.9896 1072.54,-25.4239 1073.6,-22.23 1071.43,-23.4703 1071.43,-23.4703 1071.43,-23.4703 1073.6,-22.23 1070.31,-21.5168 1075.77,-20.9896 1075.77,-20.9896"/>
</g>
<!-- v9&#45;&gt;v11 -->
<g id="edge17" class="edge"><title>v9&#45;&gt;v11</title>
<path fill="none" stroke="black" d="M173.527,-116.5C165.851,-107.354 154.174,-93.4415 145.592,-83.2165"/>
<polygon fill="black" stroke="black" points="142.355,-79.3593 147.293,-81.7428 143.962,-81.2743 145.57,-83.1892 145.57,-83.1892 145.57,-83.1892 143.962,-81.2743 143.846,-84.6357 142.355,-79.3593 142.355,-79.3593"/>
</g>
<!-- v9&#45;&gt;v15 -->
<g id="edge31" class="edge"><title>v9&#45;&gt;v15</title>
<path fill="none" stroke="green" d="M192.248,-117.431C218.49,-96.5118 285.661,-42.9623 312.832,-21.3019"/>
</g>
<!-- v9&#45;&gt;v17 -->
<g id="edge18" class="edge"><title>v9&#45;&gt;v17</title>
<path fill="none" stroke="black" d="M185.848,-115.883C194.508,-95.7373 213.943,-50.521 224.077,-26.9438"/>
<polygon fill="black" stroke="black" points="226.091,-22.2579 226.184,-27.7401 225.104,-24.5548 224.116,-26.8516 224.116,-26.8516 224.116,-26.8516 225.104,-24.5548 222.049,-25.9631 226.091,-22.2579 226.091,-22.2579"/>
</g>
<!-- v9&#45;&gt;v18 -->
<g id="edge19" class="edge"><title>v9&#45;&gt;v18</title>
<path fill="none" stroke="black" d="M166.62,-118.834C150.309,-110.623 123.763,-96.1949 103.5,-80 82.8949,-63.5319 62.6295,-40.5291 50.5951,-25.95"/>
<polygon fill="black" stroke="black" points="47.4256,-22.0738 52.3325,-24.5203 49.0081,-24.0092 50.5906,-25.9446 50.5906,-25.9446 50.5906,-25.9446 49.0081,-24.0092 48.8488,-27.3688 47.4256,-22.0738 47.4256,-22.0738"/>
</g>
<!-- v12 -->
<g id="v12_Software" class="node"><title>v12</title>
<ellipse fill="none" stroke="black" cx="133.5" cy="-11" rx="36" ry="11"/>
<text text-anchor="middle" x="133.5" y="-8.8" font-family="sans-serif" font-size="9.00">Software</text>
</g>
<!-- v11&#45;&gt;v12 -->
<g id="edge20" class="edge"><title>v11&#45;&gt;v12</title>
<path fill="none" stroke="black" d="M134.321,-57.9883C134.17,-49.4941 133.949,-37.1697 133.775,-27.4169"/>
<polygon fill="black" stroke="black" points="133.684,-22.3039 136.023,-27.2629 133.729,-24.8035 133.773,-27.3031 133.773,-27.3031 133.773,-27.3031 133.729,-24.8035 131.524,-27.3433 133.684,-22.3039 133.684,-22.3039"/>
</g>
<!-- v15&#45;&gt;v19 -->
<g id="edge32" class="edge"><title>v15&#45;&gt;v19</title>
<path fill="none" stroke="green" d="M347.677,-18.7599C386.396,-30.053 463.43,-52.5214 498.437,-62.7317"/>
</g>
<!-- v19&#45;&gt;v20 -->
<g id="edge21" class="edge"><title>v19&#45;&gt;v20</title>
<path fill="none" stroke="black" d="M519.003,-57.9883C521.126,-49.4941 524.208,-37.1697 526.646,-27.4169"/>
<polygon fill="black" stroke="black" points="527.924,-22.3039 528.894,-27.7003 527.318,-24.7292 526.711,-27.1546 526.711,-27.1546 526.711,-27.1546 527.318,-24.7292 524.528,-26.6089 527.924,-22.3039 527.924,-22.3039"/>
</g>
<!-- v19&#45;&gt;v21 -->
<g id="edge22" class="edge"><title>v19&#45;&gt;v21</title>
<path fill="none" stroke="black" d="M503.43,-60.2134C487.711,-50.849 461.15,-35.0258 442.766,-24.0734"/>
<polygon fill="black" stroke="black" points="438.28,-21.4008 443.727,-22.0268 440.428,-22.6803 442.575,-23.9598 442.575,-23.9598 442.575,-23.9598 440.428,-22.6803 441.424,-25.8928 438.28,-21.4008 438.28,-21.4008"/>
</g>
</g>
</svg>
