<?xml version="1.0" encoding="UTF-8" standalone="no"?>
<?xml-stylesheet href="style.css" type="text/css"?>
<!DOCTYPE svg PUBLIC "-//W3C//DTD SVG 1.1//EN"
 "http://www.w3.org/Graphics/SVG/1.1/DTD/svg11.dtd">
<!-- Generated by graphviz version 2.38.0 (20140413.2041)
 -->
<!-- Title: 59.svg Pages: 1 -->
<svg width="969pt" height="374pt"
 viewBox="0.00 0.00 968.50 374.00" xmlns="http://www.w3.org/2000/svg" xmlns:xlink="http://www.w3.org/1999/xlink">
<g id="graph0" class="graph" transform="scale(1 1) rotate(0) translate(4 370)">
<title>59.svg</title>
<polygon fill="white" stroke="none" points="-4,4 -4,-370 964.5,-370 964.5,4 -4,4"/>
<!-- r0 -->
<g id="node1" class="node"><title>r0</title>
<polygon fill="none" stroke="black" stroke-dasharray="5,2" points="664,-366 641,-366 641,-348 664,-348 664,-366"/>
<text text-anchor="middle" x="652.5" y="-354.8" font-family="serif" font-size="9.00">0</text>
</g>
<!-- v0 -->
<g id="v0_Building" class="node"><title>v0</title>
<ellipse fill="none" stroke="black" cx="652.5" cy="-301" rx="36" ry="11"/>
<text text-anchor="middle" x="652.5" y="-298.8" font-family="sans-serif" font-size="9.00">Building</text>
</g>
<!-- r0&#45;&gt;v0 -->
<g id="edge1" class="edge"><title>r0&#45;&gt;v0</title>
<path fill="none" stroke="black" d="M652.5,-347.562C652.5,-339.453 652.5,-327.014 652.5,-317.181"/>
<polygon fill="black" stroke="black" points="652.5,-312.03 654.75,-317.03 652.5,-314.53 652.5,-317.03 652.5,-317.03 652.5,-317.03 652.5,-314.53 650.25,-317.03 652.5,-312.03 652.5,-312.03"/>
</g>
<!-- r1 -->
<g id="node2" class="node"><title>r1</title>
<polygon fill="none" stroke="black" stroke-dasharray="5,2" points="918,-366 895,-366 895,-348 918,-348 918,-366"/>
<text text-anchor="middle" x="906.5" y="-354.8" font-family="serif" font-size="9.00">1</text>
</g>
<!-- v6 -->
<g id="v6_RulesKeywords" class="node"><title>v6</title>
<ellipse fill="none" stroke="black" cx="906.5" cy="-69" rx="54" ry="11"/>
<text text-anchor="middle" x="906.5" y="-66.8" font-family="sans-serif" font-size="9.00">RulesKeywords</text>
</g>
<!-- r1&#45;&gt;v6 -->
<g id="edge2" class="edge"><title>r1&#45;&gt;v6</title>
<path fill="none" stroke="black" d="M906.5,-347.849C906.5,-329.373 906.5,-282.889 906.5,-244 906.5,-244 906.5,-244 906.5,-184 906.5,-148.604 906.5,-107.026 906.5,-85.1783"/>
<polygon fill="black" stroke="black" points="906.5,-80.0648 908.75,-85.0648 906.5,-82.5648 906.5,-85.0648 906.5,-85.0648 906.5,-85.0648 906.5,-82.5648 904.25,-85.0648 906.5,-80.0648 906.5,-80.0648"/>
</g>
<!-- e3 -->
<g id="node3" class="node"><title>e3</title>
</g>
<!-- v5 -->
<g id="v5_Laptop" class="node"><title>v5</title>
<ellipse fill="none" stroke="black" cx="403.5" cy="-69" rx="29" ry="11"/>
<text text-anchor="middle" x="403.5" y="-66.8" font-family="sans-serif" font-size="9.00">Laptop</text>
</g>
<!-- e3&#45;&gt;v5 -->
<g id="edge25" class="edge"><title>e3&#45;&gt;v5</title>
<path fill="none" stroke="green" d="M403.5,-122.167C403.5,-113.586 403.5,-92.5957 403.5,-80.0117"/>
<polygon fill="green" stroke="green" points="407,-125.3 400,-125.3 400,-123.9 407,-123.9 407,-125.3"/>
<polyline fill="none" stroke="green" points="403.5,-126 403.5,-122.5 "/>
</g>
<!-- v1 -->
<g id="v1_Floor" class="node"><title>v1</title>
<ellipse fill="none" stroke="black" cx="560.5" cy="-243" rx="25" ry="11"/>
<text text-anchor="middle" x="560.5" y="-240.8" font-family="sans-serif" font-size="9.00">Floor</text>
</g>
<!-- v0&#45;&gt;v1 -->
<g id="edge3" class="edge"><title>v0&#45;&gt;v1</title>
<path fill="none" stroke="black" d="M637.308,-290.753C621.26,-280.985 595.954,-265.581 578.815,-255.148"/>
<polygon fill="black" stroke="black" points="574.211,-252.346 579.652,-253.024 576.347,-253.646 578.482,-254.946 578.482,-254.946 578.482,-254.946 576.347,-253.646 577.312,-256.868 574.211,-252.346 574.211,-252.346"/>
</g>
<!-- v11 -->
<g id="v11_InstallationBus" class="node"><title>v11</title>
<ellipse fill="none" stroke="black" cx="758.5" cy="-69" rx="61" ry="11"/>
<text text-anchor="middle" x="758.5" y="-66.8" font-family="sans-serif" font-size="9.00">InstallationBus</text>
</g>
<!-- v0&#45;&gt;v11 -->
<g id="edge4" class="edge"><title>v0&#45;&gt;v11</title>
<path fill="none" stroke="black" d="M657.191,-289.82C674.089,-253.155 731.889,-127.741 751.741,-84.6657"/>
<polygon fill="black" stroke="black" points="753.863,-80.062 753.813,-85.5448 752.816,-82.3325 751.77,-84.603 751.77,-84.603 751.77,-84.603 752.816,-82.3325 749.726,-83.6612 753.863,-80.062 753.863,-80.062"/>
</g>
<!-- v2 -->
<g id="v2_Room" class="node"><title>v2</title>
<ellipse fill="none" stroke="black" cx="649.5" cy="-69" rx="21.5" ry="11"/>
<text text-anchor="middle" x="649.5" y="-66.8" font-family="sans-serif" font-size="9.00">Room</text>
</g>
<!-- v1&#45;&gt;v2 -->
<g id="edge5" class="edge"><title>v1&#45;&gt;v2</title>
<path fill="none" stroke="black" d="M565.67,-232.009C580.662,-203.034 624.214,-118.867 641.901,-84.6863"/>
<polygon fill="black" stroke="black" points="644.316,-80.0185 644.016,-85.4932 643.167,-82.2388 642.018,-84.4592 642.018,-84.4592 642.018,-84.4592 643.167,-82.2388 640.02,-83.4252 644.316,-80.0185 644.316,-80.0185"/>
</g>
<!-- v3 -->
<g id="v3_Hallway" class="node"><title>v3</title>
<ellipse fill="none" stroke="black" cx="479.5" cy="-185" rx="32.5" ry="11"/>
<text text-anchor="middle" x="479.5" y="-182.8" font-family="sans-serif" font-size="9.00">Hallway</text>
</g>
<!-- v1&#45;&gt;v3 -->
<g id="edge6" class="edge"><title>v1&#45;&gt;v3</title>
<path fill="none" stroke="black" d="M547.844,-233.25C534.178,-223.802 512.316,-208.687 497.007,-198.104"/>
<polygon fill="black" stroke="black" points="492.876,-195.247 498.268,-196.24 494.932,-196.669 496.988,-198.091 496.988,-198.091 496.988,-198.091 494.932,-196.669 495.709,-199.941 492.876,-195.247 492.876,-195.247"/>
</g>
<!-- v12 -->
<g id="v12_Room" class="node"><title>v12</title>
<ellipse fill="none" stroke="black" cx="181.5" cy="-127" rx="21.5" ry="11"/>
<text text-anchor="middle" x="181.5" y="-124.8" font-family="sans-serif" font-size="9.00">Room</text>
</g>
<!-- v1&#45;&gt;v12 -->
<g id="edge7" class="edge"><title>v1&#45;&gt;v12</title>
<path fill="none" stroke="black" d="M540.921,-236.111C476.806,-216.826 273.322,-155.619 204.503,-134.919"/>
<polygon fill="black" stroke="black" points="199.403,-133.385 204.839,-132.671 201.797,-134.105 204.191,-134.825 204.191,-134.825 204.191,-134.825 201.797,-134.105 203.543,-136.98 199.403,-133.385 199.403,-133.385"/>
</g>
<!-- v18 -->
<g id="v18_Room" class="node"><title>v18</title>
<ellipse fill="none" stroke="black" cx="560.5" cy="-69" rx="21.5" ry="11"/>
<text text-anchor="middle" x="560.5" y="-66.8" font-family="sans-serif" font-size="9.00">Room</text>
</g>
<!-- v1&#45;&gt;v18 -->
<g id="edge8" class="edge"><title>v1&#45;&gt;v18</title>
<path fill="none" stroke="black" d="M560.5,-231.756C560.5,-202.786 560.5,-120.136 560.5,-85.5335"/>
<polygon fill="black" stroke="black" points="560.5,-80.4081 562.75,-85.408 560.5,-82.9081 560.5,-85.4081 560.5,-85.4081 560.5,-85.4081 560.5,-82.9081 558.25,-85.4081 560.5,-80.4081 560.5,-80.4081"/>
</g>
<!-- v2&#45;&gt;v3 -->
<g id="edge22" class="edge"><title>v2&#45;&gt;v3</title>
<path fill="none" stroke="green" d="M629.582,-73.4062C569.722,-83.6648 395.419,-113.705 393.5,-116 371.215,-142.646 424.41,-165.859 456.792,-176.992"/>
</g>
<!-- v7 -->
<g id="v7_SmartLight" class="node"><title>v7</title>
<ellipse fill="none" stroke="black" cx="702.5" cy="-11" rx="43" ry="11"/>
<text text-anchor="middle" x="702.5" y="-8.8" font-family="sans-serif" font-size="9.00">SmartLight</text>
</g>
<!-- v2&#45;&gt;v7 -->
<g id="edge9" class="edge"><title>v2&#45;&gt;v7</title>
<path fill="none" stroke="black" d="M658.252,-58.7527C666.765,-49.7573 679.802,-35.9828 689.522,-25.7121"/>
<polygon fill="black" stroke="black" points="693.2,-21.8266 691.397,-27.0047 691.481,-23.6423 689.763,-25.4581 689.763,-25.4581 689.763,-25.4581 691.481,-23.6423 688.129,-23.9114 693.2,-21.8266 693.2,-21.8266"/>
</g>
<!-- v4 -->
<g id="v4_Visitor" class="node"><title>v4</title>
<ellipse fill="none" stroke="black" cx="458.5" cy="-127" rx="32.5" ry="11"/>
<text text-anchor="middle" x="458.5" y="-124.8" font-family="sans-serif" font-size="9.00">Visitor</text>
</g>
<!-- v3&#45;&gt;v4 -->
<g id="edge10" class="edge"><title>v3&#45;&gt;v4</title>
<path fill="none" stroke="black" d="M475.746,-173.988C472.531,-165.415 467.853,-152.941 464.18,-143.147"/>
<polygon fill="black" stroke="black" points="462.364,-138.304 466.226,-142.195 463.242,-140.645 464.12,-142.986 464.12,-142.986 464.12,-142.986 463.242,-140.645 462.013,-143.776 462.364,-138.304 462.364,-138.304"/>
</g>
<!-- v3&#45;&gt;v12 -->
<g id="edge23" class="edge"><title>v3&#45;&gt;v12</title>
<path fill="none" stroke="green" d="M452.264,-178.882C392.924,-167.731 253.138,-141.462 201.299,-131.721"/>
</g>
<!-- v3&#45;&gt;v18 -->
<g id="edge24" class="edge"><title>v3&#45;&gt;v18</title>
<path fill="none" stroke="green" d="M486.688,-173.883C502.176,-152.086 538.515,-100.942 553.672,-79.6091"/>
</g>
<!-- v4&#45;&gt;v5 -->
<g id="edge11" class="edge"><title>v4&#45;&gt;v5</title>
<path fill="none" stroke="black" d="M448.92,-116.246C440.008,-107.172 426.649,-93.5697 416.723,-83.4636"/>
<polygon fill="black" stroke="black" points="412.97,-79.6427 418.079,-81.6333 414.722,-81.4263 416.474,-83.2099 416.474,-83.2099 416.474,-83.2099 414.722,-81.4263 414.869,-84.7865 412.97,-79.6427 412.97,-79.6427"/>
</g>
<!-- v8 -->
<g id="v8_Software" class="node"><title>v8</title>
<ellipse fill="none" stroke="black" cx="327.5" cy="-11" rx="36" ry="11"/>
<text text-anchor="middle" x="327.5" y="-8.8" font-family="sans-serif" font-size="9.00">Software</text>
</g>
<!-- v5&#45;&gt;v8 -->
<g id="edge12" class="edge"><title>v5&#45;&gt;v8</title>
<path fill="none" stroke="black" d="M391.289,-59.0026C378.589,-49.6442 358.61,-34.9234 344.398,-24.4514"/>
<polygon fill="black" stroke="black" points="340.187,-21.3485 345.547,-22.5032 342.2,-22.8315 344.213,-24.3145 344.213,-24.3145 344.213,-24.3145 342.2,-22.8315 342.878,-26.1259 340.187,-21.3485 340.187,-21.3485"/>
</g>
<!-- v9 -->
<g id="v9_Data" class="node"><title>v9</title>
<ellipse fill="none" stroke="black" cx="403.5" cy="-11" rx="21.5" ry="11"/>
<text text-anchor="middle" x="403.5" y="-8.8" font-family="sans-serif" font-size="9.00">Data</text>
</g>
<!-- v5&#45;&gt;v9 -->
<g id="edge13" class="edge"><title>v5&#45;&gt;v9</title>
<path fill="none" stroke="black" d="M403.5,-57.9883C403.5,-49.4941 403.5,-37.1697 403.5,-27.4169"/>
<polygon fill="black" stroke="black" points="403.5,-22.3039 405.75,-27.3038 403.5,-24.8039 403.5,-27.3039 403.5,-27.3039 403.5,-27.3039 403.5,-24.8039 401.25,-27.3039 403.5,-22.3039 403.5,-22.3039"/>
</g>
<!-- v10 -->
<g id="v10_ConnectDevice" class="node"><title>v10</title>
<ellipse fill="none" stroke="black" cx="906.5" cy="-11" rx="54" ry="11"/>
<text text-anchor="middle" x="906.5" y="-8.8" font-family="sans-serif" font-size="9.00">ConnectDevice</text>
</g>
<!-- v6&#45;&gt;v10 -->
<g id="edge14" class="edge"><title>v6&#45;&gt;v10</title>
<path fill="none" stroke="black" d="M906.5,-57.9883C906.5,-49.4941 906.5,-37.1697 906.5,-27.4169"/>
<polygon fill="black" stroke="black" points="906.5,-22.3039 908.75,-27.3038 906.5,-24.8039 906.5,-27.3039 906.5,-27.3039 906.5,-27.3039 906.5,-24.8039 904.25,-27.3039 906.5,-22.3039 906.5,-22.3039"/>
</g>
<!-- v7&#45;&gt;v11 -->
<g id="edge26" class="edge"><title>v7&#45;&gt;v11</title>
<path fill="none" stroke="green" d="M712.425,-21.925C722.587,-32.0867 738.295,-47.7952 748.488,-57.9883"/>
</g>
<!-- v13 -->
<g id="v13_HVAC" class="node"><title>v13</title>
<ellipse fill="none" stroke="black" cx="145.5" cy="-69" rx="21.5" ry="11"/>
<text text-anchor="middle" x="145.5" y="-66.8" font-family="sans-serif" font-size="9.00">HVAC</text>
</g>
<!-- v11&#45;&gt;v13 -->
<g id="edge27" class="edge"><title>v11&#45;&gt;v13</title>
<path fill="none" stroke="green" d="M734.366,-79.2683C716.969,-86.0921 692.736,-94.4306 670.5,-98 475.817,-129.252 235.907,-87.1207 165.688,-73.1917"/>
</g>
<!-- v15 -->
<g id="v15_Data" class="node"><title>v15</title>
<ellipse fill="none" stroke="black" cx="785.5" cy="-11" rx="21.5" ry="11"/>
<text text-anchor="middle" x="785.5" y="-8.8" font-family="sans-serif" font-size="9.00">Data</text>
</g>
<!-- v11&#45;&gt;v15 -->
<g id="edge15" class="edge"><title>v11&#45;&gt;v15</title>
<path fill="none" stroke="black" d="M763.327,-57.9883C767.55,-49.2286 773.738,-36.3956 778.504,-26.5103"/>
<polygon fill="black" stroke="black" points="780.715,-21.925 780.57,-27.4061 779.629,-24.1769 778.543,-26.4289 778.543,-26.4289 778.543,-26.4289 779.629,-24.1769 776.516,-25.4517 780.715,-21.925 780.715,-21.925"/>
</g>
<!-- v16 -->
<g id="v16_SmartLight" class="node"><title>v16</title>
<ellipse fill="none" stroke="black" cx="230.5" cy="-11" rx="43" ry="11"/>
<text text-anchor="middle" x="230.5" y="-8.8" font-family="sans-serif" font-size="9.00">SmartLight</text>
</g>
<!-- v11&#45;&gt;v16 -->
<g id="edge28" class="edge"><title>v11&#45;&gt;v16</title>
<path fill="none" stroke="green" d="M711.746,-61.8031C701.151,-60.4765 689.945,-59.1343 679.5,-58 503.367,-38.8726 457.93,-46.7596 282.5,-22 275.855,-21.0621 268.771,-19.846 262.039,-18.5866"/>
</g>
<!-- v17 -->
<g id="v17_FireAlarm" class="node"><title>v17</title>
<ellipse fill="none" stroke="black" cx="39.5" cy="-11" rx="39.5" ry="11"/>
<text text-anchor="middle" x="39.5" y="-8.8" font-family="sans-serif" font-size="9.00">FireAlarm</text>
</g>
<!-- v11&#45;&gt;v17 -->
<g id="edge29" class="edge"><title>v11&#45;&gt;v17</title>
<path fill="none" stroke="green" d="M712.604,-61.6776C701.764,-60.3265 690.236,-59.0054 679.5,-58 417.493,-33.4636 349.396,-56.3949 88.5,-22 81.9581,-21.1376 74.9818,-19.9058 68.4057,-18.6001"/>
</g>
<!-- v19 -->
<g id="v19_SmartLight" class="node"><title>v19</title>
<ellipse fill="none" stroke="black" cx="486.5" cy="-11" rx="43" ry="11"/>
<text text-anchor="middle" x="486.5" y="-8.8" font-family="sans-serif" font-size="9.00">SmartLight</text>
</g>
<!-- v11&#45;&gt;v19 -->
<g id="edge30" class="edge"><title>v11&#45;&gt;v19</title>
<path fill="none" stroke="green" d="M720.965,-60.2722C667.043,-49.1706 568.61,-28.905 518.158,-18.5178"/>
</g>
<!-- v20 -->
<g id="v20_Workstation" class="node"><title>v20</title>
<ellipse fill="none" stroke="black" cx="594.5" cy="-11" rx="47" ry="11"/>
<text text-anchor="middle" x="594.5" y="-8.8" font-family="sans-serif" font-size="9.00">Workstation</text>
</g>
<!-- v11&#45;&gt;v20 -->
<g id="edge31" class="edge"><title>v11&#45;&gt;v20</title>
<path fill="none" stroke="green" d="M732.151,-59.0026C701.003,-48.3669 649.572,-30.8052 619.174,-20.4254"/>
</g>
<!-- v12&#45;&gt;v13 -->
<g id="edge16" class="edge"><title>v12&#45;&gt;v13</title>
<path fill="none" stroke="black" d="M175.229,-116.246C169.499,-107.332 160.961,-94.0497 154.502,-84.0035"/>
<polygon fill="black" stroke="black" points="151.699,-79.6427 156.295,-82.6319 153.051,-81.7456 154.403,-83.8486 154.403,-83.8486 154.403,-83.8486 153.051,-81.7456 152.51,-85.0653 151.699,-79.6427 151.699,-79.6427"/>
</g>
<!-- v12&#45;&gt;v16 -->
<g id="edge17" class="edge"><title>v12&#45;&gt;v16</title>
<path fill="none" stroke="black" d="M185.848,-115.883C194.508,-95.7373 213.943,-50.521 224.077,-26.9438"/>
<polygon fill="black" stroke="black" points="226.091,-22.2579 226.184,-27.7401 225.104,-24.5548 224.116,-26.8516 224.116,-26.8516 224.116,-26.8516 225.104,-24.5548 222.049,-25.9631 226.091,-22.2579 226.091,-22.2579"/>
</g>
<!-- v12&#45;&gt;v17 -->
<g id="edge18" class="edge"><title>v12&#45;&gt;v17</title>
<path fill="none" stroke="black" d="M168.793,-118.008C155.043,-109.194 132.651,-94.3526 114.5,-80 92.0689,-62.2628 67.8552,-39.6041 53.1855,-25.4443"/>
<polygon fill="black" stroke="black" points="49.3104,-21.6871 54.4664,-23.5523 51.1053,-23.4274 52.9002,-25.1676 52.9002,-25.1676 52.9002,-25.1676 51.1053,-23.4274 51.3339,-26.783 49.3104,-21.6871 49.3104,-21.6871"/>
</g>
<!-- v14 -->
<g id="v14_Software" class="node"><title>v14</title>
<ellipse fill="none" stroke="black" cx="133.5" cy="-11" rx="36" ry="11"/>
<text text-anchor="middle" x="133.5" y="-8.8" font-family="sans-serif" font-size="9.00">Software</text>
</g>
<!-- v13&#45;&gt;v14 -->
<g id="edge19" class="edge"><title>v13&#45;&gt;v14</title>
<path fill="none" stroke="black" d="M143.355,-57.9883C141.534,-49.4941 138.893,-37.1697 136.804,-27.4169"/>
<polygon fill="black" stroke="black" points="135.708,-22.3039 138.956,-26.7214 136.232,-24.7484 136.756,-27.1929 136.756,-27.1929 136.756,-27.1929 136.232,-24.7484 134.556,-27.6644 135.708,-22.3039 135.708,-22.3039"/>
</g>
<!-- v18&#45;&gt;v19 -->
<g id="edge20" class="edge"><title>v18&#45;&gt;v19</title>
<path fill="none" stroke="black" d="M549.261,-59.4948C537.023,-50.2334 517.32,-35.3229 503.255,-24.6796"/>
<polygon fill="black" stroke="black" points="499.086,-21.5244 504.431,-22.7475 501.079,-23.033 503.073,-24.5417 503.073,-24.5417 503.073,-24.5417 501.079,-23.033 501.715,-26.3358 499.086,-21.5244 499.086,-21.5244"/>
</g>
<!-- v18&#45;&gt;v20 -->
<g id="edge21" class="edge"><title>v18&#45;&gt;v20</title>
<path fill="none" stroke="black" d="M566.422,-58.2455C571.768,-49.4409 579.702,-36.373 585.774,-26.3724"/>
<polygon fill="black" stroke="black" points="588.417,-22.0198 587.745,-27.4614 587.119,-24.1567 585.822,-26.2937 585.822,-26.2937 585.822,-26.2937 587.119,-24.1567 583.898,-25.126 588.417,-22.0198 588.417,-22.0198"/>
</g>
</g>
</svg>
