<?xml version="1.0" encoding="UTF-8" standalone="no"?>
<?xml-stylesheet href="style.css" type="text/css"?>
<!DOCTYPE svg PUBLIC "-//W3C//DTD SVG 1.1//EN"
 "http://www.w3.org/Graphics/SVG/1.1/DTD/svg11.dtd">
<!-- Generated by graphviz version 2.38.0 (20140413.2041)
 -->
<!-- Title: 10.svg Pages: 1 -->
<svg width="1225pt" height="179pt"
 viewBox="0.00 0.00 1224.50 179.00" xmlns="http://www.w3.org/2000/svg" xmlns:xlink="http://www.w3.org/1999/xlink">
<g id="graph0" class="graph" transform="scale(1 1) rotate(0) translate(4 175)">
<title>10.svg</title>
<polygon fill="white" stroke="none" points="-4,4 -4,-175 1220.5,-175 1220.5,4 -4,4"/>
<!-- r0 -->
<g id="node1" class="node"><title>r0</title>
<polygon fill="none" stroke="black" stroke-dasharray="5,2" points="185.5,-171 162.5,-171 162.5,-153 185.5,-153 185.5,-171"/>
<text text-anchor="middle" x="174" y="-159.8" font-family="serif" font-size="9.00">0</text>
</g>
<!-- v4 -->
<g id="v4_Field" class="node"><title>v4</title>
<ellipse fill="none" stroke="black" cx="25" cy="-11" rx="25" ry="11"/>
<text text-anchor="middle" x="25" y="-8.8" font-family="sans-serif" font-size="9.00">Field</text>
</g>
<!-- r0&#45;&gt;v4 -->
<g id="edge1" class="edge"><title>r0&#45;&gt;v4</title>
<path fill="none" stroke="black" d="M162.222,-152.862C142.816,-139.14 103.443,-109.953 75,-80 58.8635,-63.0068 43.3756,-40.7082 34.0231,-26.3641"/>
<polygon fill="black" stroke="black" points="31.0945,-21.8237 35.6956,-24.8059 32.4496,-23.9246 33.8047,-26.0255 33.8047,-26.0255 33.8047,-26.0255 32.4496,-23.9246 31.9139,-27.2451 31.0945,-21.8237 31.0945,-21.8237"/>
</g>
<!-- v5 -->
<g id="v5_Aura" class="node"><title>v5</title>
<ellipse fill="none" stroke="black" cx="113" cy="-69" rx="21.5" ry="11"/>
<text text-anchor="middle" x="113" y="-66.8" font-family="sans-serif" font-size="9.00">Aura</text>
</g>
<!-- r0&#45;&gt;v5 -->
<g id="edge2" class="edge"><title>r0&#45;&gt;v5</title>
<path fill="none" stroke="black" d="M165.157,-152.911C156.404,-144.557 143.038,-130.826 134,-117 127.42,-106.935 121.956,-94.4673 118.252,-84.9025"/>
<polygon fill="black" stroke="black" points="116.479,-80.1934 120.347,-84.08 117.36,-82.5331 118.241,-84.8728 118.241,-84.8728 118.241,-84.8728 117.36,-82.5331 116.135,-85.6656 116.479,-80.1934 116.479,-80.1934"/>
</g>
<!-- v6 -->
<g id="v6_Aura" class="node"><title>v6</title>
<ellipse fill="none" stroke="black" cx="174" cy="-69" rx="21.5" ry="11"/>
<text text-anchor="middle" x="174" y="-66.8" font-family="sans-serif" font-size="9.00">Aura</text>
</g>
<!-- r0&#45;&gt;v6 -->
<g id="edge3" class="edge"><title>r0&#45;&gt;v6</title>
<path fill="none" stroke="black" d="M174,-152.924C174,-137.736 174,-104.696 174,-85.2178"/>
<polygon fill="black" stroke="black" points="174,-80.1095 176.25,-85.1095 174,-82.6095 174,-85.1095 174,-85.1095 174,-85.1095 174,-82.6095 171.75,-85.1096 174,-80.1095 174,-80.1095"/>
</g>
<!-- v7 -->
<g id="v7_Aura" class="node"><title>v7</title>
<ellipse fill="none" stroke="black" cx="274" cy="-69" rx="21.5" ry="11"/>
<text text-anchor="middle" x="274" y="-66.8" font-family="sans-serif" font-size="9.00">Aura</text>
</g>
<!-- r0&#45;&gt;v7 -->
<g id="edge4" class="edge"><title>r0&#45;&gt;v7</title>
<path fill="none" stroke="black" d="M182.874,-152.924C200.351,-137.02 239.337,-101.543 260.2,-82.5579"/>
<polygon fill="black" stroke="black" points="264.119,-78.9914 261.936,-84.0208 262.27,-80.6741 260.421,-82.3567 260.421,-82.3567 260.421,-82.3567 262.27,-80.6741 258.907,-80.6926 264.119,-78.9914 264.119,-78.9914"/>
</g>
<!-- v11 -->
<g id="v11_Aura" class="node"><title>v11</title>
<ellipse fill="none" stroke="black" cx="921" cy="-69" rx="21.5" ry="11"/>
<text text-anchor="middle" x="921" y="-66.8" font-family="sans-serif" font-size="9.00">Aura</text>
</g>
<!-- r0&#45;&gt;v11 -->
<g id="edge5" class="edge"><title>r0&#45;&gt;v11</title>
<path fill="none" stroke="black" d="M185.507,-160.558C253.382,-157.774 608.125,-140.771 890,-80 893.12,-79.3274 896.371,-78.4653 899.543,-77.53"/>
<polygon fill="black" stroke="black" points="904.434,-76.0167 900.323,-79.6441 902.046,-76.7557 899.658,-77.4947 899.658,-77.4947 899.658,-77.4947 902.046,-76.7557 898.993,-75.3452 904.434,-76.0167 904.434,-76.0167"/>
</g>
<!-- r1 -->
<g id="node2" class="node"><title>r1</title>
<polygon fill="none" stroke="black" stroke-dasharray="5,2" points="582.5,-171 559.5,-171 559.5,-153 582.5,-153 582.5,-171"/>
<text text-anchor="middle" x="571" y="-159.8" font-family="serif" font-size="9.00">1</text>
</g>
<!-- v2 -->
<g id="v2_Locale" class="node"><title>v2</title>
<ellipse fill="none" stroke="black" cx="1104" cy="-69" rx="29" ry="11"/>
<text text-anchor="middle" x="1104" y="-66.8" font-family="sans-serif" font-size="9.00">Locale</text>
</g>
<!-- r1&#45;&gt;v2 -->
<g id="edge6" class="edge"><title>r1&#45;&gt;v2</title>
<path fill="none" stroke="black" d="M582.822,-161.145C633.669,-161.49 838.456,-159.993 999,-117 1030.21,-108.643 1063.9,-92.0804 1084.48,-81.0196"/>
<polygon fill="black" stroke="black" points="1088.91,-78.6104 1085.59,-82.9737 1086.72,-79.8034 1084.52,-80.9964 1084.52,-80.9964 1084.52,-80.9964 1086.72,-79.8034 1083.45,-79.0191 1088.91,-78.6104 1088.91,-78.6104"/>
</g>
<!-- v13 -->
<g id="v13_Locale" class="node"><title>v13</title>
<ellipse fill="none" stroke="black" cx="571" cy="-69" rx="29" ry="11"/>
<text text-anchor="middle" x="571" y="-66.8" font-family="sans-serif" font-size="9.00">Locale</text>
</g>
<!-- r1&#45;&gt;v13 -->
<g id="edge7" class="edge"><title>r1&#45;&gt;v13</title>
<path fill="none" stroke="black" d="M571,-152.924C571,-137.736 571,-104.696 571,-85.2178"/>
<polygon fill="black" stroke="black" points="571,-80.1095 573.25,-85.1095 571,-82.6095 571,-85.1095 571,-85.1095 571,-85.1095 571,-82.6095 568.75,-85.1096 571,-80.1095 571,-80.1095"/>
</g>
<!-- v16 -->
<g id="v16_Locale" class="node"><title>v16</title>
<ellipse fill="none" stroke="black" cx="457" cy="-69" rx="29" ry="11"/>
<text text-anchor="middle" x="457" y="-66.8" font-family="sans-serif" font-size="9.00">Locale</text>
</g>
<!-- r1&#45;&gt;v16 -->
<g id="edge8" class="edge"><title>r1&#45;&gt;v16</title>
<path fill="none" stroke="black" d="M559.466,-155.64C544.229,-148.238 516.988,-133.872 497,-117 485.394,-107.203 474.377,-93.8456 466.855,-83.8741"/>
<polygon fill="black" stroke="black" points="463.854,-79.8282 468.64,-82.5035 465.343,-81.8361 466.832,-83.844 466.832,-83.844 466.832,-83.844 465.343,-81.8361 465.025,-85.1845 463.854,-79.8282 463.854,-79.8282"/>
</g>
<!-- r2 -->
<g id="node3" class="node"><title>r2</title>
<polygon fill="none" stroke="black" stroke-dasharray="5,2" points="860.5,-171 837.5,-171 837.5,-153 860.5,-153 860.5,-171"/>
<text text-anchor="middle" x="849" y="-159.8" font-family="serif" font-size="9.00">2</text>
</g>
<!-- v0 -->
<g id="v0_Area(2)" class="node"><title>v0</title>
<ellipse fill="none" stroke="black" cx="1184" cy="-69" rx="32.5" ry="11"/>
<text text-anchor="middle" x="1184" y="-66.8" font-family="sans-serif" font-size="9.00">Area(2)</text>
</g>
<!-- r2&#45;&gt;v0 -->
<g id="edge9" class="edge"><title>r2&#45;&gt;v0</title>
<path fill="none" stroke="black" d="M860.559,-159.915C895.269,-156.434 1001.35,-144.144 1085,-117 1113.53,-107.742 1144.46,-92.0643 1164.02,-81.3833"/>
<polygon fill="black" stroke="black" points="1168.74,-78.7824 1165.45,-83.1664 1166.55,-79.9891 1164.36,-81.1959 1164.36,-81.1959 1164.36,-81.1959 1166.55,-79.9891 1163.27,-79.2253 1168.74,-78.7824 1168.74,-78.7824"/>
</g>
<!-- v19 -->
<g id="v19_Area(0)" class="node"><title>v19</title>
<ellipse fill="none" stroke="black" cx="689" cy="-69" rx="32.5" ry="11"/>
<text text-anchor="middle" x="689" y="-66.8" font-family="sans-serif" font-size="9.00">Area(0)</text>
</g>
<!-- r2&#45;&gt;v19 -->
<g id="edge10" class="edge"><title>r2&#45;&gt;v19</title>
<path fill="none" stroke="black" d="M837.493,-154.456C810.585,-139.152 743.265,-100.863 709.29,-81.5399"/>
<polygon fill="black" stroke="black" points="704.528,-78.8315 709.986,-79.3476 706.701,-80.0674 708.874,-81.3034 708.874,-81.3034 708.874,-81.3034 706.701,-80.0674 707.762,-83.2592 704.528,-78.8315 704.528,-78.8315"/>
</g>
<!-- v22 -->
<g id="v22_Area(1)" class="node"><title>v22</title>
<ellipse fill="none" stroke="black" cx="849" cy="-69" rx="32.5" ry="11"/>
<text text-anchor="middle" x="849" y="-66.8" font-family="sans-serif" font-size="9.00">Area(1)</text>
</g>
<!-- r2&#45;&gt;v22 -->
<g id="edge11" class="edge"><title>r2&#45;&gt;v22</title>
<path fill="none" stroke="black" d="M849,-152.924C849,-137.736 849,-104.696 849,-85.2178"/>
<polygon fill="black" stroke="black" points="849,-80.1095 851.25,-85.1095 849,-82.6095 849,-85.1095 849,-85.1095 849,-85.1095 849,-82.6095 846.75,-85.1096 849,-80.1095 849,-80.1095"/>
</g>
<!-- e1 -->
<g id="node4" class="node"><title>e1</title>
</g>
<!-- v1 -->
<g id="v1_GPS(9)" class="node"><title>v1</title>
<ellipse fill="none" stroke="black" cx="1148" cy="-11" rx="29" ry="11"/>
<text text-anchor="middle" x="1148" y="-8.8" font-family="sans-serif" font-size="9.00">GPS(9)</text>
</g>
<!-- e1&#45;&gt;v1 -->
<g id="edge33" class="edge"><title>e1&#45;&gt;v1</title>
<path fill="none" stroke="green" d="M990,-116C990,-116 1030.49,-81.3408 1066,-58 1088.1,-43.4741 1115.06,-28.9117 1131.89,-20.176"/>
</g>
<!-- v3 -->
<g id="v3_Lion" class="node"><title>v3</title>
<ellipse fill="none" stroke="black" cx="1026" cy="-11" rx="21.5" ry="11"/>
<text text-anchor="middle" x="1026" y="-8.8" font-family="sans-serif" font-size="9.00">Lion</text>
</g>
<!-- e1&#45;&gt;v3 -->
<g id="edge34" class="edge"><title>e1&#45;&gt;v3</title>
<path fill="none" stroke="green" d="M990,-116C990,-116 1013.54,-48.0023 1022.55,-21.972"/>
</g>
<!-- e1&#45;&gt;v11 -->
<g id="edge35" class="edge"><title>e1&#45;&gt;v11</title>
<path fill="none" stroke="green" d="M990,-116C990,-116 953.183,-91.4551 933.336,-78.2239"/>
</g>
<!-- v12 -->
<g id="v12_Child" class="node"><title>v12</title>
<ellipse fill="none" stroke="black" cx="953" cy="-11" rx="25" ry="11"/>
<text text-anchor="middle" x="953" y="-8.8" font-family="sans-serif" font-size="9.00">Child</text>
</g>
<!-- e1&#45;&gt;v12 -->
<g id="edge36" class="edge"><title>e1&#45;&gt;v12</title>
<path fill="none" stroke="green" d="M990,-116C990,-116 965.809,-48.0023 956.548,-21.972"/>
</g>
<!-- e2 -->
<g id="node5" class="node"><title>e2</title>
</g>
<!-- e2&#45;&gt;v5 -->
<g id="edge37" class="edge"><title>e2&#45;&gt;v5</title>
<path fill="none" stroke="green" d="M144,-116C144,-116 128.674,-93.2583 119.574,-79.7554"/>
</g>
<!-- v8 -->
<g id="v8_Child" class="node"><title>v8</title>
<ellipse fill="none" stroke="black" cx="117" cy="-11" rx="25" ry="11"/>
<text text-anchor="middle" x="117" y="-8.8" font-family="sans-serif" font-size="9.00">Child</text>
</g>
<!-- e2&#45;&gt;v8 -->
<g id="edge38" class="edge"><title>e2&#45;&gt;v8</title>
<path fill="none" stroke="green" d="M144,-116C144,-116 97.8979,-107.615 82,-80 70.2082,-59.5177 91.7355,-34.6434 105.948,-21.387"/>
</g>
<!-- v14 -->
<g id="v14_Lion" class="node"><title>v14</title>
<ellipse fill="none" stroke="black" cx="492" cy="-11" rx="21.5" ry="11"/>
<text text-anchor="middle" x="492" y="-8.8" font-family="sans-serif" font-size="9.00">Lion</text>
</g>
<!-- e2&#45;&gt;v14 -->
<g id="edge39" class="edge"><title>e2&#45;&gt;v14</title>
<path fill="none" stroke="green" d="M144,-116C144,-116 234.035,-100.436 304,-80 368.967,-61.0237 444.041,-31.5019 476.13,-18.5104"/>
</g>
<!-- v20 -->
<g id="v20_GPS(1)" class="node"><title>v20</title>
<ellipse fill="none" stroke="black" cx="637" cy="-11" rx="29" ry="11"/>
<text text-anchor="middle" x="637" y="-8.8" font-family="sans-serif" font-size="9.00">GPS(1)</text>
</g>
<!-- e2&#45;&gt;v20 -->
<g id="edge40" class="edge"><title>e2&#45;&gt;v20</title>
<path fill="none" stroke="green" d="M144,-116C144,-116 567.088,-110.477 609,-80 627.896,-66.2593 634.085,-37.4154 636.078,-22.0827"/>
</g>
<!-- e3 -->
<g id="node6" class="node"><title>e3</title>
</g>
<!-- e3&#45;&gt;v6 -->
<g id="edge41" class="edge"><title>e3&#45;&gt;v6</title>
<path fill="none" stroke="green" d="M303,-116C303,-116 225.831,-88.4825 190.864,-76.0137"/>
</g>
<!-- v9 -->
<g id="v9_Child" class="node"><title>v9</title>
<ellipse fill="none" stroke="black" cx="197" cy="-11" rx="25" ry="11"/>
<text text-anchor="middle" x="197" y="-8.8" font-family="sans-serif" font-size="9.00">Child</text>
</g>
<!-- e3&#45;&gt;v9 -->
<g id="edge42" class="edge"><title>e3&#45;&gt;v9</title>
<path fill="none" stroke="green" d="M303,-116C303,-116 265.579,-101.384 243,-80 224.58,-62.5544 209.536,-36.4938 202.079,-22.2327"/>
</g>
<!-- v17 -->
<g id="v17_Lion" class="node"><title>v17</title>
<ellipse fill="none" stroke="black" cx="359" cy="-11" rx="21.5" ry="11"/>
<text text-anchor="middle" x="359" y="-8.8" font-family="sans-serif" font-size="9.00">Lion</text>
</g>
<!-- e3&#45;&gt;v17 -->
<g id="edge43" class="edge"><title>e3&#45;&gt;v17</title>
<path fill="none" stroke="green" d="M303,-116C303,-116 339.614,-48.0023 353.63,-21.972"/>
</g>
<!-- v23 -->
<g id="v23_GPS(2)" class="node"><title>v23</title>
<ellipse fill="none" stroke="black" cx="789" cy="-11" rx="29" ry="11"/>
<text text-anchor="middle" x="789" y="-8.8" font-family="sans-serif" font-size="9.00">GPS(2)</text>
</g>
<!-- e3&#45;&gt;v23 -->
<g id="edge44" class="edge"><title>e3&#45;&gt;v23</title>
<path fill="none" stroke="green" d="M303,-116C303,-116 645.105,-123.137 730,-80 755.639,-66.9722 774.901,-37.543 783.708,-22.0195"/>
</g>
<!-- e4 -->
<g id="node7" class="node"><title>e4</title>
</g>
<!-- e4&#45;&gt;v7 -->
<g id="edge45" class="edge"><title>e4&#45;&gt;v7</title>
<path fill="none" stroke="green" d="M507,-116C507,-116 349.464,-84.8984 293.465,-73.8428"/>
</g>
<!-- v10 -->
<g id="v10_Child" class="node"><title>v10</title>
<ellipse fill="none" stroke="black" cx="271" cy="-11" rx="25" ry="11"/>
<text text-anchor="middle" x="271" y="-8.8" font-family="sans-serif" font-size="9.00">Child</text>
</g>
<!-- e4&#45;&gt;v10 -->
<g id="edge46" class="edge"><title>e4&#45;&gt;v10</title>
<path fill="none" stroke="green" d="M507,-116C507,-116 457.763,-96.825 419,-80 370.494,-58.9465 313.882,-32.3671 286.888,-19.5686"/>
</g>
<!-- v18 -->
<g id="v18_Lion" class="node"><title>v18</title>
<ellipse fill="none" stroke="black" cx="431" cy="-11" rx="21.5" ry="11"/>
<text text-anchor="middle" x="431" y="-8.8" font-family="sans-serif" font-size="9.00">Lion</text>
</g>
<!-- e4&#45;&gt;v18 -->
<g id="edge47" class="edge"><title>e4&#45;&gt;v18</title>
<path fill="none" stroke="green" d="M507,-116C507,-116 509.334,-80.0791 495,-58 483.079,-39.6368 461.059,-26.2589 446.221,-18.8077"/>
</g>
<!-- v24 -->
<g id="v24_GPS(3)" class="node"><title>v24</title>
<ellipse fill="none" stroke="black" cx="865" cy="-11" rx="29" ry="11"/>
<text text-anchor="middle" x="865" y="-8.8" font-family="sans-serif" font-size="9.00">GPS(3)</text>
</g>
<!-- e4&#45;&gt;v24 -->
<g id="edge48" class="edge"><title>e4&#45;&gt;v24</title>
<path fill="none" stroke="green" d="M507,-116C507,-116 656.296,-121.263 764,-80 800.715,-65.9338 837.396,-36.4108 854.71,-21.3171"/>
</g>
<!-- v0&#45;&gt;v1 -->
<g id="edge12" class="edge"><title>v0&#45;&gt;v1</title>
<path fill="none" stroke="black" d="M1177.56,-57.9883C1171.88,-49.149 1163.53,-36.162 1157.16,-26.2414"/>
<polygon fill="black" stroke="black" points="1154.38,-21.925 1158.98,-24.9142 1155.73,-24.028 1157.08,-26.1309 1157.08,-26.1309 1157.08,-26.1309 1155.73,-24.028 1155.19,-27.3476 1154.38,-21.925 1154.38,-21.925"/>
</g>
<!-- v0&#45;&gt;v2 -->
<g id="edge32" class="edge"><title>v0&#45;&gt;v2</title>
<path fill="none" stroke="green" d="M1151.37,-69C1145.27,-69 1139.16,-69 1133.06,-69"/>
</g>
<!-- v2&#45;&gt;v3 -->
<g id="edge13" class="edge"><title>v2&#45;&gt;v3</title>
<path fill="none" stroke="black" d="M1091.47,-59.0026C1078.04,-49.364 1056.69,-34.0372 1042.05,-23.5225"/>
<polygon fill="black" stroke="black" points="1037.74,-20.4254 1043.11,-21.5138 1039.77,-21.8835 1041.8,-23.3415 1041.8,-23.3415 1041.8,-23.3415 1039.77,-21.8835 1040.48,-25.1692 1037.74,-20.4254 1037.74,-20.4254"/>
</g>
<!-- v5&#45;&gt;v8 -->
<g id="edge14" class="edge"><title>v5&#45;&gt;v8</title>
<path fill="none" stroke="black" d="M113.715,-57.9883C114.322,-49.4941 115.202,-37.1697 115.899,-27.4169"/>
<polygon fill="black" stroke="black" points="116.264,-22.3039 118.152,-27.4515 116.086,-24.7975 115.908,-27.2912 115.908,-27.2912 115.908,-27.2912 116.086,-24.7975 113.663,-27.1308 116.264,-22.3039 116.264,-22.3039"/>
</g>
<!-- v5&#45;&gt;v9 -->
<g id="edge15" class="edge"><title>v5&#45;&gt;v9</title>
<path fill="none" stroke="black" d="M125.394,-59.737C139.828,-50.1148 163.752,-34.1654 179.935,-23.377"/>
<polygon fill="black" stroke="black" points="184.279,-20.4805 181.367,-25.1261 182.199,-21.8672 180.119,-23.254 180.119,-23.254 180.119,-23.254 182.199,-21.8672 178.871,-21.3819 184.279,-20.4805 184.279,-20.4805"/>
</g>
<!-- v5&#45;&gt;v10 -->
<g id="edge16" class="edge"><title>v5&#45;&gt;v10</title>
<path fill="none" stroke="black" d="M129.909,-62.007C158.246,-51.9634 215.377,-31.7145 247.569,-20.3048"/>
<polygon fill="black" stroke="black" points="252.513,-18.5524 248.552,-22.3436 250.156,-19.3876 247.8,-20.2228 247.8,-20.2228 247.8,-20.2228 250.156,-19.3876 247.048,-18.1021 252.513,-18.5524 252.513,-18.5524"/>
</g>
<!-- v6&#45;&gt;v8 -->
<g id="edge17" class="edge"><title>v6&#45;&gt;v8</title>
<path fill="none" stroke="black" d="M164.842,-59.0026C155.537,-49.8606 141.023,-35.6014 130.42,-25.1846"/>
<polygon fill="black" stroke="black" points="126.708,-21.5373 131.851,-23.4364 128.491,-23.2894 130.274,-25.0414 130.274,-25.0414 130.274,-25.0414 128.491,-23.2894 128.697,-26.6465 126.708,-21.5373 126.708,-21.5373"/>
</g>
<!-- v6&#45;&gt;v9 -->
<g id="edge18" class="edge"><title>v6&#45;&gt;v9</title>
<path fill="none" stroke="black" d="M178.112,-57.9883C181.677,-49.3083 186.885,-36.6286 190.929,-26.7806"/>
<polygon fill="black" stroke="black" points="192.924,-21.925 193.105,-27.405 191.974,-24.2376 191.024,-26.5501 191.024,-26.5501 191.024,-26.5501 191.974,-24.2376 188.943,-25.6953 192.924,-21.925 192.924,-21.925"/>
</g>
<!-- v6&#45;&gt;v10 -->
<g id="edge19" class="edge"><title>v6&#45;&gt;v10</title>
<path fill="none" stroke="black" d="M187.487,-60.2134C204.284,-50.5166 233.076,-33.8941 252.075,-22.9258"/>
<polygon fill="black" stroke="black" points="256.681,-20.2668 253.476,-24.7153 254.516,-21.5167 252.351,-22.7667 252.351,-22.7667 252.351,-22.7667 254.516,-21.5167 251.226,-20.8181 256.681,-20.2668 256.681,-20.2668"/>
</g>
<!-- v7&#45;&gt;v8 -->
<g id="edge20" class="edge"><title>v7&#45;&gt;v8</title>
<path fill="none" stroke="black" d="M257.198,-62.007C229.115,-51.9902 172.574,-31.8224 140.54,-20.3963"/>
<polygon fill="black" stroke="black" points="135.617,-18.6404 141.082,-18.201 137.971,-19.4803 140.326,-20.3202 140.326,-20.3202 140.326,-20.3202 137.971,-19.4803 139.57,-22.4395 135.617,-18.6404 135.617,-18.6404"/>
</g>
<!-- v7&#45;&gt;v9 -->
<g id="edge21" class="edge"><title>v7&#45;&gt;v9</title>
<path fill="none" stroke="black" d="M262.305,-59.4948C249.266,-50.0115 228.082,-34.6054 213.393,-23.9222"/>
<polygon fill="black" stroke="black" points="209.059,-20.7702 214.426,-21.8914 211.081,-22.2406 213.103,-23.7111 213.103,-23.7111 213.103,-23.7111 211.081,-22.2406 211.779,-25.5308 209.059,-20.7702 209.059,-20.7702"/>
</g>
<!-- v7&#45;&gt;v10 -->
<g id="edge22" class="edge"><title>v7&#45;&gt;v10</title>
<path fill="none" stroke="black" d="M273.464,-57.9883C273.009,-49.4941 272.348,-37.1697 271.826,-27.4169"/>
<polygon fill="black" stroke="black" points="271.552,-22.3039 274.066,-27.1763 271.686,-24.8003 271.82,-27.2967 271.82,-27.2967 271.82,-27.2967 271.686,-24.8003 269.573,-27.4171 271.552,-22.3039 271.552,-22.3039"/>
</g>
<!-- v11&#45;&gt;v12 -->
<g id="edge23" class="edge"><title>v11&#45;&gt;v12</title>
<path fill="none" stroke="black" d="M926.574,-58.2455C931.605,-49.4409 939.073,-36.373 944.787,-26.3724"/>
<polygon fill="black" stroke="black" points="947.274,-22.0198 946.747,-27.4773 946.034,-24.1904 944.794,-26.361 944.794,-26.361 944.794,-26.361 946.034,-24.1904 942.84,-25.2446 947.274,-22.0198 947.274,-22.0198"/>
</g>
<!-- v13&#45;&gt;v14 -->
<g id="edge24" class="edge"><title>v13&#45;&gt;v14</title>
<path fill="none" stroke="black" d="M558.307,-59.0026C544.71,-49.364 523.088,-34.0372 508.255,-23.5225"/>
<polygon fill="black" stroke="black" points="503.886,-20.4254 509.266,-21.4814 505.925,-21.8712 507.965,-23.317 507.965,-23.317 507.965,-23.317 505.925,-21.8712 506.664,-25.1526 503.886,-20.4254 503.886,-20.4254"/>
</g>
<!-- v15 -->
<g id="v15_Impala" class="node"><title>v15</title>
<ellipse fill="none" stroke="black" cx="561" cy="-11" rx="29" ry="11"/>
<text text-anchor="middle" x="561" y="-8.8" font-family="sans-serif" font-size="9.00">Impala</text>
</g>
<!-- v13&#45;&gt;v15 -->
<g id="edge25" class="edge"><title>v13&#45;&gt;v15</title>
<path fill="none" stroke="black" d="M569.212,-57.9883C567.695,-49.4941 565.495,-37.1697 563.753,-27.4169"/>
<polygon fill="black" stroke="black" points="562.84,-22.3039 565.934,-26.8305 563.279,-24.7649 563.719,-27.226 563.719,-27.226 563.719,-27.226 563.279,-24.7649 561.504,-27.6216 562.84,-22.3039 562.84,-22.3039"/>
</g>
<!-- v13&#45;&gt;v19 -->
<g id="edge49" class="edge"><title>v13&#45;&gt;v19</title>
<path fill="none" stroke="green" d="M600.039,-69C618.804,-69 637.569,-69 656.335,-69"/>
</g>
<!-- v21 -->
<g id="v21_GPS(0)" class="node"><title>v21</title>
<ellipse fill="none" stroke="black" cx="713" cy="-11" rx="29" ry="11"/>
<text text-anchor="middle" x="713" y="-8.8" font-family="sans-serif" font-size="9.00">GPS(0)</text>
</g>
<!-- v15&#45;&gt;v21 -->
<g id="edge50" class="edge"><title>v15&#45;&gt;v21</title>
<path fill="none" stroke="green" d="M573.251,-21.2104C582.241,-28.007 595.086,-36.3366 608,-40 632.799,-47.0351 641.201,-47.0351 666,-40 678.914,-36.3366 691.759,-28.007 700.749,-21.2104"/>
</g>
<!-- v16&#45;&gt;v17 -->
<g id="edge26" class="edge"><title>v16&#45;&gt;v17</title>
<path fill="none" stroke="black" d="M442.116,-59.4948C424.642,-49.5096 395.676,-32.9578 376.967,-22.267"/>
<polygon fill="black" stroke="black" points="372.445,-19.6829 377.903,-20.2101 374.616,-20.9232 376.786,-22.1636 376.786,-22.1636 376.786,-22.1636 374.616,-20.9232 375.67,-24.1172 372.445,-19.6829 372.445,-19.6829"/>
</g>
<!-- v16&#45;&gt;v18 -->
<g id="edge27" class="edge"><title>v16&#45;&gt;v18</title>
<path fill="none" stroke="black" d="M452.352,-57.9883C448.285,-49.2286 442.327,-36.3956 437.737,-26.5103"/>
<polygon fill="black" stroke="black" points="435.608,-21.925 439.754,-25.5125 436.661,-24.1925 437.714,-26.4601 437.714,-26.4601 437.714,-26.4601 436.661,-24.1925 435.673,-27.4076 435.608,-21.925 435.608,-21.925"/>
</g>
<!-- v16&#45;&gt;v22 -->
<g id="edge51" class="edge"><title>v16&#45;&gt;v22</title>
<path fill="none" stroke="green" d="M475.778,-77.4099C492.701,-84.4997 518.466,-94.0958 542,-98 652.051,-116.257 684.613,-124.4 793,-98 808.105,-94.3208 823.683,-85.8006 834.562,-78.9418"/>
</g>
<!-- v19&#45;&gt;v20 -->
<g id="edge28" class="edge"><title>v19&#45;&gt;v20</title>
<path fill="none" stroke="black" d="M679.942,-58.2455C671.517,-49.1716 658.886,-35.5697 649.502,-25.4636"/>
<polygon fill="black" stroke="black" points="645.954,-21.6427 651.005,-23.7756 647.655,-23.4747 649.356,-25.3067 649.356,-25.3067 649.356,-25.3067 647.655,-23.4747 647.707,-26.8377 645.954,-21.6427 645.954,-21.6427"/>
</g>
<!-- v19&#45;&gt;v21 -->
<g id="edge29" class="edge"><title>v19&#45;&gt;v21</title>
<path fill="none" stroke="black" d="M693.291,-57.9883C697.011,-49.3083 702.445,-36.6286 706.665,-26.7806"/>
<polygon fill="black" stroke="black" points="708.746,-21.925 708.845,-27.4071 707.762,-24.2229 706.777,-26.5207 706.777,-26.5207 706.777,-26.5207 707.762,-24.2229 704.709,-25.6344 708.746,-21.925 708.746,-21.925"/>
</g>
<!-- v22&#45;&gt;v23 -->
<g id="edge30" class="edge"><title>v22&#45;&gt;v23</title>
<path fill="none" stroke="black" d="M838.822,-58.5004C828.936,-49.2734 813.852,-35.1949 802.871,-24.9459"/>
<polygon fill="black" stroke="black" points="799.028,-21.3593 804.218,-23.1261 800.856,-23.0652 802.683,-24.771 802.683,-24.771 802.683,-24.771 800.856,-23.0652 801.148,-26.4159 799.028,-21.3593 799.028,-21.3593"/>
</g>
<!-- v22&#45;&gt;v24 -->
<g id="edge31" class="edge"><title>v22&#45;&gt;v24</title>
<path fill="none" stroke="black" d="M851.86,-57.9883C854.31,-49.4154 857.874,-36.9411 860.672,-27.1466"/>
<polygon fill="black" stroke="black" points="862.056,-22.3039 862.846,-27.7297 861.369,-24.7077 860.682,-27.1115 860.682,-27.1115 860.682,-27.1115 861.369,-24.7077 858.519,-26.4933 862.056,-22.3039 862.056,-22.3039"/>
</g>
</g>
</svg>
