<?xml version="1.0" encoding="UTF-8" standalone="no"?>
<?xml-stylesheet href="style.css" type="text/css"?>
<!DOCTYPE svg PUBLIC "-//W3C//DTD SVG 1.1//EN"
 "http://www.w3.org/Graphics/SVG/1.1/DTD/svg11.dtd">
<!-- Generated by graphviz version 2.38.0 (20140413.2041)
 -->
<!-- Title: 53.svg Pages: 1 -->
<svg width="1317pt" height="179pt"
 viewBox="0.00 0.00 1317.00 179.00" xmlns="http://www.w3.org/2000/svg" xmlns:xlink="http://www.w3.org/1999/xlink">
<g id="graph0" class="graph" transform="scale(1 1) rotate(0) translate(4 175)">
<title>53.svg</title>
<polygon fill="white" stroke="none" points="-4,4 -4,-175 1313,-175 1313,4 -4,4"/>
<!-- r0 -->
<g id="node1" class="node"><title>r0</title>
<polygon fill="none" stroke="black" stroke-dasharray="5,2" points="455,-171 432,-171 432,-153 455,-153 455,-171"/>
<text text-anchor="middle" x="443.5" y="-159.8" font-family="serif" font-size="9.00">0</text>
</g>
<!-- v6 -->
<g id="v6_Aura" class="node"><title>v6</title>
<ellipse fill="none" stroke="black" cx="382.5" cy="-69" rx="21.5" ry="11"/>
<text text-anchor="middle" x="382.5" y="-66.8" font-family="sans-serif" font-size="9.00">Aura</text>
</g>
<!-- r0&#45;&gt;v6 -->
<g id="edge1" class="edge"><title>r0&#45;&gt;v6</title>
<path fill="none" stroke="black" d="M438.087,-152.924C427.711,-137.446 404.907,-103.427 391.963,-84.1163"/>
<polygon fill="black" stroke="black" points="388.898,-79.5439 393.551,-82.4443 390.29,-81.6205 391.682,-83.6971 391.682,-83.6971 391.682,-83.6971 390.29,-81.6205 389.813,-84.9499 388.898,-79.5439 388.898,-79.5439"/>
</g>
<!-- v7 -->
<g id="v7_Aura" class="node"><title>v7</title>
<ellipse fill="none" stroke="black" cx="443.5" cy="-69" rx="21.5" ry="11"/>
<text text-anchor="middle" x="443.5" y="-66.8" font-family="sans-serif" font-size="9.00">Aura</text>
</g>
<!-- r0&#45;&gt;v7 -->
<g id="edge2" class="edge"><title>r0&#45;&gt;v7</title>
<path fill="none" stroke="black" d="M443.5,-152.924C443.5,-137.736 443.5,-104.696 443.5,-85.2178"/>
<polygon fill="black" stroke="black" points="443.5,-80.1095 445.75,-85.1095 443.5,-82.6095 443.5,-85.1095 443.5,-85.1095 443.5,-85.1095 443.5,-82.6095 441.25,-85.1096 443.5,-80.1095 443.5,-80.1095"/>
</g>
<!-- v8 -->
<g id="v8_Aura" class="node"><title>v8</title>
<ellipse fill="none" stroke="black" cx="504.5" cy="-69" rx="21.5" ry="11"/>
<text text-anchor="middle" x="504.5" y="-66.8" font-family="sans-serif" font-size="9.00">Aura</text>
</g>
<!-- r0&#45;&gt;v8 -->
<g id="edge3" class="edge"><title>r0&#45;&gt;v8</title>
<path fill="none" stroke="black" d="M448.913,-152.924C459.289,-137.446 482.093,-103.427 495.037,-84.1163"/>
<polygon fill="black" stroke="black" points="498.102,-79.5439 497.187,-84.9499 496.71,-81.6205 495.318,-83.6971 495.318,-83.6971 495.318,-83.6971 496.71,-81.6205 493.449,-82.4443 498.102,-79.5439 498.102,-79.5439"/>
</g>
<!-- v13 -->
<g id="v13_Field" class="node"><title>v13</title>
<ellipse fill="none" stroke="black" cx="260.5" cy="-11" rx="25" ry="11"/>
<text text-anchor="middle" x="260.5" y="-8.8" font-family="sans-serif" font-size="9.00">Field</text>
</g>
<!-- r0&#45;&gt;v13 -->
<g id="edge4" class="edge"><title>r0&#45;&gt;v13</title>
<path fill="none" stroke="black" d="M431.732,-158.269C411.126,-153.038 367.911,-140.032 338.5,-117 305.784,-91.3805 279.987,-48.7398 267.932,-26.5001"/>
<polygon fill="black" stroke="black" points="265.571,-22.0775 269.911,-25.4285 266.748,-24.2829 267.926,-26.4882 267.926,-26.4882 267.926,-26.4882 266.748,-24.2829 265.941,-27.548 265.571,-22.0775 265.571,-22.0775"/>
</g>
<!-- v16 -->
<g id="v16_Aura" class="node"><title>v16</title>
<ellipse fill="none" stroke="black" cx="954.5" cy="-69" rx="21.5" ry="11"/>
<text text-anchor="middle" x="954.5" y="-66.8" font-family="sans-serif" font-size="9.00">Aura</text>
</g>
<!-- r0&#45;&gt;v16 -->
<g id="edge5" class="edge"><title>r0&#45;&gt;v16</title>
<path fill="none" stroke="black" d="M455.133,-158.928C520.088,-147.361 838.276,-90.6974 929.82,-74.3951"/>
<polygon fill="black" stroke="black" points="934.765,-73.5144 930.237,-76.6062 932.304,-73.9527 929.843,-74.3911 929.843,-74.3911 929.843,-74.3911 932.304,-73.9527 929.448,-72.1759 934.765,-73.5144 934.765,-73.5144"/>
</g>
<!-- r1 -->
<g id="node2" class="node"><title>r1</title>
<polygon fill="none" stroke="black" stroke-dasharray="5,2" points="1133,-171 1110,-171 1110,-153 1133,-153 1133,-171"/>
<text text-anchor="middle" x="1121.5" y="-159.8" font-family="serif" font-size="9.00">1</text>
</g>
<!-- v3 -->
<g id="v3_Locale" class="node"><title>v3</title>
<ellipse fill="none" stroke="black" cx="818.5" cy="-11" rx="29" ry="11"/>
<text text-anchor="middle" x="818.5" y="-8.8" font-family="sans-serif" font-size="9.00">Locale</text>
</g>
<!-- r1&#45;&gt;v3 -->
<g id="edge6" class="edge"><title>r1&#45;&gt;v3</title>
<path fill="none" stroke="black" d="M1109.83,-156.259C1090.02,-148.208 1048.54,-131.34 1013.5,-117 973.474,-100.619 961.814,-100.062 923.5,-80 890.809,-62.8818 855.258,-38.5309 835.045,-24.0896"/>
<polygon fill="black" stroke="black" points="830.971,-21.1645 836.344,-22.2531 833.001,-22.6226 835.032,-24.0808 835.032,-24.0808 835.032,-24.0808 833.001,-22.6226 833.72,-25.9084 830.971,-21.1645 830.971,-21.1645"/>
</g>
<!-- v4 -->
<g id="v4_Locale" class="node"><title>v4</title>
<ellipse fill="none" stroke="black" cx="1219.5" cy="-69" rx="29" ry="11"/>
<text text-anchor="middle" x="1219.5" y="-66.8" font-family="sans-serif" font-size="9.00">Locale</text>
</g>
<!-- r1&#45;&gt;v4 -->
<g id="edge7" class="edge"><title>r1&#45;&gt;v4</title>
<path fill="none" stroke="black" d="M1130.2,-152.924C1147.15,-137.183 1184.75,-102.269 1205.34,-83.1472"/>
<polygon fill="black" stroke="black" points="1209.22,-79.5439 1207.09,-84.5949 1207.39,-81.245 1205.56,-82.9461 1205.56,-82.9461 1205.56,-82.9461 1207.39,-81.245 1204.03,-81.2973 1209.22,-79.5439 1209.22,-79.5439"/>
</g>
<!-- v10 -->
<g id="v10_Localeattack" class="node"><title>v10</title>
<ellipse fill="none" stroke="black" cx="1121.5" cy="-69" rx="50.5" ry="11"/>
<text text-anchor="middle" x="1121.5" y="-66.8" font-family="sans-serif" font-size="9.00">Localeattack</text>
</g>
<!-- r1&#45;&gt;v10 -->
<g id="edge8" class="edge"><title>r1&#45;&gt;v10</title>
<path fill="none" stroke="black" d="M1121.5,-152.924C1121.5,-137.736 1121.5,-104.696 1121.5,-85.2178"/>
<polygon fill="black" stroke="black" points="1121.5,-80.1095 1123.75,-85.1095 1121.5,-82.6095 1121.5,-85.1095 1121.5,-85.1095 1121.5,-85.1095 1121.5,-82.6095 1119.25,-85.1096 1121.5,-80.1095 1121.5,-80.1095"/>
</g>
<!-- r2 -->
<g id="node3" class="node"><title>r2</title>
<polygon fill="none" stroke="black" stroke-dasharray="5,2" points="171,-171 148,-171 148,-153 171,-153 171,-171"/>
<text text-anchor="middle" x="159.5" y="-159.8" font-family="serif" font-size="9.00">2</text>
</g>
<!-- v0 -->
<g id="v0_Area(2)" class="node"><title>v0</title>
<ellipse fill="none" stroke="black" cx="32.5" cy="-11" rx="32.5" ry="11"/>
<text text-anchor="middle" x="32.5" y="-8.8" font-family="sans-serif" font-size="9.00">Area(2)</text>
</g>
<!-- r2&#45;&gt;v0 -->
<g id="edge9" class="edge"><title>r2&#45;&gt;v0</title>
<path fill="none" stroke="black" d="M152.672,-152.989C132.061,-128.808 70.2964,-56.3438 44.2693,-25.8081"/>
<polygon fill="black" stroke="black" points="40.9867,-21.9569 45.9426,-24.3026 42.6085,-23.8595 44.2302,-25.7622 44.2302,-25.7622 44.2302,-25.7622 42.6085,-23.8595 42.5178,-27.2217 40.9867,-21.9569 40.9867,-21.9569"/>
</g>
<!-- v1 -->
<g id="v1_Area(1)" class="node"><title>v1</title>
<ellipse fill="none" stroke="black" cx="691.5" cy="-69" rx="32.5" ry="11"/>
<text text-anchor="middle" x="691.5" y="-66.8" font-family="sans-serif" font-size="9.00">Area(1)</text>
</g>
<!-- r2&#45;&gt;v1 -->
<g id="edge10" class="edge"><title>r2&#45;&gt;v1</title>
<path fill="none" stroke="black" d="M171.169,-161.069C221.363,-161.099 423.548,-158.499 582.5,-117 614.57,-108.627 649.367,-92.2235 670.806,-81.1847"/>
<polygon fill="black" stroke="black" points="675.434,-78.7779 672.036,-83.0811 673.216,-79.9314 670.998,-81.0848 670.998,-81.0848 670.998,-81.0848 673.216,-79.9314 669.96,-79.0886 675.434,-78.7779 675.434,-78.7779"/>
</g>
<!-- v20 -->
<g id="v20_Area(0)" class="node"><title>v20</title>
<ellipse fill="none" stroke="black" cx="159.5" cy="-69" rx="32.5" ry="11"/>
<text text-anchor="middle" x="159.5" y="-66.8" font-family="sans-serif" font-size="9.00">Area(0)</text>
</g>
<!-- r2&#45;&gt;v20 -->
<g id="edge11" class="edge"><title>r2&#45;&gt;v20</title>
<path fill="none" stroke="black" d="M159.5,-152.924C159.5,-137.736 159.5,-104.696 159.5,-85.2178"/>
<polygon fill="black" stroke="black" points="159.5,-80.1095 161.75,-85.1095 159.5,-82.6095 159.5,-85.1095 159.5,-85.1095 159.5,-85.1095 159.5,-82.6095 157.25,-85.1096 159.5,-80.1095 159.5,-80.1095"/>
</g>
<!-- e2 -->
<g id="node4" class="node"><title>e2</title>
</g>
<!-- v2 -->
<g id="v2_GPS(3)" class="node"><title>v2</title>
<ellipse fill="none" stroke="black" cx="742.5" cy="-11" rx="29" ry="11"/>
<text text-anchor="middle" x="742.5" y="-8.8" font-family="sans-serif" font-size="9.00">GPS(3)</text>
</g>
<!-- e2&#45;&gt;v2 -->
<g id="edge34" class="edge"><title>e2&#45;&gt;v2</title>
<path fill="none" stroke="green" d="M1023.5,-116C1023.5,-116 1010.54,-74.939 984.5,-58 907.325,-7.79539 870.428,-41.7321 780.5,-22 775.436,-20.8888 770.029,-19.5561 764.93,-18.2312"/>
</g>
<!-- v5 -->
<g id="v5_Lion" class="node"><title>v5</title>
<ellipse fill="none" stroke="black" cx="1287.5" cy="-11" rx="21.5" ry="11"/>
<text text-anchor="middle" x="1287.5" y="-8.8" font-family="sans-serif" font-size="9.00">Lion</text>
</g>
<!-- e2&#45;&gt;v5 -->
<g id="edge35" class="edge"><title>e2&#45;&gt;v5</title>
<path fill="none" stroke="green" d="M1023.5,-116C1023.5,-116 1215.74,-112.006 1257.5,-80 1276.14,-65.7134 1283.44,-37.3712 1286.1,-22.1796"/>
</g>
<!-- e2&#45;&gt;v16 -->
<g id="edge36" class="edge"><title>e2&#45;&gt;v16</title>
<path fill="none" stroke="green" d="M1023.5,-116C1023.5,-116 986.683,-91.4551 966.836,-78.2239"/>
</g>
<!-- v17 -->
<g id="v17_Child" class="node"><title>v17</title>
<ellipse fill="none" stroke="black" cx="1056.5" cy="-11" rx="25" ry="11"/>
<text text-anchor="middle" x="1056.5" y="-8.8" font-family="sans-serif" font-size="9.00">Child</text>
</g>
<!-- e2&#45;&gt;v17 -->
<g id="edge37" class="edge"><title>e2&#45;&gt;v17</title>
<path fill="none" stroke="green" d="M1023.5,-116C1023.5,-116 1045.08,-48.0023 1053.34,-21.972"/>
</g>
<!-- e3 -->
<g id="node5" class="node"><title>e3</title>
</g>
<!-- e3&#45;&gt;v6 -->
<g id="edge38" class="edge"><title>e3&#45;&gt;v6</title>
<path fill="none" stroke="green" d="M348.5,-116C348.5,-116 365.309,-93.2583 375.289,-79.7554"/>
</g>
<!-- v9 -->
<g id="v9_Childattack" class="node"><title>v9</title>
<ellipse fill="none" stroke="black" cx="357.5" cy="-11" rx="47" ry="11"/>
<text text-anchor="middle" x="357.5" y="-8.8" font-family="sans-serif" font-size="9.00">Childattack</text>
</g>
<!-- e3&#45;&gt;v9 -->
<g id="edge39" class="edge"><title>e3&#45;&gt;v9</title>
<path fill="none" stroke="green" d="M348.5,-116C348.5,-116 349.162,-83.7062 351.5,-58 352.623,-45.6482 354.566,-31.5108 355.936,-22.2059"/>
</g>
<!-- v11 -->
<g id="v11_Lionattack" class="node"><title>v11</title>
<ellipse fill="none" stroke="black" cx="908.5" cy="-11" rx="43" ry="11"/>
<text text-anchor="middle" x="908.5" y="-8.8" font-family="sans-serif" font-size="9.00">Lionattack</text>
</g>
<!-- e3&#45;&gt;v11 -->
<g id="edge40" class="edge"><title>e3&#45;&gt;v11</title>
<path fill="none" stroke="green" d="M348.5,-116C348.5,-116 651.526,-108.088 732.5,-80 749.505,-74.1015 750.245,-65.728 766.5,-58 803.829,-40.2531 849.765,-26.7639 879.093,-19.116"/>
</g>
<!-- v21 -->
<g id="v21_GPS(1)" class="node"><title>v21</title>
<ellipse fill="none" stroke="black" cx="188.5" cy="-11" rx="29" ry="11"/>
<text text-anchor="middle" x="188.5" y="-8.8" font-family="sans-serif" font-size="9.00">GPS(1)</text>
</g>
<!-- e3&#45;&gt;v21 -->
<g id="edge41" class="edge"><title>e3&#45;&gt;v21</title>
<path fill="none" stroke="green" d="M348.5,-116C348.5,-116 240.834,-46.0171 202.142,-20.867"/>
</g>
<!-- e4 -->
<g id="node6" class="node"><title>e4</title>
</g>
<!-- e4&#45;&gt;v7 -->
<g id="edge42" class="edge"><title>e4&#45;&gt;v7</title>
<path fill="none" stroke="green" d="M573.5,-116C573.5,-116 495.34,-88.3434 460.229,-75.9195"/>
</g>
<!-- v14 -->
<g id="v14_Child" class="node"><title>v14</title>
<ellipse fill="none" stroke="black" cx="447.5" cy="-11" rx="25" ry="11"/>
<text text-anchor="middle" x="447.5" y="-8.8" font-family="sans-serif" font-size="9.00">Child</text>
</g>
<!-- e4&#45;&gt;v14 -->
<g id="edge43" class="edge"><title>e4&#45;&gt;v14</title>
<path fill="none" stroke="green" d="M573.5,-116C573.5,-116 557.594,-78.7753 534.5,-58 513.923,-39.4885 484.549,-25.9849 465.753,-18.5639"/>
</g>
<!-- v18 -->
<g id="v18_Lion" class="node"><title>v18</title>
<ellipse fill="none" stroke="black" cx="991.5" cy="-11" rx="21.5" ry="11"/>
<text text-anchor="middle" x="991.5" y="-8.8" font-family="sans-serif" font-size="9.00">Lion</text>
</g>
<!-- e4&#45;&gt;v18 -->
<g id="edge44" class="edge"><title>e4&#45;&gt;v18</title>
<path fill="none" stroke="green" d="M573.5,-116C573.5,-116 681.691,-100.526 766.5,-80 853.968,-58.8305 874.56,-48.7045 960.5,-22 964.928,-20.624 969.7,-19.1035 974.141,-17.6722"/>
</g>
<!-- v23 -->
<g id="v23_GPS(2)" class="node"><title>v23</title>
<ellipse fill="none" stroke="black" cx="590.5" cy="-11" rx="29" ry="11"/>
<text text-anchor="middle" x="590.5" y="-8.8" font-family="sans-serif" font-size="9.00">GPS(2)</text>
</g>
<!-- e4&#45;&gt;v23 -->
<g id="edge45" class="edge"><title>e4&#45;&gt;v23</title>
<path fill="none" stroke="green" d="M573.5,-116C573.5,-116 584.508,-48.6577 588.808,-22.3521"/>
</g>
<!-- e5 -->
<g id="node7" class="node"><title>e5</title>
</g>
<!-- e5&#45;&gt;v8 -->
<g id="edge46" class="edge"><title>e5&#45;&gt;v8</title>
<path fill="none" stroke="green" d="M679.5,-116C679.5,-116 567.828,-86.6462 522.897,-74.8359"/>
</g>
<!-- v15 -->
<g id="v15_Child" class="node"><title>v15</title>
<ellipse fill="none" stroke="black" cx="515.5" cy="-11" rx="25" ry="11"/>
<text text-anchor="middle" x="515.5" y="-8.8" font-family="sans-serif" font-size="9.00">Child</text>
</g>
<!-- e5&#45;&gt;v15 -->
<g id="edge47" class="edge"><title>e5&#45;&gt;v15</title>
<path fill="none" stroke="green" d="M679.5,-116C679.5,-116 568.089,-45.349 528.921,-20.5108"/>
</g>
<!-- v19 -->
<g id="v19_Lion" class="node"><title>v19</title>
<ellipse fill="none" stroke="black" cx="1121.5" cy="-11" rx="21.5" ry="11"/>
<text text-anchor="middle" x="1121.5" y="-8.8" font-family="sans-serif" font-size="9.00">Lion</text>
</g>
<!-- e5&#45;&gt;v19 -->
<g id="edge48" class="edge"><title>e5&#45;&gt;v19</title>
<path fill="none" stroke="green" d="M679.5,-116C679.5,-116 814.79,-82.6348 923.5,-58 997.55,-41.2196 1017.17,-41.6794 1090.5,-22 1095.09,-20.7688 1100,-19.2689 1104.54,-17.8092"/>
</g>
<!-- v24 -->
<g id="v24_GPS(3)" class="node"><title>v24</title>
<ellipse fill="none" stroke="black" cx="666.5" cy="-11" rx="29" ry="11"/>
<text text-anchor="middle" x="666.5" y="-8.8" font-family="sans-serif" font-size="9.00">GPS(3)</text>
</g>
<!-- e5&#45;&gt;v24 -->
<g id="edge49" class="edge"><title>e5&#45;&gt;v24</title>
<path fill="none" stroke="green" d="M679.5,-116C679.5,-116 719.172,-105.164 732.5,-80 737.076,-71.3593 737.024,-66.6681 732.5,-58 722.741,-39.3037 701.532,-26.659 685.776,-19.4318"/>
</g>
<!-- v0&#45;&gt;v3 -->
<g id="edge32" class="edge"><title>v0&#45;&gt;v3</title>
<path fill="none" stroke="green" d="M45.9329,-21.2214C55.7539,-28.0232 69.7141,-36.3546 83.5,-40 157.404,-59.5427 697.958,-60.8628 771.5,-40 784.414,-36.3366 797.259,-28.007 806.249,-21.2104"/>
</g>
<!-- v1&#45;&gt;v2 -->
<g id="edge12" class="edge"><title>v1&#45;&gt;v2</title>
<path fill="none" stroke="black" d="M700.384,-58.2455C708.647,-49.1716 721.035,-35.5697 730.238,-25.4636"/>
<polygon fill="black" stroke="black" points="733.718,-21.6427 732.015,-26.8544 732.035,-23.491 730.352,-25.3394 730.352,-25.3394 730.352,-25.3394 732.035,-23.491 728.688,-23.8244 733.718,-21.6427 733.718,-21.6427"/>
</g>
<!-- v1&#45;&gt;v4 -->
<g id="edge33" class="edge"><title>v1&#45;&gt;v4</title>
<path fill="none" stroke="green" d="M721.61,-73.3806C813.017,-86.277 1086.25,-121.753 1171.5,-98 1184.63,-94.3414 1197.75,-86.0113 1206.95,-79.2134"/>
</g>
<!-- v1&#45;&gt;v23 -->
<g id="edge13" class="edge"><title>v1&#45;&gt;v23</title>
<path fill="none" stroke="black" d="M675.719,-59.25C658.124,-49.4947 629.632,-33.6971 610.492,-23.0847"/>
<polygon fill="black" stroke="black" points="605.84,-20.5052 611.304,-20.962 608.026,-21.7175 610.213,-22.9298 610.213,-22.9298 610.213,-22.9298 608.026,-21.7175 609.122,-24.8976 605.84,-20.5052 605.84,-20.5052"/>
</g>
<!-- v1&#45;&gt;v24 -->
<g id="edge14" class="edge"><title>v1&#45;&gt;v24</title>
<path fill="none" stroke="black" d="M687.031,-57.9883C683.12,-49.2286 677.391,-36.3956 672.978,-26.5103"/>
<polygon fill="black" stroke="black" points="670.931,-21.925 675.024,-25.5735 671.95,-24.2079 672.969,-26.4907 672.969,-26.4907 672.969,-26.4907 671.95,-24.2079 670.915,-27.4079 670.931,-21.925 670.931,-21.925"/>
</g>
<!-- v4&#45;&gt;v5 -->
<g id="edge15" class="edge"><title>v4&#45;&gt;v5</title>
<path fill="none" stroke="black" d="M1230.73,-58.7527C1242.25,-49.2632 1260.23,-34.4551 1272.86,-24.0526"/>
<polygon fill="black" stroke="black" points="1276.93,-20.7077 1274.5,-25.6232 1275,-22.297 1273.07,-23.8863 1273.07,-23.8863 1273.07,-23.8863 1275,-22.297 1271.64,-22.1495 1276.93,-20.7077 1276.93,-20.7077"/>
</g>
<!-- v4&#45;&gt;v18 -->
<g id="edge16" class="edge"><title>v4&#45;&gt;v18</title>
<path fill="none" stroke="black" d="M1196.84,-62.0799C1191.49,-60.7122 1185.8,-59.2828 1180.5,-58 1110.5,-41.0542 1091.95,-41.0739 1022.5,-22 1019.49,-21.1744 1016.35,-20.2407 1013.25,-19.2837"/>
<polygon fill="black" stroke="black" points="1008.47,-17.7729 1013.92,-17.1344 1010.86,-18.5263 1013.24,-19.2798 1013.24,-19.2798 1013.24,-19.2798 1010.86,-18.5263 1012.56,-21.4252 1008.47,-17.7729 1008.47,-17.7729"/>
</g>
<!-- v4&#45;&gt;v19 -->
<g id="edge17" class="edge"><title>v4&#45;&gt;v19</title>
<path fill="none" stroke="black" d="M1204.62,-59.4948C1187.14,-49.5096 1158.18,-32.9578 1139.47,-22.267"/>
<polygon fill="black" stroke="black" points="1134.95,-19.6829 1140.4,-20.2101 1137.12,-20.9232 1139.29,-22.1636 1139.29,-22.1636 1139.29,-22.1636 1137.12,-20.9232 1138.17,-24.1172 1134.95,-19.6829 1134.95,-19.6829"/>
</g>
<!-- v6&#45;&gt;v9 -->
<g id="edge18" class="edge"><title>v6&#45;&gt;v9</title>
<path fill="none" stroke="black" d="M378.031,-57.9883C374.168,-49.3368 368.532,-36.7119 364.142,-26.8777"/>
<polygon fill="black" stroke="black" points="362.1,-22.3039 366.193,-25.9523 363.119,-24.5867 364.138,-26.8696 364.138,-26.8696 364.138,-26.8696 363.119,-24.5867 362.084,-27.7868 362.1,-22.3039 362.1,-22.3039"/>
</g>
<!-- v6&#45;&gt;v14 -->
<g id="edge19" class="edge"><title>v6&#45;&gt;v14</title>
<path fill="none" stroke="black" d="M392.656,-59.25C403.435,-49.9638 420.569,-35.2025 432.816,-24.6504"/>
<polygon fill="black" stroke="black" points="436.767,-21.2473 434.447,-26.2155 434.873,-22.8791 432.979,-24.5108 432.979,-24.5108 432.979,-24.5108 434.873,-22.8791 431.51,-22.8062 436.767,-21.2473 436.767,-21.2473"/>
</g>
<!-- v6&#45;&gt;v15 -->
<g id="edge20" class="edge"><title>v6&#45;&gt;v15</title>
<path fill="none" stroke="black" d="M398.279,-61.3562C421.988,-51.3736 466.873,-32.4747 493.695,-21.1809"/>
<polygon fill="black" stroke="black" points="498.484,-19.1645 494.749,-23.1785 496.18,-20.1346 493.876,-21.1048 493.876,-21.1048 493.876,-21.1048 496.18,-20.1346 493.003,-19.0311 498.484,-19.1645 498.484,-19.1645"/>
</g>
<!-- v7&#45;&gt;v9 -->
<g id="edge21" class="edge"><title>v7&#45;&gt;v9</title>
<path fill="none" stroke="black" d="M431.178,-59.9766C416.914,-50.6881 393.251,-35.28 376.598,-24.4362"/>
<polygon fill="black" stroke="black" points="372.101,-21.5076 377.519,-22.3505 374.196,-22.8718 376.291,-24.236 376.291,-24.236 376.291,-24.236 374.196,-22.8718 375.063,-26.1215 372.101,-21.5076 372.101,-21.5076"/>
</g>
<!-- v7&#45;&gt;v14 -->
<g id="edge22" class="edge"><title>v7&#45;&gt;v14</title>
<path fill="none" stroke="black" d="M444.215,-57.9883C444.822,-49.4941 445.702,-37.1697 446.399,-27.4169"/>
<polygon fill="black" stroke="black" points="446.764,-22.3039 448.652,-27.4515 446.586,-24.7975 446.408,-27.2912 446.408,-27.2912 446.408,-27.2912 446.586,-24.7975 444.163,-27.1308 446.764,-22.3039 446.764,-22.3039"/>
</g>
<!-- v7&#45;&gt;v15 -->
<g id="edge23" class="edge"><title>v7&#45;&gt;v15</title>
<path fill="none" stroke="black" d="M454.435,-59.4948C466.557,-50.067 486.205,-34.7854 499.93,-24.1101"/>
<polygon fill="black" stroke="black" points="503.984,-20.9566 501.419,-25.8024 502.011,-22.4915 500.038,-24.0264 500.038,-24.0264 500.038,-24.0264 502.011,-22.4915 498.656,-22.2503 503.984,-20.9566 503.984,-20.9566"/>
</g>
<!-- v8&#45;&gt;v9 -->
<g id="edge24" class="edge"><title>v8&#45;&gt;v9</title>
<path fill="none" stroke="black" d="M488.207,-61.7931C463.301,-52.3052 415.461,-34.0804 385.081,-22.5071"/>
<polygon fill="black" stroke="black" points="380.362,-20.7092 385.835,-20.3866 382.698,-21.5992 385.034,-22.4892 385.034,-22.4892 385.034,-22.4892 382.698,-21.5992 384.233,-24.5918 380.362,-20.7092 380.362,-20.7092"/>
</g>
<!-- v8&#45;&gt;v14 -->
<g id="edge25" class="edge"><title>v8&#45;&gt;v14</title>
<path fill="none" stroke="black" d="M495.342,-59.0026C486.037,-49.8606 471.523,-35.6014 460.92,-25.1846"/>
<polygon fill="black" stroke="black" points="457.208,-21.5373 462.351,-23.4364 458.991,-23.2894 460.774,-25.0414 460.774,-25.0414 460.774,-25.0414 458.991,-23.2894 459.197,-26.6465 457.208,-21.5373 457.208,-21.5373"/>
</g>
<!-- v8&#45;&gt;v15 -->
<g id="edge26" class="edge"><title>v8&#45;&gt;v15</title>
<path fill="none" stroke="black" d="M506.467,-57.9883C508.135,-49.4941 510.556,-37.1697 512.472,-27.4169"/>
<polygon fill="black" stroke="black" points="513.476,-22.3039 514.72,-27.6438 512.994,-24.757 512.512,-27.2101 512.512,-27.2101 512.512,-27.2101 512.994,-24.757 510.304,-26.7764 513.476,-22.3039 513.476,-22.3039"/>
</g>
<!-- v10&#45;&gt;v11 -->
<g id="edge27" class="edge"><title>v10&#45;&gt;v11</title>
<path fill="none" stroke="black" d="M1091.43,-60.0953C1051.87,-49.6945 982.575,-31.475 941.571,-20.6948"/>
<polygon fill="black" stroke="black" points="936.715,-19.4181 942.123,-18.5134 939.133,-20.0538 941.551,-20.6895 941.551,-20.6895 941.551,-20.6895 939.133,-20.0538 940.979,-22.8655 936.715,-19.4181 936.715,-19.4181"/>
</g>
<!-- v12 -->
<g id="v12_Impalaseen" class="node"><title>v12</title>
<ellipse fill="none" stroke="black" cx="1204.5" cy="-11" rx="43" ry="11"/>
<text text-anchor="middle" x="1204.5" y="-8.8" font-family="sans-serif" font-size="9.00">Impalaseen</text>
</g>
<!-- v10&#45;&gt;v12 -->
<g id="edge28" class="edge"><title>v10&#45;&gt;v12</title>
<path fill="none" stroke="black" d="M1135.96,-58.2455C1149.85,-48.8739 1170.9,-34.6723 1186,-24.4805"/>
<polygon fill="black" stroke="black" points="1190.48,-21.4561 1187.6,-26.1178 1188.41,-22.8544 1186.34,-24.2526 1186.34,-24.2526 1186.34,-24.2526 1188.41,-22.8544 1185.08,-22.3875 1190.48,-21.4561 1190.48,-21.4561"/>
</g>
<!-- v10&#45;&gt;v20 -->
<g id="edge50" class="edge"><title>v10&#45;&gt;v20</title>
<path fill="none" stroke="green" d="M1101.38,-79.2576C1086.83,-86.0765 1066.48,-94.4133 1047.5,-98 897.488,-126.345 512.775,-108.928 360.5,-98 298.607,-93.558 226.813,-81.5167 187.986,-74.4247"/>
</g>
<!-- v11&#45;&gt;v12 -->
<g id="edge51" class="edge"><title>v11&#45;&gt;v12</title>
<path fill="none" stroke="green" d="M924.859,-21.2415C936.744,-28.0527 953.486,-36.3871 969.5,-40 1044.5,-56.9213 1067.44,-56.686 1142.5,-40 1158.74,-36.3897 1175.76,-28.055 1187.85,-21.2431"/>
</g>
<!-- v22 -->
<g id="v22_GPS(0)" class="node"><title>v22</title>
<ellipse fill="none" stroke="black" cx="112.5" cy="-11" rx="29" ry="11"/>
<text text-anchor="middle" x="112.5" y="-8.8" font-family="sans-serif" font-size="9.00">GPS(0)</text>
</g>
<!-- v12&#45;&gt;v22 -->
<g id="edge52" class="edge"><title>v12&#45;&gt;v22</title>
<path fill="none" stroke="green" d="M1187.85,-21.2431C1175.76,-28.055 1158.74,-36.3897 1142.5,-40 1089.19,-51.8514 212.038,-54.9041 159.5,-40 146.586,-36.3366 133.741,-28.007 124.751,-21.2104"/>
</g>
<!-- v16&#45;&gt;v17 -->
<g id="edge29" class="edge"><title>v16&#45;&gt;v17</title>
<path fill="none" stroke="black" d="M968.256,-60.4476C986.077,-50.6634 1017.24,-33.555 1037.36,-22.5074"/>
<polygon fill="black" stroke="black" points="1041.98,-19.9742 1038.68,-24.3528 1039.78,-21.1773 1037.59,-22.3805 1037.59,-22.3805 1037.59,-22.3805 1039.78,-21.1773 1036.51,-20.4082 1041.98,-19.9742 1041.98,-19.9742"/>
</g>
<!-- v20&#45;&gt;v21 -->
<g id="edge30" class="edge"><title>v20&#45;&gt;v21</title>
<path fill="none" stroke="black" d="M164.685,-57.9883C169.221,-49.2286 175.867,-36.3956 180.986,-26.5103"/>
<polygon fill="black" stroke="black" points="183.36,-21.925 183.059,-27.3997 182.211,-24.145 181.061,-26.365 181.061,-26.365 181.061,-26.365 182.211,-24.145 179.063,-25.3303 183.36,-21.925 183.36,-21.925"/>
</g>
<!-- v20&#45;&gt;v22 -->
<g id="edge31" class="edge"><title>v20&#45;&gt;v22</title>
<path fill="none" stroke="black" d="M151.313,-58.2455C143.765,-49.2519 132.483,-35.8101 124.026,-25.7327"/>
<polygon fill="black" stroke="black" points="120.593,-21.6427 125.531,-24.0261 122.2,-23.5576 123.807,-25.4726 123.807,-25.4726 123.807,-25.4726 122.2,-23.5576 122.084,-26.919 120.593,-21.6427 120.593,-21.6427"/>
</g>
</g>
</svg>
