<?xml version="1.0" encoding="UTF-8" standalone="no"?>
<?xml-stylesheet href="style.css" type="text/css"?>
<!DOCTYPE svg PUBLIC "-//W3C//DTD SVG 1.1//EN"
 "http://www.w3.org/Graphics/SVG/1.1/DTD/svg11.dtd">
<!-- Generated by graphviz version 2.38.0 (20140413.2041)
 -->
<!-- Title: 75.svg Pages: 1 -->
<svg width="1205pt" height="179pt"
 viewBox="0.00 0.00 1204.50 179.00" xmlns="http://www.w3.org/2000/svg" xmlns:xlink="http://www.w3.org/1999/xlink">
<g id="graph0" class="graph" transform="scale(1 1) rotate(0) translate(4 175)">
<title>75.svg</title>
<polygon fill="white" stroke="none" points="-4,4 -4,-175 1200.5,-175 1200.5,4 -4,4"/>
<!-- r0 -->
<g id="node1" class="node"><title>r0</title>
<polygon fill="none" stroke="black" stroke-dasharray="5,2" points="185.5,-171 162.5,-171 162.5,-153 185.5,-153 185.5,-171"/>
<text text-anchor="middle" x="174" y="-159.8" font-family="serif" font-size="9.00">0</text>
</g>
<!-- v10 -->
<g id="v10_Field" class="node"><title>v10</title>
<ellipse fill="none" stroke="black" cx="25" cy="-11" rx="25" ry="11"/>
<text text-anchor="middle" x="25" y="-8.8" font-family="sans-serif" font-size="9.00">Field</text>
</g>
<!-- r0&#45;&gt;v10 -->
<g id="edge1" class="edge"><title>r0&#45;&gt;v10</title>
<path fill="none" stroke="black" d="M162.222,-152.862C142.816,-139.14 103.443,-109.953 75,-80 58.8635,-63.0068 43.3756,-40.7082 34.0231,-26.3641"/>
<polygon fill="black" stroke="black" points="31.0945,-21.8237 35.6956,-24.8059 32.4496,-23.9246 33.8047,-26.0255 33.8047,-26.0255 33.8047,-26.0255 32.4496,-23.9246 31.9139,-27.2451 31.0945,-21.8237 31.0945,-21.8237"/>
</g>
<!-- v11 -->
<g id="v11_Aura" class="node"><title>v11</title>
<ellipse fill="none" stroke="black" cx="113" cy="-69" rx="21.5" ry="11"/>
<text text-anchor="middle" x="113" y="-66.8" font-family="sans-serif" font-size="9.00">Aura</text>
</g>
<!-- r0&#45;&gt;v11 -->
<g id="edge2" class="edge"><title>r0&#45;&gt;v11</title>
<path fill="none" stroke="black" d="M165.157,-152.911C156.404,-144.557 143.038,-130.826 134,-117 127.42,-106.935 121.956,-94.4673 118.252,-84.9025"/>
<polygon fill="black" stroke="black" points="116.479,-80.1934 120.347,-84.08 117.36,-82.5331 118.241,-84.8728 118.241,-84.8728 118.241,-84.8728 117.36,-82.5331 116.135,-85.6656 116.479,-80.1934 116.479,-80.1934"/>
</g>
<!-- v12 -->
<g id="v12_Aura" class="node"><title>v12</title>
<ellipse fill="none" stroke="black" cx="174" cy="-69" rx="21.5" ry="11"/>
<text text-anchor="middle" x="174" y="-66.8" font-family="sans-serif" font-size="9.00">Aura</text>
</g>
<!-- r0&#45;&gt;v12 -->
<g id="edge3" class="edge"><title>r0&#45;&gt;v12</title>
<path fill="none" stroke="black" d="M174,-152.924C174,-137.736 174,-104.696 174,-85.2178"/>
<polygon fill="black" stroke="black" points="174,-80.1095 176.25,-85.1095 174,-82.6095 174,-85.1095 174,-85.1095 174,-85.1095 174,-82.6095 171.75,-85.1096 174,-80.1095 174,-80.1095"/>
</g>
<!-- v13 -->
<g id="v13_Aura" class="node"><title>v13</title>
<ellipse fill="none" stroke="black" cx="274" cy="-69" rx="21.5" ry="11"/>
<text text-anchor="middle" x="274" y="-66.8" font-family="sans-serif" font-size="9.00">Aura</text>
</g>
<!-- r0&#45;&gt;v13 -->
<g id="edge4" class="edge"><title>r0&#45;&gt;v13</title>
<path fill="none" stroke="black" d="M182.874,-152.924C200.351,-137.02 239.337,-101.543 260.2,-82.5579"/>
<polygon fill="black" stroke="black" points="264.119,-78.9914 261.936,-84.0208 262.27,-80.6741 260.421,-82.3567 260.421,-82.3567 260.421,-82.3567 262.27,-80.6741 258.907,-80.6926 264.119,-78.9914 264.119,-78.9914"/>
</g>
<!-- v17 -->
<g id="v17_Aura" class="node"><title>v17</title>
<ellipse fill="none" stroke="black" cx="1000" cy="-69" rx="21.5" ry="11"/>
<text text-anchor="middle" x="1000" y="-66.8" font-family="sans-serif" font-size="9.00">Aura</text>
</g>
<!-- r0&#45;&gt;v17 -->
<g id="edge5" class="edge"><title>r0&#45;&gt;v17</title>
<path fill="none" stroke="black" d="M185.814,-160.728C258.722,-158.86 654.67,-145.943 969,-80 972.124,-79.3447 975.377,-78.4923 978.55,-77.5616"/>
<polygon fill="black" stroke="black" points="983.442,-76.0516 979.328,-79.6764 981.053,-76.789 978.664,-77.5265 978.664,-77.5265 978.664,-77.5265 981.053,-76.789 978,-75.3766 983.442,-76.0516 983.442,-76.0516"/>
</g>
<!-- r1 -->
<g id="node2" class="node"><title>r1</title>
<polygon fill="none" stroke="black" stroke-dasharray="5,2" points="468.5,-171 445.5,-171 445.5,-153 468.5,-153 468.5,-171"/>
<text text-anchor="middle" x="457" y="-159.8" font-family="serif" font-size="9.00">1</text>
</g>
<!-- v3 -->
<g id="v3_Locale" class="node"><title>v3</title>
<ellipse fill="none" stroke="black" cx="313" cy="-11" rx="29" ry="11"/>
<text text-anchor="middle" x="313" y="-8.8" font-family="sans-serif" font-size="9.00">Locale</text>
</g>
<!-- r1&#45;&gt;v3 -->
<g id="edge6" class="edge"><title>r1&#45;&gt;v3</title>
<path fill="none" stroke="black" d="M449.258,-152.989C425.776,-128.692 355.185,-55.6493 325.924,-25.3727"/>
<polygon fill="black" stroke="black" points="322.241,-21.5615 327.333,-23.5933 323.978,-23.3592 325.715,-25.1569 325.715,-25.1569 325.715,-25.1569 323.978,-23.3592 324.097,-26.7205 322.241,-21.5615 322.241,-21.5615"/>
</g>
<!-- v4 -->
<g id="v4_Locale" class="node"><title>v4</title>
<ellipse fill="none" stroke="black" cx="731" cy="-69" rx="29" ry="11"/>
<text text-anchor="middle" x="731" y="-66.8" font-family="sans-serif" font-size="9.00">Locale</text>
</g>
<!-- r1&#45;&gt;v4 -->
<g id="edge7" class="edge"><title>r1&#45;&gt;v4</title>
<path fill="none" stroke="black" d="M468.773,-157.09C509.938,-143.418 648.033,-97.5546 705.536,-78.457"/>
<polygon fill="black" stroke="black" points="710.518,-76.8026 706.482,-80.5139 708.145,-77.5906 705.772,-78.3786 705.772,-78.3786 705.772,-78.3786 708.145,-77.5906 705.063,-76.2433 710.518,-76.8026 710.518,-76.8026"/>
</g>
<!-- v8 -->
<g id="v8_Locale" class="node"><title>v8</title>
<ellipse fill="none" stroke="black" cx="457" cy="-69" rx="29" ry="11"/>
<text text-anchor="middle" x="457" y="-66.8" font-family="sans-serif" font-size="9.00">Locale</text>
</g>
<!-- r1&#45;&gt;v8 -->
<g id="edge8" class="edge"><title>r1&#45;&gt;v8</title>
<path fill="none" stroke="black" d="M457,-152.924C457,-137.736 457,-104.696 457,-85.2178"/>
<polygon fill="black" stroke="black" points="457,-80.1095 459.25,-85.1095 457,-82.6095 457,-85.1095 457,-85.1095 457,-85.1095 457,-82.6095 454.75,-85.1096 457,-80.1095 457,-80.1095"/>
</g>
<!-- r2 -->
<g id="node3" class="node"><title>r2</title>
<polygon fill="none" stroke="black" stroke-dasharray="5,2" points="939.5,-171 916.5,-171 916.5,-153 939.5,-153 939.5,-171"/>
<text text-anchor="middle" x="928" y="-159.8" font-family="serif" font-size="9.00">2</text>
</g>
<!-- v0 -->
<g id="v0_Area(2)" class="node"><title>v0</title>
<ellipse fill="none" stroke="black" cx="1164" cy="-11" rx="32.5" ry="11"/>
<text text-anchor="middle" x="1164" y="-8.8" font-family="sans-serif" font-size="9.00">Area(2)</text>
</g>
<!-- r2&#45;&gt;v0 -->
<g id="edge9" class="edge"><title>r2&#45;&gt;v0</title>
<path fill="none" stroke="black" d="M939.648,-157.388C959.728,-150.9 1001.8,-136.144 1034,-117 1080.44,-89.388 1128.11,-46.3847 1150.64,-24.9945"/>
<polygon fill="black" stroke="black" points="1154.3,-21.5063 1152.23,-26.5865 1152.49,-23.2327 1150.68,-24.9591 1150.68,-24.9591 1150.68,-24.9591 1152.49,-23.2327 1149.13,-23.3317 1154.3,-21.5063 1154.3,-21.5063"/>
</g>
<!-- v1 -->
<g id="v1_Area(1)" class="node"><title>v1</title>
<ellipse fill="none" stroke="black" cx="928" cy="-69" rx="32.5" ry="11"/>
<text text-anchor="middle" x="928" y="-66.8" font-family="sans-serif" font-size="9.00">Area(1)</text>
</g>
<!-- r2&#45;&gt;v1 -->
<g id="edge10" class="edge"><title>r2&#45;&gt;v1</title>
<path fill="none" stroke="black" d="M928,-152.924C928,-137.736 928,-104.696 928,-85.2178"/>
<polygon fill="black" stroke="black" points="928,-80.1095 930.25,-85.1095 928,-82.6095 928,-85.1095 928,-85.1095 928,-85.1095 928,-82.6095 925.75,-85.1096 928,-80.1095 928,-80.1095"/>
</g>
<!-- v6 -->
<g id="v6_Area(0)" class="node"><title>v6</title>
<ellipse fill="none" stroke="black" cx="651" cy="-69" rx="32.5" ry="11"/>
<text text-anchor="middle" x="651" y="-66.8" font-family="sans-serif" font-size="9.00">Area(0)</text>
</g>
<!-- r2&#45;&gt;v6 -->
<g id="edge11" class="edge"><title>r2&#45;&gt;v6</title>
<path fill="none" stroke="black" d="M916.45,-157.206C875.518,-143.759 736.679,-98.1474 677.775,-78.7962"/>
<polygon fill="black" stroke="black" points="673.001,-77.2277 678.453,-76.6507 675.376,-78.008 677.751,-78.7883 677.751,-78.7883 677.751,-78.7883 675.376,-78.008 677.049,-80.9259 673.001,-77.2277 673.001,-77.2277"/>
</g>
<!-- e2 -->
<g id="node4" class="node"><title>e2</title>
</g>
<!-- v2 -->
<g id="v2_GPS(7)" class="node"><title>v2</title>
<ellipse fill="none" stroke="black" cx="1016" cy="-11" rx="29" ry="11"/>
<text text-anchor="middle" x="1016" y="-8.8" font-family="sans-serif" font-size="9.00">GPS(7)</text>
</g>
<!-- e2&#45;&gt;v2 -->
<g id="edge34" class="edge"><title>e2&#45;&gt;v2</title>
<path fill="none" stroke="green" d="M1025,-116C1025,-116 1028.89,-96.1151 1030,-80 1030.67,-70.2455 1031.44,-67.6713 1030,-58 1028.11,-45.2844 1023.43,-31.2209 1020,-22.0327"/>
</g>
<!-- v5 -->
<g id="v5_Lion" class="node"><title>v5</title>
<ellipse fill="none" stroke="black" cx="795" cy="-11" rx="21.5" ry="11"/>
<text text-anchor="middle" x="795" y="-8.8" font-family="sans-serif" font-size="9.00">Lion</text>
</g>
<!-- e2&#45;&gt;v5 -->
<g id="edge35" class="edge"><title>e2&#45;&gt;v5</title>
<path fill="none" stroke="green" d="M1025,-116C1025,-116 943.53,-107.619 886,-80 853.286,-64.2946 820.587,-36.0368 804.782,-21.3841"/>
</g>
<!-- e2&#45;&gt;v17 -->
<g id="edge36" class="edge"><title>e2&#45;&gt;v17</title>
<path fill="none" stroke="green" d="M1025,-116C1025,-116 1012.64,-93.2583 1005.3,-79.7554"/>
</g>
<!-- v18 -->
<g id="v18_Child" class="node"><title>v18</title>
<ellipse fill="none" stroke="black" cx="1088" cy="-11" rx="25" ry="11"/>
<text text-anchor="middle" x="1088" y="-8.8" font-family="sans-serif" font-size="9.00">Child</text>
</g>
<!-- e2&#45;&gt;v18 -->
<g id="edge37" class="edge"><title>e2&#45;&gt;v18</title>
<path fill="none" stroke="green" d="M1025,-116C1025,-116 1066.19,-48.0023 1081.96,-21.972"/>
</g>
<!-- e4 -->
<g id="node5" class="node"><title>e4</title>
</g>
<!-- v7 -->
<g id="v7_GPS(8)" class="node"><title>v7</title>
<ellipse fill="none" stroke="black" cx="527" cy="-11" rx="29" ry="11"/>
<text text-anchor="middle" x="527" y="-8.8" font-family="sans-serif" font-size="9.00">GPS(8)</text>
</g>
<!-- e4&#45;&gt;v7 -->
<g id="edge39" class="edge"><title>e4&#45;&gt;v7</title>
<path fill="none" stroke="green" d="M144,-116C144,-116 463.015,-102.67 495,-80 514.48,-66.1933 522.462,-37.3777 525.43,-22.0666"/>
</g>
<!-- v9 -->
<g id="v9_Lion" class="node"><title>v9</title>
<ellipse fill="none" stroke="black" cx="382" cy="-11" rx="21.5" ry="11"/>
<text text-anchor="middle" x="382" y="-8.8" font-family="sans-serif" font-size="9.00">Lion</text>
</g>
<!-- e4&#45;&gt;v9 -->
<g id="edge40" class="edge"><title>e4&#45;&gt;v9</title>
<path fill="none" stroke="green" d="M144,-116C144,-116 238.987,-112.956 304,-80 333.484,-65.0541 360.88,-36.464 373.958,-21.5643"/>
</g>
<!-- e4&#45;&gt;v11 -->
<g id="edge41" class="edge"><title>e4&#45;&gt;v11</title>
<path fill="none" stroke="green" d="M144,-116C144,-116 128.674,-93.2583 119.574,-79.7554"/>
</g>
<!-- v14 -->
<g id="v14_Child" class="node"><title>v14</title>
<ellipse fill="none" stroke="black" cx="105" cy="-11" rx="25" ry="11"/>
<text text-anchor="middle" x="105" y="-8.8" font-family="sans-serif" font-size="9.00">Child</text>
</g>
<!-- e4&#45;&gt;v14 -->
<g id="edge42" class="edge"><title>e4&#45;&gt;v14</title>
<path fill="none" stroke="green" d="M144,-116C144,-116 97.8979,-107.615 82,-80 70.932,-60.775 86.375,-35.4095 96.8131,-21.7372"/>
</g>
<!-- e5 -->
<g id="node6" class="node"><title>e5</title>
</g>
<!-- e5&#45;&gt;v12 -->
<g id="edge43" class="edge"><title>e5&#45;&gt;v12</title>
<path fill="none" stroke="green" d="M287,-116C287,-116 221.436,-89.3101 190.19,-76.5907"/>
</g>
<!-- v15 -->
<g id="v15_Child" class="node"><title>v15</title>
<ellipse fill="none" stroke="black" cx="173" cy="-11" rx="25" ry="11"/>
<text text-anchor="middle" x="173" y="-8.8" font-family="sans-serif" font-size="9.00">Child</text>
</g>
<!-- e5&#45;&gt;v15 -->
<g id="edge44" class="edge"><title>e5&#45;&gt;v15</title>
<path fill="none" stroke="green" d="M287,-116C287,-116 261.857,-96.8181 243,-80 220.493,-59.9262 195.443,-34.8923 182.267,-21.5008"/>
</g>
<!-- v20 -->
<g id="v20_Lion" class="node"><title>v20</title>
<ellipse fill="none" stroke="black" cx="596" cy="-11" rx="21.5" ry="11"/>
<text text-anchor="middle" x="596" y="-8.8" font-family="sans-serif" font-size="9.00">Lion</text>
</g>
<!-- e5&#45;&gt;v20 -->
<g id="edge45" class="edge"><title>e5&#45;&gt;v20</title>
<path fill="none" stroke="green" d="M287,-116C287,-116 479.645,-104.371 528,-80 555.433,-66.174 578.56,-37.094 589.399,-21.8301"/>
</g>
<!-- v23 -->
<g id="v23_GPS(2)" class="node"><title>v23</title>
<ellipse fill="none" stroke="black" cx="864" cy="-11" rx="29" ry="11"/>
<text text-anchor="middle" x="864" y="-8.8" font-family="sans-serif" font-size="9.00">GPS(2)</text>
</g>
<!-- e5&#45;&gt;v23 -->
<g id="edge46" class="edge"><title>e5&#45;&gt;v23</title>
<path fill="none" stroke="green" d="M287,-116C287,-116 668.025,-116.618 769,-80 778.295,-76.629 828.55,-38.9389 851.972,-21.1685"/>
</g>
<!-- e6 -->
<g id="node7" class="node"><title>e6</title>
</g>
<!-- e6&#45;&gt;v13 -->
<g id="edge47" class="edge"><title>e6&#45;&gt;v13</title>
<path fill="none" stroke="green" d="M523,-116C523,-116 352.238,-84.4536 293.539,-73.6095"/>
</g>
<!-- v16 -->
<g id="v16_Child" class="node"><title>v16</title>
<ellipse fill="none" stroke="black" cx="241" cy="-11" rx="25" ry="11"/>
<text text-anchor="middle" x="241" y="-8.8" font-family="sans-serif" font-size="9.00">Child</text>
</g>
<!-- e6&#45;&gt;v16 -->
<g id="edge48" class="edge"><title>e6&#45;&gt;v16</title>
<path fill="none" stroke="green" d="M523,-116C523,-116 464.963,-96.7299 419,-80 359.937,-58.5019 290.496,-31.4578 258.616,-18.9421"/>
</g>
<!-- v21 -->
<g id="v21_Lion" class="node"><title>v21</title>
<ellipse fill="none" stroke="black" cx="657" cy="-11" rx="21.5" ry="11"/>
<text text-anchor="middle" x="657" y="-8.8" font-family="sans-serif" font-size="9.00">Lion</text>
</g>
<!-- e6&#45;&gt;v21 -->
<g id="edge49" class="edge"><title>e6&#45;&gt;v21</title>
<path fill="none" stroke="green" d="M523,-116C523,-116 614.031,-45.349 646.034,-20.5108"/>
</g>
<!-- v24 -->
<g id="v24_GPS(3)" class="node"><title>v24</title>
<ellipse fill="none" stroke="black" cx="940" cy="-11" rx="29" ry="11"/>
<text text-anchor="middle" x="940" y="-8.8" font-family="sans-serif" font-size="9.00">GPS(3)</text>
</g>
<!-- e6&#45;&gt;v24 -->
<g id="edge50" class="edge"><title>e6&#45;&gt;v24</title>
<path fill="none" stroke="green" d="M523,-116C523,-116 683.549,-116.671 804,-80 851.477,-65.5457 902.568,-35.6483 926.36,-20.7852"/>
</g>
<!-- v0&#45;&gt;v3 -->
<g id="edge32" class="edge"><title>v0&#45;&gt;v3</title>
<path fill="none" stroke="green" d="M1150.57,-21.2214C1140.75,-28.0232 1126.79,-36.3546 1113,-40 1032.11,-61.3891 440.491,-62.8338 360,-40 347.086,-36.3366 334.241,-28.007 325.251,-21.2104"/>
</g>
<!-- v1&#45;&gt;v2 -->
<g id="edge12" class="edge"><title>v1&#45;&gt;v2</title>
<path fill="none" stroke="black" d="M942.139,-59.0026C957.238,-49.394 981.221,-34.1324 997.739,-23.6206"/>
<polygon fill="black" stroke="black" points="1002.19,-20.7904 999.176,-25.3731 1000.08,-22.1326 997.968,-23.4748 997.968,-23.4748 997.968,-23.4748 1000.08,-22.1326 996.76,-21.5766 1002.19,-20.7904 1002.19,-20.7904"/>
</g>
<!-- v1&#45;&gt;v4 -->
<g id="edge33" class="edge"><title>v1&#45;&gt;v4</title>
<path fill="none" stroke="green" d="M895.235,-69C850.237,-69 805.24,-69 760.242,-69"/>
</g>
<!-- v1&#45;&gt;v23 -->
<g id="edge13" class="edge"><title>v1&#45;&gt;v23</title>
<path fill="none" stroke="black" d="M917.143,-58.5004C906.506,-49.1924 890.226,-34.9475 878.488,-24.6771"/>
<polygon fill="black" stroke="black" points="874.696,-21.3593 879.941,-22.9586 876.578,-23.0056 878.459,-24.6519 878.459,-24.6519 878.459,-24.6519 876.578,-23.0056 876.978,-26.3452 874.696,-21.3593 874.696,-21.3593"/>
</g>
<!-- v1&#45;&gt;v24 -->
<g id="edge14" class="edge"><title>v1&#45;&gt;v24</title>
<path fill="none" stroke="black" d="M930.145,-57.9883C931.966,-49.4941 934.607,-37.1697 936.696,-27.4169"/>
<polygon fill="black" stroke="black" points="937.792,-22.3039 938.944,-27.6644 937.268,-24.7484 936.744,-27.1929 936.744,-27.1929 936.744,-27.1929 937.268,-24.7484 934.544,-26.7214 937.792,-22.3039 937.792,-22.3039"/>
</g>
<!-- v4&#45;&gt;v5 -->
<g id="edge15" class="edge"><title>v4&#45;&gt;v5</title>
<path fill="none" stroke="black" d="M741.568,-58.7527C752.286,-49.3748 768.94,-34.8028 780.804,-24.4216"/>
<polygon fill="black" stroke="black" points="784.628,-21.0752 782.347,-26.0611 782.747,-22.7215 780.865,-24.3677 780.865,-24.3677 780.865,-24.3677 782.747,-22.7215 779.384,-22.6744 784.628,-21.0752 784.628,-21.0752"/>
</g>
<!-- v4&#45;&gt;v20 -->
<g id="edge16" class="edge"><title>v4&#45;&gt;v20</title>
<path fill="none" stroke="black" d="M712.512,-60.3309C687.359,-49.8969 642.505,-31.2909 616.397,-20.461"/>
<polygon fill="black" stroke="black" points="611.749,-18.5331 617.23,-18.3706 614.059,-19.491 616.368,-20.4489 616.368,-20.4489 616.368,-20.4489 614.059,-19.491 615.506,-22.5272 611.749,-18.5331 611.749,-18.5331"/>
</g>
<!-- v4&#45;&gt;v21 -->
<g id="edge17" class="edge"><title>v4&#45;&gt;v21</title>
<path fill="none" stroke="black" d="M718.78,-58.7527C706.132,-49.1807 686.332,-34.1972 672.569,-23.7822"/>
<polygon fill="black" stroke="black" points="668.507,-20.7077 673.851,-21.9308 670.5,-22.2164 672.494,-23.725 672.494,-23.725 672.494,-23.725 670.5,-22.2164 671.136,-25.5192 668.507,-20.7077 668.507,-20.7077"/>
</g>
<!-- v6&#45;&gt;v7 -->
<g id="edge18" class="edge"><title>v6&#45;&gt;v7</title>
<path fill="none" stroke="black" d="M632.703,-59.737C610.472,-49.6969 572.987,-32.7682 549.146,-22.0016"/>
<polygon fill="black" stroke="black" points="544.569,-19.9343 550.052,-19.9417 546.847,-20.9633 549.126,-21.9923 549.126,-21.9923 549.126,-21.9923 546.847,-20.9633 548.2,-24.0429 544.569,-19.9343 544.569,-19.9343"/>
</g>
<!-- v6&#45;&gt;v8 -->
<g id="edge38" class="edge"><title>v6&#45;&gt;v8</title>
<path fill="none" stroke="green" d="M618.486,-69C574.382,-69 530.279,-69 486.176,-69"/>
</g>
<!-- v22 -->
<g id="v22_GPS(0)" class="node"><title>v22</title>
<ellipse fill="none" stroke="black" cx="726" cy="-11" rx="29" ry="11"/>
<text text-anchor="middle" x="726" y="-8.8" font-family="sans-serif" font-size="9.00">GPS(0)</text>
</g>
<!-- v6&#45;&gt;v22 -->
<g id="edge19" class="edge"><title>v6&#45;&gt;v22</title>
<path fill="none" stroke="black" d="M663.385,-58.7527C676.054,-49.2933 695.8,-34.549 709.725,-24.1517"/>
<polygon fill="black" stroke="black" points="713.846,-21.0752 711.185,-25.8696 711.843,-22.5709 709.839,-24.0667 709.839,-24.0667 709.839,-24.0667 711.843,-22.5709 708.493,-22.2638 713.846,-21.0752 713.846,-21.0752"/>
</g>
<!-- v8&#45;&gt;v9 -->
<g id="edge20" class="edge"><title>v8&#45;&gt;v9</title>
<path fill="none" stroke="black" d="M444.615,-58.7527C431.796,-49.1807 411.728,-34.1972 397.78,-23.7822"/>
<polygon fill="black" stroke="black" points="393.662,-20.7077 399.015,-21.8963 395.665,-22.2035 397.669,-23.6992 397.669,-23.6992 397.669,-23.6992 395.665,-22.2035 396.322,-25.5021 393.662,-20.7077 393.662,-20.7077"/>
</g>
<!-- v19 -->
<g id="v19_Impala" class="node"><title>v19</title>
<ellipse fill="none" stroke="black" cx="451" cy="-11" rx="29" ry="11"/>
<text text-anchor="middle" x="451" y="-8.8" font-family="sans-serif" font-size="9.00">Impala</text>
</g>
<!-- v8&#45;&gt;v19 -->
<g id="edge21" class="edge"><title>v8&#45;&gt;v19</title>
<path fill="none" stroke="black" d="M455.927,-57.9883C455.017,-49.4941 453.697,-37.1697 452.652,-27.4169"/>
<polygon fill="black" stroke="black" points="452.104,-22.3039 454.874,-27.0357 452.37,-24.7896 452.637,-27.2754 452.637,-27.2754 452.637,-27.2754 452.37,-24.7896 450.4,-27.5152 452.104,-22.3039 452.104,-22.3039"/>
</g>
<!-- v11&#45;&gt;v14 -->
<g id="edge22" class="edge"><title>v11&#45;&gt;v14</title>
<path fill="none" stroke="black" d="M111.57,-57.9883C110.356,-49.4941 108.596,-37.1697 107.202,-27.4169"/>
<polygon fill="black" stroke="black" points="106.472,-22.3039 109.407,-26.9354 106.826,-24.7787 107.179,-27.2536 107.179,-27.2536 107.179,-27.2536 106.826,-24.7787 104.952,-27.5719 106.472,-22.3039 106.472,-22.3039"/>
</g>
<!-- v11&#45;&gt;v15 -->
<g id="edge23" class="edge"><title>v11&#45;&gt;v15</title>
<path fill="none" stroke="black" d="M122.64,-59.0026C132.553,-49.7505 148.082,-35.2571 159.275,-24.8098"/>
<polygon fill="black" stroke="black" points="163.185,-21.1611 161.064,-26.2176 161.357,-22.8669 159.529,-24.5727 159.529,-24.5727 159.529,-24.5727 161.357,-22.8669 157.994,-22.9278 163.185,-21.1611 163.185,-21.1611"/>
</g>
<!-- v11&#45;&gt;v16 -->
<g id="edge24" class="edge"><title>v11&#45;&gt;v16</title>
<path fill="none" stroke="black" d="M128.44,-61.2451C151.225,-51.2766 193.931,-32.5929 219.686,-21.325"/>
<polygon fill="black" stroke="black" points="224.289,-19.3111 220.61,-23.3767 221.998,-20.3132 219.708,-21.3153 219.708,-21.3153 219.708,-21.3153 221.998,-20.3132 218.806,-19.2539 224.289,-19.3111 224.289,-19.3111"/>
</g>
<!-- v12&#45;&gt;v14 -->
<g id="edge25" class="edge"><title>v12&#45;&gt;v14</title>
<path fill="none" stroke="black" d="M163.219,-59.25C151.777,-49.9638 133.589,-35.2025 120.587,-24.6504"/>
<polygon fill="black" stroke="black" points="116.394,-21.2473 121.694,-22.6511 118.335,-22.8227 120.276,-24.3981 120.276,-24.3981 120.276,-24.3981 118.335,-22.8227 118.858,-26.1452 116.394,-21.2473 116.394,-21.2473"/>
</g>
<!-- v12&#45;&gt;v15 -->
<g id="edge26" class="edge"><title>v12&#45;&gt;v15</title>
<path fill="none" stroke="black" d="M173.821,-57.9883C173.67,-49.4941 173.449,-37.1697 173.275,-27.4169"/>
<polygon fill="black" stroke="black" points="173.184,-22.3039 175.523,-27.2629 173.229,-24.8035 173.273,-27.3031 173.273,-27.3031 173.273,-27.3031 173.229,-24.8035 171.024,-27.3433 173.184,-22.3039 173.184,-22.3039"/>
</g>
<!-- v12&#45;&gt;v16 -->
<g id="edge27" class="edge"><title>v12&#45;&gt;v16</title>
<path fill="none" stroke="black" d="M184.469,-59.25C195.579,-49.9638 213.24,-35.2025 225.865,-24.6504"/>
<polygon fill="black" stroke="black" points="229.936,-21.2473 227.543,-26.1802 228.018,-22.8506 226.1,-24.4538 226.1,-24.4538 226.1,-24.4538 228.018,-22.8506 224.657,-22.7275 229.936,-21.2473 229.936,-21.2473"/>
</g>
<!-- v13&#45;&gt;v14 -->
<g id="edge28" class="edge"><title>v13&#45;&gt;v14</title>
<path fill="none" stroke="black" d="M256.865,-62.3222C226.552,-52.2777 163.417,-31.3572 128.864,-19.9076"/>
<polygon fill="black" stroke="black" points="123.981,-18.2894 129.435,-17.7264 126.354,-19.0758 128.727,-19.8622 128.727,-19.8622 128.727,-19.8622 126.354,-19.0758 128.019,-21.998 123.981,-18.2894 123.981,-18.2894"/>
</g>
<!-- v13&#45;&gt;v15 -->
<g id="edge29" class="edge"><title>v13&#45;&gt;v15</title>
<path fill="none" stroke="black" d="M260.379,-60.4476C242.832,-50.7187 212.224,-33.7481 192.29,-22.6953"/>
<polygon fill="black" stroke="black" points="187.713,-20.1579 193.177,-20.6147 189.9,-21.3702 192.086,-22.5824 192.086,-22.5824 192.086,-22.5824 189.9,-21.3702 190.995,-24.5502 187.713,-20.1579 187.713,-20.1579"/>
</g>
<!-- v13&#45;&gt;v16 -->
<g id="edge30" class="edge"><title>v13&#45;&gt;v16</title>
<path fill="none" stroke="black" d="M268.252,-58.2455C263.063,-49.4409 255.363,-36.373 249.469,-26.3724"/>
<polygon fill="black" stroke="black" points="246.904,-22.0198 251.381,-25.1851 248.174,-24.1736 249.443,-26.3275 249.443,-26.3275 249.443,-26.3275 248.174,-24.1736 247.505,-27.4698 246.904,-22.0198 246.904,-22.0198"/>
</g>
<!-- v17&#45;&gt;v18 -->
<g id="edge31" class="edge"><title>v17&#45;&gt;v18</title>
<path fill="none" stroke="black" d="M1012.61,-59.9766C1027.73,-50.3564 1053.16,-34.1716 1070.25,-23.2923"/>
<polygon fill="black" stroke="black" points="1074.84,-20.3743 1071.83,-24.957 1072.73,-21.7165 1070.62,-23.0587 1070.62,-23.0587 1070.62,-23.0587 1072.73,-21.7165 1069.41,-21.1605 1074.84,-20.3743 1074.84,-20.3743"/>
</g>
<!-- v19&#45;&gt;v22 -->
<g id="edge51" class="edge"><title>v19&#45;&gt;v22</title>
<path fill="none" stroke="green" d="M463.251,-21.2104C472.241,-28.007 485.086,-36.3366 498,-40 574.963,-61.8331 600.936,-61.4725 678,-40 691.13,-36.3414 704.255,-28.0113 713.453,-21.2134"/>
</g>
</g>
</svg>
