<?xml version="1.0" encoding="UTF-8" standalone="no"?>
<?xml-stylesheet href="style.css" type="text/css"?>
<!DOCTYPE svg PUBLIC "-//W3C//DTD SVG 1.1//EN"
 "http://www.w3.org/Graphics/SVG/1.1/DTD/svg11.dtd">
<!-- Generated by graphviz version 2.38.0 (20140413.2041)
 -->
<!-- Title: 104.svg Pages: 1 -->
<svg width="1226pt" height="179pt"
 viewBox="0.00 0.00 1226.00 179.00" xmlns="http://www.w3.org/2000/svg" xmlns:xlink="http://www.w3.org/1999/xlink">
<g id="graph0" class="graph" transform="scale(1 1) rotate(0) translate(4 175)">
<title>104.svg</title>
<polygon fill="white" stroke="none" points="-4,4 -4,-175 1222,-175 1222,4 -4,4"/>
<!-- r0 -->
<g id="node1" class="node"><title>r0</title>
<polygon fill="none" stroke="black" stroke-dasharray="5,2" points="185.5,-171 162.5,-171 162.5,-153 185.5,-153 185.5,-171"/>
<text text-anchor="middle" x="174" y="-159.8" font-family="serif" font-size="9.00">0</text>
</g>
<!-- v8 -->
<g id="v8_Field" class="node"><title>v8</title>
<ellipse fill="none" stroke="black" cx="25" cy="-11" rx="25" ry="11"/>
<text text-anchor="middle" x="25" y="-8.8" font-family="sans-serif" font-size="9.00">Field</text>
</g>
<!-- r0&#45;&gt;v8 -->
<g id="edge1" class="edge"><title>r0&#45;&gt;v8</title>
<path fill="none" stroke="black" d="M162.222,-152.862C142.816,-139.14 103.443,-109.953 75,-80 58.8635,-63.0068 43.3756,-40.7082 34.0231,-26.3641"/>
<polygon fill="black" stroke="black" points="31.0945,-21.8237 35.6956,-24.8059 32.4496,-23.9246 33.8047,-26.0255 33.8047,-26.0255 33.8047,-26.0255 32.4496,-23.9246 31.9139,-27.2451 31.0945,-21.8237 31.0945,-21.8237"/>
</g>
<!-- v9 -->
<g id="v9_Aura" class="node"><title>v9</title>
<ellipse fill="none" stroke="black" cx="113" cy="-69" rx="21.5" ry="11"/>
<text text-anchor="middle" x="113" y="-66.8" font-family="sans-serif" font-size="9.00">Aura</text>
</g>
<!-- r0&#45;&gt;v9 -->
<g id="edge2" class="edge"><title>r0&#45;&gt;v9</title>
<path fill="none" stroke="black" d="M165.157,-152.911C156.404,-144.557 143.038,-130.826 134,-117 127.42,-106.935 121.956,-94.4673 118.252,-84.9025"/>
<polygon fill="black" stroke="black" points="116.479,-80.1934 120.347,-84.08 117.36,-82.5331 118.241,-84.8728 118.241,-84.8728 118.241,-84.8728 117.36,-82.5331 116.135,-85.6656 116.479,-80.1934 116.479,-80.1934"/>
</g>
<!-- v10 -->
<g id="v10_Aura" class="node"><title>v10</title>
<ellipse fill="none" stroke="black" cx="174" cy="-69" rx="21.5" ry="11"/>
<text text-anchor="middle" x="174" y="-66.8" font-family="sans-serif" font-size="9.00">Aura</text>
</g>
<!-- r0&#45;&gt;v10 -->
<g id="edge3" class="edge"><title>r0&#45;&gt;v10</title>
<path fill="none" stroke="black" d="M174,-152.924C174,-137.736 174,-104.696 174,-85.2178"/>
<polygon fill="black" stroke="black" points="174,-80.1095 176.25,-85.1095 174,-82.6095 174,-85.1095 174,-85.1095 174,-85.1095 174,-82.6095 171.75,-85.1096 174,-80.1095 174,-80.1095"/>
</g>
<!-- v11 -->
<g id="v11_Aura" class="node"><title>v11</title>
<ellipse fill="none" stroke="black" cx="274" cy="-69" rx="21.5" ry="11"/>
<text text-anchor="middle" x="274" y="-66.8" font-family="sans-serif" font-size="9.00">Aura</text>
</g>
<!-- r0&#45;&gt;v11 -->
<g id="edge4" class="edge"><title>r0&#45;&gt;v11</title>
<path fill="none" stroke="black" d="M182.874,-152.924C200.351,-137.02 239.337,-101.543 260.2,-82.5579"/>
<polygon fill="black" stroke="black" points="264.119,-78.9914 261.936,-84.0208 262.27,-80.6741 260.421,-82.3567 260.421,-82.3567 260.421,-82.3567 262.27,-80.6741 258.907,-80.6926 264.119,-78.9914 264.119,-78.9914"/>
</g>
<!-- v15 -->
<g id="v15_Aura" class="node"><title>v15</title>
<ellipse fill="none" stroke="black" cx="922" cy="-69" rx="21.5" ry="11"/>
<text text-anchor="middle" x="922" y="-66.8" font-family="sans-serif" font-size="9.00">Aura</text>
</g>
<!-- r0&#45;&gt;v15 -->
<g id="edge5" class="edge"><title>r0&#45;&gt;v15</title>
<path fill="none" stroke="black" d="M185.523,-160.56C253.493,-157.786 608.731,-140.833 891,-80 894.12,-79.3276 897.371,-78.4657 900.543,-77.5304"/>
<polygon fill="black" stroke="black" points="905.434,-76.0171 901.323,-79.6446 903.046,-76.7561 900.658,-77.4951 900.658,-77.4951 900.658,-77.4951 903.046,-76.7561 899.993,-75.3457 905.434,-76.0171 905.434,-76.0171"/>
</g>
<!-- r1 -->
<g id="node2" class="node"><title>r1</title>
<polygon fill="none" stroke="black" stroke-dasharray="5,2" points="864.5,-171 841.5,-171 841.5,-153 864.5,-153 864.5,-171"/>
<text text-anchor="middle" x="853" y="-159.8" font-family="serif" font-size="9.00">1</text>
</g>
<!-- v2 -->
<g id="v2_Locale" class="node"><title>v2</title>
<ellipse fill="none" stroke="black" cx="1189" cy="-69" rx="29" ry="11"/>
<text text-anchor="middle" x="1189" y="-66.8" font-family="sans-serif" font-size="9.00">Locale</text>
</g>
<!-- r1&#45;&gt;v2 -->
<g id="edge6" class="edge"><title>r1&#45;&gt;v2</title>
<path fill="none" stroke="black" d="M864.5,-159.878C899.036,-156.293 1004.6,-143.744 1088,-117 1117.33,-107.596 1149.25,-91.7067 1169.19,-81.0382"/>
<polygon fill="black" stroke="black" points="1173.74,-78.5791 1170.41,-82.9336 1171.54,-79.7663 1169.34,-80.9534 1169.34,-80.9534 1169.34,-80.9534 1171.54,-79.7663 1168.28,-78.9733 1173.74,-78.5791 1173.74,-78.5791"/>
</g>
<!-- v6 -->
<g id="v6_Locale" class="node"><title>v6</title>
<ellipse fill="none" stroke="black" cx="701" cy="-69" rx="29" ry="11"/>
<text text-anchor="middle" x="701" y="-66.8" font-family="sans-serif" font-size="9.00">Locale</text>
</g>
<!-- r1&#45;&gt;v6 -->
<g id="edge7" class="edge"><title>r1&#45;&gt;v6</title>
<path fill="none" stroke="black" d="M841.073,-153.859C814.791,-138.125 751.709,-100.358 719.948,-81.3436"/>
<polygon fill="black" stroke="black" points="715.497,-78.6791 720.943,-79.317 717.642,-79.9633 719.787,-81.2475 719.787,-81.2475 719.787,-81.2475 717.642,-79.9633 718.631,-83.178 715.497,-78.6791 715.497,-78.6791"/>
</g>
<!-- v18 -->
<g id="v18_Locale" class="node"><title>v18</title>
<ellipse fill="none" stroke="black" cx="853" cy="-69" rx="29" ry="11"/>
<text text-anchor="middle" x="853" y="-66.8" font-family="sans-serif" font-size="9.00">Locale</text>
</g>
<!-- r1&#45;&gt;v18 -->
<g id="edge8" class="edge"><title>r1&#45;&gt;v18</title>
<path fill="none" stroke="black" d="M853,-152.924C853,-137.736 853,-104.696 853,-85.2178"/>
<polygon fill="black" stroke="black" points="853,-80.1095 855.25,-85.1095 853,-82.6095 853,-85.1095 853,-85.1095 853,-85.1095 853,-82.6095 850.75,-85.1096 853,-80.1095 853,-80.1095"/>
</g>
<!-- r2 -->
<g id="node3" class="node"><title>r2</title>
<polygon fill="none" stroke="black" stroke-dasharray="5,2" points="594.5,-171 571.5,-171 571.5,-153 594.5,-153 594.5,-171"/>
<text text-anchor="middle" x="583" y="-159.8" font-family="serif" font-size="9.00">2</text>
</g>
<!-- v0 -->
<g id="v0_Area(2)" class="node"><title>v0</title>
<ellipse fill="none" stroke="black" cx="1109" cy="-69" rx="32.5" ry="11"/>
<text text-anchor="middle" x="1109" y="-66.8" font-family="sans-serif" font-size="9.00">Area(2)</text>
</g>
<!-- r2&#45;&gt;v0 -->
<g id="edge9" class="edge"><title>r2&#45;&gt;v0</title>
<path fill="none" stroke="black" d="M594.504,-161.045C643.987,-160.977 843.308,-158.032 1000,-117 1032.06,-108.604 1066.86,-92.2058 1088.3,-81.1748"/>
<polygon fill="black" stroke="black" points="1092.93,-78.7699 1089.53,-83.0718 1090.71,-79.9226 1088.5,-81.0752 1088.5,-81.0752 1088.5,-81.0752 1090.71,-79.9226 1087.46,-79.0787 1092.93,-78.7699 1092.93,-78.7699"/>
</g>
<!-- v4 -->
<g id="v4_Area(0)" class="node"><title>v4</title>
<ellipse fill="none" stroke="black" cx="583" cy="-69" rx="32.5" ry="11"/>
<text text-anchor="middle" x="583" y="-66.8" font-family="sans-serif" font-size="9.00">Area(0)</text>
</g>
<!-- r2&#45;&gt;v4 -->
<g id="edge10" class="edge"><title>r2&#45;&gt;v4</title>
<path fill="none" stroke="black" d="M583,-152.924C583,-137.736 583,-104.696 583,-85.2178"/>
<polygon fill="black" stroke="black" points="583,-80.1095 585.25,-85.1095 583,-82.6095 583,-85.1095 583,-85.1095 583,-85.1095 583,-82.6095 580.75,-85.1096 583,-80.1095 583,-80.1095"/>
</g>
<!-- v22 -->
<g id="v22_Area(1)" class="node"><title>v22</title>
<ellipse fill="none" stroke="black" cx="461" cy="-69" rx="32.5" ry="11"/>
<text text-anchor="middle" x="461" y="-66.8" font-family="sans-serif" font-size="9.00">Area(1)</text>
</g>
<!-- r2&#45;&gt;v22 -->
<g id="edge11" class="edge"><title>r2&#45;&gt;v22</title>
<path fill="none" stroke="black" d="M571.301,-155.939C555.219,-148.67 525.798,-134.234 504,-117 491.702,-107.277 479.84,-93.9117 471.701,-83.9184"/>
<polygon fill="black" stroke="black" points="468.45,-79.8625 473.333,-82.357 470.014,-81.8133 471.577,-83.7641 471.577,-83.7641 471.577,-83.7641 470.014,-81.8133 469.822,-85.1713 468.45,-79.8625 468.45,-79.8625"/>
</g>
<!-- e1 -->
<g id="node4" class="node"><title>e1</title>
</g>
<!-- v1 -->
<g id="v1_GPS(9)" class="node"><title>v1</title>
<ellipse fill="none" stroke="black" cx="1037" cy="-11" rx="29" ry="11"/>
<text text-anchor="middle" x="1037" y="-8.8" font-family="sans-serif" font-size="9.00">GPS(9)</text>
</g>
<!-- e1&#45;&gt;v1 -->
<g id="edge33" class="edge"><title>e1&#45;&gt;v1</title>
<path fill="none" stroke="green" d="M991,-116C991,-116 1021.08,-48.0023 1032.59,-21.972"/>
</g>
<!-- v3 -->
<g id="v3_Lion" class="node"><title>v3</title>
<ellipse fill="none" stroke="black" cx="1161" cy="-11" rx="21.5" ry="11"/>
<text text-anchor="middle" x="1161" y="-8.8" font-family="sans-serif" font-size="9.00">Lion</text>
</g>
<!-- e1&#45;&gt;v3 -->
<g id="edge34" class="edge"><title>e1&#45;&gt;v3</title>
<path fill="none" stroke="green" d="M991,-116C991,-116 1030.85,-80.3353 1067,-58 1093.28,-41.7642 1126.11,-26.8065 1145.2,-18.5891"/>
</g>
<!-- e1&#45;&gt;v15 -->
<g id="edge35" class="edge"><title>e1&#45;&gt;v15</title>
<path fill="none" stroke="green" d="M991,-116C991,-116 954.183,-91.4551 934.336,-78.2239"/>
</g>
<!-- v16 -->
<g id="v16_Child" class="node"><title>v16</title>
<ellipse fill="none" stroke="black" cx="943" cy="-11" rx="25" ry="11"/>
<text text-anchor="middle" x="943" y="-8.8" font-family="sans-serif" font-size="9.00">Child</text>
</g>
<!-- e1&#45;&gt;v16 -->
<g id="edge36" class="edge"><title>e1&#45;&gt;v16</title>
<path fill="none" stroke="green" d="M991,-116C991,-116 959.616,-48.0023 947.602,-21.972"/>
</g>
<!-- e3 -->
<g id="node5" class="node"><title>e3</title>
</g>
<!-- v5 -->
<g id="v5_GPS(6)" class="node"><title>v5</title>
<ellipse fill="none" stroke="black" cx="507" cy="-11" rx="29" ry="11"/>
<text text-anchor="middle" x="507" y="-8.8" font-family="sans-serif" font-size="9.00">GPS(6)</text>
</g>
<!-- e3&#45;&gt;v5 -->
<g id="edge38" class="edge"><title>e3&#45;&gt;v5</title>
<path fill="none" stroke="green" d="M144,-116C144,-116 233.796,-99.6012 304,-80 372.375,-60.9093 451.723,-32.4529 487.609,-19.2331"/>
</g>
<!-- v7 -->
<g id="v7_Lion" class="node"><title>v7</title>
<ellipse fill="none" stroke="black" cx="652" cy="-11" rx="21.5" ry="11"/>
<text text-anchor="middle" x="652" y="-8.8" font-family="sans-serif" font-size="9.00">Lion</text>
</g>
<!-- e3&#45;&gt;v7 -->
<g id="edge39" class="edge"><title>e3&#45;&gt;v7</title>
<path fill="none" stroke="green" d="M144,-116C144,-116 580.706,-111.402 624,-80 642.913,-66.282 649.094,-37.4283 651.082,-22.0882"/>
</g>
<!-- e3&#45;&gt;v9 -->
<g id="edge40" class="edge"><title>e3&#45;&gt;v9</title>
<path fill="none" stroke="green" d="M144,-116C144,-116 128.674,-93.2583 119.574,-79.7554"/>
</g>
<!-- v12 -->
<g id="v12_Child" class="node"><title>v12</title>
<ellipse fill="none" stroke="black" cx="117" cy="-11" rx="25" ry="11"/>
<text text-anchor="middle" x="117" y="-8.8" font-family="sans-serif" font-size="9.00">Child</text>
</g>
<!-- e3&#45;&gt;v12 -->
<g id="edge41" class="edge"><title>e3&#45;&gt;v12</title>
<path fill="none" stroke="green" d="M144,-116C144,-116 97.8979,-107.615 82,-80 70.2082,-59.5177 91.7355,-34.6434 105.948,-21.387"/>
</g>
<!-- e4 -->
<g id="node6" class="node"><title>e4</title>
</g>
<!-- e4&#45;&gt;v10 -->
<g id="edge42" class="edge"><title>e4&#45;&gt;v10</title>
<path fill="none" stroke="green" d="M303,-116C303,-116 225.831,-88.4825 190.864,-76.0137"/>
</g>
<!-- v13 -->
<g id="v13_Child" class="node"><title>v13</title>
<ellipse fill="none" stroke="black" cx="197" cy="-11" rx="25" ry="11"/>
<text text-anchor="middle" x="197" y="-8.8" font-family="sans-serif" font-size="9.00">Child</text>
</g>
<!-- e4&#45;&gt;v13 -->
<g id="edge43" class="edge"><title>e4&#45;&gt;v13</title>
<path fill="none" stroke="green" d="M303,-116C303,-116 265.579,-101.384 243,-80 224.58,-62.5544 209.536,-36.4938 202.079,-22.2327"/>
</g>
<!-- v19 -->
<g id="v19_Lion" class="node"><title>v19</title>
<ellipse fill="none" stroke="black" cx="791" cy="-11" rx="21.5" ry="11"/>
<text text-anchor="middle" x="791" y="-8.8" font-family="sans-serif" font-size="9.00">Lion</text>
</g>
<!-- e4&#45;&gt;v19 -->
<g id="edge44" class="edge"><title>e4&#45;&gt;v19</title>
<path fill="none" stroke="green" d="M303,-116C303,-116 696.345,-103.312 739,-80 762.996,-66.8858 779.361,-37.4944 786.668,-21.999"/>
</g>
<!-- v23 -->
<g id="v23_GPS(2)" class="node"><title>v23</title>
<ellipse fill="none" stroke="black" cx="351" cy="-11" rx="29" ry="11"/>
<text text-anchor="middle" x="351" y="-8.8" font-family="sans-serif" font-size="9.00">GPS(2)</text>
</g>
<!-- e4&#45;&gt;v23 -->
<g id="edge45" class="edge"><title>e4&#45;&gt;v23</title>
<path fill="none" stroke="green" d="M303,-116C303,-116 334.384,-48.0023 346.398,-21.972"/>
</g>
<!-- e5 -->
<g id="node7" class="node"><title>e5</title>
</g>
<!-- e5&#45;&gt;v11 -->
<g id="edge46" class="edge"><title>e5&#45;&gt;v11</title>
<path fill="none" stroke="green" d="M514,-116C514,-116 350.959,-84.7505 293.64,-73.7644"/>
</g>
<!-- v14 -->
<g id="v14_Child" class="node"><title>v14</title>
<ellipse fill="none" stroke="black" cx="271" cy="-11" rx="25" ry="11"/>
<text text-anchor="middle" x="271" y="-8.8" font-family="sans-serif" font-size="9.00">Child</text>
</g>
<!-- e5&#45;&gt;v14 -->
<g id="edge47" class="edge"><title>e5&#45;&gt;v14</title>
<path fill="none" stroke="green" d="M514,-116C514,-116 460.65,-97.4357 419,-80 370.224,-59.5811 313.736,-32.7092 286.829,-19.7069"/>
</g>
<!-- v20 -->
<g id="v20_Lion" class="node"><title>v20</title>
<ellipse fill="none" stroke="black" cx="852" cy="-11" rx="21.5" ry="11"/>
<text text-anchor="middle" x="852" y="-8.8" font-family="sans-serif" font-size="9.00">Lion</text>
</g>
<!-- e5&#45;&gt;v20 -->
<g id="edge48" class="edge"><title>e5&#45;&gt;v20</title>
<path fill="none" stroke="green" d="M514,-116C514,-116 719.179,-103.688 772,-80 802.936,-66.1265 831.15,-36.5162 844.266,-21.3604"/>
</g>
<!-- v24 -->
<g id="v24_GPS(3)" class="node"><title>v24</title>
<ellipse fill="none" stroke="black" cx="431" cy="-11" rx="29" ry="11"/>
<text text-anchor="middle" x="431" y="-8.8" font-family="sans-serif" font-size="9.00">GPS(3)</text>
</g>
<!-- e5&#45;&gt;v24 -->
<g id="edge49" class="edge"><title>e5&#45;&gt;v24</title>
<path fill="none" stroke="green" d="M514,-116C514,-116 516.863,-79.7265 502,-58 489.312,-39.4529 466.43,-26.6445 450.07,-19.3402"/>
</g>
<!-- v0&#45;&gt;v1 -->
<g id="edge12" class="edge"><title>v0&#45;&gt;v1</title>
<path fill="none" stroke="black" d="M1097.11,-58.7527C1084.95,-49.2933 1065.99,-34.549 1052.62,-24.1517"/>
<polygon fill="black" stroke="black" points="1048.67,-21.0752 1054,-22.3689 1050.64,-22.6101 1052.61,-24.1449 1052.61,-24.1449 1052.61,-24.1449 1050.64,-22.6101 1051.23,-25.921 1048.67,-21.0752 1048.67,-21.0752"/>
</g>
<!-- v0&#45;&gt;v2 -->
<g id="edge32" class="edge"><title>v0&#45;&gt;v2</title>
<path fill="none" stroke="green" d="M1141.5,-69C1147.56,-69 1153.62,-69 1159.68,-69"/>
</g>
<!-- v2&#45;&gt;v3 -->
<g id="edge13" class="edge"><title>v2&#45;&gt;v3</title>
<path fill="none" stroke="black" d="M1183.99,-57.9883C1179.61,-49.2286 1173.2,-36.3956 1168.26,-26.5103"/>
<polygon fill="black" stroke="black" points="1165.96,-21.925 1170.21,-25.3909 1167.08,-24.1611 1168.2,-26.3971 1168.2,-26.3971 1168.2,-26.3971 1167.08,-24.1611 1166.19,-27.4034 1165.96,-21.925 1165.96,-21.925"/>
</g>
<!-- v4&#45;&gt;v5 -->
<g id="edge14" class="edge"><title>v4&#45;&gt;v5</title>
<path fill="none" stroke="black" d="M570.45,-58.7527C557.612,-49.2933 537.602,-34.549 523.492,-24.1517"/>
<polygon fill="black" stroke="black" points="519.316,-21.0752 524.676,-22.2298 521.329,-22.5582 523.342,-24.0412 523.342,-24.0412 523.342,-24.0412 521.329,-22.5582 522.007,-25.8526 519.316,-21.0752 519.316,-21.0752"/>
</g>
<!-- v4&#45;&gt;v6 -->
<g id="edge37" class="edge"><title>v4&#45;&gt;v6</title>
<path fill="none" stroke="green" d="M615.727,-69C634.38,-69 653.034,-69 671.687,-69"/>
</g>
<!-- v21 -->
<g id="v21_GPS(0)" class="node"><title>v21</title>
<ellipse fill="none" stroke="black" cx="583" cy="-11" rx="29" ry="11"/>
<text text-anchor="middle" x="583" y="-8.8" font-family="sans-serif" font-size="9.00">GPS(0)</text>
</g>
<!-- v4&#45;&gt;v21 -->
<g id="edge15" class="edge"><title>v4&#45;&gt;v21</title>
<path fill="none" stroke="black" d="M583,-57.9883C583,-49.4941 583,-37.1697 583,-27.4169"/>
<polygon fill="black" stroke="black" points="583,-22.3039 585.25,-27.3038 583,-24.8039 583,-27.3039 583,-27.3039 583,-27.3039 583,-24.8039 580.75,-27.3039 583,-22.3039 583,-22.3039"/>
</g>
<!-- v6&#45;&gt;v7 -->
<g id="edge16" class="edge"><title>v6&#45;&gt;v7</title>
<path fill="none" stroke="black" d="M692.465,-58.2455C684.428,-49.061 672.333,-35.2372 663.459,-25.0955"/>
<polygon fill="black" stroke="black" points="660.112,-21.2708 665.098,-23.5521 661.758,-23.1523 663.405,-25.0337 663.405,-25.0337 663.405,-25.0337 661.758,-23.1523 661.711,-26.5154 660.112,-21.2708 660.112,-21.2708"/>
</g>
<!-- v17 -->
<g id="v17_Impala" class="node"><title>v17</title>
<ellipse fill="none" stroke="black" cx="721" cy="-11" rx="29" ry="11"/>
<text text-anchor="middle" x="721" y="-8.8" font-family="sans-serif" font-size="9.00">Impala</text>
</g>
<!-- v6&#45;&gt;v17 -->
<g id="edge17" class="edge"><title>v6&#45;&gt;v17</title>
<path fill="none" stroke="black" d="M704.576,-57.9883C707.676,-49.3083 712.204,-36.6286 715.721,-26.7806"/>
<polygon fill="black" stroke="black" points="717.455,-21.925 717.893,-27.3905 716.614,-24.2794 715.774,-26.6337 715.774,-26.6337 715.774,-26.6337 716.614,-24.2794 713.655,-25.8769 717.455,-21.925 717.455,-21.925"/>
</g>
<!-- v9&#45;&gt;v12 -->
<g id="edge18" class="edge"><title>v9&#45;&gt;v12</title>
<path fill="none" stroke="black" d="M113.715,-57.9883C114.322,-49.4941 115.202,-37.1697 115.899,-27.4169"/>
<polygon fill="black" stroke="black" points="116.264,-22.3039 118.152,-27.4515 116.086,-24.7975 115.908,-27.2912 115.908,-27.2912 115.908,-27.2912 116.086,-24.7975 113.663,-27.1308 116.264,-22.3039 116.264,-22.3039"/>
</g>
<!-- v9&#45;&gt;v13 -->
<g id="edge19" class="edge"><title>v9&#45;&gt;v13</title>
<path fill="none" stroke="black" d="M125.394,-59.737C139.828,-50.1148 163.752,-34.1654 179.935,-23.377"/>
<polygon fill="black" stroke="black" points="184.279,-20.4805 181.367,-25.1261 182.199,-21.8672 180.119,-23.254 180.119,-23.254 180.119,-23.254 182.199,-21.8672 178.871,-21.3819 184.279,-20.4805 184.279,-20.4805"/>
</g>
<!-- v9&#45;&gt;v14 -->
<g id="edge20" class="edge"><title>v9&#45;&gt;v14</title>
<path fill="none" stroke="black" d="M129.909,-62.007C158.246,-51.9634 215.377,-31.7145 247.569,-20.3048"/>
<polygon fill="black" stroke="black" points="252.513,-18.5524 248.552,-22.3436 250.156,-19.3876 247.8,-20.2228 247.8,-20.2228 247.8,-20.2228 250.156,-19.3876 247.048,-18.1021 252.513,-18.5524 252.513,-18.5524"/>
</g>
<!-- v10&#45;&gt;v12 -->
<g id="edge21" class="edge"><title>v10&#45;&gt;v12</title>
<path fill="none" stroke="black" d="M164.842,-59.0026C155.537,-49.8606 141.023,-35.6014 130.42,-25.1846"/>
<polygon fill="black" stroke="black" points="126.708,-21.5373 131.851,-23.4364 128.491,-23.2894 130.274,-25.0414 130.274,-25.0414 130.274,-25.0414 128.491,-23.2894 128.697,-26.6465 126.708,-21.5373 126.708,-21.5373"/>
</g>
<!-- v10&#45;&gt;v13 -->
<g id="edge22" class="edge"><title>v10&#45;&gt;v13</title>
<path fill="none" stroke="black" d="M178.112,-57.9883C181.677,-49.3083 186.885,-36.6286 190.929,-26.7806"/>
<polygon fill="black" stroke="black" points="192.924,-21.925 193.105,-27.405 191.974,-24.2376 191.024,-26.5501 191.024,-26.5501 191.024,-26.5501 191.974,-24.2376 188.943,-25.6953 192.924,-21.925 192.924,-21.925"/>
</g>
<!-- v10&#45;&gt;v14 -->
<g id="edge23" class="edge"><title>v10&#45;&gt;v14</title>
<path fill="none" stroke="black" d="M187.487,-60.2134C204.284,-50.5166 233.076,-33.8941 252.075,-22.9258"/>
<polygon fill="black" stroke="black" points="256.681,-20.2668 253.476,-24.7153 254.516,-21.5167 252.351,-22.7667 252.351,-22.7667 252.351,-22.7667 254.516,-21.5167 251.226,-20.8181 256.681,-20.2668 256.681,-20.2668"/>
</g>
<!-- v11&#45;&gt;v12 -->
<g id="edge24" class="edge"><title>v11&#45;&gt;v12</title>
<path fill="none" stroke="black" d="M257.198,-62.007C229.115,-51.9902 172.574,-31.8224 140.54,-20.3963"/>
<polygon fill="black" stroke="black" points="135.617,-18.6404 141.082,-18.201 137.971,-19.4803 140.326,-20.3202 140.326,-20.3202 140.326,-20.3202 137.971,-19.4803 139.57,-22.4395 135.617,-18.6404 135.617,-18.6404"/>
</g>
<!-- v11&#45;&gt;v13 -->
<g id="edge25" class="edge"><title>v11&#45;&gt;v13</title>
<path fill="none" stroke="black" d="M262.305,-59.4948C249.266,-50.0115 228.082,-34.6054 213.393,-23.9222"/>
<polygon fill="black" stroke="black" points="209.059,-20.7702 214.426,-21.8914 211.081,-22.2406 213.103,-23.7111 213.103,-23.7111 213.103,-23.7111 211.081,-22.2406 211.779,-25.5308 209.059,-20.7702 209.059,-20.7702"/>
</g>
<!-- v11&#45;&gt;v14 -->
<g id="edge26" class="edge"><title>v11&#45;&gt;v14</title>
<path fill="none" stroke="black" d="M273.464,-57.9883C273.009,-49.4941 272.348,-37.1697 271.826,-27.4169"/>
<polygon fill="black" stroke="black" points="271.552,-22.3039 274.066,-27.1763 271.686,-24.8003 271.82,-27.2967 271.82,-27.2967 271.82,-27.2967 271.686,-24.8003 269.573,-27.4171 271.552,-22.3039 271.552,-22.3039"/>
</g>
<!-- v15&#45;&gt;v16 -->
<g id="edge27" class="edge"><title>v15&#45;&gt;v16</title>
<path fill="none" stroke="black" d="M925.754,-57.9883C929.009,-49.3083 933.764,-36.6286 937.457,-26.7806"/>
<polygon fill="black" stroke="black" points="939.278,-21.925 939.629,-27.3967 938.4,-24.2658 937.522,-26.6067 937.522,-26.6067 937.522,-26.6067 938.4,-24.2658 935.416,-25.8166 939.278,-21.925 939.278,-21.925"/>
</g>
<!-- v17&#45;&gt;v21 -->
<g id="edge50" class="edge"><title>v17&#45;&gt;v21</title>
<path fill="none" stroke="green" d="M708.453,-21.2134C699.255,-28.0113 686.13,-36.3414 673,-40 654.59,-45.1296 648.386,-45.2157 630,-40 617.086,-36.3366 604.241,-28.007 595.251,-21.2104"/>
</g>
<!-- v18&#45;&gt;v19 -->
<g id="edge28" class="edge"><title>v18&#45;&gt;v19</title>
<path fill="none" stroke="black" d="M842.483,-58.5004C832.144,-49.1622 816.304,-34.8549 804.925,-24.5772"/>
<polygon fill="black" stroke="black" points="800.953,-20.9896 806.171,-22.6713 802.808,-22.6653 804.663,-24.3411 804.663,-24.3411 804.663,-24.3411 802.808,-22.6653 803.155,-26.0108 800.953,-20.9896 800.953,-20.9896"/>
</g>
<!-- v18&#45;&gt;v20 -->
<g id="edge29" class="edge"><title>v18&#45;&gt;v20</title>
<path fill="none" stroke="black" d="M852.821,-57.9883C852.67,-49.4941 852.449,-37.1697 852.275,-27.4169"/>
<polygon fill="black" stroke="black" points="852.184,-22.3039 854.523,-27.2629 852.229,-24.8035 852.273,-27.3031 852.273,-27.3031 852.273,-27.3031 852.229,-24.8035 850.024,-27.3433 852.184,-22.3039 852.184,-22.3039"/>
</g>
<!-- v18&#45;&gt;v22 -->
<g id="edge51" class="edge"><title>v18&#45;&gt;v22</title>
<path fill="none" stroke="green" d="M839.7,-78.9333C829.651,-85.7878 815.206,-94.3065 801,-98 693.034,-126.071 660.175,-115.497 550,-98 525.765,-94.1511 499.155,-84.7532 481.404,-77.6914"/>
</g>
<!-- v22&#45;&gt;v23 -->
<g id="edge30" class="edge"><title>v22&#45;&gt;v23</title>
<path fill="none" stroke="black" d="M444.293,-59.4948C424.849,-49.5956 392.727,-33.2426 371.713,-22.5447"/>
<polygon fill="black" stroke="black" points="367.146,-20.2198 372.623,-20.4831 369.374,-21.354 371.602,-22.4882 371.602,-22.4882 371.602,-22.4882 369.374,-21.354 370.581,-24.4933 367.146,-20.2198 367.146,-20.2198"/>
</g>
<!-- v22&#45;&gt;v24 -->
<g id="edge31" class="edge"><title>v22&#45;&gt;v24</title>
<path fill="none" stroke="black" d="M455.637,-57.9883C450.944,-49.2286 444.069,-36.3956 438.773,-26.5103"/>
<polygon fill="black" stroke="black" points="436.317,-21.925 440.661,-25.2699 437.498,-24.1287 438.678,-26.3324 438.678,-26.3324 438.678,-26.3324 437.498,-24.1287 436.695,-27.3949 436.317,-21.925 436.317,-21.925"/>
</g>
</g>
</svg>
