<?xml version="1.0" encoding="UTF-8" standalone="no"?>
<?xml-stylesheet href="style.css" type="text/css"?>
<!DOCTYPE svg PUBLIC "-//W3C//DTD SVG 1.1//EN"
 "http://www.w3.org/Graphics/SVG/1.1/DTD/svg11.dtd">
<!-- Generated by graphviz version 2.38.0 (20140413.2041)
 -->
<!-- Title: 117.svg Pages: 1 -->
<svg width="1241pt" height="179pt"
 viewBox="0.00 0.00 1241.00 179.00" xmlns="http://www.w3.org/2000/svg" xmlns:xlink="http://www.w3.org/1999/xlink">
<g id="graph0" class="graph" transform="scale(1 1) rotate(0) translate(4 175)">
<title>117.svg</title>
<polygon fill="white" stroke="none" points="-4,4 -4,-175 1237,-175 1237,4 -4,4"/>
<!-- r0 -->
<g id="node1" class="node"><title>r0</title>
<polygon fill="none" stroke="black" stroke-dasharray="5,2" points="185.5,-171 162.5,-171 162.5,-153 185.5,-153 185.5,-171"/>
<text text-anchor="middle" x="174" y="-159.8" font-family="serif" font-size="9.00">0</text>
</g>
<!-- v10 -->
<g id="v10_Field" class="node"><title>v10</title>
<ellipse fill="none" stroke="black" cx="25" cy="-11" rx="25" ry="11"/>
<text text-anchor="middle" x="25" y="-8.8" font-family="sans-serif" font-size="9.00">Field</text>
</g>
<!-- r0&#45;&gt;v10 -->
<g id="edge1" class="edge"><title>r0&#45;&gt;v10</title>
<path fill="none" stroke="black" d="M162.222,-152.862C142.816,-139.14 103.443,-109.953 75,-80 58.8635,-63.0068 43.3756,-40.7082 34.0231,-26.3641"/>
<polygon fill="black" stroke="black" points="31.0945,-21.8237 35.6956,-24.8059 32.4496,-23.9246 33.8047,-26.0255 33.8047,-26.0255 33.8047,-26.0255 32.4496,-23.9246 31.9139,-27.2451 31.0945,-21.8237 31.0945,-21.8237"/>
</g>
<!-- v11 -->
<g id="v11_Aura" class="node"><title>v11</title>
<ellipse fill="none" stroke="black" cx="113" cy="-69" rx="21.5" ry="11"/>
<text text-anchor="middle" x="113" y="-66.8" font-family="sans-serif" font-size="9.00">Aura</text>
</g>
<!-- r0&#45;&gt;v11 -->
<g id="edge2" class="edge"><title>r0&#45;&gt;v11</title>
<path fill="none" stroke="black" d="M165.157,-152.911C156.404,-144.557 143.038,-130.826 134,-117 127.42,-106.935 121.956,-94.4673 118.252,-84.9025"/>
<polygon fill="black" stroke="black" points="116.479,-80.1934 120.347,-84.08 117.36,-82.5331 118.241,-84.8728 118.241,-84.8728 118.241,-84.8728 117.36,-82.5331 116.135,-85.6656 116.479,-80.1934 116.479,-80.1934"/>
</g>
<!-- v12 -->
<g id="v12_Aura" class="node"><title>v12</title>
<ellipse fill="none" stroke="black" cx="174" cy="-69" rx="21.5" ry="11"/>
<text text-anchor="middle" x="174" y="-66.8" font-family="sans-serif" font-size="9.00">Aura</text>
</g>
<!-- r0&#45;&gt;v12 -->
<g id="edge3" class="edge"><title>r0&#45;&gt;v12</title>
<path fill="none" stroke="black" d="M174,-152.924C174,-137.736 174,-104.696 174,-85.2178"/>
<polygon fill="black" stroke="black" points="174,-80.1095 176.25,-85.1095 174,-82.6095 174,-85.1095 174,-85.1095 174,-85.1095 174,-82.6095 171.75,-85.1096 174,-80.1095 174,-80.1095"/>
</g>
<!-- v13 -->
<g id="v13_Aura" class="node"><title>v13</title>
<ellipse fill="none" stroke="black" cx="235" cy="-69" rx="21.5" ry="11"/>
<text text-anchor="middle" x="235" y="-66.8" font-family="sans-serif" font-size="9.00">Aura</text>
</g>
<!-- r0&#45;&gt;v13 -->
<g id="edge4" class="edge"><title>r0&#45;&gt;v13</title>
<path fill="none" stroke="black" d="M179.413,-152.924C189.789,-137.446 212.593,-103.427 225.537,-84.1163"/>
<polygon fill="black" stroke="black" points="228.602,-79.5439 227.687,-84.9499 227.21,-81.6205 225.818,-83.6971 225.818,-83.6971 225.818,-83.6971 227.21,-81.6205 223.949,-82.4443 228.602,-79.5439 228.602,-79.5439"/>
</g>
<!-- v17 -->
<g id="v17_Aura" class="node"><title>v17</title>
<ellipse fill="none" stroke="black" cx="1035" cy="-69" rx="21.5" ry="11"/>
<text text-anchor="middle" x="1035" y="-66.8" font-family="sans-serif" font-size="9.00">Aura</text>
</g>
<!-- r0&#45;&gt;v17 -->
<g id="edge5" class="edge"><title>r0&#45;&gt;v17</title>
<path fill="none" stroke="black" d="M185.632,-159.985C257.444,-153.68 647.801,-118.882 965,-80 979.845,-78.1803 996.414,-75.8279 1009.7,-73.8618"/>
<polygon fill="black" stroke="black" points="1014.81,-73.1015 1010.2,-76.0633 1012.34,-73.4696 1009.87,-73.8378 1009.87,-73.8378 1009.87,-73.8378 1012.34,-73.4696 1009.53,-71.6123 1014.81,-73.1015 1014.81,-73.1015"/>
</g>
<!-- r1 -->
<g id="node2" class="node"><title>r1</title>
<polygon fill="none" stroke="black" stroke-dasharray="5,2" points="581.5,-171 558.5,-171 558.5,-153 581.5,-153 581.5,-171"/>
<text text-anchor="middle" x="570" y="-159.8" font-family="serif" font-size="9.00">1</text>
</g>
<!-- v3 -->
<g id="v3_Locale" class="node"><title>v3</title>
<ellipse fill="none" stroke="black" cx="570" cy="-69" rx="29" ry="11"/>
<text text-anchor="middle" x="570" y="-66.8" font-family="sans-serif" font-size="9.00">Locale</text>
</g>
<!-- r1&#45;&gt;v3 -->
<g id="edge6" class="edge"><title>r1&#45;&gt;v3</title>
<path fill="none" stroke="black" d="M570,-152.924C570,-137.736 570,-104.696 570,-85.2178"/>
<polygon fill="black" stroke="black" points="570,-80.1095 572.25,-85.1095 570,-82.6095 570,-85.1095 570,-85.1095 570,-85.1095 570,-82.6095 567.75,-85.1096 570,-80.1095 570,-80.1095"/>
</g>
<!-- v4 -->
<g id="v4_Locale" class="node"><title>v4</title>
<ellipse fill="none" stroke="black" cx="806" cy="-69" rx="29" ry="11"/>
<text text-anchor="middle" x="806" y="-66.8" font-family="sans-serif" font-size="9.00">Locale</text>
</g>
<!-- r1&#45;&gt;v4 -->
<g id="edge7" class="edge"><title>r1&#45;&gt;v4</title>
<path fill="none" stroke="black" d="M581.703,-156.487C618.39,-142.341 731.678,-98.658 781.762,-79.3458"/>
<polygon fill="black" stroke="black" points="786.693,-77.4445 782.838,-81.3428 784.361,-78.344 782.028,-79.2434 782.028,-79.2434 782.028,-79.2434 784.361,-78.344 781.219,-77.1441 786.693,-77.4445 786.693,-77.4445"/>
</g>
<!-- v8 -->
<g id="v8_Locale" class="node"><title>v8</title>
<ellipse fill="none" stroke="black" cx="418" cy="-69" rx="29" ry="11"/>
<text text-anchor="middle" x="418" y="-66.8" font-family="sans-serif" font-size="9.00">Locale</text>
</g>
<!-- r1&#45;&gt;v8 -->
<g id="edge8" class="edge"><title>r1&#45;&gt;v8</title>
<path fill="none" stroke="black" d="M558.073,-153.859C531.791,-138.125 468.709,-100.358 436.948,-81.3436"/>
<polygon fill="black" stroke="black" points="432.497,-78.6791 437.943,-79.317 434.642,-79.9633 436.787,-81.2475 436.787,-81.2475 436.787,-81.2475 434.642,-79.9633 435.631,-83.178 432.497,-78.6791 432.497,-78.6791"/>
</g>
<!-- r2 -->
<g id="node3" class="node"><title>r2</title>
<polygon fill="none" stroke="black" stroke-dasharray="5,2" points="935.5,-171 912.5,-171 912.5,-153 935.5,-153 935.5,-171"/>
<text text-anchor="middle" x="924" y="-159.8" font-family="serif" font-size="9.00">2</text>
</g>
<!-- v0 -->
<g id="v0_Area(1)" class="node"><title>v0</title>
<ellipse fill="none" stroke="black" cx="924" cy="-69" rx="32.5" ry="11"/>
<text text-anchor="middle" x="924" y="-66.8" font-family="sans-serif" font-size="9.00">Area(1)</text>
</g>
<!-- r2&#45;&gt;v0 -->
<g id="edge9" class="edge"><title>r2&#45;&gt;v0</title>
<path fill="none" stroke="black" d="M924,-152.924C924,-137.736 924,-104.696 924,-85.2178"/>
<polygon fill="black" stroke="black" points="924,-80.1095 926.25,-85.1095 924,-82.6095 924,-85.1095 924,-85.1095 924,-85.1095 924,-82.6095 921.75,-85.1096 924,-80.1095 924,-80.1095"/>
</g>
<!-- v1 -->
<g id="v1_Area(2)" class="node"><title>v1</title>
<ellipse fill="none" stroke="black" cx="1146" cy="-69" rx="32.5" ry="11"/>
<text text-anchor="middle" x="1146" y="-66.8" font-family="sans-serif" font-size="9.00">Area(2)</text>
</g>
<!-- r2&#45;&gt;v1 -->
<g id="edge10" class="edge"><title>r2&#45;&gt;v1</title>
<path fill="none" stroke="black" d="M935.647,-158.305C960.186,-152.426 1018.75,-137.328 1065,-117 1087.72,-107.013 1112.14,-92.2255 1128.16,-81.9129"/>
<polygon fill="black" stroke="black" points="1132.45,-79.1306 1129.48,-83.7401 1130.35,-80.4917 1128.26,-81.8528 1128.26,-81.8528 1128.26,-81.8528 1130.35,-80.4917 1127.03,-79.9655 1132.45,-79.1306 1132.45,-79.1306"/>
</g>
<!-- v6 -->
<g id="v6_Area(0)" class="node"><title>v6</title>
<ellipse fill="none" stroke="black" cx="650" cy="-69" rx="32.5" ry="11"/>
<text text-anchor="middle" x="650" y="-66.8" font-family="sans-serif" font-size="9.00">Area(0)</text>
</g>
<!-- r2&#45;&gt;v6 -->
<g id="edge11" class="edge"><title>r2&#45;&gt;v6</title>
<path fill="none" stroke="black" d="M912.227,-157.09C871.36,-143.517 734.963,-98.2176 676.727,-78.8763"/>
<polygon fill="black" stroke="black" points="671.672,-77.1976 677.126,-76.6383 674.045,-77.9856 676.417,-78.7736 676.417,-78.7736 676.417,-78.7736 674.045,-77.9856 675.708,-80.909 671.672,-77.1976 671.672,-77.1976"/>
</g>
<!-- e2 -->
<g id="node4" class="node"><title>e2</title>
</g>
<!-- v2 -->
<g id="v2_GPS(4)" class="node"><title>v2</title>
<ellipse fill="none" stroke="black" cx="1122" cy="-11" rx="29" ry="11"/>
<text text-anchor="middle" x="1122" y="-8.8" font-family="sans-serif" font-size="9.00">GPS(4)</text>
</g>
<!-- e2&#45;&gt;v2 -->
<g id="edge34" class="edge"><title>e2&#45;&gt;v2</title>
<path fill="none" stroke="green" d="M384,-116C384,-116 746.089,-110.443 844,-80 862.635,-74.2059 863.709,-64.802 882,-58 962.557,-28.0431 987.638,-38.428 1072,-22 1080.25,-20.3925 1089.27,-18.601 1097.34,-16.9834"/>
</g>
<!-- v5 -->
<g id="v5_Lion" class="node"><title>v5</title>
<ellipse fill="none" stroke="black" cx="762" cy="-11" rx="21.5" ry="11"/>
<text text-anchor="middle" x="762" y="-8.8" font-family="sans-serif" font-size="9.00">Lion</text>
</g>
<!-- e2&#45;&gt;v5 -->
<g id="edge35" class="edge"><title>e2&#45;&gt;v5</title>
<path fill="none" stroke="green" d="M384,-116C384,-116 628.861,-109.275 691,-80 719.41,-66.6156 743.659,-37.3424 755.052,-21.9349"/>
</g>
<!-- e2&#45;&gt;v13 -->
<g id="edge36" class="edge"><title>e2&#45;&gt;v13</title>
<path fill="none" stroke="green" d="M384,-116C384,-116 292.146,-87.6424 252.677,-75.4574"/>
</g>
<!-- v16 -->
<g id="v16_Child" class="node"><title>v16</title>
<ellipse fill="none" stroke="black" cx="246" cy="-11" rx="25" ry="11"/>
<text text-anchor="middle" x="246" y="-8.8" font-family="sans-serif" font-size="9.00">Child</text>
</g>
<!-- e2&#45;&gt;v16 -->
<g id="edge37" class="edge"><title>e2&#45;&gt;v16</title>
<path fill="none" stroke="green" d="M384,-116C384,-116 291.138,-46.0171 257.766,-20.867"/>
</g>
<!-- e4 -->
<g id="node5" class="node"><title>e4</title>
</g>
<!-- v7 -->
<g id="v7_GPS(6)" class="node"><title>v7</title>
<ellipse fill="none" stroke="black" cx="501" cy="-11" rx="29" ry="11"/>
<text text-anchor="middle" x="501" y="-8.8" font-family="sans-serif" font-size="9.00">GPS(6)</text>
</g>
<!-- e4&#45;&gt;v7 -->
<g id="edge39" class="edge"><title>e4&#45;&gt;v7</title>
<path fill="none" stroke="green" d="M144,-116C144,-116 396.519,-116.512 456,-80 478.079,-66.4472 491.587,-37.5226 497.495,-22.1285"/>
</g>
<!-- v9 -->
<g id="v9_Lion" class="node"><title>v9</title>
<ellipse fill="none" stroke="black" cx="356" cy="-11" rx="21.5" ry="11"/>
<text text-anchor="middle" x="356" y="-8.8" font-family="sans-serif" font-size="9.00">Lion</text>
</g>
<!-- e4&#45;&gt;v9 -->
<g id="edge40" class="edge"><title>e4&#45;&gt;v9</title>
<path fill="none" stroke="green" d="M144,-116C144,-116 214.862,-105.183 265,-80 297.605,-63.6238 330.608,-35.4045 346.407,-21.0113"/>
</g>
<!-- e4&#45;&gt;v11 -->
<g id="edge41" class="edge"><title>e4&#45;&gt;v11</title>
<path fill="none" stroke="green" d="M144,-116C144,-116 128.674,-93.2583 119.574,-79.7554"/>
</g>
<!-- v14 -->
<g id="v14_Child" class="node"><title>v14</title>
<ellipse fill="none" stroke="black" cx="110" cy="-11" rx="25" ry="11"/>
<text text-anchor="middle" x="110" y="-8.8" font-family="sans-serif" font-size="9.00">Child</text>
</g>
<!-- e4&#45;&gt;v14 -->
<g id="edge42" class="edge"><title>e4&#45;&gt;v14</title>
<path fill="none" stroke="green" d="M144,-116C144,-116 97.8979,-107.615 82,-80 70.6615,-60.305 88.6275,-35.1231 100.628,-21.6063"/>
</g>
<!-- e5 -->
<g id="node6" class="node"><title>e5</title>
</g>
<!-- e5&#45;&gt;v12 -->
<g id="edge43" class="edge"><title>e5&#45;&gt;v12</title>
<path fill="none" stroke="green" d="M325,-116C325,-116 257.51,-96.8736 204,-80 199.811,-78.6791 195.311,-77.2073 191.103,-75.8077"/>
</g>
<!-- v15 -->
<g id="v15_Child" class="node"><title>v15</title>
<ellipse fill="none" stroke="black" cx="178" cy="-11" rx="25" ry="11"/>
<text text-anchor="middle" x="178" y="-8.8" font-family="sans-serif" font-size="9.00">Child</text>
</g>
<!-- e5&#45;&gt;v15 -->
<g id="edge44" class="edge"><title>e5&#45;&gt;v15</title>
<path fill="none" stroke="green" d="M325,-116C325,-116 295.026,-79.7732 265,-58 242.316,-41.5507 212.991,-27.2987 194.843,-19.1794"/>
</g>
<!-- v20 -->
<g id="v20_Lion" class="node"><title>v20</title>
<ellipse fill="none" stroke="black" cx="570" cy="-11" rx="21.5" ry="11"/>
<text text-anchor="middle" x="570" y="-8.8" font-family="sans-serif" font-size="9.00">Lion</text>
</g>
<!-- e5&#45;&gt;v20 -->
<g id="edge45" class="edge"><title>e5&#45;&gt;v20</title>
<path fill="none" stroke="green" d="M325,-116C325,-116 422.041,-112.944 489,-80 519.314,-65.0856 547.896,-36.4817 561.576,-21.5718"/>
</g>
<!-- v23 -->
<g id="v23_GPS(2)" class="node"><title>v23</title>
<ellipse fill="none" stroke="black" cx="866" cy="-11" rx="29" ry="11"/>
<text text-anchor="middle" x="866" y="-8.8" font-family="sans-serif" font-size="9.00">GPS(2)</text>
</g>
<!-- e5&#45;&gt;v23 -->
<g id="edge46" class="edge"><title>e5&#45;&gt;v23</title>
<path fill="none" stroke="green" d="M325,-116C325,-116 532.015,-117.952 691,-80 751.555,-65.5446 819.165,-34.8068 849.595,-20.1296"/>
</g>
<!-- e6 -->
<g id="node7" class="node"><title>e6</title>
</g>
<!-- e6&#45;&gt;v17 -->
<g id="edge47" class="edge"><title>e6&#45;&gt;v17</title>
<path fill="none" stroke="green" d="M1055,-116C1055,-116 1045.33,-93.7609 1039.44,-80.2089"/>
</g>
<!-- v18 -->
<g id="v18_Child" class="node"><title>v18</title>
<ellipse fill="none" stroke="black" cx="1038" cy="-11" rx="25" ry="11"/>
<text text-anchor="middle" x="1038" y="-8.8" font-family="sans-serif" font-size="9.00">Child</text>
</g>
<!-- e6&#45;&gt;v18 -->
<g id="edge48" class="edge"><title>e6&#45;&gt;v18</title>
<path fill="none" stroke="green" d="M1055,-116C1055,-116 1073.08,-83.2628 1066,-58 1062.11,-44.1369 1052.77,-30.3065 1045.94,-21.4862"/>
</g>
<!-- v21 -->
<g id="v21_Lion" class="node"><title>v21</title>
<ellipse fill="none" stroke="black" cx="956" cy="-11" rx="21.5" ry="11"/>
<text text-anchor="middle" x="956" y="-8.8" font-family="sans-serif" font-size="9.00">Lion</text>
</g>
<!-- e6&#45;&gt;v21 -->
<g id="edge49" class="edge"><title>e6&#45;&gt;v21</title>
<path fill="none" stroke="green" d="M1055,-116C1055,-116 1023.62,-99.6186 1004,-80 985.812,-61.8119 969.711,-36.0414 961.587,-22.026"/>
</g>
<!-- v24 -->
<g id="v24_GPS(4)" class="node"><title>v24</title>
<ellipse fill="none" stroke="black" cx="1204" cy="-11" rx="29" ry="11"/>
<text text-anchor="middle" x="1204" y="-8.8" font-family="sans-serif" font-size="9.00">GPS(4)</text>
</g>
<!-- e6&#45;&gt;v24 -->
<g id="edge50" class="edge"><title>e6&#45;&gt;v24</title>
<path fill="none" stroke="green" d="M1055,-116C1055,-116 1166.71,-102.008 1188,-80 1203.18,-64.3091 1204.92,-37.0654 1204.62,-22.2723"/>
</g>
<!-- v0&#45;&gt;v3 -->
<g id="edge32" class="edge"><title>v0&#45;&gt;v3</title>
<path fill="none" stroke="green" d="M909.562,-78.9418C898.683,-85.8006 883.105,-94.3208 868,-98 813.807,-111.2 670.66,-113.223 617,-98 604.086,-94.3366 591.241,-86.007 582.251,-79.2104"/>
</g>
<!-- v0&#45;&gt;v23 -->
<g id="edge12" class="edge"><title>v0&#45;&gt;v23</title>
<path fill="none" stroke="black" d="M914.161,-58.5004C904.72,-49.3846 890.374,-35.5334 879.794,-25.318"/>
<polygon fill="black" stroke="black" points="876.082,-21.7345 881.242,-23.5888 877.881,-23.471 879.679,-25.2075 879.679,-25.2075 879.679,-25.2075 877.881,-23.471 878.116,-26.8261 876.082,-21.7345 876.082,-21.7345"/>
</g>
<!-- v1&#45;&gt;v2 -->
<g id="edge13" class="edge"><title>v1&#45;&gt;v2</title>
<path fill="none" stroke="black" d="M1141.71,-57.9883C1137.99,-49.3083 1132.56,-36.6286 1128.33,-26.7806"/>
<polygon fill="black" stroke="black" points="1126.25,-21.925 1130.29,-25.6344 1127.24,-24.2229 1128.22,-26.5207 1128.22,-26.5207 1128.22,-26.5207 1127.24,-24.2229 1126.16,-27.4071 1126.25,-21.925 1126.25,-21.925"/>
</g>
<!-- v1&#45;&gt;v4 -->
<g id="edge33" class="edge"><title>v1&#45;&gt;v4</title>
<path fill="none" stroke="green" d="M1131.56,-78.9418C1120.68,-85.8006 1105.11,-94.3208 1090,-98 1004.07,-118.93 978.252,-112.475 891,-98 867.466,-94.0958 841.701,-84.4997 824.778,-77.4099"/>
</g>
<!-- v1&#45;&gt;v24 -->
<g id="edge14" class="edge"><title>v1&#45;&gt;v24</title>
<path fill="none" stroke="black" d="M1155.84,-58.5004C1165.28,-49.3846 1179.63,-35.5334 1190.21,-25.318"/>
<polygon fill="black" stroke="black" points="1193.92,-21.7345 1191.88,-26.8261 1192.12,-23.471 1190.32,-25.2075 1190.32,-25.2075 1190.32,-25.2075 1192.12,-23.471 1188.76,-23.5888 1193.92,-21.7345 1193.92,-21.7345"/>
</g>
<!-- v3&#45;&gt;v20 -->
<g id="edge15" class="edge"><title>v3&#45;&gt;v20</title>
<path fill="none" stroke="black" d="M570,-57.9883C570,-49.4941 570,-37.1697 570,-27.4169"/>
<polygon fill="black" stroke="black" points="570,-22.3039 572.25,-27.3038 570,-24.8039 570,-27.3039 570,-27.3039 570,-27.3039 570,-24.8039 567.75,-27.3039 570,-22.3039 570,-22.3039"/>
</g>
<!-- v4&#45;&gt;v5 -->
<g id="edge16" class="edge"><title>v4&#45;&gt;v5</title>
<path fill="none" stroke="black" d="M798.336,-58.2455C791.269,-49.2519 780.708,-35.8101 772.79,-25.7327"/>
<polygon fill="black" stroke="black" points="769.576,-21.6427 774.435,-24.1842 771.121,-23.6085 772.666,-25.5743 772.666,-25.5743 772.666,-25.5743 771.121,-23.6085 770.896,-26.9644 769.576,-21.6427 769.576,-21.6427"/>
</g>
<!-- v4&#45;&gt;v21 -->
<g id="edge17" class="edge"><title>v4&#45;&gt;v21</title>
<path fill="none" stroke="black" d="M825.61,-60.679C853.836,-50.1412 905.712,-30.7744 934.798,-19.9155"/>
<polygon fill="black" stroke="black" points="939.608,-18.1197 935.711,-21.9764 937.266,-18.9941 934.924,-19.8685 934.924,-19.8685 934.924,-19.8685 937.266,-18.9941 934.137,-17.7606 939.608,-18.1197 939.608,-18.1197"/>
</g>
<!-- v6&#45;&gt;v7 -->
<g id="edge18" class="edge"><title>v6&#45;&gt;v7</title>
<path fill="none" stroke="black" d="M629.595,-60.3309C602.471,-50.1368 554.592,-32.1421 525.532,-21.2201"/>
<polygon fill="black" stroke="black" points="520.685,-19.3984 526.157,-19.0514 523.025,-20.278 525.366,-21.1576 525.366,-21.1576 525.366,-21.1576 523.025,-20.278 524.574,-23.2637 520.685,-19.3984 520.685,-19.3984"/>
</g>
<!-- v6&#45;&gt;v8 -->
<g id="edge38" class="edge"><title>v6&#45;&gt;v8</title>
<path fill="none" stroke="green" d="M636.567,-79.2214C626.746,-86.0232 612.786,-94.3546 599,-98 541.158,-113.295 470.657,-90.4857 437.284,-77.289"/>
</g>
<!-- v22 -->
<g id="v22_GPS(0)" class="node"><title>v22</title>
<ellipse fill="none" stroke="black" cx="650" cy="-11" rx="29" ry="11"/>
<text text-anchor="middle" x="650" y="-8.8" font-family="sans-serif" font-size="9.00">GPS(0)</text>
</g>
<!-- v6&#45;&gt;v22 -->
<g id="edge19" class="edge"><title>v6&#45;&gt;v22</title>
<path fill="none" stroke="black" d="M650,-57.9883C650,-49.4941 650,-37.1697 650,-27.4169"/>
<polygon fill="black" stroke="black" points="650,-22.3039 652.25,-27.3038 650,-24.8039 650,-27.3039 650,-27.3039 650,-27.3039 650,-24.8039 647.75,-27.3039 650,-22.3039 650,-22.3039"/>
</g>
<!-- v8&#45;&gt;v9 -->
<g id="edge20" class="edge"><title>v8&#45;&gt;v9</title>
<path fill="none" stroke="black" d="M407.483,-58.5004C397.144,-49.1622 381.304,-34.8549 369.925,-24.5772"/>
<polygon fill="black" stroke="black" points="365.953,-20.9896 371.171,-22.6713 367.808,-22.6653 369.663,-24.3411 369.663,-24.3411 369.663,-24.3411 367.808,-22.6653 368.155,-26.0108 365.953,-20.9896 365.953,-20.9896"/>
</g>
<!-- v19 -->
<g id="v19_Impala" class="node"><title>v19</title>
<ellipse fill="none" stroke="black" cx="425" cy="-11" rx="29" ry="11"/>
<text text-anchor="middle" x="425" y="-8.8" font-family="sans-serif" font-size="9.00">Impala</text>
</g>
<!-- v8&#45;&gt;v19 -->
<g id="edge21" class="edge"><title>v8&#45;&gt;v19</title>
<path fill="none" stroke="black" d="M419.251,-57.9883C420.313,-49.4941 421.854,-37.1697 423.073,-27.4169"/>
<polygon fill="black" stroke="black" points="423.712,-22.3039 425.324,-27.5444 423.402,-24.7846 423.092,-27.2653 423.092,-27.2653 423.092,-27.2653 423.402,-24.7846 420.859,-26.9861 423.712,-22.3039 423.712,-22.3039"/>
</g>
<!-- v11&#45;&gt;v14 -->
<g id="edge22" class="edge"><title>v11&#45;&gt;v14</title>
<path fill="none" stroke="black" d="M112.464,-57.9883C112.009,-49.4941 111.348,-37.1697 110.826,-27.4169"/>
<polygon fill="black" stroke="black" points="110.552,-22.3039 113.066,-27.1763 110.686,-24.8003 110.82,-27.2967 110.82,-27.2967 110.82,-27.2967 110.686,-24.8003 108.573,-27.4171 110.552,-22.3039 110.552,-22.3039"/>
</g>
<!-- v11&#45;&gt;v15 -->
<g id="edge23" class="edge"><title>v11&#45;&gt;v15</title>
<path fill="none" stroke="black" d="M123.156,-59.25C133.935,-49.9638 151.069,-35.2025 163.316,-24.6504"/>
<polygon fill="black" stroke="black" points="167.267,-21.2473 164.947,-26.2155 165.373,-22.8791 163.479,-24.5108 163.479,-24.5108 163.479,-24.5108 165.373,-22.8791 162.01,-22.8062 167.267,-21.2473 167.267,-21.2473"/>
</g>
<!-- v11&#45;&gt;v16 -->
<g id="edge24" class="edge"><title>v11&#45;&gt;v16</title>
<path fill="none" stroke="black" d="M128.779,-61.3562C152.488,-51.3736 197.373,-32.4747 224.195,-21.1809"/>
<polygon fill="black" stroke="black" points="228.984,-19.1645 225.249,-23.1785 226.68,-20.1346 224.376,-21.1048 224.376,-21.1048 224.376,-21.1048 226.68,-20.1346 223.503,-19.0311 228.984,-19.1645 228.984,-19.1645"/>
</g>
<!-- v12&#45;&gt;v14 -->
<g id="edge25" class="edge"><title>v12&#45;&gt;v14</title>
<path fill="none" stroke="black" d="M164,-59.25C153.387,-49.9638 136.517,-35.2025 124.458,-24.6504"/>
<polygon fill="black" stroke="black" points="120.568,-21.2473 125.813,-22.8465 122.45,-22.8935 124.331,-24.5398 124.331,-24.5398 124.331,-24.5398 122.45,-22.8935 122.85,-26.2331 120.568,-21.2473 120.568,-21.2473"/>
</g>
<!-- v12&#45;&gt;v15 -->
<g id="edge26" class="edge"><title>v12&#45;&gt;v15</title>
<path fill="none" stroke="black" d="M174.715,-57.9883C175.322,-49.4941 176.202,-37.1697 176.899,-27.4169"/>
<polygon fill="black" stroke="black" points="177.264,-22.3039 179.152,-27.4515 177.086,-24.7975 176.908,-27.2912 176.908,-27.2912 176.908,-27.2912 177.086,-24.7975 174.663,-27.1308 177.264,-22.3039 177.264,-22.3039"/>
</g>
<!-- v12&#45;&gt;v16 -->
<g id="edge27" class="edge"><title>v12&#45;&gt;v16</title>
<path fill="none" stroke="black" d="M184.935,-59.4948C197.057,-50.067 216.705,-34.7854 230.43,-24.1101"/>
<polygon fill="black" stroke="black" points="234.484,-20.9566 231.919,-25.8024 232.511,-22.4915 230.538,-24.0264 230.538,-24.0264 230.538,-24.0264 232.511,-22.4915 229.156,-22.2503 234.484,-20.9566 234.484,-20.9566"/>
</g>
<!-- v13&#45;&gt;v14 -->
<g id="edge28" class="edge"><title>v13&#45;&gt;v14</title>
<path fill="none" stroke="black" d="M219.673,-61.1333C197.548,-51.2214 156.568,-32.8624 131.449,-21.6093"/>
<polygon fill="black" stroke="black" points="126.647,-19.4581 132.13,-19.449 128.929,-20.4802 131.211,-21.5024 131.211,-21.5024 131.211,-21.5024 128.929,-20.4802 130.291,-23.5557 126.647,-19.4581 126.647,-19.4581"/>
</g>
<!-- v13&#45;&gt;v15 -->
<g id="edge29" class="edge"><title>v13&#45;&gt;v15</title>
<path fill="none" stroke="black" d="M225.842,-59.0026C216.537,-49.8606 202.023,-35.6014 191.42,-25.1846"/>
<polygon fill="black" stroke="black" points="187.708,-21.5373 192.851,-23.4364 189.491,-23.2894 191.274,-25.0414 191.274,-25.0414 191.274,-25.0414 189.491,-23.2894 189.697,-26.6465 187.708,-21.5373 187.708,-21.5373"/>
</g>
<!-- v13&#45;&gt;v16 -->
<g id="edge30" class="edge"><title>v13&#45;&gt;v16</title>
<path fill="none" stroke="black" d="M236.967,-57.9883C238.635,-49.4941 241.056,-37.1697 242.972,-27.4169"/>
<polygon fill="black" stroke="black" points="243.976,-22.3039 245.22,-27.6438 243.494,-24.757 243.012,-27.2101 243.012,-27.2101 243.012,-27.2101 243.494,-24.757 240.804,-26.7764 243.976,-22.3039 243.976,-22.3039"/>
</g>
<!-- v17&#45;&gt;v18 -->
<g id="edge31" class="edge"><title>v17&#45;&gt;v18</title>
<path fill="none" stroke="black" d="M1035.54,-57.9883C1035.99,-49.4941 1036.65,-37.1697 1037.17,-27.4169"/>
<polygon fill="black" stroke="black" points="1037.45,-22.3039 1039.43,-27.4171 1037.31,-24.8003 1037.18,-27.2967 1037.18,-27.2967 1037.18,-27.2967 1037.31,-24.8003 1034.93,-27.1763 1037.45,-22.3039 1037.45,-22.3039"/>
</g>
<!-- v19&#45;&gt;v22 -->
<g id="edge51" class="edge"><title>v19&#45;&gt;v22</title>
<path fill="none" stroke="green" d="M437.251,-21.2104C446.241,-28.007 459.086,-36.3366 472,-40 522.881,-54.4341 539.485,-51.9762 591,-40 607.009,-36.2783 623.675,-27.5678 635.195,-20.6584"/>
</g>
</g>
</svg>
