<?xml version="1.0" encoding="UTF-8" standalone="no"?>
<?xml-stylesheet href="style.css" type="text/css"?>
<!DOCTYPE svg PUBLIC "-//W3C//DTD SVG 1.1//EN"
 "http://www.w3.org/Graphics/SVG/1.1/DTD/svg11.dtd">
<!-- Generated by graphviz version 2.38.0 (20140413.2041)
 -->
<!-- Title: 24.svg Pages: 1 -->
<svg width="1232pt" height="179pt"
 viewBox="0.00 0.00 1231.50 179.00" xmlns="http://www.w3.org/2000/svg" xmlns:xlink="http://www.w3.org/1999/xlink">
<g id="graph0" class="graph" transform="scale(1 1) rotate(0) translate(4 175)">
<title>24.svg</title>
<polygon fill="white" stroke="none" points="-4,4 -4,-175 1227.5,-175 1227.5,4 -4,4"/>
<!-- r0 -->
<g id="node1" class="node"><title>r0</title>
<polygon fill="none" stroke="black" stroke-dasharray="5,2" points="185.5,-171 162.5,-171 162.5,-153 185.5,-153 185.5,-171"/>
<text text-anchor="middle" x="174" y="-159.8" font-family="serif" font-size="9.00">0</text>
</g>
<!-- v6 -->
<g id="v6_Field" class="node"><title>v6</title>
<ellipse fill="none" stroke="black" cx="25" cy="-11" rx="25" ry="11"/>
<text text-anchor="middle" x="25" y="-8.8" font-family="sans-serif" font-size="9.00">Field</text>
</g>
<!-- r0&#45;&gt;v6 -->
<g id="edge1" class="edge"><title>r0&#45;&gt;v6</title>
<path fill="none" stroke="black" d="M162.222,-152.862C142.816,-139.14 103.443,-109.953 75,-80 58.8635,-63.0068 43.3756,-40.7082 34.0231,-26.3641"/>
<polygon fill="black" stroke="black" points="31.0945,-21.8237 35.6956,-24.8059 32.4496,-23.9246 33.8047,-26.0255 33.8047,-26.0255 33.8047,-26.0255 32.4496,-23.9246 31.9139,-27.2451 31.0945,-21.8237 31.0945,-21.8237"/>
</g>
<!-- v7 -->
<g id="v7_Aura" class="node"><title>v7</title>
<ellipse fill="none" stroke="black" cx="113" cy="-69" rx="21.5" ry="11"/>
<text text-anchor="middle" x="113" y="-66.8" font-family="sans-serif" font-size="9.00">Aura</text>
</g>
<!-- r0&#45;&gt;v7 -->
<g id="edge2" class="edge"><title>r0&#45;&gt;v7</title>
<path fill="none" stroke="black" d="M165.157,-152.911C156.404,-144.557 143.038,-130.826 134,-117 127.42,-106.935 121.956,-94.4673 118.252,-84.9025"/>
<polygon fill="black" stroke="black" points="116.479,-80.1934 120.347,-84.08 117.36,-82.5331 118.241,-84.8728 118.241,-84.8728 118.241,-84.8728 117.36,-82.5331 116.135,-85.6656 116.479,-80.1934 116.479,-80.1934"/>
</g>
<!-- v8 -->
<g id="v8_Aura" class="node"><title>v8</title>
<ellipse fill="none" stroke="black" cx="174" cy="-69" rx="21.5" ry="11"/>
<text text-anchor="middle" x="174" y="-66.8" font-family="sans-serif" font-size="9.00">Aura</text>
</g>
<!-- r0&#45;&gt;v8 -->
<g id="edge3" class="edge"><title>r0&#45;&gt;v8</title>
<path fill="none" stroke="black" d="M174,-152.924C174,-137.736 174,-104.696 174,-85.2178"/>
<polygon fill="black" stroke="black" points="174,-80.1095 176.25,-85.1095 174,-82.6095 174,-85.1095 174,-85.1095 174,-85.1095 174,-82.6095 171.75,-85.1096 174,-80.1095 174,-80.1095"/>
</g>
<!-- v9 -->
<g id="v9_Aura" class="node"><title>v9</title>
<ellipse fill="none" stroke="black" cx="235" cy="-69" rx="21.5" ry="11"/>
<text text-anchor="middle" x="235" y="-66.8" font-family="sans-serif" font-size="9.00">Aura</text>
</g>
<!-- r0&#45;&gt;v9 -->
<g id="edge4" class="edge"><title>r0&#45;&gt;v9</title>
<path fill="none" stroke="black" d="M179.413,-152.924C189.789,-137.446 212.593,-103.427 225.537,-84.1163"/>
<polygon fill="black" stroke="black" points="228.602,-79.5439 227.687,-84.9499 227.21,-81.6205 225.818,-83.6971 225.818,-83.6971 225.818,-83.6971 227.21,-81.6205 223.949,-82.4443 228.602,-79.5439 228.602,-79.5439"/>
</g>
<!-- v13 -->
<g id="v13_Aura" class="node"><title>v13</title>
<ellipse fill="none" stroke="black" cx="1043" cy="-69" rx="21.5" ry="11"/>
<text text-anchor="middle" x="1043" y="-66.8" font-family="sans-serif" font-size="9.00">Aura</text>
</g>
<!-- r0&#45;&gt;v13 -->
<g id="edge5" class="edge"><title>r0&#45;&gt;v13</title>
<path fill="none" stroke="black" d="M185.766,-160.001C258.404,-153.791 653.247,-119.463 974,-80 988.53,-78.2124 1004.73,-75.8818 1017.78,-73.9203"/>
<polygon fill="black" stroke="black" points="1022.8,-73.1609 1018.19,-76.1337 1020.33,-73.5349 1017.86,-73.909 1017.86,-73.909 1017.86,-73.909 1020.33,-73.5349 1017.52,-71.6843 1022.8,-73.1609 1022.8,-73.1609"/>
</g>
<!-- r1 -->
<g id="node2" class="node"><title>r1</title>
<polygon fill="none" stroke="black" stroke-dasharray="5,2" points="947.5,-171 924.5,-171 924.5,-153 947.5,-153 947.5,-171"/>
<text text-anchor="middle" x="936" y="-159.8" font-family="serif" font-size="9.00">1</text>
</g>
<!-- v3 -->
<g id="v3_Locale" class="node"><title>v3</title>
<ellipse fill="none" stroke="black" cx="936" cy="-69" rx="29" ry="11"/>
<text text-anchor="middle" x="936" y="-66.8" font-family="sans-serif" font-size="9.00">Locale</text>
</g>
<!-- r1&#45;&gt;v3 -->
<g id="edge6" class="edge"><title>r1&#45;&gt;v3</title>
<path fill="none" stroke="black" d="M936,-152.924C936,-137.736 936,-104.696 936,-85.2178"/>
<polygon fill="black" stroke="black" points="936,-80.1095 938.25,-85.1095 936,-82.6095 936,-85.1095 936,-85.1095 936,-85.1095 936,-82.6095 933.75,-85.1096 936,-80.1095 936,-80.1095"/>
</g>
<!-- v4 -->
<g id="v4_Locale" class="node"><title>v4</title>
<ellipse fill="none" stroke="black" cx="1150" cy="-69" rx="29" ry="11"/>
<text text-anchor="middle" x="1150" y="-66.8" font-family="sans-serif" font-size="9.00">Locale</text>
</g>
<!-- r1&#45;&gt;v4 -->
<g id="edge7" class="edge"><title>r1&#45;&gt;v4</title>
<path fill="none" stroke="black" d="M947.616,-158.206C971.532,-152.247 1027.74,-137.17 1072,-117 1093.9,-107.018 1117.34,-92.2853 1132.74,-81.9832"/>
<polygon fill="black" stroke="black" points="1137.25,-78.9384 1134.37,-83.6007 1135.18,-80.3371 1133.11,-81.7358 1133.11,-81.7358 1133.11,-81.7358 1135.18,-80.3371 1131.85,-79.8708 1137.25,-78.9384 1137.25,-78.9384"/>
</g>
<!-- v15 -->
<g id="v15_Locale" class="node"><title>v15</title>
<ellipse fill="none" stroke="black" cx="662" cy="-69" rx="29" ry="11"/>
<text text-anchor="middle" x="662" y="-66.8" font-family="sans-serif" font-size="9.00">Locale</text>
</g>
<!-- r1&#45;&gt;v15 -->
<g id="edge8" class="edge"><title>r1&#45;&gt;v15</title>
<path fill="none" stroke="black" d="M924.227,-157.09C883.062,-143.418 744.967,-97.5546 687.464,-78.457"/>
<polygon fill="black" stroke="black" points="682.482,-76.8026 687.937,-76.2433 684.855,-77.5906 687.228,-78.3786 687.228,-78.3786 687.228,-78.3786 684.855,-77.5906 686.518,-80.5139 682.482,-76.8026 682.482,-76.8026"/>
</g>
<!-- r2 -->
<g id="node3" class="node"><title>r2</title>
<polygon fill="none" stroke="black" stroke-dasharray="5,2" points="593.5,-171 570.5,-171 570.5,-153 593.5,-153 593.5,-171"/>
<text text-anchor="middle" x="582" y="-159.8" font-family="serif" font-size="9.00">2</text>
</g>
<!-- v0 -->
<g id="v0_Area(1)" class="node"><title>v0</title>
<ellipse fill="none" stroke="black" cx="582" cy="-69" rx="32.5" ry="11"/>
<text text-anchor="middle" x="582" y="-66.8" font-family="sans-serif" font-size="9.00">Area(1)</text>
</g>
<!-- r2&#45;&gt;v0 -->
<g id="edge9" class="edge"><title>r2&#45;&gt;v0</title>
<path fill="none" stroke="black" d="M582,-152.924C582,-137.736 582,-104.696 582,-85.2178"/>
<polygon fill="black" stroke="black" points="582,-80.1095 584.25,-85.1095 582,-82.6095 582,-85.1095 582,-85.1095 582,-85.1095 582,-82.6095 579.75,-85.1096 582,-80.1095 582,-80.1095"/>
</g>
<!-- v1 -->
<g id="v1_Area(2)" class="node"><title>v1</title>
<ellipse fill="none" stroke="black" cx="818" cy="-69" rx="32.5" ry="11"/>
<text text-anchor="middle" x="818" y="-66.8" font-family="sans-serif" font-size="9.00">Area(2)</text>
</g>
<!-- r2&#45;&gt;v1 -->
<g id="edge10" class="edge"><title>r2&#45;&gt;v1</title>
<path fill="none" stroke="black" d="M593.703,-156.487C630.284,-142.382 743.024,-98.9104 793.326,-79.514"/>
<polygon fill="black" stroke="black" points="797.995,-77.7138 794.139,-81.6121 795.662,-78.6133 793.33,-79.5128 793.33,-79.5128 793.33,-79.5128 795.662,-78.6133 792.52,-77.4134 797.995,-77.7138 797.995,-77.7138"/>
</g>
<!-- v20 -->
<g id="v20_Area(0)" class="node"><title>v20</title>
<ellipse fill="none" stroke="black" cx="422" cy="-69" rx="32.5" ry="11"/>
<text text-anchor="middle" x="422" y="-66.8" font-family="sans-serif" font-size="9.00">Area(0)</text>
</g>
<!-- r2&#45;&gt;v20 -->
<g id="edge11" class="edge"><title>r2&#45;&gt;v20</title>
<path fill="none" stroke="black" d="M570.493,-154.456C543.585,-139.152 476.265,-100.863 442.29,-81.5399"/>
<polygon fill="black" stroke="black" points="437.528,-78.8315 442.986,-79.3476 439.701,-80.0674 441.874,-81.3034 441.874,-81.3034 441.874,-81.3034 439.701,-80.0674 440.762,-83.2592 437.528,-78.8315 437.528,-78.8315"/>
</g>
<!-- e2 -->
<g id="node4" class="node"><title>e2</title>
</g>
<!-- v2 -->
<g id="v2_GPS(9)" class="node"><title>v2</title>
<ellipse fill="none" stroke="black" cx="778" cy="-11" rx="29" ry="11"/>
<text text-anchor="middle" x="778" y="-8.8" font-family="sans-serif" font-size="9.00">GPS(9)</text>
</g>
<!-- e2&#45;&gt;v2 -->
<g id="edge34" class="edge"><title>e2&#45;&gt;v2</title>
<path fill="none" stroke="green" d="M388,-116C388,-116 636.158,-108.2 700,-80 730.237,-66.6436 757.303,-37.3581 770.136,-21.9416"/>
</g>
<!-- v5 -->
<g id="v5_Lion" class="node"><title>v5</title>
<ellipse fill="none" stroke="black" cx="1132" cy="-11" rx="21.5" ry="11"/>
<text text-anchor="middle" x="1132" y="-8.8" font-family="sans-serif" font-size="9.00">Lion</text>
</g>
<!-- e2&#45;&gt;v5 -->
<g id="edge35" class="edge"><title>e2&#45;&gt;v5</title>
<path fill="none" stroke="green" d="M388,-116C388,-116 758.561,-110.514 859,-80 878.042,-74.215 879.329,-64.8877 898,-58 976.178,-29.1603 1000.26,-38.171 1082,-22 1092.07,-20.0072 1103.28,-17.7671 1112.53,-15.9131"/>
</g>
<!-- e2&#45;&gt;v9 -->
<g id="edge36" class="edge"><title>e2&#45;&gt;v9</title>
<path fill="none" stroke="green" d="M388,-116C388,-116 293.21,-87.5011 252.85,-75.3668"/>
</g>
<!-- v12 -->
<g id="v12_Child" class="node"><title>v12</title>
<ellipse fill="none" stroke="black" cx="246" cy="-11" rx="25" ry="11"/>
<text text-anchor="middle" x="246" y="-8.8" font-family="sans-serif" font-size="9.00">Child</text>
</g>
<!-- e2&#45;&gt;v12 -->
<g id="edge37" class="edge"><title>e2&#45;&gt;v12</title>
<path fill="none" stroke="green" d="M388,-116C388,-116 292.446,-46.0171 258.107,-20.867"/>
</g>
<!-- e3 -->
<g id="node5" class="node"><title>e3</title>
</g>
<!-- e3&#45;&gt;v7 -->
<g id="edge38" class="edge"><title>e3&#45;&gt;v7</title>
<path fill="none" stroke="green" d="M144,-116C144,-116 128.674,-93.2583 119.574,-79.7554"/>
</g>
<!-- v10 -->
<g id="v10_Child" class="node"><title>v10</title>
<ellipse fill="none" stroke="black" cx="110" cy="-11" rx="25" ry="11"/>
<text text-anchor="middle" x="110" y="-8.8" font-family="sans-serif" font-size="9.00">Child</text>
</g>
<!-- e3&#45;&gt;v10 -->
<g id="edge39" class="edge"><title>e3&#45;&gt;v10</title>
<path fill="none" stroke="green" d="M144,-116C144,-116 97.8979,-107.615 82,-80 70.6615,-60.305 88.6275,-35.1231 100.628,-21.6063"/>
</g>
<!-- v16 -->
<g id="v16_Lion" class="node"><title>v16</title>
<ellipse fill="none" stroke="black" cx="508" cy="-11" rx="21.5" ry="11"/>
<text text-anchor="middle" x="508" y="-8.8" font-family="sans-serif" font-size="9.00">Lion</text>
</g>
<!-- e3&#45;&gt;v16 -->
<g id="edge40" class="edge"><title>e3&#45;&gt;v16</title>
<path fill="none" stroke="green" d="M144,-116C144,-116 402.155,-117.244 463,-80 485.216,-66.4009 498.744,-37.2216 504.596,-21.884"/>
</g>
<!-- v21 -->
<g id="v21_GPS(1)" class="node"><title>v21</title>
<ellipse fill="none" stroke="black" cx="361" cy="-11" rx="29" ry="11"/>
<text text-anchor="middle" x="361" y="-8.8" font-family="sans-serif" font-size="9.00">GPS(1)</text>
</g>
<!-- e3&#45;&gt;v21 -->
<g id="edge41" class="edge"><title>e3&#45;&gt;v21</title>
<path fill="none" stroke="green" d="M144,-116C144,-116 214.545,-104.543 265,-80 298.611,-63.6505 333.225,-35.9276 350.233,-21.4463"/>
</g>
<!-- e4 -->
<g id="node6" class="node"><title>e4</title>
</g>
<!-- e4&#45;&gt;v8 -->
<g id="edge42" class="edge"><title>e4&#45;&gt;v8</title>
<path fill="none" stroke="green" d="M327,-116C327,-116 258.361,-97.0091 204,-80 199.808,-78.6885 195.307,-77.2201 191.098,-75.821"/>
</g>
<!-- v11 -->
<g id="v11_Child" class="node"><title>v11</title>
<ellipse fill="none" stroke="black" cx="178" cy="-11" rx="25" ry="11"/>
<text text-anchor="middle" x="178" y="-8.8" font-family="sans-serif" font-size="9.00">Child</text>
</g>
<!-- e4&#45;&gt;v11 -->
<g id="edge43" class="edge"><title>e4&#45;&gt;v11</title>
<path fill="none" stroke="green" d="M327,-116C327,-116 295.727,-79.9005 265,-58 242.182,-41.737 212.895,-27.4325 194.792,-19.2516"/>
</g>
<!-- v18 -->
<g id="v18_Lion" class="node"><title>v18</title>
<ellipse fill="none" stroke="black" cx="874" cy="-11" rx="21.5" ry="11"/>
<text text-anchor="middle" x="874" y="-8.8" font-family="sans-serif" font-size="9.00">Lion</text>
</g>
<!-- e4&#45;&gt;v18 -->
<g id="edge44" class="edge"><title>e4&#45;&gt;v18</title>
<path fill="none" stroke="green" d="M327,-116C327,-116 538.006,-118.68 700,-80 761.516,-65.3117 830.273,-33.5455 859.548,-19.2408"/>
</g>
<!-- v23 -->
<g id="v23_GPS(2)" class="node"><title>v23</title>
<ellipse fill="none" stroke="black" cx="579" cy="-11" rx="29" ry="11"/>
<text text-anchor="middle" x="579" y="-8.8" font-family="sans-serif" font-size="9.00">GPS(2)</text>
</g>
<!-- e4&#45;&gt;v23 -->
<g id="edge45" class="edge"><title>e4&#45;&gt;v23</title>
<path fill="none" stroke="green" d="M327,-116C327,-116 427.475,-113.628 497,-80 527.634,-65.1828 556.593,-36.5364 570.459,-21.5949"/>
</g>
<!-- e5 -->
<g id="node7" class="node"><title>e5</title>
</g>
<!-- e5&#45;&gt;v13 -->
<g id="edge46" class="edge"><title>e5&#45;&gt;v13</title>
<path fill="none" stroke="green" d="M1062,-116C1062,-116 1052.81,-93.7609 1047.22,-80.2089"/>
</g>
<!-- v14 -->
<g id="v14_Child" class="node"><title>v14</title>
<ellipse fill="none" stroke="black" cx="1048" cy="-11" rx="25" ry="11"/>
<text text-anchor="middle" x="1048" y="-8.8" font-family="sans-serif" font-size="9.00">Child</text>
</g>
<!-- e5&#45;&gt;v14 -->
<g id="edge47" class="edge"><title>e5&#45;&gt;v14</title>
<path fill="none" stroke="green" d="M1062,-116C1062,-116 1080.7,-83.4577 1074,-58 1070.41,-44.3376 1061.73,-30.4664 1055.38,-21.5817"/>
</g>
<!-- v19 -->
<g id="v19_Lion" class="node"><title>v19</title>
<ellipse fill="none" stroke="black" cx="1202" cy="-11" rx="21.5" ry="11"/>
<text text-anchor="middle" x="1202" y="-8.8" font-family="sans-serif" font-size="9.00">Lion</text>
</g>
<!-- e5&#45;&gt;v19 -->
<g id="edge48" class="edge"><title>e5&#45;&gt;v19</title>
<path fill="none" stroke="green" d="M1062,-116C1062,-116 1148.4,-122.703 1188,-80 1202.75,-64.0926 1203.68,-36.9368 1202.93,-22.2151"/>
</g>
<!-- v24 -->
<g id="v24_GPS(4)" class="node"><title>v24</title>
<ellipse fill="none" stroke="black" cx="962" cy="-11" rx="29" ry="11"/>
<text text-anchor="middle" x="962" y="-8.8" font-family="sans-serif" font-size="9.00">GPS(4)</text>
</g>
<!-- e5&#45;&gt;v24 -->
<g id="edge49" class="edge"><title>e5&#45;&gt;v24</title>
<path fill="none" stroke="green" d="M1062,-116C1062,-116 1031.46,-99.2656 1012,-80 993.464,-61.6489 976.532,-35.9421 967.934,-21.9806"/>
</g>
<!-- v0&#45;&gt;v3 -->
<g id="edge32" class="edge"><title>v0&#45;&gt;v3</title>
<path fill="none" stroke="green" d="M595.433,-79.2214C605.254,-86.0232 619.214,-94.3546 633,-98 686.924,-112.259 830.017,-112.035 884,-98 898.206,-94.3065 912.651,-85.7878 922.7,-78.9333"/>
</g>
<!-- v0&#45;&gt;v23 -->
<g id="edge12" class="edge"><title>v0&#45;&gt;v23</title>
<path fill="none" stroke="black" d="M581.464,-57.9883C581.009,-49.4941 580.348,-37.1697 579.826,-27.4169"/>
<polygon fill="black" stroke="black" points="579.552,-22.3039 582.066,-27.1763 579.686,-24.8003 579.82,-27.2967 579.82,-27.2967 579.82,-27.2967 579.686,-24.8003 577.573,-27.4171 579.552,-22.3039 579.552,-22.3039"/>
</g>
<!-- v1&#45;&gt;v2 -->
<g id="edge13" class="edge"><title>v1&#45;&gt;v2</title>
<path fill="none" stroke="black" d="M811.033,-58.2455C804.687,-49.3616 795.241,-36.1372 788.074,-26.1029"/>
<polygon fill="black" stroke="black" points="785.157,-22.0198 789.894,-24.7806 786.61,-24.0541 788.063,-26.0884 788.063,-26.0884 788.063,-26.0884 786.61,-24.0541 786.232,-27.3962 785.157,-22.0198 785.157,-22.0198"/>
</g>
<!-- v1&#45;&gt;v4 -->
<g id="edge33" class="edge"><title>v1&#45;&gt;v4</title>
<path fill="none" stroke="green" d="M838.404,-77.6914C856.155,-84.7532 882.765,-94.1511 907,-98 990.838,-111.315 1015.84,-119.361 1098,-98 1112.21,-94.3065 1126.65,-85.7878 1136.7,-78.9333"/>
</g>
<!-- v1&#45;&gt;v24 -->
<g id="edge14" class="edge"><title>v1&#45;&gt;v24</title>
<path fill="none" stroke="black" d="M838.023,-60.2134C864.322,-49.9859 910.432,-32.0541 938.399,-21.1781"/>
<polygon fill="black" stroke="black" points="943.063,-19.3642 939.219,-23.2735 940.733,-20.2703 938.403,-21.1765 938.403,-21.1765 938.403,-21.1765 940.733,-20.2703 937.588,-19.0795 943.063,-19.3642 943.063,-19.3642"/>
</g>
<!-- v3&#45;&gt;v18 -->
<g id="edge15" class="edge"><title>v3&#45;&gt;v18</title>
<path fill="none" stroke="black" d="M925.483,-58.5004C915.144,-49.1622 899.304,-34.8549 887.925,-24.5772"/>
<polygon fill="black" stroke="black" points="883.953,-20.9896 889.171,-22.6713 885.808,-22.6653 887.663,-24.3411 887.663,-24.3411 887.663,-24.3411 885.808,-22.6653 886.155,-26.0108 883.953,-20.9896 883.953,-20.9896"/>
</g>
<!-- v4&#45;&gt;v5 -->
<g id="edge16" class="edge"><title>v4&#45;&gt;v5</title>
<path fill="none" stroke="black" d="M1146.78,-57.9883C1143.99,-49.3083 1139.92,-36.6286 1136.75,-26.7806"/>
<polygon fill="black" stroke="black" points="1135.19,-21.925 1138.86,-25.9966 1135.96,-24.3051 1136.72,-26.6851 1136.72,-26.6851 1136.72,-26.6851 1135.96,-24.3051 1134.58,-27.3737 1135.19,-21.925 1135.19,-21.925"/>
</g>
<!-- v4&#45;&gt;v19 -->
<g id="edge17" class="edge"><title>v4&#45;&gt;v19</title>
<path fill="none" stroke="black" d="M1158.82,-58.5004C1167.31,-49.3543 1180.23,-35.4415 1189.73,-25.2165"/>
<polygon fill="black" stroke="black" points="1193.31,-21.3593 1191.56,-26.5544 1191.61,-23.1913 1189.91,-25.0233 1189.91,-25.0233 1189.91,-25.0233 1191.61,-23.1913 1188.26,-23.4923 1193.31,-21.3593 1193.31,-21.3593"/>
</g>
<!-- v7&#45;&gt;v10 -->
<g id="edge18" class="edge"><title>v7&#45;&gt;v10</title>
<path fill="none" stroke="black" d="M112.464,-57.9883C112.009,-49.4941 111.348,-37.1697 110.826,-27.4169"/>
<polygon fill="black" stroke="black" points="110.552,-22.3039 113.066,-27.1763 110.686,-24.8003 110.82,-27.2967 110.82,-27.2967 110.82,-27.2967 110.686,-24.8003 108.573,-27.4171 110.552,-22.3039 110.552,-22.3039"/>
</g>
<!-- v7&#45;&gt;v11 -->
<g id="edge19" class="edge"><title>v7&#45;&gt;v11</title>
<path fill="none" stroke="black" d="M123.156,-59.25C133.935,-49.9638 151.069,-35.2025 163.316,-24.6504"/>
<polygon fill="black" stroke="black" points="167.267,-21.2473 164.947,-26.2155 165.373,-22.8791 163.479,-24.5108 163.479,-24.5108 163.479,-24.5108 165.373,-22.8791 162.01,-22.8062 167.267,-21.2473 167.267,-21.2473"/>
</g>
<!-- v7&#45;&gt;v12 -->
<g id="edge20" class="edge"><title>v7&#45;&gt;v12</title>
<path fill="none" stroke="black" d="M128.779,-61.3562C152.488,-51.3736 197.373,-32.4747 224.195,-21.1809"/>
<polygon fill="black" stroke="black" points="228.984,-19.1645 225.249,-23.1785 226.68,-20.1346 224.376,-21.1048 224.376,-21.1048 224.376,-21.1048 226.68,-20.1346 223.503,-19.0311 228.984,-19.1645 228.984,-19.1645"/>
</g>
<!-- v8&#45;&gt;v10 -->
<g id="edge21" class="edge"><title>v8&#45;&gt;v10</title>
<path fill="none" stroke="black" d="M164,-59.25C153.387,-49.9638 136.517,-35.2025 124.458,-24.6504"/>
<polygon fill="black" stroke="black" points="120.568,-21.2473 125.813,-22.8465 122.45,-22.8935 124.331,-24.5398 124.331,-24.5398 124.331,-24.5398 122.45,-22.8935 122.85,-26.2331 120.568,-21.2473 120.568,-21.2473"/>
</g>
<!-- v8&#45;&gt;v11 -->
<g id="edge22" class="edge"><title>v8&#45;&gt;v11</title>
<path fill="none" stroke="black" d="M174.715,-57.9883C175.322,-49.4941 176.202,-37.1697 176.899,-27.4169"/>
<polygon fill="black" stroke="black" points="177.264,-22.3039 179.152,-27.4515 177.086,-24.7975 176.908,-27.2912 176.908,-27.2912 176.908,-27.2912 177.086,-24.7975 174.663,-27.1308 177.264,-22.3039 177.264,-22.3039"/>
</g>
<!-- v8&#45;&gt;v12 -->
<g id="edge23" class="edge"><title>v8&#45;&gt;v12</title>
<path fill="none" stroke="black" d="M184.935,-59.4948C197.057,-50.067 216.705,-34.7854 230.43,-24.1101"/>
<polygon fill="black" stroke="black" points="234.484,-20.9566 231.919,-25.8024 232.511,-22.4915 230.538,-24.0264 230.538,-24.0264 230.538,-24.0264 232.511,-22.4915 229.156,-22.2503 234.484,-20.9566 234.484,-20.9566"/>
</g>
<!-- v9&#45;&gt;v10 -->
<g id="edge24" class="edge"><title>v9&#45;&gt;v10</title>
<path fill="none" stroke="black" d="M219.673,-61.1333C197.548,-51.2214 156.568,-32.8624 131.449,-21.6093"/>
<polygon fill="black" stroke="black" points="126.647,-19.4581 132.13,-19.449 128.929,-20.4802 131.211,-21.5024 131.211,-21.5024 131.211,-21.5024 128.929,-20.4802 130.291,-23.5557 126.647,-19.4581 126.647,-19.4581"/>
</g>
<!-- v9&#45;&gt;v11 -->
<g id="edge25" class="edge"><title>v9&#45;&gt;v11</title>
<path fill="none" stroke="black" d="M225.842,-59.0026C216.537,-49.8606 202.023,-35.6014 191.42,-25.1846"/>
<polygon fill="black" stroke="black" points="187.708,-21.5373 192.851,-23.4364 189.491,-23.2894 191.274,-25.0414 191.274,-25.0414 191.274,-25.0414 189.491,-23.2894 189.697,-26.6465 187.708,-21.5373 187.708,-21.5373"/>
</g>
<!-- v9&#45;&gt;v12 -->
<g id="edge26" class="edge"><title>v9&#45;&gt;v12</title>
<path fill="none" stroke="black" d="M236.967,-57.9883C238.635,-49.4941 241.056,-37.1697 242.972,-27.4169"/>
<polygon fill="black" stroke="black" points="243.976,-22.3039 245.22,-27.6438 243.494,-24.757 243.012,-27.2101 243.012,-27.2101 243.012,-27.2101 243.494,-24.757 240.804,-26.7764 243.976,-22.3039 243.976,-22.3039"/>
</g>
<!-- v13&#45;&gt;v14 -->
<g id="edge27" class="edge"><title>v13&#45;&gt;v14</title>
<path fill="none" stroke="black" d="M1043.89,-57.9883C1044.65,-49.4941 1045.75,-37.1697 1046.62,-27.4169"/>
<polygon fill="black" stroke="black" points="1047.08,-22.3039 1048.88,-27.4842 1046.86,-24.794 1046.64,-27.2841 1046.64,-27.2841 1046.64,-27.2841 1046.86,-24.794 1044.39,-27.0839 1047.08,-22.3039 1047.08,-22.3039"/>
</g>
<!-- v15&#45;&gt;v16 -->
<g id="edge28" class="edge"><title>v15&#45;&gt;v16</title>
<path fill="none" stroke="black" d="M642.182,-60.7936C613.308,-50.2938 559.857,-30.857 529.867,-19.9517"/>
<polygon fill="black" stroke="black" points="524.907,-18.1481 530.375,-17.7424 527.257,-19.0025 529.606,-19.8569 529.606,-19.8569 529.606,-19.8569 527.257,-19.0025 528.837,-21.9715 524.907,-18.1481 524.907,-18.1481"/>
</g>
<!-- v17 -->
<g id="v17_Impala" class="node"><title>v17</title>
<ellipse fill="none" stroke="black" cx="662" cy="-11" rx="29" ry="11"/>
<text text-anchor="middle" x="662" y="-8.8" font-family="sans-serif" font-size="9.00">Impala</text>
</g>
<!-- v15&#45;&gt;v17 -->
<g id="edge29" class="edge"><title>v15&#45;&gt;v17</title>
<path fill="none" stroke="black" d="M662,-57.9883C662,-49.4941 662,-37.1697 662,-27.4169"/>
<polygon fill="black" stroke="black" points="662,-22.3039 664.25,-27.3038 662,-24.8039 662,-27.3039 662,-27.3039 662,-27.3039 662,-24.8039 659.75,-27.3039 662,-22.3039 662,-22.3039"/>
</g>
<!-- v15&#45;&gt;v20 -->
<g id="edge50" class="edge"><title>v15&#45;&gt;v20</title>
<path fill="none" stroke="green" d="M649.453,-79.2134C640.255,-86.0113 627.13,-94.3414 614,-98 552.948,-115.011 478.019,-91.3972 442.521,-77.6521"/>
</g>
<!-- v22 -->
<g id="v22_GPS(0)" class="node"><title>v22</title>
<ellipse fill="none" stroke="black" cx="437" cy="-11" rx="29" ry="11"/>
<text text-anchor="middle" x="437" y="-8.8" font-family="sans-serif" font-size="9.00">GPS(0)</text>
</g>
<!-- v17&#45;&gt;v22 -->
<g id="edge51" class="edge"><title>v17&#45;&gt;v22</title>
<path fill="none" stroke="green" d="M648.13,-20.9377C637.666,-27.7945 622.654,-36.314 608,-40 555.416,-53.2265 538.298,-54.3163 486,-40 472.652,-36.346 459.249,-28.0155 449.843,-21.2162"/>
</g>
<!-- v20&#45;&gt;v21 -->
<g id="edge30" class="edge"><title>v20&#45;&gt;v21</title>
<path fill="none" stroke="black" d="M411.652,-58.5004C401.601,-49.2734 386.266,-35.1949 375.102,-24.9459"/>
<polygon fill="black" stroke="black" points="371.195,-21.3593 376.4,-23.0833 373.037,-23.05 374.878,-24.7407 374.878,-24.7407 374.878,-24.7407 373.037,-23.05 373.357,-26.3982 371.195,-21.3593 371.195,-21.3593"/>
</g>
<!-- v20&#45;&gt;v22 -->
<g id="edge31" class="edge"><title>v20&#45;&gt;v22</title>
<path fill="none" stroke="black" d="M424.682,-57.9883C426.978,-49.4154 430.319,-36.9411 432.943,-27.1466"/>
<polygon fill="black" stroke="black" points="434.24,-22.3039 435.12,-27.7158 433.593,-24.7187 432.946,-27.1336 432.946,-27.1336 432.946,-27.1336 433.593,-24.7187 430.773,-26.5514 434.24,-22.3039 434.24,-22.3039"/>
</g>
</g>
</svg>
