<?xml version="1.0" encoding="UTF-8" standalone="no"?>
<?xml-stylesheet href="style.css" type="text/css"?>
<!DOCTYPE svg PUBLIC "-//W3C//DTD SVG 1.1//EN"
 "http://www.w3.org/Graphics/SVG/1.1/DTD/svg11.dtd">
<!-- Generated by graphviz version 2.38.0 (20140413.2041)
 -->
<!-- Title: 32.svg Pages: 1 -->
<svg width="1225pt" height="179pt"
 viewBox="0.00 0.00 1225.00 179.00" xmlns="http://www.w3.org/2000/svg" xmlns:xlink="http://www.w3.org/1999/xlink">
<g id="graph0" class="graph" transform="scale(1 1) rotate(0) translate(4 175)">
<title>32.svg</title>
<polygon fill="white" stroke="none" points="-4,4 -4,-175 1221,-175 1221,4 -4,4"/>
<!-- r0 -->
<g id="node1" class="node"><title>r0</title>
<polygon fill="none" stroke="black" stroke-dasharray="5,2" points="185.5,-171 162.5,-171 162.5,-153 185.5,-153 185.5,-171"/>
<text text-anchor="middle" x="174" y="-159.8" font-family="serif" font-size="9.00">0</text>
</g>
<!-- v6 -->
<g id="v6_Field" class="node"><title>v6</title>
<ellipse fill="none" stroke="black" cx="25" cy="-11" rx="25" ry="11"/>
<text text-anchor="middle" x="25" y="-8.8" font-family="sans-serif" font-size="9.00">Field</text>
</g>
<!-- r0&#45;&gt;v6 -->
<g id="edge1" class="edge"><title>r0&#45;&gt;v6</title>
<path fill="none" stroke="black" d="M162.222,-152.862C142.816,-139.14 103.443,-109.953 75,-80 58.8635,-63.0068 43.3756,-40.7082 34.0231,-26.3641"/>
<polygon fill="black" stroke="black" points="31.0945,-21.8237 35.6956,-24.8059 32.4496,-23.9246 33.8047,-26.0255 33.8047,-26.0255 33.8047,-26.0255 32.4496,-23.9246 31.9139,-27.2451 31.0945,-21.8237 31.0945,-21.8237"/>
</g>
<!-- v7 -->
<g id="v7_Aura" class="node"><title>v7</title>
<ellipse fill="none" stroke="black" cx="113" cy="-69" rx="21.5" ry="11"/>
<text text-anchor="middle" x="113" y="-66.8" font-family="sans-serif" font-size="9.00">Aura</text>
</g>
<!-- r0&#45;&gt;v7 -->
<g id="edge2" class="edge"><title>r0&#45;&gt;v7</title>
<path fill="none" stroke="black" d="M165.157,-152.911C156.404,-144.557 143.038,-130.826 134,-117 127.42,-106.935 121.956,-94.4673 118.252,-84.9025"/>
<polygon fill="black" stroke="black" points="116.479,-80.1934 120.347,-84.08 117.36,-82.5331 118.241,-84.8728 118.241,-84.8728 118.241,-84.8728 117.36,-82.5331 116.135,-85.6656 116.479,-80.1934 116.479,-80.1934"/>
</g>
<!-- v8 -->
<g id="v8_Aura" class="node"><title>v8</title>
<ellipse fill="none" stroke="black" cx="274" cy="-69" rx="21.5" ry="11"/>
<text text-anchor="middle" x="274" y="-66.8" font-family="sans-serif" font-size="9.00">Aura</text>
</g>
<!-- r0&#45;&gt;v8 -->
<g id="edge3" class="edge"><title>r0&#45;&gt;v8</title>
<path fill="none" stroke="black" d="M185.666,-154.507C199.146,-146.675 221.576,-132.601 238,-117 248.469,-107.055 258.289,-93.8714 265.02,-83.9982"/>
<polygon fill="black" stroke="black" points="267.886,-79.7184 266.973,-85.1249 266.495,-81.7956 265.104,-83.8728 265.104,-83.8728 265.104,-83.8728 266.495,-81.7956 263.234,-82.6207 267.886,-79.7184 267.886,-79.7184"/>
</g>
<!-- v9 -->
<g id="v9_Aura" class="node"><title>v9</title>
<ellipse fill="none" stroke="black" cx="174" cy="-69" rx="21.5" ry="11"/>
<text text-anchor="middle" x="174" y="-66.8" font-family="sans-serif" font-size="9.00">Aura</text>
</g>
<!-- r0&#45;&gt;v9 -->
<g id="edge4" class="edge"><title>r0&#45;&gt;v9</title>
<path fill="none" stroke="black" d="M174,-152.924C174,-137.736 174,-104.696 174,-85.2178"/>
<polygon fill="black" stroke="black" points="174,-80.1095 176.25,-85.1095 174,-82.6095 174,-85.1095 174,-85.1095 174,-85.1095 174,-82.6095 171.75,-85.1096 174,-80.1095 174,-80.1095"/>
</g>
<!-- v13 -->
<g id="v13_Aura" class="node"><title>v13</title>
<ellipse fill="none" stroke="black" cx="1005" cy="-69" rx="21.5" ry="11"/>
<text text-anchor="middle" x="1005" y="-66.8" font-family="sans-serif" font-size="9.00">Aura</text>
</g>
<!-- r0&#45;&gt;v13 -->
<g id="edge5" class="edge"><title>r0&#45;&gt;v13</title>
<path fill="none" stroke="black" d="M185.689,-160.132C240.808,-156.008 480.248,-137.724 676,-117 808.72,-102.949 843.691,-108.837 974,-80 977.044,-79.3264 980.214,-78.4793 983.315,-77.5645"/>
<polygon fill="black" stroke="black" points="988.104,-76.0866 983.99,-79.7112 985.715,-76.8239 983.326,-77.5613 983.326,-77.5613 983.326,-77.5613 985.715,-76.8239 982.662,-75.4113 988.104,-76.0866 988.104,-76.0866"/>
</g>
<!-- r1 -->
<g id="node2" class="node"><title>r1</title>
<polygon fill="none" stroke="black" stroke-dasharray="5,2" points="947.5,-171 924.5,-171 924.5,-153 947.5,-153 947.5,-171"/>
<text text-anchor="middle" x="936" y="-159.8" font-family="serif" font-size="9.00">1</text>
</g>
<!-- v3 -->
<g id="v3_Locale" class="node"><title>v3</title>
<ellipse fill="none" stroke="black" cx="936" cy="-69" rx="29" ry="11"/>
<text text-anchor="middle" x="936" y="-66.8" font-family="sans-serif" font-size="9.00">Locale</text>
</g>
<!-- r1&#45;&gt;v3 -->
<g id="edge6" class="edge"><title>r1&#45;&gt;v3</title>
<path fill="none" stroke="black" d="M936,-152.924C936,-137.736 936,-104.696 936,-85.2178"/>
<polygon fill="black" stroke="black" points="936,-80.1095 938.25,-85.1095 936,-82.6095 936,-85.1095 936,-85.1095 936,-85.1095 936,-82.6095 933.75,-85.1096 936,-80.1095 936,-80.1095"/>
</g>
<!-- v4 -->
<g id="v4_Locale" class="node"><title>v4</title>
<ellipse fill="none" stroke="black" cx="617" cy="-69" rx="29" ry="11"/>
<text text-anchor="middle" x="617" y="-66.8" font-family="sans-serif" font-size="9.00">Locale</text>
</g>
<!-- r1&#45;&gt;v4 -->
<g id="edge7" class="edge"><title>r1&#45;&gt;v4</title>
<path fill="none" stroke="black" d="M924.431,-160.244C877.849,-157.038 704.262,-143.502 657,-117 643.425,-109.388 632.378,-95.2835 625.36,-84.5044"/>
<polygon fill="black" stroke="black" points="622.603,-80.117 627.168,-83.1536 623.933,-82.2338 625.263,-84.3507 625.263,-84.3507 625.263,-84.3507 623.933,-82.2338 623.358,-85.5477 622.603,-80.117 622.603,-80.117"/>
</g>
<!-- v18 -->
<g id="v18_Locale" class="node"><title>v18</title>
<ellipse fill="none" stroke="black" cx="1188" cy="-69" rx="29" ry="11"/>
<text text-anchor="middle" x="1188" y="-66.8" font-family="sans-serif" font-size="9.00">Locale</text>
</g>
<!-- r1&#45;&gt;v18 -->
<g id="edge8" class="edge"><title>r1&#45;&gt;v18</title>
<path fill="none" stroke="black" d="M947.604,-158.078C972.66,-151.648 1033.56,-135.376 1083,-117 1112.76,-105.938 1146.05,-90.49 1167.01,-80.3692"/>
<polygon fill="black" stroke="black" points="1171.55,-78.1685 1168.03,-82.3751 1169.3,-79.2596 1167.05,-80.3507 1167.05,-80.3507 1167.05,-80.3507 1169.3,-79.2596 1166.07,-78.3263 1171.55,-78.1685 1171.55,-78.1685"/>
</g>
<!-- r2 -->
<g id="node3" class="node"><title>r2</title>
<polygon fill="none" stroke="black" stroke-dasharray="5,2" points="784.5,-171 761.5,-171 761.5,-153 784.5,-153 784.5,-171"/>
<text text-anchor="middle" x="773" y="-159.8" font-family="serif" font-size="9.00">2</text>
</g>
<!-- v0 -->
<g id="v0_Area(1)" class="node"><title>v0</title>
<ellipse fill="none" stroke="black" cx="773" cy="-69" rx="32.5" ry="11"/>
<text text-anchor="middle" x="773" y="-66.8" font-family="sans-serif" font-size="9.00">Area(1)</text>
</g>
<!-- r2&#45;&gt;v0 -->
<g id="edge9" class="edge"><title>r2&#45;&gt;v0</title>
<path fill="none" stroke="black" d="M773,-152.924C773,-137.736 773,-104.696 773,-85.2178"/>
<polygon fill="black" stroke="black" points="773,-80.1095 775.25,-85.1095 773,-82.6095 773,-85.1095 773,-85.1095 773,-85.1095 773,-82.6095 770.75,-85.1096 773,-80.1095 773,-80.1095"/>
</g>
<!-- v1 -->
<g id="v1_Area(0)" class="node"><title>v1</title>
<ellipse fill="none" stroke="black" cx="461" cy="-69" rx="32.5" ry="11"/>
<text text-anchor="middle" x="461" y="-66.8" font-family="sans-serif" font-size="9.00">Area(0)</text>
</g>
<!-- r2&#45;&gt;v1 -->
<g id="edge10" class="edge"><title>r2&#45;&gt;v1</title>
<path fill="none" stroke="black" d="M761.492,-158.071C734.782,-151.233 666.546,-133.542 610,-117 567.179,-104.473 517.873,-88.6406 488.093,-78.922"/>
<polygon fill="black" stroke="black" points="483.126,-77.2985 488.578,-76.7132 485.502,-78.0752 487.879,-78.8519 487.879,-78.8519 487.879,-78.8519 485.502,-78.0752 487.18,-80.9905 483.126,-77.2985 483.126,-77.2985"/>
</g>
<!-- v23 -->
<g id="v23_Area(2)" class="node"><title>v23</title>
<ellipse fill="none" stroke="black" cx="856" cy="-69" rx="32.5" ry="11"/>
<text text-anchor="middle" x="856" y="-66.8" font-family="sans-serif" font-size="9.00">Area(2)</text>
</g>
<!-- r2&#45;&gt;v23 -->
<g id="edge11" class="edge"><title>r2&#45;&gt;v23</title>
<path fill="none" stroke="black" d="M780.366,-152.924C794.529,-137.395 825.713,-103.206 843.296,-83.9285"/>
<polygon fill="black" stroke="black" points="847.039,-79.8251 845.332,-85.0355 845.354,-81.6722 843.669,-83.5193 843.669,-83.5193 843.669,-83.5193 845.354,-81.6722 842.007,-82.003 847.039,-79.8251 847.039,-79.8251"/>
</g>
<!-- e2 -->
<g id="node4" class="node"><title>e2</title>
</g>
<!-- v2 -->
<g id="v2_GPS(6)" class="node"><title>v2</title>
<ellipse fill="none" stroke="black" cx="400" cy="-11" rx="29" ry="11"/>
<text text-anchor="middle" x="400" y="-8.8" font-family="sans-serif" font-size="9.00">GPS(6)</text>
</g>
<!-- e2&#45;&gt;v2 -->
<g id="edge34" class="edge"><title>e2&#45;&gt;v2</title>
<path fill="none" stroke="green" d="M229,-116C229,-116 295.193,-107.757 338,-80 362.397,-64.181 383.441,-36.4853 393.569,-21.7954"/>
</g>
<!-- v5 -->
<g id="v5_Lion" class="node"><title>v5</title>
<ellipse fill="none" stroke="black" cx="606" cy="-11" rx="21.5" ry="11"/>
<text text-anchor="middle" x="606" y="-8.8" font-family="sans-serif" font-size="9.00">Lion</text>
</g>
<!-- e2&#45;&gt;v5 -->
<g id="edge35" class="edge"><title>e2&#45;&gt;v5</title>
<path fill="none" stroke="green" d="M229,-116C229,-116 473.965,-109.495 536,-80 564.155,-66.6138 587.999,-37.3413 599.185,-21.9345"/>
</g>
<!-- e2&#45;&gt;v9 -->
<g id="edge36" class="edge"><title>e2&#45;&gt;v9</title>
<path fill="none" stroke="green" d="M229,-116C229,-116 200.277,-91.9773 184.345,-78.6522"/>
</g>
<!-- v12 -->
<g id="v12_Child" class="node"><title>v12</title>
<ellipse fill="none" stroke="black" cx="182" cy="-11" rx="25" ry="11"/>
<text text-anchor="middle" x="182" y="-8.8" font-family="sans-serif" font-size="9.00">Child</text>
</g>
<!-- e2&#45;&gt;v12 -->
<g id="edge37" class="edge"><title>e2&#45;&gt;v12</title>
<path fill="none" stroke="green" d="M229,-116C229,-116 215.613,-83.5554 204,-58 198.287,-45.4275 191.367,-31.0962 186.833,-21.8183"/>
</g>
<!-- e3 -->
<g id="node5" class="node"><title>e3</title>
</g>
<!-- e3&#45;&gt;v7 -->
<g id="edge38" class="edge"><title>e3&#45;&gt;v7</title>
<path fill="none" stroke="green" d="M144,-116C144,-116 128.674,-93.2583 119.574,-79.7554"/>
</g>
<!-- v10 -->
<g id="v10_Child" class="node"><title>v10</title>
<ellipse fill="none" stroke="black" cx="113" cy="-11" rx="25" ry="11"/>
<text text-anchor="middle" x="113" y="-8.8" font-family="sans-serif" font-size="9.00">Child</text>
</g>
<!-- e3&#45;&gt;v10 -->
<g id="edge39" class="edge"><title>e3&#45;&gt;v10</title>
<path fill="none" stroke="green" d="M144,-116C144,-116 97.8979,-107.615 82,-80 70.4774,-59.9853 89.9657,-34.9283 102.911,-21.5172"/>
</g>
<!-- v15 -->
<g id="v15_Lion" class="node"><title>v15</title>
<ellipse fill="none" stroke="black" cx="545" cy="-11" rx="21.5" ry="11"/>
<text text-anchor="middle" x="545" y="-8.8" font-family="sans-serif" font-size="9.00">Lion</text>
</g>
<!-- e3&#45;&gt;v15 -->
<g id="edge40" class="edge"><title>e3&#45;&gt;v15</title>
<path fill="none" stroke="green" d="M144,-116C144,-116 467.992,-101.018 502,-80 523.862,-66.4882 536.512,-37.2707 541.897,-21.9047"/>
</g>
<!-- v20 -->
<g id="v20_GPS(1)" class="node"><title>v20</title>
<ellipse fill="none" stroke="black" cx="324" cy="-11" rx="29" ry="11"/>
<text text-anchor="middle" x="324" y="-8.8" font-family="sans-serif" font-size="9.00">GPS(1)</text>
</g>
<!-- e3&#45;&gt;v20 -->
<g id="edge41" class="edge"><title>e3&#45;&gt;v20</title>
<path fill="none" stroke="green" d="M144,-116C144,-116 277.409,-104.923 304,-80 320.161,-64.8526 323.483,-37.3881 324.032,-22.416"/>
</g>
<!-- e4 -->
<g id="node6" class="node"><title>e4</title>
</g>
<!-- e4&#45;&gt;v8 -->
<g id="edge42" class="edge"><title>e4&#45;&gt;v8</title>
<path fill="none" stroke="green" d="M667,-116C667,-116 375.439,-81.8732 294.576,-72.4084"/>
</g>
<!-- v11 -->
<g id="v11_Child" class="node"><title>v11</title>
<ellipse fill="none" stroke="black" cx="251" cy="-11" rx="25" ry="11"/>
<text text-anchor="middle" x="251" y="-8.8" font-family="sans-serif" font-size="9.00">Child</text>
</g>
<!-- e4&#45;&gt;v11 -->
<g id="edge43" class="edge"><title>e4&#45;&gt;v11</title>
<path fill="none" stroke="green" d="M667,-116C667,-116 526.508,-109.104 419,-80 360.989,-64.2956 296.023,-34.1725 266.773,-19.8881"/>
</g>
<!-- v17 -->
<g id="v17_Lion" class="node"><title>v17</title>
<ellipse fill="none" stroke="black" cx="884" cy="-11" rx="21.5" ry="11"/>
<text text-anchor="middle" x="884" y="-8.8" font-family="sans-serif" font-size="9.00">Lion</text>
</g>
<!-- e4&#45;&gt;v17 -->
<g id="edge44" class="edge"><title>e4&#45;&gt;v17</title>
<path fill="none" stroke="green" d="M667,-116C667,-116 697.576,-76.8789 731,-58 774.834,-33.2414 833.419,-20.4674 863.806,-15.1294"/>
</g>
<!-- v22 -->
<g id="v22_GPS(2)" class="node"><title>v22</title>
<ellipse fill="none" stroke="black" cx="762" cy="-11" rx="29" ry="11"/>
<text text-anchor="middle" x="762" y="-8.8" font-family="sans-serif" font-size="9.00">GPS(2)</text>
</g>
<!-- e4&#45;&gt;v22 -->
<g id="edge45" class="edge"><title>e4&#45;&gt;v22</title>
<path fill="none" stroke="green" d="M667,-116C667,-116 678.744,-79.9893 698,-58 711.973,-42.0439 732.487,-28.5464 746.5,-20.3797"/>
</g>
<!-- e5 -->
<g id="node7" class="node"><title>e5</title>
</g>
<!-- e5&#45;&gt;v13 -->
<g id="edge46" class="edge"><title>e5&#45;&gt;v13</title>
<path fill="none" stroke="green" d="M1074,-116C1074,-116 1037.18,-91.4551 1017.34,-78.2239"/>
</g>
<!-- v14 -->
<g id="v14_Child" class="node"><title>v14</title>
<ellipse fill="none" stroke="black" cx="1049" cy="-11" rx="25" ry="11"/>
<text text-anchor="middle" x="1049" y="-8.8" font-family="sans-serif" font-size="9.00">Child</text>
</g>
<!-- e5&#45;&gt;v14 -->
<g id="edge47" class="edge"><title>e5&#45;&gt;v14</title>
<path fill="none" stroke="green" d="M1074,-116C1074,-116 1075.35,-83.0814 1069,-58 1065.71,-44.9997 1059.14,-30.9941 1054.43,-21.8971"/>
</g>
<!-- v19 -->
<g id="v19_Lion" class="node"><title>v19</title>
<ellipse fill="none" stroke="black" cx="1159" cy="-11" rx="21.5" ry="11"/>
<text text-anchor="middle" x="1159" y="-8.8" font-family="sans-serif" font-size="9.00">Lion</text>
</g>
<!-- e5&#45;&gt;v19 -->
<g id="edge48" class="edge"><title>e5&#45;&gt;v19</title>
<path fill="none" stroke="green" d="M1074,-116C1074,-116 1130.11,-47.3438 1151.16,-21.5977"/>
</g>
<!-- v24 -->
<g id="v24_GPS(4)" class="node"><title>v24</title>
<ellipse fill="none" stroke="black" cx="969" cy="-11" rx="29" ry="11"/>
<text text-anchor="middle" x="969" y="-8.8" font-family="sans-serif" font-size="9.00">GPS(4)</text>
</g>
<!-- e5&#45;&gt;v24 -->
<g id="edge49" class="edge"><title>e5&#45;&gt;v24</title>
<path fill="none" stroke="green" d="M1074,-116C1074,-116 1056.78,-80.148 1035,-58 1019.72,-42.4652 998.556,-28.7819 984.351,-20.4622"/>
</g>
<!-- v0&#45;&gt;v3 -->
<g id="edge32" class="edge"><title>v0&#45;&gt;v3</title>
<path fill="none" stroke="green" d="M786.138,-79.2189C795.752,-86.0195 809.433,-94.3504 823,-98 850.897,-105.505 860.171,-105.754 888,-98 901.13,-94.3414 914.255,-86.0113 923.453,-79.2134"/>
</g>
<!-- v0&#45;&gt;v22 -->
<g id="edge12" class="edge"><title>v0&#45;&gt;v22</title>
<path fill="none" stroke="black" d="M771.033,-57.9883C769.365,-49.4941 766.944,-37.1697 765.028,-27.4169"/>
<polygon fill="black" stroke="black" points="764.024,-22.3039 767.196,-26.7764 764.506,-24.757 764.988,-27.2101 764.988,-27.2101 764.988,-27.2101 764.506,-24.757 762.78,-27.6438 764.024,-22.3039 764.024,-22.3039"/>
</g>
<!-- v1&#45;&gt;v2 -->
<g id="edge13" class="edge"><title>v1&#45;&gt;v2</title>
<path fill="none" stroke="black" d="M450.652,-58.5004C440.601,-49.2734 425.266,-35.1949 414.102,-24.9459"/>
<polygon fill="black" stroke="black" points="410.195,-21.3593 415.4,-23.0833 412.037,-23.05 413.878,-24.7407 413.878,-24.7407 413.878,-24.7407 412.037,-23.05 412.357,-26.3982 410.195,-21.3593 410.195,-21.3593"/>
</g>
<!-- v1&#45;&gt;v4 -->
<g id="edge33" class="edge"><title>v1&#45;&gt;v4</title>
<path fill="none" stroke="green" d="M493.602,-69C524.933,-69 556.265,-69 587.596,-69"/>
</g>
<!-- v1&#45;&gt;v20 -->
<g id="edge14" class="edge"><title>v1&#45;&gt;v20</title>
<path fill="none" stroke="black" d="M441.662,-60.0953C416.942,-49.9911 374.17,-32.5076 347.571,-21.6347"/>
<polygon fill="black" stroke="black" points="342.8,-19.6847 348.28,-19.4939 345.114,-20.6307 347.428,-21.5766 347.428,-21.5766 347.428,-21.5766 345.114,-20.6307 346.577,-23.6593 342.8,-19.6847 342.8,-19.6847"/>
</g>
<!-- v21 -->
<g id="v21_GPS(0)" class="node"><title>v21</title>
<ellipse fill="none" stroke="black" cx="476" cy="-11" rx="29" ry="11"/>
<text text-anchor="middle" x="476" y="-8.8" font-family="sans-serif" font-size="9.00">GPS(0)</text>
</g>
<!-- v1&#45;&gt;v21 -->
<g id="edge15" class="edge"><title>v1&#45;&gt;v21</title>
<path fill="none" stroke="black" d="M463.682,-57.9883C465.978,-49.4154 469.319,-36.9411 471.943,-27.1466"/>
<polygon fill="black" stroke="black" points="473.24,-22.3039 474.12,-27.7158 472.593,-24.7187 471.946,-27.1336 471.946,-27.1336 471.946,-27.1336 472.593,-24.7187 469.773,-26.5514 473.24,-22.3039 473.24,-22.3039"/>
</g>
<!-- v3&#45;&gt;v17 -->
<g id="edge16" class="edge"><title>v3&#45;&gt;v17</title>
<path fill="none" stroke="black" d="M927.179,-58.5004C918.686,-49.3543 905.767,-35.4415 896.272,-25.2165"/>
<polygon fill="black" stroke="black" points="892.691,-21.3593 897.742,-23.4923 894.392,-23.1913 896.093,-25.0233 896.093,-25.0233 896.093,-25.0233 894.392,-23.1913 894.444,-26.5544 892.691,-21.3593 892.691,-21.3593"/>
</g>
<!-- v4&#45;&gt;v5 -->
<g id="edge17" class="edge"><title>v4&#45;&gt;v5</title>
<path fill="none" stroke="black" d="M615.033,-57.9883C613.365,-49.4941 610.944,-37.1697 609.028,-27.4169"/>
<polygon fill="black" stroke="black" points="608.024,-22.3039 611.196,-26.7764 608.506,-24.757 608.988,-27.2101 608.988,-27.2101 608.988,-27.2101 608.506,-24.757 606.78,-27.6438 608.024,-22.3039 608.024,-22.3039"/>
</g>
<!-- v4&#45;&gt;v15 -->
<g id="edge18" class="edge"><title>v4&#45;&gt;v15</title>
<path fill="none" stroke="black" d="M605.111,-58.7527C592.804,-49.1807 573.539,-34.1972 560.149,-23.7822"/>
<polygon fill="black" stroke="black" points="556.196,-20.7077 561.524,-22.0014 558.169,-22.2426 560.142,-23.7775 560.142,-23.7775 560.142,-23.7775 558.169,-22.2426 558.761,-25.5535 556.196,-20.7077 556.196,-20.7077"/>
</g>
<!-- v16 -->
<g id="v16_Impala" class="node"><title>v16</title>
<ellipse fill="none" stroke="black" cx="675" cy="-11" rx="29" ry="11"/>
<text text-anchor="middle" x="675" y="-8.8" font-family="sans-serif" font-size="9.00">Impala</text>
</g>
<!-- v4&#45;&gt;v16 -->
<g id="edge19" class="edge"><title>v4&#45;&gt;v16</title>
<path fill="none" stroke="black" d="M626.839,-58.5004C636.28,-49.3846 650.626,-35.5334 661.206,-25.318"/>
<polygon fill="black" stroke="black" points="664.918,-21.7345 662.884,-26.8261 663.119,-23.471 661.321,-25.2075 661.321,-25.2075 661.321,-25.2075 663.119,-23.471 659.758,-23.5888 664.918,-21.7345 664.918,-21.7345"/>
</g>
<!-- v7&#45;&gt;v10 -->
<g id="edge20" class="edge"><title>v7&#45;&gt;v10</title>
<path fill="none" stroke="black" d="M113,-57.9883C113,-49.4941 113,-37.1697 113,-27.4169"/>
<polygon fill="black" stroke="black" points="113,-22.3039 115.25,-27.3038 113,-24.8039 113,-27.3039 113,-27.3039 113,-27.3039 113,-24.8039 110.75,-27.3039 113,-22.3039 113,-22.3039"/>
</g>
<!-- v7&#45;&gt;v11 -->
<g id="edge21" class="edge"><title>v7&#45;&gt;v11</title>
<path fill="none" stroke="black" d="M129.1,-61.4665C153.732,-51.4711 200.84,-32.3547 228.731,-21.0367"/>
<polygon fill="black" stroke="black" points="233.706,-19.0181 229.919,-22.9831 231.389,-19.9581 229.072,-20.8982 229.072,-20.8982 229.072,-20.8982 231.389,-19.9581 228.226,-18.8133 233.706,-19.0181 233.706,-19.0181"/>
</g>
<!-- v7&#45;&gt;v12 -->
<g id="edge22" class="edge"><title>v7&#45;&gt;v12</title>
<path fill="none" stroke="black" d="M123.781,-59.25C135.223,-49.9638 153.411,-35.2025 166.413,-24.6504"/>
<polygon fill="black" stroke="black" points="170.606,-21.2473 168.142,-26.1452 168.665,-22.8227 166.724,-24.3981 166.724,-24.3981 166.724,-24.3981 168.665,-22.8227 165.306,-22.6511 170.606,-21.2473 170.606,-21.2473"/>
</g>
<!-- v8&#45;&gt;v10 -->
<g id="edge23" class="edge"><title>v8&#45;&gt;v10</title>
<path fill="none" stroke="black" d="M257.074,-62.1129C228.26,-52.0904 169.608,-31.6898 136.719,-20.2501"/>
<polygon fill="black" stroke="black" points="131.67,-18.494 137.132,-18.0116 134.032,-19.3154 136.393,-20.1367 136.393,-20.1367 136.393,-20.1367 134.032,-19.3154 135.654,-22.2618 131.67,-18.494 131.67,-18.494"/>
</g>
<!-- v8&#45;&gt;v11 -->
<g id="edge24" class="edge"><title>v8&#45;&gt;v11</title>
<path fill="none" stroke="black" d="M269.888,-57.9883C266.323,-49.3083 261.115,-36.6286 257.071,-26.7806"/>
<polygon fill="black" stroke="black" points="255.076,-21.925 259.057,-25.6953 256.026,-24.2376 256.976,-26.5501 256.976,-26.5501 256.976,-26.5501 256.026,-24.2376 254.895,-27.405 255.076,-21.925 255.076,-21.925"/>
</g>
<!-- v8&#45;&gt;v12 -->
<g id="edge25" class="edge"><title>v8&#45;&gt;v12</title>
<path fill="none" stroke="black" d="M260.819,-59.9766C244.879,-50.2742 217.969,-33.8944 200.095,-23.0145"/>
<polygon fill="black" stroke="black" points="195.758,-20.3743 201.199,-21.0521 197.893,-21.6742 200.029,-22.9741 200.029,-22.9741 200.029,-22.9741 197.893,-21.6742 198.859,-24.896 195.758,-20.3743 195.758,-20.3743"/>
</g>
<!-- v9&#45;&gt;v10 -->
<g id="edge26" class="edge"><title>v9&#45;&gt;v10</title>
<path fill="none" stroke="black" d="M164.199,-59.0026C154.121,-49.7505 138.334,-35.2571 126.954,-24.8098"/>
<polygon fill="black" stroke="black" points="122.979,-21.1611 128.184,-22.885 124.821,-22.8518 126.662,-24.5425 126.662,-24.5425 126.662,-24.5425 124.821,-22.8518 125.141,-26.1999 122.979,-21.1611 122.979,-21.1611"/>
</g>
<!-- v9&#45;&gt;v11 -->
<g id="edge27" class="edge"><title>v9&#45;&gt;v11</title>
<path fill="none" stroke="black" d="M185.695,-59.4948C198.734,-50.0115 219.918,-34.6054 234.607,-23.9222"/>
<polygon fill="black" stroke="black" points="238.941,-20.7702 236.221,-25.5308 236.919,-22.2406 234.897,-23.7111 234.897,-23.7111 234.897,-23.7111 236.919,-22.2406 233.574,-21.8914 238.941,-20.7702 238.941,-20.7702"/>
</g>
<!-- v9&#45;&gt;v12 -->
<g id="edge28" class="edge"><title>v9&#45;&gt;v12</title>
<path fill="none" stroke="black" d="M175.43,-57.9883C176.644,-49.4941 178.404,-37.1697 179.798,-27.4169"/>
<polygon fill="black" stroke="black" points="180.528,-22.3039 182.048,-27.5719 180.174,-24.7787 179.821,-27.2536 179.821,-27.2536 179.821,-27.2536 180.174,-24.7787 177.593,-26.9354 180.528,-22.3039 180.528,-22.3039"/>
</g>
<!-- v13&#45;&gt;v14 -->
<g id="edge29" class="edge"><title>v13&#45;&gt;v14</title>
<path fill="none" stroke="black" d="M1012.46,-58.5004C1019.5,-49.5445 1030.13,-36.018 1038.11,-25.859"/>
<polygon fill="black" stroke="black" points="1041.35,-21.7345 1040.03,-27.0562 1039.81,-23.7003 1038.26,-25.6661 1038.26,-25.6661 1038.26,-25.6661 1039.81,-23.7003 1036.49,-24.276 1041.35,-21.7345 1041.35,-21.7345"/>
</g>
<!-- v16&#45;&gt;v21 -->
<g id="edge50" class="edge"><title>v16&#45;&gt;v21</title>
<path fill="none" stroke="green" d="M662.453,-21.2134C653.255,-28.0113 640.13,-36.3414 627,-40 582.474,-52.4064 567.468,-52.6147 523,-40 510.086,-36.3366 497.241,-28.007 488.251,-21.2104"/>
</g>
<!-- v18&#45;&gt;v19 -->
<g id="edge30" class="edge"><title>v18&#45;&gt;v19</title>
<path fill="none" stroke="black" d="M1182.82,-57.9883C1178.28,-49.2286 1171.63,-36.3956 1166.51,-26.5103"/>
<polygon fill="black" stroke="black" points="1164.14,-21.925 1168.44,-25.3303 1165.29,-24.145 1166.44,-26.365 1166.44,-26.365 1166.44,-26.365 1165.29,-24.145 1164.44,-27.3997 1164.14,-21.925 1164.14,-21.925"/>
</g>
<!-- v18&#45;&gt;v23 -->
<g id="edge51" class="edge"><title>v18&#45;&gt;v23</title>
<path fill="none" stroke="green" d="M1174.7,-78.9333C1164.65,-85.7878 1150.21,-94.3065 1136,-98 1086.75,-110.805 956.198,-111.01 907,-98 893.214,-94.3546 879.254,-86.0232 869.433,-79.2214"/>
</g>
<!-- v23&#45;&gt;v24 -->
<g id="edge31" class="edge"><title>v23&#45;&gt;v24</title>
<path fill="none" stroke="black" d="M873.162,-59.4948C893.137,-49.5956 926.136,-33.2426 947.722,-22.5447"/>
<polygon fill="black" stroke="black" points="952.414,-20.2198 948.933,-24.456 950.174,-21.3299 947.934,-22.44 947.934,-22.44 947.934,-22.44 950.174,-21.3299 946.935,-20.424 952.414,-20.2198 952.414,-20.2198"/>
</g>
</g>
</svg>
