<?xml version="1.0" encoding="UTF-8" standalone="no"?>
<?xml-stylesheet href="style.css" type="text/css"?>
<!DOCTYPE svg PUBLIC "-//W3C//DTD SVG 1.1//EN"
 "http://www.w3.org/Graphics/SVG/1.1/DTD/svg11.dtd">
<!-- Generated by graphviz version 2.38.0 (20140413.2041)
 -->
<!-- Title: 33.svg Pages: 1 -->
<svg width="1225pt" height="179pt"
 viewBox="0.00 0.00 1225.00 179.00" xmlns="http://www.w3.org/2000/svg" xmlns:xlink="http://www.w3.org/1999/xlink">
<g id="graph0" class="graph" transform="scale(1 1) rotate(0) translate(4 175)">
<title>33.svg</title>
<polygon fill="white" stroke="none" points="-4,4 -4,-175 1221,-175 1221,4 -4,4"/>
<!-- r0 -->
<g id="node1" class="node"><title>r0</title>
<polygon fill="none" stroke="black" stroke-dasharray="5,2" points="185.5,-171 162.5,-171 162.5,-153 185.5,-153 185.5,-171"/>
<text text-anchor="middle" x="174" y="-159.8" font-family="serif" font-size="9.00">0</text>
</g>
<!-- v6 -->
<g id="v6_Field" class="node"><title>v6</title>
<ellipse fill="none" stroke="black" cx="25" cy="-11" rx="25" ry="11"/>
<text text-anchor="middle" x="25" y="-8.8" font-family="sans-serif" font-size="9.00">Field</text>
</g>
<!-- r0&#45;&gt;v6 -->
<g id="edge1" class="edge"><title>r0&#45;&gt;v6</title>
<path fill="none" stroke="black" d="M162.376,-153.136C142.828,-139.588 102.698,-110.364 74,-80 58.0157,-63.0878 42.8801,-40.7689 33.7706,-26.3983"/>
<polygon fill="black" stroke="black" points="30.9198,-21.8488 35.4813,-24.891 32.2472,-23.9673 33.5747,-26.0858 33.5747,-26.0858 33.5747,-26.0858 32.2472,-23.9673 31.6681,-27.2805 30.9198,-21.8488 30.9198,-21.8488"/>
</g>
<!-- v7 -->
<g id="v7_Aura" class="node"><title>v7</title>
<ellipse fill="none" stroke="black" cx="174" cy="-69" rx="21.5" ry="11"/>
<text text-anchor="middle" x="174" y="-66.8" font-family="sans-serif" font-size="9.00">Aura</text>
</g>
<!-- r0&#45;&gt;v7 -->
<g id="edge2" class="edge"><title>r0&#45;&gt;v7</title>
<path fill="none" stroke="black" d="M174,-152.924C174,-137.736 174,-104.696 174,-85.2178"/>
<polygon fill="black" stroke="black" points="174,-80.1095 176.25,-85.1095 174,-82.6095 174,-85.1095 174,-85.1095 174,-85.1095 174,-82.6095 171.75,-85.1096 174,-80.1095 174,-80.1095"/>
</g>
<!-- v8 -->
<g id="v8_Aura" class="node"><title>v8</title>
<ellipse fill="none" stroke="black" cx="113" cy="-69" rx="21.5" ry="11"/>
<text text-anchor="middle" x="113" y="-66.8" font-family="sans-serif" font-size="9.00">Aura</text>
</g>
<!-- r0&#45;&gt;v8 -->
<g id="edge3" class="edge"><title>r0&#45;&gt;v8</title>
<path fill="none" stroke="black" d="M168.587,-152.924C158.211,-137.446 135.407,-103.427 122.463,-84.1163"/>
<polygon fill="black" stroke="black" points="119.398,-79.5439 124.051,-82.4443 120.79,-81.6205 122.182,-83.6971 122.182,-83.6971 122.182,-83.6971 120.79,-81.6205 120.313,-84.9499 119.398,-79.5439 119.398,-79.5439"/>
</g>
<!-- v9 -->
<g id="v9_Aura" class="node"><title>v9</title>
<ellipse fill="none" stroke="black" cx="274" cy="-69" rx="21.5" ry="11"/>
<text text-anchor="middle" x="274" y="-66.8" font-family="sans-serif" font-size="9.00">Aura</text>
</g>
<!-- r0&#45;&gt;v9 -->
<g id="edge4" class="edge"><title>r0&#45;&gt;v9</title>
<path fill="none" stroke="black" d="M182.874,-152.924C200.351,-137.02 239.337,-101.543 260.2,-82.5579"/>
<polygon fill="black" stroke="black" points="264.119,-78.9914 261.936,-84.0208 262.27,-80.6741 260.421,-82.3567 260.421,-82.3567 260.421,-82.3567 262.27,-80.6741 258.907,-80.6926 264.119,-78.9914 264.119,-78.9914"/>
</g>
<!-- v13 -->
<g id="v13_Aura" class="node"><title>v13</title>
<ellipse fill="none" stroke="black" cx="1005" cy="-69" rx="21.5" ry="11"/>
<text text-anchor="middle" x="1005" y="-66.8" font-family="sans-serif" font-size="9.00">Aura</text>
</g>
<!-- r0&#45;&gt;v13 -->
<g id="edge5" class="edge"><title>r0&#45;&gt;v13</title>
<path fill="none" stroke="black" d="M185.689,-160.132C240.808,-156.008 480.248,-137.724 676,-117 808.72,-102.949 843.691,-108.837 974,-80 977.044,-79.3264 980.214,-78.4793 983.315,-77.5645"/>
<polygon fill="black" stroke="black" points="988.104,-76.0866 983.99,-79.7112 985.715,-76.8239 983.326,-77.5613 983.326,-77.5613 983.326,-77.5613 985.715,-76.8239 982.662,-75.4113 988.104,-76.0866 988.104,-76.0866"/>
</g>
<!-- r1 -->
<g id="node2" class="node"><title>r1</title>
<polygon fill="none" stroke="black" stroke-dasharray="5,2" points="947.5,-171 924.5,-171 924.5,-153 947.5,-153 947.5,-171"/>
<text text-anchor="middle" x="936" y="-159.8" font-family="serif" font-size="9.00">1</text>
</g>
<!-- v3 -->
<g id="v3_Locale" class="node"><title>v3</title>
<ellipse fill="none" stroke="black" cx="936" cy="-69" rx="29" ry="11"/>
<text text-anchor="middle" x="936" y="-66.8" font-family="sans-serif" font-size="9.00">Locale</text>
</g>
<!-- r1&#45;&gt;v3 -->
<g id="edge6" class="edge"><title>r1&#45;&gt;v3</title>
<path fill="none" stroke="black" d="M936,-152.924C936,-137.736 936,-104.696 936,-85.2178"/>
<polygon fill="black" stroke="black" points="936,-80.1095 938.25,-85.1095 936,-82.6095 936,-85.1095 936,-85.1095 936,-85.1095 936,-82.6095 933.75,-85.1096 936,-80.1095 936,-80.1095"/>
</g>
<!-- v4 -->
<g id="v4_Locale" class="node"><title>v4</title>
<ellipse fill="none" stroke="black" cx="617" cy="-69" rx="29" ry="11"/>
<text text-anchor="middle" x="617" y="-66.8" font-family="sans-serif" font-size="9.00">Locale</text>
</g>
<!-- r1&#45;&gt;v4 -->
<g id="edge7" class="edge"><title>r1&#45;&gt;v4</title>
<path fill="none" stroke="black" d="M924.431,-160.244C877.849,-157.038 704.262,-143.502 657,-117 643.425,-109.388 632.378,-95.2835 625.36,-84.5044"/>
<polygon fill="black" stroke="black" points="622.603,-80.117 627.168,-83.1536 623.933,-82.2338 625.263,-84.3507 625.263,-84.3507 625.263,-84.3507 623.933,-82.2338 623.358,-85.5477 622.603,-80.117 622.603,-80.117"/>
</g>
<!-- v18 -->
<g id="v18_Locale" class="node"><title>v18</title>
<ellipse fill="none" stroke="black" cx="1188" cy="-69" rx="29" ry="11"/>
<text text-anchor="middle" x="1188" y="-66.8" font-family="sans-serif" font-size="9.00">Locale</text>
</g>
<!-- r1&#45;&gt;v18 -->
<g id="edge8" class="edge"><title>r1&#45;&gt;v18</title>
<path fill="none" stroke="black" d="M947.604,-158.078C972.66,-151.648 1033.56,-135.376 1083,-117 1112.76,-105.938 1146.05,-90.49 1167.01,-80.3692"/>
<polygon fill="black" stroke="black" points="1171.55,-78.1685 1168.03,-82.3751 1169.3,-79.2596 1167.05,-80.3507 1167.05,-80.3507 1167.05,-80.3507 1169.3,-79.2596 1166.07,-78.3263 1171.55,-78.1685 1171.55,-78.1685"/>
</g>
<!-- r2 -->
<g id="node3" class="node"><title>r2</title>
<polygon fill="none" stroke="black" stroke-dasharray="5,2" points="784.5,-171 761.5,-171 761.5,-153 784.5,-153 784.5,-171"/>
<text text-anchor="middle" x="773" y="-159.8" font-family="serif" font-size="9.00">2</text>
</g>
<!-- v0 -->
<g id="v0_Area(1)" class="node"><title>v0</title>
<ellipse fill="none" stroke="black" cx="773" cy="-69" rx="32.5" ry="11"/>
<text text-anchor="middle" x="773" y="-66.8" font-family="sans-serif" font-size="9.00">Area(1)</text>
</g>
<!-- r2&#45;&gt;v0 -->
<g id="edge9" class="edge"><title>r2&#45;&gt;v0</title>
<path fill="none" stroke="black" d="M773,-152.924C773,-137.736 773,-104.696 773,-85.2178"/>
<polygon fill="black" stroke="black" points="773,-80.1095 775.25,-85.1095 773,-82.6095 773,-85.1095 773,-85.1095 773,-85.1095 773,-82.6095 770.75,-85.1096 773,-80.1095 773,-80.1095"/>
</g>
<!-- v1 -->
<g id="v1_Area(0)" class="node"><title>v1</title>
<ellipse fill="none" stroke="black" cx="499" cy="-69" rx="32.5" ry="11"/>
<text text-anchor="middle" x="499" y="-66.8" font-family="sans-serif" font-size="9.00">Area(0)</text>
</g>
<!-- r2&#45;&gt;v1 -->
<g id="edge10" class="edge"><title>r2&#45;&gt;v1</title>
<path fill="none" stroke="black" d="M761.374,-158.44C734.417,-152.378 665.697,-136.208 610,-117 578.732,-106.217 543.765,-90.8342 521.584,-80.6412"/>
<polygon fill="black" stroke="black" points="516.777,-78.4218 522.26,-78.4753 519.047,-79.4699 521.317,-80.5181 521.317,-80.5181 521.317,-80.5181 519.047,-79.4699 520.373,-82.5608 516.777,-78.4218 516.777,-78.4218"/>
</g>
<!-- v23 -->
<g id="v23_Area(2)" class="node"><title>v23</title>
<ellipse fill="none" stroke="black" cx="856" cy="-69" rx="32.5" ry="11"/>
<text text-anchor="middle" x="856" y="-66.8" font-family="sans-serif" font-size="9.00">Area(2)</text>
</g>
<!-- r2&#45;&gt;v23 -->
<g id="edge11" class="edge"><title>r2&#45;&gt;v23</title>
<path fill="none" stroke="black" d="M780.366,-152.924C794.529,-137.395 825.713,-103.206 843.296,-83.9285"/>
<polygon fill="black" stroke="black" points="847.039,-79.8251 845.332,-85.0355 845.354,-81.6722 843.669,-83.5193 843.669,-83.5193 843.669,-83.5193 845.354,-81.6722 842.007,-82.003 847.039,-79.8251 847.039,-79.8251"/>
</g>
<!-- e2 -->
<g id="node4" class="node"><title>e2</title>
</g>
<!-- v2 -->
<g id="v2_GPS(8)" class="node"><title>v2</title>
<ellipse fill="none" stroke="black" cx="325" cy="-11" rx="29" ry="11"/>
<text text-anchor="middle" x="325" y="-8.8" font-family="sans-serif" font-size="9.00">GPS(8)</text>
</g>
<!-- e2&#45;&gt;v2 -->
<g id="edge34" class="edge"><title>e2&#45;&gt;v2</title>
<path fill="none" stroke="green" d="M213,-116C213,-116 274.454,-111.919 304,-80 319.108,-63.6788 323.352,-36.6911 324.541,-22.1056"/>
</g>
<!-- v5 -->
<g id="v5_Lion" class="node"><title>v5</title>
<ellipse fill="none" stroke="black" cx="554" cy="-11" rx="21.5" ry="11"/>
<text text-anchor="middle" x="554" y="-8.8" font-family="sans-serif" font-size="9.00">Lion</text>
</g>
<!-- e2&#45;&gt;v5 -->
<g id="edge35" class="edge"><title>e2&#45;&gt;v5</title>
<path fill="none" stroke="green" d="M213,-116C213,-116 385.596,-64.9905 523,-22 527.426,-20.6153 532.197,-19.0917 536.638,-17.6602"/>
</g>
<!-- e2&#45;&gt;v8 -->
<g id="edge36" class="edge"><title>e2&#45;&gt;v8</title>
<path fill="none" stroke="green" d="M213,-116C213,-116 156.163,-89.8548 128.188,-76.9864"/>
</g>
<!-- v11 -->
<g id="v11_Child" class="node"><title>v11</title>
<ellipse fill="none" stroke="black" cx="115" cy="-11" rx="25" ry="11"/>
<text text-anchor="middle" x="115" y="-8.8" font-family="sans-serif" font-size="9.00">Child</text>
</g>
<!-- e2&#45;&gt;v11 -->
<g id="edge37" class="edge"><title>e2&#45;&gt;v11</title>
<path fill="none" stroke="green" d="M213,-116C213,-116 100.302,-104.01 82,-80 67.6809,-61.2151 89.8127,-35.2283 104.216,-21.4542"/>
</g>
<!-- e3 -->
<g id="node5" class="node"><title>e3</title>
</g>
<!-- e3&#45;&gt;v7 -->
<g id="edge38" class="edge"><title>e3&#45;&gt;v7</title>
<path fill="none" stroke="green" d="M361,-116C361,-116 276.804,-97.2356 210,-80 204.096,-78.4767 197.674,-76.7239 191.91,-75.1154"/>
</g>
<!-- v10 -->
<g id="v10_Child" class="node"><title>v10</title>
<ellipse fill="none" stroke="black" cx="184" cy="-11" rx="25" ry="11"/>
<text text-anchor="middle" x="184" y="-8.8" font-family="sans-serif" font-size="9.00">Child</text>
</g>
<!-- e3&#45;&gt;v10 -->
<g id="edge39" class="edge"><title>e3&#45;&gt;v10</title>
<path fill="none" stroke="green" d="M361,-116C361,-116 288.98,-109.871 243,-80 219.146,-64.5029 199.389,-36.6714 189.96,-21.8761"/>
</g>
<!-- v15 -->
<g id="v15_Lion" class="node"><title>v15</title>
<ellipse fill="none" stroke="black" cx="615" cy="-11" rx="21.5" ry="11"/>
<text text-anchor="middle" x="615" y="-8.8" font-family="sans-serif" font-size="9.00">Lion</text>
</g>
<!-- e3&#45;&gt;v15 -->
<g id="edge40" class="edge"><title>e3&#45;&gt;v15</title>
<path fill="none" stroke="green" d="M361,-116C361,-116 467.558,-116.568 540,-80 568.87,-65.4266 594.984,-36.6735 607.39,-21.6527"/>
</g>
<!-- v20 -->
<g id="v20_GPS(1)" class="node"><title>v20</title>
<ellipse fill="none" stroke="black" cx="406" cy="-11" rx="29" ry="11"/>
<text text-anchor="middle" x="406" y="-8.8" font-family="sans-serif" font-size="9.00">GPS(1)</text>
</g>
<!-- e3&#45;&gt;v20 -->
<g id="edge41" class="edge"><title>e3&#45;&gt;v20</title>
<path fill="none" stroke="green" d="M361,-116C361,-116 390.422,-48.0023 401.685,-21.972"/>
</g>
<!-- e4 -->
<g id="node6" class="node"><title>e4</title>
</g>
<!-- e4&#45;&gt;v9 -->
<g id="edge42" class="edge"><title>e4&#45;&gt;v9</title>
<path fill="none" stroke="green" d="M667,-116C667,-116 375.439,-81.8732 294.576,-72.4084"/>
</g>
<!-- v12 -->
<g id="v12_Child" class="node"><title>v12</title>
<ellipse fill="none" stroke="black" cx="253" cy="-11" rx="25" ry="11"/>
<text text-anchor="middle" x="253" y="-8.8" font-family="sans-serif" font-size="9.00">Child</text>
</g>
<!-- e4&#45;&gt;v12 -->
<g id="edge43" class="edge"><title>e4&#45;&gt;v12</title>
<path fill="none" stroke="green" d="M667,-116C667,-116 548.849,-103.039 457,-80 386.751,-62.3792 305.82,-32.4139 270.74,-18.933"/>
</g>
<!-- v17 -->
<g id="v17_Lion" class="node"><title>v17</title>
<ellipse fill="none" stroke="black" cx="887" cy="-11" rx="21.5" ry="11"/>
<text text-anchor="middle" x="887" y="-8.8" font-family="sans-serif" font-size="9.00">Lion</text>
</g>
<!-- e4&#45;&gt;v17 -->
<g id="edge44" class="edge"><title>e4&#45;&gt;v17</title>
<path fill="none" stroke="green" d="M667,-116C667,-116 697.526,-76.7901 731,-58 775.936,-32.7762 836.084,-20.1382 866.918,-14.9605"/>
</g>
<!-- v22 -->
<g id="v22_GPS(3)" class="node"><title>v22</title>
<ellipse fill="none" stroke="black" cx="766" cy="-11" rx="29" ry="11"/>
<text text-anchor="middle" x="766" y="-8.8" font-family="sans-serif" font-size="9.00">GPS(3)</text>
</g>
<!-- e4&#45;&gt;v22 -->
<g id="edge45" class="edge"><title>e4&#45;&gt;v22</title>
<path fill="none" stroke="green" d="M667,-116C667,-116 678.433,-79.7133 698,-58 712.789,-41.5883 734.598,-28.1869 749.504,-20.1669"/>
</g>
<!-- e5 -->
<g id="node7" class="node"><title>e5</title>
</g>
<!-- e5&#45;&gt;v13 -->
<g id="edge46" class="edge"><title>e5&#45;&gt;v13</title>
<path fill="none" stroke="green" d="M1074,-116C1074,-116 1037.18,-91.4551 1017.34,-78.2239"/>
</g>
<!-- v14 -->
<g id="v14_Child" class="node"><title>v14</title>
<ellipse fill="none" stroke="black" cx="1049" cy="-11" rx="25" ry="11"/>
<text text-anchor="middle" x="1049" y="-8.8" font-family="sans-serif" font-size="9.00">Child</text>
</g>
<!-- e5&#45;&gt;v14 -->
<g id="edge47" class="edge"><title>e5&#45;&gt;v14</title>
<path fill="none" stroke="green" d="M1074,-116C1074,-116 1075.35,-83.0814 1069,-58 1065.71,-44.9997 1059.14,-30.9941 1054.43,-21.8971"/>
</g>
<!-- v19 -->
<g id="v19_Lion" class="node"><title>v19</title>
<ellipse fill="none" stroke="black" cx="1159" cy="-11" rx="21.5" ry="11"/>
<text text-anchor="middle" x="1159" y="-8.8" font-family="sans-serif" font-size="9.00">Lion</text>
</g>
<!-- e5&#45;&gt;v19 -->
<g id="edge48" class="edge"><title>e5&#45;&gt;v19</title>
<path fill="none" stroke="green" d="M1074,-116C1074,-116 1130.11,-47.3438 1151.16,-21.5977"/>
</g>
<!-- v24 -->
<g id="v24_GPS(4)" class="node"><title>v24</title>
<ellipse fill="none" stroke="black" cx="970" cy="-11" rx="29" ry="11"/>
<text text-anchor="middle" x="970" y="-8.8" font-family="sans-serif" font-size="9.00">GPS(4)</text>
</g>
<!-- e5&#45;&gt;v24 -->
<g id="edge49" class="edge"><title>e5&#45;&gt;v24</title>
<path fill="none" stroke="green" d="M1074,-116C1074,-116 1056.7,-80.2261 1035,-58 1019.93,-42.569 999.092,-28.863 985.109,-20.5097"/>
</g>
<!-- v0&#45;&gt;v3 -->
<g id="edge32" class="edge"><title>v0&#45;&gt;v3</title>
<path fill="none" stroke="green" d="M786.138,-79.2189C795.752,-86.0195 809.433,-94.3504 823,-98 850.897,-105.505 860.171,-105.754 888,-98 901.13,-94.3414 914.255,-86.0113 923.453,-79.2134"/>
</g>
<!-- v0&#45;&gt;v22 -->
<g id="edge12" class="edge"><title>v0&#45;&gt;v22</title>
<path fill="none" stroke="black" d="M771.749,-57.9883C770.687,-49.4941 769.146,-37.1697 767.927,-27.4169"/>
<polygon fill="black" stroke="black" points="767.288,-22.3039 770.141,-26.9861 767.598,-24.7846 767.908,-27.2653 767.908,-27.2653 767.908,-27.2653 767.598,-24.7846 765.676,-27.5444 767.288,-22.3039 767.288,-22.3039"/>
</g>
<!-- v1&#45;&gt;v2 -->
<g id="edge13" class="edge"><title>v1&#45;&gt;v2</title>
<path fill="none" stroke="black" d="M476.963,-60.9076C444.713,-50.5284 384.795,-31.2445 350.624,-20.2467"/>
<polygon fill="black" stroke="black" points="345.775,-18.6863 351.224,-18.0763 348.155,-19.4522 350.535,-20.2182 350.535,-20.2182 350.535,-20.2182 348.155,-19.4522 349.845,-22.36 345.775,-18.6863 345.775,-18.6863"/>
</g>
<!-- v1&#45;&gt;v4 -->
<g id="edge33" class="edge"><title>v1&#45;&gt;v4</title>
<path fill="none" stroke="green" d="M531.727,-69C550.38,-69 569.034,-69 587.687,-69"/>
</g>
<!-- v1&#45;&gt;v20 -->
<g id="edge14" class="edge"><title>v1&#45;&gt;v20</title>
<path fill="none" stroke="black" d="M484.058,-59.0026C468.007,-49.3374 442.457,-33.9526 424.991,-23.4356"/>
<polygon fill="black" stroke="black" points="420.294,-20.6072 425.738,-21.259 422.436,-21.8968 424.578,-23.1865 424.578,-23.1865 424.578,-23.1865 422.436,-21.8968 423.417,-25.114 420.294,-20.6072 420.294,-20.6072"/>
</g>
<!-- v21 -->
<g id="v21_GPS(0)" class="node"><title>v21</title>
<ellipse fill="none" stroke="black" cx="485" cy="-11" rx="29" ry="11"/>
<text text-anchor="middle" x="485" y="-8.8" font-family="sans-serif" font-size="9.00">GPS(0)</text>
</g>
<!-- v1&#45;&gt;v21 -->
<g id="edge15" class="edge"><title>v1&#45;&gt;v21</title>
<path fill="none" stroke="black" d="M496.497,-57.9883C494.374,-49.4941 491.292,-37.1697 488.854,-27.4169"/>
<polygon fill="black" stroke="black" points="487.576,-22.3039 490.972,-26.6089 488.182,-24.7292 488.789,-27.1546 488.789,-27.1546 488.789,-27.1546 488.182,-24.7292 486.606,-27.7003 487.576,-22.3039 487.576,-22.3039"/>
</g>
<!-- v3&#45;&gt;v17 -->
<g id="edge16" class="edge"><title>v3&#45;&gt;v17</title>
<path fill="none" stroke="black" d="M927.465,-58.2455C919.428,-49.061 907.333,-35.2372 898.459,-25.0955"/>
<polygon fill="black" stroke="black" points="895.112,-21.2708 900.098,-23.5521 896.758,-23.1523 898.405,-25.0337 898.405,-25.0337 898.405,-25.0337 896.758,-23.1523 896.711,-26.5154 895.112,-21.2708 895.112,-21.2708"/>
</g>
<!-- v4&#45;&gt;v5 -->
<g id="edge17" class="edge"><title>v4&#45;&gt;v5</title>
<path fill="none" stroke="black" d="M606.313,-58.5004C595.807,-49.1622 579.712,-34.8549 568.149,-24.5772"/>
<polygon fill="black" stroke="black" points="564.113,-20.9896 569.345,-22.6298 565.982,-22.6505 567.85,-24.3115 567.85,-24.3115 567.85,-24.3115 565.982,-22.6505 566.356,-25.9931 564.113,-20.9896 564.113,-20.9896"/>
</g>
<!-- v4&#45;&gt;v15 -->
<g id="edge18" class="edge"><title>v4&#45;&gt;v15</title>
<path fill="none" stroke="black" d="M616.642,-57.9883C616.339,-49.4941 615.899,-37.1697 615.551,-27.4169"/>
<polygon fill="black" stroke="black" points="615.368,-22.3039 617.795,-27.2203 615.457,-24.8023 615.547,-27.3007 615.547,-27.3007 615.547,-27.3007 615.457,-24.8023 613.298,-27.381 615.368,-22.3039 615.368,-22.3039"/>
</g>
<!-- v16 -->
<g id="v16_Impala" class="node"><title>v16</title>
<ellipse fill="none" stroke="black" cx="684" cy="-11" rx="29" ry="11"/>
<text text-anchor="middle" x="684" y="-8.8" font-family="sans-serif" font-size="9.00">Impala</text>
</g>
<!-- v4&#45;&gt;v16 -->
<g id="edge19" class="edge"><title>v4&#45;&gt;v16</title>
<path fill="none" stroke="black" d="M628.064,-58.7527C639.15,-49.4865 656.304,-35.149 668.693,-24.7941"/>
<polygon fill="black" stroke="black" points="672.696,-21.4482 670.302,-26.3812 670.778,-23.0515 668.86,-24.6548 668.86,-24.6548 668.86,-24.6548 670.778,-23.0515 667.417,-22.9284 672.696,-21.4482 672.696,-21.4482"/>
</g>
<!-- v7&#45;&gt;v10 -->
<g id="edge20" class="edge"><title>v7&#45;&gt;v10</title>
<path fill="none" stroke="black" d="M175.788,-57.9883C177.305,-49.4941 179.505,-37.1697 181.247,-27.4169"/>
<polygon fill="black" stroke="black" points="182.16,-22.3039 183.496,-27.6216 181.721,-24.7649 181.281,-27.226 181.281,-27.226 181.281,-27.226 181.721,-24.7649 179.066,-26.8305 182.16,-22.3039 182.16,-22.3039"/>
</g>
<!-- v7&#45;&gt;v11 -->
<g id="edge21" class="edge"><title>v7&#45;&gt;v11</title>
<path fill="none" stroke="black" d="M164.521,-59.0026C154.773,-49.7505 139.503,-35.2571 128.496,-24.8098"/>
<polygon fill="black" stroke="black" points="124.652,-21.1611 129.827,-22.9713 126.465,-22.8822 128.278,-24.6032 128.278,-24.6032 128.278,-24.6032 126.465,-22.8822 126.729,-26.2352 124.652,-21.1611 124.652,-21.1611"/>
</g>
<!-- v7&#45;&gt;v12 -->
<g id="edge22" class="edge"><title>v7&#45;&gt;v12</title>
<path fill="none" stroke="black" d="M185.657,-59.737C199.152,-50.1704 221.471,-34.3496 236.686,-23.5646"/>
<polygon fill="black" stroke="black" points="240.775,-20.6656 237.997,-25.3927 238.736,-22.1113 236.696,-23.5571 236.696,-23.5571 236.696,-23.5571 238.736,-22.1113 235.395,-21.7215 240.775,-20.6656 240.775,-20.6656"/>
</g>
<!-- v8&#45;&gt;v10 -->
<g id="edge23" class="edge"><title>v8&#45;&gt;v10</title>
<path fill="none" stroke="black" d="M124.094,-59.25C136.111,-49.7715 155.361,-34.5889 168.785,-24.0005"/>
<polygon fill="black" stroke="black" points="172.75,-20.8734 170.217,-25.7365 170.787,-22.4216 168.824,-23.9698 168.824,-23.9698 168.824,-23.9698 170.787,-22.4216 167.431,-22.2032 172.75,-20.8734 172.75,-20.8734"/>
</g>
<!-- v8&#45;&gt;v11 -->
<g id="edge24" class="edge"><title>v8&#45;&gt;v11</title>
<path fill="none" stroke="black" d="M113.358,-57.9883C113.661,-49.4941 114.101,-37.1697 114.449,-27.4169"/>
<polygon fill="black" stroke="black" points="114.632,-22.3039 116.702,-27.381 114.543,-24.8023 114.453,-27.3007 114.453,-27.3007 114.453,-27.3007 114.543,-24.8023 112.205,-27.2203 114.632,-22.3039 114.632,-22.3039"/>
</g>
<!-- v8&#45;&gt;v12 -->
<g id="edge25" class="edge"><title>v8&#45;&gt;v12</title>
<path fill="none" stroke="black" d="M129.06,-61.5761C154.045,-51.5819 202.294,-32.2822 230.66,-20.9359"/>
<polygon fill="black" stroke="black" points="235.375,-19.0499 231.569,-22.996 233.054,-19.9784 230.733,-20.9069 230.733,-20.9069 230.733,-20.9069 233.054,-19.9784 229.897,-18.8178 235.375,-19.0499 235.375,-19.0499"/>
</g>
<!-- v9&#45;&gt;v10 -->
<g id="edge26" class="edge"><title>v9&#45;&gt;v10</title>
<path fill="none" stroke="black" d="M261.105,-59.9766C245.644,-50.3564 219.633,-34.1716 202.148,-23.2923"/>
<polygon fill="black" stroke="black" points="197.459,-20.3743 202.893,-21.1055 199.581,-21.6951 201.704,-23.0159 201.704,-23.0159 201.704,-23.0159 199.581,-21.6951 200.515,-24.9262 197.459,-20.3743 197.459,-20.3743"/>
</g>
<!-- v9&#45;&gt;v11 -->
<g id="edge27" class="edge"><title>v9&#45;&gt;v11</title>
<path fill="none" stroke="black" d="M256.984,-62.007C228.468,-51.9634 170.975,-31.7145 138.58,-20.3048"/>
<polygon fill="black" stroke="black" points="133.604,-18.5524 139.068,-18.0913 135.962,-19.383 138.32,-20.2135 138.32,-20.2135 138.32,-20.2135 135.962,-19.383 137.573,-22.3357 133.604,-18.5524 133.604,-18.5524"/>
</g>
<!-- v9&#45;&gt;v12 -->
<g id="edge28" class="edge"><title>v9&#45;&gt;v12</title>
<path fill="none" stroke="black" d="M270.246,-57.9883C266.991,-49.3083 262.236,-36.6286 258.543,-26.7806"/>
<polygon fill="black" stroke="black" points="256.722,-21.925 260.584,-25.8166 257.6,-24.2658 258.478,-26.6067 258.478,-26.6067 258.478,-26.6067 257.6,-24.2658 256.371,-27.3967 256.722,-21.925 256.722,-21.925"/>
</g>
<!-- v13&#45;&gt;v14 -->
<g id="edge29" class="edge"><title>v13&#45;&gt;v14</title>
<path fill="none" stroke="black" d="M1012.46,-58.5004C1019.5,-49.5445 1030.13,-36.018 1038.11,-25.859"/>
<polygon fill="black" stroke="black" points="1041.35,-21.7345 1040.03,-27.0562 1039.81,-23.7003 1038.26,-25.6661 1038.26,-25.6661 1038.26,-25.6661 1039.81,-23.7003 1036.49,-24.276 1041.35,-21.7345 1041.35,-21.7345"/>
</g>
<!-- v16&#45;&gt;v21 -->
<g id="edge50" class="edge"><title>v16&#45;&gt;v21</title>
<path fill="none" stroke="green" d="M671.453,-21.2134C662.255,-28.0113 649.13,-36.3414 636,-40 591.474,-52.4064 576.468,-52.6147 532,-40 519.086,-36.3366 506.241,-28.007 497.251,-21.2104"/>
</g>
<!-- v18&#45;&gt;v19 -->
<g id="edge30" class="edge"><title>v18&#45;&gt;v19</title>
<path fill="none" stroke="black" d="M1182.82,-57.9883C1178.28,-49.2286 1171.63,-36.3956 1166.51,-26.5103"/>
<polygon fill="black" stroke="black" points="1164.14,-21.925 1168.44,-25.3303 1165.29,-24.145 1166.44,-26.365 1166.44,-26.365 1166.44,-26.365 1165.29,-24.145 1164.44,-27.3997 1164.14,-21.925 1164.14,-21.925"/>
</g>
<!-- v18&#45;&gt;v23 -->
<g id="edge51" class="edge"><title>v18&#45;&gt;v23</title>
<path fill="none" stroke="green" d="M1174.7,-78.9333C1164.65,-85.7878 1150.21,-94.3065 1136,-98 1086.75,-110.805 956.198,-111.01 907,-98 893.214,-94.3546 879.254,-86.0232 869.433,-79.2214"/>
</g>
<!-- v23&#45;&gt;v24 -->
<g id="edge31" class="edge"><title>v23&#45;&gt;v24</title>
<path fill="none" stroke="black" d="M873.314,-59.4948C893.466,-49.5956 926.756,-33.2426 948.534,-22.5447"/>
<polygon fill="black" stroke="black" points="953.267,-20.2198 949.771,-24.4438 951.023,-21.322 948.779,-22.4243 948.779,-22.4243 948.779,-22.4243 951.023,-21.322 947.787,-20.4048 953.267,-20.2198 953.267,-20.2198"/>
</g>
</g>
</svg>
