<?xml version="1.0" encoding="UTF-8" standalone="no"?>
<?xml-stylesheet href="style.css" type="text/css"?>
<!DOCTYPE svg PUBLIC "-//W3C//DTD SVG 1.1//EN"
 "http://www.w3.org/Graphics/SVG/1.1/DTD/svg11.dtd">
<!-- Generated by graphviz version 2.38.0 (20140413.2041)
 -->
<!-- Title: 57.svg Pages: 1 -->
<svg width="1269pt" height="179pt"
 viewBox="0.00 0.00 1269.00 179.00" xmlns="http://www.w3.org/2000/svg" xmlns:xlink="http://www.w3.org/1999/xlink">
<g id="graph0" class="graph" transform="scale(1 1) rotate(0) translate(4 175)">
<title>57.svg</title>
<polygon fill="white" stroke="none" points="-4,4 -4,-175 1265,-175 1265,4 -4,4"/>
<!-- r0 -->
<g id="node1" class="node"><title>r0</title>
<polygon fill="none" stroke="black" stroke-dasharray="5,2" points="185.5,-171 162.5,-171 162.5,-153 185.5,-153 185.5,-171"/>
<text text-anchor="middle" x="174" y="-159.8" font-family="serif" font-size="9.00">0</text>
</g>
<!-- v6 -->
<g id="v6_Aura" class="node"><title>v6</title>
<ellipse fill="none" stroke="black" cx="174" cy="-69" rx="21.5" ry="11"/>
<text text-anchor="middle" x="174" y="-66.8" font-family="sans-serif" font-size="9.00">Aura</text>
</g>
<!-- r0&#45;&gt;v6 -->
<g id="edge1" class="edge"><title>r0&#45;&gt;v6</title>
<path fill="none" stroke="black" d="M174,-152.924C174,-137.736 174,-104.696 174,-85.2178"/>
<polygon fill="black" stroke="black" points="174,-80.1095 176.25,-85.1095 174,-82.6095 174,-85.1095 174,-85.1095 174,-85.1095 174,-82.6095 171.75,-85.1096 174,-80.1095 174,-80.1095"/>
</g>
<!-- v7 -->
<g id="v7_Aura" class="node"><title>v7</title>
<ellipse fill="none" stroke="black" cx="235" cy="-69" rx="21.5" ry="11"/>
<text text-anchor="middle" x="235" y="-66.8" font-family="sans-serif" font-size="9.00">Aura</text>
</g>
<!-- r0&#45;&gt;v7 -->
<g id="edge2" class="edge"><title>r0&#45;&gt;v7</title>
<path fill="none" stroke="black" d="M179.413,-152.924C189.789,-137.446 212.593,-103.427 225.537,-84.1163"/>
<polygon fill="black" stroke="black" points="228.602,-79.5439 227.687,-84.9499 227.21,-81.6205 225.818,-83.6971 225.818,-83.6971 225.818,-83.6971 227.21,-81.6205 223.949,-82.4443 228.602,-79.5439 228.602,-79.5439"/>
</g>
<!-- v8 -->
<g id="v8_Aura" class="node"><title>v8</title>
<ellipse fill="none" stroke="black" cx="113" cy="-69" rx="21.5" ry="11"/>
<text text-anchor="middle" x="113" y="-66.8" font-family="sans-serif" font-size="9.00">Aura</text>
</g>
<!-- r0&#45;&gt;v8 -->
<g id="edge3" class="edge"><title>r0&#45;&gt;v8</title>
<path fill="none" stroke="black" d="M165.157,-152.911C156.404,-144.557 143.038,-130.826 134,-117 127.42,-106.935 121.956,-94.4673 118.252,-84.9025"/>
<polygon fill="black" stroke="black" points="116.479,-80.1934 120.347,-84.08 117.36,-82.5331 118.241,-84.8728 118.241,-84.8728 118.241,-84.8728 117.36,-82.5331 116.135,-85.6656 116.479,-80.1934 116.479,-80.1934"/>
</g>
<!-- v13 -->
<g id="v13_Field" class="node"><title>v13</title>
<ellipse fill="none" stroke="black" cx="25" cy="-11" rx="25" ry="11"/>
<text text-anchor="middle" x="25" y="-8.8" font-family="sans-serif" font-size="9.00">Field</text>
</g>
<!-- r0&#45;&gt;v13 -->
<g id="edge4" class="edge"><title>r0&#45;&gt;v13</title>
<path fill="none" stroke="black" d="M162.376,-153.136C142.828,-139.588 102.698,-110.364 74,-80 58.0157,-63.0878 42.8801,-40.7689 33.7706,-26.3983"/>
<polygon fill="black" stroke="black" points="30.9198,-21.8488 35.4813,-24.891 32.2472,-23.9673 33.5747,-26.0858 33.5747,-26.0858 33.5747,-26.0858 32.2472,-23.9673 31.6681,-27.2805 30.9198,-21.8488 30.9198,-21.8488"/>
</g>
<!-- v16 -->
<g id="v16_Aura" class="node"><title>v16</title>
<ellipse fill="none" stroke="black" cx="891" cy="-69" rx="21.5" ry="11"/>
<text text-anchor="middle" x="891" y="-66.8" font-family="sans-serif" font-size="9.00">Aura</text>
</g>
<!-- r0&#45;&gt;v16 -->
<g id="edge5" class="edge"><title>r0&#45;&gt;v16</title>
<path fill="none" stroke="black" d="M185.663,-160.08C236.771,-155.998 446.027,-138.764 617,-117 723.192,-103.482 750.361,-102.586 855,-80 859.284,-79.0753 863.814,-77.9422 868.162,-76.7751"/>
<polygon fill="black" stroke="black" points="873.157,-75.3998 868.934,-78.8964 870.747,-76.0635 868.336,-76.7271 868.336,-76.7271 868.336,-76.7271 870.747,-76.0635 867.739,-74.5579 873.157,-75.3998 873.157,-75.3998"/>
</g>
<!-- r1 -->
<g id="node2" class="node"><title>r1</title>
<polygon fill="none" stroke="black" stroke-dasharray="5,2" points="1069.5,-171 1046.5,-171 1046.5,-153 1069.5,-153 1069.5,-171"/>
<text text-anchor="middle" x="1058" y="-159.8" font-family="serif" font-size="9.00">1</text>
</g>
<!-- v3 -->
<g id="v3_Locale" class="node"><title>v3</title>
<ellipse fill="none" stroke="black" cx="700" cy="-69" rx="29" ry="11"/>
<text text-anchor="middle" x="700" y="-66.8" font-family="sans-serif" font-size="9.00">Locale</text>
</g>
<!-- r1&#45;&gt;v3 -->
<g id="edge6" class="edge"><title>r1&#45;&gt;v3</title>
<path fill="none" stroke="black" d="M1046.37,-158.097C1004.61,-147.671 858.411,-111.082 738,-80 734.549,-79.1091 730.923,-78.1653 727.339,-77.2273"/>
<polygon fill="black" stroke="black" points="722.496,-75.9573 727.903,-75.0493 724.914,-76.5915 727.332,-77.2257 727.332,-77.2257 727.332,-77.2257 724.914,-76.5915 726.761,-79.4021 722.496,-75.9573 722.496,-75.9573"/>
</g>
<!-- v4 -->
<g id="v4_Locale" class="node"><title>v4</title>
<ellipse fill="none" stroke="black" cx="1232" cy="-69" rx="29" ry="11"/>
<text text-anchor="middle" x="1232" y="-66.8" font-family="sans-serif" font-size="9.00">Locale</text>
</g>
<!-- r1&#45;&gt;v4 -->
<g id="edge7" class="edge"><title>r1&#45;&gt;v4</title>
<path fill="none" stroke="black" d="M1069.69,-154.888C1098.78,-139.671 1174.76,-99.9343 1211.51,-80.7164"/>
<polygon fill="black" stroke="black" points="1216.21,-78.256 1212.83,-82.567 1214,-79.4146 1211.78,-80.5732 1211.78,-80.5732 1211.78,-80.5732 1214,-79.4146 1210.74,-78.5794 1216.21,-78.256 1216.21,-78.256"/>
</g>
<!-- v10 -->
<g id="v10_Localeattack" class="node"><title>v10</title>
<ellipse fill="none" stroke="black" cx="1058" cy="-69" rx="50.5" ry="11"/>
<text text-anchor="middle" x="1058" y="-66.8" font-family="sans-serif" font-size="9.00">Localeattack</text>
</g>
<!-- r1&#45;&gt;v10 -->
<g id="edge8" class="edge"><title>r1&#45;&gt;v10</title>
<path fill="none" stroke="black" d="M1058,-152.924C1058,-137.736 1058,-104.696 1058,-85.2178"/>
<polygon fill="black" stroke="black" points="1058,-80.1095 1060.25,-85.1095 1058,-82.6095 1058,-85.1095 1058,-85.1095 1058,-85.1095 1058,-82.6095 1055.75,-85.1096 1058,-80.1095 1058,-80.1095"/>
</g>
<!-- r2 -->
<g id="node3" class="node"><title>r2</title>
<polygon fill="none" stroke="black" stroke-dasharray="5,2" points="555.5,-171 532.5,-171 532.5,-153 555.5,-153 555.5,-171"/>
<text text-anchor="middle" x="544" y="-159.8" font-family="serif" font-size="9.00">2</text>
</g>
<!-- v0 -->
<g id="v0_Area(1)" class="node"><title>v0</title>
<ellipse fill="none" stroke="black" cx="544" cy="-69" rx="32.5" ry="11"/>
<text text-anchor="middle" x="544" y="-66.8" font-family="sans-serif" font-size="9.00">Area(1)</text>
</g>
<!-- r2&#45;&gt;v0 -->
<g id="edge9" class="edge"><title>r2&#45;&gt;v0</title>
<path fill="none" stroke="black" d="M544,-152.924C544,-137.736 544,-104.696 544,-85.2178"/>
<polygon fill="black" stroke="black" points="544,-80.1095 546.25,-85.1095 544,-82.6095 544,-85.1095 544,-85.1095 544,-85.1095 544,-82.6095 541.75,-85.1096 544,-80.1095 544,-80.1095"/>
</g>
<!-- v1 -->
<g id="v1_Area(2)" class="node"><title>v1</title>
<ellipse fill="none" stroke="black" cx="780" cy="-69" rx="32.5" ry="11"/>
<text text-anchor="middle" x="780" y="-66.8" font-family="sans-serif" font-size="9.00">Area(2)</text>
</g>
<!-- r2&#45;&gt;v1 -->
<g id="edge10" class="edge"><title>r2&#45;&gt;v1</title>
<path fill="none" stroke="black" d="M555.703,-156.487C592.284,-142.382 705.024,-98.9104 755.326,-79.514"/>
<polygon fill="black" stroke="black" points="759.995,-77.7138 756.139,-81.6121 757.662,-78.6133 755.33,-79.5128 755.33,-79.5128 755.33,-79.5128 757.662,-78.6133 754.52,-77.4134 759.995,-77.7138 759.995,-77.7138"/>
</g>
<!-- v20 -->
<g id="v20_Area(0)" class="node"><title>v20</title>
<ellipse fill="none" stroke="black" cx="422" cy="-69" rx="32.5" ry="11"/>
<text text-anchor="middle" x="422" y="-66.8" font-family="sans-serif" font-size="9.00">Area(0)</text>
</g>
<!-- r2&#45;&gt;v20 -->
<g id="edge11" class="edge"><title>r2&#45;&gt;v20</title>
<path fill="none" stroke="black" d="M533.173,-152.924C511.784,-136.97 463.987,-101.319 438.595,-82.3783"/>
<polygon fill="black" stroke="black" points="434.423,-79.266 439.776,-80.4519 436.426,-80.7607 438.43,-82.2555 438.43,-82.2555 438.43,-82.2555 436.426,-80.7607 437.085,-84.059 434.423,-79.266 434.423,-79.266"/>
</g>
<!-- e2 -->
<g id="node4" class="node"><title>e2</title>
</g>
<!-- v2 -->
<g id="v2_GPS(4)" class="node"><title>v2</title>
<ellipse fill="none" stroke="black" cx="720" cy="-11" rx="29" ry="11"/>
<text text-anchor="middle" x="720" y="-8.8" font-family="sans-serif" font-size="9.00">GPS(4)</text>
</g>
<!-- e2&#45;&gt;v2 -->
<g id="edge34" class="edge"><title>e2&#45;&gt;v2</title>
<path fill="none" stroke="green" d="M608,-116C608,-116 636.129,-81.8996 662,-58 676.916,-44.221 695.513,-29.9281 707.566,-21.0044"/>
</g>
<!-- v5 -->
<g id="v5_Lion" class="node"><title>v5</title>
<ellipse fill="none" stroke="black" cx="1167" cy="-11" rx="21.5" ry="11"/>
<text text-anchor="middle" x="1167" y="-8.8" font-family="sans-serif" font-size="9.00">Lion</text>
</g>
<!-- e2&#45;&gt;v5 -->
<g id="edge35" class="edge"><title>e2&#45;&gt;v5</title>
<path fill="none" stroke="green" d="M608,-116C608,-116 1068.38,-107.654 1118,-80 1141.39,-66.9661 1156.47,-37.5395 1163.1,-22.0181"/>
</g>
<!-- e2&#45;&gt;v7 -->
<g id="edge36" class="edge"><title>e2&#45;&gt;v7</title>
<path fill="none" stroke="green" d="M608,-116C608,-116 333.781,-82.1821 255.585,-72.5387"/>
</g>
<!-- v14 -->
<g id="v14_Child" class="node"><title>v14</title>
<ellipse fill="none" stroke="black" cx="274" cy="-11" rx="25" ry="11"/>
<text text-anchor="middle" x="274" y="-8.8" font-family="sans-serif" font-size="9.00">Child</text>
</g>
<!-- e2&#45;&gt;v14 -->
<g id="edge37" class="edge"><title>e2&#45;&gt;v14</title>
<path fill="none" stroke="green" d="M608,-116C608,-116 475.886,-116.474 380,-80 341.786,-65.4635 302.84,-35.8802 284.622,-20.9889"/>
</g>
<!-- e3 -->
<g id="node5" class="node"><title>e3</title>
</g>
<!-- e3&#45;&gt;v6 -->
<g id="edge38" class="edge"><title>e3&#45;&gt;v6</title>
<path fill="none" stroke="green" d="M304,-116C304,-116 225.84,-88.3434 190.729,-75.9195"/>
</g>
<!-- v9 -->
<g id="v9_Childattack" class="node"><title>v9</title>
<ellipse fill="none" stroke="black" cx="184" cy="-11" rx="47" ry="11"/>
<text text-anchor="middle" x="184" y="-8.8" font-family="sans-serif" font-size="9.00">Childattack</text>
</g>
<!-- e3&#45;&gt;v9 -->
<g id="edge39" class="edge"><title>e3&#45;&gt;v9</title>
<path fill="none" stroke="green" d="M304,-116C304,-116 287.778,-79.1207 265,-58 247.331,-41.6165 222.79,-28.7214 205.362,-20.8041"/>
</g>
<!-- v11 -->
<g id="v11_Lionattack" class="node"><title>v11</title>
<ellipse fill="none" stroke="black" cx="977" cy="-11" rx="43" ry="11"/>
<text text-anchor="middle" x="977" y="-8.8" font-family="sans-serif" font-size="9.00">Lionattack</text>
</g>
<!-- e3&#45;&gt;v11 -->
<g id="edge40" class="edge"><title>e3&#45;&gt;v11</title>
<path fill="none" stroke="green" d="M304,-116C304,-116 710.693,-113.105 821,-80 840.061,-74.2795 842.029,-66.5504 860,-58 891.534,-42.996 929.354,-28.7783 953.284,-20.2249"/>
</g>
<!-- v21 -->
<g id="v21_GPS(1)" class="node"><title>v21</title>
<ellipse fill="none" stroke="black" cx="346" cy="-11" rx="29" ry="11"/>
<text text-anchor="middle" x="346" y="-8.8" font-family="sans-serif" font-size="9.00">GPS(1)</text>
</g>
<!-- e3&#45;&gt;v21 -->
<g id="edge41" class="edge"><title>e3&#45;&gt;v21</title>
<path fill="none" stroke="green" d="M304,-116C304,-116 331.461,-48.0023 341.973,-21.972"/>
</g>
<!-- e4 -->
<g id="node6" class="node"><title>e4</title>
</g>
<!-- e4&#45;&gt;v8 -->
<g id="edge42" class="edge"><title>e4&#45;&gt;v8</title>
<path fill="none" stroke="green" d="M144,-116C144,-116 128.674,-93.2583 119.574,-79.7554"/>
</g>
<!-- v15 -->
<g id="v15_Child" class="node"><title>v15</title>
<ellipse fill="none" stroke="black" cx="94" cy="-11" rx="25" ry="11"/>
<text text-anchor="middle" x="94" y="-8.8" font-family="sans-serif" font-size="9.00">Child</text>
</g>
<!-- e4&#45;&gt;v15 -->
<g id="edge43" class="edge"><title>e4&#45;&gt;v15</title>
<path fill="none" stroke="green" d="M144,-116C144,-116 97.8979,-107.615 82,-80 71.3535,-61.5071 81.3138,-35.8556 88.3717,-21.9411"/>
</g>
<!-- v18 -->
<g id="v18_Lion" class="node"><title>v18</title>
<ellipse fill="none" stroke="black" cx="621" cy="-11" rx="21.5" ry="11"/>
<text text-anchor="middle" x="621" y="-8.8" font-family="sans-serif" font-size="9.00">Lion</text>
</g>
<!-- e4&#45;&gt;v18 -->
<g id="edge44" class="edge"><title>e4&#45;&gt;v18</title>
<path fill="none" stroke="green" d="M144,-116C144,-116 543.949,-107.052 585,-80 605.411,-66.5489 615.037,-37.5806 618.867,-22.1533"/>
</g>
<!-- v23 -->
<g id="v23_GPS(3)" class="node"><title>v23</title>
<ellipse fill="none" stroke="black" cx="521" cy="-11" rx="29" ry="11"/>
<text text-anchor="middle" x="521" y="-8.8" font-family="sans-serif" font-size="9.00">GPS(3)</text>
</g>
<!-- e4&#45;&gt;v23 -->
<g id="edge45" class="edge"><title>e4&#45;&gt;v23</title>
<path fill="none" stroke="green" d="M144,-116C144,-116 400.005,-113.479 463,-80 488.211,-66.6015 507.144,-37.3344 515.8,-21.9316"/>
</g>
<!-- e8 -->
<g id="node7" class="node"><title>e8</title>
</g>
<!-- e8&#45;&gt;v16 -->
<g id="edge49" class="edge"><title>e8&#45;&gt;v16</title>
<path fill="none" stroke="green" d="M974,-116C974,-116 928.28,-90.6613 904.706,-77.596"/>
</g>
<!-- v17 -->
<g id="v17_Child" class="node"><title>v17</title>
<ellipse fill="none" stroke="black" cx="891" cy="-11" rx="25" ry="11"/>
<text text-anchor="middle" x="891" y="-8.8" font-family="sans-serif" font-size="9.00">Child</text>
</g>
<!-- e8&#45;&gt;v17 -->
<g id="edge50" class="edge"><title>e8&#45;&gt;v17</title>
<path fill="none" stroke="green" d="M974,-116C974,-116 971.027,-79.885 955,-58 942.388,-40.778 921.381,-27.4638 906.894,-19.6899"/>
</g>
<!-- v19 -->
<g id="v19_Lion" class="node"><title>v19</title>
<ellipse fill="none" stroke="black" cx="1230" cy="-11" rx="21.5" ry="11"/>
<text text-anchor="middle" x="1230" y="-8.8" font-family="sans-serif" font-size="9.00">Lion</text>
</g>
<!-- e8&#45;&gt;v19 -->
<g id="edge51" class="edge"><title>e8&#45;&gt;v19</title>
<path fill="none" stroke="green" d="M974,-116C974,-116 1078.91,-115.328 1151,-80 1180.9,-65.3467 1208.63,-36.6286 1221.86,-21.6338"/>
</g>
<!-- v24 -->
<g id="v24_GPS(4)" class="node"><title>v24</title>
<ellipse fill="none" stroke="black" cx="811" cy="-11" rx="29" ry="11"/>
<text text-anchor="middle" x="811" y="-8.8" font-family="sans-serif" font-size="9.00">GPS(4)</text>
</g>
<!-- e8&#45;&gt;v24 -->
<g id="edge52" class="edge"><title>e8&#45;&gt;v24</title>
<path fill="none" stroke="green" d="M974,-116C974,-116 949.556,-78.097 921,-58 893.577,-38.7005 856.811,-25.4062 833.509,-18.2452"/>
</g>
<!-- v0&#45;&gt;v3 -->
<g id="edge32" class="edge"><title>v0&#45;&gt;v3</title>
<path fill="none" stroke="green" d="M576.602,-69C607.933,-69 639.265,-69 670.596,-69"/>
</g>
<!-- v0&#45;&gt;v23 -->
<g id="edge12" class="edge"><title>v0&#45;&gt;v23</title>
<path fill="none" stroke="black" d="M539.888,-57.9883C536.323,-49.3083 531.115,-36.6286 527.071,-26.7806"/>
<polygon fill="black" stroke="black" points="525.076,-21.925 529.057,-25.6953 526.026,-24.2376 526.976,-26.5501 526.976,-26.5501 526.976,-26.5501 526.026,-24.2376 524.895,-27.405 525.076,-21.925 525.076,-21.925"/>
</g>
<!-- v1&#45;&gt;v2 -->
<g id="edge13" class="edge"><title>v1&#45;&gt;v2</title>
<path fill="none" stroke="black" d="M769.822,-58.5004C759.936,-49.2734 744.852,-35.1949 733.871,-24.9459"/>
<polygon fill="black" stroke="black" points="730.028,-21.3593 735.218,-23.1261 731.856,-23.0652 733.683,-24.771 733.683,-24.771 733.683,-24.771 731.856,-23.0652 732.148,-26.4159 730.028,-21.3593 730.028,-21.3593"/>
</g>
<!-- v1&#45;&gt;v4 -->
<g id="edge33" class="edge"><title>v1&#45;&gt;v4</title>
<path fill="none" stroke="green" d="M800.404,-77.6914C818.155,-84.7532 844.765,-94.1511 869,-98 937.256,-108.84 1113.11,-115.39 1180,-98 1194.21,-94.3065 1208.65,-85.7878 1218.7,-78.9333"/>
</g>
<!-- v1&#45;&gt;v24 -->
<g id="edge14" class="edge"><title>v1&#45;&gt;v24</title>
<path fill="none" stroke="black" d="M785.542,-57.9883C790.391,-49.2286 797.495,-36.3956 802.968,-26.5103"/>
<polygon fill="black" stroke="black" points="805.506,-21.925 805.053,-27.3892 804.295,-24.1122 803.084,-26.2995 803.084,-26.2995 803.084,-26.2995 804.295,-24.1122 801.116,-25.2097 805.506,-21.925 805.506,-21.925"/>
</g>
<!-- v3&#45;&gt;v18 -->
<g id="edge15" class="edge"><title>v3&#45;&gt;v18</title>
<path fill="none" stroke="black" d="M687.307,-59.0026C673.71,-49.364 652.088,-34.0372 637.255,-23.5225"/>
<polygon fill="black" stroke="black" points="632.886,-20.4254 638.266,-21.4814 634.925,-21.8712 636.965,-23.317 636.965,-23.317 636.965,-23.317 634.925,-21.8712 635.664,-25.1526 632.886,-20.4254 632.886,-20.4254"/>
</g>
<!-- v4&#45;&gt;v5 -->
<g id="edge16" class="edge"><title>v4&#45;&gt;v5</title>
<path fill="none" stroke="black" d="M1221.27,-58.7527C1210.38,-49.3748 1193.47,-34.8028 1181.42,-24.4216"/>
<polygon fill="black" stroke="black" points="1177.53,-21.0752 1182.79,-22.6341 1179.43,-22.707 1181.32,-24.3388 1181.32,-24.3388 1181.32,-24.3388 1179.43,-22.707 1179.85,-26.0434 1177.53,-21.0752 1177.53,-21.0752"/>
</g>
<!-- v4&#45;&gt;v19 -->
<g id="edge17" class="edge"><title>v4&#45;&gt;v19</title>
<path fill="none" stroke="black" d="M1231.64,-57.9883C1231.34,-49.4941 1230.9,-37.1697 1230.55,-27.4169"/>
<polygon fill="black" stroke="black" points="1230.37,-22.3039 1232.8,-27.2203 1230.46,-24.8023 1230.55,-27.3007 1230.55,-27.3007 1230.55,-27.3007 1230.46,-24.8023 1228.3,-27.381 1230.37,-22.3039 1230.37,-22.3039"/>
</g>
<!-- v6&#45;&gt;v9 -->
<g id="edge18" class="edge"><title>v6&#45;&gt;v9</title>
<path fill="none" stroke="black" d="M175.788,-57.9883C177.305,-49.4941 179.505,-37.1697 181.247,-27.4169"/>
<polygon fill="black" stroke="black" points="182.16,-22.3039 183.496,-27.6216 181.721,-24.7649 181.281,-27.226 181.281,-27.226 181.281,-27.226 181.721,-24.7649 179.066,-26.8305 182.16,-22.3039 182.16,-22.3039"/>
</g>
<!-- v6&#45;&gt;v14 -->
<g id="edge19" class="edge"><title>v6&#45;&gt;v14</title>
<path fill="none" stroke="black" d="M187.905,-60.2134C205.319,-50.4612 235.243,-33.7039 254.824,-22.7383"/>
<polygon fill="black" stroke="black" points="259.566,-20.0831 256.303,-24.4893 257.385,-21.3046 255.203,-22.5261 255.203,-22.5261 255.203,-22.5261 257.385,-21.3046 254.104,-20.563 259.566,-20.0831 259.566,-20.0831"/>
</g>
<!-- v6&#45;&gt;v15 -->
<g id="edge20" class="edge"><title>v6&#45;&gt;v15</title>
<path fill="none" stroke="black" d="M162.196,-59.737C148.529,-50.1704 125.928,-34.3496 110.521,-23.5646"/>
<polygon fill="black" stroke="black" points="106.379,-20.6656 111.766,-21.6896 108.427,-22.0992 110.476,-23.5329 110.476,-23.5329 110.476,-23.5329 108.427,-22.0992 109.185,-25.3762 106.379,-20.6656 106.379,-20.6656"/>
</g>
<!-- v7&#45;&gt;v9 -->
<g id="edge21" class="edge"><title>v7&#45;&gt;v9</title>
<path fill="none" stroke="black" d="M226.578,-58.7527C218.386,-49.7573 205.842,-35.9828 196.488,-25.7121"/>
<polygon fill="black" stroke="black" points="192.949,-21.8266 197.979,-24.0083 194.633,-23.6749 196.316,-25.5233 196.316,-25.5233 196.316,-25.5233 194.633,-23.6749 194.652,-27.0383 192.949,-21.8266 192.949,-21.8266"/>
</g>
<!-- v7&#45;&gt;v14 -->
<g id="edge22" class="edge"><title>v7&#45;&gt;v14</title>
<path fill="none" stroke="black" d="M241.616,-58.5004C247.853,-49.5445 257.273,-36.018 264.348,-25.859"/>
<polygon fill="black" stroke="black" points="267.221,-21.7345 266.21,-27.1234 265.792,-23.786 264.363,-25.8375 264.363,-25.8375 264.363,-25.8375 265.792,-23.786 262.517,-24.5516 267.221,-21.7345 267.221,-21.7345"/>
</g>
<!-- v7&#45;&gt;v15 -->
<g id="edge23" class="edge"><title>v7&#45;&gt;v15</title>
<path fill="none" stroke="black" d="M218.826,-61.5761C193.662,-51.5819 145.068,-32.2822 116.499,-20.9359"/>
<polygon fill="black" stroke="black" points="111.751,-19.0499 117.228,-18.8044 114.074,-19.9727 116.398,-20.8955 116.398,-20.8955 116.398,-20.8955 114.074,-19.9727 115.567,-22.9867 111.751,-19.0499 111.751,-19.0499"/>
</g>
<!-- v8&#45;&gt;v9 -->
<g id="edge24" class="edge"><title>v8&#45;&gt;v9</title>
<path fill="none" stroke="black" d="M124.094,-59.25C135.828,-49.9946 154.459,-35.3002 167.828,-24.7554"/>
<polygon fill="black" stroke="black" points="171.795,-21.6267 169.262,-26.4898 169.832,-23.175 167.869,-24.7232 167.869,-24.7232 167.869,-24.7232 169.832,-23.175 166.475,-22.9566 171.795,-21.6267 171.795,-21.6267"/>
</g>
<!-- v8&#45;&gt;v14 -->
<g id="edge25" class="edge"><title>v8&#45;&gt;v14</title>
<path fill="none" stroke="black" d="M129.926,-62.1129C158.74,-52.0904 217.392,-31.6898 250.281,-20.2501"/>
<polygon fill="black" stroke="black" points="255.33,-18.494 251.346,-22.2618 252.968,-19.3154 250.607,-20.1367 250.607,-20.1367 250.607,-20.1367 252.968,-19.3154 249.868,-18.0116 255.33,-18.494 255.33,-18.494"/>
</g>
<!-- v8&#45;&gt;v15 -->
<g id="edge26" class="edge"><title>v8&#45;&gt;v15</title>
<path fill="none" stroke="black" d="M109.603,-57.9883C106.658,-49.3083 102.356,-36.6286 99.0148,-26.7806"/>
<polygon fill="black" stroke="black" points="97.3674,-21.925 101.105,-25.937 98.1707,-24.2925 98.974,-26.6599 98.974,-26.6599 98.974,-26.6599 98.1707,-24.2925 96.8433,-27.3828 97.3674,-21.925 97.3674,-21.925"/>
</g>
<!-- v10&#45;&gt;v11 -->
<g id="edge27" class="edge"><title>v10&#45;&gt;v11</title>
<path fill="none" stroke="black" d="M1043.89,-58.2455C1030.34,-48.8739 1009.79,-34.6723 995.052,-24.4805"/>
<polygon fill="black" stroke="black" points="990.678,-21.4561 996.07,-22.4488 992.734,-22.8778 994.79,-24.2995 994.79,-24.2995 994.79,-24.2995 992.734,-22.8778 993.511,-26.1503 990.678,-21.4561 990.678,-21.4561"/>
</g>
<!-- v12 -->
<g id="v12_Impalaseen" class="node"><title>v12</title>
<ellipse fill="none" stroke="black" cx="1081" cy="-11" rx="43" ry="11"/>
<text text-anchor="middle" x="1081" y="-8.8" font-family="sans-serif" font-size="9.00">Impalaseen</text>
</g>
<!-- v10&#45;&gt;v12 -->
<g id="edge28" class="edge"><title>v10&#45;&gt;v12</title>
<path fill="none" stroke="black" d="M1062.11,-57.9883C1065.63,-49.4154 1070.76,-36.9411 1074.78,-27.1466"/>
<polygon fill="black" stroke="black" points="1076.77,-22.3039 1076.95,-27.7838 1075.82,-24.6164 1074.87,-26.929 1074.87,-26.929 1074.87,-26.929 1075.82,-24.6164 1072.79,-26.0741 1076.77,-22.3039 1076.77,-22.3039"/>
</g>
<!-- v10&#45;&gt;v20 -->
<g id="edge46" class="edge"><title>v10&#45;&gt;v20</title>
<path fill="none" stroke="green" d="M1037.88,-79.2576C1023.33,-86.0765 1002.98,-94.4133 984,-98 880.716,-117.515 614.81,-114.486 511,-98 486.765,-94.1511 460.155,-84.7532 442.404,-77.6914"/>
</g>
<!-- v11&#45;&gt;v12 -->
<g id="edge47" class="edge"><title>v11&#45;&gt;v12</title>
<path fill="none" stroke="green" d="M1020.06,-11C1025.93,-11 1031.81,-11 1037.68,-11"/>
</g>
<!-- v22 -->
<g id="v22_GPS(0)" class="node"><title>v22</title>
<ellipse fill="none" stroke="black" cx="422" cy="-11" rx="29" ry="11"/>
<text text-anchor="middle" x="422" y="-8.8" font-family="sans-serif" font-size="9.00">GPS(0)</text>
</g>
<!-- v12&#45;&gt;v22 -->
<g id="edge48" class="edge"><title>v12&#45;&gt;v22</title>
<path fill="none" stroke="green" d="M1064.64,-21.2415C1052.76,-28.0527 1036.01,-36.3871 1020,-40 962.772,-52.9111 549.539,-51.4471 492,-40 472.906,-36.2013 452.493,-27.1022 438.668,-20.101"/>
</g>
<!-- v16&#45;&gt;v17 -->
<g id="edge29" class="edge"><title>v16&#45;&gt;v17</title>
<path fill="none" stroke="black" d="M891,-57.9883C891,-49.4941 891,-37.1697 891,-27.4169"/>
<polygon fill="black" stroke="black" points="891,-22.3039 893.25,-27.3038 891,-24.8039 891,-27.3039 891,-27.3039 891,-27.3039 891,-24.8039 888.75,-27.3039 891,-22.3039 891,-22.3039"/>
</g>
<!-- v20&#45;&gt;v21 -->
<g id="edge30" class="edge"><title>v20&#45;&gt;v21</title>
<path fill="none" stroke="black" d="M409.45,-58.7527C396.612,-49.2933 376.602,-34.549 362.492,-24.1517"/>
<polygon fill="black" stroke="black" points="358.316,-21.0752 363.676,-22.2298 360.329,-22.5582 362.342,-24.0412 362.342,-24.0412 362.342,-24.0412 360.329,-22.5582 361.007,-25.8526 358.316,-21.0752 358.316,-21.0752"/>
</g>
<!-- v20&#45;&gt;v22 -->
<g id="edge31" class="edge"><title>v20&#45;&gt;v22</title>
<path fill="none" stroke="black" d="M422,-57.9883C422,-49.4941 422,-37.1697 422,-27.4169"/>
<polygon fill="black" stroke="black" points="422,-22.3039 424.25,-27.3038 422,-24.8039 422,-27.3039 422,-27.3039 422,-27.3039 422,-24.8039 419.75,-27.3039 422,-22.3039 422,-22.3039"/>
</g>
</g>
</svg>
