<?xml version="1.0" encoding="UTF-8" standalone="no"?>
<?xml-stylesheet href="style.css" type="text/css"?>
<!DOCTYPE svg PUBLIC "-//W3C//DTD SVG 1.1//EN"
 "http://www.w3.org/Graphics/SVG/1.1/DTD/svg11.dtd">
<!-- Generated by graphviz version 2.38.0 (20140413.2041)
 -->
<!-- Title: 46.svg Pages: 1 -->
<svg width="1286pt" height="179pt"
 viewBox="0.00 0.00 1286.00 179.00" xmlns="http://www.w3.org/2000/svg" xmlns:xlink="http://www.w3.org/1999/xlink">
<g id="graph0" class="graph" transform="scale(1 1) rotate(0) translate(4 175)">
<title>46.svg</title>
<polygon fill="white" stroke="none" points="-4,4 -4,-175 1282,-175 1282,4 -4,4"/>
<!-- r0 -->
<g id="node1" class="node"><title>r0</title>
<polygon fill="none" stroke="black" stroke-dasharray="5,2" points="204.5,-171 181.5,-171 181.5,-153 204.5,-153 204.5,-171"/>
<text text-anchor="middle" x="193" y="-159.8" font-family="serif" font-size="9.00">0</text>
</g>
<!-- v4 -->
<g id="v4_Aura" class="node"><title>v4</title>
<ellipse fill="none" stroke="black" cx="132" cy="-69" rx="21.5" ry="11"/>
<text text-anchor="middle" x="132" y="-66.8" font-family="sans-serif" font-size="9.00">Aura</text>
</g>
<!-- r0&#45;&gt;v4 -->
<g id="edge1" class="edge"><title>r0&#45;&gt;v4</title>
<path fill="none" stroke="black" d="M187.587,-152.924C177.211,-137.446 154.407,-103.427 141.463,-84.1163"/>
<polygon fill="black" stroke="black" points="138.398,-79.5439 143.051,-82.4443 139.79,-81.6205 141.182,-83.6971 141.182,-83.6971 141.182,-83.6971 139.79,-81.6205 139.313,-84.9499 138.398,-79.5439 138.398,-79.5439"/>
</g>
<!-- v5 -->
<g id="v5_Aura" class="node"><title>v5</title>
<ellipse fill="none" stroke="black" cx="254" cy="-69" rx="21.5" ry="11"/>
<text text-anchor="middle" x="254" y="-66.8" font-family="sans-serif" font-size="9.00">Aura</text>
</g>
<!-- r0&#45;&gt;v5 -->
<g id="edge2" class="edge"><title>r0&#45;&gt;v5</title>
<path fill="none" stroke="black" d="M201.555,-152.836C210.037,-144.423 223.029,-130.648 232,-117 238.658,-106.871 244.395,-94.406 248.339,-84.8588"/>
<polygon fill="black" stroke="black" points="250.234,-80.16 250.451,-85.6387 249.299,-82.4786 248.364,-84.7972 248.364,-84.7972 248.364,-84.7972 249.299,-82.4786 246.277,-83.9558 250.234,-80.16 250.234,-80.16"/>
</g>
<!-- v6 -->
<g id="v6_Aura" class="node"><title>v6</title>
<ellipse fill="none" stroke="black" cx="193" cy="-69" rx="21.5" ry="11"/>
<text text-anchor="middle" x="193" y="-66.8" font-family="sans-serif" font-size="9.00">Aura</text>
</g>
<!-- r0&#45;&gt;v6 -->
<g id="edge3" class="edge"><title>r0&#45;&gt;v6</title>
<path fill="none" stroke="black" d="M193,-152.924C193,-137.736 193,-104.696 193,-85.2178"/>
<polygon fill="black" stroke="black" points="193,-80.1095 195.25,-85.1095 193,-82.6095 193,-85.1095 193,-85.1095 193,-85.1095 193,-82.6095 190.75,-85.1096 193,-80.1095 193,-80.1095"/>
</g>
<!-- v11 -->
<g id="v11_Field" class="node"><title>v11</title>
<ellipse fill="none" stroke="black" cx="25" cy="-11" rx="25" ry="11"/>
<text text-anchor="middle" x="25" y="-8.8" font-family="sans-serif" font-size="9.00">Field</text>
</g>
<!-- r0&#45;&gt;v11 -->
<g id="edge4" class="edge"><title>r0&#45;&gt;v11</title>
<path fill="none" stroke="black" d="M182.046,-152.885C163.133,-138.727 123.365,-108.317 92,-80 71.9851,-61.9299 50.3478,-39.3615 37.2351,-25.3117"/>
<polygon fill="black" stroke="black" points="33.7712,-21.5857 38.8235,-23.7157 35.4734,-23.4167 37.1756,-25.2477 37.1756,-25.2477 37.1756,-25.2477 35.4734,-23.4167 35.5277,-26.7797 33.7712,-21.5857 33.7712,-21.5857"/>
</g>
<!-- v14 -->
<g id="v14_Aura" class="node"><title>v14</title>
<ellipse fill="none" stroke="black" cx="1066" cy="-69" rx="21.5" ry="11"/>
<text text-anchor="middle" x="1066" y="-66.8" font-family="sans-serif" font-size="9.00">Aura</text>
</g>
<!-- r0&#45;&gt;v14 -->
<g id="edge5" class="edge"><title>r0&#45;&gt;v14</title>
<path fill="none" stroke="black" d="M204.53,-160.826C279.104,-159.509 700.639,-149.162 1035,-80 1038.13,-79.3535 1041.38,-78.5061 1044.55,-77.5776"/>
<polygon fill="black" stroke="black" points="1049.45,-76.0694 1045.33,-79.6927 1047.06,-76.806 1044.67,-77.5426 1044.67,-77.5426 1044.67,-77.5426 1047.06,-76.806 1044,-75.3925 1049.45,-76.0694 1049.45,-76.0694"/>
</g>
<!-- r1 -->
<g id="node2" class="node"><title>r1</title>
<polygon fill="none" stroke="black" stroke-dasharray="5,2" points="925.5,-171 902.5,-171 902.5,-153 925.5,-153 925.5,-171"/>
<text text-anchor="middle" x="914" y="-159.8" font-family="serif" font-size="9.00">1</text>
</g>
<!-- v2 -->
<g id="v2_Locale" class="node"><title>v2</title>
<ellipse fill="none" stroke="black" cx="914" cy="-69" rx="29" ry="11"/>
<text text-anchor="middle" x="914" y="-66.8" font-family="sans-serif" font-size="9.00">Locale</text>
</g>
<!-- r1&#45;&gt;v2 -->
<g id="edge6" class="edge"><title>r1&#45;&gt;v2</title>
<path fill="none" stroke="black" d="M914,-152.924C914,-137.736 914,-104.696 914,-85.2178"/>
<polygon fill="black" stroke="black" points="914,-80.1095 916.25,-85.1095 914,-82.6095 914,-85.1095 914,-85.1095 914,-85.1095 914,-82.6095 911.75,-85.1096 914,-80.1095 914,-80.1095"/>
</g>
<!-- v8 -->
<g id="v8_Localeattack" class="node"><title>v8</title>
<ellipse fill="none" stroke="black" cx="702" cy="-69" rx="50.5" ry="11"/>
<text text-anchor="middle" x="702" y="-66.8" font-family="sans-serif" font-size="9.00">Localeattack</text>
</g>
<!-- r1&#45;&gt;v8 -->
<g id="edge7" class="edge"><title>r1&#45;&gt;v8</title>
<path fill="none" stroke="black" d="M902.3,-155.978C869.218,-141.778 774.405,-101.079 728.091,-81.1994"/>
<polygon fill="black" stroke="black" points="723.227,-79.1115 728.709,-79.0162 725.524,-80.0977 727.821,-81.0838 727.821,-81.0838 727.821,-81.0838 725.524,-80.0977 726.934,-83.1514 723.227,-79.1115 723.227,-79.1115"/>
</g>
<!-- v17 -->
<g id="v17_Locale" class="node"><title>v17</title>
<ellipse fill="none" stroke="black" cx="1249" cy="-69" rx="29" ry="11"/>
<text text-anchor="middle" x="1249" y="-66.8" font-family="sans-serif" font-size="9.00">Locale</text>
</g>
<!-- r1&#45;&gt;v17 -->
<g id="edge8" class="edge"><title>r1&#45;&gt;v17</title>
<path fill="none" stroke="black" d="M925.777,-159.753C960.181,-155.9 1063.26,-142.854 1145,-117 1175.26,-107.43 1208.36,-91.4384 1228.91,-80.8059"/>
<polygon fill="black" stroke="black" points="1233.6,-78.3581 1230.21,-82.6659 1231.38,-79.5146 1229.17,-80.6711 1229.17,-80.6711 1229.17,-80.6711 1231.38,-79.5146 1228.12,-78.6763 1233.6,-78.3581 1233.6,-78.3581"/>
</g>
<!-- r2 -->
<g id="node3" class="node"><title>r2</title>
<polygon fill="none" stroke="black" stroke-dasharray="5,2" points="612.5,-171 589.5,-171 589.5,-153 612.5,-153 612.5,-171"/>
<text text-anchor="middle" x="601" y="-159.8" font-family="serif" font-size="9.00">2</text>
</g>
<!-- v0 -->
<g id="v0_Area(1)" class="node"><title>v0</title>
<ellipse fill="none" stroke="black" cx="601" cy="-69" rx="32.5" ry="11"/>
<text text-anchor="middle" x="601" y="-66.8" font-family="sans-serif" font-size="9.00">Area(1)</text>
</g>
<!-- r2&#45;&gt;v0 -->
<g id="edge9" class="edge"><title>r2&#45;&gt;v0</title>
<path fill="none" stroke="black" d="M601,-152.924C601,-137.736 601,-104.696 601,-85.2178"/>
<polygon fill="black" stroke="black" points="601,-80.1095 603.25,-85.1095 601,-82.6095 601,-85.1095 601,-85.1095 601,-85.1095 601,-82.6095 598.75,-85.1096 601,-80.1095 601,-80.1095"/>
</g>
<!-- v19 -->
<g id="v19_Area(0)" class="node"><title>v19</title>
<ellipse fill="none" stroke="black" cx="441" cy="-69" rx="32.5" ry="11"/>
<text text-anchor="middle" x="441" y="-66.8" font-family="sans-serif" font-size="9.00">Area(0)</text>
</g>
<!-- r2&#45;&gt;v19 -->
<g id="edge10" class="edge"><title>r2&#45;&gt;v19</title>
<path fill="none" stroke="black" d="M589.388,-155.715C572.339,-147.839 539.667,-132.303 513,-117 493.757,-105.957 472.59,-91.8949 458.218,-82.0411"/>
<polygon fill="black" stroke="black" points="453.986,-79.1262 459.38,-80.1093 456.045,-80.5443 458.104,-81.9623 458.104,-81.9623 458.104,-81.9623 456.045,-80.5443 456.828,-83.8154 453.986,-79.1262 453.986,-79.1262"/>
</g>
<!-- v23 -->
<g id="v23_Area(2)" class="node"><title>v23</title>
<ellipse fill="none" stroke="black" cx="994" cy="-69" rx="32.5" ry="11"/>
<text text-anchor="middle" x="994" y="-66.8" font-family="sans-serif" font-size="9.00">Area(2)</text>
</g>
<!-- r2&#45;&gt;v23 -->
<g id="edge11" class="edge"><title>r2&#45;&gt;v23</title>
<path fill="none" stroke="black" d="M612.52,-158.372C656.584,-148.314 818.655,-111.26 952,-80 955.797,-79.1099 959.786,-78.1685 963.731,-77.2334"/>
<polygon fill="black" stroke="black" points="968.688,-76.0568 964.343,-79.4008 966.255,-76.6342 963.823,-77.2117 963.823,-77.2117 963.823,-77.2117 966.255,-76.6342 963.303,-75.0225 968.688,-76.0568 968.688,-76.0568"/>
</g>
<!-- e1 -->
<g id="node4" class="node"><title>e1</title>
</g>
<!-- v1 -->
<g id="v1_GPS(2)" class="node"><title>v1</title>
<ellipse fill="none" stroke="black" cx="601" cy="-11" rx="29" ry="11"/>
<text text-anchor="middle" x="601" y="-8.8" font-family="sans-serif" font-size="9.00">GPS(2)</text>
</g>
<!-- e1&#45;&gt;v1 -->
<g id="edge33" class="edge"><title>e1&#45;&gt;v1</title>
<path fill="none" stroke="green" d="M523,-116C523,-116 540.694,-82.1944 559,-58 569.179,-44.5469 582.549,-30.4082 591.44,-21.4152"/>
</g>
<!-- v3 -->
<g id="v3_Lion" class="node"><title>v3</title>
<ellipse fill="none" stroke="black" cx="851" cy="-11" rx="21.5" ry="11"/>
<text text-anchor="middle" x="851" y="-8.8" font-family="sans-serif" font-size="9.00">Lion</text>
</g>
<!-- e1&#45;&gt;v3 -->
<g id="edge34" class="edge"><title>e1&#45;&gt;v3</title>
<path fill="none" stroke="green" d="M523,-116C523,-116 711.703,-100.76 761,-80 794.57,-65.8628 826.869,-36.372 842.022,-21.3012"/>
</g>
<!-- e1&#45;&gt;v6 -->
<g id="edge35" class="edge"><title>e1&#45;&gt;v6</title>
<path fill="none" stroke="green" d="M523,-116C523,-116 354.036,-109.383 223,-80 218.607,-79.015 213.951,-77.635 209.65,-76.2141"/>
</g>
<!-- v13 -->
<g id="v13_Child" class="node"><title>v13</title>
<ellipse fill="none" stroke="black" cx="205" cy="-11" rx="25" ry="11"/>
<text text-anchor="middle" x="205" y="-8.8" font-family="sans-serif" font-size="9.00">Child</text>
</g>
<!-- e1&#45;&gt;v13 -->
<g id="edge36" class="edge"><title>e1&#45;&gt;v13</title>
<path fill="none" stroke="green" d="M523,-116C523,-116 428.127,-103.72 356,-80 304.381,-63.0241 246.677,-34.0502 220.008,-20.0469"/>
</g>
<!-- e2 -->
<g id="node5" class="node"><title>e2</title>
</g>
<!-- e2&#45;&gt;v4 -->
<g id="edge37" class="edge"><title>e2&#45;&gt;v4</title>
<path fill="none" stroke="green" d="M223,-116C223,-116 172.344,-90.3938 146.621,-77.3907"/>
</g>
<!-- v7 -->
<g id="v7_Childattack" class="node"><title>v7</title>
<ellipse fill="none" stroke="black" cx="115" cy="-11" rx="47" ry="11"/>
<text text-anchor="middle" x="115" y="-8.8" font-family="sans-serif" font-size="9.00">Childattack</text>
</g>
<!-- e2&#45;&gt;v7 -->
<g id="edge38" class="edge"><title>e2&#45;&gt;v7</title>
<path fill="none" stroke="green" d="M223,-116C223,-116 117.925,-102.64 101,-80 88.1542,-62.8161 99.9405,-36.6533 108.315,-22.3056"/>
</g>
<!-- v9 -->
<g id="v9_Lionattack" class="node"><title>v9</title>
<ellipse fill="none" stroke="black" cx="511" cy="-11" rx="43" ry="11"/>
<text text-anchor="middle" x="511" y="-8.8" font-family="sans-serif" font-size="9.00">Lionattack</text>
</g>
<!-- e2&#45;&gt;v9 -->
<g id="edge39" class="edge"><title>e2&#45;&gt;v9</title>
<path fill="none" stroke="green" d="M223,-116C223,-116 435.842,-115.301 482,-80 500.554,-65.81 507.384,-37.427 509.782,-22.2038"/>
</g>
<!-- v20 -->
<g id="v20_GPS(1)" class="node"><title>v20</title>
<ellipse fill="none" stroke="black" cx="345" cy="-11" rx="29" ry="11"/>
<text text-anchor="middle" x="345" y="-8.8" font-family="sans-serif" font-size="9.00">GPS(1)</text>
</g>
<!-- e2&#45;&gt;v20 -->
<g id="edge40" class="edge"><title>e2&#45;&gt;v20</title>
<path fill="none" stroke="green" d="M223,-116C223,-116 259.649,-99.9504 284,-80 305.837,-62.1094 326.798,-36.2227 337.544,-22.1088"/>
</g>
<!-- e3 -->
<g id="node6" class="node"><title>e3</title>
</g>
<!-- e3&#45;&gt;v5 -->
<g id="edge41" class="edge"><title>e3&#45;&gt;v5</title>
<path fill="none" stroke="green" d="M548,-116C548,-116 340.631,-83.5545 274.208,-73.1618"/>
</g>
<!-- v12 -->
<g id="v12_Child" class="node"><title>v12</title>
<ellipse fill="none" stroke="black" cx="273" cy="-11" rx="25" ry="11"/>
<text text-anchor="middle" x="273" y="-8.8" font-family="sans-serif" font-size="9.00">Child</text>
</g>
<!-- e3&#45;&gt;v12 -->
<g id="edge42" class="edge"><title>e3&#45;&gt;v12</title>
<path fill="none" stroke="green" d="M548,-116C548,-116 462.616,-104.38 399,-80 387.51,-75.5967 318.42,-37.3268 287.703,-20.2117"/>
</g>
<!-- v16 -->
<g id="v16_Lion" class="node"><title>v16</title>
<ellipse fill="none" stroke="black" cx="913" cy="-11" rx="21.5" ry="11"/>
<text text-anchor="middle" x="913" y="-8.8" font-family="sans-serif" font-size="9.00">Lion</text>
</g>
<!-- e3&#45;&gt;v16 -->
<g id="edge43" class="edge"><title>e3&#45;&gt;v16</title>
<path fill="none" stroke="green" d="M548,-116C548,-116 679.495,-111.655 778,-80 825.47,-64.745 876.841,-34.6769 900.173,-20.1869"/>
</g>
<!-- v22 -->
<g id="v22_GPS(2)" class="node"><title>v22</title>
<ellipse fill="none" stroke="black" cx="677" cy="-11" rx="29" ry="11"/>
<text text-anchor="middle" x="677" y="-8.8" font-family="sans-serif" font-size="9.00">GPS(2)</text>
</g>
<!-- e3&#45;&gt;v22 -->
<g id="edge44" class="edge"><title>e3&#45;&gt;v22</title>
<path fill="none" stroke="green" d="M548,-116C548,-116 730.013,-116.664 761,-80 783.406,-53.489 729.561,-29.7829 697.97,-18.6726"/>
</g>
<!-- e7 -->
<g id="node7" class="node"><title>e7</title>
</g>
<!-- e7&#45;&gt;v14 -->
<g id="edge48" class="edge"><title>e7&#45;&gt;v14</title>
<path fill="none" stroke="green" d="M1135,-116C1135,-116 1098.18,-91.4551 1078.34,-78.2239"/>
</g>
<!-- v15 -->
<g id="v15_Child" class="node"><title>v15</title>
<ellipse fill="none" stroke="black" cx="1133" cy="-11" rx="25" ry="11"/>
<text text-anchor="middle" x="1133" y="-8.8" font-family="sans-serif" font-size="9.00">Child</text>
</g>
<!-- e7&#45;&gt;v15 -->
<g id="edge49" class="edge"><title>e7&#45;&gt;v15</title>
<path fill="none" stroke="green" d="M1135,-116C1135,-116 1133.7,-48.6577 1133.2,-22.3521"/>
</g>
<!-- v18 -->
<g id="v18_Lion" class="node"><title>v18</title>
<ellipse fill="none" stroke="black" cx="1213" cy="-11" rx="21.5" ry="11"/>
<text text-anchor="middle" x="1213" y="-8.8" font-family="sans-serif" font-size="9.00">Lion</text>
</g>
<!-- e7&#45;&gt;v18 -->
<g id="edge50" class="edge"><title>e7&#45;&gt;v18</title>
<path fill="none" stroke="green" d="M1135,-116C1135,-116 1186.49,-47.3438 1205.8,-21.5977"/>
</g>
<!-- v24 -->
<g id="v24_GPS(4)" class="node"><title>v24</title>
<ellipse fill="none" stroke="black" cx="1031" cy="-11" rx="29" ry="11"/>
<text text-anchor="middle" x="1031" y="-8.8" font-family="sans-serif" font-size="9.00">GPS(4)</text>
</g>
<!-- e7&#45;&gt;v24 -->
<g id="edge51" class="edge"><title>e7&#45;&gt;v24</title>
<path fill="none" stroke="green" d="M1135,-116C1135,-116 1117.7,-80.2261 1096,-58 1080.93,-42.569 1060.09,-28.863 1046.11,-20.5097"/>
</g>
<!-- v0&#45;&gt;v1 -->
<g id="edge12" class="edge"><title>v0&#45;&gt;v1</title>
<path fill="none" stroke="black" d="M601,-57.9883C601,-49.4941 601,-37.1697 601,-27.4169"/>
<polygon fill="black" stroke="black" points="601,-22.3039 603.25,-27.3038 601,-24.8039 601,-27.3039 601,-27.3039 601,-27.3039 601,-24.8039 598.75,-27.3039 601,-22.3039 601,-22.3039"/>
</g>
<!-- v0&#45;&gt;v2 -->
<g id="edge32" class="edge"><title>v0&#45;&gt;v2</title>
<path fill="none" stroke="green" d="M614.138,-79.2189C623.752,-86.0195 637.433,-94.3504 651,-98 741.558,-122.361 771.24,-121.597 862,-98 876.206,-94.3065 890.651,-85.7878 900.7,-78.9333"/>
</g>
<!-- v0&#45;&gt;v22 -->
<g id="edge13" class="edge"><title>v0&#45;&gt;v22</title>
<path fill="none" stroke="black" d="M613.55,-58.7527C626.388,-49.2933 646.398,-34.549 660.508,-24.1517"/>
<polygon fill="black" stroke="black" points="664.684,-21.0752 661.993,-25.8526 662.671,-22.5582 660.658,-24.0412 660.658,-24.0412 660.658,-24.0412 662.671,-22.5582 659.324,-22.2298 664.684,-21.0752 664.684,-21.0752"/>
</g>
<!-- v2&#45;&gt;v3 -->
<g id="edge14" class="edge"><title>v2&#45;&gt;v3</title>
<path fill="none" stroke="black" d="M903.313,-58.5004C892.807,-49.1622 876.712,-34.8549 865.149,-24.5772"/>
<polygon fill="black" stroke="black" points="861.113,-20.9896 866.345,-22.6298 862.982,-22.6505 864.85,-24.3115 864.85,-24.3115 864.85,-24.3115 862.982,-22.6505 863.356,-25.9931 861.113,-20.9896 861.113,-20.9896"/>
</g>
<!-- v2&#45;&gt;v16 -->
<g id="edge15" class="edge"><title>v2&#45;&gt;v16</title>
<path fill="none" stroke="black" d="M913.821,-57.9883C913.67,-49.4941 913.449,-37.1697 913.275,-27.4169"/>
<polygon fill="black" stroke="black" points="913.184,-22.3039 915.523,-27.2629 913.229,-24.8035 913.273,-27.3031 913.273,-27.3031 913.273,-27.3031 913.229,-24.8035 911.024,-27.3433 913.184,-22.3039 913.184,-22.3039"/>
</g>
<!-- v4&#45;&gt;v7 -->
<g id="edge16" class="edge"><title>v4&#45;&gt;v7</title>
<path fill="none" stroke="black" d="M128.961,-57.9883C126.358,-49.4154 122.571,-36.9411 119.598,-27.1466"/>
<polygon fill="black" stroke="black" points="118.128,-22.3039 121.733,-26.4347 118.854,-24.6961 119.58,-27.0883 119.58,-27.0883 119.58,-27.0883 118.854,-24.6961 117.427,-27.7419 118.128,-22.3039 118.128,-22.3039"/>
</g>
<!-- v4&#45;&gt;v12 -->
<g id="edge17" class="edge"><title>v4&#45;&gt;v12</title>
<path fill="none" stroke="black" d="M148.174,-61.5761C173.338,-51.5819 221.932,-32.2822 250.501,-20.9359"/>
<polygon fill="black" stroke="black" points="255.249,-19.0499 251.433,-22.9867 252.926,-19.9727 250.602,-20.8955 250.602,-20.8955 250.602,-20.8955 252.926,-19.9727 249.772,-18.8044 255.249,-19.0499 255.249,-19.0499"/>
</g>
<!-- v4&#45;&gt;v13 -->
<g id="edge18" class="edge"><title>v4&#45;&gt;v13</title>
<path fill="none" stroke="black" d="M143.087,-59.4948C155.377,-50.067 175.298,-34.7854 189.214,-24.1101"/>
<polygon fill="black" stroke="black" points="193.324,-20.9566 190.727,-25.7852 191.341,-22.4783 189.357,-23.9999 189.357,-23.9999 189.357,-23.9999 191.341,-22.4783 187.988,-22.2147 193.324,-20.9566 193.324,-20.9566"/>
</g>
<!-- v5&#45;&gt;v7 -->
<g id="edge19" class="edge"><title>v5&#45;&gt;v7</title>
<path fill="none" stroke="black" d="M238.055,-61.5761C214.596,-52.1251 170.482,-34.3525 141.94,-22.8535"/>
<polygon fill="black" stroke="black" points="137.15,-20.9237 142.628,-20.7052 139.469,-21.8579 141.788,-22.7922 141.788,-22.7922 141.788,-22.7922 139.469,-21.8579 140.947,-24.8792 137.15,-20.9237 137.15,-20.9237"/>
</g>
<!-- v5&#45;&gt;v12 -->
<g id="edge20" class="edge"><title>v5&#45;&gt;v12</title>
<path fill="none" stroke="black" d="M257.397,-57.9883C260.342,-49.3083 264.644,-36.6286 267.985,-26.7806"/>
<polygon fill="black" stroke="black" points="269.633,-21.925 270.157,-27.3828 268.829,-24.2925 268.026,-26.6599 268.026,-26.6599 268.026,-26.6599 268.829,-24.2925 265.895,-25.937 269.633,-21.925 269.633,-21.925"/>
</g>
<!-- v5&#45;&gt;v13 -->
<g id="edge21" class="edge"><title>v5&#45;&gt;v13</title>
<path fill="none" stroke="black" d="M245.909,-58.7527C237.942,-49.6476 225.69,-35.6462 216.671,-25.3379"/>
<polygon fill="black" stroke="black" points="213.267,-21.4482 218.253,-23.7294 214.913,-23.3296 216.56,-25.2111 216.56,-25.2111 216.56,-25.2111 214.913,-23.3296 214.866,-26.6927 213.267,-21.4482 213.267,-21.4482"/>
</g>
<!-- v6&#45;&gt;v7 -->
<g id="edge22" class="edge"><title>v6&#45;&gt;v7</title>
<path fill="none" stroke="black" d="M181.153,-59.4948C168.331,-50.2888 147.734,-35.5013 132.928,-24.8712"/>
<polygon fill="black" stroke="black" points="128.534,-21.7165 133.908,-22.8048 130.564,-23.1745 132.595,-24.6326 132.595,-24.6326 132.595,-24.6326 130.564,-23.1745 131.283,-26.4603 128.534,-21.7165 128.534,-21.7165"/>
</g>
<!-- v6&#45;&gt;v12 -->
<g id="edge23" class="edge"><title>v6&#45;&gt;v12</title>
<path fill="none" stroke="black" d="M204.804,-59.737C218.471,-50.1704 241.072,-34.3496 256.479,-23.5646"/>
<polygon fill="black" stroke="black" points="260.621,-20.6656 257.815,-25.3762 258.573,-22.0992 256.524,-23.5329 256.524,-23.5329 256.524,-23.5329 258.573,-22.0992 255.234,-21.6896 260.621,-20.6656 260.621,-20.6656"/>
</g>
<!-- v6&#45;&gt;v13 -->
<g id="edge24" class="edge"><title>v6&#45;&gt;v13</title>
<path fill="none" stroke="black" d="M195.145,-57.9883C196.966,-49.4941 199.607,-37.1697 201.696,-27.4169"/>
<polygon fill="black" stroke="black" points="202.792,-22.3039 203.944,-27.6644 202.268,-24.7484 201.744,-27.1929 201.744,-27.1929 201.744,-27.1929 202.268,-24.7484 199.544,-26.7214 202.792,-22.3039 202.792,-22.3039"/>
</g>
<!-- v8&#45;&gt;v9 -->
<g id="edge25" class="edge"><title>v8&#45;&gt;v9</title>
<path fill="none" stroke="black" d="M673.817,-59.737C638.805,-49.4716 579.231,-32.0049 542.672,-21.2861"/>
<polygon fill="black" stroke="black" points="537.451,-19.7553 542.882,-19.003 539.85,-20.4587 542.249,-21.1621 542.249,-21.1621 542.249,-21.1621 539.85,-20.4587 541.616,-23.3212 537.451,-19.7553 537.451,-19.7553"/>
</g>
<!-- v10 -->
<g id="v10_Impalaseen" class="node"><title>v10</title>
<ellipse fill="none" stroke="black" cx="767" cy="-11" rx="43" ry="11"/>
<text text-anchor="middle" x="767" y="-8.8" font-family="sans-serif" font-size="9.00">Impalaseen</text>
</g>
<!-- v8&#45;&gt;v10 -->
<g id="edge26" class="edge"><title>v8&#45;&gt;v10</title>
<path fill="none" stroke="black" d="M713.322,-58.2455C724.041,-49.011 740.203,-35.0868 751.992,-24.9304"/>
<polygon fill="black" stroke="black" points="755.808,-21.6427 753.488,-26.6109 753.914,-23.2745 752.02,-24.9063 752.02,-24.9063 752.02,-24.9063 753.914,-23.2745 750.551,-23.2016 755.808,-21.6427 755.808,-21.6427"/>
</g>
<!-- v8&#45;&gt;v19 -->
<g id="edge45" class="edge"><title>v8&#45;&gt;v19</title>
<path fill="none" stroke="green" d="M683.322,-79.2524C669.797,-86.0687 650.833,-94.4048 633,-98 571.699,-110.359 498.425,-89.5802 462.716,-77.1985"/>
</g>
<!-- v9&#45;&gt;v10 -->
<g id="edge46" class="edge"><title>v9&#45;&gt;v10</title>
<path fill="none" stroke="green" d="M527.359,-21.2415C539.244,-28.0527 555.986,-36.3871 572,-40 630.095,-53.1067 647.905,-53.1067 706,-40 722.014,-36.3871 738.756,-28.0527 750.641,-21.2415"/>
</g>
<!-- v21 -->
<g id="v21_GPS(0)" class="node"><title>v21</title>
<ellipse fill="none" stroke="black" cx="421" cy="-11" rx="29" ry="11"/>
<text text-anchor="middle" x="421" y="-8.8" font-family="sans-serif" font-size="9.00">GPS(0)</text>
</g>
<!-- v10&#45;&gt;v21 -->
<g id="edge47" class="edge"><title>v10&#45;&gt;v21</title>
<path fill="none" stroke="green" d="M750.641,-21.2415C738.756,-28.0527 722.014,-36.3871 706,-40 654.408,-51.6395 518.881,-54.4341 468,-40 455.086,-36.3366 442.241,-28.007 433.251,-21.2104"/>
</g>
<!-- v14&#45;&gt;v15 -->
<g id="edge27" class="edge"><title>v14&#45;&gt;v15</title>
<path fill="none" stroke="black" d="M1076.47,-59.25C1087.58,-49.9638 1105.24,-35.2025 1117.86,-24.6504"/>
<polygon fill="black" stroke="black" points="1121.94,-21.2473 1119.54,-26.1802 1120.02,-22.8506 1118.1,-24.4538 1118.1,-24.4538 1118.1,-24.4538 1120.02,-22.8506 1116.66,-22.7275 1121.94,-21.2473 1121.94,-21.2473"/>
</g>
<!-- v17&#45;&gt;v18 -->
<g id="edge28" class="edge"><title>v17&#45;&gt;v18</title>
<path fill="none" stroke="black" d="M1242.73,-58.2455C1237,-49.3322 1228.46,-36.0497 1222,-26.0035"/>
<polygon fill="black" stroke="black" points="1219.2,-21.6427 1223.8,-24.6319 1220.55,-23.7456 1221.9,-25.8486 1221.9,-25.8486 1221.9,-25.8486 1220.55,-23.7456 1220.01,-27.0653 1219.2,-21.6427 1219.2,-21.6427"/>
</g>
<!-- v17&#45;&gt;v23 -->
<g id="edge52" class="edge"><title>v17&#45;&gt;v23</title>
<path fill="none" stroke="green" d="M1235.7,-78.9333C1225.65,-85.7878 1211.21,-94.3065 1197,-98 1131.19,-115.111 1109.67,-115.665 1044,-98 1030.43,-94.3504 1016.75,-86.0195 1007.14,-79.2189"/>
</g>
<!-- v19&#45;&gt;v20 -->
<g id="edge29" class="edge"><title>v19&#45;&gt;v20</title>
<path fill="none" stroke="black" d="M425.576,-59.0026C408.865,-49.2548 382.181,-33.6892 364.144,-23.167"/>
<polygon fill="black" stroke="black" points="359.755,-20.6072 365.208,-21.1831 361.915,-21.8669 364.074,-23.1266 364.074,-23.1266 364.074,-23.1266 361.915,-21.8669 362.94,-25.0701 359.755,-20.6072 359.755,-20.6072"/>
</g>
<!-- v19&#45;&gt;v21 -->
<g id="edge30" class="edge"><title>v19&#45;&gt;v21</title>
<path fill="none" stroke="black" d="M437.424,-57.9883C434.324,-49.3083 429.796,-36.6286 426.279,-26.7806"/>
<polygon fill="black" stroke="black" points="424.545,-21.925 428.345,-25.8769 425.386,-24.2794 426.226,-26.6337 426.226,-26.6337 426.226,-26.6337 425.386,-24.2794 424.107,-27.3905 424.545,-21.925 424.545,-21.925"/>
</g>
<!-- v23&#45;&gt;v24 -->
<g id="edge31" class="edge"><title>v23&#45;&gt;v24</title>
<path fill="none" stroke="black" d="M1000.61,-57.9883C1006.46,-49.149 1015.04,-36.162 1021.59,-26.2414"/>
<polygon fill="black" stroke="black" points="1024.44,-21.925 1023.56,-27.337 1023.06,-24.0108 1021.69,-26.0967 1021.69,-26.0967 1021.69,-26.0967 1023.06,-24.0108 1019.81,-24.8563 1024.44,-21.925 1024.44,-21.925"/>
</g>
</g>
</svg>
