<?xml version="1.0" encoding="UTF-8" standalone="no"?>
<?xml-stylesheet href="style.css" type="text/css"?>
<!DOCTYPE svg PUBLIC "-//W3C//DTD SVG 1.1//EN"
 "http://www.w3.org/Graphics/SVG/1.1/DTD/svg11.dtd">
<!-- Generated by graphviz version 2.38.0 (20140413.2041)
 -->
<!-- Title: 66.svg Pages: 1 -->
<svg width="1225pt" height="179pt"
 viewBox="0.00 0.00 1225.00 179.00" xmlns="http://www.w3.org/2000/svg" xmlns:xlink="http://www.w3.org/1999/xlink">
<g id="graph0" class="graph" transform="scale(1 1) rotate(0) translate(4 175)">
<title>66.svg</title>
<polygon fill="white" stroke="none" points="-4,4 -4,-175 1221,-175 1221,4 -4,4"/>
<!-- r0 -->
<g id="node1" class="node"><title>r0</title>
<polygon fill="none" stroke="black" stroke-dasharray="5,2" points="185.5,-171 162.5,-171 162.5,-153 185.5,-153 185.5,-171"/>
<text text-anchor="middle" x="174" y="-159.8" font-family="serif" font-size="9.00">0</text>
</g>
<!-- v8 -->
<g id="v8_Field" class="node"><title>v8</title>
<ellipse fill="none" stroke="black" cx="25" cy="-11" rx="25" ry="11"/>
<text text-anchor="middle" x="25" y="-8.8" font-family="sans-serif" font-size="9.00">Field</text>
</g>
<!-- r0&#45;&gt;v8 -->
<g id="edge1" class="edge"><title>r0&#45;&gt;v8</title>
<path fill="none" stroke="black" d="M162.222,-152.862C142.816,-139.14 103.443,-109.953 75,-80 58.8635,-63.0068 43.3756,-40.7082 34.0231,-26.3641"/>
<polygon fill="black" stroke="black" points="31.0945,-21.8237 35.6956,-24.8059 32.4496,-23.9246 33.8047,-26.0255 33.8047,-26.0255 33.8047,-26.0255 32.4496,-23.9246 31.9139,-27.2451 31.0945,-21.8237 31.0945,-21.8237"/>
</g>
<!-- v9 -->
<g id="v9_Aura" class="node"><title>v9</title>
<ellipse fill="none" stroke="black" cx="235" cy="-69" rx="21.5" ry="11"/>
<text text-anchor="middle" x="235" y="-66.8" font-family="sans-serif" font-size="9.00">Aura</text>
</g>
<!-- r0&#45;&gt;v9 -->
<g id="edge2" class="edge"><title>r0&#45;&gt;v9</title>
<path fill="none" stroke="black" d="M179.413,-152.924C189.789,-137.446 212.593,-103.427 225.537,-84.1163"/>
<polygon fill="black" stroke="black" points="228.602,-79.5439 227.687,-84.9499 227.21,-81.6205 225.818,-83.6971 225.818,-83.6971 225.818,-83.6971 227.21,-81.6205 223.949,-82.4443 228.602,-79.5439 228.602,-79.5439"/>
</g>
<!-- v10 -->
<g id="v10_Aura" class="node"><title>v10</title>
<ellipse fill="none" stroke="black" cx="174" cy="-69" rx="21.5" ry="11"/>
<text text-anchor="middle" x="174" y="-66.8" font-family="sans-serif" font-size="9.00">Aura</text>
</g>
<!-- r0&#45;&gt;v10 -->
<g id="edge3" class="edge"><title>r0&#45;&gt;v10</title>
<path fill="none" stroke="black" d="M174,-152.924C174,-137.736 174,-104.696 174,-85.2178"/>
<polygon fill="black" stroke="black" points="174,-80.1095 176.25,-85.1095 174,-82.6095 174,-85.1095 174,-85.1095 174,-85.1095 174,-82.6095 171.75,-85.1096 174,-80.1095 174,-80.1095"/>
</g>
<!-- v11 -->
<g id="v11_Aura" class="node"><title>v11</title>
<ellipse fill="none" stroke="black" cx="113" cy="-69" rx="21.5" ry="11"/>
<text text-anchor="middle" x="113" y="-66.8" font-family="sans-serif" font-size="9.00">Aura</text>
</g>
<!-- r0&#45;&gt;v11 -->
<g id="edge4" class="edge"><title>r0&#45;&gt;v11</title>
<path fill="none" stroke="black" d="M165.157,-152.911C156.404,-144.557 143.038,-130.826 134,-117 127.42,-106.935 121.956,-94.4673 118.252,-84.9025"/>
<polygon fill="black" stroke="black" points="116.479,-80.1934 120.347,-84.08 117.36,-82.5331 118.241,-84.8728 118.241,-84.8728 118.241,-84.8728 117.36,-82.5331 116.135,-85.6656 116.479,-80.1934 116.479,-80.1934"/>
</g>
<!-- v15 -->
<g id="v15_Aura" class="node"><title>v15</title>
<ellipse fill="none" stroke="black" cx="921" cy="-69" rx="21.5" ry="11"/>
<text text-anchor="middle" x="921" y="-66.8" font-family="sans-serif" font-size="9.00">Aura</text>
</g>
<!-- r0&#45;&gt;v15 -->
<g id="edge5" class="edge"><title>r0&#45;&gt;v15</title>
<path fill="none" stroke="black" d="M185.507,-160.558C253.382,-157.774 608.125,-140.771 890,-80 893.12,-79.3274 896.371,-78.4653 899.543,-77.53"/>
<polygon fill="black" stroke="black" points="904.434,-76.0167 900.323,-79.6441 902.046,-76.7557 899.658,-77.4947 899.658,-77.4947 899.658,-77.4947 902.046,-76.7557 898.993,-75.3452 904.434,-76.0167 904.434,-76.0167"/>
</g>
<!-- r1 -->
<g id="node2" class="node"><title>r1</title>
<polygon fill="none" stroke="black" stroke-dasharray="5,2" points="863.5,-171 840.5,-171 840.5,-153 863.5,-153 863.5,-171"/>
<text text-anchor="middle" x="852" y="-159.8" font-family="serif" font-size="9.00">1</text>
</g>
<!-- v2 -->
<g id="v2_Locale" class="node"><title>v2</title>
<ellipse fill="none" stroke="black" cx="738" cy="-69" rx="29" ry="11"/>
<text text-anchor="middle" x="738" y="-66.8" font-family="sans-serif" font-size="9.00">Locale</text>
</g>
<!-- r1&#45;&gt;v2 -->
<g id="edge6" class="edge"><title>r1&#45;&gt;v2</title>
<path fill="none" stroke="black" d="M841.883,-152.924C821.979,-137.036 777.603,-101.613 753.802,-82.6139"/>
<polygon fill="black" stroke="black" points="749.608,-79.266 754.919,-80.6268 751.562,-80.8256 753.516,-82.3853 753.516,-82.3853 753.516,-82.3853 751.562,-80.8256 752.112,-84.1438 749.608,-79.266 749.608,-79.266"/>
</g>
<!-- v6 -->
<g id="v6_Locale" class="node"><title>v6</title>
<ellipse fill="none" stroke="black" cx="852" cy="-69" rx="29" ry="11"/>
<text text-anchor="middle" x="852" y="-66.8" font-family="sans-serif" font-size="9.00">Locale</text>
</g>
<!-- r1&#45;&gt;v6 -->
<g id="edge7" class="edge"><title>r1&#45;&gt;v6</title>
<path fill="none" stroke="black" d="M852,-152.924C852,-137.736 852,-104.696 852,-85.2178"/>
<polygon fill="black" stroke="black" points="852,-80.1095 854.25,-85.1095 852,-82.6095 852,-85.1095 852,-85.1095 852,-85.1095 852,-82.6095 849.75,-85.1096 852,-80.1095 852,-80.1095"/>
</g>
<!-- v19 -->
<g id="v19_Locale" class="node"><title>v19</title>
<ellipse fill="none" stroke="black" cx="1188" cy="-69" rx="29" ry="11"/>
<text text-anchor="middle" x="1188" y="-66.8" font-family="sans-serif" font-size="9.00">Locale</text>
</g>
<!-- r1&#45;&gt;v19 -->
<g id="edge8" class="edge"><title>r1&#45;&gt;v19</title>
<path fill="none" stroke="black" d="M863.525,-159.422C896.298,-154.774 992.653,-140.006 1070,-117 1104.33,-106.788 1142.61,-90.611 1166,-80.1514"/>
<polygon fill="black" stroke="black" points="1170.76,-78.0104 1167.12,-82.114 1168.48,-79.0363 1166.2,-80.0621 1166.2,-80.0621 1166.2,-80.0621 1168.48,-79.0363 1165.27,-78.0103 1170.76,-78.0104 1170.76,-78.0104"/>
</g>
<!-- r2 -->
<g id="node3" class="node"><title>r2</title>
<polygon fill="none" stroke="black" stroke-dasharray="5,2" points="593.5,-171 570.5,-171 570.5,-153 593.5,-153 593.5,-171"/>
<text text-anchor="middle" x="582" y="-159.8" font-family="serif" font-size="9.00">2</text>
</g>
<!-- v0 -->
<g id="v0_Area(1)" class="node"><title>v0</title>
<ellipse fill="none" stroke="black" cx="460" cy="-69" rx="32.5" ry="11"/>
<text text-anchor="middle" x="460" y="-66.8" font-family="sans-serif" font-size="9.00">Area(1)</text>
</g>
<!-- r2&#45;&gt;v0 -->
<g id="edge9" class="edge"><title>r2&#45;&gt;v0</title>
<path fill="none" stroke="black" d="M570.301,-155.939C554.219,-148.67 524.798,-134.234 503,-117 490.702,-107.277 478.84,-93.9117 470.701,-83.9184"/>
<polygon fill="black" stroke="black" points="467.45,-79.8625 472.333,-82.357 469.014,-81.8133 470.577,-83.7641 470.577,-83.7641 470.577,-83.7641 469.014,-81.8133 468.822,-85.1713 467.45,-79.8625 467.45,-79.8625"/>
</g>
<!-- v4 -->
<g id="v4_Area(0)" class="node"><title>v4</title>
<ellipse fill="none" stroke="black" cx="582" cy="-69" rx="32.5" ry="11"/>
<text text-anchor="middle" x="582" y="-66.8" font-family="sans-serif" font-size="9.00">Area(0)</text>
</g>
<!-- r2&#45;&gt;v4 -->
<g id="edge10" class="edge"><title>r2&#45;&gt;v4</title>
<path fill="none" stroke="black" d="M582,-152.924C582,-137.736 582,-104.696 582,-85.2178"/>
<polygon fill="black" stroke="black" points="582,-80.1095 584.25,-85.1095 582,-82.6095 582,-85.1095 582,-85.1095 582,-85.1095 582,-82.6095 579.75,-85.1096 582,-80.1095 582,-80.1095"/>
</g>
<!-- v23 -->
<g id="v23_Area(2)" class="node"><title>v23</title>
<ellipse fill="none" stroke="black" cx="1108" cy="-69" rx="32.5" ry="11"/>
<text text-anchor="middle" x="1108" y="-66.8" font-family="sans-serif" font-size="9.00">Area(2)</text>
</g>
<!-- r2&#45;&gt;v23 -->
<g id="edge11" class="edge"><title>r2&#45;&gt;v23</title>
<path fill="none" stroke="black" d="M593.504,-161.045C642.987,-160.977 842.308,-158.032 999,-117 1031.06,-108.604 1065.86,-92.2058 1087.3,-81.1748"/>
<polygon fill="black" stroke="black" points="1091.93,-78.7699 1088.53,-83.0718 1089.71,-79.9226 1087.5,-81.0752 1087.5,-81.0752 1087.5,-81.0752 1089.71,-79.9226 1086.46,-79.0787 1091.93,-78.7699 1091.93,-78.7699"/>
</g>
<!-- e1 -->
<g id="node4" class="node"><title>e1</title>
</g>
<!-- v1 -->
<g id="v1_GPS(7)" class="node"><title>v1</title>
<ellipse fill="none" stroke="black" cx="335" cy="-11" rx="29" ry="11"/>
<text text-anchor="middle" x="335" y="-8.8" font-family="sans-serif" font-size="9.00">GPS(7)</text>
</g>
<!-- e1&#45;&gt;v1 -->
<g id="edge33" class="edge"><title>e1&#45;&gt;v1</title>
<path fill="none" stroke="green" d="M144,-116C144,-116 216.591,-108.366 265,-80 291.605,-64.4102 315.761,-36.6178 327.504,-21.8529"/>
</g>
<!-- v3 -->
<g id="v3_Lion" class="node"><title>v3</title>
<ellipse fill="none" stroke="black" cx="668" cy="-11" rx="21.5" ry="11"/>
<text text-anchor="middle" x="668" y="-8.8" font-family="sans-serif" font-size="9.00">Lion</text>
</g>
<!-- e1&#45;&gt;v3 -->
<g id="edge34" class="edge"><title>e1&#45;&gt;v3</title>
<path fill="none" stroke="green" d="M144,-116C144,-116 576.966,-107.009 623,-80 645.466,-66.8183 658.884,-37.4564 664.655,-21.983"/>
</g>
<!-- e1&#45;&gt;v11 -->
<g id="edge35" class="edge"><title>e1&#45;&gt;v11</title>
<path fill="none" stroke="green" d="M144,-116C144,-116 128.674,-93.2583 119.574,-79.7554"/>
</g>
<!-- v14 -->
<g id="v14_Child" class="node"><title>v14</title>
<ellipse fill="none" stroke="black" cx="110" cy="-11" rx="25" ry="11"/>
<text text-anchor="middle" x="110" y="-8.8" font-family="sans-serif" font-size="9.00">Child</text>
</g>
<!-- e1&#45;&gt;v14 -->
<g id="edge36" class="edge"><title>e1&#45;&gt;v14</title>
<path fill="none" stroke="green" d="M144,-116C144,-116 97.8979,-107.615 82,-80 70.6615,-60.305 88.6275,-35.1231 100.628,-21.6063"/>
</g>
<!-- e3 -->
<g id="node5" class="node"><title>e3</title>
</g>
<!-- v5 -->
<g id="v5_GPS(8)" class="node"><title>v5</title>
<ellipse fill="none" stroke="black" cx="521" cy="-11" rx="29" ry="11"/>
<text text-anchor="middle" x="521" y="-8.8" font-family="sans-serif" font-size="9.00">GPS(8)</text>
</g>
<!-- e3&#45;&gt;v5 -->
<g id="edge38" class="edge"><title>e3&#45;&gt;v5</title>
<path fill="none" stroke="green" d="M513,-116C513,-116 518.18,-48.6577 520.204,-22.3521"/>
</g>
<!-- v7 -->
<g id="v7_Lion" class="node"><title>v7</title>
<ellipse fill="none" stroke="black" cx="795" cy="-11" rx="21.5" ry="11"/>
<text text-anchor="middle" x="795" y="-8.8" font-family="sans-serif" font-size="9.00">Lion</text>
</g>
<!-- e3&#45;&gt;v7 -->
<g id="edge39" class="edge"><title>e3&#45;&gt;v7</title>
<path fill="none" stroke="green" d="M513,-116C513,-116 731.542,-118.772 776,-80 792.813,-65.337 795.323,-37.1536 795.37,-22.0852"/>
</g>
<!-- e3&#45;&gt;v9 -->
<g id="edge40" class="edge"><title>e3&#45;&gt;v9</title>
<path fill="none" stroke="green" d="M513,-116C513,-116 318.736,-83.8556 254.993,-73.3082"/>
</g>
<!-- v12 -->
<g id="v12_Child" class="node"><title>v12</title>
<ellipse fill="none" stroke="black" cx="246" cy="-11" rx="25" ry="11"/>
<text text-anchor="middle" x="246" y="-8.8" font-family="sans-serif" font-size="9.00">Child</text>
</g>
<!-- e3&#45;&gt;v12 -->
<g id="edge41" class="edge"><title>e3&#45;&gt;v12</title>
<path fill="none" stroke="green" d="M513,-116C513,-116 460.107,-96.3007 418,-80 361.405,-58.0906 294.626,-31.4678 263.548,-19.0331"/>
</g>
<!-- e4 -->
<g id="node6" class="node"><title>e4</title>
</g>
<!-- e4&#45;&gt;v10 -->
<g id="edge42" class="edge"><title>e4&#45;&gt;v10</title>
<path fill="none" stroke="green" d="M342,-116C342,-116 264.767,-98.0322 204,-80 199.789,-78.7505 195.281,-77.3054 191.072,-75.909"/>
</g>
<!-- v13 -->
<g id="v13_Child" class="node"><title>v13</title>
<ellipse fill="none" stroke="black" cx="178" cy="-11" rx="25" ry="11"/>
<text text-anchor="middle" x="178" y="-8.8" font-family="sans-serif" font-size="9.00">Child</text>
</g>
<!-- e4&#45;&gt;v13 -->
<g id="edge43" class="edge"><title>e4&#45;&gt;v13</title>
<path fill="none" stroke="green" d="M342,-116C342,-116 301.164,-80.9749 265,-58 241.205,-42.8829 211.942,-28.1433 194.144,-19.5746"/>
</g>
<!-- v18 -->
<g id="v18_Lion" class="node"><title>v18</title>
<ellipse fill="none" stroke="black" cx="732" cy="-11" rx="21.5" ry="11"/>
<text text-anchor="middle" x="732" y="-8.8" font-family="sans-serif" font-size="9.00">Lion</text>
</g>
<!-- e4&#45;&gt;v18 -->
<g id="edge44" class="edge"><title>e4&#45;&gt;v18</title>
<path fill="none" stroke="green" d="M342,-116C342,-116 592.816,-109.059 657,-80 686.781,-66.5166 712.879,-36.7295 724.924,-21.4479"/>
</g>
<!-- v22 -->
<g id="v22_GPS(2)" class="node"><title>v22</title>
<ellipse fill="none" stroke="black" cx="434" cy="-11" rx="29" ry="11"/>
<text text-anchor="middle" x="434" y="-8.8" font-family="sans-serif" font-size="9.00">GPS(2)</text>
</g>
<!-- e4&#45;&gt;v22 -->
<g id="edge45" class="edge"><title>e4&#45;&gt;v22</title>
<path fill="none" stroke="green" d="M342,-116C342,-116 402.734,-47.3438 425.51,-21.5977"/>
</g>
<!-- e5 -->
<g id="node7" class="node"><title>e5</title>
</g>
<!-- e5&#45;&gt;v15 -->
<g id="edge46" class="edge"><title>e5&#45;&gt;v15</title>
<path fill="none" stroke="green" d="M990,-116C990,-116 953.183,-91.4551 933.336,-78.2239"/>
</g>
<!-- v16 -->
<g id="v16_Child" class="node"><title>v16</title>
<ellipse fill="none" stroke="black" cx="954" cy="-11" rx="25" ry="11"/>
<text text-anchor="middle" x="954" y="-8.8" font-family="sans-serif" font-size="9.00">Child</text>
</g>
<!-- e5&#45;&gt;v16 -->
<g id="edge47" class="edge"><title>e5&#45;&gt;v16</title>
<path fill="none" stroke="green" d="M990,-116C990,-116 966.462,-48.0023 957.452,-21.972"/>
</g>
<!-- v20 -->
<g id="v20_Lion" class="node"><title>v20</title>
<ellipse fill="none" stroke="black" cx="1150" cy="-11" rx="21.5" ry="11"/>
<text text-anchor="middle" x="1150" y="-8.8" font-family="sans-serif" font-size="9.00">Lion</text>
</g>
<!-- e5&#45;&gt;v20 -->
<g id="edge48" class="edge"><title>e5&#45;&gt;v20</title>
<path fill="none" stroke="green" d="M990,-116C990,-116 1030.38,-81.1591 1066,-58 1089.42,-42.7753 1118.28,-27.7224 1135.35,-19.1726"/>
</g>
<!-- v24 -->
<g id="v24_GPS(4)" class="node"><title>v24</title>
<ellipse fill="none" stroke="black" cx="1026" cy="-11" rx="29" ry="11"/>
<text text-anchor="middle" x="1026" y="-8.8" font-family="sans-serif" font-size="9.00">GPS(4)</text>
</g>
<!-- e5&#45;&gt;v24 -->
<g id="edge49" class="edge"><title>e5&#45;&gt;v24</title>
<path fill="none" stroke="green" d="M990,-116C990,-116 1013.54,-48.0023 1022.55,-21.972"/>
</g>
<!-- v0&#45;&gt;v1 -->
<g id="edge12" class="edge"><title>v0&#45;&gt;v1</title>
<path fill="none" stroke="black" d="M441.824,-59.8571C419.479,-49.8466 381.561,-32.8594 357.428,-22.0475"/>
<polygon fill="black" stroke="black" points="352.793,-19.9714 358.276,-19.9623 355.075,-20.9935 357.356,-22.0157 357.356,-22.0157 357.356,-22.0157 355.075,-20.9935 356.436,-24.069 352.793,-19.9714 352.793,-19.9714"/>
</g>
<!-- v0&#45;&gt;v2 -->
<g id="edge32" class="edge"><title>v0&#45;&gt;v2</title>
<path fill="none" stroke="green" d="M480.404,-77.6914C498.155,-84.7532 524.765,-94.1511 549,-98 609.135,-107.55 627.07,-113.322 686,-98 700.206,-94.3065 714.651,-85.7878 724.7,-78.9333"/>
</g>
<!-- v0&#45;&gt;v22 -->
<g id="edge13" class="edge"><title>v0&#45;&gt;v22</title>
<path fill="none" stroke="black" d="M455.352,-57.9883C451.285,-49.2286 445.327,-36.3956 440.737,-26.5103"/>
<polygon fill="black" stroke="black" points="438.608,-21.925 442.754,-25.5125 439.661,-24.1925 440.714,-26.4601 440.714,-26.4601 440.714,-26.4601 439.661,-24.1925 438.673,-27.4076 438.608,-21.925 438.608,-21.925"/>
</g>
<!-- v2&#45;&gt;v3 -->
<g id="edge14" class="edge"><title>v2&#45;&gt;v3</title>
<path fill="none" stroke="black" d="M726.441,-58.7527C714.579,-49.2632 696.069,-34.4551 683.066,-24.0526"/>
<polygon fill="black" stroke="black" points="678.885,-20.7077 684.195,-22.0743 680.837,-22.2695 682.789,-23.8313 682.789,-23.8313 682.789,-23.8313 680.837,-22.2695 681.383,-25.5882 678.885,-20.7077 678.885,-20.7077"/>
</g>
<!-- v2&#45;&gt;v18 -->
<g id="edge15" class="edge"><title>v2&#45;&gt;v18</title>
<path fill="none" stroke="black" d="M736.927,-57.9883C736.017,-49.4941 734.697,-37.1697 733.652,-27.4169"/>
<polygon fill="black" stroke="black" points="733.104,-22.3039 735.874,-27.0357 733.37,-24.7896 733.637,-27.2754 733.637,-27.2754 733.637,-27.2754 733.37,-24.7896 731.4,-27.5152 733.104,-22.3039 733.104,-22.3039"/>
</g>
<!-- v4&#45;&gt;v5 -->
<g id="edge16" class="edge"><title>v4&#45;&gt;v5</title>
<path fill="none" stroke="black" d="M571.652,-58.5004C561.601,-49.2734 546.266,-35.1949 535.102,-24.9459"/>
<polygon fill="black" stroke="black" points="531.195,-21.3593 536.4,-23.0833 533.037,-23.05 534.878,-24.7407 534.878,-24.7407 534.878,-24.7407 533.037,-23.05 533.357,-26.3982 531.195,-21.3593 531.195,-21.3593"/>
</g>
<!-- v4&#45;&gt;v6 -->
<g id="edge37" class="edge"><title>v4&#45;&gt;v6</title>
<path fill="none" stroke="green" d="M603.686,-77.3183C643.262,-91.3069 729.606,-116.302 800,-98 814.206,-94.3065 828.651,-85.7878 838.7,-78.9333"/>
</g>
<!-- v21 -->
<g id="v21_GPS(0)" class="node"><title>v21</title>
<ellipse fill="none" stroke="black" cx="597" cy="-11" rx="29" ry="11"/>
<text text-anchor="middle" x="597" y="-8.8" font-family="sans-serif" font-size="9.00">GPS(0)</text>
</g>
<!-- v4&#45;&gt;v21 -->
<g id="edge17" class="edge"><title>v4&#45;&gt;v21</title>
<path fill="none" stroke="black" d="M584.682,-57.9883C586.978,-49.4154 590.319,-36.9411 592.943,-27.1466"/>
<polygon fill="black" stroke="black" points="594.24,-22.3039 595.12,-27.7158 593.593,-24.7187 592.946,-27.1336 592.946,-27.1336 592.946,-27.1336 593.593,-24.7187 590.773,-26.5514 594.24,-22.3039 594.24,-22.3039"/>
</g>
<!-- v6&#45;&gt;v7 -->
<g id="edge18" class="edge"><title>v6&#45;&gt;v7</title>
<path fill="none" stroke="black" d="M842.331,-58.5004C832.826,-49.1622 818.263,-34.8549 807.802,-24.5772"/>
<polygon fill="black" stroke="black" points="804.15,-20.9896 809.294,-22.8887 805.933,-22.7417 807.717,-24.4937 807.717,-24.4937 807.717,-24.4937 805.933,-22.7417 806.14,-26.0988 804.15,-20.9896 804.15,-20.9896"/>
</g>
<!-- v17 -->
<g id="v17_Impala" class="node"><title>v17</title>
<ellipse fill="none" stroke="black" cx="864" cy="-11" rx="29" ry="11"/>
<text text-anchor="middle" x="864" y="-8.8" font-family="sans-serif" font-size="9.00">Impala</text>
</g>
<!-- v6&#45;&gt;v17 -->
<g id="edge19" class="edge"><title>v6&#45;&gt;v17</title>
<path fill="none" stroke="black" d="M854.145,-57.9883C855.966,-49.4941 858.607,-37.1697 860.696,-27.4169"/>
<polygon fill="black" stroke="black" points="861.792,-22.3039 862.944,-27.6644 861.268,-24.7484 860.744,-27.1929 860.744,-27.1929 860.744,-27.1929 861.268,-24.7484 858.544,-26.7214 861.792,-22.3039 861.792,-22.3039"/>
</g>
<!-- v9&#45;&gt;v12 -->
<g id="edge20" class="edge"><title>v9&#45;&gt;v12</title>
<path fill="none" stroke="black" d="M236.967,-57.9883C238.635,-49.4941 241.056,-37.1697 242.972,-27.4169"/>
<polygon fill="black" stroke="black" points="243.976,-22.3039 245.22,-27.6438 243.494,-24.757 243.012,-27.2101 243.012,-27.2101 243.012,-27.2101 243.494,-24.757 240.804,-26.7764 243.976,-22.3039 243.976,-22.3039"/>
</g>
<!-- v9&#45;&gt;v13 -->
<g id="edge21" class="edge"><title>v9&#45;&gt;v13</title>
<path fill="none" stroke="black" d="M225.842,-59.0026C216.537,-49.8606 202.023,-35.6014 191.42,-25.1846"/>
<polygon fill="black" stroke="black" points="187.708,-21.5373 192.851,-23.4364 189.491,-23.2894 191.274,-25.0414 191.274,-25.0414 191.274,-25.0414 189.491,-23.2894 189.697,-26.6465 187.708,-21.5373 187.708,-21.5373"/>
</g>
<!-- v9&#45;&gt;v14 -->
<g id="edge22" class="edge"><title>v9&#45;&gt;v14</title>
<path fill="none" stroke="black" d="M219.673,-61.1333C197.548,-51.2214 156.568,-32.8624 131.449,-21.6093"/>
<polygon fill="black" stroke="black" points="126.647,-19.4581 132.13,-19.449 128.929,-20.4802 131.211,-21.5024 131.211,-21.5024 131.211,-21.5024 128.929,-20.4802 130.291,-23.5557 126.647,-19.4581 126.647,-19.4581"/>
</g>
<!-- v10&#45;&gt;v12 -->
<g id="edge23" class="edge"><title>v10&#45;&gt;v12</title>
<path fill="none" stroke="black" d="M184.935,-59.4948C197.057,-50.067 216.705,-34.7854 230.43,-24.1101"/>
<polygon fill="black" stroke="black" points="234.484,-20.9566 231.919,-25.8024 232.511,-22.4915 230.538,-24.0264 230.538,-24.0264 230.538,-24.0264 232.511,-22.4915 229.156,-22.2503 234.484,-20.9566 234.484,-20.9566"/>
</g>
<!-- v10&#45;&gt;v13 -->
<g id="edge24" class="edge"><title>v10&#45;&gt;v13</title>
<path fill="none" stroke="black" d="M174.715,-57.9883C175.322,-49.4941 176.202,-37.1697 176.899,-27.4169"/>
<polygon fill="black" stroke="black" points="177.264,-22.3039 179.152,-27.4515 177.086,-24.7975 176.908,-27.2912 176.908,-27.2912 176.908,-27.2912 177.086,-24.7975 174.663,-27.1308 177.264,-22.3039 177.264,-22.3039"/>
</g>
<!-- v10&#45;&gt;v14 -->
<g id="edge25" class="edge"><title>v10&#45;&gt;v14</title>
<path fill="none" stroke="black" d="M164,-59.25C153.387,-49.9638 136.517,-35.2025 124.458,-24.6504"/>
<polygon fill="black" stroke="black" points="120.568,-21.2473 125.813,-22.8465 122.45,-22.8935 124.331,-24.5398 124.331,-24.5398 124.331,-24.5398 122.45,-22.8935 122.85,-26.2331 120.568,-21.2473 120.568,-21.2473"/>
</g>
<!-- v11&#45;&gt;v12 -->
<g id="edge26" class="edge"><title>v11&#45;&gt;v12</title>
<path fill="none" stroke="black" d="M128.779,-61.3562C152.488,-51.3736 197.373,-32.4747 224.195,-21.1809"/>
<polygon fill="black" stroke="black" points="228.984,-19.1645 225.249,-23.1785 226.68,-20.1346 224.376,-21.1048 224.376,-21.1048 224.376,-21.1048 226.68,-20.1346 223.503,-19.0311 228.984,-19.1645 228.984,-19.1645"/>
</g>
<!-- v11&#45;&gt;v13 -->
<g id="edge27" class="edge"><title>v11&#45;&gt;v13</title>
<path fill="none" stroke="black" d="M123.156,-59.25C133.935,-49.9638 151.069,-35.2025 163.316,-24.6504"/>
<polygon fill="black" stroke="black" points="167.267,-21.2473 164.947,-26.2155 165.373,-22.8791 163.479,-24.5108 163.479,-24.5108 163.479,-24.5108 165.373,-22.8791 162.01,-22.8062 167.267,-21.2473 167.267,-21.2473"/>
</g>
<!-- v11&#45;&gt;v14 -->
<g id="edge28" class="edge"><title>v11&#45;&gt;v14</title>
<path fill="none" stroke="black" d="M112.464,-57.9883C112.009,-49.4941 111.348,-37.1697 110.826,-27.4169"/>
<polygon fill="black" stroke="black" points="110.552,-22.3039 113.066,-27.1763 110.686,-24.8003 110.82,-27.2967 110.82,-27.2967 110.82,-27.2967 110.686,-24.8003 108.573,-27.4171 110.552,-22.3039 110.552,-22.3039"/>
</g>
<!-- v15&#45;&gt;v16 -->
<g id="edge29" class="edge"><title>v15&#45;&gt;v16</title>
<path fill="none" stroke="black" d="M926.748,-58.2455C931.937,-49.4409 939.637,-36.373 945.531,-26.3724"/>
<polygon fill="black" stroke="black" points="948.096,-22.0198 947.495,-27.4698 946.826,-24.1736 945.557,-26.3275 945.557,-26.3275 945.557,-26.3275 946.826,-24.1736 943.619,-25.1851 948.096,-22.0198 948.096,-22.0198"/>
</g>
<!-- v17&#45;&gt;v21 -->
<g id="edge50" class="edge"><title>v17&#45;&gt;v21</title>
<path fill="none" stroke="green" d="M851.453,-21.2134C842.255,-28.0113 829.13,-36.3414 816,-40 743.217,-60.2796 718.874,-59.9489 646,-40 632.652,-36.346 619.249,-28.0155 609.843,-21.2162"/>
</g>
<!-- v19&#45;&gt;v20 -->
<g id="edge30" class="edge"><title>v19&#45;&gt;v20</title>
<path fill="none" stroke="black" d="M1181.38,-58.2455C1175.33,-49.3322 1166.32,-36.0497 1159.5,-26.0035"/>
<polygon fill="black" stroke="black" points="1156.54,-21.6427 1161.21,-24.5167 1157.95,-23.7114 1159.35,-25.7801 1159.35,-25.7801 1159.35,-25.7801 1157.95,-23.7114 1157.49,-27.0435 1156.54,-21.6427 1156.54,-21.6427"/>
</g>
<!-- v19&#45;&gt;v23 -->
<g id="edge51" class="edge"><title>v19&#45;&gt;v23</title>
<path fill="none" stroke="green" d="M1158.68,-69C1152.62,-69 1146.56,-69 1140.5,-69"/>
</g>
<!-- v23&#45;&gt;v24 -->
<g id="edge31" class="edge"><title>v23&#45;&gt;v24</title>
<path fill="none" stroke="black" d="M1094.46,-58.7527C1080.53,-49.237 1058.76,-34.3733 1043.52,-23.9665"/>
<polygon fill="black" stroke="black" points="1039.02,-20.8908 1044.42,-21.8526 1041.08,-22.3007 1043.15,-23.7106 1043.15,-23.7106 1043.15,-23.7106 1041.08,-22.3007 1041.88,-25.5687 1039.02,-20.8908 1039.02,-20.8908"/>
</g>
</g>
</svg>
