<?xml version="1.0" encoding="UTF-8" standalone="no"?>
<?xml-stylesheet href="style.css" type="text/css"?>
<!DOCTYPE svg PUBLIC "-//W3C//DTD SVG 1.1//EN"
 "http://www.w3.org/Graphics/SVG/1.1/DTD/svg11.dtd">
<!-- Generated by graphviz version 2.38.0 (20140413.2041)
 -->
<!-- Title: 83.svg Pages: 1 -->
<svg width="1225pt" height="179pt"
 viewBox="0.00 0.00 1224.50 179.00" xmlns="http://www.w3.org/2000/svg" xmlns:xlink="http://www.w3.org/1999/xlink">
<g id="graph0" class="graph" transform="scale(1 1) rotate(0) translate(4 175)">
<title>83.svg</title>
<polygon fill="white" stroke="none" points="-4,4 -4,-175 1220.5,-175 1220.5,4 -4,4"/>
<!-- r0 -->
<g id="node1" class="node"><title>r0</title>
<polygon fill="none" stroke="black" stroke-dasharray="5,2" points="185.5,-171 162.5,-171 162.5,-153 185.5,-153 185.5,-171"/>
<text text-anchor="middle" x="174" y="-159.8" font-family="serif" font-size="9.00">0</text>
</g>
<!-- v10 -->
<g id="v10_Field" class="node"><title>v10</title>
<ellipse fill="none" stroke="black" cx="25" cy="-11" rx="25" ry="11"/>
<text text-anchor="middle" x="25" y="-8.8" font-family="sans-serif" font-size="9.00">Field</text>
</g>
<!-- r0&#45;&gt;v10 -->
<g id="edge1" class="edge"><title>r0&#45;&gt;v10</title>
<path fill="none" stroke="black" d="M162.222,-152.862C142.816,-139.14 103.443,-109.953 75,-80 58.8635,-63.0068 43.3756,-40.7082 34.0231,-26.3641"/>
<polygon fill="black" stroke="black" points="31.0945,-21.8237 35.6956,-24.8059 32.4496,-23.9246 33.8047,-26.0255 33.8047,-26.0255 33.8047,-26.0255 32.4496,-23.9246 31.9139,-27.2451 31.0945,-21.8237 31.0945,-21.8237"/>
</g>
<!-- v11 -->
<g id="v11_Aura" class="node"><title>v11</title>
<ellipse fill="none" stroke="black" cx="113" cy="-69" rx="21.5" ry="11"/>
<text text-anchor="middle" x="113" y="-66.8" font-family="sans-serif" font-size="9.00">Aura</text>
</g>
<!-- r0&#45;&gt;v11 -->
<g id="edge2" class="edge"><title>r0&#45;&gt;v11</title>
<path fill="none" stroke="black" d="M165.157,-152.911C156.404,-144.557 143.038,-130.826 134,-117 127.42,-106.935 121.956,-94.4673 118.252,-84.9025"/>
<polygon fill="black" stroke="black" points="116.479,-80.1934 120.347,-84.08 117.36,-82.5331 118.241,-84.8728 118.241,-84.8728 118.241,-84.8728 117.36,-82.5331 116.135,-85.6656 116.479,-80.1934 116.479,-80.1934"/>
</g>
<!-- v12 -->
<g id="v12_Aura" class="node"><title>v12</title>
<ellipse fill="none" stroke="black" cx="235" cy="-69" rx="21.5" ry="11"/>
<text text-anchor="middle" x="235" y="-66.8" font-family="sans-serif" font-size="9.00">Aura</text>
</g>
<!-- r0&#45;&gt;v12 -->
<g id="edge3" class="edge"><title>r0&#45;&gt;v12</title>
<path fill="none" stroke="black" d="M179.413,-152.924C189.789,-137.446 212.593,-103.427 225.537,-84.1163"/>
<polygon fill="black" stroke="black" points="228.602,-79.5439 227.687,-84.9499 227.21,-81.6205 225.818,-83.6971 225.818,-83.6971 225.818,-83.6971 227.21,-81.6205 223.949,-82.4443 228.602,-79.5439 228.602,-79.5439"/>
</g>
<!-- v13 -->
<g id="v13_Aura" class="node"><title>v13</title>
<ellipse fill="none" stroke="black" cx="174" cy="-69" rx="21.5" ry="11"/>
<text text-anchor="middle" x="174" y="-66.8" font-family="sans-serif" font-size="9.00">Aura</text>
</g>
<!-- r0&#45;&gt;v13 -->
<g id="edge4" class="edge"><title>r0&#45;&gt;v13</title>
<path fill="none" stroke="black" d="M174,-152.924C174,-137.736 174,-104.696 174,-85.2178"/>
<polygon fill="black" stroke="black" points="174,-80.1095 176.25,-85.1095 174,-82.6095 174,-85.1095 174,-85.1095 174,-85.1095 174,-82.6095 171.75,-85.1096 174,-80.1095 174,-80.1095"/>
</g>
<!-- v17 -->
<g id="v17_Aura" class="node"><title>v17</title>
<ellipse fill="none" stroke="black" cx="997" cy="-69" rx="21.5" ry="11"/>
<text text-anchor="middle" x="997" y="-66.8" font-family="sans-serif" font-size="9.00">Aura</text>
</g>
<!-- r0&#45;&gt;v17 -->
<g id="edge5" class="edge"><title>r0&#45;&gt;v17</title>
<path fill="none" stroke="black" d="M185.66,-160.539C257.625,-157.538 648.555,-139.038 961,-80 965.398,-79.169 970.04,-78.0595 974.476,-76.8819"/>
<polygon fill="black" stroke="black" points="979.561,-75.481 975.338,-78.9783 977.151,-76.1451 974.741,-76.8091 974.741,-76.8091 974.741,-76.8091 977.151,-76.1451 974.143,-74.6399 979.561,-75.481 979.561,-75.481"/>
</g>
<!-- r1 -->
<g id="node2" class="node"><title>r1</title>
<polygon fill="none" stroke="black" stroke-dasharray="5,2" points="657.5,-171 634.5,-171 634.5,-153 657.5,-153 657.5,-171"/>
<text text-anchor="middle" x="646" y="-159.8" font-family="serif" font-size="9.00">1</text>
</g>
<!-- v3 -->
<g id="v3_Locale" class="node"><title>v3</title>
<ellipse fill="none" stroke="black" cx="646" cy="-69" rx="29" ry="11"/>
<text text-anchor="middle" x="646" y="-66.8" font-family="sans-serif" font-size="9.00">Locale</text>
</g>
<!-- r1&#45;&gt;v3 -->
<g id="edge6" class="edge"><title>r1&#45;&gt;v3</title>
<path fill="none" stroke="black" d="M646,-152.924C646,-137.736 646,-104.696 646,-85.2178"/>
<polygon fill="black" stroke="black" points="646,-80.1095 648.25,-85.1095 646,-82.6095 646,-85.1095 646,-85.1095 646,-85.1095 646,-82.6095 643.75,-85.1096 646,-80.1095 646,-80.1095"/>
</g>
<!-- v4 -->
<g id="v4_Locale" class="node"><title>v4</title>
<ellipse fill="none" stroke="black" cx="806" cy="-69" rx="29" ry="11"/>
<text text-anchor="middle" x="806" y="-66.8" font-family="sans-serif" font-size="9.00">Locale</text>
</g>
<!-- r1&#45;&gt;v4 -->
<g id="edge7" class="edge"><title>r1&#45;&gt;v4</title>
<path fill="none" stroke="black" d="M657.507,-154.456C684.551,-139.074 752.419,-100.474 786.225,-81.2471"/>
<polygon fill="black" stroke="black" points="790.957,-78.5559 787.723,-82.9837 788.783,-79.7919 786.61,-81.0279 786.61,-81.0279 786.61,-81.0279 788.783,-79.7919 785.498,-79.0721 790.957,-78.5559 790.957,-78.5559"/>
</g>
<!-- v8 -->
<g id="v8_Locale" class="node"><title>v8</title>
<ellipse fill="none" stroke="black" cx="418" cy="-69" rx="29" ry="11"/>
<text text-anchor="middle" x="418" y="-66.8" font-family="sans-serif" font-size="9.00">Locale</text>
</g>
<!-- r1&#45;&gt;v8 -->
<g id="edge8" class="edge"><title>r1&#45;&gt;v8</title>
<path fill="none" stroke="black" d="M634.38,-156.362C598.673,-142.111 490.048,-98.7559 441.674,-79.4488"/>
<polygon fill="black" stroke="black" points="436.908,-77.5468 442.386,-77.3106 439.23,-78.4735 441.552,-79.4003 441.552,-79.4003 441.552,-79.4003 439.23,-78.4735 440.718,-81.49 436.908,-77.5468 436.908,-77.5468"/>
</g>
<!-- r2 -->
<g id="node3" class="node"><title>r2</title>
<polygon fill="none" stroke="black" stroke-dasharray="5,2" points="897.5,-171 874.5,-171 874.5,-153 897.5,-153 897.5,-171"/>
<text text-anchor="middle" x="886" y="-159.8" font-family="serif" font-size="9.00">2</text>
</g>
<!-- v0 -->
<g id="v0_Area(1)" class="node"><title>v0</title>
<ellipse fill="none" stroke="black" cx="726" cy="-69" rx="32.5" ry="11"/>
<text text-anchor="middle" x="726" y="-66.8" font-family="sans-serif" font-size="9.00">Area(1)</text>
</g>
<!-- r2&#45;&gt;v0 -->
<g id="edge9" class="edge"><title>r2&#45;&gt;v0</title>
<path fill="none" stroke="black" d="M874.493,-154.456C847.585,-139.152 780.265,-100.863 746.29,-81.5399"/>
<polygon fill="black" stroke="black" points="741.528,-78.8315 746.986,-79.3476 743.701,-80.0674 745.874,-81.3034 745.874,-81.3034 745.874,-81.3034 743.701,-80.0674 744.762,-83.2592 741.528,-78.8315 741.528,-78.8315"/>
</g>
<!-- v1 -->
<g id="v1_Area(2)" class="node"><title>v1</title>
<ellipse fill="none" stroke="black" cx="1184" cy="-69" rx="32.5" ry="11"/>
<text text-anchor="middle" x="1184" y="-66.8" font-family="sans-serif" font-size="9.00">Area(2)</text>
</g>
<!-- r2&#45;&gt;v1 -->
<g id="edge10" class="edge"><title>r2&#45;&gt;v1</title>
<path fill="none" stroke="black" d="M897.77,-159.049C927.902,-153.889 1010.09,-138.77 1076,-117 1106.87,-106.804 1141.05,-91.1464 1162.52,-80.7424"/>
<polygon fill="black" stroke="black" points="1167.17,-78.4766 1163.66,-82.6903 1164.92,-79.5722 1162.67,-80.6678 1162.67,-80.6678 1162.67,-80.6678 1164.92,-79.5722 1161.69,-78.6454 1167.17,-78.4766 1167.17,-78.4766"/>
</g>
<!-- v6 -->
<g id="v6_Area(0)" class="node"><title>v6</title>
<ellipse fill="none" stroke="black" cx="886" cy="-69" rx="32.5" ry="11"/>
<text text-anchor="middle" x="886" y="-66.8" font-family="sans-serif" font-size="9.00">Area(0)</text>
</g>
<!-- r2&#45;&gt;v6 -->
<g id="edge11" class="edge"><title>r2&#45;&gt;v6</title>
<path fill="none" stroke="black" d="M886,-152.924C886,-137.736 886,-104.696 886,-85.2178"/>
<polygon fill="black" stroke="black" points="886,-80.1095 888.25,-85.1095 886,-82.6095 886,-85.1095 886,-85.1095 886,-85.1095 886,-82.6095 883.75,-85.1096 886,-80.1095 886,-80.1095"/>
</g>
<!-- e2 -->
<g id="node4" class="node"><title>e2</title>
</g>
<!-- v2 -->
<g id="v2_GPS(4)" class="node"><title>v2</title>
<ellipse fill="none" stroke="black" cx="1093" cy="-11" rx="29" ry="11"/>
<text text-anchor="middle" x="1093" y="-8.8" font-family="sans-serif" font-size="9.00">GPS(4)</text>
</g>
<!-- e2&#45;&gt;v2 -->
<g id="edge34" class="edge"><title>e2&#45;&gt;v2</title>
<path fill="none" stroke="green" d="M554,-116C554,-116 847.567,-105 927,-80 945.983,-74.0256 947.915,-66.3062 966,-58 1002.01,-41.4589 1045.83,-26.7101 1071.44,-18.596"/>
</g>
<!-- v5 -->
<g id="v5_Lion" class="node"><title>v5</title>
<ellipse fill="none" stroke="black" cx="742" cy="-11" rx="21.5" ry="11"/>
<text text-anchor="middle" x="742" y="-8.8" font-family="sans-serif" font-size="9.00">Lion</text>
</g>
<!-- e2&#45;&gt;v5 -->
<g id="edge35" class="edge"><title>e2&#45;&gt;v5</title>
<path fill="none" stroke="green" d="M554,-116C554,-116 578.46,-77.1805 608,-58 618.057,-51.4701 690.542,-28.1982 724.514,-17.4784"/>
</g>
<!-- e2&#45;&gt;v12 -->
<g id="edge36" class="edge"><title>e2&#45;&gt;v12</title>
<path fill="none" stroke="green" d="M554,-116C554,-116 325.847,-83.1002 255.44,-72.9475"/>
</g>
<!-- v15 -->
<g id="v15_Child" class="node"><title>v15</title>
<ellipse fill="none" stroke="black" cx="246" cy="-11" rx="25" ry="11"/>
<text text-anchor="middle" x="246" y="-8.8" font-family="sans-serif" font-size="9.00">Child</text>
</g>
<!-- e2&#45;&gt;v15 -->
<g id="edge37" class="edge"><title>e2&#45;&gt;v15</title>
<path fill="none" stroke="green" d="M554,-116C554,-116 454.534,-106.098 380,-80 333.71,-63.7917 283.142,-34.7165 259.543,-20.4139"/>
</g>
<!-- e4 -->
<g id="node5" class="node"><title>e4</title>
</g>
<!-- v7 -->
<g id="v7_GPS(8)" class="node"><title>v7</title>
<ellipse fill="none" stroke="black" cx="670" cy="-11" rx="29" ry="11"/>
<text text-anchor="middle" x="670" y="-8.8" font-family="sans-serif" font-size="9.00">GPS(8)</text>
</g>
<!-- e4&#45;&gt;v7 -->
<g id="edge39" class="edge"><title>e4&#45;&gt;v7</title>
<path fill="none" stroke="green" d="M144,-116C144,-116 319.517,-109.272 456,-80 529.565,-64.2224 613.84,-33.585 650.864,-19.4612"/>
</g>
<!-- v9 -->
<g id="v9_Lion" class="node"><title>v9</title>
<ellipse fill="none" stroke="black" cx="336" cy="-11" rx="21.5" ry="11"/>
<text text-anchor="middle" x="336" y="-8.8" font-family="sans-serif" font-size="9.00">Lion</text>
</g>
<!-- e4&#45;&gt;v9 -->
<g id="edge40" class="edge"><title>e4&#45;&gt;v9</title>
<path fill="none" stroke="green" d="M144,-116C144,-116 216.491,-108.195 265,-80 292.152,-64.2188 316.952,-35.9941 328.754,-21.3661"/>
</g>
<!-- e4&#45;&gt;v11 -->
<g id="edge41" class="edge"><title>e4&#45;&gt;v11</title>
<path fill="none" stroke="green" d="M144,-116C144,-116 128.674,-93.2583 119.574,-79.7554"/>
</g>
<!-- v14 -->
<g id="v14_Child" class="node"><title>v14</title>
<ellipse fill="none" stroke="black" cx="110" cy="-11" rx="25" ry="11"/>
<text text-anchor="middle" x="110" y="-8.8" font-family="sans-serif" font-size="9.00">Child</text>
</g>
<!-- e4&#45;&gt;v14 -->
<g id="edge42" class="edge"><title>e4&#45;&gt;v14</title>
<path fill="none" stroke="green" d="M144,-116C144,-116 97.8979,-107.615 82,-80 70.6615,-60.305 88.6275,-35.1231 100.628,-21.6063"/>
</g>
<!-- e5 -->
<g id="node6" class="node"><title>e5</title>
</g>
<!-- e5&#45;&gt;v13 -->
<g id="edge43" class="edge"><title>e5&#45;&gt;v13</title>
<path fill="none" stroke="green" d="M355,-116C355,-116 270.345,-98.9268 204,-80 199.776,-78.7951 195.263,-77.3667 191.053,-75.9722"/>
</g>
<!-- v16 -->
<g id="v16_Child" class="node"><title>v16</title>
<ellipse fill="none" stroke="black" cx="178" cy="-11" rx="25" ry="11"/>
<text text-anchor="middle" x="178" y="-8.8" font-family="sans-serif" font-size="9.00">Child</text>
</g>
<!-- e5&#45;&gt;v16 -->
<g id="edge44" class="edge"><title>e5&#45;&gt;v16</title>
<path fill="none" stroke="green" d="M355,-116C355,-116 306.072,-82.0327 265,-58 240.521,-43.6764 211.207,-28.5871 193.621,-19.7477"/>
</g>
<!-- v20 -->
<g id="v20_Lion" class="node"><title>v20</title>
<ellipse fill="none" stroke="black" cx="509" cy="-11" rx="21.5" ry="11"/>
<text text-anchor="middle" x="509" y="-8.8" font-family="sans-serif" font-size="9.00">Lion</text>
</g>
<!-- e5&#45;&gt;v20 -->
<g id="edge45" class="edge"><title>e5&#45;&gt;v20</title>
<path fill="none" stroke="green" d="M355,-116C355,-116 417.369,-107.905 456,-80 478.083,-64.0486 495.555,-36.4087 503.81,-21.7622"/>
</g>
<!-- v23 -->
<g id="v23_GPS(3)" class="node"><title>v23</title>
<ellipse fill="none" stroke="black" cx="589" cy="-11" rx="29" ry="11"/>
<text text-anchor="middle" x="589" y="-8.8" font-family="sans-serif" font-size="9.00">GPS(3)</text>
</g>
<!-- e5&#45;&gt;v23 -->
<g id="edge46" class="edge"><title>e5&#45;&gt;v23</title>
<path fill="none" stroke="green" d="M355,-116C355,-116 428.459,-103.985 482,-80 518.96,-63.4428 558.066,-35.5577 577.14,-21.182"/>
</g>
<!-- e6 -->
<g id="node7" class="node"><title>e6</title>
</g>
<!-- e6&#45;&gt;v17 -->
<g id="edge47" class="edge"><title>e6&#45;&gt;v17</title>
<path fill="none" stroke="green" d="M1066,-116C1066,-116 1029.18,-91.4551 1009.34,-78.2239"/>
</g>
<!-- v18 -->
<g id="v18_Child" class="node"><title>v18</title>
<ellipse fill="none" stroke="black" cx="1002" cy="-11" rx="25" ry="11"/>
<text text-anchor="middle" x="1002" y="-8.8" font-family="sans-serif" font-size="9.00">Child</text>
</g>
<!-- e6&#45;&gt;v18 -->
<g id="edge48" class="edge"><title>e6&#45;&gt;v18</title>
<path fill="none" stroke="green" d="M1066,-116C1066,-116 1073.34,-80.7396 1061,-58 1051.4,-40.3064 1031.79,-27.1754 1017.82,-19.5683"/>
</g>
<!-- v21 -->
<g id="v21_Lion" class="node"><title>v21</title>
<ellipse fill="none" stroke="black" cx="811" cy="-11" rx="21.5" ry="11"/>
<text text-anchor="middle" x="811" y="-8.8" font-family="sans-serif" font-size="9.00">Lion</text>
</g>
<!-- e6&#45;&gt;v21 -->
<g id="edge49" class="edge"><title>e6&#45;&gt;v21</title>
<path fill="none" stroke="green" d="M1066,-116C1066,-116 1052.84,-75.2476 1027,-58 959.509,-12.9433 926.989,-40.5962 848,-22 841.782,-20.5361 835.024,-18.7639 829.006,-17.1205"/>
</g>
<!-- v24 -->
<g id="v24_GPS(4)" class="node"><title>v24</title>
<ellipse fill="none" stroke="black" cx="1179" cy="-11" rx="29" ry="11"/>
<text text-anchor="middle" x="1179" y="-8.8" font-family="sans-serif" font-size="9.00">GPS(4)</text>
</g>
<!-- e6&#45;&gt;v24 -->
<g id="edge50" class="edge"><title>e6&#45;&gt;v24</title>
<path fill="none" stroke="green" d="M1066,-116C1066,-116 1140.6,-47.3438 1168.57,-21.5977"/>
</g>
<!-- v0&#45;&gt;v3 -->
<g id="edge32" class="edge"><title>v0&#45;&gt;v3</title>
<path fill="none" stroke="green" d="M693.368,-69C687.266,-69 681.164,-69 675.062,-69"/>
</g>
<!-- v0&#45;&gt;v23 -->
<g id="edge12" class="edge"><title>v0&#45;&gt;v23</title>
<path fill="none" stroke="black" d="M706.662,-60.0953C681.942,-49.9911 639.17,-32.5076 612.571,-21.6347"/>
<polygon fill="black" stroke="black" points="607.8,-19.6847 613.28,-19.4939 610.114,-20.6307 612.428,-21.5766 612.428,-21.5766 612.428,-21.5766 610.114,-20.6307 611.577,-23.6593 607.8,-19.6847 607.8,-19.6847"/>
</g>
<!-- v1&#45;&gt;v2 -->
<g id="edge13" class="edge"><title>v1&#45;&gt;v2</title>
<path fill="none" stroke="black" d="M1169.38,-59.0026C1153.77,-49.394 1128.97,-34.1324 1111.88,-23.6206"/>
<polygon fill="black" stroke="black" points="1107.28,-20.7904 1112.72,-21.4947 1109.41,-22.1007 1111.54,-23.4109 1111.54,-23.4109 1111.54,-23.4109 1109.41,-22.1007 1110.36,-25.3272 1107.28,-20.7904 1107.28,-20.7904"/>
</g>
<!-- v1&#45;&gt;v4 -->
<g id="edge33" class="edge"><title>v1&#45;&gt;v4</title>
<path fill="none" stroke="green" d="M1169.56,-78.9418C1158.68,-85.8006 1143.11,-94.3208 1128,-98 1068.62,-112.462 911.791,-114.678 853,-98 840.086,-94.3366 827.241,-86.007 818.251,-79.2104"/>
</g>
<!-- v1&#45;&gt;v24 -->
<g id="edge14" class="edge"><title>v1&#45;&gt;v24</title>
<path fill="none" stroke="black" d="M1183.11,-57.9883C1182.35,-49.4941 1181.25,-37.1697 1180.38,-27.4169"/>
<polygon fill="black" stroke="black" points="1179.92,-22.3039 1182.61,-27.0839 1180.14,-24.794 1180.36,-27.2841 1180.36,-27.2841 1180.36,-27.2841 1180.14,-24.794 1178.12,-27.4842 1179.92,-22.3039 1179.92,-22.3039"/>
</g>
<!-- v3&#45;&gt;v20 -->
<g id="edge15" class="edge"><title>v3&#45;&gt;v20</title>
<path fill="none" stroke="black" d="M627.524,-60.4476C602.083,-50.0486 556.402,-31.3759 529.794,-20.4999"/>
<polygon fill="black" stroke="black" points="525.057,-18.5636 530.537,-18.3728 527.372,-19.5096 529.686,-20.4555 529.686,-20.4555 529.686,-20.4555 527.372,-19.5096 528.834,-22.5382 525.057,-18.5636 525.057,-18.5636"/>
</g>
<!-- v4&#45;&gt;v5 -->
<g id="edge16" class="edge"><title>v4&#45;&gt;v5</title>
<path fill="none" stroke="black" d="M795.432,-58.7527C784.714,-49.3748 768.06,-34.8028 756.196,-24.4216"/>
<polygon fill="black" stroke="black" points="752.372,-21.0752 757.616,-22.6744 754.253,-22.7215 756.135,-24.3677 756.135,-24.3677 756.135,-24.3677 754.253,-22.7215 754.653,-26.0611 752.372,-21.0752 752.372,-21.0752"/>
</g>
<!-- v4&#45;&gt;v21 -->
<g id="edge17" class="edge"><title>v4&#45;&gt;v21</title>
<path fill="none" stroke="black" d="M806.894,-57.9883C807.652,-49.4941 808.753,-37.1697 809.623,-27.4169"/>
<polygon fill="black" stroke="black" points="810.08,-22.3039 811.876,-27.4842 809.858,-24.794 809.635,-27.2841 809.635,-27.2841 809.635,-27.2841 809.858,-24.794 807.394,-27.0839 810.08,-22.3039 810.08,-22.3039"/>
</g>
<!-- v6&#45;&gt;v7 -->
<g id="edge18" class="edge"><title>v6&#45;&gt;v7</title>
<path fill="none" stroke="black" d="M861.642,-61.6849C821.248,-51.2124 740.631,-30.3118 697.971,-19.2516"/>
<polygon fill="black" stroke="black" points="692.962,-17.953 698.366,-17.0299 695.382,-18.5804 697.802,-19.2079 697.802,-19.2079 697.802,-19.2079 695.382,-18.5804 697.237,-21.3859 692.962,-17.953 692.962,-17.953"/>
</g>
<!-- v6&#45;&gt;v8 -->
<g id="edge38" class="edge"><title>v6&#45;&gt;v8</title>
<path fill="none" stroke="green" d="M872.567,-79.2214C862.746,-86.0232 848.786,-94.3546 835,-98 689.069,-136.589 504.991,-93.3264 441.092,-75.7462"/>
</g>
<!-- v22 -->
<g id="v22_GPS(0)" class="node"><title>v22</title>
<ellipse fill="none" stroke="black" cx="886" cy="-11" rx="29" ry="11"/>
<text text-anchor="middle" x="886" y="-8.8" font-family="sans-serif" font-size="9.00">GPS(0)</text>
</g>
<!-- v6&#45;&gt;v22 -->
<g id="edge19" class="edge"><title>v6&#45;&gt;v22</title>
<path fill="none" stroke="black" d="M886,-57.9883C886,-49.4941 886,-37.1697 886,-27.4169"/>
<polygon fill="black" stroke="black" points="886,-22.3039 888.25,-27.3038 886,-24.8039 886,-27.3039 886,-27.3039 886,-27.3039 886,-24.8039 883.75,-27.3039 886,-22.3039 886,-22.3039"/>
</g>
<!-- v8&#45;&gt;v9 -->
<g id="edge20" class="edge"><title>v8&#45;&gt;v9</title>
<path fill="none" stroke="black" d="M404.825,-59.0026C390.507,-49.2244 367.617,-33.5919 352.208,-23.0686"/>
<polygon fill="black" stroke="black" points="348.073,-20.2451 353.471,-21.2069 350.138,-21.655 352.202,-23.065 352.202,-23.065 352.202,-23.065 350.138,-21.655 350.933,-24.923 348.073,-20.2451 348.073,-20.2451"/>
</g>
<!-- v19 -->
<g id="v19_Impala" class="node"><title>v19</title>
<ellipse fill="none" stroke="black" cx="418" cy="-11" rx="29" ry="11"/>
<text text-anchor="middle" x="418" y="-8.8" font-family="sans-serif" font-size="9.00">Impala</text>
</g>
<!-- v8&#45;&gt;v19 -->
<g id="edge21" class="edge"><title>v8&#45;&gt;v19</title>
<path fill="none" stroke="black" d="M418,-57.9883C418,-49.4941 418,-37.1697 418,-27.4169"/>
<polygon fill="black" stroke="black" points="418,-22.3039 420.25,-27.3038 418,-24.8039 418,-27.3039 418,-27.3039 418,-27.3039 418,-24.8039 415.75,-27.3039 418,-22.3039 418,-22.3039"/>
</g>
<!-- v11&#45;&gt;v14 -->
<g id="edge22" class="edge"><title>v11&#45;&gt;v14</title>
<path fill="none" stroke="black" d="M112.464,-57.9883C112.009,-49.4941 111.348,-37.1697 110.826,-27.4169"/>
<polygon fill="black" stroke="black" points="110.552,-22.3039 113.066,-27.1763 110.686,-24.8003 110.82,-27.2967 110.82,-27.2967 110.82,-27.2967 110.686,-24.8003 108.573,-27.4171 110.552,-22.3039 110.552,-22.3039"/>
</g>
<!-- v11&#45;&gt;v15 -->
<g id="edge23" class="edge"><title>v11&#45;&gt;v15</title>
<path fill="none" stroke="black" d="M128.779,-61.3562C152.488,-51.3736 197.373,-32.4747 224.195,-21.1809"/>
<polygon fill="black" stroke="black" points="228.984,-19.1645 225.249,-23.1785 226.68,-20.1346 224.376,-21.1048 224.376,-21.1048 224.376,-21.1048 226.68,-20.1346 223.503,-19.0311 228.984,-19.1645 228.984,-19.1645"/>
</g>
<!-- v11&#45;&gt;v16 -->
<g id="edge24" class="edge"><title>v11&#45;&gt;v16</title>
<path fill="none" stroke="black" d="M123.156,-59.25C133.935,-49.9638 151.069,-35.2025 163.316,-24.6504"/>
<polygon fill="black" stroke="black" points="167.267,-21.2473 164.947,-26.2155 165.373,-22.8791 163.479,-24.5108 163.479,-24.5108 163.479,-24.5108 165.373,-22.8791 162.01,-22.8062 167.267,-21.2473 167.267,-21.2473"/>
</g>
<!-- v12&#45;&gt;v14 -->
<g id="edge25" class="edge"><title>v12&#45;&gt;v14</title>
<path fill="none" stroke="black" d="M219.673,-61.1333C197.548,-51.2214 156.568,-32.8624 131.449,-21.6093"/>
<polygon fill="black" stroke="black" points="126.647,-19.4581 132.13,-19.449 128.929,-20.4802 131.211,-21.5024 131.211,-21.5024 131.211,-21.5024 128.929,-20.4802 130.291,-23.5557 126.647,-19.4581 126.647,-19.4581"/>
</g>
<!-- v12&#45;&gt;v15 -->
<g id="edge26" class="edge"><title>v12&#45;&gt;v15</title>
<path fill="none" stroke="black" d="M236.967,-57.9883C238.635,-49.4941 241.056,-37.1697 242.972,-27.4169"/>
<polygon fill="black" stroke="black" points="243.976,-22.3039 245.22,-27.6438 243.494,-24.757 243.012,-27.2101 243.012,-27.2101 243.012,-27.2101 243.494,-24.757 240.804,-26.7764 243.976,-22.3039 243.976,-22.3039"/>
</g>
<!-- v12&#45;&gt;v16 -->
<g id="edge27" class="edge"><title>v12&#45;&gt;v16</title>
<path fill="none" stroke="black" d="M225.842,-59.0026C216.537,-49.8606 202.023,-35.6014 191.42,-25.1846"/>
<polygon fill="black" stroke="black" points="187.708,-21.5373 192.851,-23.4364 189.491,-23.2894 191.274,-25.0414 191.274,-25.0414 191.274,-25.0414 189.491,-23.2894 189.697,-26.6465 187.708,-21.5373 187.708,-21.5373"/>
</g>
<!-- v13&#45;&gt;v14 -->
<g id="edge28" class="edge"><title>v13&#45;&gt;v14</title>
<path fill="none" stroke="black" d="M164,-59.25C153.387,-49.9638 136.517,-35.2025 124.458,-24.6504"/>
<polygon fill="black" stroke="black" points="120.568,-21.2473 125.813,-22.8465 122.45,-22.8935 124.331,-24.5398 124.331,-24.5398 124.331,-24.5398 122.45,-22.8935 122.85,-26.2331 120.568,-21.2473 120.568,-21.2473"/>
</g>
<!-- v13&#45;&gt;v15 -->
<g id="edge29" class="edge"><title>v13&#45;&gt;v15</title>
<path fill="none" stroke="black" d="M184.935,-59.4948C197.057,-50.067 216.705,-34.7854 230.43,-24.1101"/>
<polygon fill="black" stroke="black" points="234.484,-20.9566 231.919,-25.8024 232.511,-22.4915 230.538,-24.0264 230.538,-24.0264 230.538,-24.0264 232.511,-22.4915 229.156,-22.2503 234.484,-20.9566 234.484,-20.9566"/>
</g>
<!-- v13&#45;&gt;v16 -->
<g id="edge30" class="edge"><title>v13&#45;&gt;v16</title>
<path fill="none" stroke="black" d="M174.715,-57.9883C175.322,-49.4941 176.202,-37.1697 176.899,-27.4169"/>
<polygon fill="black" stroke="black" points="177.264,-22.3039 179.152,-27.4515 177.086,-24.7975 176.908,-27.2912 176.908,-27.2912 176.908,-27.2912 177.086,-24.7975 174.663,-27.1308 177.264,-22.3039 177.264,-22.3039"/>
</g>
<!-- v17&#45;&gt;v18 -->
<g id="edge31" class="edge"><title>v17&#45;&gt;v18</title>
<path fill="none" stroke="black" d="M997.894,-57.9883C998.652,-49.4941 999.753,-37.1697 1000.62,-27.4169"/>
<polygon fill="black" stroke="black" points="1001.08,-22.3039 1002.88,-27.4842 1000.86,-24.794 1000.64,-27.2841 1000.64,-27.2841 1000.64,-27.2841 1000.86,-24.794 998.394,-27.0839 1001.08,-22.3039 1001.08,-22.3039"/>
</g>
<!-- v19&#45;&gt;v22 -->
<g id="edge51" class="edge"><title>v19&#45;&gt;v22</title>
<path fill="none" stroke="green" d="M434.414,-20.0999C448.032,-27.1006 468.148,-36.1993 487,-40 562.155,-55.1514 757.649,-58.7014 832,-40 846.654,-36.314 861.666,-27.7945 872.13,-20.9377"/>
</g>
</g>
</svg>
