<?xml version="1.0" encoding="UTF-8" standalone="no"?>
<?xml-stylesheet href="style.css" type="text/css"?>
<!DOCTYPE svg PUBLIC "-//W3C//DTD SVG 1.1//EN"
 "http://www.w3.org/Graphics/SVG/1.1/DTD/svg11.dtd">
<!-- Generated by graphviz version 2.38.0 (20140413.2041)
 -->
<!-- Title: 93.svg Pages: 1 -->
<svg width="1225pt" height="179pt"
 viewBox="0.00 0.00 1224.50 179.00" xmlns="http://www.w3.org/2000/svg" xmlns:xlink="http://www.w3.org/1999/xlink">
<g id="graph0" class="graph" transform="scale(1 1) rotate(0) translate(4 175)">
<title>93.svg</title>
<polygon fill="white" stroke="none" points="-4,4 -4,-175 1220.5,-175 1220.5,4 -4,4"/>
<!-- r0 -->
<g id="node1" class="node"><title>r0</title>
<polygon fill="none" stroke="black" stroke-dasharray="5,2" points="185.5,-171 162.5,-171 162.5,-153 185.5,-153 185.5,-171"/>
<text text-anchor="middle" x="174" y="-159.8" font-family="serif" font-size="9.00">0</text>
</g>
<!-- v8 -->
<g id="v8_Field" class="node"><title>v8</title>
<ellipse fill="none" stroke="black" cx="25" cy="-11" rx="25" ry="11"/>
<text text-anchor="middle" x="25" y="-8.8" font-family="sans-serif" font-size="9.00">Field</text>
</g>
<!-- r0&#45;&gt;v8 -->
<g id="edge1" class="edge"><title>r0&#45;&gt;v8</title>
<path fill="none" stroke="black" d="M162.376,-153.136C142.828,-139.588 102.698,-110.364 74,-80 58.0157,-63.0878 42.8801,-40.7689 33.7706,-26.3983"/>
<polygon fill="black" stroke="black" points="30.9198,-21.8488 35.4813,-24.891 32.2472,-23.9673 33.5747,-26.0858 33.5747,-26.0858 33.5747,-26.0858 32.2472,-23.9673 31.6681,-27.2805 30.9198,-21.8488 30.9198,-21.8488"/>
</g>
<!-- v9 -->
<g id="v9_Aura" class="node"><title>v9</title>
<ellipse fill="none" stroke="black" cx="174" cy="-69" rx="21.5" ry="11"/>
<text text-anchor="middle" x="174" y="-66.8" font-family="sans-serif" font-size="9.00">Aura</text>
</g>
<!-- r0&#45;&gt;v9 -->
<g id="edge2" class="edge"><title>r0&#45;&gt;v9</title>
<path fill="none" stroke="black" d="M174,-152.924C174,-137.736 174,-104.696 174,-85.2178"/>
<polygon fill="black" stroke="black" points="174,-80.1095 176.25,-85.1095 174,-82.6095 174,-85.1095 174,-85.1095 174,-85.1095 174,-82.6095 171.75,-85.1096 174,-80.1095 174,-80.1095"/>
</g>
<!-- v10 -->
<g id="v10_Aura" class="node"><title>v10</title>
<ellipse fill="none" stroke="black" cx="113" cy="-69" rx="21.5" ry="11"/>
<text text-anchor="middle" x="113" y="-66.8" font-family="sans-serif" font-size="9.00">Aura</text>
</g>
<!-- r0&#45;&gt;v10 -->
<g id="edge3" class="edge"><title>r0&#45;&gt;v10</title>
<path fill="none" stroke="black" d="M168.587,-152.924C158.211,-137.446 135.407,-103.427 122.463,-84.1163"/>
<polygon fill="black" stroke="black" points="119.398,-79.5439 124.051,-82.4443 120.79,-81.6205 122.182,-83.6971 122.182,-83.6971 122.182,-83.6971 120.79,-81.6205 120.313,-84.9499 119.398,-79.5439 119.398,-79.5439"/>
</g>
<!-- v11 -->
<g id="v11_Aura" class="node"><title>v11</title>
<ellipse fill="none" stroke="black" cx="274" cy="-69" rx="21.5" ry="11"/>
<text text-anchor="middle" x="274" y="-66.8" font-family="sans-serif" font-size="9.00">Aura</text>
</g>
<!-- r0&#45;&gt;v11 -->
<g id="edge4" class="edge"><title>r0&#45;&gt;v11</title>
<path fill="none" stroke="black" d="M182.874,-152.924C200.351,-137.02 239.337,-101.543 260.2,-82.5579"/>
<polygon fill="black" stroke="black" points="264.119,-78.9914 261.936,-84.0208 262.27,-80.6741 260.421,-82.3567 260.421,-82.3567 260.421,-82.3567 262.27,-80.6741 258.907,-80.6926 264.119,-78.9914 264.119,-78.9914"/>
</g>
<!-- v15 -->
<g id="v15_Aura" class="node"><title>v15</title>
<ellipse fill="none" stroke="black" cx="997" cy="-69" rx="21.5" ry="11"/>
<text text-anchor="middle" x="997" y="-66.8" font-family="sans-serif" font-size="9.00">Aura</text>
</g>
<!-- r0&#45;&gt;v15 -->
<g id="edge5" class="edge"><title>r0&#45;&gt;v15</title>
<path fill="none" stroke="black" d="M185.667,-160.144C240.682,-156.072 479.668,-137.987 675,-117 804.628,-103.072 838.747,-108.357 966,-80 969.043,-79.322 972.212,-78.4723 975.313,-77.5563"/>
<polygon fill="black" stroke="black" points="980.102,-76.0774 975.988,-79.7028 977.713,-76.8152 975.324,-77.553 975.324,-77.553 975.324,-77.553 977.713,-76.8152 974.66,-75.4032 980.102,-76.0774 980.102,-76.0774"/>
</g>
<!-- r1 -->
<g id="node2" class="node"><title>r1</title>
<polygon fill="none" stroke="black" stroke-dasharray="5,2" points="780.5,-171 757.5,-171 757.5,-153 780.5,-153 780.5,-171"/>
<text text-anchor="middle" x="769" y="-159.8" font-family="serif" font-size="9.00">1</text>
</g>
<!-- v3 -->
<g id="v3_Locale" class="node"><title>v3</title>
<ellipse fill="none" stroke="black" cx="769" cy="-69" rx="29" ry="11"/>
<text text-anchor="middle" x="769" y="-66.8" font-family="sans-serif" font-size="9.00">Locale</text>
</g>
<!-- r1&#45;&gt;v3 -->
<g id="edge6" class="edge"><title>r1&#45;&gt;v3</title>
<path fill="none" stroke="black" d="M769,-152.924C769,-137.736 769,-104.696 769,-85.2178"/>
<polygon fill="black" stroke="black" points="769,-80.1095 771.25,-85.1095 769,-82.6095 769,-85.1095 769,-85.1095 769,-85.1095 769,-82.6095 766.75,-85.1096 769,-80.1095 769,-80.1095"/>
</g>
<!-- v4 -->
<g id="v4_Locale" class="node"><title>v4</title>
<ellipse fill="none" stroke="black" cx="495" cy="-69" rx="29" ry="11"/>
<text text-anchor="middle" x="495" y="-66.8" font-family="sans-serif" font-size="9.00">Locale</text>
</g>
<!-- r1&#45;&gt;v4 -->
<g id="edge7" class="edge"><title>r1&#45;&gt;v4</title>
<path fill="none" stroke="black" d="M757.451,-158.418C730.67,-152.311 662.394,-136.052 607,-117 574.98,-105.987 539.063,-90.2977 516.736,-80.1317"/>
<polygon fill="black" stroke="black" points="512.184,-78.0499 517.667,-78.0834 514.458,-79.0897 516.731,-80.1296 516.731,-80.1296 516.731,-80.1296 514.458,-79.0897 515.795,-82.1757 512.184,-78.0499 512.184,-78.0499"/>
</g>
<!-- v19 -->
<g id="v19_Locale" class="node"><title>v19</title>
<ellipse fill="none" stroke="black" cx="845" cy="-69" rx="29" ry="11"/>
<text text-anchor="middle" x="845" y="-66.8" font-family="sans-serif" font-size="9.00">Locale</text>
</g>
<!-- r1&#45;&gt;v19 -->
<g id="edge8" class="edge"><title>r1&#45;&gt;v19</title>
<path fill="none" stroke="black" d="M775.744,-152.924C788.714,-137.395 817.268,-103.206 833.367,-83.9285"/>
<polygon fill="black" stroke="black" points="836.794,-79.8251 835.316,-85.105 835.192,-81.7439 833.589,-83.6627 833.589,-83.6627 833.589,-83.6627 835.192,-81.7439 831.862,-82.2204 836.794,-79.8251 836.794,-79.8251"/>
</g>
<!-- r2 -->
<g id="node3" class="node"><title>r2</title>
<polygon fill="none" stroke="black" stroke-dasharray="5,2" points="936.5,-171 913.5,-171 913.5,-153 936.5,-153 936.5,-171"/>
<text text-anchor="middle" x="925" y="-159.8" font-family="serif" font-size="9.00">2</text>
</g>
<!-- v0 -->
<g id="v0_Area(1)" class="node"><title>v0</title>
<ellipse fill="none" stroke="black" cx="925" cy="-69" rx="32.5" ry="11"/>
<text text-anchor="middle" x="925" y="-66.8" font-family="sans-serif" font-size="9.00">Area(1)</text>
</g>
<!-- r2&#45;&gt;v0 -->
<g id="edge9" class="edge"><title>r2&#45;&gt;v0</title>
<path fill="none" stroke="black" d="M925,-152.924C925,-137.736 925,-104.696 925,-85.2178"/>
<polygon fill="black" stroke="black" points="925,-80.1095 927.25,-85.1095 925,-82.6095 925,-85.1095 925,-85.1095 925,-85.1095 925,-82.6095 922.75,-85.1096 925,-80.1095 925,-80.1095"/>
</g>
<!-- v1 -->
<g id="v1_Area(0)" class="node"><title>v1</title>
<ellipse fill="none" stroke="black" cx="613" cy="-69" rx="32.5" ry="11"/>
<text text-anchor="middle" x="613" y="-66.8" font-family="sans-serif" font-size="9.00">Area(0)</text>
</g>
<!-- r2&#45;&gt;v1 -->
<g id="edge10" class="edge"><title>r2&#45;&gt;v1</title>
<path fill="none" stroke="black" d="M913.253,-160.104C867.54,-156.462 701.782,-141.772 656,-117 641.872,-109.355 629.933,-95.2552 622.247,-84.486"/>
<polygon fill="black" stroke="black" points="619.22,-80.1031 623.913,-82.9384 620.641,-82.1601 622.062,-84.2172 622.062,-84.2172 622.062,-84.2172 620.641,-82.1601 620.21,-85.4959 619.22,-80.1031 619.22,-80.1031"/>
</g>
<!-- v23 -->
<g id="v23_Area(2)" class="node"><title>v23</title>
<ellipse fill="none" stroke="black" cx="1184" cy="-69" rx="32.5" ry="11"/>
<text text-anchor="middle" x="1184" y="-66.8" font-family="sans-serif" font-size="9.00">Area(2)</text>
</g>
<!-- r2&#45;&gt;v23 -->
<g id="edge11" class="edge"><title>r2&#45;&gt;v23</title>
<path fill="none" stroke="black" d="M936.826,-158.056C962.365,-151.584 1024.45,-135.235 1075,-117 1105.64,-105.948 1139.99,-90.6282 1161.79,-80.523"/>
<polygon fill="black" stroke="black" points="1166.52,-78.3238 1162.94,-82.4737 1164.25,-79.3788 1161.99,-80.4338 1161.99,-80.4338 1161.99,-80.4338 1164.25,-79.3788 1161.04,-78.394 1166.52,-78.3238 1166.52,-78.3238"/>
</g>
<!-- e2 -->
<g id="node4" class="node"><title>e2</title>
</g>
<!-- v2 -->
<g id="v2_GPS(8)" class="node"><title>v2</title>
<ellipse fill="none" stroke="black" cx="540" cy="-11" rx="29" ry="11"/>
<text text-anchor="middle" x="540" y="-8.8" font-family="sans-serif" font-size="9.00">GPS(8)</text>
</g>
<!-- e2&#45;&gt;v2 -->
<g id="edge34" class="edge"><title>e2&#45;&gt;v2</title>
<path fill="none" stroke="green" d="M213,-116C213,-116 446.875,-41.6178 519.047,-18.6639"/>
</g>
<!-- v5 -->
<g id="v5_Lion" class="node"><title>v5</title>
<ellipse fill="none" stroke="black" cx="333" cy="-11" rx="21.5" ry="11"/>
<text text-anchor="middle" x="333" y="-8.8" font-family="sans-serif" font-size="9.00">Lion</text>
</g>
<!-- e2&#45;&gt;v5 -->
<g id="edge35" class="edge"><title>e2&#45;&gt;v5</title>
<path fill="none" stroke="green" d="M213,-116C213,-116 272.842,-110.346 304,-80 320.55,-63.8817 328.164,-36.8116 331.226,-22.1593"/>
</g>
<!-- e2&#45;&gt;v10 -->
<g id="edge36" class="edge"><title>e2&#45;&gt;v10</title>
<path fill="none" stroke="green" d="M213,-116C213,-116 156.163,-89.8548 128.188,-76.9864"/>
</g>
<!-- v13 -->
<g id="v13_Child" class="node"><title>v13</title>
<ellipse fill="none" stroke="black" cx="118" cy="-11" rx="25" ry="11"/>
<text text-anchor="middle" x="118" y="-8.8" font-family="sans-serif" font-size="9.00">Child</text>
</g>
<!-- e2&#45;&gt;v13 -->
<g id="edge37" class="edge"><title>e2&#45;&gt;v13</title>
<path fill="none" stroke="green" d="M213,-116C213,-116 100.302,-104.01 82,-80 67.2619,-60.6653 91.6751,-34.4527 107.02,-20.9142"/>
</g>
<!-- e3 -->
<g id="node5" class="node"><title>e3</title>
</g>
<!-- v6 -->
<g id="v6_GPS(8)" class="node"><title>v6</title>
<ellipse fill="none" stroke="black" cx="616" cy="-11" rx="29" ry="11"/>
<text text-anchor="middle" x="616" y="-8.8" font-family="sans-serif" font-size="9.00">GPS(8)</text>
</g>
<!-- e3&#45;&gt;v6 -->
<g id="edge38" class="edge"><title>e3&#45;&gt;v6</title>
<path fill="none" stroke="green" d="M361,-116C361,-116 462.551,-113.715 533,-80 563.918,-65.2038 593.269,-36.5482 607.334,-21.5999"/>
</g>
<!-- v7 -->
<g id="v7_Lion" class="node"><title>v7</title>
<ellipse fill="none" stroke="black" cx="395" cy="-11" rx="21.5" ry="11"/>
<text text-anchor="middle" x="395" y="-8.8" font-family="sans-serif" font-size="9.00">Lion</text>
</g>
<!-- e3&#45;&gt;v7 -->
<g id="edge39" class="edge"><title>e3&#45;&gt;v7</title>
<path fill="none" stroke="green" d="M361,-116C361,-116 383.23,-48.0023 391.74,-21.972"/>
</g>
<!-- e3&#45;&gt;v9 -->
<g id="edge40" class="edge"><title>e3&#45;&gt;v9</title>
<path fill="none" stroke="green" d="M361,-116C361,-116 276.804,-97.2356 210,-80 204.096,-78.4767 197.674,-76.7239 191.91,-75.1154"/>
</g>
<!-- v12 -->
<g id="v12_Child" class="node"><title>v12</title>
<ellipse fill="none" stroke="black" cx="194" cy="-11" rx="25" ry="11"/>
<text text-anchor="middle" x="194" y="-8.8" font-family="sans-serif" font-size="9.00">Child</text>
</g>
<!-- e3&#45;&gt;v12 -->
<g id="edge41" class="edge"><title>e3&#45;&gt;v12</title>
<path fill="none" stroke="green" d="M361,-116C361,-116 287.586,-111.914 243,-80 221.465,-64.5853 205.784,-36.719 198.518,-21.8968"/>
</g>
<!-- e4 -->
<g id="node6" class="node"><title>e4</title>
</g>
<!-- e4&#45;&gt;v11 -->
<g id="edge42" class="edge"><title>e4&#45;&gt;v11</title>
<path fill="none" stroke="green" d="M666,-116C666,-116 375.181,-81.8732 294.524,-72.4084"/>
</g>
<!-- v14 -->
<g id="v14_Child" class="node"><title>v14</title>
<ellipse fill="none" stroke="black" cx="266" cy="-11" rx="25" ry="11"/>
<text text-anchor="middle" x="266" y="-8.8" font-family="sans-serif" font-size="9.00">Child</text>
</g>
<!-- e4&#45;&gt;v14 -->
<g id="edge43" class="edge"><title>e4&#45;&gt;v14</title>
<path fill="none" stroke="green" d="M666,-116C666,-116 548.178,-103.895 457,-80 391.286,-62.7786 316.097,-32.8744 283.069,-19.1988"/>
</g>
<!-- v18 -->
<g id="v18_Lion" class="node"><title>v18</title>
<ellipse fill="none" stroke="black" cx="764" cy="-11" rx="21.5" ry="11"/>
<text text-anchor="middle" x="764" y="-8.8" font-family="sans-serif" font-size="9.00">Lion</text>
</g>
<!-- e4&#45;&gt;v18 -->
<g id="edge44" class="edge"><title>e4&#45;&gt;v18</title>
<path fill="none" stroke="green" d="M666,-116C666,-116 678.298,-79.8769 698,-58 713.048,-41.2907 735.273,-27.4045 749.696,-19.3994"/>
</g>
<!-- v22 -->
<g id="v22_GPS(3)" class="node"><title>v22</title>
<ellipse fill="none" stroke="black" cx="883" cy="-11" rx="29" ry="11"/>
<text text-anchor="middle" x="883" y="-8.8" font-family="sans-serif" font-size="9.00">GPS(3)</text>
</g>
<!-- e4&#45;&gt;v22 -->
<g id="edge45" class="edge"><title>e4&#45;&gt;v22</title>
<path fill="none" stroke="green" d="M666,-116C666,-116 697.232,-76.942 731,-58 772.119,-34.9346 826.125,-22.1587 857.456,-16.2176"/>
</g>
<!-- e5 -->
<g id="node7" class="node"><title>e5</title>
</g>
<!-- e5&#45;&gt;v15 -->
<g id="edge46" class="edge"><title>e5&#45;&gt;v15</title>
<path fill="none" stroke="green" d="M1066,-116C1066,-116 1029.18,-91.4551 1009.34,-78.2239"/>
</g>
<!-- v16 -->
<g id="v16_Child" class="node"><title>v16</title>
<ellipse fill="none" stroke="black" cx="1039" cy="-11" rx="25" ry="11"/>
<text text-anchor="middle" x="1039" y="-8.8" font-family="sans-serif" font-size="9.00">Child</text>
</g>
<!-- e5&#45;&gt;v16 -->
<g id="edge47" class="edge"><title>e5&#45;&gt;v16</title>
<path fill="none" stroke="green" d="M1066,-116C1066,-116 1067.8,-82.9631 1061,-58 1057.42,-44.8468 1050.18,-30.8722 1044.99,-21.8243"/>
</g>
<!-- v20 -->
<g id="v20_Lion" class="node"><title>v20</title>
<ellipse fill="none" stroke="black" cx="967" cy="-11" rx="21.5" ry="11"/>
<text text-anchor="middle" x="967" y="-8.8" font-family="sans-serif" font-size="9.00">Lion</text>
</g>
<!-- e5&#45;&gt;v20 -->
<g id="edge48" class="edge"><title>e5&#45;&gt;v20</title>
<path fill="none" stroke="green" d="M1066,-116C1066,-116 1048.27,-80.6366 1027,-58 1012.62,-42.696 992.776,-28.5532 979.917,-20.0983"/>
</g>
<!-- v24 -->
<g id="v24_GPS(4)" class="node"><title>v24</title>
<ellipse fill="none" stroke="black" cx="1153" cy="-11" rx="29" ry="11"/>
<text text-anchor="middle" x="1153" y="-8.8" font-family="sans-serif" font-size="9.00">GPS(4)</text>
</g>
<!-- e5&#45;&gt;v24 -->
<g id="edge49" class="edge"><title>e5&#45;&gt;v24</title>
<path fill="none" stroke="green" d="M1066,-116C1066,-116 1123.43,-47.3438 1144.97,-21.5977"/>
</g>
<!-- v0&#45;&gt;v3 -->
<g id="edge32" class="edge"><title>v0&#45;&gt;v3</title>
<path fill="none" stroke="green" d="M911.567,-79.2214C901.746,-86.0232 887.786,-94.3546 874,-98 849.079,-104.59 840.799,-105.035 816,-98 803.086,-94.3366 790.241,-86.007 781.251,-79.2104"/>
</g>
<!-- v0&#45;&gt;v22 -->
<g id="edge12" class="edge"><title>v0&#45;&gt;v22</title>
<path fill="none" stroke="black" d="M917.684,-58.2455C911.021,-49.3616 901.103,-36.1372 893.577,-26.1029"/>
<polygon fill="black" stroke="black" points="890.515,-22.0198 895.315,-24.6698 892.015,-24.0198 893.515,-26.0198 893.515,-26.0198 893.515,-26.0198 892.015,-24.0198 891.715,-27.3698 890.515,-22.0198 890.515,-22.0198"/>
</g>
<!-- v1&#45;&gt;v2 -->
<g id="edge13" class="edge"><title>v1&#45;&gt;v2</title>
<path fill="none" stroke="black" d="M600.946,-58.7527C588.614,-49.2933 569.394,-34.549 555.841,-24.1517"/>
<polygon fill="black" stroke="black" points="551.83,-21.0752 557.167,-22.3333 553.814,-22.5969 555.797,-24.1185 555.797,-24.1185 555.797,-24.1185 553.814,-22.5969 554.428,-25.9038 551.83,-21.0752 551.83,-21.0752"/>
</g>
<!-- v1&#45;&gt;v4 -->
<g id="edge33" class="edge"><title>v1&#45;&gt;v4</title>
<path fill="none" stroke="green" d="M580.335,-69C561.569,-69 542.804,-69 524.039,-69"/>
</g>
<!-- v1&#45;&gt;v6 -->
<g id="edge14" class="edge"><title>v1&#45;&gt;v6</title>
<path fill="none" stroke="black" d="M613.536,-57.9883C613.991,-49.4941 614.652,-37.1697 615.174,-27.4169"/>
<polygon fill="black" stroke="black" points="615.448,-22.3039 617.427,-27.4171 615.314,-24.8003 615.18,-27.2967 615.18,-27.2967 615.18,-27.2967 615.314,-24.8003 612.934,-27.1763 615.448,-22.3039 615.448,-22.3039"/>
</g>
<!-- v21 -->
<g id="v21_GPS(0)" class="node"><title>v21</title>
<ellipse fill="none" stroke="black" cx="692" cy="-11" rx="29" ry="11"/>
<text text-anchor="middle" x="692" y="-8.8" font-family="sans-serif" font-size="9.00">GPS(0)</text>
</g>
<!-- v1&#45;&gt;v21 -->
<g id="edge15" class="edge"><title>v1&#45;&gt;v21</title>
<path fill="none" stroke="black" d="M626.045,-58.7527C639.39,-49.2933 660.19,-34.549 674.857,-24.1517"/>
<polygon fill="black" stroke="black" points="679.197,-21.0752 676.42,-25.8024 677.158,-22.521 675.118,-23.9667 675.118,-23.9667 675.118,-23.9667 677.158,-22.521 673.817,-22.1311 679.197,-21.0752 679.197,-21.0752"/>
</g>
<!-- v3&#45;&gt;v18 -->
<g id="edge16" class="edge"><title>v3&#45;&gt;v18</title>
<path fill="none" stroke="black" d="M768.106,-57.9883C767.348,-49.4941 766.247,-37.1697 765.377,-27.4169"/>
<polygon fill="black" stroke="black" points="764.92,-22.3039 767.606,-27.0839 765.142,-24.794 765.365,-27.2841 765.365,-27.2841 765.365,-27.2841 765.142,-24.794 763.124,-27.4842 764.92,-22.3039 764.92,-22.3039"/>
</g>
<!-- v4&#45;&gt;v5 -->
<g id="edge17" class="edge"><title>v4&#45;&gt;v5</title>
<path fill="none" stroke="black" d="M474.81,-61.0208C444.216,-50.445 386.346,-30.4406 354.816,-19.5414"/>
<polygon fill="black" stroke="black" points="349.99,-17.8731 355.451,-17.3802 352.353,-18.6899 354.716,-19.5068 354.716,-19.5068 354.716,-19.5068 352.353,-18.6899 353.981,-21.6333 349.99,-17.8731 349.99,-17.8731"/>
</g>
<!-- v4&#45;&gt;v7 -->
<g id="edge18" class="edge"><title>v4&#45;&gt;v7</title>
<path fill="none" stroke="black" d="M479.812,-59.4948C461.981,-49.5096 432.425,-32.9578 413.334,-22.267"/>
<polygon fill="black" stroke="black" points="408.719,-19.6829 414.181,-20.1628 410.901,-20.9044 413.082,-22.1259 413.082,-22.1259 413.082,-22.1259 410.901,-20.9044 411.983,-24.0891 408.719,-19.6829 408.719,-19.6829"/>
</g>
<!-- v17 -->
<g id="v17_Impala" class="node"><title>v17</title>
<ellipse fill="none" stroke="black" cx="464" cy="-11" rx="29" ry="11"/>
<text text-anchor="middle" x="464" y="-8.8" font-family="sans-serif" font-size="9.00">Impala</text>
</g>
<!-- v4&#45;&gt;v17 -->
<g id="edge19" class="edge"><title>v4&#45;&gt;v17</title>
<path fill="none" stroke="black" d="M489.458,-57.9883C484.609,-49.2286 477.505,-36.3956 472.032,-26.5103"/>
<polygon fill="black" stroke="black" points="469.494,-21.925 473.884,-25.2097 470.705,-24.1122 471.916,-26.2995 471.916,-26.2995 471.916,-26.2995 470.705,-24.1122 469.947,-27.3892 469.494,-21.925 469.494,-21.925"/>
</g>
<!-- v9&#45;&gt;v12 -->
<g id="edge20" class="edge"><title>v9&#45;&gt;v12</title>
<path fill="none" stroke="black" d="M177.576,-57.9883C180.676,-49.3083 185.204,-36.6286 188.721,-26.7806"/>
<polygon fill="black" stroke="black" points="190.455,-21.925 190.893,-27.3905 189.614,-24.2794 188.774,-26.6337 188.774,-26.6337 188.774,-26.6337 189.614,-24.2794 186.655,-25.8769 190.455,-21.925 190.455,-21.925"/>
</g>
<!-- v9&#45;&gt;v13 -->
<g id="edge21" class="edge"><title>v9&#45;&gt;v13</title>
<path fill="none" stroke="black" d="M165.003,-59.0026C155.861,-49.8606 141.601,-35.6014 131.185,-25.1846"/>
<polygon fill="black" stroke="black" points="127.537,-21.5373 132.664,-23.4819 129.305,-23.3051 131.073,-25.0729 131.073,-25.0729 131.073,-25.0729 129.305,-23.3051 129.482,-26.6639 127.537,-21.5373 127.537,-21.5373"/>
</g>
<!-- v9&#45;&gt;v14 -->
<g id="edge22" class="edge"><title>v9&#45;&gt;v14</title>
<path fill="none" stroke="black" d="M187.181,-59.9766C203.121,-50.2742 230.031,-33.8944 247.905,-23.0145"/>
<polygon fill="black" stroke="black" points="252.242,-20.3743 249.141,-24.896 250.107,-21.6742 247.971,-22.9741 247.971,-22.9741 247.971,-22.9741 250.107,-21.6742 246.801,-21.0521 252.242,-20.3743 252.242,-20.3743"/>
</g>
<!-- v10&#45;&gt;v12 -->
<g id="edge23" class="edge"><title>v10&#45;&gt;v12</title>
<path fill="none" stroke="black" d="M124.952,-59.737C138.789,-50.1704 161.673,-34.3496 177.273,-23.5646"/>
<polygon fill="black" stroke="black" points="181.466,-20.6656 178.633,-25.3598 179.409,-22.0873 177.353,-23.509 177.353,-23.509 177.353,-23.509 179.409,-22.0873 176.074,-21.6582 181.466,-20.6656 181.466,-20.6656"/>
</g>
<!-- v10&#45;&gt;v13 -->
<g id="edge24" class="edge"><title>v10&#45;&gt;v13</title>
<path fill="none" stroke="black" d="M113.894,-57.9883C114.652,-49.4941 115.753,-37.1697 116.623,-27.4169"/>
<polygon fill="black" stroke="black" points="117.08,-22.3039 118.876,-27.4842 116.858,-24.794 116.635,-27.2841 116.635,-27.2841 116.635,-27.2841 116.858,-24.794 114.394,-27.0839 117.08,-22.3039 117.08,-22.3039"/>
</g>
<!-- v10&#45;&gt;v14 -->
<g id="edge25" class="edge"><title>v10&#45;&gt;v14</title>
<path fill="none" stroke="black" d="M129.665,-61.9004C157.16,-51.8368 212.072,-31.7384 243.162,-20.3591"/>
<polygon fill="black" stroke="black" points="247.939,-18.6106 244.017,-22.4421 245.591,-19.4699 243.244,-20.3292 243.244,-20.3292 243.244,-20.3292 245.591,-19.4699 242.47,-18.2163 247.939,-18.6106 247.939,-18.6106"/>
</g>
<!-- v11&#45;&gt;v12 -->
<g id="edge26" class="edge"><title>v11&#45;&gt;v12</title>
<path fill="none" stroke="black" d="M262.196,-59.737C248.529,-50.1704 225.928,-34.3496 210.521,-23.5646"/>
<polygon fill="black" stroke="black" points="206.379,-20.6656 211.766,-21.6896 208.427,-22.0992 210.476,-23.5329 210.476,-23.5329 210.476,-23.5329 208.427,-22.0992 209.185,-25.3762 206.379,-20.6656 206.379,-20.6656"/>
</g>
<!-- v11&#45;&gt;v13 -->
<g id="edge27" class="edge"><title>v11&#45;&gt;v13</title>
<path fill="none" stroke="black" d="M257.305,-62.007C229.401,-51.9902 173.22,-31.8224 141.39,-20.3963"/>
<polygon fill="black" stroke="black" points="136.498,-18.6404 141.964,-18.2121 138.851,-19.4851 141.204,-20.3298 141.204,-20.3298 141.204,-20.3298 138.851,-19.4851 140.444,-22.4475 136.498,-18.6404 136.498,-18.6404"/>
</g>
<!-- v11&#45;&gt;v14 -->
<g id="edge28" class="edge"><title>v11&#45;&gt;v14</title>
<path fill="none" stroke="black" d="M272.57,-57.9883C271.356,-49.4941 269.596,-37.1697 268.202,-27.4169"/>
<polygon fill="black" stroke="black" points="267.472,-22.3039 270.407,-26.9354 267.826,-24.7787 268.179,-27.2536 268.179,-27.2536 268.179,-27.2536 267.826,-24.7787 265.952,-27.5719 267.472,-22.3039 267.472,-22.3039"/>
</g>
<!-- v15&#45;&gt;v16 -->
<g id="edge29" class="edge"><title>v15&#45;&gt;v16</title>
<path fill="none" stroke="black" d="M1004.12,-58.5004C1010.84,-49.5445 1020.99,-36.018 1028.61,-25.859"/>
<polygon fill="black" stroke="black" points="1031.7,-21.7345 1030.5,-27.0845 1030.2,-23.7345 1028.7,-25.7345 1028.7,-25.7345 1028.7,-25.7345 1030.2,-23.7345 1026.9,-24.3845 1031.7,-21.7345 1031.7,-21.7345"/>
</g>
<!-- v17&#45;&gt;v21 -->
<g id="edge50" class="edge"><title>v17&#45;&gt;v21</title>
<path fill="none" stroke="green" d="M476.251,-21.2104C485.241,-28.007 498.086,-36.3366 511,-40 568.295,-56.2535 587.705,-56.2535 645,-40 657.914,-36.3366 670.759,-28.007 679.749,-21.2104"/>
</g>
<!-- v19&#45;&gt;v20 -->
<g id="edge30" class="edge"><title>v19&#45;&gt;v20</title>
<path fill="none" stroke="black" d="M862.221,-60.0953C884.542,-49.8498 923.391,-32.0171 946.995,-21.1824"/>
<polygon fill="black" stroke="black" points="951.79,-18.9819 948.184,-23.1126 949.517,-20.0248 947.245,-21.0678 947.245,-21.0678 947.245,-21.0678 949.517,-20.0248 946.307,-19.0229 951.79,-18.9819 951.79,-18.9819"/>
</g>
<!-- v19&#45;&gt;v23 -->
<g id="edge51" class="edge"><title>v19&#45;&gt;v23</title>
<path fill="none" stroke="green" d="M857.251,-79.2104C866.241,-86.007 879.086,-94.3366 892,-98 942.454,-112.313 1077.05,-110.411 1128,-98 1143.11,-94.3208 1158.68,-85.8006 1169.56,-78.9418"/>
</g>
<!-- v23&#45;&gt;v24 -->
<g id="edge31" class="edge"><title>v23&#45;&gt;v24</title>
<path fill="none" stroke="black" d="M1178.46,-57.9883C1173.61,-49.2286 1166.5,-36.3956 1161.03,-26.5103"/>
<polygon fill="black" stroke="black" points="1158.49,-21.925 1162.88,-25.2097 1159.71,-24.1122 1160.92,-26.2995 1160.92,-26.2995 1160.92,-26.2995 1159.71,-24.1122 1158.95,-27.3892 1158.49,-21.925 1158.49,-21.925"/>
</g>
</g>
</svg>
