<?xml version="1.0" encoding="UTF-8" standalone="no"?>
<?xml-stylesheet href="style.css" type="text/css"?>
<!DOCTYPE svg PUBLIC "-//W3C//DTD SVG 1.1//EN"
 "http://www.w3.org/Graphics/SVG/1.1/DTD/svg11.dtd">
<!-- Generated by graphviz version 2.38.0 (20140413.2041)
 -->
<!-- Title: 18.svg Pages: 1 -->
<svg width="1008pt" height="374pt"
 viewBox="0.00 0.00 1007.50 374.00" xmlns="http://www.w3.org/2000/svg" xmlns:xlink="http://www.w3.org/1999/xlink">
<g id="graph0" class="graph" transform="scale(1 1) rotate(0) translate(4 370)">
<title>18.svg</title>
<polygon fill="white" stroke="none" points="-4,4 -4,-370 1003.5,-370 1003.5,4 -4,4"/>
<!-- r0 -->
<g id="node1" class="node"><title>r0</title>
<polygon fill="none" stroke="black" stroke-dasharray="5,2" points="623,-366 600,-366 600,-348 623,-348 623,-366"/>
<text text-anchor="middle" x="611.5" y="-354.8" font-family="serif" font-size="9.00">0</text>
</g>
<!-- v0 -->
<g id="v0_Building" class="node"><title>v0</title>
<ellipse fill="none" stroke="black" cx="611.5" cy="-301" rx="36" ry="11"/>
<text text-anchor="middle" x="611.5" y="-298.8" font-family="sans-serif" font-size="9.00">Building</text>
</g>
<!-- r0&#45;&gt;v0 -->
<g id="edge1" class="edge"><title>r0&#45;&gt;v0</title>
<path fill="none" stroke="black" d="M611.5,-347.562C611.5,-339.453 611.5,-327.014 611.5,-317.181"/>
<polygon fill="black" stroke="black" points="611.5,-312.03 613.75,-317.03 611.5,-314.53 611.5,-317.03 611.5,-317.03 611.5,-317.03 611.5,-314.53 609.25,-317.03 611.5,-312.03 611.5,-312.03"/>
</g>
<!-- r1 -->
<g id="node2" class="node"><title>r1</title>
<polygon fill="none" stroke="black" stroke-dasharray="5,2" points="957,-366 934,-366 934,-348 957,-348 957,-366"/>
<text text-anchor="middle" x="945.5" y="-354.8" font-family="serif" font-size="9.00">1</text>
</g>
<!-- v9 -->
<g id="v9_RulesKeywords" class="node"><title>v9</title>
<ellipse fill="none" stroke="black" cx="945.5" cy="-69" rx="54" ry="11"/>
<text text-anchor="middle" x="945.5" y="-66.8" font-family="sans-serif" font-size="9.00">RulesKeywords</text>
</g>
<!-- r1&#45;&gt;v9 -->
<g id="edge2" class="edge"><title>r1&#45;&gt;v9</title>
<path fill="none" stroke="black" d="M945.5,-347.849C945.5,-329.373 945.5,-282.889 945.5,-244 945.5,-244 945.5,-244 945.5,-184 945.5,-148.604 945.5,-107.026 945.5,-85.1783"/>
<polygon fill="black" stroke="black" points="945.5,-80.0648 947.75,-85.0648 945.5,-82.5648 945.5,-85.0648 945.5,-85.0648 945.5,-85.0648 945.5,-82.5648 943.25,-85.0648 945.5,-80.0648 945.5,-80.0648"/>
</g>
<!-- e7 -->
<g id="node3" class="node"><title>e7</title>
</g>
<!-- v8 -->
<g id="v8_SmartLight" class="node"><title>v8</title>
<ellipse fill="none" stroke="black" cx="209.5" cy="-11" rx="43" ry="11"/>
<text text-anchor="middle" x="209.5" y="-8.8" font-family="sans-serif" font-size="9.00">SmartLight</text>
</g>
<!-- e7&#45;&gt;v8 -->
<g id="edge28" class="edge"><title>e7&#45;&gt;v8</title>
<path fill="none" stroke="green" d="M209.5,-64.1674C209.5,-55.5862 209.5,-34.5957 209.5,-22.0117"/>
<polygon fill="green" stroke="green" points="213,-67.3001 206,-67.2999 206,-65.8999 213,-65.9001 213,-67.3001"/>
<polyline fill="none" stroke="green" points="209.5,-68 209.5,-64.5 "/>
</g>
<!-- v1 -->
<g id="v1_Floor" class="node"><title>v1</title>
<ellipse fill="none" stroke="black" cx="480.5" cy="-243" rx="25" ry="11"/>
<text text-anchor="middle" x="480.5" y="-240.8" font-family="sans-serif" font-size="9.00">Floor</text>
</g>
<!-- v0&#45;&gt;v1 -->
<g id="edge3" class="edge"><title>v0&#45;&gt;v1</title>
<path fill="none" stroke="black" d="M591.888,-291.616C567.799,-281.318 527.068,-263.907 502.102,-253.234"/>
<polygon fill="black" stroke="black" points="497.329,-251.194 502.811,-251.09 499.627,-252.177 501.926,-253.159 501.926,-253.159 501.926,-253.159 499.627,-252.177 501.042,-255.228 497.329,-251.194 497.329,-251.194"/>
</g>
<!-- v2 -->
<g id="v2_InstallationBus" class="node"><title>v2</title>
<ellipse fill="none" stroke="black" cx="788.5" cy="-69" rx="61" ry="11"/>
<text text-anchor="middle" x="788.5" y="-66.8" font-family="sans-serif" font-size="9.00">InstallationBus</text>
</g>
<!-- v0&#45;&gt;v2 -->
<g id="edge4" class="edge"><title>v0&#45;&gt;v2</title>
<path fill="none" stroke="black" d="M619.105,-290.117C647.126,-253.707 744.669,-126.956 777.568,-84.2053"/>
<polygon fill="black" stroke="black" points="780.724,-80.105 779.457,-85.4398 779.199,-82.0863 777.674,-84.0675 777.674,-84.0675 777.674,-84.0675 779.199,-82.0863 775.891,-82.6953 780.724,-80.105 780.724,-80.105"/>
</g>
<!-- v4 -->
<g id="v4_Room" class="node"><title>v4</title>
<ellipse fill="none" stroke="black" cx="142.5" cy="-185" rx="21.5" ry="11"/>
<text text-anchor="middle" x="142.5" y="-182.8" font-family="sans-serif" font-size="9.00">Room</text>
</g>
<!-- v1&#45;&gt;v4 -->
<g id="edge5" class="edge"><title>v1&#45;&gt;v4</title>
<path fill="none" stroke="black" d="M457.798,-238.239C397.044,-228.173 231.061,-200.673 167.615,-190.161"/>
<polygon fill="black" stroke="black" points="162.512,-189.316 167.813,-187.913 164.978,-189.724 167.445,-190.133 167.445,-190.133 167.445,-190.133 164.978,-189.724 167.077,-192.353 162.512,-189.316 162.512,-189.316"/>
</g>
<!-- v10 -->
<g id="v10_Hallway" class="node"><title>v10</title>
<ellipse fill="none" stroke="black" cx="303.5" cy="-11" rx="32.5" ry="11"/>
<text text-anchor="middle" x="303.5" y="-8.8" font-family="sans-serif" font-size="9.00">Hallway</text>
</g>
<!-- v1&#45;&gt;v10 -->
<g id="edge6" class="edge"><title>v1&#45;&gt;v10</title>
<path fill="none" stroke="black" d="M473.12,-232.41C445.351,-196.326 347.064,-68.6084 314.253,-25.9726"/>
<polygon fill="black" stroke="black" points="311.109,-21.888 315.942,-24.4783 312.634,-23.8692 314.159,-25.8505 314.159,-25.8505 314.159,-25.8505 312.634,-23.8692 312.376,-27.2227 311.109,-21.888 311.109,-21.888"/>
</g>
<!-- v13 -->
<g id="v13_Room" class="node"><title>v13</title>
<ellipse fill="none" stroke="black" cx="480.5" cy="-69" rx="21.5" ry="11"/>
<text text-anchor="middle" x="480.5" y="-66.8" font-family="sans-serif" font-size="9.00">Room</text>
</g>
<!-- v1&#45;&gt;v13 -->
<g id="edge7" class="edge"><title>v1&#45;&gt;v13</title>
<path fill="none" stroke="black" d="M480.5,-231.756C480.5,-202.786 480.5,-120.136 480.5,-85.5335"/>
<polygon fill="black" stroke="black" points="480.5,-80.4081 482.75,-85.408 480.5,-82.9081 480.5,-85.4081 480.5,-85.4081 480.5,-85.4081 480.5,-82.9081 478.25,-85.4081 480.5,-80.4081 480.5,-80.4081"/>
</g>
<!-- v17 -->
<g id="v17_Room" class="node"><title>v17</title>
<ellipse fill="none" stroke="black" cx="660.5" cy="-69" rx="21.5" ry="11"/>
<text text-anchor="middle" x="660.5" y="-66.8" font-family="sans-serif" font-size="9.00">Room</text>
</g>
<!-- v1&#45;&gt;v17 -->
<g id="edge8" class="edge"><title>v1&#45;&gt;v17</title>
<path fill="none" stroke="black" d="M490.178,-232.753C520.211,-204.054 611.897,-116.443 646.807,-83.0847"/>
<polygon fill="black" stroke="black" points="650.775,-79.2932 648.714,-84.3742 648.967,-81.0203 647.16,-82.7475 647.16,-82.7475 647.16,-82.7475 648.967,-81.0203 645.605,-81.1208 650.775,-79.2932 650.775,-79.2932"/>
</g>
<!-- v3 -->
<g id="v3_Data" class="node"><title>v3</title>
<ellipse fill="none" stroke="black" cx="855.5" cy="-11" rx="21.5" ry="11"/>
<text text-anchor="middle" x="855.5" y="-8.8" font-family="sans-serif" font-size="9.00">Data</text>
</g>
<!-- v2&#45;&gt;v3 -->
<g id="edge9" class="edge"><title>v2&#45;&gt;v3</title>
<path fill="none" stroke="black" d="M800.478,-57.9883C811.841,-48.4913 828.932,-34.2063 841.046,-24.0808"/>
<polygon fill="black" stroke="black" points="844.948,-20.8193 842.555,-25.7523 843.03,-22.4226 841.112,-24.0259 841.112,-24.0259 841.112,-24.0259 843.03,-22.4226 839.669,-22.2995 844.948,-20.8193 844.948,-20.8193"/>
</g>
<!-- v6 -->
<g id="v6_Laptop" class="node"><title>v6</title>
<ellipse fill="none" stroke="black" cx="81.5" cy="-69" rx="29" ry="11"/>
<text text-anchor="middle" x="81.5" y="-66.8" font-family="sans-serif" font-size="9.00">Laptop</text>
</g>
<!-- v2&#45;&gt;v6 -->
<g id="edge21" class="edge"><title>v2&#45;&gt;v6</title>
<path fill="none" stroke="green" d="M760.308,-78.8401C738.972,-85.7452 708.782,-94.3684 681.5,-98 577.308,-111.869 312.95,-109.774 208.5,-98 171.643,-93.8454 129.888,-83.1123 104.637,-75.9344"/>
</g>
<!-- v14 -->
<g id="v14_SmartLight" class="node"><title>v14</title>
<ellipse fill="none" stroke="black" cx="397.5" cy="-11" rx="43" ry="11"/>
<text text-anchor="middle" x="397.5" y="-8.8" font-family="sans-serif" font-size="9.00">SmartLight</text>
</g>
<!-- v2&#45;&gt;v14 -->
<g id="edge22" class="edge"><title>v2&#45;&gt;v14</title>
<path fill="none" stroke="green" d="M740.096,-62.2836C674.203,-54.3075 552.657,-38.9046 449.5,-22 442.968,-20.9296 435.997,-19.6703 429.351,-18.413"/>
</g>
<!-- v15 -->
<g id="v15_HVAC" class="node"><title>v15</title>
<ellipse fill="none" stroke="black" cx="480.5" cy="-11" rx="21.5" ry="11"/>
<text text-anchor="middle" x="480.5" y="-8.8" font-family="sans-serif" font-size="9.00">HVAC</text>
</g>
<!-- v2&#45;&gt;v15 -->
<g id="edge23" class="edge"><title>v2&#45;&gt;v15</title>
<path fill="none" stroke="green" d="M739.815,-62.3103C683.941,-55.2361 589.799,-41.6469 510.5,-22 506.13,-20.9174 501.482,-19.5023 497.182,-18.0788"/>
</g>
<!-- v16 -->
<g id="v16_FireAlarm" class="node"><title>v16</title>
<ellipse fill="none" stroke="black" cx="559.5" cy="-11" rx="39.5" ry="11"/>
<text text-anchor="middle" x="559.5" y="-8.8" font-family="sans-serif" font-size="9.00">FireAlarm</text>
</g>
<!-- v2&#45;&gt;v16 -->
<g id="edge24" class="edge"><title>v2&#45;&gt;v16</title>
<path fill="none" stroke="green" d="M754.71,-59.737C709.423,-48.6625 629.863,-29.2067 587.652,-18.8842"/>
</g>
<!-- v18 -->
<g id="v18_SmartLight" class="node"><title>v18</title>
<ellipse fill="none" stroke="black" cx="660.5" cy="-11" rx="43" ry="11"/>
<text text-anchor="middle" x="660.5" y="-8.8" font-family="sans-serif" font-size="9.00">SmartLight</text>
</g>
<!-- v2&#45;&gt;v18 -->
<g id="edge25" class="edge"><title>v2&#45;&gt;v18</title>
<path fill="none" stroke="green" d="M767.076,-58.6269C743.021,-48.1028 704.279,-31.1535 680.726,-20.8487"/>
</g>
<!-- v19 -->
<g id="v19_Workstation" class="node"><title>v19</title>
<ellipse fill="none" stroke="black" cx="768.5" cy="-11" rx="47" ry="11"/>
<text text-anchor="middle" x="768.5" y="-8.8" font-family="sans-serif" font-size="9.00">Workstation</text>
</g>
<!-- v2&#45;&gt;v19 -->
<g id="edge26" class="edge"><title>v2&#45;&gt;v19</title>
<path fill="none" stroke="green" d="M784.924,-57.9883C781.329,-47.9211 775.812,-32.4737 772.18,-22.3039"/>
</g>
<!-- v5 -->
<g id="v5_Visitor" class="node"><title>v5</title>
<ellipse fill="none" stroke="black" cx="81.5" cy="-127" rx="32.5" ry="11"/>
<text text-anchor="middle" x="81.5" y="-124.8" font-family="sans-serif" font-size="9.00">Visitor</text>
</g>
<!-- v4&#45;&gt;v5 -->
<g id="edge10" class="edge"><title>v4&#45;&gt;v5</title>
<path fill="none" stroke="black" d="M132.699,-175.003C122.741,-165.861 107.209,-151.601 95.8618,-141.185"/>
<polygon fill="black" stroke="black" points="91.8889,-137.537 97.0938,-139.261 93.7305,-139.228 95.5721,-140.919 95.5721,-140.919 95.5721,-140.919 93.7305,-139.228 94.0505,-142.576 91.8889,-137.537 91.8889,-137.537"/>
</g>
<!-- v4&#45;&gt;v8 -->
<g id="edge11" class="edge"><title>v4&#45;&gt;v8</title>
<path fill="none" stroke="black" d="M142.555,-173.918C143.061,-151.731 146.432,-97.5096 166.5,-58 172.998,-45.2073 184.135,-33.4407 193.448,-25.0107"/>
<polygon fill="black" stroke="black" points="197.308,-21.6089 195.044,-26.6028 195.432,-23.2618 193.557,-24.9147 193.557,-24.9147 193.557,-24.9147 195.432,-23.2618 192.069,-23.2266 197.308,-21.6089 197.308,-21.6089"/>
</g>
<!-- v4&#45;&gt;v10 -->
<g id="edge27" class="edge"><title>v4&#45;&gt;v10</title>
<path fill="none" stroke="green" d="M146.748,-174.102C159.197,-145.164 195.004,-62.4589 199.5,-58 221.229,-36.4525 254.771,-24.1344 277.856,-17.7687"/>
</g>
<!-- v5&#45;&gt;v6 -->
<g id="edge12" class="edge"><title>v5&#45;&gt;v6</title>
<path fill="none" stroke="black" d="M81.5,-115.988C81.5,-107.494 81.5,-95.1697 81.5,-85.4169"/>
<polygon fill="black" stroke="black" points="81.5,-80.3039 83.7501,-85.3038 81.5,-82.8039 81.5001,-85.3039 81.5001,-85.3039 81.5001,-85.3039 81.5,-82.8039 79.2501,-85.3039 81.5,-80.3039 81.5,-80.3039"/>
</g>
<!-- v7 -->
<g id="v7_Data" class="node"><title>v7</title>
<ellipse fill="none" stroke="black" cx="21.5" cy="-11" rx="21.5" ry="11"/>
<text text-anchor="middle" x="21.5" y="-8.8" font-family="sans-serif" font-size="9.00">Data</text>
</g>
<!-- v6&#45;&gt;v7 -->
<g id="edge13" class="edge"><title>v6&#45;&gt;v7</title>
<path fill="none" stroke="black" d="M71.3218,-58.5004C61.3167,-49.1622 45.9874,-34.8549 34.9755,-24.5772"/>
<polygon fill="black" stroke="black" points="31.1317,-20.9896 36.3222,-22.7563 32.9594,-22.6954 34.787,-24.4012 34.787,-24.4012 34.787,-24.4012 32.9594,-22.6954 33.2518,-26.0461 31.1317,-20.9896 31.1317,-20.9896"/>
</g>
<!-- v11 -->
<g id="v11_Software" class="node"><title>v11</title>
<ellipse fill="none" stroke="black" cx="97.5" cy="-11" rx="36" ry="11"/>
<text text-anchor="middle" x="97.5" y="-8.8" font-family="sans-serif" font-size="9.00">Software</text>
</g>
<!-- v6&#45;&gt;v11 -->
<g id="edge14" class="edge"><title>v6&#45;&gt;v11</title>
<path fill="none" stroke="black" d="M84.3605,-57.9883C86.8099,-49.4154 90.374,-36.9411 93.1724,-27.1466"/>
<polygon fill="black" stroke="black" points="94.556,-22.3039 95.3458,-27.7297 93.8692,-24.7077 93.1824,-27.1115 93.1824,-27.1115 93.1824,-27.1115 93.8692,-24.7077 91.0189,-26.4933 94.556,-22.3039 94.556,-22.3039"/>
</g>
<!-- v12 -->
<g id="v12_SendSoftware" class="node"><title>v12</title>
<ellipse fill="none" stroke="black" cx="945.5" cy="-11" rx="50.5" ry="11"/>
<text text-anchor="middle" x="945.5" y="-8.8" font-family="sans-serif" font-size="9.00">SendSoftware</text>
</g>
<!-- v9&#45;&gt;v12 -->
<g id="edge15" class="edge"><title>v9&#45;&gt;v12</title>
<path fill="none" stroke="black" d="M945.5,-57.9883C945.5,-49.4941 945.5,-37.1697 945.5,-27.4169"/>
<polygon fill="black" stroke="black" points="945.5,-22.3039 947.75,-27.3038 945.5,-24.8039 945.5,-27.3039 945.5,-27.3039 945.5,-27.3039 945.5,-24.8039 943.25,-27.3039 945.5,-22.3039 945.5,-22.3039"/>
</g>
<!-- v10&#45;&gt;v13 -->
<g id="edge29" class="edge"><title>v10&#45;&gt;v13</title>
<path fill="none" stroke="green" d="M325.724,-19.0313C361.329,-30.2962 430.441,-52.162 462.881,-62.4258"/>
</g>
<!-- v10&#45;&gt;v17 -->
<g id="edge30" class="edge"><title>v10&#45;&gt;v17</title>
<path fill="none" stroke="green" d="M328.295,-18.2888C333.931,-19.6107 339.905,-20.9276 345.5,-22 455.687,-43.1198 589.196,-59.6697 639.754,-65.6171"/>
</g>
<!-- v13&#45;&gt;v14 -->
<g id="edge16" class="edge"><title>v13&#45;&gt;v14</title>
<path fill="none" stroke="black" d="M468.253,-59.737C454.404,-50.3929 431.711,-35.082 415.767,-24.325"/>
<polygon fill="black" stroke="black" points="411.463,-21.4205 416.866,-22.3519 413.535,-22.8188 415.607,-24.2171 415.607,-24.2171 415.607,-24.2171 413.535,-22.8188 414.349,-26.0822 411.463,-21.4205 411.463,-21.4205"/>
</g>
<!-- v13&#45;&gt;v15 -->
<g id="edge17" class="edge"><title>v13&#45;&gt;v15</title>
<path fill="none" stroke="black" d="M480.5,-57.9883C480.5,-49.4941 480.5,-37.1697 480.5,-27.4169"/>
<polygon fill="black" stroke="black" points="480.5,-22.3039 482.75,-27.3038 480.5,-24.8039 480.5,-27.3039 480.5,-27.3039 480.5,-27.3039 480.5,-24.8039 478.25,-27.3039 480.5,-22.3039 480.5,-22.3039"/>
</g>
<!-- v13&#45;&gt;v16 -->
<g id="edge18" class="edge"><title>v13&#45;&gt;v16</title>
<path fill="none" stroke="black" d="M492.157,-59.737C505.339,-50.3929 526.938,-35.082 542.113,-24.325"/>
<polygon fill="black" stroke="black" points="546.21,-21.4205 543.432,-26.1477 544.171,-22.8663 542.131,-24.3121 542.131,-24.3121 542.131,-24.3121 544.171,-22.8663 540.83,-22.4765 546.21,-21.4205 546.21,-21.4205"/>
</g>
<!-- v17&#45;&gt;v18 -->
<g id="edge19" class="edge"><title>v17&#45;&gt;v18</title>
<path fill="none" stroke="black" d="M660.5,-57.9883C660.5,-49.4941 660.5,-37.1697 660.5,-27.4169"/>
<polygon fill="black" stroke="black" points="660.5,-22.3039 662.75,-27.3038 660.5,-24.8039 660.5,-27.3039 660.5,-27.3039 660.5,-27.3039 660.5,-24.8039 658.25,-27.3039 660.5,-22.3039 660.5,-22.3039"/>
</g>
<!-- v17&#45;&gt;v19 -->
<g id="edge20" class="edge"><title>v17&#45;&gt;v19</title>
<path fill="none" stroke="black" d="M674.619,-60.679C692.692,-51.3076 724.232,-34.9536 745.722,-23.8106"/>
<polygon fill="black" stroke="black" points="750.416,-21.3771 747.013,-25.6762 748.196,-22.5279 745.977,-23.6787 745.977,-23.6787 745.977,-23.6787 748.196,-22.5279 744.941,-21.6813 750.416,-21.3771 750.416,-21.3771"/>
</g>
</g>
</svg>
