<?xml version="1.0" encoding="UTF-8" standalone="no"?>
<?xml-stylesheet href="style.css" type="text/css"?>
<!DOCTYPE svg PUBLIC "-//W3C//DTD SVG 1.1//EN"
 "http://www.w3.org/Graphics/SVG/1.1/DTD/svg11.dtd">
<!-- Generated by graphviz version 2.38.0 (20140413.2041)
 -->
<!-- Title: 22.svg Pages: 1 -->
<svg width="1025pt" height="374pt"
 viewBox="0.00 0.00 1025.00 374.00" xmlns="http://www.w3.org/2000/svg" xmlns:xlink="http://www.w3.org/1999/xlink">
<g id="graph0" class="graph" transform="scale(1 1) rotate(0) translate(4 370)">
<title>22.svg</title>
<polygon fill="white" stroke="none" points="-4,4 -4,-370 1021,-370 1021,4 -4,4"/>
<!-- r0 -->
<g id="node1" class="node"><title>r0</title>
<polygon fill="none" stroke="black" stroke-dasharray="5,2" points="618.5,-366 595.5,-366 595.5,-348 618.5,-348 618.5,-366"/>
<text text-anchor="middle" x="607" y="-354.8" font-family="serif" font-size="9.00">0</text>
</g>
<!-- v0 -->
<g id="v0_Building" class="node"><title>v0</title>
<ellipse fill="none" stroke="black" cx="607" cy="-301" rx="36" ry="11"/>
<text text-anchor="middle" x="607" y="-298.8" font-family="sans-serif" font-size="9.00">Building</text>
</g>
<!-- r0&#45;&gt;v0 -->
<g id="edge1" class="edge"><title>r0&#45;&gt;v0</title>
<path fill="none" stroke="black" d="M607,-347.562C607,-339.453 607,-327.014 607,-317.181"/>
<polygon fill="black" stroke="black" points="607,-312.03 609.25,-317.03 607,-314.53 607,-317.03 607,-317.03 607,-317.03 607,-314.53 604.75,-317.03 607,-312.03 607,-312.03"/>
</g>
<!-- r1 -->
<g id="node2" class="node"><title>r1</title>
<polygon fill="none" stroke="black" stroke-dasharray="5,2" points="974.5,-366 951.5,-366 951.5,-348 974.5,-348 974.5,-366"/>
<text text-anchor="middle" x="963" y="-354.8" font-family="serif" font-size="9.00">1</text>
</g>
<!-- v9 -->
<g id="v9_RulesKeywords" class="node"><title>v9</title>
<ellipse fill="none" stroke="black" cx="963" cy="-11" rx="54" ry="11"/>
<text text-anchor="middle" x="963" y="-8.8" font-family="sans-serif" font-size="9.00">RulesKeywords</text>
</g>
<!-- r1&#45;&gt;v9 -->
<g id="edge2" class="edge"><title>r1&#45;&gt;v9</title>
<path fill="none" stroke="black" d="M963,-347.849C963,-329.373 963,-282.889 963,-244 963,-244 963,-244 963,-126 963,-90.6038 963,-49.0257 963,-27.1783"/>
<polygon fill="black" stroke="black" points="963,-22.0648 965.25,-27.0648 963,-24.5648 963,-27.0648 963,-27.0648 963,-27.0648 963,-24.5648 960.75,-27.0648 963,-22.0648 963,-22.0648"/>
</g>
<!-- e7 -->
<g id="node3" class="node"><title>e7</title>
</g>
<!-- v8 -->
<g id="v8_SmartLight" class="node"><title>v8</title>
<ellipse fill="none" stroke="black" cx="522" cy="-11" rx="43" ry="11"/>
<text text-anchor="middle" x="522" y="-8.8" font-family="sans-serif" font-size="9.00">SmartLight</text>
</g>
<!-- e7&#45;&gt;v8 -->
<g id="edge28" class="edge"><title>e7&#45;&gt;v8</title>
<path fill="none" stroke="green" d="M522,-64.1674C522,-55.5862 522,-34.5957 522,-22.0117"/>
<polygon fill="green" stroke="green" points="525.5,-67.3001 518.5,-67.2999 518.5,-65.8999 525.5,-65.9001 525.5,-67.3001"/>
<polyline fill="none" stroke="green" points="522,-68 522,-64.5 "/>
</g>
<!-- v1 -->
<g id="v1_Floor" class="node"><title>v1</title>
<ellipse fill="none" stroke="black" cx="418" cy="-243" rx="25" ry="11"/>
<text text-anchor="middle" x="418" y="-240.8" font-family="sans-serif" font-size="9.00">Floor</text>
</g>
<!-- v0&#45;&gt;v1 -->
<g id="edge3" class="edge"><title>v0&#45;&gt;v1</title>
<path fill="none" stroke="black" d="M582.678,-292.794C546.569,-282.094 479.14,-262.116 442.772,-251.34"/>
<polygon fill="black" stroke="black" points="437.639,-249.819 443.072,-249.082 440.036,-250.529 442.433,-251.239 442.433,-251.239 442.433,-251.239 440.036,-250.529 441.794,-253.397 437.639,-249.819 437.639,-249.819"/>
</g>
<!-- v2 -->
<g id="v2_InstallationBus" class="node"><title>v2</title>
<ellipse fill="none" stroke="black" cx="847" cy="-69" rx="61" ry="11"/>
<text text-anchor="middle" x="847" y="-66.8" font-family="sans-serif" font-size="9.00">InstallationBus</text>
</g>
<!-- v0&#45;&gt;v2 -->
<g id="edge4" class="edge"><title>v0&#45;&gt;v2</title>
<path fill="none" stroke="black" d="M617.007,-290.41C654.812,-254.181 789.009,-125.575 832.955,-83.4599"/>
<polygon fill="black" stroke="black" points="836.682,-79.888 834.629,-84.972 834.877,-81.6178 833.072,-83.3476 833.072,-83.3476 833.072,-83.3476 834.877,-81.6178 831.515,-81.7231 836.682,-79.888 836.682,-79.888"/>
</g>
<!-- v4 -->
<g id="v4_Room" class="node"><title>v4</title>
<ellipse fill="none" stroke="black" cx="541" cy="-185" rx="21.5" ry="11"/>
<text text-anchor="middle" x="541" y="-182.8" font-family="sans-serif" font-size="9.00">Room</text>
</g>
<!-- v1&#45;&gt;v4 -->
<g id="edge5" class="edge"><title>v1&#45;&gt;v4</title>
<path fill="none" stroke="black" d="M434.333,-234.564C456.756,-224.355 497.031,-206.018 521.16,-195.033"/>
<polygon fill="black" stroke="black" points="525.761,-192.938 522.142,-197.058 523.485,-193.974 521.21,-195.01 521.21,-195.01 521.21,-195.01 523.485,-193.974 520.278,-192.962 525.761,-192.938 525.761,-192.938"/>
</g>
<!-- v10 -->
<g id="v10_Room" class="node"><title>v10</title>
<ellipse fill="none" stroke="black" cx="181" cy="-127" rx="21.5" ry="11"/>
<text text-anchor="middle" x="181" y="-124.8" font-family="sans-serif" font-size="9.00">Room</text>
</g>
<!-- v1&#45;&gt;v10 -->
<g id="edge6" class="edge"><title>v1&#45;&gt;v10</title>
<path fill="none" stroke="black" d="M400.576,-234.875C379.434,-226.13 342.795,-210.653 312,-196 271.266,-176.618 224.607,-151.736 199.434,-138.085"/>
<polygon fill="black" stroke="black" points="194.99,-135.67 200.458,-136.08 197.187,-136.864 199.383,-138.057 199.383,-138.057 199.383,-138.057 197.187,-136.864 198.309,-140.034 194.99,-135.67 194.99,-135.67"/>
</g>
<!-- v14 -->
<g id="v14_Hallway" class="node"><title>v14</title>
<ellipse fill="none" stroke="black" cx="324" cy="-11" rx="32.5" ry="11"/>
<text text-anchor="middle" x="324" y="-8.8" font-family="sans-serif" font-size="9.00">Hallway</text>
</g>
<!-- v1&#45;&gt;v14 -->
<g id="edge7" class="edge"><title>v1&#45;&gt;v14</title>
<path fill="none" stroke="black" d="M413.961,-232.117C399.17,-195.928 347.904,-70.489 330.127,-26.9918"/>
<polygon fill="black" stroke="black" points="328.13,-22.105 332.104,-25.8822 329.076,-24.4192 330.022,-26.7334 330.022,-26.7334 330.022,-26.7334 329.076,-24.4192 327.939,-27.5846 328.13,-22.105 328.13,-22.105"/>
</g>
<!-- v16 -->
<g id="v16_Room" class="node"><title>v16</title>
<ellipse fill="none" stroke="black" cx="418" cy="-69" rx="21.5" ry="11"/>
<text text-anchor="middle" x="418" y="-66.8" font-family="sans-serif" font-size="9.00">Room</text>
</g>
<!-- v1&#45;&gt;v16 -->
<g id="edge8" class="edge"><title>v1&#45;&gt;v16</title>
<path fill="none" stroke="black" d="M418,-231.756C418,-202.786 418,-120.136 418,-85.5335"/>
<polygon fill="black" stroke="black" points="418,-80.4081 420.25,-85.408 418,-82.9081 418,-85.4081 418,-85.4081 418,-85.4081 418,-82.9081 415.75,-85.4081 418,-80.4081 418,-80.4081"/>
</g>
<!-- v3 -->
<g id="v3_Data" class="node"><title>v3</title>
<ellipse fill="none" stroke="black" cx="869" cy="-11" rx="21.5" ry="11"/>
<text text-anchor="middle" x="869" y="-8.8" font-family="sans-serif" font-size="9.00">Data</text>
</g>
<!-- v2&#45;&gt;v3 -->
<g id="edge9" class="edge"><title>v2&#45;&gt;v3</title>
<path fill="none" stroke="black" d="M850.933,-57.9883C854.343,-49.3083 859.324,-36.6286 863.193,-26.7806"/>
<polygon fill="black" stroke="black" points="865.101,-21.925 865.367,-27.4015 864.187,-24.2519 863.273,-26.5788 863.273,-26.5788 863.273,-26.5788 864.187,-24.2519 861.178,-25.756 865.101,-21.925 865.101,-21.925"/>
</g>
<!-- v6 -->
<g id="v6_Laptop" class="node"><title>v6</title>
<ellipse fill="none" stroke="black" cx="717" cy="-69" rx="29" ry="11"/>
<text text-anchor="middle" x="717" y="-66.8" font-family="sans-serif" font-size="9.00">Laptop</text>
</g>
<!-- v2&#45;&gt;v6 -->
<g id="edge21" class="edge"><title>v2&#45;&gt;v6</title>
<path fill="none" stroke="green" d="M785.968,-69C772.712,-69 759.456,-69 746.199,-69"/>
</g>
<!-- v12 -->
<g id="v12_HVAC" class="node"><title>v12</title>
<ellipse fill="none" stroke="black" cx="59" cy="-69" rx="21.5" ry="11"/>
<text text-anchor="middle" x="59" y="-66.8" font-family="sans-serif" font-size="9.00">HVAC</text>
</g>
<!-- v2&#45;&gt;v12 -->
<g id="edge22" class="edge"><title>v2&#45;&gt;v12</title>
<path fill="none" stroke="green" d="M820.013,-78.983C799.922,-85.8623 771.653,-94.3901 746,-98 484.751,-134.763 162.575,-86.4401 79.3631,-72.5395"/>
</g>
<!-- v15 -->
<g id="v15_Workstation" class="node"><title>v15</title>
<ellipse fill="none" stroke="black" cx="630" cy="-11" rx="47" ry="11"/>
<text text-anchor="middle" x="630" y="-8.8" font-family="sans-serif" font-size="9.00">Workstation</text>
</g>
<!-- v2&#45;&gt;v15 -->
<g id="edge23" class="edge"><title>v2&#45;&gt;v15</title>
<path fill="none" stroke="green" d="M814.513,-59.6162C772.54,-48.7845 700.068,-30.082 659.568,-19.6305"/>
</g>
<!-- v17 -->
<g id="v17_SmartLight" class="node"><title>v17</title>
<ellipse fill="none" stroke="black" cx="418" cy="-11" rx="43" ry="11"/>
<text text-anchor="middle" x="418" y="-8.8" font-family="sans-serif" font-size="9.00">SmartLight</text>
</g>
<!-- v2&#45;&gt;v17 -->
<g id="edge24" class="edge"><title>v2&#45;&gt;v17</title>
<path fill="none" stroke="green" d="M797.775,-62.4197C710.512,-52.4561 532.045,-31.7394 470,-22 463.461,-20.9736 456.487,-19.7335 449.84,-18.4811"/>
</g>
<!-- v18 -->
<g id="v18_SmartLight" class="node"><title>v18</title>
<ellipse fill="none" stroke="black" cx="133" cy="-11" rx="43" ry="11"/>
<text text-anchor="middle" x="133" y="-8.8" font-family="sans-serif" font-size="9.00">SmartLight</text>
</g>
<!-- v2&#45;&gt;v18 -->
<g id="edge25" class="edge"><title>v2&#45;&gt;v18</title>
<path fill="none" stroke="green" d="M798.339,-62.2956C784.36,-60.7695 769.086,-59.2098 755,-58 502.093,-36.2797 436.809,-54.0328 185,-22 178.251,-21.1415 171.059,-19.9438 164.244,-18.6746"/>
</g>
<!-- v19 -->
<g id="v19_FireAlarm" class="node"><title>v19</title>
<ellipse fill="none" stroke="black" cx="234" cy="-11" rx="39.5" ry="11"/>
<text text-anchor="middle" x="234" y="-8.8" font-family="sans-serif" font-size="9.00">FireAlarm</text>
</g>
<!-- v2&#45;&gt;v19 -->
<g id="edge26" class="edge"><title>v2&#45;&gt;v19</title>
<path fill="none" stroke="green" d="M797.852,-62.3608C784.002,-60.8525 768.918,-59.2858 755,-58 545.064,-38.6064 490.747,-51.5617 282,-22 275.763,-21.1168 269.121,-19.9086 262.83,-18.6371"/>
</g>
<!-- v5 -->
<g id="v5_Visitor" class="node"><title>v5</title>
<ellipse fill="none" stroke="black" cx="684" cy="-127" rx="32.5" ry="11"/>
<text text-anchor="middle" x="684" y="-124.8" font-family="sans-serif" font-size="9.00">Visitor</text>
</g>
<!-- v4&#45;&gt;v5 -->
<g id="edge10" class="edge"><title>v4&#45;&gt;v5</title>
<path fill="none" stroke="black" d="M557.126,-177.685C581.983,-167.951 629.848,-149.206 659.154,-137.73"/>
<polygon fill="black" stroke="black" points="664.046,-135.814 660.211,-139.733 661.718,-136.726 659.39,-137.637 659.39,-137.637 659.39,-137.637 661.718,-136.726 658.57,-135.542 664.046,-135.814 664.046,-135.814"/>
</g>
<!-- v4&#45;&gt;v8 -->
<g id="edge11" class="edge"><title>v4&#45;&gt;v8</title>
<path fill="none" stroke="black" d="M536.336,-174.013C526.996,-152.881 507.276,-101.967 512,-58 513.124,-47.5392 515.646,-35.9669 517.876,-27.0462"/>
<polygon fill="black" stroke="black" points="519.143,-22.1288 520.075,-27.532 518.519,-24.5498 517.896,-26.9708 517.896,-26.9708 517.896,-26.9708 518.519,-24.5498 515.717,-26.4095 519.143,-22.1288 519.143,-22.1288"/>
</g>
<!-- v4&#45;&gt;v14 -->
<g id="edge27" class="edge"><title>v4&#45;&gt;v14</title>
<path fill="none" stroke="green" d="M527.498,-176.322C499.774,-160.256 435.005,-121.158 387,-80 365.253,-61.3543 343.29,-35.7625 331.925,-21.8985"/>
</g>
<!-- v4&#45;&gt;v15 -->
<g id="edge12" class="edge"><title>v4&#45;&gt;v15</title>
<path fill="none" stroke="black" d="M546.04,-174.26C560.901,-145.54 604.61,-61.0692 622.368,-26.749"/>
<polygon fill="black" stroke="black" points="624.794,-22.0619 624.494,-27.5367 623.645,-24.2822 622.496,-26.5026 622.496,-26.5026 622.496,-26.5026 623.645,-24.2822 620.497,-25.4686 624.794,-22.0619 624.794,-22.0619"/>
</g>
<!-- v5&#45;&gt;v6 -->
<g id="edge13" class="edge"><title>v5&#45;&gt;v6</title>
<path fill="none" stroke="black" d="M689.9,-115.988C695.109,-107.149 702.762,-94.162 708.608,-84.2414"/>
<polygon fill="black" stroke="black" points="711.151,-79.925 710.551,-85.375 709.882,-82.0789 708.613,-84.2327 708.613,-84.2327 708.613,-84.2327 709.882,-82.0789 706.674,-83.0904 711.151,-79.925 711.151,-79.925"/>
</g>
<!-- v7 -->
<g id="v7_Data" class="node"><title>v7</title>
<ellipse fill="none" stroke="black" cx="717" cy="-11" rx="21.5" ry="11"/>
<text text-anchor="middle" x="717" y="-8.8" font-family="sans-serif" font-size="9.00">Data</text>
</g>
<!-- v6&#45;&gt;v7 -->
<g id="edge14" class="edge"><title>v6&#45;&gt;v7</title>
<path fill="none" stroke="black" d="M717,-57.9883C717,-49.4941 717,-37.1697 717,-27.4169"/>
<polygon fill="black" stroke="black" points="717,-22.3039 719.25,-27.3038 717,-24.8039 717,-27.3039 717,-27.3039 717,-27.3039 717,-24.8039 714.75,-27.3039 717,-22.3039 717,-22.3039"/>
</g>
<!-- v11 -->
<g id="v11_Software" class="node"><title>v11</title>
<ellipse fill="none" stroke="black" cx="793" cy="-11" rx="36" ry="11"/>
<text text-anchor="middle" x="793" y="-8.8" font-family="sans-serif" font-size="9.00">Software</text>
</g>
<!-- v6&#45;&gt;v11 -->
<g id="edge15" class="edge"><title>v6&#45;&gt;v11</title>
<path fill="none" stroke="black" d="M729.211,-59.0026C741.911,-49.6442 761.89,-34.9234 776.102,-24.4514"/>
<polygon fill="black" stroke="black" points="780.313,-21.3485 777.622,-26.1259 778.3,-22.8315 776.287,-24.3145 776.287,-24.3145 776.287,-24.3145 778.3,-22.8315 774.953,-22.5032 780.313,-21.3485 780.313,-21.3485"/>
</g>
<!-- v10&#45;&gt;v12 -->
<g id="edge16" class="edge"><title>v10&#45;&gt;v12</title>
<path fill="none" stroke="black" d="M165.549,-118.908C143.548,-108.809 103.182,-90.2803 78.9475,-79.1563"/>
<polygon fill="black" stroke="black" points="74.3259,-77.0349 79.8087,-77.0759 76.598,-78.0778 78.8701,-79.1207 78.8701,-79.1207 78.8701,-79.1207 76.598,-78.0778 77.9314,-81.1656 74.3259,-77.0349 74.3259,-77.0349"/>
</g>
<!-- v10&#45;&gt;v14 -->
<g id="edge29" class="edge"><title>v10&#45;&gt;v14</title>
<path fill="none" stroke="green" d="M191.748,-117.431C217.99,-96.5118 285.161,-42.9623 312.332,-21.3019"/>
</g>
<!-- v10&#45;&gt;v18 -->
<g id="edge17" class="edge"><title>v10&#45;&gt;v18</title>
<path fill="none" stroke="black" d="M176.74,-115.883C168.258,-95.7373 149.219,-50.521 139.292,-26.9438"/>
<polygon fill="black" stroke="black" points="137.319,-22.2579 141.333,-25.993 138.289,-24.562 139.259,-26.8661 139.259,-26.8661 139.259,-26.8661 138.289,-24.562 137.186,-27.7393 137.319,-22.2579 137.319,-22.2579"/>
</g>
<!-- v10&#45;&gt;v19 -->
<g id="edge18" class="edge"><title>v10&#45;&gt;v19</title>
<path fill="none" stroke="black" d="M185.703,-115.883C195.117,-95.6355 216.304,-50.0637 227.218,-26.5882"/>
<polygon fill="black" stroke="black" points="229.383,-21.9313 229.315,-27.4138 228.329,-24.1983 227.275,-26.4653 227.275,-26.4653 227.275,-26.4653 228.329,-24.1983 225.235,-25.5167 229.383,-21.9313 229.383,-21.9313"/>
</g>
<!-- v13 -->
<g id="v13_Software" class="node"><title>v13</title>
<ellipse fill="none" stroke="black" cx="36" cy="-11" rx="36" ry="11"/>
<text text-anchor="middle" x="36" y="-8.8" font-family="sans-serif" font-size="9.00">Software</text>
</g>
<!-- v12&#45;&gt;v13 -->
<g id="edge19" class="edge"><title>v12&#45;&gt;v13</title>
<path fill="none" stroke="black" d="M54.8881,-57.9883C51.3671,-49.4154 46.2437,-36.9411 42.2209,-27.1466"/>
<polygon fill="black" stroke="black" points="40.2319,-22.3039 44.2129,-26.0741 41.1818,-24.6164 42.1316,-26.929 42.1316,-26.929 42.1316,-26.929 41.1818,-24.6164 40.0503,-27.7838 40.2319,-22.3039 40.2319,-22.3039"/>
</g>
<!-- v14&#45;&gt;v16 -->
<g id="edge30" class="edge"><title>v14&#45;&gt;v16</title>
<path fill="none" stroke="green" d="M338.817,-20.827C357.008,-31.6646 387.576,-49.8751 404.93,-60.2134"/>
</g>
<!-- v16&#45;&gt;v17 -->
<g id="edge20" class="edge"><title>v16&#45;&gt;v17</title>
<path fill="none" stroke="black" d="M418,-57.9883C418,-49.4941 418,-37.1697 418,-27.4169"/>
<polygon fill="black" stroke="black" points="418,-22.3039 420.25,-27.3038 418,-24.8039 418,-27.3039 418,-27.3039 418,-27.3039 418,-24.8039 415.75,-27.3039 418,-22.3039 418,-22.3039"/>
</g>
</g>
</svg>
