<?xml version="1.0" encoding="UTF-8" standalone="no"?>
<?xml-stylesheet href="style.css" type="text/css"?>
<!DOCTYPE svg PUBLIC "-//W3C//DTD SVG 1.1//EN"
 "http://www.w3.org/Graphics/SVG/1.1/DTD/svg11.dtd">
<!-- Generated by graphviz version 2.38.0 (20140413.2041)
 -->
<!-- Title: 7.svg Pages: 1 -->
<svg width="1210pt" height="374pt"
 viewBox="0.00 0.00 1209.50 374.00" xmlns="http://www.w3.org/2000/svg" xmlns:xlink="http://www.w3.org/1999/xlink">
<g id="graph0" class="graph" transform="scale(1 1) rotate(0) translate(4 370)">
<title>7.svg</title>
<polygon fill="white" stroke="none" points="-4,4 -4,-370 1205.5,-370 1205.5,4 -4,4"/>
<!-- r0 -->
<g id="node1" class="node"><title>r0</title>
<polygon fill="none" stroke="black" stroke-dasharray="5,2" points="276.5,-366 253.5,-366 253.5,-348 276.5,-348 276.5,-366"/>
<text text-anchor="middle" x="265" y="-354.8" font-family="serif" font-size="9.00">0</text>
</g>
<!-- v0 -->
<g id="v0_Building" class="node"><title>v0</title>
<ellipse fill="none" stroke="black" cx="265" cy="-301" rx="36" ry="11"/>
<text text-anchor="middle" x="265" y="-298.8" font-family="sans-serif" font-size="9.00">Building</text>
</g>
<!-- r0&#45;&gt;v0 -->
<g id="edge1" class="edge"><title>r0&#45;&gt;v0</title>
<path fill="none" stroke="black" d="M265,-347.562C265,-339.453 265,-327.014 265,-317.181"/>
<polygon fill="black" stroke="black" points="265,-312.03 267.25,-317.03 265,-314.53 265,-317.03 265,-317.03 265,-317.03 265,-314.53 262.75,-317.03 265,-312.03 265,-312.03"/>
</g>
<!-- r1 -->
<g id="node2" class="node"><title>r1</title>
<polygon fill="none" stroke="black" stroke-dasharray="5,2" points="1046.5,-366 1023.5,-366 1023.5,-348 1046.5,-348 1046.5,-366"/>
<text text-anchor="middle" x="1035" y="-354.8" font-family="serif" font-size="9.00">1</text>
</g>
<!-- v3 -->
<g id="v3_RulesKeywords" class="node"><title>v3</title>
<ellipse fill="none" stroke="black" cx="1035" cy="-69" rx="54" ry="11"/>
<text text-anchor="middle" x="1035" y="-66.8" font-family="sans-serif" font-size="9.00">RulesKeywords</text>
</g>
<!-- r1&#45;&gt;v3 -->
<g id="edge2" class="edge"><title>r1&#45;&gt;v3</title>
<path fill="none" stroke="black" d="M1035,-347.849C1035,-329.373 1035,-282.889 1035,-244 1035,-244 1035,-244 1035,-184 1035,-148.604 1035,-107.026 1035,-85.1783"/>
<polygon fill="black" stroke="black" points="1035,-80.0648 1037.25,-85.0648 1035,-82.5648 1035,-85.0648 1035,-85.0648 1035,-85.0648 1035,-82.5648 1032.75,-85.0648 1035,-80.0648 1035,-80.0648"/>
</g>
<!-- e9 -->
<g id="node3" class="node"><title>e9</title>
</g>
<!-- v8 -->
<g id="v8_Laptop" class="node"><title>v8</title>
<ellipse fill="none" stroke="black" cx="300" cy="-69" rx="29" ry="11"/>
<text text-anchor="middle" x="300" y="-66.8" font-family="sans-serif" font-size="9.00">Laptop</text>
</g>
<!-- e9&#45;&gt;v8 -->
<g id="edge31" class="edge"><title>e9&#45;&gt;v8</title>
<path fill="none" stroke="green" d="M300,-122.167C300,-113.586 300,-92.5957 300,-80.0117"/>
<polygon fill="green" stroke="green" points="303.5,-125.3 296.5,-125.3 296.5,-123.9 303.5,-123.9 303.5,-125.3"/>
<polyline fill="none" stroke="green" points="300,-126 300,-122.5 "/>
</g>
<!-- v1 -->
<g id="v1_InstallationBus" class="node"><title>v1</title>
<ellipse fill="none" stroke="black" cx="61" cy="-69" rx="61" ry="11"/>
<text text-anchor="middle" x="61" y="-66.8" font-family="sans-serif" font-size="9.00">InstallationBus</text>
</g>
<!-- v0&#45;&gt;v1 -->
<g id="edge3" class="edge"><title>v0&#45;&gt;v1</title>
<path fill="none" stroke="black" d="M256.234,-290.117C223.875,-253.633 111.063,-126.443 73.3706,-83.9473"/>
<polygon fill="black" stroke="black" points="69.9627,-80.105 74.9638,-82.3527 71.6216,-81.9754 73.2805,-83.8457 73.2805,-83.8457 73.2805,-83.8457 71.6216,-81.9754 71.5972,-85.3387 69.9627,-80.105 69.9627,-80.105"/>
</g>
<!-- v4 -->
<g id="v4_Floor" class="node"><title>v4</title>
<ellipse fill="none" stroke="black" cx="439" cy="-243" rx="25" ry="11"/>
<text text-anchor="middle" x="439" y="-240.8" font-family="sans-serif" font-size="9.00">Floor</text>
</g>
<!-- v0&#45;&gt;v4 -->
<g id="edge4" class="edge"><title>v0&#45;&gt;v4</title>
<path fill="none" stroke="black" d="M288.106,-292.564C321.012,-281.973 381.097,-262.635 414.665,-251.832"/>
<polygon fill="black" stroke="black" points="419.817,-250.174 415.746,-253.848 417.437,-250.94 415.057,-251.706 415.057,-251.706 415.057,-251.706 417.437,-250.94 414.368,-249.564 419.817,-250.174 419.817,-250.174"/>
</g>
<!-- v2 -->
<g id="v2_Data" class="node"><title>v2</title>
<ellipse fill="none" stroke="black" cx="61" cy="-11" rx="21.5" ry="11"/>
<text text-anchor="middle" x="61" y="-8.8" font-family="sans-serif" font-size="9.00">Data</text>
</g>
<!-- v1&#45;&gt;v2 -->
<g id="edge5" class="edge"><title>v1&#45;&gt;v2</title>
<path fill="none" stroke="black" d="M61,-57.9883C61,-49.4941 61,-37.1697 61,-27.4169"/>
<polygon fill="black" stroke="black" points="61,-22.3039 63.2501,-27.3038 61,-24.8039 61.0001,-27.3039 61.0001,-27.3039 61.0001,-27.3039 61,-24.8039 58.7501,-27.3039 61,-22.3039 61,-22.3039"/>
</g>
<!-- v10 -->
<g id="v10_SmartLight" class="node"><title>v10</title>
<ellipse fill="none" stroke="black" cx="147" cy="-11" rx="43" ry="11"/>
<text text-anchor="middle" x="147" y="-8.8" font-family="sans-serif" font-size="9.00">SmartLight</text>
</g>
<!-- v1&#45;&gt;v10 -->
<g id="edge22" class="edge"><title>v1&#45;&gt;v10</title>
<path fill="none" stroke="green" d="M75.9801,-58.2455C91.861,-47.9044 116.774,-31.6823 132.478,-21.4561"/>
</g>
<!-- v15 -->
<g id="v15_SmartLight" class="node"><title>v15</title>
<ellipse fill="none" stroke="black" cx="439" cy="-11" rx="43" ry="11"/>
<text text-anchor="middle" x="439" y="-8.8" font-family="sans-serif" font-size="9.00">SmartLight</text>
</g>
<!-- v1&#45;&gt;v15 -->
<g id="edge23" class="edge"><title>v1&#45;&gt;v15</title>
<path fill="none" stroke="green" d="M108.197,-62.0104C171.531,-53.8152 287.465,-38.2603 386,-22 392.744,-20.8871 399.952,-19.5957 406.81,-18.3182"/>
</g>
<!-- v16 -->
<g id="v16_HVAC" class="node"><title>v16</title>
<ellipse fill="none" stroke="black" cx="522" cy="-11" rx="21.5" ry="11"/>
<text text-anchor="middle" x="522" y="-8.8" font-family="sans-serif" font-size="9.00">HVAC</text>
</g>
<!-- v1&#45;&gt;v16 -->
<g id="edge24" class="edge"><title>v1&#45;&gt;v16</title>
<path fill="none" stroke="green" d="M114.582,-63.6527C213.335,-55.4109 420.406,-36.9955 491,-22 495.757,-20.9895 500.817,-19.5294 505.438,-18.0358"/>
</g>
<!-- v17 -->
<g id="v17_FireAlarm" class="node"><title>v17</title>
<ellipse fill="none" stroke="black" cx="338" cy="-11" rx="39.5" ry="11"/>
<text text-anchor="middle" x="338" y="-8.8" font-family="sans-serif" font-size="9.00">FireAlarm</text>
</g>
<!-- v1&#45;&gt;v17 -->
<g id="edge25" class="edge"><title>v1&#45;&gt;v17</title>
<path fill="none" stroke="green" d="M98.9269,-60.375C144.178,-51.2713 222.119,-35.5713 289,-22 295.126,-20.7568 301.683,-19.422 307.942,-18.1453"/>
</g>
<!-- v19 -->
<g id="v19_SmartLight" class="node"><title>v19</title>
<ellipse fill="none" stroke="black" cx="605" cy="-11" rx="43" ry="11"/>
<text text-anchor="middle" x="605" y="-8.8" font-family="sans-serif" font-size="9.00">SmartLight</text>
</g>
<!-- v1&#45;&gt;v19 -->
<g id="edge26" class="edge"><title>v1&#45;&gt;v19</title>
<path fill="none" stroke="green" d="M114.327,-63.6364C223.372,-54.6096 468.598,-33.7489 552,-22 558.861,-21.0334 566.185,-19.7901 573.129,-18.5107"/>
</g>
<!-- v20 -->
<g id="v20_Workstation" class="node"><title>v20</title>
<ellipse fill="none" stroke="black" cx="713" cy="-11" rx="47" ry="11"/>
<text text-anchor="middle" x="713" y="-8.8" font-family="sans-serif" font-size="9.00">Workstation</text>
</g>
<!-- v1&#45;&gt;v20 -->
<g id="edge27" class="edge"><title>v1&#45;&gt;v20</title>
<path fill="none" stroke="green" d="M115.754,-64.0878C252.938,-54.241 604.176,-28.7379 657,-22 664.152,-21.0878 671.778,-19.8827 679.027,-18.6259"/>
</g>
<!-- v11 -->
<g id="v11_ConnectDevice" class="node"><title>v11</title>
<ellipse fill="none" stroke="black" cx="916" cy="-11" rx="54" ry="11"/>
<text text-anchor="middle" x="916" y="-8.8" font-family="sans-serif" font-size="9.00">ConnectDevice</text>
</g>
<!-- v3&#45;&gt;v11 -->
<g id="edge6" class="edge"><title>v3&#45;&gt;v11</title>
<path fill="none" stroke="black" d="M1015.35,-58.7527C994.765,-49.0659 962.404,-33.837 940.245,-23.4095"/>
<polygon fill="black" stroke="black" points="935.68,-21.261 941.162,-21.3542 937.942,-22.3255 940.204,-23.39 940.204,-23.39 940.204,-23.39 937.942,-22.3255 939.246,-25.4259 935.68,-21.261 935.68,-21.261"/>
</g>
<!-- v12 -->
<g id="v12_CollectData" class="node"><title>v12</title>
<ellipse fill="none" stroke="black" cx="1035" cy="-11" rx="47" ry="11"/>
<text text-anchor="middle" x="1035" y="-8.8" font-family="sans-serif" font-size="9.00">CollectData</text>
</g>
<!-- v3&#45;&gt;v12 -->
<g id="edge7" class="edge"><title>v3&#45;&gt;v12</title>
<path fill="none" stroke="black" d="M1035,-57.9883C1035,-49.4941 1035,-37.1697 1035,-27.4169"/>
<polygon fill="black" stroke="black" points="1035,-22.3039 1037.25,-27.3038 1035,-24.8039 1035,-27.3039 1035,-27.3039 1035,-27.3039 1035,-24.8039 1032.75,-27.3039 1035,-22.3039 1035,-22.3039"/>
</g>
<!-- v13 -->
<g id="v13_SendSoftware" class="node"><title>v13</title>
<ellipse fill="none" stroke="black" cx="1151" cy="-11" rx="50.5" ry="11"/>
<text text-anchor="middle" x="1151" y="-8.8" font-family="sans-serif" font-size="9.00">SendSoftware</text>
</g>
<!-- v3&#45;&gt;v13 -->
<g id="edge8" class="edge"><title>v3&#45;&gt;v13</title>
<path fill="none" stroke="black" d="M1054.42,-58.6269C1074.44,-48.9585 1105.7,-33.8675 1127.2,-23.4873"/>
<polygon fill="black" stroke="black" points="1131.91,-21.2174 1128.38,-25.4174 1129.66,-22.3043 1127.4,-23.3912 1127.4,-23.3912 1127.4,-23.3912 1129.66,-22.3043 1126.43,-21.3649 1131.91,-21.2174 1131.91,-21.2174"/>
</g>
<!-- v5 -->
<g id="v5_Hallway" class="node"><title>v5</title>
<ellipse fill="none" stroke="black" cx="811" cy="-11" rx="32.5" ry="11"/>
<text text-anchor="middle" x="811" y="-8.8" font-family="sans-serif" font-size="9.00">Hallway</text>
</g>
<!-- v4&#45;&gt;v5 -->
<g id="edge9" class="edge"><title>v4&#45;&gt;v5</title>
<path fill="none" stroke="black" d="M452.681,-233.541C509.389,-198.48 726.087,-64.4998 791.92,-23.7969"/>
<polygon fill="black" stroke="black" points="796.395,-21.0301 793.325,-25.5733 794.268,-22.3448 792.142,-23.6595 792.142,-23.6595 792.142,-23.6595 794.268,-22.3448 790.959,-21.7458 796.395,-21.0301 796.395,-21.0301"/>
</g>
<!-- v6 -->
<g id="v6_Room" class="node"><title>v6</title>
<ellipse fill="none" stroke="black" cx="249" cy="-185" rx="21.5" ry="11"/>
<text text-anchor="middle" x="249" y="-182.8" font-family="sans-serif" font-size="9.00">Room</text>
</g>
<!-- v4&#45;&gt;v6 -->
<g id="edge10" class="edge"><title>v4&#45;&gt;v6</title>
<path fill="none" stroke="black" d="M419.026,-236.113C383.373,-225.605 309.015,-203.689 271.571,-192.653"/>
<polygon fill="black" stroke="black" points="266.758,-191.234 272.19,-190.489 269.156,-191.941 271.554,-192.648 271.554,-192.648 271.554,-192.648 269.156,-191.941 270.918,-194.806 266.758,-191.234 266.758,-191.234"/>
</g>
<!-- v14 -->
<g id="v14_Room" class="node"><title>v14</title>
<ellipse fill="none" stroke="black" cx="439" cy="-69" rx="21.5" ry="11"/>
<text text-anchor="middle" x="439" y="-66.8" font-family="sans-serif" font-size="9.00">Room</text>
</g>
<!-- v4&#45;&gt;v14 -->
<g id="edge11" class="edge"><title>v4&#45;&gt;v14</title>
<path fill="none" stroke="black" d="M439,-231.756C439,-202.786 439,-120.136 439,-85.5335"/>
<polygon fill="black" stroke="black" points="439,-80.4081 441.25,-85.408 439,-82.9081 439,-85.4081 439,-85.4081 439,-85.4081 439,-82.9081 436.75,-85.4081 439,-80.4081 439,-80.4081"/>
</g>
<!-- v18 -->
<g id="v18_Room" class="node"><title>v18</title>
<ellipse fill="none" stroke="black" cx="605" cy="-69" rx="21.5" ry="11"/>
<text text-anchor="middle" x="605" y="-66.8" font-family="sans-serif" font-size="9.00">Room</text>
</g>
<!-- v4&#45;&gt;v18 -->
<g id="edge12" class="edge"><title>v4&#45;&gt;v18</title>
<path fill="none" stroke="black" d="M448.161,-232.508C476.116,-203.543 560.362,-116.251 592.425,-83.0291"/>
<polygon fill="black" stroke="black" points="596.07,-79.2532 594.216,-84.4134 594.333,-81.0521 592.597,-82.8509 592.597,-82.8509 592.597,-82.8509 594.333,-81.0521 590.978,-81.2884 596.07,-79.2532 596.07,-79.2532"/>
</g>
<!-- v5&#45;&gt;v6 -->
<g id="edge28" class="edge"><title>v5&#45;&gt;v6</title>
<path fill="none" stroke="green" d="M786.703,-18.4941C780.935,-19.8381 774.779,-21.1129 769,-22 657.357,-39.1376 364.124,-9.74557 262,-58 229.88,-73.1769 220.158,-83.0017 207,-116 203.378,-125.082 203.464,-128.884 207,-138 213.1,-153.729 227.362,-167.369 237.573,-175.626"/>
</g>
<!-- v5&#45;&gt;v14 -->
<g id="edge29" class="edge"><title>v5&#45;&gt;v14</title>
<path fill="none" stroke="green" d="M786.21,-18.3158C780.574,-19.6363 774.598,-20.9459 769,-22 653.033,-43.8368 512.335,-60.0816 459.961,-65.7801"/>
</g>
<!-- v5&#45;&gt;v18 -->
<g id="edge30" class="edge"><title>v5&#45;&gt;v18</title>
<path fill="none" stroke="green" d="M787.135,-18.4876C745.53,-29.7977 660.601,-52.8852 623.281,-63.0304"/>
</g>
<!-- v7 -->
<g id="v7_Visitor" class="node"><title>v7</title>
<ellipse fill="none" stroke="black" cx="249" cy="-127" rx="32.5" ry="11"/>
<text text-anchor="middle" x="249" y="-124.8" font-family="sans-serif" font-size="9.00">Visitor</text>
</g>
<!-- v6&#45;&gt;v7 -->
<g id="edge13" class="edge"><title>v6&#45;&gt;v7</title>
<path fill="none" stroke="black" d="M249,-173.988C249,-165.494 249,-153.17 249,-143.417"/>
<polygon fill="black" stroke="black" points="249,-138.304 251.25,-143.304 249,-140.804 249,-143.304 249,-143.304 249,-143.304 249,-140.804 246.75,-143.304 249,-138.304 249,-138.304"/>
</g>
<!-- v6&#45;&gt;v10 -->
<g id="edge14" class="edge"><title>v6&#45;&gt;v10</title>
<path fill="none" stroke="black" d="M231.872,-178.119C214.531,-171.254 188.294,-158.199 174,-138 149.971,-104.045 146.604,-52.9446 146.561,-27.5172"/>
<polygon fill="black" stroke="black" points="146.6,-22.2071 148.813,-27.2238 146.582,-24.707 146.563,-27.2069 146.563,-27.2069 146.563,-27.2069 146.582,-24.707 144.313,-27.19 146.6,-22.2071 146.6,-22.2071"/>
</g>
<!-- v7&#45;&gt;v8 -->
<g id="edge15" class="edge"><title>v7&#45;&gt;v8</title>
<path fill="none" stroke="black" d="M257.884,-116.246C266.147,-107.172 278.535,-93.5697 287.738,-83.4636"/>
<polygon fill="black" stroke="black" points="291.218,-79.6427 289.515,-84.8544 289.535,-81.491 287.852,-83.3394 287.852,-83.3394 287.852,-83.3394 289.535,-81.491 286.188,-81.8244 291.218,-79.6427 291.218,-79.6427"/>
</g>
<!-- v9 -->
<g id="v9_Software" class="node"><title>v9</title>
<ellipse fill="none" stroke="black" cx="244" cy="-11" rx="36" ry="11"/>
<text text-anchor="middle" x="244" y="-8.8" font-family="sans-serif" font-size="9.00">Software</text>
</g>
<!-- v8&#45;&gt;v9 -->
<g id="edge16" class="edge"><title>v8&#45;&gt;v9</title>
<path fill="none" stroke="black" d="M290.5,-58.5004C281.385,-49.3846 267.533,-35.5334 257.318,-25.318"/>
<polygon fill="black" stroke="black" points="253.734,-21.7345 258.861,-23.679 255.502,-23.5022 257.27,-25.27 257.27,-25.27 257.27,-25.27 255.502,-23.5022 255.679,-26.861 253.734,-21.7345 253.734,-21.7345"/>
</g>
<!-- v14&#45;&gt;v15 -->
<g id="edge17" class="edge"><title>v14&#45;&gt;v15</title>
<path fill="none" stroke="black" d="M439,-57.9883C439,-49.4941 439,-37.1697 439,-27.4169"/>
<polygon fill="black" stroke="black" points="439,-22.3039 441.25,-27.3038 439,-24.8039 439,-27.3039 439,-27.3039 439,-27.3039 439,-24.8039 436.75,-27.3039 439,-22.3039 439,-22.3039"/>
</g>
<!-- v14&#45;&gt;v16 -->
<g id="edge18" class="edge"><title>v14&#45;&gt;v16</title>
<path fill="none" stroke="black" d="M451.247,-59.737C465.591,-50.0592 489.421,-33.9808 505.414,-23.1904"/>
<polygon fill="black" stroke="black" points="509.703,-20.2969 506.816,-24.9586 507.63,-21.6952 505.558,-23.0934 505.558,-23.0934 505.558,-23.0934 507.63,-21.6952 504.3,-21.2283 509.703,-20.2969 509.703,-20.2969"/>
</g>
<!-- v14&#45;&gt;v17 -->
<g id="edge19" class="edge"><title>v14&#45;&gt;v17</title>
<path fill="none" stroke="black" d="M425.379,-60.4476C408.33,-50.9951 378.953,-34.7065 359.014,-23.6513"/>
<polygon fill="black" stroke="black" points="354.412,-21.0996 359.876,-21.5564 356.598,-22.3119 358.785,-23.5241 358.785,-23.5241 358.785,-23.5241 356.598,-22.3119 357.693,-25.4919 354.412,-21.0996 354.412,-21.0996"/>
</g>
<!-- v18&#45;&gt;v19 -->
<g id="edge20" class="edge"><title>v18&#45;&gt;v19</title>
<path fill="none" stroke="black" d="M605,-57.9883C605,-49.4941 605,-37.1697 605,-27.4169"/>
<polygon fill="black" stroke="black" points="605,-22.3039 607.25,-27.3038 605,-24.8039 605,-27.3039 605,-27.3039 605,-27.3039 605,-24.8039 602.75,-27.3039 605,-22.3039 605,-22.3039"/>
</g>
<!-- v18&#45;&gt;v20 -->
<g id="edge21" class="edge"><title>v18&#45;&gt;v20</title>
<path fill="none" stroke="black" d="M619.119,-60.679C637.192,-51.3076 668.732,-34.9536 690.222,-23.8106"/>
<polygon fill="black" stroke="black" points="694.916,-21.3771 691.513,-25.6762 692.696,-22.5279 690.477,-23.6787 690.477,-23.6787 690.477,-23.6787 692.696,-22.5279 689.441,-21.6813 694.916,-21.3771 694.916,-21.3771"/>
</g>
</g>
</svg>
