<?xml version="1.0" encoding="UTF-8" standalone="no"?>
<?xml-stylesheet href="style.css" type="text/css"?>
<!DOCTYPE svg PUBLIC "-//W3C//DTD SVG 1.1//EN"
 "http://www.w3.org/Graphics/SVG/1.1/DTD/svg11.dtd">
<!-- Generated by graphviz version 2.38.0 (20140413.2041)
 -->
<!-- Title: 8.svg Pages: 1 -->
<svg width="1238pt" height="374pt"
 viewBox="0.00 0.00 1238.00 374.00" xmlns="http://www.w3.org/2000/svg" xmlns:xlink="http://www.w3.org/1999/xlink">
<g id="graph0" class="graph" transform="scale(1 1) rotate(0) translate(4 370)">
<title>8.svg</title>
<polygon fill="white" stroke="none" points="-4,4 -4,-370 1234,-370 1234,4 -4,4"/>
<!-- r0 -->
<g id="node1" class="node"><title>r0</title>
<polygon fill="none" stroke="black" stroke-dasharray="5,2" points="643,-366 620,-366 620,-348 643,-348 643,-366"/>
<text text-anchor="middle" x="631.5" y="-354.8" font-family="serif" font-size="9.00">0</text>
</g>
<!-- v0 -->
<g id="v0_Building" class="node"><title>v0</title>
<ellipse fill="none" stroke="black" cx="631.5" cy="-301" rx="36" ry="11"/>
<text text-anchor="middle" x="631.5" y="-298.8" font-family="sans-serif" font-size="9.00">Building</text>
</g>
<!-- r0&#45;&gt;v0 -->
<g id="edge1" class="edge"><title>r0&#45;&gt;v0</title>
<path fill="none" stroke="black" d="M631.5,-347.562C631.5,-339.453 631.5,-327.014 631.5,-317.181"/>
<polygon fill="black" stroke="black" points="631.5,-312.03 633.75,-317.03 631.5,-314.53 631.5,-317.03 631.5,-317.03 631.5,-317.03 631.5,-314.53 629.25,-317.03 631.5,-312.03 631.5,-312.03"/>
</g>
<!-- r1 -->
<g id="node2" class="node"><title>r1</title>
<polygon fill="none" stroke="black" stroke-dasharray="5,2" points="1075,-366 1052,-366 1052,-348 1075,-348 1075,-366"/>
<text text-anchor="middle" x="1063.5" y="-354.8" font-family="serif" font-size="9.00">1</text>
</g>
<!-- v7 -->
<g id="v7_RulesKeywords" class="node"><title>v7</title>
<ellipse fill="none" stroke="black" cx="1063.5" cy="-69" rx="54" ry="11"/>
<text text-anchor="middle" x="1063.5" y="-66.8" font-family="sans-serif" font-size="9.00">RulesKeywords</text>
</g>
<!-- r1&#45;&gt;v7 -->
<g id="edge2" class="edge"><title>r1&#45;&gt;v7</title>
<path fill="none" stroke="black" d="M1063.5,-347.849C1063.5,-329.373 1063.5,-282.889 1063.5,-244 1063.5,-244 1063.5,-244 1063.5,-184 1063.5,-148.604 1063.5,-107.026 1063.5,-85.1783"/>
<polygon fill="black" stroke="black" points="1063.5,-80.0648 1065.75,-85.0648 1063.5,-82.5648 1063.5,-85.0648 1063.5,-85.0648 1063.5,-85.0648 1063.5,-82.5648 1061.25,-85.0648 1063.5,-80.0648 1063.5,-80.0648"/>
</g>
<!-- e2 -->
<g id="node3" class="node"><title>e2</title>
</g>
<!-- v5 -->
<g id="v5_SmartLight" class="node"><title>v5</title>
<ellipse fill="none" stroke="black" cx="605.5" cy="-11" rx="43" ry="11"/>
<text text-anchor="middle" x="605.5" y="-8.8" font-family="sans-serif" font-size="9.00">SmartLight</text>
</g>
<!-- e2&#45;&gt;v5 -->
<g id="edge23" class="edge"><title>e2&#45;&gt;v5</title>
<path fill="none" stroke="green" d="M605.5,-64.1674C605.5,-55.5862 605.5,-34.5957 605.5,-22.0117"/>
<polygon fill="green" stroke="green" points="609,-67.3001 602,-67.2999 602,-65.8999 609,-65.9001 609,-67.3001"/>
<polyline fill="none" stroke="green" points="605.5,-68 605.5,-64.5 "/>
</g>
<!-- v1 -->
<g id="v1_Floor" class="node"><title>v1</title>
<ellipse fill="none" stroke="black" cx="461.5" cy="-243" rx="25" ry="11"/>
<text text-anchor="middle" x="461.5" y="-240.8" font-family="sans-serif" font-size="9.00">Floor</text>
</g>
<!-- v0&#45;&gt;v1 -->
<g id="edge3" class="edge"><title>v0&#45;&gt;v1</title>
<path fill="none" stroke="black" d="M608.573,-292.448C576.399,-281.849 518.134,-262.656 485.428,-251.882"/>
<polygon fill="black" stroke="black" points="480.406,-250.228 485.859,-249.655 482.781,-251.01 485.155,-251.792 485.155,-251.792 485.155,-251.792 482.781,-251.01 484.451,-253.929 480.406,-250.228 480.406,-250.228"/>
</g>
<!-- v6 -->
<g id="v6_InstallationBus" class="node"><title>v6</title>
<ellipse fill="none" stroke="black" cx="817.5" cy="-11" rx="61" ry="11"/>
<text text-anchor="middle" x="817.5" y="-8.8" font-family="sans-serif" font-size="9.00">InstallationBus</text>
</g>
<!-- v0&#45;&gt;v6 -->
<g id="edge4" class="edge"><title>v0&#45;&gt;v6</title>
<path fill="none" stroke="black" d="M654.364,-292.359C692.39,-278.039 764.5,-243.326 764.5,-186 764.5,-186 764.5,-186 764.5,-126 764.5,-86.8768 790.484,-46.6502 806.065,-26.0464"/>
<polygon fill="black" stroke="black" points="809.219,-21.9551 807.948,-27.2889 807.692,-23.9352 806.166,-25.9152 806.166,-25.9152 806.166,-25.9152 807.692,-23.9352 804.384,-24.5416 809.219,-21.9551 809.219,-21.9551"/>
</g>
<!-- v2 -->
<g id="v2_Room" class="node"><title>v2</title>
<ellipse fill="none" stroke="black" cx="576.5" cy="-185" rx="21.5" ry="11"/>
<text text-anchor="middle" x="576.5" y="-182.8" font-family="sans-serif" font-size="9.00">Room</text>
</g>
<!-- v1&#45;&gt;v2 -->
<g id="edge5" class="edge"><title>v1&#45;&gt;v2</title>
<path fill="none" stroke="black" d="M477.49,-234.213C498.348,-224.057 534.809,-206.302 557.187,-195.405"/>
<polygon fill="black" stroke="black" points="561.738,-193.189 558.228,-197.401 559.49,-194.283 557.242,-195.378 557.242,-195.378 557.242,-195.378 559.49,-194.283 556.257,-193.355 561.738,-193.189 561.738,-193.189"/>
</g>
<!-- v8 -->
<g id="v8_Hallway" class="node"><title>v8</title>
<ellipse fill="none" stroke="black" cx="32.5" cy="-11" rx="32.5" ry="11"/>
<text text-anchor="middle" x="32.5" y="-8.8" font-family="sans-serif" font-size="9.00">Hallway</text>
</g>
<!-- v1&#45;&gt;v8 -->
<g id="edge6" class="edge"><title>v1&#45;&gt;v8</title>
<path fill="none" stroke="black" d="M446.394,-234.055C429.028,-224.912 399.676,-209.428 374.5,-196 252.365,-130.857 106.169,-51.8594 53.0551,-23.1257"/>
<polygon fill="black" stroke="black" points="48.5037,-20.6632 53.972,-21.0635 50.7025,-21.8528 52.9013,-23.0425 52.9013,-23.0425 52.9013,-23.0425 50.7025,-21.8528 51.8306,-25.0214 48.5037,-20.6632 48.5037,-20.6632"/>
</g>
<!-- v13 -->
<g id="v13_Room" class="node"><title>v13</title>
<ellipse fill="none" stroke="black" cx="249.5" cy="-69" rx="21.5" ry="11"/>
<text text-anchor="middle" x="249.5" y="-66.8" font-family="sans-serif" font-size="9.00">Room</text>
</g>
<!-- v1&#45;&gt;v13 -->
<g id="edge7" class="edge"><title>v1&#45;&gt;v13</title>
<path fill="none" stroke="black" d="M450.4,-232.995C414.972,-204.251 304.565,-114.675 264.346,-82.0451"/>
<polygon fill="black" stroke="black" points="260.237,-78.7108 265.537,-80.1137 262.178,-80.2859 264.119,-81.861 264.119,-81.861 264.119,-81.861 262.178,-80.2859 262.702,-83.6083 260.237,-78.7108 260.237,-78.7108"/>
</g>
<!-- v17 -->
<g id="v17_Room" class="node"><title>v17</title>
<ellipse fill="none" stroke="black" cx="461.5" cy="-69" rx="21.5" ry="11"/>
<text text-anchor="middle" x="461.5" y="-66.8" font-family="sans-serif" font-size="9.00">Room</text>
</g>
<!-- v1&#45;&gt;v17 -->
<g id="edge8" class="edge"><title>v1&#45;&gt;v17</title>
<path fill="none" stroke="black" d="M461.5,-231.756C461.5,-202.786 461.5,-120.136 461.5,-85.5335"/>
<polygon fill="black" stroke="black" points="461.5,-80.4081 463.75,-85.408 461.5,-82.9081 461.5,-85.4081 461.5,-85.4081 461.5,-85.4081 461.5,-82.9081 459.25,-85.4081 461.5,-80.4081 461.5,-80.4081"/>
</g>
<!-- v3 -->
<g id="v3_Visitor" class="node"><title>v3</title>
<ellipse fill="none" stroke="black" cx="657.5" cy="-127" rx="32.5" ry="11"/>
<text text-anchor="middle" x="657.5" y="-124.8" font-family="sans-serif" font-size="9.00">Visitor</text>
</g>
<!-- v2&#45;&gt;v3 -->
<g id="edge9" class="edge"><title>v2&#45;&gt;v3</title>
<path fill="none" stroke="black" d="M588.452,-175.737C602.048,-166.337 624.377,-150.9 639.95,-140.133"/>
<polygon fill="black" stroke="black" points="644.15,-137.23 641.317,-141.924 642.094,-138.651 640.037,-140.073 640.037,-140.073 640.037,-140.073 642.094,-138.651 638.758,-138.222 644.15,-137.23 644.15,-137.23"/>
</g>
<!-- v2&#45;&gt;v5 -->
<g id="edge10" class="edge"><title>v2&#45;&gt;v5</title>
<path fill="none" stroke="black" d="M577.806,-173.837C580.615,-152.371 587.618,-100.862 595.5,-58 597.403,-47.6525 599.921,-36.0795 601.954,-27.1302"/>
<polygon fill="black" stroke="black" points="603.087,-22.1933 604.161,-27.5699 602.527,-24.63 601.968,-27.0667 601.968,-27.0667 601.968,-27.0667 602.527,-24.63 599.775,-26.5635 603.087,-22.1933 603.087,-22.1933"/>
</g>
<!-- v2&#45;&gt;v8 -->
<g id="edge21" class="edge"><title>v2&#45;&gt;v8</title>
<path fill="none" stroke="green" d="M562.404,-176.643C520.498,-155.077 392.562,-91.4357 279.5,-58 190.792,-31.7667 165.091,-40.7215 74.5,-22 68.9213,-20.8471 62.9533,-19.4974 57.3188,-18.1693"/>
</g>
<!-- v4 -->
<g id="v4_Laptop" class="node"><title>v4</title>
<ellipse fill="none" stroke="black" cx="677.5" cy="-69" rx="29" ry="11"/>
<text text-anchor="middle" x="677.5" y="-66.8" font-family="sans-serif" font-size="9.00">Laptop</text>
</g>
<!-- v3&#45;&gt;v4 -->
<g id="edge11" class="edge"><title>v3&#45;&gt;v4</title>
<path fill="none" stroke="black" d="M661.076,-115.988C664.176,-107.308 668.704,-94.6286 672.221,-84.7806"/>
<polygon fill="black" stroke="black" points="673.955,-79.925 674.393,-85.3905 673.114,-82.2794 672.274,-84.6337 672.274,-84.6337 672.274,-84.6337 673.114,-82.2794 670.155,-83.8769 673.955,-79.925 673.955,-79.925"/>
</g>
<!-- v4&#45;&gt;v6 -->
<g id="edge22" class="edge"><title>v4&#45;&gt;v6</title>
<path fill="none" stroke="green" d="M696.381,-60.4476C721.758,-50.297 766.842,-32.2633 794.269,-21.2924"/>
</g>
<!-- v9 -->
<g id="v9_Software" class="node"><title>v9</title>
<ellipse fill="none" stroke="black" cx="702.5" cy="-11" rx="36" ry="11"/>
<text text-anchor="middle" x="702.5" y="-8.8" font-family="sans-serif" font-size="9.00">Software</text>
</g>
<!-- v4&#45;&gt;v9 -->
<g id="edge12" class="edge"><title>v4&#45;&gt;v9</title>
<path fill="none" stroke="black" d="M681.969,-57.9883C685.88,-49.2286 691.609,-36.3956 696.022,-26.5103"/>
<polygon fill="black" stroke="black" points="698.069,-21.925 698.085,-27.4079 697.05,-24.2079 696.031,-26.4907 696.031,-26.4907 696.031,-26.4907 697.05,-24.2079 693.976,-25.5735 698.069,-21.925 698.069,-21.925"/>
</g>
<!-- v14 -->
<g id="v14_SmartLight" class="node"><title>v14</title>
<ellipse fill="none" stroke="black" cx="126.5" cy="-11" rx="43" ry="11"/>
<text text-anchor="middle" x="126.5" y="-8.8" font-family="sans-serif" font-size="9.00">SmartLight</text>
</g>
<!-- v6&#45;&gt;v14 -->
<g id="edge24" class="edge"><title>v6&#45;&gt;v14</title>
<path fill="none" stroke="green" d="M795.609,-21.4084C780.067,-28.2018 758.495,-36.446 738.5,-40 678.223,-50.714 247.221,-53.4735 187.5,-40 171.486,-36.3871 154.744,-28.0527 142.859,-21.2415"/>
</g>
<!-- v15 -->
<g id="v15_HVAC" class="node"><title>v15</title>
<ellipse fill="none" stroke="black" cx="209.5" cy="-11" rx="21.5" ry="11"/>
<text text-anchor="middle" x="209.5" y="-8.8" font-family="sans-serif" font-size="9.00">HVAC</text>
</g>
<!-- v6&#45;&gt;v15 -->
<g id="edge25" class="edge"><title>v6&#45;&gt;v15</title>
<path fill="none" stroke="green" d="M795.609,-21.4084C780.067,-28.2018 758.495,-36.446 738.5,-40 684.896,-49.5279 300.186,-57.1105 248.5,-40 237.126,-36.2346 226.37,-27.7237 219.047,-20.8905"/>
</g>
<!-- v16 -->
<g id="v16_FireAlarm" class="node"><title>v16</title>
<ellipse fill="none" stroke="black" cx="288.5" cy="-11" rx="39.5" ry="11"/>
<text text-anchor="middle" x="288.5" y="-8.8" font-family="sans-serif" font-size="9.00">FireAlarm</text>
</g>
<!-- v6&#45;&gt;v16 -->
<g id="edge26" class="edge"><title>v6&#45;&gt;v16</title>
<path fill="none" stroke="green" d="M795.609,-21.4084C780.067,-28.2018 758.495,-36.446 738.5,-40 652.733,-55.2447 431.281,-60.014 346.5,-40 331.16,-36.3788 315.252,-28.0452 303.985,-21.2364"/>
</g>
<!-- v18 -->
<g id="v18_SmartLight" class="node"><title>v18</title>
<ellipse fill="none" stroke="black" cx="389.5" cy="-11" rx="43" ry="11"/>
<text text-anchor="middle" x="389.5" y="-8.8" font-family="sans-serif" font-size="9.00">SmartLight</text>
</g>
<!-- v6&#45;&gt;v18 -->
<g id="edge27" class="edge"><title>v6&#45;&gt;v18</title>
<path fill="none" stroke="green" d="M795.609,-21.4084C780.067,-28.2018 758.495,-36.446 738.5,-40 675.488,-51.2002 512.931,-54.0848 450.5,-40 434.486,-36.3871 417.744,-28.0527 405.859,-21.2415"/>
</g>
<!-- v19 -->
<g id="v19_Workstation" class="node"><title>v19</title>
<ellipse fill="none" stroke="black" cx="497.5" cy="-11" rx="47" ry="11"/>
<text text-anchor="middle" x="497.5" y="-8.8" font-family="sans-serif" font-size="9.00">Workstation</text>
</g>
<!-- v6&#45;&gt;v19 -->
<g id="edge28" class="edge"><title>v6&#45;&gt;v19</title>
<path fill="none" stroke="green" d="M795.609,-21.4084C780.067,-28.2018 758.495,-36.446 738.5,-40 661.485,-53.6891 639.007,-56.2928 562.5,-40 545.58,-36.3967 527.726,-28.0614 515.021,-21.2474"/>
</g>
<!-- v10 -->
<g id="v10_GenerateData" class="node"><title>v10</title>
<ellipse fill="none" stroke="black" cx="947.5" cy="-11" rx="50.5" ry="11"/>
<text text-anchor="middle" x="947.5" y="-8.8" font-family="sans-serif" font-size="9.00">GenerateData</text>
</g>
<!-- v7&#45;&gt;v10 -->
<g id="edge13" class="edge"><title>v7&#45;&gt;v10</title>
<path fill="none" stroke="black" d="M1044.08,-58.6269C1024.06,-48.9585 992.797,-33.8675 971.295,-23.4873"/>
<polygon fill="black" stroke="black" points="966.593,-21.2174 972.074,-21.3649 968.844,-22.3043 971.096,-23.3912 971.096,-23.3912 971.096,-23.3912 968.844,-22.3043 970.118,-25.4174 966.593,-21.2174 966.593,-21.2174"/>
</g>
<!-- v11 -->
<g id="v11_CollectData" class="node"><title>v11</title>
<ellipse fill="none" stroke="black" cx="1063.5" cy="-11" rx="47" ry="11"/>
<text text-anchor="middle" x="1063.5" y="-8.8" font-family="sans-serif" font-size="9.00">CollectData</text>
</g>
<!-- v7&#45;&gt;v11 -->
<g id="edge14" class="edge"><title>v7&#45;&gt;v11</title>
<path fill="none" stroke="black" d="M1063.5,-57.9883C1063.5,-49.4941 1063.5,-37.1697 1063.5,-27.4169"/>
<polygon fill="black" stroke="black" points="1063.5,-22.3039 1065.75,-27.3038 1063.5,-24.8039 1063.5,-27.3039 1063.5,-27.3039 1063.5,-27.3039 1063.5,-24.8039 1061.25,-27.3039 1063.5,-22.3039 1063.5,-22.3039"/>
</g>
<!-- v12 -->
<g id="v12_SendSoftware" class="node"><title>v12</title>
<ellipse fill="none" stroke="black" cx="1179.5" cy="-11" rx="50.5" ry="11"/>
<text text-anchor="middle" x="1179.5" y="-8.8" font-family="sans-serif" font-size="9.00">SendSoftware</text>
</g>
<!-- v7&#45;&gt;v12 -->
<g id="edge15" class="edge"><title>v7&#45;&gt;v12</title>
<path fill="none" stroke="black" d="M1082.92,-58.6269C1102.94,-48.9585 1134.2,-33.8675 1155.7,-23.4873"/>
<polygon fill="black" stroke="black" points="1160.41,-21.2174 1156.88,-25.4174 1158.16,-22.3043 1155.9,-23.3912 1155.9,-23.3912 1155.9,-23.3912 1158.16,-22.3043 1154.93,-21.3649 1160.41,-21.2174 1160.41,-21.2174"/>
</g>
<!-- v8&#45;&gt;v13 -->
<g id="edge29" class="edge"><title>v8&#45;&gt;v13</title>
<path fill="none" stroke="green" d="M57.1649,-18.3651C101.098,-29.7028 191.949,-53.148 230.999,-63.2255"/>
</g>
<!-- v8&#45;&gt;v17 -->
<g id="edge30" class="edge"><title>v8&#45;&gt;v17</title>
<path fill="none" stroke="green" d="M56.8303,-18.2957C62.5963,-19.6479 68.7439,-20.9762 74.5,-22 110.805,-28.4575 365.915,-57.2744 440.85,-65.6871"/>
</g>
<!-- v13&#45;&gt;v14 -->
<g id="edge16" class="edge"><title>v13&#45;&gt;v14</title>
<path fill="none" stroke="black" d="M234.418,-61.1333C213.609,-51.6595 175.851,-34.4688 150.972,-23.1418"/>
<polygon fill="black" stroke="black" points="146.177,-20.9586 151.66,-20.9826 148.452,-21.9945 150.727,-23.0304 150.727,-23.0304 150.727,-23.0304 148.452,-21.9945 149.795,-25.0782 146.177,-20.9586 146.177,-20.9586"/>
</g>
<!-- v13&#45;&gt;v15 -->
<g id="edge17" class="edge"><title>v13&#45;&gt;v15</title>
<path fill="none" stroke="black" d="M242.715,-58.5004C236.317,-49.5445 226.656,-36.018 219.399,-25.859"/>
<polygon fill="black" stroke="black" points="216.453,-21.7345 221.19,-24.4953 217.906,-23.7688 219.359,-25.8031 219.359,-25.8031 219.359,-25.8031 217.906,-23.7688 217.529,-27.111 216.453,-21.7345 216.453,-21.7345"/>
</g>
<!-- v13&#45;&gt;v16 -->
<g id="edge18" class="edge"><title>v13&#45;&gt;v16</title>
<path fill="none" stroke="black" d="M256.116,-58.5004C262.277,-49.6537 271.544,-36.3472 278.588,-26.2321"/>
<polygon fill="black" stroke="black" points="281.456,-22.1148 280.445,-27.5038 280.027,-24.1664 278.598,-26.2179 278.598,-26.2179 278.598,-26.2179 280.027,-24.1664 276.752,-24.932 281.456,-22.1148 281.456,-22.1148"/>
</g>
<!-- v17&#45;&gt;v18 -->
<g id="edge19" class="edge"><title>v17&#45;&gt;v18</title>
<path fill="none" stroke="black" d="M450.565,-59.4948C438.729,-50.2888 419.716,-35.5013 406.049,-24.8712"/>
<polygon fill="black" stroke="black" points="401.993,-21.7165 407.321,-23.0102 403.966,-23.2513 405.939,-24.7862 405.939,-24.7862 405.939,-24.7862 403.966,-23.2513 404.558,-26.5623 401.993,-21.7165 401.993,-21.7165"/>
</g>
<!-- v17&#45;&gt;v19 -->
<g id="edge20" class="edge"><title>v17&#45;&gt;v19</title>
<path fill="none" stroke="black" d="M467.771,-58.2455C473.431,-49.4409 481.832,-36.373 488.261,-26.3724"/>
<polygon fill="black" stroke="black" points="491.059,-22.0198 490.248,-27.4424 489.707,-24.1227 488.355,-26.2257 488.355,-26.2257 488.355,-26.2257 489.707,-24.1227 486.462,-25.0089 491.059,-22.0198 491.059,-22.0198"/>
</g>
</g>
</svg>
